<?xml version="1.0" encoding="UTF-8" standalone="no"?>
<!DOCTYPE svg PUBLIC "-//W3C//DTD SVG 1.1//EN"
 "http://www.w3.org/Graphics/SVG/1.1/DTD/svg11.dtd">
<!-- Generated by graphviz version 8.0.5 (0)
 -->
<!-- Title: chidgab Pages: 1 -->
<svg width="1321pt" height="411pt"
 viewBox="0.00 0.00 1321.29 410.93" xmlns="http://www.w3.org/2000/svg" xmlns:xlink="http://www.w3.org/1999/xlink">
<g id="graph0" class="graph" transform="scale(1 1) rotate(0) translate(4 406.93)">
<title>chidgab</title>
<polygon fill="white" stroke="none" points="-4,4 -4,-406.93 1317.29,-406.93 1317.29,4 -4,4"/>
<!-- start -->
<g id="node1" class="node">
<title>start</title>
<ellipse fill="#ffffff" stroke="#000000" cx="635.79" cy="-311.89" rx="144.96" ry="91.04"/>
<text text-anchor="middle" x="635.79" y="-358.97" font-family="Times,serif" font-size="14.00">Вы видите одного из Чад</text>
<text text-anchor="middle" x="635.79" y="-341.72" font-family="Times,serif" font-size="14.00">Собора. У него явно</text>
<text text-anchor="middle" x="635.79" y="-324.47" font-family="Times,serif" font-size="14.00">скверное настроение.</text>
<text text-anchor="middle" x="635.79" y="-307.22" font-family="Times,serif" font-size="14.00">&#45;&#45;&#45;</text>
<text text-anchor="middle" x="635.79" y="-289.97" font-family="Times,serif" font-size="14.00">Отвали!</text>
<text text-anchor="middle" x="635.79" y="-272.72" font-family="Times,serif" font-size="14.00">&#45;&#45;&#45;</text>
<text text-anchor="middle" x="635.79" y="-255.47" font-family="Times,serif" font-size="14.00">Отойди от меня, скотина!</text>
</g>
<!-- Brat02 -->
<g id="node2" class="node">
<title>Brat02</title>
<ellipse fill="#ffffff" stroke="#000000" cx="635.79" cy="-165.85" rx="138.54" ry="18"/>
<text text-anchor="middle" x="635.79" y="-161.18" font-family="Times,serif" font-size="14.00">Какого хрена тебе надо?</text>
</g>
<!-- start&#45;&gt;Brat02 -->
<g id="edge1" class="edge">
<title>start&#45;&gt;Brat02</title>
<path fill="none" stroke="#555555" stroke-dasharray="1,5" d="M635.79,-220.49C635.79,-211.44 635.79,-202.8 635.79,-195.21"/>
<polygon fill="#555555" stroke="#555555" points="639.29,-195.22 635.79,-185.22 632.29,-195.22 639.29,-195.22"/>
</g>
<!-- Brat03 -->
<g id="node3" class="node">
<title>Brat03</title>
<ellipse fill="#ffffff" stroke="#000000" cx="52.79" cy="-30.05" rx="52.79" ry="18"/>
<text text-anchor="middle" x="52.79" y="-25.38" font-family="Times,serif" font-size="14.00">Отвали!</text>
</g>
<!-- Brat02&#45;&gt;Brat03 -->
<g id="edge2" class="edge">
<title>Brat02&#45;&gt;Brat03</title>
<path fill="none" stroke="#1f9900" d="M498.35,-163.08C385.3,-160.01 234.88,-151.78 178.54,-129.85 137.11,-113.73 98.31,-79.12 75.06,-55.46"/>
<polygon fill="#1f9900" stroke="#1f9900" points="77.95,-53.39 68.5,-48.6 72.91,-58.23 77.95,-53.39"/>
<text text-anchor="middle" x="253.41" y="-107.93" font-family="Times,serif" font-size="14.00" fill="#1f9900">Где мне найти этого</text>
<text text-anchor="middle" x="253.41" y="-90.68" font-family="Times,serif" font-size="14.00" fill="#1f9900">Создателя?</text>
</g>
<!-- Brat04 -->
<g id="node4" class="node">
<title>Brat04</title>
<ellipse fill="#ffffff" stroke="#000000" cx="265.79" cy="-30.05" rx="141.77" ry="30.05"/>
<text text-anchor="middle" x="265.79" y="-34" font-family="Times,serif" font-size="14.00">Ты всегда задаешь такие</text>
<text text-anchor="middle" x="265.79" y="-16.75" font-family="Times,serif" font-size="14.00">идиотские вопросы?</text>
</g>
<!-- Brat02&#45;&gt;Brat04 -->
<g id="edge3" class="edge">
<title>Brat02&#45;&gt;Brat04</title>
<path fill="none" stroke="#99004b" d="M525.09,-154.75C492.19,-149.56 456.54,-141.71 425.04,-129.85 383.74,-114.31 341.51,-87.51 310.92,-65.74"/>
<polygon fill="#99004b" stroke="#99004b" points="313.37,-62.47 303.21,-59.46 309.27,-68.15 313.37,-62.47"/>
<text text-anchor="middle" x="487.66" y="-107.93" font-family="Times,serif" font-size="14.00" fill="#99004b">Хочу понять, что</text>
<text text-anchor="middle" x="487.66" y="-90.68" font-family="Times,serif" font-size="14.00" fill="#99004b">происходит.</text>
</g>
<!-- Brat05 -->
<g id="node5" class="node">
<title>Brat05</title>
<ellipse fill="#ffffff" stroke="#000000" cx="553.79" cy="-30.05" rx="128.52" ry="30.05"/>
<text text-anchor="middle" x="553.79" y="-34" font-family="Times,serif" font-size="14.00">Тебе это все равно без</text>
<text text-anchor="middle" x="553.79" y="-16.75" font-family="Times,serif" font-size="14.00">разницы, панк.</text>
</g>
<!-- Brat02&#45;&gt;Brat05 -->
<g id="edge4" class="edge">
<title>Brat02&#45;&gt;Brat05</title>
<path fill="none" stroke="#007899" d="M590.03,-148.56C581.77,-143.71 574.04,-137.57 568.54,-129.85 556.58,-113.09 552.54,-90.63 551.65,-71.36"/>
<polygon fill="#007899" stroke="#007899" points="555.13,-71.39 551.45,-61.45 548.13,-71.51 555.13,-71.39"/>
<text text-anchor="middle" x="632.91" y="-99.3" font-family="Times,serif" font-size="14.00" fill="#007899">Кто тут главный?</text>
</g>
<!-- Brat06 -->
<g id="node6" class="node">
<title>Brat06</title>
<ellipse fill="#ffffff" stroke="#000000" cx="839.79" cy="-30.05" rx="139.12" ry="30.05"/>
<text text-anchor="middle" x="839.79" y="-34" font-family="Times,serif" font-size="14.00">Думаешь, я буду с тобой</text>
<text text-anchor="middle" x="839.79" y="-16.75" font-family="Times,serif" font-size="14.00">пить, ничтожество?</text>
</g>
<!-- Brat02&#45;&gt;Brat06 -->
<g id="edge5" class="edge">
<title>Brat02&#45;&gt;Brat06</title>
<path fill="none" stroke="#998e00" d="M673.34,-148.24C681.81,-143.23 690.23,-137.09 696.79,-129.85 713.71,-111.17 701.79,-95.5 720.04,-78.1 727.68,-70.82 736.57,-64.62 746.01,-59.36"/>
<polygon fill="#998e00" stroke="#998e00" points="747.32,-62.11 754.59,-54.4 744.1,-55.89 747.32,-62.11"/>
<text text-anchor="middle" x="815.66" y="-107.93" font-family="Times,serif" font-size="14.00" fill="#998e00">Расслабься! Давай лучше</text>
<text text-anchor="middle" x="815.66" y="-90.68" font-family="Times,serif" font-size="14.00" fill="#998e00">выпьем!</text>
</g>
<!-- Brat07 -->
<g id="node7" class="node">
<title>Brat07</title>
<ellipse fill="#ffffff" stroke="#000000" cx="1131.79" cy="-30.05" rx="134.88" ry="30.05"/>
<text text-anchor="middle" x="1131.79" y="-34" font-family="Times,serif" font-size="14.00">Иди отсюда, пока кости</text>
<text text-anchor="middle" x="1131.79" y="-16.75" font-family="Times,serif" font-size="14.00">целы!</text>
</g>
<!-- Brat02&#45;&gt;Brat07 -->
<g id="edge6" class="edge">
<title>Brat02&#45;&gt;Brat07</title>
<path fill="none" stroke="#610099" d="M767.91,-160.12C826.34,-155.61 886.94,-146.85 909.79,-129.85 929.98,-114.83 913.41,-94.17 932.79,-78.1 940.45,-71.74 979.65,-61.92 1021.26,-52.89"/>
<polygon fill="#610099" stroke="#610099" points="1021.82,-56.13 1030.87,-50.61 1020.36,-49.28 1021.82,-56.13"/>
<text text-anchor="middle" x="1021.29" y="-116.55" font-family="Times,serif" font-size="14.00" fill="#610099">Хочу пополнить твоими</text>
<text text-anchor="middle" x="1021.29" y="-99.3" font-family="Times,serif" font-size="14.00" fill="#610099">ушами свою коллекцию</text>
<text text-anchor="middle" x="1021.29" y="-82.05" font-family="Times,serif" font-size="14.00" fill="#610099">трофеев.</text>
</g>
<!-- Brat02&#45;&gt;Brat07 -->
<g id="edge7" class="edge">
<title>Brat02&#45;&gt;Brat07</title>
<path fill="none" stroke="#009934" d="M773.09,-162.94C903.94,-159.8 1084.68,-151.55 1109.79,-129.85 1126.35,-115.54 1132.01,-91.75 1133.44,-71.1"/>
<polygon fill="#009934" stroke="#009934" points="1136.97,-71.47 1133.85,-61.35 1129.97,-71.21 1136.97,-71.47"/>
<text text-anchor="middle" x="1222.54" y="-107.93" font-family="Times,serif" font-size="14.00" fill="#009934">Не хочет ничего валить!</text>
<text text-anchor="middle" x="1222.54" y="-90.68" font-family="Times,serif" font-size="14.00" fill="#009934">Глупый человек!</text>
</g>
<!-- Combat -->
<g id="node8" class="node">
<title>Combat</title>
<ellipse fill="#ffffff" stroke="#000000" cx="825.79" cy="-311.89" rx="27" ry="18"/>
</g>
<!-- BratEnd -->
<g id="node9" class="node">
<title>BratEnd</title>
<ellipse fill="#ffffff" stroke="#000000" cx="897.79" cy="-311.89" rx="27" ry="18"/>
</g>
</g>
</svg>
