<?xml version="1.0" encoding="UTF-8" standalone="no"?>
<!DOCTYPE svg PUBLIC "-//W3C//DTD SVG 1.1//EN"
 "http://www.w3.org/Graphics/SVG/1.1/DTD/svg11.dtd">
<!-- Generated by graphviz version 8.0.5 (0)
 -->
<!-- Title: citizen Pages: 1 -->
<svg width="932pt" height="344pt"
 viewBox="0.00 0.00 932.03 343.71" xmlns="http://www.w3.org/2000/svg" xmlns:xlink="http://www.w3.org/1999/xlink">
<g id="graph0" class="graph" transform="scale(1 1) rotate(0) translate(4 339.71)">
<title>citizen</title>
<polygon fill="white" stroke="none" points="-4,4 -4,-339.71 928.03,-339.71 928.03,4 -4,4"/>
<!-- start -->
<g id="node1" class="node">
<title>start</title>
<ellipse fill="#ffffff" stroke="#000000" cx="27" cy="-305.66" rx="27" ry="18"/>
</g>
<!-- combat_p_proc -->
<g id="node2" class="node">
<title>combat_p_proc</title>
<ellipse fill="#ffffff" stroke="#000000" cx="99" cy="-305.66" rx="27" ry="18"/>
</g>
<!-- critter_p_proc -->
<g id="node3" class="node">
<title>critter_p_proc</title>
<ellipse fill="#ffffff" stroke="#000000" cx="171" cy="-305.66" rx="27" ry="18"/>
</g>
<!-- flee_dude -->
<g id="node4" class="node">
<title>flee_dude</title>
<ellipse fill="#ffffff" stroke="#000000" cx="171" cy="-208.55" rx="27" ry="18"/>
</g>
<!-- critter_p_proc&#45;&gt;flee_dude -->
<g id="edge1" class="edge">
<title>critter_p_proc&#45;&gt;flee_dude</title>
<path fill="none" stroke="#555555" stroke-dasharray="1,5" d="M171,-287.21C171,-273.4 171,-253.84 171,-237.81"/>
<polygon fill="#555555" stroke="#555555" points="174.5,-237.88 171,-227.89 167.5,-237.89 174.5,-237.88"/>
</g>
<!-- damage_p_proc -->
<g id="node5" class="node">
<title>damage_p_proc</title>
<ellipse fill="#ffffff" stroke="#000000" cx="243" cy="-305.66" rx="27" ry="18"/>
</g>
<!-- destroy_p_proc -->
<g id="node6" class="node">
<title>destroy_p_proc</title>
<ellipse fill="#ffffff" stroke="#000000" cx="315" cy="-305.66" rx="27" ry="18"/>
</g>
<!-- look_at_p_proc -->
<g id="node7" class="node">
<title>look_at_p_proc</title>
<ellipse fill="#ffffff" stroke="#000000" cx="506" cy="-305.66" rx="146.02" ry="30.05"/>
<text text-anchor="middle" x="506" y="-309.61" font-family="Times,serif" font-size="14.00">Вы видите жителя Шэйди</text>
<text text-anchor="middle" x="506" y="-292.36" font-family="Times,serif" font-size="14.00">Сэндс.</text>
</g>
<!-- pickup_p_proc -->
<g id="node8" class="node">
<title>pickup_p_proc</title>
<ellipse fill="#ffffff" stroke="#000000" cx="697" cy="-305.66" rx="27" ry="18"/>
</g>
<!-- talk_p_proc -->
<g id="node9" class="node">
<title>talk_p_proc</title>
<ellipse fill="#ffffff" stroke="#000000" cx="769" cy="-305.66" rx="27" ry="18"/>
</g>
<!-- Citizen01 -->
<g id="node10" class="node">
<title>Citizen01</title>
<ellipse fill="#ffffff" stroke="#000000" cx="769" cy="-208.55" rx="155.03" ry="30.05"/>
<text text-anchor="middle" x="769" y="-212.5" font-family="Times,serif" font-size="14.00">Добро пожаловать в Шэйди</text>
<text text-anchor="middle" x="769" y="-195.25" font-family="Times,serif" font-size="14.00">Сэндс!</text>
</g>
<!-- talk_p_proc&#45;&gt;Citizen01 -->
<g id="edge2" class="edge">
<title>talk_p_proc&#45;&gt;Citizen01</title>
<path fill="none" stroke="#555555" stroke-dasharray="1,5" d="M769,-287.21C769,-276.66 769,-262.73 769,-249.6"/>
<polygon fill="#555555" stroke="#555555" points="772.5,-249.84 769,-239.84 765.5,-249.84 772.5,-249.84"/>
</g>
<!-- Citizen02 -->
<g id="node12" class="node">
<title>Citizen02</title>
<ellipse fill="#ffffff" stroke="#000000" cx="617" cy="-107.25" rx="27" ry="18"/>
</g>
<!-- Citizen01&#45;&gt;Citizen02 -->
<g id="edge3" class="edge">
<title>Citizen01&#45;&gt;Citizen02</title>
<path fill="none" stroke="#1f0099" d="M667.59,-185.46C654.36,-179.13 641.96,-170.98 632,-160.5 625.69,-153.86 622.01,-144.75 619.87,-135.99"/>
<polygon fill="#1f0099" stroke="#1f0099" points="623.16,-135.5 617.91,-126.3 616.27,-136.77 623.16,-135.5"/>
<text text-anchor="middle" x="696.5" y="-147.2" font-family="Times,serif" font-size="14.00" fill="#1f0099">Что это за место?</text>
</g>
<!-- CitizenEnd -->
<g id="node13" class="node">
<title>CitizenEnd</title>
<ellipse fill="#ffffff" stroke="#000000" cx="827" cy="-107.25" rx="27" ry="18"/>
</g>
<!-- Citizen01&#45;&gt;CitizenEnd -->
<g id="edge4" class="edge">
<title>Citizen01&#45;&gt;CitizenEnd</title>
<path fill="none" stroke="#0e9900" d="M763.76,-178.1C763.14,-166.56 764.33,-153.63 770.25,-143.25 775.57,-133.92 784.49,-126.76 793.7,-121.42"/>
<polygon fill="#0e9900" stroke="#0e9900" points="794.98,-124.18 802.26,-116.49 791.77,-117.96 794.98,-124.18"/>
<text text-anchor="middle" x="817.88" y="-147.2" font-family="Times,serif" font-size="14.00" fill="#0e9900">Э... Спасибо.</text>
</g>
<!-- Citizen01&#45;&gt;CitizenEnd -->
<g id="edge5" class="edge">
<title>Citizen01&#45;&gt;CitizenEnd</title>
<path fill="none" stroke="#99003a" d="M842.86,-181.99C851.23,-176.18 858.66,-169.1 864,-160.5 870.89,-149.4 863.65,-137.47 853.8,-127.82"/>
<polygon fill="#99003a" stroke="#99003a" points="856.4,-124.57 846.57,-120.63 851.8,-129.84 856.4,-124.57"/>
<text text-anchor="middle" x="885.12" y="-147.2" font-family="Times,serif" font-size="14.00" fill="#99003a">Хн&#45;н!</text>
</g>
<!-- timed_event_p_proc -->
<g id="node11" class="node">
<title>timed_event_p_proc</title>
<ellipse fill="#ffffff" stroke="#000000" cx="841" cy="-305.66" rx="27" ry="18"/>
</g>
<!-- Goodbyes -->
<g id="node14" class="node">
<title>Goodbyes</title>
<ellipse fill="#ffffff" stroke="#000000" cx="379" cy="-18" rx="27" ry="18"/>
</g>
<!-- Citizen02&#45;&gt;Goodbyes -->
<g id="edge6" class="edge">
<title>Citizen02&#45;&gt;Goodbyes</title>
<path fill="none" stroke="#555555" stroke-dasharray="1,5" d="M589.75,-104.93C538.85,-101.98 431.9,-93.27 403,-71.25 395.01,-65.16 389.59,-55.79 385.96,-46.65"/>
<polygon fill="#555555" stroke="#555555" points="388.97,-45.61 382.47,-37.24 382.33,-47.84 388.97,-45.61"/>
</g>
<!-- Citizen03 -->
<g id="node15" class="node">
<title>Citizen03</title>
<ellipse fill="#ffffff" stroke="#000000" cx="566" cy="-18" rx="27" ry="18"/>
</g>
<!-- Citizen02&#45;&gt;Citizen03 -->
<g id="edge7" class="edge">
<title>Citizen02&#45;&gt;Citizen03</title>
<path fill="none" stroke="#006799" d="M589.72,-105.73C539.5,-104.14 435.51,-97.66 413.25,-71.25 380.13,-31.95 472.82,-22.14 528.09,-19.74"/>
<polygon fill="#006799" stroke="#006799" points="528.06,-23.21 537.93,-19.34 527.8,-16.21 528.06,-23.21"/>
<text text-anchor="middle" x="508.88" y="-57.95" font-family="Times,serif" font-size="14.00" fill="#006799">Как вам удается выжить?</text>
</g>
<!-- Citizen04 -->
<g id="node16" class="node">
<title>Citizen04</title>
<ellipse fill="#ffffff" stroke="#000000" cx="701" cy="-18" rx="27" ry="18"/>
</g>
<!-- Citizen02&#45;&gt;Citizen04 -->
<g id="edge8" class="edge">
<title>Citizen02&#45;&gt;Citizen04</title>
<path fill="none" stroke="#949900" d="M625.49,-90.04C631.7,-79.1 640.84,-64.76 651.25,-54 657.45,-47.6 664.96,-41.61 672.26,-36.47"/>
<polygon fill="#949900" stroke="#949900" points="673.9,-38.91 680.26,-30.43 670,-33.09 673.9,-38.91"/>
<text text-anchor="middle" x="722.88" y="-57.95" font-family="Times,serif" font-size="14.00" fill="#949900">Кто у вас главный?</text>
</g>
<!-- Citizen03&#45;&gt;Citizen02 -->
<g id="edge9" class="edge">
<title>Citizen03&#45;&gt;Citizen02</title>
<path fill="none" stroke="#555555" stroke-dasharray="1,5" d="M583.52,-32.01C590.49,-38.01 598.02,-45.64 603,-54 607.36,-61.32 610.39,-70.02 612.48,-78.19"/>
<polygon fill="#555555" stroke="#555555" points="609.25,-78.81 614.8,-87.84 616.1,-77.33 609.25,-78.81"/>
</g>
<!-- Citizen04&#45;&gt;Citizen02 -->
<g id="edge10" class="edge">
<title>Citizen04&#45;&gt;Citizen02</title>
<path fill="none" stroke="#555555" stroke-dasharray="1,5" d="M727.19,-23.56C761.16,-30.59 813.74,-45.98 793,-71.25 775.88,-92.11 701.35,-100.76 654.94,-104.18"/>
<polygon fill="#555555" stroke="#555555" points="654.82,-100.75 645.08,-104.92 655.3,-107.73 654.82,-100.75"/>
</g>
</g>
</svg>
