<?xml version="1.0" encoding="UTF-8" standalone="no"?>
<!DOCTYPE svg PUBLIC "-//W3C//DTD SVG 1.1//EN"
 "http://www.w3.org/Graphics/SVG/1.1/DTD/svg11.dtd">
<!-- Generated by graphviz version 8.0.5 (0)
 -->
<!-- Title: danwife Pages: 1 -->
<svg width="1094pt" height="334pt"
 viewBox="0.00 0.00 1094.00 334.08" xmlns="http://www.w3.org/2000/svg" xmlns:xlink="http://www.w3.org/1999/xlink">
<g id="graph0" class="graph" transform="scale(1 1) rotate(0) translate(4 330.08)">
<title>danwife</title>
<polygon fill="white" stroke="none" points="-4,4 -4,-330.08 1090,-330.08 1090,4 -4,4"/>
<!-- start -->
<g id="node1" class="node">
<title>start</title>
<ellipse fill="#ffffff" stroke="#000000" cx="27" cy="-235.04" rx="27" ry="18"/>
</g>
<!-- critter_p_proc -->
<g id="node2" class="node">
<title>critter_p_proc</title>
<ellipse fill="#ffffff" stroke="#000000" cx="99" cy="-235.04" rx="27" ry="18"/>
</g>
<!-- pickup_p_proc -->
<g id="node3" class="node">
<title>pickup_p_proc</title>
<ellipse fill="#ffffff" stroke="#000000" cx="171" cy="-235.04" rx="27" ry="18"/>
</g>
<!-- talk_p_proc -->
<g id="node4" class="node">
<title>talk_p_proc</title>
<ellipse fill="#ffffff" stroke="#000000" cx="381" cy="-235.04" rx="165.11" ry="91.04"/>
<text text-anchor="middle" x="381" y="-282.11" font-family="Times,serif" font-size="14.00">Ты ужасный человек! Зачем</text>
<text text-anchor="middle" x="381" y="-264.86" font-family="Times,serif" font-size="14.00">ты это сделал? Ты убил</text>
<text text-anchor="middle" x="381" y="-247.61" font-family="Times,serif" font-size="14.00">моего Дэнни!</text>
<text text-anchor="middle" x="381" y="-230.36" font-family="Times,serif" font-size="14.00">&#45;&#45;&#45;</text>
<text text-anchor="middle" x="381" y="-213.11" font-family="Times,serif" font-size="14.00">Ты ужасная женщина! Зачем</text>
<text text-anchor="middle" x="381" y="-195.86" font-family="Times,serif" font-size="14.00">ты это сделала? Ты убила</text>
<text text-anchor="middle" x="381" y="-178.61" font-family="Times,serif" font-size="14.00">моего Дэнни!</text>
</g>
<!-- get_reaction -->
<g id="node5" class="node">
<title>get_reaction</title>
<ellipse fill="#ffffff" stroke="#000000" cx="381" cy="-90" rx="27" ry="18"/>
</g>
<!-- talk_p_proc&#45;&gt;get_reaction -->
<g id="edge1" class="edge">
<title>talk_p_proc&#45;&gt;get_reaction</title>
<path fill="none" stroke="#555555" stroke-dasharray="1,5" d="M381,-143.86C381,-134.92 381,-126.41 381,-118.92"/>
<polygon fill="#555555" stroke="#555555" points="384.5,-119.1 381,-109.1 377.5,-119.1 384.5,-119.1"/>
</g>
<!-- ReactToLevel -->
<g id="node10" class="node">
<title>ReactToLevel</title>
<ellipse fill="#ffffff" stroke="#000000" cx="381" cy="-18" rx="27" ry="18"/>
</g>
<!-- get_reaction&#45;&gt;ReactToLevel -->
<g id="edge2" class="edge">
<title>get_reaction&#45;&gt;ReactToLevel</title>
<path fill="none" stroke="#555555" stroke-dasharray="1,5" d="M381,-71.7C381,-64.24 381,-55.32 381,-46.97"/>
<polygon fill="#555555" stroke="#555555" points="384.5,-47.1 381,-37.1 377.5,-47.1 384.5,-47.1"/>
</g>
<!-- destroy_p_proc -->
<g id="node6" class="node">
<title>destroy_p_proc</title>
<ellipse fill="#ffffff" stroke="#000000" cx="591" cy="-235.04" rx="27" ry="18"/>
</g>
<!-- look_at_p_proc -->
<g id="node7" class="node">
<title>look_at_p_proc</title>
<ellipse fill="#ffffff" stroke="#000000" cx="789" cy="-235.04" rx="152.91" ry="54.45"/>
<text text-anchor="middle" x="789" y="-256.24" font-family="Times,serif" font-size="14.00">Вы видите плачущую жену</text>
<text text-anchor="middle" x="789" y="-238.99" font-family="Times,serif" font-size="14.00">Дэна.</text>
<text text-anchor="middle" x="789" y="-221.74" font-family="Times,serif" font-size="14.00">&#45;&#45;&#45;</text>
<text text-anchor="middle" x="789" y="-204.49" font-family="Times,serif" font-size="14.00">Вы видите жену Дэна.</text>
</g>
<!-- timed_event_p_proc -->
<g id="node8" class="node">
<title>timed_event_p_proc</title>
<ellipse fill="#ffffff" stroke="#000000" cx="987" cy="-235.04" rx="27" ry="18"/>
</g>
<!-- damage_p_proc -->
<g id="node9" class="node">
<title>damage_p_proc</title>
<ellipse fill="#ffffff" stroke="#000000" cx="1059" cy="-235.04" rx="27" ry="18"/>
</g>
</g>
</svg>
