<?xml version="1.0" encoding="UTF-8" standalone="no"?>
<!DOCTYPE svg PUBLIC "-//W3C//DTD SVG 1.1//EN"
 "http://www.w3.org/Graphics/SVG/1.1/DTD/svg11.dtd">
<!-- Generated by graphviz version 8.0.5 (0)
 -->
<!-- Title: fieldgen Pages: 1 -->
<svg width="672pt" height="236pt"
 viewBox="0.00 0.00 671.79 236.21" xmlns="http://www.w3.org/2000/svg" xmlns:xlink="http://www.w3.org/1999/xlink">
<g id="graph0" class="graph" transform="scale(1 1) rotate(0) translate(4 232.21)">
<title>fieldgen</title>
<polygon fill="white" stroke="none" points="-4,4 -4,-232.21 667.79,-232.21 667.79,4 -4,4"/>
<!-- start -->
<g id="node1" class="node">
<title>start</title>
<ellipse fill="#ffffff" stroke="#000000" cx="331.4" cy="-210.21" rx="27" ry="18"/>
</g>
<!-- use_obj_on_p_proc -->
<g id="node2" class="node">
<title>use_obj_on_p_proc</title>
<ellipse fill="#ffffff" stroke="#000000" cx="161.4" cy="-126.16" rx="161.4" ry="30.05"/>
<text text-anchor="middle" x="161.4" y="-130.11" font-family="Times,serif" font-size="14.00">Попытка замкнуть контакты</text>
<text text-anchor="middle" x="161.4" y="-112.86" font-family="Times,serif" font-size="14.00">излучателя не удалась.</text>
</g>
<!-- start&#45;&gt;use_obj_on_p_proc -->
<g id="edge1" class="edge">
<title>start&#45;&gt;use_obj_on_p_proc</title>
<path fill="none" stroke="#555555" stroke-dasharray="1,5" d="M309.87,-198.82C289.32,-188.9 257.27,-173.43 228.2,-159.4"/>
<polygon fill="#555555" stroke="#555555" points="230,-155.9 219.48,-154.71 226.96,-162.21 230,-155.9"/>
</g>
<!-- use_skill_on_p_proc -->
<g id="node3" class="node">
<title>use_skill_on_p_proc</title>
<ellipse fill="#ffffff" stroke="#000000" cx="502.4" cy="-126.16" rx="161.4" ry="30.05"/>
<text text-anchor="middle" x="502.4" y="-130.11" font-family="Times,serif" font-size="14.00">Попытка замкнуть контакты</text>
<text text-anchor="middle" x="502.4" y="-112.86" font-family="Times,serif" font-size="14.00">излучателя не удалась.</text>
</g>
<!-- start&#45;&gt;use_skill_on_p_proc -->
<g id="edge2" class="edge">
<title>start&#45;&gt;use_skill_on_p_proc</title>
<path fill="none" stroke="#555555" stroke-dasharray="1,5" d="M353.05,-198.82C373.72,-188.9 405.96,-173.43 435.2,-159.4"/>
<polygon fill="#555555" stroke="#555555" points="436.48,-162.19 443.98,-154.71 433.45,-155.88 436.48,-162.19"/>
</g>
<!-- turn_field_off -->
<g id="node4" class="node">
<title>turn_field_off</title>
<ellipse fill="#ffffff" stroke="#000000" cx="331.4" cy="-30.05" rx="135.94" ry="30.05"/>
<text text-anchor="middle" x="331.4" y="-34" font-family="Times,serif" font-size="14.00">Вы отключаете силовое</text>
<text text-anchor="middle" x="331.4" y="-16.75" font-family="Times,serif" font-size="14.00">поле.</text>
</g>
<!-- use_obj_on_p_proc&#45;&gt;turn_field_off -->
<g id="edge3" class="edge">
<title>use_obj_on_p_proc&#45;&gt;turn_field_off</title>
<path fill="none" stroke="#555555" stroke-dasharray="1,5" d="M211.94,-97.18C230.95,-86.65 252.73,-74.6 272.44,-63.69"/>
<polygon fill="#555555" stroke="#555555" points="273.87,-66.34 280.92,-58.44 270.48,-60.22 273.87,-66.34"/>
</g>
<!-- use_skill_on_p_proc&#45;&gt;turn_field_off -->
<g id="edge4" class="edge">
<title>use_skill_on_p_proc&#45;&gt;turn_field_off</title>
<path fill="none" stroke="#555555" stroke-dasharray="1,5" d="M451.55,-97.18C432.43,-86.65 410.53,-74.6 390.7,-63.69"/>
<polygon fill="#555555" stroke="#555555" points="392.61,-60.19 382.16,-58.44 389.23,-66.33 392.61,-60.19"/>
</g>
</g>
</svg>
