<?xml version="1.0" encoding="UTF-8" standalone="no"?>
<!DOCTYPE svg PUBLIC "-//W3C//DTD SVG 1.1//EN"
 "http://www.w3.org/Graphics/SVG/1.1/DTD/svg11.dtd">
<!-- Generated by graphviz version 8.0.5 (0)
 -->
<!-- Title: generic Pages: 1 -->
<svg width="1113pt" height="625pt"
 viewBox="0.00 0.00 1112.67 625.35" xmlns="http://www.w3.org/2000/svg" xmlns:xlink="http://www.w3.org/1999/xlink">
<g id="graph0" class="graph" transform="scale(1 1) rotate(0) translate(4 621.35)">
<title>generic</title>
<polygon fill="white" stroke="none" points="-4,4 -4,-621.35 1108.67,-621.35 1108.67,4 -4,4"/>
<!-- start -->
<g id="node1" class="node">
<title>start</title>
<ellipse fill="#ffffff" stroke="#000000" cx="213.67" cy="-599.35" rx="27" ry="18"/>
</g>
<!-- timetomove -->
<g id="node2" class="node">
<title>timetomove</title>
<ellipse fill="#ffffff" stroke="#000000" cx="141.67" cy="-527.35" rx="27" ry="18"/>
</g>
<!-- start&#45;&gt;timetomove -->
<g id="edge1" class="edge">
<title>start&#45;&gt;timetomove</title>
<path fill="none" stroke="#555555" stroke-dasharray="1,5" d="M198.75,-583.84C188.81,-574.17 175.55,-561.29 164.32,-550.36"/>
<polygon fill="#555555" stroke="#555555" points="167.18,-548.29 157.57,-543.83 162.3,-553.31 167.18,-548.29"/>
</g>
<!-- do_dialogue -->
<g id="node3" class="node">
<title>do_dialogue</title>
<ellipse fill="#ffffff" stroke="#000000" cx="213.67" cy="-527.35" rx="27" ry="18"/>
</g>
<!-- start&#45;&gt;do_dialogue -->
<g id="edge2" class="edge">
<title>start&#45;&gt;do_dialogue</title>
<path fill="none" stroke="#555555" stroke-dasharray="1,5" d="M213.67,-581.04C213.67,-573.58 213.67,-564.67 213.67,-556.31"/>
<polygon fill="#555555" stroke="#555555" points="217.17,-556.45 213.67,-546.45 210.17,-556.45 217.17,-556.45"/>
</g>
<!-- Critter_Action -->
<g id="node4" class="node">
<title>Critter_Action</title>
<ellipse fill="#ffffff" stroke="#000000" cx="285.67" cy="-527.35" rx="27" ry="18"/>
</g>
<!-- start&#45;&gt;Critter_Action -->
<g id="edge3" class="edge">
<title>start&#45;&gt;Critter_Action</title>
<path fill="none" stroke="#555555" stroke-dasharray="1,5" d="M228.59,-583.84C238.53,-574.17 251.79,-561.29 263.02,-550.36"/>
<polygon fill="#555555" stroke="#555555" points="265.04,-553.31 269.77,-543.83 260.16,-548.29 265.04,-553.31"/>
</g>
<!-- generic01 -->
<g id="node5" class="node">
<title>generic01</title>
<ellipse fill="#ffffff" stroke="#000000" cx="122.67" cy="-357.91" rx="41.54" ry="91.04"/>
<text text-anchor="middle" x="122.67" y="-404.99" font-family="Times,serif" font-size="14.00">Ар&#45;р!</text>
<text text-anchor="middle" x="122.67" y="-387.74" font-family="Times,serif" font-size="14.00">&#45;&#45;&#45;</text>
<text text-anchor="middle" x="122.67" y="-370.49" font-family="Times,serif" font-size="14.00">Гр&#45;р!</text>
<text text-anchor="middle" x="122.67" y="-353.24" font-family="Times,serif" font-size="14.00">&#45;&#45;&#45;</text>
<text text-anchor="middle" x="122.67" y="-335.99" font-family="Times,serif" font-size="14.00">У&#45;угх.</text>
<text text-anchor="middle" x="122.67" y="-318.74" font-family="Times,serif" font-size="14.00">&#45;&#45;&#45;</text>
<text text-anchor="middle" x="122.67" y="-301.49" font-family="Times,serif" font-size="14.00">Ух.</text>
</g>
<!-- do_dialogue&#45;&gt;generic01 -->
<g id="edge4" class="edge">
<title>do_dialogue&#45;&gt;generic01</title>
<path fill="none" stroke="#555555" stroke-dasharray="1,5" d="M200.79,-511.23C192.43,-500.96 181.63,-486.85 173.67,-473.35 166.91,-461.89 160.47,-449.38 154.59,-436.96"/>
<polygon fill="#555555" stroke="#555555" points="157.37,-435.65 149.99,-428.05 151.02,-438.6 157.37,-435.65"/>
</g>
<!-- generic00 -->
<g id="node6" class="node">
<title>generic00</title>
<ellipse fill="#ffffff" stroke="#000000" cx="304.67" cy="-357.91" rx="122.15" ry="115.44"/>
<text text-anchor="middle" x="304.67" y="-422.24" font-family="Times,serif" font-size="14.00">Чего ты хочешь?</text>
<text text-anchor="middle" x="304.67" y="-404.99" font-family="Times,serif" font-size="14.00">&#45;&#45;&#45;</text>
<text text-anchor="middle" x="304.67" y="-387.74" font-family="Times,serif" font-size="14.00">Оставь меня в покое.</text>
<text text-anchor="middle" x="304.67" y="-370.49" font-family="Times,serif" font-size="14.00">&#45;&#45;&#45;</text>
<text text-anchor="middle" x="304.67" y="-353.24" font-family="Times,serif" font-size="14.00">Что?</text>
<text text-anchor="middle" x="304.67" y="-335.99" font-family="Times,serif" font-size="14.00">&#45;&#45;&#45;</text>
<text text-anchor="middle" x="304.67" y="-318.74" font-family="Times,serif" font-size="14.00">Не трогай мои вещи.</text>
<text text-anchor="middle" x="304.67" y="-301.49" font-family="Times,serif" font-size="14.00">&#45;&#45;&#45;</text>
<text text-anchor="middle" x="304.67" y="-284.24" font-family="Times,serif" font-size="14.00">Привет.</text>
</g>
<!-- do_dialogue&#45;&gt;generic00 -->
<g id="edge5" class="edge">
<title>do_dialogue&#45;&gt;generic00</title>
<path fill="none" stroke="#555555" stroke-dasharray="1,5" d="M222.56,-509.99C228.09,-499.81 235.75,-485.72 244.17,-470.22"/>
<polygon fill="#555555" stroke="#555555" points="247.51,-472.41 249.21,-461.95 241.36,-469.06 247.51,-472.41"/>
</g>
<!-- generic02 -->
<g id="node9" class="node">
<title>generic02</title>
<ellipse fill="#ffffff" stroke="#000000" cx="148.67" cy="-103.24" rx="148.67" ry="103.24"/>
<text text-anchor="middle" x="148.67" y="-158.94" font-family="Times,serif" font-size="14.00">Эй, ты знаешь, что Сета</text>
<text text-anchor="middle" x="148.67" y="-141.69" font-family="Times,serif" font-size="14.00">прихлопнули?</text>
<text text-anchor="middle" x="148.67" y="-124.44" font-family="Times,serif" font-size="14.00">&#45;&#45;&#45;</text>
<text text-anchor="middle" x="148.67" y="-107.19" font-family="Times,serif" font-size="14.00">Сет мертв. Сет мертв. Сет</text>
<text text-anchor="middle" x="148.67" y="-89.94" font-family="Times,serif" font-size="14.00">мертв...</text>
<text text-anchor="middle" x="148.67" y="-72.69" font-family="Times,serif" font-size="14.00">&#45;&#45;&#45;</text>
<text text-anchor="middle" x="148.67" y="-55.44" font-family="Times,serif" font-size="14.00">Воды хватит на всех. Сет</text>
<text text-anchor="middle" x="148.67" y="-38.19" font-family="Times,serif" font-size="14.00">в этом убедился.</text>
</g>
<!-- generic00&#45;&gt;generic02 -->
<g id="edge6" class="edge">
<title>generic00&#45;&gt;generic02</title>
<path fill="none" stroke="#555555" stroke-dasharray="1,5" d="M243.46,-257.77C233.31,-241.32 222.75,-224.23 212.53,-207.68"/>
<polygon fill="#555555" stroke="#555555" points="215.13,-206.22 206.9,-199.55 209.17,-209.89 215.13,-206.22"/>
</g>
<!-- generic03 -->
<g id="node10" class="node">
<title>generic03</title>
<ellipse fill="#ffffff" stroke="#000000" cx="460.67" cy="-103.24" rx="144.96" ry="91.04"/>
<text text-anchor="middle" x="460.67" y="-150.31" font-family="Times,serif" font-size="14.00">Говорят, в городе больше</text>
<text text-anchor="middle" x="460.67" y="-133.06" font-family="Times,serif" font-size="14.00">нет мутантов.</text>
<text text-anchor="middle" x="460.67" y="-115.81" font-family="Times,serif" font-size="14.00">&#45;&#45;&#45;</text>
<text text-anchor="middle" x="460.67" y="-98.56" font-family="Times,serif" font-size="14.00">Без мутантов здесь</text>
<text text-anchor="middle" x="460.67" y="-81.31" font-family="Times,serif" font-size="14.00">значительно лучше.</text>
<text text-anchor="middle" x="460.67" y="-64.06" font-family="Times,serif" font-size="14.00">&#45;&#45;&#45;</text>
<text text-anchor="middle" x="460.67" y="-46.81" font-family="Times,serif" font-size="14.00">Привет.</text>
</g>
<!-- generic00&#45;&gt;generic03 -->
<g id="edge7" class="edge">
<title>generic00&#45;&gt;generic03</title>
<path fill="none" stroke="#555555" stroke-dasharray="1,5" d="M365.88,-257.77C378.11,-237.96 390.92,-217.21 403.03,-197.6"/>
<polygon fill="#555555" stroke="#555555" points="406.45,-199.72 408.72,-189.38 400.49,-196.05 406.45,-199.72"/>
</g>
<!-- genericend -->
<g id="node7" class="node">
<title>genericend</title>
<ellipse fill="#ffffff" stroke="#000000" cx="285.67" cy="-599.35" rx="27" ry="18"/>
</g>
<!-- genericcbt -->
<g id="node8" class="node">
<title>genericcbt</title>
<ellipse fill="#ffffff" stroke="#000000" cx="357.67" cy="-599.35" rx="27" ry="18"/>
</g>
<!-- get_reaction -->
<g id="node11" class="node">
<title>get_reaction</title>
<ellipse fill="#ffffff" stroke="#000000" cx="429.67" cy="-599.35" rx="27" ry="18"/>
</g>
<!-- ReactToLevel -->
<g id="node12" class="node">
<title>ReactToLevel</title>
<ellipse fill="#ffffff" stroke="#000000" cx="573.67" cy="-527.35" rx="27" ry="18"/>
</g>
<!-- get_reaction&#45;&gt;ReactToLevel -->
<g id="edge8" class="edge">
<title>get_reaction&#45;&gt;ReactToLevel</title>
<path fill="none" stroke="#555555" stroke-dasharray="1,5" d="M451.23,-587.87C475.54,-576.04 515.29,-556.72 542.87,-543.32"/>
<polygon fill="#555555" stroke="#555555" points="543.97,-546.19 551.43,-538.67 540.91,-539.89 543.97,-546.19"/>
</g>
<!-- LevelToReact -->
<g id="node13" class="node">
<title>LevelToReact</title>
<ellipse fill="#ffffff" stroke="#000000" cx="825.67" cy="-527.35" rx="27" ry="18"/>
</g>
<!-- UpReact -->
<g id="node14" class="node">
<title>UpReact</title>
<ellipse fill="#ffffff" stroke="#000000" cx="501.67" cy="-599.35" rx="27" ry="18"/>
</g>
<!-- UpReact&#45;&gt;ReactToLevel -->
<g id="edge9" class="edge">
<title>UpReact&#45;&gt;ReactToLevel</title>
<path fill="none" stroke="#555555" stroke-dasharray="1,5" d="M516.59,-583.84C526.53,-574.17 539.79,-561.29 551.02,-550.36"/>
<polygon fill="#555555" stroke="#555555" points="553.04,-553.31 557.77,-543.83 548.16,-548.29 553.04,-553.31"/>
</g>
<!-- DownReact -->
<g id="node15" class="node">
<title>DownReact</title>
<ellipse fill="#ffffff" stroke="#000000" cx="573.67" cy="-599.35" rx="27" ry="18"/>
</g>
<!-- DownReact&#45;&gt;ReactToLevel -->
<g id="edge10" class="edge">
<title>DownReact&#45;&gt;ReactToLevel</title>
<path fill="none" stroke="#555555" stroke-dasharray="1,5" d="M573.67,-581.04C573.67,-573.58 573.67,-564.67 573.67,-556.31"/>
<polygon fill="#555555" stroke="#555555" points="577.17,-556.45 573.67,-546.45 570.17,-556.45 577.17,-556.45"/>
</g>
<!-- BottomReact -->
<g id="node16" class="node">
<title>BottomReact</title>
<ellipse fill="#ffffff" stroke="#000000" cx="933.67" cy="-599.35" rx="27" ry="18"/>
</g>
<!-- TopReact -->
<g id="node17" class="node">
<title>TopReact</title>
<ellipse fill="#ffffff" stroke="#000000" cx="1005.67" cy="-599.35" rx="27" ry="18"/>
</g>
<!-- BigUpReact -->
<g id="node18" class="node">
<title>BigUpReact</title>
<ellipse fill="#ffffff" stroke="#000000" cx="645.67" cy="-599.35" rx="27" ry="18"/>
</g>
<!-- BigUpReact&#45;&gt;ReactToLevel -->
<g id="edge11" class="edge">
<title>BigUpReact&#45;&gt;ReactToLevel</title>
<path fill="none" stroke="#555555" stroke-dasharray="1,5" d="M630.75,-583.84C620.81,-574.17 607.55,-561.29 596.32,-550.36"/>
<polygon fill="#555555" stroke="#555555" points="599.18,-548.29 589.57,-543.83 594.3,-553.31 599.18,-548.29"/>
</g>
<!-- BigDownReact -->
<g id="node19" class="node">
<title>BigDownReact</title>
<ellipse fill="#ffffff" stroke="#000000" cx="717.67" cy="-599.35" rx="27" ry="18"/>
</g>
<!-- BigDownReact&#45;&gt;ReactToLevel -->
<g id="edge12" class="edge">
<title>BigDownReact&#45;&gt;ReactToLevel</title>
<path fill="none" stroke="#555555" stroke-dasharray="1,5" d="M696.11,-587.87C671.79,-576.04 632.05,-556.72 604.47,-543.32"/>
<polygon fill="#555555" stroke="#555555" points="606.43,-539.89 595.9,-538.67 603.37,-546.19 606.43,-539.89"/>
</g>
<!-- UpReactLevel -->
<g id="node20" class="node">
<title>UpReactLevel</title>
<ellipse fill="#ffffff" stroke="#000000" cx="789.67" cy="-599.35" rx="27" ry="18"/>
</g>
<!-- UpReactLevel&#45;&gt;LevelToReact -->
<g id="edge13" class="edge">
<title>UpReactLevel&#45;&gt;LevelToReact</title>
<path fill="none" stroke="#555555" stroke-dasharray="1,5" d="M798.02,-582.11C802.29,-573.81 807.59,-563.5 812.4,-554.14"/>
<polygon fill="#555555" stroke="#555555" points="815.9,-555.99 817.36,-545.49 809.68,-552.79 815.9,-555.99"/>
</g>
<!-- DownReactLevel -->
<g id="node21" class="node">
<title>DownReactLevel</title>
<ellipse fill="#ffffff" stroke="#000000" cx="861.67" cy="-599.35" rx="27" ry="18"/>
</g>
<!-- DownReactLevel&#45;&gt;LevelToReact -->
<g id="edge14" class="edge">
<title>DownReactLevel&#45;&gt;LevelToReact</title>
<path fill="none" stroke="#555555" stroke-dasharray="1,5" d="M853.32,-582.11C849.05,-573.81 843.75,-563.5 838.93,-554.14"/>
<polygon fill="#555555" stroke="#555555" points="841.66,-552.79 833.97,-545.49 835.43,-555.99 841.66,-552.79"/>
</g>
<!-- Goodbyes -->
<g id="node22" class="node">
<title>Goodbyes</title>
<ellipse fill="#ffffff" stroke="#000000" cx="1077.67" cy="-599.35" rx="27" ry="18"/>
</g>
</g>
</svg>
