<?xml version="1.0" encoding="UTF-8" standalone="no"?>
<!DOCTYPE svg PUBLIC "-//W3C//DTD SVG 1.1//EN"
 "http://www.w3.org/Graphics/SVG/1.1/DTD/svg11.dtd">
<!-- Generated by graphviz version 8.0.5 (0)
 -->
<!-- Title: genghoul Pages: 1 -->
<svg width="313pt" height="188pt"
 viewBox="0.00 0.00 312.58 188.00" xmlns="http://www.w3.org/2000/svg" xmlns:xlink="http://www.w3.org/1999/xlink">
<g id="graph0" class="graph" transform="scale(1 1) rotate(0) translate(4 184)">
<title>genghoul</title>
<polygon fill="white" stroke="none" points="-4,4 -4,-184 308.58,-184 308.58,4 -4,4"/>
<!-- start -->
<g id="node1" class="node">
<title>start</title>
<ellipse fill="#ffffff" stroke="#000000" cx="133.58" cy="-162" rx="27" ry="18"/>
</g>
<!-- timetomove -->
<g id="node2" class="node">
<title>timetomove</title>
<ellipse fill="#ffffff" stroke="#000000" cx="38.58" cy="-90" rx="38.58" ry="18"/>
<text text-anchor="middle" x="38.58" y="-85.33" font-family="Times,serif" font-size="14.00">Ар&#45;р!</text>
</g>
<!-- start&#45;&gt;timetomove -->
<g id="edge1" class="edge">
<title>start&#45;&gt;timetomove</title>
<path fill="none" stroke="#555555" stroke-dasharray="1,5" d="M116.16,-148.16C102.42,-138.04 82.97,-123.71 66.99,-111.93"/>
<polygon fill="#555555" stroke="#555555" points="69.65,-108.81 59.53,-105.7 65.5,-114.45 69.65,-108.81"/>
</g>
<!-- do_dialogue -->
<g id="node3" class="node">
<title>do_dialogue</title>
<ellipse fill="#ffffff" stroke="#000000" cx="133.58" cy="-90" rx="38.58" ry="18"/>
<text text-anchor="middle" x="133.58" y="-85.33" font-family="Times,serif" font-size="14.00">Ар&#45;р!</text>
</g>
<!-- start&#45;&gt;do_dialogue -->
<g id="edge2" class="edge">
<title>start&#45;&gt;do_dialogue</title>
<path fill="none" stroke="#555555" stroke-dasharray="1,5" d="M133.58,-143.7C133.58,-136.24 133.58,-127.32 133.58,-118.97"/>
<polygon fill="#555555" stroke="#555555" points="137.08,-119.1 133.58,-109.1 130.08,-119.1 137.08,-119.1"/>
</g>
<!-- Critter_Action -->
<g id="node4" class="node">
<title>Critter_Action</title>
<ellipse fill="#ffffff" stroke="#000000" cx="119.58" cy="-18" rx="27" ry="18"/>
</g>
<!-- start&#45;&gt;Critter_Action -->
<g id="edge3" class="edge">
<title>start&#45;&gt;Critter_Action</title>
<path fill="none" stroke="#555555" stroke-dasharray="1,5" d="M150.85,-147.79C161.95,-138.14 175.42,-123.98 181.58,-108 187.34,-93.07 188.28,-86.53 181.58,-72 174.76,-57.2 161.55,-45 149.06,-36.05"/>
<polygon fill="#555555" stroke="#555555" points="151.46,-32.77 141.2,-30.11 147.57,-38.59 151.46,-32.77"/>
</g>
<!-- timetomove&#45;&gt;Critter_Action -->
<g id="edge4" class="edge">
<title>timetomove&#45;&gt;Critter_Action</title>
<path fill="none" stroke="#555555" stroke-dasharray="1,5" d="M56.16,-73.81C67.65,-63.88 82.81,-50.77 95.43,-39.87"/>
<polygon fill="#555555" stroke="#555555" points="97.41,-41.92 102.69,-32.74 92.83,-36.63 97.41,-41.92"/>
</g>
<!-- genericend -->
<g id="node5" class="node">
<title>genericend</title>
<ellipse fill="#ffffff" stroke="#000000" cx="205.58" cy="-162" rx="27" ry="18"/>
</g>
<!-- genericcbt -->
<g id="node6" class="node">
<title>genericcbt</title>
<ellipse fill="#ffffff" stroke="#000000" cx="277.58" cy="-162" rx="27" ry="18"/>
</g>
</g>
</svg>
