<?xml version="1.0" encoding="UTF-8" standalone="no"?>
<!DOCTYPE svg PUBLIC "-//W3C//DTD SVG 1.1//EN"
 "http://www.w3.org/Graphics/SVG/1.1/DTD/svg11.dtd">
<!-- Generated by graphviz version 8.0.5 (0)
 -->
<!-- Title: genskulz Pages: 1 -->
<svg width="1424pt" height="140pt"
 viewBox="0.00 0.00 1424.08 140.10" xmlns="http://www.w3.org/2000/svg" xmlns:xlink="http://www.w3.org/1999/xlink">
<g id="graph0" class="graph" transform="scale(1 1) rotate(0) translate(4 136.1)">
<title>genskulz</title>
<polygon fill="white" stroke="none" points="-4,4 -4,-136.1 1420.08,-136.1 1420.08,4 -4,4"/>
<!-- start -->
<g id="node1" class="node">
<title>start</title>
<ellipse fill="#ffffff" stroke="#000000" cx="27" cy="-102.05" rx="27" ry="18"/>
</g>
<!-- critter_p_proc -->
<g id="node2" class="node">
<title>critter_p_proc</title>
<ellipse fill="#ffffff" stroke="#000000" cx="99" cy="-102.05" rx="27" ry="18"/>
</g>
<!-- sleeping -->
<g id="node3" class="node">
<title>sleeping</title>
<ellipse fill="#ffffff" stroke="#000000" cx="99" cy="-18" rx="27" ry="18"/>
</g>
<!-- critter_p_proc&#45;&gt;sleeping -->
<g id="edge1" class="edge">
<title>critter_p_proc&#45;&gt;sleeping</title>
<path fill="none" stroke="#555555" stroke-dasharray="1,5" d="M93.41,-84.05C92.23,-73.27 91.95,-59.07 92.58,-46.69"/>
<polygon fill="#555555" stroke="#555555" points="96.12,-47.22 93.41,-36.98 89.15,-46.68 96.12,-47.22"/>
</g>
<!-- critter_p_proc&#45;&gt;sleeping -->
<g id="edge2" class="edge">
<title>critter_p_proc&#45;&gt;sleeping</title>
<path fill="none" stroke="#555555" stroke-dasharray="1,5" d="M104.59,-84.05C105.77,-73.27 106.05,-59.07 105.42,-46.69"/>
<polygon fill="#555555" stroke="#555555" points="108.85,-46.68 104.59,-36.98 101.88,-47.22 108.85,-46.68"/>
</g>
<!-- destroy_p_proc -->
<g id="node4" class="node">
<title>destroy_p_proc</title>
<ellipse fill="#ffffff" stroke="#000000" cx="171" cy="-102.05" rx="27" ry="18"/>
</g>
<!-- look_at_p_proc -->
<g id="node5" class="node">
<title>look_at_p_proc</title>
<ellipse fill="#ffffff" stroke="#000000" cx="350" cy="-102.05" rx="134.35" ry="30.05"/>
<text text-anchor="middle" x="350" y="-106" font-family="Times,serif" font-size="14.00">Вы видите члена банды</text>
<text text-anchor="middle" x="350" y="-88.75" font-family="Times,serif" font-size="14.00">Черепов.</text>
</g>
<!-- map_enter_p_proc -->
<g id="node6" class="node">
<title>map_enter_p_proc</title>
<ellipse fill="#ffffff" stroke="#000000" cx="529" cy="-102.05" rx="27" ry="18"/>
</g>
<!-- set_sleep_tile -->
<g id="node7" class="node">
<title>set_sleep_tile</title>
<ellipse fill="#ffffff" stroke="#000000" cx="529" cy="-18" rx="27" ry="18"/>
</g>
<!-- map_enter_p_proc&#45;&gt;set_sleep_tile -->
<g id="edge3" class="edge">
<title>map_enter_p_proc&#45;&gt;set_sleep_tile</title>
<path fill="none" stroke="#555555" stroke-dasharray="1,5" d="M529,-83.65C529,-73.1 529,-59.38 529,-47.3"/>
<polygon fill="#555555" stroke="#555555" points="532.5,-47.38 529,-37.38 525.5,-47.38 532.5,-47.38"/>
</g>
<!-- map_exit_p_proc -->
<g id="node8" class="node">
<title>map_exit_p_proc</title>
<ellipse fill="#ffffff" stroke="#000000" cx="601" cy="-102.05" rx="27" ry="18"/>
</g>
<!-- pickup_p_proc -->
<g id="node9" class="node">
<title>pickup_p_proc</title>
<ellipse fill="#ffffff" stroke="#000000" cx="769" cy="-102.05" rx="123.29" ry="18"/>
<text text-anchor="middle" x="769" y="-97.38" font-family="Times,serif" font-size="14.00">Эй! Ты что делаешь?!</text>
</g>
<!-- talk_p_proc -->
<g id="node10" class="node">
<title>talk_p_proc</title>
<ellipse fill="#ffffff" stroke="#000000" cx="1007" cy="-102.05" rx="96.45" ry="18"/>
<text text-anchor="middle" x="1007" y="-97.38" font-family="Times,serif" font-size="14.00">Хр&#45;р&#45;р! Пш&#45;ш&#45;ш!</text>
</g>
<!-- timed_event_p_proc -->
<g id="node11" class="node">
<title>timed_event_p_proc</title>
<ellipse fill="#ffffff" stroke="#000000" cx="1269" cy="-102.05" rx="147.08" ry="30.05"/>
<text text-anchor="middle" x="1269" y="-106" font-family="Times,serif" font-size="14.00">Этот район контролируют</text>
<text text-anchor="middle" x="1269" y="-88.75" font-family="Times,serif" font-size="14.00">Черепа. Уходи.</text>
</g>
</g>
</svg>
