<?xml version="1.0" encoding="UTF-8" standalone="no"?>
<!DOCTYPE svg PUBLIC "-//W3C//DTD SVG 1.1//EN"
 "http://www.w3.org/Graphics/SVG/1.1/DTD/svg11.dtd">
<!-- Generated by graphviz version 8.0.5 (0)
 -->
<!-- Title: ghoul Pages: 1 -->
<svg width="1596pt" height="844pt"
 viewBox="0.00 0.00 1596.32 844.06" xmlns="http://www.w3.org/2000/svg" xmlns:xlink="http://www.w3.org/1999/xlink">
<g id="graph0" class="graph" transform="scale(1 1) rotate(0) translate(4 840.06)">
<title>ghoul</title>
<polygon fill="white" stroke="none" points="-4,4 -4,-840.06 1592.32,-840.06 1592.32,4 -4,4"/>
<!-- start -->
<g id="node1" class="node">
<title>start</title>
<ellipse fill="#ffffff" stroke="#000000" cx="1341.32" cy="-806.01" rx="118.97" ry="30.05"/>
<text text-anchor="middle" x="1341.32" y="-809.96" font-family="Times,serif" font-size="14.00">Вы видите</text>
<text text-anchor="middle" x="1341.32" y="-792.71" font-family="Times,serif" font-size="14.00">управляющего&#45;гуля.</text>
</g>
<!-- timeforwhat -->
<g id="node2" class="node">
<title>timeforwhat</title>
<ellipse fill="#ffffff" stroke="#000000" cx="1329.32" cy="-720.96" rx="27" ry="18"/>
</g>
<!-- start&#45;&gt;timeforwhat -->
<g id="edge1" class="edge">
<title>start&#45;&gt;timeforwhat</title>
<path fill="none" stroke="#555555" stroke-dasharray="1,5" d="M1337.06,-775.49C1335.87,-767.25 1334.58,-758.32 1333.4,-750.16"/>
<polygon fill="#555555" stroke="#555555" points="1336.72,-749.68 1331.83,-740.29 1329.79,-750.69 1336.72,-749.68"/>
</g>
<!-- pre_dialogue -->
<g id="node3" class="node">
<title>pre_dialogue</title>
<ellipse fill="#ffffff" stroke="#000000" cx="1401.32" cy="-720.96" rx="27" ry="18"/>
</g>
<!-- start&#45;&gt;pre_dialogue -->
<g id="edge2" class="edge">
<title>start&#45;&gt;pre_dialogue</title>
<path fill="none" stroke="#555555" stroke-dasharray="1,5" d="M1362.31,-775.96C1369.3,-766.28 1377.02,-755.6 1383.73,-746.31"/>
<polygon fill="#555555" stroke="#555555" points="1387.02,-748.73 1390.04,-738.57 1381.35,-744.63 1387.02,-748.73"/>
</g>
<!-- do_dialogue -->
<g id="node4" class="node">
<title>do_dialogue</title>
<ellipse fill="#ffffff" stroke="#000000" cx="1351.32" cy="-647.96" rx="27" ry="18"/>
</g>
<!-- pre_dialogue&#45;&gt;do_dialogue -->
<g id="edge5" class="edge">
<title>pre_dialogue&#45;&gt;do_dialogue</title>
<path fill="none" stroke="#555555" stroke-dasharray="1,5" d="M1390.22,-704.2C1383.88,-695.19 1375.79,-683.7 1368.62,-673.53"/>
<polygon fill="#555555" stroke="#555555" points="1371.01,-671.83 1362.39,-665.67 1365.28,-675.86 1371.01,-671.83"/>
</g>
<!-- ghoul08 -->
<g id="node6" class="node">
<title>ghoul08</title>
<ellipse fill="#ffffff" stroke="#000000" cx="1486.32" cy="-581.9" rx="102" ry="30.05"/>
<text text-anchor="middle" x="1486.32" y="-585.85" font-family="Times,serif" font-size="14.00">Я не буду с тобой</text>
<text text-anchor="middle" x="1486.32" y="-568.6" font-family="Times,serif" font-size="14.00">говорить.</text>
</g>
<!-- pre_dialogue&#45;&gt;ghoul08 -->
<g id="edge4" class="edge">
<title>pre_dialogue&#45;&gt;ghoul08</title>
<path fill="none" stroke="#555555" stroke-dasharray="1,5" d="M1411.24,-703.97C1423.73,-683.82 1445.62,-648.52 1462.55,-621.22"/>
<polygon fill="#555555" stroke="#555555" points="1466.02,-623.28 1468.31,-612.94 1460.07,-619.59 1466.02,-623.28"/>
</g>
<!-- ghoul00 -->
<g id="node5" class="node">
<title>ghoul00</title>
<ellipse fill="#ffffff" stroke="#000000" cx="1222.32" cy="-515.85" rx="117.5" ry="18"/>
<text text-anchor="middle" x="1222.32" y="-511.18" font-family="Times,serif" font-size="14.00">Ты что тут делаешь?</text>
</g>
<!-- do_dialogue&#45;&gt;ghoul00 -->
<g id="edge3" class="edge">
<title>do_dialogue&#45;&gt;ghoul00</title>
<path fill="none" stroke="#555555" stroke-dasharray="1,5" d="M1336.77,-632.28C1315.04,-610.36 1273.8,-568.77 1247.21,-541.96"/>
<polygon fill="#555555" stroke="#555555" points="1250,-539.79 1240.47,-535.15 1245.03,-544.71 1250,-539.79"/>
</g>
<!-- ghoulend -->
<g id="node7" class="node">
<title>ghoulend</title>
<ellipse fill="#ffffff" stroke="#000000" cx="1054.32" cy="-18" rx="27" ry="18"/>
</g>
<!-- ghoul00&#45;&gt;ghoulend -->
<g id="edge9" class="edge">
<title>ghoul00&#45;&gt;ghoulend</title>
<path fill="none" stroke="#4a0099" d="M1222.32,-497.48C1222.32,-474.7 1222.32,-433.51 1222.32,-398.3 1222.32,-398.3 1222.32,-398.3 1222.32,-114.25 1222.32,-54.56 1141.07,-31.82 1091.58,-23.51"/>
<polygon fill="#4a0099" stroke="#4a0099" points="1092.36,-19.94 1081.94,-21.86 1091.29,-26.85 1092.36,-19.94"/>
<text text-anchor="middle" x="1252.32" y="-224.07" font-family="Times,serif" font-size="14.00" fill="#4a0099">Даг&#45;даг.</text>
</g>
<!-- ghoul01 -->
<g id="node9" class="node">
<title>ghoul01</title>
<ellipse fill="#ffffff" stroke="#000000" cx="975.32" cy="-228.75" rx="66.99" ry="18"/>
<text text-anchor="middle" x="975.32" y="-224.07" font-family="Times,serif" font-size="14.00">Чего&#45;чего?</text>
</g>
<!-- ghoul00&#45;&gt;ghoul01 -->
<g id="edge6" class="edge">
<title>ghoul00&#45;&gt;ghoul01</title>
<path fill="none" stroke="#990062" d="M1130.34,-504.28C1080.42,-493.47 1022.34,-471.59 989.32,-427.35 952.09,-377.47 960.51,-299.35 968.63,-257.86"/>
<polygon fill="#990062" stroke="#990062" points="972.25,-258.68 970.88,-248.18 965.4,-257.24 972.25,-258.68"/>
<text text-anchor="middle" x="1098.82" y="-401.25" font-family="Times,serif" font-size="14.00" fill="#990062">Ищу связь между прошлым и</text>
<text text-anchor="middle" x="1098.82" y="-384" font-family="Times,serif" font-size="14.00" fill="#990062">будущим.</text>
</g>
<!-- ghoul04 -->
<g id="node10" class="node">
<title>ghoul04</title>
<ellipse fill="#ffffff" stroke="#000000" cx="1379.32" cy="-307" rx="141.77" ry="42.25"/>
<text text-anchor="middle" x="1379.32" y="-319.57" font-family="Times,serif" font-size="14.00">О&#45;па! Не надо у меня тут</text>
<text text-anchor="middle" x="1379.32" y="-302.32" font-family="Times,serif" font-size="14.00">шарить! Иди отсюда! Я</text>
<text text-anchor="middle" x="1379.32" y="-285.07" font-family="Times,serif" font-size="14.00">серьезно.</text>
</g>
<!-- ghoul00&#45;&gt;ghoul04 -->
<g id="edge7" class="edge">
<title>ghoul00&#45;&gt;ghoul04</title>
<path fill="none" stroke="#008f99" d="M1235.44,-497.57C1258.63,-467.01 1307.67,-402.4 1342.03,-357.14"/>
<polygon fill="#008f99" stroke="#008f99" points="1345.22,-359.72 1348.47,-349.64 1339.64,-355.49 1345.22,-359.72"/>
<text text-anchor="middle" x="1333.2" y="-457.93" font-family="Times,serif" font-size="14.00" fill="#008f99">Я путешествую.</text>
</g>
<!-- ghoul05 -->
<g id="node11" class="node">
<title>ghoul05</title>
<ellipse fill="#ffffff" stroke="#000000" cx="521.32" cy="-397.3" rx="148.14" ry="30.05"/>
<text text-anchor="middle" x="521.32" y="-401.25" font-family="Times,serif" font-size="14.00">Хватит тут торчать. Я уже</text>
<text text-anchor="middle" x="521.32" y="-384" font-family="Times,serif" font-size="14.00">устал от тебя.</text>
</g>
<!-- ghoul00&#45;&gt;ghoul05 -->
<g id="edge8" class="edge">
<title>ghoul00&#45;&gt;ghoul05</title>
<path fill="none" stroke="#997700" d="M1114.14,-508.51C1041.34,-503.25 943.39,-494.26 857.82,-479.85 775.53,-466 683.53,-443.19 616.56,-425.21"/>
<polygon fill="#997700" stroke="#997700" points="617.6,-421.6 607.03,-422.37 615.77,-428.35 617.6,-421.6"/>
<text text-anchor="middle" x="910.07" y="-466.55" font-family="Times,serif" font-size="14.00" fill="#997700">А тебе&#45;то что,</text>
<text text-anchor="middle" x="910.07" y="-449.3" font-family="Times,serif" font-size="14.00" fill="#997700">обглоданный?</text>
</g>
<!-- ghoul08&#45;&gt;ghoulend -->
<g id="edge22" class="edge">
<title>ghoul08&#45;&gt;ghoulend</title>
<path fill="none" stroke="#555555" stroke-dasharray="1,5" d="M1506.37,-551.97C1520.28,-529.07 1536.32,-495.7 1536.32,-463.6 1536.32,-463.6 1536.32,-463.6 1536.32,-114.25 1536.32,-23.95 1206.62,-17.86 1092.58,-18.46"/>
<polygon fill="#555555" stroke="#555555" points="1092.59,-14.97 1082.62,-18.54 1092.64,-21.97 1092.59,-14.97"/>
</g>
<!-- ghoulcbt -->
<g id="node8" class="node">
<title>ghoulcbt</title>
<ellipse fill="#ffffff" stroke="#000000" cx="151.32" cy="-18" rx="27" ry="18"/>
</g>
<!-- ghoul02 -->
<g id="node12" class="node">
<title>ghoul02</title>
<ellipse fill="#ffffff" stroke="#000000" cx="771.32" cy="-115.25" rx="124.8" ry="30.05"/>
<text text-anchor="middle" x="771.32" y="-119.2" font-family="Times,serif" font-size="14.00">Я так и понял. Вон из</text>
<text text-anchor="middle" x="771.32" y="-101.95" font-family="Times,serif" font-size="14.00">моего дома.</text>
</g>
<!-- ghoul01&#45;&gt;ghoul02 -->
<g id="edge10" class="edge">
<title>ghoul01&#45;&gt;ghoul02</title>
<path fill="none" stroke="#00991d" d="M946.96,-212.25C916.88,-195.81 868.51,-169.37 830.14,-148.4"/>
<polygon fill="#00991d" stroke="#00991d" points="832.08,-144.92 821.62,-143.2 828.72,-151.06 832.08,-144.92"/>
<text text-anchor="middle" x="939.57" y="-179.45" font-family="Times,serif" font-size="14.00" fill="#00991d">Ничего.</text>
</g>
<!-- ghoul03 -->
<g id="node13" class="node">
<title>ghoul03</title>
<ellipse fill="#ffffff" stroke="#000000" cx="1054.32" cy="-115.25" rx="140.18" ry="42.25"/>
<text text-anchor="middle" x="1054.32" y="-127.82" font-family="Times,serif" font-size="14.00">Тут ничего нет. Поищи в</text>
<text text-anchor="middle" x="1054.32" y="-110.57" font-family="Times,serif" font-size="14.00">храме или там, где вода</text>
<text text-anchor="middle" x="1054.32" y="-93.32" font-family="Times,serif" font-size="14.00">хранится. Все, иди.</text>
</g>
<!-- ghoul01&#45;&gt;ghoul03 -->
<g id="edge11" class="edge">
<title>ghoul01&#45;&gt;ghoul03</title>
<path fill="none" stroke="#99000f" d="M987.32,-210.81C995.84,-198.79 1007.75,-181.97 1019.18,-165.85"/>
<polygon fill="#99000f" stroke="#99000f" points="1022.52,-168.19 1025.45,-158 1016.81,-164.14 1022.52,-168.19"/>
<text text-anchor="middle" x="1095.07" y="-179.45" font-family="Times,serif" font-size="14.00" fill="#99000f">Я ищу забытое знание.</text>
</g>
<!-- ghoul04&#45;&gt;ghoulend -->
<g id="edge14" class="edge">
<title>ghoul04&#45;&gt;ghoulend</title>
<path fill="none" stroke="#555555" stroke-dasharray="1,5" d="M1367.85,-264.61C1349.79,-207.64 1309.07,-106.19 1236.32,-54 1213.68,-37.76 1138.35,-27.47 1092,-22.52"/>
<polygon fill="#555555" stroke="#555555" points="1092.48,-18.94 1082.18,-21.4 1091.76,-25.91 1092.48,-18.94"/>
</g>
<!-- ghoul05&#45;&gt;ghoulend -->
<g id="edge15" class="edge">
<title>ghoul05&#45;&gt;ghoulend</title>
<path fill="none" stroke="#555555" stroke-dasharray="1,5" d="M583.92,-369.76C591.83,-364.04 599,-357.25 604.32,-349.25 672.8,-246.3 550.32,-160.86 637.32,-73 689.71,-20.09 923.38,-17.21 1016.17,-18.23"/>
<polygon fill="#555555" stroke="#555555" points="1015.97,-21.74 1026.02,-18.37 1016.07,-14.74 1015.97,-21.74"/>
</g>
<!-- ghoul07 -->
<g id="node14" class="node">
<title>ghoul07</title>
<ellipse fill="#ffffff" stroke="#000000" cx="151.32" cy="-115.25" rx="151.32" ry="42.25"/>
<text text-anchor="middle" x="151.32" y="-127.82" font-family="Times,serif" font-size="14.00">Не наглей! Тоже мне,</text>
<text text-anchor="middle" x="151.32" y="-110.57" font-family="Times,serif" font-size="14.00">громила. Сейчас огребешь</text>
<text text-anchor="middle" x="151.32" y="-93.32" font-family="Times,serif" font-size="14.00">у меня по полной!</text>
</g>
<!-- ghoul05&#45;&gt;ghoul07 -->
<g id="edge16" class="edge">
<title>ghoul05&#45;&gt;ghoul07</title>
<path fill="none" stroke="#003c99" d="M449.24,-370.63C435.22,-364.45 420.97,-357.28 408.32,-349.25 325.06,-296.41 243.17,-215.84 194.96,-164.63"/>
<polygon fill="#003c99" stroke="#003c99" points="197.9,-162.59 188.51,-157.68 192.79,-167.37 197.9,-162.59"/>
<text text-anchor="middle" x="291.7" y="-224.07" font-family="Times,serif" font-size="14.00" fill="#003c99">Ага.</text>
</g>
<!-- ghoul05a -->
<g id="node15" class="node">
<title>ghoul05a</title>
<ellipse fill="#ffffff" stroke="#000000" cx="423.32" cy="-228.75" rx="27" ry="18"/>
</g>
<!-- ghoul05&#45;&gt;ghoul05a -->
<g id="edge17" class="edge">
<title>ghoul05&#45;&gt;ghoul05a</title>
<path fill="none" stroke="#699900" d="M446.47,-371.24C437.71,-365.34 429.92,-358.11 424.32,-349.25 406.94,-321.75 410.47,-283.11 415.82,-257.29"/>
<polygon fill="#699900" stroke="#699900" points="419.42,-258.28 418.26,-247.75 412.6,-256.7 419.42,-258.28"/>
<text text-anchor="middle" x="514.32" y="-319.57" font-family="Times,serif" font-size="14.00" fill="#699900">Я тебе сейчас голову</text>
<text text-anchor="middle" x="514.32" y="-302.32" font-family="Times,serif" font-size="14.00" fill="#699900">оторву и знаешь куда ее</text>
<text text-anchor="middle" x="514.32" y="-285.07" font-family="Times,serif" font-size="14.00" fill="#699900">затолкаю?</text>
</g>
<!-- ghoul02&#45;&gt;ghoulend -->
<g id="edge12" class="edge">
<title>ghoul02&#45;&gt;ghoulend</title>
<path fill="none" stroke="#555555" stroke-dasharray="1,5" d="M842.73,-90.21C899.49,-71.11 976.38,-45.23 1020.12,-30.51"/>
<polygon fill="#555555" stroke="#555555" points="1021.14,-33.53 1029.5,-27.02 1018.9,-26.89 1021.14,-33.53"/>
</g>
<!-- ghoul03&#45;&gt;ghoulend -->
<g id="edge13" class="edge">
<title>ghoul03&#45;&gt;ghoulend</title>
<path fill="none" stroke="#555555" stroke-dasharray="1,5" d="M1054.32,-72.75C1054.32,-64.13 1054.32,-55.23 1054.32,-47.22"/>
<polygon fill="#555555" stroke="#555555" points="1057.82,-47.25 1054.32,-37.25 1050.82,-47.25 1057.82,-47.25"/>
</g>
<!-- ghoul07&#45;&gt;ghoulcbt -->
<g id="edge21" class="edge">
<title>ghoul07&#45;&gt;ghoulcbt</title>
<path fill="none" stroke="#555555" stroke-dasharray="1,5" d="M151.32,-72.75C151.32,-64.13 151.32,-55.23 151.32,-47.22"/>
<polygon fill="#555555" stroke="#555555" points="154.82,-47.25 151.32,-37.25 147.82,-47.25 154.82,-47.25"/>
</g>
<!-- ghoul05a&#45;&gt;ghoul07 -->
<g id="edge19" class="edge">
<title>ghoul05a&#45;&gt;ghoul07</title>
<path fill="none" stroke="#555555" stroke-dasharray="1,5" d="M400.6,-218.43C366.69,-204.54 300.9,-177.57 245.42,-154.82"/>
<polygon fill="#555555" stroke="#555555" points="247.12,-151.33 236.54,-150.78 244.47,-157.81 247.12,-151.33"/>
</g>
<!-- ghoul06 -->
<g id="node16" class="node">
<title>ghoul06</title>
<ellipse fill="#ffffff" stroke="#000000" cx="455.32" cy="-115.25" rx="134.86" ry="18"/>
<text text-anchor="middle" x="455.32" y="-110.57" font-family="Times,serif" font-size="14.00">Ох, извини! Уже ухожу.</text>
</g>
<!-- ghoul05a&#45;&gt;ghoul06 -->
<g id="edge18" class="edge">
<title>ghoul05a&#45;&gt;ghoul06</title>
<path fill="none" stroke="#555555" stroke-dasharray="1,5" d="M428.18,-210.81C433.25,-193.15 441.28,-165.18 447.29,-144.23"/>
<polygon fill="#555555" stroke="#555555" points="450.91,-145.29 450.31,-134.71 444.19,-143.36 450.91,-145.29"/>
</g>
<!-- ghoul06&#45;&gt;ghoulend -->
<g id="edge20" class="edge">
<title>ghoul06&#45;&gt;ghoulend</title>
<path fill="none" stroke="#555555" stroke-dasharray="1,5" d="M488.38,-97.44C517.95,-83.26 562.9,-63.74 604.32,-54 682.22,-35.68 922.23,-24.32 1016.11,-20.47"/>
<polygon fill="#555555" stroke="#555555" points="1016.23,-23.93 1026.08,-20.03 1015.94,-16.93 1016.23,-23.93"/>
</g>
</g>
</svg>
