<?xml version="1.0" encoding="UTF-8" standalone="no"?>
<!DOCTYPE svg PUBLIC "-//W3C//DTD SVG 1.1//EN"
 "http://www.w3.org/Graphics/SVG/1.1/DTD/svg11.dtd">
<!-- Generated by graphviz version 8.0.5 (0)
 -->
<!-- Title: goodslot Pages: 1 -->
<svg width="672pt" height="652pt"
 viewBox="0.00 0.00 672.26 652.40" xmlns="http://www.w3.org/2000/svg" xmlns:xlink="http://www.w3.org/1999/xlink">
<g id="graph0" class="graph" transform="scale(1 1) rotate(0) translate(4 648.4)">
<title>goodslot</title>
<polygon fill="white" stroke="none" points="-4,4 -4,-648.4 668.26,-648.4 668.26,4 -4,4"/>
<!-- start -->
<g id="node1" class="node">
<title>start</title>
<ellipse fill="#ffffff" stroke="#000000" cx="330.84" cy="-626.4" rx="27" ry="18"/>
</g>
<!-- look_at_p_proc -->
<g id="node2" class="node">
<title>look_at_p_proc</title>
<ellipse fill="#ffffff" stroke="#000000" cx="142.84" cy="-286.2" rx="142.84" ry="42.25"/>
<text text-anchor="middle" x="142.84" y="-298.78" font-family="Times,serif" font-size="14.00">Это игральный автомат с</text>
<text text-anchor="middle" x="142.84" y="-281.53" font-family="Times,serif" font-size="14.00">изображением ядерного</text>
<text text-anchor="middle" x="142.84" y="-264.28" font-family="Times,serif" font-size="14.00">гриба. Игра стоит $20.</text>
</g>
<!-- start&#45;&gt;look_at_p_proc -->
<g id="edge1" class="edge">
<title>start&#45;&gt;look_at_p_proc</title>
<path fill="none" stroke="#555555" stroke-dasharray="1,5" d="M319.67,-609.92C312.33,-599.5 302.65,-585.35 294.84,-572.4 246.45,-492.26 196.57,-395.44 167.7,-337.72"/>
<polygon fill="#555555" stroke="#555555" points="170.5,-336.49 162.9,-329.1 164.23,-339.62 170.5,-336.49"/>
</g>
<!-- map_enter_p_proc -->
<g id="node3" class="node">
<title>map_enter_p_proc</title>
<ellipse fill="#ffffff" stroke="#000000" cx="330.84" cy="-286.2" rx="27" ry="18"/>
</g>
<!-- start&#45;&gt;map_enter_p_proc -->
<g id="edge2" class="edge">
<title>start&#45;&gt;map_enter_p_proc</title>
<path fill="none" stroke="#555555" stroke-dasharray="1,5" d="M330.84,-608.17C330.84,-553.32 330.84,-382.52 330.84,-315.04"/>
<polygon fill="#555555" stroke="#555555" points="334.34,-315.4 330.84,-305.4 327.34,-315.4 334.34,-315.4"/>
</g>
<!-- use_p_proc -->
<g id="node4" class="node">
<title>use_p_proc</title>
<ellipse fill="#ffffff" stroke="#000000" cx="519.84" cy="-286.2" rx="144.43" ry="286.2"/>
<text text-anchor="middle" x="519.84" y="-471.28" font-family="Times,serif" font-size="14.00">У вас нет денег на игру.</text>
<text text-anchor="middle" x="519.84" y="-454.03" font-family="Times,serif" font-size="14.00">&#45;&#45;&#45;</text>
<text text-anchor="middle" x="519.84" y="-436.78" font-family="Times,serif" font-size="14.00">Вы заталкиваете $20 в</text>
<text text-anchor="middle" x="519.84" y="-419.53" font-family="Times,serif" font-size="14.00">щель для крышек и</text>
<text text-anchor="middle" x="519.84" y="-402.28" font-family="Times,serif" font-size="14.00">дергаете за грязную</text>
<text text-anchor="middle" x="519.84" y="-385.03" font-family="Times,serif" font-size="14.00">ручку.</text>
<text text-anchor="middle" x="519.84" y="-367.78" font-family="Times,serif" font-size="14.00">&#45;&#45;&#45;</text>
<text text-anchor="middle" x="519.84" y="-350.53" font-family="Times,serif" font-size="14.00">ДЗЫНЬ! ДЗЫНЬ! ДЗЫНЬ</text>
<text text-anchor="middle" x="519.84" y="-333.28" font-family="Times,serif" font-size="14.00">&#45;&#45;&#45;</text>
<text text-anchor="middle" x="519.84" y="-316.03" font-family="Times,serif" font-size="14.00">Выпало 3 ядерных гриба.</text>
<text text-anchor="middle" x="519.84" y="-298.78" font-family="Times,serif" font-size="14.00">Отлично! $</text>
<text text-anchor="middle" x="519.84" y="-281.53" font-family="Times,serif" font-size="14.00">&#45;&#45;&#45;</text>
<text text-anchor="middle" x="519.84" y="-264.28" font-family="Times,serif" font-size="14.00">. Вы забираете деньги.</text>
<text text-anchor="middle" x="519.84" y="-247.03" font-family="Times,serif" font-size="14.00">&#45;&#45;&#45;</text>
<text text-anchor="middle" x="519.84" y="-229.78" font-family="Times,serif" font-size="14.00">Дзынь! Дзынь! Дзынь!</text>
<text text-anchor="middle" x="519.84" y="-212.53" font-family="Times,serif" font-size="14.00">&#45;&#45;&#45;</text>
<text text-anchor="middle" x="519.84" y="-195.28" font-family="Times,serif" font-size="14.00">Выпало 3 бомбы. Вы</text>
<text text-anchor="middle" x="519.84" y="-178.03" font-family="Times,serif" font-size="14.00">выиграли! $30 падают в</text>
<text text-anchor="middle" x="519.84" y="-160.78" font-family="Times,serif" font-size="14.00">лоток, и вы быстро</text>
<text text-anchor="middle" x="519.84" y="-143.53" font-family="Times,serif" font-size="14.00">собираете крышки.</text>
<text text-anchor="middle" x="519.84" y="-126.28" font-family="Times,serif" font-size="14.00">&#45;&#45;&#45;</text>
<text text-anchor="middle" x="519.84" y="-109.03" font-family="Times,serif" font-size="14.00">Вот незадача! Вы</text>
<text text-anchor="middle" x="519.84" y="-91.78" font-family="Times,serif" font-size="14.00">проиграли.</text>
</g>
<!-- start&#45;&gt;use_p_proc -->
<g id="edge3" class="edge">
<title>start&#45;&gt;use_p_proc</title>
<path fill="none" stroke="#555555" stroke-dasharray="1,5" d="M341.98,-609.91C349.33,-599.49 359,-585.34 366.84,-572.4 381.61,-548 396.54,-522.07 410.99,-496.16"/>
<polygon fill="#555555" stroke="#555555" points="414.49,-498.06 416.29,-487.62 408.37,-494.66 414.49,-498.06"/>
</g>
</g>
</svg>
