<?xml version="1.0" encoding="UTF-8" standalone="no"?>
<!DOCTYPE svg PUBLIC "-//W3C//DTD SVG 1.1//EN"
 "http://www.w3.org/Graphics/SVG/1.1/DTD/svg11.dtd">
<!-- Generated by graphviz version 8.0.5 (0)
 -->
<!-- Title: hbodgrd2 Pages: 1 -->
<svg width="764pt" height="188pt"
 viewBox="0.00 0.00 764.00 188.00" xmlns="http://www.w3.org/2000/svg" xmlns:xlink="http://www.w3.org/1999/xlink">
<g id="graph0" class="graph" transform="scale(1 1) rotate(0) translate(4 184)">
<title>hbodgrd2</title>
<polygon fill="white" stroke="none" points="-4,4 -4,-184 760,-184 760,4 -4,4"/>
<!-- start -->
<g id="node1" class="node">
<title>start</title>
<ellipse fill="#ffffff" stroke="#000000" cx="27" cy="-162" rx="27" ry="18"/>
</g>
<!-- combat -->
<g id="node2" class="node">
<title>combat</title>
<ellipse fill="#ffffff" stroke="#000000" cx="99" cy="-90" rx="27" ry="18"/>
</g>
<!-- critter_p_proc -->
<g id="node3" class="node">
<title>critter_p_proc</title>
<ellipse fill="#ffffff" stroke="#000000" cx="99" cy="-162" rx="27" ry="18"/>
</g>
<!-- critter_p_proc&#45;&gt;combat -->
<g id="edge1" class="edge">
<title>critter_p_proc&#45;&gt;combat</title>
<path fill="none" stroke="#555555" stroke-dasharray="1,5" d="M99,-143.7C99,-136.24 99,-127.32 99,-118.97"/>
<polygon fill="#555555" stroke="#555555" points="102.5,-119.1 99,-109.1 95.5,-119.1 102.5,-119.1"/>
</g>
<!-- pickup_p_proc -->
<g id="node4" class="node">
<title>pickup_p_proc</title>
<ellipse fill="#ffffff" stroke="#000000" cx="171" cy="-162" rx="27" ry="18"/>
</g>
<!-- talk_p_proc -->
<g id="node5" class="node">
<title>talk_p_proc</title>
<ellipse fill="#ffffff" stroke="#000000" cx="243" cy="-162" rx="27" ry="18"/>
</g>
<!-- get_reaction -->
<g id="node6" class="node">
<title>get_reaction</title>
<ellipse fill="#ffffff" stroke="#000000" cx="243" cy="-90" rx="27" ry="18"/>
</g>
<!-- talk_p_proc&#45;&gt;get_reaction -->
<g id="edge2" class="edge">
<title>talk_p_proc&#45;&gt;get_reaction</title>
<path fill="none" stroke="#555555" stroke-dasharray="1,5" d="M243,-143.7C243,-136.24 243,-127.32 243,-118.97"/>
<polygon fill="#555555" stroke="#555555" points="246.5,-119.1 243,-109.1 239.5,-119.1 246.5,-119.1"/>
</g>
<!-- ReactToLevel -->
<g id="node11" class="node">
<title>ReactToLevel</title>
<ellipse fill="#ffffff" stroke="#000000" cx="243" cy="-18" rx="27" ry="18"/>
</g>
<!-- get_reaction&#45;&gt;ReactToLevel -->
<g id="edge3" class="edge">
<title>get_reaction&#45;&gt;ReactToLevel</title>
<path fill="none" stroke="#555555" stroke-dasharray="1,5" d="M243,-71.7C243,-64.24 243,-55.32 243,-46.97"/>
<polygon fill="#555555" stroke="#555555" points="246.5,-47.1 243,-37.1 239.5,-47.1 246.5,-47.1"/>
</g>
<!-- destroy_p_proc -->
<g id="node7" class="node">
<title>destroy_p_proc</title>
<ellipse fill="#ffffff" stroke="#000000" cx="315" cy="-162" rx="27" ry="18"/>
</g>
<!-- look_at_p_proc -->
<g id="node8" class="node">
<title>look_at_p_proc</title>
<ellipse fill="#ffffff" stroke="#000000" cx="486" cy="-162" rx="125.92" ry="18"/>
<text text-anchor="middle" x="486" y="-157.32" font-family="Times,serif" font-size="14.00">Вы видите охранника.</text>
</g>
<!-- damage_p_proc -->
<g id="node9" class="node">
<title>damage_p_proc</title>
<ellipse fill="#ffffff" stroke="#000000" cx="657" cy="-162" rx="27" ry="18"/>
</g>
<!-- map_enter_p_proc -->
<g id="node10" class="node">
<title>map_enter_p_proc</title>
<ellipse fill="#ffffff" stroke="#000000" cx="729" cy="-162" rx="27" ry="18"/>
</g>
</g>
</svg>
