<?xml version="1.0" encoding="UTF-8" standalone="no"?>
<!DOCTYPE svg PUBLIC "-//W3C//DTD SVG 1.1//EN"
 "http://www.w3.org/Graphics/SVG/1.1/DTD/svg11.dtd">
<!-- Generated by graphviz version 8.0.5 (0)
 -->
<!-- Title: hgencvan Pages: 1 -->
<svg width="902pt" height="260pt"
 viewBox="0.00 0.00 901.65 260.00" xmlns="http://www.w3.org/2000/svg" xmlns:xlink="http://www.w3.org/1999/xlink">
<g id="graph0" class="graph" transform="scale(1 1) rotate(0) translate(4 256)">
<title>hgencvan</title>
<polygon fill="white" stroke="none" points="-4,4 -4,-256 897.65,-256 897.65,4 -4,4"/>
<!-- start -->
<g id="node1" class="node">
<title>start</title>
<ellipse fill="#ffffff" stroke="#000000" cx="398.65" cy="-234" rx="27" ry="18"/>
</g>
<!-- look_at_p_proc -->
<g id="node2" class="node">
<title>look_at_p_proc</title>
<ellipse fill="#ffffff" stroke="#000000" cx="140.65" cy="-162" rx="140.65" ry="18"/>
<text text-anchor="middle" x="140.65" y="-157.32" font-family="Times,serif" font-size="14.00">Вы видите караванщика.</text>
</g>
<!-- start&#45;&gt;look_at_p_proc -->
<g id="edge1" class="edge">
<title>start&#45;&gt;look_at_p_proc</title>
<path fill="none" stroke="#555555" stroke-dasharray="1,5" d="M373.91,-226.29C336.43,-216.12 263.87,-196.43 209.58,-181.7"/>
<polygon fill="#555555" stroke="#555555" points="210.55,-178.07 199.98,-178.83 208.72,-184.82 210.55,-178.07"/>
</g>
<!-- pickup_p_proc -->
<g id="node3" class="node">
<title>pickup_p_proc</title>
<ellipse fill="#ffffff" stroke="#000000" cx="326.65" cy="-162" rx="27" ry="18"/>
</g>
<!-- start&#45;&gt;pickup_p_proc -->
<g id="edge2" class="edge">
<title>start&#45;&gt;pickup_p_proc</title>
<path fill="none" stroke="#555555" stroke-dasharray="1,5" d="M383.73,-218.5C373.78,-208.83 360.53,-195.94 349.29,-185.02"/>
<polygon fill="#555555" stroke="#555555" points="352.16,-182.95 342.55,-178.49 347.28,-187.97 352.16,-182.95"/>
</g>
<!-- talk_p_proc -->
<g id="node4" class="node">
<title>talk_p_proc</title>
<ellipse fill="#ffffff" stroke="#000000" cx="398.65" cy="-162" rx="27" ry="18"/>
</g>
<!-- start&#45;&gt;talk_p_proc -->
<g id="edge3" class="edge">
<title>start&#45;&gt;talk_p_proc</title>
<path fill="none" stroke="#555555" stroke-dasharray="1,5" d="M398.65,-215.7C398.65,-208.24 398.65,-199.32 398.65,-190.97"/>
<polygon fill="#555555" stroke="#555555" points="402.15,-191.1 398.65,-181.1 395.15,-191.1 402.15,-191.1"/>
</g>
<!-- critter_p_proc -->
<g id="node5" class="node">
<title>critter_p_proc</title>
<ellipse fill="#ffffff" stroke="#000000" cx="470.65" cy="-162" rx="27" ry="18"/>
</g>
<!-- start&#45;&gt;critter_p_proc -->
<g id="edge4" class="edge">
<title>start&#45;&gt;critter_p_proc</title>
<path fill="none" stroke="#555555" stroke-dasharray="1,5" d="M413.57,-218.5C423.51,-208.83 436.77,-195.94 448,-185.02"/>
<polygon fill="#555555" stroke="#555555" points="450.02,-187.97 454.75,-178.49 445.14,-182.95 450.02,-187.97"/>
</g>
<!-- destroy_p_proc -->
<g id="node6" class="node">
<title>destroy_p_proc</title>
<ellipse fill="#ffffff" stroke="#000000" cx="542.65" cy="-162" rx="27" ry="18"/>
</g>
<!-- start&#45;&gt;destroy_p_proc -->
<g id="edge5" class="edge">
<title>start&#45;&gt;destroy_p_proc</title>
<path fill="none" stroke="#555555" stroke-dasharray="1,5" d="M420.2,-222.52C444.52,-210.7 484.27,-191.38 511.85,-177.97"/>
<polygon fill="#555555" stroke="#555555" points="512.95,-180.84 520.41,-173.32 509.89,-174.55 512.95,-180.84"/>
</g>
<!-- get_reaction -->
<g id="node8" class="node">
<title>get_reaction</title>
<ellipse fill="#ffffff" stroke="#000000" cx="326.65" cy="-90" rx="27" ry="18"/>
</g>
<!-- talk_p_proc&#45;&gt;get_reaction -->
<g id="edge6" class="edge">
<title>talk_p_proc&#45;&gt;get_reaction</title>
<path fill="none" stroke="#555555" stroke-dasharray="1,5" d="M383.73,-146.5C373.78,-136.83 360.53,-123.94 349.29,-113.02"/>
<polygon fill="#555555" stroke="#555555" points="352.16,-110.95 342.55,-106.49 347.28,-115.97 352.16,-110.95"/>
</g>
<!-- Caravan02 -->
<g id="node9" class="node">
<title>Caravan02</title>
<ellipse fill="#ffffff" stroke="#000000" cx="398.65" cy="-90" rx="27" ry="18"/>
</g>
<!-- talk_p_proc&#45;&gt;Caravan02 -->
<g id="edge7" class="edge">
<title>talk_p_proc&#45;&gt;Caravan02</title>
<path fill="none" stroke="#555555" stroke-dasharray="1,5" d="M398.65,-143.7C398.65,-136.24 398.65,-127.32 398.65,-118.97"/>
<polygon fill="#555555" stroke="#555555" points="402.15,-119.1 398.65,-109.1 395.15,-119.1 402.15,-119.1"/>
</g>
<!-- Caravan01 -->
<g id="node10" class="node">
<title>Caravan01</title>
<ellipse fill="#ffffff" stroke="#000000" cx="470.65" cy="-90" rx="27" ry="18"/>
</g>
<!-- talk_p_proc&#45;&gt;Caravan01 -->
<g id="edge8" class="edge">
<title>talk_p_proc&#45;&gt;Caravan01</title>
<path fill="none" stroke="#555555" stroke-dasharray="1,5" d="M413.57,-146.5C423.51,-136.83 436.77,-123.94 448,-113.02"/>
<polygon fill="#555555" stroke="#555555" points="450.02,-115.97 454.75,-106.49 445.14,-110.95 450.02,-115.97"/>
</g>
<!-- combat -->
<g id="node7" class="node">
<title>combat</title>
<ellipse fill="#ffffff" stroke="#000000" cx="506.65" cy="-234" rx="27" ry="18"/>
</g>
<!-- ReactToLevel -->
<g id="node11" class="node">
<title>ReactToLevel</title>
<ellipse fill="#ffffff" stroke="#000000" cx="614.65" cy="-18" rx="27" ry="18"/>
</g>
<!-- get_reaction&#45;&gt;ReactToLevel -->
<g id="edge9" class="edge">
<title>get_reaction&#45;&gt;ReactToLevel</title>
<path fill="none" stroke="#555555" stroke-dasharray="1,5" d="M347.63,-78.09C352.47,-75.85 357.67,-73.67 362.65,-72 436.91,-47.04 527.59,-31.42 577.41,-24.04"/>
<polygon fill="#555555" stroke="#555555" points="577.59,-27.41 586.99,-22.51 576.59,-20.48 577.59,-27.41"/>
</g>
<!-- LevelToReact -->
<g id="node12" class="node">
<title>LevelToReact</title>
<ellipse fill="#ffffff" stroke="#000000" cx="614.65" cy="-162" rx="27" ry="18"/>
</g>
<!-- UpReact -->
<g id="node13" class="node">
<title>UpReact</title>
<ellipse fill="#ffffff" stroke="#000000" cx="542.65" cy="-90" rx="27" ry="18"/>
</g>
<!-- UpReact&#45;&gt;ReactToLevel -->
<g id="edge10" class="edge">
<title>UpReact&#45;&gt;ReactToLevel</title>
<path fill="none" stroke="#555555" stroke-dasharray="1,5" d="M557.57,-74.5C567.51,-64.83 580.77,-51.94 592,-41.02"/>
<polygon fill="#555555" stroke="#555555" points="594.02,-43.97 598.75,-34.49 589.14,-38.95 594.02,-43.97"/>
</g>
<!-- DownReact -->
<g id="node14" class="node">
<title>DownReact</title>
<ellipse fill="#ffffff" stroke="#000000" cx="614.65" cy="-90" rx="27" ry="18"/>
</g>
<!-- DownReact&#45;&gt;ReactToLevel -->
<g id="edge11" class="edge">
<title>DownReact&#45;&gt;ReactToLevel</title>
<path fill="none" stroke="#555555" stroke-dasharray="1,5" d="M614.65,-71.7C614.65,-64.24 614.65,-55.32 614.65,-46.97"/>
<polygon fill="#555555" stroke="#555555" points="618.15,-47.1 614.65,-37.1 611.15,-47.1 618.15,-47.1"/>
</g>
<!-- BottomReact -->
<g id="node15" class="node">
<title>BottomReact</title>
<ellipse fill="#ffffff" stroke="#000000" cx="722.65" cy="-234" rx="27" ry="18"/>
</g>
<!-- TopReact -->
<g id="node16" class="node">
<title>TopReact</title>
<ellipse fill="#ffffff" stroke="#000000" cx="794.65" cy="-234" rx="27" ry="18"/>
</g>
<!-- BigUpReact -->
<g id="node17" class="node">
<title>BigUpReact</title>
<ellipse fill="#ffffff" stroke="#000000" cx="686.65" cy="-90" rx="27" ry="18"/>
</g>
<!-- BigUpReact&#45;&gt;ReactToLevel -->
<g id="edge12" class="edge">
<title>BigUpReact&#45;&gt;ReactToLevel</title>
<path fill="none" stroke="#555555" stroke-dasharray="1,5" d="M671.73,-74.5C661.78,-64.83 648.53,-51.94 637.29,-41.02"/>
<polygon fill="#555555" stroke="#555555" points="640.16,-38.95 630.55,-34.49 635.28,-43.97 640.16,-38.95"/>
</g>
<!-- BigDownReact -->
<g id="node18" class="node">
<title>BigDownReact</title>
<ellipse fill="#ffffff" stroke="#000000" cx="758.65" cy="-90" rx="27" ry="18"/>
</g>
<!-- BigDownReact&#45;&gt;ReactToLevel -->
<g id="edge13" class="edge">
<title>BigDownReact&#45;&gt;ReactToLevel</title>
<path fill="none" stroke="#555555" stroke-dasharray="1,5" d="M737.09,-78.52C712.77,-66.7 673.03,-47.38 645.44,-33.97"/>
<polygon fill="#555555" stroke="#555555" points="647.41,-30.55 636.88,-29.32 644.35,-36.84 647.41,-30.55"/>
</g>
<!-- UpReactLevel -->
<g id="node19" class="node">
<title>UpReactLevel</title>
<ellipse fill="#ffffff" stroke="#000000" cx="578.65" cy="-234" rx="27" ry="18"/>
</g>
<!-- UpReactLevel&#45;&gt;LevelToReact -->
<g id="edge14" class="edge">
<title>UpReactLevel&#45;&gt;LevelToReact</title>
<path fill="none" stroke="#555555" stroke-dasharray="1,5" d="M587,-216.76C591.27,-208.46 596.57,-198.15 601.38,-188.79"/>
<polygon fill="#555555" stroke="#555555" points="604.88,-190.64 606.34,-180.15 598.66,-187.44 604.88,-190.64"/>
</g>
<!-- DownReactLevel -->
<g id="node20" class="node">
<title>DownReactLevel</title>
<ellipse fill="#ffffff" stroke="#000000" cx="650.65" cy="-234" rx="27" ry="18"/>
</g>
<!-- DownReactLevel&#45;&gt;LevelToReact -->
<g id="edge15" class="edge">
<title>DownReactLevel&#45;&gt;LevelToReact</title>
<path fill="none" stroke="#555555" stroke-dasharray="1,5" d="M642.3,-216.76C638.03,-208.46 632.73,-198.15 627.91,-188.79"/>
<polygon fill="#555555" stroke="#555555" points="630.64,-187.44 622.95,-180.15 624.41,-190.64 630.64,-187.44"/>
</g>
<!-- Goodbyes -->
<g id="node21" class="node">
<title>Goodbyes</title>
<ellipse fill="#ffffff" stroke="#000000" cx="866.65" cy="-234" rx="27" ry="18"/>
</g>
</g>
</svg>
