<?xml version="1.0" encoding="UTF-8" standalone="no"?>
<!DOCTYPE svg PUBLIC "-//W3C//DTD SVG 1.1//EN"
 "http://www.w3.org/Graphics/SVG/1.1/DTD/svg11.dtd">
<!-- Generated by graphviz version 8.0.5 (0)
 -->
<!-- Title: htwrgrd Pages: 1 -->
<svg width="748pt" height="236pt"
 viewBox="0.00 0.00 748.00 236.50" xmlns="http://www.w3.org/2000/svg" xmlns:xlink="http://www.w3.org/1999/xlink">
<g id="graph0" class="graph" transform="scale(1 1) rotate(0) translate(4 232.5)">
<title>htwrgrd</title>
<polygon fill="white" stroke="none" points="-4,4 -4,-232.5 744,-232.5 744,4 -4,4"/>
<!-- start -->
<g id="node1" class="node">
<title>start</title>
<ellipse fill="#ffffff" stroke="#000000" cx="27" cy="-186.25" rx="27" ry="18"/>
</g>
<!-- combat -->
<g id="node2" class="node">
<title>combat</title>
<ellipse fill="#ffffff" stroke="#000000" cx="99" cy="-90" rx="27" ry="18"/>
</g>
<!-- critter_p_proc -->
<g id="node3" class="node">
<title>critter_p_proc</title>
<ellipse fill="#ffffff" stroke="#000000" cx="99" cy="-186.25" rx="27" ry="18"/>
</g>
<!-- critter_p_proc&#45;&gt;combat -->
<g id="edge1" class="edge">
<title>critter_p_proc&#45;&gt;combat</title>
<path fill="none" stroke="#555555" stroke-dasharray="1,5" d="M99,-167.96C99,-154.36 99,-135.13 99,-119.3"/>
<polygon fill="#555555" stroke="#555555" points="102.5,-119.5 99,-109.5 95.5,-119.5 102.5,-119.5"/>
</g>
<!-- pickup_p_proc -->
<g id="node4" class="node">
<title>pickup_p_proc</title>
<ellipse fill="#ffffff" stroke="#000000" cx="243" cy="-186.25" rx="27" ry="18"/>
</g>
<!-- talk_p_proc -->
<g id="node5" class="node">
<title>talk_p_proc</title>
<ellipse fill="#ffffff" stroke="#000000" cx="171" cy="-186.25" rx="27" ry="18"/>
</g>
<!-- talk_p_proc&#45;&gt;combat -->
<g id="edge3" class="edge">
<title>talk_p_proc&#45;&gt;combat</title>
<path fill="none" stroke="#555555" stroke-dasharray="1,5" d="M159.11,-169.69C147.75,-154.82 130.46,-132.18 117.34,-115"/>
<polygon fill="#555555" stroke="#555555" points="119.76,-113.41 110.91,-107.59 114.2,-117.66 119.76,-113.41"/>
</g>
<!-- get_reaction -->
<g id="node6" class="node">
<title>get_reaction</title>
<ellipse fill="#ffffff" stroke="#000000" cx="171" cy="-90" rx="27" ry="18"/>
</g>
<!-- talk_p_proc&#45;&gt;get_reaction -->
<g id="edge2" class="edge">
<title>talk_p_proc&#45;&gt;get_reaction</title>
<path fill="none" stroke="#555555" stroke-dasharray="1,5" d="M171,-167.96C171,-154.36 171,-135.13 171,-119.3"/>
<polygon fill="#555555" stroke="#555555" points="174.5,-119.5 171,-109.5 167.5,-119.5 174.5,-119.5"/>
</g>
<!-- ReactToLevel -->
<g id="node11" class="node">
<title>ReactToLevel</title>
<ellipse fill="#ffffff" stroke="#000000" cx="171" cy="-18" rx="27" ry="18"/>
</g>
<!-- get_reaction&#45;&gt;ReactToLevel -->
<g id="edge4" class="edge">
<title>get_reaction&#45;&gt;ReactToLevel</title>
<path fill="none" stroke="#555555" stroke-dasharray="1,5" d="M171,-71.7C171,-64.24 171,-55.32 171,-46.97"/>
<polygon fill="#555555" stroke="#555555" points="174.5,-47.1 171,-37.1 167.5,-47.1 174.5,-47.1"/>
</g>
<!-- destroy_p_proc -->
<g id="node7" class="node">
<title>destroy_p_proc</title>
<ellipse fill="#ffffff" stroke="#000000" cx="315" cy="-186.25" rx="27" ry="18"/>
</g>
<!-- look_at_p_proc -->
<g id="node8" class="node">
<title>look_at_p_proc</title>
<ellipse fill="#ffffff" stroke="#000000" cx="478" cy="-186.25" rx="118.44" ry="42.25"/>
<text text-anchor="middle" x="478" y="-198.82" font-family="Times,serif" font-size="14.00">Вы видите одного из</text>
<text text-anchor="middle" x="478" y="-181.57" font-family="Times,serif" font-size="14.00">охранников мистера</text>
<text text-anchor="middle" x="478" y="-164.32" font-family="Times,serif" font-size="14.00">Хайтауэра.</text>
</g>
<!-- damage_p_proc -->
<g id="node9" class="node">
<title>damage_p_proc</title>
<ellipse fill="#ffffff" stroke="#000000" cx="641" cy="-186.25" rx="27" ry="18"/>
</g>
<!-- map_enter_p_proc -->
<g id="node10" class="node">
<title>map_enter_p_proc</title>
<ellipse fill="#ffffff" stroke="#000000" cx="713" cy="-186.25" rx="27" ry="18"/>
</g>
</g>
</svg>
