<?xml version="1.0" encoding="UTF-8" standalone="no"?>
<!DOCTYPE svg PUBLIC "-//W3C//DTD SVG 1.1//EN"
 "http://www.w3.org/Graphics/SVG/1.1/DTD/svg11.dtd">
<!-- Generated by graphviz version 8.0.5 (0)
 -->
<!-- Title: hubpatnt Pages: 1 -->
<svg width="1470pt" height="212pt"
 viewBox="0.00 0.00 1470.00 212.10" xmlns="http://www.w3.org/2000/svg" xmlns:xlink="http://www.w3.org/1999/xlink">
<g id="graph0" class="graph" transform="scale(1 1) rotate(0) translate(4 208.1)">
<title>hubpatnt</title>
<polygon fill="white" stroke="none" points="-4,4 -4,-208.1 1466,-208.1 1466,4 -4,4"/>
<!-- start -->
<g id="node1" class="node">
<title>start</title>
<ellipse fill="#ffffff" stroke="#000000" cx="27" cy="-174.05" rx="27" ry="18"/>
</g>
<!-- critter_p_proc -->
<g id="node2" class="node">
<title>critter_p_proc</title>
<ellipse fill="#ffffff" stroke="#000000" cx="99" cy="-174.05" rx="27" ry="18"/>
</g>
<!-- pickup_p_proc -->
<g id="node3" class="node">
<title>pickup_p_proc</title>
<ellipse fill="#ffffff" stroke="#000000" cx="171" cy="-174.05" rx="27" ry="18"/>
</g>
<!-- talk_p_proc -->
<g id="node4" class="node">
<title>talk_p_proc</title>
<ellipse fill="#ffffff" stroke="#000000" cx="339" cy="-174.05" rx="123.21" ry="30.05"/>
<text text-anchor="middle" x="339" y="-178" font-family="Times,serif" font-size="14.00">Оооох.... Смилуйся....</text>
<text text-anchor="middle" x="339" y="-160.75" font-family="Times,serif" font-size="14.00">Священное пламя....</text>
</g>
<!-- get_reaction -->
<g id="node5" class="node">
<title>get_reaction</title>
<ellipse fill="#ffffff" stroke="#000000" cx="339" cy="-90" rx="27" ry="18"/>
</g>
<!-- talk_p_proc&#45;&gt;get_reaction -->
<g id="edge1" class="edge">
<title>talk_p_proc&#45;&gt;get_reaction</title>
<path fill="none" stroke="#555555" stroke-dasharray="1,5" d="M339,-143.89C339,-135.75 339,-126.93 339,-118.87"/>
<polygon fill="#555555" stroke="#555555" points="342.5,-119.12 339,-109.12 335.5,-119.12 342.5,-119.12"/>
</g>
<!-- ReactToLevel -->
<g id="node12" class="node">
<title>ReactToLevel</title>
<ellipse fill="#ffffff" stroke="#000000" cx="339" cy="-18" rx="27" ry="18"/>
</g>
<!-- get_reaction&#45;&gt;ReactToLevel -->
<g id="edge2" class="edge">
<title>get_reaction&#45;&gt;ReactToLevel</title>
<path fill="none" stroke="#555555" stroke-dasharray="1,5" d="M339,-71.7C339,-64.24 339,-55.32 339,-46.97"/>
<polygon fill="#555555" stroke="#555555" points="342.5,-47.1 339,-37.1 335.5,-47.1 342.5,-47.1"/>
</g>
<!-- destroy_p_proc -->
<g id="node6" class="node">
<title>destroy_p_proc</title>
<ellipse fill="#ffffff" stroke="#000000" cx="507" cy="-174.05" rx="27" ry="18"/>
</g>
<!-- look_at_p_proc -->
<g id="node7" class="node">
<title>look_at_p_proc</title>
<ellipse fill="#ffffff" stroke="#000000" cx="671" cy="-174.05" rx="119.08" ry="18"/>
<text text-anchor="middle" x="671" y="-169.38" font-family="Times,serif" font-size="14.00">Вы видите пациента.</text>
</g>
<!-- use_skill_on_p_proc -->
<g id="node8" class="node">
<title>use_skill_on_p_proc</title>
<ellipse fill="#ffffff" stroke="#000000" cx="931" cy="-174.05" rx="123.21" ry="30.05"/>
<text text-anchor="middle" x="931" y="-178" font-family="Times,serif" font-size="14.00">Оооох.... Смилуйся....</text>
<text text-anchor="middle" x="931" y="-160.75" font-family="Times,serif" font-size="14.00">Священное пламя....</text>
</g>
<!-- use_obj_on_p_proc -->
<g id="node9" class="node">
<title>use_obj_on_p_proc</title>
<ellipse fill="#ffffff" stroke="#000000" cx="1195" cy="-174.05" rx="123.21" ry="30.05"/>
<text text-anchor="middle" x="1195" y="-178" font-family="Times,serif" font-size="14.00">Оооох.... Смилуйся....</text>
<text text-anchor="middle" x="1195" y="-160.75" font-family="Times,serif" font-size="14.00">Священное пламя....</text>
</g>
<!-- damage_p_proc -->
<g id="node10" class="node">
<title>damage_p_proc</title>
<ellipse fill="#ffffff" stroke="#000000" cx="1363" cy="-174.05" rx="27" ry="18"/>
</g>
<!-- map_enter_p_proc -->
<g id="node11" class="node">
<title>map_enter_p_proc</title>
<ellipse fill="#ffffff" stroke="#000000" cx="1435" cy="-174.05" rx="27" ry="18"/>
</g>
</g>
</svg>
