<?xml version="1.0" encoding="UTF-8" standalone="no"?>
<!DOCTYPE svg PUBLIC "-//W3C//DTD SVG 1.1//EN"
 "http://www.w3.org/Graphics/SVG/1.1/DTD/svg11.dtd">
<!-- Generated by graphviz version 8.0.5 (0)
 -->
<!-- Title: hubsmity Pages: 1 -->
<svg width="910pt" height="383pt"
 viewBox="0.00 0.00 910.00 382.87" xmlns="http://www.w3.org/2000/svg" xmlns:xlink="http://www.w3.org/1999/xlink">
<g id="graph0" class="graph" transform="scale(1 1) rotate(0) translate(4 378.87)">
<title>hubsmity</title>
<polygon fill="white" stroke="none" points="-4,4 -4,-378.87 906,-378.87 906,4 -4,4"/>
<!-- start -->
<g id="node1" class="node">
<title>start</title>
<ellipse fill="#ffffff" stroke="#000000" cx="27" cy="-259.44" rx="27" ry="18"/>
</g>
<!-- critter_p_proc -->
<g id="node2" class="node">
<title>critter_p_proc</title>
<ellipse fill="#ffffff" stroke="#000000" cx="99" cy="-259.44" rx="27" ry="18"/>
</g>
<!-- pickup_p_proc -->
<g id="node3" class="node">
<title>pickup_p_proc</title>
<ellipse fill="#ffffff" stroke="#000000" cx="171" cy="-259.44" rx="27" ry="18"/>
</g>
<!-- talk_p_proc -->
<g id="node4" class="node">
<title>talk_p_proc</title>
<ellipse fill="#ffffff" stroke="#000000" cx="368" cy="-259.44" rx="151.85" ry="115.44"/>
<text text-anchor="middle" x="368" y="-323.76" font-family="Times,serif" font-size="14.00">Ты еще хочешь говорить,</text>
<text text-anchor="middle" x="368" y="-306.51" font-family="Times,serif" font-size="14.00">после того что ты</text>
<text text-anchor="middle" x="368" y="-289.26" font-family="Times,serif" font-size="14.00">устроил? Пошел ты!</text>
<text text-anchor="middle" x="368" y="-272.01" font-family="Times,serif" font-size="14.00">&#45;&#45;&#45;</text>
<text text-anchor="middle" x="368" y="-254.76" font-family="Times,serif" font-size="14.00">Слушай. Иди гнать в</text>
<text text-anchor="middle" x="368" y="-237.51" font-family="Times,serif" font-size="14.00">другом месте.</text>
<text text-anchor="middle" x="368" y="-220.26" font-family="Times,serif" font-size="14.00">&#45;&#45;&#45;</text>
<text text-anchor="middle" x="368" y="-203.01" font-family="Times,serif" font-size="14.00">Мы тут не разговариваем</text>
<text text-anchor="middle" x="368" y="-185.76" font-family="Times,serif" font-size="14.00">со всякими посторонними!</text>
</g>
<!-- get_reaction -->
<g id="node5" class="node">
<title>get_reaction</title>
<ellipse fill="#ffffff" stroke="#000000" cx="368" cy="-90" rx="27" ry="18"/>
</g>
<!-- talk_p_proc&#45;&gt;get_reaction -->
<g id="edge1" class="edge">
<title>talk_p_proc&#45;&gt;get_reaction</title>
<path fill="none" stroke="#555555" stroke-dasharray="1,5" d="M368,-143.52C368,-134.64 368,-126.3 368,-119"/>
<polygon fill="#555555" stroke="#555555" points="371.5,-119.12 368,-109.12 364.5,-119.12 371.5,-119.12"/>
</g>
<!-- ReactToLevel -->
<g id="node9" class="node">
<title>ReactToLevel</title>
<ellipse fill="#ffffff" stroke="#000000" cx="368" cy="-18" rx="27" ry="18"/>
</g>
<!-- get_reaction&#45;&gt;ReactToLevel -->
<g id="edge2" class="edge">
<title>get_reaction&#45;&gt;ReactToLevel</title>
<path fill="none" stroke="#555555" stroke-dasharray="1,5" d="M368,-71.7C368,-64.24 368,-55.32 368,-46.97"/>
<polygon fill="#555555" stroke="#555555" points="371.5,-47.1 368,-37.1 364.5,-47.1 371.5,-47.1"/>
</g>
<!-- destroy_p_proc -->
<g id="node6" class="node">
<title>destroy_p_proc</title>
<ellipse fill="#ffffff" stroke="#000000" cx="565" cy="-259.44" rx="27" ry="18"/>
</g>
<!-- look_at_p_proc -->
<g id="node7" class="node">
<title>look_at_p_proc</title>
<ellipse fill="#ffffff" stroke="#000000" cx="720" cy="-259.44" rx="109.61" ry="18"/>
<text text-anchor="middle" x="720" y="-254.76" font-family="Times,serif" font-size="14.00">Вы видите Смитти.</text>
</g>
<!-- map_enter_p_proc -->
<g id="node8" class="node">
<title>map_enter_p_proc</title>
<ellipse fill="#ffffff" stroke="#000000" cx="875" cy="-259.44" rx="27" ry="18"/>
</g>
</g>
</svg>
