<?xml version="1.0" encoding="UTF-8" standalone="no"?>
<!DOCTYPE svg PUBLIC "-//W3C//DTD SVG 1.1//EN"
 "http://www.w3.org/Graphics/SVG/1.1/DTD/svg11.dtd">
<!-- Generated by graphviz version 8.0.5 (0)
 -->
<!-- Title: julianna Pages: 1 -->
<svg width="2031pt" height="1136pt"
 viewBox="0.00 0.00 2030.59 1136.38" xmlns="http://www.w3.org/2000/svg" xmlns:xlink="http://www.w3.org/1999/xlink">
<g id="graph0" class="graph" transform="scale(1 1) rotate(0) translate(4 1132.38)">
<title>julianna</title>
<polygon fill="white" stroke="none" points="-4,4 -4,-1132.38 2026.59,-1132.38 2026.59,4 -4,4"/>
<!-- start -->
<g id="node1" class="node">
<title>start</title>
<ellipse fill="#ffffff" stroke="#000000" cx="27" cy="-1037.34" rx="27" ry="18"/>
</g>
<!-- critter_p_proc -->
<g id="node2" class="node">
<title>critter_p_proc</title>
<ellipse fill="#ffffff" stroke="#000000" cx="99" cy="-1037.34" rx="27" ry="18"/>
</g>
<!-- flee_dude -->
<g id="node3" class="node">
<title>flee_dude</title>
<ellipse fill="#ffffff" stroke="#000000" cx="63" cy="-854.86" rx="27" ry="18"/>
</g>
<!-- critter_p_proc&#45;&gt;flee_dude -->
<g id="edge1" class="edge">
<title>critter_p_proc&#45;&gt;flee_dude</title>
<path fill="none" stroke="#555555" stroke-dasharray="1,5" d="M95.55,-1019.04C89.31,-987.77 76.12,-921.62 68.58,-883.85"/>
<polygon fill="#555555" stroke="#555555" points="71.83,-883.23 66.44,-874.11 64.97,-884.6 71.83,-883.23"/>
</g>
<!-- sleeping -->
<g id="node4" class="node">
<title>sleeping</title>
<ellipse fill="#ffffff" stroke="#000000" cx="135" cy="-854.86" rx="27" ry="18"/>
</g>
<!-- critter_p_proc&#45;&gt;sleeping -->
<g id="edge2" class="edge">
<title>critter_p_proc&#45;&gt;sleeping</title>
<path fill="none" stroke="#555555" stroke-dasharray="1,5" d="M102.45,-1019.04C108.69,-987.77 121.88,-921.62 129.42,-883.85"/>
<polygon fill="#555555" stroke="#555555" points="133.03,-884.6 131.56,-874.11 126.17,-883.23 133.03,-884.6"/>
</g>
<!-- damage_p_proc -->
<g id="node5" class="node">
<title>damage_p_proc</title>
<ellipse fill="#ffffff" stroke="#000000" cx="171" cy="-1037.34" rx="27" ry="18"/>
</g>
<!-- destroy_p_proc -->
<g id="node6" class="node">
<title>destroy_p_proc</title>
<ellipse fill="#ffffff" stroke="#000000" cx="243" cy="-1037.34" rx="27" ry="18"/>
</g>
<!-- look_at_p_proc -->
<g id="node7" class="node">
<title>look_at_p_proc</title>
<ellipse fill="#ffffff" stroke="#000000" cx="445" cy="-1037.34" rx="157.15" ry="54.45"/>
<text text-anchor="middle" x="445" y="-1058.54" font-family="Times,serif" font-size="14.00">Вы видите Джулиану.</text>
<text text-anchor="middle" x="445" y="-1041.29" font-family="Times,serif" font-size="14.00">&#45;&#45;&#45;</text>
<text text-anchor="middle" x="445" y="-1024.04" font-family="Times,serif" font-size="14.00">Вы видите простого жителя</text>
<text text-anchor="middle" x="445" y="-1006.79" font-family="Times,serif" font-size="14.00">Святилища.</text>
</g>
<!-- pickup_p_proc -->
<g id="node8" class="node">
<title>pickup_p_proc</title>
<ellipse fill="#ffffff" stroke="#000000" cx="647" cy="-1037.34" rx="27" ry="18"/>
</g>
<!-- talk_p_proc -->
<g id="node9" class="node">
<title>talk_p_proc</title>
<ellipse fill="#ffffff" stroke="#000000" cx="843" cy="-1037.34" rx="150.79" ry="91.04"/>
<text text-anchor="middle" x="843" y="-1084.42" font-family="Times,serif" font-size="14.00">Привет.</text>
<text text-anchor="middle" x="843" y="-1067.17" font-family="Times,serif" font-size="14.00">&#45;&#45;&#45;</text>
<text text-anchor="middle" x="843" y="-1049.92" font-family="Times,serif" font-size="14.00">Вы получили 250 опыта за</text>
<text text-anchor="middle" x="843" y="-1032.67" font-family="Times,serif" font-size="14.00">то, что помогли</text>
<text text-anchor="middle" x="843" y="-1015.42" font-family="Times,serif" font-size="14.00">несчастным любовникам,</text>
<text text-anchor="middle" x="843" y="-998.17" font-family="Times,serif" font-size="14.00">доставив кулон Ромеро</text>
<text text-anchor="middle" x="843" y="-980.92" font-family="Times,serif" font-size="14.00">Джулиане.</text>
</g>
<!-- Julianna01 -->
<g id="node10" class="node">
<title>Julianna01</title>
<ellipse fill="#ffffff" stroke="#000000" cx="675" cy="-854.86" rx="52.26" ry="18"/>
<text text-anchor="middle" x="675" y="-850.18" font-family="Times,serif" font-size="14.00">Привет.</text>
</g>
<!-- talk_p_proc&#45;&gt;Julianna01 -->
<g id="edge3" class="edge">
<title>talk_p_proc&#45;&gt;Julianna01</title>
<path fill="none" stroke="#555555" stroke-dasharray="1,5" d="M769.56,-957.44C743.6,-929.55 716.27,-900.2 697.71,-880.25"/>
<polygon fill="#555555" stroke="#555555" points="700.7,-878.25 691.32,-873.32 695.57,-883.02 700.7,-878.25"/>
</g>
<!-- Julianna10 -->
<g id="node11" class="node">
<title>Julianna10</title>
<ellipse fill="#ffffff" stroke="#000000" cx="907" cy="-854.86" rx="161.4" ry="54.45"/>
<text text-anchor="middle" x="907" y="-876.06" font-family="Times,serif" font-size="14.00">Ах! Спасибо тебе большое,</text>
<text text-anchor="middle" x="907" y="-858.81" font-family="Times,serif" font-size="14.00">что помог нашей любви! Мы</text>
<text text-anchor="middle" x="907" y="-841.56" font-family="Times,serif" font-size="14.00">с Ромеро обязательно</text>
<text text-anchor="middle" x="907" y="-824.31" font-family="Times,serif" font-size="14.00">поженимся.</text>
</g>
<!-- talk_p_proc&#45;&gt;Julianna10 -->
<g id="edge4" class="edge">
<title>talk_p_proc&#45;&gt;Julianna10</title>
<path fill="none" stroke="#555555" stroke-dasharray="1,5" d="M874.34,-947.95C877.75,-938.35 881.17,-928.71 884.44,-919.49"/>
<polygon fill="#555555" stroke="#555555" points="888.02,-920.86 888.06,-910.27 881.42,-918.52 888.02,-920.86"/>
</g>
<!-- JuliannaEnd -->
<g id="node14" class="node">
<title>JuliannaEnd</title>
<ellipse fill="#ffffff" stroke="#000000" cx="629" cy="-151.84" rx="27" ry="18"/>
</g>
<!-- Julianna01&#45;&gt;JuliannaEnd -->
<g id="edge5" class="edge">
<title>Julianna01&#45;&gt;JuliannaEnd</title>
<path fill="none" stroke="#00995e" d="M658.33,-837.55C645.09,-823.85 626.9,-803.22 615,-782.41 584.43,-728.95 579.18,-712.49 568.75,-651.8 538.04,-473.08 596.9,-255.69 620.14,-180.21"/>
<polygon fill="#00995e" stroke="#00995e" points="623.77,-181.32 623.42,-170.73 617.09,-179.23 623.77,-181.32"/>
<text text-anchor="middle" x="588.12" y="-621.25" font-family="Times,serif" font-size="14.00" fill="#00995e">Ырф.</text>
</g>
<!-- Julianna01&#45;&gt;JuliannaEnd -->
<g id="edge6" class="edge">
<title>Julianna01&#45;&gt;JuliannaEnd</title>
<path fill="none" stroke="#993100" d="M672.93,-836.4C667.89,-793.28 654.91,-678.31 648,-582.05 637.15,-430.85 631.55,-249.2 629.71,-180.75"/>
<polygon fill="#993100" stroke="#993100" points="633.19,-180.94 629.42,-171.04 626.19,-181.12 633.19,-180.94"/>
<text text-anchor="middle" x="683.25" y="-621.25" font-family="Times,serif" font-size="14.00" fill="#993100">Привет.</text>
</g>
<!-- Julianna06 -->
<g id="node15" class="node">
<title>Julianna06</title>
<ellipse fill="#ffffff" stroke="#000000" cx="904" cy="-699.86" rx="118.44" ry="30.05"/>
<text text-anchor="middle" x="904" y="-703.81" font-family="Times,serif" font-size="14.00">У тебя сообщение от</text>
<text text-anchor="middle" x="904" y="-686.56" font-family="Times,serif" font-size="14.00">Ромеро? Что там?</text>
</g>
<!-- Julianna01&#45;&gt;Julianna06 -->
<g id="edge7" class="edge">
<title>Julianna01&#45;&gt;Julianna06</title>
<path fill="none" stroke="#050099" d="M692.23,-837.57C704.32,-826.51 721.09,-811.88 737,-800.41 771.39,-775.62 812.24,-751.19 844.92,-732.74"/>
<polygon fill="#050099" stroke="#050099" points="846.34,-735.4 853.35,-727.45 842.92,-729.29 846.34,-735.4"/>
<text text-anchor="middle" x="896" y="-769.11" font-family="Times,serif" font-size="14.00" fill="#050099">У меня сообщение от</text>
<text text-anchor="middle" x="896" y="-751.86" font-family="Times,serif" font-size="14.00" fill="#050099">Ромеро.</text>
</g>
<!-- Julianna02 -->
<g id="node16" class="node">
<title>Julianna02</title>
<ellipse fill="#ffffff" stroke="#000000" cx="1587" cy="-699.86" rx="130.12" ry="18"/>
<text text-anchor="middle" x="1587" y="-695.18" font-family="Times,serif" font-size="14.00">Меня зовут Джулиана.</text>
</g>
<!-- Julianna01&#45;&gt;Julianna02 -->
<g id="edge8" class="edge">
<title>Julianna01&#45;&gt;Julianna02</title>
<path fill="none" stroke="#289900" d="M688.89,-837.13C700.36,-824.62 717.83,-808.35 737,-800.41 786.61,-779.84 924.58,-787.97 978,-782.41 1160.03,-763.44 1371.61,-733.27 1491.37,-715.43"/>
<polygon fill="#289900" stroke="#289900" points="1491.59,-718.78 1500.96,-713.85 1490.55,-711.86 1491.59,-718.78"/>
<text text-anchor="middle" x="1359.38" y="-769.11" font-family="Times,serif" font-size="14.00" fill="#289900">Могу я поинтересоваться,</text>
<text text-anchor="middle" x="1359.38" y="-751.86" font-family="Times,serif" font-size="14.00" fill="#289900">как вас зовут, мисс?</text>
</g>
<!-- timed_event_p_proc -->
<g id="node12" class="node">
<title>timed_event_p_proc</title>
<ellipse fill="#ffffff" stroke="#000000" cx="1160" cy="-1037.34" rx="148.14" ry="78.84"/>
<text text-anchor="middle" x="1160" y="-1075.79" font-family="Times,serif" font-size="14.00">Я не смогу без него жить!</text>
<text text-anchor="middle" x="1160" y="-1058.54" font-family="Times,serif" font-size="14.00">&#45;&#45;&#45;</text>
<text text-anchor="middle" x="1160" y="-1041.29" font-family="Times,serif" font-size="14.00">Джулиана достает нож и</text>
<text text-anchor="middle" x="1160" y="-1024.04" font-family="Times,serif" font-size="14.00">вонзает себе в грудь!</text>
<text text-anchor="middle" x="1160" y="-1006.79" font-family="Times,serif" font-size="14.00">Надеюсь Ромеро об этом</text>
<text text-anchor="middle" x="1160" y="-989.54" font-family="Times,serif" font-size="14.00">никогда не узнает.</text>
</g>
<!-- map_enter_p_proc -->
<g id="node13" class="node">
<title>map_enter_p_proc</title>
<ellipse fill="#ffffff" stroke="#000000" cx="1353" cy="-1037.34" rx="27" ry="18"/>
</g>
<!-- Julianna07 -->
<g id="node21" class="node">
<title>Julianna07</title>
<ellipse fill="#ffffff" stroke="#000000" cx="781" cy="-503.21" rx="123.74" ry="30.05"/>
<text text-anchor="middle" x="781" y="-507.16" font-family="Times,serif" font-size="14.00">Нет... этого не может</text>
<text text-anchor="middle" x="781" y="-489.91" font-family="Times,serif" font-size="14.00">быть... Я...</text>
</g>
<!-- Julianna06&#45;&gt;Julianna07 -->
<g id="edge15" class="edge">
<title>Julianna06&#45;&gt;Julianna07</title>
<path fill="none" stroke="#570099" d="M838.52,-674.48C828.64,-668.36 819.45,-660.88 812.5,-651.8 788.93,-621 782.09,-576.46 780.51,-544.38"/>
<polygon fill="#570099" stroke="#570099" points="783.98,-544.47 780.15,-534.59 776.98,-544.7 783.98,-544.47"/>
<text text-anchor="middle" x="894.75" y="-629.88" font-family="Times,serif" font-size="14.00" fill="#570099">Он сказал, что бросил</text>
<text text-anchor="middle" x="894.75" y="-612.63" font-family="Times,serif" font-size="14.00" fill="#570099">тебя.</text>
</g>
<!-- Julianna08 -->
<g id="node22" class="node">
<title>Julianna08</title>
<ellipse fill="#ffffff" stroke="#000000" cx="1053" cy="-503.21" rx="130.11" ry="30.05"/>
<text text-anchor="middle" x="1053" y="-507.16" font-family="Times,serif" font-size="14.00">А больше он ничего не</text>
<text text-anchor="middle" x="1053" y="-489.91" font-family="Times,serif" font-size="14.00">просил передать?</text>
</g>
<!-- Julianna06&#45;&gt;Julianna08 -->
<g id="edge16" class="edge">
<title>Julianna06&#45;&gt;Julianna08</title>
<path fill="none" stroke="#00992b" d="M952.42,-672.17C960.9,-666.17 969.18,-659.33 976,-651.8 1004.9,-619.92 1026.23,-575.2 1039.02,-543.36"/>
<polygon fill="#00992b" stroke="#00992b" points="1042.49,-545.1 1042.87,-534.51 1035.97,-542.55 1042.49,-545.1"/>
<text text-anchor="middle" x="1099.12" y="-629.88" font-family="Times,serif" font-size="14.00" fill="#00992b">Он просил передать что</text>
<text text-anchor="middle" x="1099.12" y="-612.63" font-family="Times,serif" font-size="14.00" fill="#00992b">любит тебя.</text>
</g>
<!-- Julianna09 -->
<g id="node23" class="node">
<title>Julianna09</title>
<ellipse fill="#ffffff" stroke="#000000" cx="1130" cy="-151.84" rx="152.38" ry="66.64"/>
<text text-anchor="middle" x="1130" y="-181.67" font-family="Times,serif" font-size="14.00">Как романтично! Ах, я</text>
<text text-anchor="middle" x="1130" y="-164.42" font-family="Times,serif" font-size="14.00">должна его увидеть! Если</text>
<text text-anchor="middle" x="1130" y="-147.17" font-family="Times,serif" font-size="14.00">б только... может быть...</text>
<text text-anchor="middle" x="1130" y="-129.92" font-family="Times,serif" font-size="14.00">может быть Лорейн может</text>
<text text-anchor="middle" x="1130" y="-112.67" font-family="Times,serif" font-size="14.00">передать ему послание...</text>
</g>
<!-- Julianna06&#45;&gt;Julianna09 -->
<g id="edge17" class="edge">
<title>Julianna06&#45;&gt;Julianna09</title>
<path fill="none" stroke="#990002" d="M1020.85,-694.21C1089.93,-688.8 1168.25,-677.09 1191,-651.8 1220.98,-618.49 1219.61,-291.06 1205,-248.68 1201.97,-239.9 1197.77,-231.31 1192.9,-223.11"/>
<polygon fill="#990002" stroke="#990002" points="1195.44,-221.58 1187.12,-215.01 1189.53,-225.33 1195.44,-221.58"/>
<text text-anchor="middle" x="1311.25" y="-507.16" font-family="Times,serif" font-size="14.00" fill="#990002">Он отправил со мной этот</text>
<text text-anchor="middle" x="1311.25" y="-489.91" font-family="Times,serif" font-size="14.00" fill="#990002">кулон тебе на память.</text>
</g>
<!-- Julianna03 -->
<g id="node17" class="node">
<title>Julianna03</title>
<ellipse fill="#ffffff" stroke="#000000" cx="1587" cy="-503.21" rx="159.28" ry="78.84"/>
<text text-anchor="middle" x="1587" y="-541.66" font-family="Times,serif" font-size="14.00">Я делаю то, что скажет</text>
<text text-anchor="middle" x="1587" y="-524.41" font-family="Times,serif" font-size="14.00">Калеб. На самом деле я</text>
<text text-anchor="middle" x="1587" y="-507.16" font-family="Times,serif" font-size="14.00">могу только немного</text>
<text text-anchor="middle" x="1587" y="-489.91" font-family="Times,serif" font-size="14.00">помогать на ферме. Я не</text>
<text text-anchor="middle" x="1587" y="-472.66" font-family="Times,serif" font-size="14.00">умею ничего, чем могла бы</text>
<text text-anchor="middle" x="1587" y="-455.41" font-family="Times,serif" font-size="14.00">помочь Смитти или Майлзу.</text>
</g>
<!-- Julianna02&#45;&gt;Julianna03 -->
<g id="edge9" class="edge">
<title>Julianna02&#45;&gt;Julianna03</title>
<path fill="none" stroke="#990055" d="M1587,-681.58C1587,-661.43 1587,-626.6 1587,-593.1"/>
<polygon fill="#990055" stroke="#990055" points="1590.5,-593.29 1587,-583.29 1583.5,-593.29 1590.5,-593.29"/>
<text text-anchor="middle" x="1663.88" y="-621.25" font-family="Times,serif" font-size="14.00" fill="#990055">Ты здесь работаешь?</text>
</g>
<!-- Julianna04 -->
<g id="node18" class="node">
<title>Julianna04</title>
<ellipse fill="#ffffff" stroke="#000000" cx="1884" cy="-327.53" rx="138.59" ry="78.84"/>
<text text-anchor="middle" x="1884" y="-365.98" font-family="Times,serif" font-size="14.00">Мы пытаемся выжить, а</text>
<text text-anchor="middle" x="1884" y="-348.73" font-family="Times,serif" font-size="14.00">Регуляторы заботятся о</text>
<text text-anchor="middle" x="1884" y="-331.48" font-family="Times,serif" font-size="14.00">том, чтобы нас не</text>
<text text-anchor="middle" x="1884" y="-314.23" font-family="Times,serif" font-size="14.00">обижали. Они просто не</text>
<text text-anchor="middle" x="1884" y="-296.98" font-family="Times,serif" font-size="14.00">отпускают нас отсюда, в</text>
<text text-anchor="middle" x="1884" y="-279.73" font-family="Times,serif" font-size="14.00">основном.</text>
</g>
<!-- Julianna02&#45;&gt;Julianna04 -->
<g id="edge10" class="edge">
<title>Julianna02&#45;&gt;Julianna04</title>
<path fill="none" stroke="#008199" d="M1676.69,-686.53C1701.07,-679.58 1725.97,-668.74 1745,-651.8 1813.74,-590.65 1849.7,-489.58 1867.67,-416.71"/>
<polygon fill="#008199" stroke="#008199" points="1871.27,-417.71 1870.19,-407.17 1864.46,-416.08 1871.27,-417.71"/>
<text text-anchor="middle" x="1877.5" y="-638.5" font-family="Times,serif" font-size="14.00" fill="#008199">Могу ли я тебя</text>
<text text-anchor="middle" x="1877.5" y="-621.25" font-family="Times,serif" font-size="14.00" fill="#008199">расспросить немного об</text>
<text text-anchor="middle" x="1877.5" y="-604" font-family="Times,serif" font-size="14.00" fill="#008199">этом городе?</text>
</g>
<!-- Goodbyes -->
<g id="node19" class="node">
<title>Goodbyes</title>
<ellipse fill="#ffffff" stroke="#000000" cx="1715" cy="-18" rx="27" ry="18"/>
</g>
<!-- Julianna03&#45;&gt;Goodbyes -->
<g id="edge11" class="edge">
<title>Julianna03&#45;&gt;Goodbyes</title>
<path fill="none" stroke="#555555" stroke-dasharray="1,5" d="M1556.44,-425.45C1525.01,-332.67 1490.27,-176.18 1565,-73 1590.56,-37.7 1641.43,-25.4 1676.8,-21.15"/>
<polygon fill="#555555" stroke="#555555" points="1677.09,-24.54 1686.69,-20.04 1676.38,-17.58 1677.09,-24.54"/>
</g>
<!-- Julianna05 -->
<g id="node20" class="node">
<title>Julianna05</title>
<ellipse fill="#ffffff" stroke="#000000" cx="1715" cy="-151.84" rx="140.71" ry="78.84"/>
<text text-anchor="middle" x="1715" y="-190.29" font-family="Times,serif" font-size="14.00">Ну, Майлз занимается</text>
<text text-anchor="middle" x="1715" y="-173.04" font-family="Times,serif" font-size="14.00">химией, и еще он делает</text>
<text text-anchor="middle" x="1715" y="-155.79" font-family="Times,serif" font-size="14.00">патроны и все такое.</text>
<text text-anchor="middle" x="1715" y="-138.54" font-family="Times,serif" font-size="14.00">Смитти ремесленник, он</text>
<text text-anchor="middle" x="1715" y="-121.29" font-family="Times,serif" font-size="14.00">делает горшки, ножи</text>
<text text-anchor="middle" x="1715" y="-104.04" font-family="Times,serif" font-size="14.00">всякие.</text>
</g>
<!-- Julianna03&#45;&gt;Julianna05 -->
<g id="edge12" class="edge">
<title>Julianna03&#45;&gt;Julianna05</title>
<path fill="none" stroke="#998400" d="M1567.6,-424.49C1558.72,-372 1555.46,-302.71 1583,-248.68 1589.25,-236.42 1597.89,-225.36 1607.78,-215.48"/>
<polygon fill="#998400" stroke="#998400" points="1609.68,-218.56 1614.57,-209.16 1604.88,-213.46 1609.68,-218.56"/>
<text text-anchor="middle" x="1659.5" y="-322.85" font-family="Times,serif" font-size="14.00" fill="#998400">Расскажи мне о них.</text>
</g>
<!-- Julianna04&#45;&gt;Goodbyes -->
<g id="edge13" class="edge">
<title>Julianna04&#45;&gt;Goodbyes</title>
<path fill="none" stroke="#555555" stroke-dasharray="1,5" d="M1898.78,-248.71C1904.6,-194.17 1902.6,-122.46 1865,-73 1838.62,-38.31 1787.95,-25.86 1752.84,-21.42"/>
<polygon fill="#555555" stroke="#555555" points="1753.36,-17.85 1743.04,-20.24 1752.6,-24.81 1753.36,-17.85"/>
</g>
<!-- Julianna05&#45;&gt;Goodbyes -->
<g id="edge14" class="edge">
<title>Julianna05&#45;&gt;Goodbyes</title>
<path fill="none" stroke="#555555" stroke-dasharray="1,5" d="M1715,-72.63C1715,-63.49 1715,-54.69 1715,-46.94"/>
<polygon fill="#555555" stroke="#555555" points="1718.5,-47.1 1715,-37.1 1711.5,-47.1 1718.5,-47.1"/>
</g>
<!-- Julianna08&#45;&gt;JuliannaEnd -->
<g id="edge18" class="edge">
<title>Julianna08&#45;&gt;JuliannaEnd</title>
<path fill="none" stroke="#002e99" d="M1009.49,-474.43C981.39,-455.99 944.39,-430.78 913.25,-406.37 811.13,-326.33 698.56,-220.04 651.56,-174.77"/>
<polygon fill="#002e99" stroke="#002e99" points="654.44,-172.72 644.81,-168.29 649.58,-177.76 654.44,-172.72"/>
<text text-anchor="middle" x="968.38" y="-322.85" font-family="Times,serif" font-size="14.00" fill="#002e99">Нет, извините.</text>
</g>
<!-- Julianna08&#45;&gt;Julianna09 -->
<g id="edge19" class="edge">
<title>Julianna08&#45;&gt;Julianna09</title>
<path fill="none" stroke="#5b9900" d="M1044.2,-472.83C1031.25,-424.26 1011.65,-325.01 1041.5,-248.68 1045.34,-238.88 1050.7,-229.47 1056.91,-220.64"/>
<polygon fill="#5b9900" stroke="#5b9900" points="1060.18,-223.11 1063.37,-213.01 1054.57,-218.92 1060.18,-223.11"/>
<text text-anchor="middle" x="1123.75" y="-331.48" font-family="Times,serif" font-size="14.00" fill="#5b9900">А, да, он передал тебе</text>
<text text-anchor="middle" x="1123.75" y="-314.23" font-family="Times,serif" font-size="14.00" fill="#5b9900">этот кулон.</text>
</g>
</g>
</svg>
