<?xml version="1.0" encoding="UTF-8" standalone="no"?>
<!DOCTYPE svg PUBLIC "-//W3C//DTD SVG 1.1//EN"
 "http://www.w3.org/Graphics/SVG/1.1/DTD/svg11.dtd">
<!-- Generated by graphviz version 8.0.5 (0)
 -->
<!-- Title: junkie Pages: 1 -->
<svg width="892pt" height="310pt"
 viewBox="0.00 0.00 892.00 309.68" xmlns="http://www.w3.org/2000/svg" xmlns:xlink="http://www.w3.org/1999/xlink">
<g id="graph0" class="graph" transform="scale(1 1) rotate(0) translate(4 305.68)">
<title>junkie</title>
<polygon fill="white" stroke="none" points="-4,4 -4,-305.68 888,-305.68 888,4 -4,4"/>
<!-- start -->
<g id="node1" class="node">
<title>start</title>
<ellipse fill="#ffffff" stroke="#000000" cx="27" cy="-222.84" rx="27" ry="18"/>
</g>
<!-- critter_p_proc -->
<g id="node2" class="node">
<title>critter_p_proc</title>
<ellipse fill="#ffffff" stroke="#000000" cx="99" cy="-222.84" rx="27" ry="18"/>
</g>
<!-- pickup_p_proc -->
<g id="node3" class="node">
<title>pickup_p_proc</title>
<ellipse fill="#ffffff" stroke="#000000" cx="171" cy="-222.84" rx="27" ry="18"/>
</g>
<!-- talk_p_proc -->
<g id="node4" class="node">
<title>talk_p_proc</title>
<ellipse fill="#ffffff" stroke="#000000" cx="362" cy="-222.84" rx="146.02" ry="78.84"/>
<text text-anchor="middle" x="362" y="-261.29" font-family="Times,serif" font-size="14.00">Смотри, какие цвета!</text>
<text text-anchor="middle" x="362" y="-244.04" font-family="Times,serif" font-size="14.00">&#45;&#45;&#45;</text>
<text text-anchor="middle" x="362" y="-226.79" font-family="Times,serif" font-size="14.00">Уууххх тыыыы! Я ем свое</text>
<text text-anchor="middle" x="362" y="-209.54" font-family="Times,serif" font-size="14.00">собственное лицо...</text>
<text text-anchor="middle" x="362" y="-192.29" font-family="Times,serif" font-size="14.00">&#45;&#45;&#45;</text>
<text text-anchor="middle" x="362" y="-175.04" font-family="Times,serif" font-size="14.00">Мама?</text>
</g>
<!-- get_reaction -->
<g id="node5" class="node">
<title>get_reaction</title>
<ellipse fill="#ffffff" stroke="#000000" cx="362" cy="-90" rx="27" ry="18"/>
</g>
<!-- talk_p_proc&#45;&gt;get_reaction -->
<g id="edge1" class="edge">
<title>talk_p_proc&#45;&gt;get_reaction</title>
<path fill="none" stroke="#555555" stroke-dasharray="1,5" d="M362,-143.84C362,-135.08 362,-126.63 362,-119.15"/>
<polygon fill="#555555" stroke="#555555" points="365.5,-119.3 362,-109.3 358.5,-119.3 365.5,-119.3"/>
</g>
<!-- ReactToLevel -->
<g id="node9" class="node">
<title>ReactToLevel</title>
<ellipse fill="#ffffff" stroke="#000000" cx="362" cy="-18" rx="27" ry="18"/>
</g>
<!-- get_reaction&#45;&gt;ReactToLevel -->
<g id="edge2" class="edge">
<title>get_reaction&#45;&gt;ReactToLevel</title>
<path fill="none" stroke="#555555" stroke-dasharray="1,5" d="M362,-71.7C362,-64.24 362,-55.32 362,-46.97"/>
<polygon fill="#555555" stroke="#555555" points="365.5,-47.1 362,-37.1 358.5,-47.1 365.5,-47.1"/>
</g>
<!-- destroy_p_proc -->
<g id="node6" class="node">
<title>destroy_p_proc</title>
<ellipse fill="#ffffff" stroke="#000000" cx="553" cy="-222.84" rx="27" ry="18"/>
</g>
<!-- look_at_p_proc -->
<g id="node7" class="node">
<title>look_at_p_proc</title>
<ellipse fill="#ffffff" stroke="#000000" cx="705" cy="-222.84" rx="106.98" ry="18"/>
<text text-anchor="middle" x="705" y="-218.17" font-family="Times,serif" font-size="14.00">Вы видите торчка.</text>
</g>
<!-- map_enter_p_proc -->
<g id="node8" class="node">
<title>map_enter_p_proc</title>
<ellipse fill="#ffffff" stroke="#000000" cx="857" cy="-222.84" rx="27" ry="18"/>
</g>
</g>
</svg>
