<?xml version="1.0" encoding="UTF-8" standalone="no"?>
<!DOCTYPE svg PUBLIC "-//W3C//DTD SVG 1.1//EN"
 "http://www.w3.org/Graphics/SVG/1.1/DTD/svg11.dtd">
<!-- Generated by graphviz version 8.0.5 (0)
 -->
<!-- Title: knighta Pages: 1 -->
<svg width="477pt" height="749pt"
 viewBox="0.00 0.00 477.07 748.80" xmlns="http://www.w3.org/2000/svg" xmlns:xlink="http://www.w3.org/1999/xlink">
<g id="graph0" class="graph" transform="scale(1 1) rotate(0) translate(4 744.8)">
<title>knighta</title>
<polygon fill="white" stroke="none" points="-4,4 -4,-744.8 473.07,-744.8 473.07,4 -4,4"/>
<!-- start -->
<g id="node1" class="node">
<title>start</title>
<ellipse fill="#ffffff" stroke="#000000" cx="252.63" cy="-722.8" rx="27" ry="18"/>
</g>
<!-- look_at_p_proc -->
<g id="node2" class="node">
<title>look_at_p_proc</title>
<ellipse fill="#ffffff" stroke="#000000" cx="49.63" cy="-650.8" rx="49.63" ry="18"/>
<text text-anchor="middle" x="49.63" y="-646.12" font-family="Times,serif" font-size="14.00">Рыцарь</text>
</g>
<!-- start&#45;&gt;look_at_p_proc -->
<g id="edge1" class="edge">
<title>start&#45;&gt;look_at_p_proc</title>
<path fill="none" stroke="#555555" stroke-dasharray="1,5" d="M228.95,-713.63C196.23,-702.35 136.57,-681.78 95.09,-667.47"/>
<polygon fill="#555555" stroke="#555555" points="96.3,-663.84 85.7,-663.89 94.02,-670.46 96.3,-663.84"/>
</g>
<!-- pickup_p_proc -->
<g id="node3" class="node">
<title>pickup_p_proc</title>
<ellipse fill="#ffffff" stroke="#000000" cx="144.63" cy="-650.8" rx="27" ry="18"/>
</g>
<!-- start&#45;&gt;pickup_p_proc -->
<g id="edge2" class="edge">
<title>start&#45;&gt;pickup_p_proc</title>
<path fill="none" stroke="#555555" stroke-dasharray="1,5" d="M233.82,-709.61C216.96,-698.68 192.01,-682.51 172.78,-670.04"/>
<polygon fill="#555555" stroke="#555555" points="174.88,-666.59 164.59,-664.09 171.08,-672.46 174.88,-666.59"/>
</g>
<!-- talk_p_proc -->
<g id="node4" class="node">
<title>talk_p_proc</title>
<ellipse fill="#ffffff" stroke="#000000" cx="216.63" cy="-650.8" rx="27" ry="18"/>
</g>
<!-- start&#45;&gt;talk_p_proc -->
<g id="edge3" class="edge">
<title>start&#45;&gt;talk_p_proc</title>
<path fill="none" stroke="#555555" stroke-dasharray="1,5" d="M244.28,-705.56C240.01,-697.26 234.71,-686.95 229.89,-677.59"/>
<polygon fill="#555555" stroke="#555555" points="232.62,-676.24 224.93,-668.95 226.4,-679.44 232.62,-676.24"/>
</g>
<!-- critter_p_proc -->
<g id="node5" class="node">
<title>critter_p_proc</title>
<ellipse fill="#ffffff" stroke="#000000" cx="288.63" cy="-650.8" rx="27" ry="18"/>
</g>
<!-- start&#45;&gt;critter_p_proc -->
<g id="edge4" class="edge">
<title>start&#45;&gt;critter_p_proc</title>
<path fill="none" stroke="#555555" stroke-dasharray="1,5" d="M260.98,-705.56C265.25,-697.26 270.55,-686.95 275.36,-677.59"/>
<polygon fill="#555555" stroke="#555555" points="278.86,-679.44 280.33,-668.95 272.64,-676.24 278.86,-679.44"/>
</g>
<!-- destroy_p_proc -->
<g id="node6" class="node">
<title>destroy_p_proc</title>
<ellipse fill="#ffffff" stroke="#000000" cx="360.63" cy="-650.8" rx="27" ry="18"/>
</g>
<!-- start&#45;&gt;destroy_p_proc -->
<g id="edge5" class="edge">
<title>start&#45;&gt;destroy_p_proc</title>
<path fill="none" stroke="#555555" stroke-dasharray="1,5" d="M271.44,-709.61C288.3,-698.68 313.25,-682.51 332.48,-670.04"/>
<polygon fill="#555555" stroke="#555555" points="334.18,-672.46 340.67,-664.09 330.38,-666.59 334.18,-672.46"/>
</g>
<!-- KnightARandom -->
<g id="node7" class="node">
<title>KnightARandom</title>
<ellipse fill="#ffffff" stroke="#000000" cx="315.63" cy="-298.4" rx="153.44" ry="298.4"/>
<text text-anchor="middle" x="315.63" y="-492.1" font-family="Times,serif" font-size="14.00">Люблю создавать</text>
<text text-anchor="middle" x="315.63" y="-474.85" font-family="Times,serif" font-size="14.00">что&#45;нибудь новое.</text>
<text text-anchor="middle" x="315.63" y="-457.6" font-family="Times,serif" font-size="14.00">&#45;&#45;&#45;</text>
<text text-anchor="middle" x="315.63" y="-440.35" font-family="Times,serif" font-size="14.00">Когда поставки</text>
<text text-anchor="middle" x="315.63" y="-423.1" font-family="Times,serif" font-size="14.00">ограничены, нам бывает</text>
<text text-anchor="middle" x="315.63" y="-405.85" font-family="Times,serif" font-size="14.00">очень непросто перебиться</text>
<text text-anchor="middle" x="315.63" y="-388.6" font-family="Times,serif" font-size="14.00">тем что есть.</text>
<text text-anchor="middle" x="315.63" y="-371.35" font-family="Times,serif" font-size="14.00">&#45;&#45;&#45;</text>
<text text-anchor="middle" x="315.63" y="-354.1" font-family="Times,serif" font-size="14.00">Я наконец&#45;то понял, в чем</text>
<text text-anchor="middle" x="315.63" y="-336.85" font-family="Times,serif" font-size="14.00">была ошибка.</text>
<text text-anchor="middle" x="315.63" y="-319.6" font-family="Times,serif" font-size="14.00">&#45;&#45;&#45;</text>
<text text-anchor="middle" x="315.63" y="-302.35" font-family="Times,serif" font-size="14.00">Извини, не могу сейчас</text>
<text text-anchor="middle" x="315.63" y="-285.1" font-family="Times,serif" font-size="14.00">говорить.</text>
<text text-anchor="middle" x="315.63" y="-267.85" font-family="Times,serif" font-size="14.00">&#45;&#45;&#45;</text>
<text text-anchor="middle" x="315.63" y="-250.6" font-family="Times,serif" font-size="14.00">Врии вон там.</text>
<text text-anchor="middle" x="315.63" y="-233.35" font-family="Times,serif" font-size="14.00">&#45;&#45;&#45;</text>
<text text-anchor="middle" x="315.63" y="-216.1" font-family="Times,serif" font-size="14.00">Куда же я засунул эту</text>
<text text-anchor="middle" x="315.63" y="-198.85" font-family="Times,serif" font-size="14.00">папку?</text>
<text text-anchor="middle" x="315.63" y="-181.6" font-family="Times,serif" font-size="14.00">&#45;&#45;&#45;</text>
<text text-anchor="middle" x="315.63" y="-164.35" font-family="Times,serif" font-size="14.00">Куда подевался чертеж?</text>
<text text-anchor="middle" x="315.63" y="-147.1" font-family="Times,serif" font-size="14.00">&#45;&#45;&#45;</text>
<text text-anchor="middle" x="315.63" y="-129.85" font-family="Times,serif" font-size="14.00">Ну, компьютер считает,</text>
<text text-anchor="middle" x="315.63" y="-112.6" font-family="Times,serif" font-size="14.00">что должно работать. Так</text>
<text text-anchor="middle" x="315.63" y="-95.35" font-family="Times,serif" font-size="14.00">что я тут не так сделал?</text>
</g>
<!-- start&#45;&gt;KnightARandom -->
<g id="edge6" class="edge">
<title>start&#45;&gt;KnightARandom</title>
<path fill="none" stroke="#555555" stroke-dasharray="1,5" d="M279.91,-720.62C313.77,-717.51 370.26,-706.6 396.63,-668.8 425.32,-627.66 429.68,-578.18 421.67,-529"/>
<polygon fill="#555555" stroke="#555555" points="424.93,-528.4 419.71,-519.18 418.05,-529.64 424.93,-528.4"/>
</g>
<!-- talk_p_proc&#45;&gt;KnightARandom -->
<g id="edge7" class="edge">
<title>talk_p_proc&#45;&gt;KnightARandom</title>
<path fill="none" stroke="#555555" stroke-dasharray="1,5" d="M221.4,-632.9C225.38,-618.84 231.56,-596.97 238.89,-571"/>
<polygon fill="#555555" stroke="#555555" points="242.52,-572.02 241.87,-561.45 235.79,-570.12 242.52,-572.02"/>
</g>
</g>
</svg>
