<?xml version="1.0" encoding="UTF-8" standalone="no"?>
<!DOCTYPE svg PUBLIC "-//W3C//DTD SVG 1.1//EN"
 "http://www.w3.org/Graphics/SVG/1.1/DTD/svg11.dtd">
<!-- Generated by graphviz version 8.0.5 (0)
 -->
<!-- Title: mbstrong Pages: 1 -->
<svg width="276pt" height="236pt"
 viewBox="0.00 0.00 276.00 236.50" xmlns="http://www.w3.org/2000/svg" xmlns:xlink="http://www.w3.org/1999/xlink">
<g id="graph0" class="graph" transform="scale(1 1) rotate(0) translate(4 232.5)">
<title>mbstrong</title>
<polygon fill="white" stroke="none" points="-4,4 -4,-232.5 272,-232.5 272,4 -4,4"/>
<!-- start -->
<g id="node1" class="node">
<title>start</title>
<ellipse fill="#ffffff" stroke="#000000" cx="134" cy="-210.5" rx="27" ry="18"/>
</g>
<!-- map_enter_p_proc -->
<g id="node2" class="node">
<title>map_enter_p_proc</title>
<ellipse fill="#ffffff" stroke="#000000" cx="27" cy="-114.25" rx="27" ry="18"/>
</g>
<!-- start&#45;&gt;map_enter_p_proc -->
<g id="edge1" class="edge">
<title>start&#45;&gt;map_enter_p_proc</title>
<path fill="none" stroke="#555555" stroke-dasharray="1,5" d="M115.37,-197.21C100.54,-187.06 79.59,-171.87 63,-156.5 57.06,-150.99 51.08,-144.58 45.75,-138.47"/>
<polygon fill="#555555" stroke="#555555" points="48.08,-136.82 38.95,-131.45 42.75,-141.34 48.08,-136.82"/>
</g>
<!-- map_update_p_proc -->
<g id="node3" class="node">
<title>map_update_p_proc</title>
<ellipse fill="#ffffff" stroke="#000000" cx="134" cy="-114.25" rx="61.7" ry="42.25"/>
<text text-anchor="middle" x="134" y="-126.82" font-family="Times,serif" font-size="14.00">Осталось </text>
<text text-anchor="middle" x="134" y="-109.57" font-family="Times,serif" font-size="14.00">&#45;&#45;&#45;</text>
<text text-anchor="middle" x="134" y="-92.32" font-family="Times,serif" font-size="14.00"> сек.</text>
</g>
<!-- start&#45;&gt;map_update_p_proc -->
<g id="edge2" class="edge">
<title>start&#45;&gt;map_update_p_proc</title>
<path fill="none" stroke="#555555" stroke-dasharray="1,5" d="M134,-192.21C134,-185.11 134,-176.47 134,-167.58"/>
<polygon fill="#555555" stroke="#555555" points="137.5,-167.7 134,-157.7 130.5,-167.7 137.5,-167.7"/>
</g>
<!-- map_exit_p_proc -->
<g id="node4" class="node">
<title>map_exit_p_proc</title>
<ellipse fill="#ffffff" stroke="#000000" cx="241" cy="-114.25" rx="27" ry="18"/>
</g>
<!-- start&#45;&gt;map_exit_p_proc -->
<g id="edge3" class="edge">
<title>start&#45;&gt;map_exit_p_proc</title>
<path fill="none" stroke="#555555" stroke-dasharray="1,5" d="M152.63,-197.21C167.46,-187.06 188.41,-171.87 205,-156.5 210.94,-150.99 216.92,-144.58 222.25,-138.47"/>
<polygon fill="#555555" stroke="#555555" points="225.25,-141.34 229.05,-131.45 219.92,-136.82 225.25,-141.34"/>
</g>
<!-- add_party -->
<g id="node5" class="node">
<title>add_party</title>
<ellipse fill="#ffffff" stroke="#000000" cx="27" cy="-18" rx="27" ry="18"/>
</g>
<!-- map_enter_p_proc&#45;&gt;add_party -->
<g id="edge4" class="edge">
<title>map_enter_p_proc&#45;&gt;add_party</title>
<path fill="none" stroke="#555555" stroke-dasharray="1,5" d="M27,-95.96C27,-82.36 27,-63.13 27,-47.3"/>
<polygon fill="#555555" stroke="#555555" points="30.5,-47.5 27,-37.5 23.5,-47.5 30.5,-47.5"/>
</g>
<!-- combat_p_proc -->
<g id="node6" class="node">
<title>combat_p_proc</title>
<ellipse fill="#ffffff" stroke="#000000" cx="206" cy="-210.5" rx="27" ry="18"/>
</g>
</g>
</svg>
