<?xml version="1.0" encoding="UTF-8" standalone="no"?>
<!DOCTYPE svg PUBLIC "-//W3C//DTD SVG 1.1//EN"
 "http://www.w3.org/Graphics/SVG/1.1/DTD/svg11.dtd">
<!-- Generated by graphviz version 8.0.5 (0)
 -->
<!-- Title: mutant2 Pages: 1 -->
<svg width="501pt" height="286pt"
 viewBox="0.00 0.00 501.00 286.18" xmlns="http://www.w3.org/2000/svg" xmlns:xlink="http://www.w3.org/1999/xlink">
<g id="graph0" class="graph" transform="scale(1 1) rotate(0) translate(4 282.18)">
<title>mutant2</title>
<polygon fill="white" stroke="none" points="-4,4 -4,-282.18 497,-282.18 497,4 -4,4"/>
<!-- start -->
<g id="node1" class="node">
<title>start</title>
<ellipse fill="#ffffff" stroke="#000000" cx="216" cy="-235.93" rx="133.29" ry="42.25"/>
<text text-anchor="middle" x="216" y="-248.51" font-family="Times,serif" font-size="14.00">Это какой&#45;то огромный</text>
<text text-anchor="middle" x="216" y="-231.26" font-family="Times,serif" font-size="14.00">супермутант! И у него</text>
<text text-anchor="middle" x="216" y="-214.01" font-family="Times,serif" font-size="14.00">очень большая пушка!</text>
</g>
<!-- timeforwhat -->
<g id="node2" class="node">
<title>timeforwhat</title>
<ellipse fill="#ffffff" stroke="#000000" cx="27" cy="-78.84" rx="27" ry="18"/>
</g>
<!-- start&#45;&gt;timeforwhat -->
<g id="edge1" class="edge">
<title>start&#45;&gt;timeforwhat</title>
<path fill="none" stroke="#555555" stroke-dasharray="1,5" d="M129.11,-203.52C105.5,-191.87 81.4,-176.73 63,-157.68 49.34,-143.54 40.19,-123.27 34.54,-106.97"/>
<polygon fill="#555555" stroke="#555555" points="37.7,-106.37 31.31,-97.92 31.04,-108.51 37.7,-106.37"/>
</g>
<!-- do_dialogue -->
<g id="node3" class="node">
<title>do_dialogue</title>
<ellipse fill="#ffffff" stroke="#000000" cx="216" cy="-78.84" rx="144.43" ry="78.84"/>
<text text-anchor="middle" x="216" y="-117.29" font-family="Times,serif" font-size="14.00">Отведи его к Гарри. Он</text>
<text text-anchor="middle" x="216" y="-100.04" font-family="Times,serif" font-size="14.00">знает, что с ним делать.</text>
<text text-anchor="middle" x="216" y="-82.79" font-family="Times,serif" font-size="14.00">&#45;&#45;&#45;</text>
<text text-anchor="middle" x="216" y="-65.54" font-family="Times,serif" font-size="14.00">Нам следует отвести ее к</text>
<text text-anchor="middle" x="216" y="-48.29" font-family="Times,serif" font-size="14.00">Гарри. У него на всех</text>
<text text-anchor="middle" x="216" y="-31.04" font-family="Times,serif" font-size="14.00">женщин планы имеются.</text>
</g>
<!-- start&#45;&gt;do_dialogue -->
<g id="edge2" class="edge">
<title>start&#45;&gt;do_dialogue</title>
<path fill="none" stroke="#555555" stroke-dasharray="1,5" d="M209.94,-193.37C209.62,-185.68 209.41,-177.37 209.32,-168.88"/>
<polygon fill="#555555" stroke="#555555" points="212.81,-169.03 209.25,-159.05 205.81,-169.07 212.81,-169.03"/>
</g>
<!-- start&#45;&gt;do_dialogue -->
<g id="edge3" class="edge">
<title>start&#45;&gt;do_dialogue</title>
<path fill="none" stroke="#555555" stroke-dasharray="1,5" d="M222.06,-193.37C222.38,-185.68 222.59,-177.37 222.68,-168.88"/>
<polygon fill="#555555" stroke="#555555" points="226.19,-169.07 222.75,-159.05 219.19,-169.03 226.19,-169.07"/>
</g>
<!-- genericend -->
<g id="node4" class="node">
<title>genericend</title>
<ellipse fill="#ffffff" stroke="#000000" cx="394" cy="-235.93" rx="27" ry="18"/>
</g>
<!-- genericcbt -->
<g id="node5" class="node">
<title>genericcbt</title>
<ellipse fill="#ffffff" stroke="#000000" cx="466" cy="-235.93" rx="27" ry="18"/>
</g>
</g>
</svg>
