<?xml version="1.0" encoding="UTF-8" standalone="no"?>
<!DOCTYPE svg PUBLIC "-//W3C//DTD SVG 1.1//EN"
 "http://www.w3.org/Graphics/SVG/1.1/DTD/svg11.dtd">
<!-- Generated by graphviz version 8.0.5 (0)
 -->
<!-- Title: ngarfrdg Pages: 1 -->
<svg width="826pt" height="408pt"
 viewBox="0.00 0.00 825.91 408.45" xmlns="http://www.w3.org/2000/svg" xmlns:xlink="http://www.w3.org/1999/xlink">
<g id="graph0" class="graph" transform="scale(1 1) rotate(0) translate(4 404.45)">
<title>ngarfrdg</title>
<polygon fill="white" stroke="none" points="-4,4 -4,-404.45 821.91,-404.45 821.91,4 -4,4"/>
<!-- start -->
<g id="node1" class="node">
<title>start</title>
<ellipse fill="#ffffff" stroke="#000000" cx="263" cy="-382.45" rx="27" ry="18"/>
</g>
<!-- Initialize_Fridge -->
<g id="node2" class="node">
<title>Initialize_Fridge</title>
<ellipse fill="#ffffff" stroke="#000000" cx="27" cy="-164.23" rx="27" ry="18"/>
</g>
<!-- start&#45;&gt;Initialize_Fridge -->
<g id="edge1" class="edge">
<title>start&#45;&gt;Initialize_Fridge</title>
<path fill="none" stroke="#555555" stroke-dasharray="1,5" d="M236.61,-377.89C187.96,-370.8 86.93,-353.41 63,-328.45 28.02,-291.97 23.97,-229.59 24.96,-193.43"/>
<polygon fill="#555555" stroke="#555555" points="28.49,-193.81 25.42,-183.67 21.5,-193.51 28.49,-193.81"/>
</g>
<!-- map_update_p_proc -->
<g id="node3" class="node">
<title>map_update_p_proc</title>
<ellipse fill="#ffffff" stroke="#000000" cx="99" cy="-164.23" rx="27" ry="18"/>
</g>
<!-- start&#45;&gt;map_update_p_proc -->
<g id="edge2" class="edge">
<title>start&#45;&gt;map_update_p_proc</title>
<path fill="none" stroke="#555555" stroke-dasharray="1,5" d="M236.44,-377.8C207.13,-372.33 160.73,-359.14 135,-328.45 102.67,-289.89 97.62,-228.68 97.73,-193.2"/>
<polygon fill="#555555" stroke="#555555" points="101.25,-193.28 97.93,-183.22 94.25,-193.15 101.25,-193.28"/>
</g>
<!-- Looting_Fridge -->
<g id="node4" class="node">
<title>Looting_Fridge</title>
<ellipse fill="#ffffff" stroke="#000000" cx="171" cy="-164.23" rx="27" ry="18"/>
</g>
<!-- start&#45;&gt;Looting_Fridge -->
<g id="edge3" class="edge">
<title>start&#45;&gt;Looting_Fridge</title>
<path fill="none" stroke="#555555" stroke-dasharray="1,5" d="M244.61,-368.71C232.11,-359.08 216.23,-344.76 207,-328.45 182.6,-285.34 174.73,-227.15 172.2,-193.15"/>
<polygon fill="#555555" stroke="#555555" points="175.66,-193.37 171.53,-183.61 168.67,-193.81 175.66,-193.37"/>
</g>
<!-- Open_Fridge -->
<g id="node5" class="node">
<title>Open_Fridge</title>
<ellipse fill="#ffffff" stroke="#000000" cx="355" cy="-164.23" rx="138.59" ry="54.45"/>
<text text-anchor="middle" x="355" y="-185.43" font-family="Times,serif" font-size="14.00">Кто&#45;то оставил</text>
<text text-anchor="middle" x="355" y="-168.18" font-family="Times,serif" font-size="14.00">холодильник открытым!</text>
<text text-anchor="middle" x="355" y="-150.93" font-family="Times,serif" font-size="14.00">&#45;&#45;&#45;</text>
<text text-anchor="middle" x="355" y="-133.68" font-family="Times,serif" font-size="14.00">Холодильник закрыт.</text>
</g>
<!-- start&#45;&gt;Open_Fridge -->
<g id="edge4" class="edge">
<title>start&#45;&gt;Open_Fridge</title>
<path fill="none" stroke="#555555" stroke-dasharray="1,5" d="M270.07,-364.84C282.34,-336.01 308.18,-275.27 328.16,-228.32"/>
<polygon fill="#555555" stroke="#555555" points="331.76,-229.8 332.45,-219.22 325.31,-227.05 331.76,-229.8"/>
</g>
<!-- pick_lock -->
<g id="node6" class="node">
<title>pick_lock</title>
<ellipse fill="#ffffff" stroke="#000000" cx="665" cy="-164.23" rx="152.91" ry="164.23"/>
<text text-anchor="middle" x="665" y="-263.05" font-family="Times,serif" font-size="14.00">Холодильник уже открыт.</text>
<text text-anchor="middle" x="665" y="-245.8" font-family="Times,serif" font-size="14.00">&#45;&#45;&#45;</text>
<text text-anchor="middle" x="665" y="-228.55" font-family="Times,serif" font-size="14.00">Вы открываете</text>
<text text-anchor="middle" x="665" y="-211.3" font-family="Times,serif" font-size="14.00">холодильник.</text>
<text text-anchor="middle" x="665" y="-194.05" font-family="Times,serif" font-size="14.00">&#45;&#45;&#45;</text>
<text text-anchor="middle" x="665" y="-176.8" font-family="Times,serif" font-size="14.00">Вы еще не совсем</text>
<text text-anchor="middle" x="665" y="-159.55" font-family="Times,serif" font-size="14.00">справились с этим замком.</text>
<text text-anchor="middle" x="665" y="-142.3" font-family="Times,serif" font-size="14.00">&#45;&#45;&#45;</text>
<text text-anchor="middle" x="665" y="-125.05" font-family="Times,serif" font-size="14.00">Кто&#45;то оставил</text>
<text text-anchor="middle" x="665" y="-107.8" font-family="Times,serif" font-size="14.00">холодильник открытым!</text>
<text text-anchor="middle" x="665" y="-90.55" font-family="Times,serif" font-size="14.00">&#45;&#45;&#45;</text>
<text text-anchor="middle" x="665" y="-73.3" font-family="Times,serif" font-size="14.00">Вы еще не совсем</text>
<text text-anchor="middle" x="665" y="-56.05" font-family="Times,serif" font-size="14.00">справились с этим замком.</text>
</g>
<!-- start&#45;&gt;pick_lock -->
<g id="edge5" class="edge">
<title>start&#45;&gt;pick_lock</title>
<path fill="none" stroke="#555555" stroke-dasharray="1,5" d="M290.24,-380.01C335.4,-376.65 426.72,-365.49 494,-328.45 513.56,-317.68 532.31,-303.83 549.76,-288.75"/>
<polygon fill="#555555" stroke="#555555" points="551.51,-291.98 556.68,-282.74 546.87,-286.74 551.51,-291.98"/>
</g>
<!-- start&#45;&gt;pick_lock -->
<g id="edge6" class="edge">
<title>start&#45;&gt;pick_lock</title>
<path fill="none" stroke="#555555" stroke-dasharray="1,5" d="M290.36,-380.67C338.53,-378.28 439.3,-368.48 512,-328.45 528.08,-319.6 543.62,-308.66 558.22,-296.67"/>
<polygon fill="#555555" stroke="#555555" points="559.85,-299.03 565.24,-289.9 555.34,-293.67 559.85,-299.03"/>
</g>
</g>
</svg>
