<?xml version="1.0" encoding="UTF-8" standalone="no"?>
<!DOCTYPE svg PUBLIC "-//W3C//DTD SVG 1.1//EN"
 "http://www.w3.org/Graphics/SVG/1.1/DTD/svg11.dtd">
<!-- Generated by graphviz version 8.0.5 (0)
 -->
<!-- Title: orfeo Pages: 1 -->
<svg width="1246pt" height="468pt"
 viewBox="0.00 0.00 1245.73 467.71" xmlns="http://www.w3.org/2000/svg" xmlns:xlink="http://www.w3.org/1999/xlink">
<g id="graph0" class="graph" transform="scale(1 1) rotate(0) translate(4 463.71)">
<title>orfeo</title>
<polygon fill="white" stroke="none" points="-4,4 -4,-463.71 1241.73,-463.71 1241.73,4 -4,4"/>
<!-- start -->
<g id="node1" class="node">
<title>start</title>
<ellipse fill="#ffffff" stroke="#000000" cx="302" cy="-441.71" rx="27" ry="18"/>
</g>
<!-- critter_p_proc -->
<g id="node2" class="node">
<title>critter_p_proc</title>
<ellipse fill="#ffffff" stroke="#000000" cx="27" cy="-356.66" rx="27" ry="18"/>
</g>
<!-- start&#45;&gt;critter_p_proc -->
<g id="edge1" class="edge">
<title>start&#45;&gt;critter_p_proc</title>
<path fill="none" stroke="#555555" stroke-dasharray="1,5" d="M275.24,-438.64C229.63,-434.26 134.8,-421.44 63,-386.71 58.57,-384.56 54.2,-381.78 50.11,-378.79"/>
<polygon fill="#555555" stroke="#555555" points="52.7,-375.58 42.7,-372.07 48.33,-381.05 52.7,-375.58"/>
</g>
<!-- destroy_p_proc -->
<g id="node3" class="node">
<title>destroy_p_proc</title>
<ellipse fill="#ffffff" stroke="#000000" cx="99" cy="-356.66" rx="27" ry="18"/>
</g>
<!-- start&#45;&gt;destroy_p_proc -->
<g id="edge2" class="edge">
<title>start&#45;&gt;destroy_p_proc</title>
<path fill="none" stroke="#555555" stroke-dasharray="1,5" d="M276.22,-435.47C242.37,-427.91 181.77,-412.01 135,-386.71 130.87,-384.47 126.74,-381.74 122.84,-378.86"/>
<polygon fill="#555555" stroke="#555555" points="125.24,-375.5 115.23,-372.02 120.88,-380.98 125.24,-375.5"/>
</g>
<!-- look_at_p_proc -->
<g id="node4" class="node">
<title>look_at_p_proc</title>
<ellipse fill="#ffffff" stroke="#000000" cx="302" cy="-356.66" rx="157.68" ry="30.05"/>
<text text-anchor="middle" x="302" y="-360.61" font-family="Times,serif" font-size="14.00">Вы видите Орфео, старшего</text>
<text text-anchor="middle" x="302" y="-343.36" font-family="Times,serif" font-size="14.00">члена Чад Собора.</text>
</g>
<!-- start&#45;&gt;look_at_p_proc -->
<g id="edge3" class="edge">
<title>start&#45;&gt;look_at_p_proc</title>
<path fill="none" stroke="#555555" stroke-dasharray="1,5" d="M302,-423.5C302,-416 302,-406.87 302,-397.82"/>
<polygon fill="#555555" stroke="#555555" points="305.5,-397.95 302,-387.95 298.5,-397.95 305.5,-397.95"/>
</g>
<!-- pickup_p_proc -->
<g id="node5" class="node">
<title>pickup_p_proc</title>
<ellipse fill="#ffffff" stroke="#000000" cx="505" cy="-356.66" rx="27" ry="18"/>
</g>
<!-- start&#45;&gt;pickup_p_proc -->
<g id="edge4" class="edge">
<title>start&#45;&gt;pickup_p_proc</title>
<path fill="none" stroke="#555555" stroke-dasharray="1,5" d="M323.07,-430.04C327.91,-427.8 333.08,-425.55 338,-423.71 394.66,-402.5 415.26,-414.49 469,-386.71 473.37,-384.45 477.71,-381.6 481.79,-378.59"/>
<polygon fill="#555555" stroke="#555555" points="483.57,-380.84 489.19,-371.86 479.2,-375.38 483.57,-380.84"/>
</g>
<!-- talk_p_proc -->
<g id="node6" class="node">
<title>talk_p_proc</title>
<ellipse fill="#ffffff" stroke="#000000" cx="577" cy="-356.66" rx="27" ry="18"/>
</g>
<!-- start&#45;&gt;talk_p_proc -->
<g id="edge5" class="edge">
<title>start&#45;&gt;talk_p_proc</title>
<path fill="none" stroke="#555555" stroke-dasharray="1,5" d="M322.57,-429.87C327.52,-427.58 332.87,-425.36 338,-423.71 425.32,-395.67 457.63,-424.91 541,-386.71 545.47,-384.66 549.87,-381.92 553.97,-378.95"/>
<polygon fill="#555555" stroke="#555555" points="555.75,-381.21 561.38,-372.24 551.38,-375.74 555.75,-381.21"/>
</g>
<!-- Orfeo3 -->
<g id="node7" class="node">
<title>Orfeo3</title>
<ellipse fill="#ffffff" stroke="#000000" cx="432" cy="-193.5" rx="105.92" ry="18"/>
<text text-anchor="middle" x="432" y="-188.82" font-family="Times,serif" font-size="14.00">Мы тебя очистим!</text>
</g>
<!-- talk_p_proc&#45;&gt;Orfeo3 -->
<g id="edge6" class="edge">
<title>talk_p_proc&#45;&gt;Orfeo3</title>
<path fill="none" stroke="#555555" stroke-dasharray="1,5" d="M563.62,-340.78C538.8,-313.2 485.38,-253.83 454.78,-219.81"/>
<polygon fill="#555555" stroke="#555555" points="457.81,-217.84 448.52,-212.75 452.6,-222.52 457.81,-217.84"/>
</g>
<!-- Orfeo0 -->
<g id="node8" class="node">
<title>Orfeo0</title>
<ellipse fill="#ffffff" stroke="#000000" cx="741" cy="-259.55" rx="131.7" ry="30.05"/>
<text text-anchor="middle" x="741" y="-263.5" font-family="Times,serif" font-size="14.00">А. Новый обращенный.</text>
<text text-anchor="middle" x="741" y="-246.25" font-family="Times,serif" font-size="14.00">Добро пожаловать.</text>
</g>
<!-- talk_p_proc&#45;&gt;Orfeo0 -->
<g id="edge7" class="edge">
<title>talk_p_proc&#45;&gt;Orfeo0</title>
<path fill="none" stroke="#555555" stroke-dasharray="1,5" d="M596.78,-344.18C618.4,-331.65 654.01,-311 684.44,-293.35"/>
<polygon fill="#555555" stroke="#555555" points="685.8,-296.03 692.7,-287.98 682.29,-289.97 685.8,-296.03"/>
</g>
<!-- combat -->
<g id="node9" class="node">
<title>combat</title>
<ellipse fill="#ffffff" stroke="#000000" cx="618" cy="-18" rx="27" ry="18"/>
</g>
<!-- Orfeo3&#45;&gt;combat -->
<g id="edge13" class="edge">
<title>Orfeo3&#45;&gt;combat</title>
<path fill="none" stroke="#555555" stroke-dasharray="1,5" d="M441.38,-175.38C457.8,-146.8 494.29,-89.06 539,-54 552.11,-43.72 568.71,-35.77 583.31,-30.07"/>
<polygon fill="#555555" stroke="#555555" points="584.33,-33.05 592.5,-26.31 581.91,-26.49 584.33,-33.05"/>
</g>
<!-- Orfeo0&#45;&gt;combat -->
<g id="edge8" class="edge">
<title>Orfeo0&#45;&gt;combat</title>
<path fill="none" stroke="#99004b" d="M662.01,-235.08C624.48,-219.51 583.12,-194.89 561.25,-157.5 542.29,-125.08 546.45,-107.52 561.25,-73 567.32,-58.86 579.11,-46.67 590.38,-37.46"/>
<polygon fill="#99004b" stroke="#99004b" points="591.97,-39.88 597.79,-31.03 587.72,-34.32 591.97,-39.88"/>
<text text-anchor="middle" x="607.38" y="-110.57" font-family="Times,serif" font-size="14.00" fill="#99004b">Я убивать!!!</text>
</g>
<!-- Orfeo1 -->
<g id="node10" class="node">
<title>Orfeo1</title>
<ellipse fill="#ffffff" stroke="#000000" cx="791" cy="-115.25" rx="129.58" ry="42.25"/>
<text text-anchor="middle" x="791" y="-127.82" font-family="Times,serif" font-size="14.00">В таком случае, с этой</text>
<text text-anchor="middle" x="791" y="-110.57" font-family="Times,serif" font-size="14.00">проблемой мы скоро</text>
<text text-anchor="middle" x="791" y="-93.32" font-family="Times,serif" font-size="14.00">разберемся.</text>
</g>
<!-- Orfeo0&#45;&gt;Orfeo1 -->
<g id="edge9" class="edge">
<title>Orfeo0&#45;&gt;Orfeo1</title>
<path fill="none" stroke="#007899" d="M751.24,-229.41C757.47,-211.67 765.61,-188.51 772.9,-167.76"/>
<polygon fill="#007899" stroke="#007899" points="776.5,-169.08 776.51,-158.49 769.89,-166.76 776.5,-169.08"/>
<text text-anchor="middle" x="859.88" y="-188.82" font-family="Times,serif" font-size="14.00" fill="#007899">Меня никто не обращал!</text>
</g>
<!-- Orfeo2 -->
<g id="node11" class="node">
<title>Orfeo2</title>
<ellipse fill="#ffffff" stroke="#000000" cx="1088" cy="-115.25" rx="149.73" ry="42.25"/>
<text text-anchor="middle" x="1088" y="-127.82" font-family="Times,serif" font-size="14.00">Мы должны очистить тебя</text>
<text text-anchor="middle" x="1088" y="-110.57" font-family="Times,serif" font-size="14.00">от нечистоты пустошей.</text>
<text text-anchor="middle" x="1088" y="-93.32" font-family="Times,serif" font-size="14.00">Подойди.</text>
</g>
<!-- Orfeo0&#45;&gt;Orfeo2 -->
<g id="edge10" class="edge">
<title>Orfeo0&#45;&gt;Orfeo2</title>
<path fill="none" stroke="#998e00" d="M852.31,-243.19C886.51,-236.12 923.64,-225.96 956,-211.5 983.8,-199.08 1011.58,-180.24 1034.43,-162.59"/>
<polygon fill="#998e00" stroke="#998e00" points="1036.24,-164.83 1041.94,-155.9 1031.91,-159.33 1036.24,-164.83"/>
<text text-anchor="middle" x="1067.75" y="-188.82" font-family="Times,serif" font-size="14.00" fill="#998e00">Спасибо, Брат.</text>
</g>
<!-- Orfeo1&#45;&gt;combat -->
<g id="edge11" class="edge">
<title>Orfeo1&#45;&gt;combat</title>
<path fill="none" stroke="#555555" stroke-dasharray="1,5" d="M726.09,-78.51C699.27,-63.75 669.5,-47.35 648,-35.52"/>
<polygon fill="#555555" stroke="#555555" points="649.9,-32.02 639.45,-30.26 646.52,-38.15 649.9,-32.02"/>
</g>
<!-- Orfeo2&#45;&gt;combat -->
<g id="edge12" class="edge">
<title>Orfeo2&#45;&gt;combat</title>
<path fill="none" stroke="#555555" stroke-dasharray="1,5" d="M981.63,-85.18C964.43,-80.85 946.76,-76.63 930,-73 831.33,-51.62 713.65,-33.12 655.02,-24.38"/>
<polygon fill="#555555" stroke="#555555" points="655.85,-20.81 645.44,-22.81 654.82,-27.74 655.85,-20.81"/>
</g>
<!-- Orfeoend -->
<g id="node12" class="node">
<title>Orfeoend</title>
<ellipse fill="#ffffff" stroke="#000000" cx="374" cy="-441.71" rx="27" ry="18"/>
</g>
</g>
</svg>
