<?xml version="1.0" encoding="UTF-8" standalone="no"?>
<!DOCTYPE svg PUBLIC "-//W3C//DTD SVG 1.1//EN"
 "http://www.w3.org/Graphics/SVG/1.1/DTD/svg11.dtd">
<!-- Generated by graphviz version 8.0.5 (0)
 -->
<!-- Title: paul Pages: 1 -->
<svg width="2585pt" height="2247pt"
 viewBox="0.00 0.00 2584.75 2246.62" xmlns="http://www.w3.org/2000/svg" xmlns:xlink="http://www.w3.org/1999/xlink">
<g id="graph0" class="graph" transform="scale(1 1) rotate(0) translate(4 2242.62)">
<title>paul</title>
<polygon fill="white" stroke="none" points="-4,4 -4,-2242.62 2580.75,-2242.62 2580.75,4 -4,4"/>
<!-- start -->
<g id="node1" class="node">
<title>start</title>
<ellipse fill="#ffffff" stroke="#000000" cx="692" cy="-2220.62" rx="27" ry="18"/>
</g>
<!-- look_at_p_proc -->
<g id="node2" class="node">
<title>look_at_p_proc</title>
<ellipse fill="#ffffff" stroke="#000000" cx="429" cy="-2147.62" rx="146.43" ry="18"/>
<text text-anchor="middle" x="429" y="-2142.95" font-family="Times,serif" font-size="14.00">Вы видите Рыцаря Пауля.</text>
</g>
<!-- start&#45;&gt;look_at_p_proc -->
<g id="edge1" class="edge">
<title>start&#45;&gt;look_at_p_proc</title>
<path fill="none" stroke="#555555" stroke-dasharray="1,5" d="M667.26,-2212.94C629,-2202.61 554.08,-2182.39 498.42,-2167.36"/>
<polygon fill="#555555" stroke="#555555" points="499.48,-2163.76 488.92,-2164.53 497.66,-2170.51 499.48,-2163.76"/>
</g>
<!-- pickup_p_proc -->
<g id="node3" class="node">
<title>pickup_p_proc</title>
<ellipse fill="#ffffff" stroke="#000000" cx="620" cy="-2147.62" rx="27" ry="18"/>
</g>
<!-- start&#45;&gt;pickup_p_proc -->
<g id="edge2" class="edge">
<title>start&#45;&gt;pickup_p_proc</title>
<path fill="none" stroke="#555555" stroke-dasharray="1,5" d="M677.43,-2205.26C667.35,-2195.31 653.74,-2181.89 642.3,-2170.61"/>
<polygon fill="#555555" stroke="#555555" points="645.37,-2168.74 635.8,-2164.21 640.46,-2173.73 645.37,-2168.74"/>
</g>
<!-- talk_p_proc -->
<g id="node4" class="node">
<title>talk_p_proc</title>
<ellipse fill="#ffffff" stroke="#000000" cx="692" cy="-2147.62" rx="27" ry="18"/>
</g>
<!-- start&#45;&gt;talk_p_proc -->
<g id="edge3" class="edge">
<title>start&#45;&gt;talk_p_proc</title>
<path fill="none" stroke="#555555" stroke-dasharray="1,5" d="M692,-2202.44C692,-2194.67 692,-2185.3 692,-2176.57"/>
<polygon fill="#555555" stroke="#555555" points="695.5,-2176.65 692,-2166.65 688.5,-2176.65 695.5,-2176.65"/>
</g>
<!-- critter_p_proc -->
<g id="node5" class="node">
<title>critter_p_proc</title>
<ellipse fill="#ffffff" stroke="#000000" cx="764" cy="-2147.62" rx="27" ry="18"/>
</g>
<!-- start&#45;&gt;critter_p_proc -->
<g id="edge4" class="edge">
<title>start&#45;&gt;critter_p_proc</title>
<path fill="none" stroke="#555555" stroke-dasharray="1,5" d="M706.57,-2205.26C716.65,-2195.31 730.26,-2181.89 741.7,-2170.61"/>
<polygon fill="#555555" stroke="#555555" points="743.54,-2173.73 748.2,-2164.21 738.63,-2168.74 743.54,-2173.73"/>
</g>
<!-- destroy_p_proc -->
<g id="node6" class="node">
<title>destroy_p_proc</title>
<ellipse fill="#ffffff" stroke="#000000" cx="836" cy="-2147.62" rx="27" ry="18"/>
</g>
<!-- start&#45;&gt;destroy_p_proc -->
<g id="edge5" class="edge">
<title>start&#45;&gt;destroy_p_proc</title>
<path fill="none" stroke="#555555" stroke-dasharray="1,5" d="M713.25,-2209.15C737.5,-2197.19 777.37,-2177.53 805.06,-2163.88"/>
<polygon fill="#555555" stroke="#555555" points="806.24,-2166.7 813.67,-2159.14 803.15,-2160.43 806.24,-2166.7"/>
</g>
<!-- get_reaction -->
<g id="node8" class="node">
<title>get_reaction</title>
<ellipse fill="#ffffff" stroke="#000000" cx="171" cy="-2025.98" rx="27" ry="18"/>
</g>
<!-- talk_p_proc&#45;&gt;get_reaction -->
<g id="edge6" class="edge">
<title>talk_p_proc&#45;&gt;get_reaction</title>
<path fill="none" stroke="#555555" stroke-dasharray="1,5" d="M671.54,-2135.42C666.58,-2133.14 661.21,-2131.02 656,-2129.62 559.29,-2103.72 290.98,-2147.13 207,-2092.62 193.45,-2083.83 184.57,-2068.09 179.02,-2054.24"/>
<polygon fill="#555555" stroke="#555555" points="182.07,-2053.38 175.4,-2045.15 175.48,-2055.74 182.07,-2053.38"/>
</g>
<!-- Paul01 -->
<g id="node9" class="node">
<title>Paul01</title>
<ellipse fill="#ffffff" stroke="#000000" cx="692" cy="-2025.98" rx="159.28" ry="54.45"/>
<text text-anchor="middle" x="692" y="-2047.18" font-family="Times,serif" font-size="14.00">А, полку Посвященных</text>
<text text-anchor="middle" x="692" y="-2029.93" font-family="Times,serif" font-size="14.00">прибыло. Добро пожаловать</text>
<text text-anchor="middle" x="692" y="-2012.68" font-family="Times,serif" font-size="14.00">на борт. Чем я могу тебе</text>
<text text-anchor="middle" x="692" y="-1995.43" font-family="Times,serif" font-size="14.00">помочь?</text>
</g>
<!-- talk_p_proc&#45;&gt;Paul01 -->
<g id="edge7" class="edge">
<title>talk_p_proc&#45;&gt;Paul01</title>
<path fill="none" stroke="#555555" stroke-dasharray="1,5" d="M692,-2129.23C692,-2119 692,-2105.37 692,-2091.4"/>
<polygon fill="#555555" stroke="#555555" points="695.5,-2091.7 692,-2081.7 688.5,-2091.7 695.5,-2091.7"/>
</g>
<!-- Paul14 -->
<g id="node10" class="node">
<title>Paul14</title>
<ellipse fill="#ffffff" stroke="#000000" cx="1379" cy="-2025.98" rx="143.37" ry="66.64"/>
<text text-anchor="middle" x="1379" y="-2055.8" font-family="Times,serif" font-size="14.00">И вновь приветствую</text>
<text text-anchor="middle" x="1379" y="-2038.55" font-family="Times,serif" font-size="14.00">Посвященного. Чем могу</text>
<text text-anchor="middle" x="1379" y="-2021.3" font-family="Times,serif" font-size="14.00">помочь,</text>
<text text-anchor="middle" x="1379" y="-2004.05" font-family="Times,serif" font-size="14.00">&#45;&#45;&#45;</text>
<text text-anchor="middle" x="1379" y="-1986.8" font-family="Times,serif" font-size="14.00">?</text>
</g>
<!-- talk_p_proc&#45;&gt;Paul14 -->
<g id="edge8" class="edge">
<title>talk_p_proc&#45;&gt;Paul14</title>
<path fill="none" stroke="#555555" stroke-dasharray="1,5" d="M712.54,-2135.7C717.49,-2133.41 722.85,-2131.21 728,-2129.62 894.35,-2078.39 1092.89,-2051.8 1226.61,-2038.66"/>
<polygon fill="#555555" stroke="#555555" points="1226.71,-2042.06 1236.33,-2037.62 1226.04,-2035.1 1226.71,-2042.06"/>
</g>
<!-- combat -->
<g id="node7" class="node">
<title>combat</title>
<ellipse fill="#ffffff" stroke="#000000" cx="777" cy="-2220.62" rx="27" ry="18"/>
</g>
<!-- ReactToLevel -->
<g id="node25" class="node">
<title>ReactToLevel</title>
<ellipse fill="#ffffff" stroke="#000000" cx="171" cy="-1846.58" rx="27" ry="18"/>
</g>
<!-- get_reaction&#45;&gt;ReactToLevel -->
<g id="edge49" class="edge">
<title>get_reaction&#45;&gt;ReactToLevel</title>
<path fill="none" stroke="#555555" stroke-dasharray="1,5" d="M171,-2007.65C171,-1976.91 171,-1912.62 171,-1875.55"/>
<polygon fill="#555555" stroke="#555555" points="174.5,-1875.99 171,-1865.99 167.5,-1875.99 174.5,-1875.99"/>
</g>
<!-- Paul02 -->
<g id="node11" class="node">
<title>Paul02</title>
<ellipse fill="#ffffff" stroke="#000000" cx="1500" cy="-1846.58" rx="144.96" ry="42.25"/>
<text text-anchor="middle" x="1500" y="-1859.16" font-family="Times,serif" font-size="14.00">Я Пауль, глава Отдела</text>
<text text-anchor="middle" x="1500" y="-1841.91" font-family="Times,serif" font-size="14.00">исследования</text>
<text text-anchor="middle" x="1500" y="-1824.66" font-family="Times,serif" font-size="14.00">энергетического оружия.</text>
</g>
<!-- Paul01&#45;&gt;Paul02 -->
<g id="edge9" class="edge">
<title>Paul01&#45;&gt;Paul02</title>
<path fill="none" stroke="#009978" d="M845.24,-2010.73C904.79,-1999.21 970.84,-1978.5 1022,-1941.33 1036.66,-1930.68 1028.24,-1916.21 1043.75,-1906.83 1086.91,-1880.74 1219.98,-1895.29 1270,-1888.83 1302.76,-1884.6 1337.96,-1878.89 1370.72,-1873.06"/>
<polygon fill="#009978" stroke="#009978" points="1371.04,-1876.38 1380.27,-1871.17 1369.8,-1869.49 1371.04,-1876.38"/>
<text text-anchor="middle" x="1114.62" y="-1928.03" font-family="Times,serif" font-size="14.00" fill="#009978">Кто ты и что ты тут</text>
<text text-anchor="middle" x="1114.62" y="-1910.78" font-family="Times,serif" font-size="14.00" fill="#009978">делаешь?</text>
</g>
<!-- Paul04 -->
<g id="node12" class="node">
<title>Paul04</title>
<ellipse fill="#ffffff" stroke="#000000" cx="2022" cy="-484.62" rx="156.62" ry="91.04"/>
<text text-anchor="middle" x="2022" y="-531.69" font-family="Times,serif" font-size="14.00">Тебе нужно получить</text>
<text text-anchor="middle" x="2022" y="-514.44" font-family="Times,serif" font-size="14.00">разрешение от Майкла,</text>
<text text-anchor="middle" x="2022" y="-497.19" font-family="Times,serif" font-size="14.00">чтобы получить оружие. Но</text>
<text text-anchor="middle" x="2022" y="-479.94" font-family="Times,serif" font-size="14.00">он не может дать тебе</text>
<text text-anchor="middle" x="2022" y="-462.69" font-family="Times,serif" font-size="14.00">право его носить, за этим</text>
<text text-anchor="middle" x="2022" y="-445.44" font-family="Times,serif" font-size="14.00">тебе придется обратиться</text>
<text text-anchor="middle" x="2022" y="-428.19" font-family="Times,serif" font-size="14.00">к Талусу.</text>
</g>
<!-- Paul01&#45;&gt;Paul04 -->
<g id="edge10" class="edge">
<title>Paul01&#45;&gt;Paul04</title>
<path fill="none" stroke="#994c00" d="M784.56,-1981.28C824.8,-1958.45 869.78,-1927.21 901,-1888.83 926.44,-1857.56 902.38,-1829.35 934,-1804.33 961.37,-1782.68 1523.45,-1729.15 1556,-1716.58 1622.17,-1691.03 1784.58,-1598.64 1820,-1537.19 1826.2,-1526.44 1879.27,-657.63 1884,-646.16 1895.22,-618.92 1912.95,-593 1932,-570.24"/>
<polygon fill="#994c00" stroke="#994c00" points="1935.22,-572.87 1939.07,-563.01 1929.9,-568.32 1935.22,-572.87"/>
<text text-anchor="middle" x="1905" y="-1348.2" font-family="Times,serif" font-size="14.00" fill="#994c00">Где я могу достать</text>
<text text-anchor="middle" x="1905" y="-1330.95" font-family="Times,serif" font-size="14.00" fill="#994c00">оружие?</text>
</g>
<!-- Paul07 -->
<g id="node13" class="node">
<title>Paul07</title>
<ellipse fill="#ffffff" stroke="#000000" cx="1397" cy="-1662.14" rx="149.73" ry="54.45"/>
<text text-anchor="middle" x="1397" y="-1683.34" font-family="Times,serif" font-size="14.00">Да. Самая свежая модель.</text>
<text text-anchor="middle" x="1397" y="-1666.09" font-family="Times,serif" font-size="14.00">[Он берет небольшой</text>
<text text-anchor="middle" x="1397" y="-1648.84" font-family="Times,serif" font-size="14.00">пистолет со стола и</text>
<text text-anchor="middle" x="1397" y="-1631.59" font-family="Times,serif" font-size="14.00">отдает вам]</text>
</g>
<!-- Paul01&#45;&gt;Paul07 -->
<g id="edge11" class="edge">
<title>Paul01&#45;&gt;Paul07</title>
<path fill="none" stroke="#1f0099" d="M678.83,-1971.43C670.11,-1922.01 666.56,-1849.64 706,-1804.33 774.38,-1725.78 1057,-1689.28 1238.94,-1673.63"/>
<polygon fill="#1f0099" stroke="#1f0099" points="1239.02,-1677.05 1248.69,-1672.72 1238.43,-1670.07 1239.02,-1677.05"/>
<text text-anchor="middle" x="803.5" y="-1850.53" font-family="Times,serif" font-size="14.00" fill="#1f0099">Врии сказала, что я могу</text>
<text text-anchor="middle" x="803.5" y="-1833.28" font-family="Times,serif" font-size="14.00" fill="#1f0099">посмотреть новое оружие.</text>
</g>
<!-- Paul09 -->
<g id="node14" class="node">
<title>Paul09</title>
<ellipse fill="#ffffff" stroke="#000000" cx="816" cy="-484.62" rx="141.77" ry="42.25"/>
<text text-anchor="middle" x="816" y="-497.19" font-family="Times,serif" font-size="14.00">Водяной чип? Такие</text>
<text text-anchor="middle" x="816" y="-479.94" font-family="Times,serif" font-size="14.00">использовались в старых</text>
<text text-anchor="middle" x="816" y="-462.69" font-family="Times,serif" font-size="14.00">убежищах, да?</text>
</g>
<!-- Paul01&#45;&gt;Paul09 -->
<g id="edge12" class="edge">
<title>Paul01&#45;&gt;Paul09</title>
<path fill="none" stroke="#0e9900" d="M670.62,-1971.56C658.6,-1936.82 646,-1890.22 646,-1847.58 646,-1847.58 646,-1847.58 646,-1457.35 646,-1399.42 640.98,-1384.62 647,-1327 679.92,-1011.77 727.95,-939.17 789,-628.16 794.86,-598.29 801.21,-564.86 806.27,-537.88"/>
<polygon fill="#0e9900" stroke="#0e9900" points="809.89,-538.6 808.29,-528.13 803.01,-537.31 809.89,-538.6"/>
<text text-anchor="middle" x="735.5" y="-1339.58" font-family="Times,serif" font-size="14.00" fill="#0e9900">У вас есть водяной чип?</text>
</g>
<!-- Paul12 -->
<g id="node15" class="node">
<title>Paul12</title>
<ellipse fill="#ffffff" stroke="#000000" cx="506" cy="-484.62" rx="149.73" ry="54.45"/>
<text text-anchor="middle" x="506" y="-505.82" font-family="Times,serif" font-size="14.00">Нет. Я работаю только с</text>
<text text-anchor="middle" x="506" y="-488.57" font-family="Times,serif" font-size="14.00">энергетическим оружием.</text>
<text text-anchor="middle" x="506" y="-471.32" font-family="Times,serif" font-size="14.00">Тебе стоит спросить про</text>
<text text-anchor="middle" x="506" y="-454.07" font-family="Times,serif" font-size="14.00">силовую броню у Кайла.</text>
</g>
<!-- Paul01&#45;&gt;Paul12 -->
<g id="edge13" class="edge">
<title>Paul01&#45;&gt;Paul12</title>
<path fill="none" stroke="#99003a" d="M571.06,-1990.13C506.01,-1963.18 439,-1918.26 439,-1847.58 439,-1847.58 439,-1847.58 439,-1457.35 439,-1114.68 480.98,-705.65 498.48,-550.02"/>
<polygon fill="#99003a" stroke="#99003a" points="502.05,-550.58 499.7,-540.25 495.1,-549.8 502.05,-550.58"/>
<text text-anchor="middle" x="532.88" y="-1348.2" font-family="Times,serif" font-size="14.00" fill="#99003a">У тебя есть запчасти для</text>
<text text-anchor="middle" x="532.88" y="-1330.95" font-family="Times,serif" font-size="14.00" fill="#99003a">силовой брони?</text>
</g>
<!-- PaulEnd -->
<g id="node16" class="node">
<title>PaulEnd</title>
<ellipse fill="#ffffff" stroke="#000000" cx="1533" cy="-18" rx="27" ry="18"/>
</g>
<!-- Paul01&#45;&gt;PaulEnd -->
<g id="edge14" class="edge">
<title>Paul01&#45;&gt;PaulEnd</title>
<path fill="none" stroke="#006799" d="M537.44,-2012.23C433.73,-1994.21 316,-1950.98 316,-1847.58 316,-1847.58 316,-1847.58 316,-213.79 316,-66.63 464.2,-93.35 606,-54 692.48,-30 1331.15,-21.26 1494.85,-19.4"/>
<polygon fill="#006799" stroke="#006799" points="1494.85,-22.89 1504.81,-19.28 1494.77,-15.89 1494.85,-22.89"/>
<text text-anchor="middle" x="376.38" y="-1013.81" font-family="Times,serif" font-size="14.00" fill="#006799">Ничем, спасибо.</text>
</g>
<!-- Paul15 -->
<g id="node17" class="node">
<title>Paul15</title>
<ellipse fill="#ffffff" stroke="#000000" cx="1102" cy="-1846.58" rx="159.28" ry="42.25"/>
<text text-anchor="middle" x="1102" y="-1859.16" font-family="Times,serif" font-size="14.00">Э.. пожалуйста, уходи, а</text>
<text text-anchor="middle" x="1102" y="-1841.91" font-family="Times,serif" font-size="14.00">то еще забрызгаешь слюной</text>
<text text-anchor="middle" x="1102" y="-1824.66" font-family="Times,serif" font-size="14.00">что&#45;нибудь важное.</text>
</g>
<!-- Paul01&#45;&gt;Paul15 -->
<g id="edge15" class="edge">
<title>Paul01&#45;&gt;Paul15</title>
<path fill="none" stroke="#949900" d="M817.53,-1992C854.95,-1979.23 895.02,-1962.5 929,-1941.33 947.61,-1929.75 946.04,-1919.04 964.25,-1906.83 975.54,-1899.27 987.95,-1892.33 1000.56,-1886.07"/>
<polygon fill="#949900" stroke="#949900" points="1001.73,-1888.9 1009.22,-1881.41 998.69,-1882.6 1001.73,-1888.9"/>
<text text-anchor="middle" x="992.88" y="-1919.41" font-family="Times,serif" font-size="14.00" fill="#949900">ЧТОЗА?</text>
</g>
<!-- Paul14&#45;&gt;Paul02 -->
<g id="edge42" class="edge">
<title>Paul14&#45;&gt;Paul02</title>
<path fill="none" stroke="#990081" d="M1422,-1961.94C1436.43,-1940.78 1452.32,-1917.49 1465.97,-1897.48"/>
<polygon fill="#990081" stroke="#990081" points="1469.32,-1899.77 1472.07,-1889.54 1463.54,-1895.83 1469.32,-1899.77"/>
<text text-anchor="middle" x="1528.62" y="-1928.03" font-family="Times,serif" font-size="14.00" fill="#990081">Кто ты и что ты тут</text>
<text text-anchor="middle" x="1528.62" y="-1910.78" font-family="Times,serif" font-size="14.00" fill="#990081">делаешь?</text>
</g>
<!-- Paul14&#45;&gt;Paul04 -->
<g id="edge43" class="edge">
<title>Paul14&#45;&gt;Paul04</title>
<path fill="none" stroke="#009984" d="M1522.51,-2024.03C1763.88,-2018.51 2225,-1989.4 2225,-1847.58 2225,-1847.58 2225,-1847.58 2225,-789.3 2225,-701.9 2252.14,-667.26 2205,-593.66 2192.8,-574.62 2175.96,-558.5 2157.39,-545"/>
<polygon fill="#009984" stroke="#009984" points="2159.65,-541.62 2149.44,-538.78 2155.65,-547.36 2159.65,-541.62"/>
<text text-anchor="middle" x="2294" y="-1348.2" font-family="Times,serif" font-size="14.00" fill="#009984">Где я могу достать</text>
<text text-anchor="middle" x="2294" y="-1330.95" font-family="Times,serif" font-size="14.00" fill="#009984">оружие?</text>
</g>
<!-- Paul14&#45;&gt;Paul07 -->
<g id="edge44" class="edge">
<title>Paul14&#45;&gt;Paul07</title>
<path fill="none" stroke="#995800" d="M1501.5,-1990.8C1536.2,-1978.17 1572.95,-1961.81 1604,-1941.33 1684.09,-1888.53 1724.48,-1810.63 1666,-1734.58 1649.95,-1713.71 1598.81,-1697.66 1545.37,-1686.11"/>
<polygon fill="#995800" stroke="#995800" points="1546.17,-1682.49 1535.66,-1683.86 1544.73,-1689.34 1546.17,-1682.49"/>
<text text-anchor="middle" x="1790.5" y="-1850.53" font-family="Times,serif" font-size="14.00" fill="#995800">Врии сказала, что я могу</text>
<text text-anchor="middle" x="1790.5" y="-1833.28" font-family="Times,serif" font-size="14.00" fill="#995800">посмотреть новое оружие.</text>
</g>
<!-- Paul14&#45;&gt;Paul09 -->
<g id="edge45" class="edge">
<title>Paul14&#45;&gt;Paul09</title>
<path fill="none" stroke="#2b0099" d="M1362.19,-1959.58C1349.24,-1914.49 1329.14,-1853.99 1303,-1804.33 1280.39,-1761.39 1263.87,-1757.65 1238,-1716.58 964.15,-1281.95 974.85,-1126.22 849,-628.16 841.45,-598.27 833.64,-564.67 827.51,-537.61"/>
<polygon fill="#2b0099" stroke="#2b0099" points="830.78,-537.19 825.17,-528.2 823.95,-538.73 830.78,-537.19"/>
<text text-anchor="middle" x="1135.5" y="-1339.58" font-family="Times,serif" font-size="14.00" fill="#2b0099">У вас есть водяной чип?</text>
</g>
<!-- Paul14&#45;&gt;Paul12 -->
<g id="edge46" class="edge">
<title>Paul14&#45;&gt;Paul12</title>
<path fill="none" stroke="#029900" d="M1341.21,-1961.52C1328.39,-1938.92 1314.43,-1913.07 1303,-1888.83 1285.8,-1852.37 1294.39,-1836.43 1270,-1804.33 1261.93,-1793.72 1256.29,-1794.82 1246,-1786.33 1210.38,-1756.95 1201.7,-1749.18 1169,-1716.58 1017.74,-1565.82 957.68,-1543.08 845.25,-1361.5 672.24,-1082.08 561.38,-699.76 522.04,-549.74"/>
<polygon fill="#029900" stroke="#029900" points="525.24,-549.14 519.33,-540.34 518.46,-550.9 525.24,-549.14"/>
<text text-anchor="middle" x="937.88" y="-1348.2" font-family="Times,serif" font-size="14.00" fill="#029900">У тебя есть запчасти для</text>
<text text-anchor="middle" x="937.88" y="-1330.95" font-family="Times,serif" font-size="14.00" fill="#029900">силовой брони?</text>
</g>
<!-- Paul14&#45;&gt;PaulEnd -->
<g id="edge47" class="edge">
<title>Paul14&#45;&gt;PaulEnd</title>
<path fill="none" stroke="#99002e" d="M1521.18,-2016.14C1813.76,-1996.03 2456,-1941.24 2456,-1847.58 2456,-1847.58 2456,-1847.58 2456,-213.79 2456,-29.79 1744.89,-18.73 1571.02,-18.77"/>
<polygon fill="#99002e" stroke="#99002e" points="1571.12,-15.27 1561.12,-18.79 1571.13,-22.27 1571.12,-15.27"/>
<text text-anchor="middle" x="2516.38" y="-1013.81" font-family="Times,serif" font-size="14.00" fill="#99002e">Ничем, спасибо.</text>
</g>
<!-- Paul14&#45;&gt;Paul15 -->
<g id="edge48" class="edge">
<title>Paul14&#45;&gt;Paul15</title>
<path fill="none" stroke="#005b99" d="M1275.02,-1979.92C1254.81,-1968.82 1234.56,-1955.87 1217.25,-1941.33 1202.5,-1928.94 1205.05,-1920.02 1191,-1906.83 1185.51,-1901.68 1179.53,-1896.67 1173.34,-1891.89"/>
<polygon fill="#005b99" stroke="#005b99" points="1175.92,-1888.7 1165.81,-1885.53 1171.73,-1894.31 1175.92,-1888.7"/>
<text text-anchor="middle" x="1245.88" y="-1919.41" font-family="Times,serif" font-size="14.00" fill="#005b99">ЧТОЗА?</text>
</g>
<!-- Paul02&#45;&gt;Paul07 -->
<g id="edge17" class="edge">
<title>Paul02&#45;&gt;Paul07</title>
<path fill="none" stroke="#009945" d="M1476.88,-1804.64C1463.68,-1781.25 1446.85,-1751.44 1432.05,-1725.22"/>
<polygon fill="#009945" stroke="#009945" points="1434.66,-1723.73 1426.7,-1716.74 1428.57,-1727.17 1434.66,-1723.73"/>
<text text-anchor="middle" x="1562.38" y="-1773.03" font-family="Times,serif" font-size="14.00" fill="#009945">У тебя есть лазерный</text>
<text text-anchor="middle" x="1562.38" y="-1755.78" font-family="Times,serif" font-size="14.00" fill="#009945">пистолет, который создала</text>
<text text-anchor="middle" x="1562.38" y="-1738.53" font-family="Times,serif" font-size="14.00" fill="#009945">Врии?</text>
</g>
<!-- Paul03 -->
<g id="node18" class="node">
<title>Paul03</title>
<ellipse fill="#ffffff" stroke="#000000" cx="2045" cy="-700.61" rx="152.38" ry="54.45"/>
<text text-anchor="middle" x="2045" y="-721.81" font-family="Times,serif" font-size="14.00">Лазеры, плазмаметы... что</text>
<text text-anchor="middle" x="2045" y="-704.56" font-family="Times,serif" font-size="14.00">ни назови, я это делал...</text>
<text text-anchor="middle" x="2045" y="-687.31" font-family="Times,serif" font-size="14.00">ну, или как минимум</text>
<text text-anchor="middle" x="2045" y="-670.06" font-family="Times,serif" font-size="14.00">собирал из запчастей.</text>
</g>
<!-- Paul02&#45;&gt;Paul03 -->
<g id="edge16" class="edge">
<title>Paul02&#45;&gt;Paul03</title>
<path fill="none" stroke="#720099" d="M1606.88,-1817.77C1627.61,-1809.59 1648.35,-1799.27 1666,-1786.33 1855.39,-1647.57 1897.66,-1581.38 1980,-1361.5 2057.41,-1154.77 2055.32,-887.47 2049.4,-766.35"/>
<polygon fill="#720099" stroke="#720099" points="2052.85,-766.25 2048.84,-756.44 2045.86,-766.61 2052.85,-766.25"/>
<text text-anchor="middle" x="2074.62" y="-1348.2" font-family="Times,serif" font-size="14.00" fill="#720099">Что за энергетическое</text>
<text text-anchor="middle" x="2074.62" y="-1330.95" font-family="Times,serif" font-size="14.00" fill="#720099">оружие?</text>
</g>
<!-- Paul04&#45;&gt;PaulEnd -->
<g id="edge21" class="edge">
<title>Paul04&#45;&gt;PaulEnd</title>
<path fill="none" stroke="#99006e" d="M1978.46,-396.84C1924.25,-298.01 1822.16,-139.24 1688,-54 1652.44,-31.4 1604.14,-23.31 1570.96,-20.46"/>
<polygon fill="#99006e" stroke="#99006e" points="1571.55,-16.92 1561.32,-19.68 1571.04,-23.9 1571.55,-16.92"/>
<text text-anchor="middle" x="2000.25" y="-218.74" font-family="Times,serif" font-size="14.00" fill="#99006e">Ладно. Спасибо за</text>
<text text-anchor="middle" x="2000.25" y="-201.49" font-family="Times,serif" font-size="14.00" fill="#99006e">информацию, бывай.</text>
</g>
<!-- Paul05 -->
<g id="node19" class="node">
<title>Paul05</title>
<ellipse fill="#ffffff" stroke="#000000" cx="1637" cy="-904.4" rx="151.85" ry="78.84"/>
<text text-anchor="middle" x="1637" y="-942.85" font-family="Times,serif" font-size="14.00">Он оба на первом этаже</text>
<text text-anchor="middle" x="1637" y="-925.6" font-family="Times,serif" font-size="14.00">базы. Талус обычно в</text>
<text text-anchor="middle" x="1637" y="-908.35" font-family="Times,serif" font-size="14.00">спортзале, а Майкл</text>
<text text-anchor="middle" x="1637" y="-891.1" font-family="Times,serif" font-size="14.00">исполняет свои</text>
<text text-anchor="middle" x="1637" y="-873.85" font-family="Times,serif" font-size="14.00">обязанности как раз около</text>
<text text-anchor="middle" x="1637" y="-856.6" font-family="Times,serif" font-size="14.00">складских помещений.</text>
</g>
<!-- Paul04&#45;&gt;Paul05 -->
<g id="edge20" class="edge">
<title>Paul04&#45;&gt;Paul05</title>
<path fill="none" stroke="#419900" d="M1916.88,-552.29C1899.22,-565.19 1881.59,-579.22 1866,-593.66 1851.52,-607.08 1855.29,-618.63 1838,-628.16 1808.36,-644.5 1711.54,-623.11 1686.75,-646.16 1641.45,-688.28 1630.24,-758.24 1629.68,-814.57"/>
<polygon fill="#419900" stroke="#419900" points="1626.19,-814.29 1629.7,-824.28 1633.19,-814.28 1626.19,-814.29"/>
<text text-anchor="middle" x="1768.12" y="-704.56" font-family="Times,serif" font-size="14.00" fill="#419900">Хорошо, где я могу их</text>
<text text-anchor="middle" x="1768.12" y="-687.31" font-family="Times,serif" font-size="14.00" fill="#419900">найти?</text>
</g>
<!-- Paul08 -->
<g id="node21" class="node">
<title>Paul08</title>
<ellipse fill="#ffffff" stroke="#000000" cx="1544" cy="-1181.37" rx="144.96" ry="127.63"/>
<text text-anchor="middle" x="1544" y="-1254.32" font-family="Times,serif" font-size="14.00">Этот тебе вряд ли</text>
<text text-anchor="middle" x="1544" y="-1237.07" font-family="Times,serif" font-size="14.00">пригодится. У него все</text>
<text text-anchor="middle" x="1544" y="-1219.82" font-family="Times,serif" font-size="14.00">еще нет линз и прицела.</text>
<text text-anchor="middle" x="1544" y="-1202.57" font-family="Times,serif" font-size="14.00">[Он забирает у вас</text>
<text text-anchor="middle" x="1544" y="-1185.32" font-family="Times,serif" font-size="14.00">пистолет и кладет его на</text>
<text text-anchor="middle" x="1544" y="-1168.07" font-family="Times,serif" font-size="14.00">рабочий стол] Если ты</text>
<text text-anchor="middle" x="1544" y="-1150.82" font-family="Times,serif" font-size="14.00">действительно хочешь</text>
<text text-anchor="middle" x="1544" y="-1133.57" font-family="Times,serif" font-size="14.00">получить такой пистолет,</text>
<text text-anchor="middle" x="1544" y="-1116.32" font-family="Times,serif" font-size="14.00">обращайся к Талусу или</text>
<text text-anchor="middle" x="1544" y="-1099.07" font-family="Times,serif" font-size="14.00">Майклу.</text>
</g>
<!-- Paul07&#45;&gt;Paul08 -->
<g id="edge29" class="edge">
<title>Paul07&#45;&gt;Paul08</title>
<path fill="none" stroke="#910099" d="M1533.53,-1639.24C1559.98,-1628.59 1584.55,-1612.88 1601,-1589.69 1634.77,-1542.08 1611.89,-1384.35 1601,-1327 1600.04,-1321.97 1598.91,-1316.88 1597.64,-1311.78"/>
<polygon fill="#910099" stroke="#910099" points="1600.81,-1311.06 1594.85,-1302.3 1594.04,-1312.87 1600.81,-1311.06"/>
<text text-anchor="middle" x="1717" y="-1462.3" font-family="Times,serif" font-size="14.00" fill="#910099">Прекрасно, а можно, я его</text>
<text text-anchor="middle" x="1717" y="-1445.05" font-family="Times,serif" font-size="14.00" fill="#910099">оставлю себе?</text>
</g>
<!-- Paul11 -->
<g id="node22" class="node">
<title>Paul11</title>
<ellipse fill="#ffffff" stroke="#000000" cx="1426" cy="-1458.35" rx="152.91" ry="78.84"/>
<text text-anchor="middle" x="1426" y="-1496.8" font-family="Times,serif" font-size="14.00">В руках опытного воина он</text>
<text text-anchor="middle" x="1426" y="-1479.55" font-family="Times,serif" font-size="14.00">может разрезать человека</text>
<text text-anchor="middle" x="1426" y="-1462.3" font-family="Times,serif" font-size="14.00">напополам. Луч прожжет</text>
<text text-anchor="middle" x="1426" y="-1445.05" font-family="Times,serif" font-size="14.00">плоть быстрее, чем ты</text>
<text text-anchor="middle" x="1426" y="-1427.8" font-family="Times,serif" font-size="14.00">пальцем проведешь по</text>
<text text-anchor="middle" x="1426" y="-1410.55" font-family="Times,serif" font-size="14.00">песку.</text>
</g>
<!-- Paul07&#45;&gt;Paul11 -->
<g id="edge30" class="edge">
<title>Paul07&#45;&gt;Paul11</title>
<path fill="none" stroke="#009965" d="M1395.01,-1607.29C1395.13,-1590.52 1396.01,-1572.02 1398.5,-1555.19 1398.88,-1552.62 1399.31,-1550.03 1399.78,-1547.42"/>
<polygon fill="#009965" stroke="#009965" points="1403.41,-1548.13 1401.94,-1537.64 1396.54,-1546.76 1403.41,-1548.13"/>
<text text-anchor="middle" x="1499.25" y="-1576.39" font-family="Times,serif" font-size="14.00" fill="#009965">А какие повреждения этот</text>
<text text-anchor="middle" x="1499.25" y="-1559.14" font-family="Times,serif" font-size="14.00" fill="#009965">пистолет причиняет врагу?</text>
</g>
<!-- Paul10 -->
<g id="node23" class="node">
<title>Paul10</title>
<ellipse fill="#ffffff" stroke="#000000" cx="1228" cy="-214.79" rx="153.97" ry="91.04"/>
<text text-anchor="middle" x="1228" y="-261.86" font-family="Times,serif" font-size="14.00">Нет. Такие штуки &#45; просто</text>
<text text-anchor="middle" x="1228" y="-244.61" font-family="Times,serif" font-size="14.00">мусор, они слишком легко</text>
<text text-anchor="middle" x="1228" y="-227.36" font-family="Times,serif" font-size="14.00">ломаются. Мы тут не</text>
<text text-anchor="middle" x="1228" y="-210.11" font-family="Times,serif" font-size="14.00">занимаемся очисткой воды</text>
<text text-anchor="middle" x="1228" y="-192.86" font-family="Times,serif" font-size="14.00">для себя. Нам воду</text>
<text text-anchor="middle" x="1228" y="-175.61" font-family="Times,serif" font-size="14.00">доставляют караваны из</text>
<text text-anchor="middle" x="1228" y="-158.36" font-family="Times,serif" font-size="14.00">Хаба.</text>
</g>
<!-- Paul09&#45;&gt;Paul10 -->
<g id="edge34" class="edge">
<title>Paul09&#45;&gt;Paul10</title>
<path fill="none" stroke="#99004e" d="M870.01,-445.26C916.85,-412.32 986.73,-363.93 1049,-323.83 1068.58,-311.22 1089.6,-298.14 1110.09,-285.62"/>
<polygon fill="#99004e" stroke="#99004e" points="1111.75,-288.11 1118.47,-279.92 1108.11,-282.13 1111.75,-288.11"/>
<text text-anchor="middle" x="1133" y="-353.65" font-family="Times,serif" font-size="14.00" fill="#99004e">Да!.. У тебя есть такой</text>
<text text-anchor="middle" x="1133" y="-336.4" font-family="Times,serif" font-size="14.00" fill="#99004e">чип?</text>
</g>
<!-- Paul12&#45;&gt;PaulEnd -->
<g id="edge39" class="edge">
<title>Paul12&#45;&gt;PaulEnd</title>
<path fill="none" stroke="#990500" d="M501.11,-429.81C497.15,-350.88 502.57,-204.36 585.75,-123.75 705.68,-7.52 789.26,-74.59 955,-54 1157.55,-28.84 1402.38,-21.57 1495.02,-19.64"/>
<polygon fill="#990500" stroke="#990500" points="1494.88,-23.13 1504.8,-19.43 1494.74,-16.13 1494.88,-23.13"/>
<text text-anchor="middle" x="681.62" y="-210.11" font-family="Times,serif" font-size="14.00" fill="#990500">Спасибо. Всего хорошего.</text>
</g>
<!-- Paul13 -->
<g id="node24" class="node">
<title>Paul13</title>
<ellipse fill="#ffffff" stroke="#000000" cx="921" cy="-214.79" rx="135.41" ry="30.05"/>
<text text-anchor="middle" x="921" y="-218.74" font-family="Times,serif" font-size="14.00">Ну, тут я тебе ничем не</text>
<text text-anchor="middle" x="921" y="-201.49" font-family="Times,serif" font-size="14.00">могу помочь. Прости.</text>
</g>
<!-- Paul12&#45;&gt;Paul13 -->
<g id="edge38" class="edge">
<title>Paul12&#45;&gt;Paul13</title>
<path fill="none" stroke="#009931" d="M578.76,-436.66C661.8,-383.07 795.56,-296.74 868.85,-249.45"/>
<polygon fill="#009931" stroke="#009931" points="870.41,-251.96 876.91,-243.6 866.61,-246.08 870.41,-251.96"/>
<text text-anchor="middle" x="839.12" y="-362.28" font-family="Times,serif" font-size="14.00" fill="#009931">На самом деле, у Кайла</text>
<text text-anchor="middle" x="839.12" y="-345.03" font-family="Times,serif" font-size="14.00" fill="#009931">нет этих запчастей,</text>
<text text-anchor="middle" x="839.12" y="-327.78" font-family="Times,serif" font-size="14.00" fill="#009931">потому я их и ищу.</text>
</g>
<!-- Paul03&#45;&gt;Paul04 -->
<g id="edge18" class="edge">
<title>Paul03&#45;&gt;Paul04</title>
<path fill="none" stroke="#991800" d="M2026.49,-646.17C2024.97,-640.16 2023.66,-634.07 2022.75,-628.16 2020.68,-614.81 2019.46,-600.67 2018.82,-586.69"/>
<polygon fill="#991800" stroke="#991800" points="2022.3,-586.91 2018.44,-577.05 2015.3,-587.16 2022.3,-586.91"/>
<text text-anchor="middle" x="2113.12" y="-614.86" font-family="Times,serif" font-size="14.00" fill="#991800">А могу я получить такой</text>
<text text-anchor="middle" x="2113.12" y="-597.61" font-family="Times,serif" font-size="14.00" fill="#991800">же?</text>
</g>
<!-- Paul03&#45;&gt;PaulEnd -->
<g id="edge19" class="edge">
<title>Paul03&#45;&gt;PaulEnd</title>
<path fill="none" stroke="#001499" d="M2165.09,-666.8C2182.07,-657.06 2197.35,-644.45 2208,-628.16 2271.2,-531.45 2170.58,-197.93 2082,-123.75 2003.51,-58.03 1681.44,-29.48 1570.65,-21.48"/>
<polygon fill="#001499" stroke="#001499" points="1571.22,-17.94 1561,-20.73 1570.73,-24.92 1571.22,-17.94"/>
<text text-anchor="middle" x="2301.25" y="-353.65" font-family="Times,serif" font-size="14.00" fill="#001499">Прекрасно. Трудовых тебе</text>
<text text-anchor="middle" x="2301.25" y="-336.4" font-family="Times,serif" font-size="14.00" fill="#001499">успехов. Бывай.</text>
</g>
<!-- Paul05&#45;&gt;PaulEnd -->
<g id="edge23" class="edge">
<title>Paul05&#45;&gt;PaulEnd</title>
<path fill="none" stroke="#996b00" d="M1736.04,-844.57C1766.52,-820.93 1796.4,-790.75 1813,-755.05 1843.24,-690.01 1860.12,-647.74 1813,-593.66 1774.61,-549.6 1722.58,-618.42 1682.75,-575.66 1603.56,-490.65 1720.23,-145 1648,-54 1629.72,-30.97 1596.74,-22.69 1570.76,-19.9"/>
<polygon fill="#996b00" stroke="#996b00" points="1571.38,-16.35 1561.13,-19.01 1570.8,-23.33 1571.38,-16.35"/>
<text text-anchor="middle" x="1768.62" y="-488.57" font-family="Times,serif" font-size="14.00" fill="#996b00">Благодарю. Мне нужно</text>
<text text-anchor="middle" x="1768.62" y="-471.32" font-family="Times,serif" font-size="14.00" fill="#996b00">идти.</text>
</g>
<!-- Paul06 -->
<g id="node20" class="node">
<title>Paul06</title>
<ellipse fill="#ffffff" stroke="#000000" cx="1228" cy="-700.61" rx="120.56" ry="30.05"/>
<text text-anchor="middle" x="1228" y="-704.56" font-family="Times,serif" font-size="14.00">Конечно. Чем я могу</text>
<text text-anchor="middle" x="1228" y="-687.31" font-family="Times,serif" font-size="14.00">помочь тебе?</text>
</g>
<!-- Paul05&#45;&gt;Paul06 -->
<g id="edge22" class="edge">
<title>Paul05&#45;&gt;Paul06</title>
<path fill="none" stroke="#009998" d="M1527.4,-849.32C1451.82,-812.03 1354.01,-763.78 1291.13,-732.76"/>
<polygon fill="#009998" stroke="#009998" points="1292.87,-729.21 1282.35,-727.93 1289.77,-735.49 1292.87,-729.21"/>
<text text-anchor="middle" x="1502.12" y="-794.25" font-family="Times,serif" font-size="14.00" fill="#009998">Спасибо. Еще один</text>
<text text-anchor="middle" x="1502.12" y="-777" font-family="Times,serif" font-size="14.00" fill="#009998">вопрос...</text>
</g>
<!-- Paul06&#45;&gt;Paul04 -->
<g id="edge24" class="edge">
<title>Paul06&#45;&gt;Paul04</title>
<path fill="none" stroke="#3f0099" d="M1341.54,-690.12C1415.55,-680.9 1512.89,-662.93 1593,-628.16 1617.02,-617.74 1616.21,-602.77 1640.75,-593.66 1728.67,-561.01 1761,-602.03 1851,-575.66 1868.79,-570.45 1886.88,-563.29 1904.29,-555.27"/>
<polygon fill="#3f0099" stroke="#3f0099" points="1905.34,-558.17 1912.89,-550.73 1902.35,-551.84 1905.34,-558.17"/>
<text text-anchor="middle" x="1738.62" y="-614.86" font-family="Times,serif" font-size="14.00" fill="#3f0099">Где я могу получить новое</text>
<text text-anchor="middle" x="1738.62" y="-597.61" font-family="Times,serif" font-size="14.00" fill="#3f0099">оружие?</text>
</g>
<!-- Paul06&#45;&gt;Paul07 -->
<g id="edge27" class="edge">
<title>Paul06&#45;&gt;Paul07</title>
<path fill="none" stroke="#004799" d="M1214.94,-730.96C1175.52,-824.44 1067.73,-1120.09 1190.5,-1309 1201.23,-1325.52 1219.01,-1311.37 1231,-1327 1288.54,-1402.04 1219.65,-1453.68 1264,-1537.19 1277.78,-1563.14 1299.13,-1586.61 1320.72,-1605.97"/>
<polygon fill="#004799" stroke="#004799" points="1318.16,-1609.25 1327.99,-1613.19 1322.76,-1603.98 1318.16,-1609.25"/>
<text text-anchor="middle" x="1289.75" y="-1185.32" font-family="Times,serif" font-size="14.00" fill="#004799">Могу я посмотреть на</text>
<text text-anchor="middle" x="1289.75" y="-1168.07" font-family="Times,serif" font-size="14.00" fill="#004799">новый лазерный пистолет?</text>
</g>
<!-- Paul06&#45;&gt;Paul09 -->
<g id="edge25" class="edge">
<title>Paul06&#45;&gt;Paul09</title>
<path fill="none" stroke="#009912" d="M1115.69,-689.22C1024.65,-678.67 905.64,-659.38 869,-628.16 854.64,-615.93 839.8,-572.94 829.49,-537.34"/>
<polygon fill="#009912" stroke="#009912" points="832.66,-536.72 826.57,-528.05 825.93,-538.63 832.66,-536.72"/>
<text text-anchor="middle" x="957.5" y="-606.23" font-family="Times,serif" font-size="14.00" fill="#009912">У вас есть водяной чип?</text>
</g>
<!-- Paul06&#45;&gt;Paul12 -->
<g id="edge26" class="edge">
<title>Paul06&#45;&gt;Paul12</title>
<path fill="none" stroke="#99001b" d="M1109.8,-694.12C964.34,-685.82 726.89,-666.75 648,-628.16 609.42,-609.29 575.15,-575.67 549.94,-545.82"/>
<polygon fill="#99001b" stroke="#99001b" points="552.15,-543.99 543.08,-538.52 546.75,-548.45 552.15,-543.99"/>
<text text-anchor="middle" x="747" y="-614.86" font-family="Times,serif" font-size="14.00" fill="#99001b">У тебя есть какие&#45;нибудь</text>
<text text-anchor="middle" x="747" y="-597.61" font-family="Times,serif" font-size="14.00" fill="#99001b">запчасти к силовой броне?</text>
</g>
<!-- Paul06&#45;&gt;PaulEnd -->
<g id="edge28" class="edge">
<title>Paul06&#45;&gt;PaulEnd</title>
<path fill="none" stroke="#749900" d="M1261.82,-671.45C1289.63,-648.97 1330.59,-617.42 1369,-593.66 1384.21,-584.25 1394.76,-590.33 1405,-575.66 1469.47,-483.31 1409.33,-433.89 1433.25,-323.83 1456.1,-218.67 1501.3,-98.57 1522.08,-46.01"/>
<polygon fill="#749900" stroke="#749900" points="1525.68,-47.43 1526.13,-36.85 1519.17,-44.84 1525.68,-47.43"/>
<text text-anchor="middle" x="1526.38" y="-353.65" font-family="Times,serif" font-size="14.00" fill="#749900">Извини, мне нужно идти.</text>
<text text-anchor="middle" x="1526.38" y="-336.4" font-family="Times,serif" font-size="14.00" fill="#749900">До свиданья.</text>
</g>
<!-- Paul08&#45;&gt;PaulEnd -->
<g id="edge32" class="edge">
<title>Paul08&#45;&gt;PaulEnd</title>
<path fill="none" stroke="#0b0099" d="M1499.5,-1059.43C1491.09,-1034.42 1482.81,-1008.12 1476,-983.24 1450.84,-891.27 1457.59,-865.18 1433,-773.05 1415.5,-707.51 1395.8,-695.13 1385,-628.16 1382.56,-613.02 1376.22,-606.23 1385,-593.66 1398.28,-574.64 1414.68,-588.51 1434,-575.66 1535.09,-508.42 1575.59,-488.58 1620,-375.58 1667.14,-255.64 1585.5,-102.66 1549.13,-43.7"/>
<polygon fill="#0b0099" stroke="#0b0099" points="1551.79,-42.36 1543.51,-35.75 1545.87,-46.08 1551.79,-42.36"/>
<text text-anchor="middle" x="1487" y="-614.86" font-family="Times,serif" font-size="14.00" fill="#0b0099">Спасибо, сейчас мне нужно</text>
<text text-anchor="middle" x="1487" y="-597.61" font-family="Times,serif" font-size="14.00" fill="#0b0099">идти.</text>
</g>
<!-- Paul08&#45;&gt;Paul05 -->
<g id="edge31" class="edge">
<title>Paul08&#45;&gt;Paul05</title>
<path fill="none" stroke="#993800" d="M1585.2,-1058.56C1592.71,-1036.34 1600.42,-1013.57 1607.51,-992.6"/>
<polygon fill="#993800" stroke="#993800" points="1611.05,-994.06 1610.93,-983.46 1604.42,-991.82 1611.05,-994.06"/>
<text text-anchor="middle" x="1688.38" y="-1022.44" font-family="Times,serif" font-size="14.00" fill="#993800">Спасибо, где я могу их</text>
<text text-anchor="middle" x="1688.38" y="-1005.19" font-family="Times,serif" font-size="14.00" fill="#993800">найти?</text>
</g>
<!-- Paul08&#45;&gt;Paul06 -->
<g id="edge33" class="edge">
<title>Paul08&#45;&gt;Paul06</title>
<path fill="none" stroke="#219900" d="M1440.15,-1091.88C1422.55,-1078.43 1404.11,-1065.23 1386,-1053.74 1325.83,-1015.56 1281.21,-1042.74 1242,-983.24 1193.42,-909.5 1206.35,-799.86 1218.22,-741.51"/>
<polygon fill="#219900" stroke="#219900" points="1221.83,-742.41 1220.49,-731.9 1214.98,-740.94 1221.83,-742.41"/>
<text text-anchor="middle" x="1342.5" y="-899.72" font-family="Times,serif" font-size="14.00" fill="#219900">Можно тебя еще спросить?</text>
</g>
<!-- Paul11&#45;&gt;Paul08 -->
<g id="edge37" class="edge">
<title>Paul11&#45;&gt;Paul08</title>
<path fill="none" stroke="#5e0099" d="M1428.15,-1379.3C1430.41,-1361.69 1434.23,-1343.38 1440.5,-1327 1444.56,-1316.41 1449.59,-1305.87 1455.22,-1295.6"/>
<polygon fill="#5e0099" stroke="#5e0099" points="1458.64,-1297.67 1460.56,-1287.25 1452.56,-1294.2 1458.64,-1297.67"/>
<text text-anchor="middle" x="1520.25" y="-1339.58" font-family="Times,serif" font-size="14.00" fill="#5e0099">Можно, я его заберу?</text>
</g>
<!-- Paul10&#45;&gt;PaulEnd -->
<g id="edge36" class="edge">
<title>Paul10&#45;&gt;PaulEnd</title>
<path fill="none" stroke="#998b00" d="M1205.13,-124.52C1203.83,-99.03 1208.25,-73.04 1225.25,-54 1242.93,-34.19 1416.56,-24.11 1494.94,-20.54"/>
<polygon fill="#998b00" stroke="#998b00" points="1494.95,-24 1504.79,-20.06 1494.64,-17.01 1494.95,-24"/>
<text text-anchor="middle" x="1321.38" y="-92.45" font-family="Times,serif" font-size="14.00" fill="#998b00">Ладно. Спасибо. Значит,</text>
<text text-anchor="middle" x="1321.38" y="-75.2" font-family="Times,serif" font-size="14.00" fill="#998b00">мне придется продолжать</text>
<text text-anchor="middle" x="1321.38" y="-57.95" font-family="Times,serif" font-size="14.00" fill="#998b00">искать чип. Удачи.</text>
</g>
<!-- Paul10&#45;&gt;Paul06 -->
<g id="edge35" class="edge">
<title>Paul10&#45;&gt;Paul06</title>
<path fill="none" stroke="#007b99" d="M1228,-306.18C1228,-411.91 1228,-582.27 1228,-659.39"/>
<polygon fill="#007b99" stroke="#007b99" points="1224.5,-659.07 1228,-669.07 1231.5,-659.07 1224.5,-659.07"/>
<text text-anchor="middle" x="1314.25" y="-488.57" font-family="Times,serif" font-size="14.00" fill="#007b99">Можно спросить у тебя</text>
<text text-anchor="middle" x="1314.25" y="-471.32" font-family="Times,serif" font-size="14.00" fill="#007b99">кое&#45;что?</text>
</g>
<!-- Paul13&#45;&gt;PaulEnd -->
<g id="edge41" class="edge">
<title>Paul13&#45;&gt;PaulEnd</title>
<path fill="none" stroke="#549900" d="M927.22,-184.58C936.88,-147.22 959.35,-83.8 1005.25,-54 1046.01,-27.53 1380.35,-20.9 1494.77,-19.4"/>
<polygon fill="#549900" stroke="#549900" points="1494.8,-22.89 1504.76,-19.27 1494.71,-15.89 1494.8,-22.89"/>
<text text-anchor="middle" x="1102.88" y="-83.83" font-family="Times,serif" font-size="14.00" fill="#549900">Спасибо. Мне нужно идти.</text>
<text text-anchor="middle" x="1102.88" y="-66.58" font-family="Times,serif" font-size="14.00" fill="#549900">До свиданья.</text>
</g>
<!-- Paul13&#45;&gt;Paul06 -->
<g id="edge40" class="edge">
<title>Paul13&#45;&gt;Paul06</title>
<path fill="none" stroke="#002899" d="M928.7,-245.16C950.65,-328.63 1012.66,-562.11 1023,-575.66 1028.24,-582.54 1113.23,-632.81 1172.12,-667.18"/>
<polygon fill="#002899" stroke="#002899" points="1169.92,-670.54 1180.33,-672.55 1173.45,-664.49 1169.92,-670.54"/>
<text text-anchor="middle" x="1123.5" y="-479.94" font-family="Times,serif" font-size="14.00" fill="#002899">Можно тебя еще спросить?</text>
</g>
<!-- LevelToReact -->
<g id="node26" class="node">
<title>LevelToReact</title>
<ellipse fill="#ffffff" stroke="#000000" cx="921" cy="-2147.62" rx="27" ry="18"/>
</g>
<!-- UpReact -->
<g id="node27" class="node">
<title>UpReact</title>
<ellipse fill="#ffffff" stroke="#000000" cx="243" cy="-2025.98" rx="27" ry="18"/>
</g>
<!-- UpReact&#45;&gt;ReactToLevel -->
<g id="edge50" class="edge">
<title>UpReact&#45;&gt;ReactToLevel</title>
<path fill="none" stroke="#555555" stroke-dasharray="1,5" d="M236.23,-2008.29C223.74,-1977.52 196.98,-1911.6 181.91,-1874.45"/>
<polygon fill="#555555" stroke="#555555" points="184.81,-1873.31 177.81,-1865.36 178.33,-1875.94 184.81,-1873.31"/>
</g>
<!-- DownReact -->
<g id="node28" class="node">
<title>DownReact</title>
<ellipse fill="#ffffff" stroke="#000000" cx="315" cy="-2025.98" rx="27" ry="18"/>
</g>
<!-- DownReact&#45;&gt;ReactToLevel -->
<g id="edge51" class="edge">
<title>DownReact&#45;&gt;ReactToLevel</title>
<path fill="none" stroke="#555555" stroke-dasharray="1,5" d="M307.41,-2008.33C300.8,-1994.61 290.49,-1974.93 279,-1959.33 253.49,-1924.7 217.87,-1889.87 194.62,-1868.51"/>
<polygon fill="#555555" stroke="#555555" points="197.41,-1866.41 187.66,-1862.28 192.71,-1871.59 197.41,-1866.41"/>
</g>
<!-- BottomReact -->
<g id="node29" class="node">
<title>BottomReact</title>
<ellipse fill="#ffffff" stroke="#000000" cx="1005" cy="-2220.62" rx="27" ry="18"/>
</g>
<!-- TopReact -->
<g id="node30" class="node">
<title>TopReact</title>
<ellipse fill="#ffffff" stroke="#000000" cx="1077" cy="-2220.62" rx="27" ry="18"/>
</g>
<!-- BigUpReact -->
<g id="node31" class="node">
<title>BigUpReact</title>
<ellipse fill="#ffffff" stroke="#000000" cx="27" cy="-2025.98" rx="27" ry="18"/>
</g>
<!-- BigUpReact&#45;&gt;ReactToLevel -->
<g id="edge52" class="edge">
<title>BigUpReact&#45;&gt;ReactToLevel</title>
<path fill="none" stroke="#555555" stroke-dasharray="1,5" d="M34.59,-2008.33C41.2,-1994.61 51.51,-1974.93 63,-1959.33 88.51,-1924.7 124.13,-1889.87 147.38,-1868.51"/>
<polygon fill="#555555" stroke="#555555" points="149.29,-1871.59 154.34,-1862.28 144.59,-1866.41 149.29,-1871.59"/>
</g>
<!-- BigDownReact -->
<g id="node32" class="node">
<title>BigDownReact</title>
<ellipse fill="#ffffff" stroke="#000000" cx="99" cy="-2025.98" rx="27" ry="18"/>
</g>
<!-- BigDownReact&#45;&gt;ReactToLevel -->
<g id="edge53" class="edge">
<title>BigDownReact&#45;&gt;ReactToLevel</title>
<path fill="none" stroke="#555555" stroke-dasharray="1,5" d="M105.77,-2008.29C118.26,-1977.52 145.02,-1911.6 160.09,-1874.45"/>
<polygon fill="#555555" stroke="#555555" points="163.67,-1875.94 164.19,-1865.36 157.19,-1873.31 163.67,-1875.94"/>
</g>
<!-- UpReactLevel -->
<g id="node33" class="node">
<title>UpReactLevel</title>
<ellipse fill="#ffffff" stroke="#000000" cx="861" cy="-2220.62" rx="27" ry="18"/>
</g>
<!-- UpReactLevel&#45;&gt;LevelToReact -->
<g id="edge54" class="edge">
<title>UpReactLevel&#45;&gt;LevelToReact</title>
<path fill="none" stroke="#555555" stroke-dasharray="1,5" d="M873.72,-2204.57C881.76,-2195.06 892.3,-2182.58 901.39,-2171.83"/>
<polygon fill="#555555" stroke="#555555" points="904.51,-2174.56 908.29,-2164.66 899.17,-2170.04 904.51,-2174.56"/>
</g>
<!-- DownReactLevel -->
<g id="node34" class="node">
<title>DownReactLevel</title>
<ellipse fill="#ffffff" stroke="#000000" cx="933" cy="-2220.62" rx="27" ry="18"/>
</g>
<!-- DownReactLevel&#45;&gt;LevelToReact -->
<g id="edge55" class="edge">
<title>DownReactLevel&#45;&gt;LevelToReact</title>
<path fill="none" stroke="#555555" stroke-dasharray="1,5" d="M930.1,-2202.44C928.77,-2194.59 927.16,-2185.09 925.67,-2176.28"/>
<polygon fill="#555555" stroke="#555555" points="929,-2175.93 923.88,-2166.65 922.09,-2177.1 929,-2175.93"/>
</g>
<!-- Goodbyes -->
<g id="node35" class="node">
<title>Goodbyes</title>
<ellipse fill="#ffffff" stroke="#000000" cx="1149" cy="-2220.62" rx="27" ry="18"/>
</g>
</g>
</svg>
