<?xml version="1.0" encoding="UTF-8" standalone="no"?>
<!DOCTYPE svg PUBLIC "-//W3C//DTD SVG 1.1//EN"
 "http://www.w3.org/Graphics/SVG/1.1/DTD/svg11.dtd">
<!-- Generated by graphviz version 8.0.5 (0)
 -->
<!-- Title: sdresser Pages: 1 -->
<svg width="813pt" height="140pt"
 viewBox="0.00 0.00 812.81 140.10" xmlns="http://www.w3.org/2000/svg" xmlns:xlink="http://www.w3.org/1999/xlink">
<g id="graph0" class="graph" transform="scale(1 1) rotate(0) translate(4 136.1)">
<title>sdresser</title>
<polygon fill="white" stroke="none" points="-4,4 -4,-136.1 808.81,-136.1 808.81,4 -4,4"/>
<!-- start -->
<g id="node1" class="node">
<title>start</title>
<ellipse fill="#ffffff" stroke="#000000" cx="419.12" cy="-114.1" rx="27" ry="18"/>
</g>
<!-- pickup_p_proc -->
<g id="node2" class="node">
<title>pickup_p_proc</title>
<ellipse fill="#ffffff" stroke="#000000" cx="139.12" cy="-30.05" rx="139.12" ry="30.05"/>
<text text-anchor="middle" x="139.12" y="-34" font-family="Times,serif" font-size="14.00">Все, что вы там видите &#45;</text>
<text text-anchor="middle" x="139.12" y="-16.75" font-family="Times,serif" font-size="14.00">это изношенная одежда.</text>
</g>
<!-- start&#45;&gt;pickup_p_proc -->
<g id="edge1" class="edge">
<title>start&#45;&gt;pickup_p_proc</title>
<path fill="none" stroke="#555555" stroke-dasharray="1,5" d="M394.76,-105.97C358.43,-95.32 288.12,-74.71 230.42,-57.81"/>
<polygon fill="#555555" stroke="#555555" points="231.76,-54.26 221.17,-54.8 229.79,-60.97 231.76,-54.26"/>
</g>
<!-- description_p_proc -->
<g id="node3" class="node">
<title>description_p_proc</title>
<ellipse fill="#ffffff" stroke="#000000" cx="419.12" cy="-30.05" rx="122.68" ry="30.05"/>
<text text-anchor="middle" x="419.12" y="-34" font-family="Times,serif" font-size="14.00">Этот комод выглядит</text>
<text text-anchor="middle" x="419.12" y="-16.75" font-family="Times,serif" font-size="14.00">ухоженным.</text>
</g>
<!-- start&#45;&gt;description_p_proc -->
<g id="edge2" class="edge">
<title>start&#45;&gt;description_p_proc</title>
<path fill="none" stroke="#555555" stroke-dasharray="1,5" d="M419.12,-95.7C419.12,-88.49 419.12,-79.8 419.12,-71.17"/>
<polygon fill="#555555" stroke="#555555" points="422.62,-71.38 419.12,-61.38 415.62,-71.38 422.62,-71.38"/>
</g>
<!-- look_at_p_proc -->
<g id="node4" class="node">
<title>look_at_p_proc</title>
<ellipse fill="#ffffff" stroke="#000000" cx="682.12" cy="-30.05" rx="122.68" ry="30.05"/>
<text text-anchor="middle" x="682.12" y="-34" font-family="Times,serif" font-size="14.00">Этот комод выглядит</text>
<text text-anchor="middle" x="682.12" y="-16.75" font-family="Times,serif" font-size="14.00">ухоженным.</text>
</g>
<!-- start&#45;&gt;look_at_p_proc -->
<g id="edge3" class="edge">
<title>start&#45;&gt;look_at_p_proc</title>
<path fill="none" stroke="#555555" stroke-dasharray="1,5" d="M440.2,-102.45C445.04,-100.21 450.21,-97.96 455.12,-96.1 497.39,-80.19 545.31,-65.93 586.2,-54.84"/>
<polygon fill="#555555" stroke="#555555" points="586.96,-57.99 595.71,-52.02 585.14,-51.23 586.96,-57.99"/>
</g>
<!-- chairend -->
<g id="node5" class="node">
<title>chairend</title>
<ellipse fill="#ffffff" stroke="#000000" cx="491.12" cy="-114.1" rx="27" ry="18"/>
</g>
</g>
</svg>
