<?xml version="1.0" encoding="UTF-8" standalone="no"?>
<!DOCTYPE svg PUBLIC "-//W3C//DTD SVG 1.1//EN"
 "http://www.w3.org/Graphics/SVG/1.1/DTD/svg11.dtd">
<!-- Generated by graphviz version 8.0.5 (0)
 -->
<!-- Title: tangler Pages: 1 -->
<svg width="2460pt" height="3268pt"
 viewBox="0.00 0.00 2459.78 3268.38" xmlns="http://www.w3.org/2000/svg" xmlns:xlink="http://www.w3.org/1999/xlink">
<g id="graph0" class="graph" transform="scale(1 1) rotate(0) translate(4 3264.38)">
<title>tangler</title>
<polygon fill="white" stroke="none" points="-4,4 -4,-3264.38 2455.78,-3264.38 2455.78,4 -4,4"/>
<!-- start -->
<g id="node1" class="node">
<title>start</title>
<ellipse fill="#ffffff" stroke="#000000" cx="601.03" cy="-3193.74" rx="27" ry="18"/>
</g>
<!-- description_p_proc -->
<g id="node2" class="node">
<title>description_p_proc</title>
<ellipse fill="#ffffff" stroke="#000000" cx="601.03" cy="-3047.84" rx="124.8" ry="42.25"/>
<text text-anchor="middle" x="601.03" y="-3060.42" font-family="Times,serif" font-size="14.00">Вы видите сильного и</text>
<text text-anchor="middle" x="601.03" y="-3043.17" font-family="Times,serif" font-size="14.00">уверенного в себе</text>
<text text-anchor="middle" x="601.03" y="-3025.92" font-family="Times,serif" font-size="14.00">мужчину.</text>
</g>
<!-- start&#45;&gt;description_p_proc -->
<g id="edge1" class="edge">
<title>start&#45;&gt;description_p_proc</title>
<path fill="none" stroke="#555555" stroke-dasharray="1,5" d="M601.03,-3175.38C601.03,-3157.07 601.03,-3127.31 601.03,-3101.25"/>
<polygon fill="#555555" stroke="#555555" points="604.53,-3101.35 601.03,-3091.35 597.53,-3101.35 604.53,-3101.35"/>
</g>
<!-- look_at_p_proc -->
<g id="node3" class="node">
<title>look_at_p_proc</title>
<ellipse fill="#ffffff" stroke="#000000" cx="771.03" cy="-3193.74" rx="124.8" ry="66.64"/>
<text text-anchor="middle" x="771.03" y="-3223.56" font-family="Times,serif" font-size="14.00">Вы видите сильного и</text>
<text text-anchor="middle" x="771.03" y="-3206.31" font-family="Times,serif" font-size="14.00">уверенного в себе</text>
<text text-anchor="middle" x="771.03" y="-3189.06" font-family="Times,serif" font-size="14.00">мужчину.</text>
<text text-anchor="middle" x="771.03" y="-3171.81" font-family="Times,serif" font-size="14.00">&#45;&#45;&#45;</text>
<text text-anchor="middle" x="771.03" y="-3154.56" font-family="Times,serif" font-size="14.00">Вы видите Танглера.</text>
</g>
<!-- map_enter_p_proc -->
<g id="node4" class="node">
<title>map_enter_p_proc</title>
<ellipse fill="#ffffff" stroke="#000000" cx="941.03" cy="-3193.74" rx="27" ry="18"/>
</g>
<!-- critter_p_proc -->
<g id="node5" class="node">
<title>critter_p_proc</title>
<ellipse fill="#ffffff" stroke="#000000" cx="1013.03" cy="-3193.74" rx="27" ry="18"/>
</g>
<!-- damage_p_proc -->
<g id="node6" class="node">
<title>damage_p_proc</title>
<ellipse fill="#ffffff" stroke="#000000" cx="1085.03" cy="-3193.74" rx="27" ry="18"/>
</g>
<!-- pickup_p_proc -->
<g id="node7" class="node">
<title>pickup_p_proc</title>
<ellipse fill="#ffffff" stroke="#000000" cx="1157.03" cy="-3193.74" rx="27" ry="18"/>
</g>
<!-- destroy_p_proc -->
<g id="node8" class="node">
<title>destroy_p_proc</title>
<ellipse fill="#ffffff" stroke="#000000" cx="1229.03" cy="-3193.74" rx="27" ry="18"/>
</g>
<!-- talk_p_proc -->
<g id="node9" class="node">
<title>talk_p_proc</title>
<ellipse fill="#ffffff" stroke="#000000" cx="1301.03" cy="-3193.74" rx="27" ry="18"/>
</g>
<!-- Node000 -->
<g id="node10" class="node">
<title>Node000</title>
<ellipse fill="#ffffff" stroke="#000000" cx="934.03" cy="-2969.59" rx="27" ry="18"/>
</g>
<!-- talk_p_proc&#45;&gt;Node000 -->
<g id="edge2" class="edge">
<title>talk_p_proc&#45;&gt;Node000</title>
<path fill="none" stroke="#555555" stroke-dasharray="1,5" d="M1295.16,-3175.75C1289.41,-3161.24 1279.42,-3140.64 1265.03,-3127.09 1176.45,-3043.67 1035.27,-2997.5 969.68,-2979.52"/>
<polygon fill="#555555" stroke="#555555" points="970.65,-2975.89 960.08,-2976.68 968.84,-2982.65 970.65,-2975.89"/>
</g>
<!-- Node016 -->
<g id="node11" class="node">
<title>Node016</title>
<ellipse fill="#ffffff" stroke="#000000" cx="1476.03" cy="-3047.84" rx="130.11" ry="42.25"/>
<text text-anchor="middle" x="1476.03" y="-3060.42" font-family="Times,serif" font-size="14.00">Не мешай, нам нужно</text>
<text text-anchor="middle" x="1476.03" y="-3043.17" font-family="Times,serif" font-size="14.00">несколько дней, чтобы</text>
<text text-anchor="middle" x="1476.03" y="-3025.92" font-family="Times,serif" font-size="14.00">собраться.</text>
</g>
<!-- talk_p_proc&#45;&gt;Node016 -->
<g id="edge3" class="edge">
<title>talk_p_proc&#45;&gt;Node016</title>
<path fill="none" stroke="#555555" stroke-dasharray="1,5" d="M1317.5,-3179.2C1340.89,-3159.96 1384.88,-3123.79 1420.6,-3094.43"/>
<polygon fill="#555555" stroke="#555555" points="1422.51,-3096.56 1428.01,-3087.51 1418.07,-3091.15 1422.51,-3096.56"/>
</g>
<!-- Node006 -->
<g id="node12" class="node">
<title>Node006</title>
<ellipse fill="#ffffff" stroke="#000000" cx="1301.03" cy="-3047.84" rx="27" ry="18"/>
</g>
<!-- talk_p_proc&#45;&gt;Node006 -->
<g id="edge4" class="edge">
<title>talk_p_proc&#45;&gt;Node006</title>
<path fill="none" stroke="#555555" stroke-dasharray="1,5" d="M1301.03,-3175.38C1301.03,-3150.96 1301.03,-3106.2 1301.03,-3076.99"/>
<polygon fill="#555555" stroke="#555555" points="1304.53,-3077.26 1301.03,-3067.26 1297.53,-3077.26 1304.53,-3077.26"/>
</g>
<!-- Node001 -->
<g id="node13" class="node">
<title>Node001</title>
<ellipse fill="#ffffff" stroke="#000000" cx="334.03" cy="-987.39" rx="148.67" ry="103.24"/>
<text text-anchor="middle" x="334.03" y="-1043.09" font-family="Times,serif" font-size="14.00">Так&#45;так. Еще один брамин</text>
<text text-anchor="middle" x="334.03" y="-1025.84" font-family="Times,serif" font-size="14.00">пришел на бойню</text>
<text text-anchor="middle" x="334.03" y="-1008.59" font-family="Times,serif" font-size="14.00">самостоятельно.</text>
<text text-anchor="middle" x="334.03" y="-991.34" font-family="Times,serif" font-size="14.00">Похвально. Кто ты?</text>
<text text-anchor="middle" x="334.03" y="-974.09" font-family="Times,serif" font-size="14.00">&#45;&#45;&#45;</text>
<text text-anchor="middle" x="334.03" y="-956.84" font-family="Times,serif" font-size="14.00">Меня зовут </text>
<text text-anchor="middle" x="334.03" y="-939.59" font-family="Times,serif" font-size="14.00">&#45;&#45;&#45;</text>
<text text-anchor="middle" x="334.03" y="-922.34" font-family="Times,serif" font-size="14.00">. А кто ты?</text>
</g>
<!-- Node000&#45;&gt;Node001 -->
<g id="edge5" class="edge">
<title>Node000&#45;&gt;Node001</title>
<path fill="none" stroke="#555555" stroke-dasharray="1,5" d="M907.02,-2967.45C799.02,-2962.17 404.03,-2935.68 404.03,-2830.61 404.03,-2830.61 404.03,-2830.61 404.03,-1686.1 404.03,-1478.76 373.05,-1238.49 352.31,-1100.88"/>
<polygon fill="#555555" stroke="#555555" points="355.67,-1100.7 350.71,-1091.33 348.75,-1101.75 355.67,-1100.7"/>
</g>
<!-- Node007 -->
<g id="node19" class="node">
<title>Node007</title>
<ellipse fill="#ffffff" stroke="#000000" cx="1499.03" cy="-2903.54" rx="96.98" ry="18"/>
<text text-anchor="middle" x="1499.03" y="-2898.87" font-family="Times,serif" font-size="14.00">Что тебе нужно?</text>
</g>
<!-- Node006&#45;&gt;Node007 -->
<g id="edge13" class="edge">
<title>Node006&#45;&gt;Node007</title>
<path fill="none" stroke="#555555" stroke-dasharray="1,5" d="M1312.72,-3031.35C1319.33,-3023.15 1328.06,-3013.24 1337.03,-3005.59 1374.47,-2973.71 1422.92,-2944.84 1457.05,-2926.2"/>
<polygon fill="#555555" stroke="#555555" points="1458.57,-2928.82 1465.71,-2920.99 1455.25,-2922.66 1458.57,-2928.82"/>
</g>
<!-- Node005 -->
<g id="node14" class="node">
<title>Node005</title>
<ellipse fill="#ffffff" stroke="#000000" cx="618.03" cy="-42.25" rx="27" ry="18"/>
</g>
<!-- Node001&#45;&gt;Node005 -->
<g id="edge6" class="edge">
<title>Node001&#45;&gt;Node005</title>
<path fill="none" stroke="#001d99" d="M334.4,-883.89C335.56,-668.17 340.4,-184.64 360.53,-155 410.95,-80.77 522.06,-55.51 580.47,-47.18"/>
<polygon fill="#001d99" stroke="#001d99" points="580.62,-50.55 590.07,-45.77 579.7,-43.61 580.62,-50.55"/>
<text text-anchor="middle" x="429.28" y="-319.6" font-family="Times,serif" font-size="14.00" fill="#001d99">Я всего лишь хочу</text>
<text text-anchor="middle" x="429.28" y="-302.35" font-family="Times,serif" font-size="14.00" fill="#001d99">избавить от вас</text>
<text text-anchor="middle" x="429.28" y="-285.1" font-family="Times,serif" font-size="14.00" fill="#001d99">Могильник.</text>
</g>
<!-- Node999 -->
<g id="node15" class="node">
<title>Node999</title>
<ellipse fill="#ffffff" stroke="#000000" cx="1543.03" cy="-307.03" rx="27" ry="18"/>
</g>
<!-- Node001&#45;&gt;Node999 -->
<g id="edge7" class="edge">
<title>Node001&#45;&gt;Node999</title>
<path fill="none" stroke="#4a9900" d="M359.78,-885.47C387.65,-798.55 441.22,-677.63 535.03,-615.81 571.55,-591.74 698.27,-626.78 731.03,-597.81 772.17,-561.42 714.98,-512.08 757.28,-477.06 786.68,-452.72 1410.69,-477.63 1444.03,-459.06 1492.18,-432.22 1520.89,-371.01 1534.15,-335.3"/>
<polygon fill="#4a9900" stroke="#4a9900" points="1537.72,-336.7 1537.77,-326.1 1531.13,-334.35 1537.72,-336.7"/>
<text text-anchor="middle" x="845.41" y="-541.38" font-family="Times,serif" font-size="14.00" fill="#4a9900">Просто мимо проходил.</text>
<text text-anchor="middle" x="845.41" y="-524.13" font-family="Times,serif" font-size="14.00" fill="#4a9900">Пока.</text>
</g>
<!-- Node002 -->
<g id="node16" class="node">
<title>Node002</title>
<ellipse fill="#ffffff" stroke="#000000" cx="155.03" cy="-307.03" rx="155.03" ry="54.45"/>
<text text-anchor="middle" x="155.03" y="-328.23" font-family="Times,serif" font-size="14.00">Таким тупоголовым, как</text>
<text text-anchor="middle" x="155.03" y="-310.98" font-family="Times,serif" font-size="14.00">ты, прямая дорога к</text>
<text text-anchor="middle" x="155.03" y="-293.73" font-family="Times,serif" font-size="14.00">Клинкам. Вали отсюда и не</text>
<text text-anchor="middle" x="155.03" y="-276.48" font-family="Times,serif" font-size="14.00">возвращайся.</text>
</g>
<!-- Node001&#45;&gt;Node002 -->
<g id="edge8" class="edge">
<title>Node001&#45;&gt;Node002</title>
<path fill="none" stroke="#990077" d="M306.56,-885.84C285.23,-807.44 255.04,-695.79 229.28,-597.81 208.93,-520.38 186.16,-431.12 171.27,-372.36"/>
<polygon fill="#990077" stroke="#990077" points="174.43,-371.59 168.59,-362.75 167.65,-373.31 174.43,-371.59"/>
<text text-anchor="middle" x="281.41" y="-532.76" font-family="Times,serif" font-size="14.00" fill="#990077">Так&#45;так? Ы&#45;ы!</text>
</g>
<!-- Node003 -->
<g id="node17" class="node">
<title>Node003</title>
<ellipse fill="#ffffff" stroke="#000000" cx="2263.03" cy="-2903.54" rx="149.73" ry="30.05"/>
<text text-anchor="middle" x="2263.03" y="-2907.49" font-family="Times,serif" font-size="14.00">Я &#45; Танглер. Я веду за</text>
<text text-anchor="middle" x="2263.03" y="-2890.24" font-family="Times,serif" font-size="14.00">собой всех Потрошителей.</text>
</g>
<!-- Node004 -->
<g id="node18" class="node">
<title>Node004</title>
<ellipse fill="#ffffff" stroke="#000000" cx="2121.03" cy="-2426.35" rx="160.87" ry="359.39"/>
<text text-anchor="middle" x="2121.03" y="-2663.18" font-family="Times,serif" font-size="14.00">Мы считаем, что если есть</text>
<text text-anchor="middle" x="2121.03" y="-2645.93" font-family="Times,serif" font-size="14.00">возможность, то надо ей</text>
<text text-anchor="middle" x="2121.03" y="-2628.68" font-family="Times,serif" font-size="14.00">воспользоваться. Есть</text>
<text text-anchor="middle" x="2121.03" y="-2611.43" font-family="Times,serif" font-size="14.00">только мы и все</text>
<text text-anchor="middle" x="2121.03" y="-2594.18" font-family="Times,serif" font-size="14.00">остальные. Если не</text>
<text text-anchor="middle" x="2121.03" y="-2576.93" font-family="Times,serif" font-size="14.00">возьмём мы &#45; возьмут наши</text>
<text text-anchor="middle" x="2121.03" y="-2559.68" font-family="Times,serif" font-size="14.00">враги. А врагов</text>
<text text-anchor="middle" x="2121.03" y="-2542.43" font-family="Times,serif" font-size="14.00">останавливает только</text>
<text text-anchor="middle" x="2121.03" y="-2525.18" font-family="Times,serif" font-size="14.00">страх. Только страх,</text>
<text text-anchor="middle" x="2121.03" y="-2507.93" font-family="Times,serif" font-size="14.00">животный страх ужасной</text>
<text text-anchor="middle" x="2121.03" y="-2490.68" font-family="Times,serif" font-size="14.00">смерти заставляет</text>
<text text-anchor="middle" x="2121.03" y="-2473.43" font-family="Times,serif" font-size="14.00">остальных держаться от</text>
<text text-anchor="middle" x="2121.03" y="-2456.18" font-family="Times,serif" font-size="14.00">нас подальше. Потому что</text>
<text text-anchor="middle" x="2121.03" y="-2438.93" font-family="Times,serif" font-size="14.00">каждый в Могильнике</text>
<text text-anchor="middle" x="2121.03" y="-2421.68" font-family="Times,serif" font-size="14.00">знает: перейдёшь дорогу</text>
<text text-anchor="middle" x="2121.03" y="-2404.43" font-family="Times,serif" font-size="14.00">Потрошителям &#45; целым тебя</text>
<text text-anchor="middle" x="2121.03" y="-2387.18" font-family="Times,serif" font-size="14.00">больше никто не найдёт.</text>
<text text-anchor="middle" x="2121.03" y="-2369.93" font-family="Times,serif" font-size="14.00">Если повезёт, то найдут</text>
<text text-anchor="middle" x="2121.03" y="-2352.68" font-family="Times,serif" font-size="14.00">лишь куски твоей плоти,</text>
<text text-anchor="middle" x="2121.03" y="-2335.43" font-family="Times,serif" font-size="14.00">развешенные в самых</text>
<text text-anchor="middle" x="2121.03" y="-2318.18" font-family="Times,serif" font-size="14.00">необычных местах</text>
<text text-anchor="middle" x="2121.03" y="-2300.93" font-family="Times,serif" font-size="14.00">Могильника.</text>
<text text-anchor="middle" x="2121.03" y="-2283.68" font-family="Times,serif" font-size="14.00">&#45;&#45;&#45;</text>
<text text-anchor="middle" x="2121.03" y="-2266.43" font-family="Times,serif" font-size="14.00">Тебе достаточно знать,</text>
<text text-anchor="middle" x="2121.03" y="-2249.18" font-family="Times,serif" font-size="14.00">что не стоит переходить</text>
<text text-anchor="middle" x="2121.03" y="-2231.93" font-family="Times,serif" font-size="14.00">нам дорогу. Все наши</text>
<text text-anchor="middle" x="2121.03" y="-2214.68" font-family="Times,serif" font-size="14.00">враги погибают, и</text>
<text text-anchor="middle" x="2121.03" y="-2197.43" font-family="Times,serif" font-size="14.00">погибают страшной</text>
<text text-anchor="middle" x="2121.03" y="-2180.18" font-family="Times,serif" font-size="14.00">смертью.</text>
</g>
<!-- Node003&#45;&gt;Node004 -->
<g id="edge9" class="edge">
<title>Node003&#45;&gt;Node004</title>
<path fill="none" stroke="#00998f" d="M2257.26,-2873.41C2253.17,-2853.64 2247.31,-2826.98 2241.03,-2803.74 2234.28,-2778.75 2226.91,-2752.95 2219.26,-2727.12"/>
<polygon fill="#00998f" stroke="#00998f" points="2222.4,-2726.42 2216.19,-2717.83 2215.69,-2728.42 2222.4,-2726.42"/>
<text text-anchor="middle" x="2352.41" y="-2833.56" font-family="Times,serif" font-size="14.00" fill="#00998f">Расскажи мне подробнее о</text>
<text text-anchor="middle" x="2352.41" y="-2816.31" font-family="Times,serif" font-size="14.00" fill="#00998f">Потрошителях.</text>
</g>
<!-- Node004&#45;&gt;Node005 -->
<g id="edge11" class="edge">
<title>Node004&#45;&gt;Node005</title>
<path fill="none" stroke="#360099" d="M2118.99,-2066.77C2118.46,-1946.42 2118.03,-1811.45 2118.03,-1688.1 2118.03,-1688.1 2118.03,-1688.1 2118.03,-306.03 2118.03,-76.03 1336.52,-99.79 1107.03,-84.5 938.36,-73.26 737.4,-54.66 655.52,-46.87"/>
<polygon fill="#360099" stroke="#360099" points="656.06,-43.31 645.78,-45.84 655.4,-50.27 656.06,-43.31"/>
<text text-anchor="middle" x="2209.53" y="-1008.59" font-family="Times,serif" font-size="14.00" fill="#360099">Как&#45;то неубедительно.</text>
<text text-anchor="middle" x="2209.53" y="-991.34" font-family="Times,serif" font-size="14.00" fill="#360099">Давай&#45;ка проверим,</text>
<text text-anchor="middle" x="2209.53" y="-974.09" font-family="Times,serif" font-size="14.00" fill="#360099">настолько ли вы крутые,</text>
<text text-anchor="middle" x="2209.53" y="-956.84" font-family="Times,serif" font-size="14.00" fill="#360099">как ты говоришь.</text>
</g>
<!-- Node004&#45;&gt;Node999 -->
<g id="edge12" class="edge">
<title>Node004&#45;&gt;Node999</title>
<path fill="none" stroke="#009909" d="M2061,-2092.51C1961.88,-1545.2 1772.78,-511.75 1752.03,-477.06 1708.3,-403.92 1620.62,-349.12 1573.94,-323.71"/>
<polygon fill="#009909" stroke="#009909" points="1575.83,-320.22 1565.36,-318.59 1572.53,-326.39 1575.83,-320.22"/>
<text text-anchor="middle" x="2026.28" y="-1432.67" font-family="Times,serif" font-size="14.00" fill="#009909">Что же, буду иметь в</text>
<text text-anchor="middle" x="2026.28" y="-1415.42" font-family="Times,serif" font-size="14.00" fill="#009909">виду.</text>
</g>
<!-- Node004&#45;&gt;Node007 -->
<g id="edge10" class="edge">
<title>Node004&#45;&gt;Node007</title>
<path fill="none" stroke="#996200" d="M2019.9,-2706.34C2000.53,-2736.03 1977.74,-2763.46 1951.03,-2785.74 1927.35,-2805.49 1911.76,-2790.25 1884.03,-2803.74 1849.57,-2820.52 1850.4,-2840.72 1815.03,-2855.49 1748.75,-2883.18 1668.66,-2894.89 1605.69,-2899.71"/>
<polygon fill="#996200" stroke="#996200" points="1605.67,-2896.27 1595.94,-2900.48 1606.17,-2903.26 1605.67,-2896.27"/>
<text text-anchor="middle" x="1951.53" y="-2842.19" font-family="Times,serif" font-size="14.00" fill="#996200">Я хочу задать ещё</text>
<text text-anchor="middle" x="1951.53" y="-2824.94" font-family="Times,serif" font-size="14.00" fill="#996200">несколько других</text>
<text text-anchor="middle" x="1951.53" y="-2807.69" font-family="Times,serif" font-size="14.00" fill="#996200">вопросов.</text>
</g>
<!-- Node007&#45;&gt;Node005 -->
<g id="edge16" class="edge">
<title>Node007&#45;&gt;Node005</title>
<path fill="none" stroke="#7d9900" d="M1403.45,-2900.13C1281.87,-2895.89 1079.47,-2884.6 1011.03,-2855.49 741.81,-2740.99 511.03,-2719.91 511.03,-2427.35 511.03,-2427.35 511.03,-2427.35 511.03,-306.03 511.03,-212.41 570.01,-112.96 600.39,-67.94"/>
<polygon fill="#7d9900" stroke="#7d9900" points="603.8,-70.16 606.58,-59.93 598.03,-66.19 603.8,-70.16"/>
<text text-anchor="middle" x="579.28" y="-1441.3" font-family="Times,serif" font-size="14.00" fill="#7d9900">Я всего лишь хочу</text>
<text text-anchor="middle" x="579.28" y="-1424.05" font-family="Times,serif" font-size="14.00" fill="#7d9900">избавить от вас</text>
<text text-anchor="middle" x="579.28" y="-1406.8" font-family="Times,serif" font-size="14.00" fill="#7d9900">Могильник.</text>
</g>
<!-- Node007&#45;&gt;Node999 -->
<g id="edge17" class="edge">
<title>Node007&#45;&gt;Node999</title>
<path fill="none" stroke="#880099" d="M1530.7,-2886.25C1543.42,-2878.39 1557.34,-2867.95 1567.03,-2855.49 1587.35,-2829.38 1585.99,-2818.07 1593.03,-2785.74 1610.08,-2707.5 1592.87,-2127.72 1645.03,-2066.97 1668.49,-2039.64 1701.58,-2077.12 1724.03,-2048.97 1734.84,-2035.42 1812.85,-708.26 1715.03,-477.06 1685.74,-407.8 1612.89,-352.53 1572.02,-325.7"/>
<polygon fill="#880099" stroke="#880099" points="1574.15,-322.27 1563.84,-319.81 1570.36,-328.16 1574.15,-322.27"/>
<text text-anchor="middle" x="1842.41" y="-1691.05" font-family="Times,serif" font-size="14.00" fill="#880099">Просто мимо проходил.</text>
<text text-anchor="middle" x="1842.41" y="-1673.8" font-family="Times,serif" font-size="14.00" fill="#880099">Пока.</text>
</g>
<!-- Node007&#45;&gt;Node004 -->
<g id="edge15" class="edge">
<title>Node007&#45;&gt;Node004</title>
<path fill="none" stroke="#005099" d="M1594.41,-2899.86C1735.78,-2895 1987.7,-2882.62 2019.03,-2855.49 2024.42,-2850.82 2035.34,-2812.47 2048.11,-2760.48"/>
<polygon fill="#005099" stroke="#005099" points="2051.72,-2761.45 2050.69,-2750.91 2044.92,-2759.8 2051.72,-2761.45"/>
<text text-anchor="middle" x="2135.41" y="-2833.56" font-family="Times,serif" font-size="14.00" fill="#005099">Расскажи мне подробнее о</text>
<text text-anchor="middle" x="2135.41" y="-2816.31" font-family="Times,serif" font-size="14.00" fill="#005099">Потрошителях.</text>
</g>
<!-- Node009 -->
<g id="node20" class="node">
<title>Node009</title>
<ellipse fill="#ffffff" stroke="#000000" cx="1120.03" cy="-2426.35" rx="156.62" ry="237.41"/>
<text text-anchor="middle" x="1120.03" y="-2576.93" font-family="Times,serif" font-size="14.00">Поэтому Потрошители идут</text>
<text text-anchor="middle" x="1120.03" y="-2559.68" font-family="Times,serif" font-size="14.00">за мной. Этой рукой я</text>
<text text-anchor="middle" x="1120.03" y="-2542.43" font-family="Times,serif" font-size="14.00">могу выдернуть хребет у</text>
<text text-anchor="middle" x="1120.03" y="-2525.18" font-family="Times,serif" font-size="14.00">брамина, сломать твой</text>
<text text-anchor="middle" x="1120.03" y="-2507.93" font-family="Times,serif" font-size="14.00">череп одним движением</text>
<text text-anchor="middle" x="1120.03" y="-2490.68" font-family="Times,serif" font-size="14.00">руки или вырвать твоё</text>
<text text-anchor="middle" x="1120.03" y="-2473.43" font-family="Times,serif" font-size="14.00">сердце из груди прямо</text>
<text text-anchor="middle" x="1120.03" y="-2456.18" font-family="Times,serif" font-size="14.00">сейчас. Поэтому не</text>
<text text-anchor="middle" x="1120.03" y="-2438.93" font-family="Times,serif" font-size="14.00">доставай меня и моих</text>
<text text-anchor="middle" x="1120.03" y="-2421.68" font-family="Times,serif" font-size="14.00">людей, а то познакомишься</text>
<text text-anchor="middle" x="1120.03" y="-2404.43" font-family="Times,serif" font-size="14.00">с ней поближе.</text>
<text text-anchor="middle" x="1120.03" y="-2387.18" font-family="Times,serif" font-size="14.00">&#45;&#45;&#45;</text>
<text text-anchor="middle" x="1120.03" y="-2369.93" font-family="Times,serif" font-size="14.00">Это не твоё дело. Знай,</text>
<text text-anchor="middle" x="1120.03" y="-2352.68" font-family="Times,serif" font-size="14.00">что этой рукой я могу не</text>
<text text-anchor="middle" x="1120.03" y="-2335.43" font-family="Times,serif" font-size="14.00">напрягаясь выбить тебе</text>
<text text-anchor="middle" x="1120.03" y="-2318.18" font-family="Times,serif" font-size="14.00">все зубы и вырвать твой</text>
<text text-anchor="middle" x="1120.03" y="-2300.93" font-family="Times,serif" font-size="14.00">наглый язык, если будешь</text>
<text text-anchor="middle" x="1120.03" y="-2283.68" font-family="Times,serif" font-size="14.00">продолжать задавать</text>
<text text-anchor="middle" x="1120.03" y="-2266.43" font-family="Times,serif" font-size="14.00">вопросы о ней.</text>
</g>
<!-- Node007&#45;&gt;Node009 -->
<g id="edge14" class="edge">
<title>Node007&#45;&gt;Node009</title>
<path fill="none" stroke="#990024" d="M1404.5,-2899.11C1328.74,-2894.33 1230.58,-2882.88 1202.28,-2855.49 1187.19,-2840.88 1169.73,-2758.47 1154.78,-2669.79"/>
<polygon fill="#990024" stroke="#990024" points="1158.07,-2669.23 1152.97,-2659.94 1151.17,-2670.38 1158.07,-2669.23"/>
<text text-anchor="middle" x="1299.41" y="-2842.19" font-family="Times,serif" font-size="14.00" fill="#990024">Меня интересует твоя</text>
<text text-anchor="middle" x="1299.41" y="-2824.94" font-family="Times,serif" font-size="14.00" fill="#990024">рука. Она выглядит очень</text>
<text text-anchor="middle" x="1299.41" y="-2807.69" font-family="Times,serif" font-size="14.00" fill="#990024">необычно.</text>
</g>
<!-- Node008 -->
<g id="node21" class="node">
<title>Node008</title>
<ellipse fill="#ffffff" stroke="#000000" cx="1798.03" cy="-2426.35" rx="143.9" ry="54.45"/>
<text text-anchor="middle" x="1798.03" y="-2447.55" font-family="Times,serif" font-size="14.00">Таким, как ты, не стоит</text>
<text text-anchor="middle" x="1798.03" y="-2430.3" font-family="Times,serif" font-size="14.00">тратить скудные ресурсы</text>
<text text-anchor="middle" x="1798.03" y="-2413.05" font-family="Times,serif" font-size="14.00">города. Убить это</text>
<text text-anchor="middle" x="1798.03" y="-2395.8" font-family="Times,serif" font-size="14.00">безмозглое животное.</text>
</g>
<!-- Node007&#45;&gt;Node008 -->
<g id="edge18" class="edge">
<title>Node007&#45;&gt;Node008</title>
<path fill="none" stroke="#00995c" d="M1572.02,-2891.32C1596.19,-2884.45 1621.59,-2873.36 1640.03,-2855.49 1742.52,-2756.18 1779,-2584.67 1791.63,-2491.73"/>
<polygon fill="#00995c" stroke="#00995c" points="1795.2,-2492.43 1793.02,-2482.06 1788.26,-2491.53 1795.2,-2492.43"/>
<text text-anchor="middle" x="1745.03" y="-2824.94" font-family="Times,serif" font-size="14.00" fill="#00995c">Сьто тебе нузьно?</text>
</g>
<!-- Node009&#45;&gt;Node005 -->
<g id="edge21" class="edge">
<title>Node009&#45;&gt;Node005</title>
<path fill="none" stroke="#2a9900" d="M1050.69,-2213.01C957.13,-1939.43 786.37,-1485.98 649.03,-1376.97 616.4,-1351.07 583.52,-1391.14 557.03,-1358.97 472.41,-1256.19 592.24,-251.55 614.56,-70.98"/>
<polygon fill="#2a9900" stroke="#2a9900" points="618.13,-71.65 615.89,-61.29 611.18,-70.78 618.13,-71.65"/>
<text text-anchor="middle" x="648.53" y="-1008.59" font-family="Times,serif" font-size="14.00" fill="#2a9900">Как&#45;то неубедительно.</text>
<text text-anchor="middle" x="648.53" y="-991.34" font-family="Times,serif" font-size="14.00" fill="#2a9900">Давай&#45;ка проверим,</text>
<text text-anchor="middle" x="648.53" y="-974.09" font-family="Times,serif" font-size="14.00" fill="#2a9900">настолько ли вы крутые,</text>
<text text-anchor="middle" x="648.53" y="-956.84" font-family="Times,serif" font-size="14.00" fill="#2a9900">как ты говоришь.</text>
</g>
<!-- Node009&#45;&gt;Node999 -->
<g id="edge22" class="edge">
<title>Node009&#45;&gt;Node999</title>
<path fill="none" stroke="#990057" d="M1222.77,-2246.41C1256.02,-2184.88 1291.62,-2114.88 1320.03,-2048.97 1448.18,-1751.74 1470.97,-1672.08 1553.03,-1358.97 1640.32,-1025.92 1664.89,-940.6 1697.03,-597.81 1702.04,-544.37 1716.41,-527.1 1697.03,-477.06 1671.53,-411.19 1607.09,-355.23 1570.15,-327.22"/>
<polygon fill="#990057" stroke="#990057" points="1572.51,-323.87 1562.4,-320.72 1568.33,-329.49 1572.51,-323.87"/>
<text text-anchor="middle" x="1625.28" y="-1432.67" font-family="Times,serif" font-size="14.00" fill="#990057">Что же, буду иметь в</text>
<text text-anchor="middle" x="1625.28" y="-1415.42" font-family="Times,serif" font-size="14.00" fill="#990057">виду.</text>
</g>
<!-- Node009&#45;&gt;Node007 -->
<g id="edge20" class="edge">
<title>Node009&#45;&gt;Node007</title>
<path fill="none" stroke="#020099" d="M1023.71,-2614.17C995.4,-2697.27 985.64,-2790.74 1044.03,-2855.49 1067,-2880.95 1266.08,-2893.48 1393.19,-2898.93"/>
<polygon fill="#020099" stroke="#020099" points="1392.98,-2902.46 1403.11,-2899.39 1393.27,-2895.47 1392.98,-2902.46"/>
<text text-anchor="middle" x="1111.53" y="-2842.19" font-family="Times,serif" font-size="14.00" fill="#020099">Я хочу задать ещё</text>
<text text-anchor="middle" x="1111.53" y="-2824.94" font-family="Times,serif" font-size="14.00" fill="#020099">несколько других</text>
<text text-anchor="middle" x="1111.53" y="-2807.69" font-family="Times,serif" font-size="14.00" fill="#020099">вопросов.</text>
</g>
<!-- Node010 -->
<g id="node22" class="node">
<title>Node010</title>
<ellipse fill="#ffffff" stroke="#000000" cx="1120.03" cy="-1687.1" rx="151.32" ry="188.62"/>
<text text-anchor="middle" x="1120.03" y="-1803.17" font-family="Times,serif" font-size="14.00">Я смотрю, что ты</text>
<text text-anchor="middle" x="1120.03" y="-1785.92" font-family="Times,serif" font-size="14.00">отличаешься от прочего</text>
<text text-anchor="middle" x="1120.03" y="-1768.67" font-family="Times,serif" font-size="14.00">мусора с Пустошей. Мозги</text>
<text text-anchor="middle" x="1120.03" y="-1751.42" font-family="Times,serif" font-size="14.00">у тебя есть. Эта рука</text>
<text text-anchor="middle" x="1120.03" y="-1734.17" font-family="Times,serif" font-size="14.00">принадлежала моему</text>
<text text-anchor="middle" x="1120.03" y="-1716.92" font-family="Times,serif" font-size="14.00">предку. Почти все мы</text>
<text text-anchor="middle" x="1120.03" y="-1699.67" font-family="Times,serif" font-size="14.00">здесь потомки жителей</text>
<text text-anchor="middle" x="1120.03" y="-1682.42" font-family="Times,serif" font-size="14.00">убежища, которое было в</text>
<text text-anchor="middle" x="1120.03" y="-1665.17" font-family="Times,serif" font-size="14.00">этом разрушенном городе.</text>
<text text-anchor="middle" x="1120.03" y="-1647.92" font-family="Times,serif" font-size="14.00">Я не знаю, где оно</text>
<text text-anchor="middle" x="1120.03" y="-1630.67" font-family="Times,serif" font-size="14.00">находится.</text>
<text text-anchor="middle" x="1120.03" y="-1613.42" font-family="Times,serif" font-size="14.00">&#45;&#45;&#45;</text>
<text text-anchor="middle" x="1120.03" y="-1596.17" font-family="Times,serif" font-size="14.00">Я предупреждал тебя,</text>
<text text-anchor="middle" x="1120.03" y="-1578.92" font-family="Times,serif" font-size="14.00">наглая тварь. Сейчас ты</text>
<text text-anchor="middle" x="1120.03" y="-1561.67" font-family="Times,serif" font-size="14.00">всё узнаешь.</text>
</g>
<!-- Node009&#45;&gt;Node010 -->
<g id="edge19" class="edge">
<title>Node009&#45;&gt;Node010</title>
<path fill="none" stroke="#992f00" d="M1120.03,-2188.53C1120.03,-2091.32 1120.03,-1980.03 1120.03,-1887.13"/>
<polygon fill="#992f00" stroke="#992f00" points="1123.53,-1887.18 1120.03,-1877.18 1116.53,-1887.18 1123.53,-1887.18"/>
<text text-anchor="middle" x="1218.28" y="-2035.67" font-family="Times,serif" font-size="14.00" fill="#992f00">Прости, но я не знаю</text>
<text text-anchor="middle" x="1218.28" y="-2018.42" font-family="Times,serif" font-size="14.00" fill="#992f00">технологий, способных</text>
<text text-anchor="middle" x="1218.28" y="-2001.17" font-family="Times,serif" font-size="14.00" fill="#992f00">заставить</text>
<text text-anchor="middle" x="1218.28" y="-1983.92" font-family="Times,serif" font-size="14.00" fill="#992f00">взаимодействовать такой</text>
<text text-anchor="middle" x="1218.28" y="-1966.67" font-family="Times,serif" font-size="14.00" fill="#992f00">сложный механизм с</text>
<text text-anchor="middle" x="1218.28" y="-1949.42" font-family="Times,serif" font-size="14.00" fill="#992f00">нервной системой</text>
<text text-anchor="middle" x="1218.28" y="-1932.17" font-family="Times,serif" font-size="14.00" fill="#992f00">человека. Я думаю, что</text>
<text text-anchor="middle" x="1218.28" y="-1914.92" font-family="Times,serif" font-size="14.00" fill="#992f00">это простой механический</text>
<text text-anchor="middle" x="1218.28" y="-1897.67" font-family="Times,serif" font-size="14.00" fill="#992f00">протез. Откуда он у тебя?</text>
</g>
<!-- Node010&#45;&gt;Node005 -->
<g id="edge23" class="edge">
<title>Node010&#45;&gt;Node005</title>
<path fill="none" stroke="#555555" stroke-dasharray="1,5" d="M987.81,-1595.08C914.78,-1536.81 830.32,-1454.36 787.03,-1358.97 752.85,-1283.66 799.6,-677.07 744.03,-615.81 709.28,-577.49 664.6,-635.37 629.03,-597.81 586.42,-552.8 618.15,-520.96 615.03,-459.06 607.07,-300.79 611.03,-260.92 615.03,-102.5 615.29,-92.36 615.79,-81.26 616.31,-71.43"/>
<polygon fill="#555555" stroke="#555555" points="619.86,-71.79 616.92,-61.61 612.87,-71.4 619.86,-71.79"/>
</g>
<!-- Node010&#45;&gt;Node007 -->
<g id="edge26" class="edge">
<title>Node010&#45;&gt;Node007</title>
<path fill="none" stroke="#550099" d="M1246.12,-1792.22C1274.77,-1822.06 1302.03,-1856.65 1320.03,-1893.72 1494.75,-2253.5 1319.47,-2404.06 1439.03,-2785.74 1449.35,-2818.67 1468.44,-2853.5 1482.33,-2876.46"/>
<polygon fill="#550099" stroke="#550099" points="1479.69,-2877.86 1487.92,-2884.54 1485.65,-2874.19 1479.69,-2877.86"/>
<text text-anchor="middle" x="1506.53" y="-2438.93" font-family="Times,serif" font-size="14.00" fill="#550099">Я хочу задать ещё</text>
<text text-anchor="middle" x="1506.53" y="-2421.68" font-family="Times,serif" font-size="14.00" fill="#550099">несколько других</text>
<text text-anchor="middle" x="1506.53" y="-2404.43" font-family="Times,serif" font-size="14.00" fill="#550099">вопросов.</text>
</g>
<!-- Node011 -->
<g id="node23" class="node">
<title>Node011</title>
<ellipse fill="#ffffff" stroke="#000000" cx="951.03" cy="-987.39" rx="155.03" ry="91.04"/>
<text text-anchor="middle" x="951.03" y="-1034.46" font-family="Times,serif" font-size="14.00">Ты &#45; хитрый кротокрыс.</text>
<text text-anchor="middle" x="951.03" y="-1017.21" font-family="Times,serif" font-size="14.00">Скажи мне, кто хочет моей</text>
<text text-anchor="middle" x="951.03" y="-999.96" font-family="Times,serif" font-size="14.00">смерти?</text>
<text text-anchor="middle" x="951.03" y="-982.71" font-family="Times,serif" font-size="14.00">&#45;&#45;&#45;</text>
<text text-anchor="middle" x="951.03" y="-965.46" font-family="Times,serif" font-size="14.00">Эту руку можно будет</text>
<text text-anchor="middle" x="951.03" y="-948.21" font-family="Times,serif" font-size="14.00">снять только с моего</text>
<text text-anchor="middle" x="951.03" y="-930.96" font-family="Times,serif" font-size="14.00">трупа.</text>
</g>
<!-- Node010&#45;&gt;Node011 -->
<g id="edge24" class="edge">
<title>Node010&#45;&gt;Node011</title>
<path fill="none" stroke="#008499" d="M1017.73,-1547.57C1005.64,-1525.97 994.91,-1503.24 987.28,-1480.47 943.75,-1350.58 940.46,-1190.94 944.12,-1089.41"/>
<polygon fill="#008499" stroke="#008499" points="947.65,-1089.68 944.55,-1079.55 940.66,-1089.4 947.65,-1089.68"/>
<text text-anchor="middle" x="1084.41" y="-1467.17" font-family="Times,serif" font-size="14.00" fill="#008499">Танглер, в Могильнике</text>
<text text-anchor="middle" x="1084.41" y="-1449.92" font-family="Times,serif" font-size="14.00" fill="#008499">есть куча людей, которые</text>
<text text-anchor="middle" x="1084.41" y="-1432.67" font-family="Times,serif" font-size="14.00" fill="#008499">хотят твоей смерти. Если</text>
<text text-anchor="middle" x="1084.41" y="-1415.42" font-family="Times,serif" font-size="14.00" fill="#008499">ты отдашь мне свою руку,</text>
<text text-anchor="middle" x="1084.41" y="-1398.17" font-family="Times,serif" font-size="14.00" fill="#008499">я постараюсь убедить их,</text>
<text text-anchor="middle" x="1084.41" y="-1380.92" font-family="Times,serif" font-size="14.00" fill="#008499">что ты мёртв.</text>
</g>
<!-- Node015 -->
<g id="node24" class="node">
<title>Node015</title>
<ellipse fill="#ffffff" stroke="#000000" cx="1390.03" cy="-987.39" rx="153.97" ry="371.58"/>
<text text-anchor="middle" x="1390.03" y="-1232.84" font-family="Times,serif" font-size="14.00">Тебе и так удалось</text>
<text text-anchor="middle" x="1390.03" y="-1215.59" font-family="Times,serif" font-size="14.00">заметить, что это обычный</text>
<text text-anchor="middle" x="1390.03" y="-1198.34" font-family="Times,serif" font-size="14.00">механический протез. Но у</text>
<text text-anchor="middle" x="1390.03" y="-1181.09" font-family="Times,serif" font-size="14.00">него есть встроенный</text>
<text text-anchor="middle" x="1390.03" y="-1163.84" font-family="Times,serif" font-size="14.00">источник энергии на</text>
<text text-anchor="middle" x="1390.03" y="-1146.59" font-family="Times,serif" font-size="14.00">микроядерных батареях.</text>
<text text-anchor="middle" x="1390.03" y="-1129.34" font-family="Times,serif" font-size="14.00">Благодаря ему рука</text>
<text text-anchor="middle" x="1390.03" y="-1112.09" font-family="Times,serif" font-size="14.00">обладает огромной силой</text>
<text text-anchor="middle" x="1390.03" y="-1094.84" font-family="Times,serif" font-size="14.00">сжатия. Протез был</text>
<text text-anchor="middle" x="1390.03" y="-1077.59" font-family="Times,serif" font-size="14.00">изготовлен до Великой</text>
<text text-anchor="middle" x="1390.03" y="-1060.34" font-family="Times,serif" font-size="14.00">Войны. Сейчас он служит</text>
<text text-anchor="middle" x="1390.03" y="-1043.09" font-family="Times,serif" font-size="14.00">лишь напоминанием о</text>
<text text-anchor="middle" x="1390.03" y="-1025.84" font-family="Times,serif" font-size="14.00">величии прошлых</text>
<text text-anchor="middle" x="1390.03" y="-1008.59" font-family="Times,serif" font-size="14.00">поколений. Когда я</text>
<text text-anchor="middle" x="1390.03" y="-991.34" font-family="Times,serif" font-size="14.00">лишился настоящей руки,</text>
<text text-anchor="middle" x="1390.03" y="-974.09" font-family="Times,serif" font-size="14.00">её помог установить один</text>
<text text-anchor="middle" x="1390.03" y="-956.84" font-family="Times,serif" font-size="14.00">из наших ребят, умный</text>
<text text-anchor="middle" x="1390.03" y="-939.59" font-family="Times,serif" font-size="14.00">парень. Позже его убили</text>
<text text-anchor="middle" x="1390.03" y="-922.34" font-family="Times,serif" font-size="14.00">Клинки. Поэтому я сделаю</text>
<text text-anchor="middle" x="1390.03" y="-905.09" font-family="Times,serif" font-size="14.00">всё, чтобы развесить</text>
<text text-anchor="middle" x="1390.03" y="-887.84" font-family="Times,serif" font-size="14.00">трупы всех этих ублюдков</text>
<text text-anchor="middle" x="1390.03" y="-870.59" font-family="Times,serif" font-size="14.00">на ограде Адитума.</text>
<text text-anchor="middle" x="1390.03" y="-853.34" font-family="Times,serif" font-size="14.00">&#45;&#45;&#45;</text>
<text text-anchor="middle" x="1390.03" y="-836.09" font-family="Times,serif" font-size="14.00">Моя история не касается</text>
<text text-anchor="middle" x="1390.03" y="-818.84" font-family="Times,serif" font-size="14.00">чужака.</text>
<text text-anchor="middle" x="1390.03" y="-801.59" font-family="Times,serif" font-size="14.00">&#45;&#45;&#45;</text>
<text text-anchor="middle" x="1390.03" y="-784.34" font-family="Times,serif" font-size="14.00">Вы получаете 1000 ед.</text>
<text text-anchor="middle" x="1390.03" y="-767.09" font-family="Times,serif" font-size="14.00">опыта за раскрытие</text>
<text text-anchor="middle" x="1390.03" y="-749.84" font-family="Times,serif" font-size="14.00">истории происхождения</text>
<text text-anchor="middle" x="1390.03" y="-732.59" font-family="Times,serif" font-size="14.00">руки Танглера.</text>
</g>
<!-- Node010&#45;&gt;Node015 -->
<g id="edge25" class="edge">
<title>Node010&#45;&gt;Node015</title>
<path fill="none" stroke="#998200" d="M1184.55,-1516.34C1201.85,-1471.03 1220.59,-1422.12 1238.03,-1376.97 1251.67,-1341.7 1266.06,-1304.65 1280.34,-1268.01"/>
<polygon fill="#998200" stroke="#998200" points="1283.79,-1269.79 1284.16,-1259.2 1277.27,-1267.25 1283.79,-1269.79"/>
<text text-anchor="middle" x="1325.03" y="-1432.67" font-family="Times,serif" font-size="14.00" fill="#998200">Но как тебе удалось</text>
<text text-anchor="middle" x="1325.03" y="-1415.42" font-family="Times,serif" font-size="14.00" fill="#998200">подсоединить эту руку?</text>
</g>
<!-- Node011&#45;&gt;Node005 -->
<g id="edge30" class="edge">
<title>Node011&#45;&gt;Node005</title>
<path fill="none" stroke="#5d9900" d="M935.48,-896.54C915.55,-810.24 872.16,-683.32 782.03,-615.81 737.11,-582.15 695.25,-638.91 657.03,-597.81 620.97,-559.01 618.08,-178.98 617.99,-71.46"/>
<polygon fill="#5d9900" stroke="#5d9900" points="621.49,-71.55 617.99,-61.55 614.49,-71.55 621.49,-71.55"/>
<text text-anchor="middle" x="719.91" y="-310.98" font-family="Times,serif" font-size="14.00" fill="#5d9900">Ну, раз ты предложил...</text>
<text text-anchor="middle" x="719.91" y="-293.73" font-family="Times,serif" font-size="14.00" fill="#5d9900">[Атаковать].</text>
</g>
<!-- Node011&#45;&gt;Node999 -->
<g id="edge29" class="edge">
<title>Node011&#45;&gt;Node999</title>
<path fill="none" stroke="#003199" d="M1000.44,-900.66C1043.48,-823.37 1105.35,-705.63 1147.03,-597.81 1167.12,-545.86 1137.37,-512.26 1180.53,-477.06 1226.02,-439.96 1393.37,-488.69 1444.03,-459.06 1491.61,-431.22 1520.53,-370.38 1533.98,-335.01"/>
<polygon fill="#003199" stroke="#003199" points="1537.53,-336.5 1537.66,-325.91 1530.95,-334.1 1537.53,-336.5"/>
<text text-anchor="middle" x="1258.28" y="-541.38" font-family="Times,serif" font-size="14.00" fill="#003199">Что же, буду иметь в</text>
<text text-anchor="middle" x="1258.28" y="-524.13" font-family="Times,serif" font-size="14.00" fill="#003199">виду.</text>
</g>
<!-- Node012 -->
<g id="node25" class="node">
<title>Node012</title>
<ellipse fill="#ffffff" stroke="#000000" cx="972.03" cy="-307.03" rx="135.41" ry="66.64"/>
<text text-anchor="middle" x="972.03" y="-336.85" font-family="Times,serif" font-size="14.00">Я знал, что эта сука</text>
<text text-anchor="middle" x="972.03" y="-319.6" font-family="Times,serif" font-size="14.00">подослала тебя. Я убью</text>
<text text-anchor="middle" x="972.03" y="-302.35" font-family="Times,serif" font-size="14.00">тебя и передам ей твою</text>
<text text-anchor="middle" x="972.03" y="-285.1" font-family="Times,serif" font-size="14.00">голову в качестве</text>
<text text-anchor="middle" x="972.03" y="-267.85" font-family="Times,serif" font-size="14.00">послания.</text>
</g>
<!-- Node011&#45;&gt;Node012 -->
<g id="edge27" class="edge">
<title>Node011&#45;&gt;Node012</title>
<path fill="none" stroke="#009929" d="M935.06,-896.56C914.85,-810.6 871.26,-684.21 782.03,-615.81 743.41,-586.2 705.49,-634.94 674.03,-597.81 656.69,-577.33 656.23,-497.13 674.03,-477.06 696.16,-452.1 793.09,-473.75 823.03,-459.06 860.81,-440.52 894.55,-408.44 920.33,-378.6"/>
<polygon fill="#009929" stroke="#009929" points="923.6,-381.16 927.38,-371.26 918.25,-376.64 923.6,-381.16"/>
<text text-anchor="middle" x="702.53" y="-532.76" font-family="Times,serif" font-size="14.00" fill="#009929">Бритва.</text>
</g>
<!-- Node013 -->
<g id="node26" class="node">
<title>Node013</title>
<ellipse fill="#ffffff" stroke="#000000" cx="1280.03" cy="-307.03" rx="155.03" ry="152.03"/>
<text text-anchor="middle" x="1280.03" y="-397.23" font-family="Times,serif" font-size="14.00">Я спасу своих людей. Мы</text>
<text text-anchor="middle" x="1280.03" y="-379.98" font-family="Times,serif" font-size="14.00">уходим из Могильника.</text>
<text text-anchor="middle" x="1280.03" y="-362.73" font-family="Times,serif" font-size="14.00">Забирай мою руку. Я найду</text>
<text text-anchor="middle" x="1280.03" y="-345.48" font-family="Times,serif" font-size="14.00">способ отомстить этим</text>
<text text-anchor="middle" x="1280.03" y="-328.23" font-family="Times,serif" font-size="14.00">отбросам.</text>
<text text-anchor="middle" x="1280.03" y="-310.98" font-family="Times,serif" font-size="14.00">&#45;&#45;&#45;</text>
<text text-anchor="middle" x="1280.03" y="-293.73" font-family="Times,serif" font-size="14.00">Ты лжёшь! Я знаю, что</text>
<text text-anchor="middle" x="1280.03" y="-276.48" font-family="Times,serif" font-size="14.00">тебя подослала эта сука</text>
<text text-anchor="middle" x="1280.03" y="-259.23" font-family="Times,serif" font-size="14.00">Бритва. Я убью тебя и</text>
<text text-anchor="middle" x="1280.03" y="-241.98" font-family="Times,serif" font-size="14.00">распотрошу, как и каждого</text>
<text text-anchor="middle" x="1280.03" y="-224.73" font-family="Times,serif" font-size="14.00">проклятого ублюдка из</text>
<text text-anchor="middle" x="1280.03" y="-207.48" font-family="Times,serif" font-size="14.00">Клинков!</text>
</g>
<!-- Node011&#45;&gt;Node013 -->
<g id="edge28" class="edge">
<title>Node011&#45;&gt;Node013</title>
<path fill="none" stroke="#990004" d="M944.81,-895.93C936.26,-757.88 924.82,-507.36 952.03,-477.06 976.53,-449.78 1082.66,-474.23 1116.03,-459.06 1134.19,-450.8 1151.67,-439.75 1168.03,-427.37"/>
<polygon fill="#990004" stroke="#990004" points="1169.75,-429.69 1175.48,-420.78 1165.44,-424.17 1169.75,-429.69"/>
<text text-anchor="middle" x="1049.53" y="-584.51" font-family="Times,serif" font-size="14.00" fill="#990004">Танглер, весь Могильник</text>
<text text-anchor="middle" x="1049.53" y="-567.26" font-family="Times,serif" font-size="14.00" fill="#990004">хочет смерти</text>
<text text-anchor="middle" x="1049.53" y="-550.01" font-family="Times,serif" font-size="14.00" fill="#990004">Потрошителей. Отдай мне</text>
<text text-anchor="middle" x="1049.53" y="-532.76" font-family="Times,serif" font-size="14.00" fill="#990004">руку, и у вас будет время</text>
<text text-anchor="middle" x="1049.53" y="-515.51" font-family="Times,serif" font-size="14.00" fill="#990004">спокойно уйти отсюда.</text>
<text text-anchor="middle" x="1049.53" y="-498.26" font-family="Times,serif" font-size="14.00" fill="#990004">Иначе твоих людей</text>
<text text-anchor="middle" x="1049.53" y="-481.01" font-family="Times,serif" font-size="14.00" fill="#990004">перебьют.</text>
</g>
<!-- Node015&#45;&gt;Node999 -->
<g id="edge34" class="edge">
<title>Node015&#45;&gt;Node999</title>
<path fill="none" stroke="#00997b" d="M1343.02,-633.29C1336.39,-555.67 1335.44,-491.92 1347.78,-477.06 1375.58,-443.57 1407.82,-483.19 1444.03,-459.06 1489.67,-428.65 1519.16,-369.29 1533.26,-334.74"/>
<polygon fill="#00997b" stroke="#00997b" points="1536.74,-336.46 1537.15,-325.87 1530.23,-333.89 1536.74,-336.46"/>
<text text-anchor="middle" x="1434.66" y="-541.38" font-family="Times,serif" font-size="14.00" fill="#00997b">Спасибо, что рассказал</text>
<text text-anchor="middle" x="1434.66" y="-524.13" font-family="Times,serif" font-size="14.00" fill="#00997b">мне.</text>
</g>
<!-- Node015&#45;&gt;Node999 -->
<g id="edge36" class="edge">
<title>Node015&#45;&gt;Node999</title>
<path fill="none" stroke="#220099" d="M1492.66,-709.57C1503.69,-672.38 1513.59,-634.43 1521.03,-597.81 1540.27,-503.11 1543.04,-387.92 1543.21,-335.9"/>
<polygon fill="#220099" stroke="#220099" points="1546.71,-336.22 1543.21,-326.22 1539.71,-336.22 1546.71,-336.22"/>
<text text-anchor="middle" x="1615.28" y="-541.38" font-family="Times,serif" font-size="14.00" fill="#220099">Что же, буду иметь в</text>
<text text-anchor="middle" x="1615.28" y="-524.13" font-family="Times,serif" font-size="14.00" fill="#220099">виду.</text>
</g>
<!-- Node015&#45;&gt;Node007 -->
<g id="edge35" class="edge">
<title>Node015&#45;&gt;Node007</title>
<path fill="none" stroke="#994f00" d="M1518.46,-1193.51C1547.86,-1250.77 1574.89,-1314.48 1590.03,-1376.97 1594.64,-1395.99 1579.66,-2767 1574.03,-2785.74 1563.58,-2820.58 1539.37,-2854.95 1521.27,-2877.29"/>
<polygon fill="#994f00" stroke="#994f00" points="1518.13,-2874.59 1514.43,-2884.52 1523.51,-2879.06 1518.13,-2874.59"/>
<text text-anchor="middle" x="1654.53" y="-1983.92" font-family="Times,serif" font-size="14.00" fill="#994f00">Я хочу задать ещё</text>
<text text-anchor="middle" x="1654.53" y="-1966.67" font-family="Times,serif" font-size="14.00" fill="#994f00">несколько других</text>
<text text-anchor="middle" x="1654.53" y="-1949.42" font-family="Times,serif" font-size="14.00" fill="#994f00">вопросов.</text>
</g>
<!-- Node012&#45;&gt;Node005 -->
<g id="edge31" class="edge">
<title>Node012&#45;&gt;Node005</title>
<path fill="none" stroke="#555555" stroke-dasharray="1,5" d="M919.77,-245.22C892.7,-215.86 858.04,-181.37 823.03,-155 766.77,-112.62 692.43,-76.28 650.48,-57.31"/>
<polygon fill="#555555" stroke="#555555" points="652.1,-53.76 641.55,-52.87 649.25,-60.15 652.1,-53.76"/>
</g>
<!-- Node013&#45;&gt;Node005 -->
<g id="edge32" class="edge">
<title>Node013&#45;&gt;Node005</title>
<path fill="none" stroke="#555555" stroke-dasharray="1,5" d="M1175.01,-194.95C1156.54,-179.8 1136.61,-165.77 1116.03,-155 958.66,-72.57 742.32,-50.71 655.92,-45.11"/>
<polygon fill="#555555" stroke="#555555" points="656.27,-41.56 646.08,-44.45 655.85,-48.55 656.27,-41.56"/>
</g>
<!-- Node014 -->
<g id="node27" class="node">
<title>Node014</title>
<ellipse fill="#ffffff" stroke="#000000" cx="1280.03" cy="-42.25" rx="164.05" ry="42.25"/>
<text text-anchor="middle" x="1280.03" y="-54.82" font-family="Times,serif" font-size="14.00">Вы получаете 2000 ед.</text>
<text text-anchor="middle" x="1280.03" y="-37.57" font-family="Times,serif" font-size="14.00">опыта за мирное решение</text>
<text text-anchor="middle" x="1280.03" y="-20.32" font-family="Times,serif" font-size="14.00">проблемы с Потрошителями.</text>
</g>
<!-- Node013&#45;&gt;Node014 -->
<g id="edge33" class="edge">
<title>Node013&#45;&gt;Node014</title>
<path fill="none" stroke="#99008a" d="M1280.03,-154.69C1280.03,-133.43 1280.03,-112.89 1280.03,-95.35"/>
<polygon fill="#99008a" stroke="#99008a" points="1283.53,-95.84 1280.03,-85.84 1276.53,-95.84 1283.53,-95.84"/>
<text text-anchor="middle" x="1375.66" y="-123.7" font-family="Times,serif" font-size="14.00" fill="#99008a">Хорошо, что тебе не чужд</text>
<text text-anchor="middle" x="1375.66" y="-106.45" font-family="Times,serif" font-size="14.00" fill="#99008a">здравый смысл.</text>
</g>
</g>
</svg>
