<?xml version="1.0" encoding="UTF-8" standalone="no"?>
<!DOCTYPE svg PUBLIC "-//W3C//DTD SVG 1.1//EN"
 "http://www.w3.org/Graphics/SVG/1.1/DTD/svg11.dtd">
<!-- Generated by graphviz version 8.0.5 (0)
 -->
<!-- Title: thug Pages: 1 -->
<svg width="482pt" height="116pt"
 viewBox="0.00 0.00 482.07 116.00" xmlns="http://www.w3.org/2000/svg" xmlns:xlink="http://www.w3.org/1999/xlink">
<g id="graph0" class="graph" transform="scale(1 1) rotate(0) translate(4 112)">
<title>thug</title>
<polygon fill="white" stroke="none" points="-4,4 -4,-112 478.07,-112 478.07,4 -4,4"/>
<!-- start -->
<g id="node1" class="node">
<title>start</title>
<ellipse fill="#ffffff" stroke="#000000" cx="99" cy="-90" rx="27" ry="18"/>
</g>
<!-- destroy_p_proc -->
<g id="node2" class="node">
<title>destroy_p_proc</title>
<ellipse fill="#ffffff" stroke="#000000" cx="27" cy="-18" rx="27" ry="18"/>
</g>
<!-- start&#45;&gt;destroy_p_proc -->
<g id="edge1" class="edge">
<title>start&#45;&gt;destroy_p_proc</title>
<path fill="none" stroke="#555555" stroke-dasharray="1,5" d="M80.81,-76.49C69.77,-67.12 55.93,-54.03 44.95,-42.7"/>
<polygon fill="#555555" stroke="#555555" points="47.95,-40.72 38.54,-35.85 42.86,-45.52 47.95,-40.72"/>
</g>
<!-- start&#45;&gt;destroy_p_proc -->
<g id="edge5" class="edge">
<title>start&#45;&gt;destroy_p_proc</title>
<path fill="none" stroke="#555555" stroke-dasharray="1,5" d="M88.42,-73.12C79.08,-62.89 65.46,-49.52 53.33,-38.63"/>
<polygon fill="#555555" stroke="#555555" points="56.07,-35.51 46.24,-31.56 51.46,-40.78 56.07,-35.51"/>
</g>
<!-- critter_p_proc -->
<g id="node3" class="node">
<title>critter_p_proc</title>
<ellipse fill="#ffffff" stroke="#000000" cx="99" cy="-18" rx="27" ry="18"/>
</g>
<!-- start&#45;&gt;critter_p_proc -->
<g id="edge2" class="edge">
<title>start&#45;&gt;critter_p_proc</title>
<path fill="none" stroke="#555555" stroke-dasharray="1,5" d="M99,-71.7C99,-64.24 99,-55.32 99,-46.97"/>
<polygon fill="#555555" stroke="#555555" points="102.5,-47.1 99,-37.1 95.5,-47.1 102.5,-47.1"/>
</g>
<!-- pickup_p_proc -->
<g id="node4" class="node">
<title>pickup_p_proc</title>
<ellipse fill="#ffffff" stroke="#000000" cx="171" cy="-18" rx="27" ry="18"/>
</g>
<!-- start&#45;&gt;pickup_p_proc -->
<g id="edge3" class="edge">
<title>start&#45;&gt;pickup_p_proc</title>
<path fill="none" stroke="#555555" stroke-dasharray="1,5" d="M113.92,-74.5C123.86,-64.83 137.12,-51.94 148.35,-41.02"/>
<polygon fill="#555555" stroke="#555555" points="150.37,-43.97 155.1,-34.49 145.49,-38.95 150.37,-43.97"/>
</g>
<!-- talk_p_proc -->
<g id="node5" class="node">
<title>talk_p_proc</title>
<ellipse fill="#ffffff" stroke="#000000" cx="345" cy="-18" rx="129.07" ry="18"/>
<text text-anchor="middle" x="345" y="-13.32" font-family="Times,serif" font-size="14.00">Вы видите головореза.</text>
</g>
<!-- start&#45;&gt;talk_p_proc -->
<g id="edge4" class="edge">
<title>start&#45;&gt;talk_p_proc</title>
<path fill="none" stroke="#555555" stroke-dasharray="1,5" d="M120.03,-78.23C124.87,-75.99 130.06,-73.77 135,-72 176.34,-57.18 223.67,-44.85 262.92,-35.83"/>
<polygon fill="#555555" stroke="#555555" points="263.52,-39.05 272.5,-33.43 261.97,-32.22 263.52,-39.05"/>
</g>
<!-- look_at_p_proc -->
<g id="node6" class="node">
<title>look_at_p_proc</title>
<ellipse fill="#ffffff" stroke="#000000" cx="273" cy="-90" rx="129.07" ry="18"/>
<text text-anchor="middle" x="273" y="-85.33" font-family="Times,serif" font-size="14.00">Вы видите головореза.</text>
</g>
</g>
</svg>
