<?xml version="1.0" encoding="UTF-8" standalone="no"?>
<!DOCTYPE svg PUBLIC "-//W3C//DTD SVG 1.1//EN"
 "http://www.w3.org/Graphics/SVG/1.1/DTD/svg11.dtd">
<!-- Generated by graphviz version 8.0.5 (0)
 -->
<!-- Title: vance Pages: 1 -->
<svg width="3405pt" height="1146pt"
 viewBox="0.00 0.00 3405.27 1146.08" xmlns="http://www.w3.org/2000/svg" xmlns:xlink="http://www.w3.org/1999/xlink">
<g id="graph0" class="graph" transform="scale(1 1) rotate(0) translate(4 1142.08)">
<title>vance</title>
<polygon fill="white" stroke="none" points="-4,4 -4,-1142.08 3401.27,-1142.08 3401.27,4 -4,4"/>
<!-- start -->
<g id="node1" class="node">
<title>start</title>
<ellipse fill="#ffffff" stroke="#000000" cx="1781.08" cy="-1120.08" rx="27" ry="18"/>
</g>
<!-- combat -->
<g id="node2" class="node">
<title>combat</title>
<ellipse fill="#ffffff" stroke="#000000" cx="1062.08" cy="-18" rx="27" ry="18"/>
</g>
<!-- critter_p_proc -->
<g id="node3" class="node">
<title>critter_p_proc</title>
<ellipse fill="#ffffff" stroke="#000000" cx="3006.08" cy="-1120.08" rx="27" ry="18"/>
</g>
<!-- pickup_p_proc -->
<g id="node4" class="node">
<title>pickup_p_proc</title>
<ellipse fill="#ffffff" stroke="#000000" cx="3078.08" cy="-1120.08" rx="27" ry="18"/>
</g>
<!-- talk_p_proc -->
<g id="node5" class="node">
<title>talk_p_proc</title>
<ellipse fill="#ffffff" stroke="#000000" cx="1853.08" cy="-1120.08" rx="27" ry="18"/>
</g>
<!-- Get_Stuff -->
<g id="node6" class="node">
<title>Get_Stuff</title>
<ellipse fill="#ffffff" stroke="#000000" cx="2728.08" cy="-18" rx="27" ry="18"/>
</g>
<!-- talk_p_proc&#45;&gt;Get_Stuff -->
<g id="edge1" class="edge">
<title>talk_p_proc&#45;&gt;Get_Stuff</title>
<path fill="none" stroke="#555555" stroke-dasharray="1,5" d="M1880.26,-1118.34C2042.78,-1113.75 2879.08,-1087.65 2879.08,-1036.02 2879.08,-1036.02 2879.08,-1036.02 2879.08,-142.7 2879.08,-82.77 2807.04,-46.62 2762.48,-29.98"/>
<polygon fill="#555555" stroke="#555555" points="2763.94,-26.43 2753.34,-26.36 2761.58,-33.02 2763.94,-26.43"/>
</g>
<!-- get_reaction -->
<g id="node7" class="node">
<title>get_reaction</title>
<ellipse fill="#ffffff" stroke="#000000" cx="1908.08" cy="-1035.02" rx="27" ry="18"/>
</g>
<!-- talk_p_proc&#45;&gt;get_reaction -->
<g id="edge2" class="edge">
<title>talk_p_proc&#45;&gt;get_reaction</title>
<path fill="none" stroke="#555555" stroke-dasharray="1,5" d="M1863.69,-1103.06C1871.6,-1091.11 1882.56,-1074.56 1891.61,-1060.9"/>
<polygon fill="#555555" stroke="#555555" points="1894.91,-1063.26 1897.51,-1052.99 1889.07,-1059.39 1894.91,-1063.26"/>
</g>
<!-- Vance12 -->
<g id="node8" class="node">
<title>Vance12</title>
<ellipse fill="#ffffff" stroke="#000000" cx="217.08" cy="-347.49" rx="143.37" ry="78.84"/>
<text text-anchor="middle" x="217.08" y="-385.94" font-family="Times,serif" font-size="14.00">Я не хочу никаких</text>
<text text-anchor="middle" x="217.08" y="-368.69" font-family="Times,serif" font-size="14.00">неприятностей, так что я</text>
<text text-anchor="middle" x="217.08" y="-351.44" font-family="Times,serif" font-size="14.00">думаю, тебе лучше будет</text>
<text text-anchor="middle" x="217.08" y="-334.19" font-family="Times,serif" font-size="14.00">сваливать, прежде чем я</text>
<text text-anchor="middle" x="217.08" y="-316.94" font-family="Times,serif" font-size="14.00">сделаю что&#45;то, о чем ты</text>
<text text-anchor="middle" x="217.08" y="-299.69" font-family="Times,serif" font-size="14.00">пожалеешь.</text>
</g>
<!-- talk_p_proc&#45;&gt;Vance12 -->
<g id="edge3" class="edge">
<title>talk_p_proc&#45;&gt;Vance12</title>
<path fill="none" stroke="#555555" stroke-dasharray="1,5" d="M1832.66,-1107.72C1827.7,-1105.45 1822.32,-1103.37 1817.08,-1102.08 1734.32,-1081.64 284.08,-1121.27 284.08,-1036.02 284.08,-1036.02 284.08,-1036.02 284.08,-575.88 284.08,-527.88 270.18,-476.42 255.03,-434.61"/>
<polygon fill="#555555" stroke="#555555" points="258.03,-433.63 251.27,-425.47 251.47,-436.07 258.03,-433.63"/>
</g>
<!-- Vance11 -->
<g id="node9" class="node">
<title>Vance11</title>
<ellipse fill="#ffffff" stroke="#000000" cx="1433.08" cy="-1035.02" rx="110.49" ry="30.05"/>
<text text-anchor="middle" x="1433.08" y="-1038.97" font-family="Times,serif" font-size="14.00">Тебя тут не ждали.</text>
<text text-anchor="middle" x="1433.08" y="-1021.72" font-family="Times,serif" font-size="14.00">Проваливай!</text>
</g>
<!-- talk_p_proc&#45;&gt;Vance11 -->
<g id="edge4" class="edge">
<title>talk_p_proc&#45;&gt;Vance11</title>
<path fill="none" stroke="#555555" stroke-dasharray="1,5" d="M1832.53,-1108.2C1827.57,-1105.91 1822.22,-1103.7 1817.08,-1102.08 1728.52,-1074.12 1624.5,-1057.15 1547.08,-1047.43"/>
<polygon fill="#555555" stroke="#555555" points="1547.69,-1043.85 1537.34,-1046.1 1546.83,-1050.8 1547.69,-1043.85"/>
</g>
<!-- Vance01 -->
<g id="node10" class="node">
<title>Vance01</title>
<ellipse fill="#ffffff" stroke="#000000" cx="981.08" cy="-899.22" rx="105.92" ry="18"/>
<text text-anchor="middle" x="981.08" y="-894.55" font-family="Times,serif" font-size="14.00">Чем могу помочь?</text>
</g>
<!-- talk_p_proc&#45;&gt;Vance01 -->
<g id="edge5" class="edge">
<title>talk_p_proc&#45;&gt;Vance01</title>
<path fill="none" stroke="#555555" stroke-dasharray="1,5" d="M1832.63,-1107.84C1827.67,-1105.56 1822.3,-1103.45 1817.08,-1102.08 1600.3,-1045.03 1530.33,-1124.12 1314.08,-1065.08 1197.95,-1033.37 1074.18,-960.29 1015.62,-923"/>
<polygon fill="#555555" stroke="#555555" points="1017.76,-919.58 1007.46,-917.12 1013.98,-925.47 1017.76,-919.58"/>
</g>
<!-- Vance06 -->
<g id="node11" class="node">
<title>Vance06</title>
<ellipse fill="#ffffff" stroke="#000000" cx="1985.08" cy="-773.52" rx="105.92" ry="18"/>
<text text-anchor="middle" x="1985.08" y="-768.85" font-family="Times,serif" font-size="14.00">Чем могу помочь?</text>
</g>
<!-- talk_p_proc&#45;&gt;Vance06 -->
<g id="edge6" class="edge">
<title>talk_p_proc&#45;&gt;Vance06</title>
<path fill="none" stroke="#555555" stroke-dasharray="1,5" d="M1850.43,-1101.86C1845,-1061.15 1835.92,-956.68 1872.08,-881.22 1888.93,-846.07 1922.75,-816.61 1949.02,-797.62"/>
<polygon fill="#555555" stroke="#555555" points="1950.78,-799.96 1956.95,-791.34 1946.76,-794.23 1950.78,-799.96"/>
</g>
<!-- Put_Stuff -->
<g id="node12" class="node">
<title>Put_Stuff</title>
<ellipse fill="#ffffff" stroke="#000000" cx="2934.08" cy="-1035.02" rx="27" ry="18"/>
</g>
<!-- talk_p_proc&#45;&gt;Put_Stuff -->
<g id="edge7" class="edge">
<title>talk_p_proc&#45;&gt;Put_Stuff</title>
<path fill="none" stroke="#555555" stroke-dasharray="1,5" d="M1880.33,-1118.78C2039.74,-1116.96 2846.16,-1106.68 2893.08,-1084.08 2903.49,-1079.06 2912.28,-1070.03 2919.02,-1061.14"/>
<polygon fill="#555555" stroke="#555555" points="2922.46,-1063.32 2925.28,-1053.1 2916.71,-1059.33 2922.46,-1063.32"/>
</g>
<!-- ReactToLevel -->
<g id="node32" class="node">
<title>ReactToLevel</title>
<ellipse fill="#ffffff" stroke="#000000" cx="1908.08" cy="-899.22" rx="27" ry="18"/>
</g>
<!-- get_reaction&#45;&gt;ReactToLevel -->
<g id="edge54" class="edge">
<title>get_reaction&#45;&gt;ReactToLevel</title>
<path fill="none" stroke="#555555" stroke-dasharray="1,5" d="M1908.08,-1016.53C1908.08,-994.19 1908.08,-955.25 1908.08,-928.63"/>
<polygon fill="#555555" stroke="#555555" points="1911.58,-928.72 1908.08,-918.72 1904.58,-928.72 1911.58,-928.72"/>
</g>
<!-- Vance13 -->
<g id="node21" class="node">
<title>Vance13</title>
<ellipse fill="#ffffff" stroke="#000000" cx="1026.08" cy="-143.7" rx="27" ry="18"/>
</g>
<!-- Vance12&#45;&gt;Vance13 -->
<g id="edge45" class="edge">
<title>Vance12&#45;&gt;Vance13</title>
<path fill="none" stroke="#009947" d="M271.31,-274.26C291.94,-251.92 317.31,-229.65 345.33,-216.14 374.55,-202.06 849.21,-160.02 988.16,-147.96"/>
<polygon fill="#009947" stroke="#009947" points="988.4,-151.37 998.06,-147.02 987.8,-144.39 988.4,-151.37"/>
<text text-anchor="middle" x="395.96" y="-228.72" font-family="Times,serif" font-size="14.00" fill="#009947">Нееееееееет!</text>
</g>
<!-- Vance12&#45;&gt;Vance13 -->
<g id="edge47" class="edge">
<title>Vance12&#45;&gt;Vance13</title>
<path fill="none" stroke="#001299" d="M333.35,-301.02C384.43,-280.42 435.15,-258.85 445.08,-250.64 459.29,-238.91 452.42,-225.86 468.08,-216.14 555.55,-161.9 877.21,-148.55 988.16,-145.52"/>
<polygon fill="#001299" stroke="#001299" points="987.92,-149 997.83,-145.24 987.74,-142 987.92,-149"/>
<text text-anchor="middle" x="552.08" y="-237.34" font-family="Times,serif" font-size="14.00" fill="#001299">Мне наплевать, что ты</text>
<text text-anchor="middle" x="552.08" y="-220.09" font-family="Times,serif" font-size="14.00" fill="#001299">думаешь.</text>
</g>
<!-- Vance14 -->
<g id="node22" class="node">
<title>Vance14</title>
<ellipse fill="#ffffff" stroke="#000000" cx="421.08" cy="-143.7" rx="27" ry="18"/>
</g>
<!-- Vance12&#45;&gt;Vance14 -->
<g id="edge46" class="edge">
<title>Vance12&#45;&gt;Vance14</title>
<path fill="none" stroke="#991a00" d="M88.23,-312.36C28.16,-290.12 -23.22,-257.54 11.58,-216.14 58.95,-159.8 290.84,-147.88 383.11,-145.37"/>
<polygon fill="#991a00" stroke="#991a00" points="382.99,-148.85 392.9,-145.1 382.82,-141.85 382.99,-148.85"/>
<text text-anchor="middle" x="83.33" y="-228.72" font-family="Times,serif" font-size="14.00" fill="#991a00">Лаааадно. Я пойду.</text>
</g>
<!-- Vance12&#45;&gt;Vance14 -->
<g id="edge48" class="edge">
<title>Vance12&#45;&gt;Vance14</title>
<path fill="none" stroke="#3f9900" d="M171.36,-272.29C165.16,-252.73 164.55,-232.54 176.83,-216.14 201.77,-182.86 322.15,-159.89 384.09,-150.06"/>
<polygon fill="#3f9900" stroke="#3f9900" points="384.59,-153.37 393.94,-148.38 383.52,-146.46 384.59,-153.37"/>
<text text-anchor="middle" x="224.71" y="-228.72" font-family="Times,serif" font-size="14.00" fill="#3f9900">Ладно, пока!</text>
</g>
<!-- Vance11&#45;&gt;Vance13 -->
<g id="edge40" class="edge">
<title>Vance11&#45;&gt;Vance13</title>
<path fill="none" stroke="#006599" d="M1496.17,-1009.95C1508.23,-1003.61 1520.17,-995.97 1530.08,-986.97 1563.54,-956.61 1583.08,-945.4 1583.08,-900.22 1583.08,-900.22 1583.08,-900.22 1583.08,-674.2 1583.08,-606.45 1550.19,-277.16 1543.08,-268.64 1480.91,-194.12 1171.97,-158.39 1063.67,-148.01"/>
<polygon fill="#006599" stroke="#006599" points="1064.23,-144.45 1053.95,-147 1063.58,-151.42 1064.23,-144.45"/>
<text text-anchor="middle" x="1668.58" y="-679.15" font-family="Times,serif" font-size="14.00" fill="#006599">Я тебя спущу в Ад, там</text>
<text text-anchor="middle" x="1668.58" y="-661.9" font-family="Times,serif" font-size="14.00" fill="#006599">тебе и место.</text>
</g>
<!-- Vance11&#45;&gt;Vance14 -->
<g id="edge41" class="edge">
<title>Vance11&#45;&gt;Vance14</title>
<path fill="none" stroke="#929900" d="M1323.22,-1031.31C1054.92,-1023.23 388.08,-993.73 388.08,-900.22 388.08,-900.22 388.08,-900.22 388.08,-473.38 388.08,-361.25 407.33,-228.66 416.43,-172.28"/>
<polygon fill="#929900" stroke="#929900" points="419.99,-173.18 418.15,-162.75 413.08,-172.05 419.99,-173.18"/>
<text text-anchor="middle" x="442.46" y="-670.53" font-family="Times,serif" font-size="14.00" fill="#929900">Жаль. Извини.</text>
</g>
<!-- Vance11a -->
<g id="node29" class="node">
<title>Vance11a</title>
<ellipse fill="#ffffff" stroke="#000000" cx="1143.08" cy="-899.22" rx="27" ry="18"/>
</g>
<!-- Vance11&#45;&gt;Vance11a -->
<g id="edge42" class="edge">
<title>Vance11&#45;&gt;Vance11a</title>
<path fill="none" stroke="#740099" d="M1377.85,-1008.54C1317.68,-980.78 1223.51,-937.33 1174.74,-914.83"/>
<polygon fill="#740099" stroke="#740099" points="1176.31,-911.24 1165.77,-910.23 1173.38,-917.59 1176.31,-911.24"/>
<text text-anchor="middle" x="1428.58" y="-973.67" font-family="Times,serif" font-size="14.00" fill="#740099">Эй, успокойся. Это просто</text>
<text text-anchor="middle" x="1428.58" y="-956.42" font-family="Times,serif" font-size="14.00" fill="#740099">недоразумение. Давай все</text>
<text text-anchor="middle" x="1428.58" y="-939.17" font-family="Times,serif" font-size="14.00" fill="#740099">обсудим.</text>
</g>
<!-- Vance05 -->
<g id="node16" class="node">
<title>Vance05</title>
<ellipse fill="#ffffff" stroke="#000000" cx="1203.08" cy="-347.49" rx="27" ry="18"/>
</g>
<!-- Vance01&#45;&gt;Vance05 -->
<g id="edge9" class="edge">
<title>Vance01&#45;&gt;Vance05</title>
<path fill="none" stroke="#4b9900" d="M1061.64,-887.18C1117.07,-879.21 1182.83,-868.9 1195.08,-863.22 1295.79,-816.51 1338.59,-801.89 1385.08,-701.08 1435.08,-592.67 1289.35,-516.95 1239.08,-426.33 1229.87,-409.72 1220.9,-390.34 1214.22,-375.07"/>
<polygon fill="#4b9900" stroke="#4b9900" points="1217.15,-374.03 1209.98,-366.24 1210.73,-376.8 1217.15,-374.03"/>
<text text-anchor="middle" x="1431.71" y="-670.53" font-family="Times,serif" font-size="14.00" fill="#4b9900">Покупаю.</text>
</g>
<!-- Vance01&#45;&gt;Vance05 -->
<g id="edge10" class="edge">
<title>Vance01&#45;&gt;Vance05</title>
<path fill="none" stroke="#990078" d="M1026.21,-882.55C1053.37,-871.11 1086.88,-853.18 1109.08,-827.97 1149.15,-782.48 1144.1,-759.81 1159.08,-701.08 1189.24,-582.84 1199.06,-436.8 1201.97,-376.53"/>
<polygon fill="#990078" stroke="#990078" points="1205.51,-376.8 1202.46,-366.65 1198.51,-376.48 1205.51,-376.8"/>
<text text-anchor="middle" x="1272.33" y="-687.78" font-family="Times,serif" font-size="14.00" fill="#990078">Говорят, у тебя есть то,</text>
<text text-anchor="middle" x="1272.33" y="-670.53" font-family="Times,serif" font-size="14.00" fill="#990078">что мне нужно. Подкинешь</text>
<text text-anchor="middle" x="1272.33" y="-653.28" font-family="Times,serif" font-size="14.00" fill="#990078">парочку?</text>
</g>
<!-- Vance02 -->
<g id="node17" class="node">
<title>Vance02</title>
<ellipse fill="#ffffff" stroke="#000000" cx="949.08" cy="-773.52" rx="151.32" ry="54.45"/>
<text text-anchor="middle" x="949.08" y="-794.72" font-family="Times,serif" font-size="14.00">Звать меня Вэнс, и больше</text>
<text text-anchor="middle" x="949.08" y="-777.47" font-family="Times,serif" font-size="14.00">тебе ничего знать не</text>
<text text-anchor="middle" x="949.08" y="-760.22" font-family="Times,serif" font-size="14.00">надо. Подбросить тебе</text>
<text text-anchor="middle" x="949.08" y="-742.97" font-family="Times,serif" font-size="14.00">что&#45;нибудь?</text>
</g>
<!-- Vance01&#45;&gt;Vance02 -->
<g id="edge11" class="edge">
<title>Vance01&#45;&gt;Vance02</title>
<path fill="none" stroke="#00998e" d="M976.57,-880.76C973.64,-869.45 969.63,-853.96 965.58,-838.3"/>
<polygon fill="#00998e" stroke="#00998e" points="968.82,-837.84 962.92,-829.03 962.04,-839.59 968.82,-837.84"/>
<text text-anchor="middle" x="1000.58" y="-849.92" font-family="Times,serif" font-size="14.00" fill="#00998e">Кто ты?</text>
</g>
<!-- Vance03 -->
<g id="node18" class="node">
<title>Vance03</title>
<ellipse fill="#ffffff" stroke="#000000" cx="958.08" cy="-347.49" rx="141.77" ry="42.25"/>
<text text-anchor="middle" x="958.08" y="-360.06" font-family="Times,serif" font-size="14.00">Если не знаешь, тебе тут</text>
<text text-anchor="middle" x="958.08" y="-342.81" font-family="Times,serif" font-size="14.00">делать нечего.</text>
<text text-anchor="middle" x="958.08" y="-325.56" font-family="Times,serif" font-size="14.00">Проваливай.</text>
</g>
<!-- Vance01&#45;&gt;Vance03 -->
<g id="edge12" class="edge">
<title>Vance01&#45;&gt;Vance03</title>
<path fill="none" stroke="#996100" d="M910.57,-885.41C820.56,-864.69 669.52,-814.11 611.33,-701.08 600.81,-680.63 601.78,-670.25 611.33,-649.33 666.02,-529.47 794.66,-438.97 878.95,-389.88"/>
<polygon fill="#996100" stroke="#996100" points="880.31,-392.56 887.23,-384.54 876.82,-386.49 880.31,-392.56"/>
<text text-anchor="middle" x="696.46" y="-679.15" font-family="Times,serif" font-size="14.00" fill="#996100">А что тут происходит в</text>
<text text-anchor="middle" x="696.46" y="-661.9" font-family="Times,serif" font-size="14.00" fill="#996100">этом здании?</text>
</g>
<!-- Vance04 -->
<g id="node19" class="node">
<title>Vance04</title>
<ellipse fill="#ffffff" stroke="#000000" cx="530.08" cy="-474.38" rx="126.93" ry="30.05"/>
<text text-anchor="middle" x="530.08" y="-478.33" font-family="Times,serif" font-size="14.00">То&#45;то же! Теперь вали</text>
<text text-anchor="middle" x="530.08" y="-461.08" font-family="Times,serif" font-size="14.00">отсюда!</text>
</g>
<!-- Vance01&#45;&gt;Vance04 -->
<g id="edge13" class="edge">
<title>Vance01&#45;&gt;Vance04</title>
<path fill="none" stroke="#340099" d="M874.89,-898.66C752.96,-896.45 564.7,-883.8 525.83,-827.97 491.46,-778.61 512.36,-597.27 523.93,-515.66"/>
<polygon fill="#340099" stroke="#340099" points="527.53,-516.23 525.5,-505.83 520.6,-515.23 527.53,-516.23"/>
<text text-anchor="middle" x="573.71" y="-768.85" font-family="Times,serif" font-size="14.00" fill="#340099">Ладно, пока!</text>
</g>
<!-- Barter -->
<g id="node23" class="node">
<title>Barter</title>
<ellipse fill="#ffffff" stroke="#000000" cx="2009.08" cy="-143.7" rx="151.85" ry="54.45"/>
<text text-anchor="middle" x="2009.08" y="-164.9" font-family="Times,serif" font-size="14.00">Не используй сразу все.</text>
<text text-anchor="middle" x="2009.08" y="-147.65" font-family="Times,serif" font-size="14.00">&#45;&#45;&#45;</text>
<text text-anchor="middle" x="2009.08" y="-130.4" font-family="Times,serif" font-size="14.00">Вроде ты в норме. Вот мой</text>
<text text-anchor="middle" x="2009.08" y="-113.15" font-family="Times,serif" font-size="14.00">товар.</text>
</g>
<!-- Vance06&#45;&gt;Barter -->
<g id="edge24" class="edge">
<title>Vance06&#45;&gt;Barter</title>
<path fill="none" stroke="#010099" d="M2008.92,-755.77C2070.36,-710.93 2233.36,-581.04 2292.08,-426.33 2316.95,-360.81 2334.51,-324.42 2292.08,-268.64 2273.93,-244.79 2255.12,-261.24 2227.08,-250.64 2184.99,-234.74 2140.02,-213.63 2101.93,-194.45"/>
<polygon fill="#010099" stroke="#010099" points="2103.9,-191.02 2093.4,-189.62 2100.73,-197.26 2103.9,-191.02"/>
<text text-anchor="middle" x="2300.08" y="-469.71" font-family="Times,serif" font-size="14.00" fill="#010099">Еще.</text>
</g>
<!-- Vance06&#45;&gt;Barter -->
<g id="edge25" class="edge">
<title>Vance06&#45;&gt;Barter</title>
<path fill="none" stroke="#2b9900" d="M1983.53,-755.33C1981.29,-731.47 1976.78,-687 1971.08,-649.33 1962.5,-592.58 1976.65,-571.63 1947.08,-522.43 1911.88,-463.87 1856.67,-487.92 1827.08,-426.33 1796.74,-363.16 1794.32,-330.6 1827.08,-268.64 1844.16,-236.35 1873.85,-210.89 1904.36,-191.67"/>
<polygon fill="#2b9900" stroke="#2b9900" points="1905.69,-194.35 1912.41,-186.16 1902.04,-188.37 1905.69,-194.35"/>
<text text-anchor="middle" x="2024.21" y="-469.71" font-family="Times,serif" font-size="14.00" fill="#2b9900">Хочу купить еще товара.</text>
</g>
<!-- Vance07 -->
<g id="node24" class="node">
<title>Vance07</title>
<ellipse fill="#ffffff" stroke="#000000" cx="1391.08" cy="-347.49" rx="142.84" ry="30.05"/>
<text text-anchor="middle" x="1391.08" y="-351.44" font-family="Times,serif" font-size="14.00">Очень жаль. Теперь вали</text>
<text text-anchor="middle" x="1391.08" y="-334.19" font-family="Times,serif" font-size="14.00">отсюда.</text>
</g>
<!-- Vance06&#45;&gt;Vance07 -->
<g id="edge26" class="edge">
<title>Vance06&#45;&gt;Vance07</title>
<path fill="none" stroke="#990058" d="M1885.17,-767.32C1797.23,-760.05 1667.06,-742.66 1561.08,-701.08 1554.51,-698.5 1458.85,-637.13 1454.83,-631.33 1403.24,-556.85 1392.68,-447.27 1390.96,-388.78"/>
<polygon fill="#990058" stroke="#990058" points="1394.44,-388.71 1390.72,-378.78 1387.44,-388.86 1394.44,-388.71"/>
<text text-anchor="middle" x="1537.21" y="-572.21" font-family="Times,serif" font-size="14.00" fill="#990058">Ты мне не нравишься.</text>
</g>
<!-- Vance08 -->
<g id="node25" class="node">
<title>Vance08</title>
<ellipse fill="#ffffff" stroke="#000000" cx="2478.08" cy="-576.88" rx="144.43" ry="54.45"/>
<text text-anchor="middle" x="2478.08" y="-598.08" font-family="Times,serif" font-size="14.00">Это &#45; Джастин и Чад. Они</text>
<text text-anchor="middle" x="2478.08" y="-580.83" font-family="Times,serif" font-size="14.00">заботятся о том, чтобы</text>
<text text-anchor="middle" x="2478.08" y="-563.58" font-family="Times,serif" font-size="14.00">тут никто не устраивал</text>
<text text-anchor="middle" x="2478.08" y="-546.33" font-family="Times,serif" font-size="14.00">неприятностей.</text>
</g>
<!-- Vance06&#45;&gt;Vance08 -->
<g id="edge27" class="edge">
<title>Vance06&#45;&gt;Vance08</title>
<path fill="none" stroke="#008599" d="M2076.77,-764.24C2146.17,-755.34 2242.47,-737.26 2320.08,-701.08 2355.52,-684.56 2390.3,-658.8 2418.16,-635.09"/>
<polygon fill="#008599" stroke="#008599" points="2419.93,-637.33 2425.21,-628.14 2415.35,-632.03 2419.93,-637.33"/>
<text text-anchor="middle" x="2494.46" y="-679.15" font-family="Times,serif" font-size="14.00" fill="#008599">Кто такие эти твои друзья</text>
<text text-anchor="middle" x="2494.46" y="-661.9" font-family="Times,serif" font-size="14.00" fill="#008599">вон там?</text>
</g>
<!-- Vance09 -->
<g id="node26" class="node">
<title>Vance09</title>
<ellipse fill="#ffffff" stroke="#000000" cx="1783.08" cy="-576.88" rx="154.5" ry="54.45"/>
<text text-anchor="middle" x="1783.08" y="-598.08" font-family="Times,serif" font-size="14.00">Просто мои друзья. Это</text>
<text text-anchor="middle" x="1783.08" y="-580.83" font-family="Times,serif" font-size="14.00">все, что тебе нужно</text>
<text text-anchor="middle" x="1783.08" y="-563.58" font-family="Times,serif" font-size="14.00">знать. Не задавай слишком</text>
<text text-anchor="middle" x="1783.08" y="-546.33" font-family="Times,serif" font-size="14.00">много вопросов.</text>
</g>
<!-- Vance06&#45;&gt;Vance09 -->
<g id="edge28" class="edge">
<title>Vance06&#45;&gt;Vance09</title>
<path fill="none" stroke="#998100" d="M1892.55,-764.5C1850.49,-755.68 1804.39,-737.65 1778.33,-701.08 1766.38,-684.31 1764.09,-662.74 1765.87,-642.35"/>
<polygon fill="#998100" stroke="#998100" points="1769.46,-642.86 1767.2,-632.51 1762.51,-642.01 1769.46,-642.86"/>
<text text-anchor="middle" x="1875.46" y="-679.15" font-family="Times,serif" font-size="14.00" fill="#998100">Кто такие эти твои друзья</text>
<text text-anchor="middle" x="1875.46" y="-661.9" font-family="Times,serif" font-size="14.00" fill="#998100">в задней комнате?</text>
</g>
<!-- Vance15 -->
<g id="node27" class="node">
<title>Vance15</title>
<ellipse fill="#ffffff" stroke="#000000" cx="2514.08" cy="-143.7" rx="27" ry="18"/>
</g>
<!-- Vance06&#45;&gt;Vance15 -->
<g id="edge29" class="edge">
<title>Vance06&#45;&gt;Vance15</title>
<path fill="none" stroke="#540099" d="M2091.04,-771.86C2243.66,-768.97 2515.74,-756 2595.08,-701.08 2699.72,-628.65 2622.51,-523.89 2721.83,-444.33 2749.01,-422.56 2776.47,-453.63 2798.08,-426.33 2841.57,-371.38 2836.47,-327.28 2798.08,-268.64 2742.63,-183.94 2615.22,-156.79 2551.62,-148.35"/>
<polygon fill="#540099" stroke="#540099" points="2552.24,-144.78 2541.89,-147.02 2551.38,-151.72 2552.24,-144.78"/>
<text text-anchor="middle" x="2792.71" y="-469.71" font-family="Times,serif" font-size="14.00" fill="#540099">Да просто зависаю.</text>
</g>
<!-- destroy_p_proc -->
<g id="node13" class="node">
<title>destroy_p_proc</title>
<ellipse fill="#ffffff" stroke="#000000" cx="3150.08" cy="-1120.08" rx="27" ry="18"/>
</g>
<!-- look_at_p_proc -->
<g id="node14" class="node">
<title>look_at_p_proc</title>
<ellipse fill="#ffffff" stroke="#000000" cx="3296.08" cy="-1120.08" rx="101.19" ry="18"/>
<text text-anchor="middle" x="3296.08" y="-1115.4" font-family="Times,serif" font-size="14.00">Вы видите Вэнса.</text>
</g>
<!-- map_enter_p_proc -->
<g id="node15" class="node">
<title>map_enter_p_proc</title>
<ellipse fill="#ffffff" stroke="#000000" cx="2934.08" cy="-1120.08" rx="27" ry="18"/>
</g>
<!-- map_enter_p_proc&#45;&gt;Put_Stuff -->
<g id="edge8" class="edge">
<title>map_enter_p_proc&#45;&gt;Put_Stuff</title>
<path fill="none" stroke="#555555" stroke-dasharray="1,5" d="M2934.08,-1101.87C2934.08,-1091.03 2934.08,-1076.77 2934.08,-1064.3"/>
<polygon fill="#555555" stroke="#555555" points="2937.58,-1064.5 2934.08,-1054.5 2930.58,-1064.5 2937.58,-1064.5"/>
</g>
<!-- Vance05&#45;&gt;Barter -->
<g id="edge23" class="edge">
<title>Vance05&#45;&gt;Barter</title>
<path fill="none" stroke="#555555" stroke-dasharray="1,5" d="M1206.11,-329.21C1210.25,-311.09 1219.52,-283.26 1239.08,-268.64 1261.22,-252.11 1334.78,-254.88 1362.08,-250.64 1533.74,-224.03 1730.68,-191.49 1861.74,-169.56"/>
<polygon fill="#555555" stroke="#555555" points="1861.96,-172.9 1871.24,-167.8 1860.8,-166 1861.96,-172.9"/>
</g>
<!-- Vance02&#45;&gt;Vance03 -->
<g id="edge14" class="edge">
<title>Vance02&#45;&gt;Vance03</title>
<path fill="none" stroke="#009908" d="M933.15,-718.89C923.92,-690.75 912.17,-659.95 902.08,-649.33 888.45,-634.97 872.14,-647.92 861.33,-631.33 834.91,-590.78 849.18,-569.28 861.33,-522.43 873.03,-477.34 899.24,-431.49 921.44,-398.2"/>
<polygon fill="#009908" stroke="#009908" points="924.85,-400.39 927.57,-390.15 919.06,-396.46 924.85,-400.39"/>
<text text-anchor="middle" x="959.96" y="-589.46" font-family="Times,serif" font-size="14.00" fill="#009908">Откуда мне знать, если ты</text>
<text text-anchor="middle" x="959.96" y="-572.21" font-family="Times,serif" font-size="14.00" fill="#009908">даже не говоришь, чем</text>
<text text-anchor="middle" x="959.96" y="-554.96" font-family="Times,serif" font-size="14.00" fill="#009908">торгуешь?</text>
</g>
<!-- Vance02&#45;&gt;Vance04 -->
<g id="edge16" class="edge">
<title>Vance02&#45;&gt;Vance04</title>
<path fill="none" stroke="#005199" d="M847.79,-732.81C832.83,-723.93 818.54,-713.4 806.83,-701.08 789.53,-682.86 800.12,-668.67 784.08,-649.33 732,-586.51 651.7,-536.76 595.37,-506.82"/>
<polygon fill="#005199" stroke="#005199" points="597.32,-503.37 586.84,-501.83 594.07,-509.57 597.32,-503.37"/>
<text text-anchor="middle" x="854.71" y="-670.53" font-family="Times,serif" font-size="14.00" fill="#005199">Ладно, пока!</text>
</g>
<!-- Vance02a -->
<g id="node20" class="node">
<title>Vance02a</title>
<ellipse fill="#ffffff" stroke="#000000" cx="1093.08" cy="-576.88" rx="27" ry="18"/>
</g>
<!-- Vance02&#45;&gt;Vance02a -->
<g id="edge15" class="edge">
<title>Vance02&#45;&gt;Vance02a</title>
<path fill="none" stroke="#990025" d="M935.37,-718.96C932.55,-695.09 934.36,-668.18 950.33,-649.33 980.02,-614.29 1012.83,-655.17 1052.08,-631.33 1063.18,-624.59 1072.36,-613.64 1079.2,-603.41"/>
<polygon fill="#990025" stroke="#990025" points="1082.53,-605.69 1084.82,-595.35 1076.58,-602 1082.53,-605.69"/>
<text text-anchor="middle" x="1042.96" y="-679.15" font-family="Times,serif" font-size="14.00" fill="#990025">Приятно познакомиться,</text>
<text text-anchor="middle" x="1042.96" y="-661.9" font-family="Times,serif" font-size="14.00" fill="#990025">Вэнс. Что продаешь?</text>
</g>
<!-- Vance03&#45;&gt;Vance13 -->
<g id="edge19" class="edge">
<title>Vance03&#45;&gt;Vance13</title>
<path fill="none" stroke="#7e9900" d="M922.74,-306.16C904.08,-279.74 888.12,-244.91 904.58,-216.14 922.98,-183.98 962.11,-164.87 991.02,-154.63"/>
<polygon fill="#7e9900" stroke="#7e9900" points="991.78,-157.73 1000.15,-151.24 989.56,-151.09 991.78,-157.73"/>
<text text-anchor="middle" x="1019.83" y="-237.34" font-family="Times,serif" font-size="14.00" fill="#7e9900">Я, ЧЕРТ ТЕБЯ ДЕРИ, ИДУ</text>
<text text-anchor="middle" x="1019.83" y="-220.09" font-family="Times,serif" font-size="14.00" fill="#7e9900">ТУДА, КУДА Я ХОЧУ! ПОНЯЛ?</text>
</g>
<!-- Vance03&#45;&gt;Vance14 -->
<g id="edge20" class="edge">
<title>Vance03&#45;&gt;Vance14</title>
<path fill="none" stroke="#870099" d="M890.37,-309.96C863.32,-296.09 831.63,-280.75 802.08,-268.64 678,-217.83 524.75,-173.26 456.62,-154.35"/>
<polygon fill="#870099" stroke="#870099" points="457.62,-150.72 447.05,-151.43 455.76,-157.46 457.62,-150.72"/>
<text text-anchor="middle" x="817.71" y="-228.72" font-family="Times,serif" font-size="14.00" fill="#870099">Хорошо. Я ухожу.</text>
</g>
<!-- Vance04&#45;&gt;Vance13 -->
<g id="edge21" class="edge">
<title>Vance04&#45;&gt;Vance13</title>
<path fill="none" stroke="#00995b" d="M599.97,-449.09C609.94,-443.01 619.15,-435.51 626.08,-426.33 683.3,-350.58 597.5,-283.8 664.08,-216.14 709.03,-170.47 904.79,-152.55 988.21,-146.9"/>
<polygon fill="#00995b" stroke="#00995b" points="988.23,-150.34 997.98,-146.2 987.77,-143.36 988.23,-150.34"/>
<text text-anchor="middle" x="722.08" y="-351.44" font-family="Times,serif" font-size="14.00" fill="#00995b">Заставь меня... если</text>
<text text-anchor="middle" x="722.08" y="-334.19" font-family="Times,serif" font-size="14.00" fill="#00995b">сможешь, урод!</text>
</g>
<!-- Vance04&#45;&gt;Vance14 -->
<g id="edge22" class="edge">
<title>Vance04&#45;&gt;Vance14</title>
<path fill="none" stroke="#992e00" d="M470.03,-447.59C461.86,-441.71 454.45,-434.67 449.08,-426.33 422.42,-384.9 420.35,-235.58 420.7,-172.81"/>
<polygon fill="#992e00" stroke="#992e00" points="424.21,-173.17 420.79,-163.14 417.21,-173.11 424.21,-173.17"/>
<text text-anchor="middle" x="537.58" y="-342.81" font-family="Times,serif" font-size="14.00" fill="#992e00">Ладно&#45;ладно... Я ухожу.</text>
</g>
<!-- Vance02a&#45;&gt;Vance05 -->
<g id="edge17" class="edge">
<title>Vance02a&#45;&gt;Vance05</title>
<path fill="none" stroke="#555555" stroke-dasharray="1,5" d="M1100.99,-559.53C1119.82,-520.62 1167.4,-422.24 1190.34,-374.83"/>
<polygon fill="#555555" stroke="#555555" points="1193.89,-376.52 1195.1,-366 1187.59,-373.48 1193.89,-376.52"/>
</g>
<!-- Vance02a&#45;&gt;Vance03 -->
<g id="edge18" class="edge">
<title>Vance02a&#45;&gt;Vance03</title>
<path fill="none" stroke="#555555" stroke-dasharray="1,5" d="M1083.59,-559.89C1063.98,-526.87 1018.31,-449.93 987.8,-398.55"/>
<polygon fill="#555555" stroke="#555555" points="990.41,-397.08 982.3,-390.27 984.39,-400.66 990.41,-397.08"/>
</g>
<!-- Vance13&#45;&gt;combat -->
<g id="edge50" class="edge">
<title>Vance13&#45;&gt;combat</title>
<path fill="none" stroke="#555555" stroke-dasharray="1,5" d="M1031.01,-125.76C1036.96,-105.33 1047.03,-70.72 1054.09,-46.46"/>
<polygon fill="#555555" stroke="#555555" points="1057.66,-47.71 1057.1,-37.13 1050.94,-45.76 1057.66,-47.71"/>
</g>
<!-- BottomReact -->
<g id="node30" class="node">
<title>BottomReact</title>
<ellipse fill="#ffffff" stroke="#000000" cx="990.08" cy="-18" rx="27" ry="18"/>
</g>
<!-- Vance13&#45;&gt;BottomReact -->
<g id="edge49" class="edge">
<title>Vance13&#45;&gt;BottomReact</title>
<path fill="none" stroke="#555555" stroke-dasharray="1,5" d="M1021.15,-125.76C1015.21,-105.33 1005.14,-70.72 998.07,-46.46"/>
<polygon fill="#555555" stroke="#555555" points="1001.22,-45.76 995.07,-37.13 994.5,-47.71 1001.22,-45.76"/>
</g>
<!-- Barter&#45;&gt;Get_Stuff -->
<g id="edge51" class="edge">
<title>Barter&#45;&gt;Get_Stuff</title>
<path fill="none" stroke="#555555" stroke-dasharray="1,5" d="M2145.17,-119.29C2314.12,-90.22 2592.16,-42.38 2691.44,-25.3"/>
<polygon fill="#555555" stroke="#555555" points="2691.84,-28.61 2701.11,-23.47 2690.66,-21.72 2691.84,-28.61"/>
</g>
<!-- VanceEnd -->
<g id="node31" class="node">
<title>VanceEnd</title>
<ellipse fill="#ffffff" stroke="#000000" cx="2009.08" cy="-18" rx="27" ry="18"/>
</g>
<!-- Barter&#45;&gt;VanceEnd -->
<g id="edge52" class="edge">
<title>Barter&#45;&gt;VanceEnd</title>
<path fill="none" stroke="#99006c" d="M2009.08,-88.8C2009.08,-74.49 2009.08,-59.61 2009.08,-47.28"/>
<polygon fill="#99006c" stroke="#99006c" points="2012.58,-47.34 2009.08,-37.34 2005.58,-47.34 2012.58,-47.34"/>
<text text-anchor="middle" x="2041.71" y="-57.95" font-family="Times,serif" font-size="14.00" fill="#99006c">Спасибо.</text>
</g>
<!-- Barter&#45;&gt;VanceEnd -->
<g id="edge53" class="edge">
<title>Barter&#45;&gt;VanceEnd</title>
<path fill="none" stroke="#009899" d="M1986.7,-89.53C1984.31,-77.78 1983.79,-65.43 1987.08,-54 1988.08,-50.55 1989.52,-47.12 1991.2,-43.82"/>
<polygon fill="#009899" stroke="#009899" points="1994.66,-45.85 1996.74,-35.47 1988.63,-42.29 1994.66,-45.85"/>
<text text-anchor="middle" x="1996.08" y="-57.95" font-family="Times,serif" font-size="14.00" fill="#009899">Ы.</text>
</g>
<!-- Vance07&#45;&gt;Vance13 -->
<g id="edge30" class="edge">
<title>Vance07&#45;&gt;Vance13</title>
<path fill="none" stroke="#009927" d="M1373.8,-317.17C1354.76,-287.39 1321.43,-242.09 1281.08,-216.14 1212.27,-171.89 1115.92,-154.64 1063.56,-148.23"/>
<polygon fill="#009927" stroke="#009927" points="1064.1,-144.66 1053.77,-146.99 1063.3,-151.61 1064.1,-144.66"/>
<text text-anchor="middle" x="1339.83" y="-228.72" font-family="Times,serif" font-size="14.00" fill="#009927">НЕТ!</text>
</g>
<!-- Vance07&#45;&gt;Vance14 -->
<g id="edge31" class="edge">
<title>Vance07&#45;&gt;Vance14</title>
<path fill="none" stroke="#990005" d="M1340.24,-318.99C1272.61,-282.62 1159.11,-222.36 1138.08,-216.14 1121.59,-211.27 603.84,-162 458.62,-148.25"/>
<polygon fill="#990005" stroke="#990005" points="459.33,-144.7 449.04,-147.24 458.67,-151.67 459.33,-144.7"/>
<text text-anchor="middle" x="1240.08" y="-228.72" font-family="Times,serif" font-size="14.00" fill="#990005">Я ухожу.</text>
</g>
<!-- Vance08&#45;&gt;Vance13 -->
<g id="edge32" class="edge">
<title>Vance08&#45;&gt;Vance13</title>
<path fill="none" stroke="#003299" d="M2372.59,-539.22C2283.42,-509.54 2151.76,-468.78 2034.08,-444.33 2001.81,-437.62 1914,-445 1886.83,-426.33 1821.43,-381.39 1866.02,-316.98 1803.08,-268.64 1720.96,-205.57 1677.99,-234.5 1576.08,-216.14 1384.76,-181.68 1153.11,-157.14 1063.76,-148.3"/>
<polygon fill="#003299" stroke="#003299" points="1064.13,-144.73 1053.84,-147.23 1063.45,-151.69 1064.13,-144.73"/>
<text text-anchor="middle" x="1981.71" y="-342.81" font-family="Times,serif" font-size="14.00" fill="#003299">Они похожи на пару геев.</text>
</g>
<!-- Vance08&#45;&gt;Vance15 -->
<g id="edge34" class="edge">
<title>Vance08&#45;&gt;Vance15</title>
<path fill="none" stroke="#99008b" d="M2556.94,-531.17C2565.34,-523.31 2572.75,-514.41 2578.08,-504.43 2608.3,-447.91 2610.72,-275.31 2586.08,-216.14 2577.06,-194.47 2557.91,-176 2541.62,-163.27"/>
<polygon fill="#99008b" stroke="#99008b" points="2544.06,-159.97 2533.95,-156.8 2539.88,-165.58 2544.06,-159.97"/>
<text text-anchor="middle" x="2698.08" y="-368.69" font-family="Times,serif" font-size="14.00" fill="#99008b">Я тут просто слегка</text>
<text text-anchor="middle" x="2698.08" y="-351.44" font-family="Times,serif" font-size="14.00" fill="#99008b">зависну на некоторое</text>
<text text-anchor="middle" x="2698.08" y="-334.19" font-family="Times,serif" font-size="14.00" fill="#99008b">время, если вы, парни, не</text>
<text text-anchor="middle" x="2698.08" y="-316.94" font-family="Times,serif" font-size="14.00" fill="#99008b">против.</text>
</g>
<!-- Vance10 -->
<g id="node28" class="node">
<title>Vance10</title>
<ellipse fill="#ffffff" stroke="#000000" cx="2437.08" cy="-347.49" rx="102.77" ry="18"/>
<text text-anchor="middle" x="2437.08" y="-342.81" font-family="Times,serif" font-size="14.00">Перейдем к делу.</text>
</g>
<!-- Vance08&#45;&gt;Vance10 -->
<g id="edge33" class="edge">
<title>Vance08&#45;&gt;Vance10</title>
<path fill="none" stroke="#5f9900" d="M2422.11,-526.63C2416.95,-519.7 2412.49,-512.26 2409.33,-504.43 2391.97,-461.35 2409.6,-407.23 2423.6,-375.4"/>
<polygon fill="#5f9900" stroke="#5f9900" points="2427.16,-377.05 2428.16,-366.5 2420.8,-374.12 2427.16,-377.05"/>
<text text-anchor="middle" x="2493.46" y="-478.33" font-family="Times,serif" font-size="14.00" fill="#5f9900">Приятно было</text>
<text text-anchor="middle" x="2493.46" y="-461.08" font-family="Times,serif" font-size="14.00" fill="#5f9900">познакомиться, парни.</text>
</g>
<!-- Vance09&#45;&gt;Barter -->
<g id="edge35" class="edge">
<title>Vance09&#45;&gt;Barter</title>
<path fill="none" stroke="#00997a" d="M1804.69,-522.76C1811.7,-496.21 1813.55,-465.34 1795.08,-444.33 1753.88,-397.46 1697.03,-473.2 1655.83,-426.33 1609.56,-373.69 1615.7,-326.1 1655.83,-268.64 1699.91,-205.55 1778.8,-174.3 1850.87,-158.94"/>
<polygon fill="#00997a" stroke="#00997a" points="1851.34,-162.21 1860.44,-156.79 1849.95,-155.35 1851.34,-162.21"/>
<text text-anchor="middle" x="1727.71" y="-351.44" font-family="Times,serif" font-size="14.00" fill="#00997a">Очень хорошо. Чем</text>
<text text-anchor="middle" x="1727.71" y="-334.19" font-family="Times,serif" font-size="14.00" fill="#00997a">торгуешь?</text>
</g>
<!-- Vance09&#45;&gt;Vance07 -->
<g id="edge36" class="edge">
<title>Vance09&#45;&gt;Vance07</title>
<path fill="none" stroke="#994e00" d="M1671.12,-538.99C1645.89,-529.07 1619.69,-517.43 1596.33,-504.43 1534.44,-470.01 1470.64,-418.56 1430.94,-384.28"/>
<polygon fill="#994e00" stroke="#994e00" points="1433.68,-381.16 1423.84,-377.24 1429.09,-386.44 1433.68,-381.16"/>
<text text-anchor="middle" x="1696.46" y="-486.96" font-family="Times,serif" font-size="14.00" fill="#994e00">Я знаю, чем ты тут</text>
<text text-anchor="middle" x="1696.46" y="-469.71" font-family="Times,serif" font-size="14.00" fill="#994e00">занимаешься, и мне это не</text>
<text text-anchor="middle" x="1696.46" y="-452.46" font-family="Times,serif" font-size="14.00" fill="#994e00">нравится.</text>
</g>
<!-- Vance09&#45;&gt;Vance15 -->
<g id="edge37" class="edge">
<title>Vance09&#45;&gt;Vance15</title>
<path fill="none" stroke="#210099" d="M1928.26,-557.77C1966.15,-547.21 2004.59,-530.58 2034.08,-504.43 2119.13,-429.04 2058.77,-354.64 2133.08,-268.64 2162.61,-234.47 2178.32,-233.34 2220.08,-216.14 2308.65,-179.67 2420.2,-158.91 2477.07,-149.98"/>
<polygon fill="#210099" stroke="#210099" points="2477.33,-153.33 2486.69,-148.35 2476.27,-146.41 2477.33,-153.33"/>
<text text-anchor="middle" x="2229.08" y="-368.69" font-family="Times,serif" font-size="14.00" fill="#210099">Я тут просто слегка</text>
<text text-anchor="middle" x="2229.08" y="-351.44" font-family="Times,serif" font-size="14.00" fill="#210099">зависну на некоторое</text>
<text text-anchor="middle" x="2229.08" y="-334.19" font-family="Times,serif" font-size="14.00" fill="#210099">время, если вы, парни, не</text>
<text text-anchor="middle" x="2229.08" y="-316.94" font-family="Times,serif" font-size="14.00" fill="#210099">против.</text>
</g>
<!-- Vance10&#45;&gt;Barter -->
<g id="edge38" class="edge">
<title>Vance10&#45;&gt;Barter</title>
<path fill="none" stroke="#0c9900" d="M2415.85,-329.42C2393.28,-312 2355.95,-285.24 2320.08,-268.64 2293.75,-256.46 2282.19,-265.6 2257.33,-250.64 2239.08,-239.67 2242.1,-227.5 2224.08,-216.14 2199.78,-200.83 2171.85,-188.44 2144.33,-178.55"/>
<polygon fill="#0c9900" stroke="#0c9900" points="2145.81,-175.01 2135.22,-175.02 2143.51,-181.62 2145.81,-175.01"/>
<text text-anchor="middle" x="2336.96" y="-228.72" font-family="Times,serif" font-size="14.00" fill="#0c9900">Ну, че у тебя есть&#45;то?</text>
</g>
<!-- Vance10&#45;&gt;Vance15 -->
<g id="edge39" class="edge">
<title>Vance10&#45;&gt;Vance15</title>
<path fill="none" stroke="#990038" d="M2431.2,-329.07C2423.5,-303.12 2412.87,-253.38 2430.08,-216.14 2441.15,-192.21 2464.62,-173.35 2483.95,-161.03"/>
<polygon fill="#990038" stroke="#990038" points="2485.57,-163.53 2492.31,-155.35 2481.94,-157.55 2485.57,-163.53"/>
<text text-anchor="middle" x="2508.08" y="-237.34" font-family="Times,serif" font-size="14.00" fill="#990038">Я думаю, я тут чуток</text>
<text text-anchor="middle" x="2508.08" y="-220.09" font-family="Times,serif" font-size="14.00" fill="#990038">зависну.</text>
</g>
<!-- Vance11a&#45;&gt;Vance02 -->
<g id="edge43" class="edge">
<title>Vance11a&#45;&gt;Vance02</title>
<path fill="none" stroke="#555555" stroke-dasharray="1,5" d="M1124.13,-886.14C1102.6,-872.41 1066.01,-849.08 1031.83,-827.29"/>
<polygon fill="#555555" stroke="#555555" points="1034.05,-823.91 1023.74,-821.49 1030.29,-829.82 1034.05,-823.91"/>
</g>
<!-- Vance11a&#45;&gt;Vance13 -->
<g id="edge44" class="edge">
<title>Vance11a&#45;&gt;Vance13</title>
<path fill="none" stroke="#555555" stroke-dasharray="1,5" d="M1143.81,-881.05C1147.89,-781.04 1166.79,-276.04 1134.08,-216.14 1118.27,-187.18 1085.09,-167.94 1059.65,-156.8"/>
<polygon fill="#555555" stroke="#555555" points="1061.22,-153.25 1050.64,-152.65 1058.54,-159.71 1061.22,-153.25"/>
</g>
</g>
</svg>
