<?xml version="1.0" encoding="UTF-8" standalone="no"?>
<!DOCTYPE svg PUBLIC "-//W3C//DTD SVG 1.1//EN"
 "http://www.w3.org/Graphics/SVG/1.1/DTD/svg11.dtd">
<!-- Generated by graphviz version 8.0.5 (0)
 -->
<!-- Title: vatteam9 Pages: 1 -->
<svg width="472pt" height="140pt"
 viewBox="0.00 0.00 472.00 140.10" xmlns="http://www.w3.org/2000/svg" xmlns:xlink="http://www.w3.org/1999/xlink">
<g id="graph0" class="graph" transform="scale(1 1) rotate(0) translate(4 136.1)">
<title>vatteam9</title>
<polygon fill="white" stroke="none" points="-4,4 -4,-136.1 468,-136.1 468,4 -4,4"/>
<!-- start -->
<g id="node1" class="node">
<title>start</title>
<ellipse fill="#ffffff" stroke="#000000" cx="280" cy="-114.1" rx="27" ry="18"/>
</g>
<!-- critter_p_proc -->
<g id="node2" class="node">
<title>critter_p_proc</title>
<ellipse fill="#ffffff" stroke="#000000" cx="27" cy="-30.05" rx="27" ry="18"/>
</g>
<!-- start&#45;&gt;critter_p_proc -->
<g id="edge1" class="edge">
<title>start&#45;&gt;critter_p_proc</title>
<path fill="none" stroke="#555555" stroke-dasharray="1,5" d="M253.34,-110.39C211.08,-105.28 126.96,-91.74 63,-60.1 58.59,-57.92 54.23,-55.12 50.14,-52.12"/>
<polygon fill="#555555" stroke="#555555" points="52.73,-48.91 42.74,-45.4 48.36,-54.38 52.73,-48.91"/>
</g>
<!-- description_p_proc -->
<g id="node3" class="node">
<title>description_p_proc</title>
<ellipse fill="#ffffff" stroke="#000000" cx="196" cy="-30.05" rx="123.74" ry="30.05"/>
<text text-anchor="middle" x="196" y="-34" font-family="Times,serif" font-size="14.00">Вы видите солдата из</text>
<text text-anchor="middle" x="196" y="-16.75" font-family="Times,serif" font-size="14.00">Детей ночи.</text>
</g>
<!-- start&#45;&gt;description_p_proc -->
<g id="edge2" class="edge">
<title>start&#45;&gt;description_p_proc</title>
<path fill="none" stroke="#555555" stroke-dasharray="1,5" d="M265.37,-98.81C256.36,-90.01 244.36,-78.29 232.89,-67.09"/>
<polygon fill="#555555" stroke="#555555" points="235.67,-64.93 226.07,-60.45 230.78,-69.94 235.67,-64.93"/>
</g>
<!-- destroy_p_proc -->
<g id="node4" class="node">
<title>destroy_p_proc</title>
<ellipse fill="#ffffff" stroke="#000000" cx="365" cy="-30.05" rx="27" ry="18"/>
</g>
<!-- start&#45;&gt;destroy_p_proc -->
<g id="edge3" class="edge">
<title>start&#45;&gt;destroy_p_proc</title>
<path fill="none" stroke="#555555" stroke-dasharray="1,5" d="M294.81,-98.81C307.89,-86.18 327.17,-67.57 342.22,-53.04"/>
<polygon fill="#555555" stroke="#555555" points="344.31,-55.92 349.08,-46.46 339.45,-50.88 344.31,-55.92"/>
</g>
<!-- pickup_p_proc -->
<g id="node5" class="node">
<title>pickup_p_proc</title>
<ellipse fill="#ffffff" stroke="#000000" cx="437" cy="-30.05" rx="27" ry="18"/>
</g>
<!-- start&#45;&gt;pickup_p_proc -->
<g id="edge4" class="edge">
<title>start&#45;&gt;pickup_p_proc</title>
<path fill="none" stroke="#555555" stroke-dasharray="1,5" d="M303.65,-104.89C328.73,-95.69 369.05,-79.51 401,-60.1 405.02,-57.66 409.08,-54.82 412.95,-51.89"/>
<polygon fill="#555555" stroke="#555555" points="414.91,-54 420.55,-45.03 410.55,-48.53 414.91,-54"/>
</g>
</g>
</svg>
