<?xml version="1.0" encoding="UTF-8" standalone="no"?>
<!DOCTYPE svg PUBLIC "-//W3C//DTD SVG 1.1//EN"
 "http://www.w3.org/Graphics/SVG/1.1/DTD/svg11.dtd">
<!-- Generated by graphviz version 8.0.5 (0)
 -->
<!-- Title: vinnie Pages: 1 -->
<svg width="3326pt" height="2213pt"
 viewBox="0.00 0.00 3326.28 2212.83" xmlns="http://www.w3.org/2000/svg" xmlns:xlink="http://www.w3.org/1999/xlink">
<g id="graph0" class="graph" transform="scale(1 1) rotate(0) translate(4 2208.83)">
<title>vinnie</title>
<polygon fill="white" stroke="none" points="-4,4 -4,-2208.83 3322.28,-2208.83 3322.28,4 -4,4"/>
<!-- start -->
<g id="node1" class="node">
<title>start</title>
<ellipse fill="#ffffff" stroke="#000000" cx="253.03" cy="-2040.61" rx="27" ry="18"/>
</g>
<!-- critter_p_proc -->
<g id="node2" class="node">
<title>critter_p_proc</title>
<ellipse fill="#ffffff" stroke="#000000" cx="447.03" cy="-2040.61" rx="148.67" ry="30.05"/>
<text text-anchor="middle" x="447.03" y="-2044.56" font-family="Times,serif" font-size="14.00">Мы сказали, что мы еще</text>
<text text-anchor="middle" x="447.03" y="-2027.31" font-family="Times,serif" font-size="14.00">вернемся, старый пердун!</text>
</g>
<!-- destroy_p_proc -->
<g id="node3" class="node">
<title>destroy_p_proc</title>
<ellipse fill="#ffffff" stroke="#000000" cx="641.03" cy="-2040.61" rx="27" ry="18"/>
</g>
<!-- look_at_p_proc -->
<g id="node4" class="node">
<title>look_at_p_proc</title>
<ellipse fill="#ffffff" stroke="#000000" cx="837.03" cy="-2040.61" rx="151.32" ry="78.84"/>
<text text-anchor="middle" x="837.03" y="-2079.06" font-family="Times,serif" font-size="14.00">Вы видите Винни из банды</text>
<text text-anchor="middle" x="837.03" y="-2061.81" font-family="Times,serif" font-size="14.00">Черепов.</text>
<text text-anchor="middle" x="837.03" y="-2044.56" font-family="Times,serif" font-size="14.00">&#45;&#45;&#45;</text>
<text text-anchor="middle" x="837.03" y="-2027.31" font-family="Times,serif" font-size="14.00">Вы видите молодого</text>
<text text-anchor="middle" x="837.03" y="-2010.06" font-family="Times,serif" font-size="14.00">человека с татуировкой и</text>
<text text-anchor="middle" x="837.03" y="-1992.81" font-family="Times,serif" font-size="14.00">мрачной рожей.</text>
</g>
<!-- map_enter_p_proc -->
<g id="node5" class="node">
<title>map_enter_p_proc</title>
<ellipse fill="#ffffff" stroke="#000000" cx="1033.03" cy="-2040.61" rx="27" ry="18"/>
</g>
<!-- pickup_p_proc -->
<g id="node6" class="node">
<title>pickup_p_proc</title>
<ellipse fill="#ffffff" stroke="#000000" cx="1105.03" cy="-2040.61" rx="27" ry="18"/>
</g>
<!-- talk_p_proc -->
<g id="node7" class="node">
<title>talk_p_proc</title>
<ellipse fill="#ffffff" stroke="#000000" cx="1307.03" cy="-2040.61" rx="156.62" ry="164.23"/>
<text text-anchor="middle" x="1307.03" y="-2139.43" font-family="Times,serif" font-size="14.00">Эй, брат, мы правим этим</text>
<text text-anchor="middle" x="1307.03" y="-2122.18" font-family="Times,serif" font-size="14.00">городом!</text>
<text text-anchor="middle" x="1307.03" y="-2104.93" font-family="Times,serif" font-size="14.00">&#45;&#45;&#45;</text>
<text text-anchor="middle" x="1307.03" y="-2087.68" font-family="Times,serif" font-size="14.00">Мы управляем этим</text>
<text text-anchor="middle" x="1307.03" y="-2070.43" font-family="Times,serif" font-size="14.00">городом.</text>
<text text-anchor="middle" x="1307.03" y="-2053.18" font-family="Times,serif" font-size="14.00">&#45;&#45;&#45;</text>
<text text-anchor="middle" x="1307.03" y="-2035.93" font-family="Times,serif" font-size="14.00">Вы получаете 400 единиц</text>
<text text-anchor="middle" x="1307.03" y="-2018.68" font-family="Times,serif" font-size="14.00">опыта за кражу урны Нила.</text>
<text text-anchor="middle" x="1307.03" y="-2001.43" font-family="Times,serif" font-size="14.00">Мертвым нечасто удается</text>
<text text-anchor="middle" x="1307.03" y="-1984.18" font-family="Times,serif" font-size="14.00">почить в мире.</text>
<text text-anchor="middle" x="1307.03" y="-1966.93" font-family="Times,serif" font-size="14.00">&#45;&#45;&#45;</text>
<text text-anchor="middle" x="1307.03" y="-1949.68" font-family="Times,serif" font-size="14.00">Скоро Нил получит свое,</text>
<text text-anchor="middle" x="1307.03" y="-1932.43" font-family="Times,serif" font-size="14.00">да?</text>
</g>
<!-- Vinnie24 -->
<g id="node8" class="node">
<title>Vinnie24</title>
<ellipse fill="#ffffff" stroke="#000000" cx="350.03" cy="-419.58" rx="144.96" ry="30.05"/>
<text text-anchor="middle" x="350.03" y="-423.53" font-family="Times,serif" font-size="14.00">Ну что, пойдем займемся</text>
<text text-anchor="middle" x="350.03" y="-406.28" font-family="Times,serif" font-size="14.00">Нилом?</text>
</g>
<!-- talk_p_proc&#45;&gt;Vinnie24 -->
<g id="edge1" class="edge">
<title>talk_p_proc&#45;&gt;Vinnie24</title>
<path fill="none" stroke="#555555" stroke-dasharray="1,5" d="M1202.25,-1918.16C1183.36,-1901.96 1162.72,-1887.23 1141.03,-1876.38 1037.51,-1824.59 626.03,-1913.89 626.03,-1798.13 626.03,-1798.13 626.03,-1798.13 626.03,-651.82 626.03,-550.15 514.64,-484.33 433.38,-449.85"/>
<polygon fill="#555555" stroke="#555555" points="435.21,-446.4 424.63,-445.8 432.53,-452.86 435.21,-446.4"/>
</g>
<!-- Vinnie19 -->
<g id="node9" class="node">
<title>Vinnie19</title>
<ellipse fill="#ffffff" stroke="#000000" cx="1020.03" cy="-652.82" rx="76.99" ry="18"/>
<text text-anchor="middle" x="1020.03" y="-648.14" font-family="Times,serif" font-size="14.00">Урна у тебя?</text>
</g>
<!-- talk_p_proc&#45;&gt;Vinnie19 -->
<g id="edge2" class="edge">
<title>talk_p_proc&#45;&gt;Vinnie19</title>
<path fill="none" stroke="#555555" stroke-dasharray="1,5" d="M1196.02,-1924.45C1178.17,-1907.72 1159.48,-1891.17 1141.03,-1876.38 1091.05,-1836.33 1020.03,-1862.17 1020.03,-1798.13 1020.03,-1798.13 1020.03,-1798.13 1020.03,-867.8 1020.03,-801.22 1020.03,-722.98 1020.03,-682.04"/>
<polygon fill="#555555" stroke="#555555" points="1023.53,-682.29 1020.03,-672.29 1016.53,-682.29 1023.53,-682.29"/>
</g>
<!-- Vinnie10 -->
<g id="node10" class="node">
<title>Vinnie10</title>
<ellipse fill="#ffffff" stroke="#000000" cx="2653.03" cy="-1797.13" rx="93.3" ry="18"/>
<text text-anchor="middle" x="2653.03" y="-1792.46" font-family="Times,serif" font-size="14.00">Чего тебе надо?</text>
</g>
<!-- talk_p_proc&#45;&gt;Vinnie10 -->
<g id="edge3" class="edge">
<title>talk_p_proc&#45;&gt;Vinnie10</title>
<path fill="none" stroke="#555555" stroke-dasharray="1,5" d="M1410.48,-1916.75C1429.61,-1900.62 1450.68,-1886.28 1473.03,-1876.38 1539.07,-1847.13 2049.97,-1844.23 2122.03,-1839.38 2274.78,-1829.1 2452.05,-1814.86 2558.24,-1806.09"/>
<polygon fill="#555555" stroke="#555555" points="2558.25,-1809.52 2567.92,-1805.2 2557.67,-1802.54 2558.25,-1809.52"/>
</g>
<!-- Vinnie01 -->
<g id="node11" class="node">
<title>Vinnie01</title>
<ellipse fill="#ffffff" stroke="#000000" cx="1968.03" cy="-1797.13" rx="144.96" ry="42.25"/>
<text text-anchor="middle" x="1968.03" y="-1809.71" font-family="Times,serif" font-size="14.00">Ты стоишь на территории</text>
<text text-anchor="middle" x="1968.03" y="-1792.46" font-family="Times,serif" font-size="14.00">Черепов, чужеземец.</text>
<text text-anchor="middle" x="1968.03" y="-1775.21" font-family="Times,serif" font-size="14.00">Говори быстро.</text>
</g>
<!-- talk_p_proc&#45;&gt;Vinnie01 -->
<g id="edge4" class="edge">
<title>talk_p_proc&#45;&gt;Vinnie01</title>
<path fill="none" stroke="#555555" stroke-dasharray="1,5" d="M1411.87,-1918.27C1430.75,-1902.06 1451.38,-1887.3 1473.03,-1876.38 1532.2,-1846.56 1696.18,-1824.52 1819.32,-1811.57"/>
<polygon fill="#555555" stroke="#555555" points="1819.39,-1814.97 1828.97,-1810.46 1818.67,-1808.01 1819.39,-1814.97"/>
</g>
<!-- VinnieKillNeal -->
<g id="node35" class="node">
<title>VinnieKillNeal</title>
<ellipse fill="#ffffff" stroke="#000000" cx="401.03" cy="-139.64" rx="27" ry="18"/>
</g>
<!-- Vinnie24&#45;&gt;VinnieKillNeal -->
<g id="edge46" class="edge">
<title>Vinnie24&#45;&gt;VinnieKillNeal</title>
<path fill="none" stroke="#009905" d="M334.52,-389.46C315.96,-350.44 290.15,-279.68 313.78,-224.29 325.64,-196.51 351.75,-173.52 372.33,-158.72"/>
<polygon fill="#009905" stroke="#009905" points="374.09,-161.07 380.33,-152.51 370.11,-155.31 374.09,-161.07"/>
<text text-anchor="middle" x="390.16" y="-271.36" font-family="Times,serif" font-size="14.00" fill="#009905">Да, давайте завалим</text>
<text text-anchor="middle" x="390.16" y="-254.11" font-family="Times,serif" font-size="14.00" fill="#009905">ублюдка.</text>
</g>
<!-- Vinnie23 -->
<g id="node36" class="node">
<title>Vinnie23</title>
<ellipse fill="#ffffff" stroke="#000000" cx="760.03" cy="-139.64" rx="141.24" ry="30.05"/>
<text text-anchor="middle" x="760.03" y="-143.59" font-family="Times,serif" font-size="14.00">А, ладно... подкатывайся</text>
<text text-anchor="middle" x="760.03" y="-126.34" font-family="Times,serif" font-size="14.00">потом, но не опаздывай.</text>
</g>
<!-- Vinnie24&#45;&gt;Vinnie23 -->
<g id="edge47" class="edge">
<title>Vinnie24&#45;&gt;Vinnie23</title>
<path fill="none" stroke="#990028" d="M398.58,-390.95C436.49,-370.59 491.09,-343.88 542.03,-328.54 594.51,-312.74 623.99,-347.96 664.03,-310.54 692.69,-283.75 664.67,-259.09 682.78,-224.29 691.86,-206.85 705.55,-190.33 718.89,-176.65"/>
<polygon fill="#990028" stroke="#990028" points="721.03,-179.47 725.67,-169.94 716.11,-174.5 721.03,-179.47"/>
<text text-anchor="middle" x="781.66" y="-271.36" font-family="Times,serif" font-size="14.00" fill="#990028">Не, мне еще кое&#45;чего надо</text>
<text text-anchor="middle" x="781.66" y="-254.11" font-family="Times,serif" font-size="14.00" fill="#990028">сделать.</text>
</g>
<!-- Vinnie25 -->
<g id="node37" class="node">
<title>Vinnie25</title>
<ellipse fill="#ffffff" stroke="#000000" cx="155.03" cy="-139.64" rx="155.03" ry="42.25"/>
<text text-anchor="middle" x="155.03" y="-152.22" font-family="Times,serif" font-size="14.00">Слишком поздно для этого,</text>
<text text-anchor="middle" x="155.03" y="-134.97" font-family="Times,serif" font-size="14.00">пройдоха. Хочешь выйти &#45;</text>
<text text-anchor="middle" x="155.03" y="-117.72" font-family="Times,serif" font-size="14.00">кричи.</text>
</g>
<!-- Vinnie24&#45;&gt;Vinnie25 -->
<g id="edge48" class="edge">
<title>Vinnie24&#45;&gt;Vinnie25</title>
<path fill="none" stroke="#005499" d="M248.66,-397.77C200.59,-382.27 147.52,-355.68 118.78,-310.54 96.06,-274.84 109.13,-227.24 125.59,-191.51"/>
<polygon fill="#005499" stroke="#005499" points="129.1,-193.29 130.3,-182.76 122.8,-190.24 129.1,-193.29"/>
<text text-anchor="middle" x="210.16" y="-271.36" font-family="Times,serif" font-size="14.00" fill="#005499">Никоим образом. Я хочу</text>
<text text-anchor="middle" x="210.16" y="-254.11" font-family="Times,serif" font-size="14.00" fill="#005499">выйти.</text>
</g>
<!-- Vinnie22 -->
<g id="node30" class="node">
<title>Vinnie22</title>
<ellipse fill="#ffffff" stroke="#000000" cx="1140.03" cy="-139.64" rx="146.02" ry="54.45"/>
<text text-anchor="middle" x="1140.03" y="-160.84" font-family="Times,serif" font-size="14.00">Вот так старому пердуну!</text>
<text text-anchor="middle" x="1140.03" y="-143.59" font-family="Times,serif" font-size="14.00">Спасибо за такое дело.</text>
<text text-anchor="middle" x="1140.03" y="-126.34" font-family="Times,serif" font-size="14.00">[Винни выжимает слезу.]</text>
<text text-anchor="middle" x="1140.03" y="-109.09" font-family="Times,serif" font-size="14.00">Теперь ты &#45; Череп.</text>
</g>
<!-- Vinnie19&#45;&gt;Vinnie22 -->
<g id="edge41" class="edge">
<title>Vinnie19&#45;&gt;Vinnie22</title>
<path fill="none" stroke="#99007a" d="M1035.26,-635.1C1056.96,-610.13 1096.03,-560.64 1113.03,-510.62 1147.9,-408.04 1148.6,-280.51 1144.98,-205.12"/>
<polygon fill="#99007a" stroke="#99007a" points="1148.44,-205.19 1144.42,-195.39 1141.45,-205.56 1148.44,-205.19"/>
<text text-anchor="middle" x="1244.16" y="-440.78" font-family="Times,serif" font-size="14.00" fill="#99007a">Мне пришлось убить Нила,</text>
<text text-anchor="middle" x="1244.16" y="-423.53" font-family="Times,serif" font-size="14.00" fill="#99007a">чтобы заполучить ее.</text>
<text text-anchor="middle" x="1244.16" y="-406.28" font-family="Times,serif" font-size="14.00" fill="#99007a">Плакал, как малая</text>
<text text-anchor="middle" x="1244.16" y="-389.03" font-family="Times,serif" font-size="14.00" fill="#99007a">девчонка.</text>
</g>
<!-- Vinnie20 -->
<g id="node33" class="node">
<title>Vinnie20</title>
<ellipse fill="#ffffff" stroke="#000000" cx="686.03" cy="-419.58" rx="135.41" ry="54.45"/>
<text text-anchor="middle" x="686.03" y="-440.78" font-family="Times,serif" font-size="14.00">Ха&#45;ха! Ну, пусть старый</text>
<text text-anchor="middle" x="686.03" y="-423.53" font-family="Times,serif" font-size="14.00">хрыч пострадает до</text>
<text text-anchor="middle" x="686.03" y="-406.28" font-family="Times,serif" font-size="14.00">вечера, а тогда мы его</text>
<text text-anchor="middle" x="686.03" y="-389.03" font-family="Times,serif" font-size="14.00">кончим &#45; ты в деле?</text>
</g>
<!-- Vinnie19&#45;&gt;Vinnie20 -->
<g id="edge39" class="edge">
<title>Vinnie19&#45;&gt;Vinnie20</title>
<path fill="none" stroke="#002199" d="M996.28,-635.37C948.23,-602.11 837.68,-525.57 762.39,-473.45"/>
<polygon fill="#002199" stroke="#002199" points="764.61,-470.03 754.39,-467.22 760.62,-475.79 764.61,-470.03"/>
<text text-anchor="middle" x="923.03" y="-549.82" font-family="Times,serif" font-size="14.00" fill="#002199">Да.</text>
</g>
<!-- Vinnie21 -->
<g id="node34" class="node">
<title>Vinnie21</title>
<ellipse fill="#ffffff" stroke="#000000" cx="972.03" cy="-419.58" rx="132.23" ry="30.05"/>
<text text-anchor="middle" x="972.03" y="-423.53" font-family="Times,serif" font-size="14.00">На что ты тратишь мое</text>
<text text-anchor="middle" x="972.03" y="-406.28" font-family="Times,serif" font-size="14.00">время?</text>
</g>
<!-- Vinnie19&#45;&gt;Vinnie21 -->
<g id="edge40" class="edge">
<title>Vinnie19&#45;&gt;Vinnie21</title>
<path fill="none" stroke="#4e9900" d="M1016.43,-634.44C1008.81,-597.74 990.92,-511.55 980.32,-460.5"/>
<polygon fill="#4e9900" stroke="#4e9900" points="983.57,-459.94 978.11,-450.86 976.72,-461.36 983.57,-459.94"/>
<text text-anchor="middle" x="1020.16" y="-549.82" font-family="Times,serif" font-size="14.00" fill="#4e9900">Нет.</text>
</g>
<!-- Vinnie01a -->
<g id="node16" class="node">
<title>Vinnie01a</title>
<ellipse fill="#ffffff" stroke="#000000" cx="2653.03" cy="-1654.33" rx="27" ry="18"/>
</g>
<!-- Vinnie10&#45;&gt;Vinnie01a -->
<g id="edge22" class="edge">
<title>Vinnie10&#45;&gt;Vinnie01a</title>
<path fill="none" stroke="#004199" d="M2653.03,-1778.87C2653.03,-1755.11 2653.03,-1712.07 2653.03,-1683.59"/>
<polygon fill="#004199" stroke="#004199" points="2656.53,-1683.74 2653.03,-1673.74 2649.53,-1683.74 2656.53,-1683.74"/>
<text text-anchor="middle" x="2745.66" y="-1723.58" font-family="Times,serif" font-size="14.00" fill="#004199">Я хочу присоединиться к</text>
<text text-anchor="middle" x="2745.66" y="-1706.33" font-family="Times,serif" font-size="14.00" fill="#004199">вам, парни.</text>
</g>
<!-- VinnieEnd -->
<g id="node20" class="node">
<title>VinnieEnd</title>
<ellipse fill="#ffffff" stroke="#000000" cx="2766.03" cy="-139.64" rx="27" ry="18"/>
</g>
<!-- Vinnie10&#45;&gt;VinnieEnd -->
<g id="edge21" class="edge">
<title>Vinnie10&#45;&gt;VinnieEnd</title>
<path fill="none" stroke="#990014" d="M2742.09,-1791.37C2896.14,-1780.68 3196.03,-1747.97 3196.03,-1655.33 3196.03,-1655.33 3196.03,-1655.33 3196.03,-741.51 3196.03,-559.53 2926.31,-268.79 2862.03,-224.29 2837.74,-207.47 2820.71,-225.23 2798.03,-206.29 2786.21,-196.42 2778.4,-181.12 2773.46,-167.78"/>
<polygon fill="#990014" stroke="#990014" points="2776.56,-167.03 2770.09,-158.64 2769.92,-169.24 2776.56,-167.03"/>
<text text-anchor="middle" x="3257.16" y="-1194.21" font-family="Times,serif" font-size="14.00" fill="#990014">Ничего. Пардон.</text>
</g>
<!-- Vinnie02 -->
<g id="node14" class="node">
<title>Vinnie02</title>
<ellipse fill="#ffffff" stroke="#000000" cx="2135.03" cy="-1654.33" rx="139.12" ry="30.05"/>
<text text-anchor="middle" x="2135.03" y="-1658.28" font-family="Times,serif" font-size="14.00">Да, бьюсь об заклад, что</text>
<text text-anchor="middle" x="2135.03" y="-1641.03" font-family="Times,serif" font-size="14.00">в другую!</text>
</g>
<!-- Vinnie01&#45;&gt;Vinnie02 -->
<g id="edge5" class="edge">
<title>Vinnie01&#45;&gt;Vinnie02</title>
<path fill="none" stroke="#990034" d="M2014.55,-1756.91C2039.16,-1736.17 2069.13,-1710.89 2093.03,-1690.75"/>
<polygon fill="#990034" stroke="#990034" points="2094.82,-1692.97 2100.21,-1683.85 2090.3,-1687.62 2094.82,-1692.97"/>
<text text-anchor="middle" x="2156.66" y="-1723.58" font-family="Times,serif" font-size="14.00" fill="#990034">Прости, мне в другую</text>
<text text-anchor="middle" x="2156.66" y="-1706.33" font-family="Times,serif" font-size="14.00" fill="#990034">комнату нужно было.</text>
</g>
<!-- Vinnie03 -->
<g id="node15" class="node">
<title>Vinnie03</title>
<ellipse fill="#ffffff" stroke="#000000" cx="2383.03" cy="-1096.99" rx="144.96" ry="66.64"/>
<text text-anchor="middle" x="2383.03" y="-1126.81" font-family="Times,serif" font-size="14.00">Мы &#45; единственная и</text>
<text text-anchor="middle" x="2383.03" y="-1109.56" font-family="Times,serif" font-size="14.00">неповторимая банда в</text>
<text text-anchor="middle" x="2383.03" y="-1092.31" font-family="Times,serif" font-size="14.00">Джанктауне. Мы держим</text>
<text text-anchor="middle" x="2383.03" y="-1075.06" font-family="Times,serif" font-size="14.00">улицы и правим в городе</text>
<text text-anchor="middle" x="2383.03" y="-1057.81" font-family="Times,serif" font-size="14.00">ночью.</text>
</g>
<!-- Vinnie01&#45;&gt;Vinnie03 -->
<g id="edge6" class="edge">
<title>Vinnie01&#45;&gt;Vinnie03</title>
<path fill="none" stroke="#006099" d="M1967.3,-1754.65C1967.9,-1719.08 1971.77,-1666.96 1987.03,-1624.28 2066.07,-1403.28 2116.03,-1354.27 2275.03,-1181.63 2281.64,-1174.46 2288.91,-1167.43 2296.46,-1160.69"/>
<polygon fill="#006099" stroke="#006099" points="2298.5,-1162.69 2303.75,-1153.49 2293.91,-1157.41 2298.5,-1162.69"/>
<text text-anchor="middle" x="2172.66" y="-1422.69" font-family="Times,serif" font-size="14.00" fill="#006099">Черепа? Вы кто такие,</text>
<text text-anchor="middle" x="2172.66" y="-1405.44" font-family="Times,serif" font-size="14.00" fill="#006099">парни?</text>
</g>
<!-- Vinnie01&#45;&gt;Vinnie01a -->
<g id="edge7" class="edge">
<title>Vinnie01&#45;&gt;Vinnie01a</title>
<path fill="none" stroke="#8d9900" d="M2085.4,-1772.01C2244.06,-1739.39 2518.45,-1682.99 2616.72,-1662.79"/>
<polygon fill="#8d9900" stroke="#8d9900" points="2617.19,-1666.06 2626.28,-1660.62 2615.78,-1659.21 2617.19,-1666.06"/>
<text text-anchor="middle" x="2503.66" y="-1723.58" font-family="Times,serif" font-size="14.00" fill="#8d9900">Я хочу присоединиться к</text>
<text text-anchor="middle" x="2503.66" y="-1706.33" font-family="Times,serif" font-size="14.00" fill="#8d9900">вам, парни.</text>
</g>
<!-- Vinnie04 -->
<g id="node17" class="node">
<title>Vinnie04</title>
<ellipse fill="#ffffff" stroke="#000000" cx="1943.03" cy="-652.82" rx="122.76" ry="18"/>
<text text-anchor="middle" x="1943.03" y="-648.14" font-family="Times,serif" font-size="14.00">Вали отсюда, дубина!</text>
</g>
<!-- Vinnie01&#45;&gt;Vinnie04 -->
<g id="edge8" class="edge">
<title>Vinnie01&#45;&gt;Vinnie04</title>
<path fill="none" stroke="#780099" d="M1938.47,-1755.49C1921.7,-1728.48 1904.03,-1691.44 1904.03,-1655.33 1904.03,-1655.33 1904.03,-1655.33 1904.03,-1319.86 1904.03,-1066.34 1987.28,-1012.07 2012.03,-759.76 2013.53,-744.5 2017.78,-739.48 2012.03,-725.26 2004.47,-706.55 1989.4,-690.02 1975.27,-677.58"/>
<polygon fill="#780099" stroke="#780099" points="1978.04,-674.49 1968.12,-670.74 1973.54,-679.85 1978.04,-674.49"/>
<text text-anchor="middle" x="1925.03" y="-1316.19" font-family="Times,serif" font-size="14.00" fill="#780099">Ургх?</text>
</g>
<!-- combat_p_proc -->
<g id="node12" class="node">
<title>combat_p_proc</title>
<ellipse fill="#ffffff" stroke="#000000" cx="1509.03" cy="-2040.61" rx="27" ry="18"/>
</g>
<!-- timed_event_p_proc -->
<g id="node13" class="node">
<title>timed_event_p_proc</title>
<ellipse fill="#ffffff" stroke="#000000" cx="1656.03" cy="-2040.61" rx="102.24" ry="18"/>
<text text-anchor="middle" x="1656.03" y="-2035.93" font-family="Times,serif" font-size="14.00">Отвали, легавый!</text>
</g>
<!-- Vinnie03&#45;&gt;VinnieEnd -->
<g id="edge11" class="edge">
<title>Vinnie03&#45;&gt;VinnieEnd</title>
<path fill="none" stroke="#00994c" d="M2504.32,-1060.03C2529.8,-1048.07 2554.76,-1032.48 2574.03,-1012.34 2674.56,-907.32 2640.06,-843.04 2692.03,-707.26 2710.53,-658.93 2704.36,-641.29 2733.28,-598.37 2765.36,-550.77 2805.06,-563.22 2828.03,-510.62 2880.88,-389.64 2811.16,-228.27 2779.84,-166.33"/>
<polygon fill="#00994c" stroke="#00994c" points="2782.69,-165.22 2775,-157.94 2776.47,-168.43 2782.69,-165.22"/>
<text text-anchor="middle" x="2799.41" y="-648.14" font-family="Times,serif" font-size="14.00" fill="#00994c">Ух. Извини. Пока.</text>
</g>
<!-- Vinnie06 -->
<g id="node21" class="node">
<title>Vinnie06</title>
<ellipse fill="#ffffff" stroke="#000000" cx="1827.03" cy="-139.64" rx="143.37" ry="30.05"/>
<text text-anchor="middle" x="1827.03" y="-143.59" font-family="Times,serif" font-size="14.00">Что?! Ты ответишь за эти</text>
<text text-anchor="middle" x="1827.03" y="-126.34" font-family="Times,serif" font-size="14.00">слова!</text>
</g>
<!-- Vinnie03&#45;&gt;Vinnie06 -->
<g id="edge12" class="edge">
<title>Vinnie03&#45;&gt;Vinnie06</title>
<path fill="none" stroke="#991f00" d="M2268.74,-1055.77C2190.94,-1020.28 2102.03,-959.98 2102.03,-869.8 2102.03,-869.8 2102.03,-869.8 2102.03,-418.58 2102.03,-301.33 1976.84,-215.77 1895.39,-172.52"/>
<polygon fill="#991f00" stroke="#991f00" points="1897.17,-168.98 1886.69,-167.45 1893.94,-175.18 1897.17,-168.98"/>
<text text-anchor="middle" x="2200.28" y="-656.77" font-family="Times,serif" font-size="14.00" fill="#991f00">Да ты и школьный двор не</text>
<text text-anchor="middle" x="2200.28" y="-639.52" font-family="Times,serif" font-size="14.00" fill="#991f00">удержишь, задохлик.</text>
</g>
<!-- Vinnie05 -->
<g id="node22" class="node">
<title>Vinnie05</title>
<ellipse fill="#ffffff" stroke="#000000" cx="2383.03" cy="-868.8" rx="143.9" ry="66.64"/>
<text text-anchor="middle" x="2383.03" y="-898.63" font-family="Times,serif" font-size="14.00">Этот слизняк даже</text>
<text text-anchor="middle" x="2383.03" y="-881.38" font-family="Times,serif" font-size="14.00">подняться сам не может.</text>
<text text-anchor="middle" x="2383.03" y="-864.13" font-family="Times,serif" font-size="14.00">Мы &#45; мускулы в этом</text>
<text text-anchor="middle" x="2383.03" y="-846.88" font-family="Times,serif" font-size="14.00">городе. Мы берем то, что</text>
<text text-anchor="middle" x="2383.03" y="-829.63" font-family="Times,serif" font-size="14.00">захотим.</text>
</g>
<!-- Vinnie03&#45;&gt;Vinnie05 -->
<g id="edge13" class="edge">
<title>Vinnie03&#45;&gt;Vinnie05</title>
<path fill="none" stroke="#000e99" d="M2383.03,-1029.96C2383.03,-1003.94 2383.03,-973.88 2383.03,-946.88"/>
<polygon fill="#000e99" stroke="#000e99" points="2386.53,-946.92 2383.03,-936.92 2379.53,-946.92 2386.53,-946.92"/>
<text text-anchor="middle" x="2476.41" y="-999.04" font-family="Times,serif" font-size="14.00" fill="#000e99">Мне казалось, что в этом</text>
<text text-anchor="middle" x="2476.41" y="-981.79" font-family="Times,serif" font-size="14.00" fill="#000e99">городе правит Гизмо.</text>
</g>
<!-- Vinnie14 -->
<g id="node18" class="node">
<title>Vinnie14</title>
<ellipse fill="#ffffff" stroke="#000000" cx="2653.03" cy="-1520.63" rx="153.44" ry="66.64"/>
<text text-anchor="middle" x="2653.03" y="-1550.46" font-family="Times,serif" font-size="14.00">Ты хочешь присоединиться</text>
<text text-anchor="middle" x="2653.03" y="-1533.21" font-family="Times,serif" font-size="14.00">к нам, да? А откуда мы</text>
<text text-anchor="middle" x="2653.03" y="-1515.96" font-family="Times,serif" font-size="14.00">знаем, что у тебя хватит</text>
<text text-anchor="middle" x="2653.03" y="-1498.71" font-family="Times,serif" font-size="14.00">крутизны, чтобы стать</text>
<text text-anchor="middle" x="2653.03" y="-1481.46" font-family="Times,serif" font-size="14.00">Черепом?</text>
</g>
<!-- Vinnie01a&#45;&gt;Vinnie14 -->
<g id="edge9" class="edge">
<title>Vinnie01a&#45;&gt;Vinnie14</title>
<path fill="none" stroke="#555555" stroke-dasharray="1,5" d="M2653.03,-1635.84C2653.03,-1625.8 2653.03,-1612.43 2653.03,-1598.37"/>
<polygon fill="#555555" stroke="#555555" points="2656.53,-1598.53 2653.03,-1588.53 2649.53,-1598.53 2656.53,-1598.53"/>
</g>
<!-- Vinnie15 -->
<g id="node19" class="node">
<title>Vinnie15</title>
<ellipse fill="#ffffff" stroke="#000000" cx="2737.03" cy="-1264.19" rx="147.61" ry="30.05"/>
<text text-anchor="middle" x="2737.03" y="-1268.14" font-family="Times,serif" font-size="14.00">[Винни смотрит на вас и</text>
<text text-anchor="middle" x="2737.03" y="-1250.89" font-family="Times,serif" font-size="14.00">смеется.] Я так не думаю.</text>
</g>
<!-- Vinnie01a&#45;&gt;Vinnie15 -->
<g id="edge10" class="edge">
<title>Vinnie01a&#45;&gt;Vinnie15</title>
<path fill="none" stroke="#555555" stroke-dasharray="1,5" d="M2679.71,-1650.24C2716.11,-1644.54 2780.73,-1628.87 2815.03,-1587.28 2868.26,-1522.75 2872.53,-1480.48 2845.03,-1401.49 2831.54,-1362.73 2801.92,-1326.7 2777.11,-1301.43"/>
<polygon fill="#555555" stroke="#555555" points="2780.15,-1299.52 2770.59,-1294.94 2775.21,-1304.48 2780.15,-1299.52"/>
</g>
<!-- VinnieCombat -->
<g id="node24" class="node">
<title>VinnieCombat</title>
<ellipse fill="#ffffff" stroke="#000000" cx="2391.03" cy="-18" rx="27" ry="18"/>
</g>
<!-- Vinnie14&#45;&gt;VinnieCombat -->
<g id="edge23" class="edge">
<title>Vinnie14&#45;&gt;VinnieCombat</title>
<path fill="none" stroke="#6d9900" d="M2789.8,-1490.13C2875.2,-1462.76 2969.03,-1412.15 2969.03,-1321.86 2969.03,-1321.86 2969.03,-1321.86 2969.03,-994.09 2969.03,-897.74 2928.61,-857.11 2983.28,-777.76 3025.94,-715.86 3092.19,-767.6 3137.03,-707.26 3177.65,-652.61 3158.03,-623.59 3158.03,-555.49 3158.03,-555.49 3158.03,-555.49 3158.03,-138.64 3158.03,-63.95 2582.79,-28.9 2428.65,-20.84"/>
<polygon fill="#6d9900" stroke="#6d9900" points="2429.05,-17.31 2418.88,-20.29 2428.69,-24.3 2429.05,-17.31"/>
<text text-anchor="middle" x="3082.41" y="-872.75" font-family="Times,serif" font-size="14.00" fill="#6d9900">Я тебе покажу свою круть,</text>
<text text-anchor="middle" x="3082.41" y="-855.5" font-family="Times,serif" font-size="14.00" fill="#6d9900">сукин ты сын!</text>
</g>
<!-- Vinnie16 -->
<g id="node27" class="node">
<title>Vinnie16</title>
<ellipse fill="#ffffff" stroke="#000000" cx="1728.03" cy="-868.8" rx="156.09" ry="91.04"/>
<text text-anchor="middle" x="1728.03" y="-915.88" font-family="Times,serif" font-size="14.00">[Винни думает] Если</text>
<text text-anchor="middle" x="1728.03" y="-898.63" font-family="Times,serif" font-size="14.00">хочешь доказать свою</text>
<text text-anchor="middle" x="1728.03" y="-881.38" font-family="Times,serif" font-size="14.00">крутизну, то укради пепел</text>
<text text-anchor="middle" x="1728.03" y="-864.13" font-family="Times,serif" font-size="14.00">жены старого ублюдка. Хе.</text>
<text text-anchor="middle" x="1728.03" y="-846.88" font-family="Times,serif" font-size="14.00">[Винни бормочет] Заставим</text>
<text text-anchor="middle" x="1728.03" y="-829.63" font-family="Times,serif" font-size="14.00">Нила пострадать последние</text>
<text text-anchor="middle" x="1728.03" y="-812.38" font-family="Times,serif" font-size="14.00">часы его жизни...</text>
</g>
<!-- Vinnie14&#45;&gt;Vinnie16 -->
<g id="edge24" class="edge">
<title>Vinnie14&#45;&gt;Vinnie16</title>
<path fill="none" stroke="#980099" d="M2504.8,-1502.62C2354.7,-1478.7 2123.01,-1422.62 1966.78,-1294.24 1862.64,-1208.66 1795.61,-1065.04 1759.86,-968.88"/>
<polygon fill="#980099" stroke="#980099" points="1762.81,-967.74 1756.08,-959.56 1756.23,-970.15 1762.81,-967.74"/>
<text text-anchor="middle" x="2054.16" y="-1259.51" font-family="Times,serif" font-size="14.00" fill="#980099">Давайте я покажу себя.</text>
</g>
<!-- Vinnie14a -->
<g id="node28" class="node">
<title>Vinnie14a</title>
<ellipse fill="#ffffff" stroke="#000000" cx="2653.03" cy="-1365.49" rx="27" ry="18"/>
</g>
<!-- Vinnie14&#45;&gt;Vinnie14a -->
<g id="edge25" class="edge">
<title>Vinnie14&#45;&gt;Vinnie14a</title>
<path fill="none" stroke="#00996b" d="M2653.03,-1453.8C2653.03,-1432.98 2653.03,-1411.09 2653.03,-1394.43"/>
<polygon fill="#00996b" stroke="#00996b" points="2656.53,-1394.81 2653.03,-1384.81 2649.53,-1394.81 2656.53,-1394.81"/>
<text text-anchor="middle" x="2746.78" y="-1422.69" font-family="Times,serif" font-size="14.00" fill="#00996b">Поверь, крутизны у меня</text>
<text text-anchor="middle" x="2746.78" y="-1405.44" font-family="Times,serif" font-size="14.00" fill="#00996b">хватает.</text>
</g>
<!-- Vinnie15&#45;&gt;Vinnie03 -->
<g id="edge31" class="edge">
<title>Vinnie15&#45;&gt;Vinnie03</title>
<path fill="none" stroke="#990047" d="M2645.05,-1240.4C2622.63,-1233.65 2599.01,-1225.52 2577.78,-1216.13 2541.75,-1200.2 2504.26,-1178.77 2471.91,-1158.54"/>
<polygon fill="#990047" stroke="#990047" points="2474.26,-1155.25 2463.93,-1152.88 2470.52,-1161.17 2474.26,-1155.25"/>
<text text-anchor="middle" x="2663.66" y="-1202.83" font-family="Times,serif" font-size="14.00" fill="#990047">А почему Черепа такие</text>
<text text-anchor="middle" x="2663.66" y="-1185.58" font-family="Times,serif" font-size="14.00" fill="#990047">крутые?</text>
</g>
<!-- Vinnie15&#45;&gt;VinnieEnd -->
<g id="edge30" class="edge">
<title>Vinnie15&#45;&gt;VinnieEnd</title>
<path fill="none" stroke="#1b9900" d="M2747.03,-1233.84C2748.65,-1228.03 2750.1,-1221.94 2751.03,-1216.13 2785.72,-1000.65 2623.25,-890.56 2765.78,-725.26 2795.34,-690.98 2836.99,-741.99 2866.03,-707.26 2897.08,-670.14 2867.38,-646.75 2866.03,-598.37 2861.4,-431.53 2901.57,-376.47 2833.03,-224.29 2822.43,-200.74 2803.63,-178.14 2788.63,-162.38"/>
<polygon fill="#1b9900" stroke="#1b9900" points="2791.7,-160.49 2782.2,-155.79 2786.7,-165.39 2791.7,-160.49"/>
<text text-anchor="middle" x="2838.16" y="-746.46" font-family="Times,serif" font-size="14.00" fill="#1b9900">Ты прав, пойду&#45;ка я</text>
<text text-anchor="middle" x="2838.16" y="-729.21" font-family="Times,serif" font-size="14.00" fill="#1b9900">отсюда.</text>
</g>
<!-- Vinnie15&#45;&gt;VinnieCombat -->
<g id="edge29" class="edge">
<title>Vinnie15&#45;&gt;VinnieCombat</title>
<path fill="none" stroke="#120099" d="M2756.57,-1233.92C2759.98,-1228.16 2763.31,-1222.06 2766.03,-1216.13 2855,-1022.65 2879.2,-970.17 2912.03,-759.76 2948.89,-523.6 2931.02,-453.14 2862.03,-224.29 2841.16,-155.03 2859.09,-117.46 2802.03,-73 2744.4,-28.09 2519.59,-20.45 2429.09,-19.21"/>
<polygon fill="#120099" stroke="#120099" points="2429.28,-15.7 2419.24,-19.08 2429.2,-22.7 2429.28,-15.7"/>
<text text-anchor="middle" x="3031.03" y="-656.77" font-family="Times,serif" font-size="14.00" fill="#120099">Вот именно. Время пришло</text>
<text text-anchor="middle" x="3031.03" y="-639.52" font-family="Times,serif" font-size="14.00" fill="#120099">тебе умирать.</text>
</g>
<!-- Vinnie15a -->
<g id="node29" class="node">
<title>Vinnie15a</title>
<ellipse fill="#ffffff" stroke="#000000" cx="2081.03" cy="-1096.99" rx="27" ry="18"/>
</g>
<!-- Vinnie15&#45;&gt;Vinnie15a -->
<g id="edge28" class="edge">
<title>Vinnie15&#45;&gt;Vinnie15a</title>
<path fill="none" stroke="#993f00" d="M2605.07,-1250.42C2540.98,-1242.86 2463.13,-1231.67 2394.28,-1216.13 2319.11,-1199.16 2301.09,-1190.96 2229.03,-1163.63 2187.89,-1148.03 2141.72,-1126.96 2112.06,-1112.95"/>
<polygon fill="#993f00" stroke="#993f00" points="2113.83,-1109.44 2103.29,-1108.31 2110.82,-1115.76 2113.83,-1109.44"/>
<text text-anchor="middle" x="2449.91" y="-1194.21" font-family="Times,serif" font-size="14.00" fill="#993f00">Я тебе докажу.</text>
</g>
<!-- Vinnie06&#45;&gt;VinnieCombat -->
<g id="edge16" class="edge">
<title>Vinnie06&#45;&gt;VinnieCombat</title>
<path fill="none" stroke="#555555" stroke-dasharray="1,5" d="M1880.23,-111.34C1908.82,-97.79 1945.09,-82.36 1979.03,-73 2113.37,-35.97 2279.55,-24.07 2353.04,-20.47"/>
<polygon fill="#555555" stroke="#555555" points="2353.19,-23.92 2363.01,-19.96 2352.86,-16.93 2353.19,-23.92"/>
</g>
<!-- Vinnie05&#45;&gt;VinnieEnd -->
<g id="edge14" class="edge">
<title>Vinnie05&#45;&gt;VinnieEnd</title>
<path fill="none" stroke="#3a9900" d="M2357.52,-802.77C2320.52,-697.65 2263.96,-486.26 2337.03,-328.54 2406.52,-178.55 2636.21,-148.29 2727.82,-142.19"/>
<polygon fill="#3a9900" stroke="#3a9900" points="2728.02,-145.62 2737.79,-141.53 2727.6,-138.63 2728.02,-145.62"/>
<text text-anchor="middle" x="2335.78" y="-549.82" font-family="Times,serif" font-size="14.00" fill="#3a9900">Вот как.</text>
</g>
<!-- Vinnie07 -->
<g id="node23" class="node">
<title>Vinnie07</title>
<ellipse fill="#ffffff" stroke="#000000" cx="2519.03" cy="-652.82" rx="164.05" ry="54.45"/>
<text text-anchor="middle" x="2519.03" y="-674.02" font-family="Times,serif" font-size="14.00">Мы не беспокоим Киллиана,</text>
<text text-anchor="middle" x="2519.03" y="-656.77" font-family="Times,serif" font-size="14.00">а он не беспокоит нас,</text>
<text text-anchor="middle" x="2519.03" y="-639.52" font-family="Times,serif" font-size="14.00">пока мы не слишком шумим,</text>
<text text-anchor="middle" x="2519.03" y="-622.27" font-family="Times,serif" font-size="14.00">ясно тебе?</text>
</g>
<!-- Vinnie05&#45;&gt;Vinnie07 -->
<g id="edge15" class="edge">
<title>Vinnie05&#45;&gt;Vinnie07</title>
<path fill="none" stroke="#990067" d="M2423.29,-804.47C2441.09,-776.46 2461.96,-743.62 2479.66,-715.77"/>
<polygon fill="#990067" stroke="#990067" points="2483.12,-717.85 2485.53,-707.53 2477.21,-714.09 2483.12,-717.85"/>
<text text-anchor="middle" x="2562.91" y="-746.46" font-family="Times,serif" font-size="14.00" fill="#990067">И как вы решаете дела с</text>
<text text-anchor="middle" x="2562.91" y="-729.21" font-family="Times,serif" font-size="14.00" fill="#990067">Киллианом?</text>
</g>
<!-- Vinnie07&#45;&gt;VinnieEnd -->
<g id="edge17" class="edge">
<title>Vinnie07&#45;&gt;VinnieEnd</title>
<path fill="none" stroke="#009499" d="M2637.2,-614.94C2652.19,-605.78 2665.83,-594.43 2676.03,-580.37 2709.11,-534.79 2692.29,-383.56 2704.28,-328.54 2717.07,-269.86 2741.21,-203.65 2755.22,-167.6"/>
<polygon fill="#009499" stroke="#009499" points="2758.82,-169.01 2759.22,-158.42 2752.31,-166.45 2758.82,-169.01"/>
<text text-anchor="middle" x="2765.91" y="-414.9" font-family="Times,serif" font-size="14.00" fill="#009499">Да. До свиданья.</text>
</g>
<!-- Vinnie08 -->
<g id="node25" class="node">
<title>Vinnie08</title>
<ellipse fill="#ffffff" stroke="#000000" cx="2500.03" cy="-419.58" rx="153.97" ry="91.04"/>
<text text-anchor="middle" x="2500.03" y="-466.65" font-family="Times,serif" font-size="14.00">Мы ни от кого не</text>
<text text-anchor="middle" x="2500.03" y="-449.4" font-family="Times,serif" font-size="14.00">прячемся, а меньше всего</text>
<text text-anchor="middle" x="2500.03" y="-432.15" font-family="Times,serif" font-size="14.00">от Киллиана! Хоть он и</text>
<text text-anchor="middle" x="2500.03" y="-414.9" font-family="Times,serif" font-size="14.00">думает, что он &#45;</text>
<text text-anchor="middle" x="2500.03" y="-397.65" font-family="Times,serif" font-size="14.00">прославленный шериф, это</text>
<text text-anchor="middle" x="2500.03" y="-380.4" font-family="Times,serif" font-size="14.00">не значит, что он может</text>
<text text-anchor="middle" x="2500.03" y="-363.15" font-family="Times,serif" font-size="14.00">приказывать Черепам!</text>
</g>
<!-- Vinnie07&#45;&gt;Vinnie08 -->
<g id="edge18" class="edge">
<title>Vinnie07&#45;&gt;Vinnie08</title>
<path fill="none" stroke="#997200" d="M2512.11,-598.02C2511.44,-592.07 2510.82,-586.09 2510.28,-580.37 2508.52,-561.45 2506.97,-541.25 2505.64,-521.79"/>
<polygon fill="#997200" stroke="#997200" points="2509.08,-521.82 2504.92,-512.07 2502.1,-522.28 2509.08,-521.82"/>
<text text-anchor="middle" x="2592.91" y="-558.44" font-family="Times,serif" font-size="14.00" fill="#997200">Более чем. Вы от него</text>
<text text-anchor="middle" x="2592.91" y="-541.19" font-family="Times,serif" font-size="14.00" fill="#997200">прячетесь.</text>
</g>
<!-- Vinnie08&#45;&gt;VinnieEnd -->
<g id="edge19" class="edge">
<title>Vinnie08&#45;&gt;VinnieEnd</title>
<path fill="none" stroke="#450099" d="M2468.63,-330.19C2461.59,-294.19 2461.76,-254.12 2484.03,-224.29 2513.61,-184.67 2659.79,-157.13 2729.25,-146.06"/>
<polygon fill="#450099" stroke="#450099" points="2729.37,-149.43 2738.71,-144.43 2728.29,-142.51 2729.37,-149.43"/>
<text text-anchor="middle" x="2580.03" y="-271.36" font-family="Times,serif" font-size="14.00" fill="#450099">Простите, в мои планы не</text>
<text text-anchor="middle" x="2580.03" y="-254.11" font-family="Times,serif" font-size="14.00" fill="#450099">входило вас сердить.</text>
</g>
<!-- Vinnie09 -->
<g id="node26" class="node">
<title>Vinnie09</title>
<ellipse fill="#ffffff" stroke="#000000" cx="2135.03" cy="-139.64" rx="147.08" ry="66.64"/>
<text text-anchor="middle" x="2135.03" y="-169.47" font-family="Times,serif" font-size="14.00">Ты хочешь побить</text>
<text text-anchor="middle" x="2135.03" y="-152.22" font-family="Times,serif" font-size="14.00">Киллиана? Чудило, у тебя</text>
<text text-anchor="middle" x="2135.03" y="-134.97" font-family="Times,serif" font-size="14.00">крыша поехала. Блин, я</text>
<text text-anchor="middle" x="2135.03" y="-117.72" font-family="Times,serif" font-size="14.00">даже не знаю... Ладно, я</text>
<text text-anchor="middle" x="2135.03" y="-100.47" font-family="Times,serif" font-size="14.00">в деле.</text>
</g>
<!-- Vinnie08&#45;&gt;Vinnie09 -->
<g id="edge20" class="edge">
<title>Vinnie08&#45;&gt;Vinnie09</title>
<path fill="none" stroke="#009918" d="M2370.28,-370.17C2335.91,-354.07 2300.1,-334.12 2270.28,-310.54 2235.81,-283.28 2204.68,-245.61 2181.01,-212.67"/>
<polygon fill="#009918" stroke="#009918" points="2183.48,-211.11 2174.84,-204.97 2177.76,-215.15 2183.48,-211.11"/>
<text text-anchor="middle" x="2364.91" y="-297.24" font-family="Times,serif" font-size="14.00" fill="#009918">Так, он тебе стиль</text>
<text text-anchor="middle" x="2364.91" y="-279.99" font-family="Times,serif" font-size="14.00" fill="#009918">портит, да? Мне тоже.</text>
<text text-anchor="middle" x="2364.91" y="-262.74" font-family="Times,serif" font-size="14.00" fill="#009918">Честно говоря, я</text>
<text text-anchor="middle" x="2364.91" y="-245.49" font-family="Times,serif" font-size="14.00" fill="#009918">собираюсь его подвинуть.</text>
<text text-anchor="middle" x="2364.91" y="-228.24" font-family="Times,serif" font-size="14.00" fill="#009918">Ты как, в деле?</text>
</g>
<!-- Vinnie16&#45;&gt;Vinnie19 -->
<g id="edge35" class="edge">
<title>Vinnie16&#45;&gt;Vinnie19</title>
<path fill="none" stroke="#999100" d="M1572.18,-861.37C1397.81,-851.04 1129.78,-824.81 1054.03,-759.76 1031.51,-740.42 1023.78,-706.13 1021.19,-681.8"/>
<polygon fill="#999100" stroke="#999100" points="1024.62,-681.77 1020.31,-672.09 1017.64,-682.34 1024.62,-681.77"/>
<text text-anchor="middle" x="1118.53" y="-737.84" font-family="Times,serif" font-size="14.00" fill="#999100">Урна уже у меня.</text>
</g>
<!-- Vinnie16&#45;&gt;Vinnie04 -->
<g id="edge38" class="edge">
<title>Vinnie16&#45;&gt;Vinnie04</title>
<path fill="none" stroke="#990b00" d="M1780.89,-782.96C1799.56,-753.17 1816.33,-726.65 1817.78,-725.26 1839.64,-704.34 1868.77,-687.25 1893.44,-675.04"/>
<polygon fill="#990b00" stroke="#990b00" points="1894.86,-677.76 1902.35,-670.27 1891.82,-671.45 1894.86,-677.76"/>
<text text-anchor="middle" x="1914.16" y="-746.46" font-family="Times,serif" font-size="14.00" fill="#990b00">Хм, не думаю, что я смогу</text>
<text text-anchor="middle" x="1914.16" y="-729.21" font-family="Times,serif" font-size="14.00" fill="#990b00">это сделать.</text>
</g>
<!-- Vinnie16&#45;&gt;Vinnie22 -->
<g id="edge34" class="edge">
<title>Vinnie16&#45;&gt;Vinnie22</title>
<path fill="none" stroke="#007499" d="M1578.9,-841.18C1443.83,-813.68 1259.53,-766.48 1216.03,-707.26 1187.38,-668.26 1193.17,-641.03 1216.03,-598.37 1249.31,-536.28 1310.08,-569.97 1348.03,-510.62 1416.99,-402.78 1453.1,-328.68 1379.03,-224.29 1357.23,-193.57 1323.25,-174.04 1287.68,-161.65"/>
<polygon fill="#007499" stroke="#007499" points="1289.21,-158.14 1278.61,-158.35 1287.02,-164.79 1289.21,-158.14"/>
<text text-anchor="middle" x="1427.16" y="-567.07" font-family="Times,serif" font-size="14.00" fill="#007499">Это не будет так круто,</text>
<text text-anchor="middle" x="1427.16" y="-549.82" font-family="Times,serif" font-size="14.00" fill="#007499">как вы думаете. Ублюдок</text>
<text text-anchor="middle" x="1427.16" y="-532.57" font-family="Times,serif" font-size="14.00" fill="#007499">уже покойник.</text>
</g>
<!-- Vinnie17 -->
<g id="node31" class="node">
<title>Vinnie17</title>
<ellipse fill="#ffffff" stroke="#000000" cx="1665.03" cy="-652.82" rx="137.53" ry="54.45"/>
<text text-anchor="middle" x="1665.03" y="-674.02" font-family="Times,serif" font-size="14.00">Ну, если так, то, может,</text>
<text text-anchor="middle" x="1665.03" y="-656.77" font-family="Times,serif" font-size="14.00">в тебе и правда есть</text>
<text text-anchor="middle" x="1665.03" y="-639.52" font-family="Times,serif" font-size="14.00">крутизна. Давай урну</text>
<text text-anchor="middle" x="1665.03" y="-622.27" font-family="Times,serif" font-size="14.00">сюда, раз она у тебя.</text>
</g>
<!-- Vinnie16&#45;&gt;Vinnie17 -->
<g id="edge36" class="edge">
<title>Vinnie16&#45;&gt;Vinnie17</title>
<path fill="none" stroke="#650099" d="M1654.31,-788.2C1648.77,-779.09 1644,-769.55 1640.53,-759.76 1635.76,-746.29 1635.96,-731.52 1638.59,-717.4"/>
<polygon fill="#650099" stroke="#650099" points="1642.21,-718.29 1641.05,-707.76 1635.39,-716.72 1642.21,-718.29"/>
<text text-anchor="middle" x="1717.28" y="-737.84" font-family="Times,serif" font-size="14.00" fill="#650099">Ладно, я все сделаю.</text>
</g>
<!-- Vinnie18 -->
<g id="node32" class="node">
<title>Vinnie18</title>
<ellipse fill="#ffffff" stroke="#000000" cx="1367.03" cy="-652.82" rx="142.31" ry="42.25"/>
<text text-anchor="middle" x="1367.03" y="-665.39" font-family="Times,serif" font-size="14.00">Я знал, что из тебя</text>
<text text-anchor="middle" x="1367.03" y="-648.14" font-family="Times,serif" font-size="14.00">Черепа не выйдет. Вали</text>
<text text-anchor="middle" x="1367.03" y="-630.89" font-family="Times,serif" font-size="14.00">отсюда к чертовой маме.</text>
</g>
<!-- Vinnie16&#45;&gt;Vinnie18 -->
<g id="edge37" class="edge">
<title>Vinnie16&#45;&gt;Vinnie18</title>
<path fill="none" stroke="#009938" d="M1619.23,-803.31C1560.99,-768.79 1490.86,-727.21 1439.35,-696.68"/>
<polygon fill="#009938" stroke="#009938" points="1441.34,-693.2 1430.95,-691.11 1437.77,-699.22 1441.34,-693.2"/>
<text text-anchor="middle" x="1563.03" y="-737.84" font-family="Times,serif" font-size="14.00" fill="#009938">Ну нет.</text>
</g>
<!-- Vinnie14a&#45;&gt;Vinnie15 -->
<g id="edge27" class="edge">
<title>Vinnie14a&#45;&gt;Vinnie15</title>
<path fill="none" stroke="#555555" stroke-dasharray="1,5" d="M2665.79,-1349.41C2676.34,-1336.93 2691.79,-1318.68 2705.6,-1302.35"/>
<polygon fill="#555555" stroke="#555555" points="2708.85,-1304.92 2712.64,-1295.03 2703.51,-1300.4 2708.85,-1304.92"/>
</g>
<!-- Vinnie14a&#45;&gt;Vinnie16 -->
<g id="edge26" class="edge">
<title>Vinnie14a&#45;&gt;Vinnie16</title>
<path fill="none" stroke="#555555" stroke-dasharray="1,5" d="M2625.87,-1363.08C2532.83,-1356.86 2222.98,-1324.44 2045.03,-1163.63 1977.93,-1103 2025.58,-1042.19 1962.03,-977.84 1937.53,-953.03 1906.25,-933.31 1874.61,-917.89"/>
<polygon fill="#555555" stroke="#555555" points="1876.31,-914.35 1865.78,-913.24 1873.32,-920.68 1876.31,-914.35"/>
</g>
<!-- Vinnie15a&#45;&gt;Vinnie04 -->
<g id="edge33" class="edge">
<title>Vinnie15a&#45;&gt;Vinnie04</title>
<path fill="none" stroke="#555555" stroke-dasharray="1,5" d="M2080.93,-1078.84C2080.28,-1014.33 2075.45,-786.69 2040.03,-725.26 2028,-704.4 2007.17,-687.85 1987.88,-675.95"/>
<polygon fill="#555555" stroke="#555555" points="1989.98,-672.54 1979.59,-670.49 1986.43,-678.57 1989.98,-672.54"/>
</g>
<!-- Vinnie15a&#45;&gt;Vinnie16 -->
<g id="edge32" class="edge">
<title>Vinnie15a&#45;&gt;Vinnie16</title>
<path fill="none" stroke="#555555" stroke-dasharray="1,5" d="M2071.8,-1079.7C2056.9,-1054.71 2025.31,-1006.76 1987.03,-977.84 1953.79,-952.73 1913.86,-932.35 1875.42,-916.32"/>
<polygon fill="#555555" stroke="#555555" points="1877.27,-912.89 1866.69,-912.35 1874.62,-919.37 1877.27,-912.89"/>
</g>
<!-- Vinnie20&#45;&gt;Vinnie06 -->
<g id="edge43" class="edge">
<title>Vinnie20&#45;&gt;Vinnie06</title>
<path fill="none" stroke="#00998b" d="M747.98,-370.7C772.52,-354.35 801.81,-337.85 831.03,-328.54 893.61,-308.61 1061.09,-320.31 1126.03,-310.54 1348.48,-277.07 1603.9,-206.92 1736.5,-168.04"/>
<polygon fill="#00998b" stroke="#00998b" points="1737.39,-171.13 1746,-164.96 1735.42,-164.42 1737.39,-171.13"/>
<text text-anchor="middle" x="1629.41" y="-271.36" font-family="Times,serif" font-size="14.00" fill="#00998b">Я не хочу иметь дела с</text>
<text text-anchor="middle" x="1629.41" y="-254.11" font-family="Times,serif" font-size="14.00" fill="#00998b">такими говнюками, как вы.</text>
</g>
<!-- Vinnie20&#45;&gt;Vinnie22 -->
<g id="edge42" class="edge">
<title>Vinnie20&#45;&gt;Vinnie22</title>
<path fill="none" stroke="#555555" stroke-dasharray="1,5" d="M748.02,-370.8C772.55,-354.46 801.84,-337.94 831.03,-328.54 887.43,-310.37 1051.54,-348.49 1097.03,-310.54 1113.42,-296.87 1124.76,-247.16 1131.66,-205.02"/>
<polygon fill="#555555" stroke="#555555" points="1135.27,-205.64 1133.37,-195.21 1128.35,-204.55 1135.27,-205.64"/>
</g>
<!-- Vinnie20&#45;&gt;VinnieKillNeal -->
<g id="edge44" class="edge">
<title>Vinnie20&#45;&gt;VinnieKillNeal</title>
<path fill="none" stroke="#995e00" d="M585.52,-382.63C550.6,-365.64 514.02,-342.02 489.28,-310.54 464.75,-279.32 483.73,-259.83 466.03,-224.29 454.66,-201.44 436.51,-178.78 422.27,-162.82"/>
<polygon fill="#995e00" stroke="#995e00" points="425.57,-161.14 416.25,-156.12 420.4,-165.86 425.57,-161.14"/>
<text text-anchor="middle" x="577.41" y="-262.74" font-family="Times,serif" font-size="14.00" fill="#995e00">Давайте его размажем.</text>
</g>
<!-- Vinnie20&#45;&gt;Vinnie23 -->
<g id="edge45" class="edge">
<title>Vinnie20&#45;&gt;Vinnie23</title>
<path fill="none" stroke="#320099" d="M753.55,-372.2C777.38,-357.05 804.78,-340.95 831.03,-328.54 853.52,-317.91 869.54,-330.76 884.03,-310.54 906.36,-279.38 902.03,-258.14 884.03,-224.29 872.46,-202.52 852.41,-185.39 831.77,-172.46"/>
<polygon fill="#320099" stroke="#320099" points="833.97,-169.1 823.59,-166.99 830.39,-175.11 833.97,-169.1"/>
<text text-anchor="middle" x="995.78" y="-279.99" font-family="Times,serif" font-size="14.00" fill="#320099">У меня есть еще сраная</text>
<text text-anchor="middle" x="995.78" y="-262.74" font-family="Times,serif" font-size="14.00" fill="#320099">куча дел до того времени.</text>
<text text-anchor="middle" x="995.78" y="-245.49" font-family="Times,serif" font-size="14.00" fill="#320099">Встретимся на месте.</text>
</g>
<!-- Vinnie25&#45;&gt;VinnieCombat -->
<g id="edge49" class="edge">
<title>Vinnie25&#45;&gt;VinnieCombat</title>
<path fill="none" stroke="#555555" stroke-dasharray="1,5" d="M244.41,-104.72C281.21,-92.33 324.62,-79.72 365.03,-73 567.99,-39.24 2091.34,-22.09 2352.87,-19.38"/>
<polygon fill="#555555" stroke="#555555" points="2352.73,-22.87 2362.69,-19.27 2352.66,-15.88 2352.73,-22.87"/>
</g>
</g>
</svg>
