<?xml version="1.0" encoding="UTF-8" standalone="no"?>
<!DOCTYPE svg PUBLIC "-//W3C//DTD SVG 1.1//EN"
 "http://www.w3.org/Graphics/SVG/1.1/DTD/svg11.dtd">
<!-- Generated by graphviz version 8.0.5 (0)
 -->
<!-- Title: BROINVAD Pages: 1 -->
<svg width="510pt" height="384pt"
 viewBox="0.00 0.00 510.00 384.06" xmlns="http://www.w3.org/2000/svg" xmlns:xlink="http://www.w3.org/1999/xlink">
<g id="graph0" class="graph" transform="scale(1 1) rotate(0) translate(4 380.06)">
<title>BROINVAD</title>
<polygon fill="white" stroke="none" points="-4,4 -4,-380.06 506,-380.06 506,4 -4,4"/>
<!-- start -->
<g id="node1" class="node">
<title>start</title>
<ellipse fill="#ffffff" stroke="#000000" cx="193" cy="-358.06" rx="27" ry="18"/>
</g>
<!-- Initialize_p_proc -->
<g id="node2" class="node">
<title>Initialize_p_proc</title>
<ellipse fill="#ffffff" stroke="#000000" cx="27" cy="-152.03" rx="27" ry="18"/>
</g>
<!-- start&#45;&gt;Initialize_p_proc -->
<g id="edge1" class="edge">
<title>start&#45;&gt;Initialize_p_proc</title>
<path fill="none" stroke="#555555" stroke-dasharray="1,5" d="M166.39,-353.5C136.74,-348.09 89.5,-334.95 63,-304.06 33.18,-269.28 27.09,-214.11 26.36,-180.95"/>
<polygon fill="#555555" stroke="#555555" points="29.86,-181.19 26.3,-171.21 22.86,-181.24 29.86,-181.19"/>
</g>
<!-- talk_p_proc -->
<g id="node3" class="node">
<title>talk_p_proc</title>
<ellipse fill="#ffffff" stroke="#000000" cx="99" cy="-152.03" rx="27" ry="18"/>
</g>
<!-- start&#45;&gt;talk_p_proc -->
<g id="edge2" class="edge">
<title>start&#45;&gt;talk_p_proc</title>
<path fill="none" stroke="#555555" stroke-dasharray="1,5" d="M174.31,-344.61C161.36,-335.02 144.76,-320.63 135,-304.06 112.1,-265.17 103.75,-212.54 100.72,-180.78"/>
<polygon fill="#555555" stroke="#555555" points="104.15,-180.77 99.83,-171.09 97.17,-181.35 104.15,-180.77"/>
</g>
<!-- critter_p_proc -->
<g id="node4" class="node">
<title>critter_p_proc</title>
<ellipse fill="#ffffff" stroke="#000000" cx="287" cy="-152.03" rx="143.37" ry="152.03"/>
<text text-anchor="middle" x="287" y="-242.23" font-family="Times,serif" font-size="14.00">Good, you&#39;re here. Let&#39;s</text>
<text text-anchor="middle" x="287" y="-224.98" font-family="Times,serif" font-size="14.00">torch this place.</text>
<text text-anchor="middle" x="287" y="-207.73" font-family="Times,serif" font-size="14.00">&#45;&#45;&#45;</text>
<text text-anchor="middle" x="287" y="-190.48" font-family="Times,serif" font-size="14.00">There is something wrong</text>
<text text-anchor="middle" x="287" y="-173.23" font-family="Times,serif" font-size="14.00">about this room.</text>
<text text-anchor="middle" x="287" y="-155.98" font-family="Times,serif" font-size="14.00">&#45;&#45;&#45;</text>
<text text-anchor="middle" x="287" y="-138.73" font-family="Times,serif" font-size="14.00">This place is starting to</text>
<text text-anchor="middle" x="287" y="-121.48" font-family="Times,serif" font-size="14.00">give me the</text>
<text text-anchor="middle" x="287" y="-104.23" font-family="Times,serif" font-size="14.00">heebee&#45;jeebies.</text>
<text text-anchor="middle" x="287" y="-86.98" font-family="Times,serif" font-size="14.00">&#45;&#45;&#45;</text>
<text text-anchor="middle" x="287" y="-69.73" font-family="Times,serif" font-size="14.00">Time for us to head back</text>
<text text-anchor="middle" x="287" y="-52.48" font-family="Times,serif" font-size="14.00">to the Brotherhood now.</text>
</g>
<!-- start&#45;&gt;critter_p_proc -->
<g id="edge3" class="edge">
<title>start&#45;&gt;critter_p_proc</title>
<path fill="none" stroke="#555555" stroke-dasharray="1,5" d="M200.69,-340.36C205.49,-329.94 212.19,-315.4 219.75,-298.99"/>
<polygon fill="#555555" stroke="#555555" points="223.29,-300.68 224.29,-290.13 216.93,-297.75 223.29,-300.68"/>
</g>
<!-- map_enter_p_proc -->
<g id="node5" class="node">
<title>map_enter_p_proc</title>
<ellipse fill="#ffffff" stroke="#000000" cx="475" cy="-152.03" rx="27" ry="18"/>
</g>
<!-- start&#45;&gt;map_enter_p_proc -->
<g id="edge4" class="edge">
<title>start&#45;&gt;map_enter_p_proc</title>
<path fill="none" stroke="#555555" stroke-dasharray="1,5" d="M219.97,-354.83C277.17,-349.54 408.01,-334.38 439,-304.06 472.06,-271.71 476.98,-214.87 476.62,-180.9"/>
<polygon fill="#555555" stroke="#555555" points="480.1,-181.23 476.33,-171.33 473.11,-181.42 480.1,-181.23"/>
</g>
</g>
</svg>
