<?xml version="1.0" encoding="UTF-8" standalone="no"?>
<!DOCTYPE svg PUBLIC "-//W3C//DTD SVG 1.1//EN"
 "http://www.w3.org/Graphics/SVG/1.1/DTD/svg11.dtd">
<!-- Generated by graphviz version 8.0.5 (0)
 -->
<!-- Title: CALEB Pages: 1 -->
<svg width="2778pt" height="961pt"
 viewBox="0.00 0.00 2778.25 960.70" xmlns="http://www.w3.org/2000/svg" xmlns:xlink="http://www.w3.org/1999/xlink">
<g id="graph0" class="graph" transform="scale(1 1) rotate(0) translate(4 956.7)">
<title>CALEB</title>
<polygon fill="white" stroke="none" points="-4,4 -4,-956.7 2774.25,-956.7 2774.25,4 -4,4"/>
<!-- Start -->
<g id="node1" class="node">
<title>Start</title>
<ellipse fill="#ffffff" stroke="#000000" cx="713" cy="-886.05" rx="27" ry="18"/>
</g>
<!-- look_at_p_proc -->
<g id="node2" class="node">
<title>look_at_p_proc</title>
<ellipse fill="#ffffff" stroke="#000000" cx="885" cy="-886.05" rx="126.93" ry="66.64"/>
<text text-anchor="middle" x="885" y="-915.88" font-family="Times,serif" font-size="14.00">This is Caleb, leader of</text>
<text text-anchor="middle" x="885" y="-898.63" font-family="Times,serif" font-size="14.00">the Regulators.</text>
<text text-anchor="middle" x="885" y="-881.38" font-family="Times,serif" font-size="14.00">&#45;&#45;&#45;</text>
<text text-anchor="middle" x="885" y="-864.13" font-family="Times,serif" font-size="14.00">You see a stern man in</text>
<text text-anchor="middle" x="885" y="-846.88" font-family="Times,serif" font-size="14.00">his thirties.</text>
</g>
<!-- description_p_proc -->
<g id="node3" class="node">
<title>description_p_proc</title>
<ellipse fill="#ffffff" stroke="#000000" cx="1157" cy="-886.05" rx="126.93" ry="66.64"/>
<text text-anchor="middle" x="1157" y="-915.88" font-family="Times,serif" font-size="14.00">This is Caleb, leader of</text>
<text text-anchor="middle" x="1157" y="-898.63" font-family="Times,serif" font-size="14.00">the Regulators.</text>
<text text-anchor="middle" x="1157" y="-881.38" font-family="Times,serif" font-size="14.00">&#45;&#45;&#45;</text>
<text text-anchor="middle" x="1157" y="-864.13" font-family="Times,serif" font-size="14.00">You see a stern man in</text>
<text text-anchor="middle" x="1157" y="-846.88" font-family="Times,serif" font-size="14.00">his thirties.</text>
</g>
<!-- talk_p_proc -->
<g id="node4" class="node">
<title>talk_p_proc</title>
<ellipse fill="#ffffff" stroke="#000000" cx="1438" cy="-886.05" rx="136.47" ry="66.64"/>
<text text-anchor="middle" x="1438" y="-915.88" font-family="Times,serif" font-size="14.00">Sorry, but I don&#39;t have</text>
<text text-anchor="middle" x="1438" y="-898.63" font-family="Times,serif" font-size="14.00">time for you. &#160;Run along.</text>
<text text-anchor="middle" x="1438" y="-881.38" font-family="Times,serif" font-size="14.00">&#45;&#45;&#45;</text>
<text text-anchor="middle" x="1438" y="-864.13" font-family="Times,serif" font-size="14.00">So you&#39;re back. Go talk</text>
<text text-anchor="middle" x="1438" y="-846.88" font-family="Times,serif" font-size="14.00">to Zimmerman</text>
</g>
<!-- get_reaction -->
<g id="node5" class="node">
<title>get_reaction</title>
<ellipse fill="#ffffff" stroke="#000000" cx="27" cy="-740.16" rx="27" ry="18"/>
</g>
<!-- talk_p_proc&#45;&gt;get_reaction -->
<g id="edge1" class="edge">
<title>talk_p_proc&#45;&gt;get_reaction</title>
<path fill="none" stroke="#555555" stroke-dasharray="1,5" d="M1345.52,-836.72C1328.46,-829.69 1310.5,-823.46 1293,-819.41 1159.8,-788.56 186.61,-840.85 63,-782.41 55.15,-778.7 48.31,-772.37 42.77,-765.78"/>
<polygon fill="#555555" stroke="#555555" points="45.29,-764.32 36.46,-758.46 39.71,-768.55 45.29,-764.32"/>
</g>
<!-- DialogWeapon -->
<g id="node6" class="node">
<title>DialogWeapon</title>
<ellipse fill="#ffffff" stroke="#000000" cx="1258" cy="-740.16" rx="134.88" ry="42.25"/>
<text text-anchor="middle" x="1258" y="-752.73" font-family="Times,serif" font-size="14.00">You&#39;d best keep your</text>
<text text-anchor="middle" x="1258" y="-735.48" font-family="Times,serif" font-size="14.00">weapons put away while</text>
<text text-anchor="middle" x="1258" y="-718.23" font-family="Times,serif" font-size="14.00">you&#39;re in town.</text>
</g>
<!-- talk_p_proc&#45;&gt;DialogWeapon -->
<g id="edge2" class="edge">
<title>talk_p_proc&#45;&gt;DialogWeapon</title>
<path fill="none" stroke="#555555" stroke-dasharray="1,5" d="M1367.38,-828.6C1350.01,-814.72 1331.64,-800.03 1315.01,-786.74"/>
<polygon fill="#555555" stroke="#555555" points="1317.49,-783.44 1307.49,-779.93 1313.12,-788.9 1317.49,-783.44"/>
</g>
<!-- DialogMain -->
<g id="node7" class="node">
<title>DialogMain</title>
<ellipse fill="#ffffff" stroke="#000000" cx="1438" cy="-740.16" rx="27" ry="18"/>
</g>
<!-- talk_p_proc&#45;&gt;DialogMain -->
<g id="edge3" class="edge">
<title>talk_p_proc&#45;&gt;DialogMain</title>
<path fill="none" stroke="#555555" stroke-dasharray="1,5" d="M1431.27,-819C1431.15,-801.28 1431.58,-783.08 1432.55,-768.73"/>
<polygon fill="#555555" stroke="#555555" points="1436.09,-769.4 1433.45,-759.14 1429.12,-768.81 1436.09,-769.4"/>
</g>
<!-- talk_p_proc&#45;&gt;DialogMain -->
<g id="edge4" class="edge">
<title>talk_p_proc&#45;&gt;DialogMain</title>
<path fill="none" stroke="#555555" stroke-dasharray="1,5" d="M1444.73,-819C1444.85,-801.28 1444.42,-783.08 1443.45,-768.73"/>
<polygon fill="#555555" stroke="#555555" points="1446.88,-768.81 1442.55,-759.14 1439.91,-769.4 1446.88,-768.81"/>
</g>
<!-- DialogMain11 -->
<g id="node8" class="node">
<title>DialogMain11</title>
<ellipse fill="#ffffff" stroke="#000000" cx="2348" cy="-740.16" rx="27" ry="18"/>
</g>
<!-- talk_p_proc&#45;&gt;DialogMain11 -->
<g id="edge5" class="edge">
<title>talk_p_proc&#45;&gt;DialogMain11</title>
<path fill="none" stroke="#555555" stroke-dasharray="1,5" d="M1544.38,-843.81C1571.62,-834.55 1601.11,-825.64 1629,-819.41 1884.98,-762.24 2201.93,-746.27 2309.92,-742.33"/>
<polygon fill="#555555" stroke="#555555" points="2310.01,-745.79 2319.88,-741.94 2309.76,-738.79 2310.01,-745.79"/>
</g>
<!-- ReactToLevel -->
<g id="node28" class="node">
<title>ReactToLevel</title>
<ellipse fill="#ffffff" stroke="#000000" cx="171" cy="-442.97" rx="27" ry="18"/>
</g>
<!-- get_reaction&#45;&gt;ReactToLevel -->
<g id="edge34" class="edge">
<title>get_reaction&#45;&gt;ReactToLevel</title>
<path fill="none" stroke="#555555" stroke-dasharray="1,5" d="M34.95,-722.87C58.64,-674.3 128.96,-530.15 158.11,-470.39"/>
<polygon fill="#555555" stroke="#555555" points="161.66,-472.1 162.9,-461.58 155.37,-469.03 161.66,-472.1"/>
</g>
<!-- DialogMain1 -->
<g id="node14" class="node">
<title>DialogMain1</title>
<ellipse fill="#ffffff" stroke="#000000" cx="1936" cy="-442.97" rx="27" ry="18"/>
</g>
<!-- DialogMain&#45;&gt;DialogMain1 -->
<g id="edge6" class="edge">
<title>DialogMain&#45;&gt;DialogMain1</title>
<path fill="none" stroke="#960099" d="M1465.35,-739.62C1553.84,-740.51 1830.17,-738.46 1892,-679.91 1907.03,-665.68 1925.24,-531.33 1932.64,-471.96"/>
<polygon fill="#960099" stroke="#960099" points="1936.22,-472.5 1933.97,-462.14 1929.27,-471.64 1936.22,-472.5"/>
<text text-anchor="middle" x="1988.62" y="-632.11" font-family="Times,serif" font-size="14.00" fill="#960099">You have the look of</text>
<text text-anchor="middle" x="1988.62" y="-614.86" font-family="Times,serif" font-size="14.00" fill="#960099">someone important.</text>
</g>
<!-- DialogMain2 -->
<g id="node15" class="node">
<title>DialogMain2</title>
<ellipse fill="#ffffff" stroke="#000000" cx="667" cy="-442.97" rx="142.84" ry="66.64"/>
<text text-anchor="middle" x="667" y="-472.8" font-family="Times,serif" font-size="14.00">Nice enough town. Me an&#39;</text>
<text text-anchor="middle" x="667" y="-455.55" font-family="Times,serif" font-size="14.00">the Regulators work hard</text>
<text text-anchor="middle" x="667" y="-438.3" font-family="Times,serif" font-size="14.00">to keep it that way.</text>
<text text-anchor="middle" x="667" y="-421.05" font-family="Times,serif" font-size="14.00">Anyone in particular you</text>
<text text-anchor="middle" x="667" y="-403.8" font-family="Times,serif" font-size="14.00">want to know about?</text>
</g>
<!-- DialogMain&#45;&gt;DialogMain2 -->
<g id="edge7" class="edge">
<title>DialogMain&#45;&gt;DialogMain2</title>
<path fill="none" stroke="#009969" d="M1428.55,-722.84C1422.29,-713.72 1413.18,-703.16 1402,-697.91 1365.9,-680.95 713.12,-707.43 684.25,-679.91 642.39,-640.01 641.36,-572.63 648.91,-520.07"/>
<polygon fill="#009969" stroke="#009969" points="652.48,-520.85 650.58,-510.43 645.57,-519.76 652.48,-520.85"/>
<text text-anchor="middle" x="766.38" y="-632.11" font-family="Times,serif" font-size="14.00" fill="#009969">Can you tell me a little</text>
<text text-anchor="middle" x="766.38" y="-614.86" font-family="Times,serif" font-size="14.00" fill="#009969">about Adytum?</text>
</g>
<!-- DialogMain5 -->
<g id="node16" class="node">
<title>DialogMain5</title>
<ellipse fill="#ffffff" stroke="#000000" cx="1394" cy="-442.97" rx="138.59" ry="103.24"/>
<text text-anchor="middle" x="1394" y="-498.67" font-family="Times,serif" font-size="14.00">Yah, I guess. You got the</text>
<text text-anchor="middle" x="1394" y="-481.42" font-family="Times,serif" font-size="14.00">Blades up north, a pretty</text>
<text text-anchor="middle" x="1394" y="-464.17" font-family="Times,serif" font-size="14.00">pathetic herd</text>
<text text-anchor="middle" x="1394" y="-446.92" font-family="Times,serif" font-size="14.00">of people, and the Gun</text>
<text text-anchor="middle" x="1394" y="-429.67" font-family="Times,serif" font-size="14.00">Runners a little north</text>
<text text-anchor="middle" x="1394" y="-412.42" font-family="Times,serif" font-size="14.00">and a ways to the east</text>
<text text-anchor="middle" x="1394" y="-395.17" font-family="Times,serif" font-size="14.00">through the DeathClaw</text>
<text text-anchor="middle" x="1394" y="-377.92" font-family="Times,serif" font-size="14.00">Playground.</text>
</g>
<!-- DialogMain&#45;&gt;DialogMain5 -->
<g id="edge8" class="edge">
<title>DialogMain&#45;&gt;DialogMain5</title>
<path fill="none" stroke="#993d00" d="M1428.34,-723.25C1422.01,-714.27 1412.9,-703.73 1402,-697.91 1374.18,-683.06 1282.08,-703.58 1261.25,-679.91 1230.86,-645.38 1243.62,-618.9 1261.25,-576.41 1268.62,-558.65 1279.65,-542.04 1292.27,-526.98"/>
<polygon fill="#993d00" stroke="#993d00" points="1295.49,-529.62 1299.43,-519.79 1290.22,-525.02 1295.49,-529.62"/>
<text text-anchor="middle" x="1343.38" y="-640.73" font-family="Times,serif" font-size="14.00" fill="#993d00">Can you tell me what&#39;s</text>
<text text-anchor="middle" x="1343.38" y="-623.48" font-family="Times,serif" font-size="14.00" fill="#993d00">going on here in the</text>
<text text-anchor="middle" x="1343.38" y="-606.23" font-family="Times,serif" font-size="14.00" fill="#993d00">Boneyard?</text>
</g>
<!-- DialogMain6 -->
<g id="node17" class="node">
<title>DialogMain6</title>
<ellipse fill="#ffffff" stroke="#000000" cx="1685" cy="-442.97" rx="134.35" ry="66.64"/>
<text text-anchor="middle" x="1685" y="-472.8" font-family="Times,serif" font-size="14.00">We are the police force</text>
<text text-anchor="middle" x="1685" y="-455.55" font-family="Times,serif" font-size="14.00">for Adytum. Most folks</text>
<text text-anchor="middle" x="1685" y="-438.3" font-family="Times,serif" font-size="14.00">&#39;round here know</text>
<text text-anchor="middle" x="1685" y="-421.05" font-family="Times,serif" font-size="14.00">enough not to cause any</text>
<text text-anchor="middle" x="1685" y="-403.8" font-family="Times,serif" font-size="14.00">trouble.</text>
</g>
<!-- DialogMain&#45;&gt;DialogMain6 -->
<g id="edge9" class="edge">
<title>DialogMain&#45;&gt;DialogMain6</title>
<path fill="none" stroke="#100099" d="M1439.39,-721.92C1442.76,-684.44 1452.59,-597.23 1472.5,-576.41 1494.55,-553.35 1513.47,-572.69 1542,-558.41 1567.72,-545.54 1593.11,-527.47 1615.2,-509.5"/>
<polygon fill="#100099" stroke="#100099" points="1617.03,-511.7 1622.5,-502.62 1612.57,-506.31 1617.03,-511.7"/>
<text text-anchor="middle" x="1565.25" y="-632.11" font-family="Times,serif" font-size="14.00" fill="#100099">What&#39;s the history behind</text>
<text text-anchor="middle" x="1565.25" y="-614.86" font-family="Times,serif" font-size="14.00" fill="#100099">the Regulators?</text>
</g>
<!-- DialogMain7 -->
<g id="node18" class="node">
<title>DialogMain7</title>
<ellipse fill="#ffffff" stroke="#000000" cx="1864" cy="-442.97" rx="27" ry="18"/>
</g>
<!-- DialogMain&#45;&gt;DialogMain7 -->
<g id="edge10" class="edge">
<title>DialogMain&#45;&gt;DialogMain7</title>
<path fill="none" stroke="#1d9900" d="M1464.81,-736.21C1521.68,-729.39 1651.67,-710.77 1682,-679.91 1715.05,-646.29 1670.68,-608.47 1705.25,-576.41 1745.68,-538.92 1786.03,-594.18 1828,-558.41 1852.99,-537.11 1860.86,-498.64 1863.21,-472.23"/>
<polygon fill="#1d9900" stroke="#1d9900" points="1866.76,-472.6 1863.93,-462.39 1859.77,-472.14 1866.76,-472.6"/>
<text text-anchor="middle" x="1788.88" y="-640.73" font-family="Times,serif" font-size="14.00" fill="#1d9900">Tell me more about the</text>
<text text-anchor="middle" x="1788.88" y="-623.48" font-family="Times,serif" font-size="14.00" fill="#1d9900">Children and the</text>
<text text-anchor="middle" x="1788.88" y="-606.23" font-family="Times,serif" font-size="14.00" fill="#1d9900">Followers.</text>
</g>
<!-- DialogMain8 -->
<g id="node19" class="node">
<title>DialogMain8</title>
<ellipse fill="#ffffff" stroke="#000000" cx="2130" cy="-442.97" rx="148.67" ry="115.44"/>
<text text-anchor="middle" x="2130" y="-507.3" font-family="Times,serif" font-size="14.00">You&#39;ll find him in the</text>
<text text-anchor="middle" x="2130" y="-490.05" font-family="Times,serif" font-size="14.00">big building to the</text>
<text text-anchor="middle" x="2130" y="-472.8" font-family="Times,serif" font-size="14.00">southwest.</text>
<text text-anchor="middle" x="2130" y="-455.55" font-family="Times,serif" font-size="14.00">He might be able to put</text>
<text text-anchor="middle" x="2130" y="-438.3" font-family="Times,serif" font-size="14.00">enough sentences together</text>
<text text-anchor="middle" x="2130" y="-421.05" font-family="Times,serif" font-size="14.00">to let you know</text>
<text text-anchor="middle" x="2130" y="-403.8" font-family="Times,serif" font-size="14.00">that we&#39;re looking for</text>
<text text-anchor="middle" x="2130" y="-386.55" font-family="Times,serif" font-size="14.00">some help with the</text>
<text text-anchor="middle" x="2130" y="-369.3" font-family="Times,serif" font-size="14.00">Blades.</text>
</g>
<!-- DialogMain&#45;&gt;DialogMain8 -->
<g id="edge11" class="edge">
<title>DialogMain&#45;&gt;DialogMain8</title>
<path fill="none" stroke="#990049" d="M1465.3,-738.59C1582.78,-735.88 2041.47,-722.64 2088,-679.91 2118.45,-651.95 2131.59,-610.15 2136.27,-569.46"/>
<polygon fill="#990049" stroke="#990049" points="2139.84,-569.88 2137.33,-559.59 2132.88,-569.2 2139.84,-569.88"/>
<text text-anchor="middle" x="2194.88" y="-632.11" font-family="Times,serif" font-size="14.00" fill="#990049">Where can I find</text>
<text text-anchor="middle" x="2194.88" y="-614.86" font-family="Times,serif" font-size="14.00" fill="#990049">Zimmerman?</text>
</g>
<!-- DialogMainExit -->
<g id="node20" class="node">
<title>DialogMainExit</title>
<ellipse fill="#ffffff" stroke="#000000" cx="339" cy="-190.39" rx="138.06" ry="42.25"/>
<text text-anchor="middle" x="339" y="-202.97" font-family="Times,serif" font-size="14.00">Stay out of trouble.</text>
<text text-anchor="middle" x="339" y="-185.72" font-family="Times,serif" font-size="14.00">&#45;&#45;&#45;</text>
<text text-anchor="middle" x="339" y="-168.47" font-family="Times,serif" font-size="14.00">You have a good day, too.</text>
</g>
<!-- DialogMain&#45;&gt;DialogMainExit -->
<g id="edge12" class="edge">
<title>DialogMain&#45;&gt;DialogMainExit</title>
<path fill="none" stroke="#007699" d="M1428.55,-722.83C1422.3,-713.71 1413.19,-703.16 1402,-697.91 1325.52,-662.05 724.74,-696.92 642,-679.91 500.09,-650.73 420.76,-678.36 339.5,-558.41 274.9,-463.06 301.28,-319.4 322.36,-243.17"/>
<polygon fill="#007699" stroke="#007699" points="325.92,-244.45 325.29,-233.88 319.19,-242.54 325.92,-244.45"/>
<text text-anchor="middle" x="427.75" y="-438.3" font-family="Times,serif" font-size="14.00" fill="#007699">Have a nice day. Thanks.</text>
</g>
<!-- Dumb -->
<g id="node21" class="node">
<title>Dumb</title>
<ellipse fill="#ffffff" stroke="#000000" cx="1063" cy="-442.97" rx="136.47" ry="30.05"/>
<text text-anchor="middle" x="1063" y="-446.92" font-family="Times,serif" font-size="14.00">Sorry, but I don&#39;t have</text>
<text text-anchor="middle" x="1063" y="-429.67" font-family="Times,serif" font-size="14.00">time for you. &#160;Run along.</text>
</g>
<!-- DialogMain&#45;&gt;Dumb -->
<g id="edge13" class="edge">
<title>DialogMain&#45;&gt;Dumb</title>
<path fill="none" stroke="#998f00" d="M1428.46,-723.02C1422.17,-713.97 1413.06,-703.42 1402,-697.91 1351.45,-672.73 1193.56,-713.95 1148.5,-679.91 1087,-633.45 1069.67,-538.52 1064.83,-484.31"/>
<polygon fill="#998f00" stroke="#998f00" points="1068.25,-484.09 1063.98,-474.39 1061.27,-484.63 1068.25,-484.09"/>
<text text-anchor="middle" x="1181.25" y="-623.48" font-family="Times,serif" font-size="14.00" fill="#998f00">Guga gu.</text>
</g>
<!-- DialogExit -->
<g id="node13" class="node">
<title>DialogExit</title>
<ellipse fill="#ffffff" stroke="#000000" cx="2147" cy="-18" rx="27" ry="18"/>
</g>
<!-- DialogMain11&#45;&gt;DialogExit -->
<g id="edge31" class="edge">
<title>DialogMain11&#45;&gt;DialogExit</title>
<path fill="none" stroke="#99002a" d="M2346.07,-721.78C2335.01,-621.92 2279.94,-125.44 2279,-123.75 2256.1,-82.41 2209.55,-51.54 2178.31,-34.38"/>
<polygon fill="#99002a" stroke="#99002a" points="2180.23,-30.9 2169.76,-29.3 2176.94,-37.08 2180.23,-30.9"/>
<text text-anchor="middle" x="2381" y="-287.61" font-family="Times,serif" font-size="14.00" fill="#99002a">Where are the Blades?</text>
</g>
<!-- DialogMain12 -->
<g id="node26" class="node">
<title>DialogMain12</title>
<ellipse fill="#ffffff" stroke="#000000" cx="2364" cy="-442.97" rx="27" ry="18"/>
</g>
<!-- DialogMain11&#45;&gt;DialogMain12 -->
<g id="edge29" class="edge">
<title>DialogMain11&#45;&gt;DialogMain12</title>
<path fill="none" stroke="#300099" d="M2348.93,-722.01C2351.58,-673.1 2359.2,-532.55 2362.47,-472.13"/>
<polygon fill="#300099" stroke="#300099" points="2366.02,-472.34 2363.07,-462.17 2359.03,-471.96 2366.02,-472.34"/>
<text text-anchor="middle" x="2432" y="-640.73" font-family="Times,serif" font-size="14.00" fill="#300099">All right I get the</text>
<text text-anchor="middle" x="2432" y="-623.48" font-family="Times,serif" font-size="14.00" fill="#300099">picture. I&#39;ll go talk to</text>
<text text-anchor="middle" x="2432" y="-606.23" font-family="Times,serif" font-size="14.00" fill="#300099">Zimmerman.</text>
</g>
<!-- DialogMain13 -->
<g id="node27" class="node">
<title>DialogMain13</title>
<ellipse fill="#ffffff" stroke="#000000" cx="2547" cy="-442.97" rx="27" ry="18"/>
</g>
<!-- DialogMain11&#45;&gt;DialogMain13 -->
<g id="edge30" class="edge">
<title>DialogMain11&#45;&gt;DialogMain13</title>
<path fill="none" stroke="#009903" d="M2363.18,-724.92C2374,-715.65 2389.34,-704.15 2405,-697.91 2433.32,-686.63 2520.62,-702.58 2541,-679.91 2593.1,-621.96 2571.1,-519.9 2556.35,-471.25"/>
<polygon fill="#009903" stroke="#009903" points="2559.42,-470.37 2553.07,-461.9 2552.75,-472.49 2559.42,-470.37"/>
<text text-anchor="middle" x="2671.62" y="-666.61" font-family="Times,serif" font-size="14.00" fill="#009903">So, Zimmerman gave you</text>
<text text-anchor="middle" x="2671.62" y="-649.36" font-family="Times,serif" font-size="14.00" fill="#009903">the scoop on the Blades.</text>
<text text-anchor="middle" x="2671.62" y="-632.11" font-family="Times,serif" font-size="14.00" fill="#009903">Whatever.</text>
<text text-anchor="middle" x="2671.62" y="-614.86" font-family="Times,serif" font-size="14.00" fill="#009903">I&#39;m sure he&#39;ll want to</text>
<text text-anchor="middle" x="2671.62" y="-597.61" font-family="Times,serif" font-size="14.00" fill="#009903">know when you&#39;ve done the</text>
<text text-anchor="middle" x="2671.62" y="-580.36" font-family="Times,serif" font-size="14.00" fill="#009903">job.</text>
</g>
<!-- critter_p_proc -->
<g id="node9" class="node">
<title>critter_p_proc</title>
<ellipse fill="#ffffff" stroke="#000000" cx="1665" cy="-886.05" rx="27" ry="18"/>
</g>
<!-- damage_p_proc -->
<g id="node10" class="node">
<title>damage_p_proc</title>
<ellipse fill="#ffffff" stroke="#000000" cx="1970" cy="-886.05" rx="27" ry="18"/>
</g>
<!-- destroy_p_proc -->
<g id="node11" class="node">
<title>destroy_p_proc</title>
<ellipse fill="#ffffff" stroke="#000000" cx="2159" cy="-886.05" rx="27" ry="18"/>
</g>
<!-- pickup_p_proc -->
<g id="node12" class="node">
<title>pickup_p_proc</title>
<ellipse fill="#ffffff" stroke="#000000" cx="2289" cy="-886.05" rx="27" ry="18"/>
</g>
<!-- DialogMain1&#45;&gt;DialogMain -->
<g id="edge14" class="edge">
<title>DialogMain1&#45;&gt;DialogMain</title>
<path fill="none" stroke="#555555" stroke-dasharray="1,5" d="M1936.24,-461.2C1937.57,-486.45 1943.95,-533.22 1972,-558.41 2002.35,-585.66 2036.14,-544.86 2062,-576.41 2091.16,-611.98 2092.95,-645.88 2062,-679.91 2022.46,-723.38 1605.48,-735.67 1476.08,-738.46"/>
<polygon fill="#555555" stroke="#555555" points="1476.09,-734.97 1466.17,-738.68 1476.24,-741.97 1476.09,-734.97"/>
</g>
<!-- DialogMain2&#45;&gt;DialogMainExit -->
<g id="edge17" class="edge">
<title>DialogMain2&#45;&gt;DialogMainExit</title>
<path fill="none" stroke="#990900" d="M596.52,-384.57C566.85,-363.3 530.91,-341.08 495,-327.54 467.04,-316.99 383.46,-330.07 361.75,-309.54 344.13,-292.88 337.81,-267.02 336.17,-243.75"/>
<polygon fill="#990900" stroke="#990900" points="339.63,-243.77 335.71,-233.93 332.64,-244.07 339.63,-243.77"/>
<text text-anchor="middle" x="438.12" y="-287.61" font-family="Times,serif" font-size="14.00" fill="#990900">Nothing else, thanks.</text>
</g>
<!-- DialogMain3 -->
<g id="node22" class="node">
<title>DialogMain3</title>
<ellipse fill="#ffffff" stroke="#000000" cx="808" cy="-190.39" rx="27" ry="18"/>
</g>
<!-- DialogMain2&#45;&gt;DialogMain3 -->
<g id="edge15" class="edge">
<title>DialogMain2&#45;&gt;DialogMain3</title>
<path fill="none" stroke="#630099" d="M695.99,-377.34C710.82,-345.87 729.81,-307.84 749.25,-275.04 761.62,-254.17 777.53,-231.74 789.67,-215.37"/>
<polygon fill="#630099" stroke="#630099" points="792.79,-218.04 795.98,-207.94 787.19,-213.85 792.79,-218.04"/>
<text text-anchor="middle" x="817.88" y="-287.61" font-family="Times,serif" font-size="14.00" fill="#630099">Who runs Adytum?</text>
</g>
<!-- DialogMain4 -->
<g id="node23" class="node">
<title>DialogMain4</title>
<ellipse fill="#ffffff" stroke="#000000" cx="534" cy="-190.39" rx="27" ry="18"/>
</g>
<!-- DialogMain2&#45;&gt;DialogMain4 -->
<g id="edge16" class="edge">
<title>DialogMain2&#45;&gt;DialogMain4</title>
<path fill="none" stroke="#009936" d="M586.41,-387.55C561.89,-366.37 537.95,-339.86 524.75,-309.54 512.07,-280.42 518.05,-243.46 524.79,-218.71"/>
<polygon fill="#009936" stroke="#009936" points="528.4,-219.85 527.88,-209.26 521.69,-217.86 528.4,-219.85"/>
<text text-anchor="middle" x="610.12" y="-287.61" font-family="Times,serif" font-size="14.00" fill="#009936">Who does trading here?</text>
</g>
<!-- DialogMain5&#45;&gt;DialogMain -->
<g id="edge20" class="edge">
<title>DialogMain5&#45;&gt;DialogMain</title>
<path fill="none" stroke="#555555" stroke-dasharray="1,5" d="M1418.37,-544.93C1420.47,-555.52 1422.41,-566.16 1424,-576.41 1431.3,-623.33 1435.04,-678.5 1436.75,-711.05"/>
<polygon fill="#555555" stroke="#555555" points="1433.3,-711.15 1437.3,-720.96 1440.29,-710.8 1433.3,-711.15"/>
</g>
<!-- DialogMain6&#45;&gt;DialogMain -->
<g id="edge21" class="edge">
<title>DialogMain6&#45;&gt;DialogMain</title>
<path fill="none" stroke="#555555" stroke-dasharray="1,5" d="M1685.2,-510.1C1683.99,-570.89 1678.33,-655.21 1657,-679.91 1633.35,-707.3 1530.82,-725.89 1474.83,-734.21"/>
<polygon fill="#555555" stroke="#555555" points="1474.69,-730.84 1465.29,-735.74 1475.69,-737.77 1474.69,-730.84"/>
</g>
<!-- DialogMain7&#45;&gt;DialogMain -->
<g id="edge22" class="edge">
<title>DialogMain7&#45;&gt;DialogMain</title>
<path fill="none" stroke="#555555" stroke-dasharray="1,5" d="M1867.4,-461.3C1876.56,-510.15 1899.22,-647.56 1871,-679.91 1845.12,-709.57 1576.71,-730.07 1475.95,-736.78"/>
<polygon fill="#555555" stroke="#555555" points="1475.81,-733.35 1466.06,-737.49 1476.27,-740.33 1475.81,-733.35"/>
</g>
<!-- DialogMain8&#45;&gt;DialogExit -->
<g id="edge25" class="edge">
<title>DialogMain8&#45;&gt;DialogExit</title>
<path fill="none" stroke="#99007d" d="M2134.61,-327.23C2138.44,-231.99 2143.61,-103.38 2145.87,-47.21"/>
<polygon fill="#99007d" stroke="#99007d" points="2149.4,-47.49 2146.3,-37.36 2142.4,-47.21 2149.4,-47.49"/>
<text text-anchor="middle" x="2209" y="-194.34" font-family="Times,serif" font-size="14.00" fill="#99007d">Thanx for the info.</text>
<text text-anchor="middle" x="2209" y="-177.09" font-family="Times,serif" font-size="14.00" fill="#99007d">Goodbye.</text>
</g>
<!-- DialogMain10 -->
<g id="node24" class="node">
<title>DialogMain10</title>
<ellipse fill="#ffffff" stroke="#000000" cx="1959" cy="-190.39" rx="147.08" ry="66.64"/>
<text text-anchor="middle" x="1959" y="-220.22" font-family="Times,serif" font-size="14.00">They&#39;ve done something to</text>
<text text-anchor="middle" x="1959" y="-202.97" font-family="Times,serif" font-size="14.00">Zimmerman&#39;s half witted</text>
<text text-anchor="middle" x="1959" y="-185.72" font-family="Times,serif" font-size="14.00">son.</text>
<text text-anchor="middle" x="1959" y="-168.47" font-family="Times,serif" font-size="14.00">But like I said, go talk</text>
<text text-anchor="middle" x="1959" y="-151.22" font-family="Times,serif" font-size="14.00">to Zimmerman about it.</text>
</g>
<!-- DialogMain8&#45;&gt;DialogMain10 -->
<g id="edge23" class="edge">
<title>DialogMain8&#45;&gt;DialogMain10</title>
<path fill="none" stroke="#002399" d="M2020.11,-364.96C1987.3,-340.82 1958.82,-318.21 1954.5,-309.54 1948.15,-296.8 1945.58,-282.3 1945.19,-267.92"/>
<polygon fill="#002399" stroke="#002399" points="1948.7,-268.01 1945.3,-257.98 1941.7,-267.95 1948.7,-268.01"/>
<text text-anchor="middle" x="2044.25" y="-296.24" font-family="Times,serif" font-size="14.00" fill="#002399">What&#39;s going on with the</text>
<text text-anchor="middle" x="2044.25" y="-278.99" font-family="Times,serif" font-size="14.00" fill="#002399">Blades?</text>
</g>
<!-- DialogMain9 -->
<g id="node25" class="node">
<title>DialogMain9</title>
<ellipse fill="#ffffff" stroke="#000000" cx="1618" cy="-18" rx="27" ry="18"/>
</g>
<!-- DialogMain8&#45;&gt;DialogMain9 -->
<g id="edge24" class="edge">
<title>DialogMain8&#45;&gt;DialogMain9</title>
<path fill="none" stroke="#509900" d="M2027.99,-358.7C2010.09,-346.89 1991.07,-335.93 1972,-327.54 1828.94,-264.62 1728.71,-376.13 1627.5,-257.04 1576.56,-197.1 1596.07,-94.84 1609.46,-46.22"/>
<polygon fill="#509900" stroke="#509900" points="1613.03,-47.46 1612.44,-36.89 1606.31,-45.52 1613.03,-47.46"/>
<text text-anchor="middle" x="1715.75" y="-194.34" font-family="Times,serif" font-size="14.00" fill="#509900">Can I ask you something</text>
<text text-anchor="middle" x="1715.75" y="-177.09" font-family="Times,serif" font-size="14.00" fill="#509900">else?</text>
</g>
<!-- DialogMain3&#45;&gt;DialogMain -->
<g id="edge18" class="edge">
<title>DialogMain3&#45;&gt;DialogMain</title>
<path fill="none" stroke="#555555" stroke-dasharray="1,5" d="M824.72,-204.82C842.2,-219.89 868.88,-246.07 882,-275.04 934.38,-390.68 854.17,-448.67 918,-558.41 963.25,-636.21 995.45,-649.08 1080,-679.91 1147.33,-704.46 1337.61,-666.44 1402,-697.91 1409.81,-701.72 1416.63,-708.07 1422.17,-714.66"/>
<polygon fill="#555555" stroke="#555555" points="1419.65,-716.12 1428.49,-721.96 1425.22,-711.88 1419.65,-716.12"/>
</g>
<!-- DialogMain4&#45;&gt;DialogMain -->
<g id="edge19" class="edge">
<title>DialogMain4&#45;&gt;DialogMain</title>
<path fill="none" stroke="#555555" stroke-dasharray="1,5" d="M558.56,-198.63C601.6,-211.21 693.57,-237.63 772,-257.04 808.22,-266 828.92,-247.41 854,-275.04 896.63,-322 874.7,-496.4 888,-558.41 899.86,-613.73 881.05,-645.55 926,-679.91 968.05,-712.06 1354.24,-675.1 1402,-697.91 1409.84,-701.65 1416.67,-707.98 1422.21,-714.57"/>
<polygon fill="#555555" stroke="#555555" points="1419.69,-716.04 1428.53,-721.89 1425.27,-711.81 1419.69,-716.04"/>
</g>
<!-- DialogMain10&#45;&gt;DialogExit -->
<g id="edge28" class="edge">
<title>DialogMain10&#45;&gt;DialogExit</title>
<path fill="none" stroke="#995c00" d="M1955.92,-123.51C1958.22,-98.79 1965.34,-72.29 1983,-54 2000.13,-36.27 2066.37,-26.68 2109.25,-22.22"/>
<polygon fill="#995c00" stroke="#995c00" points="2109.53,-25.61 2119.13,-21.14 2108.84,-18.64 2109.53,-25.61"/>
<text text-anchor="middle" x="2058" y="-92.45" font-family="Times,serif" font-size="14.00" fill="#995c00">All right I get the</text>
<text text-anchor="middle" x="2058" y="-75.2" font-family="Times,serif" font-size="14.00" fill="#995c00">picture. I&#39;ll go talk to</text>
<text text-anchor="middle" x="2058" y="-57.95" font-family="Times,serif" font-size="14.00" fill="#995c00">Zimmerman.</text>
</g>
<!-- DialogMain10&#45;&gt;DialogMain9 -->
<g id="edge27" class="edge">
<title>DialogMain10&#45;&gt;DialogMain9</title>
<path fill="none" stroke="#009989" d="M1856.14,-142.31C1831.26,-130.62 1804.83,-117.93 1780.5,-105.75 1733.6,-82.26 1680.08,-53.26 1647.69,-35.45"/>
<polygon fill="#009989" stroke="#009989" points="1649.79,-32.06 1639.34,-30.3 1646.41,-38.19 1649.79,-32.06"/>
<text text-anchor="middle" x="1868.75" y="-83.83" font-family="Times,serif" font-size="14.00" fill="#009989">Can I ask you something</text>
<text text-anchor="middle" x="1868.75" y="-66.58" font-family="Times,serif" font-size="14.00" fill="#009989">else?</text>
</g>
<!-- DialogMain9&#45;&gt;DialogMain -->
<g id="edge26" class="edge">
<title>DialogMain9&#45;&gt;DialogMain</title>
<path fill="none" stroke="#555555" stroke-dasharray="1,5" d="M1596.13,-28.79C1528.63,-60.36 1323.43,-166.93 1246,-327.54 1212.85,-396.3 1225.64,-662.73 1241,-679.91 1265,-706.74 1370.11,-681.21 1402,-697.91 1409.53,-701.85 1416.19,-708.07 1421.67,-714.49"/>
<polygon fill="#555555" stroke="#555555" points="1419.5,-716.41 1428.38,-722.18 1425.04,-712.13 1419.5,-716.41"/>
</g>
<!-- DialogMain12&#45;&gt;DialogMain11 -->
<g id="edge32" class="edge">
<title>DialogMain12&#45;&gt;DialogMain11</title>
<path fill="none" stroke="#555555" stroke-dasharray="1,5" d="M2361.27,-461.06C2357.4,-486.23 2350.5,-534.8 2348,-576.41 2345.16,-623.63 2346.03,-678.71 2346.98,-711.16"/>
<polygon fill="#555555" stroke="#555555" points="2343.51,-711.15 2347.32,-721.03 2350.51,-710.93 2343.51,-711.15"/>
</g>
<!-- DialogMain13&#45;&gt;DialogMain11 -->
<g id="edge33" class="edge">
<title>DialogMain13&#45;&gt;DialogMain11</title>
<path fill="none" stroke="#555555" stroke-dasharray="1,5" d="M2546.88,-461.44C2546.17,-510.66 2541.43,-648.96 2511,-679.91 2477.5,-713.98 2449.06,-679.42 2405,-697.91 2393.1,-702.9 2381.31,-710.8 2371.57,-718.36"/>
<polygon fill="#555555" stroke="#555555" points="2369.82,-716.08 2364.26,-725.1 2374.23,-721.52 2369.82,-716.08"/>
</g>
<!-- LevelToReact -->
<g id="node29" class="node">
<title>LevelToReact</title>
<ellipse fill="#ffffff" stroke="#000000" cx="2441" cy="-740.16" rx="27" ry="18"/>
</g>
<!-- UpReact -->
<g id="node30" class="node">
<title>UpReact</title>
<ellipse fill="#ffffff" stroke="#000000" cx="99" cy="-740.16" rx="27" ry="18"/>
</g>
<!-- UpReact&#45;&gt;ReactToLevel -->
<g id="edge35" class="edge">
<title>UpReact&#45;&gt;ReactToLevel</title>
<path fill="none" stroke="#555555" stroke-dasharray="1,5" d="M103.18,-722.01C115.14,-673 149.54,-531.96 164.22,-471.76"/>
<polygon fill="#555555" stroke="#555555" points="167.84,-472.71 166.81,-462.17 161.04,-471.05 167.84,-472.71"/>
</g>
<!-- DownReact -->
<g id="node31" class="node">
<title>DownReact</title>
<ellipse fill="#ffffff" stroke="#000000" cx="171" cy="-740.16" rx="27" ry="18"/>
</g>
<!-- DownReact&#45;&gt;ReactToLevel -->
<g id="edge36" class="edge">
<title>DownReact&#45;&gt;ReactToLevel</title>
<path fill="none" stroke="#555555" stroke-dasharray="1,5" d="M171,-722.01C171,-673.1 171,-532.55 171,-472.13"/>
<polygon fill="#555555" stroke="#555555" points="174.5,-472.17 171,-462.17 167.5,-472.17 174.5,-472.17"/>
</g>
<!-- BottomReact -->
<g id="node32" class="node">
<title>BottomReact</title>
<ellipse fill="#ffffff" stroke="#000000" cx="2534" cy="-886.05" rx="27" ry="18"/>
</g>
<!-- TopReact -->
<g id="node33" class="node">
<title>TopReact</title>
<ellipse fill="#ffffff" stroke="#000000" cx="2606" cy="-886.05" rx="27" ry="18"/>
</g>
<!-- BigUpReact -->
<g id="node34" class="node">
<title>BigUpReact</title>
<ellipse fill="#ffffff" stroke="#000000" cx="243" cy="-740.16" rx="27" ry="18"/>
</g>
<!-- BigUpReact&#45;&gt;ReactToLevel -->
<g id="edge37" class="edge">
<title>BigUpReact&#45;&gt;ReactToLevel</title>
<path fill="none" stroke="#555555" stroke-dasharray="1,5" d="M238.82,-722.01C226.86,-673 192.46,-531.96 177.78,-471.76"/>
<polygon fill="#555555" stroke="#555555" points="180.96,-471.05 175.19,-462.17 174.16,-472.71 180.96,-471.05"/>
</g>
<!-- BigDownReact -->
<g id="node35" class="node">
<title>BigDownReact</title>
<ellipse fill="#ffffff" stroke="#000000" cx="315" cy="-740.16" rx="27" ry="18"/>
</g>
<!-- BigDownReact&#45;&gt;ReactToLevel -->
<g id="edge38" class="edge">
<title>BigDownReact&#45;&gt;ReactToLevel</title>
<path fill="none" stroke="#555555" stroke-dasharray="1,5" d="M307.05,-722.87C283.36,-674.3 213.04,-530.15 183.89,-470.39"/>
<polygon fill="#555555" stroke="#555555" points="186.63,-469.03 179.1,-461.58 180.34,-472.1 186.63,-469.03"/>
</g>
<!-- UpReactLevel -->
<g id="node36" class="node">
<title>UpReactLevel</title>
<ellipse fill="#ffffff" stroke="#000000" cx="2390" cy="-886.05" rx="27" ry="18"/>
</g>
<!-- UpReactLevel&#45;&gt;LevelToReact -->
<g id="edge39" class="edge">
<title>UpReactLevel&#45;&gt;LevelToReact</title>
<path fill="none" stroke="#555555" stroke-dasharray="1,5" d="M2395.95,-868.27C2404.7,-843.57 2421.13,-797.21 2431.55,-767.83"/>
<polygon fill="#555555" stroke="#555555" points="2435.05,-769.44 2435.09,-758.84 2428.45,-767.1 2435.05,-769.44"/>
</g>
<!-- DownReactLevel -->
<g id="node37" class="node">
<title>DownReactLevel</title>
<ellipse fill="#ffffff" stroke="#000000" cx="2462" cy="-886.05" rx="27" ry="18"/>
</g>
<!-- DownReactLevel&#45;&gt;LevelToReact -->
<g id="edge40" class="edge">
<title>DownReactLevel&#45;&gt;LevelToReact</title>
<path fill="none" stroke="#555555" stroke-dasharray="1,5" d="M2459.47,-867.7C2455.9,-843.28 2449.37,-798.52 2445.11,-769.31"/>
<polygon fill="#555555" stroke="#555555" points="2448.45,-768.97 2443.54,-759.58 2441.52,-769.98 2448.45,-768.97"/>
</g>
<!-- Goodbyes -->
<g id="node38" class="node">
<title>Goodbyes</title>
<ellipse fill="#ffffff" stroke="#000000" cx="2678" cy="-886.05" rx="27" ry="18"/>
</g>
</g>
</svg>
