<?xml version="1.0" encoding="UTF-8" standalone="no"?>
<!DOCTYPE svg PUBLIC "-//W3C//DTD SVG 1.1//EN"
 "http://www.w3.org/Graphics/SVG/1.1/DTD/svg11.dtd">
<!-- Generated by graphviz version 8.0.5 (0)
 -->
<!-- Title: CHILDRN1 Pages: 1 -->
<svg width="418pt" height="360pt"
 viewBox="0.00 0.00 418.29 359.66" xmlns="http://www.w3.org/2000/svg" xmlns:xlink="http://www.w3.org/1999/xlink">
<g id="graph0" class="graph" transform="scale(1 1) rotate(0) translate(4 355.66)">
<title>CHILDRN1</title>
<polygon fill="white" stroke="none" points="-4,4 -4,-355.66 414.29,-355.66 414.29,4 -4,4"/>
<!-- start -->
<g id="node1" class="node">
<title>start</title>
<ellipse fill="#ffffff" stroke="#000000" cx="133.29" cy="-211.83" rx="133.29" ry="139.83"/>
<text text-anchor="middle" x="133.29" y="-293.41" font-family="Times,serif" font-size="14.00">This is where you make</text>
<text text-anchor="middle" x="133.29" y="-276.16" font-family="Times,serif" font-size="14.00">your mark on the world.</text>
<text text-anchor="middle" x="133.29" y="-258.91" font-family="Times,serif" font-size="14.00">(a small pile of ash.)</text>
<text text-anchor="middle" x="133.29" y="-241.66" font-family="Times,serif" font-size="14.00">&#45;&#45;&#45;</text>
<text text-anchor="middle" x="133.29" y="-224.41" font-family="Times,serif" font-size="14.00">Time left: &#160;</text>
<text text-anchor="middle" x="133.29" y="-207.16" font-family="Times,serif" font-size="14.00">&#45;&#45;&#45;</text>
<text text-anchor="middle" x="133.29" y="-189.91" font-family="Times,serif" font-size="14.00"> seconds.</text>
<text text-anchor="middle" x="133.29" y="-172.66" font-family="Times,serif" font-size="14.00">&#45;&#45;&#45;</text>
<text text-anchor="middle" x="133.29" y="-155.41" font-family="Times,serif" font-size="14.00">This is where you make</text>
<text text-anchor="middle" x="133.29" y="-138.16" font-family="Times,serif" font-size="14.00">your mark on the world.</text>
<text text-anchor="middle" x="133.29" y="-120.91" font-family="Times,serif" font-size="14.00">(a small pile of ash.)</text>
</g>
<!-- Lighting -->
<g id="node2" class="node">
<title>Lighting</title>
<ellipse fill="#ffffff" stroke="#000000" cx="61.29" cy="-18" rx="27" ry="18"/>
</g>
<!-- start&#45;&gt;Lighting -->
<g id="edge1" class="edge">
<title>start&#45;&gt;Lighting</title>
<path fill="none" stroke="#555555" stroke-dasharray="1,5" d="M79.14,-83.68C74.31,-70.01 70.04,-57.29 66.81,-46.82"/>
<polygon fill="#555555" stroke="#555555" points="69.92,-45.99 63.73,-37.39 63.2,-47.97 69.92,-45.99"/>
</g>
<!-- start&#45;&gt;Lighting -->
<g id="edge3" class="edge">
<title>start&#45;&gt;Lighting</title>
<path fill="none" stroke="#555555" stroke-dasharray="1,5" d="M90.19,-79.17C85.09,-66.44 80.17,-54.69 75.85,-45.02"/>
<polygon fill="#555555" stroke="#555555" points="78.62,-43.65 71.25,-36.03 72.26,-46.58 78.62,-43.65"/>
</g>
<!-- add_party -->
<g id="node3" class="node">
<title>add_party</title>
<ellipse fill="#ffffff" stroke="#000000" cx="133.29" cy="-18" rx="27" ry="18"/>
</g>
<!-- start&#45;&gt;add_party -->
<g id="edge2" class="edge">
<title>start&#45;&gt;add_party</title>
<path fill="none" stroke="#555555" stroke-dasharray="1,5" d="M133.29,-71.67C133.29,-62.74 133.29,-54.45 133.29,-47.2"/>
<polygon fill="#555555" stroke="#555555" points="136.79,-47.41 133.29,-37.41 129.79,-47.41 136.79,-47.41"/>
</g>
<!-- update_party -->
<g id="node4" class="node">
<title>update_party</title>
<ellipse fill="#ffffff" stroke="#000000" cx="205.29" cy="-18" rx="27" ry="18"/>
</g>
<!-- start&#45;&gt;update_party -->
<g id="edge4" class="edge">
<title>start&#45;&gt;update_party</title>
<path fill="none" stroke="#555555" stroke-dasharray="1,5" d="M181.91,-81.28C186.85,-68.14 191.42,-55.95 195.19,-45.92"/>
<polygon fill="#555555" stroke="#555555" points="198.7,-47.51 198.94,-36.92 192.15,-45.05 198.7,-47.51"/>
</g>
<!-- remove_party -->
<g id="node5" class="node">
<title>remove_party</title>
<ellipse fill="#ffffff" stroke="#000000" cx="277.29" cy="-18" rx="27" ry="18"/>
</g>
<!-- start&#45;&gt;remove_party -->
<g id="edge5" class="edge">
<title>start&#45;&gt;remove_party</title>
<path fill="none" stroke="#555555" stroke-dasharray="1,5" d="M215.38,-101.47C231.81,-79.59 247.52,-58.66 259,-43.36"/>
<polygon fill="#555555" stroke="#555555" points="262.37,-45.71 265.57,-35.61 256.77,-41.5 262.37,-45.71"/>
</g>
<!-- Darkness -->
<g id="node6" class="node">
<title>Darkness</title>
<ellipse fill="#ffffff" stroke="#000000" cx="311.29" cy="-211.83" rx="27" ry="18"/>
</g>
<!-- Invasion -->
<g id="node7" class="node">
<title>Invasion</title>
<ellipse fill="#ffffff" stroke="#000000" cx="383.29" cy="-211.83" rx="27" ry="18"/>
</g>
</g>
</svg>
