<?xml version="1.0" encoding="UTF-8" standalone="no"?>
<!DOCTYPE svg PUBLIC "-//W3C//DTD SVG 1.1//EN"
 "http://www.w3.org/Graphics/SVG/1.1/DTD/svg11.dtd">
<!-- Generated by graphviz version 8.0.5 (0)
 -->
<!-- Title: CHOCTECH Pages: 1 -->
<svg width="1992pt" height="2055pt"
 viewBox="0.00 0.00 1991.81 2054.68" xmlns="http://www.w3.org/2000/svg" xmlns:xlink="http://www.w3.org/1999/xlink">
<g id="graph0" class="graph" transform="scale(1 1) rotate(0) translate(4 2050.68)">
<title>CHOCTECH</title>
<polygon fill="white" stroke="none" points="-4,4 -4,-2050.68 1987.81,-2050.68 1987.81,4 -4,4"/>
<!-- start -->
<g id="node1" class="node">
<title>start</title>
<ellipse fill="#ffffff" stroke="#000000" cx="274" cy="-2028.68" rx="27" ry="18"/>
</g>
<!-- critter_p_proc -->
<g id="node2" class="node">
<title>critter_p_proc</title>
<ellipse fill="#ffffff" stroke="#000000" cx="45" cy="-1943.63" rx="27" ry="18"/>
</g>
<!-- start&#45;&gt;critter_p_proc -->
<g id="edge1" class="edge">
<title>start&#45;&gt;critter_p_proc</title>
<path fill="none" stroke="#555555" stroke-dasharray="1,5" d="M247.79,-2023.82C209.47,-2017.41 136.67,-2002.37 81,-1973.68 76.63,-1971.43 72.28,-1968.59 68.21,-1965.57"/>
<polygon fill="#555555" stroke="#555555" points="70.8,-1962.36 60.8,-1958.85 66.42,-1967.83 70.8,-1962.36"/>
</g>
<!-- look_at_p_proc -->
<g id="node3" class="node">
<title>look_at_p_proc</title>
<ellipse fill="#ffffff" stroke="#000000" cx="228" cy="-1943.63" rx="137.53" ry="30.05"/>
<text text-anchor="middle" x="228" y="-1947.58" font-family="Times,serif" font-size="14.00">You see a Children of the</text>
<text text-anchor="middle" x="228" y="-1930.33" font-family="Times,serif" font-size="14.00">Cathedral technician.</text>
</g>
<!-- start&#45;&gt;look_at_p_proc -->
<g id="edge2" class="edge">
<title>start&#45;&gt;look_at_p_proc</title>
<path fill="none" stroke="#555555" stroke-dasharray="1,5" d="M264.91,-2011.27C260.43,-2003.18 254.81,-1993.04 249.33,-1983.13"/>
<polygon fill="#555555" stroke="#555555" points="252.05,-1981.83 244.15,-1974.78 245.93,-1985.22 252.05,-1981.83"/>
</g>
<!-- talk_p_proc -->
<g id="node4" class="node">
<title>talk_p_proc</title>
<ellipse fill="#ffffff" stroke="#000000" cx="411" cy="-1943.63" rx="27" ry="18"/>
</g>
<!-- start&#45;&gt;talk_p_proc -->
<g id="edge3" class="edge">
<title>start&#45;&gt;talk_p_proc</title>
<path fill="none" stroke="#555555" stroke-dasharray="1,5" d="M295.56,-2017.63C316.47,-2007.53 348.81,-1991.03 375,-1973.68 378.84,-1971.14 382.77,-1968.27 386.55,-1965.36"/>
<polygon fill="#555555" stroke="#555555" points="388.38,-1967.59 394.01,-1958.61 384.01,-1962.12 388.38,-1967.59"/>
</g>
<!-- destroy_p_proc -->
<g id="node5" class="node">
<title>destroy_p_proc</title>
<ellipse fill="#ffffff" stroke="#000000" cx="483" cy="-1943.63" rx="27" ry="18"/>
</g>
<!-- start&#45;&gt;destroy_p_proc -->
<g id="edge4" class="edge">
<title>start&#45;&gt;destroy_p_proc</title>
<path fill="none" stroke="#555555" stroke-dasharray="1,5" d="M299.82,-2022.8C334.71,-2015.52 398.16,-1999.78 447,-1973.68 451.14,-1971.47 455.27,-1968.75 459.18,-1965.87"/>
<polygon fill="#555555" stroke="#555555" points="461.14,-1967.99 466.79,-1959.03 456.78,-1962.51 461.14,-1967.99"/>
</g>
<!-- ChocTech00 -->
<g id="node6" class="node">
<title>ChocTech00</title>
<ellipse fill="#ffffff" stroke="#000000" cx="27" cy="-1785.54" rx="27" ry="18"/>
</g>
<!-- critter_p_proc&#45;&gt;ChocTech00 -->
<g id="edge5" class="edge">
<title>critter_p_proc&#45;&gt;ChocTech00</title>
<path fill="none" stroke="#555555" stroke-dasharray="1,5" d="M43,-1925.33C39.92,-1898.61 33.97,-1847.02 30.26,-1814.82"/>
<polygon fill="#555555" stroke="#555555" points="33.63,-1814.45 29,-1804.92 26.67,-1815.25 33.63,-1814.45"/>
</g>
<!-- ChocTech01 -->
<g id="node7" class="node">
<title>ChocTech01</title>
<ellipse fill="#ffffff" stroke="#000000" cx="99" cy="-1785.54" rx="27" ry="18"/>
</g>
<!-- critter_p_proc&#45;&gt;ChocTech01 -->
<g id="edge6" class="edge">
<title>critter_p_proc&#45;&gt;ChocTech01</title>
<path fill="none" stroke="#555555" stroke-dasharray="1,5" d="M50.88,-1925.63C60.21,-1898.65 78.5,-1845.81 89.64,-1813.59"/>
<polygon fill="#555555" stroke="#555555" points="93.16,-1815.11 93.13,-1804.52 86.55,-1812.82 93.16,-1815.11"/>
</g>
<!-- talk_p_proc&#45;&gt;ChocTech01 -->
<g id="edge10" class="edge">
<title>talk_p_proc&#45;&gt;ChocTech01</title>
<path fill="none" stroke="#555555" stroke-dasharray="1,5" d="M396.77,-1928.24C390.58,-1922.8 382.93,-1917.08 375,-1913.58 276.28,-1869.97 219.48,-1943.74 135,-1876.58 115.99,-1861.46 106.97,-1834.78 102.72,-1814.38"/>
<polygon fill="#555555" stroke="#555555" points="106.03,-1814.02 100.82,-1804.8 99.14,-1815.26 106.03,-1814.02"/>
</g>
<!-- ChocTech10 -->
<g id="node8" class="node">
<title>ChocTech10</title>
<ellipse fill="#ffffff" stroke="#000000" cx="282" cy="-1785.54" rx="138.06" ry="91.04"/>
<text text-anchor="middle" x="282" y="-1832.61" font-family="Times,serif" font-size="14.00">You killed the Master.</text>
<text text-anchor="middle" x="282" y="-1815.36" font-family="Times,serif" font-size="14.00">The death of the Unity is</text>
<text text-anchor="middle" x="282" y="-1798.11" font-family="Times,serif" font-size="14.00">your fault.</text>
<text text-anchor="middle" x="282" y="-1780.86" font-family="Times,serif" font-size="14.00">You have caused the</text>
<text text-anchor="middle" x="282" y="-1763.61" font-family="Times,serif" font-size="14.00">death of the human race.</text>
<text text-anchor="middle" x="282" y="-1746.36" font-family="Times,serif" font-size="14.00">I hope you feel good</text>
<text text-anchor="middle" x="282" y="-1729.11" font-family="Times,serif" font-size="14.00">about yourself.</text>
</g>
<!-- talk_p_proc&#45;&gt;ChocTech10 -->
<g id="edge7" class="edge">
<title>talk_p_proc&#45;&gt;ChocTech10</title>
<path fill="none" stroke="#555555" stroke-dasharray="1,5" d="M398.4,-1927.38C387.71,-1914.44 371.43,-1894.75 354.41,-1874.16"/>
<polygon fill="#555555" stroke="#555555" points="356.68,-1872.4 347.61,-1866.92 351.28,-1876.86 356.68,-1872.4"/>
</g>
<!-- ChocTech09 -->
<g id="node9" class="node">
<title>ChocTech09</title>
<ellipse fill="#ffffff" stroke="#000000" cx="579" cy="-1785.54" rx="140.71" ry="78.84"/>
<text text-anchor="middle" x="579" y="-1823.99" font-family="Times,serif" font-size="14.00">You killed the Right Hand</text>
<text text-anchor="middle" x="579" y="-1806.74" font-family="Times,serif" font-size="14.00">of god. The Master will</text>
<text text-anchor="middle" x="579" y="-1789.49" font-family="Times,serif" font-size="14.00">be most upset.</text>
<text text-anchor="middle" x="579" y="-1772.24" font-family="Times,serif" font-size="14.00">Now, it has come time</text>
<text text-anchor="middle" x="579" y="-1754.99" font-family="Times,serif" font-size="14.00">for us to join the holy</text>
<text text-anchor="middle" x="579" y="-1737.74" font-family="Times,serif" font-size="14.00">flame!</text>
</g>
<!-- talk_p_proc&#45;&gt;ChocTech09 -->
<g id="edge8" class="edge">
<title>talk_p_proc&#45;&gt;ChocTech09</title>
<path fill="none" stroke="#555555" stroke-dasharray="1,5" d="M426.21,-1928.5C442.96,-1912.93 471.23,-1886.66 498.93,-1860.93"/>
<polygon fill="#555555" stroke="#555555" points="500.78,-1864.06 505.72,-1854.69 496.01,-1858.94 500.78,-1864.06"/>
</g>
<!-- ChocTech02 -->
<g id="node10" class="node">
<title>ChocTech02</title>
<ellipse fill="#ffffff" stroke="#000000" cx="900" cy="-1785.54" rx="137" ry="30.05"/>
<text text-anchor="middle" x="900" y="-1789.49" font-family="Times,serif" font-size="14.00">You have no right to be</text>
<text text-anchor="middle" x="900" y="-1772.24" font-family="Times,serif" font-size="14.00">here. What do you want?</text>
</g>
<!-- talk_p_proc&#45;&gt;ChocTech02 -->
<g id="edge9" class="edge">
<title>talk_p_proc&#45;&gt;ChocTech02</title>
<path fill="none" stroke="#555555" stroke-dasharray="1,5" d="M425.19,-1928.15C431.37,-1922.7 439.03,-1916.99 447,-1913.58 563.2,-1863.8 608.52,-1914.84 729,-1876.58 771.06,-1863.22 815.03,-1839.82 847.86,-1820.23"/>
<polygon fill="#555555" stroke="#555555" points="849.49,-1822.72 856.24,-1814.55 845.87,-1816.73 849.49,-1822.72"/>
</g>
<!-- combat -->
<g id="node13" class="node">
<title>combat</title>
<ellipse fill="#ffffff" stroke="#000000" cx="1098" cy="-18" rx="27" ry="18"/>
</g>
<!-- ChocTech10&#45;&gt;combat -->
<g id="edge28" class="edge">
<title>ChocTech10&#45;&gt;combat</title>
<path fill="none" stroke="#009933" d="M221.7,-1703.17C194.77,-1659.02 169,-1602.15 169,-1546.15 169,-1546.15 169,-1546.15 169,-102.05 169,-56.57 884.73,-26.95 1059.74,-20.38"/>
<polygon fill="#009933" stroke="#009933" points="1059.84,-23.84 1069.7,-19.97 1059.58,-16.85 1059.84,-23.84"/>
<text text-anchor="middle" x="264.25" y="-980.31" font-family="Times,serif" font-size="14.00" fill="#009933">You&#39;ll join him in a</text>
<text text-anchor="middle" x="264.25" y="-963.06" font-family="Times,serif" font-size="14.00" fill="#009933">moment. Pray to whatever</text>
<text text-anchor="middle" x="264.25" y="-945.81" font-family="Times,serif" font-size="14.00" fill="#009933">god took his place.</text>
</g>
<!-- ChocTech11 -->
<g id="node21" class="node">
<title>ChocTech11</title>
<ellipse fill="#ffffff" stroke="#000000" cx="323" cy="-1545.15" rx="126.4" ry="30.05"/>
<text text-anchor="middle" x="323" y="-1549.1" font-family="Times,serif" font-size="14.00">I go to join him now, in</text>
<text text-anchor="middle" x="323" y="-1531.85" font-family="Times,serif" font-size="14.00">the holy flames!</text>
</g>
<!-- ChocTech10&#45;&gt;ChocTech11 -->
<g id="edge26" class="edge">
<title>ChocTech10&#45;&gt;ChocTech11</title>
<path fill="none" stroke="#998c00" d="M265.78,-1694.8C265.1,-1677.12 266.19,-1658.83 270.5,-1642 275.7,-1621.68 286.2,-1601.04 296.45,-1584.15"/>
<polygon fill="#998c00" stroke="#998c00" points="299.73,-1586.5 302.08,-1576.17 293.8,-1582.78 299.73,-1586.5"/>
<text text-anchor="middle" x="292.75" y="-1654.57" font-family="Times,serif" font-size="14.00" fill="#998c00">Hnnn.</text>
</g>
<!-- ChocTech10&#45;&gt;ChocTech11 -->
<g id="edge27" class="edge">
<title>ChocTech10&#45;&gt;ChocTech11</title>
<path fill="none" stroke="#600099" d="M309.93,-1695.88C311.47,-1689.36 312.85,-1682.85 314,-1676.5 319.38,-1646.65 321.6,-1612.42 322.49,-1586.53"/>
<polygon fill="#600099" stroke="#600099" points="326.01,-1586.73 322.8,-1576.63 319.01,-1586.52 326.01,-1586.73"/>
<text text-anchor="middle" x="392.5" y="-1663.2" font-family="Times,serif" font-size="14.00" fill="#600099">As a matter of fact, I</text>
<text text-anchor="middle" x="392.5" y="-1645.95" font-family="Times,serif" font-size="14.00" fill="#600099">do.</text>
</g>
<!-- ChocTech03 -->
<g id="node11" class="node">
<title>ChocTech03</title>
<ellipse fill="#ffffff" stroke="#000000" cx="608" cy="-1545.15" rx="140.18" ry="66.64"/>
<text text-anchor="middle" x="608" y="-1574.98" font-family="Times,serif" font-size="14.00">You are nearly a Nightkin</text>
<text text-anchor="middle" x="608" y="-1557.73" font-family="Times,serif" font-size="14.00">now. I hope the dipping</text>
<text text-anchor="middle" x="608" y="-1540.48" font-family="Times,serif" font-size="14.00">will not damage</text>
<text text-anchor="middle" x="608" y="-1523.23" font-family="Times,serif" font-size="14.00">your intelligence</text>
<text text-anchor="middle" x="608" y="-1505.98" font-family="Times,serif" font-size="14.00">further.</text>
</g>
<!-- ChocTech02&#45;&gt;ChocTech03 -->
<g id="edge11" class="edge">
<title>ChocTech02&#45;&gt;ChocTech03</title>
<path fill="none" stroke="#990019" d="M865.07,-1756.02C821.21,-1720.21 744.66,-1657.72 686.47,-1610.21"/>
<polygon fill="#990019" stroke="#990019" points="688.98,-1606.93 679.02,-1603.32 684.56,-1612.35 688.98,-1606.93"/>
<text text-anchor="middle" x="779.88" y="-1654.57" font-family="Times,serif" font-size="14.00" fill="#990019">Hne.</text>
</g>
<!-- ChocTech04 -->
<g id="node12" class="node">
<title>ChocTech04</title>
<ellipse fill="#ffffff" stroke="#000000" cx="900" cy="-1545.15" rx="133.82" ry="78.84"/>
<text text-anchor="middle" x="900" y="-1583.6" font-family="Times,serif" font-size="14.00">I am part of the Unity. I</text>
<text text-anchor="middle" x="900" y="-1566.35" font-family="Times,serif" font-size="14.00">am a glorious servant of</text>
<text text-anchor="middle" x="900" y="-1549.1" font-family="Times,serif" font-size="14.00">our Master.</text>
<text text-anchor="middle" x="900" y="-1531.85" font-family="Times,serif" font-size="14.00">I will be the one who</text>
<text text-anchor="middle" x="900" y="-1514.6" font-family="Times,serif" font-size="14.00">sees you become part of</text>
<text text-anchor="middle" x="900" y="-1497.35" font-family="Times,serif" font-size="14.00">the Unity.</text>
</g>
<!-- ChocTech02&#45;&gt;ChocTech04 -->
<g id="edge12" class="edge">
<title>ChocTech02&#45;&gt;ChocTech04</title>
<path fill="none" stroke="#004699" d="M900,-1755.31C900,-1725.46 900,-1677.61 900,-1635.21"/>
<polygon fill="#004699" stroke="#004699" points="903.5,-1635.27 900,-1625.27 896.5,-1635.27 903.5,-1635.27"/>
<text text-anchor="middle" x="948.38" y="-1654.57" font-family="Times,serif" font-size="14.00" fill="#004699">Who are you?</text>
</g>
<!-- ChocTech02&#45;&gt;combat -->
<g id="edge13" class="edge">
<title>ChocTech02&#45;&gt;combat</title>
<path fill="none" stroke="#729900" d="M936.36,-1756.09C984.12,-1715.23 1062,-1634.97 1062,-1546.15 1062,-1546.15 1062,-1546.15 1062,-102.05 1062,-81.23 1071.64,-59.71 1080.95,-43.8"/>
<polygon fill="#729900" stroke="#729900" points="1084.31,-46.01 1086.61,-35.67 1078.36,-42.32 1084.31,-46.01"/>
<text text-anchor="middle" x="1141.88" y="-971.69" font-family="Times,serif" font-size="14.00" fill="#729900">You sick dogs! I tire of</text>
<text text-anchor="middle" x="1141.88" y="-954.44" font-family="Times,serif" font-size="14.00" fill="#729900">your life!</text>
</g>
<!-- ChocTech02a -->
<g id="node14" class="node">
<title>ChocTech02a</title>
<ellipse fill="#ffffff" stroke="#000000" cx="1285" cy="-1545.15" rx="27" ry="18"/>
</g>
<!-- ChocTech02&#45;&gt;ChocTech02a -->
<g id="edge14" class="edge">
<title>ChocTech02&#45;&gt;ChocTech02a</title>
<path fill="none" stroke="#930099" d="M945.27,-1756.87C980.85,-1735.09 1031.64,-1703.95 1076,-1676.5 1140.67,-1636.48 1216.35,-1589.16 1256.53,-1564"/>
<polygon fill="#930099" stroke="#930099" points="1258.11,-1566.51 1264.72,-1558.24 1254.39,-1560.58 1258.11,-1566.51"/>
<text text-anchor="middle" x="1194.5" y="-1654.57" font-family="Times,serif" font-size="14.00" fill="#930099">What is this place?</text>
</g>
<!-- ChocTech06 -->
<g id="node15" class="node">
<title>ChocTech06</title>
<ellipse fill="#ffffff" stroke="#000000" cx="1285" cy="-1265.09" rx="143.9" ry="164.23"/>
<text text-anchor="middle" x="1285" y="-1363.91" font-family="Times,serif" font-size="14.00">This is the birthplace of</text>
<text text-anchor="middle" x="1285" y="-1346.66" font-family="Times,serif" font-size="14.00">the superior race! This</text>
<text text-anchor="middle" x="1285" y="-1329.41" font-family="Times,serif" font-size="14.00">is the womb from</text>
<text text-anchor="middle" x="1285" y="-1312.16" font-family="Times,serif" font-size="14.00">which the armies of god</text>
<text text-anchor="middle" x="1285" y="-1294.91" font-family="Times,serif" font-size="14.00">will strike from! From</text>
<text text-anchor="middle" x="1285" y="-1277.66" font-family="Times,serif" font-size="14.00">the flesh of the weak</text>
<text text-anchor="middle" x="1285" y="-1260.41" font-family="Times,serif" font-size="14.00">comes</text>
<text text-anchor="middle" x="1285" y="-1243.16" font-family="Times,serif" font-size="14.00">the next race of man.</text>
<text text-anchor="middle" x="1285" y="-1225.91" font-family="Times,serif" font-size="14.00">Those who survive the dip</text>
<text text-anchor="middle" x="1285" y="-1208.66" font-family="Times,serif" font-size="14.00">will become the soldiers</text>
<text text-anchor="middle" x="1285" y="-1191.41" font-family="Times,serif" font-size="14.00">of god,</text>
<text text-anchor="middle" x="1285" y="-1174.16" font-family="Times,serif" font-size="14.00">and with their hands we</text>
<text text-anchor="middle" x="1285" y="-1156.91" font-family="Times,serif" font-size="14.00">shall shape the Unity.</text>
</g>
<!-- ChocTech02a&#45;&gt;ChocTech06 -->
<g id="edge15" class="edge">
<title>ChocTech02a&#45;&gt;ChocTech06</title>
<path fill="none" stroke="#555555" stroke-dasharray="1,5" d="M1285,-1526.76C1285,-1507.88 1285,-1475.63 1285,-1440.12"/>
<polygon fill="#555555" stroke="#555555" points="1288.5,-1440.52 1285,-1430.52 1281.5,-1440.52 1288.5,-1440.52"/>
</g>
<!-- ChocTech05 -->
<g id="node16" class="node">
<title>ChocTech05</title>
<ellipse fill="#ffffff" stroke="#000000" cx="1379" cy="-103.05" rx="119.5" ry="30.05"/>
<text text-anchor="middle" x="1379" y="-107" font-family="Times,serif" font-size="14.00">You will find out soon</text>
<text text-anchor="middle" x="1379" y="-89.75" font-family="Times,serif" font-size="14.00">enough.</text>
</g>
<!-- ChocTech02a&#45;&gt;ChocTech05 -->
<g id="edge16" class="edge">
<title>ChocTech02a&#45;&gt;ChocTech05</title>
<path fill="none" stroke="#555555" stroke-dasharray="1,5" d="M1311.01,-1539.73C1437.37,-1517.49 1981,-1413.28 1981,-1266.09 1981,-1266.09 1981,-1266.09 1981,-305.84 1981,-259.62 1992.23,-238.56 1962,-203.6 1904.4,-137 1662.31,-114.96 1508.78,-107.66"/>
<polygon fill="#555555" stroke="#555555" points="1509.03,-104.12 1498.88,-107.16 1508.71,-111.12 1509.03,-104.12"/>
</g>
<!-- ChocTech06&#45;&gt;combat -->
<g id="edge18" class="edge">
<title>ChocTech06&#45;&gt;combat</title>
<path fill="none" stroke="#009966" d="M1254.03,-1104.22C1224.13,-946.07 1178.98,-696.9 1148.25,-479.83 1125.12,-316.41 1106.8,-119.08 1100.43,-47.04"/>
<polygon fill="#009966" stroke="#009966" points="1103.84,-46.86 1099.48,-37.21 1096.86,-47.47 1103.84,-46.86"/>
<text text-anchor="middle" x="1239.88" y="-457.9" font-family="Times,serif" font-size="14.00" fill="#009966">You are mad! You are just</text>
<text text-anchor="middle" x="1239.88" y="-440.65" font-family="Times,serif" font-size="14.00" fill="#009966">plain crazy! Die!</text>
</g>
<!-- ChocTech06a -->
<g id="node17" class="node">
<title>ChocTech06a</title>
<ellipse fill="#ffffff" stroke="#000000" cx="1333" cy="-1029.61" rx="27" ry="18"/>
</g>
<!-- ChocTech06&#45;&gt;ChocTech06a -->
<g id="edge19" class="edge">
<title>ChocTech06&#45;&gt;ChocTech06a</title>
<path fill="none" stroke="#993a00" d="M1317.75,-1104.81C1321.37,-1087.19 1324.68,-1071.07 1327.29,-1058.39"/>
<polygon fill="#993a00" stroke="#993a00" points="1330.89,-1059.27 1329.47,-1048.77 1324.03,-1057.86 1330.89,-1059.27"/>
<text text-anchor="middle" x="1390" y="-1069.56" font-family="Times,serif" font-size="14.00" fill="#993a00">How does it work?</text>
</g>
<!-- ChocTech05&#45;&gt;combat -->
<g id="edge17" class="edge">
<title>ChocTech05&#45;&gt;combat</title>
<path fill="none" stroke="#555555" stroke-dasharray="1,5" d="M1302.96,-79.58C1247.48,-63.18 1174.9,-41.73 1132.66,-29.24"/>
<polygon fill="#555555" stroke="#555555" points="1133.93,-25.68 1123.35,-26.2 1131.95,-32.39 1133.93,-25.68"/>
</g>
<!-- ChocTech06a&#45;&gt;ChocTech05 -->
<g id="edge21" class="edge">
<title>ChocTech06a&#45;&gt;ChocTech05</title>
<path fill="none" stroke="#555555" stroke-dasharray="1,5" d="M1332.32,-1011.17C1329.05,-920.53 1317.15,-494.35 1367,-151.1 1367.34,-148.77 1367.75,-146.37 1368.21,-143.97"/>
<polygon fill="#555555" stroke="#555555" points="1371.78,-144.99 1370.48,-134.48 1364.94,-143.51 1371.78,-144.99"/>
</g>
<!-- ChocTech07 -->
<g id="node18" class="node">
<title>ChocTech07</title>
<ellipse fill="#ffffff" stroke="#000000" cx="1552" cy="-710.85" rx="137.53" ry="213.02"/>
<text text-anchor="middle" x="1552" y="-844.17" font-family="Times,serif" font-size="14.00">You will be bound in the</text>
<text text-anchor="middle" x="1552" y="-826.92" font-family="Times,serif" font-size="14.00">holy restraints. We will</text>
<text text-anchor="middle" x="1552" y="-809.67" font-family="Times,serif" font-size="14.00">lower you into a</text>
<text text-anchor="middle" x="1552" y="-792.42" font-family="Times,serif" font-size="14.00">vat of the blood of god,</text>
<text text-anchor="middle" x="1552" y="-775.17" font-family="Times,serif" font-size="14.00">the holiest of holies.</text>
<text text-anchor="middle" x="1552" y="-757.92" font-family="Times,serif" font-size="14.00">The FEV will shape and</text>
<text text-anchor="middle" x="1552" y="-740.67" font-family="Times,serif" font-size="14.00">change</text>
<text text-anchor="middle" x="1552" y="-723.42" font-family="Times,serif" font-size="14.00">you. You will be strong.</text>
<text text-anchor="middle" x="1552" y="-706.17" font-family="Times,serif" font-size="14.00">You become a Nightkin if</text>
<text text-anchor="middle" x="1552" y="-688.92" font-family="Times,serif" font-size="14.00">you are fortunate and</text>
<text text-anchor="middle" x="1552" y="-671.67" font-family="Times,serif" font-size="14.00">worthy of the honor,</text>
<text text-anchor="middle" x="1552" y="-654.42" font-family="Times,serif" font-size="14.00">else you will die the</text>
<text text-anchor="middle" x="1552" y="-637.17" font-family="Times,serif" font-size="14.00">most painful death</text>
<text text-anchor="middle" x="1552" y="-619.92" font-family="Times,serif" font-size="14.00">possible. Soon, I</text>
<text text-anchor="middle" x="1552" y="-602.67" font-family="Times,serif" font-size="14.00">will be honored. I will</text>
<text text-anchor="middle" x="1552" y="-585.42" font-family="Times,serif" font-size="14.00">become strong. Then I</text>
<text text-anchor="middle" x="1552" y="-568.17" font-family="Times,serif" font-size="14.00">will fear no man.</text>
</g>
<!-- ChocTech06a&#45;&gt;ChocTech07 -->
<g id="edge20" class="edge">
<title>ChocTech06a&#45;&gt;ChocTech07</title>
<path fill="none" stroke="#555555" stroke-dasharray="1,5" d="M1343.86,-1012.9C1362.99,-985.24 1404.55,-925.12 1445.54,-865.83"/>
<polygon fill="#555555" stroke="#555555" points="1448.77,-868.31 1451.58,-858.09 1443.01,-864.33 1448.77,-868.31"/>
</g>
<!-- ChocTech07&#45;&gt;ChocTech05 -->
<g id="edge24" class="edge">
<title>ChocTech07&#45;&gt;ChocTech05</title>
<path fill="none" stroke="#99004c" d="M1453.41,-561.66C1427.38,-515.07 1402.64,-462.14 1388.5,-410.08 1363.37,-317.55 1368.94,-203.49 1374.42,-144.17"/>
<polygon fill="#99004c" stroke="#99004c" points="1377.98,-144.69 1375.47,-134.4 1371.01,-144.01 1377.98,-144.69"/>
<text text-anchor="middle" x="1484.75" y="-310.79" font-family="Times,serif" font-size="14.00" fill="#99004c">Where did you get the FEV</text>
<text text-anchor="middle" x="1484.75" y="-293.54" font-family="Times,serif" font-size="14.00" fill="#99004c">from?</text>
</g>
<!-- ChocTechend -->
<g id="node19" class="node">
<title>ChocTechend</title>
<ellipse fill="#ffffff" stroke="#000000" cx="1618" cy="-306.84" rx="27" ry="18"/>
</g>
<!-- ChocTech07&#45;&gt;ChocTechend -->
<g id="edge22" class="edge">
<title>ChocTech07&#45;&gt;ChocTechend</title>
<path fill="none" stroke="#0d0099" d="M1585.82,-503.84C1596.74,-437.32 1607.54,-371.53 1613.44,-335.64"/>
<polygon fill="#0d0099" stroke="#0d0099" points="1617,-336.51 1615.17,-326.07 1610.1,-335.38 1617,-336.51"/>
<text text-anchor="middle" x="1679.62" y="-466.53" font-family="Times,serif" font-size="14.00" fill="#0d0099">You&#39;ve been around the</text>
<text text-anchor="middle" x="1679.62" y="-449.28" font-family="Times,serif" font-size="14.00" fill="#0d0099">Nightkin for far too</text>
<text text-anchor="middle" x="1679.62" y="-432.03" font-family="Times,serif" font-size="14.00" fill="#0d0099">long. Goodbye.</text>
</g>
<!-- ChocTech08 -->
<g id="node20" class="node">
<title>ChocTech08</title>
<ellipse fill="#ffffff" stroke="#000000" cx="1808" cy="-306.84" rx="145.49" ry="103.24"/>
<text text-anchor="middle" x="1808" y="-362.54" font-family="Times,serif" font-size="14.00">You will only leave here</text>
<text text-anchor="middle" x="1808" y="-345.29" font-family="Times,serif" font-size="14.00">as part of the Unity, or</text>
<text text-anchor="middle" x="1808" y="-328.04" font-family="Times,serif" font-size="14.00">a lost soul in Hell!</text>
<text text-anchor="middle" x="1808" y="-310.79" font-family="Times,serif" font-size="14.00">[pause] Besides, I sit</text>
<text text-anchor="middle" x="1808" y="-293.54" font-family="Times,serif" font-size="14.00">down here with a bunch of</text>
<text text-anchor="middle" x="1808" y="-276.29" font-family="Times,serif" font-size="14.00">converts. It felt good to</text>
<text text-anchor="middle" x="1808" y="-259.04" font-family="Times,serif" font-size="14.00">get</text>
<text text-anchor="middle" x="1808" y="-241.79" font-family="Times,serif" font-size="14.00"> this off my chest.</text>
</g>
<!-- ChocTech07&#45;&gt;ChocTech08 -->
<g id="edge23" class="edge">
<title>ChocTech07&#45;&gt;ChocTech08</title>
<path fill="none" stroke="#209900" d="M1671.56,-605.05C1706.87,-568.59 1742.56,-525.34 1767,-479.83 1776.88,-461.44 1784.4,-440.68 1790.12,-420.11"/>
<polygon fill="#209900" stroke="#209900" points="1793.7,-421.28 1792.87,-410.71 1786.93,-419.49 1793.7,-421.28"/>
<text text-anchor="middle" x="1871.75" y="-457.9" font-family="Times,serif" font-size="14.00" fill="#209900">Just why are you telling</text>
<text text-anchor="middle" x="1871.75" y="-440.65" font-family="Times,serif" font-size="14.00" fill="#209900">me this?</text>
</g>
<!-- ChocTech08&#45;&gt;ChocTech05 -->
<g id="edge25" class="edge">
<title>ChocTech08&#45;&gt;ChocTech05</title>
<path fill="none" stroke="#007999" d="M1705.65,-233.06C1688.79,-222.49 1671.2,-212.27 1654,-203.6 1593.51,-173.13 1521.39,-147.38 1466.18,-129.71"/>
<polygon fill="#007999" stroke="#007999" points="1467.32,-126.08 1456.73,-126.39 1465.2,-132.75 1467.32,-126.08"/>
<text text-anchor="middle" x="1706.75" y="-172.3" font-family="Times,serif" font-size="14.00" fill="#007999">Where did you get the FEV</text>
<text text-anchor="middle" x="1706.75" y="-155.05" font-family="Times,serif" font-size="14.00" fill="#007999">from?</text>
</g>
<!-- get_reaction -->
<g id="node22" class="node">
<title>get_reaction</title>
<ellipse fill="#ffffff" stroke="#000000" cx="508" cy="-2028.68" rx="27" ry="18"/>
</g>
<!-- ReactToLevel -->
<g id="node23" class="node">
<title>ReactToLevel</title>
<ellipse fill="#ffffff" stroke="#000000" cx="652" cy="-1943.63" rx="27" ry="18"/>
</g>
<!-- get_reaction&#45;&gt;ReactToLevel -->
<g id="edge29" class="edge">
<title>get_reaction&#45;&gt;ReactToLevel</title>
<path fill="none" stroke="#555555" stroke-dasharray="1,5" d="M528.02,-2016.13C552.63,-2001.94 594.59,-1977.74 622.8,-1961.47"/>
<polygon fill="#555555" stroke="#555555" points="624.23,-1964.11 631.15,-1956.08 620.74,-1958.04 624.23,-1964.11"/>
</g>
<!-- LevelToReact -->
<g id="node24" class="node">
<title>LevelToReact</title>
<ellipse fill="#ffffff" stroke="#000000" cx="904" cy="-1943.63" rx="27" ry="18"/>
</g>
<!-- UpReact -->
<g id="node25" class="node">
<title>UpReact</title>
<ellipse fill="#ffffff" stroke="#000000" cx="580" cy="-2028.68" rx="27" ry="18"/>
</g>
<!-- UpReact&#45;&gt;ReactToLevel -->
<g id="edge30" class="edge">
<title>UpReact&#45;&gt;ReactToLevel</title>
<path fill="none" stroke="#555555" stroke-dasharray="1,5" d="M592.87,-2012.83C603.76,-2000.27 619.54,-1982.07 632.06,-1967.63"/>
<polygon fill="#555555" stroke="#555555" points="635.09,-1970.48 639,-1960.63 629.8,-1965.89 635.09,-1970.48"/>
</g>
<!-- DownReact -->
<g id="node26" class="node">
<title>DownReact</title>
<ellipse fill="#ffffff" stroke="#000000" cx="652" cy="-2028.68" rx="27" ry="18"/>
</g>
<!-- DownReact&#45;&gt;ReactToLevel -->
<g id="edge31" class="edge">
<title>DownReact&#45;&gt;ReactToLevel</title>
<path fill="none" stroke="#555555" stroke-dasharray="1,5" d="M652,-2010.47C652,-1999.63 652,-1985.38 652,-1972.91"/>
<polygon fill="#555555" stroke="#555555" points="655.5,-1973.1 652,-1963.1 648.5,-1973.1 655.5,-1973.1"/>
</g>
<!-- BottomReact -->
<g id="node27" class="node">
<title>BottomReact</title>
<ellipse fill="#ffffff" stroke="#000000" cx="1012" cy="-2028.68" rx="27" ry="18"/>
</g>
<!-- TopReact -->
<g id="node28" class="node">
<title>TopReact</title>
<ellipse fill="#ffffff" stroke="#000000" cx="1084" cy="-2028.68" rx="27" ry="18"/>
</g>
<!-- BigUpReact -->
<g id="node29" class="node">
<title>BigUpReact</title>
<ellipse fill="#ffffff" stroke="#000000" cx="724" cy="-2028.68" rx="27" ry="18"/>
</g>
<!-- BigUpReact&#45;&gt;ReactToLevel -->
<g id="edge32" class="edge">
<title>BigUpReact&#45;&gt;ReactToLevel</title>
<path fill="none" stroke="#555555" stroke-dasharray="1,5" d="M711.13,-2012.83C700.24,-2000.27 684.46,-1982.07 671.94,-1967.63"/>
<polygon fill="#555555" stroke="#555555" points="674.2,-1965.89 665,-1960.63 668.91,-1970.48 674.2,-1965.89"/>
</g>
<!-- BigDownReact -->
<g id="node30" class="node">
<title>BigDownReact</title>
<ellipse fill="#ffffff" stroke="#000000" cx="796" cy="-2028.68" rx="27" ry="18"/>
</g>
<!-- BigDownReact&#45;&gt;ReactToLevel -->
<g id="edge33" class="edge">
<title>BigDownReact&#45;&gt;ReactToLevel</title>
<path fill="none" stroke="#555555" stroke-dasharray="1,5" d="M775.98,-2016.13C751.37,-2001.94 709.41,-1977.74 681.2,-1961.47"/>
<polygon fill="#555555" stroke="#555555" points="683.26,-1958.04 672.85,-1956.08 679.77,-1964.11 683.26,-1958.04"/>
</g>
<!-- UpReactLevel -->
<g id="node31" class="node">
<title>UpReactLevel</title>
<ellipse fill="#ffffff" stroke="#000000" cx="868" cy="-2028.68" rx="27" ry="18"/>
</g>
<!-- UpReactLevel&#45;&gt;LevelToReact -->
<g id="edge34" class="edge">
<title>UpReactLevel&#45;&gt;LevelToReact</title>
<path fill="none" stroke="#555555" stroke-dasharray="1,5" d="M875.29,-2010.87C880.21,-1999.5 886.83,-1984.25 892.46,-1971.24"/>
<polygon fill="#555555" stroke="#555555" points="895.96,-1972.98 896.73,-1962.41 889.54,-1970.19 895.96,-1972.98"/>
</g>
<!-- DownReactLevel -->
<g id="node32" class="node">
<title>DownReactLevel</title>
<ellipse fill="#ffffff" stroke="#000000" cx="940" cy="-2028.68" rx="27" ry="18"/>
</g>
<!-- DownReactLevel&#45;&gt;LevelToReact -->
<g id="edge35" class="edge">
<title>DownReactLevel&#45;&gt;LevelToReact</title>
<path fill="none" stroke="#555555" stroke-dasharray="1,5" d="M932.71,-2010.87C927.79,-1999.5 921.17,-1984.25 915.54,-1971.24"/>
<polygon fill="#555555" stroke="#555555" points="918.46,-1970.19 911.27,-1962.41 912.04,-1972.98 918.46,-1970.19"/>
</g>
<!-- Goodbyes -->
<g id="node33" class="node">
<title>Goodbyes</title>
<ellipse fill="#ffffff" stroke="#000000" cx="1156" cy="-2028.68" rx="27" ry="18"/>
</g>
</g>
</svg>
