<?xml version="1.0" encoding="UTF-8" standalone="no"?>
<!DOCTYPE svg PUBLIC "-//W3C//DTD SVG 1.1//EN"
 "http://www.w3.org/Graphics/SVG/1.1/DTD/svg11.dtd">
<!-- Generated by graphviz version 8.0.5 (0)
 -->
<!-- Title: CINDY Pages: 1 -->
<svg width="1869pt" height="1869pt"
 viewBox="0.00 0.00 1869.00 1868.54" xmlns="http://www.w3.org/2000/svg" xmlns:xlink="http://www.w3.org/1999/xlink">
<g id="graph0" class="graph" transform="scale(1 1) rotate(0) translate(4 1864.54)">
<title>CINDY</title>
<polygon fill="white" stroke="none" points="-4,4 -4,-1864.54 1865,-1864.54 1865,4 -4,4"/>
<!-- start -->
<g id="node1" class="node">
<title>start</title>
<ellipse fill="#ffffff" stroke="#000000" cx="485" cy="-1842.54" rx="27" ry="18"/>
</g>
<!-- critter_p_proc -->
<g id="node2" class="node">
<title>critter_p_proc</title>
<ellipse fill="#ffffff" stroke="#000000" cx="99" cy="-1623.31" rx="27" ry="18"/>
</g>
<!-- start&#45;&gt;critter_p_proc -->
<g id="edge1" class="edge">
<title>start&#45;&gt;critter_p_proc</title>
<path fill="none" stroke="#555555" stroke-dasharray="1,5" d="M457.82,-1841.24C383.79,-1839.86 181.05,-1832.01 135,-1787.54 98.46,-1752.24 95.06,-1688.89 96.56,-1652.36"/>
<polygon fill="#555555" stroke="#555555" points="100.11,-1652.7 97.19,-1642.51 93.12,-1652.3 100.11,-1652.7"/>
</g>
<!-- damage_p_proc -->
<g id="node3" class="node">
<title>damage_p_proc</title>
<ellipse fill="#ffffff" stroke="#000000" cx="171" cy="-1623.31" rx="27" ry="18"/>
</g>
<!-- start&#45;&gt;damage_p_proc -->
<g id="edge2" class="edge">
<title>start&#45;&gt;damage_p_proc</title>
<path fill="none" stroke="#555555" stroke-dasharray="1,5" d="M457.86,-1839.97C395.09,-1835.78 242.55,-1822.2 207,-1787.54 170.72,-1752.16 167.18,-1689.11 168.6,-1652.59"/>
<polygon fill="#555555" stroke="#555555" points="172.14,-1652.91 169.2,-1642.74 165.16,-1652.53 172.14,-1652.91"/>
</g>
<!-- description_p_proc -->
<g id="node4" class="node">
<title>description_p_proc</title>
<ellipse fill="#ffffff" stroke="#000000" cx="296" cy="-1623.31" rx="79.62" ry="18"/>
<text text-anchor="middle" x="296" y="-1618.64" font-family="Times,serif" font-size="14.00">She is crying.</text>
</g>
<!-- start&#45;&gt;description_p_proc -->
<g id="edge3" class="edge">
<title>start&#45;&gt;description_p_proc</title>
<path fill="none" stroke="#555555" stroke-dasharray="1,5" d="M461.55,-1833.36C439.59,-1824.75 406.95,-1809.4 385,-1787.54 345.21,-1747.9 318.39,-1686.74 305.3,-1651.62"/>
<polygon fill="#555555" stroke="#555555" points="308.37,-1650.83 301.67,-1642.61 301.79,-1653.21 308.37,-1650.83"/>
</g>
<!-- destroy_p_proc -->
<g id="node5" class="node">
<title>destroy_p_proc</title>
<ellipse fill="#ffffff" stroke="#000000" cx="421" cy="-1623.31" rx="27" ry="18"/>
</g>
<!-- start&#45;&gt;destroy_p_proc -->
<g id="edge4" class="edge">
<title>start&#45;&gt;destroy_p_proc</title>
<path fill="none" stroke="#555555" stroke-dasharray="1,5" d="M475.27,-1825.5C469.27,-1815.01 461.82,-1800.84 457,-1787.54 440.28,-1741.41 429.94,-1685.02 424.85,-1652.04"/>
<polygon fill="#555555" stroke="#555555" points="428.2,-1651.78 423.27,-1642.4 421.28,-1652.81 428.2,-1651.78"/>
</g>
<!-- look_at_p_proc -->
<g id="node6" class="node">
<title>look_at_p_proc</title>
<ellipse fill="#ffffff" stroke="#000000" cx="549" cy="-1623.31" rx="82.77" ry="18"/>
<text text-anchor="middle" x="549" y="-1618.64" font-family="Times,serif" font-size="14.00">You see Cindy.</text>
</g>
<!-- start&#45;&gt;look_at_p_proc -->
<g id="edge5" class="edge">
<title>start&#45;&gt;look_at_p_proc</title>
<path fill="none" stroke="#555555" stroke-dasharray="1,5" d="M490.02,-1824.49C501.05,-1787.07 527.45,-1697.44 540.87,-1651.89"/>
<polygon fill="#555555" stroke="#555555" points="544.44,-1653.16 543.91,-1642.58 537.73,-1651.18 544.44,-1653.16"/>
</g>
<!-- map_enter_p_proc -->
<g id="node7" class="node">
<title>map_enter_p_proc</title>
<ellipse fill="#ffffff" stroke="#000000" cx="677" cy="-1623.31" rx="27" ry="18"/>
</g>
<!-- start&#45;&gt;map_enter_p_proc -->
<g id="edge6" class="edge">
<title>start&#45;&gt;map_enter_p_proc</title>
<path fill="none" stroke="#555555" stroke-dasharray="1,5" d="M511.95,-1839.99C547,-1836.48 607.65,-1825 641,-1787.54 674.51,-1749.88 679.12,-1688.18 678.62,-1652.4"/>
<polygon fill="#555555" stroke="#555555" points="682.1,-1652.65 678.31,-1642.75 675.1,-1652.85 682.1,-1652.65"/>
</g>
<!-- pickup_p_proc -->
<g id="node8" class="node">
<title>pickup_p_proc</title>
<ellipse fill="#ffffff" stroke="#000000" cx="853" cy="-1623.31" rx="130.64" ry="30.05"/>
<text text-anchor="middle" x="853" y="-1627.26" font-family="Times,serif" font-size="14.00">You&#39;re the water thief?!</text>
<text text-anchor="middle" x="853" y="-1610.01" font-family="Times,serif" font-size="14.00">How could you?</text>
</g>
<!-- start&#45;&gt;pickup_p_proc -->
<g id="edge7" class="edge">
<title>start&#45;&gt;pickup_p_proc</title>
<path fill="none" stroke="#555555" stroke-dasharray="1,5" d="M511.98,-1840.51C556.85,-1837.69 648.28,-1827.12 713,-1787.54 764.09,-1756.29 806.12,-1700.12 830.39,-1662.52"/>
<polygon fill="#555555" stroke="#555555" points="833.77,-1664.71 836.17,-1654.39 827.86,-1660.97 833.77,-1664.71"/>
</g>
<!-- talk_p_proc -->
<g id="node9" class="node">
<title>talk_p_proc</title>
<ellipse fill="#ffffff" stroke="#000000" cx="1143" cy="-1623.31" rx="141.77" ry="164.23"/>
<text text-anchor="middle" x="1143" y="-1722.14" font-family="Times,serif" font-size="14.00">How could you betray us?</text>
<text text-anchor="middle" x="1143" y="-1704.89" font-family="Times,serif" font-size="14.00">Now everyone here will</text>
<text text-anchor="middle" x="1143" y="-1687.64" font-family="Times,serif" font-size="14.00">die! But you don&#39;t care,</text>
<text text-anchor="middle" x="1143" y="-1670.39" font-family="Times,serif" font-size="14.00"> do you?</text>
<text text-anchor="middle" x="1143" y="-1653.14" font-family="Times,serif" font-size="14.00">&#45;&#45;&#45;</text>
<text text-anchor="middle" x="1143" y="-1635.89" font-family="Times,serif" font-size="14.00">Thank you so much for</text>
<text text-anchor="middle" x="1143" y="-1618.64" font-family="Times,serif" font-size="14.00">saving us all.</text>
<text text-anchor="middle" x="1143" y="-1601.39" font-family="Times,serif" font-size="14.00">&#45;&#45;&#45;</text>
<text text-anchor="middle" x="1143" y="-1584.14" font-family="Times,serif" font-size="14.00">You did a good job</text>
<text text-anchor="middle" x="1143" y="-1566.89" font-family="Times,serif" font-size="14.00">catching the thief.</text>
<text text-anchor="middle" x="1143" y="-1549.64" font-family="Times,serif" font-size="14.00">Please hurry and find the</text>
<text text-anchor="middle" x="1143" y="-1532.39" font-family="Times,serif" font-size="14.00">water</text>
<text text-anchor="middle" x="1143" y="-1515.14" font-family="Times,serif" font-size="14.00"> chip.</text>
</g>
<!-- start&#45;&gt;talk_p_proc -->
<g id="edge8" class="edge">
<title>start&#45;&gt;talk_p_proc</title>
<path fill="none" stroke="#555555" stroke-dasharray="1,5" d="M512.39,-1841.14C605.32,-1839.43 907.56,-1830.59 993,-1787.54 1010.41,-1778.76 1026.81,-1767.07 1041.91,-1753.95"/>
<polygon fill="#555555" stroke="#555555" points="1043.58,-1757.25 1048.69,-1747.97 1038.91,-1752.04 1043.58,-1757.25"/>
</g>
<!-- flee_dude -->
<g id="node10" class="node">
<title>flee_dude</title>
<ellipse fill="#ffffff" stroke="#000000" cx="27" cy="-1367.64" rx="27" ry="18"/>
</g>
<!-- critter_p_proc&#45;&gt;flee_dude -->
<g id="edge9" class="edge">
<title>critter_p_proc&#45;&gt;flee_dude</title>
<path fill="none" stroke="#555555" stroke-dasharray="1,5" d="M94.16,-1605.27C81.94,-1562.22 49.74,-1448.76 34.81,-1396.15"/>
<polygon fill="#555555" stroke="#555555" points="37.91,-1395.27 31.81,-1386.6 31.18,-1397.18 37.91,-1395.27"/>
</g>
<!-- get_rations -->
<g id="node11" class="node">
<title>get_rations</title>
<ellipse fill="#ffffff" stroke="#000000" cx="99" cy="-1367.64" rx="27" ry="18"/>
</g>
<!-- critter_p_proc&#45;&gt;get_rations -->
<g id="edge10" class="edge">
<title>critter_p_proc&#45;&gt;get_rations</title>
<path fill="none" stroke="#555555" stroke-dasharray="1,5" d="M99,-1604.87C99,-1561.69 99,-1449.44 99,-1396.74"/>
<polygon fill="#555555" stroke="#555555" points="102.5,-1396.86 99,-1386.86 95.5,-1396.86 102.5,-1396.86"/>
</g>
<!-- sleeping -->
<g id="node12" class="node">
<title>sleeping</title>
<ellipse fill="#ffffff" stroke="#000000" cx="171" cy="-1367.64" rx="27" ry="18"/>
</g>
<!-- critter_p_proc&#45;&gt;sleeping -->
<g id="edge11" class="edge">
<title>critter_p_proc&#45;&gt;sleeping</title>
<path fill="none" stroke="#555555" stroke-dasharray="1,5" d="M101.88,-1604.92C107.08,-1574.82 118.99,-1511.24 135,-1459.08 141.73,-1437.17 151.43,-1413.09 159.07,-1395.29"/>
<polygon fill="#555555" stroke="#555555" points="162.62,-1396.91 163.4,-1386.35 156.2,-1394.12 162.62,-1396.91"/>
</g>
<!-- Cindy01 -->
<g id="node13" class="node">
<title>Cindy01</title>
<ellipse fill="#ffffff" stroke="#000000" cx="1143" cy="-1367.64" rx="116.32" ry="54.45"/>
<text text-anchor="middle" x="1143" y="-1388.84" font-family="Times,serif" font-size="14.00">Hello, </text>
<text text-anchor="middle" x="1143" y="-1371.59" font-family="Times,serif" font-size="14.00">&#45;&#45;&#45;</text>
<text text-anchor="middle" x="1143" y="-1354.34" font-family="Times,serif" font-size="14.00">. Have you found the</text>
<text text-anchor="middle" x="1143" y="-1337.09" font-family="Times,serif" font-size="14.00">water chip yet?</text>
</g>
<!-- talk_p_proc&#45;&gt;Cindy01 -->
<g id="edge12" class="edge">
<title>talk_p_proc&#45;&gt;Cindy01</title>
<path fill="none" stroke="#555555" stroke-dasharray="1,5" d="M1143,-1458.79C1143,-1449.96 1143,-1441.38 1143,-1433.26"/>
<polygon fill="#555555" stroke="#555555" points="1146.5,-1433.49 1143,-1423.49 1139.5,-1433.49 1146.5,-1433.49"/>
</g>
<!-- Cindy03 -->
<g id="node14" class="node">
<title>Cindy03</title>
<ellipse fill="#ffffff" stroke="#000000" cx="960" cy="-1097.81" rx="27" ry="18"/>
</g>
<!-- Cindy01&#45;&gt;Cindy03 -->
<g id="edge13" class="edge">
<title>Cindy01&#45;&gt;Cindy03</title>
<path fill="none" stroke="#559900" d="M1042.31,-1340.02C1019.85,-1329.54 998.39,-1315.08 983.75,-1295.19 946.97,-1245.25 950.27,-1168.04 955.4,-1126.88"/>
<polygon fill="#559900" stroke="#559900" points="958.99,-1127.43 956.9,-1117.05 952.06,-1126.47 958.99,-1127.43"/>
<text text-anchor="middle" x="1061.62" y="-1273.27" font-family="Times,serif" font-size="14.00" fill="#559900">Not yet. I haven&#39;t had</text>
<text text-anchor="middle" x="1061.62" y="-1256.02" font-family="Times,serif" font-size="14.00" fill="#559900">much luck.</text>
</g>
<!-- Cindy04 -->
<g id="node15" class="node">
<title>Cindy04</title>
<ellipse fill="#ffffff" stroke="#000000" cx="1143" cy="-1097.81" rx="137.53" ry="127.63"/>
<text text-anchor="middle" x="1143" y="-1170.76" font-family="Times,serif" font-size="14.00">I&#39;m scared. I don&#39;t know</text>
<text text-anchor="middle" x="1143" y="-1153.51" font-family="Times,serif" font-size="14.00">what will happen to us</text>
<text text-anchor="middle" x="1143" y="-1136.26" font-family="Times,serif" font-size="14.00">all. Please, don&#39;t let us</text>
<text text-anchor="middle" x="1143" y="-1119.01" font-family="Times,serif" font-size="14.00"> down.</text>
<text text-anchor="middle" x="1143" y="-1101.76" font-family="Times,serif" font-size="14.00">&#45;&#45;&#45;</text>
<text text-anchor="middle" x="1143" y="-1084.51" font-family="Times,serif" font-size="14.00">I am afraid of what is</text>
<text text-anchor="middle" x="1143" y="-1067.26" font-family="Times,serif" font-size="14.00">happening. Someone has</text>
<text text-anchor="middle" x="1143" y="-1050.01" font-family="Times,serif" font-size="14.00">been stealing water and</text>
<text text-anchor="middle" x="1143" y="-1032.76" font-family="Times,serif" font-size="14.00">now</text>
<text text-anchor="middle" x="1143" y="-1015.51" font-family="Times,serif" font-size="14.00"> everyone is on edge.</text>
</g>
<!-- Cindy01&#45;&gt;Cindy04 -->
<g id="edge14" class="edge">
<title>Cindy01&#45;&gt;Cindy04</title>
<path fill="none" stroke="#990082" d="M1143,-1312.76C1143,-1290.51 1143,-1263.6 1143,-1236.49"/>
<polygon fill="#990082" stroke="#990082" points="1146.5,-1236.69 1143,-1226.69 1139.5,-1236.69 1146.5,-1236.69"/>
<text text-anchor="middle" x="1225.88" y="-1281.89" font-family="Times,serif" font-size="14.00" fill="#990082">No luck yet, but I know</text>
<text text-anchor="middle" x="1225.88" y="-1264.64" font-family="Times,serif" font-size="14.00" fill="#990082">I&#39;ll find it. By the way,</text>
<text text-anchor="middle" x="1225.88" y="-1247.39" font-family="Times,serif" font-size="14.00" fill="#990082">how are you doing?</text>
</g>
<!-- Cindy02 -->
<g id="node16" class="node">
<title>Cindy02</title>
<ellipse fill="#ffffff" stroke="#000000" cx="1540" cy="-873.33" rx="147.61" ry="78.84"/>
<text text-anchor="middle" x="1540" y="-911.78" font-family="Times,serif" font-size="14.00">Oh . . . you don&#39;t</text>
<text text-anchor="middle" x="1540" y="-894.53" font-family="Times,serif" font-size="14.00">understand me. I guess we</text>
<text text-anchor="middle" x="1540" y="-877.28" font-family="Times,serif" font-size="14.00">really don&#39;t have much</text>
<text text-anchor="middle" x="1540" y="-860.03" font-family="Times,serif" font-size="14.00">hope</text>
<text text-anchor="middle" x="1540" y="-842.78" font-family="Times,serif" font-size="14.00">after all. Excuse me</text>
<text text-anchor="middle" x="1540" y="-825.53" font-family="Times,serif" font-size="14.00">while I cry.</text>
</g>
<!-- Cindy01&#45;&gt;Cindy02 -->
<g id="edge15" class="edge">
<title>Cindy01&#45;&gt;Cindy02</title>
<path fill="none" stroke="#009984" d="M1241.36,-1338.44C1266.74,-1327.83 1292.61,-1313.69 1313,-1295.19 1414.17,-1203.37 1479.08,-1055.66 1512.54,-961.88"/>
<polygon fill="#009984" stroke="#009984" points="1516.15,-963.16 1516.17,-952.57 1509.54,-960.84 1516.15,-963.16"/>
<text text-anchor="middle" x="1379.38" y="-1264.64" font-family="Times,serif" font-size="14.00" fill="#009984">Urug!</text>
</g>
<!-- CindyEnd -->
<g id="node17" class="node">
<title>CindyEnd</title>
<ellipse fill="#ffffff" stroke="#000000" cx="1169" cy="-18" rx="27" ry="18"/>
</g>
<!-- Cindy04&#45;&gt;CindyEnd -->
<g id="edge17" class="edge">
<title>Cindy04&#45;&gt;CindyEnd</title>
<path fill="none" stroke="#2a0099" d="M1041.58,-1011.73C942.98,-918.92 808,-760.53 808,-588.87 808,-588.87 808,-588.87 808,-142.7 808,-74.81 1039.38,-36.34 1131.66,-23.7"/>
<polygon fill="#2a0099" stroke="#2a0099" points="1132.01,-27.05 1141.45,-22.25 1131.08,-20.11 1132.01,-27.05"/>
<text text-anchor="middle" x="886.75" y="-311.27" font-family="Times,serif" font-size="14.00" fill="#2a0099">Don&#39;t worry, I&#39;ll do my</text>
<text text-anchor="middle" x="886.75" y="-294.02" font-family="Times,serif" font-size="14.00" fill="#2a0099">best. You&#39;ll be all</text>
<text text-anchor="middle" x="886.75" y="-276.77" font-family="Times,serif" font-size="14.00" fill="#2a0099">right.</text>
</g>
<!-- Cindy04&#45;&gt;CindyEnd -->
<g id="edge18" class="edge">
<title>Cindy04&#45;&gt;CindyEnd</title>
<path fill="none" stroke="#029900" d="M1090.9,-979.29C1050.73,-877.94 1002,-726.6 1002,-588.87 1002,-588.87 1002,-588.87 1002,-142.7 1002,-77.96 1084.04,-43.2 1133.12,-28.2"/>
<polygon fill="#029900" stroke="#029900" points="1134.02,-31.3 1142.64,-25.14 1132.06,-24.58 1134.02,-31.3"/>
<text text-anchor="middle" x="1058.25" y="-294.02" font-family="Times,serif" font-size="14.00" fill="#029900">Yeah, whatever.</text>
</g>
<!-- Cindy05 -->
<g id="node18" class="node">
<title>Cindy05</title>
<ellipse fill="#ffffff" stroke="#000000" cx="1169" cy="-143.7" rx="132.76" ry="54.45"/>
<text text-anchor="middle" x="1169" y="-164.9" font-family="Times,serif" font-size="14.00">Some people have been</text>
<text text-anchor="middle" x="1169" y="-147.65" font-family="Times,serif" font-size="14.00">accused and fights have</text>
<text text-anchor="middle" x="1169" y="-130.4" font-family="Times,serif" font-size="14.00">broken out over it, but</text>
<text text-anchor="middle" x="1169" y="-113.15" font-family="Times,serif" font-size="14.00"> nobody really knows.</text>
</g>
<!-- Cindy04&#45;&gt;Cindy05 -->
<g id="edge19" class="edge">
<title>Cindy04&#45;&gt;Cindy05</title>
<path fill="none" stroke="#99002f" d="M1141.23,-969.74C1139.82,-798.38 1140.61,-483.82 1160,-216.14 1160.16,-213.9 1160.35,-211.63 1160.55,-209.33"/>
<polygon fill="#99002f" stroke="#99002f" points="1164.12,-209.77 1161.61,-199.47 1157.15,-209.09 1164.12,-209.77"/>
<text text-anchor="middle" x="1227.38" y="-367.95" font-family="Times,serif" font-size="14.00" fill="#99002f">Who would do such a</text>
<text text-anchor="middle" x="1227.38" y="-350.7" font-family="Times,serif" font-size="14.00" fill="#99002f">thing?</text>
</g>
<!-- Cindy06 -->
<g id="node19" class="node">
<title>Cindy06</title>
<ellipse fill="#ffffff" stroke="#000000" cx="1318" cy="-587.87" rx="147.08" ry="188.62"/>
<text text-anchor="middle" x="1318" y="-703.94" font-family="Times,serif" font-size="14.00">Some people reported that</text>
<text text-anchor="middle" x="1318" y="-686.69" font-family="Times,serif" font-size="14.00">their water had been</text>
<text text-anchor="middle" x="1318" y="-669.44" font-family="Times,serif" font-size="14.00">stolen. They weren&#39;t</text>
<text text-anchor="middle" x="1318" y="-652.19" font-family="Times,serif" font-size="14.00">given</text>
<text text-anchor="middle" x="1318" y="-634.94" font-family="Times,serif" font-size="14.00">more water but some</text>
<text text-anchor="middle" x="1318" y="-617.69" font-family="Times,serif" font-size="14.00">friends shared with them.</text>
<text text-anchor="middle" x="1318" y="-600.44" font-family="Times,serif" font-size="14.00">After this everybody got</text>
<text text-anchor="middle" x="1318" y="-583.19" font-family="Times,serif" font-size="14.00">very</text>
<text text-anchor="middle" x="1318" y="-565.94" font-family="Times,serif" font-size="14.00">paranoid and started</text>
<text text-anchor="middle" x="1318" y="-548.69" font-family="Times,serif" font-size="14.00">guarding their water. A</text>
<text text-anchor="middle" x="1318" y="-531.44" font-family="Times,serif" font-size="14.00">few days later someone</text>
<text text-anchor="middle" x="1318" y="-514.19" font-family="Times,serif" font-size="14.00">knocked the</text>
<text text-anchor="middle" x="1318" y="-496.94" font-family="Times,serif" font-size="14.00">guard out in the ration</text>
<text text-anchor="middle" x="1318" y="-479.69" font-family="Times,serif" font-size="14.00">supply area and stole</text>
<text text-anchor="middle" x="1318" y="-462.44" font-family="Times,serif" font-size="14.00">water.</text>
</g>
<!-- Cindy04&#45;&gt;Cindy06 -->
<g id="edge20" class="edge">
<title>Cindy04&#45;&gt;Cindy06</title>
<path fill="none" stroke="#005c99" d="M1184.69,-975.79C1205.8,-914.54 1231.85,-838.92 1255.31,-770.83"/>
<polygon fill="#005c99" stroke="#005c99" points="1258.8,-772.44 1258.75,-761.84 1252.18,-770.16 1258.8,-772.44"/>
<text text-anchor="middle" x="1306.62" y="-868.66" font-family="Times,serif" font-size="14.00" fill="#005c99">What happened?</text>
</g>
<!-- Cindy02&#45;&gt;CindyEnd -->
<g id="edge16" class="edge">
<title>Cindy02&#45;&gt;CindyEnd</title>
<path fill="none" stroke="#995700" d="M1547.74,-794.2C1556.92,-694.65 1571,-517.22 1571,-365 1571,-365 1571,-365 1571,-142.7 1571,-114.3 1559.59,-105.05 1536,-89.25 1482.2,-53.22 1289.17,-30.67 1206.74,-22.48"/>
<polygon fill="#995700" stroke="#995700" points="1207.17,-18.91 1196.87,-21.42 1206.49,-25.87 1207.17,-18.91"/>
<text text-anchor="middle" x="1589" y="-294.02" font-family="Times,serif" font-size="14.00" fill="#995700">Ugg!</text>
</g>
<!-- Cindy05&#45;&gt;CindyEnd -->
<g id="edge21" class="edge">
<title>Cindy05&#45;&gt;CindyEnd</title>
<path fill="none" stroke="#889900" d="M1169,-88.8C1169,-74.49 1169,-59.61 1169,-47.28"/>
<polygon fill="#889900" stroke="#889900" points="1172.5,-47.34 1169,-37.34 1165.5,-47.34 1172.5,-47.34"/>
<text text-anchor="middle" x="1218.12" y="-57.95" font-family="Times,serif" font-size="14.00" fill="#889900">Okay. Thanks.</text>
</g>
<!-- Cindy07 -->
<g id="node20" class="node">
<title>Cindy07</title>
<ellipse fill="#ffffff" stroke="#000000" cx="1318" cy="-298.7" rx="122.68" ry="30.05"/>
<text text-anchor="middle" x="1318" y="-302.65" font-family="Times,serif" font-size="14.00">Maybe you can stop</text>
<text text-anchor="middle" x="1318" y="-285.4" font-family="Times,serif" font-size="14.00">whoever is doing this.</text>
</g>
<!-- Cindy06&#45;&gt;Cindy07 -->
<g id="edge22" class="edge">
<title>Cindy06&#45;&gt;Cindy07</title>
<path fill="none" stroke="#7d0099" d="M1318,-398.93C1318,-376.86 1318,-356.35 1318,-339.77"/>
<polygon fill="#7d0099" stroke="#7d0099" points="1321.5,-339.95 1318,-329.95 1314.5,-339.95 1321.5,-339.95"/>
<text text-anchor="middle" x="1407.62" y="-367.95" font-family="Times,serif" font-size="14.00" fill="#7d0099">That&#39;s terrible! What can</text>
<text text-anchor="middle" x="1407.62" y="-350.7" font-family="Times,serif" font-size="14.00" fill="#7d0099">I do?</text>
</g>
<!-- Cindy07&#45;&gt;CindyEnd -->
<g id="edge23" class="edge">
<title>Cindy07&#45;&gt;CindyEnd</title>
<path fill="none" stroke="#009951" d="M1356.8,-269.75C1362.16,-264.07 1366.89,-257.66 1370,-250.64 1395.38,-193.46 1328.8,-113.07 1311,-89.25 1296.81,-70.27 1291.49,-65.91 1271,-54 1250.42,-42.04 1225.12,-33.33 1204.87,-27.58"/>
<polygon fill="#009951" stroke="#009951" points="1206.06,-24.01 1195.49,-24.77 1204.23,-30.77 1206.06,-24.01"/>
<text text-anchor="middle" x="1452.5" y="-139.02" font-family="Times,serif" font-size="14.00" fill="#009951">I&#39;ll take a look around.</text>
</g>
<!-- Cindy07&#45;&gt;Cindy05 -->
<g id="edge24" class="edge">
<title>Cindy07&#45;&gt;Cindy05</title>
<path fill="none" stroke="#992400" d="M1218.5,-280.87C1202.58,-273.96 1187.87,-264.25 1177.25,-250.64 1168.07,-238.88 1163.86,-223.98 1162.41,-209.1"/>
<polygon fill="#992400" stroke="#992400" points="1165.86,-209.09 1161.8,-199.3 1158.87,-209.48 1165.86,-209.09"/>
<text text-anchor="middle" x="1274.38" y="-237.34" font-family="Times,serif" font-size="14.00" fill="#992400">Who do you think might be</text>
<text text-anchor="middle" x="1274.38" y="-220.09" font-family="Times,serif" font-size="14.00" fill="#992400">involved?</text>
</g>
<!-- get_reaction -->
<g id="node21" class="node">
<title>get_reaction</title>
<ellipse fill="#ffffff" stroke="#000000" cx="1186" cy="-1842.54" rx="27" ry="18"/>
</g>
<!-- ReactToLevel -->
<g id="node22" class="node">
<title>ReactToLevel</title>
<ellipse fill="#ffffff" stroke="#000000" cx="1330" cy="-1623.31" rx="27" ry="18"/>
</g>
<!-- get_reaction&#45;&gt;ReactToLevel -->
<g id="edge25" class="edge">
<title>get_reaction&#45;&gt;ReactToLevel</title>
<path fill="none" stroke="#555555" stroke-dasharray="1,5" d="M1207.63,-1831.31C1238.3,-1816.72 1291.08,-1791.28 1294,-1787.54 1324.77,-1748.06 1330.42,-1687.67 1330.83,-1652.48"/>
<polygon fill="#555555" stroke="#555555" points="1334.33,-1652.56 1330.8,-1642.58 1327.33,-1652.59 1334.33,-1652.56"/>
</g>
<!-- LevelToReact -->
<g id="node23" class="node">
<title>LevelToReact</title>
<ellipse fill="#ffffff" stroke="#000000" cx="1582" cy="-1623.31" rx="27" ry="18"/>
</g>
<!-- UpReact -->
<g id="node24" class="node">
<title>UpReact</title>
<ellipse fill="#ffffff" stroke="#000000" cx="1258" cy="-1842.54" rx="27" ry="18"/>
</g>
<!-- UpReact&#45;&gt;ReactToLevel -->
<g id="edge26" class="edge">
<title>UpReact&#45;&gt;ReactToLevel</title>
<path fill="none" stroke="#555555" stroke-dasharray="1,5" d="M1270.36,-1826.36C1278.21,-1815.99 1288,-1801.63 1294,-1787.54 1313.22,-1742.4 1322.75,-1685.69 1327.01,-1652.38"/>
<polygon fill="#555555" stroke="#555555" points="1330.59,-1652.98 1328.31,-1642.63 1323.64,-1652.14 1330.59,-1652.98"/>
</g>
<!-- DownReact -->
<g id="node25" class="node">
<title>DownReact</title>
<ellipse fill="#ffffff" stroke="#000000" cx="1330" cy="-1842.54" rx="27" ry="18"/>
</g>
<!-- DownReact&#45;&gt;ReactToLevel -->
<g id="edge27" class="edge">
<title>DownReact&#45;&gt;ReactToLevel</title>
<path fill="none" stroke="#555555" stroke-dasharray="1,5" d="M1330,-1824.13C1330,-1786.71 1330,-1698.33 1330,-1652.69"/>
<polygon fill="#555555" stroke="#555555" points="1333.5,-1652.8 1330,-1642.8 1326.5,-1652.8 1333.5,-1652.8"/>
</g>
<!-- BottomReact -->
<g id="node26" class="node">
<title>BottomReact</title>
<ellipse fill="#ffffff" stroke="#000000" cx="1690" cy="-1842.54" rx="27" ry="18"/>
</g>
<!-- TopReact -->
<g id="node27" class="node">
<title>TopReact</title>
<ellipse fill="#ffffff" stroke="#000000" cx="1762" cy="-1842.54" rx="27" ry="18"/>
</g>
<!-- BigUpReact -->
<g id="node28" class="node">
<title>BigUpReact</title>
<ellipse fill="#ffffff" stroke="#000000" cx="1402" cy="-1842.54" rx="27" ry="18"/>
</g>
<!-- BigUpReact&#45;&gt;ReactToLevel -->
<g id="edge28" class="edge">
<title>BigUpReact&#45;&gt;ReactToLevel</title>
<path fill="none" stroke="#555555" stroke-dasharray="1,5" d="M1396.35,-1824.49C1383.92,-1786.98 1354.09,-1697 1339.03,-1651.55"/>
<polygon fill="#555555" stroke="#555555" points="1342.09,-1650.67 1335.62,-1642.28 1335.45,-1652.87 1342.09,-1650.67"/>
</g>
<!-- BigDownReact -->
<g id="node29" class="node">
<title>BigDownReact</title>
<ellipse fill="#ffffff" stroke="#000000" cx="1474" cy="-1842.54" rx="27" ry="18"/>
</g>
<!-- BigDownReact&#45;&gt;ReactToLevel -->
<g id="edge29" class="edge">
<title>BigDownReact&#45;&gt;ReactToLevel</title>
<path fill="none" stroke="#555555" stroke-dasharray="1,5" d="M1463.41,-1825.56C1438.6,-1788.14 1376.56,-1694.54 1346.64,-1649.42"/>
<polygon fill="#555555" stroke="#555555" points="1349.05,-1647.71 1340.6,-1641.31 1343.21,-1651.58 1349.05,-1647.71"/>
</g>
<!-- UpReactLevel -->
<g id="node30" class="node">
<title>UpReactLevel</title>
<ellipse fill="#ffffff" stroke="#000000" cx="1546" cy="-1842.54" rx="27" ry="18"/>
</g>
<!-- UpReactLevel&#45;&gt;LevelToReact -->
<g id="edge30" class="edge">
<title>UpReactLevel&#45;&gt;LevelToReact</title>
<path fill="none" stroke="#555555" stroke-dasharray="1,5" d="M1548.82,-1824.49C1555.01,-1787.15 1569.82,-1697.82 1577.38,-1652.18"/>
<polygon fill="#555555" stroke="#555555" points="1580.96,-1653.01 1579.14,-1642.58 1574.05,-1651.87 1580.96,-1653.01"/>
</g>
<!-- DownReactLevel -->
<g id="node31" class="node">
<title>DownReactLevel</title>
<ellipse fill="#ffffff" stroke="#000000" cx="1618" cy="-1842.54" rx="27" ry="18"/>
</g>
<!-- DownReactLevel&#45;&gt;LevelToReact -->
<g id="edge31" class="edge">
<title>DownReactLevel&#45;&gt;LevelToReact</title>
<path fill="none" stroke="#555555" stroke-dasharray="1,5" d="M1615.18,-1824.49C1608.99,-1787.15 1594.18,-1697.82 1586.62,-1652.18"/>
<polygon fill="#555555" stroke="#555555" points="1589.95,-1651.87 1584.86,-1642.58 1583.04,-1653.01 1589.95,-1651.87"/>
</g>
<!-- Goodbyes -->
<g id="node32" class="node">
<title>Goodbyes</title>
<ellipse fill="#ffffff" stroke="#000000" cx="1834" cy="-1842.54" rx="27" ry="18"/>
</g>
</g>
</svg>
