<?xml version="1.0" encoding="UTF-8" standalone="no"?>
<!DOCTYPE svg PUBLIC "-//W3C//DTD SVG 1.1//EN"
 "http://www.w3.org/Graphics/SVG/1.1/DTD/svg11.dtd">
<!-- Generated by graphviz version 8.0.5 (0)
 -->
<!-- Title: DANWIFE Pages: 1 -->
<svg width="1194pt" height="406pt"
 viewBox="0.00 0.00 1193.79 406.08" xmlns="http://www.w3.org/2000/svg" xmlns:xlink="http://www.w3.org/1999/xlink">
<g id="graph0" class="graph" transform="scale(1 1) rotate(0) translate(4 402.08)">
<title>DANWIFE</title>
<polygon fill="white" stroke="none" points="-4,4 -4,-402.08 1189.79,-402.08 1189.79,4 -4,4"/>
<!-- start -->
<g id="node1" class="node">
<title>start</title>
<ellipse fill="#ffffff" stroke="#000000" cx="521.79" cy="-380.08" rx="27" ry="18"/>
</g>
<!-- look_at_p_proc -->
<g id="node2" class="node">
<title>look_at_p_proc</title>
<ellipse fill="#ffffff" stroke="#000000" cx="115.79" cy="-235.04" rx="115.79" ry="54.45"/>
<text text-anchor="middle" x="115.79" y="-256.24" font-family="Times,serif" font-size="14.00">You see Dan&#39;s crying</text>
<text text-anchor="middle" x="115.79" y="-238.99" font-family="Times,serif" font-size="14.00">wife.</text>
<text text-anchor="middle" x="115.79" y="-221.74" font-family="Times,serif" font-size="14.00">&#45;&#45;&#45;</text>
<text text-anchor="middle" x="115.79" y="-204.49" font-family="Times,serif" font-size="14.00">You see Dan&#39;s wife.</text>
</g>
<!-- start&#45;&gt;look_at_p_proc -->
<g id="edge1" class="edge">
<title>start&#45;&gt;look_at_p_proc</title>
<path fill="none" stroke="#555555" stroke-dasharray="1,5" d="M494.71,-377.87C443.24,-374.74 328.61,-363.76 240.79,-326.08 219.36,-316.88 198.03,-303.51 179.21,-289.87"/>
<polygon fill="#555555" stroke="#555555" points="181.59,-286.53 171.47,-283.38 177.41,-292.15 181.59,-286.53"/>
</g>
<!-- pickup_p_proc -->
<g id="node3" class="node">
<title>pickup_p_proc</title>
<ellipse fill="#ffffff" stroke="#000000" cx="276.79" cy="-235.04" rx="27" ry="18"/>
</g>
<!-- start&#45;&gt;pickup_p_proc -->
<g id="edge2" class="edge">
<title>start&#45;&gt;pickup_p_proc</title>
<path fill="none" stroke="#555555" stroke-dasharray="1,5" d="M494.5,-379.64C450.83,-379.07 364.88,-371.71 312.79,-326.08 294.71,-310.24 285.6,-284.06 281.08,-264.01"/>
<polygon fill="#555555" stroke="#555555" points="284.33,-263.44 278.96,-254.31 277.47,-264.8 284.33,-263.44"/>
</g>
<!-- talk_p_proc -->
<g id="node4" class="node">
<title>talk_p_proc</title>
<ellipse fill="#ffffff" stroke="#000000" cx="465.79" cy="-235.04" rx="143.9" ry="91.04"/>
<text text-anchor="middle" x="465.79" y="-282.11" font-family="Times,serif" font-size="14.00">You horrible man, why did</text>
<text text-anchor="middle" x="465.79" y="-264.86" font-family="Times,serif" font-size="14.00">you do this? You killed</text>
<text text-anchor="middle" x="465.79" y="-247.61" font-family="Times,serif" font-size="14.00">my Danny!</text>
<text text-anchor="middle" x="465.79" y="-230.36" font-family="Times,serif" font-size="14.00">&#45;&#45;&#45;</text>
<text text-anchor="middle" x="465.79" y="-213.11" font-family="Times,serif" font-size="14.00">You horrible woman, why</text>
<text text-anchor="middle" x="465.79" y="-195.86" font-family="Times,serif" font-size="14.00">did you do this? You</text>
<text text-anchor="middle" x="465.79" y="-178.61" font-family="Times,serif" font-size="14.00">killed my Danny!</text>
</g>
<!-- start&#45;&gt;talk_p_proc -->
<g id="edge3" class="edge">
<title>start&#45;&gt;talk_p_proc</title>
<path fill="none" stroke="#555555" stroke-dasharray="1,5" d="M515.26,-362.39C512.23,-354.66 508.37,-344.8 504.14,-333.99"/>
<polygon fill="#555555" stroke="#555555" points="507.07,-332.88 500.16,-324.84 500.55,-335.43 507.07,-332.88"/>
</g>
<!-- critter_p_proc -->
<g id="node5" class="node">
<title>critter_p_proc</title>
<ellipse fill="#ffffff" stroke="#000000" cx="654.79" cy="-235.04" rx="27" ry="18"/>
</g>
<!-- start&#45;&gt;critter_p_proc -->
<g id="edge4" class="edge">
<title>start&#45;&gt;critter_p_proc</title>
<path fill="none" stroke="#555555" stroke-dasharray="1,5" d="M545.54,-371.39C567.25,-363.26 598.92,-348.48 618.79,-326.08 634.48,-308.39 643.79,-283.01 648.99,-263.71"/>
<polygon fill="#555555" stroke="#555555" points="652.6,-264.69 651.6,-254.14 645.81,-263.01 652.6,-264.69"/>
</g>
<!-- destroy_p_proc -->
<g id="node6" class="node">
<title>destroy_p_proc</title>
<ellipse fill="#ffffff" stroke="#000000" cx="726.79" cy="-235.04" rx="27" ry="18"/>
</g>
<!-- start&#45;&gt;destroy_p_proc -->
<g id="edge5" class="edge">
<title>start&#45;&gt;destroy_p_proc</title>
<path fill="none" stroke="#555555" stroke-dasharray="1,5" d="M548.73,-377.62C585.36,-374.24 650.86,-363.07 690.79,-326.08 708.42,-309.75 717.58,-283.63 722.24,-263.71"/>
<polygon fill="#555555" stroke="#555555" points="725.83,-264.61 724.44,-254.11 718.98,-263.19 725.83,-264.61"/>
</g>
<!-- timed_event_p_proc -->
<g id="node7" class="node">
<title>timed_event_p_proc</title>
<ellipse fill="#ffffff" stroke="#000000" cx="798.79" cy="-235.04" rx="27" ry="18"/>
</g>
<!-- start&#45;&gt;timed_event_p_proc -->
<g id="edge6" class="edge">
<title>start&#45;&gt;timed_event_p_proc</title>
<path fill="none" stroke="#555555" stroke-dasharray="1,5" d="M548.11,-374.72C607.17,-364.74 746.37,-340.01 762.79,-326.08 781.12,-310.53 790.2,-284.32 794.65,-264.18"/>
<polygon fill="#555555" stroke="#555555" points="798.26,-264.91 796.72,-254.43 791.39,-263.59 798.26,-264.91"/>
</g>
<!-- get_reaction -->
<g id="node9" class="node">
<title>get_reaction</title>
<ellipse fill="#ffffff" stroke="#000000" cx="465.79" cy="-90" rx="27" ry="18"/>
</g>
<!-- talk_p_proc&#45;&gt;get_reaction -->
<g id="edge7" class="edge">
<title>talk_p_proc&#45;&gt;get_reaction</title>
<path fill="none" stroke="#555555" stroke-dasharray="1,5" d="M465.79,-143.86C465.79,-134.92 465.79,-126.41 465.79,-118.92"/>
<polygon fill="#555555" stroke="#555555" points="469.29,-119.1 465.79,-109.1 462.29,-119.1 469.29,-119.1"/>
</g>
<!-- combat -->
<g id="node8" class="node">
<title>combat</title>
<ellipse fill="#ffffff" stroke="#000000" cx="669.79" cy="-380.08" rx="27" ry="18"/>
</g>
<!-- ReactToLevel -->
<g id="node11" class="node">
<title>ReactToLevel</title>
<ellipse fill="#ffffff" stroke="#000000" cx="609.79" cy="-18" rx="27" ry="18"/>
</g>
<!-- get_reaction&#45;&gt;ReactToLevel -->
<g id="edge8" class="edge">
<title>get_reaction&#45;&gt;ReactToLevel</title>
<path fill="none" stroke="#555555" stroke-dasharray="1,5" d="M487.35,-78.52C511.66,-66.7 551.41,-47.38 578.99,-33.97"/>
<polygon fill="#555555" stroke="#555555" points="580.09,-36.84 587.55,-29.32 577.03,-30.55 580.09,-36.84"/>
</g>
<!-- damage_p_proc -->
<g id="node10" class="node">
<title>damage_p_proc</title>
<ellipse fill="#ffffff" stroke="#000000" cx="779.79" cy="-380.08" rx="27" ry="18"/>
</g>
<!-- LevelToReact -->
<g id="node12" class="node">
<title>LevelToReact</title>
<ellipse fill="#ffffff" stroke="#000000" cx="906.79" cy="-235.04" rx="27" ry="18"/>
</g>
<!-- UpReact -->
<g id="node13" class="node">
<title>UpReact</title>
<ellipse fill="#ffffff" stroke="#000000" cx="537.79" cy="-90" rx="27" ry="18"/>
</g>
<!-- UpReact&#45;&gt;ReactToLevel -->
<g id="edge9" class="edge">
<title>UpReact&#45;&gt;ReactToLevel</title>
<path fill="none" stroke="#555555" stroke-dasharray="1,5" d="M552.71,-74.5C562.65,-64.83 575.91,-51.94 587.14,-41.02"/>
<polygon fill="#555555" stroke="#555555" points="589.16,-43.97 593.89,-34.49 584.28,-38.95 589.16,-43.97"/>
</g>
<!-- DownReact -->
<g id="node14" class="node">
<title>DownReact</title>
<ellipse fill="#ffffff" stroke="#000000" cx="609.79" cy="-90" rx="27" ry="18"/>
</g>
<!-- DownReact&#45;&gt;ReactToLevel -->
<g id="edge10" class="edge">
<title>DownReact&#45;&gt;ReactToLevel</title>
<path fill="none" stroke="#555555" stroke-dasharray="1,5" d="M609.79,-71.7C609.79,-64.24 609.79,-55.32 609.79,-46.97"/>
<polygon fill="#555555" stroke="#555555" points="613.29,-47.1 609.79,-37.1 606.29,-47.1 613.29,-47.1"/>
</g>
<!-- BottomReact -->
<g id="node15" class="node">
<title>BottomReact</title>
<ellipse fill="#ffffff" stroke="#000000" cx="1014.79" cy="-380.08" rx="27" ry="18"/>
</g>
<!-- TopReact -->
<g id="node16" class="node">
<title>TopReact</title>
<ellipse fill="#ffffff" stroke="#000000" cx="1086.79" cy="-380.08" rx="27" ry="18"/>
</g>
<!-- BigUpReact -->
<g id="node17" class="node">
<title>BigUpReact</title>
<ellipse fill="#ffffff" stroke="#000000" cx="681.79" cy="-90" rx="27" ry="18"/>
</g>
<!-- BigUpReact&#45;&gt;ReactToLevel -->
<g id="edge11" class="edge">
<title>BigUpReact&#45;&gt;ReactToLevel</title>
<path fill="none" stroke="#555555" stroke-dasharray="1,5" d="M666.87,-74.5C656.93,-64.83 643.67,-51.94 632.44,-41.02"/>
<polygon fill="#555555" stroke="#555555" points="635.3,-38.95 625.69,-34.49 630.42,-43.97 635.3,-38.95"/>
</g>
<!-- BigDownReact -->
<g id="node18" class="node">
<title>BigDownReact</title>
<ellipse fill="#ffffff" stroke="#000000" cx="753.79" cy="-90" rx="27" ry="18"/>
</g>
<!-- BigDownReact&#45;&gt;ReactToLevel -->
<g id="edge12" class="edge">
<title>BigDownReact&#45;&gt;ReactToLevel</title>
<path fill="none" stroke="#555555" stroke-dasharray="1,5" d="M732.23,-78.52C707.91,-66.7 668.17,-47.38 640.59,-33.97"/>
<polygon fill="#555555" stroke="#555555" points="642.55,-30.55 632.02,-29.32 639.49,-36.84 642.55,-30.55"/>
</g>
<!-- UpReactLevel -->
<g id="node19" class="node">
<title>UpReactLevel</title>
<ellipse fill="#ffffff" stroke="#000000" cx="870.79" cy="-380.08" rx="27" ry="18"/>
</g>
<!-- UpReactLevel&#45;&gt;LevelToReact -->
<g id="edge13" class="edge">
<title>UpReactLevel&#45;&gt;LevelToReact</title>
<path fill="none" stroke="#555555" stroke-dasharray="1,5" d="M875.13,-361.83C881.27,-337.42 892.56,-292.58 899.87,-263.55"/>
<polygon fill="#555555" stroke="#555555" points="903.5,-264.46 902.54,-253.91 896.71,-262.75 903.5,-264.46"/>
</g>
<!-- DownReactLevel -->
<g id="node20" class="node">
<title>DownReactLevel</title>
<ellipse fill="#ffffff" stroke="#000000" cx="942.79" cy="-380.08" rx="27" ry="18"/>
</g>
<!-- DownReactLevel&#45;&gt;LevelToReact -->
<g id="edge14" class="edge">
<title>DownReactLevel&#45;&gt;LevelToReact</title>
<path fill="none" stroke="#555555" stroke-dasharray="1,5" d="M938.45,-361.83C932.3,-337.42 921.02,-292.58 913.71,-263.55"/>
<polygon fill="#555555" stroke="#555555" points="916.87,-262.75 911.03,-253.91 910.08,-264.46 916.87,-262.75"/>
</g>
<!-- Goodbyes -->
<g id="node21" class="node">
<title>Goodbyes</title>
<ellipse fill="#ffffff" stroke="#000000" cx="1158.79" cy="-380.08" rx="27" ry="18"/>
</g>
</g>
</svg>
