<?xml version="1.0" encoding="UTF-8" standalone="no"?>
<!DOCTYPE svg PUBLIC "-//W3C//DTD SVG 1.1//EN"
 "http://www.w3.org/Graphics/SVG/1.1/DTD/svg11.dtd">
<!-- Generated by graphviz version 8.0.5 (0)
 -->
<!-- Title: DEMODOG Pages: 1 -->
<svg width="281pt" height="286pt"
 viewBox="0.00 0.00 280.63 286.48" xmlns="http://www.w3.org/2000/svg" xmlns:xlink="http://www.w3.org/1999/xlink">
<g id="graph0" class="graph" transform="scale(1 1) rotate(0) translate(4 282.48)">
<title>DEMODOG</title>
<polygon fill="white" stroke="none" points="-4,4 -4,-282.48 276.63,-282.48 276.63,4 -4,4"/>
<!-- start -->
<g id="node1" class="node">
<title>start</title>
<ellipse fill="#ffffff" stroke="#000000" cx="136.69" cy="-175.24" rx="135.94" ry="103.24"/>
<text text-anchor="middle" x="136.69" y="-230.94" font-family="Times,serif" font-size="14.00">You see a dog. He seems</text>
<text text-anchor="middle" x="136.69" y="-213.69" font-family="Times,serif" font-size="14.00">to be following you.</text>
<text text-anchor="middle" x="136.69" y="-196.44" font-family="Times,serif" font-size="14.00">&#45;&#45;&#45;</text>
<text text-anchor="middle" x="136.69" y="-179.19" font-family="Times,serif" font-size="14.00">You see a dog.</text>
<text text-anchor="middle" x="136.69" y="-161.94" font-family="Times,serif" font-size="14.00">&#45;&#45;&#45;</text>
<text text-anchor="middle" x="136.69" y="-144.69" font-family="Times,serif" font-size="14.00">It seems that you have</text>
<text text-anchor="middle" x="136.69" y="-127.44" font-family="Times,serif" font-size="14.00">made a friend of this</text>
<text text-anchor="middle" x="136.69" y="-110.19" font-family="Times,serif" font-size="14.00">dog.</text>
</g>
<!-- do_dialogue -->
<g id="node2" class="node">
<title>do_dialogue</title>
<ellipse fill="#ffffff" stroke="#000000" cx="40.69" cy="-18" rx="40.69" ry="18"/>
<text text-anchor="middle" x="40.69" y="-13.32" font-family="Times,serif" font-size="14.00">Woof!</text>
</g>
<!-- start&#45;&gt;do_dialogue -->
<g id="edge1" class="edge">
<title>start&#45;&gt;do_dialogue</title>
<path fill="none" stroke="#555555" stroke-dasharray="1,5" d="M79.18,-81.25C71.01,-68.03 63.22,-55.44 56.82,-45.08"/>
<polygon fill="#555555" stroke="#555555" points="59.37,-43.55 51.13,-36.89 53.41,-47.23 59.37,-43.55"/>
</g>
<!-- growl -->
<g id="node3" class="node">
<title>growl</title>
<ellipse fill="#ffffff" stroke="#000000" cx="136.69" cy="-18" rx="37.53" ry="18"/>
<text text-anchor="middle" x="136.69" y="-13.32" font-family="Times,serif" font-size="14.00">Grrr!</text>
</g>
<!-- start&#45;&gt;growl -->
<g id="edge2" class="edge">
<title>start&#45;&gt;growl</title>
<path fill="none" stroke="#555555" stroke-dasharray="1,5" d="M136.69,-71.56C136.69,-62.78 136.69,-54.49 136.69,-47.19"/>
<polygon fill="#555555" stroke="#555555" points="140.19,-47.28 136.69,-37.28 133.19,-47.28 140.19,-47.28"/>
</g>
<!-- follow_player -->
<g id="node4" class="node">
<title>follow_player</title>
<ellipse fill="#ffffff" stroke="#000000" cx="219.69" cy="-18" rx="27" ry="18"/>
</g>
<!-- start&#45;&gt;follow_player -->
<g id="edge3" class="edge">
<title>start&#45;&gt;follow_player</title>
<path fill="none" stroke="#555555" stroke-dasharray="1,5" d="M187.6,-79.02C194.27,-66.54 200.6,-54.69 205.85,-44.88"/>
<polygon fill="#555555" stroke="#555555" points="209.27,-46.91 210.9,-36.44 203.09,-43.61 209.27,-46.91"/>
</g>
</g>
</svg>
