<?xml version="1.0" encoding="UTF-8" standalone="no"?>
<!DOCTYPE svg PUBLIC "-//W3C//DTD SVG 1.1//EN"
 "http://www.w3.org/Graphics/SVG/1.1/DTD/svg11.dtd">
<!-- Generated by graphviz version 8.0.5 (0)
 -->
<!-- Title: DUC Pages: 1 -->
<svg width="1884pt" height="900pt"
 viewBox="0.00 0.00 1883.85 900.16" xmlns="http://www.w3.org/2000/svg" xmlns:xlink="http://www.w3.org/1999/xlink">
<g id="graph0" class="graph" transform="scale(1 1) rotate(0) translate(4 896.16)">
<title>DUC</title>
<polygon fill="white" stroke="none" points="-4,4 -4,-896.16 1879.85,-896.16 1879.85,4 -4,4"/>
<!-- start -->
<g id="node1" class="node">
<title>start</title>
<ellipse fill="#ffffff" stroke="#000000" cx="521" cy="-874.16" rx="27" ry="18"/>
</g>
<!-- critter_p_proc -->
<g id="node2" class="node">
<title>critter_p_proc</title>
<ellipse fill="#ffffff" stroke="#000000" cx="48" cy="-740.32" rx="27" ry="18"/>
</g>
<!-- start&#45;&gt;critter_p_proc -->
<g id="edge1" class="edge">
<title>start&#45;&gt;critter_p_proc</title>
<path fill="none" stroke="#555555" stroke-dasharray="1,5" d="M496.24,-866.26C417.78,-844.39 174.55,-776.59 83.17,-751.12"/>
<polygon fill="#555555" stroke="#555555" points="84.38,-747.54 73.8,-748.23 82.5,-754.29 84.38,-747.54"/>
</g>
<!-- damage_p_proc -->
<g id="node3" class="node">
<title>damage_p_proc</title>
<ellipse fill="#ffffff" stroke="#000000" cx="366" cy="-740.32" rx="27" ry="18"/>
</g>
<!-- start&#45;&gt;damage_p_proc -->
<g id="edge2" class="edge">
<title>start&#45;&gt;damage_p_proc</title>
<path fill="none" stroke="#555555" stroke-dasharray="1,5" d="M495.69,-867.27C469.31,-859.98 428.24,-845.21 402,-819.16 388.05,-805.3 378.91,-785.03 373.33,-768.64"/>
<polygon fill="#555555" stroke="#555555" points="376.5,-768.04 370.17,-759.54 369.82,-770.13 376.5,-768.04"/>
</g>
<!-- destroy_p_proc -->
<g id="node4" class="node">
<title>destroy_p_proc</title>
<ellipse fill="#ffffff" stroke="#000000" cx="438" cy="-740.32" rx="27" ry="18"/>
</g>
<!-- start&#45;&gt;destroy_p_proc -->
<g id="edge3" class="edge">
<title>start&#45;&gt;destroy_p_proc</title>
<path fill="none" stroke="#555555" stroke-dasharray="1,5" d="M506.62,-858.94C496.63,-848.54 483.46,-833.76 474,-819.16 463.61,-803.11 454.59,-783.59 448.17,-768.1"/>
<polygon fill="#555555" stroke="#555555" points="451.14,-767.1 444.17,-759.12 444.64,-769.71 451.14,-767.1"/>
</g>
<!-- look_at_p_proc -->
<g id="node5" class="node">
<title>look_at_p_proc</title>
<ellipse fill="#ffffff" stroke="#000000" cx="603" cy="-740.32" rx="119.5" ry="78.84"/>
<text text-anchor="middle" x="603" y="-778.77" font-family="Times,serif" font-size="14.00">You see a wandering</text>
<text text-anchor="middle" x="603" y="-761.52" font-family="Times,serif" font-size="14.00">merchant of Asian</text>
<text text-anchor="middle" x="603" y="-744.27" font-family="Times,serif" font-size="14.00">descent.</text>
<text text-anchor="middle" x="603" y="-727.02" font-family="Times,serif" font-size="14.00">&#45;&#45;&#45;</text>
<text text-anchor="middle" x="603" y="-709.77" font-family="Times,serif" font-size="14.00">You see Duc, the</text>
<text text-anchor="middle" x="603" y="-692.52" font-family="Times,serif" font-size="14.00">wandering merchant.</text>
</g>
<!-- start&#45;&gt;look_at_p_proc -->
<g id="edge4" class="edge">
<title>start&#45;&gt;look_at_p_proc</title>
<path fill="none" stroke="#555555" stroke-dasharray="1,5" d="M531.05,-856.99C536.72,-847.89 544.27,-835.75 552.34,-822.76"/>
<polygon fill="#555555" stroke="#555555" points="555.69,-825 558,-814.66 549.75,-821.3 555.69,-825"/>
</g>
<!-- pickup_p_proc -->
<g id="node6" class="node">
<title>pickup_p_proc</title>
<ellipse fill="#ffffff" stroke="#000000" cx="768" cy="-740.32" rx="27" ry="18"/>
</g>
<!-- start&#45;&gt;pickup_p_proc -->
<g id="edge5" class="edge">
<title>start&#45;&gt;pickup_p_proc</title>
<path fill="none" stroke="#555555" stroke-dasharray="1,5" d="M548.28,-873.33C591.98,-872.18 678.23,-863.91 732,-819.16 747.3,-806.42 756.44,-785.76 761.68,-768.92"/>
<polygon fill="#555555" stroke="#555555" points="765.26,-770.1 764.58,-759.52 758.52,-768.21 765.26,-770.1"/>
</g>
<!-- talk_p_proc -->
<g id="node7" class="node">
<title>talk_p_proc</title>
<ellipse fill="#ffffff" stroke="#000000" cx="963" cy="-740.32" rx="27" ry="18"/>
</g>
<!-- start&#45;&gt;talk_p_proc -->
<g id="edge6" class="edge">
<title>start&#45;&gt;talk_p_proc</title>
<path fill="none" stroke="#555555" stroke-dasharray="1,5" d="M547.84,-870.75C598.93,-865.57 713.19,-851.16 804,-819.16 851.08,-802.56 902.42,-775.69 933.67,-758.26"/>
<polygon fill="#555555" stroke="#555555" points="935.08,-760.92 942.08,-752.96 931.65,-754.82 935.08,-760.92"/>
</g>
<!-- flee_dude -->
<g id="node8" class="node">
<title>flee_dude</title>
<ellipse fill="#ffffff" stroke="#000000" cx="27" cy="-533.43" rx="27" ry="18"/>
</g>
<!-- critter_p_proc&#45;&gt;flee_dude -->
<g id="edge7" class="edge">
<title>critter_p_proc&#45;&gt;flee_dude</title>
<path fill="none" stroke="#555555" stroke-dasharray="1,5" d="M46.25,-722.2C42.62,-686.87 34.29,-605.59 29.87,-562.48"/>
<polygon fill="#555555" stroke="#555555" points="33.27,-562.24 28.76,-552.64 26.3,-562.95 33.27,-562.24"/>
</g>
<!-- get_reaction -->
<g id="node9" class="node">
<title>get_reaction</title>
<ellipse fill="#ffffff" stroke="#000000" cx="1355" cy="-406.39" rx="27" ry="18"/>
</g>
<!-- talk_p_proc&#45;&gt;get_reaction -->
<g id="edge8" class="edge">
<title>talk_p_proc&#45;&gt;get_reaction</title>
<path fill="none" stroke="#555555" stroke-dasharray="1,5" d="M969.83,-722.72C978.18,-704.64 994.09,-676.32 1017,-661.47 1091.76,-613.03 1150.38,-686.83 1214,-624.47 1273.04,-566.61 1197.21,-504.3 1252,-442.39 1261.09,-432.12 1293.02,-422.24 1318.95,-415.61"/>
<polygon fill="#555555" stroke="#555555" points="1319.74,-418.77 1328.61,-412.98 1318.06,-411.98 1319.74,-418.77"/>
</g>
<!-- Duc09 -->
<g id="node10" class="node">
<title>Duc09</title>
<ellipse fill="#ffffff" stroke="#000000" cx="1408" cy="-533.43" rx="146.55" ry="66.64"/>
<text text-anchor="middle" x="1408" y="-563.26" font-family="Times,serif" font-size="14.00">You should be careful if</text>
<text text-anchor="middle" x="1408" y="-546.01" font-family="Times,serif" font-size="14.00">you&#39;re traveling alone.</text>
<text text-anchor="middle" x="1408" y="-528.76" font-family="Times,serif" font-size="14.00">Some people went missing</text>
<text text-anchor="middle" x="1408" y="-511.51" font-family="Times,serif" font-size="14.00">from Shady Sands</text>
<text text-anchor="middle" x="1408" y="-494.26" font-family="Times,serif" font-size="14.00">recently.</text>
</g>
<!-- talk_p_proc&#45;&gt;Duc09 -->
<g id="edge9" class="edge">
<title>talk_p_proc&#45;&gt;Duc09</title>
<path fill="none" stroke="#555555" stroke-dasharray="1,5" d="M969.4,-722.59C977.46,-704.11 993.18,-675.15 1017,-661.47 1061.46,-635.95 1198.61,-660.41 1247,-643.47 1276.22,-633.25 1305.16,-616.36 1330.27,-598.89"/>
<polygon fill="#555555" stroke="#555555" points="1331.86,-601.34 1337.99,-592.7 1327.81,-595.64 1331.86,-601.34"/>
</g>
<!-- Duc10 -->
<g id="node11" class="node">
<title>Duc10</title>
<ellipse fill="#ffffff" stroke="#000000" cx="1724" cy="-533.43" rx="151.85" ry="42.25"/>
<text text-anchor="middle" x="1724" y="-546.01" font-family="Times,serif" font-size="14.00">Hey, I heard about how</text>
<text text-anchor="middle" x="1724" y="-528.76" font-family="Times,serif" font-size="14.00">you saved that woman from</text>
<text text-anchor="middle" x="1724" y="-511.51" font-family="Times,serif" font-size="14.00"> Shady Sands. Good work.</text>
</g>
<!-- talk_p_proc&#45;&gt;Duc10 -->
<g id="edge10" class="edge">
<title>talk_p_proc&#45;&gt;Duc10</title>
<path fill="none" stroke="#555555" stroke-dasharray="1,5" d="M969.38,-722.55C977.41,-704.02 993.11,-675.02 1017,-661.47 1030.25,-653.96 1549.41,-628.83 1564,-624.47 1597.61,-614.44 1631.9,-596.39 1660.06,-579.07"/>
<polygon fill="#555555" stroke="#555555" points="1661.76,-581.52 1668.37,-573.24 1658.04,-575.59 1661.76,-581.52"/>
</g>
<!-- Duc01 -->
<g id="node12" class="node">
<title>Duc01</title>
<ellipse fill="#ffffff" stroke="#000000" cx="750" cy="-533.43" rx="139.12" ry="78.84"/>
<text text-anchor="middle" x="750" y="-571.88" font-family="Times,serif" font-size="14.00">Well hello, wanderer. My</text>
<text text-anchor="middle" x="750" y="-554.63" font-family="Times,serif" font-size="14.00">name&#39;s Duc, and I&#39;m</text>
<text text-anchor="middle" x="750" y="-537.38" font-family="Times,serif" font-size="14.00">headed into Shady Sands</text>
<text text-anchor="middle" x="750" y="-520.13" font-family="Times,serif" font-size="14.00">to do some trading.</text>
<text text-anchor="middle" x="750" y="-502.88" font-family="Times,serif" font-size="14.00">Perhaps I can interest</text>
<text text-anchor="middle" x="750" y="-485.63" font-family="Times,serif" font-size="14.00">you in some goods?</text>
</g>
<!-- talk_p_proc&#45;&gt;Duc01 -->
<g id="edge11" class="edge">
<title>talk_p_proc&#45;&gt;Duc01</title>
<path fill="none" stroke="#555555" stroke-dasharray="1,5" d="M948.02,-724.91C923.19,-701.02 871.84,-651.63 827.66,-609.13"/>
<polygon fill="#555555" stroke="#555555" points="830.42,-606.97 820.78,-602.56 825.56,-612.01 830.42,-606.97"/>
</g>
<!-- Duc06 -->
<g id="node13" class="node">
<title>Duc06</title>
<ellipse fill="#ffffff" stroke="#000000" cx="1056" cy="-533.43" rx="148.67" ry="91.04"/>
<text text-anchor="middle" x="1056" y="-580.51" font-family="Times,serif" font-size="14.00">Not many people brave the</text>
<text text-anchor="middle" x="1056" y="-563.26" font-family="Times,serif" font-size="14.00">wastes alone. Who are</text>
<text text-anchor="middle" x="1056" y="-546.01" font-family="Times,serif" font-size="14.00">you?</text>
<text text-anchor="middle" x="1056" y="-528.76" font-family="Times,serif" font-size="14.00">&#45;&#45;&#45;</text>
<text text-anchor="middle" x="1056" y="-511.51" font-family="Times,serif" font-size="14.00">I&#39;m </text>
<text text-anchor="middle" x="1056" y="-494.26" font-family="Times,serif" font-size="14.00">&#45;&#45;&#45;</text>
<text text-anchor="middle" x="1056" y="-477.01" font-family="Times,serif" font-size="14.00">.</text>
</g>
<!-- talk_p_proc&#45;&gt;Duc06 -->
<g id="edge12" class="edge">
<title>talk_p_proc&#45;&gt;Duc06</title>
<path fill="none" stroke="#555555" stroke-dasharray="1,5" d="M970.61,-722.55C979.85,-702.2 996.18,-666.22 1012.1,-631.15"/>
<polygon fill="#555555" stroke="#555555" points="1015.62,-632.85 1016.57,-622.3 1009.25,-629.96 1015.62,-632.85"/>
</g>
<!-- Duc07 -->
<g id="node14" class="node">
<title>Duc07</title>
<ellipse fill="#ffffff" stroke="#000000" cx="202" cy="-533.43" rx="130.11" ry="30.05"/>
<text text-anchor="middle" x="202" y="-537.38" font-family="Times,serif" font-size="14.00">Hello again! What can I</text>
<text text-anchor="middle" x="202" y="-520.13" font-family="Times,serif" font-size="14.00">do for you?</text>
</g>
<!-- talk_p_proc&#45;&gt;Duc07 -->
<g id="edge13" class="edge">
<title>talk_p_proc&#45;&gt;Duc07</title>
<path fill="none" stroke="#555555" stroke-dasharray="1,5" d="M944.34,-727.28C915.54,-709.39 857.93,-676.31 804,-661.47 706.61,-634.69 447.11,-655.53 351,-624.47 313.24,-612.27 275.02,-588.9 246.75,-569.03"/>
<polygon fill="#555555" stroke="#555555" points="249.1,-565.69 238.93,-562.72 245.02,-571.39 249.1,-565.69"/>
</g>
<!-- Duc08 -->
<g id="node15" class="node">
<title>Duc08</title>
<ellipse fill="#ffffff" stroke="#000000" cx="467" cy="-533.43" rx="106.98" ry="18"/>
<text text-anchor="middle" x="467" y="-528.76" font-family="Times,serif" font-size="14.00">What do you want?</text>
</g>
<!-- talk_p_proc&#45;&gt;Duc08 -->
<g id="edge14" class="edge">
<title>talk_p_proc&#45;&gt;Duc08</title>
<path fill="none" stroke="#555555" stroke-dasharray="1,5" d="M943.66,-727.67C914.44,-710.58 856.84,-678.88 804,-661.47 717.31,-632.92 686.6,-658.72 602,-624.47 561.65,-608.14 520.82,-578.71 494.8,-557.96"/>
<polygon fill="#555555" stroke="#555555" points="497.53,-554.86 487.56,-551.28 493.12,-560.3 497.53,-554.86"/>
</g>
<!-- ReactToLevel -->
<g id="node23" class="node">
<title>ReactToLevel</title>
<ellipse fill="#ffffff" stroke="#000000" cx="1086" cy="-153.8" rx="27" ry="18"/>
</g>
<!-- get_reaction&#45;&gt;ReactToLevel -->
<g id="edge31" class="edge">
<title>get_reaction&#45;&gt;ReactToLevel</title>
<path fill="none" stroke="#555555" stroke-dasharray="1,5" d="M1366.78,-389.85C1370.49,-384.06 1374.11,-377.22 1376,-370.39 1391.81,-313.3 1411.72,-284.37 1376,-237.1 1345.38,-196.58 1194.45,-170.19 1123.28,-159.8"/>
<polygon fill="#555555" stroke="#555555" points="1123.96,-156.22 1113.57,-158.27 1122.97,-163.15 1123.96,-156.22"/>
</g>
<!-- UpReact -->
<g id="node22" class="node">
<title>UpReact</title>
<ellipse fill="#ffffff" stroke="#000000" cx="1592" cy="-303.75" rx="27" ry="18"/>
</g>
<!-- Duc10&#45;&gt;UpReact -->
<g id="edge29" class="edge">
<title>Duc10&#45;&gt;UpReact</title>
<path fill="none" stroke="#555555" stroke-dasharray="1,5" d="M1700.25,-491.47C1673.14,-444.71 1629.63,-369.65 1606.91,-330.46"/>
<polygon fill="#555555" stroke="#555555" points="1609.51,-328.98 1601.47,-322.08 1603.46,-332.49 1609.51,-328.98"/>
</g>
<!-- Duc02 -->
<g id="node16" class="node">
<title>Duc02</title>
<ellipse fill="#ffffff" stroke="#000000" cx="496" cy="-303.75" rx="99.08" ry="18"/>
<text text-anchor="middle" x="496" y="-299.07" font-family="Times,serif" font-size="14.00">Let me show you.</text>
</g>
<!-- Duc01&#45;&gt;Duc02 -->
<g id="edge15" class="edge">
<title>Duc01&#45;&gt;Duc02</title>
<path fill="none" stroke="#998100" d="M648.31,-479.15C623.6,-463.48 598.38,-444.95 577.75,-424.39 564.34,-411.03 565.51,-404.13 555,-388.39 541.84,-368.69 526.39,-346.83 514.6,-330.4"/>
<polygon fill="#998100" stroke="#998100" points="517.14,-328.94 508.46,-322.87 511.46,-333.03 517.14,-328.94"/>
<text text-anchor="middle" x="654.12" y="-410.34" font-family="Times,serif" font-size="14.00" fill="#998100">What do you have for</text>
<text text-anchor="middle" x="654.12" y="-393.09" font-family="Times,serif" font-size="14.00" fill="#998100">sale?</text>
</g>
<!-- Duc03 -->
<g id="node17" class="node">
<title>Duc03</title>
<ellipse fill="#ffffff" stroke="#000000" cx="755" cy="-303.75" rx="141.77" ry="66.64"/>
<text text-anchor="middle" x="755" y="-333.57" font-family="Times,serif" font-size="14.00">Yes, Shady Sands is part</text>
<text text-anchor="middle" x="755" y="-316.32" font-family="Times,serif" font-size="14.00">of my normal trade route.</text>
<text text-anchor="middle" x="755" y="-299.07" font-family="Times,serif" font-size="14.00">You can travel</text>
<text text-anchor="middle" x="755" y="-281.82" font-family="Times,serif" font-size="14.00">there with us for safety</text>
<text text-anchor="middle" x="755" y="-264.57" font-family="Times,serif" font-size="14.00">if you like.</text>
</g>
<!-- Duc01&#45;&gt;Duc03 -->
<g id="edge16" class="edge">
<title>Duc01&#45;&gt;Duc03</title>
<path fill="none" stroke="#540099" d="M777.96,-455.78C782.88,-434.1 785.47,-410.41 782,-388.39 781.57,-385.69 781.08,-382.95 780.52,-380.2"/>
<polygon fill="#540099" stroke="#540099" points="783.73,-379.54 778.09,-370.57 776.9,-381.1 783.73,-379.54"/>
<text text-anchor="middle" x="877.38" y="-410.34" font-family="Times,serif" font-size="14.00" fill="#540099">Do you go to Shady Sands</text>
<text text-anchor="middle" x="877.38" y="-393.09" font-family="Times,serif" font-size="14.00" fill="#540099">often?</text>
</g>
<!-- Duc04 -->
<g id="node18" class="node">
<title>Duc04</title>
<ellipse fill="#ffffff" stroke="#000000" cx="1249" cy="-303.75" rx="118.44" ry="42.25"/>
<text text-anchor="middle" x="1249" y="-316.32" font-family="Times,serif" font-size="14.00">Oh, sorry &#45;&#45; didn&#39;t</text>
<text text-anchor="middle" x="1249" y="-299.07" font-family="Times,serif" font-size="14.00">realize you were that</text>
<text text-anchor="middle" x="1249" y="-281.82" font-family="Times,serif" font-size="14.00">stupid.</text>
</g>
<!-- Duc01&#45;&gt;Duc04 -->
<g id="edge17" class="edge">
<title>Duc01&#45;&gt;Duc04</title>
<path fill="none" stroke="#009928" d="M838.8,-472.22C857.76,-461.15 878.09,-450.53 898,-442.39 930.53,-429.09 943.43,-439.84 975,-424.39 997.85,-413.22 996.34,-398.93 1019.5,-388.39 1061.6,-369.24 1078.18,-385.18 1122,-370.39 1141.24,-363.9 1161.15,-354.86 1179.34,-345.55"/>
<polygon fill="#009928" stroke="#009928" points="1180.72,-348.26 1187.96,-340.52 1177.48,-342.05 1180.72,-348.26"/>
<text text-anchor="middle" x="1034.25" y="-401.72" font-family="Times,serif" font-size="14.00" fill="#009928">Erf!</text>
</g>
<!-- Duc06&#45;&gt;Duc04 -->
<g id="edge21" class="edge">
<title>Duc06&#45;&gt;Duc04</title>
<path fill="none" stroke="#99008b" d="M1047.46,-442.31C1049.7,-422.92 1055.49,-403.68 1067.5,-388.39 1083.26,-368.33 1098.49,-380.28 1122,-370.39 1139.95,-362.84 1158.83,-353.76 1176.38,-344.78"/>
<polygon fill="#99008b" stroke="#99008b" points="1177.71,-347.52 1184.98,-339.82 1174.49,-341.3 1177.71,-347.52"/>
<text text-anchor="middle" x="1149.75" y="-401.72" font-family="Times,serif" font-size="14.00" fill="#99008b">None of your business.</text>
</g>
<!-- Duc06&#45;&gt;Duc04 -->
<g id="edge22" class="edge">
<title>Duc06&#45;&gt;Duc04</title>
<path fill="none" stroke="#00997a" d="M1174.86,-478.78C1196.52,-464.03 1216.74,-446 1231,-424.39 1243.92,-404.82 1248.99,-379.57 1250.61,-357.31"/>
<polygon fill="#00997a" stroke="#00997a" points="1254.15,-357.49 1251.15,-347.33 1247.16,-357.14 1254.15,-357.49"/>
<text text-anchor="middle" x="1259.25" y="-401.72" font-family="Times,serif" font-size="14.00" fill="#00997a">Erf!</text>
</g>
<!-- Duc07&#45;&gt;Duc02 -->
<g id="edge24" class="edge">
<title>Duc07&#45;&gt;Duc02</title>
<path fill="none" stroke="#210099" d="M201.43,-503.16C202.49,-470.25 209.58,-417.6 241.75,-388.39 276.24,-357.09 300.38,-383.77 345,-370.39 383.25,-358.92 424.73,-340.42 454.51,-325.98"/>
<polygon fill="#210099" stroke="#210099" points="455.71,-328.8 463.14,-321.25 452.62,-322.52 455.71,-328.8"/>
<text text-anchor="middle" x="318.12" y="-410.34" font-family="Times,serif" font-size="14.00" fill="#210099">What do you have for</text>
<text text-anchor="middle" x="318.12" y="-393.09" font-family="Times,serif" font-size="14.00" fill="#210099">sale?</text>
</g>
<!-- Duc05 -->
<g id="node20" class="node">
<title>Duc05</title>
<ellipse fill="#ffffff" stroke="#000000" cx="202" cy="-153.8" rx="135.41" ry="30.05"/>
<text text-anchor="middle" x="202" y="-157.75" font-family="Times,serif" font-size="14.00">It should only take a day</text>
<text text-anchor="middle" x="202" y="-140.5" font-family="Times,serif" font-size="14.00">or so. Let&#39;s go!</text>
</g>
<!-- Duc07&#45;&gt;Duc05 -->
<g id="edge23" class="edge">
<title>Duc07&#45;&gt;Duc05</title>
<path fill="none" stroke="#994e00" d="M196.31,-503C186.85,-449.77 170,-334.04 181.75,-237.1 183.45,-223.04 186.74,-207.92 190.18,-194.52"/>
<polygon fill="#994e00" stroke="#994e00" points="193.74,-195.76 192.94,-185.2 186.97,-193.95 193.74,-195.76"/>
<text text-anchor="middle" x="268.62" y="-307.7" font-family="Times,serif" font-size="14.00" fill="#994e00">May I join your group to</text>
<text text-anchor="middle" x="268.62" y="-290.45" font-family="Times,serif" font-size="14.00" fill="#994e00">Shady Sands?</text>
</g>
<!-- DucEnd -->
<g id="node21" class="node">
<title>DucEnd</title>
<ellipse fill="#ffffff" stroke="#000000" cx="396" cy="-18" rx="27" ry="18"/>
</g>
<!-- Duc07&#45;&gt;DucEnd -->
<g id="edge25" class="edge">
<title>Duc07&#45;&gt;DucEnd</title>
<path fill="none" stroke="#0c9900" d="M175.09,-503.73C112.1,-433 -32.94,-247.14 58,-123.75 94.33,-74.45 279.08,-38.41 359.04,-24.87"/>
<polygon fill="#0c9900" stroke="#0c9900" points="359.31,-28.21 368.6,-23.11 358.16,-21.3 359.31,-28.21"/>
<text text-anchor="middle" x="89.62" y="-205.8" font-family="Times,serif" font-size="14.00" fill="#0c9900">Nothing, thanks.</text>
</g>
<!-- Duc08&#45;&gt;Duc02 -->
<g id="edge27" class="edge">
<title>Duc08&#45;&gt;Duc02</title>
<path fill="none" stroke="#006599" d="M449.74,-515.58C424.39,-488.68 382.21,-434.4 402.75,-388.39 414.18,-362.79 437.75,-341.76 458.33,-327.19"/>
<polygon fill="#006599" stroke="#006599" points="459.91,-329.67 466.22,-321.16 455.98,-323.88 459.91,-329.67"/>
<text text-anchor="middle" x="479.12" y="-410.34" font-family="Times,serif" font-size="14.00" fill="#006599">What do you have for</text>
<text text-anchor="middle" x="479.12" y="-393.09" font-family="Times,serif" font-size="14.00" fill="#006599">sale?</text>
</g>
<!-- Duc08&#45;&gt;Duc04 -->
<g id="edge28" class="edge">
<title>Duc08&#45;&gt;Duc04</title>
<path fill="none" stroke="#929900" d="M486.44,-515.28C511.34,-494.36 556.72,-459.64 602,-442.39 655.69,-421.94 682.82,-457.16 730,-424.39 744.95,-414.01 734.1,-398.08 749.5,-388.39 784.58,-366.34 1081.98,-381.15 1122,-370.39 1142.41,-364.91 1163.3,-355.8 1182.08,-346.1"/>
<polygon fill="#929900" stroke="#929900" points="1183.51,-348.77 1190.7,-340.99 1180.22,-342.59 1183.51,-348.77"/>
<text text-anchor="middle" x="764.25" y="-401.72" font-family="Times,serif" font-size="14.00" fill="#929900">Erf!</text>
</g>
<!-- Duc08&#45;&gt;DucEnd -->
<g id="edge26" class="edge">
<title>Duc08&#45;&gt;DucEnd</title>
<path fill="none" stroke="#990038" d="M451.54,-515.15C434.42,-494.94 407.45,-459.73 394,-424.39 358.55,-331.25 358.54,-301.19 366.5,-201.85 370.94,-146.47 382.83,-82.54 390.08,-46.84"/>
<polygon fill="#990038" stroke="#990038" points="393.67,-47.79 392.26,-37.28 386.81,-46.37 393.67,-47.79"/>
<text text-anchor="middle" x="420.25" y="-205.8" font-family="Times,serif" font-size="14.00" fill="#990038">Nothing, sorry.</text>
</g>
<!-- DucBarter -->
<g id="node19" class="node">
<title>DucBarter</title>
<ellipse fill="#ffffff" stroke="#000000" cx="461" cy="-153.8" rx="27" ry="18"/>
</g>
<!-- Duc02&#45;&gt;DucBarter -->
<g id="edge18" class="edge">
<title>Duc02&#45;&gt;DucBarter</title>
<path fill="none" stroke="#990005" d="M493.51,-285.45C490.41,-265.22 484.61,-230.82 477,-201.85 475.29,-195.33 473.13,-188.41 470.96,-181.93"/>
<polygon fill="#990005" stroke="#990005" points="473.96,-180.91 467.36,-172.61 467.35,-183.21 473.96,-180.91"/>
<text text-anchor="middle" x="543.62" y="-205.8" font-family="Times,serif" font-size="14.00" fill="#990005">Let me show you.</text>
</g>
<!-- Duc03&#45;&gt;Duc05 -->
<g id="edge19" class="edge">
<title>Duc03&#45;&gt;Duc05</title>
<path fill="none" stroke="#003299" d="M687.16,-244.89C664.08,-228.23 637.2,-211.86 610,-201.85 532.47,-173.34 507.08,-193.19 425,-183.85 393.11,-180.23 358.71,-175.93 326.69,-171.77"/>
<polygon fill="#003299" stroke="#003299" points="327.3,-168.19 316.93,-170.37 326.39,-175.14 327.3,-168.19"/>
<text text-anchor="middle" x="713.25" y="-205.8" font-family="Times,serif" font-size="14.00" fill="#003299">Sure, sounds good.</text>
</g>
<!-- Duc03&#45;&gt;DucEnd -->
<g id="edge20" class="edge">
<title>Duc03&#45;&gt;DucEnd</title>
<path fill="none" stroke="#5e9900" d="M788.51,-238.5C791.03,-226.05 790.69,-213.31 785,-201.85 736.62,-104.45 689.59,-97.71 590,-54 538.98,-31.6 474.39,-23.54 434.12,-20.63"/>
<polygon fill="#5e9900" stroke="#5e9900" points="434.4,-17.08 424.19,-19.93 433.95,-24.07 434.4,-17.08"/>
<text text-anchor="middle" x="816.88" y="-149.13" font-family="Times,serif" font-size="14.00" fill="#5e9900">No, thanks.</text>
</g>
<!-- DucBarter&#45;&gt;DucEnd -->
<g id="edge30" class="edge">
<title>DucBarter&#45;&gt;DucEnd</title>
<path fill="none" stroke="#740099" d="M452.9,-136.13C441.79,-113.27 421.73,-71.97 408.64,-45.02"/>
<polygon fill="#740099" stroke="#740099" points="411.52,-43.93 404,-36.47 405.22,-46.99 411.52,-43.93"/>
<text text-anchor="middle" x="512.5" y="-92.45" font-family="Times,serif" font-size="14.00" fill="#740099">You see a wandering</text>
<text text-anchor="middle" x="512.5" y="-75.2" font-family="Times,serif" font-size="14.00" fill="#740099">merchant of Asian</text>
<text text-anchor="middle" x="512.5" y="-57.95" font-family="Times,serif" font-size="14.00" fill="#740099">descent.</text>
</g>
<!-- UpReact&#45;&gt;ReactToLevel -->
<g id="edge32" class="edge">
<title>UpReact&#45;&gt;ReactToLevel</title>
<path fill="none" stroke="#555555" stroke-dasharray="1,5" d="M1574.31,-290.12C1542.77,-268.28 1474,-223.7 1409,-201.85 1309.63,-168.45 1185.22,-158.76 1123.84,-155.95"/>
<polygon fill="#555555" stroke="#555555" points="1124.27,-152.42 1114.13,-155.5 1123.97,-159.41 1124.27,-152.42"/>
</g>
<!-- LevelToReact -->
<g id="node24" class="node">
<title>LevelToReact</title>
<ellipse fill="#ffffff" stroke="#000000" cx="1053" cy="-740.32" rx="27" ry="18"/>
</g>
<!-- DownReact -->
<g id="node25" class="node">
<title>DownReact</title>
<ellipse fill="#ffffff" stroke="#000000" cx="942" cy="-303.75" rx="27" ry="18"/>
</g>
<!-- DownReact&#45;&gt;ReactToLevel -->
<g id="edge33" class="edge">
<title>DownReact&#45;&gt;ReactToLevel</title>
<path fill="none" stroke="#555555" stroke-dasharray="1,5" d="M948.86,-285.91C955.11,-271.88 965.28,-251.88 978,-237.1 1000.84,-210.56 1033.53,-187.11 1056.96,-172.1"/>
<polygon fill="#555555" stroke="#555555" points="1058.45,-174.67 1065.06,-166.39 1054.73,-168.74 1058.45,-174.67"/>
</g>
<!-- BottomReact -->
<g id="node26" class="node">
<title>BottomReact</title>
<ellipse fill="#ffffff" stroke="#000000" cx="1134" cy="-874.16" rx="27" ry="18"/>
</g>
<!-- TopReact -->
<g id="node27" class="node">
<title>TopReact</title>
<ellipse fill="#ffffff" stroke="#000000" cx="1206" cy="-874.16" rx="27" ry="18"/>
</g>
<!-- BigUpReact -->
<g id="node28" class="node">
<title>BigUpReact</title>
<ellipse fill="#ffffff" stroke="#000000" cx="1014" cy="-303.75" rx="27" ry="18"/>
</g>
<!-- BigUpReact&#45;&gt;ReactToLevel -->
<g id="edge34" class="edge">
<title>BigUpReact&#45;&gt;ReactToLevel</title>
<path fill="none" stroke="#555555" stroke-dasharray="1,5" d="M1021.98,-286.35C1034.41,-260.8 1058.52,-211.27 1073.34,-180.81"/>
<polygon fill="#555555" stroke="#555555" points="1076.76,-182.8 1077.98,-172.27 1070.46,-179.73 1076.76,-182.8"/>
</g>
<!-- BigDownReact -->
<g id="node29" class="node">
<title>BigDownReact</title>
<ellipse fill="#ffffff" stroke="#000000" cx="1086" cy="-303.75" rx="27" ry="18"/>
</g>
<!-- BigDownReact&#45;&gt;ReactToLevel -->
<g id="edge35" class="edge">
<title>BigDownReact&#45;&gt;ReactToLevel</title>
<path fill="none" stroke="#555555" stroke-dasharray="1,5" d="M1086,-285.49C1086,-260.21 1086,-212.85 1086,-182.62"/>
<polygon fill="#555555" stroke="#555555" points="1089.5,-182.95 1086,-172.95 1082.5,-182.95 1089.5,-182.95"/>
</g>
<!-- UpReactLevel -->
<g id="node30" class="node">
<title>UpReactLevel</title>
<ellipse fill="#ffffff" stroke="#000000" cx="990" cy="-874.16" rx="27" ry="18"/>
</g>
<!-- UpReactLevel&#45;&gt;LevelToReact -->
<g id="edge36" class="edge">
<title>UpReactLevel&#45;&gt;LevelToReact</title>
<path fill="none" stroke="#555555" stroke-dasharray="1,5" d="M997.98,-856.46C1008.68,-834.07 1027.79,-794.08 1040.43,-767.63"/>
<polygon fill="#555555" stroke="#555555" points="1043.93,-769.41 1045.09,-758.88 1037.62,-766.39 1043.93,-769.41"/>
</g>
<!-- DownReactLevel -->
<g id="node31" class="node">
<title>DownReactLevel</title>
<ellipse fill="#ffffff" stroke="#000000" cx="1062" cy="-874.16" rx="27" ry="18"/>
</g>
<!-- DownReactLevel&#45;&gt;LevelToReact -->
<g id="edge37" class="edge">
<title>DownReactLevel&#45;&gt;LevelToReact</title>
<path fill="none" stroke="#555555" stroke-dasharray="1,5" d="M1060.82,-855.92C1059.32,-833.91 1056.7,-795.54 1054.91,-769.31"/>
<polygon fill="#555555" stroke="#555555" points="1058.35,-769.29 1054.18,-759.56 1051.37,-769.77 1058.35,-769.29"/>
</g>
<!-- Goodbyes -->
<g id="node32" class="node">
<title>Goodbyes</title>
<ellipse fill="#ffffff" stroke="#000000" cx="1278" cy="-874.16" rx="27" ry="18"/>
</g>
</g>
</svg>
