<?xml version="1.0" encoding="UTF-8" standalone="no"?>
<!DOCTYPE svg PUBLIC "-//W3C//DTD SVG 1.1//EN"
 "http://www.w3.org/Graphics/SVG/1.1/DTD/svg11.dtd">
<!-- Generated by graphviz version 8.0.5 (0)
 -->
<!-- Title: DUGAN Pages: 1 -->
<svg width="2091pt" height="564pt"
 viewBox="0.00 0.00 2091.00 564.26" xmlns="http://www.w3.org/2000/svg" xmlns:xlink="http://www.w3.org/1999/xlink">
<g id="graph0" class="graph" transform="scale(1 1) rotate(0) translate(4 560.26)">
<title>DUGAN</title>
<polygon fill="white" stroke="none" points="-4,4 -4,-560.26 2087,-560.26 2087,4 -4,4"/>
<!-- Start -->
<g id="node1" class="node">
<title>Start</title>
<ellipse fill="#ffffff" stroke="#000000" cx="165" cy="-453.03" rx="27" ry="18"/>
</g>
<!-- look_at_p_proc -->
<g id="node2" class="node">
<title>look_at_p_proc</title>
<ellipse fill="#ffffff" stroke="#000000" cx="350" cy="-453.03" rx="140.18" ry="103.24"/>
<text text-anchor="middle" x="350" y="-508.73" font-family="Times,serif" font-size="14.00">You see a very tall thin</text>
<text text-anchor="middle" x="350" y="-491.48" font-family="Times,serif" font-size="14.00">man with glasses.</text>
<text text-anchor="middle" x="350" y="-474.23" font-family="Times,serif" font-size="14.00">He has a bottle of</text>
<text text-anchor="middle" x="350" y="-456.98" font-family="Times,serif" font-size="14.00">Nuka&#45;Cola clutched in his</text>
<text text-anchor="middle" x="350" y="-439.73" font-family="Times,serif" font-size="14.00">hand.</text>
<text text-anchor="middle" x="350" y="-422.48" font-family="Times,serif" font-size="14.00">&#45;&#45;&#45;</text>
<text text-anchor="middle" x="350" y="-405.23" font-family="Times,serif" font-size="14.00">You see Dugan, craver of</text>
<text text-anchor="middle" x="350" y="-387.98" font-family="Times,serif" font-size="14.00">Nuka&#45;Cola.</text>
</g>
<!-- description_p_proc -->
<g id="node3" class="node">
<title>description_p_proc</title>
<ellipse fill="#ffffff" stroke="#000000" cx="648" cy="-453.03" rx="140.18" ry="103.24"/>
<text text-anchor="middle" x="648" y="-508.73" font-family="Times,serif" font-size="14.00">You see a very tall thin</text>
<text text-anchor="middle" x="648" y="-491.48" font-family="Times,serif" font-size="14.00">man with glasses.</text>
<text text-anchor="middle" x="648" y="-474.23" font-family="Times,serif" font-size="14.00">He has a bottle of</text>
<text text-anchor="middle" x="648" y="-456.98" font-family="Times,serif" font-size="14.00">Nuka&#45;Cola clutched in his</text>
<text text-anchor="middle" x="648" y="-439.73" font-family="Times,serif" font-size="14.00">hand.</text>
<text text-anchor="middle" x="648" y="-422.48" font-family="Times,serif" font-size="14.00">&#45;&#45;&#45;</text>
<text text-anchor="middle" x="648" y="-405.23" font-family="Times,serif" font-size="14.00">You see Dugan, craver of</text>
<text text-anchor="middle" x="648" y="-387.98" font-family="Times,serif" font-size="14.00">Nuka&#45;Cola.</text>
</g>
<!-- talk_p_proc -->
<g id="node4" class="node">
<title>talk_p_proc</title>
<ellipse fill="#ffffff" stroke="#000000" cx="944" cy="-453.03" rx="138.06" ry="54.45"/>
<text text-anchor="middle" x="944" y="-474.23" font-family="Times,serif" font-size="14.00">I am the dumbest person</text>
<text text-anchor="middle" x="944" y="-456.98" font-family="Times,serif" font-size="14.00">I&#39;ve ever met &#45; well,</text>
<text text-anchor="middle" x="944" y="-439.73" font-family="Times,serif" font-size="14.00">besides you. Get out of</text>
<text text-anchor="middle" x="944" y="-422.48" font-family="Times,serif" font-size="14.00">here!</text>
</g>
<!-- get_reaction -->
<g id="node5" class="node">
<title>get_reaction</title>
<ellipse fill="#ffffff" stroke="#000000" cx="1567" cy="-294.79" rx="27" ry="18"/>
</g>
<!-- talk_p_proc&#45;&gt;get_reaction -->
<g id="edge1" class="edge">
<title>talk_p_proc&#45;&gt;get_reaction</title>
<path fill="none" stroke="#555555" stroke-dasharray="1,5" d="M1045.85,-415.78C1110.27,-394 1195.69,-367.23 1273,-349.79 1386,-324.3 1420.06,-346.12 1531,-312.79 1532.77,-312.26 1534.57,-311.65 1536.37,-310.99"/>
<polygon fill="#555555" stroke="#555555" points="1537.6,-313.85 1545.48,-306.77 1534.9,-307.39 1537.6,-313.85"/>
</g>
<!-- Dugan01 -->
<g id="node6" class="node">
<title>Dugan01</title>
<ellipse fill="#ffffff" stroke="#000000" cx="896" cy="-294.79" rx="33.32" ry="18"/>
<text text-anchor="middle" x="896" y="-290.11" font-family="Times,serif" font-size="14.00">Yes?</text>
</g>
<!-- talk_p_proc&#45;&gt;Dugan01 -->
<g id="edge2" class="edge">
<title>talk_p_proc&#45;&gt;Dugan01</title>
<path fill="none" stroke="#555555" stroke-dasharray="1,5" d="M927.62,-398.7C919.83,-373.37 910.86,-344.16 904.47,-323.35"/>
<polygon fill="#555555" stroke="#555555" points="907.57,-322.55 901.29,-314.01 900.88,-324.6 907.57,-322.55"/>
</g>
<!-- ReactToLevel -->
<g id="node20" class="node">
<title>ReactToLevel</title>
<ellipse fill="#ffffff" stroke="#000000" cx="1510" cy="-139.64" rx="27" ry="18"/>
</g>
<!-- get_reaction&#45;&gt;ReactToLevel -->
<g id="edge14" class="edge">
<title>get_reaction&#45;&gt;ReactToLevel</title>
<path fill="none" stroke="#555555" stroke-dasharray="1,5" d="M1560.68,-276.82C1550.83,-250.34 1531.72,-199 1519.99,-167.48"/>
<polygon fill="#555555" stroke="#555555" points="1522.94,-166.38 1516.17,-158.23 1516.38,-168.82 1522.94,-166.38"/>
</g>
<!-- Dugan02 -->
<g id="node11" class="node">
<title>Dugan02</title>
<ellipse fill="#ffffff" stroke="#000000" cx="496" cy="-139.64" rx="129.58" ry="30.05"/>
<text text-anchor="middle" x="496" y="-143.59" font-family="Times,serif" font-size="14.00">Well, then stop wasting</text>
<text text-anchor="middle" x="496" y="-126.34" font-family="Times,serif" font-size="14.00">my time.</text>
</g>
<!-- Dugan01&#45;&gt;Dugan02 -->
<g id="edge3" class="edge">
<title>Dugan01&#45;&gt;Dugan02</title>
<path fill="none" stroke="#00995b" d="M862.52,-292.47C796.93,-289.43 654.09,-280.47 610.5,-258.79 573.69,-240.48 542.08,-205.42 521.46,-178.22"/>
<polygon fill="#00995b" stroke="#00995b" points="523.91,-176.66 515.15,-170.7 518.29,-180.82 523.91,-176.66"/>
<text text-anchor="middle" x="695.75" y="-245.49" font-family="Times,serif" font-size="14.00" fill="#00995b">I&#39;m just looking around,</text>
<text text-anchor="middle" x="695.75" y="-228.24" font-family="Times,serif" font-size="14.00" fill="#00995b">thanks.</text>
</g>
<!-- Dugan03 -->
<g id="node12" class="node">
<title>Dugan03</title>
<ellipse fill="#ffffff" stroke="#000000" cx="775" cy="-139.64" rx="131.17" ry="66.64"/>
<text text-anchor="middle" x="775" y="-169.47" font-family="Times,serif" font-size="14.00">I pontificate on life a</text>
<text text-anchor="middle" x="775" y="-152.22" font-family="Times,serif" font-size="14.00">lot, and help the Blades</text>
<text text-anchor="middle" x="775" y="-134.97" font-family="Times,serif" font-size="14.00">understand</text>
<text text-anchor="middle" x="775" y="-117.72" font-family="Times,serif" font-size="14.00">the true meaning of</text>
<text text-anchor="middle" x="775" y="-100.47" font-family="Times,serif" font-size="14.00">Nuka&#45;Cola.</text>
</g>
<!-- Dugan01&#45;&gt;Dugan03 -->
<g id="edge4" class="edge">
<title>Dugan01&#45;&gt;Dugan03</title>
<path fill="none" stroke="#992e00" d="M863.78,-289.64C843.32,-285.32 817.83,-276.55 802.25,-258.79 791.99,-247.09 785.38,-232.29 781.17,-217.16"/>
<polygon fill="#992e00" stroke="#992e00" points="784.38,-216.56 778.63,-207.67 777.58,-218.21 784.38,-216.56"/>
<text text-anchor="middle" x="885.88" y="-245.49" font-family="Times,serif" font-size="14.00" fill="#992e00">What do you do around</text>
<text text-anchor="middle" x="885.88" y="-228.24" font-family="Times,serif" font-size="14.00" fill="#992e00">here?</text>
</g>
<!-- Dugan05 -->
<g id="node13" class="node">
<title>Dugan05</title>
<ellipse fill="#ffffff" stroke="#000000" cx="1048" cy="-139.64" rx="123.74" ry="66.64"/>
<text text-anchor="middle" x="1048" y="-169.47" font-family="Times,serif" font-size="14.00">It is the stuff of life .</text>
<text text-anchor="middle" x="1048" y="-152.22" font-family="Times,serif" font-size="14.00">. . Well actually, if I</text>
<text text-anchor="middle" x="1048" y="-134.97" font-family="Times,serif" font-size="14.00">don&#39;t drink it on</text>
<text text-anchor="middle" x="1048" y="-117.72" font-family="Times,serif" font-size="14.00">an hourly basis I get a</text>
<text text-anchor="middle" x="1048" y="-100.47" font-family="Times,serif" font-size="14.00">splitting headache.</text>
</g>
<!-- Dugan01&#45;&gt;Dugan05 -->
<g id="edge5" class="edge">
<title>Dugan01&#45;&gt;Dugan05</title>
<path fill="none" stroke="#010099" d="M923.65,-284.33C937.95,-278.5 955.08,-269.99 968,-258.79 976.97,-251.02 990.43,-232.51 1003.77,-212.4"/>
<polygon fill="#010099" stroke="#010099" points="1007.12,-214.67 1009.66,-204.39 1001.26,-210.84 1007.12,-214.67"/>
<text text-anchor="middle" x="1050.25" y="-245.49" font-family="Times,serif" font-size="14.00" fill="#010099">What&#39;s with the</text>
<text text-anchor="middle" x="1050.25" y="-228.24" font-family="Times,serif" font-size="14.00" fill="#010099">Nuka&#45;Cola?</text>
</g>
<!-- Dugan08 -->
<g id="node14" class="node">
<title>Dugan08</title>
<ellipse fill="#ffffff" stroke="#000000" cx="1327" cy="-139.64" rx="137.53" ry="30.05"/>
<text text-anchor="middle" x="1327" y="-143.59" font-family="Times,serif" font-size="14.00">Razor&#39;s the woman you&#39;ll</text>
<text text-anchor="middle" x="1327" y="-126.34" font-family="Times,serif" font-size="14.00">want to talk to.</text>
</g>
<!-- Dugan01&#45;&gt;Dugan08 -->
<g id="edge6" class="edge">
<title>Dugan01&#45;&gt;Dugan08</title>
<path fill="none" stroke="#2b9900" d="M929.69,-293.32C977.62,-291.69 1067.58,-285.02 1139,-258.79 1192.6,-239.1 1247.11,-202.64 1283.54,-175.41"/>
<polygon fill="#2b9900" stroke="#2b9900" points="1285.08,-177.88 1290.94,-169.05 1280.85,-172.3 1285.08,-177.88"/>
<text text-anchor="middle" x="1297.62" y="-245.49" font-family="Times,serif" font-size="14.00" fill="#2b9900">Whose in charge around</text>
<text text-anchor="middle" x="1297.62" y="-228.24" font-family="Times,serif" font-size="14.00" fill="#2b9900">here?</text>
</g>
<!-- DuganEnd -->
<g id="node15" class="node">
<title>DuganEnd</title>
<ellipse fill="#ffffff" stroke="#000000" cx="27" cy="-139.64" rx="27" ry="18"/>
</g>
<!-- Dugan01&#45;&gt;DuganEnd -->
<g id="edge7" class="edge">
<title>Dugan01&#45;&gt;DuganEnd</title>
<path fill="none" stroke="#990058" d="M862.54,-293.07C746.2,-290.38 359.79,-280.05 237.75,-258.79 157.86,-244.87 126.03,-257.31 63,-206.29 50.72,-196.35 41.99,-181.06 36.2,-167.73"/>
<polygon fill="#990058" stroke="#990058" points="39.13,-166.61 32.18,-158.61 32.62,-169.19 39.13,-166.61"/>
<text text-anchor="middle" x="294.62" y="-236.86" font-family="Times,serif" font-size="14.00" fill="#990058">Ah, never mind.</text>
</g>
<!-- Dugan09 -->
<g id="node16" class="node">
<title>Dugan09</title>
<ellipse fill="#ffffff" stroke="#000000" cx="210" cy="-139.64" rx="138.06" ry="54.45"/>
<text text-anchor="middle" x="210" y="-160.84" font-family="Times,serif" font-size="14.00">I am the dumbest person</text>
<text text-anchor="middle" x="210" y="-143.59" font-family="Times,serif" font-size="14.00">I&#39;ve ever met &#45; well,</text>
<text text-anchor="middle" x="210" y="-126.34" font-family="Times,serif" font-size="14.00">besides you. Get out of</text>
<text text-anchor="middle" x="210" y="-109.09" font-family="Times,serif" font-size="14.00">here!</text>
</g>
<!-- Dugan01&#45;&gt;Dugan09 -->
<g id="edge8" class="edge">
<title>Dugan01&#45;&gt;Dugan09</title>
<path fill="none" stroke="#008599" d="M862.63,-292.94C771.43,-290.34 519.56,-281.28 440,-258.79 387.69,-244 333.41,-216.77 290.72,-192.17"/>
<polygon fill="#008599" stroke="#008599" points="292.64,-188.66 282.24,-186.64 289.12,-194.7 292.64,-188.66"/>
<text text-anchor="middle" x="500" y="-236.86" font-family="Times,serif" font-size="14.00" fill="#008599">Dah, Cola, good?</text>
</g>
<!-- critter_p_proc -->
<g id="node7" class="node">
<title>critter_p_proc</title>
<ellipse fill="#ffffff" stroke="#000000" cx="1309" cy="-453.03" rx="27" ry="18"/>
</g>
<!-- damage_p_proc -->
<g id="node8" class="node">
<title>damage_p_proc</title>
<ellipse fill="#ffffff" stroke="#000000" cx="1472" cy="-453.03" rx="27" ry="18"/>
</g>
<!-- destroy_p_proc -->
<g id="node9" class="node">
<title>destroy_p_proc</title>
<ellipse fill="#ffffff" stroke="#000000" cx="1590" cy="-453.03" rx="27" ry="18"/>
</g>
<!-- pickup_p_proc -->
<g id="node10" class="node">
<title>pickup_p_proc</title>
<ellipse fill="#ffffff" stroke="#000000" cx="1685" cy="-453.03" rx="27" ry="18"/>
</g>
<!-- Dugan04 -->
<g id="node17" class="node">
<title>Dugan04</title>
<ellipse fill="#ffffff" stroke="#000000" cx="1519" cy="-18" rx="27" ry="18"/>
</g>
<!-- Dugan03&#45;&gt;Dugan04 -->
<g id="edge9" class="edge">
<title>Dugan03&#45;&gt;Dugan04</title>
<path fill="none" stroke="#555555" stroke-dasharray="1,5" d="M865.14,-90.82C881.37,-83.82 898.41,-77.48 915,-73 1022.71,-43.91 1366.07,-25.97 1481.06,-20.66"/>
<polygon fill="#555555" stroke="#555555" points="1480.94,-24.13 1490.77,-20.17 1480.62,-17.13 1480.94,-24.13"/>
</g>
<!-- Dugan05&#45;&gt;Dugan04 -->
<g id="edge10" class="edge">
<title>Dugan05&#45;&gt;Dugan04</title>
<path fill="none" stroke="#555555" stroke-dasharray="1,5" d="M1133.77,-91.35C1148.85,-84.39 1164.64,-77.91 1180,-73 1286.02,-39.07 1417.8,-25.91 1481.31,-21.27"/>
<polygon fill="#555555" stroke="#555555" points="1481.26,-24.71 1490.99,-20.52 1480.77,-17.73 1481.26,-24.71"/>
</g>
<!-- Dugan08&#45;&gt;Dugan01 -->
<g id="edge13" class="edge">
<title>Dugan08&#45;&gt;Dugan01</title>
<path fill="none" stroke="#555555" stroke-dasharray="1,5" d="M1268.5,-167.23C1241.85,-179.27 1209.88,-193.61 1181,-206.29 1162.4,-214.45 1155.31,-212.19 1139,-224.29 1122.91,-236.23 1127.41,-248.89 1110,-258.79 1081.6,-274.93 993.36,-285.27 939.46,-290.26"/>
<polygon fill="#555555" stroke="#555555" points="939.49,-286.83 929.84,-291.21 940.12,-293.81 939.49,-286.83"/>
</g>
<!-- Dugan06 -->
<g id="node18" class="node">
<title>Dugan06</title>
<ellipse fill="#ffffff" stroke="#000000" cx="1676" cy="-139.64" rx="120.56" ry="30.05"/>
<text text-anchor="middle" x="1676" y="-143.59" font-family="Times,serif" font-size="14.00">So? [Dugan raises his</text>
<text text-anchor="middle" x="1676" y="-126.34" font-family="Times,serif" font-size="14.00">eyebrows at you.]</text>
</g>
<!-- Dugan06&#45;&gt;Dugan04 -->
<g id="edge11" class="edge">
<title>Dugan06&#45;&gt;Dugan04</title>
<path fill="none" stroke="#555555" stroke-dasharray="1,5" d="M1639.19,-110.59C1610.17,-88.47 1570.43,-58.19 1544.74,-38.61"/>
<polygon fill="#555555" stroke="#555555" points="1547.35,-35.44 1537.27,-32.16 1543.11,-41.01 1547.35,-35.44"/>
</g>
<!-- Dugan07 -->
<g id="node19" class="node">
<title>Dugan07</title>
<ellipse fill="#ffffff" stroke="#000000" cx="1926" cy="-139.64" rx="111.18" ry="18"/>
<text text-anchor="middle" x="1926" y="-134.97" font-family="Times,serif" font-size="14.00">About 5 litres a day.</text>
</g>
<!-- Dugan07&#45;&gt;Dugan04 -->
<g id="edge12" class="edge">
<title>Dugan07&#45;&gt;Dugan04</title>
<path fill="none" stroke="#555555" stroke-dasharray="1,5" d="M1900.89,-121.84C1877.34,-106.84 1840.66,-85.39 1806,-73 1719.8,-42.19 1612.42,-27.98 1556.62,-22.28"/>
<polygon fill="#555555" stroke="#555555" points="1557.14,-18.71 1546.85,-21.22 1556.46,-25.68 1557.14,-18.71"/>
</g>
<!-- LevelToReact -->
<g id="node21" class="node">
<title>LevelToReact</title>
<ellipse fill="#ffffff" stroke="#000000" cx="1804" cy="-294.79" rx="27" ry="18"/>
</g>
<!-- UpReact -->
<g id="node22" class="node">
<title>UpReact</title>
<ellipse fill="#ffffff" stroke="#000000" cx="1639" cy="-294.79" rx="27" ry="18"/>
</g>
<!-- UpReact&#45;&gt;ReactToLevel -->
<g id="edge15" class="edge">
<title>UpReact&#45;&gt;ReactToLevel</title>
<path fill="none" stroke="#555555" stroke-dasharray="1,5" d="M1623.28,-280.08C1600.14,-259.74 1558.35,-222.24 1546,-206.29 1536.74,-194.33 1528.46,-179.67 1522.18,-167.24"/>
<polygon fill="#555555" stroke="#555555" points="1524.93,-165.89 1517.4,-158.44 1518.63,-168.96 1524.93,-165.89"/>
</g>
<!-- DownReact -->
<g id="node23" class="node">
<title>DownReact</title>
<ellipse fill="#ffffff" stroke="#000000" cx="1351" cy="-294.79" rx="27" ry="18"/>
</g>
<!-- DownReact&#45;&gt;ReactToLevel -->
<g id="edge16" class="edge">
<title>DownReact&#45;&gt;ReactToLevel</title>
<path fill="none" stroke="#555555" stroke-dasharray="1,5" d="M1367.09,-279.82C1384.43,-265.09 1413.18,-241.67 1440,-224.29 1454.35,-214.99 1461.82,-218.29 1474,-206.29 1485.1,-195.35 1493.71,-180.25 1499.71,-167.29"/>
<polygon fill="#555555" stroke="#555555" points="1503.2,-169.05 1503.97,-158.48 1496.78,-166.26 1503.2,-169.05"/>
</g>
<!-- BottomReact -->
<g id="node24" class="node">
<title>BottomReact</title>
<ellipse fill="#ffffff" stroke="#000000" cx="1912" cy="-453.03" rx="27" ry="18"/>
</g>
<!-- TopReact -->
<g id="node25" class="node">
<title>TopReact</title>
<ellipse fill="#ffffff" stroke="#000000" cx="1984" cy="-453.03" rx="27" ry="18"/>
</g>
<!-- BigUpReact -->
<g id="node26" class="node">
<title>BigUpReact</title>
<ellipse fill="#ffffff" stroke="#000000" cx="1423" cy="-294.79" rx="27" ry="18"/>
</g>
<!-- BigUpReact&#45;&gt;ReactToLevel -->
<g id="edge17" class="edge">
<title>BigUpReact&#45;&gt;ReactToLevel</title>
<path fill="none" stroke="#555555" stroke-dasharray="1,5" d="M1432.53,-277.74C1442.87,-260.24 1459.81,-231.39 1474,-206.29 1481.4,-193.21 1489.46,-178.55 1496.07,-166.41"/>
<polygon fill="#555555" stroke="#555555" points="1499.54,-168.35 1501.24,-157.9 1493.39,-165.01 1499.54,-168.35"/>
</g>
<!-- BigDownReact -->
<g id="node27" class="node">
<title>BigDownReact</title>
<ellipse fill="#ffffff" stroke="#000000" cx="1495" cy="-294.79" rx="27" ry="18"/>
</g>
<!-- BigDownReact&#45;&gt;ReactToLevel -->
<g id="edge18" class="edge">
<title>BigDownReact&#45;&gt;ReactToLevel</title>
<path fill="none" stroke="#555555" stroke-dasharray="1,5" d="M1496.69,-276.52C1499.26,-250.32 1504.16,-200.27 1507.24,-168.77"/>
<polygon fill="#555555" stroke="#555555" points="1510.8,-169.38 1508.29,-159.09 1503.83,-168.7 1510.8,-169.38"/>
</g>
<!-- UpReactLevel -->
<g id="node28" class="node">
<title>UpReactLevel</title>
<ellipse fill="#ffffff" stroke="#000000" cx="1768" cy="-453.03" rx="27" ry="18"/>
</g>
<!-- UpReactLevel&#45;&gt;LevelToReact -->
<g id="edge19" class="edge">
<title>UpReactLevel&#45;&gt;LevelToReact</title>
<path fill="none" stroke="#555555" stroke-dasharray="1,5" d="M1771.92,-435.01C1778.12,-408.13 1790.22,-355.57 1797.66,-323.29"/>
<polygon fill="#555555" stroke="#555555" points="1801.25,-324.32 1800.08,-313.79 1794.43,-322.74 1801.25,-324.32"/>
</g>
<!-- DownReactLevel -->
<g id="node29" class="node">
<title>DownReactLevel</title>
<ellipse fill="#ffffff" stroke="#000000" cx="1840" cy="-453.03" rx="27" ry="18"/>
</g>
<!-- DownReactLevel&#45;&gt;LevelToReact -->
<g id="edge20" class="edge">
<title>DownReactLevel&#45;&gt;LevelToReact</title>
<path fill="none" stroke="#555555" stroke-dasharray="1,5" d="M1836.08,-435.01C1829.88,-408.13 1817.78,-355.57 1810.34,-323.29"/>
<polygon fill="#555555" stroke="#555555" points="1813.57,-322.74 1807.92,-313.79 1806.75,-324.32 1813.57,-322.74"/>
</g>
<!-- Goodbyes -->
<g id="node30" class="node">
<title>Goodbyes</title>
<ellipse fill="#ffffff" stroke="#000000" cx="2056" cy="-453.03" rx="27" ry="18"/>
</g>
</g>
</svg>
