<?xml version="1.0" encoding="UTF-8" standalone="no"?>
<!DOCTYPE svg PUBLIC "-//W3C//DTD SVG 1.1//EN"
 "http://www.w3.org/Graphics/SVG/1.1/DTD/svg11.dtd">
<!-- Generated by graphviz version 8.0.5 (0)
 -->
<!-- Title: GANGER Pages: 1 -->
<svg width="1420pt" height="1829pt"
 viewBox="0.00 0.00 1419.86 1829.38" xmlns="http://www.w3.org/2000/svg" xmlns:xlink="http://www.w3.org/1999/xlink">
<g id="graph0" class="graph" transform="scale(1 1) rotate(0) translate(4 1825.38)">
<title>GANGER</title>
<polygon fill="white" stroke="none" points="-4,4 -4,-1825.38 1415.86,-1825.38 1415.86,4 -4,4"/>
<!-- start -->
<g id="node1" class="node">
<title>start</title>
<ellipse fill="#ffffff" stroke="#000000" cx="317.46" cy="-1791.33" rx="117.91" ry="30.05"/>
<text text-anchor="middle" x="317.46" y="-1795.28" font-family="Times,serif" font-size="14.00">You see a ghoul gang</text>
<text text-anchor="middle" x="317.46" y="-1778.03" font-family="Times,serif" font-size="14.00">member.</text>
</g>
<!-- do_dialogue -->
<g id="node2" class="node">
<title>do_dialogue</title>
<ellipse fill="#ffffff" stroke="#000000" cx="317.46" cy="-1706.28" rx="27" ry="18"/>
</g>
<!-- start&#45;&gt;do_dialogue -->
<g id="edge1" class="edge">
<title>start&#45;&gt;do_dialogue</title>
<path fill="none" stroke="#555555" stroke-dasharray="1,5" d="M317.46,-1760.81C317.46,-1752.57 317.46,-1743.64 317.46,-1735.48"/>
<polygon fill="#555555" stroke="#555555" points="320.96,-1735.61 317.46,-1725.61 313.96,-1735.61 320.96,-1735.61"/>
</g>
<!-- ghoul08 -->
<g id="node3" class="node">
<title>ghoul08</title>
<ellipse fill="#ffffff" stroke="#000000" cx="305.46" cy="-1412.38" rx="127.99" ry="42.25"/>
<text text-anchor="middle" x="305.46" y="-1424.96" font-family="Times,serif" font-size="14.00">You crazy. What do you</text>
<text text-anchor="middle" x="305.46" y="-1407.71" font-family="Times,serif" font-size="14.00">think dis is? You better</text>
<text text-anchor="middle" x="305.46" y="-1390.46" font-family="Times,serif" font-size="14.00">leave.</text>
</g>
<!-- do_dialogue&#45;&gt;ghoul08 -->
<g id="edge2" class="edge">
<title>do_dialogue&#45;&gt;ghoul08</title>
<path fill="none" stroke="#555555" stroke-dasharray="1,5" d="M316.74,-1687.89C314.98,-1644.99 310.36,-1532.72 307.61,-1465.8"/>
<polygon fill="#555555" stroke="#555555" points="311.08,-1465.91 307.17,-1456.06 304.08,-1466.2 311.08,-1465.91"/>
</g>
<!-- ghoul00 -->
<g id="node4" class="node">
<title>ghoul00</title>
<ellipse fill="#ffffff" stroke="#000000" cx="535.46" cy="-1596.83" rx="141.24" ry="54.45"/>
<text text-anchor="middle" x="535.46" y="-1618.03" font-family="Times,serif" font-size="14.00">What are you doing here?</text>
<text text-anchor="middle" x="535.46" y="-1600.78" font-family="Times,serif" font-size="14.00">Answer wisely &#45; this</text>
<text text-anchor="middle" x="535.46" y="-1583.53" font-family="Times,serif" font-size="14.00">could be your</text>
<text text-anchor="middle" x="535.46" y="-1566.28" font-family="Times,serif" font-size="14.00"> only chance . . .</text>
</g>
<!-- do_dialogue&#45;&gt;ghoul00 -->
<g id="edge3" class="edge">
<title>do_dialogue&#45;&gt;ghoul00</title>
<path fill="none" stroke="#555555" stroke-dasharray="1,5" d="M338.76,-1694.78C362.36,-1683.14 402.08,-1663.57 439.66,-1645.04"/>
<polygon fill="#555555" stroke="#555555" points="440.74,-1647.92 448.16,-1640.36 437.65,-1641.64 440.74,-1647.92"/>
</g>
<!-- ghoulend -->
<g id="node5" class="node">
<title>ghoulend</title>
<ellipse fill="#ffffff" stroke="#000000" cx="752.46" cy="-18" rx="27" ry="18"/>
</g>
<!-- ghoul08&#45;&gt;ghoulend -->
<g id="edge23" class="edge">
<title>ghoul08&#45;&gt;ghoulend</title>
<path fill="none" stroke="#6a0099" d="M207.25,-1384.97C144.51,-1363.03 66.54,-1325.46 20.46,-1265.13 -4.37,-1232.63 1.46,-1215.99 1.46,-1175.09 1.46,-1175.09 1.46,-1175.09 1.46,-102.05 1.46,-29.51 562.23,-20.32 714.63,-19.17"/>
<polygon fill="#6a0099" stroke="#6a0099" points="714.31,-22.66 724.28,-19.09 714.26,-15.66 714.31,-22.66"/>
<text text-anchor="middle" x="71.58" y="-566.81" font-family="Times,serif" font-size="14.00" fill="#6a0099">OK, I&#39;m out of here.</text>
</g>
<!-- ghoul12 -->
<g id="node9" class="node">
<title>ghoul12</title>
<ellipse fill="#ffffff" stroke="#000000" cx="476.46" cy="-1174.09" rx="166.7" ry="30.05"/>
<text text-anchor="middle" x="476.46" y="-1178.04" font-family="Times,serif" font-size="14.00">HEY, ZOMBIES, WE GOT US A</text>
<text text-anchor="middle" x="476.46" y="-1160.79" font-family="Times,serif" font-size="14.00">PUNCHIN&#39; BAG!</text>
</g>
<!-- ghoul08&#45;&gt;ghoul12 -->
<g id="edge24" class="edge">
<title>ghoul08&#45;&gt;ghoul12</title>
<path fill="none" stroke="#00993d" d="M379.2,-1377.44C389.98,-1370.2 400.21,-1361.77 408.46,-1352.13 442.5,-1312.34 460.49,-1253.66 469.23,-1214.92"/>
<polygon fill="#00993d" stroke="#00993d" points="472.78,-1216.06 471.46,-1205.55 465.94,-1214.59 472.78,-1216.06"/>
<text text-anchor="middle" x="464.33" y="-1312.96" font-family="Times,serif" font-size="14.00" fill="#00993d">Duh.</text>
</g>
<!-- ghoul09 -->
<g id="node17" class="node">
<title>ghoul09</title>
<ellipse fill="#ffffff" stroke="#000000" cx="160.46" cy="-1174.09" rx="131.17" ry="54.45"/>
<text text-anchor="middle" x="160.46" y="-1195.29" font-family="Times,serif" font-size="14.00">I don&#39;t think so. Get out</text>
<text text-anchor="middle" x="160.46" y="-1178.04" font-family="Times,serif" font-size="14.00">before I call the boyz</text>
<text text-anchor="middle" x="160.46" y="-1160.79" font-family="Times,serif" font-size="14.00">over and</text>
<text text-anchor="middle" x="160.46" y="-1143.54" font-family="Times,serif" font-size="14.00"> dance on your face.</text>
</g>
<!-- ghoul08&#45;&gt;ghoul09 -->
<g id="edge22" class="edge">
<title>ghoul08&#45;&gt;ghoul09</title>
<path fill="none" stroke="#999600" d="M275.08,-1370.99C270.65,-1364.76 266.23,-1358.33 262.21,-1352.13 237.93,-1314.77 212.97,-1271.42 193.84,-1236.97"/>
<polygon fill="#999600" stroke="#999600" points="196.51,-1235.56 188.61,-1228.5 190.38,-1238.94 196.51,-1235.56"/>
<text text-anchor="middle" x="335.58" y="-1312.96" font-family="Times,serif" font-size="14.00" fill="#999600">Nah, I want to go in.</text>
</g>
<!-- ghoul00&#45;&gt;ghoul08 -->
<g id="edge5" class="edge">
<title>ghoul00&#45;&gt;ghoul08</title>
<path fill="none" stroke="#997700" d="M412.04,-1570.05C385.46,-1559.59 359.52,-1544.93 339.96,-1524.38 331.43,-1515.43 323.17,-1489.63 316.86,-1465.15"/>
<polygon fill="#997700" stroke="#997700" points="320.1,-1464.66 314.29,-1455.8 313.31,-1466.35 320.1,-1464.66"/>
<text text-anchor="middle" x="431.21" y="-1511.08" font-family="Times,serif" font-size="14.00" fill="#997700">This building is</text>
<text text-anchor="middle" x="431.21" y="-1493.83" font-family="Times,serif" font-size="14.00" fill="#997700">condemned &#45; I&#39;ve come to</text>
<text text-anchor="middle" x="431.21" y="-1476.58" font-family="Times,serif" font-size="14.00" fill="#997700">serve final notice.</text>
</g>
<!-- ghoul01 -->
<g id="node7" class="node">
<title>ghoul01</title>
<ellipse fill="#ffffff" stroke="#000000" cx="716.46" cy="-1412.38" rx="116.45" ry="18"/>
<text text-anchor="middle" x="716.46" y="-1407.71" font-family="Times,serif" font-size="14.00">Set ain&#39;t here, so git.</text>
</g>
<!-- ghoul00&#45;&gt;ghoul01 -->
<g id="edge4" class="edge">
<title>ghoul00&#45;&gt;ghoul01</title>
<path fill="none" stroke="#008f99" d="M585.39,-1545.49C620.06,-1510.55 664.74,-1465.51 691.96,-1438.08"/>
<polygon fill="#008f99" stroke="#008f99" points="693.92,-1441.06 698.48,-1431.49 688.95,-1436.13 693.92,-1441.06"/>
<text text-anchor="middle" x="739.71" y="-1493.83" font-family="Times,serif" font-size="14.00" fill="#008f99">I&#39;m looking for the boss.</text>
</g>
<!-- ghoul11 -->
<g id="node8" class="node">
<title>ghoul11</title>
<ellipse fill="#ffffff" stroke="#000000" cx="1259.46" cy="-1317.63" rx="138.06" ry="30.05"/>
<text text-anchor="middle" x="1259.46" y="-1321.58" font-family="Times,serif" font-size="14.00">Stay away from dis place</text>
<text text-anchor="middle" x="1259.46" y="-1304.33" font-family="Times,serif" font-size="14.00">if you value yer life.</text>
</g>
<!-- ghoul00&#45;&gt;ghoul11 -->
<g id="edge6" class="edge">
<title>ghoul00&#45;&gt;ghoul11</title>
<path fill="none" stroke="#4a0099" d="M660.87,-1571.38C713.66,-1559.55 775.28,-1543.69 829.46,-1524.38 967.29,-1475.26 1119.85,-1395.84 1201.05,-1351.41"/>
<polygon fill="#4a0099" stroke="#4a0099" points="1202.51,-1354.05 1209.59,-1346.17 1199.14,-1347.92 1202.51,-1354.05"/>
<text text-anchor="middle" x="1016.33" y="-1502.46" font-family="Times,serif" font-size="14.00" fill="#4a0099">Sorry, just looking</text>
<text text-anchor="middle" x="1016.33" y="-1485.21" font-family="Times,serif" font-size="14.00" fill="#4a0099">around.</text>
</g>
<!-- ghoul00&#45;&gt;ghoul12 -->
<g id="edge7" class="edge">
<title>ghoul00&#45;&gt;ghoul12</title>
<path fill="none" stroke="#00991d" d="M529.79,-1542.11C527.39,-1520.5 524.47,-1495.36 521.46,-1472.63 509.24,-1380.38 492.24,-1272.45 483.03,-1215.33"/>
<polygon fill="#00991d" stroke="#00991d" points="486.34,-1214.92 481.29,-1205.6 479.43,-1216.03 486.34,-1214.92"/>
<text text-anchor="middle" x="535.33" y="-1407.71" font-family="Times,serif" font-size="14.00" fill="#00991d">Duh.</text>
</g>
<!-- ghoulcbt -->
<g id="node6" class="node">
<title>ghoulcbt</title>
<ellipse fill="#ffffff" stroke="#000000" cx="420.46" cy="-771.57" rx="27" ry="18"/>
</g>
<!-- ghoul01&#45;&gt;ghoulend -->
<g id="edge8" class="edge">
<title>ghoul01&#45;&gt;ghoulend</title>
<path fill="none" stroke="#99000f" d="M812.52,-1401.84C859.01,-1393.84 914,-1379.14 957.46,-1352.13 1044.8,-1297.84 1106.46,-1277.93 1106.46,-1175.09 1106.46,-1175.09 1106.46,-1175.09 1106.46,-102.05 1106.46,-37.73 882.14,-23.19 790.63,-19.93"/>
<polygon fill="#99000f" stroke="#99000f" points="790.76,-16.4 780.65,-19.57 790.53,-23.39 790.76,-16.4"/>
<text text-anchor="middle" x="1152.21" y="-566.81" font-family="Times,serif" font-size="14.00" fill="#99000f">Oh, OK. Bye.</text>
</g>
<!-- ghoul01&#45;&gt;ghoulcbt -->
<g id="edge10" class="edge">
<title>ghoul01&#45;&gt;ghoulcbt</title>
<path fill="none" stroke="#699900" d="M713.35,-1394.06C701.32,-1327.12 658.12,-1088.68 652.46,-1083.05 621.82,-1052.61 592.45,-1089.66 556.96,-1065.05 486.12,-1015.95 490.88,-978.21 456.46,-899.2 442.22,-866.53 431.97,-826.68 426.13,-800.51"/>
<polygon fill="#699900" stroke="#699900" points="429.37,-799.9 423.83,-790.86 422.52,-801.38 429.37,-799.9"/>
<text text-anchor="middle" x="652.71" y="-1051.75" font-family="Times,serif" font-size="14.00" fill="#699900">Well, you&#39;ll just have to</text>
<text text-anchor="middle" x="652.71" y="-1034.5" font-family="Times,serif" font-size="14.00" fill="#699900">be my punching bag, then.</text>
</g>
<!-- ghoul02 -->
<g id="node10" class="node">
<title>ghoul02</title>
<ellipse fill="#ffffff" stroke="#000000" cx="832.46" cy="-1174.09" rx="132.76" ry="91.04"/>
<text text-anchor="middle" x="832.46" y="-1221.17" font-family="Times,serif" font-size="14.00">You gots some mental</text>
<text text-anchor="middle" x="832.46" y="-1203.92" font-family="Times,serif" font-size="14.00">problems to work out.</text>
<text text-anchor="middle" x="832.46" y="-1186.67" font-family="Times,serif" font-size="14.00">Set&#39;s not gonna</text>
<text text-anchor="middle" x="832.46" y="-1169.42" font-family="Times,serif" font-size="14.00">let some loser like you</text>
<text text-anchor="middle" x="832.46" y="-1152.17" font-family="Times,serif" font-size="14.00">take &#39;em down. He&#39;s got</text>
<text text-anchor="middle" x="832.46" y="-1134.92" font-family="Times,serif" font-size="14.00">the guards</text>
<text text-anchor="middle" x="832.46" y="-1117.67" font-family="Times,serif" font-size="14.00"> and he&#39;s got the guns.</text>
</g>
<!-- ghoul01&#45;&gt;ghoul02 -->
<g id="edge9" class="edge">
<title>ghoul01&#45;&gt;ghoul02</title>
<path fill="none" stroke="#003c99" d="M724.99,-1394.01C737.78,-1367.94 762.88,-1316.81 785.61,-1270.52"/>
<polygon fill="#003c99" stroke="#003c99" points="789.15,-1272.25 790.42,-1261.73 782.87,-1269.16 789.15,-1272.25"/>
<text text-anchor="middle" x="866.21" y="-1338.83" font-family="Times,serif" font-size="14.00" fill="#003c99">Well, when I find that</text>
<text text-anchor="middle" x="866.21" y="-1321.58" font-family="Times,serif" font-size="14.00" fill="#003c99">son of a bitch, I&#39;m gonna</text>
<text text-anchor="middle" x="866.21" y="-1304.33" font-family="Times,serif" font-size="14.00" fill="#003c99">make it</text>
<text text-anchor="middle" x="866.21" y="-1287.08" font-family="Times,serif" font-size="14.00" fill="#003c99"> so no one can find him.</text>
</g>
<!-- ghoul11&#45;&gt;ghoulend -->
<g id="edge28" class="edge">
<title>ghoul11&#45;&gt;ghoulend</title>
<path fill="none" stroke="#555555" stroke-dasharray="1,5" d="M1251.02,-1287.19C1237.74,-1238.18 1213.46,-1136.56 1213.46,-1048.8 1213.46,-1048.8 1213.46,-1048.8 1213.46,-102.05 1213.46,-55.53 1165.09,-67.12 1120.46,-54 1059.3,-36.02 871.46,-24.87 790.37,-20.78"/>
<polygon fill="#555555" stroke="#555555" points="790.83,-17.24 780.66,-20.24 790.48,-24.24 790.83,-17.24"/>
</g>
<!-- ghoul12&#45;&gt;ghoulcbt -->
<g id="edge29" class="edge">
<title>ghoul12&#45;&gt;ghoulcbt</title>
<path fill="none" stroke="#555555" stroke-dasharray="1,5" d="M473.9,-1143.75C470.07,-1101.4 462.23,-1020.72 452.46,-952.45 444.71,-898.33 432.89,-835.55 425.99,-800.3"/>
<polygon fill="#555555" stroke="#555555" points="429.3,-800 423.94,-790.87 422.44,-801.36 429.3,-800"/>
</g>
<!-- ghoul04 -->
<g id="node11" class="node">
<title>ghoul04</title>
<ellipse fill="#ffffff" stroke="#000000" cx="755.46" cy="-982.5" rx="27" ry="18"/>
</g>
<!-- ghoul02&#45;&gt;ghoul04 -->
<g id="edge11" class="edge">
<title>ghoul02&#45;&gt;ghoul04</title>
<path fill="none" stroke="#990095" d="M768.91,-1093.93C763.79,-1084.6 759.38,-1074.88 756.21,-1065.05 750.68,-1047.92 750.46,-1027.69 751.64,-1011.66"/>
<polygon fill="#990095" stroke="#990095" points="755.2,-1012.13 752.68,-1001.84 748.24,-1011.46 755.2,-1012.13"/>
<text text-anchor="middle" x="825.08" y="-1043.13" font-family="Times,serif" font-size="14.00" fill="#990095">How many guards?</text>
</g>
<!-- ghoul05 -->
<g id="node12" class="node">
<title>ghoul05</title>
<ellipse fill="#ffffff" stroke="#000000" cx="669.46" cy="-456.79" rx="147.08" ry="42.25"/>
<text text-anchor="middle" x="669.46" y="-469.36" font-family="Times,serif" font-size="14.00">I&#39;m supposed to make sure</text>
<text text-anchor="middle" x="669.46" y="-452.11" font-family="Times,serif" font-size="14.00">no one goes by. Dis is</text>
<text text-anchor="middle" x="669.46" y="-434.86" font-family="Times,serif" font-size="14.00">Zombie house.</text>
</g>
<!-- ghoul02&#45;&gt;ghoul05 -->
<g id="edge12" class="edge">
<title>ghoul02&#45;&gt;ghoul05</title>
<path fill="none" stroke="#009970" d="M884.78,-1089.94C888.27,-1081.75 891.27,-1073.39 893.46,-1065.05 908.93,-1006.16 930.6,-565.29 893.46,-517.04 881.63,-501.68 846.96,-489.48 808.31,-480.25"/>
<polygon fill="#009970" stroke="#009970" points="809.4,-476.68 798.87,-477.85 807.83,-483.5 809.4,-476.68"/>
<text text-anchor="middle" x="1000.33" y="-921.15" font-family="Times,serif" font-size="14.00" fill="#009970">What are you doing here?</text>
</g>
<!-- ghoul03 -->
<g id="node13" class="node">
<title>ghoul03</title>
<ellipse fill="#ffffff" stroke="#000000" cx="601.46" cy="-771.57" rx="135.94" ry="127.63"/>
<text text-anchor="middle" x="601.46" y="-844.52" font-family="Times,serif" font-size="14.00">Set keeps at least two</text>
<text text-anchor="middle" x="601.46" y="-827.27" font-family="Times,serif" font-size="14.00">guards around him at all</text>
<text text-anchor="middle" x="601.46" y="-810.02" font-family="Times,serif" font-size="14.00">times,</text>
<text text-anchor="middle" x="601.46" y="-792.77" font-family="Times,serif" font-size="14.00">but he can call on more</text>
<text text-anchor="middle" x="601.46" y="-775.52" font-family="Times,serif" font-size="14.00">then ten if he needs it.</text>
<text text-anchor="middle" x="601.46" y="-758.27" font-family="Times,serif" font-size="14.00">And</text>
<text text-anchor="middle" x="601.46" y="-741.02" font-family="Times,serif" font-size="14.00">when he&#39;s in his throne</text>
<text text-anchor="middle" x="601.46" y="-723.77" font-family="Times,serif" font-size="14.00">room, those ten guards</text>
<text text-anchor="middle" x="601.46" y="-706.52" font-family="Times,serif" font-size="14.00">are seconds</text>
<text text-anchor="middle" x="601.46" y="-689.27" font-family="Times,serif" font-size="14.00"> away.</text>
</g>
<!-- ghoul04&#45;&gt;ghoul03 -->
<g id="edge14" class="edge">
<title>ghoul04&#45;&gt;ghoul03</title>
<path fill="none" stroke="#555555" stroke-dasharray="1,5" d="M743.88,-965.8C730.78,-948.02 708.21,-917.4 684.85,-885.71"/>
<polygon fill="#555555" stroke="#555555" points="687.33,-884.17 678.58,-878.2 681.69,-888.32 687.33,-884.17"/>
</g>
<!-- ghoul04a -->
<g id="node14" class="node">
<title>ghoul04a</title>
<ellipse fill="#ffffff" stroke="#000000" cx="765.46" cy="-571.49" rx="127.46" ry="54.45"/>
<text text-anchor="middle" x="765.46" y="-592.69" font-family="Times,serif" font-size="14.00">I ain&#39;t telling ya&#39; that.</text>
<text text-anchor="middle" x="765.46" y="-575.44" font-family="Times,serif" font-size="14.00">Whadda ya&#39; think I am,</text>
<text text-anchor="middle" x="765.46" y="-558.19" font-family="Times,serif" font-size="14.00">stupid?</text>
<text text-anchor="middle" x="765.46" y="-540.94" font-family="Times,serif" font-size="14.00"> Now git . . .</text>
</g>
<!-- ghoul04&#45;&gt;ghoul04a -->
<g id="edge15" class="edge">
<title>ghoul04&#45;&gt;ghoul04a</title>
<path fill="none" stroke="#555555" stroke-dasharray="1,5" d="M755.88,-964.19C757.24,-908.7 761.52,-733.31 763.88,-637.14"/>
<polygon fill="#555555" stroke="#555555" points="767.39,-637.46 764.14,-627.38 760.4,-637.29 767.39,-637.46"/>
</g>
<!-- ghoul05&#45;&gt;ghoulend -->
<g id="edge18" class="edge">
<title>ghoul05&#45;&gt;ghoulend</title>
<path fill="none" stroke="#169900" d="M723.95,-417.33C729.74,-411.03 734.82,-404.08 738.46,-396.54 753.47,-365.39 753.25,-129.43 752.7,-47.17"/>
<polygon fill="#169900" stroke="#169900" points="756.2,-47.38 752.63,-37.41 749.2,-47.44 756.2,-47.38"/>
<text text-anchor="middle" x="828.08" y="-172.3" font-family="Times,serif" font-size="14.00" fill="#169900">Well, you have a nice</text>
<text text-anchor="middle" x="828.08" y="-155.05" font-family="Times,serif" font-size="14.00" fill="#169900">day.</text>
</g>
<!-- ghoul06 -->
<g id="node15" class="node">
<title>ghoul06</title>
<ellipse fill="#ffffff" stroke="#000000" cx="581.46" cy="-282.45" rx="142.84" ry="78.84"/>
<text text-anchor="middle" x="581.46" y="-320.9" font-family="Times,serif" font-size="14.00">Not a what . . . A WHO.</text>
<text text-anchor="middle" x="581.46" y="-303.65" font-family="Times,serif" font-size="14.00">We are the Zombies. If we</text>
<text text-anchor="middle" x="581.46" y="-286.4" font-family="Times,serif" font-size="14.00">do good, Set&#39;ll make</text>
<text text-anchor="middle" x="581.46" y="-269.15" font-family="Times,serif" font-size="14.00">us one of his guards.</text>
<text text-anchor="middle" x="581.46" y="-251.9" font-family="Times,serif" font-size="14.00">Now that&#39;s all I&#39;m gonna</text>
<text text-anchor="middle" x="581.46" y="-234.65" font-family="Times,serif" font-size="14.00">tell you.</text>
</g>
<!-- ghoul05&#45;&gt;ghoul06 -->
<g id="edge17" class="edge">
<title>ghoul05&#45;&gt;ghoul06</title>
<path fill="none" stroke="#170099" d="M625.78,-416.27C620.5,-410.06 615.61,-403.41 611.71,-396.54 607.27,-388.73 603.46,-380.24 600.19,-371.55"/>
<polygon fill="#170099" stroke="#170099" points="603.21,-370.57 596.61,-362.28 596.6,-372.87 603.21,-370.57"/>
<text text-anchor="middle" x="675.83" y="-383.24" font-family="Times,serif" font-size="14.00" fill="#170099">What&#39;s a Zombie?</text>
</g>
<!-- ghoul03&#45;&gt;ghoul05 -->
<g id="edge13" class="edge">
<title>ghoul03&#45;&gt;ghoul05</title>
<path fill="none" stroke="#994300" d="M505.86,-680.47C464.03,-630.06 432.1,-567.42 469.71,-517.04 479.37,-504.09 506.61,-492.96 537.99,-483.97"/>
<polygon fill="#994300" stroke="#994300" points="538.6,-487.15 547.31,-481.12 536.73,-480.41 538.6,-487.15"/>
<text text-anchor="middle" x="550.33" y="-575.44" font-family="Times,serif" font-size="14.00" fill="#994300">So what are you doing</text>
<text text-anchor="middle" x="550.33" y="-558.19" font-family="Times,serif" font-size="14.00" fill="#994300">here?</text>
</g>
<!-- ghoul04a&#45;&gt;ghoulend -->
<g id="edge16" class="edge">
<title>ghoul04a&#45;&gt;ghoulend</title>
<path fill="none" stroke="#555555" stroke-dasharray="1,5" d="M833.45,-525.31C873.53,-492.78 916.46,-444.88 916.46,-388.91 916.46,-388.91 916.46,-388.91 916.46,-102.05 916.46,-45.8 838.7,-27.63 790.27,-21.78"/>
<polygon fill="#555555" stroke="#555555" points="790.86,-18.21 780.54,-20.62 790.11,-25.17 790.86,-18.21"/>
</g>
<!-- ghoul06&#45;&gt;ghoulend -->
<g id="edge20" class="edge">
<title>ghoul06&#45;&gt;ghoulend</title>
<path fill="none" stroke="#006f99" d="M657.15,-215.38C665.15,-205.99 672.52,-195.98 678.46,-185.6 704.09,-140.79 683.39,-118.93 706.96,-73 712.87,-61.48 721.65,-50.27 729.93,-41.07"/>
<polygon fill="#006f99" stroke="#006f99" points="731.99,-43.93 736.29,-34.25 726.89,-39.13 731.99,-43.93"/>
<text text-anchor="middle" x="723.21" y="-98.38" font-family="Times,serif" font-size="14.00" fill="#006f99">Bye.</text>
</g>
<!-- ghoul07 -->
<g id="node16" class="node">
<title>ghoul07</title>
<ellipse fill="#ffffff" stroke="#000000" cx="505.46" cy="-103.05" rx="128.52" ry="30.05"/>
<text text-anchor="middle" x="505.46" y="-107" font-family="Times,serif" font-size="14.00">I said dat&#39;s all I&#39;m</text>
<text text-anchor="middle" x="505.46" y="-89.75" font-family="Times,serif" font-size="14.00">gonna tell ya&#39;. Now git.</text>
</g>
<!-- ghoul06&#45;&gt;ghoul07 -->
<g id="edge19" class="edge">
<title>ghoul06&#45;&gt;ghoul07</title>
<path fill="none" stroke="#990042" d="M503.15,-216.03C495.81,-206.6 489.45,-196.39 484.96,-185.6 479.37,-172.18 481.23,-156.85 485.6,-143.14"/>
<polygon fill="#990042" stroke="#990042" points="489.15,-144.62 489.34,-134.03 482.59,-142.19 489.15,-144.62"/>
<text text-anchor="middle" x="582.21" y="-172.3" font-family="Times,serif" font-size="14.00" fill="#990042">Why do you want to be one</text>
<text text-anchor="middle" x="582.21" y="-155.05" font-family="Times,serif" font-size="14.00" fill="#990042">of his guards?</text>
</g>
<!-- ghoul07&#45;&gt;ghoulend -->
<g id="edge21" class="edge">
<title>ghoul07&#45;&gt;ghoulend</title>
<path fill="none" stroke="#555555" stroke-dasharray="1,5" d="M577.56,-77.81C624.09,-62.16 682.46,-42.54 718.61,-30.38"/>
<polygon fill="#555555" stroke="#555555" points="719.27,-33.52 727.63,-27.01 717.04,-26.88 719.27,-33.52"/>
</g>
<!-- ghoul09&#45;&gt;ghoulend -->
<g id="edge26" class="edge">
<title>ghoul09&#45;&gt;ghoulend</title>
<path fill="none" stroke="#001c99" d="M160.89,-1119.16C161.16,-1081.22 161.46,-1029.25 161.46,-983.5 161.46,-983.5 161.46,-983.5 161.46,-102.05 161.46,-45.99 583.92,-25.36 714.48,-20.32"/>
<polygon fill="#001c99" stroke="#001c99" points="714.28,-23.79 724.14,-19.92 714.01,-16.8 714.28,-23.79"/>
<text text-anchor="middle" x="174.58" y="-452.11" font-family="Times,serif" font-size="14.00" fill="#001c99">OK.</text>
</g>
<!-- ghoul10 -->
<g id="node18" class="node">
<title>ghoul10</title>
<ellipse fill="#ffffff" stroke="#000000" cx="319.46" cy="-982.5" rx="124.27" ry="30.05"/>
<text text-anchor="middle" x="319.46" y="-986.45" font-family="Times,serif" font-size="14.00">It was. Now it&#39;s a fact.</text>
<text text-anchor="middle" x="319.46" y="-969.2" font-family="Times,serif" font-size="14.00">ZOMBIES!</text>
</g>
<!-- ghoul09&#45;&gt;ghoul10 -->
<g id="edge25" class="edge">
<title>ghoul09&#45;&gt;ghoul10</title>
<path fill="none" stroke="#991000" d="M203.07,-1122.29C229.94,-1090.24 264.04,-1049.58 288.37,-1020.56"/>
<polygon fill="#991000" stroke="#991000" points="291.53,-1023.24 295.28,-1013.33 286.17,-1018.75 291.53,-1023.24"/>
<text text-anchor="middle" x="335.21" y="-1043.13" font-family="Times,serif" font-size="14.00" fill="#991000">Is that a threat?</text>
</g>
<!-- ghoul10&#45;&gt;ghoulcbt -->
<g id="edge27" class="edge">
<title>ghoul10&#45;&gt;ghoulcbt</title>
<path fill="none" stroke="#555555" stroke-dasharray="1,5" d="M333.5,-952.45C353.16,-911.78 388.61,-838.44 407.61,-799.14"/>
<polygon fill="#555555" stroke="#555555" points="411.19,-800.77 412.39,-790.24 404.89,-797.72 411.19,-800.77"/>
</g>
<!-- ghoul13 -->
<g id="node19" class="node">
<title>ghoul13</title>
<ellipse fill="#ffffff" stroke="#000000" cx="1326.46" cy="-103.05" rx="85.41" ry="18"/>
<text text-anchor="middle" x="1326.46" y="-98.38" font-family="Times,serif" font-size="14.00">You should git.</text>
</g>
<!-- ghoul13&#45;&gt;ghoulend -->
<g id="edge30" class="edge">
<title>ghoul13&#45;&gt;ghoulend</title>
<path fill="none" stroke="#555555" stroke-dasharray="1,5" d="M1299.81,-85.67C1280.47,-74.67 1253.29,-60.95 1227.46,-54 1145.27,-31.9 888.13,-22.71 790.54,-19.96"/>
<polygon fill="#555555" stroke="#555555" points="790.81,-16.44 780.72,-19.66 790.62,-23.43 790.81,-16.44"/>
</g>
</g>
</svg>
