<?xml version="1.0" encoding="UTF-8" standalone="no"?>
<!DOCTYPE svg PUBLIC "-//W3C//DTD SVG 1.1//EN"
 "http://www.w3.org/Graphics/SVG/1.1/DTD/svg11.dtd">
<!-- Generated by graphviz version 8.0.5 (0)
 -->
<!-- Title: GUARDEMO Pages: 1 -->
<svg width="2632pt" height="1090pt"
 viewBox="0.00 0.00 2632.47 1089.75" xmlns="http://www.w3.org/2000/svg" xmlns:xlink="http://www.w3.org/1999/xlink">
<g id="graph0" class="graph" transform="scale(1 1) rotate(0) translate(4 1085.75)">
<title>GUARDEMO</title>
<polygon fill="white" stroke="none" points="-4,4 -4,-1085.75 2628.47,-1085.75 2628.47,4 -4,4"/>
<!-- start -->
<g id="node1" class="node">
<title>start</title>
<ellipse fill="#ffffff" stroke="#000000" cx="353.47" cy="-941.92" rx="135.94" ry="66.64"/>
<text text-anchor="middle" x="353.47" y="-971.74" font-family="Times,serif" font-size="14.00">You earn 150 experience</text>
<text text-anchor="middle" x="353.47" y="-954.49" font-family="Times,serif" font-size="14.00">points for killing the</text>
<text text-anchor="middle" x="353.47" y="-937.24" font-family="Times,serif" font-size="14.00">guard.</text>
<text text-anchor="middle" x="353.47" y="-919.99" font-family="Times,serif" font-size="14.00">&#45;&#45;&#45;</text>
<text text-anchor="middle" x="353.47" y="-902.74" font-family="Times,serif" font-size="14.00">A Junktown guard.</text>
</g>
<!-- do_dialogue -->
<g id="node2" class="node">
<title>do_dialogue</title>
<ellipse fill="#ffffff" stroke="#000000" cx="281.47" cy="-601.86" rx="27" ry="18"/>
</g>
<!-- start&#45;&gt;do_dialogue -->
<g id="edge1" class="edge">
<title>start&#45;&gt;do_dialogue</title>
<path fill="none" stroke="#555555" stroke-dasharray="1,5" d="M339.5,-875.34C323.69,-801.1 298.67,-683.61 287.36,-630.52"/>
<polygon fill="#555555" stroke="#555555" points="290.61,-629.97 285.1,-620.92 283.76,-631.43 290.61,-629.97"/>
</g>
<!-- weapon_check -->
<g id="node3" class="node">
<title>weapon_check</title>
<ellipse fill="#ffffff" stroke="#000000" cx="353.47" cy="-601.86" rx="27" ry="18"/>
</g>
<!-- start&#45;&gt;weapon_check -->
<g id="edge2" class="edge">
<title>start&#45;&gt;weapon_check</title>
<path fill="none" stroke="#555555" stroke-dasharray="1,5" d="M347.99,-874.94C345.89,-800.98 346.4,-684.46 349.52,-631.17"/>
<polygon fill="#555555" stroke="#555555" points="353.08,-631.42 350.28,-621.21 346.1,-630.94 353.08,-631.42"/>
</g>
<!-- start&#45;&gt;weapon_check -->
<g id="edge3" class="edge">
<title>start&#45;&gt;weapon_check</title>
<path fill="none" stroke="#555555" stroke-dasharray="1,5" d="M358.95,-874.94C361.06,-800.98 360.54,-684.46 357.42,-631.17"/>
<polygon fill="#555555" stroke="#555555" points="360.85,-630.94 356.67,-621.21 353.86,-631.42 360.85,-630.94"/>
</g>
<!-- guard00 -->
<g id="node4" class="node">
<title>guard00</title>
<ellipse fill="#ffffff" stroke="#000000" cx="136.47" cy="-200.82" rx="136.47" ry="200.82"/>
<text text-anchor="middle" x="136.47" y="-325.52" font-family="Times,serif" font-size="14.00">You&#39;d better put that</text>
<text text-anchor="middle" x="136.47" y="-308.27" font-family="Times,serif" font-size="14.00">away. Junktown is a</text>
<text text-anchor="middle" x="136.47" y="-291.02" font-family="Times,serif" font-size="14.00">friendly place,</text>
<text text-anchor="middle" x="136.47" y="-273.77" font-family="Times,serif" font-size="14.00">friend, and we want to</text>
<text text-anchor="middle" x="136.47" y="-256.52" font-family="Times,serif" font-size="14.00">keep it that way.</text>
<text text-anchor="middle" x="136.47" y="-239.27" font-family="Times,serif" font-size="14.00">&#45;&#45;&#45;</text>
<text text-anchor="middle" x="136.47" y="-222.02" font-family="Times,serif" font-size="14.00">Put what away?</text>
<text text-anchor="middle" x="136.47" y="-204.77" font-family="Times,serif" font-size="14.00">&#45;&#45;&#45;</text>
<text text-anchor="middle" x="136.47" y="-187.52" font-family="Times,serif" font-size="14.00">Don&#39;t tell me what to do,</text>
<text text-anchor="middle" x="136.47" y="-170.27" font-family="Times,serif" font-size="14.00">loser boy.</text>
<text text-anchor="middle" x="136.47" y="-153.02" font-family="Times,serif" font-size="14.00">&#45;&#45;&#45;</text>
<text text-anchor="middle" x="136.47" y="-135.77" font-family="Times,serif" font-size="14.00">Sounds fair. By the way,</text>
<text text-anchor="middle" x="136.47" y="-118.52" font-family="Times,serif" font-size="14.00">what is the local law</text>
<text text-anchor="middle" x="136.47" y="-101.27" font-family="Times,serif" font-size="14.00">regarding weapons?</text>
<text text-anchor="middle" x="136.47" y="-84.02" font-family="Times,serif" font-size="14.00">&#45;&#45;&#45;</text>
<text text-anchor="middle" x="136.47" y="-66.77" font-family="Times,serif" font-size="14.00">Uh oh.</text>
</g>
<!-- do_dialogue&#45;&gt;guard00 -->
<g id="edge4" class="edge">
<title>do_dialogue&#45;&gt;guard00</title>
<path fill="none" stroke="#555555" stroke-dasharray="1,5" d="M275.33,-583.97C262.82,-549.54 233.13,-467.81 204.39,-388.73"/>
<polygon fill="#555555" stroke="#555555" points="207.41,-387.81 200.71,-379.6 200.84,-390.2 207.41,-387.81"/>
</g>
<!-- guard02a -->
<g id="node5" class="node">
<title>guard02a</title>
<ellipse fill="#ffffff" stroke="#000000" cx="426.47" cy="-200.82" rx="135.94" ry="115.44"/>
<text text-anchor="middle" x="426.47" y="-265.14" font-family="Times,serif" font-size="14.00">This is Junktown. Nice</text>
<text text-anchor="middle" x="426.47" y="-247.89" font-family="Times,serif" font-size="14.00">place to live, as long</text>
<text text-anchor="middle" x="426.47" y="-230.64" font-family="Times,serif" font-size="14.00">as you stay on our good</text>
<text text-anchor="middle" x="426.47" y="-213.39" font-family="Times,serif" font-size="14.00">side</text>
<text text-anchor="middle" x="426.47" y="-196.14" font-family="Times,serif" font-size="14.00">&#45;&#45;&#45;</text>
<text text-anchor="middle" x="426.47" y="-178.89" font-family="Times,serif" font-size="14.00">Watch out for Gizmo and</text>
<text text-anchor="middle" x="426.47" y="-161.64" font-family="Times,serif" font-size="14.00">his cronies.</text>
<text text-anchor="middle" x="426.47" y="-144.39" font-family="Times,serif" font-size="14.00">&#45;&#45;&#45;</text>
<text text-anchor="middle" x="426.47" y="-127.14" font-family="Times,serif" font-size="14.00">I like my boss.</text>
</g>
<!-- do_dialogue&#45;&gt;guard02a -->
<g id="edge5" class="edge">
<title>do_dialogue&#45;&gt;guard02a</title>
<path fill="none" stroke="#555555" stroke-dasharray="1,5" d="M283.98,-583.85C288.68,-553.81 299.96,-489.61 317.47,-437.64 331.11,-397.15 349.58,-354.34 367.44,-316.47"/>
<polygon fill="#555555" stroke="#555555" points="370.83,-318.48 371.96,-307.95 364.51,-315.48 370.83,-318.48"/>
</g>
<!-- guard02b -->
<g id="node6" class="node">
<title>guard02b</title>
<ellipse fill="#ffffff" stroke="#000000" cx="640.47" cy="-941.92" rx="133.29" ry="127.63"/>
<text text-anchor="middle" x="640.47" y="-1014.87" font-family="Times,serif" font-size="14.00">Disobey the law, and we</text>
<text text-anchor="middle" x="640.47" y="-997.62" font-family="Times,serif" font-size="14.00">will return you to the</text>
<text text-anchor="middle" x="640.47" y="-980.37" font-family="Times,serif" font-size="14.00">lawless</text>
<text text-anchor="middle" x="640.47" y="-963.12" font-family="Times,serif" font-size="14.00">wasteland &#45; dead or</text>
<text text-anchor="middle" x="640.47" y="-945.87" font-family="Times,serif" font-size="14.00">alive.</text>
<text text-anchor="middle" x="640.47" y="-928.62" font-family="Times,serif" font-size="14.00">&#45;&#45;&#45;</text>
<text text-anchor="middle" x="640.47" y="-911.37" font-family="Times,serif" font-size="14.00">Sure, since you put it</text>
<text text-anchor="middle" x="640.47" y="-894.12" font-family="Times,serif" font-size="14.00">that way.</text>
<text text-anchor="middle" x="640.47" y="-876.87" font-family="Times,serif" font-size="14.00">&#45;&#45;&#45;</text>
<text text-anchor="middle" x="640.47" y="-859.62" font-family="Times,serif" font-size="14.00">Bite your laws!</text>
</g>
<!-- guard00i -->
<g id="node7" class="node">
<title>guard00i</title>
<ellipse fill="#ffffff" stroke="#000000" cx="1266.47" cy="-941.92" rx="27" ry="18"/>
</g>
<!-- DownReact -->
<g id="node8" class="node">
<title>DownReact</title>
<ellipse fill="#ffffff" stroke="#000000" cx="1091.47" cy="-601.86" rx="27" ry="18"/>
</g>
<!-- guard00i&#45;&gt;DownReact -->
<g id="edge6" class="edge">
<title>guard00i&#45;&gt;DownReact</title>
<path fill="none" stroke="#555555" stroke-dasharray="1,5" d="M1251.21,-926.64C1222.31,-898.71 1159.65,-833.66 1127.47,-766.09 1106.27,-721.56 1097.35,-664.21 1093.75,-630.69"/>
<polygon fill="#555555" stroke="#555555" points="1097.15,-630.5 1092.69,-620.89 1090.19,-631.18 1097.15,-630.5"/>
</g>
<!-- guard02 -->
<g id="node9" class="node">
<title>guard02</title>
<ellipse fill="#ffffff" stroke="#000000" cx="1349.47" cy="-601.86" rx="141.24" ry="127.63"/>
<text text-anchor="middle" x="1349.47" y="-674.81" font-family="Times,serif" font-size="14.00">You&#39;d better behave,</text>
<text text-anchor="middle" x="1349.47" y="-657.56" font-family="Times,serif" font-size="14.00">since it&#39;s the law, and I</text>
<text text-anchor="middle" x="1349.47" y="-640.31" font-family="Times,serif" font-size="14.00">enforce the law.</text>
<text text-anchor="middle" x="1349.47" y="-623.06" font-family="Times,serif" font-size="14.00">Put your weapon away,</text>
<text text-anchor="middle" x="1349.47" y="-605.81" font-family="Times,serif" font-size="14.00">don&#39;t draw it unless in</text>
<text text-anchor="middle" x="1349.47" y="-588.56" font-family="Times,serif" font-size="14.00">self&#45;defense, and</text>
<text text-anchor="middle" x="1349.47" y="-571.31" font-family="Times,serif" font-size="14.00">you won&#39;t have a problem</text>
<text text-anchor="middle" x="1349.47" y="-554.06" font-family="Times,serif" font-size="14.00">with us guards.</text>
<text text-anchor="middle" x="1349.47" y="-536.81" font-family="Times,serif" font-size="14.00">&#45;&#45;&#45;</text>
<text text-anchor="middle" x="1349.47" y="-519.56" font-family="Times,serif" font-size="14.00">[more]</text>
</g>
<!-- guard00i&#45;&gt;guard02 -->
<g id="edge7" class="edge">
<title>guard00i&#45;&gt;guard02</title>
<path fill="none" stroke="#555555" stroke-dasharray="1,5" d="M1270.7,-923.69C1279.17,-889.19 1298.91,-808.79 1316.51,-737.11"/>
<polygon fill="#555555" stroke="#555555" points="1320.1,-738.15 1319.09,-727.61 1313.31,-736.49 1320.1,-738.15"/>
</g>
<!-- ReactToLevel -->
<g id="node19" class="node">
<title>ReactToLevel</title>
<ellipse fill="#ffffff" stroke="#000000" cx="1127.47" cy="-200.82" rx="27" ry="18"/>
</g>
<!-- DownReact&#45;&gt;ReactToLevel -->
<g id="edge14" class="edge">
<title>DownReact&#45;&gt;ReactToLevel</title>
<path fill="none" stroke="#555555" stroke-dasharray="1,5" d="M1093.04,-583.46C1098.69,-520.82 1118.03,-306.51 1124.97,-229.59"/>
<polygon fill="#555555" stroke="#555555" points="1128.52,-230.14 1125.93,-219.86 1121.55,-229.51 1128.52,-230.14"/>
</g>
<!-- guard00ii -->
<g id="node10" class="node">
<title>guard00ii</title>
<ellipse fill="#ffffff" stroke="#000000" cx="818.47" cy="-941.92" rx="27" ry="18"/>
</g>
<!-- UpReact -->
<g id="node11" class="node">
<title>UpReact</title>
<ellipse fill="#ffffff" stroke="#000000" cx="727.47" cy="-601.86" rx="27" ry="18"/>
</g>
<!-- guard00ii&#45;&gt;UpReact -->
<g id="edge8" class="edge">
<title>guard00ii&#45;&gt;UpReact</title>
<path fill="none" stroke="#555555" stroke-dasharray="1,5" d="M815.38,-923.85C810.26,-897.26 798.94,-844.58 782.47,-802.09 775.93,-785.22 769.7,-783.07 763.47,-766.09 746.59,-720.02 736.3,-663.61 731.26,-630.61"/>
<polygon fill="#555555" stroke="#555555" points="734.62,-630.35 729.7,-620.97 727.69,-631.37 734.62,-630.35"/>
</g>
<!-- guard04 -->
<g id="node12" class="node">
<title>guard04</title>
<ellipse fill="#ffffff" stroke="#000000" cx="909.47" cy="-601.86" rx="137" ry="164.23"/>
<text text-anchor="middle" x="909.47" y="-700.69" font-family="Times,serif" font-size="14.00">Good you asked. No</text>
<text text-anchor="middle" x="909.47" y="-683.44" font-family="Times,serif" font-size="14.00">weapons can be drawn</text>
<text text-anchor="middle" x="909.47" y="-666.19" font-family="Times,serif" font-size="14.00">except in self&#45;defense.</text>
<text text-anchor="middle" x="909.47" y="-648.94" font-family="Times,serif" font-size="14.00">If</text>
<text text-anchor="middle" x="909.47" y="-631.69" font-family="Times,serif" font-size="14.00">you start a fight, it&#39;s</text>
<text text-anchor="middle" x="909.47" y="-614.44" font-family="Times,serif" font-size="14.00">your fault. Other than</text>
<text text-anchor="middle" x="909.47" y="-597.19" font-family="Times,serif" font-size="14.00">that, it&#39;s your right</text>
<text text-anchor="middle" x="909.47" y="-579.94" font-family="Times,serif" font-size="14.00">to go around armed. Just</text>
<text text-anchor="middle" x="909.47" y="-562.69" font-family="Times,serif" font-size="14.00">don&#39;t pull a knife or gun</text>
<text text-anchor="middle" x="909.47" y="-545.44" font-family="Times,serif" font-size="14.00">without just</text>
<text text-anchor="middle" x="909.47" y="-528.19" font-family="Times,serif" font-size="14.00"> cause. Have a good day.</text>
<text text-anchor="middle" x="909.47" y="-510.94" font-family="Times,serif" font-size="14.00">&#45;&#45;&#45;</text>
<text text-anchor="middle" x="909.47" y="-493.69" font-family="Times,serif" font-size="14.00">Thanks &#45; you, too.</text>
</g>
<!-- guard00ii&#45;&gt;guard04 -->
<g id="edge9" class="edge">
<title>guard00ii&#45;&gt;guard04</title>
<path fill="none" stroke="#555555" stroke-dasharray="1,5" d="M823.11,-923.69C831.03,-894.25 847.96,-831.37 864.75,-769.02"/>
<polygon fill="#555555" stroke="#555555" points="868.33,-770.18 867.55,-759.61 861.57,-768.36 868.33,-770.18"/>
</g>
<!-- UpReact&#45;&gt;ReactToLevel -->
<g id="edge13" class="edge">
<title>UpReact&#45;&gt;ReactToLevel</title>
<path fill="none" stroke="#555555" stroke-dasharray="1,5" d="M727.15,-583.44C727.39,-551.62 731.88,-483.18 763.47,-437.64 848.76,-314.69 1020.98,-240.52 1093.77,-213.49"/>
<polygon fill="#555555" stroke="#555555" points="1094.57,-216.55 1102.77,-209.84 1092.18,-209.98 1094.57,-216.55"/>
</g>
<!-- guard01 -->
<g id="node13" class="node">
<title>guard01</title>
<ellipse fill="#ffffff" stroke="#000000" cx="1608.47" cy="-941.92" rx="132.23" ry="139.83"/>
<text text-anchor="middle" x="1608.47" y="-1023.49" font-family="Times,serif" font-size="14.00">Your weapon, idiot.</text>
<text text-anchor="middle" x="1608.47" y="-1006.24" font-family="Times,serif" font-size="14.00">Killian won&#39;t take your</text>
<text text-anchor="middle" x="1608.47" y="-988.99" font-family="Times,serif" font-size="14.00">arms away, but you&#39;d</text>
<text text-anchor="middle" x="1608.47" y="-971.74" font-family="Times,serif" font-size="14.00">better damn well keep</text>
<text text-anchor="middle" x="1608.47" y="-954.49" font-family="Times,serif" font-size="14.00">them in your holster.</text>
<text text-anchor="middle" x="1608.47" y="-937.24" font-family="Times,serif" font-size="14.00">&#45;&#45;&#45;</text>
<text text-anchor="middle" x="1608.47" y="-919.99" font-family="Times,serif" font-size="14.00">Oh, sorry.</text>
<text text-anchor="middle" x="1608.47" y="-902.74" font-family="Times,serif" font-size="14.00">&#45;&#45;&#45;</text>
<text text-anchor="middle" x="1608.47" y="-885.49" font-family="Times,serif" font-size="14.00">No way! I&#39;m not putting</text>
<text text-anchor="middle" x="1608.47" y="-868.24" font-family="Times,serif" font-size="14.00">down my shooters for</text>
<text text-anchor="middle" x="1608.47" y="-850.99" font-family="Times,serif" font-size="14.00">nobody!</text>
</g>
<!-- guard01i -->
<g id="node14" class="node">
<title>guard01i</title>
<ellipse fill="#ffffff" stroke="#000000" cx="1431.47" cy="-941.92" rx="27" ry="18"/>
</g>
<!-- guard01i&#45;&gt;guard02 -->
<g id="edge11" class="edge">
<title>guard01i&#45;&gt;guard02</title>
<path fill="none" stroke="#555555" stroke-dasharray="1,5" d="M1427.29,-923.69C1418.94,-889.26 1399.5,-809.09 1382.13,-737.51"/>
<polygon fill="#555555" stroke="#555555" points="1385.35,-736.92 1379.59,-728.02 1378.54,-738.57 1385.35,-736.92"/>
</g>
<!-- guard03 -->
<g id="node15" class="node">
<title>guard03</title>
<ellipse fill="#ffffff" stroke="#000000" cx="1704.47" cy="-601.86" rx="124.27" ry="66.64"/>
<text text-anchor="middle" x="1704.47" y="-631.69" font-family="Times,serif" font-size="14.00">Well, uh, fine with me.</text>
<text text-anchor="middle" x="1704.47" y="-614.44" font-family="Times,serif" font-size="14.00">But you&#39;d better be</text>
<text text-anchor="middle" x="1704.47" y="-597.19" font-family="Times,serif" font-size="14.00">careful.</text>
<text text-anchor="middle" x="1704.47" y="-579.94" font-family="Times,serif" font-size="14.00">&#45;&#45;&#45;</text>
<text text-anchor="middle" x="1704.47" y="-562.69" font-family="Times,serif" font-size="14.00">Fine, then. Heh.</text>
</g>
<!-- guard01i&#45;&gt;guard03 -->
<g id="edge10" class="edge">
<title>guard01i&#45;&gt;guard03</title>
<path fill="none" stroke="#555555" stroke-dasharray="1,5" d="M1431.02,-923.55C1431.23,-894.61 1435.88,-836.3 1467.47,-802.09 1500.66,-766.15 1531.38,-794.12 1571.47,-766.09 1606.11,-741.87 1636.59,-706.23 1659.61,-674.42"/>
<polygon fill="#555555" stroke="#555555" points="1662.96,-676.75 1665.9,-666.57 1657.25,-672.7 1662.96,-676.75"/>
</g>
<!-- guard02i -->
<g id="node16" class="node">
<title>guard02i</title>
<ellipse fill="#ffffff" stroke="#000000" cx="1785.47" cy="-941.92" rx="27" ry="18"/>
</g>
<!-- guard05 -->
<g id="node17" class="node">
<title>guard05</title>
<ellipse fill="#ffffff" stroke="#000000" cx="1975.47" cy="-941.92" rx="145.49" ry="91.04"/>
<text text-anchor="middle" x="1975.47" y="-988.99" font-family="Times,serif" font-size="14.00">Hey you, no weapons! And</text>
<text text-anchor="middle" x="1975.47" y="-971.74" font-family="Times,serif" font-size="14.00">I don&#39;t care if your</text>
<text text-anchor="middle" x="1975.47" y="-954.49" font-family="Times,serif" font-size="14.00">momma dropped you on</text>
<text text-anchor="middle" x="1975.47" y="-937.24" font-family="Times,serif" font-size="14.00">your head as a kid. No</text>
<text text-anchor="middle" x="1975.47" y="-919.99" font-family="Times,serif" font-size="14.00">weapons.</text>
<text text-anchor="middle" x="1975.47" y="-902.74" font-family="Times,serif" font-size="14.00">&#45;&#45;&#45;</text>
<text text-anchor="middle" x="1975.47" y="-885.49" font-family="Times,serif" font-size="14.00">Dorf!</text>
</g>
<!-- guardend -->
<g id="node18" class="node">
<title>guardend</title>
<ellipse fill="#ffffff" stroke="#000000" cx="2165.47" cy="-941.92" rx="27" ry="18"/>
</g>
<!-- LevelToReact -->
<g id="node20" class="node">
<title>LevelToReact</title>
<ellipse fill="#ffffff" stroke="#000000" cx="2309.47" cy="-601.86" rx="27" ry="18"/>
</g>
<!-- ModReact -->
<g id="node21" class="node">
<title>ModReact</title>
<ellipse fill="#ffffff" stroke="#000000" cx="2237.47" cy="-941.92" rx="27" ry="18"/>
</g>
<!-- ModReact&#45;&gt;LevelToReact -->
<g id="edge12" class="edge">
<title>ModReact&#45;&gt;LevelToReact</title>
<path fill="none" stroke="#555555" stroke-dasharray="1,5" d="M2241.14,-923.69C2252.82,-868.87 2289.18,-698.14 2303.55,-630.68"/>
<polygon fill="#555555" stroke="#555555" points="2307.15,-631.57 2305.81,-621.06 2300.3,-630.11 2307.15,-631.57"/>
</g>
<!-- BottomReact -->
<g id="node22" class="node">
<title>BottomReact</title>
<ellipse fill="#ffffff" stroke="#000000" cx="2453.47" cy="-941.92" rx="27" ry="18"/>
</g>
<!-- TopReact -->
<g id="node23" class="node">
<title>TopReact</title>
<ellipse fill="#ffffff" stroke="#000000" cx="2525.47" cy="-941.92" rx="27" ry="18"/>
</g>
<!-- BigUpReact -->
<g id="node24" class="node">
<title>BigUpReact</title>
<ellipse fill="#ffffff" stroke="#000000" cx="1163.47" cy="-601.86" rx="27" ry="18"/>
</g>
<!-- BigUpReact&#45;&gt;ReactToLevel -->
<g id="edge15" class="edge">
<title>BigUpReact&#45;&gt;ReactToLevel</title>
<path fill="none" stroke="#555555" stroke-dasharray="1,5" d="M1161.9,-583.46C1156.25,-520.82 1136.92,-306.51 1129.98,-229.59"/>
<polygon fill="#555555" stroke="#555555" points="1133.39,-229.51 1129.01,-219.86 1126.42,-230.14 1133.39,-229.51"/>
</g>
<!-- BigDownReact -->
<g id="node25" class="node">
<title>BigDownReact</title>
<ellipse fill="#ffffff" stroke="#000000" cx="1535.47" cy="-601.86" rx="27" ry="18"/>
</g>
<!-- BigDownReact&#45;&gt;ReactToLevel -->
<g id="edge16" class="edge">
<title>BigDownReact&#45;&gt;ReactToLevel</title>
<path fill="none" stroke="#555555" stroke-dasharray="1,5" d="M1535.84,-583.41C1535.67,-551.54 1531.29,-483.02 1499.47,-437.64 1412.03,-312.91 1235.43,-239.51 1161.37,-213.07"/>
<polygon fill="#555555" stroke="#555555" points="1162.8,-209.52 1152.21,-209.51 1160.49,-216.12 1162.8,-209.52"/>
</g>
<!-- UpReactLevel -->
<g id="node26" class="node">
<title>UpReactLevel</title>
<ellipse fill="#ffffff" stroke="#000000" cx="2309.47" cy="-941.92" rx="27" ry="18"/>
</g>
<!-- UpReactLevel&#45;&gt;LevelToReact -->
<g id="edge17" class="edge">
<title>UpReactLevel&#45;&gt;LevelToReact</title>
<path fill="none" stroke="#555555" stroke-dasharray="1,5" d="M2309.47,-923.69C2309.47,-868.87 2309.47,-698.14 2309.47,-630.68"/>
<polygon fill="#555555" stroke="#555555" points="2312.97,-631.06 2309.47,-621.06 2305.97,-631.06 2312.97,-631.06"/>
</g>
<!-- DownReactLevel -->
<g id="node27" class="node">
<title>DownReactLevel</title>
<ellipse fill="#ffffff" stroke="#000000" cx="2381.47" cy="-941.92" rx="27" ry="18"/>
</g>
<!-- DownReactLevel&#45;&gt;LevelToReact -->
<g id="edge18" class="edge">
<title>DownReactLevel&#45;&gt;LevelToReact</title>
<path fill="none" stroke="#555555" stroke-dasharray="1,5" d="M2377.8,-923.69C2366.13,-868.87 2329.76,-698.14 2315.4,-630.68"/>
<polygon fill="#555555" stroke="#555555" points="2318.64,-630.11 2313.13,-621.06 2311.79,-631.57 2318.64,-630.11"/>
</g>
<!-- Goodbyes -->
<g id="node28" class="node">
<title>Goodbyes</title>
<ellipse fill="#ffffff" stroke="#000000" cx="2597.47" cy="-941.92" rx="27" ry="18"/>
</g>
</g>
</svg>
