<?xml version="1.0" encoding="UTF-8" standalone="no"?>
<!DOCTYPE svg PUBLIC "-//W3C//DTD SVG 1.1//EN"
 "http://www.w3.org/Graphics/SVG/1.1/DTD/svg11.dtd">
<!-- Generated by graphviz version 8.0.5 (0)
 -->
<!-- Title: HALLGRD Pages: 1 -->
<svg width="1360pt" height="823pt"
 viewBox="0.00 0.00 1360.33 823.17" xmlns="http://www.w3.org/2000/svg" xmlns:xlink="http://www.w3.org/1999/xlink">
<g id="graph0" class="graph" transform="scale(1 1) rotate(0) translate(4 819.17)">
<title>HALLGRD</title>
<polygon fill="white" stroke="none" points="-4,4 -4,-819.17 1356.33,-819.17 1356.33,4 -4,4"/>
<!-- start -->
<g id="node1" class="node">
<title>start</title>
<ellipse fill="#ffffff" stroke="#000000" cx="486.33" cy="-797.17" rx="27" ry="18"/>
</g>
<!-- look_at_p_proc -->
<g id="node2" class="node">
<title>look_at_p_proc</title>
<ellipse fill="#ffffff" stroke="#000000" cx="125.33" cy="-371.58" rx="125.33" ry="30.05"/>
<text text-anchor="middle" x="125.33" y="-375.53" font-family="Times,serif" font-size="14.00">You see a Brotherhood</text>
<text text-anchor="middle" x="125.33" y="-358.28" font-family="Times,serif" font-size="14.00">Guard.</text>
</g>
<!-- start&#45;&gt;look_at_p_proc -->
<g id="edge1" class="edge">
<title>start&#45;&gt;look_at_p_proc</title>
<path fill="none" stroke="#555555" stroke-dasharray="1,5" d="M459.66,-793.14C406.29,-786.59 288.98,-769.52 259.33,-743.17 160.52,-655.34 134.53,-488.94 127.73,-412.64"/>
<polygon fill="#555555" stroke="#555555" points="131.17,-412.73 126.86,-403.06 124.19,-413.31 131.17,-412.73"/>
</g>
<!-- pickup_p_proc -->
<g id="node3" class="node">
<title>pickup_p_proc</title>
<ellipse fill="#ffffff" stroke="#000000" cx="295.33" cy="-371.58" rx="27" ry="18"/>
</g>
<!-- start&#45;&gt;pickup_p_proc -->
<g id="edge2" class="edge">
<title>start&#45;&gt;pickup_p_proc</title>
<path fill="none" stroke="#555555" stroke-dasharray="1,5" d="M459.18,-795.36C423.65,-792.7 362.29,-782.32 331.33,-743.17 249.85,-640.12 275.06,-467.12 288.91,-400.18"/>
<polygon fill="#555555" stroke="#555555" points="292.49,-401.18 291.18,-390.67 285.65,-399.71 292.49,-401.18"/>
</g>
<!-- talk_p_proc -->
<g id="node4" class="node">
<title>talk_p_proc</title>
<ellipse fill="#ffffff" stroke="#000000" cx="486.33" cy="-371.58" rx="146.02" ry="371.58"/>
<text text-anchor="middle" x="486.33" y="-617.03" font-family="Times,serif" font-size="14.00">Stay sharp Initiate!</text>
<text text-anchor="middle" x="486.33" y="-599.78" font-family="Times,serif" font-size="14.00">&#45;&#45;&#45;</text>
<text text-anchor="middle" x="486.33" y="-582.53" font-family="Times,serif" font-size="14.00">Looking good. Keep up the</text>
<text text-anchor="middle" x="486.33" y="-565.28" font-family="Times,serif" font-size="14.00">good work.</text>
<text text-anchor="middle" x="486.33" y="-548.03" font-family="Times,serif" font-size="14.00">&#45;&#45;&#45;</text>
<text text-anchor="middle" x="486.33" y="-530.78" font-family="Times,serif" font-size="14.00">Hello initiate,</text>
<text text-anchor="middle" x="486.33" y="-513.53" font-family="Times,serif" font-size="14.00">everything is secure.</text>
<text text-anchor="middle" x="486.33" y="-496.28" font-family="Times,serif" font-size="14.00">&#45;&#45;&#45;</text>
<text text-anchor="middle" x="486.33" y="-479.03" font-family="Times,serif" font-size="14.00">Sorry, I shouldn&#39;t be</text>
<text text-anchor="middle" x="486.33" y="-461.78" font-family="Times,serif" font-size="14.00">talking to anyone. You</text>
<text text-anchor="middle" x="486.33" y="-444.53" font-family="Times,serif" font-size="14.00">know how it is.</text>
<text text-anchor="middle" x="486.33" y="-427.28" font-family="Times,serif" font-size="14.00">&#45;&#45;&#45;</text>
<text text-anchor="middle" x="486.33" y="-410.03" font-family="Times,serif" font-size="14.00">You should talk to Talus</text>
<text text-anchor="middle" x="486.33" y="-392.78" font-family="Times,serif" font-size="14.00">or Maxson if you have any</text>
<text text-anchor="middle" x="486.33" y="-375.53" font-family="Times,serif" font-size="14.00">questions.</text>
<text text-anchor="middle" x="486.33" y="-358.28" font-family="Times,serif" font-size="14.00">&#45;&#45;&#45;</text>
<text text-anchor="middle" x="486.33" y="-341.03" font-family="Times,serif" font-size="14.00">Vree&#39;s in the library</text>
<text text-anchor="middle" x="486.33" y="-323.78" font-family="Times,serif" font-size="14.00">during the day if you</text>
<text text-anchor="middle" x="486.33" y="-306.53" font-family="Times,serif" font-size="14.00">ever have technical</text>
<text text-anchor="middle" x="486.33" y="-289.28" font-family="Times,serif" font-size="14.00"> questions.</text>
<text text-anchor="middle" x="486.33" y="-272.03" font-family="Times,serif" font-size="14.00">&#45;&#45;&#45;</text>
<text text-anchor="middle" x="486.33" y="-254.78" font-family="Times,serif" font-size="14.00">Rhombus is my idol.</text>
<text text-anchor="middle" x="486.33" y="-237.53" font-family="Times,serif" font-size="14.00">&#45;&#45;&#45;</text>
<text text-anchor="middle" x="486.33" y="-220.28" font-family="Times,serif" font-size="14.00">I wish I was training</text>
<text text-anchor="middle" x="486.33" y="-203.03" font-family="Times,serif" font-size="14.00">right now, this guard</text>
<text text-anchor="middle" x="486.33" y="-185.78" font-family="Times,serif" font-size="14.00">duty is a waste of time.</text>
<text text-anchor="middle" x="486.33" y="-168.53" font-family="Times,serif" font-size="14.00">&#45;&#45;&#45;</text>
<text text-anchor="middle" x="486.33" y="-151.28" font-family="Times,serif" font-size="14.00">Hi Brother </text>
<text text-anchor="middle" x="486.33" y="-134.03" font-family="Times,serif" font-size="14.00">&#45;&#45;&#45;</text>
<text text-anchor="middle" x="486.33" y="-116.78" font-family="Times,serif" font-size="14.00">.</text>
</g>
<!-- start&#45;&gt;talk_p_proc -->
<g id="edge3" class="edge">
<title>start&#45;&gt;talk_p_proc</title>
<path fill="none" stroke="#555555" stroke-dasharray="1,5" d="M486.33,-778.77C486.33,-772.2 486.33,-763.95 486.33,-754.34"/>
<polygon fill="#555555" stroke="#555555" points="489.83,-754.39 486.33,-744.39 482.83,-754.39 489.83,-754.39"/>
</g>
<!-- critter_p_proc -->
<g id="node5" class="node">
<title>critter_p_proc</title>
<ellipse fill="#ffffff" stroke="#000000" cx="677.33" cy="-371.58" rx="27" ry="18"/>
</g>
<!-- start&#45;&gt;critter_p_proc -->
<g id="edge4" class="edge">
<title>start&#45;&gt;critter_p_proc</title>
<path fill="none" stroke="#555555" stroke-dasharray="1,5" d="M510.42,-788.68C552.91,-775.38 637.12,-748.5 641.33,-743.17 722.82,-640.12 697.61,-467.12 683.76,-400.18"/>
<polygon fill="#555555" stroke="#555555" points="687.02,-399.71 681.49,-390.67 680.18,-401.18 687.02,-399.71"/>
</g>
<!-- destroy_p_proc -->
<g id="node6" class="node">
<title>destroy_p_proc</title>
<ellipse fill="#ffffff" stroke="#000000" cx="749.33" cy="-371.58" rx="27" ry="18"/>
</g>
<!-- start&#45;&gt;destroy_p_proc -->
<g id="edge5" class="edge">
<title>start&#45;&gt;destroy_p_proc</title>
<path fill="none" stroke="#555555" stroke-dasharray="1,5" d="M510.63,-788.76C521.24,-785.63 533.86,-782.05 545.33,-779.17 619.4,-760.59 662.51,-800.16 713.33,-743.17 800.98,-644.89 771.93,-468.36 756.41,-400.35"/>
<polygon fill="#555555" stroke="#555555" points="759.59,-399.59 753.88,-390.67 752.78,-401.21 759.59,-399.59"/>
</g>
<!-- combat -->
<g id="node7" class="node">
<title>combat</title>
<ellipse fill="#ffffff" stroke="#000000" cx="581.33" cy="-797.17" rx="27" ry="18"/>
</g>
<!-- get_reaction -->
<g id="node8" class="node">
<title>get_reaction</title>
<ellipse fill="#ffffff" stroke="#000000" cx="677.33" cy="-797.17" rx="27" ry="18"/>
</g>
<!-- ReactToLevel -->
<g id="node9" class="node">
<title>ReactToLevel</title>
<ellipse fill="#ffffff" stroke="#000000" cx="821.33" cy="-371.58" rx="27" ry="18"/>
</g>
<!-- get_reaction&#45;&gt;ReactToLevel -->
<g id="edge6" class="edge">
<title>get_reaction&#45;&gt;ReactToLevel</title>
<path fill="none" stroke="#555555" stroke-dasharray="1,5" d="M698.85,-785.93C729.97,-771.09 783.98,-745.12 785.33,-743.17 859.81,-635.64 839.04,-466.56 827.07,-400.42"/>
<polygon fill="#555555" stroke="#555555" points="830.33,-399.83 825.03,-390.66 823.45,-401.13 830.33,-399.83"/>
</g>
<!-- LevelToReact -->
<g id="node10" class="node">
<title>LevelToReact</title>
<ellipse fill="#ffffff" stroke="#000000" cx="1073.33" cy="-371.58" rx="27" ry="18"/>
</g>
<!-- UpReact -->
<g id="node11" class="node">
<title>UpReact</title>
<ellipse fill="#ffffff" stroke="#000000" cx="749.33" cy="-797.17" rx="27" ry="18"/>
</g>
<!-- UpReact&#45;&gt;ReactToLevel -->
<g id="edge7" class="edge">
<title>UpReact&#45;&gt;ReactToLevel</title>
<path fill="none" stroke="#555555" stroke-dasharray="1,5" d="M762.62,-781.08C770.64,-771.05 780.27,-757.19 785.33,-743.17 829.28,-621.55 826.53,-463.71 823.23,-400.52"/>
<polygon fill="#555555" stroke="#555555" points="826.68,-400.64 822.61,-390.86 819.69,-401.04 826.68,-400.64"/>
</g>
<!-- DownReact -->
<g id="node12" class="node">
<title>DownReact</title>
<ellipse fill="#ffffff" stroke="#000000" cx="821.33" cy="-797.17" rx="27" ry="18"/>
</g>
<!-- DownReact&#45;&gt;ReactToLevel -->
<g id="edge8" class="edge">
<title>DownReact&#45;&gt;ReactToLevel</title>
<path fill="none" stroke="#555555" stroke-dasharray="1,5" d="M821.33,-778.77C821.33,-713.34 821.33,-481.58 821.33,-400.69"/>
<polygon fill="#555555" stroke="#555555" points="824.83,-400.89 821.33,-390.89 817.83,-400.89 824.83,-400.89"/>
</g>
<!-- BottomReact -->
<g id="node13" class="node">
<title>BottomReact</title>
<ellipse fill="#ffffff" stroke="#000000" cx="1181.33" cy="-797.17" rx="27" ry="18"/>
</g>
<!-- TopReact -->
<g id="node14" class="node">
<title>TopReact</title>
<ellipse fill="#ffffff" stroke="#000000" cx="1253.33" cy="-797.17" rx="27" ry="18"/>
</g>
<!-- BigUpReact -->
<g id="node15" class="node">
<title>BigUpReact</title>
<ellipse fill="#ffffff" stroke="#000000" cx="893.33" cy="-797.17" rx="27" ry="18"/>
</g>
<!-- BigUpReact&#45;&gt;ReactToLevel -->
<g id="edge9" class="edge">
<title>BigUpReact&#45;&gt;ReactToLevel</title>
<path fill="none" stroke="#555555" stroke-dasharray="1,5" d="M890.42,-779.04C879.36,-713.98 839.9,-481.81 826.12,-400.75"/>
<polygon fill="#555555" stroke="#555555" points="829.41,-400.2 824.28,-390.93 822.51,-401.37 829.41,-400.2"/>
</g>
<!-- BigDownReact -->
<g id="node16" class="node">
<title>BigDownReact</title>
<ellipse fill="#ffffff" stroke="#000000" cx="965.33" cy="-797.17" rx="27" ry="18"/>
</g>
<!-- BigDownReact&#45;&gt;ReactToLevel -->
<g id="edge10" class="edge">
<title>BigDownReact&#45;&gt;ReactToLevel</title>
<path fill="none" stroke="#555555" stroke-dasharray="1,5" d="M959.6,-779.3C937.52,-714.35 857.86,-480.02 830.58,-399.77"/>
<polygon fill="#555555" stroke="#555555" points="833.62,-398.84 827.08,-390.5 826.99,-401.09 833.62,-398.84"/>
</g>
<!-- UpReactLevel -->
<g id="node17" class="node">
<title>UpReactLevel</title>
<ellipse fill="#ffffff" stroke="#000000" cx="1037.33" cy="-797.17" rx="27" ry="18"/>
</g>
<!-- UpReactLevel&#45;&gt;LevelToReact -->
<g id="edge11" class="edge">
<title>UpReactLevel&#45;&gt;LevelToReact</title>
<path fill="none" stroke="#555555" stroke-dasharray="1,5" d="M1038.81,-778.77C1044.37,-713.34 1064.07,-481.58 1070.95,-400.69"/>
<polygon fill="#555555" stroke="#555555" points="1074.5,-401.15 1071.86,-390.89 1067.53,-400.56 1074.5,-401.15"/>
</g>
<!-- DownReactLevel -->
<g id="node18" class="node">
<title>DownReactLevel</title>
<ellipse fill="#ffffff" stroke="#000000" cx="1109.33" cy="-797.17" rx="27" ry="18"/>
</g>
<!-- DownReactLevel&#45;&gt;LevelToReact -->
<g id="edge12" class="edge">
<title>DownReactLevel&#45;&gt;LevelToReact</title>
<path fill="none" stroke="#555555" stroke-dasharray="1,5" d="M1107.86,-778.77C1102.29,-713.34 1082.6,-481.58 1075.72,-400.69"/>
<polygon fill="#555555" stroke="#555555" points="1079.14,-400.56 1074.81,-390.89 1072.16,-401.15 1079.14,-400.56"/>
</g>
<!-- Goodbyes -->
<g id="node19" class="node">
<title>Goodbyes</title>
<ellipse fill="#ffffff" stroke="#000000" cx="1325.33" cy="-797.17" rx="27" ry="18"/>
</g>
</g>
</svg>
