<?xml version="1.0" encoding="UTF-8" standalone="no"?>
<!DOCTYPE svg PUBLIC "-//W3C//DTD SVG 1.1//EN"
 "http://www.w3.org/Graphics/SVG/1.1/DTD/svg11.dtd">
<!-- Generated by graphviz version 8.0.5 (0)
 -->
<!-- Title: HTWRBOX Pages: 1 -->
<svg width="1154pt" height="1334pt"
 viewBox="0.00 0.00 1154.09 1334.28" xmlns="http://www.w3.org/2000/svg" xmlns:xlink="http://www.w3.org/1999/xlink">
<g id="graph0" class="graph" transform="scale(1 1) rotate(0) translate(4 1330.28)">
<title>HTWRBOX</title>
<polygon fill="white" stroke="none" points="-4,4 -4,-1330.28 1150.09,-1330.28 1150.09,4 -4,4"/>
<!-- start -->
<g id="node1" class="node">
<title>start</title>
<ellipse fill="#ffffff" stroke="#000000" cx="540.14" cy="-1308.28" rx="27" ry="18"/>
</g>
<!-- look_at_p_proc -->
<g id="node2" class="node">
<title>look_at_p_proc</title>
<ellipse fill="#ffffff" stroke="#000000" cx="113.14" cy="-663.14" rx="113.14" ry="66.64"/>
<text text-anchor="middle" x="113.14" y="-692.97" font-family="Times,serif" font-size="14.00">You see a locked</text>
<text text-anchor="middle" x="113.14" y="-675.72" font-family="Times,serif" font-size="14.00">strongbox.</text>
<text text-anchor="middle" x="113.14" y="-658.47" font-family="Times,serif" font-size="14.00">&#45;&#45;&#45;</text>
<text text-anchor="middle" x="113.14" y="-641.22" font-family="Times,serif" font-size="14.00">You see an unlocked</text>
<text text-anchor="middle" x="113.14" y="-623.97" font-family="Times,serif" font-size="14.00">stronbox.</text>
</g>
<!-- start&#45;&gt;look_at_p_proc -->
<g id="edge1" class="edge">
<title>start&#45;&gt;look_at_p_proc</title>
<path fill="none" stroke="#555555" stroke-dasharray="1,5" d="M512.87,-1306.35C445.65,-1303.49 274.61,-1292.52 235.14,-1254.28 94.76,-1118.3 94.29,-866.54 104.29,-740.37"/>
<polygon fill="#555555" stroke="#555555" points="107.84,-740.93 105.19,-730.67 100.87,-740.34 107.84,-740.93"/>
</g>
<!-- use_p_proc -->
<g id="node3" class="node">
<title>use_p_proc</title>
<ellipse fill="#ffffff" stroke="#000000" cx="387.14" cy="-663.14" rx="142.84" ry="188.62"/>
<text text-anchor="middle" x="387.14" y="-779.22" font-family="Times,serif" font-size="14.00">The strongbox is locked.</text>
<text text-anchor="middle" x="387.14" y="-761.97" font-family="Times,serif" font-size="14.00">&#45;&#45;&#45;</text>
<text text-anchor="middle" x="387.14" y="-744.72" font-family="Times,serif" font-size="14.00">While opening the</text>
<text text-anchor="middle" x="387.14" y="-727.47" font-family="Times,serif" font-size="14.00">strongbox, you detected</text>
<text text-anchor="middle" x="387.14" y="-710.22" font-family="Times,serif" font-size="14.00">and disarmed a trap.</text>
<text text-anchor="middle" x="387.14" y="-692.97" font-family="Times,serif" font-size="14.00">&#45;&#45;&#45;</text>
<text text-anchor="middle" x="387.14" y="-675.72" font-family="Times,serif" font-size="14.00">While opening the</text>
<text text-anchor="middle" x="387.14" y="-658.47" font-family="Times,serif" font-size="14.00">strongbox, you detected a</text>
<text text-anchor="middle" x="387.14" y="-641.22" font-family="Times,serif" font-size="14.00">trap, but accidentally</text>
<text text-anchor="middle" x="387.14" y="-623.97" font-family="Times,serif" font-size="14.00">set it off.</text>
<text text-anchor="middle" x="387.14" y="-606.72" font-family="Times,serif" font-size="14.00">&#45;&#45;&#45;</text>
<text text-anchor="middle" x="387.14" y="-589.47" font-family="Times,serif" font-size="14.00">While opening the</text>
<text text-anchor="middle" x="387.14" y="-572.22" font-family="Times,serif" font-size="14.00">strongbox, you detected a</text>
<text text-anchor="middle" x="387.14" y="-554.97" font-family="Times,serif" font-size="14.00">trap, but failed to</text>
<text text-anchor="middle" x="387.14" y="-537.72" font-family="Times,serif" font-size="14.00">disarm it.</text>
</g>
<!-- start&#45;&gt;use_p_proc -->
<g id="edge2" class="edge">
<title>start&#45;&gt;use_p_proc</title>
<path fill="none" stroke="#555555" stroke-dasharray="1,5" d="M536.04,-1290.08C521.42,-1228.61 470.58,-1014.89 432.34,-854.16"/>
<polygon fill="#555555" stroke="#555555" points="435.56,-853.57 429.84,-844.66 428.75,-855.19 435.56,-853.57"/>
</g>
<!-- use_obj_on_p_proc -->
<g id="node4" class="node">
<title>use_obj_on_p_proc</title>
<ellipse fill="#ffffff" stroke="#000000" cx="693.14" cy="-663.14" rx="144.96" ry="298.4"/>
<text text-anchor="middle" x="693.14" y="-856.84" font-family="Times,serif" font-size="14.00">You successfully unlocked</text>
<text text-anchor="middle" x="693.14" y="-839.59" font-family="Times,serif" font-size="14.00">the strongbox.</text>
<text text-anchor="middle" x="693.14" y="-822.34" font-family="Times,serif" font-size="14.00">&#45;&#45;&#45;</text>
<text text-anchor="middle" x="693.14" y="-805.09" font-family="Times,serif" font-size="14.00">Your multiple attempts to</text>
<text text-anchor="middle" x="693.14" y="-787.84" font-family="Times,serif" font-size="14.00">unlock the strongbox have</text>
<text text-anchor="middle" x="693.14" y="-770.59" font-family="Times,serif" font-size="14.00">set off a trap.</text>
<text text-anchor="middle" x="693.14" y="-753.34" font-family="Times,serif" font-size="14.00">&#45;&#45;&#45;</text>
<text text-anchor="middle" x="693.14" y="-736.09" font-family="Times,serif" font-size="14.00">You were unable to unlock</text>
<text text-anchor="middle" x="693.14" y="-718.84" font-family="Times,serif" font-size="14.00">the strongbox, and the</text>
<text text-anchor="middle" x="693.14" y="-701.59" font-family="Times,serif" font-size="14.00">lock has become jammed.</text>
<text text-anchor="middle" x="693.14" y="-684.34" font-family="Times,serif" font-size="14.00">&#45;&#45;&#45;</text>
<text text-anchor="middle" x="693.14" y="-667.09" font-family="Times,serif" font-size="14.00">Your multiple attempts to</text>
<text text-anchor="middle" x="693.14" y="-649.84" font-family="Times,serif" font-size="14.00">unlock the strongbox have</text>
<text text-anchor="middle" x="693.14" y="-632.59" font-family="Times,serif" font-size="14.00">set off a trap.</text>
<text text-anchor="middle" x="693.14" y="-615.34" font-family="Times,serif" font-size="14.00">&#45;&#45;&#45;</text>
<text text-anchor="middle" x="693.14" y="-598.09" font-family="Times,serif" font-size="14.00">You were unable to unlock</text>
<text text-anchor="middle" x="693.14" y="-580.84" font-family="Times,serif" font-size="14.00">the strongbox.</text>
<text text-anchor="middle" x="693.14" y="-563.59" font-family="Times,serif" font-size="14.00">&#45;&#45;&#45;</text>
<text text-anchor="middle" x="693.14" y="-546.34" font-family="Times,serif" font-size="14.00">Your multiple attempts to</text>
<text text-anchor="middle" x="693.14" y="-529.09" font-family="Times,serif" font-size="14.00">unlock the strongbox have</text>
<text text-anchor="middle" x="693.14" y="-511.84" font-family="Times,serif" font-size="14.00">set off a trap.</text>
<text text-anchor="middle" x="693.14" y="-494.59" font-family="Times,serif" font-size="14.00">&#45;&#45;&#45;</text>
<text text-anchor="middle" x="693.14" y="-477.34" font-family="Times,serif" font-size="14.00">The strongbox is already</text>
<text text-anchor="middle" x="693.14" y="-460.09" font-family="Times,serif" font-size="14.00">unlocked.</text>
</g>
<!-- start&#45;&gt;use_obj_on_p_proc -->
<g id="edge3" class="edge">
<title>start&#45;&gt;use_obj_on_p_proc</title>
<path fill="none" stroke="#555555" stroke-dasharray="1,5" d="M544.23,-1290.08C556.3,-1239.36 593.01,-1085.02 626.96,-942.3"/>
<polygon fill="#555555" stroke="#555555" points="630.6,-943.15 629.51,-932.61 623.79,-941.53 630.6,-943.15"/>
</g>
<!-- use_skill_on_p_proc -->
<g id="node5" class="node">
<title>use_skill_on_p_proc</title>
<ellipse fill="#ffffff" stroke="#000000" cx="1001.14" cy="-663.14" rx="144.96" ry="591.14"/>
<text text-anchor="middle" x="1001.14" y="-1063.84" font-family="Times,serif" font-size="14.00">You successfully unlocked</text>
<text text-anchor="middle" x="1001.14" y="-1046.59" font-family="Times,serif" font-size="14.00">the strongbox.</text>
<text text-anchor="middle" x="1001.14" y="-1029.34" font-family="Times,serif" font-size="14.00">&#45;&#45;&#45;</text>
<text text-anchor="middle" x="1001.14" y="-1012.09" font-family="Times,serif" font-size="14.00">Your multiple attempts to</text>
<text text-anchor="middle" x="1001.14" y="-994.84" font-family="Times,serif" font-size="14.00">unlock the strongbox have</text>
<text text-anchor="middle" x="1001.14" y="-977.59" font-family="Times,serif" font-size="14.00">set off a trap.</text>
<text text-anchor="middle" x="1001.14" y="-960.34" font-family="Times,serif" font-size="14.00">&#45;&#45;&#45;</text>
<text text-anchor="middle" x="1001.14" y="-943.09" font-family="Times,serif" font-size="14.00">You were unable to unlock</text>
<text text-anchor="middle" x="1001.14" y="-925.84" font-family="Times,serif" font-size="14.00">the strongbox, and the</text>
<text text-anchor="middle" x="1001.14" y="-908.59" font-family="Times,serif" font-size="14.00">lock has become jammed.</text>
<text text-anchor="middle" x="1001.14" y="-891.34" font-family="Times,serif" font-size="14.00">&#45;&#45;&#45;</text>
<text text-anchor="middle" x="1001.14" y="-874.09" font-family="Times,serif" font-size="14.00">Your multiple attempts to</text>
<text text-anchor="middle" x="1001.14" y="-856.84" font-family="Times,serif" font-size="14.00">unlock the strongbox have</text>
<text text-anchor="middle" x="1001.14" y="-839.59" font-family="Times,serif" font-size="14.00">set off a trap.</text>
<text text-anchor="middle" x="1001.14" y="-822.34" font-family="Times,serif" font-size="14.00">&#45;&#45;&#45;</text>
<text text-anchor="middle" x="1001.14" y="-805.09" font-family="Times,serif" font-size="14.00">You were unable to unlock</text>
<text text-anchor="middle" x="1001.14" y="-787.84" font-family="Times,serif" font-size="14.00">the strongbox.</text>
<text text-anchor="middle" x="1001.14" y="-770.59" font-family="Times,serif" font-size="14.00">&#45;&#45;&#45;</text>
<text text-anchor="middle" x="1001.14" y="-753.34" font-family="Times,serif" font-size="14.00">Your multiple attempts to</text>
<text text-anchor="middle" x="1001.14" y="-736.09" font-family="Times,serif" font-size="14.00">unlock the strongbox have</text>
<text text-anchor="middle" x="1001.14" y="-718.84" font-family="Times,serif" font-size="14.00">set off a trap.</text>
<text text-anchor="middle" x="1001.14" y="-701.59" font-family="Times,serif" font-size="14.00">&#45;&#45;&#45;</text>
<text text-anchor="middle" x="1001.14" y="-684.34" font-family="Times,serif" font-size="14.00">The strongbox is already</text>
<text text-anchor="middle" x="1001.14" y="-667.09" font-family="Times,serif" font-size="14.00">unlocked.</text>
<text text-anchor="middle" x="1001.14" y="-649.84" font-family="Times,serif" font-size="14.00">&#45;&#45;&#45;</text>
<text text-anchor="middle" x="1001.14" y="-632.59" font-family="Times,serif" font-size="14.00">You find a trap on the</text>
<text text-anchor="middle" x="1001.14" y="-615.34" font-family="Times,serif" font-size="14.00">strongbox and</text>
<text text-anchor="middle" x="1001.14" y="-598.09" font-family="Times,serif" font-size="14.00">successfully disarm it.</text>
<text text-anchor="middle" x="1001.14" y="-580.84" font-family="Times,serif" font-size="14.00">&#45;&#45;&#45;</text>
<text text-anchor="middle" x="1001.14" y="-563.59" font-family="Times,serif" font-size="14.00">You find a trap on the</text>
<text text-anchor="middle" x="1001.14" y="-546.34" font-family="Times,serif" font-size="14.00">strongbox.</text>
<text text-anchor="middle" x="1001.14" y="-529.09" font-family="Times,serif" font-size="14.00">&#45;&#45;&#45;</text>
<text text-anchor="middle" x="1001.14" y="-511.84" font-family="Times,serif" font-size="14.00">While searching the</text>
<text text-anchor="middle" x="1001.14" y="-494.59" font-family="Times,serif" font-size="14.00">strongbox for traps, you</text>
<text text-anchor="middle" x="1001.14" y="-477.34" font-family="Times,serif" font-size="14.00">accidentally set one off.</text>
<text text-anchor="middle" x="1001.14" y="-460.09" font-family="Times,serif" font-size="14.00">&#45;&#45;&#45;</text>
<text text-anchor="middle" x="1001.14" y="-442.84" font-family="Times,serif" font-size="14.00">You find nothing while</text>
<text text-anchor="middle" x="1001.14" y="-425.59" font-family="Times,serif" font-size="14.00">searching the strongbox</text>
<text text-anchor="middle" x="1001.14" y="-408.34" font-family="Times,serif" font-size="14.00">for traps.</text>
<text text-anchor="middle" x="1001.14" y="-391.09" font-family="Times,serif" font-size="14.00">&#45;&#45;&#45;</text>
<text text-anchor="middle" x="1001.14" y="-373.84" font-family="Times,serif" font-size="14.00">You successfully disarmed</text>
<text text-anchor="middle" x="1001.14" y="-356.59" font-family="Times,serif" font-size="14.00">the trap.</text>
<text text-anchor="middle" x="1001.14" y="-339.34" font-family="Times,serif" font-size="14.00">&#45;&#45;&#45;</text>
<text text-anchor="middle" x="1001.14" y="-322.09" font-family="Times,serif" font-size="14.00">You accidentally set off</text>
<text text-anchor="middle" x="1001.14" y="-304.84" font-family="Times,serif" font-size="14.00">the trap.</text>
<text text-anchor="middle" x="1001.14" y="-287.59" font-family="Times,serif" font-size="14.00">&#45;&#45;&#45;</text>
<text text-anchor="middle" x="1001.14" y="-270.34" font-family="Times,serif" font-size="14.00">You failed to disarm the</text>
<text text-anchor="middle" x="1001.14" y="-253.09" font-family="Times,serif" font-size="14.00">trap.</text>
</g>
<!-- start&#45;&gt;use_skill_on_p_proc -->
<g id="edge4" class="edge">
<title>start&#45;&gt;use_skill_on_p_proc</title>
<path fill="none" stroke="#555555" stroke-dasharray="1,5" d="M567.47,-1306.25C634.85,-1303.16 806.42,-1291.71 847.14,-1254.28 874.66,-1228.99 897.52,-1199.44 916.49,-1167.3"/>
<polygon fill="#555555" stroke="#555555" points="919.78,-1169.59 921.73,-1159.17 913.71,-1166.1 919.78,-1169.59"/>
</g>
<!-- set_off_trap -->
<g id="node6" class="node">
<title>set_off_trap</title>
<ellipse fill="#ffffff" stroke="#000000" cx="693.14" cy="-18" rx="27" ry="18"/>
</g>
<!-- use_p_proc&#45;&gt;set_off_trap -->
<g id="edge5" class="edge">
<title>use_p_proc&#45;&gt;set_off_trap</title>
<path fill="none" stroke="#555555" stroke-dasharray="1,5" d="M375.57,-474.78C384.73,-346.51 420.82,-180.61 521.14,-72 554.89,-35.45 615,-24.11 655.13,-20.58"/>
<polygon fill="#555555" stroke="#555555" points="655.17,-24.02 664.88,-19.78 654.65,-17.04 655.17,-24.02"/>
</g>
<!-- use_p_proc&#45;&gt;set_off_trap -->
<g id="edge6" class="edge">
<title>use_p_proc&#45;&gt;set_off_trap</title>
<path fill="none" stroke="#555555" stroke-dasharray="1,5" d="M390.71,-474.09C402.86,-345.92 439,-180.42 539.14,-72 569.26,-39.39 620.36,-26.84 655.38,-22.02"/>
<polygon fill="#555555" stroke="#555555" points="655.63,-25.39 665.13,-20.71 654.78,-18.44 655.63,-25.39"/>
</g>
<!-- use_p_proc&#45;&gt;set_off_trap -->
<g id="edge7" class="edge">
<title>use_p_proc&#45;&gt;set_off_trap</title>
<path fill="none" stroke="#555555" stroke-dasharray="1,5" d="M405.59,-475.81C420.54,-347.4 456.55,-180.91 557.14,-72 583.19,-43.79 624.95,-30.59 655.72,-24.42"/>
<polygon fill="#555555" stroke="#555555" points="656.31,-27.69 665.52,-22.45 655.05,-20.81 656.31,-27.69"/>
</g>
<!-- use_obj_on_p_proc&#45;&gt;set_off_trap -->
<g id="edge8" class="edge">
<title>use_obj_on_p_proc&#45;&gt;set_off_trap</title>
<path fill="none" stroke="#555555" stroke-dasharray="1,5" d="M679.67,-365.98C679.29,-237.64 681.8,-103.86 687.18,-47.12"/>
<polygon fill="#555555" stroke="#555555" points="690.77,-47.53 688.38,-37.21 683.81,-46.77 690.77,-47.53"/>
</g>
<!-- use_obj_on_p_proc&#45;&gt;set_off_trap -->
<g id="edge9" class="edge">
<title>use_obj_on_p_proc&#45;&gt;set_off_trap</title>
<path fill="none" stroke="#555555" stroke-dasharray="1,5" d="M693.14,-364.57C693.14,-236.85 693.14,-104.06 693.14,-47.37"/>
<polygon fill="#555555" stroke="#555555" points="696.64,-47.46 693.14,-37.46 689.64,-47.46 696.64,-47.46"/>
</g>
<!-- use_obj_on_p_proc&#45;&gt;set_off_trap -->
<g id="edge10" class="edge">
<title>use_obj_on_p_proc&#45;&gt;set_off_trap</title>
<path fill="none" stroke="#555555" stroke-dasharray="1,5" d="M706.6,-365.98C706.98,-237.64 704.48,-103.86 699.09,-47.12"/>
<polygon fill="#555555" stroke="#555555" points="702.46,-46.77 697.9,-37.21 695.5,-47.53 702.46,-46.77"/>
</g>
<!-- use_skill_on_p_proc&#45;&gt;set_off_trap -->
<g id="edge11" class="edge">
<title>use_skill_on_p_proc&#45;&gt;set_off_trap</title>
<path fill="none" stroke="#555555" stroke-dasharray="1,5" d="M903.89,-223.26C881.21,-167.73 851.26,-115.3 811.14,-72 789.01,-48.12 755.64,-35 728.88,-27.79"/>
<polygon fill="#555555" stroke="#555555" points="729.8,-24.16 719.25,-25.13 728.1,-30.95 729.8,-24.16"/>
</g>
<!-- use_skill_on_p_proc&#45;&gt;set_off_trap -->
<g id="edge12" class="edge">
<title>use_skill_on_p_proc&#45;&gt;set_off_trap</title>
<path fill="none" stroke="#555555" stroke-dasharray="1,5" d="M911.22,-198.83C890.12,-152.41 863.32,-108.89 829.14,-72 803.04,-43.83 761.28,-30.63 730.52,-24.45"/>
<polygon fill="#555555" stroke="#555555" points="731.2,-20.83 720.73,-22.47 729.94,-27.72 731.2,-20.83"/>
</g>
<!-- use_skill_on_p_proc&#45;&gt;set_off_trap -->
<g id="edge13" class="edge">
<title>use_skill_on_p_proc&#45;&gt;set_off_trap</title>
<path fill="none" stroke="#555555" stroke-dasharray="1,5" d="M918.54,-176.72C899.33,-138.61 875.83,-102.97 847.14,-72 816.96,-39.44 765.87,-26.88 730.88,-22.04"/>
<polygon fill="#555555" stroke="#555555" points="731.48,-18.46 721.12,-20.72 730.62,-25.41 731.48,-18.46"/>
</g>
<!-- use_skill_on_p_proc&#45;&gt;set_off_trap -->
<g id="edge14" class="edge">
<title>use_skill_on_p_proc&#45;&gt;set_off_trap</title>
<path fill="none" stroke="#555555" stroke-dasharray="1,5" d="M925.98,-156.89C908.92,-126.24 888.8,-97.53 865.14,-72 831.32,-35.51 771.24,-24.14 731.13,-20.6"/>
<polygon fill="#555555" stroke="#555555" points="731.61,-17.05 721.38,-19.8 731.09,-24.03 731.61,-17.05"/>
</g>
<!-- use_skill_on_p_proc&#45;&gt;set_off_trap -->
<g id="edge15" class="edge">
<title>use_skill_on_p_proc&#45;&gt;set_off_trap</title>
<path fill="none" stroke="#555555" stroke-dasharray="1,5" d="M933.69,-139.29C918.98,-115.23 902.21,-92.58 883.14,-72 846.31,-32.25 778.32,-22.31 731.36,-19.83"/>
<polygon fill="#555555" stroke="#555555" points="731.64,-16.29 721.5,-19.36 731.34,-23.29 731.64,-16.29"/>
</g>
</g>
</svg>
