<?xml version="1.0" encoding="UTF-8" standalone="no"?>
<!DOCTYPE svg PUBLIC "-//W3C//DTD SVG 1.1//EN"
 "http://www.w3.org/Graphics/SVG/1.1/DTD/svg11.dtd">
<!-- Generated by graphviz version 8.0.5 (0)
 -->
<!-- Title: HUBSMITY Pages: 1 -->
<svg width="1028pt" height="430pt"
 viewBox="0.00 0.00 1027.51 430.48" xmlns="http://www.w3.org/2000/svg" xmlns:xlink="http://www.w3.org/1999/xlink">
<g id="graph0" class="graph" transform="scale(1 1) rotate(0) translate(4 426.48)">
<title>HUBSMITY</title>
<polygon fill="white" stroke="none" points="-4,4 -4,-426.48 1023.51,-426.48 1023.51,4 -4,4"/>
<!-- start -->
<g id="node1" class="node">
<title>start</title>
<ellipse fill="#ffffff" stroke="#000000" cx="408.51" cy="-404.48" rx="27" ry="18"/>
</g>
<!-- look_at_p_proc -->
<g id="node2" class="node">
<title>look_at_p_proc</title>
<ellipse fill="#ffffff" stroke="#000000" cx="87.51" cy="-247.24" rx="87.51" ry="18"/>
<text text-anchor="middle" x="87.51" y="-242.56" font-family="Times,serif" font-size="14.00">You see Smitty.</text>
</g>
<!-- start&#45;&gt;look_at_p_proc -->
<g id="edge1" class="edge">
<title>start&#45;&gt;look_at_p_proc</title>
<path fill="none" stroke="#555555" stroke-dasharray="1,5" d="M381.52,-402.04C337.51,-398.66 248.77,-387.44 184.51,-350.48 151.37,-331.41 122.55,-297.53 105.12,-274.02"/>
<polygon fill="#555555" stroke="#555555" points="107.49,-272.33 98.8,-266.27 101.81,-276.42 107.49,-272.33"/>
</g>
<!-- pickup_p_proc -->
<g id="node3" class="node">
<title>pickup_p_proc</title>
<ellipse fill="#ffffff" stroke="#000000" cx="220.51" cy="-247.24" rx="27" ry="18"/>
</g>
<!-- start&#45;&gt;pickup_p_proc -->
<g id="edge2" class="edge">
<title>start&#45;&gt;pickup_p_proc</title>
<path fill="none" stroke="#555555" stroke-dasharray="1,5" d="M381.73,-401.14C348.13,-396.81 290.75,-384.61 256.51,-350.48 236.56,-330.59 227.63,-298.99 223.66,-276.19"/>
<polygon fill="#555555" stroke="#555555" points="226.99,-275.85 222.04,-266.48 220.07,-276.89 226.99,-275.85"/>
</g>
<!-- talk_p_proc -->
<g id="node4" class="node">
<title>talk_p_proc</title>
<ellipse fill="#ffffff" stroke="#000000" cx="408.51" cy="-247.24" rx="143.37" ry="103.24"/>
<text text-anchor="middle" x="408.51" y="-302.94" font-family="Times,serif" font-size="14.00">You wanna talk after what</text>
<text text-anchor="middle" x="408.51" y="-285.69" font-family="Times,serif" font-size="14.00">you&#39;ve pulled? Screw you!</text>
<text text-anchor="middle" x="408.51" y="-268.44" font-family="Times,serif" font-size="14.00">&#45;&#45;&#45;</text>
<text text-anchor="middle" x="408.51" y="-251.19" font-family="Times,serif" font-size="14.00">Hi yourself. Go blow</text>
<text text-anchor="middle" x="408.51" y="-233.94" font-family="Times,serif" font-size="14.00">smoke somewhere else.</text>
<text text-anchor="middle" x="408.51" y="-216.69" font-family="Times,serif" font-size="14.00">&#45;&#45;&#45;</text>
<text text-anchor="middle" x="408.51" y="-199.44" font-family="Times,serif" font-size="14.00">We don&#39;t talk to no</text>
<text text-anchor="middle" x="408.51" y="-182.19" font-family="Times,serif" font-size="14.00">outsiders!</text>
</g>
<!-- start&#45;&gt;talk_p_proc -->
<g id="edge3" class="edge">
<title>start&#45;&gt;talk_p_proc</title>
<path fill="none" stroke="#555555" stroke-dasharray="1,5" d="M408.51,-386.27C408.51,-379.44 408.51,-370.99 408.51,-361.65"/>
<polygon fill="#555555" stroke="#555555" points="412.01,-361.76 408.51,-351.76 405.01,-361.76 412.01,-361.76"/>
</g>
<!-- critter_p_proc -->
<g id="node5" class="node">
<title>critter_p_proc</title>
<ellipse fill="#ffffff" stroke="#000000" cx="596.51" cy="-247.24" rx="27" ry="18"/>
</g>
<!-- start&#45;&gt;critter_p_proc -->
<g id="edge4" class="edge">
<title>start&#45;&gt;critter_p_proc</title>
<path fill="none" stroke="#555555" stroke-dasharray="1,5" d="M435.29,-401.14C468.89,-396.81 526.27,-384.61 560.51,-350.48 580.46,-330.59 589.39,-298.99 593.36,-276.19"/>
<polygon fill="#555555" stroke="#555555" points="596.95,-276.89 594.98,-266.48 590.03,-275.85 596.95,-276.89"/>
</g>
<!-- destroy_p_proc -->
<g id="node6" class="node">
<title>destroy_p_proc</title>
<ellipse fill="#ffffff" stroke="#000000" cx="668.51" cy="-247.24" rx="27" ry="18"/>
</g>
<!-- start&#45;&gt;destroy_p_proc -->
<g id="edge5" class="edge">
<title>start&#45;&gt;destroy_p_proc</title>
<path fill="none" stroke="#555555" stroke-dasharray="1,5" d="M435.26,-400.37C488.14,-393.73 603.46,-376.59 632.51,-350.48 653.58,-331.53 662.32,-299.51 665.94,-276.34"/>
<polygon fill="#555555" stroke="#555555" points="669.54,-276.83 667.38,-266.46 662.6,-275.92 669.54,-276.83"/>
</g>
<!-- get_reaction -->
<g id="node8" class="node">
<title>get_reaction</title>
<ellipse fill="#ffffff" stroke="#000000" cx="408.51" cy="-90" rx="27" ry="18"/>
</g>
<!-- talk_p_proc&#45;&gt;get_reaction -->
<g id="edge6" class="edge">
<title>talk_p_proc&#45;&gt;get_reaction</title>
<path fill="none" stroke="#555555" stroke-dasharray="1,5" d="M408.51,-143.56C408.51,-134.78 408.51,-126.49 408.51,-119.19"/>
<polygon fill="#555555" stroke="#555555" points="412.01,-119.28 408.51,-109.28 405.01,-119.28 412.01,-119.28"/>
</g>
<!-- combat -->
<g id="node7" class="node">
<title>combat</title>
<ellipse fill="#ffffff" stroke="#000000" cx="574.51" cy="-404.48" rx="27" ry="18"/>
</g>
<!-- ReactToLevel -->
<g id="node9" class="node">
<title>ReactToLevel</title>
<ellipse fill="#ffffff" stroke="#000000" cx="552.51" cy="-18" rx="27" ry="18"/>
</g>
<!-- get_reaction&#45;&gt;ReactToLevel -->
<g id="edge7" class="edge">
<title>get_reaction&#45;&gt;ReactToLevel</title>
<path fill="none" stroke="#555555" stroke-dasharray="1,5" d="M430.07,-78.52C454.39,-66.7 494.13,-47.38 521.71,-33.97"/>
<polygon fill="#555555" stroke="#555555" points="522.81,-36.84 530.27,-29.32 519.75,-30.55 522.81,-36.84"/>
</g>
<!-- LevelToReact -->
<g id="node10" class="node">
<title>LevelToReact</title>
<ellipse fill="#ffffff" stroke="#000000" cx="740.51" cy="-247.24" rx="27" ry="18"/>
</g>
<!-- UpReact -->
<g id="node11" class="node">
<title>UpReact</title>
<ellipse fill="#ffffff" stroke="#000000" cx="480.51" cy="-90" rx="27" ry="18"/>
</g>
<!-- UpReact&#45;&gt;ReactToLevel -->
<g id="edge8" class="edge">
<title>UpReact&#45;&gt;ReactToLevel</title>
<path fill="none" stroke="#555555" stroke-dasharray="1,5" d="M495.43,-74.5C505.37,-64.83 518.63,-51.94 529.86,-41.02"/>
<polygon fill="#555555" stroke="#555555" points="531.88,-43.97 536.61,-34.49 527,-38.95 531.88,-43.97"/>
</g>
<!-- DownReact -->
<g id="node12" class="node">
<title>DownReact</title>
<ellipse fill="#ffffff" stroke="#000000" cx="552.51" cy="-90" rx="27" ry="18"/>
</g>
<!-- DownReact&#45;&gt;ReactToLevel -->
<g id="edge9" class="edge">
<title>DownReact&#45;&gt;ReactToLevel</title>
<path fill="none" stroke="#555555" stroke-dasharray="1,5" d="M552.51,-71.7C552.51,-64.24 552.51,-55.32 552.51,-46.97"/>
<polygon fill="#555555" stroke="#555555" points="556.01,-47.1 552.51,-37.1 549.01,-47.1 556.01,-47.1"/>
</g>
<!-- BottomReact -->
<g id="node13" class="node">
<title>BottomReact</title>
<ellipse fill="#ffffff" stroke="#000000" cx="848.51" cy="-404.48" rx="27" ry="18"/>
</g>
<!-- TopReact -->
<g id="node14" class="node">
<title>TopReact</title>
<ellipse fill="#ffffff" stroke="#000000" cx="920.51" cy="-404.48" rx="27" ry="18"/>
</g>
<!-- BigUpReact -->
<g id="node15" class="node">
<title>BigUpReact</title>
<ellipse fill="#ffffff" stroke="#000000" cx="624.51" cy="-90" rx="27" ry="18"/>
</g>
<!-- BigUpReact&#45;&gt;ReactToLevel -->
<g id="edge10" class="edge">
<title>BigUpReact&#45;&gt;ReactToLevel</title>
<path fill="none" stroke="#555555" stroke-dasharray="1,5" d="M609.59,-74.5C599.65,-64.83 586.39,-51.94 575.16,-41.02"/>
<polygon fill="#555555" stroke="#555555" points="578.02,-38.95 568.41,-34.49 573.14,-43.97 578.02,-38.95"/>
</g>
<!-- BigDownReact -->
<g id="node16" class="node">
<title>BigDownReact</title>
<ellipse fill="#ffffff" stroke="#000000" cx="696.51" cy="-90" rx="27" ry="18"/>
</g>
<!-- BigDownReact&#45;&gt;ReactToLevel -->
<g id="edge11" class="edge">
<title>BigDownReact&#45;&gt;ReactToLevel</title>
<path fill="none" stroke="#555555" stroke-dasharray="1,5" d="M674.95,-78.52C650.63,-66.7 610.89,-47.38 583.31,-33.97"/>
<polygon fill="#555555" stroke="#555555" points="585.27,-30.55 574.75,-29.32 582.21,-36.84 585.27,-30.55"/>
</g>
<!-- UpReactLevel -->
<g id="node17" class="node">
<title>UpReactLevel</title>
<ellipse fill="#ffffff" stroke="#000000" cx="704.51" cy="-404.48" rx="27" ry="18"/>
</g>
<!-- UpReactLevel&#45;&gt;LevelToReact -->
<g id="edge12" class="edge">
<title>UpReactLevel&#45;&gt;LevelToReact</title>
<path fill="none" stroke="#555555" stroke-dasharray="1,5" d="M708.5,-386.27C714.69,-359.58 726.66,-307.94 734.08,-275.94"/>
<polygon fill="#555555" stroke="#555555" points="737.65,-277.05 736.5,-266.52 730.83,-275.47 737.65,-277.05"/>
</g>
<!-- DownReactLevel -->
<g id="node18" class="node">
<title>DownReactLevel</title>
<ellipse fill="#ffffff" stroke="#000000" cx="776.51" cy="-404.48" rx="27" ry="18"/>
</g>
<!-- DownReactLevel&#45;&gt;LevelToReact -->
<g id="edge13" class="edge">
<title>DownReactLevel&#45;&gt;LevelToReact</title>
<path fill="none" stroke="#555555" stroke-dasharray="1,5" d="M772.52,-386.27C766.33,-359.58 754.35,-307.94 746.94,-275.94"/>
<polygon fill="#555555" stroke="#555555" points="750.19,-275.47 744.52,-266.52 743.37,-277.05 750.19,-275.47"/>
</g>
<!-- Goodbyes -->
<g id="node19" class="node">
<title>Goodbyes</title>
<ellipse fill="#ffffff" stroke="#000000" cx="992.51" cy="-404.48" rx="27" ry="18"/>
</g>
</g>
</svg>
