<?xml version="1.0" encoding="UTF-8" standalone="no"?>
<!DOCTYPE svg PUBLIC "-//W3C//DTD SVG 1.1//EN"
 "http://www.w3.org/Graphics/SVG/1.1/DTD/svg11.dtd">
<!-- Generated by graphviz version 8.0.5 (0)
 -->
<!-- Title: KENJI Pages: 1 -->
<svg width="998pt" height="189pt"
 viewBox="0.00 0.00 998.07 188.89" xmlns="http://www.w3.org/2000/svg" xmlns:xlink="http://www.w3.org/1999/xlink">
<g id="graph0" class="graph" transform="scale(1 1) rotate(0) translate(4 184.89)">
<title>KENJI</title>
<polygon fill="white" stroke="none" points="-4,4 -4,-184.89 994.07,-184.89 994.07,4 -4,4"/>
<!-- start -->
<g id="node1" class="node">
<title>start</title>
<ellipse fill="#ffffff" stroke="#000000" cx="503.07" cy="-162.89" rx="27" ry="18"/>
</g>
<!-- critter_p_proc -->
<g id="node2" class="node">
<title>critter_p_proc</title>
<ellipse fill="#ffffff" stroke="#000000" cx="139.07" cy="-54.45" rx="139.07" ry="18"/>
<text text-anchor="middle" x="139.07" y="-49.77" font-family="Times,serif" font-size="14.00">Gizmo sends his regards!</text>
</g>
<!-- start&#45;&gt;critter_p_proc -->
<g id="edge1" class="edge">
<title>start&#45;&gt;critter_p_proc</title>
<path fill="none" stroke="#555555" stroke-dasharray="1,5" d="M477.56,-156.55C436.91,-147.84 355.08,-129.45 287.07,-108.89 254.81,-99.14 219.28,-86.38 191.12,-75.77"/>
<polygon fill="#555555" stroke="#555555" points="192.69,-72.24 182.09,-71.97 190.2,-78.79 192.69,-72.24"/>
</g>
<!-- damage_p_proc -->
<g id="node3" class="node">
<title>damage_p_proc</title>
<ellipse fill="#ffffff" stroke="#000000" cx="323.07" cy="-54.45" rx="27" ry="18"/>
</g>
<!-- start&#45;&gt;damage_p_proc -->
<g id="edge2" class="edge">
<title>start&#45;&gt;damage_p_proc</title>
<path fill="none" stroke="#555555" stroke-dasharray="1,5" d="M477.02,-157.38C446.2,-150.97 394.59,-136.77 359.07,-108.89 349.7,-101.54 341.89,-91.05 335.97,-81.32"/>
<polygon fill="#555555" stroke="#555555" points="338.66,-79.96 330.69,-72.97 332.56,-83.4 338.66,-79.96"/>
</g>
<!-- destroy_p_proc -->
<g id="node4" class="node">
<title>destroy_p_proc</title>
<ellipse fill="#ffffff" stroke="#000000" cx="503.07" cy="-54.45" rx="134.88" ry="54.45"/>
<text text-anchor="middle" x="503.07" y="-75.65" font-family="Times,serif" font-size="14.00">You gain 400 experience</text>
<text text-anchor="middle" x="503.07" y="-58.4" font-family="Times,serif" font-size="14.00">points for helping</text>
<text text-anchor="middle" x="503.07" y="-41.15" font-family="Times,serif" font-size="14.00">Killian fight the</text>
<text text-anchor="middle" x="503.07" y="-23.9" font-family="Times,serif" font-size="14.00">assassin.</text>
</g>
<!-- start&#45;&gt;destroy_p_proc -->
<g id="edge3" class="edge">
<title>start&#45;&gt;destroy_p_proc</title>
<path fill="none" stroke="#555555" stroke-dasharray="1,5" d="M503.07,-144.79C503.07,-137.78 503.07,-129.18 503.07,-120.12"/>
<polygon fill="#555555" stroke="#555555" points="506.57,-120.34 503.07,-110.34 499.57,-120.34 506.57,-120.34"/>
</g>
<!-- look_at_p_proc -->
<g id="node5" class="node">
<title>look_at_p_proc</title>
<ellipse fill="#ffffff" stroke="#000000" cx="787.07" cy="-54.45" rx="131.17" ry="30.05"/>
<text text-anchor="middle" x="787.07" y="-58.4" font-family="Times,serif" font-size="14.00">You see a shady looking</text>
<text text-anchor="middle" x="787.07" y="-41.15" font-family="Times,serif" font-size="14.00">gunslinger.</text>
</g>
<!-- start&#45;&gt;look_at_p_proc -->
<g id="edge4" class="edge">
<title>start&#45;&gt;look_at_p_proc</title>
<path fill="none" stroke="#555555" stroke-dasharray="1,5" d="M526.55,-153.35C555.08,-142.95 604.66,-124.79 647.07,-108.89 667.9,-101.09 690.43,-92.53 711.21,-84.6"/>
<polygon fill="#555555" stroke="#555555" points="712.16,-87.6 720.25,-80.76 709.66,-81.06 712.16,-87.6"/>
</g>
<!-- talk_p_proc -->
<g id="node6" class="node">
<title>talk_p_proc</title>
<ellipse fill="#ffffff" stroke="#000000" cx="963.07" cy="-54.45" rx="27" ry="18"/>
</g>
<!-- start&#45;&gt;talk_p_proc -->
<g id="edge5" class="edge">
<title>start&#45;&gt;talk_p_proc</title>
<path fill="none" stroke="#555555" stroke-dasharray="1,5" d="M530.4,-161.39C613.27,-159.4 860.08,-150.08 927.07,-108.89 937.36,-102.57 945.38,-92.07 951.2,-82.04"/>
<polygon fill="#555555" stroke="#555555" points="954.75,-83.82 956.31,-73.34 948.55,-80.56 954.75,-83.82"/>
</g>
</g>
</svg>
