<?xml version="1.0" encoding="UTF-8" standalone="no"?>
<!DOCTYPE svg PUBLIC "-//W3C//DTD SVG 1.1//EN"
 "http://www.w3.org/Graphics/SVG/1.1/DTD/svg11.dtd">
<!-- Generated by graphviz version 8.0.5 (0)
 -->
<!-- Title: LOOKOUT Pages: 1 -->
<svg width="572pt" height="285pt"
 viewBox="0.00 0.00 572.47 285.29" xmlns="http://www.w3.org/2000/svg" xmlns:xlink="http://www.w3.org/1999/xlink">
<g id="graph0" class="graph" transform="scale(1 1) rotate(0) translate(4 281.29)">
<title>LOOKOUT</title>
<polygon fill="white" stroke="none" points="-4,4 -4,-281.29 568.47,-281.29 568.47,4 -4,4"/>
<!-- start -->
<g id="node1" class="node">
<title>start</title>
<ellipse fill="#ffffff" stroke="#000000" cx="165.06" cy="-259.29" rx="136.96" ry="18"/>
<text text-anchor="middle" x="165.06" y="-254.61" font-family="Times,serif" font-size="14.00">You see a Ghoul Lookout.</text>
</g>
<!-- talk_p_proc -->
<g id="node2" class="node">
<title>talk_p_proc</title>
<ellipse fill="#ffffff" stroke="#000000" cx="193.06" cy="-187.29" rx="27" ry="18"/>
</g>
<!-- start&#45;&gt;talk_p_proc -->
<g id="edge1" class="edge">
<title>start&#45;&gt;talk_p_proc</title>
<path fill="none" stroke="#555555" stroke-dasharray="1,5" d="M171.98,-240.99C175.12,-233.16 178.89,-223.73 182.37,-215.02"/>
<polygon fill="#555555" stroke="#555555" points="185.95,-216.5 186.41,-205.91 179.45,-213.9 185.95,-216.5"/>
</g>
<!-- guilt -->
<g id="node3" class="node">
<title>guilt</title>
<ellipse fill="#ffffff" stroke="#000000" cx="138.06" cy="-66.64" rx="138.06" ry="66.64"/>
<text text-anchor="middle" x="138.06" y="-96.47" font-family="Times,serif" font-size="14.00">We wont be able to</text>
<text text-anchor="middle" x="138.06" y="-79.22" font-family="Times,serif" font-size="14.00">survive without water.</text>
<text text-anchor="middle" x="138.06" y="-61.97" font-family="Times,serif" font-size="14.00">&#45;&#45;&#45;</text>
<text text-anchor="middle" x="138.06" y="-44.72" font-family="Times,serif" font-size="14.00">Please talk to our Leader</text>
<text text-anchor="middle" x="138.06" y="-27.47" font-family="Times,serif" font-size="14.00">before you leave.</text>
</g>
<!-- start&#45;&gt;guilt -->
<g id="edge2" class="edge">
<title>start&#45;&gt;guilt</title>
<path fill="none" stroke="#555555" stroke-dasharray="1,5" d="M162.41,-241.11C160.83,-230.74 158.79,-217.26 157.06,-205.29 154.21,-185.55 151.22,-164.2 148.47,-144.34"/>
<polygon fill="#555555" stroke="#555555" points="151.81,-143.91 146.98,-134.48 144.88,-144.87 151.81,-143.91"/>
</g>
<!-- talk_p_proc&#45;&gt;guilt -->
<g id="edge3" class="edge">
<title>talk_p_proc&#45;&gt;guilt</title>
<path fill="none" stroke="#555555" stroke-dasharray="1,5" d="M185.3,-169.54C181.72,-161.82 177.19,-152.05 172.37,-141.64"/>
<polygon fill="#555555" stroke="#555555" points="175.25,-140.55 167.87,-132.95 168.9,-143.49 175.25,-140.55"/>
</g>
<!-- spies -->
<g id="node4" class="node">
<title>spies</title>
<ellipse fill="#ffffff" stroke="#000000" cx="429.06" cy="-66.64" rx="135.41" ry="30.05"/>
<text text-anchor="middle" x="429.06" y="-70.59" font-family="Times,serif" font-size="14.00">I can&#39;t talk now. I&#39;m</text>
<text text-anchor="middle" x="429.06" y="-53.34" font-family="Times,serif" font-size="14.00">watching out for danger.</text>
</g>
<!-- talk_p_proc&#45;&gt;spies -->
<g id="edge4" class="edge">
<title>talk_p_proc&#45;&gt;spies</title>
<path fill="none" stroke="#555555" stroke-dasharray="1,5" d="M214.01,-175.76C247.71,-158.82 315.3,-124.84 365.76,-99.47"/>
<polygon fill="#555555" stroke="#555555" points="366.92,-102.3 374.28,-94.68 363.78,-96.05 366.92,-102.3"/>
</g>
</g>
</svg>
