<?xml version="1.0" encoding="UTF-8" standalone="no"?>
<!DOCTYPE svg PUBLIC "-//W3C//DTD SVG 1.1//EN"
 "http://www.w3.org/Graphics/SVG/1.1/DTD/svg11.dtd">
<!-- Generated by graphviz version 8.0.5 (0)
 -->
<!-- Title: LYLE Pages: 1 -->
<svg width="1057pt" height="1280pt"
 viewBox="0.00 0.00 1057.00 1280.06" xmlns="http://www.w3.org/2000/svg" xmlns:xlink="http://www.w3.org/1999/xlink">
<g id="graph0" class="graph" transform="scale(1 1) rotate(0) translate(4 1276.06)">
<title>LYLE</title>
<polygon fill="white" stroke="none" points="-4,4 -4,-1276.06 1053,-1276.06 1053,4 -4,4"/>
<!-- start -->
<g id="node1" class="node">
<title>start</title>
<ellipse fill="#ffffff" stroke="#000000" cx="328" cy="-1254.06" rx="27" ry="18"/>
</g>
<!-- critter_p_proc -->
<g id="node2" class="node">
<title>critter_p_proc</title>
<ellipse fill="#ffffff" stroke="#000000" cx="63" cy="-1034.84" rx="27" ry="18"/>
</g>
<!-- start&#45;&gt;critter_p_proc -->
<g id="edge1" class="edge">
<title>start&#45;&gt;critter_p_proc</title>
<path fill="none" stroke="#555555" stroke-dasharray="1,5" d="M301.2,-1250.3C247.02,-1244.16 127.17,-1227.65 99,-1199.06 63.43,-1162.98 59.64,-1100.18 60.82,-1063.9"/>
<polygon fill="#555555" stroke="#555555" points="64.35,-1064.28 61.34,-1054.12 57.36,-1063.94 64.35,-1064.28"/>
</g>
<!-- damage_p_proc -->
<g id="node3" class="node">
<title>damage_p_proc</title>
<ellipse fill="#ffffff" stroke="#000000" cx="135" cy="-1034.84" rx="27" ry="18"/>
</g>
<!-- start&#45;&gt;damage_p_proc -->
<g id="edge2" class="edge">
<title>start&#45;&gt;damage_p_proc</title>
<path fill="none" stroke="#555555" stroke-dasharray="1,5" d="M300.88,-1251.57C265.61,-1248.12 204.57,-1236.71 171,-1199.06 137.45,-1161.44 132.85,-1099.73 133.37,-1063.93"/>
<polygon fill="#555555" stroke="#555555" points="136.89,-1064.39 133.68,-1054.29 129.89,-1064.18 136.89,-1064.39"/>
</g>
<!-- destroy_p_proc -->
<g id="node4" class="node">
<title>destroy_p_proc</title>
<ellipse fill="#ffffff" stroke="#000000" cx="207" cy="-1034.84" rx="27" ry="18"/>
</g>
<!-- start&#45;&gt;destroy_p_proc -->
<g id="edge3" class="edge">
<title>start&#45;&gt;destroy_p_proc</title>
<path fill="none" stroke="#555555" stroke-dasharray="1,5" d="M304.86,-1244.34C285.35,-1235.79 258.24,-1220.83 243,-1199.06 214.43,-1158.27 207.99,-1098.83 206.84,-1064.06"/>
<polygon fill="#555555" stroke="#555555" points="210.33,-1064.21 206.63,-1054.28 203.33,-1064.35 210.33,-1064.21"/>
</g>
<!-- look_at_p_proc -->
<g id="node5" class="node">
<title>look_at_p_proc</title>
<ellipse fill="#ffffff" stroke="#000000" cx="328" cy="-1034.84" rx="75.94" ry="18"/>
<text text-anchor="middle" x="328" y="-1030.16" font-family="Times,serif" font-size="14.00">You see Lyle.</text>
</g>
<!-- start&#45;&gt;look_at_p_proc -->
<g id="edge4" class="edge">
<title>start&#45;&gt;look_at_p_proc</title>
<path fill="none" stroke="#555555" stroke-dasharray="1,5" d="M328,-1235.65C328,-1198.24 328,-1109.86 328,-1064.21"/>
<polygon fill="#555555" stroke="#555555" points="331.5,-1064.33 328,-1054.33 324.5,-1064.33 331.5,-1064.33"/>
</g>
<!-- map_enter_p_proc -->
<g id="node6" class="node">
<title>map_enter_p_proc</title>
<ellipse fill="#ffffff" stroke="#000000" cx="449" cy="-1034.84" rx="27" ry="18"/>
</g>
<!-- start&#45;&gt;map_enter_p_proc -->
<g id="edge5" class="edge">
<title>start&#45;&gt;map_enter_p_proc</title>
<path fill="none" stroke="#555555" stroke-dasharray="1,5" d="M351.14,-1244.34C370.65,-1235.79 397.76,-1220.83 413,-1199.06 441.57,-1158.27 448.01,-1098.83 449.16,-1064.06"/>
<polygon fill="#555555" stroke="#555555" points="452.67,-1064.35 449.37,-1054.28 445.67,-1064.21 452.67,-1064.35"/>
</g>
<!-- pickup_p_proc -->
<g id="node7" class="node">
<title>pickup_p_proc</title>
<ellipse fill="#ffffff" stroke="#000000" cx="604" cy="-1034.84" rx="110.49" ry="30.05"/>
<text text-anchor="middle" x="604" y="-1038.79" font-family="Times,serif" font-size="14.00">So you&#39;re the water</text>
<text text-anchor="middle" x="604" y="-1021.54" font-family="Times,serif" font-size="14.00">thief! You traitor!</text>
</g>
<!-- start&#45;&gt;pickup_p_proc -->
<g id="edge6" class="edge">
<title>start&#45;&gt;pickup_p_proc</title>
<path fill="none" stroke="#555555" stroke-dasharray="1,5" d="M354.45,-1249C387.62,-1242.85 445,-1228.6 485,-1199.06 529.67,-1166.07 564.61,-1111.44 584.76,-1074.57"/>
<polygon fill="#555555" stroke="#555555" points="588.18,-1076.6 589.81,-1066.14 582.01,-1073.3 588.18,-1076.6"/>
</g>
<!-- talk_p_proc -->
<g id="node8" class="node">
<title>talk_p_proc</title>
<ellipse fill="#ffffff" stroke="#000000" cx="869" cy="-1034.84" rx="136.47" ry="164.23"/>
<text text-anchor="middle" x="869" y="-1133.66" font-family="Times,serif" font-size="14.00">How could you betray us</text>
<text text-anchor="middle" x="869" y="-1116.41" font-family="Times,serif" font-size="14.00">like this? Leave me</text>
<text text-anchor="middle" x="869" y="-1099.16" font-family="Times,serif" font-size="14.00">alone!</text>
<text text-anchor="middle" x="869" y="-1081.91" font-family="Times,serif" font-size="14.00">&#45;&#45;&#45;</text>
<text text-anchor="middle" x="869" y="-1064.66" font-family="Times,serif" font-size="14.00">I&#39;m so glad that the</text>
<text text-anchor="middle" x="869" y="-1047.41" font-family="Times,serif" font-size="14.00">ordeal is over. Thank</text>
<text text-anchor="middle" x="869" y="-1030.16" font-family="Times,serif" font-size="14.00">you.</text>
<text text-anchor="middle" x="869" y="-1012.91" font-family="Times,serif" font-size="14.00">&#45;&#45;&#45;</text>
<text text-anchor="middle" x="869" y="-995.66" font-family="Times,serif" font-size="14.00">Thanks for catching that</text>
<text text-anchor="middle" x="869" y="-978.41" font-family="Times,serif" font-size="14.00">thief. You&#39;re doing a</text>
<text text-anchor="middle" x="869" y="-961.16" font-family="Times,serif" font-size="14.00">good job. But please</text>
<text text-anchor="middle" x="869" y="-943.91" font-family="Times,serif" font-size="14.00">hurry and find the chip,</text>
<text text-anchor="middle" x="869" y="-926.66" font-family="Times,serif" font-size="14.00">or it won&#39;t matter!</text>
</g>
<!-- start&#45;&gt;talk_p_proc -->
<g id="edge7" class="edge">
<title>start&#45;&gt;talk_p_proc</title>
<path fill="none" stroke="#555555" stroke-dasharray="1,5" d="M355.18,-1251.78C433.6,-1247.69 658.75,-1233.21 723,-1199.06 739.86,-1190.11 755.71,-1178.38 770.32,-1165.33"/>
<polygon fill="#555555" stroke="#555555" points="772.34,-1168.3 777.3,-1158.95 767.58,-1163.16 772.34,-1168.3"/>
</g>
<!-- flee_dude -->
<g id="node9" class="node">
<title>flee_dude</title>
<ellipse fill="#ffffff" stroke="#000000" cx="27" cy="-791.36" rx="27" ry="18"/>
</g>
<!-- critter_p_proc&#45;&gt;flee_dude -->
<g id="edge8" class="edge">
<title>critter_p_proc&#45;&gt;flee_dude</title>
<path fill="none" stroke="#555555" stroke-dasharray="1,5" d="M60.41,-1016.47C54.25,-975.14 38.67,-870.62 31.16,-820.29"/>
<polygon fill="#555555" stroke="#555555" points="34.5,-819.94 29.57,-810.57 27.58,-820.98 34.5,-819.94"/>
</g>
<!-- sleeping -->
<g id="node10" class="node">
<title>sleeping</title>
<ellipse fill="#ffffff" stroke="#000000" cx="99" cy="-791.36" rx="27" ry="18"/>
</g>
<!-- critter_p_proc&#45;&gt;sleeping -->
<g id="edge9" class="edge">
<title>critter_p_proc&#45;&gt;sleeping</title>
<path fill="none" stroke="#555555" stroke-dasharray="1,5" d="M65.59,-1016.47C71.75,-975.14 87.33,-870.62 94.84,-820.29"/>
<polygon fill="#555555" stroke="#555555" points="98.42,-820.98 96.43,-810.57 91.5,-819.94 98.42,-820.98"/>
</g>
<!-- Lyle01 -->
<g id="node11" class="node">
<title>Lyle01</title>
<ellipse fill="#ffffff" stroke="#000000" cx="869" cy="-791.36" rx="44.19" ry="42.25"/>
<text text-anchor="middle" x="869" y="-803.94" font-family="Times,serif" font-size="14.00">Hello, </text>
<text text-anchor="middle" x="869" y="-786.69" font-family="Times,serif" font-size="14.00">&#45;&#45;&#45;</text>
<text text-anchor="middle" x="869" y="-769.44" font-family="Times,serif" font-size="14.00">.</text>
</g>
<!-- talk_p_proc&#45;&gt;Lyle01 -->
<g id="edge10" class="edge">
<title>talk_p_proc&#45;&gt;Lyle01</title>
<path fill="none" stroke="#555555" stroke-dasharray="1,5" d="M869,-870.43C869,-861.48 869,-852.89 869,-844.89"/>
<polygon fill="#555555" stroke="#555555" points="872.5,-845 869,-835 865.5,-845 872.5,-845"/>
</g>
<!-- Lyle02 -->
<g id="node12" class="node">
<title>Lyle02</title>
<ellipse fill="#ffffff" stroke="#000000" cx="770" cy="-489.99" rx="146.02" ry="188.62"/>
<text text-anchor="middle" x="770" y="-606.07" font-family="Times,serif" font-size="14.00">Not so good. Ever since I</text>
<text text-anchor="middle" x="770" y="-588.82" font-family="Times,serif" font-size="14.00">had one of my water</text>
<text text-anchor="middle" x="770" y="-571.57" font-family="Times,serif" font-size="14.00">rations stolen the other</text>
<text text-anchor="middle" x="770" y="-554.32" font-family="Times,serif" font-size="14.00">day,</text>
<text text-anchor="middle" x="770" y="-537.07" font-family="Times,serif" font-size="14.00">things have been going</text>
<text text-anchor="middle" x="770" y="-519.82" font-family="Times,serif" font-size="14.00">downhill. Everybody is</text>
<text text-anchor="middle" x="770" y="-502.57" font-family="Times,serif" font-size="14.00">getting scared and nobody</text>
<text text-anchor="middle" x="770" y="-485.32" font-family="Times,serif" font-size="14.00">knows</text>
<text text-anchor="middle" x="770" y="-468.07" font-family="Times,serif" font-size="14.00"> what to do.</text>
<text text-anchor="middle" x="770" y="-450.82" font-family="Times,serif" font-size="14.00">&#45;&#45;&#45;</text>
<text text-anchor="middle" x="770" y="-433.57" font-family="Times,serif" font-size="14.00">We&#39;re doing all right</text>
<text text-anchor="middle" x="770" y="-416.32" font-family="Times,serif" font-size="14.00">here. But I hope that you</text>
<text text-anchor="middle" x="770" y="-399.07" font-family="Times,serif" font-size="14.00">find the water chip soon.</text>
<text text-anchor="middle" x="770" y="-381.82" font-family="Times,serif" font-size="14.00">Everybody&#39;s on edge and</text>
<text text-anchor="middle" x="770" y="-364.57" font-family="Times,serif" font-size="14.00">we don&#39;t have much time.</text>
</g>
<!-- Lyle01&#45;&gt;Lyle02 -->
<g id="edge11" class="edge">
<title>Lyle01&#45;&gt;Lyle02</title>
<path fill="none" stroke="#994f00" d="M827.26,-776.31C806.51,-766.97 783.33,-752.43 771.25,-731.11 763.65,-717.7 758.22,-703.16 754.49,-688.09"/>
<polygon fill="#994f00" stroke="#994f00" points="757.75,-687.59 752.18,-678.58 750.91,-689.1 757.75,-687.59"/>
<text text-anchor="middle" x="859.38" y="-717.81" font-family="Times,serif" font-size="14.00" fill="#994f00">Hello, Lyle. How are you</text>
<text text-anchor="middle" x="859.38" y="-700.56" font-family="Times,serif" font-size="14.00" fill="#994f00">holding up?</text>
</g>
<!-- LyleEnd -->
<g id="node13" class="node">
<title>LyleEnd</title>
<ellipse fill="#ffffff" stroke="#000000" cx="968" cy="-489.99" rx="27" ry="18"/>
</g>
<!-- Lyle01&#45;&gt;LyleEnd -->
<g id="edge12" class="edge">
<title>Lyle01&#45;&gt;LyleEnd</title>
<path fill="none" stroke="#220099" d="M907.24,-770.12C921.86,-760.35 937.13,-747.22 946,-731.11 983.68,-662.65 978.11,-566.35 972.32,-519.22"/>
<polygon fill="#220099" stroke="#220099" points="975.66,-518.79 970.87,-509.34 968.73,-519.71 975.66,-518.79"/>
<text text-anchor="middle" x="1004" y="-709.19" font-family="Times,serif" font-size="14.00" fill="#220099">Wahnnnngh!</text>
</g>
<!-- Lyle03 -->
<g id="node14" class="node">
<title>Lyle03</title>
<ellipse fill="#ffffff" stroke="#000000" cx="640" cy="-115.44" rx="108.55" ry="18"/>
<text text-anchor="middle" x="640" y="-110.76" font-family="Times,serif" font-size="14.00">Yeah, I hope so too.</text>
</g>
<!-- Lyle02&#45;&gt;Lyle03 -->
<g id="edge13" class="edge">
<title>Lyle02&#45;&gt;Lyle03</title>
<path fill="none" stroke="#0a9900" d="M710.14,-317.43C686.79,-250.52 662.55,-181.05 649.57,-143.86"/>
<polygon fill="#0a9900" stroke="#0a9900" points="652.67,-143.12 646.07,-134.83 646.06,-145.42 652.67,-143.12"/>
<text text-anchor="middle" x="775.25" y="-270.07" font-family="Times,serif" font-size="14.00" fill="#0a9900">That&#39;s too bad. I hope</text>
<text text-anchor="middle" x="775.25" y="-252.82" font-family="Times,serif" font-size="14.00" fill="#0a9900">things get better.</text>
</g>
<!-- Lyle04 -->
<g id="node15" class="node">
<title>Lyle04</title>
<ellipse fill="#ffffff" stroke="#000000" cx="900" cy="-115.44" rx="133.29" ry="115.44"/>
<text text-anchor="middle" x="900" y="-179.76" font-family="Times,serif" font-size="14.00">Thanks. I sure hope you</text>
<text text-anchor="middle" x="900" y="-162.51" font-family="Times,serif" font-size="14.00">can get to the bottom of</text>
<text text-anchor="middle" x="900" y="-145.26" font-family="Times,serif" font-size="14.00">this. And please hurry</text>
<text text-anchor="middle" x="900" y="-128.01" font-family="Times,serif" font-size="14.00">and</text>
<text text-anchor="middle" x="900" y="-110.76" font-family="Times,serif" font-size="14.00">find a new water chip.</text>
<text text-anchor="middle" x="900" y="-93.51" font-family="Times,serif" font-size="14.00">This craziness wouldn&#39;t</text>
<text text-anchor="middle" x="900" y="-76.26" font-family="Times,serif" font-size="14.00">have happened at all if</text>
<text text-anchor="middle" x="900" y="-59.01" font-family="Times,serif" font-size="14.00">we had</text>
<text text-anchor="middle" x="900" y="-41.76" font-family="Times,serif" font-size="14.00"> a working chip!</text>
</g>
<!-- Lyle02&#45;&gt;Lyle04 -->
<g id="edge14" class="edge">
<title>Lyle02&#45;&gt;Lyle04</title>
<path fill="none" stroke="#990037" d="M841.04,-324.78C846.34,-310.86 851.4,-296.93 856,-283.37 860.81,-269.19 865.42,-254.18 869.72,-239.21"/>
<polygon fill="#990037" stroke="#990037" points="873.29,-240.44 872.65,-229.87 866.56,-238.54 873.29,-240.44"/>
<text text-anchor="middle" x="945.5" y="-270.07" font-family="Times,serif" font-size="14.00" fill="#990037">I&#39;ll take a look and see</text>
<text text-anchor="middle" x="945.5" y="-252.82" font-family="Times,serif" font-size="14.00" fill="#990037">what I can do.</text>
</g>
</g>
</svg>
