<?xml version="1.0" encoding="UTF-8" standalone="no"?>
<!DOCTYPE svg PUBLIC "-//W3C//DTD SVG 1.1//EN"
 "http://www.w3.org/Graphics/SVG/1.1/DTD/svg11.dtd">
<!-- Generated by graphviz version 8.0.5 (0)
 -->
<!-- Title: MASTER1 Pages: 1 -->
<svg width="418pt" height="262pt"
 viewBox="0.00 0.00 418.29 262.08" xmlns="http://www.w3.org/2000/svg" xmlns:xlink="http://www.w3.org/1999/xlink">
<g id="graph0" class="graph" transform="scale(1 1) rotate(0) translate(4 258.08)">
<title>MASTER1</title>
<polygon fill="white" stroke="none" points="-4,4 -4,-258.08 414.29,-258.08 414.29,4 -4,4"/>
<!-- start -->
<g id="node1" class="node">
<title>start</title>
<ellipse fill="#ffffff" stroke="#000000" cx="133.29" cy="-163.04" rx="133.29" ry="91.04"/>
<text text-anchor="middle" x="133.29" y="-210.11" font-family="Times,serif" font-size="14.00">Time left: &#160;</text>
<text text-anchor="middle" x="133.29" y="-192.86" font-family="Times,serif" font-size="14.00">&#45;&#45;&#45;</text>
<text text-anchor="middle" x="133.29" y="-175.61" font-family="Times,serif" font-size="14.00"> seconds.</text>
<text text-anchor="middle" x="133.29" y="-158.36" font-family="Times,serif" font-size="14.00">&#45;&#45;&#45;</text>
<text text-anchor="middle" x="133.29" y="-141.11" font-family="Times,serif" font-size="14.00">This is where you make</text>
<text text-anchor="middle" x="133.29" y="-123.86" font-family="Times,serif" font-size="14.00">your mark on the world.</text>
<text text-anchor="middle" x="133.29" y="-106.61" font-family="Times,serif" font-size="14.00">(a small pile of ash</text>
</g>
<!-- Darkness -->
<g id="node2" class="node">
<title>Darkness</title>
<ellipse fill="#ffffff" stroke="#000000" cx="61.29" cy="-18" rx="27" ry="18"/>
</g>
<!-- start&#45;&gt;Darkness -->
<g id="edge1" class="edge">
<title>start&#45;&gt;Darkness</title>
<path fill="none" stroke="#555555" stroke-dasharray="1,5" d="M84.33,-78.01C78.74,-66.55 73.61,-55.54 69.55,-46.2"/>
<polygon fill="#555555" stroke="#555555" points="72.4,-44.95 65.32,-37.07 65.94,-47.65 72.4,-44.95"/>
</g>
<!-- start&#45;&gt;Darkness -->
<g id="edge3" class="edge">
<title>start&#45;&gt;Darkness</title>
<path fill="none" stroke="#555555" stroke-dasharray="1,5" d="M96.15,-75.12C90.2,-63.73 84.29,-52.89 79.04,-43.82"/>
<polygon fill="#555555" stroke="#555555" points="81.56,-42.2 73.43,-35.41 75.54,-45.79 81.56,-42.2"/>
</g>
<!-- add_party -->
<g id="node3" class="node">
<title>add_party</title>
<ellipse fill="#ffffff" stroke="#000000" cx="133.29" cy="-18" rx="27" ry="18"/>
</g>
<!-- start&#45;&gt;add_party -->
<g id="edge2" class="edge">
<title>start&#45;&gt;add_party</title>
<path fill="none" stroke="#555555" stroke-dasharray="1,5" d="M133.29,-71.86C133.29,-62.92 133.29,-54.41 133.29,-46.92"/>
<polygon fill="#555555" stroke="#555555" points="136.79,-47.1 133.29,-37.1 129.79,-47.1 136.79,-47.1"/>
</g>
<!-- update_party -->
<g id="node4" class="node">
<title>update_party</title>
<ellipse fill="#ffffff" stroke="#000000" cx="205.29" cy="-18" rx="27" ry="18"/>
</g>
<!-- start&#45;&gt;update_party -->
<g id="edge4" class="edge">
<title>start&#45;&gt;update_party</title>
<path fill="none" stroke="#555555" stroke-dasharray="1,5" d="M176.21,-76.77C181.99,-65.29 187.52,-54.31 192.17,-45.06"/>
<polygon fill="#555555" stroke="#555555" points="195.66,-46.92 197.03,-36.41 189.41,-43.77 195.66,-46.92"/>
</g>
<!-- remove_party -->
<g id="node5" class="node">
<title>remove_party</title>
<ellipse fill="#ffffff" stroke="#000000" cx="277.29" cy="-18" rx="27" ry="18"/>
</g>
<!-- start&#45;&gt;remove_party -->
<g id="edge5" class="edge">
<title>start&#45;&gt;remove_party</title>
<path fill="none" stroke="#555555" stroke-dasharray="1,5" d="M208.24,-87.59C225.28,-70.66 242.11,-53.95 254.88,-41.26"/>
<polygon fill="#555555" stroke="#555555" points="257.02,-44.07 261.65,-34.54 252.09,-39.11 257.02,-44.07"/>
</g>
<!-- Lighting -->
<g id="node6" class="node">
<title>Lighting</title>
<ellipse fill="#ffffff" stroke="#000000" cx="311.29" cy="-163.04" rx="27" ry="18"/>
</g>
<!-- Invasion -->
<g id="node7" class="node">
<title>Invasion</title>
<ellipse fill="#ffffff" stroke="#000000" cx="383.29" cy="-163.04" rx="27" ry="18"/>
</g>
</g>
</svg>
