<?xml version="1.0" encoding="UTF-8" standalone="no"?>
<!DOCTYPE svg PUBLIC "-//W3C//DTD SVG 1.1//EN"
 "http://www.w3.org/Graphics/SVG/1.1/DTD/svg11.dtd">
<!-- Generated by graphviz version 8.0.5 (0)
 -->
<!-- Title: MBENT Pages: 1 -->
<svg width="428pt" height="164pt"
 viewBox="0.00 0.00 427.94 164.50" xmlns="http://www.w3.org/2000/svg" xmlns:xlink="http://www.w3.org/1999/xlink">
<g id="graph0" class="graph" transform="scale(1 1) rotate(0) translate(4 160.5)">
<title>MBENT</title>
<polygon fill="white" stroke="none" points="-4,4 -4,-160.5 423.94,-160.5 423.94,4 -4,4"/>
<!-- start -->
<g id="node1" class="node">
<title>start</title>
<ellipse fill="#ffffff" stroke="#000000" cx="65.94" cy="-114.25" rx="65.94" ry="42.25"/>
<text text-anchor="middle" x="65.94" y="-126.82" font-family="Times,serif" font-size="14.00">Time left: &#160;</text>
<text text-anchor="middle" x="65.94" y="-109.57" font-family="Times,serif" font-size="14.00">&#45;&#45;&#45;</text>
<text text-anchor="middle" x="65.94" y="-92.32" font-family="Times,serif" font-size="14.00"> seconds.</text>
</g>
<!-- Lighting -->
<g id="node2" class="node">
<title>Lighting</title>
<ellipse fill="#ffffff" stroke="#000000" cx="29.94" cy="-18" rx="27" ry="18"/>
</g>
<!-- start&#45;&gt;Lighting -->
<g id="edge1" class="edge">
<title>start&#45;&gt;Lighting</title>
<path fill="none" stroke="#555555" stroke-dasharray="1,5" d="M44.32,-74.1C40.63,-64.95 37.12,-55.4 34.36,-46.86"/>
<polygon fill="#555555" stroke="#555555" points="37.43,-45.91 31.19,-37.35 30.72,-47.93 37.43,-45.91"/>
</g>
<!-- start&#45;&gt;Lighting -->
<g id="edge3" class="edge">
<title>start&#45;&gt;Lighting</title>
<path fill="none" stroke="#555555" stroke-dasharray="1,5" d="M56.85,-71.91C53.4,-62.49 49.47,-52.75 45.63,-44.24"/>
<polygon fill="#555555" stroke="#555555" points="48.5,-43.1 41.05,-35.57 42.17,-46.1 48.5,-43.1"/>
</g>
<!-- add_party -->
<g id="node3" class="node">
<title>add_party</title>
<ellipse fill="#ffffff" stroke="#000000" cx="101.94" cy="-18" rx="27" ry="18"/>
</g>
<!-- start&#45;&gt;add_party -->
<g id="edge2" class="edge">
<title>start&#45;&gt;add_party</title>
<path fill="none" stroke="#555555" stroke-dasharray="1,5" d="M81.41,-72.73C84.86,-63.71 88.43,-54.36 91.61,-46.04"/>
<polygon fill="#555555" stroke="#555555" points="95.22,-47.4 95.52,-36.81 88.68,-44.9 95.22,-47.4"/>
</g>
<!-- remove_party -->
<g id="node4" class="node">
<title>remove_party</title>
<ellipse fill="#ffffff" stroke="#000000" cx="173.94" cy="-18" rx="27" ry="18"/>
</g>
<!-- start&#45;&gt;remove_party -->
<g id="edge4" class="edge">
<title>start&#45;&gt;remove_party</title>
<path fill="none" stroke="#555555" stroke-dasharray="1,5" d="M104.32,-79.76C119.44,-66.56 136.34,-51.81 149.71,-40.14"/>
<polygon fill="#555555" stroke="#555555" points="151.7,-42.18 156.93,-32.97 147.09,-36.91 151.7,-42.18"/>
</g>
<!-- Darkness -->
<g id="node5" class="node">
<title>Darkness</title>
<ellipse fill="#ffffff" stroke="#000000" cx="176.94" cy="-114.25" rx="27" ry="18"/>
</g>
<!-- update_party -->
<g id="node6" class="node">
<title>update_party</title>
<ellipse fill="#ffffff" stroke="#000000" cx="248.94" cy="-114.25" rx="27" ry="18"/>
</g>
<!-- Invasion -->
<g id="node7" class="node">
<title>Invasion</title>
<ellipse fill="#ffffff" stroke="#000000" cx="320.94" cy="-114.25" rx="27" ry="18"/>
</g>
<!-- radio_kludge -->
<g id="node8" class="node">
<title>radio_kludge</title>
<ellipse fill="#ffffff" stroke="#000000" cx="392.94" cy="-114.25" rx="27" ry="18"/>
</g>
</g>
</svg>
