<?xml version="1.0" encoding="UTF-8" standalone="no"?>
<!DOCTYPE svg PUBLIC "-//W3C//DTD SVG 1.1//EN"
 "http://www.w3.org/Graphics/SVG/1.1/DTD/svg11.dtd">
<!-- Generated by graphviz version 8.0.5 (0)
 -->
<!-- Title: MIKE Pages: 1 -->
<svg width="1376pt" height="870pt"
 viewBox="0.00 0.00 1375.67 870.18" xmlns="http://www.w3.org/2000/svg" xmlns:xlink="http://www.w3.org/1999/xlink">
<g id="graph0" class="graph" transform="scale(1 1) rotate(0) translate(4 866.18)">
<title>MIKE</title>
<polygon fill="white" stroke="none" points="-4,4 -4,-866.18 1371.67,-866.18 1371.67,4 -4,4"/>
<!-- start -->
<g id="node1" class="node">
<title>start</title>
<ellipse fill="#ffffff" stroke="#000000" cx="883.67" cy="-844.18" rx="27" ry="18"/>
</g>
<!-- look_at_p_proc -->
<g id="node2" class="node">
<title>look_at_p_proc</title>
<ellipse fill="#ffffff" stroke="#000000" cx="645.67" cy="-759.13" rx="121.09" ry="30.05"/>
<text text-anchor="middle" x="645.67" y="-763.08" font-family="Times,serif" font-size="14.00">You see Mike, the Old</text>
<text text-anchor="middle" x="645.67" y="-745.83" font-family="Times,serif" font-size="14.00">Town guard.</text>
</g>
<!-- start&#45;&gt;look_at_p_proc -->
<g id="edge1" class="edge">
<title>start&#45;&gt;look_at_p_proc</title>
<path fill="none" stroke="#555555" stroke-dasharray="1,5" d="M859.98,-834.92C828.71,-824 772.09,-804.25 724.9,-787.78"/>
<polygon fill="#555555" stroke="#555555" points="726.27,-784.2 715.68,-784.21 723.96,-790.81 726.27,-784.2"/>
</g>
<!-- pickup_p_proc -->
<g id="node3" class="node">
<title>pickup_p_proc</title>
<ellipse fill="#ffffff" stroke="#000000" cx="811.67" cy="-759.13" rx="27" ry="18"/>
</g>
<!-- start&#45;&gt;pickup_p_proc -->
<g id="edge2" class="edge">
<title>start&#45;&gt;pickup_p_proc</title>
<path fill="none" stroke="#555555" stroke-dasharray="1,5" d="M870.8,-828.34C859.91,-815.78 844.13,-797.57 831.61,-783.13"/>
<polygon fill="#555555" stroke="#555555" points="833.87,-781.39 824.67,-776.13 828.58,-785.98 833.87,-781.39"/>
</g>
<!-- talk_p_proc -->
<g id="node4" class="node">
<title>talk_p_proc</title>
<ellipse fill="#ffffff" stroke="#000000" cx="883.67" cy="-759.13" rx="27" ry="18"/>
</g>
<!-- start&#45;&gt;talk_p_proc -->
<g id="edge3" class="edge">
<title>start&#45;&gt;talk_p_proc</title>
<path fill="none" stroke="#555555" stroke-dasharray="1,5" d="M883.67,-825.97C883.67,-815.13 883.67,-800.88 883.67,-788.41"/>
<polygon fill="#555555" stroke="#555555" points="887.17,-788.6 883.67,-778.6 880.17,-788.6 887.17,-788.6"/>
</g>
<!-- critter_p_proc -->
<g id="node5" class="node">
<title>critter_p_proc</title>
<ellipse fill="#ffffff" stroke="#000000" cx="955.67" cy="-759.13" rx="27" ry="18"/>
</g>
<!-- start&#45;&gt;critter_p_proc -->
<g id="edge4" class="edge">
<title>start&#45;&gt;critter_p_proc</title>
<path fill="none" stroke="#555555" stroke-dasharray="1,5" d="M896.54,-828.34C907.43,-815.78 923.21,-797.57 935.73,-783.13"/>
<polygon fill="#555555" stroke="#555555" points="938.76,-785.98 942.67,-776.13 933.47,-781.39 938.76,-785.98"/>
</g>
<!-- destroy_p_proc -->
<g id="node6" class="node">
<title>destroy_p_proc</title>
<ellipse fill="#ffffff" stroke="#000000" cx="1027.67" cy="-759.13" rx="27" ry="18"/>
</g>
<!-- start&#45;&gt;destroy_p_proc -->
<g id="edge5" class="edge">
<title>start&#45;&gt;destroy_p_proc</title>
<path fill="none" stroke="#555555" stroke-dasharray="1,5" d="M905.94,-833.75C928.32,-823.88 963.45,-807.32 991.67,-789.18 995.73,-786.57 999.87,-783.59 1003.83,-780.54"/>
<polygon fill="#555555" stroke="#555555" points="1005.48,-782.9 1011.1,-773.92 1001.1,-777.44 1005.48,-782.9"/>
</g>
<!-- get_reaction -->
<g id="node8" class="node">
<title>get_reaction</title>
<ellipse fill="#ffffff" stroke="#000000" cx="1012.67" cy="-674.08" rx="27" ry="18"/>
</g>
<!-- talk_p_proc&#45;&gt;get_reaction -->
<g id="edge6" class="edge">
<title>talk_p_proc&#45;&gt;get_reaction</title>
<path fill="none" stroke="#555555" stroke-dasharray="1,5" d="M899.75,-744.28C905.83,-739.28 912.92,-733.72 919.67,-729.08 939.88,-715.18 963.84,-701.32 982.38,-691.13"/>
<polygon fill="#555555" stroke="#555555" points="983.68,-693.86 990.8,-686 980.34,-687.71 983.68,-693.86"/>
</g>
<!-- Mike01 -->
<g id="node9" class="node">
<title>Mike01</title>
<ellipse fill="#ffffff" stroke="#000000" cx="707.67" cy="-674.08" rx="132.76" ry="18"/>
<text text-anchor="middle" x="707.67" y="-669.4" font-family="Times,serif" font-size="14.00">Yeah, whatta&#39; you want?</text>
</g>
<!-- talk_p_proc&#45;&gt;Mike01 -->
<g id="edge7" class="edge">
<title>talk_p_proc&#45;&gt;Mike01</title>
<path fill="none" stroke="#555555" stroke-dasharray="1,5" d="M868.32,-743.98C862.2,-738.83 854.9,-733.26 847.67,-729.08 823.58,-715.17 795.22,-703.47 770.36,-694.55"/>
<polygon fill="#555555" stroke="#555555" points="771.89,-691.03 761.3,-691.03 769.58,-697.64 771.89,-691.03"/>
</g>
<!-- combat -->
<g id="node7" class="node">
<title>combat</title>
<ellipse fill="#ffffff" stroke="#000000" cx="148.67" cy="-18" rx="27" ry="18"/>
</g>
<!-- ReactToLevel -->
<g id="node15" class="node">
<title>ReactToLevel</title>
<ellipse fill="#ffffff" stroke="#000000" cx="1084.67" cy="-477.29" rx="27" ry="18"/>
</g>
<!-- get_reaction&#45;&gt;ReactToLevel -->
<g id="edge18" class="edge">
<title>get_reaction&#45;&gt;ReactToLevel</title>
<path fill="none" stroke="#555555" stroke-dasharray="1,5" d="M1018.93,-656.13C1031.44,-622.3 1059.59,-546.15 1074.67,-505.33"/>
<polygon fill="#555555" stroke="#555555" points="1078.29,-506.65 1078.47,-496.06 1071.72,-504.22 1078.29,-506.65"/>
</g>
<!-- Mike02 -->
<g id="node10" class="node">
<title>Mike02</title>
<ellipse fill="#ffffff" stroke="#000000" cx="878.67" cy="-477.29" rx="143.37" ry="42.25"/>
<text text-anchor="middle" x="878.67" y="-489.86" font-family="Times,serif" font-size="14.00">Ha. Just another Junkie.</text>
<text text-anchor="middle" x="878.67" y="-472.61" font-family="Times,serif" font-size="14.00">Go crash somewhere else,</text>
<text text-anchor="middle" x="878.67" y="-455.36" font-family="Times,serif" font-size="14.00">Junkhead.</text>
</g>
<!-- Mike01&#45;&gt;Mike02 -->
<g id="edge8" class="edge">
<title>Mike01&#45;&gt;Mike02</title>
<path fill="none" stroke="#002d99" d="M722.84,-655.79C748.06,-627.07 799.44,-568.54 836.32,-526.53"/>
<polygon fill="#002d99" stroke="#002d99" points="839.52,-529.19 843.49,-519.37 834.26,-524.57 839.52,-529.19"/>
<text text-anchor="middle" x="835.04" y="-607.53" font-family="Times,serif" font-size="14.00" fill="#002d99">a...dum...um...</text>
</g>
<!-- Mike03 -->
<g id="node11" class="node">
<title>Mike03</title>
<ellipse fill="#ffffff" stroke="#000000" cx="470.67" cy="-477.29" rx="135.41" ry="91.04"/>
<text text-anchor="middle" x="470.67" y="-524.36" font-family="Times,serif" font-size="14.00">Yeah. You must be lost.</text>
<text text-anchor="middle" x="470.67" y="-507.11" font-family="Times,serif" font-size="14.00">Most people wouldn&#39;t be</text>
<text text-anchor="middle" x="470.67" y="-489.86" font-family="Times,serif" font-size="14.00">caught dead in this part</text>
<text text-anchor="middle" x="470.67" y="-472.61" font-family="Times,serif" font-size="14.00">of town. This is the</text>
<text text-anchor="middle" x="470.67" y="-455.36" font-family="Times,serif" font-size="14.00">Eastside, or some call it</text>
<text text-anchor="middle" x="470.67" y="-438.11" font-family="Times,serif" font-size="14.00">Old Town. The Wastes of</text>
<text text-anchor="middle" x="470.67" y="-420.86" font-family="Times,serif" font-size="14.00">the Wastes.</text>
</g>
<!-- Mike01&#45;&gt;Mike03 -->
<g id="edge9" class="edge">
<title>Mike01&#45;&gt;Mike03</title>
<path fill="none" stroke="#5a9900" d="M595.93,-664.05C558.35,-658.81 522.56,-650.66 509.17,-638.08 492.57,-622.47 482.57,-601.06 476.69,-578.97"/>
<polygon fill="#5a9900" stroke="#5a9900" points="479.9,-578.37 474.19,-569.45 473.09,-579.99 479.9,-578.37"/>
<text text-anchor="middle" x="601.92" y="-624.78" font-family="Times,serif" font-size="14.00" fill="#5a9900">I&#39;m not from around here.</text>
<text text-anchor="middle" x="601.92" y="-607.53" font-family="Times,serif" font-size="14.00" fill="#5a9900">What part of town is</text>
<text text-anchor="middle" x="601.92" y="-590.28" font-family="Times,serif" font-size="14.00" fill="#5a9900">this?</text>
</g>
<!-- Mike04 -->
<g id="node12" class="node">
<title>Mike04</title>
<ellipse fill="#ffffff" stroke="#000000" cx="148.67" cy="-256.25" rx="148.67" ry="42.25"/>
<text text-anchor="middle" x="148.67" y="-268.82" font-family="Times,serif" font-size="14.00">Water Chip? What are you?</text>
<text text-anchor="middle" x="148.67" y="-251.57" font-family="Times,serif" font-size="14.00">On dope? A chip made of</text>
<text text-anchor="middle" x="148.67" y="-234.32" font-family="Times,serif" font-size="14.00">water?</text>
</g>
<!-- Mike01&#45;&gt;Mike04 -->
<g id="edge10" class="edge">
<title>Mike01&#45;&gt;Mike04</title>
<path fill="none" stroke="#990087" d="M585.81,-666.67C439.36,-656.27 205.96,-630.26 147.42,-568.33 69.96,-486.39 89.04,-425.82 116.67,-316.5 117.35,-313.82 118.17,-311.13 119.11,-308.46"/>
<polygon fill="#990087" stroke="#990087" points="122.73,-309.85 123.23,-299.27 116.24,-307.23 122.73,-309.85"/>
<text text-anchor="middle" x="237.29" y="-481.24" font-family="Times,serif" font-size="14.00" fill="#990087">Do you know where I can</text>
<text text-anchor="middle" x="237.29" y="-463.99" font-family="Times,serif" font-size="14.00" fill="#990087">find a Water Chip?</text>
</g>
<!-- Mike05 -->
<g id="node13" class="node">
<title>Mike05</title>
<ellipse fill="#ffffff" stroke="#000000" cx="535.67" cy="-91" rx="27" ry="18"/>
</g>
<!-- Mike01&#45;&gt;Mike05 -->
<g id="edge11" class="edge">
<title>Mike01&#45;&gt;Mike05</title>
<path fill="none" stroke="#00997f" d="M708.79,-655.62C713.28,-581.51 727.78,-293.17 687.67,-214 661.74,-162.82 603.47,-125.92 567.09,-106.83"/>
<polygon fill="#00997f" stroke="#00997f" points="568.95,-103.34 558.45,-101.92 565.77,-109.58 568.95,-103.34"/>
<text text-anchor="middle" x="751.17" y="-337.7" font-family="Times,serif" font-size="14.00" fill="#00997f">Um... Bye.</text>
</g>
<!-- Mike03&#45;&gt;Mike04 -->
<g id="edge12" class="edge">
<title>Mike03&#45;&gt;Mike04</title>
<path fill="none" stroke="#995200" d="M380.31,-409.39C366.54,-396.71 353.32,-382.82 342.42,-368.25 327.37,-348.13 338.14,-333.53 319.67,-316.5 306.64,-304.48 291.04,-294.88 274.65,-287.22"/>
<polygon fill="#995200" stroke="#995200" points="276.48,-283.76 265.92,-282.92 273.66,-290.16 276.48,-283.76"/>
<text text-anchor="middle" x="432.29" y="-346.32" font-family="Times,serif" font-size="14.00" fill="#995200">Do you know where I can</text>
<text text-anchor="middle" x="432.29" y="-329.07" font-family="Times,serif" font-size="14.00" fill="#995200">find a Water Chip?</text>
</g>
<!-- Mike03&#45;&gt;Mike05 -->
<g id="edge13" class="edge">
<title>Mike03&#45;&gt;Mike05</title>
<path fill="none" stroke="#260099" d="M514.68,-390.71C517.41,-383.24 519.8,-375.69 521.67,-368.25 543.9,-279.67 540.82,-170.23 537.78,-119.82"/>
<polygon fill="#260099" stroke="#260099" points="541.22,-119.9 537.08,-110.15 534.24,-120.36 541.22,-119.9"/>
<text text-anchor="middle" x="611.67" y="-260.2" font-family="Times,serif" font-size="14.00" fill="#260099">Thanks for the info. </text>
<text text-anchor="middle" x="611.67" y="-242.95" font-family="Times,serif" font-size="14.00" fill="#260099">Bye.</text>
</g>
<!-- Mike04&#45;&gt;Mike03 -->
<g id="edge15" class="edge">
<title>Mike04&#45;&gt;Mike03</title>
<path fill="none" stroke="#990034" d="M127.58,-298.48C118.99,-321.62 114.51,-349.51 131.17,-368.25 153.84,-393.75 250.9,-376.72 283.67,-386.25 308.15,-393.37 333.38,-403.43 357.08,-414.27"/>
<polygon fill="#990034" stroke="#990034" points="355.24,-417.74 365.78,-418.78 358.19,-411.39 355.24,-417.74"/>
<text text-anchor="middle" x="223.92" y="-354.95" font-family="Times,serif" font-size="14.00" fill="#990034">I&#39;m not from around here.</text>
<text text-anchor="middle" x="223.92" y="-337.7" font-family="Times,serif" font-size="14.00" fill="#990034">What part of town am I</text>
<text text-anchor="middle" x="223.92" y="-320.45" font-family="Times,serif" font-size="14.00" fill="#990034">in?</text>
</g>
<!-- Mike04&#45;&gt;Mike05 -->
<g id="edge16" class="edge">
<title>Mike04&#45;&gt;Mike05</title>
<path fill="none" stroke="#006099" d="M265.01,-229.64C290.43,-221.19 316.37,-210.19 338.67,-196 373.71,-173.71 366.12,-148.46 401.67,-127 431.29,-109.12 469.95,-100.28 498.13,-95.97"/>
<polygon fill="#006099" stroke="#006099" points="498.33,-99.33 507.75,-94.48 497.36,-92.4 498.33,-99.33"/>
<text text-anchor="middle" x="461.67" y="-156.82" font-family="Times,serif" font-size="14.00" fill="#006099">Nevermind. Bye.</text>
</g>
<!-- Mike06 -->
<g id="node14" class="node">
<title>Mike06</title>
<ellipse fill="#ffffff" stroke="#000000" cx="148.67" cy="-91" rx="27" ry="18"/>
</g>
<!-- Mike04&#45;&gt;Mike06 -->
<g id="edge14" class="edge">
<title>Mike04&#45;&gt;Mike06</title>
<path fill="none" stroke="#079900" d="M148.67,-213.63C148.67,-184.31 148.67,-145.82 148.67,-120.07"/>
<polygon fill="#079900" stroke="#079900" points="152.17,-120.21 148.67,-110.21 145.17,-120.21 152.17,-120.21"/>
<text text-anchor="middle" x="241.67" y="-182.7" font-family="Times,serif" font-size="14.00" fill="#079900">Don&#39;t you be mouthing off</text>
<text text-anchor="middle" x="241.67" y="-165.45" font-family="Times,serif" font-size="14.00" fill="#079900">to me, punk. Now I&#39;m</text>
<text text-anchor="middle" x="241.67" y="-148.2" font-family="Times,serif" font-size="14.00" fill="#079900">gonna have to put you in</text>
<text text-anchor="middle" x="241.67" y="-130.95" font-family="Times,serif" font-size="14.00" fill="#079900">the ground.</text>
</g>
<!-- Mike06&#45;&gt;combat -->
<g id="edge17" class="edge">
<title>Mike06&#45;&gt;combat</title>
<path fill="none" stroke="#555555" stroke-dasharray="1,5" d="M148.67,-72.81C148.67,-65.05 148.67,-55.68 148.67,-46.95"/>
<polygon fill="#555555" stroke="#555555" points="152.17,-47.03 148.67,-37.03 145.17,-47.03 152.17,-47.03"/>
</g>
<!-- LevelToReact -->
<g id="node16" class="node">
<title>LevelToReact</title>
<ellipse fill="#ffffff" stroke="#000000" cx="1112.67" cy="-759.13" rx="27" ry="18"/>
</g>
<!-- UpReact -->
<g id="node17" class="node">
<title>UpReact</title>
<ellipse fill="#ffffff" stroke="#000000" cx="1084.67" cy="-674.08" rx="27" ry="18"/>
</g>
<!-- UpReact&#45;&gt;ReactToLevel -->
<g id="edge19" class="edge">
<title>UpReact&#45;&gt;ReactToLevel</title>
<path fill="none" stroke="#555555" stroke-dasharray="1,5" d="M1084.67,-655.79C1084.67,-622.08 1084.67,-547.27 1084.67,-506.35"/>
<polygon fill="#555555" stroke="#555555" points="1088.17,-506.54 1084.67,-496.54 1081.17,-506.54 1088.17,-506.54"/>
</g>
<!-- DownReact -->
<g id="node18" class="node">
<title>DownReact</title>
<ellipse fill="#ffffff" stroke="#000000" cx="1156.67" cy="-674.08" rx="27" ry="18"/>
</g>
<!-- DownReact&#45;&gt;ReactToLevel -->
<g id="edge20" class="edge">
<title>DownReact&#45;&gt;ReactToLevel</title>
<path fill="none" stroke="#555555" stroke-dasharray="1,5" d="M1150.41,-656.13C1137.9,-622.3 1109.75,-546.15 1094.66,-505.33"/>
<polygon fill="#555555" stroke="#555555" points="1097.62,-504.22 1090.87,-496.06 1091.05,-506.65 1097.62,-504.22"/>
</g>
<!-- BottomReact -->
<g id="node19" class="node">
<title>BottomReact</title>
<ellipse fill="#ffffff" stroke="#000000" cx="1196.67" cy="-844.18" rx="27" ry="18"/>
</g>
<!-- TopReact -->
<g id="node20" class="node">
<title>TopReact</title>
<ellipse fill="#ffffff" stroke="#000000" cx="1268.67" cy="-844.18" rx="27" ry="18"/>
</g>
<!-- BigUpReact -->
<g id="node21" class="node">
<title>BigUpReact</title>
<ellipse fill="#ffffff" stroke="#000000" cx="1228.67" cy="-674.08" rx="27" ry="18"/>
</g>
<!-- BigUpReact&#45;&gt;ReactToLevel -->
<g id="edge21" class="edge">
<title>BigUpReact&#45;&gt;ReactToLevel</title>
<path fill="none" stroke="#555555" stroke-dasharray="1,5" d="M1217.13,-657.47C1192.11,-623.63 1132.74,-543.32 1102.72,-502.7"/>
<polygon fill="#555555" stroke="#555555" points="1105.02,-500.94 1096.26,-494.97 1099.4,-505.1 1105.02,-500.94"/>
</g>
<!-- BigDownReact -->
<g id="node22" class="node">
<title>BigDownReact</title>
<ellipse fill="#ffffff" stroke="#000000" cx="940.67" cy="-674.08" rx="27" ry="18"/>
</g>
<!-- BigDownReact&#45;&gt;ReactToLevel -->
<g id="edge22" class="edge">
<title>BigDownReact&#45;&gt;ReactToLevel</title>
<path fill="none" stroke="#555555" stroke-dasharray="1,5" d="M954.62,-658.47C973.08,-638.81 1006.12,-602.36 1030.67,-568.33 1045.61,-547.63 1060.36,-522.62 1070.67,-504.23"/>
<polygon fill="#555555" stroke="#555555" points="1074.13,-506.2 1075.9,-495.75 1068,-502.81 1074.13,-506.2"/>
</g>
<!-- UpReactLevel -->
<g id="node23" class="node">
<title>UpReactLevel</title>
<ellipse fill="#ffffff" stroke="#000000" cx="1052.67" cy="-844.18" rx="27" ry="18"/>
</g>
<!-- UpReactLevel&#45;&gt;LevelToReact -->
<g id="edge23" class="edge">
<title>UpReactLevel&#45;&gt;LevelToReact</title>
<path fill="none" stroke="#555555" stroke-dasharray="1,5" d="M1063.95,-827.56C1072.75,-815.38 1085.13,-798.25 1095.21,-784.3"/>
<polygon fill="#555555" stroke="#555555" points="1098.42,-786.84 1101.43,-776.68 1092.74,-782.74 1098.42,-786.84"/>
</g>
<!-- DownReactLevel -->
<g id="node24" class="node">
<title>DownReactLevel</title>
<ellipse fill="#ffffff" stroke="#000000" cx="1124.67" cy="-844.18" rx="27" ry="18"/>
</g>
<!-- DownReactLevel&#45;&gt;LevelToReact -->
<g id="edge24" class="edge">
<title>DownReactLevel&#45;&gt;LevelToReact</title>
<path fill="none" stroke="#555555" stroke-dasharray="1,5" d="M1122.18,-825.97C1120.61,-815.06 1118.53,-800.69 1116.72,-788.16"/>
<polygon fill="#555555" stroke="#555555" points="1120.05,-787.71 1115.15,-778.32 1113.12,-788.72 1120.05,-787.71"/>
</g>
<!-- Goodbyes -->
<g id="node25" class="node">
<title>Goodbyes</title>
<ellipse fill="#ffffff" stroke="#000000" cx="1340.67" cy="-844.18" rx="27" ry="18"/>
</g>
</g>
</svg>
