<?xml version="1.0" encoding="UTF-8" standalone="no"?>
<!DOCTYPE svg PUBLIC "-//W3C//DTD SVG 1.1//EN"
 "http://www.w3.org/Graphics/SVG/1.1/DTD/svg11.dtd">
<!-- Generated by graphviz version 8.0.5 (0)
 -->
<!-- Title: MLOPS Pages: 1 -->
<svg width="808pt" height="358pt"
 viewBox="0.00 0.00 807.77 358.48" xmlns="http://www.w3.org/2000/svg" xmlns:xlink="http://www.w3.org/1999/xlink">
<g id="graph0" class="graph" transform="scale(1 1) rotate(0) translate(4 354.48)">
<title>MLOPS</title>
<polygon fill="white" stroke="none" points="-4,4 -4,-354.48 803.77,-354.48 803.77,4 -4,4"/>
<!-- start -->
<g id="node1" class="node">
<title>start</title>
<ellipse fill="#ffffff" stroke="#000000" cx="514.77" cy="-332.48" rx="27" ry="18"/>
</g>
<!-- look_at_p_proc -->
<g id="node2" class="node">
<title>look_at_p_proc</title>
<ellipse fill="#ffffff" stroke="#000000" cx="141.77" cy="-175.24" rx="141.77" ry="42.25"/>
<text text-anchor="middle" x="141.77" y="-187.81" font-family="Times,serif" font-size="14.00">You see a technician. He</text>
<text text-anchor="middle" x="141.77" y="-170.56" font-family="Times,serif" font-size="14.00">is working diligently for</text>
<text text-anchor="middle" x="141.77" y="-153.31" font-family="Times,serif" font-size="14.00">the Unity and the Master.</text>
</g>
<!-- start&#45;&gt;look_at_p_proc -->
<g id="edge1" class="edge">
<title>start&#45;&gt;look_at_p_proc</title>
<path fill="none" stroke="#555555" stroke-dasharray="1,5" d="M488.15,-328.28C445.46,-322.46 359.68,-307.94 292.77,-278.48 259.44,-263.8 225.57,-241.66 198.38,-221.74"/>
<polygon fill="#555555" stroke="#555555" points="200.91,-218.52 190.79,-215.36 196.73,-224.13 200.91,-218.52"/>
</g>
<!-- pickup_p_proc -->
<g id="node3" class="node">
<title>pickup_p_proc</title>
<ellipse fill="#ffffff" stroke="#000000" cx="328.77" cy="-175.24" rx="27" ry="18"/>
</g>
<!-- start&#45;&gt;pickup_p_proc -->
<g id="edge2" class="edge">
<title>start&#45;&gt;pickup_p_proc</title>
<path fill="none" stroke="#555555" stroke-dasharray="1,5" d="M488.06,-329C454.85,-324.53 398.45,-312.18 364.77,-278.48 344.87,-258.54 335.93,-226.96 331.94,-204.17"/>
<polygon fill="#555555" stroke="#555555" points="335.28,-203.83 330.32,-194.47 328.36,-204.88 335.28,-203.83"/>
</g>
<!-- talk_p_proc -->
<g id="node4" class="node">
<title>talk_p_proc</title>
<ellipse fill="#ffffff" stroke="#000000" cx="514.77" cy="-175.24" rx="141.24" ry="103.24"/>
<text text-anchor="middle" x="514.77" y="-230.94" font-family="Times,serif" font-size="14.00">We do the work of the</text>
<text text-anchor="middle" x="514.77" y="-213.69" font-family="Times,serif" font-size="14.00">Master, and we cannot be</text>
<text text-anchor="middle" x="514.77" y="-196.44" font-family="Times,serif" font-size="14.00">interrupted!</text>
<text text-anchor="middle" x="514.77" y="-179.19" font-family="Times,serif" font-size="14.00">&#45;&#45;&#45;</text>
<text text-anchor="middle" x="514.77" y="-161.94" font-family="Times,serif" font-size="14.00">We do the work of the</text>
<text text-anchor="middle" x="514.77" y="-144.69" font-family="Times,serif" font-size="14.00">Master.</text>
<text text-anchor="middle" x="514.77" y="-127.44" font-family="Times,serif" font-size="14.00">&#45;&#45;&#45;</text>
<text text-anchor="middle" x="514.77" y="-110.19" font-family="Times,serif" font-size="14.00">Master! An intruder!</text>
</g>
<!-- start&#45;&gt;talk_p_proc -->
<g id="edge3" class="edge">
<title>start&#45;&gt;talk_p_proc</title>
<path fill="none" stroke="#555555" stroke-dasharray="1,5" d="M514.77,-314.27C514.77,-307.44 514.77,-298.99 514.77,-289.65"/>
<polygon fill="#555555" stroke="#555555" points="518.28,-289.76 514.77,-279.76 511.28,-289.76 518.28,-289.76"/>
</g>
<!-- critter_p_proc -->
<g id="node5" class="node">
<title>critter_p_proc</title>
<ellipse fill="#ffffff" stroke="#000000" cx="700.77" cy="-175.24" rx="27" ry="18"/>
</g>
<!-- start&#45;&gt;critter_p_proc -->
<g id="edge4" class="edge">
<title>start&#45;&gt;critter_p_proc</title>
<path fill="none" stroke="#555555" stroke-dasharray="1,5" d="M535.89,-320.92C540.72,-318.67 545.88,-316.39 550.77,-314.48 600.24,-295.09 626.6,-315.43 664.77,-278.48 685.02,-258.88 693.9,-227.24 697.78,-204.34"/>
<polygon fill="#555555" stroke="#555555" points="701.37,-204.99 699.35,-194.59 694.44,-203.98 701.37,-204.99"/>
</g>
<!-- destroy_p_proc -->
<g id="node6" class="node">
<title>destroy_p_proc</title>
<ellipse fill="#ffffff" stroke="#000000" cx="772.77" cy="-175.24" rx="27" ry="18"/>
</g>
<!-- start&#45;&gt;destroy_p_proc -->
<g id="edge5" class="edge">
<title>start&#45;&gt;destroy_p_proc</title>
<path fill="none" stroke="#555555" stroke-dasharray="1,5" d="M535.74,-320.5C540.58,-318.27 545.78,-316.11 550.77,-314.48 630.8,-288.29 673.01,-333.47 736.77,-278.48 758.33,-259.89 766.98,-227.57 770.45,-204.24"/>
<polygon fill="#555555" stroke="#555555" points="774.01,-204.97 771.77,-194.61 767.07,-204.1 774.01,-204.97"/>
</g>
<!-- combat -->
<g id="node7" class="node">
<title>combat</title>
<ellipse fill="#ffffff" stroke="#000000" cx="514.77" cy="-18" rx="27" ry="18"/>
</g>
<!-- talk_p_proc&#45;&gt;combat -->
<g id="edge6" class="edge">
<title>talk_p_proc&#45;&gt;combat</title>
<path fill="none" stroke="#555555" stroke-dasharray="1,5" d="M514.77,-71.56C514.77,-62.78 514.77,-54.49 514.77,-47.19"/>
<polygon fill="#555555" stroke="#555555" points="518.28,-47.28 514.77,-37.28 511.28,-47.28 518.28,-47.28"/>
</g>
<!-- dialog_end -->
<g id="node8" class="node">
<title>dialog_end</title>
<ellipse fill="#ffffff" stroke="#000000" cx="586.77" cy="-332.48" rx="27" ry="18"/>
</g>
<!-- gotonull -->
<g id="node9" class="node">
<title>gotonull</title>
<ellipse fill="#ffffff" stroke="#000000" cx="658.77" cy="-332.48" rx="27" ry="18"/>
</g>
</g>
</svg>
