<?xml version="1.0" encoding="UTF-8" standalone="no"?>
<!DOCTYPE svg PUBLIC "-//W3C//DTD SVG 1.1//EN"
 "http://www.w3.org/Graphics/SVG/1.1/DTD/svg11.dtd">
<!-- Generated by graphviz version 8.0.5 (0)
 -->
<!-- Title: MLPRISON Pages: 1 -->
<svg width="2542pt" height="630pt"
 viewBox="0.00 0.00 2541.99 630.12" xmlns="http://www.w3.org/2000/svg" xmlns:xlink="http://www.w3.org/1999/xlink">
<g id="graph0" class="graph" transform="scale(1 1) rotate(0) translate(4 626.12)">
<title>MLPRISON</title>
<polygon fill="white" stroke="none" points="-4,4 -4,-626.12 2537.99,-626.12 2537.99,4 -4,4"/>
<!-- start -->
<g id="node1" class="node">
<title>start</title>
<ellipse fill="#ffffff" stroke="#000000" cx="1697.12" cy="-604.12" rx="27" ry="18"/>
</g>
<!-- look_at_p_proc -->
<g id="node2" class="node">
<title>look_at_p_proc</title>
<ellipse fill="#ffffff" stroke="#000000" cx="1553.12" cy="-531.12" rx="27" ry="18"/>
</g>
<!-- start&#45;&gt;look_at_p_proc -->
<g id="edge1" class="edge">
<title>start&#45;&gt;look_at_p_proc</title>
<path fill="none" stroke="#555555" stroke-dasharray="1,5" d="M1675.88,-592.64C1651.63,-580.69 1611.75,-561.03 1584.06,-547.37"/>
<polygon fill="#555555" stroke="#555555" points="1585.97,-543.92 1575.46,-542.64 1582.88,-550.2 1585.97,-543.92"/>
</g>
<!-- pickup_p_proc -->
<g id="node3" class="node">
<title>pickup_p_proc</title>
<ellipse fill="#ffffff" stroke="#000000" cx="1625.12" cy="-531.12" rx="27" ry="18"/>
</g>
<!-- start&#45;&gt;pickup_p_proc -->
<g id="edge2" class="edge">
<title>start&#45;&gt;pickup_p_proc</title>
<path fill="none" stroke="#555555" stroke-dasharray="1,5" d="M1682.55,-588.75C1672.47,-578.81 1658.86,-565.39 1647.42,-554.11"/>
<polygon fill="#555555" stroke="#555555" points="1650.5,-552.24 1640.92,-547.71 1645.58,-557.22 1650.5,-552.24"/>
</g>
<!-- talk_p_proc -->
<g id="node4" class="node">
<title>talk_p_proc</title>
<ellipse fill="#ffffff" stroke="#000000" cx="1697.12" cy="-531.12" rx="27" ry="18"/>
</g>
<!-- start&#45;&gt;talk_p_proc -->
<g id="edge3" class="edge">
<title>start&#45;&gt;talk_p_proc</title>
<path fill="none" stroke="#555555" stroke-dasharray="1,5" d="M1697.12,-585.93C1697.12,-578.17 1697.12,-568.8 1697.12,-560.07"/>
<polygon fill="#555555" stroke="#555555" points="1700.62,-560.15 1697.12,-550.15 1693.62,-560.15 1700.62,-560.15"/>
</g>
<!-- critter_p_proc -->
<g id="node5" class="node">
<title>critter_p_proc</title>
<ellipse fill="#ffffff" stroke="#000000" cx="2004.12" cy="-531.12" rx="27" ry="18"/>
</g>
<!-- start&#45;&gt;critter_p_proc -->
<g id="edge4" class="edge">
<title>start&#45;&gt;critter_p_proc</title>
<path fill="none" stroke="#555555" stroke-dasharray="1,5" d="M1722.51,-597.25C1776.99,-584.65 1905.26,-554.98 1968.12,-540.45"/>
<polygon fill="#555555" stroke="#555555" points="1968.76,-543.66 1977.71,-538 1967.18,-536.84 1968.76,-543.66"/>
</g>
<!-- destroy_p_proc -->
<g id="node6" class="node">
<title>destroy_p_proc</title>
<ellipse fill="#ffffff" stroke="#000000" cx="2076.12" cy="-531.12" rx="27" ry="18"/>
</g>
<!-- start&#45;&gt;destroy_p_proc -->
<g id="edge5" class="edge">
<title>start&#45;&gt;destroy_p_proc</title>
<path fill="none" stroke="#555555" stroke-dasharray="1,5" d="M1723.95,-601.5C1782.53,-597.4 1925.76,-584.33 2040.12,-549.12 2041.89,-548.57 2043.69,-547.96 2045.48,-547.29"/>
<polygon fill="#555555" stroke="#555555" points="2046.72,-550.14 2054.59,-543.05 2044.01,-543.69 2046.72,-550.14"/>
</g>
<!-- get_reaction -->
<g id="node10" class="node">
<title>get_reaction</title>
<ellipse fill="#ffffff" stroke="#000000" cx="2023.12" cy="-397.28" rx="27" ry="18"/>
</g>
<!-- talk_p_proc&#45;&gt;get_reaction -->
<g id="edge8" class="edge">
<title>talk_p_proc&#45;&gt;get_reaction</title>
<path fill="none" stroke="#555555" stroke-dasharray="1,5" d="M1723.99,-528.24C1787.78,-523.29 1946.09,-508.03 1987.12,-476.12 2002.94,-463.82 2012.07,-442.95 2017.18,-425.92"/>
<polygon fill="#555555" stroke="#555555" points="2020.79,-426.97 2019.99,-416.4 2014.03,-425.16 2020.79,-426.97"/>
</g>
<!-- goto05 -->
<g id="node11" class="node">
<title>goto05</title>
<ellipse fill="#ffffff" stroke="#000000" cx="465.12" cy="-397.28" rx="125.33" ry="42.25"/>
<text text-anchor="middle" x="465.12" y="-409.85" font-family="Times,serif" font-size="14.00">I refuse to tell you any</text>
<text text-anchor="middle" x="465.12" y="-392.6" font-family="Times,serif" font-size="14.00">information. Leave me</text>
<text text-anchor="middle" x="465.12" y="-375.35" font-family="Times,serif" font-size="14.00">alone.</text>
</g>
<!-- talk_p_proc&#45;&gt;goto05 -->
<g id="edge9" class="edge">
<title>talk_p_proc&#45;&gt;goto05</title>
<path fill="none" stroke="#555555" stroke-dasharray="1,5" d="M1676.71,-518.76C1671.75,-516.48 1666.36,-514.4 1661.12,-513.12 1461.76,-464.2 940.81,-508.6 738.12,-476.12 678.24,-466.52 612.86,-448.17 561.09,-431.69"/>
<polygon fill="#555555" stroke="#555555" points="562.52,-428.15 551.92,-428.42 560.37,-434.82 562.52,-428.15"/>
</g>
<!-- goto01 -->
<g id="node12" class="node">
<title>goto01</title>
<ellipse fill="#ffffff" stroke="#000000" cx="1276.12" cy="-397.28" rx="129.58" ry="30.05"/>
<text text-anchor="middle" x="1276.12" y="-401.23" font-family="Times,serif" font-size="14.00">Your kind is repugnant.</text>
<text text-anchor="middle" x="1276.12" y="-383.98" font-family="Times,serif" font-size="14.00">Do not speak to me.</text>
</g>
<!-- talk_p_proc&#45;&gt;goto01 -->
<g id="edge10" class="edge">
<title>talk_p_proc&#45;&gt;goto01</title>
<path fill="none" stroke="#555555" stroke-dasharray="1,5" d="M1676.03,-519.51C1671.2,-517.26 1666.03,-515 1661.12,-513.12 1607.6,-492.63 1464.13,-451.12 1368.26,-424.02"/>
<polygon fill="#555555" stroke="#555555" points="1369.26,-420.39 1358.69,-421.04 1367.36,-427.12 1369.26,-420.39"/>
</g>
<!-- goto09 -->
<g id="node13" class="node">
<title>goto09</title>
<ellipse fill="#ffffff" stroke="#000000" cx="1697.12" cy="-397.28" rx="133.29" ry="78.84"/>
<text text-anchor="middle" x="1697.12" y="-435.73" font-family="Times,serif" font-size="14.00">I won&#39;t spill the beans</text>
<text text-anchor="middle" x="1697.12" y="-418.48" font-family="Times,serif" font-size="14.00">about my people. You</text>
<text text-anchor="middle" x="1697.12" y="-401.23" font-family="Times,serif" font-size="14.00">cannot force a man to</text>
<text text-anchor="middle" x="1697.12" y="-383.98" font-family="Times,serif" font-size="14.00">betray himself, you can</text>
<text text-anchor="middle" x="1697.12" y="-366.73" font-family="Times,serif" font-size="14.00">only force a man to stop</text>
<text text-anchor="middle" x="1697.12" y="-349.48" font-family="Times,serif" font-size="14.00">living.</text>
</g>
<!-- talk_p_proc&#45;&gt;goto09 -->
<g id="edge11" class="edge">
<title>talk_p_proc&#45;&gt;goto09</title>
<path fill="none" stroke="#555555" stroke-dasharray="1,5" d="M1697.12,-512.88C1697.12,-505.71 1697.12,-496.79 1697.12,-487.12"/>
<polygon fill="#555555" stroke="#555555" points="1700.62,-487.39 1697.12,-477.39 1693.62,-487.39 1700.62,-487.39"/>
</g>
<!-- goto07 -->
<g id="node14" class="node">
<title>goto07</title>
<ellipse fill="#ffffff" stroke="#000000" cx="878.12" cy="-397.28" rx="130.64" ry="42.25"/>
<text text-anchor="middle" x="878.12" y="-409.85" font-family="Times,serif" font-size="14.00">What? No cowl to hind</text>
<text text-anchor="middle" x="878.12" y="-392.6" font-family="Times,serif" font-size="14.00">behind? Your traitorous</text>
<text text-anchor="middle" x="878.12" y="-375.35" font-family="Times,serif" font-size="14.00">nature is self&#45;evident.</text>
</g>
<!-- talk_p_proc&#45;&gt;goto07 -->
<g id="edge12" class="edge">
<title>talk_p_proc&#45;&gt;goto07</title>
<path fill="none" stroke="#555555" stroke-dasharray="1,5" d="M1676.68,-518.87C1671.72,-516.6 1666.34,-514.48 1661.12,-513.12 1435.25,-454.04 1366.77,-518.2 1137.12,-476.12 1082.37,-466.09 1022.79,-448.65 974.59,-432.82"/>
<polygon fill="#555555" stroke="#555555" points="975.76,-429.19 965.17,-429.37 973.56,-435.84 975.76,-429.19"/>
</g>
<!-- explode -->
<g id="node8" class="node">
<title>explode</title>
<ellipse fill="#ffffff" stroke="#000000" cx="2239.12" cy="-397.28" rx="27" ry="18"/>
</g>
<!-- critter_p_proc&#45;&gt;explode -->
<g id="edge6" class="edge">
<title>critter_p_proc&#45;&gt;explode</title>
<path fill="none" stroke="#555555" stroke-dasharray="1,5" d="M2025.12,-519.27C2029.97,-517.03 2035.16,-514.83 2040.12,-513.12 2110.35,-488.89 2145.38,-522.85 2203.12,-476.12 2218.6,-463.59 2227.73,-442.92 2232.92,-426.02"/>
<polygon fill="#555555" stroke="#555555" points="2236.51,-427.16 2235.79,-416.59 2229.76,-425.3 2236.51,-427.16"/>
</g>
<!-- escape -->
<g id="node9" class="node">
<title>escape</title>
<ellipse fill="#ffffff" stroke="#000000" cx="2409.12" cy="-397.28" rx="124.86" ry="18"/>
<text text-anchor="middle" x="2409.12" y="-392.6" font-family="Times,serif" font-size="14.00">We&#39;re free! We&#39;re free!</text>
</g>
<!-- critter_p_proc&#45;&gt;escape -->
<g id="edge7" class="edge">
<title>critter_p_proc&#45;&gt;escape</title>
<path fill="none" stroke="#555555" stroke-dasharray="1,5" d="M2024.62,-519.06C2029.58,-516.78 2034.94,-514.62 2040.12,-513.12 2141.69,-483.75 2176.53,-514.3 2275.12,-476.12 2311.55,-462.02 2349.75,-438.88 2376,-421.48"/>
<polygon fill="#555555" stroke="#555555" points="2377.76,-423.85 2384.11,-415.36 2373.86,-418.04 2377.76,-423.85"/>
</g>
<!-- combat -->
<g id="node7" class="node">
<title>combat</title>
<ellipse fill="#ffffff" stroke="#000000" cx="2017.12" cy="-604.12" rx="27" ry="18"/>
</g>
<!-- ReactToLevel -->
<g id="node23" class="node">
<title>ReactToLevel</title>
<ellipse fill="#ffffff" stroke="#000000" cx="2095.12" cy="-151.84" rx="27" ry="18"/>
</g>
<!-- get_reaction&#45;&gt;ReactToLevel -->
<g id="edge31" class="edge">
<title>get_reaction&#45;&gt;ReactToLevel</title>
<path fill="none" stroke="#555555" stroke-dasharray="1,5" d="M2028.19,-379.16C2040.48,-337.61 2071.98,-231.1 2086.96,-180.43"/>
<polygon fill="#555555" stroke="#555555" points="2090.59,-181.52 2090.07,-170.94 2083.87,-179.54 2090.59,-181.52"/>
</g>
<!-- goto02 -->
<g id="node15" class="node">
<title>goto02</title>
<ellipse fill="#ffffff" stroke="#000000" cx="878.12" cy="-151.84" rx="95.4" ry="18"/>
<text text-anchor="middle" x="878.12" y="-147.17" font-family="Times,serif" font-size="14.00">Do not mock me.</text>
</g>
<!-- goto05&#45;&gt;goto02 -->
<g id="edge19" class="edge">
<title>goto05&#45;&gt;goto02</title>
<path fill="none" stroke="#99007f" d="M500.68,-356.53C534.09,-321.96 587.32,-273.61 644.12,-248.68 697.53,-225.24 720.18,-252.86 774.12,-230.68 804.24,-218.3 833.46,-195.13 853.22,-177.27"/>
<polygon fill="#99007f" stroke="#99007f" points="855.13,-180.36 860.09,-170.99 850.37,-175.22 855.13,-180.36"/>
<text text-anchor="middle" x="665.12" y="-269.88" font-family="Times,serif" font-size="14.00" fill="#99007f">Hng!!</text>
</g>
<!-- dialog_end -->
<g id="node18" class="node">
<title>dialog_end</title>
<ellipse fill="#ffffff" stroke="#000000" cx="1126.12" cy="-18" rx="27" ry="18"/>
</g>
<!-- goto05&#45;&gt;dialog_end -->
<g id="edge21" class="edge">
<title>goto05&#45;&gt;dialog_end</title>
<path fill="none" stroke="#995900" d="M425.06,-356.79C362.51,-290.48 256.45,-155.89 333.87,-73 385.8,-17.41 937.15,-17.54 1088.1,-18.63"/>
<polygon fill="#995900" stroke="#995900" points="1087.64,-22.13 1097.67,-18.71 1087.7,-15.13 1087.64,-22.13"/>
<text text-anchor="middle" x="416.25" y="-155.79" font-family="Times,serif" font-size="14.00" fill="#995900">If you want it that way.</text>
<text text-anchor="middle" x="416.25" y="-138.54" font-family="Times,serif" font-size="14.00" fill="#995900">Sure. Goodbye.</text>
</g>
<!-- goto06 -->
<g id="node19" class="node">
<title>goto06</title>
<ellipse fill="#ffffff" stroke="#000000" cx="139.12" cy="-151.84" rx="139.12" ry="78.84"/>
<text text-anchor="middle" x="139.12" y="-190.29" font-family="Times,serif" font-size="14.00">Don&#39;t you remember that</text>
<text text-anchor="middle" x="139.12" y="-173.04" font-family="Times,serif" font-size="14.00">you tried that trick last</text>
<text text-anchor="middle" x="139.12" y="-155.79" font-family="Times,serif" font-size="14.00">week? I didn&#39;t</text>
<text text-anchor="middle" x="139.12" y="-138.54" font-family="Times,serif" font-size="14.00">fall for it then, and</text>
<text text-anchor="middle" x="139.12" y="-121.29" font-family="Times,serif" font-size="14.00">I&#39;m not going to start</text>
<text text-anchor="middle" x="139.12" y="-104.04" font-family="Times,serif" font-size="14.00">now.</text>
</g>
<!-- goto05&#45;&gt;goto06 -->
<g id="edge20" class="edge">
<title>goto05&#45;&gt;goto06</title>
<path fill="none" stroke="#009986" d="M351.84,-378.88C265.19,-362.99 156.07,-336.47 128.87,-300.43 116.03,-283.42 112.59,-261.93 113.81,-240.65"/>
<polygon fill="#009986" stroke="#009986" points="117.37,-241.19 114.8,-230.91 110.4,-240.55 117.37,-241.19"/>
<text text-anchor="middle" x="220.25" y="-278.51" font-family="Times,serif" font-size="14.00" fill="#009986">I&#39;m really here to free</text>
<text text-anchor="middle" x="220.25" y="-261.26" font-family="Times,serif" font-size="14.00" fill="#009986">you. I&#39;m a normal human.</text>
</g>
<!-- goto01&#45;&gt;goto02 -->
<g id="edge13" class="edge">
<title>goto01&#45;&gt;goto02</title>
<path fill="none" stroke="#990700" d="M1219.5,-370C1181.25,-351.68 1129.97,-326.04 1086.37,-300.43 1038.62,-272.4 1028.32,-262.68 983.12,-230.68 957.96,-212.87 929.92,-192.03 909.15,-176.4"/>
<polygon fill="#990700" stroke="#990700" points="911.54,-173.06 901.45,-169.83 907.32,-178.65 911.54,-173.06"/>
<text text-anchor="middle" x="1107" y="-269.88" font-family="Times,serif" font-size="14.00" fill="#990700">Quib!</text>
</g>
<!-- goto03 -->
<g id="node16" class="node">
<title>goto03</title>
<ellipse fill="#ffffff" stroke="#000000" cx="1415.12" cy="-151.84" rx="137" ry="42.25"/>
<text text-anchor="middle" x="1415.12" y="-164.42" font-family="Times,serif" font-size="14.00">I have no rights, and I</text>
<text text-anchor="middle" x="1415.12" y="-147.17" font-family="Times,serif" font-size="14.00">could care less. Go away,</text>
<text text-anchor="middle" x="1415.12" y="-129.92" font-family="Times,serif" font-size="14.00">and leave us alone.</text>
</g>
<!-- goto01&#45;&gt;goto03 -->
<g id="edge14" class="edge">
<title>goto01&#45;&gt;goto03</title>
<path fill="none" stroke="#002699" d="M1294.62,-367.17C1306.47,-348.3 1322.02,-323.1 1335.12,-300.43 1353.61,-268.47 1373.39,-232 1388.65,-203.31"/>
<polygon fill="#002699" stroke="#002699" points="1392.05,-205.37 1393.65,-194.9 1385.87,-202.09 1392.05,-205.37"/>
<text text-anchor="middle" x="1449.75" y="-278.51" font-family="Times,serif" font-size="14.00" fill="#002699">You don&#39;t have the right</text>
<text text-anchor="middle" x="1449.75" y="-261.26" font-family="Times,serif" font-size="14.00" fill="#002699">to speak to me like that.</text>
</g>
<!-- goto04 -->
<g id="node17" class="node">
<title>goto04</title>
<ellipse fill="#ffffff" stroke="#000000" cx="1126.12" cy="-151.84" rx="134.35" ry="42.25"/>
<text text-anchor="middle" x="1126.12" y="-164.42" font-family="Times,serif" font-size="14.00">Right, I could guess</text>
<text text-anchor="middle" x="1126.12" y="-147.17" font-family="Times,serif" font-size="14.00">that. Go away, and leave</text>
<text text-anchor="middle" x="1126.12" y="-129.92" font-family="Times,serif" font-size="14.00">us alone.</text>
</g>
<!-- goto01&#45;&gt;goto04 -->
<g id="edge15" class="edge">
<title>goto01&#45;&gt;goto04</title>
<path fill="none" stroke="#539900" d="M1222.5,-369.6C1195.56,-353.35 1164.98,-330.01 1147.37,-300.43 1130.39,-271.91 1125.09,-234.92 1124.03,-205.11"/>
<polygon fill="#539900" stroke="#539900" points="1127.52,-205.41 1123.82,-195.48 1120.52,-205.55 1127.52,-205.41"/>
<text text-anchor="middle" x="1240" y="-278.51" font-family="Times,serif" font-size="14.00" fill="#539900">You don&#39;t understand. I&#39;m</text>
<text text-anchor="middle" x="1240" y="-261.26" font-family="Times,serif" font-size="14.00" fill="#539900">here to free you.</text>
</g>
<!-- goto09&#45;&gt;goto02 -->
<g id="edge26" class="edge">
<title>goto09&#45;&gt;goto02</title>
<path fill="none" stroke="#99002d" d="M1641.8,-325.13C1614.64,-295.82 1579.34,-264.96 1540.12,-248.68 1425.74,-201.21 1100.08,-271.42 983.12,-230.68 951.81,-219.78 922.03,-195.96 902.24,-177.53"/>
<polygon fill="#99002d" stroke="#99002d" points="905.04,-175.4 895.4,-171.01 900.19,-180.45 905.04,-175.4"/>
<text text-anchor="middle" x="1634.12" y="-269.88" font-family="Times,serif" font-size="14.00" fill="#99002d">Hng!!</text>
</g>
<!-- goto09&#45;&gt;dialog_end -->
<g id="edge28" class="edge">
<title>goto09&#45;&gt;dialog_end</title>
<path fill="none" stroke="#869900" d="M1795.49,-343.71C1834.64,-322.56 1870.84,-302.6 1872.12,-300.43 1886.51,-276.15 1898.59,-112.45 1859.12,-73 1809.7,-23.59 1308.1,-19.2 1164.4,-18.96"/>
<polygon fill="#869900" stroke="#869900" points="1164.54,-15.46 1154.53,-18.95 1164.53,-22.46 1164.54,-15.46"/>
<text text-anchor="middle" x="1967.87" y="-173.04" font-family="Times,serif" font-size="14.00" fill="#869900">I don&#39;t even have to</text>
<text text-anchor="middle" x="1967.87" y="-155.79" font-family="Times,serif" font-size="14.00" fill="#869900">force you to rot in hell.</text>
<text text-anchor="middle" x="1967.87" y="-138.54" font-family="Times,serif" font-size="14.00" fill="#869900">You&#39;re doing a fine</text>
<text text-anchor="middle" x="1967.87" y="-121.29" font-family="Times,serif" font-size="14.00" fill="#869900"> job on your own.</text>
</g>
<!-- goto11 -->
<g id="node21" class="node">
<title>goto11</title>
<ellipse fill="#ffffff" stroke="#000000" cx="1710.12" cy="-151.84" rx="140.18" ry="42.25"/>
<text text-anchor="middle" x="1710.12" y="-164.42" font-family="Times,serif" font-size="14.00">From the mouth of a man</text>
<text text-anchor="middle" x="1710.12" y="-147.17" font-family="Times,serif" font-size="14.00">comes the serpent&#39;s</text>
<text text-anchor="middle" x="1710.12" y="-129.92" font-family="Times,serif" font-size="14.00">words.</text>
</g>
<!-- goto09&#45;&gt;goto11 -->
<g id="edge27" class="edge">
<title>goto09&#45;&gt;goto11</title>
<path fill="none" stroke="#005999" d="M1695.94,-318.09C1696.06,-295.66 1696.64,-271.19 1698.12,-248.68 1699.06,-234.42 1700.71,-219.02 1702.48,-204.83"/>
<polygon fill="#005999" stroke="#005999" points="1706.04,-205.62 1703.86,-195.26 1699.1,-204.72 1706.04,-205.62"/>
<text text-anchor="middle" x="1785.12" y="-287.13" font-family="Times,serif" font-size="14.00" fill="#005999">You really don&#39;t get it.</text>
<text text-anchor="middle" x="1785.12" y="-269.88" font-family="Times,serif" font-size="14.00" fill="#005999">I&#39;m a human being, here</text>
<text text-anchor="middle" x="1785.12" y="-252.63" font-family="Times,serif" font-size="14.00" fill="#005999">to rescue here.</text>
</g>
<!-- goto07&#45;&gt;goto02 -->
<g id="edge23" class="edge">
<title>goto07&#45;&gt;goto02</title>
<path fill="none" stroke="#2d0099" d="M878.12,-354.71C878.12,-305.18 878.12,-223.78 878.12,-181.05"/>
<polygon fill="#2d0099" stroke="#2d0099" points="881.62,-181.08 878.12,-171.08 874.62,-181.08 881.62,-181.08"/>
<text text-anchor="middle" x="899.12" y="-269.88" font-family="Times,serif" font-size="14.00" fill="#2d0099">Hng!!</text>
</g>
<!-- goto08 -->
<g id="node20" class="node">
<title>goto08</title>
<ellipse fill="#ffffff" stroke="#000000" cx="636.12" cy="-151.84" rx="128.52" ry="30.05"/>
<text text-anchor="middle" x="636.12" y="-155.79" font-family="Times,serif" font-size="14.00">You are cruel. Leave us</text>
<text text-anchor="middle" x="636.12" y="-138.54" font-family="Times,serif" font-size="14.00">alone.</text>
</g>
<!-- goto07&#45;&gt;goto08 -->
<g id="edge24" class="edge">
<title>goto07&#45;&gt;goto08</title>
<path fill="none" stroke="#009900" d="M809.48,-360.94C782.31,-344.86 752.05,-324.1 728.62,-300.43 696.81,-268.3 670.6,-223.35 654.31,-191.52"/>
<polygon fill="#009900" stroke="#009900" points="657.19,-190.46 649.57,-183.09 650.93,-193.6 657.19,-190.46"/>
<text text-anchor="middle" x="801.87" y="-269.88" font-family="Times,serif" font-size="14.00" fill="#009900">I&#39;m here to free you.</text>
</g>
<!-- goto02&#45;&gt;dialog_end -->
<g id="edge16" class="edge">
<title>goto02&#45;&gt;dialog_end</title>
<path fill="none" stroke="#555555" stroke-dasharray="1,5" d="M897.52,-133.87C917.79,-116.78 951.05,-90.5 983.12,-73 1018.19,-53.87 1061.45,-38.57 1091.15,-29.2"/>
<polygon fill="#555555" stroke="#555555" points="1091.92,-32.32 1100.44,-26.03 1089.85,-25.63 1091.92,-32.32"/>
</g>
<!-- goto03&#45;&gt;dialog_end -->
<g id="edge17" class="edge">
<title>goto03&#45;&gt;dialog_end</title>
<path fill="none" stroke="#555555" stroke-dasharray="1,5" d="M1350.61,-114.14C1325.53,-100.49 1296.33,-85.33 1269.12,-73 1232.63,-56.47 1189.45,-40.65 1160.16,-30.46"/>
<polygon fill="#555555" stroke="#555555" points="1161.63,-26.92 1151.04,-26.97 1159.35,-33.54 1161.63,-26.92"/>
</g>
<!-- goto04&#45;&gt;dialog_end -->
<g id="edge18" class="edge">
<title>goto04&#45;&gt;dialog_end</title>
<path fill="none" stroke="#555555" stroke-dasharray="1,5" d="M1126.12,-109.13C1126.12,-88.95 1126.12,-65.27 1126.12,-47.24"/>
<polygon fill="#555555" stroke="#555555" points="1129.62,-47.3 1126.12,-37.3 1122.62,-47.3 1129.62,-47.3"/>
</g>
<!-- goto06&#45;&gt;dialog_end -->
<g id="edge22" class="edge">
<title>goto06&#45;&gt;dialog_end</title>
<path fill="none" stroke="#555555" stroke-dasharray="1,5" d="M227.55,-90.64C253.4,-75.98 282.45,-62.18 311.12,-54 386.2,-32.59 936.61,-22.09 1087.79,-19.6"/>
<polygon fill="#555555" stroke="#555555" points="1087.84,-23.08 1097.78,-19.42 1087.73,-16.08 1087.84,-23.08"/>
</g>
<!-- goto08&#45;&gt;dialog_end -->
<g id="edge25" class="edge">
<title>goto08&#45;&gt;dialog_end</title>
<path fill="none" stroke="#555555" stroke-dasharray="1,5" d="M676.54,-122.86C703.11,-105.81 739.29,-85.05 774.12,-73 884.04,-34.99 1022.49,-23.68 1088.18,-20.36"/>
<polygon fill="#555555" stroke="#555555" points="1088.01,-23.82 1097.84,-19.86 1087.68,-16.83 1088.01,-23.82"/>
</g>
<!-- goto11&#45;&gt;dialog_end -->
<g id="edge30" class="edge">
<title>goto11&#45;&gt;dialog_end</title>
<path fill="none" stroke="#555555" stroke-dasharray="1,5" d="M1650.27,-113.3C1623.88,-98.42 1591.91,-82.61 1561.12,-73 1419.35,-28.76 1240.94,-20.59 1164.14,-19.2"/>
<polygon fill="#555555" stroke="#555555" points="1164.61,-15.7 1154.56,-19.05 1164.51,-22.7 1164.61,-15.7"/>
</g>
<!-- goto10 -->
<g id="node22" class="node">
<title>goto10</title>
<ellipse fill="#ffffff" stroke="#000000" cx="2271.12" cy="-151.84" rx="131.18" ry="18"/>
<text text-anchor="middle" x="2271.12" y="-147.17" font-family="Times,serif" font-size="14.00">You&#39;re still mocking me.</text>
</g>
<!-- goto10&#45;&gt;dialog_end -->
<g id="edge29" class="edge">
<title>goto10&#45;&gt;dialog_end</title>
<path fill="none" stroke="#555555" stroke-dasharray="1,5" d="M2247.76,-133.72C2221.05,-115.16 2175.3,-86.41 2131.12,-73 1945.19,-16.55 1323.75,-17.43 1163.88,-18.63"/>
<polygon fill="#555555" stroke="#555555" points="1164.15,-15.14 1154.18,-18.72 1164.21,-22.14 1164.15,-15.14"/>
</g>
<!-- LevelToReact -->
<g id="node24" class="node">
<title>LevelToReact</title>
<ellipse fill="#ffffff" stroke="#000000" cx="2161.12" cy="-531.12" rx="27" ry="18"/>
</g>
<!-- UpReact -->
<g id="node25" class="node">
<title>UpReact</title>
<ellipse fill="#ffffff" stroke="#000000" cx="1879.12" cy="-397.28" rx="27" ry="18"/>
</g>
<!-- UpReact&#45;&gt;ReactToLevel -->
<g id="edge32" class="edge">
<title>UpReact&#45;&gt;ReactToLevel</title>
<path fill="none" stroke="#555555" stroke-dasharray="1,5" d="M1884.57,-379.36C1890.43,-362.78 1900.86,-337.33 1915.12,-318.43 1943.74,-280.52 1954.62,-271.81 1996.12,-248.68 2019.33,-235.75 2032.65,-247.61 2053.12,-230.68 2068.95,-217.6 2079.7,-196.95 2086.36,-180.2"/>
<polygon fill="#555555" stroke="#555555" points="2089.99,-181.48 2090.16,-170.88 2083.42,-179.06 2089.99,-181.48"/>
</g>
<!-- DownReact -->
<g id="node26" class="node">
<title>DownReact</title>
<ellipse fill="#ffffff" stroke="#000000" cx="1951.12" cy="-397.28" rx="27" ry="18"/>
</g>
<!-- DownReact&#45;&gt;ReactToLevel -->
<g id="edge33" class="edge">
<title>DownReact&#45;&gt;ReactToLevel</title>
<path fill="none" stroke="#555555" stroke-dasharray="1,5" d="M1957.73,-379.36C1964.3,-363.23 1975.12,-338.5 1987.12,-318.43 2012.17,-276.55 2026.8,-271.77 2053.12,-230.68 2063.86,-213.93 2074.49,-194.18 2082.37,-178.78"/>
<polygon fill="#555555" stroke="#555555" points="2085.75,-180.85 2087.13,-170.35 2079.5,-177.7 2085.75,-180.85"/>
</g>
<!-- BottomReact -->
<g id="node27" class="node">
<title>BottomReact</title>
<ellipse fill="#ffffff" stroke="#000000" cx="2245.12" cy="-604.12" rx="27" ry="18"/>
</g>
<!-- TopReact -->
<g id="node28" class="node">
<title>TopReact</title>
<ellipse fill="#ffffff" stroke="#000000" cx="2317.12" cy="-604.12" rx="27" ry="18"/>
</g>
<!-- BigUpReact -->
<g id="node29" class="node">
<title>BigUpReact</title>
<ellipse fill="#ffffff" stroke="#000000" cx="2095.12" cy="-397.28" rx="27" ry="18"/>
</g>
<!-- BigUpReact&#45;&gt;ReactToLevel -->
<g id="edge34" class="edge">
<title>BigUpReact&#45;&gt;ReactToLevel</title>
<path fill="none" stroke="#555555" stroke-dasharray="1,5" d="M2095.12,-379.16C2095.12,-337.79 2095.12,-232.06 2095.12,-181.12"/>
<polygon fill="#555555" stroke="#555555" points="2098.62,-181.27 2095.12,-171.27 2091.62,-181.27 2098.62,-181.27"/>
</g>
<!-- BigDownReact -->
<g id="node30" class="node">
<title>BigDownReact</title>
<ellipse fill="#ffffff" stroke="#000000" cx="2167.12" cy="-397.28" rx="27" ry="18"/>
</g>
<!-- BigDownReact&#45;&gt;ReactToLevel -->
<g id="edge35" class="edge">
<title>BigDownReact&#45;&gt;ReactToLevel</title>
<path fill="none" stroke="#555555" stroke-dasharray="1,5" d="M2162.06,-379.16C2149.77,-337.61 2118.27,-231.1 2103.28,-180.43"/>
<polygon fill="#555555" stroke="#555555" points="2106.37,-179.54 2100.18,-170.94 2099.66,-181.52 2106.37,-179.54"/>
</g>
<!-- UpReactLevel -->
<g id="node31" class="node">
<title>UpReactLevel</title>
<ellipse fill="#ffffff" stroke="#000000" cx="2101.12" cy="-604.12" rx="27" ry="18"/>
</g>
<!-- UpReactLevel&#45;&gt;LevelToReact -->
<g id="edge36" class="edge">
<title>UpReactLevel&#45;&gt;LevelToReact</title>
<path fill="none" stroke="#555555" stroke-dasharray="1,5" d="M2113.85,-588.06C2121.88,-578.55 2132.42,-566.08 2141.51,-555.32"/>
<polygon fill="#555555" stroke="#555555" points="2144.64,-558.05 2148.42,-548.16 2139.29,-553.53 2144.64,-558.05"/>
</g>
<!-- DownReactLevel -->
<g id="node32" class="node">
<title>DownReactLevel</title>
<ellipse fill="#ffffff" stroke="#000000" cx="2173.12" cy="-604.12" rx="27" ry="18"/>
</g>
<!-- DownReactLevel&#45;&gt;LevelToReact -->
<g id="edge37" class="edge">
<title>DownReactLevel&#45;&gt;LevelToReact</title>
<path fill="none" stroke="#555555" stroke-dasharray="1,5" d="M2170.22,-585.93C2168.89,-578.08 2167.29,-568.59 2165.8,-559.78"/>
<polygon fill="#555555" stroke="#555555" points="2169.12,-559.43 2164,-550.15 2162.22,-560.59 2169.12,-559.43"/>
</g>
<!-- Goodbyes -->
<g id="node33" class="node">
<title>Goodbyes</title>
<ellipse fill="#ffffff" stroke="#000000" cx="2389.12" cy="-604.12" rx="27" ry="18"/>
</g>
</g>
</svg>
