<?xml version="1.0" encoding="UTF-8" standalone="no"?>
<!DOCTYPE svg PUBLIC "-//W3C//DTD SVG 1.1//EN"
 "http://www.w3.org/Graphics/SVG/1.1/DTD/svg11.dtd">
<!-- Generated by graphviz version 8.0.5 (0)
 -->
<!-- Title: NEAL Pages: 1 -->
<svg width="3020pt" height="2056pt"
 viewBox="0.00 0.00 3019.85 2055.63" xmlns="http://www.w3.org/2000/svg" xmlns:xlink="http://www.w3.org/1999/xlink">
<g id="graph0" class="graph" transform="scale(1 1) rotate(0) translate(4 2051.63)">
<title>NEAL</title>
<polygon fill="white" stroke="none" points="-4,4 -4,-2051.63 3015.85,-2051.63 3015.85,4 -4,4"/>
<!-- start -->
<g id="node1" class="node">
<title>start</title>
<ellipse fill="#ffffff" stroke="#000000" cx="1310.85" cy="-2029.63" rx="27" ry="18"/>
</g>
<!-- critter_p_proc -->
<g id="node2" class="node">
<title>critter_p_proc</title>
<ellipse fill="#ffffff" stroke="#000000" cx="455.85" cy="-1822.61" rx="133.82" ry="103.24"/>
<text text-anchor="middle" x="455.85" y="-1878.31" font-family="Times,serif" font-size="14.00">Hey! You stole my urn!</text>
<text text-anchor="middle" x="455.85" y="-1861.06" font-family="Times,serif" font-size="14.00">&#45;&#45;&#45;</text>
<text text-anchor="middle" x="455.85" y="-1843.81" font-family="Times,serif" font-size="14.00">Ya damn kids, I&#39;ll show</text>
<text text-anchor="middle" x="455.85" y="-1826.56" font-family="Times,serif" font-size="14.00">you a thing or two!</text>
<text text-anchor="middle" x="455.85" y="-1809.31" font-family="Times,serif" font-size="14.00">&#45;&#45;&#45;</text>
<text text-anchor="middle" x="455.85" y="-1792.06" font-family="Times,serif" font-size="14.00">What the hell ya doin&#39;?</text>
<text text-anchor="middle" x="455.85" y="-1774.81" font-family="Times,serif" font-size="14.00">We&#39;re closed. Get on out</text>
<text text-anchor="middle" x="455.85" y="-1757.56" font-family="Times,serif" font-size="14.00">of here!</text>
</g>
<!-- start&#45;&gt;critter_p_proc -->
<g id="edge1" class="edge">
<title>start&#45;&gt;critter_p_proc</title>
<path fill="none" stroke="#555555" stroke-dasharray="1,5" d="M1283.55,-2027.83C1160.47,-2024.06 660.44,-2006.84 598.85,-1974.63 573.2,-1961.22 549.6,-1941.4 529.27,-1920.5"/>
<polygon fill="#555555" stroke="#555555" points="532.35,-1918.61 522.93,-1913.77 527.27,-1923.43 532.35,-1918.61"/>
</g>
<!-- destroy_p_proc -->
<g id="node3" class="node">
<title>destroy_p_proc</title>
<ellipse fill="#ffffff" stroke="#000000" cx="634.85" cy="-1822.61" rx="27" ry="18"/>
</g>
<!-- start&#45;&gt;destroy_p_proc -->
<g id="edge2" class="edge">
<title>start&#45;&gt;destroy_p_proc</title>
<path fill="none" stroke="#555555" stroke-dasharray="1,5" d="M1283.65,-2028.19C1167.63,-2026.04 717.92,-2015.13 670.85,-1974.63 635.6,-1944.31 631.51,-1886.28 632.59,-1851.65"/>
<polygon fill="#555555" stroke="#555555" points="636.13,-1852.03 633.12,-1841.88 629.14,-1851.69 636.13,-1852.03"/>
</g>
<!-- description_p_proc -->
<g id="node4" class="node">
<title>description_p_proc</title>
<ellipse fill="#ffffff" stroke="#000000" cx="799.85" cy="-1822.61" rx="119.6" ry="18"/>
<text text-anchor="middle" x="799.85" y="-1817.93" font-family="Times,serif" font-size="14.00">He looks overworked.</text>
</g>
<!-- start&#45;&gt;description_p_proc -->
<g id="edge3" class="edge">
<title>start&#45;&gt;description_p_proc</title>
<path fill="none" stroke="#555555" stroke-dasharray="1,5" d="M1283.71,-2027.28C1207.02,-2023.07 990.35,-2008.4 928.85,-1974.63 875.53,-1945.35 834.44,-1884.71 814.04,-1849.83"/>
<polygon fill="#555555" stroke="#555555" points="816.84,-1848.67 808.84,-1841.72 810.76,-1852.14 816.84,-1848.67"/>
</g>
<!-- look_at_p_proc -->
<g id="node5" class="node">
<title>look_at_p_proc</title>
<ellipse fill="#ffffff" stroke="#000000" cx="1051.85" cy="-1822.61" rx="114.2" ry="54.45"/>
<text text-anchor="middle" x="1051.85" y="-1843.81" font-family="Times,serif" font-size="14.00">You see Neal, the</text>
<text text-anchor="middle" x="1051.85" y="-1826.56" font-family="Times,serif" font-size="14.00">bartender.</text>
<text text-anchor="middle" x="1051.85" y="-1809.31" font-family="Times,serif" font-size="14.00">&#45;&#45;&#45;</text>
<text text-anchor="middle" x="1051.85" y="-1792.06" font-family="Times,serif" font-size="14.00">You see a bartender.</text>
</g>
<!-- start&#45;&gt;look_at_p_proc -->
<g id="edge4" class="edge">
<title>start&#45;&gt;look_at_p_proc</title>
<path fill="none" stroke="#555555" stroke-dasharray="1,5" d="M1285.58,-2022.62C1256.95,-2014.93 1209.87,-1999.54 1175.85,-1974.63 1142.34,-1950.1 1112.52,-1914.5 1090.53,-1884.02"/>
<polygon fill="#555555" stroke="#555555" points="1092.89,-1882.29 1084.25,-1876.16 1087.18,-1886.34 1092.89,-1882.29"/>
</g>
<!-- map_enter_p_proc -->
<g id="node6" class="node">
<title>map_enter_p_proc</title>
<ellipse fill="#ffffff" stroke="#000000" cx="1310.85" cy="-1822.61" rx="126.4" ry="30.05"/>
<text text-anchor="middle" x="1310.85" y="-1826.56" font-family="Times,serif" font-size="14.00">Ya damn kids, I&#39;ll show</text>
<text text-anchor="middle" x="1310.85" y="-1809.31" font-family="Times,serif" font-size="14.00">you a thing or two!</text>
</g>
<!-- start&#45;&gt;map_enter_p_proc -->
<g id="edge5" class="edge">
<title>start&#45;&gt;map_enter_p_proc</title>
<path fill="none" stroke="#555555" stroke-dasharray="1,5" d="M1310.85,-2011.15C1310.85,-1978.75 1310.85,-1908.58 1310.85,-1863.86"/>
<polygon fill="#555555" stroke="#555555" points="1314.35,-1864.08 1310.85,-1854.08 1307.35,-1864.08 1314.35,-1864.08"/>
</g>
<!-- pickup_p_proc -->
<g id="node7" class="node">
<title>pickup_p_proc</title>
<ellipse fill="#ffffff" stroke="#000000" cx="1584.85" cy="-1822.61" rx="129.58" ry="42.25"/>
<text text-anchor="middle" x="1584.85" y="-1835.18" font-family="Times,serif" font-size="14.00">Hey! Don&#39;t think you&#39;re</text>
<text text-anchor="middle" x="1584.85" y="-1817.93" font-family="Times,serif" font-size="14.00">going to get away with</text>
<text text-anchor="middle" x="1584.85" y="-1800.68" font-family="Times,serif" font-size="14.00">that, thief!</text>
</g>
<!-- start&#45;&gt;pickup_p_proc -->
<g id="edge6" class="edge">
<title>start&#45;&gt;pickup_p_proc</title>
<path fill="none" stroke="#555555" stroke-dasharray="1,5" d="M1335.87,-2022.27C1364.27,-2014.25 1411.15,-1998.57 1445.85,-1974.63 1486.25,-1946.78 1523.4,-1905.2 1549.11,-1872.71"/>
<polygon fill="#555555" stroke="#555555" points="1552.33,-1875.27 1555.73,-1865.24 1546.81,-1870.97 1552.33,-1875.27"/>
</g>
<!-- talk_p_proc -->
<g id="node8" class="node">
<title>talk_p_proc</title>
<ellipse fill="#ffffff" stroke="#000000" cx="1877.85" cy="-1822.61" rx="144.96" ry="152.03"/>
<text text-anchor="middle" x="1877.85" y="-1912.81" font-family="Times,serif" font-size="14.00">We&#39;re closed. Come back</text>
<text text-anchor="middle" x="1877.85" y="-1895.56" font-family="Times,serif" font-size="14.00">around four o&#39;clock.</text>
<text text-anchor="middle" x="1877.85" y="-1878.31" font-family="Times,serif" font-size="14.00">&#45;&#45;&#45;</text>
<text text-anchor="middle" x="1877.85" y="-1861.06" font-family="Times,serif" font-size="14.00">Thank you. You can&#39;t know</text>
<text text-anchor="middle" x="1877.85" y="-1843.81" font-family="Times,serif" font-size="14.00">what this means to me.</text>
<text text-anchor="middle" x="1877.85" y="-1826.56" font-family="Times,serif" font-size="14.00">You&#39;ll never pay</text>
<text text-anchor="middle" x="1877.85" y="-1809.31" font-family="Times,serif" font-size="14.00">for a drink in this bar</text>
<text text-anchor="middle" x="1877.85" y="-1792.06" font-family="Times,serif" font-size="14.00">again.</text>
<text text-anchor="middle" x="1877.85" y="-1774.81" font-family="Times,serif" font-size="14.00">&#45;&#45;&#45;</text>
<text text-anchor="middle" x="1877.85" y="-1757.56" font-family="Times,serif" font-size="14.00">Zzzz</text>
<text text-anchor="middle" x="1877.85" y="-1740.31" font-family="Times,serif" font-size="14.00">&#45;&#45;&#45;</text>
<text text-anchor="middle" x="1877.85" y="-1723.06" font-family="Times,serif" font-size="14.00">Here ya go. Enjoy.</text>
</g>
<!-- start&#45;&gt;talk_p_proc -->
<g id="edge7" class="edge">
<title>start&#45;&gt;talk_p_proc</title>
<path fill="none" stroke="#555555" stroke-dasharray="1,5" d="M1337.74,-2026.12C1423.84,-2017.92 1689.06,-1991.56 1723.85,-1974.63 1741.04,-1966.27 1757.5,-1955.24 1772.83,-1942.93"/>
<polygon fill="#555555" stroke="#555555" points="1774.76,-1945.05 1780.23,-1935.97 1770.3,-1939.66 1774.76,-1945.05"/>
</g>
<!-- timed_event_p_proc -->
<g id="node9" class="node">
<title>timed_event_p_proc</title>
<ellipse fill="#ffffff" stroke="#000000" cx="2189.85" cy="-1822.61" rx="148.67" ry="115.44"/>
<text text-anchor="middle" x="2189.85" y="-1886.93" font-family="Times,serif" font-size="14.00">Get the hell outta here</text>
<text text-anchor="middle" x="2189.85" y="-1869.68" font-family="Times,serif" font-size="14.00">you goddamn punks! If any</text>
<text text-anchor="middle" x="2189.85" y="-1852.43" font-family="Times,serif" font-size="14.00">of ya ever touch her</text>
<text text-anchor="middle" x="2189.85" y="-1835.18" font-family="Times,serif" font-size="14.00">again I&#39;ll kill the</text>
<text text-anchor="middle" x="2189.85" y="-1817.93" font-family="Times,serif" font-size="14.00">whole lot o&#39; ya!</text>
<text text-anchor="middle" x="2189.85" y="-1800.68" font-family="Times,serif" font-size="14.00">&#45;&#45;&#45;</text>
<text text-anchor="middle" x="2189.85" y="-1783.43" font-family="Times,serif" font-size="14.00">The day I can&#39;t handle</text>
<text text-anchor="middle" x="2189.85" y="-1766.18" font-family="Times,serif" font-size="14.00">little shits like you is</text>
<text text-anchor="middle" x="2189.85" y="-1748.93" font-family="Times,serif" font-size="14.00">the day I die!</text>
</g>
<!-- start&#45;&gt;timed_event_p_proc -->
<g id="edge8" class="edge">
<title>start&#45;&gt;timed_event_p_proc</title>
<path fill="none" stroke="#555555" stroke-dasharray="1,5" d="M1337.69,-2026.23C1376.07,-2022.83 1448.84,-2016.47 1510.85,-2011.63 1626.57,-2002.61 1925.72,-2021.63 2031.85,-1974.63 2057.23,-1963.39 2081.01,-1946.25 2102.03,-1927.48"/>
<polygon fill="#555555" stroke="#555555" points="2103.94,-1930.56 2108.95,-1921.22 2099.21,-1925.4 2103.94,-1930.56"/>
</g>
<!-- use_obj_on_p_proc -->
<g id="node10" class="node">
<title>use_obj_on_p_proc</title>
<ellipse fill="#ffffff" stroke="#000000" cx="2383.85" cy="-1822.61" rx="27" ry="18"/>
</g>
<!-- start&#45;&gt;use_obj_on_p_proc -->
<g id="edge9" class="edge">
<title>start&#45;&gt;use_obj_on_p_proc</title>
<path fill="none" stroke="#555555" stroke-dasharray="1,5" d="M1337.67,-2025.96C1376.03,-2022.22 1448.77,-2015.47 1510.85,-2011.63 1557.31,-2008.76 2312.07,-2004.41 2347.85,-1974.63 2383.59,-1944.89 2387.51,-1886.66 2386.27,-1851.84"/>
<polygon fill="#555555" stroke="#555555" points="2389.72,-1851.8 2385.69,-1842 2382.73,-1852.17 2389.72,-1851.8"/>
</g>
<!-- sleeping -->
<g id="node11" class="node">
<title>sleeping</title>
<ellipse fill="#ffffff" stroke="#000000" cx="455.85" cy="-1518.14" rx="27" ry="18"/>
</g>
<!-- critter_p_proc&#45;&gt;sleeping -->
<g id="edge10" class="edge">
<title>critter_p_proc&#45;&gt;sleeping</title>
<path fill="none" stroke="#555555" stroke-dasharray="1,5" d="M455.85,-1719.21C455.85,-1658.63 455.85,-1586.35 455.85,-1547.39"/>
<polygon fill="#555555" stroke="#555555" points="459.35,-1547.42 455.85,-1537.42 452.35,-1547.42 459.35,-1547.42"/>
</g>
<!-- Neal01 -->
<g id="node13" class="node">
<title>Neal01</title>
<ellipse fill="#ffffff" stroke="#000000" cx="1877.85" cy="-1518.14" rx="145.49" ry="78.84"/>
<text text-anchor="middle" x="1877.85" y="-1556.59" font-family="Times,serif" font-size="14.00">Welcome to the Skum Pitt.</text>
<text text-anchor="middle" x="1877.85" y="-1539.34" font-family="Times,serif" font-size="14.00">What can I do ya for?</text>
<text text-anchor="middle" x="1877.85" y="-1522.09" font-family="Times,serif" font-size="14.00">&#45;&#45;&#45;</text>
<text text-anchor="middle" x="1877.85" y="-1504.84" font-family="Times,serif" font-size="14.00">My name&#39;s </text>
<text text-anchor="middle" x="1877.85" y="-1487.59" font-family="Times,serif" font-size="14.00">&#45;&#45;&#45;</text>
<text text-anchor="middle" x="1877.85" y="-1470.34" font-family="Times,serif" font-size="14.00">. What is this place?</text>
</g>
<!-- talk_p_proc&#45;&gt;Neal01 -->
<g id="edge11" class="edge">
<title>talk_p_proc&#45;&gt;Neal01</title>
<path fill="none" stroke="#555555" stroke-dasharray="1,5" d="M1877.85,-1670.37C1877.85,-1649.17 1877.85,-1627.96 1877.85,-1608.41"/>
<polygon fill="#555555" stroke="#555555" points="1881.35,-1608.43 1877.85,-1598.43 1874.35,-1608.43 1881.35,-1608.43"/>
</g>
<!-- damage_p_proc -->
<g id="node12" class="node">
<title>damage_p_proc</title>
<ellipse fill="#ffffff" stroke="#000000" cx="1546.85" cy="-2029.63" rx="27" ry="18"/>
</g>
<!-- Goodbyes -->
<g id="node14" class="node">
<title>Goodbyes</title>
<ellipse fill="#ffffff" stroke="#000000" cx="1370.85" cy="-30.05" rx="27" ry="18"/>
</g>
<!-- Neal01&#45;&gt;Goodbyes -->
<g id="edge12" class="edge">
<title>Neal01&#45;&gt;Goodbyes</title>
<path fill="none" stroke="#555555" stroke-dasharray="1,5" d="M2017.28,-1495.37C2094.52,-1477.1 2187.79,-1444.02 2252.85,-1384.71 2341.52,-1303.88 2365.85,-1259.52 2365.85,-1139.53 2365.85,-1139.53 2365.85,-1139.53 2365.85,-130.35 2365.85,-32.36 1591.88,-29.98 1409.17,-30.78"/>
<polygon fill="#555555" stroke="#555555" points="1409.22,-27.28 1399.24,-30.84 1409.26,-34.28 1409.22,-27.28"/>
</g>
<!-- Neal02 -->
<g id="node15" class="node">
<title>Neal02</title>
<ellipse fill="#ffffff" stroke="#000000" cx="493.85" cy="-131.35" rx="125.39" ry="18"/>
<text text-anchor="middle" x="493.85" y="-126.68" font-family="Times,serif" font-size="14.00">Great. Whaddya want?</text>
</g>
<!-- Neal01&#45;&gt;Neal02 -->
<g id="edge13" class="edge">
<title>Neal01&#45;&gt;Neal02</title>
<path fill="none" stroke="#99006d" d="M1747.99,-1482.14C1650.38,-1456.93 1513.03,-1423.77 1390.85,-1402.71 1319.46,-1390.4 1299.86,-1399.05 1228.85,-1384.71 852.65,-1308.74 400.85,-1523.33 400.85,-1139.53 400.85,-1139.53 400.85,-1139.53 400.85,-219.6 400.85,-191.07 424.43,-169.15 447.84,-154.42"/>
<polygon fill="#99006d" stroke="#99006d" points="449.28,-157.04 456.1,-148.93 445.71,-151.02 449.28,-157.04"/>
<text text-anchor="middle" x="473.6" y="-595.68" font-family="Times,serif" font-size="14.00" fill="#99006d">Uh, I&#39;ll have a drink.</text>
</g>
<!-- Neal03 -->
<g id="node16" class="node">
<title>Neal03</title>
<ellipse fill="#ffffff" stroke="#000000" cx="1232.85" cy="-1138.53" rx="137" ry="30.05"/>
<text text-anchor="middle" x="1232.85" y="-1142.48" font-family="Times,serif" font-size="14.00">Okay, so whaddya wanna</text>
<text text-anchor="middle" x="1232.85" y="-1125.23" font-family="Times,serif" font-size="14.00">know?</text>
</g>
<!-- Neal01&#45;&gt;Neal03 -->
<g id="edge14" class="edge">
<title>Neal01&#45;&gt;Neal03</title>
<path fill="none" stroke="#009998" d="M1754.42,-1475.84C1691.99,-1452.75 1616.13,-1421.27 1552.35,-1384.71 1443.37,-1322.24 1329.99,-1226.7 1272.06,-1175.27"/>
<polygon fill="#009998" stroke="#009998" points="1274.72,-1173.06 1264.93,-1169.01 1270.06,-1178.28 1274.72,-1173.06"/>
<text text-anchor="middle" x="1604.6" y="-1362.78" font-family="Times,serif" font-size="14.00" fill="#009998">I&#39;m looking for</text>
<text text-anchor="middle" x="1604.6" y="-1345.53" font-family="Times,serif" font-size="14.00" fill="#009998">information.</text>
</g>
<!-- Neal09 -->
<g id="node17" class="node">
<title>Neal09</title>
<ellipse fill="#ffffff" stroke="#000000" cx="1770.85" cy="-1138.53" rx="139.12" ry="176.42"/>
<text text-anchor="middle" x="1770.85" y="-1245.98" font-family="Times,serif" font-size="14.00">That&#39;s not a trophy, it&#39;s</text>
<text text-anchor="middle" x="1770.85" y="-1228.73" font-family="Times,serif" font-size="14.00">an urn. It contains my</text>
<text text-anchor="middle" x="1770.85" y="-1211.48" font-family="Times,serif" font-size="14.00">wife&#39;s ashes &#45;</text>
<text text-anchor="middle" x="1770.85" y="-1194.23" font-family="Times,serif" font-size="14.00">besides this bar, it is</text>
<text text-anchor="middle" x="1770.85" y="-1176.98" font-family="Times,serif" font-size="14.00">the most important thing</text>
<text text-anchor="middle" x="1770.85" y="-1159.73" font-family="Times,serif" font-size="14.00">in my life.</text>
<text text-anchor="middle" x="1770.85" y="-1142.48" font-family="Times,serif" font-size="14.00">&#45;&#45;&#45;</text>
<text text-anchor="middle" x="1770.85" y="-1125.23" font-family="Times,serif" font-size="14.00">Some slime stole it. It</text>
<text text-anchor="middle" x="1770.85" y="-1107.98" font-family="Times,serif" font-size="14.00">wasn&#39;t a trophy, it was</text>
<text text-anchor="middle" x="1770.85" y="-1090.73" font-family="Times,serif" font-size="14.00">an urn. It contained my</text>
<text text-anchor="middle" x="1770.85" y="-1073.48" font-family="Times,serif" font-size="14.00">wife&#39;s ashes &#45; besides</text>
<text text-anchor="middle" x="1770.85" y="-1056.23" font-family="Times,serif" font-size="14.00">this bar, it was the most</text>
<text text-anchor="middle" x="1770.85" y="-1038.98" font-family="Times,serif" font-size="14.00">important thing in my</text>
<text text-anchor="middle" x="1770.85" y="-1021.73" font-family="Times,serif" font-size="14.00">life.</text>
</g>
<!-- Neal01&#45;&gt;Neal09 -->
<g id="edge15" class="edge">
<title>Neal01&#45;&gt;Neal09</title>
<path fill="none" stroke="#996c00" d="M1762.12,-1470.08C1726.5,-1449.47 1691.42,-1421.42 1671.35,-1384.71 1652.92,-1351 1657.16,-1313.14 1671.21,-1277.45"/>
<polygon fill="#996c00" stroke="#996c00" points="1674.77,-1279.02 1675.42,-1268.45 1668.32,-1276.31 1674.77,-1279.02"/>
<text text-anchor="middle" x="1764.1" y="-1362.78" font-family="Times,serif" font-size="14.00" fill="#996c00">What’s that trophy on the</text>
<text text-anchor="middle" x="1764.1" y="-1345.53" font-family="Times,serif" font-size="14.00" fill="#996c00">shelf?</text>
</g>
<!-- Neal01&#45;&gt;Neal09 -->
<g id="edge16" class="edge">
<title>Neal01&#45;&gt;Neal09</title>
<path fill="none" stroke="#3f0099" d="M1873.65,-1439.1C1870.55,-1405.94 1865.18,-1367.13 1855.85,-1332.96 1852.96,-1322.37 1849.58,-1311.61 1845.87,-1300.86"/>
<polygon fill="#3f0099" stroke="#3f0099" points="1848.86,-1299.83 1842.22,-1291.57 1842.27,-1302.17 1848.86,-1299.83"/>
<text text-anchor="middle" x="1953.1" y="-1371.41" font-family="Times,serif" font-size="14.00" fill="#3f0099">What happened to that</text>
<text text-anchor="middle" x="1953.1" y="-1354.16" font-family="Times,serif" font-size="14.00" fill="#3f0099">trophy you used to have</text>
<text text-anchor="middle" x="1953.1" y="-1336.91" font-family="Times,serif" font-size="14.00" fill="#3f0099">up there?</text>
</g>
<!-- NealEnd -->
<g id="node18" class="node">
<title>NealEnd</title>
<ellipse fill="#ffffff" stroke="#000000" cx="1690.85" cy="-131.35" rx="27" ry="18"/>
</g>
<!-- Neal01&#45;&gt;NealEnd -->
<g id="edge17" class="edge">
<title>Neal01&#45;&gt;NealEnd</title>
<path fill="none" stroke="#009913" d="M2019.34,-1499.16C2092.47,-1482.16 2176.34,-1449.08 2224.85,-1384.71 2290.67,-1297.37 2245.85,-1248.9 2245.85,-1139.53 2245.85,-1139.53 2245.85,-1139.53 2245.85,-219.6 2245.85,-167.17 1854.25,-141.26 1728.93,-134.31"/>
<polygon fill="#009913" stroke="#009913" points="1729.17,-130.77 1719,-133.72 1728.79,-137.76 1729.17,-130.77"/>
<text text-anchor="middle" x="2291.98" y="-595.68" font-family="Times,serif" font-size="14.00" fill="#009913">Gaa hnnngh!</text>
</g>
<!-- Neal11 -->
<g id="node19" class="node">
<title>Neal11</title>
<ellipse fill="#ffffff" stroke="#000000" cx="2072.85" cy="-1138.53" rx="144.96" ry="66.64"/>
<text text-anchor="middle" x="2072.85" y="-1168.36" font-family="Times,serif" font-size="14.00">Thank you. You can&#39;t know</text>
<text text-anchor="middle" x="2072.85" y="-1151.11" font-family="Times,serif" font-size="14.00">what this means to me.</text>
<text text-anchor="middle" x="2072.85" y="-1133.86" font-family="Times,serif" font-size="14.00">You&#39;ll never pay</text>
<text text-anchor="middle" x="2072.85" y="-1116.61" font-family="Times,serif" font-size="14.00">for a drink in this bar</text>
<text text-anchor="middle" x="2072.85" y="-1099.36" font-family="Times,serif" font-size="14.00">again.</text>
</g>
<!-- Neal01&#45;&gt;Neal11 -->
<g id="edge18" class="edge">
<title>Neal01&#45;&gt;Neal11</title>
<path fill="none" stroke="#99001a" d="M1975.29,-1459.07C2001.32,-1438.81 2026.68,-1413.75 2042.85,-1384.71 2071.33,-1333.57 2077.97,-1267.27 2077.96,-1216.52"/>
<polygon fill="#99001a" stroke="#99001a" points="2081.45,-1216.57 2077.86,-1206.6 2074.45,-1216.64 2081.45,-1216.57"/>
<text text-anchor="middle" x="2142.23" y="-1362.78" font-family="Times,serif" font-size="14.00" fill="#99001a">I&#39;ve got your urn back</text>
<text text-anchor="middle" x="2142.23" y="-1345.53" font-family="Times,serif" font-size="14.00" fill="#99001a">for you.</text>
</g>
<!-- Neal02&#45;&gt;Goodbyes -->
<g id="edge19" class="edge">
<title>Neal02&#45;&gt;Goodbyes</title>
<path fill="none" stroke="#555555" stroke-dasharray="1,5" d="M600.37,-121.54C663.75,-115.63 745.63,-106.82 817.85,-95.35 854.63,-89.51 863.05,-83.8 899.85,-78.1 1060.21,-53.3 1253.42,-38.77 1333.39,-33.42"/>
<polygon fill="#555555" stroke="#555555" points="1333.16,-36.87 1342.9,-32.72 1332.7,-29.89 1333.16,-36.87"/>
</g>
<!-- NealCola -->
<g id="node20" class="node">
<title>NealCola</title>
<ellipse fill="#ffffff" stroke="#000000" cx="151.85" cy="-30.05" rx="151.85" ry="30.05"/>
<text text-anchor="middle" x="151.85" y="-34" font-family="Times,serif" font-size="14.00">Come back when you&#39;ve got</text>
<text text-anchor="middle" x="151.85" y="-16.75" font-family="Times,serif" font-size="14.00">some money.</text>
</g>
<!-- Neal02&#45;&gt;NealCola -->
<g id="edge20" class="edge">
<title>Neal02&#45;&gt;NealCola</title>
<path fill="none" stroke="#004799" d="M428.82,-115.61C404.07,-109.71 375.68,-102.6 350.1,-95.35 312.56,-84.71 271.46,-71.62 236.46,-60.04"/>
<polygon fill="#004799" stroke="#004799" points="237.88,-56.49 227.29,-56.65 235.67,-63.13 237.88,-56.49"/>
<text text-anchor="middle" x="415.73" y="-82.05" font-family="Times,serif" font-size="14.00" fill="#004799">Nuka&#45;cola, 3 caps.</text>
</g>
<!-- NealBeer -->
<g id="node21" class="node">
<title>NealBeer</title>
<ellipse fill="#ffffff" stroke="#000000" cx="473.85" cy="-30.05" rx="151.85" ry="30.05"/>
<text text-anchor="middle" x="473.85" y="-34" font-family="Times,serif" font-size="14.00">Come back when you&#39;ve got</text>
<text text-anchor="middle" x="473.85" y="-16.75" font-family="Times,serif" font-size="14.00">some money.</text>
</g>
<!-- Neal02&#45;&gt;NealBeer -->
<g id="edge21" class="edge">
<title>Neal02&#45;&gt;NealBeer</title>
<path fill="none" stroke="#739900" d="M490.37,-113.06C488.01,-101.34 484.79,-85.37 481.82,-70.63"/>
<polygon fill="#739900" stroke="#739900" points="485.13,-70.31 479.72,-61.2 478.27,-71.69 485.13,-70.31"/>
<text text-anchor="middle" x="532.6" y="-82.05" font-family="Times,serif" font-size="14.00" fill="#739900">Beer, 5 caps.</text>
</g>
<!-- NealBooze -->
<g id="node22" class="node">
<title>NealBooze</title>
<ellipse fill="#ffffff" stroke="#000000" cx="795.85" cy="-30.05" rx="151.85" ry="30.05"/>
<text text-anchor="middle" x="795.85" y="-34" font-family="Times,serif" font-size="14.00">Come back when you&#39;ve got</text>
<text text-anchor="middle" x="795.85" y="-16.75" font-family="Times,serif" font-size="14.00">some money.</text>
</g>
<!-- Neal02&#45;&gt;NealBooze -->
<g id="edge22" class="edge">
<title>Neal02&#45;&gt;NealBooze</title>
<path fill="none" stroke="#920099" d="M542.37,-114.4C587.09,-99.69 654.52,-77.52 708.59,-59.74"/>
<polygon fill="#920099" stroke="#920099" points="709.46,-62.81 717.87,-56.36 707.28,-56.16 709.46,-62.81"/>
<text text-anchor="middle" x="729.6" y="-82.05" font-family="Times,serif" font-size="14.00" fill="#920099">The hard stuff, 20 caps.</text>
</g>
<!-- Neal03&#45;&gt;Goodbyes -->
<g id="edge23" class="edge">
<title>Neal03&#45;&gt;Goodbyes</title>
<path fill="none" stroke="#555555" stroke-dasharray="1,5" d="M1239.97,-1108.39C1252.85,-1059.94 1283.53,-961.34 1334.85,-892.36 1342.39,-882.23 1351.31,-885.71 1356.85,-874.36 1414.5,-756.34 1370.85,-414.82 1370.85,-283.48 1370.85,-283.48 1370.85,-283.48 1370.85,-130.35 1370.85,-106.29 1370.85,-78.94 1370.85,-59.04"/>
<polygon fill="#555555" stroke="#555555" points="1374.35,-59.27 1370.85,-49.27 1367.35,-59.27 1374.35,-59.27"/>
</g>
<!-- Neal06 -->
<g id="node23" class="node">
<title>Neal06</title>
<ellipse fill="#ffffff" stroke="#000000" cx="1002.85" cy="-600.36" rx="140.18" ry="274"/>
<text text-anchor="middle" x="1002.85" y="-776.81" font-family="Times,serif" font-size="14.00">Well, just over there to</text>
<text text-anchor="middle" x="1002.85" y="-759.56" font-family="Times,serif" font-size="14.00">the west of us is Gizmo&#39;s</text>
<text text-anchor="middle" x="1002.85" y="-742.31" font-family="Times,serif" font-size="14.00">casino. I&#39;d be</text>
<text text-anchor="middle" x="1002.85" y="-725.06" font-family="Times,serif" font-size="14.00">surprised if you didn&#39;t</text>
<text text-anchor="middle" x="1002.85" y="-707.81" font-family="Times,serif" font-size="14.00">know about it; most of</text>
<text text-anchor="middle" x="1002.85" y="-690.56" font-family="Times,serif" font-size="14.00">the people here are the</text>
<text text-anchor="middle" x="1002.85" y="-673.31" font-family="Times,serif" font-size="14.00">ones who</text>
<text text-anchor="middle" x="1002.85" y="-656.06" font-family="Times,serif" font-size="14.00">just finished losing</text>
<text text-anchor="middle" x="1002.85" y="-638.81" font-family="Times,serif" font-size="14.00">their money there. Over</text>
<text text-anchor="middle" x="1002.85" y="-621.56" font-family="Times,serif" font-size="14.00">in the other part of town</text>
<text text-anchor="middle" x="1002.85" y="-604.31" font-family="Times,serif" font-size="14.00">you got</text>
<text text-anchor="middle" x="1002.85" y="-587.06" font-family="Times,serif" font-size="14.00">Killian&#39;s general store,</text>
<text text-anchor="middle" x="1002.85" y="-569.81" font-family="Times,serif" font-size="14.00">and Marcelles&#39;s Crash</text>
<text text-anchor="middle" x="1002.85" y="-552.56" font-family="Times,serif" font-size="14.00">House. Killian&#39;s a good</text>
<text text-anchor="middle" x="1002.85" y="-535.31" font-family="Times,serif" font-size="14.00">guy, runs</text>
<text text-anchor="middle" x="1002.85" y="-518.06" font-family="Times,serif" font-size="14.00">a straight joint,</text>
<text text-anchor="middle" x="1002.85" y="-500.81" font-family="Times,serif" font-size="14.00">carries everything you</text>
<text text-anchor="middle" x="1002.85" y="-483.56" font-family="Times,serif" font-size="14.00">need. The Crash House is</text>
<text text-anchor="middle" x="1002.85" y="-466.31" font-family="Times,serif" font-size="14.00">where you sleep</text>
<text text-anchor="middle" x="1002.85" y="-449.06" font-family="Times,serif" font-size="14.00">it off when you&#39;ve been</text>
<text text-anchor="middle" x="1002.85" y="-431.81" font-family="Times,serif" font-size="14.00">in here for too long.</text>
<text text-anchor="middle" x="1002.85" y="-414.56" font-family="Times,serif" font-size="14.00">[Neal chuckles.]</text>
</g>
<!-- Neal03&#45;&gt;Neal06 -->
<g id="edge24" class="edge">
<title>Neal03&#45;&gt;Neal06</title>
<path fill="none" stroke="#009965" d="M1179.42,-1110.5C1123.88,-1079.05 1040.14,-1021.42 1004.1,-944.11 994.97,-924.53 988.41,-903.61 983.86,-882.12"/>
<polygon fill="#009965" stroke="#009965" points="987.15,-881.67 981.79,-872.53 980.28,-883.01 987.15,-881.67"/>
<text text-anchor="middle" x="1092.23" y="-922.19" font-family="Times,serif" font-size="14.00" fill="#009965">What&#39;s the scoop on this</text>
<text text-anchor="middle" x="1092.23" y="-904.94" font-family="Times,serif" font-size="14.00" fill="#009965">town?</text>
</g>
<!-- Neal07 -->
<g id="node24" class="node">
<title>Neal07</title>
<ellipse fill="#ffffff" stroke="#000000" cx="704.85" cy="-600.36" rx="140.18" ry="78.84"/>
<text text-anchor="middle" x="704.85" y="-638.81" font-family="Times,serif" font-size="14.00">Fella&#39;s called Tycho.</text>
<text text-anchor="middle" x="704.85" y="-621.56" font-family="Times,serif" font-size="14.00">Apparently a ranger from</text>
<text text-anchor="middle" x="704.85" y="-604.31" font-family="Times,serif" font-size="14.00">back east or something.</text>
<text text-anchor="middle" x="704.85" y="-587.06" font-family="Times,serif" font-size="14.00">Pretty nasty fighter,</text>
<text text-anchor="middle" x="704.85" y="-569.81" font-family="Times,serif" font-size="14.00">from what I hear, but a</text>
<text text-anchor="middle" x="704.85" y="-552.56" font-family="Times,serif" font-size="14.00">straight&#45;up character.</text>
</g>
<!-- Neal03&#45;&gt;Neal07 -->
<g id="edge25" class="edge">
<title>Neal03&#45;&gt;Neal07</title>
<path fill="none" stroke="#993900" d="M1125.84,-1119.4C966.38,-1089.94 678.62,-1026.6 618.1,-944.11 561.86,-867.46 605.42,-758.11 648.61,-683.67"/>
<polygon fill="#993900" stroke="#993900" points="652.07,-685.71 654.14,-675.32 646.04,-682.14 652.07,-685.71"/>
<text text-anchor="middle" x="701.73" y="-930.81" font-family="Times,serif" font-size="14.00" fill="#993900">Who&#39;s the</text>
<text text-anchor="middle" x="701.73" y="-913.56" font-family="Times,serif" font-size="14.00" fill="#993900">dangerous&#45;looking</text>
<text text-anchor="middle" x="701.73" y="-896.31" font-family="Times,serif" font-size="14.00" fill="#993900">stranger in the corner?</text>
</g>
<!-- Neal08 -->
<g id="node25" class="node">
<title>Neal08</title>
<ellipse fill="#ffffff" stroke="#000000" cx="1526.85" cy="-600.36" rx="127.99" ry="103.24"/>
<text text-anchor="middle" x="1526.85" y="-656.06" font-family="Times,serif" font-size="14.00">Oh, them. They&#39;re the</text>
<text text-anchor="middle" x="1526.85" y="-638.81" font-family="Times,serif" font-size="14.00">Skulz. They&#39;re a local</text>
<text text-anchor="middle" x="1526.85" y="-621.56" font-family="Times,serif" font-size="14.00">gang. All the riff&#45;raff.</text>
<text text-anchor="middle" x="1526.85" y="-604.31" font-family="Times,serif" font-size="14.00">Sometimes they start</text>
<text text-anchor="middle" x="1526.85" y="-587.06" font-family="Times,serif" font-size="14.00">fights or cause a little</text>
<text text-anchor="middle" x="1526.85" y="-569.81" font-family="Times,serif" font-size="14.00">trouble. Usually Killian</text>
<text text-anchor="middle" x="1526.85" y="-552.56" font-family="Times,serif" font-size="14.00">keeps them</text>
<text text-anchor="middle" x="1526.85" y="-535.31" font-family="Times,serif" font-size="14.00"> in line, though.</text>
</g>
<!-- Neal03&#45;&gt;Neal08 -->
<g id="edge26" class="edge">
<title>Neal03&#45;&gt;Neal08</title>
<path fill="none" stroke="#0c0099" d="M1306.79,-1112.78C1378.17,-1084.46 1482.11,-1030.5 1528.85,-944.11 1566.83,-873.92 1564.47,-783.2 1553.61,-712.73"/>
<polygon fill="#0c0099" stroke="#0c0099" points="1556.93,-712.35 1551.87,-703.04 1550.02,-713.47 1556.93,-712.35"/>
<text text-anchor="middle" x="1612.48" y="-913.56" font-family="Times,serif" font-size="14.00" fill="#0c0099">Who&#39;re the jerks?</text>
</g>
<!-- Neal10 -->
<g id="node28" class="node">
<title>Neal10</title>
<ellipse fill="#ffffff" stroke="#000000" cx="1197.85" cy="-220.6" rx="84.88" ry="18"/>
<text text-anchor="middle" x="1197.85" y="-215.93" font-family="Times,serif" font-size="14.00">Anything else?</text>
</g>
<!-- Neal09&#45;&gt;Neal10 -->
<g id="edge36" class="edge">
<title>Neal09&#45;&gt;Neal10</title>
<path fill="none" stroke="#002799" d="M1827.94,-977.41C1880.84,-797.45 1930.83,-506.93 1779.85,-326.35 1718.86,-253.4 1441.41,-231.18 1292.69,-224.47"/>
<polygon fill="#002799" stroke="#002799" points="1292.91,-220.93 1282.77,-223.99 1292.61,-227.92 1292.91,-220.93"/>
<text text-anchor="middle" x="1893.23" y="-595.68" font-family="Times,serif" font-size="14.00" fill="#002799">Oh.</text>
</g>
<!-- Neal06&#45;&gt;Neal02 -->
<g id="edge30" class="edge">
<title>Neal06&#45;&gt;Neal02</title>
<path fill="none" stroke="#998b00" d="M972.79,-332.53C961.08,-304.58 945.49,-278.45 924.85,-256.6 878.49,-207.52 697.18,-167.92 585.01,-147.48"/>
<polygon fill="#998b00" stroke="#998b00" points="585.84,-143.89 575.38,-145.56 584.6,-150.78 585.84,-143.89"/>
<text text-anchor="middle" x="969.85" y="-224.55" font-family="Times,serif" font-size="14.00" fill="#998b00">Thanks. Can I get a</text>
<text text-anchor="middle" x="969.85" y="-207.3" font-family="Times,serif" font-size="14.00" fill="#998b00">drink?</text>
</g>
<!-- Neal06&#45;&gt;Neal10 -->
<g id="edge31" class="edge">
<title>Neal06&#45;&gt;Neal10</title>
<path fill="none" stroke="#5f0099" d="M978.44,-330.32C985.86,-303.35 997.92,-278.06 1016.35,-256.6 1018.21,-254.44 1074.27,-243.83 1123.6,-234.86"/>
<polygon fill="#5f0099" stroke="#5f0099" points="1124.11,-238.14 1133.32,-232.91 1122.86,-231.25 1124.11,-238.14"/>
<text text-anchor="middle" x="1091.1" y="-295.05" font-family="Times,serif" font-size="14.00" fill="#5f0099">Thanks for the</text>
<text text-anchor="middle" x="1091.1" y="-277.8" font-family="Times,serif" font-size="14.00" fill="#5f0099">information. See you</text>
<text text-anchor="middle" x="1091.1" y="-260.55" font-family="Times,serif" font-size="14.00" fill="#5f0099">around.</text>
</g>
<!-- Neal07&#45;&gt;Goodbyes -->
<g id="edge32" class="edge">
<title>Neal07&#45;&gt;Goodbyes</title>
<path fill="none" stroke="#555555" stroke-dasharray="1,5" d="M725.91,-522.18C758.48,-419.8 831.87,-243.18 966.85,-167.35 1093,-96.49 1262.04,-54.38 1334.93,-38.42"/>
<polygon fill="#555555" stroke="#555555" points="1335.33,-41.7 1344.37,-36.17 1333.86,-34.86 1335.33,-41.7"/>
</g>
<!-- Neal07&#45;&gt;Neal03 -->
<g id="edge33" class="edge">
<title>Neal07&#45;&gt;Neal03</title>
<path fill="none" stroke="#009932" d="M725.12,-678.47C750.55,-773.16 793,-923.78 810.85,-944.11 892.85,-1037.51 1029.2,-1088.58 1124.66,-1114.42"/>
<polygon fill="#009932" stroke="#009932" points="1123.65,-1118.04 1134.22,-1117.22 1125.45,-1111.27 1123.65,-1118.04"/>
<text text-anchor="middle" x="897.85" y="-922.19" font-family="Times,serif" font-size="14.00" fill="#009932">Mind if I ask some other</text>
<text text-anchor="middle" x="897.85" y="-904.94" font-family="Times,serif" font-size="14.00" fill="#009932">questions?</text>
</g>
<!-- Neal08&#45;&gt;Goodbyes -->
<g id="edge34" class="edge">
<title>Neal08&#45;&gt;Goodbyes</title>
<path fill="none" stroke="#555555" stroke-dasharray="1,5" d="M1541.43,-497.37C1549.89,-406.75 1551.14,-272.72 1504.85,-167.35 1482.26,-115.92 1430.95,-72.91 1398.78,-49.67"/>
<polygon fill="#555555" stroke="#555555" points="1401.05,-46.28 1390.86,-43.38 1397.01,-52 1401.05,-46.28"/>
</g>
<!-- Neal08&#45;&gt;Neal03 -->
<g id="edge35" class="edge">
<title>Neal08&#45;&gt;Neal03</title>
<path fill="none" stroke="#990600" d="M1492.53,-700.15C1469.08,-756.51 1433.41,-825.45 1384.85,-874.36 1372.81,-886.5 1362.1,-879.48 1350.85,-892.36 1334.73,-910.82 1341.67,-921.67 1331.85,-944.11 1307.8,-999.07 1275.43,-1060.39 1254.35,-1098.95"/>
<polygon fill="#990600" stroke="#990600" points="1251,-1096.8 1249.25,-1107.25 1257.13,-1100.17 1251,-1096.8"/>
<text text-anchor="middle" x="1437.85" y="-922.19" font-family="Times,serif" font-size="14.00" fill="#990600">Mind if I ask some other</text>
<text text-anchor="middle" x="1437.85" y="-904.94" font-family="Times,serif" font-size="14.00" fill="#990600">questions?</text>
</g>
<!-- Neal04 -->
<g id="node26" class="node">
<title>Neal04</title>
<ellipse fill="#ffffff" stroke="#000000" cx="1232.85" cy="-1518.14" rx="148.67" ry="115.44"/>
<text text-anchor="middle" x="1232.85" y="-1582.47" font-family="Times,serif" font-size="14.00">[Neal looks at you</text>
<text text-anchor="middle" x="1232.85" y="-1565.22" font-family="Times,serif" font-size="14.00">quizzically for a</text>
<text text-anchor="middle" x="1232.85" y="-1547.97" font-family="Times,serif" font-size="14.00">moment.] Haven&#39;t you ever</text>
<text text-anchor="middle" x="1232.85" y="-1530.72" font-family="Times,serif" font-size="14.00">seen a bar</text>
<text text-anchor="middle" x="1232.85" y="-1513.47" font-family="Times,serif" font-size="14.00">before, stranger? This</text>
<text text-anchor="middle" x="1232.85" y="-1496.22" font-family="Times,serif" font-size="14.00">is my place, the Skum</text>
<text text-anchor="middle" x="1232.85" y="-1478.97" font-family="Times,serif" font-size="14.00">Pitt. You buy drinks</text>
<text text-anchor="middle" x="1232.85" y="-1461.72" font-family="Times,serif" font-size="14.00">here. And you</text>
<text text-anchor="middle" x="1232.85" y="-1444.47" font-family="Times,serif" font-size="14.00"> tip me.</text>
</g>
<!-- Neal04&#45;&gt;Neal02 -->
<g id="edge27" class="edge">
<title>Neal04&#45;&gt;Neal02</title>
<path fill="none" stroke="#219900" d="M1087.24,-1494.7C846.3,-1457.52 390.59,-1386.97 386.85,-1384.71 270.72,-1314.5 204.85,-1275.24 204.85,-1139.53 204.85,-1139.53 204.85,-1139.53 204.85,-219.6 204.85,-180.32 303.98,-157.12 386.12,-144.64"/>
<polygon fill="#219900" stroke="#219900" points="386.43,-147.99 395.81,-143.06 385.41,-141.06 386.43,-147.99"/>
<text text-anchor="middle" x="284.73" y="-604.31" font-family="Times,serif" font-size="14.00" fill="#219900">Uh, right. I knew that.</text>
<text text-anchor="middle" x="284.73" y="-587.06" font-family="Times,serif" font-size="14.00" fill="#219900">So, can I get a drink?</text>
</g>
<!-- Neal04&#45;&gt;Neal03 -->
<g id="edge28" class="edge">
<title>Neal04&#45;&gt;Neal03</title>
<path fill="none" stroke="#99004d" d="M1232.85,-1402.31C1232.85,-1326.71 1232.85,-1232.31 1232.85,-1179.71"/>
<polygon fill="#99004d" stroke="#99004d" points="1236.35,-1179.83 1232.85,-1169.83 1229.35,-1179.83 1236.35,-1179.83"/>
<text text-anchor="middle" x="1323.6" y="-1362.78" font-family="Times,serif" font-size="14.00" fill="#99004d">Yeah. Um, can I get some</text>
<text text-anchor="middle" x="1323.6" y="-1345.53" font-family="Times,serif" font-size="14.00" fill="#99004d">other information?</text>
</g>
<!-- Neal04&#45;&gt;NealEnd -->
<g id="edge29" class="edge">
<title>Neal04&#45;&gt;NealEnd</title>
<path fill="none" stroke="#007a99" d="M1349.91,-1446.83C1374.33,-1428.65 1398.5,-1407.66 1417.85,-1384.71 1552.43,-1225.12 1465.97,-1099.83 1622.85,-962.11 1641.86,-945.42 1661.88,-964.51 1676.85,-944.11 1688.69,-927.98 1690.54,-301.56 1690.81,-160.41"/>
<polygon fill="#007a99" stroke="#007a99" points="1694.31,-160.69 1690.83,-150.68 1687.31,-160.67 1694.31,-160.69"/>
<text text-anchor="middle" x="1733.23" y="-595.68" font-family="Times,serif" font-size="14.00" fill="#007a99">Oh. Thanks.</text>
</g>
<!-- Neal05 -->
<g id="node27" class="node">
<title>Neal05</title>
<ellipse fill="#ffffff" stroke="#000000" cx="2059.85" cy="-2029.63" rx="140.65" ry="18"/>
<text text-anchor="middle" x="2059.85" y="-2024.96" font-family="Times,serif" font-size="14.00">Yeah, same to you, buddy.</text>
</g>
<!-- Neal10&#45;&gt;Neal02 -->
<g id="edge37" class="edge">
<title>Neal10&#45;&gt;Neal02</title>
<path fill="none" stroke="#549900" d="M1147.79,-205.75C1102.07,-193.67 1032.43,-176.64 970.85,-167.35 855.03,-149.88 722.02,-141.04 625.93,-136.62"/>
<polygon fill="#549900" stroke="#549900" points="626.13,-133.08 615.98,-136.13 625.82,-140.07 626.13,-133.08"/>
<text text-anchor="middle" x="1138.98" y="-171.3" font-family="Times,serif" font-size="14.00" fill="#549900">Yeah, I&#39;ll have a drink.</text>
</g>
<!-- Neal10&#45;&gt;Neal03 -->
<g id="edge38" class="edge">
<title>Neal10&#45;&gt;Neal03</title>
<path fill="none" stroke="#990080" d="M1196.64,-239.04C1191.6,-314.77 1173.46,-622.65 1192.6,-874.36 1198.66,-954.01 1214.88,-1046.06 1224.78,-1097.46"/>
<polygon fill="#990080" stroke="#990080" points="1221.51,-1097.96 1226.85,-1107.1 1228.38,-1096.62 1221.51,-1097.96"/>
<text text-anchor="middle" x="1274.98" y="-604.31" font-family="Times,serif" font-size="14.00" fill="#990080">Looking for some more</text>
<text text-anchor="middle" x="1274.98" y="-587.06" font-family="Times,serif" font-size="14.00" fill="#990080">information.</text>
</g>
<!-- Neal10&#45;&gt;NealEnd -->
<g id="edge39" class="edge">
<title>Neal10&#45;&gt;NealEnd</title>
<path fill="none" stroke="#009985" d="M1261.54,-208.33C1366.07,-189.83 1570.7,-153.62 1654.12,-138.85"/>
<polygon fill="#009985" stroke="#009985" points="1654.6,-142.15 1663.84,-136.96 1653.38,-135.25 1654.6,-142.15"/>
<text text-anchor="middle" x="1527.48" y="-171.3" font-family="Times,serif" font-size="14.00" fill="#009985">No thanks.</text>
</g>
<!-- get_reaction -->
<g id="node29" class="node">
<title>get_reaction</title>
<ellipse fill="#ffffff" stroke="#000000" cx="2408.85" cy="-2029.63" rx="27" ry="18"/>
</g>
<!-- ReactToLevel -->
<g id="node30" class="node">
<title>ReactToLevel</title>
<ellipse fill="#ffffff" stroke="#000000" cx="2552.85" cy="-1822.61" rx="27" ry="18"/>
</g>
<!-- get_reaction&#45;&gt;ReactToLevel -->
<g id="edge40" class="edge">
<title>get_reaction&#45;&gt;ReactToLevel</title>
<path fill="none" stroke="#555555" stroke-dasharray="1,5" d="M2419.91,-2012.89C2444.83,-1977.41 2505.52,-1890.99 2535.51,-1848.3"/>
<polygon fill="#555555" stroke="#555555" points="2538.87,-1850.6 2541.75,-1840.41 2533.14,-1846.58 2538.87,-1850.6"/>
</g>
<!-- LevelToReact -->
<g id="node31" class="node">
<title>LevelToReact</title>
<ellipse fill="#ffffff" stroke="#000000" cx="2804.85" cy="-1822.61" rx="27" ry="18"/>
</g>
<!-- UpReact -->
<g id="node32" class="node">
<title>UpReact</title>
<ellipse fill="#ffffff" stroke="#000000" cx="2480.85" cy="-2029.63" rx="27" ry="18"/>
</g>
<!-- UpReact&#45;&gt;ReactToLevel -->
<g id="edge41" class="edge">
<title>UpReact&#45;&gt;ReactToLevel</title>
<path fill="none" stroke="#555555" stroke-dasharray="1,5" d="M2486.74,-2011.86C2499.16,-1976.49 2528.13,-1894 2543.26,-1850.92"/>
<polygon fill="#555555" stroke="#555555" points="2546.87,-1852.21 2546.88,-1841.62 2540.26,-1849.89 2546.87,-1852.21"/>
</g>
<!-- DownReact -->
<g id="node33" class="node">
<title>DownReact</title>
<ellipse fill="#ffffff" stroke="#000000" cx="2552.85" cy="-2029.63" rx="27" ry="18"/>
</g>
<!-- DownReact&#45;&gt;ReactToLevel -->
<g id="edge42" class="edge">
<title>DownReact&#45;&gt;ReactToLevel</title>
<path fill="none" stroke="#555555" stroke-dasharray="1,5" d="M2552.85,-2011.15C2552.85,-1975.67 2552.85,-1894.92 2552.85,-1851.87"/>
<polygon fill="#555555" stroke="#555555" points="2556.35,-1852.04 2552.85,-1842.04 2549.35,-1852.04 2556.35,-1852.04"/>
</g>
<!-- BottomReact -->
<g id="node34" class="node">
<title>BottomReact</title>
<ellipse fill="#ffffff" stroke="#000000" cx="2912.85" cy="-2029.63" rx="27" ry="18"/>
</g>
<!-- TopReact -->
<g id="node35" class="node">
<title>TopReact</title>
<ellipse fill="#ffffff" stroke="#000000" cx="2984.85" cy="-2029.63" rx="27" ry="18"/>
</g>
<!-- BigUpReact -->
<g id="node36" class="node">
<title>BigUpReact</title>
<ellipse fill="#ffffff" stroke="#000000" cx="2624.85" cy="-2029.63" rx="27" ry="18"/>
</g>
<!-- BigUpReact&#45;&gt;ReactToLevel -->
<g id="edge43" class="edge">
<title>BigUpReact&#45;&gt;ReactToLevel</title>
<path fill="none" stroke="#555555" stroke-dasharray="1,5" d="M2618.96,-2011.86C2606.54,-1976.49 2577.57,-1894 2562.44,-1850.92"/>
<polygon fill="#555555" stroke="#555555" points="2565.44,-1849.89 2558.82,-1841.62 2558.84,-1852.21 2565.44,-1849.89"/>
</g>
<!-- BigDownReact -->
<g id="node37" class="node">
<title>BigDownReact</title>
<ellipse fill="#ffffff" stroke="#000000" cx="2696.85" cy="-2029.63" rx="27" ry="18"/>
</g>
<!-- BigDownReact&#45;&gt;ReactToLevel -->
<g id="edge44" class="edge">
<title>BigDownReact&#45;&gt;ReactToLevel</title>
<path fill="none" stroke="#555555" stroke-dasharray="1,5" d="M2685.79,-2012.89C2660.87,-1977.41 2600.18,-1890.99 2570.2,-1848.3"/>
<polygon fill="#555555" stroke="#555555" points="2572.56,-1846.58 2563.95,-1840.41 2566.83,-1850.6 2572.56,-1846.58"/>
</g>
<!-- UpReactLevel -->
<g id="node38" class="node">
<title>UpReactLevel</title>
<ellipse fill="#ffffff" stroke="#000000" cx="2768.85" cy="-2029.63" rx="27" ry="18"/>
</g>
<!-- UpReactLevel&#45;&gt;LevelToReact -->
<g id="edge45" class="edge">
<title>UpReactLevel&#45;&gt;LevelToReact</title>
<path fill="none" stroke="#555555" stroke-dasharray="1,5" d="M2771.86,-2011.51C2778.08,-1976.08 2792.41,-1894.47 2799.97,-1851.39"/>
<polygon fill="#555555" stroke="#555555" points="2803.54,-1852.28 2801.83,-1841.83 2796.65,-1851.07 2803.54,-1852.28"/>
</g>
<!-- DownReactLevel -->
<g id="node39" class="node">
<title>DownReactLevel</title>
<ellipse fill="#ffffff" stroke="#000000" cx="2840.85" cy="-2029.63" rx="27" ry="18"/>
</g>
<!-- DownReactLevel&#45;&gt;LevelToReact -->
<g id="edge46" class="edge">
<title>DownReactLevel&#45;&gt;LevelToReact</title>
<path fill="none" stroke="#555555" stroke-dasharray="1,5" d="M2837.84,-2011.51C2831.62,-1976.08 2817.29,-1894.47 2809.73,-1851.39"/>
<polygon fill="#555555" stroke="#555555" points="2813.05,-1851.07 2807.88,-1841.83 2806.16,-1852.28 2813.05,-1851.07"/>
</g>
</g>
</svg>
