<?xml version="1.0" encoding="UTF-8" standalone="no"?>
<!DOCTYPE svg PUBLIC "-//W3C//DTD SVG 1.1//EN"
 "http://www.w3.org/Graphics/SVG/1.1/DTD/svg11.dtd">
<!-- Generated by graphviz version 8.0.5 (0)
 -->
<!-- Title: PALADINC Pages: 1 -->
<svg width="392pt" height="920pt"
 viewBox="0.00 0.00 392.05 919.56" xmlns="http://www.w3.org/2000/svg" xmlns:xlink="http://www.w3.org/1999/xlink">
<g id="graph0" class="graph" transform="scale(1 1) rotate(0) translate(4 915.56)">
<title>PALADINC</title>
<polygon fill="white" stroke="none" points="-4,4 -4,-915.56 388.05,-915.56 388.05,4 -4,4"/>
<!-- start -->
<g id="node1" class="node">
<title>start</title>
<ellipse fill="#ffffff" stroke="#000000" cx="213.05" cy="-893.56" rx="27" ry="18"/>
</g>
<!-- look_at_p_proc -->
<g id="node2" class="node">
<title>look_at_p_proc</title>
<ellipse fill="#ffffff" stroke="#000000" cx="48.05" cy="-821.56" rx="48.05" ry="18"/>
<text text-anchor="middle" x="48.05" y="-816.89" font-family="Times,serif" font-size="14.00">Paladin</text>
</g>
<!-- start&#45;&gt;look_at_p_proc -->
<g id="edge1" class="edge">
<title>start&#45;&gt;look_at_p_proc</title>
<path fill="none" stroke="#555555" stroke-dasharray="1,5" d="M190.8,-883.12C164.76,-872.08 121.13,-853.57 88.94,-839.91"/>
<polygon fill="#555555" stroke="#555555" points="90.5,-836.35 79.93,-835.66 87.77,-842.79 90.5,-836.35"/>
</g>
<!-- pickup_p_proc -->
<g id="node3" class="node">
<title>pickup_p_proc</title>
<ellipse fill="#ffffff" stroke="#000000" cx="141.05" cy="-821.56" rx="27" ry="18"/>
</g>
<!-- start&#45;&gt;pickup_p_proc -->
<g id="edge2" class="edge">
<title>start&#45;&gt;pickup_p_proc</title>
<path fill="none" stroke="#555555" stroke-dasharray="1,5" d="M198.13,-878.06C188.19,-868.39 174.93,-855.5 163.7,-844.58"/>
<polygon fill="#555555" stroke="#555555" points="166.56,-842.51 156.95,-838.05 161.68,-847.53 166.56,-842.51"/>
</g>
<!-- talk_p_proc -->
<g id="node4" class="node">
<title>talk_p_proc</title>
<ellipse fill="#ffffff" stroke="#000000" cx="213.05" cy="-821.56" rx="27" ry="18"/>
</g>
<!-- start&#45;&gt;talk_p_proc -->
<g id="edge3" class="edge">
<title>start&#45;&gt;talk_p_proc</title>
<path fill="none" stroke="#555555" stroke-dasharray="1,5" d="M213.05,-875.26C213.05,-867.8 213.05,-858.89 213.05,-850.53"/>
<polygon fill="#555555" stroke="#555555" points="216.55,-850.67 213.05,-840.67 209.55,-850.67 216.55,-850.67"/>
</g>
<!-- critter_p_proc -->
<g id="node5" class="node">
<title>critter_p_proc</title>
<ellipse fill="#ffffff" stroke="#000000" cx="285.05" cy="-821.56" rx="27" ry="18"/>
</g>
<!-- start&#45;&gt;critter_p_proc -->
<g id="edge4" class="edge">
<title>start&#45;&gt;critter_p_proc</title>
<path fill="none" stroke="#555555" stroke-dasharray="1,5" d="M227.97,-878.06C237.91,-868.39 251.17,-855.5 262.4,-844.58"/>
<polygon fill="#555555" stroke="#555555" points="264.42,-847.53 269.15,-838.05 259.54,-842.51 264.42,-847.53"/>
</g>
<!-- destroy_p_proc -->
<g id="node6" class="node">
<title>destroy_p_proc</title>
<ellipse fill="#ffffff" stroke="#000000" cx="357.05" cy="-821.56" rx="27" ry="18"/>
</g>
<!-- start&#45;&gt;destroy_p_proc -->
<g id="edge5" class="edge">
<title>start&#45;&gt;destroy_p_proc</title>
<path fill="none" stroke="#555555" stroke-dasharray="1,5" d="M234.61,-882.08C258.93,-870.26 298.67,-850.94 326.25,-837.53"/>
<polygon fill="#555555" stroke="#555555" points="327.35,-840.41 334.82,-832.89 324.29,-834.11 327.35,-840.41"/>
</g>
<!-- PaladinCRandom -->
<g id="node7" class="node">
<title>PaladinCRandom</title>
<ellipse fill="#ffffff" stroke="#000000" cx="213.05" cy="-383.78" rx="140.71" ry="383.78"/>
<text text-anchor="middle" x="213.05" y="-637.86" font-family="Times,serif" font-size="14.00">Good day, Initiate.</text>
<text text-anchor="middle" x="213.05" y="-620.61" font-family="Times,serif" font-size="14.00">&#45;&#45;&#45;</text>
<text text-anchor="middle" x="213.05" y="-603.36" font-family="Times,serif" font-size="14.00">If you need anything, you</text>
<text text-anchor="middle" x="213.05" y="-586.11" font-family="Times,serif" font-size="14.00">should talk to Vree.</text>
<text text-anchor="middle" x="213.05" y="-568.86" font-family="Times,serif" font-size="14.00">&#45;&#45;&#45;</text>
<text text-anchor="middle" x="213.05" y="-551.61" font-family="Times,serif" font-size="14.00">Vree&#39;s right over there</text>
<text text-anchor="middle" x="213.05" y="-534.36" font-family="Times,serif" font-size="14.00">if you need to talk to</text>
<text text-anchor="middle" x="213.05" y="-517.11" font-family="Times,serif" font-size="14.00">someone.</text>
<text text-anchor="middle" x="213.05" y="-499.86" font-family="Times,serif" font-size="14.00">&#45;&#45;&#45;</text>
<text text-anchor="middle" x="213.05" y="-482.61" font-family="Times,serif" font-size="14.00">I&#39;ve got to find time</text>
<text text-anchor="middle" x="213.05" y="-465.36" font-family="Times,serif" font-size="14.00">between patrols and</text>
<text text-anchor="middle" x="213.05" y="-448.11" font-family="Times,serif" font-size="14.00">training to keep</text>
<text text-anchor="middle" x="213.05" y="-430.86" font-family="Times,serif" font-size="14.00">up with my studies. I</text>
<text text-anchor="middle" x="213.05" y="-413.61" font-family="Times,serif" font-size="14.00">think I&#39;m getting a</text>
<text text-anchor="middle" x="213.05" y="-396.36" font-family="Times,serif" font-size="14.00">little rusty.</text>
<text text-anchor="middle" x="213.05" y="-379.11" font-family="Times,serif" font-size="14.00">&#45;&#45;&#45;</text>
<text text-anchor="middle" x="213.05" y="-361.86" font-family="Times,serif" font-size="14.00">You&#39;ve got to keep your</text>
<text text-anchor="middle" x="213.05" y="-344.61" font-family="Times,serif" font-size="14.00">mind and body in top</text>
<text text-anchor="middle" x="213.05" y="-327.36" font-family="Times,serif" font-size="14.00">condition</text>
<text text-anchor="middle" x="213.05" y="-310.11" font-family="Times,serif" font-size="14.00"> at all times, Initiate.</text>
<text text-anchor="middle" x="213.05" y="-292.86" font-family="Times,serif" font-size="14.00">&#45;&#45;&#45;</text>
<text text-anchor="middle" x="213.05" y="-275.61" font-family="Times,serif" font-size="14.00">Us Scribes design all the</text>
<text text-anchor="middle" x="213.05" y="-258.36" font-family="Times,serif" font-size="14.00">equipment, weapons, and</text>
<text text-anchor="middle" x="213.05" y="-241.11" font-family="Times,serif" font-size="14.00">supplies.</text>
<text text-anchor="middle" x="213.05" y="-223.86" font-family="Times,serif" font-size="14.00"> It&#39;s quite exciting.</text>
<text text-anchor="middle" x="213.05" y="-206.61" font-family="Times,serif" font-size="14.00">&#45;&#45;&#45;</text>
<text text-anchor="middle" x="213.05" y="-189.36" font-family="Times,serif" font-size="14.00">Being a Paladin isn&#39;t</text>
<text text-anchor="middle" x="213.05" y="-172.11" font-family="Times,serif" font-size="14.00">just combat, son.</text>
<text text-anchor="middle" x="213.05" y="-154.86" font-family="Times,serif" font-size="14.00">&#45;&#45;&#45;</text>
<text text-anchor="middle" x="213.05" y="-137.61" font-family="Times,serif" font-size="14.00">Being a Paladin isn&#39;t</text>
<text text-anchor="middle" x="213.05" y="-120.36" font-family="Times,serif" font-size="14.00">just combat, my lady.</text>
</g>
<!-- talk_p_proc&#45;&gt;PaladinCRandom -->
<g id="edge6" class="edge">
<title>talk_p_proc&#45;&gt;PaladinCRandom</title>
<path fill="none" stroke="#555555" stroke-dasharray="1,5" d="M213.05,-803.21C213.05,-796.64 213.05,-788.39 213.05,-778.77"/>
<polygon fill="#555555" stroke="#555555" points="216.55,-778.81 213.05,-768.81 209.55,-778.81 216.55,-778.81"/>
</g>
</g>
</svg>
