<?xml version="1.0" encoding="UTF-8" standalone="no"?>
<!DOCTYPE svg PUBLIC "-//W3C//DTD SVG 1.1//EN"
 "http://www.w3.org/Graphics/SVG/1.1/DTD/svg11.dtd">
<!-- Generated by graphviz version 8.0.5 (0)
 -->
<!-- Title: PEASANTD Pages: 1 -->
<svg width="1176pt" height="578pt"
 viewBox="0.00 0.00 1175.88 577.74" xmlns="http://www.w3.org/2000/svg" xmlns:xlink="http://www.w3.org/1999/xlink">
<g id="graph0" class="graph" transform="scale(1 1) rotate(0) translate(4 573.74)">
<title>PEASANTD</title>
<polygon fill="white" stroke="none" points="-4,4 -4,-573.74 1171.88,-573.74 1171.88,4 -4,4"/>
<!-- start -->
<g id="node1" class="node">
<title>start</title>
<ellipse fill="#ffffff" stroke="#000000" cx="680" cy="-551.74" rx="103.82" ry="18"/>
<text text-anchor="middle" x="680" y="-547.07" font-family="Times,serif" font-size="14.00">You see a peasant.</text>
</g>
<!-- do_dialogue -->
<g id="node2" class="node">
<title>do_dialogue</title>
<ellipse fill="#ffffff" stroke="#000000" cx="495" cy="-321.32" rx="27" ry="18"/>
</g>
<!-- start&#45;&gt;do_dialogue -->
<g id="edge1" class="edge">
<title>start&#45;&gt;do_dialogue</title>
<path fill="none" stroke="#555555" stroke-dasharray="1,5" d="M603.45,-539.33C577.03,-531.7 549.47,-518.98 531,-497.74 494.95,-456.28 491.52,-388.47 492.85,-350.44"/>
<polygon fill="#555555" stroke="#555555" points="496.38,-350.82 493.38,-340.66 489.39,-350.47 496.38,-350.82"/>
</g>
<!-- PeasantD00 -->
<g id="node3" class="node">
<title>PeasantD00</title>
<ellipse fill="#ffffff" stroke="#000000" cx="680" cy="-321.32" rx="140.18" ry="176.42"/>
<text text-anchor="middle" x="680" y="-428.77" font-family="Times,serif" font-size="14.00">Oh, yah, big man running</text>
<text text-anchor="middle" x="680" y="-411.52" font-family="Times,serif" font-size="14.00">from a scary dog. Phil,</text>
<text text-anchor="middle" x="680" y="-394.27" font-family="Times,serif" font-size="14.00">you sure showed it. Yep,</text>
<text text-anchor="middle" x="680" y="-377.02" font-family="Times,serif" font-size="14.00">you sure did.</text>
<text text-anchor="middle" x="680" y="-359.77" font-family="Times,serif" font-size="14.00">&#45;&#45;&#45;</text>
<text text-anchor="middle" x="680" y="-342.52" font-family="Times,serif" font-size="14.00">What you doing, Phil?</text>
<text text-anchor="middle" x="680" y="-325.27" font-family="Times,serif" font-size="14.00">You&#39;re checking the tread</text>
<text text-anchor="middle" x="680" y="-308.02" font-family="Times,serif" font-size="14.00">on those</text>
<text text-anchor="middle" x="680" y="-290.77" font-family="Times,serif" font-size="14.00"> sneakers, aren&#39;t you?</text>
<text text-anchor="middle" x="680" y="-273.52" font-family="Times,serif" font-size="14.00">&#45;&#45;&#45;</text>
<text text-anchor="middle" x="680" y="-256.27" font-family="Times,serif" font-size="14.00">Man, that dog looks</text>
<text text-anchor="middle" x="680" y="-239.02" font-family="Times,serif" font-size="14.00">hungry. It sure wants to</text>
<text text-anchor="middle" x="680" y="-221.77" font-family="Times,serif" font-size="14.00">eat you alive,</text>
<text text-anchor="middle" x="680" y="-204.52" font-family="Times,serif" font-size="14.00"> Phil.</text>
</g>
<!-- start&#45;&gt;PeasantD00 -->
<g id="edge2" class="edge">
<title>start&#45;&gt;PeasantD00</title>
<path fill="none" stroke="#555555" stroke-dasharray="1,5" d="M680,-533.57C680,-526.87 680,-518.49 680,-508.97"/>
<polygon fill="#555555" stroke="#555555" points="683.5,-509.21 680,-499.21 676.5,-509.21 683.5,-509.21"/>
</g>
<!-- go_inside -->
<g id="node4" class="node">
<title>go_inside</title>
<ellipse fill="#ffffff" stroke="#000000" cx="865" cy="-321.32" rx="27" ry="18"/>
</g>
<!-- start&#45;&gt;go_inside -->
<g id="edge3" class="edge">
<title>start&#45;&gt;go_inside</title>
<path fill="none" stroke="#555555" stroke-dasharray="1,5" d="M756.55,-539.33C782.97,-531.7 810.53,-518.98 829,-497.74 865.05,-456.28 868.48,-388.47 867.15,-350.44"/>
<polygon fill="#555555" stroke="#555555" points="870.61,-350.47 866.62,-340.66 863.62,-350.82 870.61,-350.47"/>
</g>
<!-- weapon_check -->
<g id="node5" class="node">
<title>weapon_check</title>
<ellipse fill="#ffffff" stroke="#000000" cx="27" cy="-54.45" rx="27" ry="18"/>
</g>
<!-- do_dialogue&#45;&gt;weapon_check -->
<g id="edge4" class="edge">
<title>do_dialogue&#45;&gt;weapon_check</title>
<path fill="none" stroke="#555555" stroke-dasharray="1,5" d="M470.47,-313.3C400.24,-292.23 194.91,-223.79 63,-108.89 54.23,-101.26 46.65,-91.02 40.74,-81.54"/>
<polygon fill="#555555" stroke="#555555" points="43.28,-79.95 35.2,-73.09 37.24,-83.48 43.28,-79.95"/>
</g>
<!-- PeasantD02 -->
<g id="node6" class="node">
<title>PeasantD02</title>
<ellipse fill="#ffffff" stroke="#000000" cx="209" cy="-54.45" rx="137" ry="30.05"/>
<text text-anchor="middle" x="209" y="-58.4" font-family="Times,serif" font-size="14.00">That sure is a nice pooch</text>
<text text-anchor="middle" x="209" y="-41.15" font-family="Times,serif" font-size="14.00">you have there.</text>
</g>
<!-- do_dialogue&#45;&gt;PeasantD02 -->
<g id="edge5" class="edge">
<title>do_dialogue&#45;&gt;PeasantD02</title>
<path fill="none" stroke="#555555" stroke-dasharray="1,5" d="M479.62,-306.08C436.12,-265.79 311.19,-150.09 247.43,-91.04"/>
<polygon fill="#555555" stroke="#555555" points="250.31,-89.01 240.6,-84.79 245.56,-94.15 250.31,-89.01"/>
</g>
<!-- PeasantD04 -->
<g id="node7" class="node">
<title>PeasantD04</title>
<ellipse fill="#ffffff" stroke="#000000" cx="495" cy="-54.45" rx="130.64" ry="30.05"/>
<text text-anchor="middle" x="495" y="-58.4" font-family="Times,serif" font-size="14.00">Thanks for dealing with</text>
<text text-anchor="middle" x="495" y="-41.15" font-family="Times,serif" font-size="14.00">that dog.</text>
</g>
<!-- do_dialogue&#45;&gt;PeasantD04 -->
<g id="edge6" class="edge">
<title>do_dialogue&#45;&gt;PeasantD04</title>
<path fill="none" stroke="#555555" stroke-dasharray="1,5" d="M495,-302.94C495,-261.2 495,-154.44 495,-95.69"/>
<polygon fill="#555555" stroke="#555555" points="498.5,-95.96 495,-85.96 491.5,-95.96 498.5,-95.96"/>
</g>
<!-- PeasantD01 -->
<g id="node8" class="node">
<title>PeasantD01</title>
<ellipse fill="#ffffff" stroke="#000000" cx="762" cy="-54.45" rx="118.44" ry="54.45"/>
<text text-anchor="middle" x="762" y="-75.65" font-family="Times,serif" font-size="14.00">That might be a little</text>
<text text-anchor="middle" x="762" y="-58.4" font-family="Times,serif" font-size="14.00">overkill for a poor</text>
<text text-anchor="middle" x="762" y="-41.15" font-family="Times,serif" font-size="14.00">defenseless animal,</text>
<text text-anchor="middle" x="762" y="-23.9" font-family="Times,serif" font-size="14.00">doncha think?</text>
</g>
<!-- do_dialogue&#45;&gt;PeasantD01 -->
<g id="edge7" class="edge">
<title>do_dialogue&#45;&gt;PeasantD01</title>
<path fill="none" stroke="#555555" stroke-dasharray="1,5" d="M493.35,-302.95C491.06,-268.4 491.03,-190.47 531,-144.89 563.25,-108.12 589.32,-126.39 635,-108.89 645.16,-105 655.71,-100.81 666.2,-96.54"/>
<polygon fill="#555555" stroke="#555555" points="667.3,-99.46 675.23,-92.43 664.65,-92.99 667.3,-99.46"/>
</g>
<!-- PeasantD03 -->
<g id="node9" class="node">
<title>PeasantD03</title>
<ellipse fill="#ffffff" stroke="#000000" cx="1033" cy="-54.45" rx="134.88" ry="42.25"/>
<text text-anchor="middle" x="1033" y="-67.02" font-family="Times,serif" font-size="14.00">I&#39;m sure Phil would</text>
<text text-anchor="middle" x="1033" y="-49.77" font-family="Times,serif" font-size="14.00">appreciate it if you were</text>
<text text-anchor="middle" x="1033" y="-32.52" font-family="Times,serif" font-size="14.00"> to get rid of his dog.</text>
</g>
<!-- do_dialogue&#45;&gt;PeasantD03 -->
<g id="edge8" class="edge">
<title>do_dialogue&#45;&gt;PeasantD03</title>
<path fill="none" stroke="#555555" stroke-dasharray="1,5" d="M492.58,-302.93C488.71,-267.28 485.65,-185.83 531,-144.89 590.35,-91.32 811.11,-126.95 889,-108.89 906.92,-104.74 925.63,-98.95 943.41,-92.7"/>
<polygon fill="#555555" stroke="#555555" points="944.53,-95.65 952.76,-88.97 942.16,-89.07 944.53,-95.65"/>
</g>
</g>
</svg>
