<?xml version="1.0" encoding="UTF-8" standalone="no"?>
<!DOCTYPE svg PUBLIC "-//W3C//DTD SVG 1.1//EN"
 "http://www.w3.org/Graphics/SVG/1.1/DTD/svg11.dtd">
<!-- Generated by graphviz version 8.0.5 (0)
 -->
<!-- Title: PETROX Pages: 1 -->
<svg width="1637pt" height="1551pt"
 viewBox="0.00 0.00 1637.15 1551.48" xmlns="http://www.w3.org/2000/svg" xmlns:xlink="http://www.w3.org/1999/xlink">
<g id="graph0" class="graph" transform="scale(1 1) rotate(0) translate(4 1547.48)">
<title>PETROX</title>
<polygon fill="white" stroke="none" points="-4,4 -4,-1547.48 1633.15,-1547.48 1633.15,4 -4,4"/>
<!-- start -->
<g id="node1" class="node">
<title>start</title>
<ellipse fill="#ffffff" stroke="#000000" cx="492.65" cy="-1513.43" rx="133.29" ry="30.05"/>
<text text-anchor="middle" x="492.65" y="-1517.38" font-family="Times,serif" font-size="14.00">You see Petrox, a desert</text>
<text text-anchor="middle" x="492.65" y="-1500.13" font-family="Times,serif" font-size="14.00">bandit.</text>
</g>
<!-- talk_p_proc -->
<g id="node2" class="node">
<title>talk_p_proc</title>
<ellipse fill="#ffffff" stroke="#000000" cx="420.65" cy="-1428.38" rx="27" ry="18"/>
</g>
<!-- start&#45;&gt;talk_p_proc -->
<g id="edge1" class="edge">
<title>start&#45;&gt;talk_p_proc</title>
<path fill="none" stroke="#555555" stroke-dasharray="1,5" d="M467.88,-1483.85C458.94,-1473.54 448.98,-1462.05 440.52,-1452.29"/>
<polygon fill="#555555" stroke="#555555" points="442.73,-1450.5 433.53,-1445.23 437.44,-1455.08 442.73,-1450.5"/>
</g>
<!-- Critter_Action -->
<g id="node3" class="node">
<title>Critter_Action</title>
<ellipse fill="#ffffff" stroke="#000000" cx="492.65" cy="-1428.38" rx="27" ry="18"/>
</g>
<!-- start&#45;&gt;Critter_Action -->
<g id="edge2" class="edge">
<title>start&#45;&gt;Critter_Action</title>
<path fill="none" stroke="#555555" stroke-dasharray="1,5" d="M492.65,-1482.91C492.65,-1474.67 492.65,-1465.74 492.65,-1457.58"/>
<polygon fill="#555555" stroke="#555555" points="496.15,-1457.71 492.65,-1447.71 489.15,-1457.71 496.15,-1457.71"/>
</g>
<!-- damage_p_proc -->
<g id="node4" class="node">
<title>damage_p_proc</title>
<ellipse fill="#ffffff" stroke="#000000" cx="564.65" cy="-1428.38" rx="27" ry="18"/>
</g>
<!-- start&#45;&gt;damage_p_proc -->
<g id="edge3" class="edge">
<title>start&#45;&gt;damage_p_proc</title>
<path fill="none" stroke="#555555" stroke-dasharray="1,5" d="M517.43,-1483.85C526.37,-1473.54 536.33,-1462.05 544.79,-1452.29"/>
<polygon fill="#555555" stroke="#555555" points="547.87,-1455.08 551.77,-1445.23 542.58,-1450.5 547.87,-1455.08"/>
</g>
<!-- do_dialogue -->
<g id="node5" class="node">
<title>do_dialogue</title>
<ellipse fill="#ffffff" stroke="#000000" cx="420.65" cy="-1355.38" rx="27" ry="18"/>
</g>
<!-- talk_p_proc&#45;&gt;do_dialogue -->
<g id="edge22" class="edge">
<title>talk_p_proc&#45;&gt;do_dialogue</title>
<path fill="none" stroke="#555555" stroke-dasharray="1,5" d="M420.65,-1410.19C420.65,-1402.43 420.65,-1393.06 420.65,-1384.33"/>
<polygon fill="#555555" stroke="#555555" points="424.15,-1384.41 420.65,-1374.41 417.15,-1384.41 424.15,-1384.41"/>
</g>
<!-- get_reaction -->
<g id="node6" class="node">
<title>get_reaction</title>
<ellipse fill="#ffffff" stroke="#000000" cx="807.65" cy="-1197.14" rx="27" ry="18"/>
</g>
<!-- do_dialogue&#45;&gt;get_reaction -->
<g id="edge4" class="edge">
<title>do_dialogue&#45;&gt;get_reaction</title>
<path fill="none" stroke="#555555" stroke-dasharray="1,5" d="M447.84,-1353.71C521.43,-1351.38 722.3,-1341.31 771.65,-1300.38 793.68,-1282.1 802.24,-1249.45 805.56,-1225.96"/>
<polygon fill="#555555" stroke="#555555" points="809.13,-1226.6 806.81,-1216.26 802.18,-1225.79 809.13,-1226.6"/>
</g>
<!-- petrox10 -->
<g id="node7" class="node">
<title>petrox10</title>
<ellipse fill="#ffffff" stroke="#000000" cx="420.65" cy="-1197.14" rx="126.4" ry="42.25"/>
<text text-anchor="middle" x="420.65" y="-1209.71" font-family="Times,serif" font-size="14.00">I have told you all that</text>
<text text-anchor="middle" x="420.65" y="-1192.46" font-family="Times,serif" font-size="14.00">I am permitted. Please</text>
<text text-anchor="middle" x="420.65" y="-1175.21" font-family="Times,serif" font-size="14.00">go.</text>
</g>
<!-- do_dialogue&#45;&gt;petrox10 -->
<g id="edge5" class="edge">
<title>do_dialogue&#45;&gt;petrox10</title>
<path fill="none" stroke="#555555" stroke-dasharray="1,5" d="M420.65,-1337.06C420.65,-1316.33 420.65,-1280.64 420.65,-1250.63"/>
<polygon fill="#555555" stroke="#555555" points="424.15,-1250.87 420.65,-1240.87 417.15,-1250.87 424.15,-1250.87"/>
</g>
<!-- petrox00 -->
<g id="node8" class="node">
<title>petrox00</title>
<ellipse fill="#ffffff" stroke="#000000" cx="139.65" cy="-1197.14" rx="137" ry="103.24"/>
<text text-anchor="middle" x="139.65" y="-1252.84" font-family="Times,serif" font-size="14.00">Greetings! I am Petrox. I</text>
<text text-anchor="middle" x="139.65" y="-1235.59" font-family="Times,serif" font-size="14.00">am one of Garl&#39;s lead</text>
<text text-anchor="middle" x="139.65" y="-1218.34" font-family="Times,serif" font-size="14.00">raiders. Who are you?</text>
<text text-anchor="middle" x="139.65" y="-1201.09" font-family="Times,serif" font-size="14.00">&#45;&#45;&#45;</text>
<text text-anchor="middle" x="139.65" y="-1183.84" font-family="Times,serif" font-size="14.00">I&#39;m </text>
<text text-anchor="middle" x="139.65" y="-1166.59" font-family="Times,serif" font-size="14.00">&#45;&#45;&#45;</text>
<text text-anchor="middle" x="139.65" y="-1149.34" font-family="Times,serif" font-size="14.00">. What do you do as a</text>
<text text-anchor="middle" x="139.65" y="-1132.09" font-family="Times,serif" font-size="14.00">raider?</text>
</g>
<!-- do_dialogue&#45;&gt;petrox00 -->
<g id="edge6" class="edge">
<title>do_dialogue&#45;&gt;petrox00</title>
<path fill="none" stroke="#555555" stroke-dasharray="1,5" d="M396.49,-1346.61C368.89,-1337.3 322.74,-1320.43 285.65,-1300.38 272.38,-1293.2 258.87,-1285.05 245.7,-1276.56"/>
<polygon fill="#555555" stroke="#555555" points="247.92,-1273.18 237.63,-1270.63 244.09,-1279.03 247.92,-1273.18"/>
</g>
<!-- ReactToLevel -->
<g id="node20" class="node">
<title>ReactToLevel</title>
<ellipse fill="#ffffff" stroke="#000000" cx="731.65" cy="-836.87" rx="27" ry="18"/>
</g>
<!-- get_reaction&#45;&gt;ReactToLevel -->
<g id="edge23" class="edge">
<title>get_reaction&#45;&gt;ReactToLevel</title>
<path fill="none" stroke="#555555" stroke-dasharray="1,5" d="M803.99,-1178.86C791.8,-1121.4 752.55,-936.37 737.55,-865.68"/>
<polygon fill="#555555" stroke="#555555" points="740.78,-865.04 735.28,-855.98 733.93,-866.49 740.78,-865.04"/>
</g>
<!-- petrox02 -->
<g id="node9" class="node">
<title>petrox02</title>
<ellipse fill="#ffffff" stroke="#000000" cx="520.65" cy="-836.87" rx="143.9" ry="152.03"/>
<text text-anchor="middle" x="520.65" y="-927.07" font-family="Times,serif" font-size="14.00">Well, it&#39;s nice that you</text>
<text text-anchor="middle" x="520.65" y="-909.82" font-family="Times,serif" font-size="14.00">think that you are so</text>
<text text-anchor="middle" x="520.65" y="-892.57" font-family="Times,serif" font-size="14.00">important that you don&#39;t</text>
<text text-anchor="middle" x="520.65" y="-875.32" font-family="Times,serif" font-size="14.00">need a</text>
<text text-anchor="middle" x="520.65" y="-858.07" font-family="Times,serif" font-size="14.00">name to go around here.</text>
<text text-anchor="middle" x="520.65" y="-840.82" font-family="Times,serif" font-size="14.00">But, I will at least tell</text>
<text text-anchor="middle" x="520.65" y="-823.57" font-family="Times,serif" font-size="14.00">you a little about us. We</text>
<text text-anchor="middle" x="520.65" y="-806.32" font-family="Times,serif" font-size="14.00">are the toughest people</text>
<text text-anchor="middle" x="520.65" y="-789.07" font-family="Times,serif" font-size="14.00">in the wastelands. No one</text>
<text text-anchor="middle" x="520.65" y="-771.82" font-family="Times,serif" font-size="14.00">can stand against us. Not</text>
<text text-anchor="middle" x="520.65" y="-754.57" font-family="Times,serif" font-size="14.00">even those wimps from</text>
<text text-anchor="middle" x="520.65" y="-737.32" font-family="Times,serif" font-size="14.00">Shady Sands or Junktown.</text>
</g>
<!-- petrox00&#45;&gt;petrox02 -->
<g id="edge7" class="edge">
<title>petrox00&#45;&gt;petrox02</title>
<path fill="none" stroke="#99005f" d="M224.68,-1116.18C278,-1066.05 347.4,-1000.79 405.6,-946.06"/>
<polygon fill="#99005f" stroke="#99005f" points="407.48,-949.16 412.37,-939.76 402.69,-944.06 407.48,-949.16"/>
<text text-anchor="middle" x="428.15" y="-1062.6" font-family="Times,serif" font-size="14.00" fill="#99005f">My name is unimportant at</text>
<text text-anchor="middle" x="428.15" y="-1045.35" font-family="Times,serif" font-size="14.00" fill="#99005f">the moment. Can you tell</text>
<text text-anchor="middle" x="428.15" y="-1028.1" font-family="Times,serif" font-size="14.00" fill="#99005f">me something about your</text>
<text text-anchor="middle" x="428.15" y="-1010.85" font-family="Times,serif" font-size="14.00" fill="#99005f">camp?</text>
</g>
<!-- petrox03 -->
<g id="node10" class="node">
<title>petrox03</title>
<ellipse fill="#ffffff" stroke="#000000" cx="139.65" cy="-836.87" rx="139.65" ry="54.45"/>
<text text-anchor="middle" x="139.65" y="-858.07" font-family="Times,serif" font-size="14.00">I am sorry, but I don&#39;t</text>
<text text-anchor="middle" x="139.65" y="-840.82" font-family="Times,serif" font-size="14.00">have time to waste on</text>
<text text-anchor="middle" x="139.65" y="-823.57" font-family="Times,serif" font-size="14.00">those who are slow. Good</text>
<text text-anchor="middle" x="139.65" y="-806.32" font-family="Times,serif" font-size="14.00">bye.</text>
</g>
<!-- petrox00&#45;&gt;petrox03 -->
<g id="edge8" class="edge">
<title>petrox00&#45;&gt;petrox03</title>
<path fill="none" stroke="#008c99" d="M139.65,-1093.47C139.65,-1031.99 139.65,-955.71 139.65,-902.56"/>
<polygon fill="#008c99" stroke="#008c99" points="143.15,-902.58 139.65,-892.58 136.15,-902.58 143.15,-902.58"/>
<text text-anchor="middle" x="161.03" y="-1036.73" font-family="Times,serif" font-size="14.00" fill="#008c99">Hroo?</text>
</g>
<!-- petrox07 -->
<g id="node15" class="node">
<title>petrox07</title>
<ellipse fill="#ffffff" stroke="#000000" cx="536.65" cy="-547.7" rx="150.26" ry="66.64"/>
<text text-anchor="middle" x="536.65" y="-577.53" font-family="Times,serif" font-size="14.00">Shady Sands is a fertile</text>
<text text-anchor="middle" x="536.65" y="-560.28" font-family="Times,serif" font-size="14.00">community. They are happy</text>
<text text-anchor="middle" x="536.65" y="-543.03" font-family="Times,serif" font-size="14.00">to, um,</text>
<text text-anchor="middle" x="536.65" y="-525.78" font-family="Times,serif" font-size="14.00">share their bounty with</text>
<text text-anchor="middle" x="536.65" y="-508.53" font-family="Times,serif" font-size="14.00">us.</text>
</g>
<!-- petrox02&#45;&gt;petrox07 -->
<g id="edge12" class="edge">
<title>petrox02&#45;&gt;petrox07</title>
<path fill="none" stroke="#99000c" d="M518.76,-684.58C519.37,-666.95 520.37,-649.24 521.9,-632.35 522.12,-629.96 522.37,-627.54 522.64,-625.1"/>
<polygon fill="#99000c" stroke="#99000c" points="526.22,-625.67 524.01,-615.31 519.28,-624.79 526.22,-625.67"/>
<text text-anchor="middle" x="616.03" y="-644.92" font-family="Times,serif" font-size="14.00" fill="#99000c">What about Shady Sands?</text>
</g>
<!-- petrox08 -->
<g id="node16" class="node">
<title>petrox08</title>
<ellipse fill="#ffffff" stroke="#000000" cx="722.65" cy="-258.53" rx="156.62" ry="152.03"/>
<text text-anchor="middle" x="722.65" y="-348.73" font-family="Times,serif" font-size="14.00">Junktown is a little bit</text>
<text text-anchor="middle" x="722.65" y="-331.48" font-family="Times,serif" font-size="14.00">south of here. They have</text>
<text text-anchor="middle" x="722.65" y="-314.23" font-family="Times,serif" font-size="14.00">many good women.</text>
<text text-anchor="middle" x="722.65" y="-296.98" font-family="Times,serif" font-size="14.00">Say . . . I can show you</text>
<text text-anchor="middle" x="722.65" y="-279.73" font-family="Times,serif" font-size="14.00">around sometime, maybe we</text>
<text text-anchor="middle" x="722.65" y="-262.48" font-family="Times,serif" font-size="14.00">can</text>
<text text-anchor="middle" x="722.65" y="-245.23" font-family="Times,serif" font-size="14.00">get to know each other</text>
<text text-anchor="middle" x="722.65" y="-227.98" font-family="Times,serif" font-size="14.00">better . . . whaddya say?</text>
<text text-anchor="middle" x="722.65" y="-210.73" font-family="Times,serif" font-size="14.00">&#45;&#45;&#45;</text>
<text text-anchor="middle" x="722.65" y="-193.48" font-family="Times,serif" font-size="14.00">Junktown is a little bit</text>
<text text-anchor="middle" x="722.65" y="-176.23" font-family="Times,serif" font-size="14.00">south of here. They have</text>
<text text-anchor="middle" x="722.65" y="-158.98" font-family="Times,serif" font-size="14.00">many good women.</text>
</g>
<!-- petrox02&#45;&gt;petrox08 -->
<g id="edge13" class="edge">
<title>petrox02&#45;&gt;petrox08</title>
<path fill="none" stroke="#003999" d="M632.8,-741.33C670.19,-708.61 703.7,-677.46 708.65,-666.85 719.09,-644.47 722.31,-525.44 723.08,-421.78"/>
<polygon fill="#003999" stroke="#003999" points="726.58,-421.87 723.15,-411.84 719.58,-421.82 726.58,-421.87"/>
<text text-anchor="middle" x="789.03" y="-543.03" font-family="Times,serif" font-size="14.00" fill="#003999">What is Junktown?</text>
</g>
<!-- petrox01 -->
<g id="node11" class="node">
<title>petrox01</title>
<ellipse fill="#ffffff" stroke="#000000" cx="1125.65" cy="-1197.14" rx="127.46" ry="66.64"/>
<text text-anchor="middle" x="1125.65" y="-1226.96" font-family="Times,serif" font-size="14.00">As a raider, I get to</text>
<text text-anchor="middle" x="1125.65" y="-1209.71" font-family="Times,serif" font-size="14.00">travel to many parts of</text>
<text text-anchor="middle" x="1125.65" y="-1192.46" font-family="Times,serif" font-size="14.00">the wasteland. In my</text>
<text text-anchor="middle" x="1125.65" y="-1175.21" font-family="Times,serif" font-size="14.00">travels, I get supplies</text>
<text text-anchor="middle" x="1125.65" y="-1157.96" font-family="Times,serif" font-size="14.00">for the camp.</text>
</g>
<!-- petrox04 -->
<g id="node12" class="node">
<title>petrox04</title>
<ellipse fill="#ffffff" stroke="#000000" cx="1468.65" cy="-836.87" rx="147.61" ry="66.64"/>
<text text-anchor="middle" x="1468.65" y="-866.7" font-family="Times,serif" font-size="14.00">We never steal. We just</text>
<text text-anchor="middle" x="1468.65" y="-849.45" font-family="Times,serif" font-size="14.00">take the extra that</text>
<text text-anchor="middle" x="1468.65" y="-832.2" font-family="Times,serif" font-size="14.00">others have and</text>
<text text-anchor="middle" x="1468.65" y="-814.95" font-family="Times,serif" font-size="14.00">redistribute it</text>
<text text-anchor="middle" x="1468.65" y="-797.7" font-family="Times,serif" font-size="14.00"> among our hungry people.</text>
</g>
<!-- petrox01&#45;&gt;petrox04 -->
<g id="edge9" class="edge">
<title>petrox01&#45;&gt;petrox04</title>
<path fill="none" stroke="#997900" d="M1182.29,-1136.98C1243.03,-1073.54 1339.34,-972.95 1403.25,-906.18"/>
<polygon fill="#997900" stroke="#997900" points="1405.11,-909.26 1409.5,-899.62 1400.05,-904.42 1405.11,-909.26"/>
<text text-anchor="middle" x="1385.9" y="-1053.98" font-family="Times,serif" font-size="14.00" fill="#997900">In other words, you steal</text>
<text text-anchor="middle" x="1385.9" y="-1036.73" font-family="Times,serif" font-size="14.00" fill="#997900">from the people you go</text>
<text text-anchor="middle" x="1385.9" y="-1019.48" font-family="Times,serif" font-size="14.00" fill="#997900">to.</text>
</g>
<!-- petroxend -->
<g id="node13" class="node">
<title>petroxend</title>
<ellipse fill="#ffffff" stroke="#000000" cx="1174.65" cy="-547.7" rx="27" ry="18"/>
</g>
<!-- petrox01&#45;&gt;petroxend -->
<g id="edge10" class="edge">
<title>petrox01&#45;&gt;petroxend</title>
<path fill="none" stroke="#4d0099" d="M1121.22,-1130.29C1115.9,-1032.46 1110.44,-843.25 1134.65,-684.85 1140.58,-646.11 1154.58,-602.94 1164.34,-575.81"/>
<polygon fill="#4d0099" stroke="#4d0099" points="1167.94,-577.15 1168.1,-566.56 1161.37,-574.74 1167.94,-577.15"/>
<text text-anchor="middle" x="1223.15" y="-849.45" font-family="Times,serif" font-size="14.00" fill="#4d0099">Hey, that&#39;s really great</text>
<text text-anchor="middle" x="1223.15" y="-832.2" font-family="Times,serif" font-size="14.00" fill="#4d0099">of you. I&#39;m sure that</text>
<text text-anchor="middle" x="1223.15" y="-814.95" font-family="Times,serif" font-size="14.00" fill="#4d0099">Garl is pleased with you.</text>
</g>
<!-- petrox05 -->
<g id="node14" class="node">
<title>petrox05</title>
<ellipse fill="#ffffff" stroke="#000000" cx="916.65" cy="-836.87" rx="140.18" ry="115.44"/>
<text text-anchor="middle" x="916.65" y="-901.2" font-family="Times,serif" font-size="14.00">I&#39;ve been to many places</text>
<text text-anchor="middle" x="916.65" y="-883.95" font-family="Times,serif" font-size="14.00">in the wastelands. The</text>
<text text-anchor="middle" x="916.65" y="-866.7" font-family="Times,serif" font-size="14.00">closest places that I&#39;ve</text>
<text text-anchor="middle" x="916.65" y="-849.45" font-family="Times,serif" font-size="14.00">been to are Shady Sands</text>
<text text-anchor="middle" x="916.65" y="-832.2" font-family="Times,serif" font-size="14.00">and Junktown. Not much</text>
<text text-anchor="middle" x="916.65" y="-814.95" font-family="Times,serif" font-size="14.00">happens in those places,</text>
<text text-anchor="middle" x="916.65" y="-797.7" font-family="Times,serif" font-size="14.00">but</text>
<text text-anchor="middle" x="916.65" y="-780.45" font-family="Times,serif" font-size="14.00">they are always full of</text>
<text text-anchor="middle" x="916.65" y="-763.2" font-family="Times,serif" font-size="14.00">information and supplies.</text>
</g>
<!-- petrox01&#45;&gt;petrox05 -->
<g id="edge11" class="edge">
<title>petrox01&#45;&gt;petrox05</title>
<path fill="none" stroke="#009920" d="M1018.62,-1160.51C979.67,-1141.77 939.75,-1114.46 917.4,-1075.9 897.8,-1042.07 892.59,-1000.74 893.8,-962.07"/>
<polygon fill="#009920" stroke="#009920" points="897.34,-962.4 894.31,-952.24 890.34,-962.07 897.34,-962.4"/>
<text text-anchor="middle" x="1013.78" y="-1045.35" font-family="Times,serif" font-size="14.00" fill="#009920">What places have you been</text>
<text text-anchor="middle" x="1013.78" y="-1028.1" font-family="Times,serif" font-size="14.00" fill="#009920">to?</text>
</g>
<!-- petrox04&#45;&gt;petroxend -->
<g id="edge15" class="edge">
<title>petrox04&#45;&gt;petroxend</title>
<path fill="none" stroke="#990092" d="M1404.77,-776.65C1370.41,-744.49 1327.49,-703.85 1289.9,-666.85 1256.66,-634.12 1219.09,-595.23 1196.14,-571.26"/>
<polygon fill="#990092" stroke="#990092" points="1199.1,-569.25 1189.66,-564.44 1194.04,-574.08 1199.1,-569.25"/>
<text text-anchor="middle" x="1377.03" y="-653.55" font-family="Times,serif" font-size="14.00" fill="#990092">That sounds like a really</text>
<text text-anchor="middle" x="1377.03" y="-636.3" font-family="Times,serif" font-size="14.00" fill="#990092">great idea.</text>
</g>
<!-- petrox06 -->
<g id="node17" class="node">
<title>petrox06</title>
<ellipse fill="#ffffff" stroke="#000000" cx="1468.65" cy="-547.7" rx="137" ry="54.45"/>
<text text-anchor="middle" x="1468.65" y="-568.9" font-family="Times,serif" font-size="14.00">You are starting to</text>
<text text-anchor="middle" x="1468.65" y="-551.65" font-family="Times,serif" font-size="14.00">become annoying now. I</text>
<text text-anchor="middle" x="1468.65" y="-534.4" font-family="Times,serif" font-size="14.00">think I will</text>
<text text-anchor="middle" x="1468.65" y="-517.15" font-family="Times,serif" font-size="14.00"> end that slight problem.</text>
</g>
<!-- petrox04&#45;&gt;petrox06 -->
<g id="edge14" class="edge">
<title>petrox04&#45;&gt;petrox06</title>
<path fill="none" stroke="#669900" d="M1468.65,-769.99C1468.65,-722.93 1468.65,-659.92 1468.65,-613.18"/>
<polygon fill="#669900" stroke="#669900" points="1472.15,-613.27 1468.65,-603.27 1465.15,-613.27 1472.15,-613.27"/>
<text text-anchor="middle" x="1548.9" y="-653.55" font-family="Times,serif" font-size="14.00" fill="#669900">So, basically, you steal</text>
<text text-anchor="middle" x="1548.9" y="-636.3" font-family="Times,serif" font-size="14.00" fill="#669900">it.</text>
</g>
<!-- petrox05&#45;&gt;petrox07 -->
<g id="edge16" class="edge">
<title>petrox05&#45;&gt;petrox07</title>
<path fill="none" stroke="#009973" d="M831.72,-744.5C788.28,-699.06 739.28,-650.12 713.65,-632.35 695.89,-620.03 676.03,-608.67 656.21,-598.55"/>
<polygon fill="#009973" stroke="#009973" points="658.01,-595.03 647.5,-593.68 654.87,-601.29 658.01,-595.03"/>
<text text-anchor="middle" x="822.4" y="-653.55" font-family="Times,serif" font-size="14.00" fill="#009973">Tell me about Shady</text>
<text text-anchor="middle" x="822.4" y="-636.3" font-family="Times,serif" font-size="14.00" fill="#009973">Sands.</text>
</g>
<!-- petrox05&#45;&gt;petrox08 -->
<g id="edge17" class="edge">
<title>petrox05&#45;&gt;petrox08</title>
<path fill="none" stroke="#994600" d="M910.6,-721.06C908.1,-691.99 904.58,-660.91 899.65,-632.35 887.82,-563.81 887.13,-544.95 859.65,-481.06 847.21,-452.13 831.41,-422.55 814.98,-394.82"/>
<polygon fill="#994600" stroke="#994600" points="817.53,-393.26 809.39,-386.48 811.53,-396.86 817.53,-393.26"/>
<text text-anchor="middle" x="981.9" y="-543.03" font-family="Times,serif" font-size="14.00" fill="#994600">Tell me about Junktown.</text>
</g>
<!-- petrox07&#45;&gt;petrox08 -->
<g id="edge19" class="edge">
<title>petrox07&#45;&gt;petrox08</title>
<path fill="none" stroke="#1a0099" d="M541.47,-480.68C544.61,-463.05 549.7,-444.49 557.9,-428.56 568.77,-407.45 583.15,-387.24 598.9,-368.6"/>
<polygon fill="#1a0099" stroke="#1a0099" points="602.07,-371.28 605.98,-361.43 596.78,-366.7 602.07,-371.28"/>
<text text-anchor="middle" x="634.03" y="-449.76" font-family="Times,serif" font-size="14.00" fill="#1a0099">What can you tell me</text>
<text text-anchor="middle" x="634.03" y="-432.51" font-family="Times,serif" font-size="14.00" fill="#1a0099">about Junktown?</text>
</g>
<!-- petrox09 -->
<g id="node19" class="node">
<title>petrox09</title>
<ellipse fill="#ffffff" stroke="#000000" cx="722.65" cy="-18" rx="103.29" ry="18"/>
<text text-anchor="middle" x="722.65" y="-13.32" font-family="Times,serif" font-size="14.00">Sure, maybe later.</text>
</g>
<!-- petrox08&#45;&gt;petrox09 -->
<g id="edge20" class="edge">
<title>petrox08&#45;&gt;petrox09</title>
<path fill="none" stroke="#139900" d="M624.44,-139.65C611.53,-110.56 608.29,-80.25 626.65,-54 631.52,-47.05 637.91,-41.48 645.1,-37.01"/>
<polygon fill="#139900" stroke="#139900" points="646.42,-39.73 653.57,-31.91 643.1,-33.57 646.42,-39.73"/>
<text text-anchor="middle" x="712.15" y="-75.2" font-family="Times,serif" font-size="14.00" fill="#139900">No thanks, maybe some</text>
<text text-anchor="middle" x="712.15" y="-57.95" font-family="Times,serif" font-size="14.00" fill="#139900">other time.</text>
</g>
<!-- petrox08&#45;&gt;petrox09 -->
<g id="edge21" class="edge">
<title>petrox08&#45;&gt;petrox09</title>
<path fill="none" stroke="#990040" d="M788.93,-120.74C792.41,-110 795.39,-99.18 797.65,-88.5 800.83,-73.5 805.89,-66.93 797.65,-54 794.06,-48.35 789.29,-43.6 783.89,-39.61"/>
<polygon fill="#990040" stroke="#990040" points="786.28,-36.35 775.96,-33.94 782.52,-42.25 786.28,-36.35"/>
<text text-anchor="middle" x="865.4" y="-66.58" font-family="Times,serif" font-size="14.00" fill="#990040">Well, maybe later.</text>
</g>
<!-- combat -->
<g id="node18" class="node">
<title>combat</title>
<ellipse fill="#ffffff" stroke="#000000" cx="1468.65" cy="-258.53" rx="27" ry="18"/>
</g>
<!-- petrox06&#45;&gt;combat -->
<g id="edge18" class="edge">
<title>petrox06&#45;&gt;combat</title>
<path fill="none" stroke="#555555" stroke-dasharray="1,5" d="M1468.65,-493.02C1468.65,-432.26 1468.65,-335.56 1468.65,-287.93"/>
<polygon fill="#555555" stroke="#555555" points="1472.15,-287.93 1468.65,-277.93 1465.15,-287.93 1472.15,-287.93"/>
</g>
<!-- LevelToReact -->
<g id="node21" class="node">
<title>LevelToReact</title>
<ellipse fill="#ffffff" stroke="#000000" cx="706.65" cy="-1428.38" rx="27" ry="18"/>
</g>
<!-- UpReact -->
<g id="node22" class="node">
<title>UpReact</title>
<ellipse fill="#ffffff" stroke="#000000" cx="879.65" cy="-1197.14" rx="27" ry="18"/>
</g>
<!-- UpReact&#45;&gt;ReactToLevel -->
<g id="edge24" class="edge">
<title>UpReact&#45;&gt;ReactToLevel</title>
<path fill="none" stroke="#555555" stroke-dasharray="1,5" d="M874.92,-1179.02C868.9,-1158.33 857.6,-1122.69 843.65,-1093.9 823.71,-1052.73 818.57,-1041.5 788.65,-1006.9 780.61,-997.6 774.06,-999.39 767.65,-988.9 744.14,-950.38 735.98,-897.64 733.15,-865.76"/>
<polygon fill="#555555" stroke="#555555" points="736.59,-865.73 732.34,-856.03 729.61,-866.26 736.59,-865.73"/>
</g>
<!-- DownReact -->
<g id="node23" class="node">
<title>DownReact</title>
<ellipse fill="#ffffff" stroke="#000000" cx="591.65" cy="-1197.14" rx="27" ry="18"/>
</g>
<!-- DownReact&#45;&gt;ReactToLevel -->
<g id="edge25" class="edge">
<title>DownReact&#45;&gt;ReactToLevel</title>
<path fill="none" stroke="#555555" stroke-dasharray="1,5" d="M597.14,-1179.35C603.89,-1158.98 615.91,-1123.66 627.65,-1093.9 646.35,-1046.51 654.29,-1036.03 673.65,-988.9 691.33,-945.86 710.42,-895.28 721.69,-864.95"/>
<polygon fill="#555555" stroke="#555555" points="725.28,-866.33 725.47,-855.74 718.71,-863.9 725.28,-866.33"/>
</g>
<!-- BottomReact -->
<g id="node24" class="node">
<title>BottomReact</title>
<ellipse fill="#ffffff" stroke="#000000" cx="814.65" cy="-1513.43" rx="27" ry="18"/>
</g>
<!-- TopReact -->
<g id="node25" class="node">
<title>TopReact</title>
<ellipse fill="#ffffff" stroke="#000000" cx="886.65" cy="-1513.43" rx="27" ry="18"/>
</g>
<!-- BigUpReact -->
<g id="node26" class="node">
<title>BigUpReact</title>
<ellipse fill="#ffffff" stroke="#000000" cx="735.65" cy="-1197.14" rx="27" ry="18"/>
</g>
<!-- BigUpReact&#45;&gt;ReactToLevel -->
<g id="edge26" class="edge">
<title>BigUpReact&#45;&gt;ReactToLevel</title>
<path fill="none" stroke="#555555" stroke-dasharray="1,5" d="M735.46,-1178.86C734.82,-1121.4 732.75,-936.37 731.96,-865.68"/>
<polygon fill="#555555" stroke="#555555" points="735.46,-865.94 731.84,-855.98 728.46,-866.02 735.46,-865.94"/>
</g>
<!-- BigDownReact -->
<g id="node27" class="node">
<title>BigDownReact</title>
<ellipse fill="#ffffff" stroke="#000000" cx="663.65" cy="-1197.14" rx="27" ry="18"/>
</g>
<!-- BigDownReact&#45;&gt;ReactToLevel -->
<g id="edge27" class="edge">
<title>BigDownReact&#45;&gt;ReactToLevel</title>
<path fill="none" stroke="#555555" stroke-dasharray="1,5" d="M666.93,-1178.86C677.84,-1121.4 712.96,-936.37 726.38,-865.68"/>
<polygon fill="#555555" stroke="#555555" points="729.98,-866.46 728.41,-855.98 723.1,-865.15 729.98,-866.46"/>
</g>
<!-- UpReactLevel -->
<g id="node28" class="node">
<title>UpReactLevel</title>
<ellipse fill="#ffffff" stroke="#000000" cx="670.65" cy="-1513.43" rx="27" ry="18"/>
</g>
<!-- UpReactLevel&#45;&gt;LevelToReact -->
<g id="edge28" class="edge">
<title>UpReactLevel&#45;&gt;LevelToReact</title>
<path fill="none" stroke="#555555" stroke-dasharray="1,5" d="M677.94,-1495.62C682.87,-1484.25 689.48,-1469 695.12,-1455.99"/>
<polygon fill="#555555" stroke="#555555" points="698.61,-1457.73 699.38,-1447.16 692.19,-1454.94 698.61,-1457.73"/>
</g>
<!-- DownReactLevel -->
<g id="node29" class="node">
<title>DownReactLevel</title>
<ellipse fill="#ffffff" stroke="#000000" cx="742.65" cy="-1513.43" rx="27" ry="18"/>
</g>
<!-- DownReactLevel&#45;&gt;LevelToReact -->
<g id="edge29" class="edge">
<title>DownReactLevel&#45;&gt;LevelToReact</title>
<path fill="none" stroke="#555555" stroke-dasharray="1,5" d="M735.37,-1495.62C730.44,-1484.25 723.83,-1469 718.19,-1455.99"/>
<polygon fill="#555555" stroke="#555555" points="721.12,-1454.94 713.93,-1447.16 714.69,-1457.73 721.12,-1454.94"/>
</g>
<!-- Goodbyes -->
<g id="node30" class="node">
<title>Goodbyes</title>
<ellipse fill="#ffffff" stroke="#000000" cx="958.65" cy="-1513.43" rx="27" ry="18"/>
</g>
</g>
</svg>
