<?xml version="1.0" encoding="UTF-8" standalone="no"?>
<!DOCTYPE svg PUBLIC "-//W3C//DTD SVG 1.1//EN"
 "http://www.w3.org/Graphics/SVG/1.1/DTD/svg11.dtd">
<!-- Generated by graphviz version 8.0.5 (0)
 -->
<!-- Title: RAIDPRIS Pages: 1 -->
<svg width="1527pt" height="548pt"
 viewBox="0.00 0.00 1526.96 548.50" xmlns="http://www.w3.org/2000/svg" xmlns:xlink="http://www.w3.org/1999/xlink">
<g id="graph0" class="graph" transform="scale(1 1) rotate(0) translate(4 544.5)">
<title>RAIDPRIS</title>
<polygon fill="white" stroke="none" points="-4,4 -4,-544.5 1522.96,-544.5 1522.96,4 -4,4"/>
<!-- start -->
<g id="node1" class="node">
<title>start</title>
<ellipse fill="#ffffff" stroke="#000000" cx="733.96" cy="-498.25" rx="131.17" ry="30.05"/>
<text text-anchor="middle" x="733.96" y="-502.2" font-family="Times,serif" font-size="14.00">You see a dejected</text>
<text text-anchor="middle" x="733.96" y="-484.95" font-family="Times,serif" font-size="14.00">prisoner of the Raiders.</text>
</g>
<!-- do_dialogue -->
<g id="node2" class="node">
<title>do_dialogue</title>
<ellipse fill="#ffffff" stroke="#000000" cx="661.96" cy="-401" rx="27" ry="18"/>
</g>
<!-- start&#45;&gt;do_dialogue -->
<g id="edge1" class="edge">
<title>start&#45;&gt;do_dialogue</title>
<path fill="none" stroke="#555555" stroke-dasharray="1,5" d="M711.96,-468.15C701.85,-454.77 689.98,-439.07 680.35,-426.33"/>
<polygon fill="#555555" stroke="#555555" points="682.61,-424.51 673.79,-418.65 677.02,-428.73 682.61,-424.51"/>
</g>
<!-- Critter_Action -->
<g id="node3" class="node">
<title>Critter_Action</title>
<ellipse fill="#ffffff" stroke="#000000" cx="733.96" cy="-401" rx="27" ry="18"/>
</g>
<!-- start&#45;&gt;Critter_Action -->
<g id="edge2" class="edge">
<title>start&#45;&gt;Critter_Action</title>
<path fill="none" stroke="#555555" stroke-dasharray="1,5" d="M733.96,-467.89C733.96,-455.88 733.96,-442.04 733.96,-430.15"/>
<polygon fill="#555555" stroke="#555555" points="737.46,-430.48 733.96,-420.48 730.46,-430.48 737.46,-430.48"/>
</g>
<!-- damage_p_proc -->
<g id="node4" class="node">
<title>damage_p_proc</title>
<ellipse fill="#ffffff" stroke="#000000" cx="805.96" cy="-401" rx="27" ry="18"/>
</g>
<!-- start&#45;&gt;damage_p_proc -->
<g id="edge3" class="edge">
<title>start&#45;&gt;damage_p_proc</title>
<path fill="none" stroke="#555555" stroke-dasharray="1,5" d="M755.95,-468.15C766.07,-454.77 777.93,-439.07 787.56,-426.33"/>
<polygon fill="#555555" stroke="#555555" points="790.89,-428.73 794.13,-418.65 785.31,-424.51 790.89,-428.73"/>
</g>
<!-- get_reaction -->
<g id="node5" class="node">
<title>get_reaction</title>
<ellipse fill="#ffffff" stroke="#000000" cx="985.96" cy="-315.95" rx="27" ry="18"/>
</g>
<!-- do_dialogue&#45;&gt;get_reaction -->
<g id="edge4" class="edge">
<title>do_dialogue&#45;&gt;get_reaction</title>
<path fill="none" stroke="#555555" stroke-dasharray="1,5" d="M682.48,-389.03C687.44,-386.75 692.8,-384.56 697.96,-383 806.32,-350.25 846.25,-391.37 949.96,-346 954.55,-343.99 959.05,-341.23 963.22,-338.21"/>
<polygon fill="#555555" stroke="#555555" points="965.14,-340.35 970.74,-331.36 960.75,-334.9 965.14,-340.35"/>
</g>
<!-- prisoner03 -->
<g id="node6" class="node">
<title>prisoner03</title>
<ellipse fill="#ffffff" stroke="#000000" cx="661.96" cy="-315.95" rx="134.86" ry="18"/>
<text text-anchor="middle" x="661.96" y="-311.27" font-family="Times,serif" font-size="14.00">Please, just help me out.</text>
</g>
<!-- do_dialogue&#45;&gt;prisoner03 -->
<g id="edge5" class="edge">
<title>do_dialogue&#45;&gt;prisoner03</title>
<path fill="none" stroke="#555555" stroke-dasharray="1,5" d="M661.96,-382.79C661.96,-371.95 661.96,-357.7 661.96,-345.22"/>
<polygon fill="#555555" stroke="#555555" points="665.46,-345.42 661.96,-335.42 658.46,-345.42 665.46,-345.42"/>
</g>
<!-- prisoner00 -->
<g id="node7" class="node">
<title>prisoner00</title>
<ellipse fill="#ffffff" stroke="#000000" cx="378.96" cy="-315.95" rx="130.64" ry="30.05"/>
<text text-anchor="middle" x="378.96" y="-319.9" font-family="Times,serif" font-size="14.00">Hey, you! Get me out of</text>
<text text-anchor="middle" x="378.96" y="-302.65" font-family="Times,serif" font-size="14.00">here!</text>
</g>
<!-- do_dialogue&#45;&gt;prisoner00 -->
<g id="edge6" class="edge">
<title>do_dialogue&#45;&gt;prisoner00</title>
<path fill="none" stroke="#555555" stroke-dasharray="1,5" d="M637.34,-392.77C600.04,-381.83 527.33,-360.49 468.52,-343.23"/>
<polygon fill="#555555" stroke="#555555" points="469.67,-339.63 459.09,-340.17 467.7,-346.34 469.67,-339.63"/>
</g>
<!-- ReactToLevel -->
<g id="node12" class="node">
<title>ReactToLevel</title>
<ellipse fill="#ffffff" stroke="#000000" cx="985.96" cy="-160.95" rx="27" ry="18"/>
</g>
<!-- get_reaction&#45;&gt;ReactToLevel -->
<g id="edge12" class="edge">
<title>get_reaction&#45;&gt;ReactToLevel</title>
<path fill="none" stroke="#555555" stroke-dasharray="1,5" d="M985.96,-297.69C985.96,-271.52 985.96,-221.52 985.96,-190.05"/>
<polygon fill="#555555" stroke="#555555" points="989.46,-190.37 985.96,-180.37 982.46,-190.37 989.46,-190.37"/>
</g>
<!-- prisoner01 -->
<g id="node8" class="node">
<title>prisoner01</title>
<ellipse fill="#ffffff" stroke="#000000" cx="438.96" cy="-160.95" rx="131.17" ry="30.05"/>
<text text-anchor="middle" x="438.96" y="-164.9" font-family="Times,serif" font-size="14.00">I don&#39;t care. Get me out</text>
<text text-anchor="middle" x="438.96" y="-147.65" font-family="Times,serif" font-size="14.00">of here please!</text>
</g>
<!-- prisoner00&#45;&gt;prisoner01 -->
<g id="edge7" class="edge">
<title>prisoner00&#45;&gt;prisoner01</title>
<path fill="none" stroke="#008199" d="M405.59,-286.27C409.91,-280.51 413.95,-274.25 416.96,-267.89 426.65,-247.41 432.1,-222.7 435.14,-202.3"/>
<polygon fill="#008199" stroke="#008199" points="438.74,-202.84 436.6,-192.46 431.8,-201.9 438.74,-202.84"/>
<text text-anchor="middle" x="509.58" y="-254.59" font-family="Times,serif" font-size="14.00" fill="#008199">Be quiet, you&#39;re gonna</text>
<text text-anchor="middle" x="509.58" y="-237.34" font-family="Times,serif" font-size="14.00" fill="#008199">alert the guards!</text>
</g>
<!-- prisoner00&#45;&gt;prisoner01 -->
<g id="edge9" class="edge">
<title>prisoner00&#45;&gt;prisoner01</title>
<path fill="none" stroke="#580099" d="M372.63,-285.75C370.47,-269.8 369.96,-249.97 376.21,-233.39 381.03,-220.6 389.3,-208.6 398.29,-198.22"/>
<polygon fill="#580099" stroke="#580099" points="400.41,-201 404.6,-191.27 395.25,-196.26 400.41,-201"/>
<text text-anchor="middle" x="395.33" y="-245.97" font-family="Times,serif" font-size="14.00" fill="#580099">Goop</text>
</g>
<!-- prisoner02 -->
<g id="node9" class="node">
<title>prisoner02</title>
<ellipse fill="#ffffff" stroke="#000000" cx="144.96" cy="-160.95" rx="144.96" ry="54.45"/>
<text text-anchor="middle" x="144.96" y="-182.15" font-family="Times,serif" font-size="14.00">My name is Jack. I&#39;m from</text>
<text text-anchor="middle" x="144.96" y="-164.9" font-family="Times,serif" font-size="14.00">Junktown. These monsters</text>
<text text-anchor="middle" x="144.96" y="-147.65" font-family="Times,serif" font-size="14.00">killed the rest of my</text>
<text text-anchor="middle" x="144.96" y="-130.4" font-family="Times,serif" font-size="14.00">caravan and put me here.</text>
</g>
<!-- prisoner00&#45;&gt;prisoner02 -->
<g id="edge8" class="edge">
<title>prisoner00&#45;&gt;prisoner02</title>
<path fill="none" stroke="#998400" d="M287.25,-294.16C268.37,-287.53 249.28,-278.94 232.96,-267.89 215.25,-255.92 199.17,-239.38 185.75,-222.93"/>
<polygon fill="#998400" stroke="#998400" points="187.93,-221.04 178.98,-215.36 182.44,-225.38 187.93,-221.04"/>
<text text-anchor="middle" x="300.46" y="-245.97" font-family="Times,serif" font-size="14.00" fill="#998400">Shh! Who are you?</text>
</g>
<!-- prisonerend -->
<g id="node10" class="node">
<title>prisonerend</title>
<ellipse fill="#ffffff" stroke="#000000" cx="144.96" cy="-18" rx="27" ry="18"/>
</g>
<!-- prisoner02&#45;&gt;prisonerend -->
<g id="edge10" class="edge">
<title>prisoner02&#45;&gt;prisonerend</title>
<path fill="none" stroke="#00992b" d="M74.09,-113.14C55.77,-95.21 44.58,-74.2 58.21,-54 69.32,-37.54 89.61,-28.81 107.78,-24.2"/>
<polygon fill="#00992b" stroke="#00992b" points="108.41,-27.42 117.43,-21.87 106.92,-20.58 108.41,-27.42"/>
<text text-anchor="middle" x="135.83" y="-75.2" font-family="Times,serif" font-size="14.00" fill="#00992b">Ok. I&#39;ll see what I can</text>
<text text-anchor="middle" x="135.83" y="-57.95" font-family="Times,serif" font-size="14.00" fill="#00992b">do.</text>
</g>
<!-- prisoner02&#45;&gt;prisonerend -->
<g id="edge11" class="edge">
<title>prisoner02&#45;&gt;prisonerend</title>
<path fill="none" stroke="#990002" d="M201.84,-110.6C215.48,-92.85 223.23,-72.61 211.96,-54 204.89,-42.34 192.52,-34.38 180.32,-29.03"/>
<polygon fill="#990002" stroke="#990002" points="181.82,-25.47 171.23,-25.14 179.3,-32 181.82,-25.47"/>
<text text-anchor="middle" x="317.71" y="-75.2" font-family="Times,serif" font-size="14.00" fill="#990002">What a bummer. Enjoy your</text>
<text text-anchor="middle" x="317.71" y="-57.95" font-family="Times,serif" font-size="14.00" fill="#990002">stay.</text>
</g>
<!-- prisoner04 -->
<g id="node11" class="node">
<title>prisoner04</title>
<ellipse fill="#ffffff" stroke="#000000" cx="1020.96" cy="-498.25" rx="137.53" ry="42.25"/>
<text text-anchor="middle" x="1020.96" y="-510.82" font-family="Times,serif" font-size="14.00">Ow! My leg. It&#39;s hurt. I</text>
<text text-anchor="middle" x="1020.96" y="-493.57" font-family="Times,serif" font-size="14.00">think it might be broken.</text>
<text text-anchor="middle" x="1020.96" y="-476.32" font-family="Times,serif" font-size="14.00">Please help me!</text>
</g>
<!-- LevelToReact -->
<g id="node13" class="node">
<title>LevelToReact</title>
<ellipse fill="#ffffff" stroke="#000000" cx="1239.96" cy="-401" rx="27" ry="18"/>
</g>
<!-- UpReact -->
<g id="node14" class="node">
<title>UpReact</title>
<ellipse fill="#ffffff" stroke="#000000" cx="1057.96" cy="-315.95" rx="27" ry="18"/>
</g>
<!-- UpReact&#45;&gt;ReactToLevel -->
<g id="edge13" class="edge">
<title>UpReact&#45;&gt;ReactToLevel</title>
<path fill="none" stroke="#555555" stroke-dasharray="1,5" d="M1050.11,-298.28C1037.67,-271.84 1013.3,-220.04 998.43,-188.46"/>
<polygon fill="#555555" stroke="#555555" points="1001.21,-187.15 993.79,-179.59 994.88,-190.13 1001.21,-187.15"/>
</g>
<!-- DownReact -->
<g id="node15" class="node">
<title>DownReact</title>
<ellipse fill="#ffffff" stroke="#000000" cx="1129.96" cy="-315.95" rx="27" ry="18"/>
</g>
<!-- DownReact&#45;&gt;ReactToLevel -->
<g id="edge14" class="edge">
<title>DownReact&#45;&gt;ReactToLevel</title>
<path fill="none" stroke="#555555" stroke-dasharray="1,5" d="M1116.15,-300.28C1090.95,-273.5 1037.33,-216.54 1007.36,-184.69"/>
<polygon fill="#555555" stroke="#555555" points="1010.34,-182.68 1000.93,-177.8 1005.24,-187.48 1010.34,-182.68"/>
</g>
<!-- BottomReact -->
<g id="node16" class="node">
<title>BottomReact</title>
<ellipse fill="#ffffff" stroke="#000000" cx="1347.96" cy="-498.25" rx="27" ry="18"/>
</g>
<!-- TopReact -->
<g id="node17" class="node">
<title>TopReact</title>
<ellipse fill="#ffffff" stroke="#000000" cx="1419.96" cy="-498.25" rx="27" ry="18"/>
</g>
<!-- BigUpReact -->
<g id="node18" class="node">
<title>BigUpReact</title>
<ellipse fill="#ffffff" stroke="#000000" cx="841.96" cy="-315.95" rx="27" ry="18"/>
</g>
<!-- BigUpReact&#45;&gt;ReactToLevel -->
<g id="edge15" class="edge">
<title>BigUpReact&#45;&gt;ReactToLevel</title>
<path fill="none" stroke="#555555" stroke-dasharray="1,5" d="M855.76,-300.28C880.97,-273.5 934.58,-216.54 964.55,-184.69"/>
<polygon fill="#555555" stroke="#555555" points="966.67,-187.48 970.98,-177.8 961.58,-182.68 966.67,-187.48"/>
</g>
<!-- BigDownReact -->
<g id="node19" class="node">
<title>BigDownReact</title>
<ellipse fill="#ffffff" stroke="#000000" cx="913.96" cy="-315.95" rx="27" ry="18"/>
</g>
<!-- BigDownReact&#45;&gt;ReactToLevel -->
<g id="edge16" class="edge">
<title>BigDownReact&#45;&gt;ReactToLevel</title>
<path fill="none" stroke="#555555" stroke-dasharray="1,5" d="M921.8,-298.28C934.24,-271.84 958.62,-220.04 973.48,-188.46"/>
<polygon fill="#555555" stroke="#555555" points="977.03,-190.13 978.12,-179.59 970.7,-187.15 977.03,-190.13"/>
</g>
<!-- UpReactLevel -->
<g id="node20" class="node">
<title>UpReactLevel</title>
<ellipse fill="#ffffff" stroke="#000000" cx="1203.96" cy="-498.25" rx="27" ry="18"/>
</g>
<!-- UpReactLevel&#45;&gt;LevelToReact -->
<g id="edge17" class="edge">
<title>UpReactLevel&#45;&gt;LevelToReact</title>
<path fill="none" stroke="#555555" stroke-dasharray="1,5" d="M1210.23,-480.66C1215.61,-466.4 1223.48,-445.58 1229.77,-428.94"/>
<polygon fill="#555555" stroke="#555555" points="1233.38,-430.31 1233.64,-419.72 1226.83,-427.84 1233.38,-430.31"/>
</g>
<!-- DownReactLevel -->
<g id="node21" class="node">
<title>DownReactLevel</title>
<ellipse fill="#ffffff" stroke="#000000" cx="1275.96" cy="-498.25" rx="27" ry="18"/>
</g>
<!-- DownReactLevel&#45;&gt;LevelToReact -->
<g id="edge18" class="edge">
<title>DownReactLevel&#45;&gt;LevelToReact</title>
<path fill="none" stroke="#555555" stroke-dasharray="1,5" d="M1269.69,-480.66C1264.3,-466.4 1256.43,-445.58 1250.14,-428.94"/>
<polygon fill="#555555" stroke="#555555" points="1253.09,-427.84 1246.28,-419.72 1246.54,-430.31 1253.09,-427.84"/>
</g>
<!-- Goodbyes -->
<g id="node22" class="node">
<title>Goodbyes</title>
<ellipse fill="#ffffff" stroke="#000000" cx="1491.96" cy="-498.25" rx="27" ry="18"/>
</g>
</g>
</svg>
