<?xml version="1.0" encoding="UTF-8" standalone="no"?>
<!DOCTYPE svg PUBLIC "-//W3C//DTD SVG 1.1//EN"
 "http://www.w3.org/Graphics/SVG/1.1/DTD/svg11.dtd">
<!-- Generated by graphviz version 8.0.5 (0)
 -->
<!-- Title: SHADYRUG Pages: 1 -->
<svg width="562pt" height="189pt"
 viewBox="0.00 0.00 562.22 188.89" xmlns="http://www.w3.org/2000/svg" xmlns:xlink="http://www.w3.org/1999/xlink">
<g id="graph0" class="graph" transform="scale(1 1) rotate(0) translate(4 184.89)">
<title>SHADYRUG</title>
<polygon fill="white" stroke="none" points="-4,4 -4,-184.89 558.22,-184.89 558.22,4 -4,4"/>
<!-- start -->
<g id="node1" class="node">
<title>start</title>
<ellipse fill="#ffffff" stroke="#000000" cx="268.92" cy="-162.89" rx="27" ry="18"/>
</g>
<!-- look_at_p_proc -->
<g id="node2" class="node">
<title>look_at_p_proc</title>
<ellipse fill="#ffffff" stroke="#000000" cx="125.92" cy="-54.45" rx="125.92" ry="18"/>
<text text-anchor="middle" x="125.92" y="-49.77" font-family="Times,serif" font-size="14.00">You see a tattered rug.</text>
</g>
<!-- start&#45;&gt;look_at_p_proc -->
<g id="edge1" class="edge">
<title>start&#45;&gt;look_at_p_proc</title>
<path fill="none" stroke="#555555" stroke-dasharray="1,5" d="M251.38,-148.84C228,-131.43 186.2,-100.32 157.31,-78.82"/>
<polygon fill="#555555" stroke="#555555" points="159.9,-75.64 149.79,-72.48 155.72,-81.25 159.9,-75.64"/>
</g>
<!-- description_p_proc -->
<g id="node3" class="node">
<title>description_p_proc</title>
<ellipse fill="#ffffff" stroke="#000000" cx="411.92" cy="-54.45" rx="142.31" ry="54.45"/>
<text text-anchor="middle" x="411.92" y="-75.65" font-family="Times,serif" font-size="14.00">You wonder at what type</text>
<text text-anchor="middle" x="411.92" y="-58.4" font-family="Times,serif" font-size="14.00">of material could have</text>
<text text-anchor="middle" x="411.92" y="-41.15" font-family="Times,serif" font-size="14.00">been used to produce this</text>
<text text-anchor="middle" x="411.92" y="-23.9" font-family="Times,serif" font-size="14.00">rug.</text>
</g>
<!-- start&#45;&gt;description_p_proc -->
<g id="edge2" class="edge">
<title>start&#45;&gt;description_p_proc</title>
<path fill="none" stroke="#555555" stroke-dasharray="1,5" d="M286.45,-148.84C299.83,-138.88 319.25,-124.43 338.82,-109.86"/>
<polygon fill="#555555" stroke="#555555" points="340.57,-112.18 346.5,-103.4 336.39,-106.56 340.57,-112.18"/>
</g>
<!-- chairend -->
<g id="node4" class="node">
<title>chairend</title>
<ellipse fill="#ffffff" stroke="#000000" cx="340.92" cy="-162.89" rx="27" ry="18"/>
</g>
</g>
</svg>
