<?xml version="1.0" encoding="UTF-8" standalone="no"?>
<!DOCTYPE svg PUBLIC "-//W3C//DTD SVG 1.1//EN"
 "http://www.w3.org/Graphics/SVG/1.1/DTD/svg11.dtd">
<!-- Generated by graphviz version 8.0.5 (0)
 -->
<!-- Title: SSGUIDE Pages: 1 -->
<svg width="3135pt" height="1738pt"
 viewBox="0.00 0.00 3135.11 1738.12" xmlns="http://www.w3.org/2000/svg" xmlns:xlink="http://www.w3.org/1999/xlink">
<g id="graph0" class="graph" transform="scale(1 1) rotate(0) translate(4 1734.12)">
<title>SSGUIDE</title>
<polygon fill="white" stroke="none" points="-4,4 -4,-1734.12 3131.11,-1734.12 3131.11,4 -4,4"/>
<!-- Start -->
<g id="node1" class="node">
<title>Start</title>
<ellipse fill="#ffffff" stroke="#000000" cx="483.61" cy="-1700.07" rx="27" ry="18"/>
</g>
<!-- look_at_p_proc -->
<g id="node2" class="node">
<title>look_at_p_proc</title>
<ellipse fill="#ffffff" stroke="#000000" cx="664.61" cy="-1700.07" rx="136.47" ry="30.05"/>
<text text-anchor="middle" x="664.61" y="-1704.02" font-family="Times,serif" font-size="14.00">You see Katrina. She has</text>
<text text-anchor="middle" x="664.61" y="-1686.77" font-family="Times,serif" font-size="14.00">a very pretty smile.</text>
</g>
<!-- description_p_proc -->
<g id="node3" class="node">
<title>description_p_proc</title>
<ellipse fill="#ffffff" stroke="#000000" cx="955.61" cy="-1700.07" rx="136.47" ry="30.05"/>
<text text-anchor="middle" x="955.61" y="-1704.02" font-family="Times,serif" font-size="14.00">You see Katrina. She has</text>
<text text-anchor="middle" x="955.61" y="-1686.77" font-family="Times,serif" font-size="14.00">a very pretty smile.</text>
</g>
<!-- talk_p_proc -->
<g id="node4" class="node">
<title>talk_p_proc</title>
<ellipse fill="#ffffff" stroke="#000000" cx="1136.61" cy="-1700.07" rx="27" ry="18"/>
</g>
<!-- get_reaction -->
<g id="node5" class="node">
<title>get_reaction</title>
<ellipse fill="#ffffff" stroke="#000000" cx="910.61" cy="-1517.58" rx="27" ry="18"/>
</g>
<!-- talk_p_proc&#45;&gt;get_reaction -->
<g id="edge1" class="edge">
<title>talk_p_proc&#45;&gt;get_reaction</title>
<path fill="none" stroke="#555555" stroke-dasharray="1,5" d="M1121.88,-1684.7C1115.73,-1679.4 1108.25,-1673.77 1100.61,-1670.01 1037.45,-1638.93 998.07,-1681.04 946.61,-1633.01 922.6,-1610.61 914.51,-1572.39 911.84,-1546.34"/>
<polygon fill="#555555" stroke="#555555" points="915.27,-1546.35 910.97,-1536.67 908.29,-1546.92 915.27,-1546.35"/>
</g>
<!-- DialogWeapon -->
<g id="node6" class="node">
<title>DialogWeapon</title>
<ellipse fill="#ffffff" stroke="#000000" cx="749.61" cy="-603.64" rx="140.71" ry="30.05"/>
<text text-anchor="middle" x="749.61" y="-607.59" font-family="Times,serif" font-size="14.00">I am unarmed, please put</text>
<text text-anchor="middle" x="749.61" y="-590.34" font-family="Times,serif" font-size="14.00">your weapon away.</text>
</g>
<!-- talk_p_proc&#45;&gt;DialogWeapon -->
<g id="edge2" class="edge">
<title>talk_p_proc&#45;&gt;DialogWeapon</title>
<path fill="none" stroke="#555555" stroke-dasharray="1,5" d="M1135.44,-1681.67C1132.01,-1635.39 1120.26,-1505.7 1090.61,-1402.14 1003.6,-1098.26 830,-756.52 770.32,-643.32"/>
<polygon fill="#555555" stroke="#555555" points="773.01,-641.91 765.24,-634.71 766.82,-645.18 773.01,-641.91"/>
</g>
<!-- DialogFirstTime -->
<g id="node7" class="node">
<title>DialogFirstTime</title>
<ellipse fill="#ffffff" stroke="#000000" cx="1348.61" cy="-1517.58" rx="140.71" ry="115.44"/>
<text text-anchor="middle" x="1348.61" y="-1581.9" font-family="Times,serif" font-size="14.00">Welcome to Shady Sands,</text>
<text text-anchor="middle" x="1348.61" y="-1564.65" font-family="Times,serif" font-size="14.00">traveler. &#160;My name is</text>
<text text-anchor="middle" x="1348.61" y="-1547.4" font-family="Times,serif" font-size="14.00">Katrina. &#160;My job is to</text>
<text text-anchor="middle" x="1348.61" y="-1530.15" font-family="Times,serif" font-size="14.00">greet strangers and help</text>
<text text-anchor="middle" x="1348.61" y="-1512.9" font-family="Times,serif" font-size="14.00">them understand our</text>
<text text-anchor="middle" x="1348.61" y="-1495.65" font-family="Times,serif" font-size="14.00">village. &#160;We find that</text>
<text text-anchor="middle" x="1348.61" y="-1478.4" font-family="Times,serif" font-size="14.00">there are fewer problems</text>
<text text-anchor="middle" x="1348.61" y="-1461.15" font-family="Times,serif" font-size="14.00">if you listen to what I</text>
<text text-anchor="middle" x="1348.61" y="-1443.9" font-family="Times,serif" font-size="14.00">have to say.</text>
</g>
<!-- talk_p_proc&#45;&gt;DialogFirstTime -->
<g id="edge3" class="edge">
<title>talk_p_proc&#45;&gt;DialogFirstTime</title>
<path fill="none" stroke="#555555" stroke-dasharray="1,5" d="M1152.89,-1685.2C1172.77,-1668.28 1208.1,-1638.2 1243.33,-1608.21"/>
<polygon fill="#555555" stroke="#555555" points="1244.97,-1610.56 1250.32,-1601.41 1240.43,-1605.23 1244.97,-1610.56"/>
</g>
<!-- DialogSubsequent -->
<g id="node8" class="node">
<title>DialogSubsequent</title>
<ellipse fill="#ffffff" stroke="#000000" cx="2450.61" cy="-1517.58" rx="131.7" ry="54.45"/>
<text text-anchor="middle" x="2450.61" y="-1538.78" font-family="Times,serif" font-size="14.00">Hello again. &#160;I hope you</text>
<text text-anchor="middle" x="2450.61" y="-1521.53" font-family="Times,serif" font-size="14.00">are doing well. &#160;Is there</text>
<text text-anchor="middle" x="2450.61" y="-1504.28" font-family="Times,serif" font-size="14.00">anything I can help you</text>
<text text-anchor="middle" x="2450.61" y="-1487.03" font-family="Times,serif" font-size="14.00">with?</text>
</g>
<!-- talk_p_proc&#45;&gt;DialogSubsequent -->
<g id="edge4" class="edge">
<title>talk_p_proc&#45;&gt;DialogSubsequent</title>
<path fill="none" stroke="#555555" stroke-dasharray="1,5" d="M1160.34,-1690.93C1180.23,-1684.39 1209.48,-1675.44 1235.61,-1670.01 1287.9,-1659.16 2007.03,-1572 2313.66,-1535.05"/>
<polygon fill="#555555" stroke="#555555" points="2313.89,-1538.42 2323.4,-1533.75 2313.05,-1531.47 2313.89,-1538.42"/>
</g>
<!-- ReactToLevel -->
<g id="node33" class="node">
<title>ReactToLevel</title>
<ellipse fill="#ffffff" stroke="#000000" cx="910.61" cy="-1223.35" rx="27" ry="18"/>
</g>
<!-- get_reaction&#45;&gt;ReactToLevel -->
<g id="edge49" class="edge">
<title>get_reaction&#45;&gt;ReactToLevel</title>
<path fill="none" stroke="#555555" stroke-dasharray="1,5" d="M910.61,-1499.17C910.61,-1450.45 910.61,-1312.33 910.61,-1252.53"/>
<polygon fill="#555555" stroke="#555555" points="914.11,-1252.67 910.61,-1242.67 907.11,-1252.67 914.11,-1252.67"/>
</g>
<!-- DialogWeapon1 -->
<g id="node13" class="node">
<title>DialogWeapon1</title>
<ellipse fill="#ffffff" stroke="#000000" cx="1032.61" cy="-216.88" rx="125.33" ry="30.05"/>
<text text-anchor="middle" x="1032.61" y="-220.83" font-family="Times,serif" font-size="14.00">I&#39;ll assume that means</text>
<text text-anchor="middle" x="1032.61" y="-203.58" font-family="Times,serif" font-size="14.00">yes.</text>
</g>
<!-- DialogWeapon&#45;&gt;DialogWeapon1 -->
<g id="edge5" class="edge">
<title>DialogWeapon&#45;&gt;DialogWeapon1</title>
<path fill="none" stroke="#009977" d="M772.54,-573.67C803.66,-534.15 860.79,-460.94 907.61,-397.02 942.83,-348.93 981.92,-292.36 1006.86,-255.86"/>
<polygon fill="#009977" stroke="#009977" points="1010.14,-258.26 1012.88,-248.03 1004.35,-254.32 1010.14,-258.26"/>
<text text-anchor="middle" x="950.61" y="-375.09" font-family="Times,serif" font-size="14.00" fill="#009977">Hng!</text>
</g>
<!-- DialogWeapon2 -->
<g id="node14" class="node">
<title>DialogWeapon2</title>
<ellipse fill="#ffffff" stroke="#000000" cx="147.61" cy="-216.88" rx="147.61" ry="115.44"/>
<text text-anchor="middle" x="147.61" y="-281.21" font-family="Times,serif" font-size="14.00">Normally, I would agree</text>
<text text-anchor="middle" x="147.61" y="-263.96" font-family="Times,serif" font-size="14.00">with you. &#160;It is very</text>
<text text-anchor="middle" x="147.61" y="-246.71" font-family="Times,serif" font-size="14.00">dangerous to travel</text>
<text text-anchor="middle" x="147.61" y="-229.46" font-family="Times,serif" font-size="14.00">unarmed. &#160;But this is</text>
<text text-anchor="middle" x="147.61" y="-212.21" font-family="Times,serif" font-size="14.00">Shady Sands, and we are a</text>
<text text-anchor="middle" x="147.61" y="-194.96" font-family="Times,serif" font-size="14.00">peaceful people. &#160;There</text>
<text text-anchor="middle" x="147.61" y="-177.71" font-family="Times,serif" font-size="14.00">is</text>
<text text-anchor="middle" x="147.61" y="-160.46" font-family="Times,serif" font-size="14.00">no need for weapons</text>
<text text-anchor="middle" x="147.61" y="-143.21" font-family="Times,serif" font-size="14.00">here.</text>
</g>
<!-- DialogWeapon&#45;&gt;DialogWeapon2 -->
<g id="edge6" class="edge">
<title>DialogWeapon&#45;&gt;DialogWeapon2</title>
<path fill="none" stroke="#994a00" d="M694.97,-575.5C608.71,-531.69 437.06,-440.51 303.61,-344.52 288.08,-333.34 272.04,-321.15 256.43,-308.88"/>
<polygon fill="#994a00" stroke="#994a00" points="258.82,-305.51 248.81,-302.06 254.48,-311.01 258.82,-305.51"/>
<text text-anchor="middle" x="461.73" y="-383.72" font-family="Times,serif" font-size="14.00" fill="#994a00">Why should I? This looks</text>
<text text-anchor="middle" x="461.73" y="-366.47" font-family="Times,serif" font-size="14.00" fill="#994a00">like a dangerous world.</text>
</g>
<!-- DialogWeapon3 -->
<g id="node15" class="node">
<title>DialogWeapon3</title>
<ellipse fill="#ffffff" stroke="#000000" cx="452.61" cy="-216.88" rx="139.65" ry="91.04"/>
<text text-anchor="middle" x="452.61" y="-263.96" font-family="Times,serif" font-size="14.00">If you don&#39;t put your</text>
<text text-anchor="middle" x="452.61" y="-246.71" font-family="Times,serif" font-size="14.00">weapon away, I will not</text>
<text text-anchor="middle" x="452.61" y="-229.46" font-family="Times,serif" font-size="14.00">talk with you. &#160;There</text>
<text text-anchor="middle" x="452.61" y="-212.21" font-family="Times,serif" font-size="14.00">are many people like me.</text>
<text text-anchor="middle" x="452.61" y="-194.96" font-family="Times,serif" font-size="14.00">You should only use force</text>
<text text-anchor="middle" x="452.61" y="-177.71" font-family="Times,serif" font-size="14.00">if the situation calls</text>
<text text-anchor="middle" x="452.61" y="-160.46" font-family="Times,serif" font-size="14.00"> for it.</text>
</g>
<!-- DialogWeapon&#45;&gt;DialogWeapon3 -->
<g id="edge7" class="edge">
<title>DialogWeapon&#45;&gt;DialogWeapon3</title>
<path fill="none" stroke="#1e0099" d="M727.29,-573.72C684.18,-517.88 587.9,-393.15 521.6,-307.26"/>
<polygon fill="#1e0099" stroke="#1e0099" points="523.76,-305.33 514.88,-299.55 518.22,-309.61 523.76,-305.33"/>
<text text-anchor="middle" x="625.61" y="-375.09" font-family="Times,serif" font-size="14.00" fill="#1e0099">Why&#39;s that?</text>
</g>
<!-- DialogWeapon4 -->
<g id="node16" class="node">
<title>DialogWeapon4</title>
<ellipse fill="#ffffff" stroke="#000000" cx="749.61" cy="-216.88" rx="139.65" ry="91.04"/>
<text text-anchor="middle" x="749.61" y="-263.96" font-family="Times,serif" font-size="14.00">If you don&#39;t put your</text>
<text text-anchor="middle" x="749.61" y="-246.71" font-family="Times,serif" font-size="14.00">weapon away, I will not</text>
<text text-anchor="middle" x="749.61" y="-229.46" font-family="Times,serif" font-size="14.00">talk with you. &#160;There</text>
<text text-anchor="middle" x="749.61" y="-212.21" font-family="Times,serif" font-size="14.00">are many people like me.</text>
<text text-anchor="middle" x="749.61" y="-194.96" font-family="Times,serif" font-size="14.00">You should only use force</text>
<text text-anchor="middle" x="749.61" y="-177.71" font-family="Times,serif" font-size="14.00">if the situation calls</text>
<text text-anchor="middle" x="749.61" y="-160.46" font-family="Times,serif" font-size="14.00"> for it.</text>
</g>
<!-- DialogWeapon&#45;&gt;DialogWeapon4 -->
<g id="edge8" class="edge">
<title>DialogWeapon&#45;&gt;DialogWeapon4</title>
<path fill="none" stroke="#0f9900" d="M749.61,-573.4C749.61,-519.98 749.61,-404.26 749.61,-319.3"/>
<polygon fill="#0f9900" stroke="#0f9900" points="753.11,-319.31 749.61,-309.31 746.11,-319.31 753.11,-319.31"/>
<text text-anchor="middle" x="826.48" y="-383.72" font-family="Times,serif" font-size="14.00" fill="#0f9900">Maybe I will, maybe I</text>
<text text-anchor="middle" x="826.48" y="-366.47" font-family="Times,serif" font-size="14.00" fill="#0f9900">won&#39;t.</text>
</g>
<!-- DialogSpecial1 -->
<g id="node17" class="node">
<title>DialogSpecial1</title>
<ellipse fill="#ffffff" stroke="#000000" cx="2655.61" cy="-1223.35" rx="135.41" ry="91.04"/>
<text text-anchor="middle" x="2655.61" y="-1270.43" font-family="Times,serif" font-size="14.00">It is a pity that you are</text>
<text text-anchor="middle" x="2655.61" y="-1253.18" font-family="Times,serif" font-size="14.00">dimwitted. &#160;We will have</text>
<text text-anchor="middle" x="2655.61" y="-1235.93" font-family="Times,serif" font-size="14.00">difficultly</text>
<text text-anchor="middle" x="2655.61" y="-1218.68" font-family="Times,serif" font-size="14.00">understanding each</text>
<text text-anchor="middle" x="2655.61" y="-1201.43" font-family="Times,serif" font-size="14.00">other. &#160;I hope the others</text>
<text text-anchor="middle" x="2655.61" y="-1184.18" font-family="Times,serif" font-size="14.00">in your Vault are not</text>
<text text-anchor="middle" x="2655.61" y="-1166.93" font-family="Times,serif" font-size="14.00">like you.</text>
</g>
<!-- DialogFirstTime&#45;&gt;DialogSpecial1 -->
<g id="edge9" class="edge">
<title>DialogFirstTime&#45;&gt;DialogSpecial1</title>
<path fill="none" stroke="#99003c" d="M1487.59,-1497.42C1674.23,-1472.29 2016.32,-1428.32 2309.61,-1402.14 2343.09,-1399.15 2585.49,-1405.3 2611.61,-1384.14 2629.93,-1369.3 2641.03,-1347.59 2647.66,-1324.92"/>
<polygon fill="#99003c" stroke="#99003c" points="2651.25,-1326.02 2650.4,-1315.46 2644.48,-1324.25 2651.25,-1326.02"/>
<text text-anchor="middle" x="2673.36" y="-1353.59" font-family="Times,serif" font-size="14.00" fill="#99003c">Wubba!</text>
</g>
<!-- DialogMain5 -->
<g id="node18" class="node">
<title>DialogMain5</title>
<ellipse fill="#ffffff" stroke="#000000" cx="1974.61" cy="-1223.35" rx="27" ry="18"/>
</g>
<!-- DialogFirstTime&#45;&gt;DialogMain5 -->
<g id="edge10" class="edge">
<title>DialogFirstTime&#45;&gt;DialogMain5</title>
<path fill="none" stroke="#006899" d="M1488.54,-1503.46C1577.81,-1488.22 1690.28,-1455.29 1764.61,-1384.14 1782.31,-1367.2 1764.97,-1348.29 1783.61,-1332.39 1815.31,-1305.36 1838.38,-1333.1 1875.61,-1314.39 1907.58,-1298.33 1936.91,-1269.01 1955.21,-1248.19"/>
<polygon fill="#006899" stroke="#006899" points="1958.5,-1250.73 1962.35,-1240.86 1953.19,-1246.17 1958.5,-1250.73"/>
<text text-anchor="middle" x="1852.61" y="-1362.22" font-family="Times,serif" font-size="14.00" fill="#006899">Tell me more about</text>
<text text-anchor="middle" x="1852.61" y="-1344.97" font-family="Times,serif" font-size="14.00" fill="#006899">yourself.</text>
</g>
<!-- DialogMain -->
<g id="node19" class="node">
<title>DialogMain</title>
<ellipse fill="#ffffff" stroke="#000000" cx="1872.61" cy="-603.64" rx="137" ry="54.45"/>
<text text-anchor="middle" x="1872.61" y="-624.84" font-family="Times,serif" font-size="14.00">You gain 250 experience</text>
<text text-anchor="middle" x="1872.61" y="-607.59" font-family="Times,serif" font-size="14.00">points for the knowledge</text>
<text text-anchor="middle" x="1872.61" y="-590.34" font-family="Times,serif" font-size="14.00">you have gained from</text>
<text text-anchor="middle" x="1872.61" y="-573.09" font-family="Times,serif" font-size="14.00"> Katrina.</text>
</g>
<!-- DialogFirstTime&#45;&gt;DialogMain -->
<g id="edge11" class="edge">
<title>DialogFirstTime&#45;&gt;DialogMain</title>
<path fill="none" stroke="#959900" d="M1236.43,-1447.36C1200.57,-1415.83 1173.77,-1375.85 1189.61,-1332.39 1304.74,-1016.55 1637.64,-761.45 1792.11,-656.43"/>
<polygon fill="#959900" stroke="#959900" points="1793.8,-658.83 1800.13,-650.33 1789.88,-653.03 1793.8,-658.83"/>
<text text-anchor="middle" x="1354.36" y="-1218.68" font-family="Times,serif" font-size="14.00" fill="#959900">Please help me...</text>
</g>
<!-- DialogMain8 -->
<g id="node20" class="node">
<title>DialogMain8</title>
<ellipse fill="#ffffff" stroke="#000000" cx="2104.61" cy="-1223.35" rx="27" ry="18"/>
</g>
<!-- DialogFirstTime&#45;&gt;DialogMain8 -->
<g id="edge12" class="edge">
<title>DialogFirstTime&#45;&gt;DialogMain8</title>
<path fill="none" stroke="#700099" d="M1489.29,-1510.35C1679.14,-1498.85 2002.83,-1467.31 2082.61,-1384.14 2100.2,-1365.8 2103.91,-1293.14 2104.57,-1252.41"/>
<polygon fill="#700099" stroke="#700099" points="2108.08,-1252.64 2104.69,-1242.6 2101.08,-1252.56 2108.08,-1252.64"/>
<text text-anchor="middle" x="2180.61" y="-1362.22" font-family="Times,serif" font-size="14.00" fill="#700099">I&#39;m looking for a</text>
<text text-anchor="middle" x="2180.61" y="-1344.97" font-family="Times,serif" font-size="14.00" fill="#700099">water&#45;chip. &#160;Seen one?</text>
</g>
<!-- DialogMain9 -->
<g id="node21" class="node">
<title>DialogMain9</title>
<ellipse fill="#ffffff" stroke="#000000" cx="1839.61" cy="-1223.35" rx="27" ry="18"/>
</g>
<!-- DialogFirstTime&#45;&gt;DialogMain9 -->
<g id="edge13" class="edge">
<title>DialogFirstTime&#45;&gt;DialogMain9</title>
<path fill="none" stroke="#009944" d="M1387.72,-1406.4C1401.58,-1368.72 1414.67,-1335.2 1418.36,-1332.39 1452.49,-1306.39 1568.87,-1324.34 1610.61,-1314.39 1684.13,-1296.87 1765.4,-1260.57 1808.59,-1239.81"/>
<polygon fill="#009944" stroke="#009944" points="1810.01,-1242.52 1817.48,-1235.01 1806.95,-1236.23 1810.01,-1242.52"/>
<text text-anchor="middle" x="1485.73" y="-1362.22" font-family="Times,serif" font-size="14.00" fill="#009944">I need help finding</text>
<text text-anchor="middle" x="1485.73" y="-1344.97" font-family="Times,serif" font-size="14.00" fill="#009944">Tandi.</text>
</g>
<!-- DialogMain10 -->
<g id="node22" class="node">
<title>DialogMain10</title>
<ellipse fill="#ffffff" stroke="#000000" cx="1574.61" cy="-1223.35" rx="27" ry="18"/>
</g>
<!-- DialogFirstTime&#45;&gt;DialogMain10 -->
<g id="edge14" class="edge">
<title>DialogFirstTime&#45;&gt;DialogMain10</title>
<path fill="none" stroke="#991700" d="M1240.4,-1443.56C1202.54,-1409.2 1176.23,-1368.04 1206.61,-1332.39 1222.96,-1313.21 1294.18,-1320.6 1318.61,-1314.39 1400.75,-1293.52 1493.86,-1257.52 1541.97,-1237.96"/>
<polygon fill="#991700" stroke="#991700" points="1543.15,-1240.85 1551.08,-1233.82 1540.5,-1234.37 1543.15,-1240.85"/>
<text text-anchor="middle" x="1301.11" y="-1370.84" font-family="Times,serif" font-size="14.00" fill="#991700">I&#39;m dealing with your</text>
<text text-anchor="middle" x="1301.11" y="-1353.59" font-family="Times,serif" font-size="14.00" fill="#991700">radscorpion problem. &#160;Any</text>
<text text-anchor="middle" x="1301.11" y="-1336.34" font-family="Times,serif" font-size="14.00" fill="#991700">clues?</text>
</g>
<!-- DialogExit -->
<g id="node23" class="node">
<title>DialogExit</title>
<ellipse fill="#ffffff" stroke="#000000" cx="1528.61" cy="-18" rx="27" ry="18"/>
</g>
<!-- DialogFirstTime&#45;&gt;DialogExit -->
<g id="edge15" class="edge">
<title>DialogFirstTime&#45;&gt;DialogExit</title>
<path fill="none" stroke="#001699" d="M1234.75,-1449.42C1213.28,-1431.13 1193.76,-1409.3 1181.61,-1384.14 1171.6,-1363.43 1181.4,-1355.39 1181.61,-1332.39 1182.25,-1263.32 1160.75,-142.62 1204.61,-89.25 1240.61,-45.44 1413.17,-27.45 1490.72,-21.49"/>
<polygon fill="#001699" stroke="#001699" points="1490.73,-24.92 1500.44,-20.7 1490.21,-17.94 1490.73,-24.92"/>
<text text-anchor="middle" x="1253.86" y="-598.96" font-family="Times,serif" font-size="14.00" fill="#001699">Thanks, maybe later.</text>
</g>
<!-- DialogSubsequent&#45;&gt;DialogSpecial1 -->
<g id="edge16" class="edge">
<title>DialogSubsequent&#45;&gt;DialogSpecial1</title>
<path fill="none" stroke="#429900" d="M2498.67,-1466.53C2524.07,-1443.16 2557.08,-1417.22 2591.61,-1402.14 2617.53,-1390.82 2699.08,-1405.51 2717.61,-1384.14 2734.91,-1364.2 2732.77,-1338.89 2722.59,-1314.32"/>
<polygon fill="#429900" stroke="#429900" points="2725.48,-1313.23 2718.13,-1305.59 2719.11,-1316.14 2725.48,-1313.23"/>
<text text-anchor="middle" x="2757.36" y="-1353.59" font-family="Times,serif" font-size="14.00" fill="#429900">Wubba!</text>
</g>
<!-- DialogSubsequent&#45;&gt;DialogMain5 -->
<g id="edge18" class="edge">
<title>DialogSubsequent&#45;&gt;DialogMain5</title>
<path fill="none" stroke="#009997" d="M2378.88,-1471.74C2347.01,-1448.82 2311.23,-1418.5 2286.61,-1384.14 2272.34,-1364.23 2287.05,-1347.31 2267.61,-1332.39 2232.38,-1305.36 2109.02,-1332.78 2068.61,-1314.39 2036.75,-1299.9 2009.04,-1269.99 1992.11,-1248.62"/>
<polygon fill="#009997" stroke="#009997" points="1994.4,-1246.85 1985.54,-1241.05 1988.85,-1251.12 1994.4,-1246.85"/>
<text text-anchor="middle" x="2355.61" y="-1362.22" font-family="Times,serif" font-size="14.00" fill="#009997">Tell me more about</text>
<text text-anchor="middle" x="2355.61" y="-1344.97" font-family="Times,serif" font-size="14.00" fill="#009997">yourself.</text>
</g>
<!-- DialogSubsequent&#45;&gt;DialogMain -->
<g id="edge19" class="edge">
<title>DialogSubsequent&#45;&gt;DialogMain</title>
<path fill="none" stroke="#996a00" d="M2499.22,-1466.75C2524.63,-1443.58 2557.49,-1417.75 2591.61,-1402.14 2633.07,-1383.17 2663.33,-1419.1 2692.61,-1384.14 2707.38,-1366.51 2708.38,-1349.13 2692.61,-1332.39 2669.52,-1307.89 2418.67,-1332.23 2390.11,-1314.39 2171.89,-1178.12 2267.53,-1010.19 2105.61,-810.26 2058.74,-752.39 1994.69,-697.16 1945.6,-658.53"/>
<polygon fill="#996a00" stroke="#996a00" points="1948.27,-655.4 1938.24,-652 1943.96,-660.91 1948.27,-655.4"/>
<text text-anchor="middle" x="2451.36" y="-1218.68" font-family="Times,serif" font-size="14.00" fill="#996a00">Please help me...</text>
</g>
<!-- DialogSubsequent&#45;&gt;DialogMain8 -->
<g id="edge20" class="edge">
<title>DialogSubsequent&#45;&gt;DialogMain8</title>
<path fill="none" stroke="#3d0099" d="M2450.73,-1462.87C2449.7,-1415.55 2445.15,-1351.29 2428.61,-1332.39 2407.45,-1308.22 2389.33,-1323.77 2358.61,-1314.39 2278.32,-1289.89 2185.8,-1255.5 2137.64,-1237.12"/>
<polygon fill="#3d0099" stroke="#3d0099" points="2139.08,-1233.55 2128.49,-1233.24 2136.58,-1240.08 2139.08,-1233.55"/>
<text text-anchor="middle" x="2526.61" y="-1362.22" font-family="Times,serif" font-size="14.00" fill="#3d0099">I&#39;m looking for a</text>
<text text-anchor="middle" x="2526.61" y="-1344.97" font-family="Times,serif" font-size="14.00" fill="#3d0099">water&#45;chip. &#160;Seen one?</text>
</g>
<!-- DialogSubsequent&#45;&gt;DialogMain9 -->
<g id="edge21" class="edge">
<title>DialogSubsequent&#45;&gt;DialogMain9</title>
<path fill="none" stroke="#009911" d="M2318.96,-1512.69C2208.27,-1502.84 2051.95,-1472.69 1948.36,-1384.14 1929.26,-1367.82 1938.6,-1353.9 1925.61,-1332.39 1906.55,-1300.83 1879.35,-1268.19 1860.67,-1247.17"/>
<polygon fill="#009911" stroke="#009911" points="1863.77,-1245.27 1854.48,-1240.17 1858.56,-1249.95 1863.77,-1245.27"/>
<text text-anchor="middle" x="2015.73" y="-1362.22" font-family="Times,serif" font-size="14.00" fill="#009911">I need help finding</text>
<text text-anchor="middle" x="2015.73" y="-1344.97" font-family="Times,serif" font-size="14.00" fill="#009911">Tandi.</text>
</g>
<!-- DialogSubsequent&#45;&gt;DialogMain10 -->
<g id="edge22" class="edge">
<title>DialogSubsequent&#45;&gt;DialogMain10</title>
<path fill="none" stroke="#99001c" d="M2318.85,-1516.8C2097.65,-1514.06 1666.43,-1494.32 1571.61,-1384.14 1555.18,-1365.06 1563.56,-1292.71 1569.82,-1252.22"/>
<polygon fill="#99001c" stroke="#99001c" points="1573.42,-1252.91 1571.55,-1242.48 1566.51,-1251.8 1573.42,-1252.91"/>
<text text-anchor="middle" x="1666.11" y="-1370.84" font-family="Times,serif" font-size="14.00" fill="#99001c">I&#39;m dealing with your</text>
<text text-anchor="middle" x="1666.11" y="-1353.59" font-family="Times,serif" font-size="14.00" fill="#99001c">radscorpion problem. &#160;Any</text>
<text text-anchor="middle" x="1666.11" y="-1336.34" font-family="Times,serif" font-size="14.00" fill="#99001c">clues?</text>
</g>
<!-- DialogSubsequent&#45;&gt;DialogExit -->
<g id="edge23" class="edge">
<title>DialogSubsequent&#45;&gt;DialogExit</title>
<path fill="none" stroke="#004999" d="M2496.84,-1466.33C2522.25,-1442.29 2555.83,-1415.82 2591.61,-1402.14 2630.16,-1387.41 2932.69,-1412.57 2962.61,-1384.14 3014.36,-1334.99 2978.61,-1295.73 2978.61,-1224.35 2978.61,-1224.35 2978.61,-1224.35 2978.61,-215.88 2978.61,-103.83 2866.42,-126.1 2760.61,-89.25 2657.55,-53.36 2626.3,-63.78 2517.61,-54 2148.07,-20.76 1698.21,-18.69 1566.51,-18.86"/>
<polygon fill="#004999" stroke="#004999" points="1566.81,-15.36 1556.81,-18.88 1566.82,-22.36 1566.81,-15.36"/>
<text text-anchor="middle" x="3052.86" y="-598.96" font-family="Times,serif" font-size="14.00" fill="#004999">Thanks, maybe later.</text>
</g>
<!-- DialogSpecial4 -->
<g id="node24" class="node">
<title>DialogSpecial4</title>
<ellipse fill="#ffffff" stroke="#000000" cx="2809.61" cy="-962.28" rx="140.18" ry="152.03"/>
<text text-anchor="middle" x="2809.61" y="-1052.48" font-family="Times,serif" font-size="14.00">Well, I take catnaps when</text>
<text text-anchor="middle" x="2809.61" y="-1035.23" font-family="Times,serif" font-size="14.00">you are not around. </text>
<text text-anchor="middle" x="2809.61" y="-1017.98" font-family="Times,serif" font-size="14.00">Besides, I find the</text>
<text text-anchor="middle" x="2809.61" y="-1000.73" font-family="Times,serif" font-size="14.00">desert</text>
<text text-anchor="middle" x="2809.61" y="-983.48" font-family="Times,serif" font-size="14.00">air very invigorating</text>
<text text-anchor="middle" x="2809.61" y="-966.23" font-family="Times,serif" font-size="14.00">and healthy. &#160;And I never</text>
<text text-anchor="middle" x="2809.61" y="-948.98" font-family="Times,serif" font-size="14.00">tire of looking at the</text>
<text text-anchor="middle" x="2809.61" y="-931.73" font-family="Times,serif" font-size="14.00">stars. &#160;Can you imagine</text>
<text text-anchor="middle" x="2809.61" y="-914.48" font-family="Times,serif" font-size="14.00">never seeing the night</text>
<text text-anchor="middle" x="2809.61" y="-897.23" font-family="Times,serif" font-size="14.00">sky for your entire life?</text>
<text text-anchor="middle" x="2809.61" y="-879.98" font-family="Times,serif" font-size="14.00">[She pauses and looks at</text>
<text text-anchor="middle" x="2809.61" y="-862.73" font-family="Times,serif" font-size="14.00">you] Oh, I guess you can.</text>
</g>
<!-- DialogSubsequent&#45;&gt;DialogSpecial4 -->
<g id="edge17" class="edge">
<title>DialogSubsequent&#45;&gt;DialogSpecial4</title>
<path fill="none" stroke="#99006f" d="M2497.72,-1466.36C2523.11,-1442.65 2556.42,-1416.45 2591.61,-1402.14 2632.54,-1385.5 2757.57,-1414.57 2789.61,-1384.14 2826.46,-1349.15 2829.2,-1228.14 2824,-1124.81"/>
<polygon fill="#99006f" stroke="#99006f" points="2827.45,-1124.71 2823.42,-1114.91 2820.46,-1125.09 2827.45,-1124.71"/>
<text text-anchor="middle" x="2885.98" y="-1362.22" font-family="Times,serif" font-size="14.00" fill="#99006f">Don&#39;t you ever go to</text>
<text text-anchor="middle" x="2885.98" y="-1344.97" font-family="Times,serif" font-size="14.00" fill="#99006f">sleep?</text>
</g>
<!-- critter_p_proc -->
<g id="node9" class="node">
<title>critter_p_proc</title>
<ellipse fill="#ffffff" stroke="#000000" cx="1271.61" cy="-1700.07" rx="27" ry="18"/>
</g>
<!-- damage_p_proc -->
<g id="node10" class="node">
<title>damage_p_proc</title>
<ellipse fill="#ffffff" stroke="#000000" cx="1770.61" cy="-1700.07" rx="27" ry="18"/>
</g>
<!-- destroy_p_proc -->
<g id="node11" class="node">
<title>destroy_p_proc</title>
<ellipse fill="#ffffff" stroke="#000000" cx="2055.61" cy="-1700.07" rx="27" ry="18"/>
</g>
<!-- pickup_p_proc -->
<g id="node12" class="node">
<title>pickup_p_proc</title>
<ellipse fill="#ffffff" stroke="#000000" cx="2350.61" cy="-1700.07" rx="142.84" ry="30.05"/>
<text text-anchor="middle" x="2350.61" y="-1704.02" font-family="Times,serif" font-size="14.00">They usually hang thieves</text>
<text text-anchor="middle" x="2350.61" y="-1686.77" font-family="Times,serif" font-size="14.00">around here. &#160;Be good.</text>
</g>
<!-- DialogWeapon2&#45;&gt;DialogExit -->
<g id="edge24" class="edge">
<title>DialogWeapon2&#45;&gt;DialogExit</title>
<path fill="none" stroke="#759900" d="M240.78,-126.86C260.31,-112.21 281.68,-98.73 303.61,-89.25 410.84,-42.87 447.7,-63.96 564.11,-54 923.47,-23.24 1360.41,-19.46 1490.4,-19.04"/>
<polygon fill="#759900" stroke="#759900" points="1490.32,-22.54 1500.32,-19.01 1490.31,-15.54 1490.32,-22.54"/>
<text text-anchor="middle" x="608.86" y="-57.95" font-family="Times,serif" font-size="14.00" fill="#759900">Ok. &#160;Thanks.</text>
</g>
<!-- DialogWeapon3&#45;&gt;DialogExit -->
<g id="edge25" class="edge">
<title>DialogWeapon3&#45;&gt;DialogExit</title>
<path fill="none" stroke="#900099" d="M525.37,-139.03C547.68,-119.76 573.53,-101.19 600.61,-89.25 763.95,-17.24 1336.72,-17.2 1490.41,-18.54"/>
<polygon fill="#900099" stroke="#900099" points="1490.12,-22.05 1500.15,-18.64 1490.18,-15.05 1490.12,-22.05"/>
<text text-anchor="middle" x="763.11" y="-57.95" font-family="Times,serif" font-size="14.00" fill="#900099">Hmm, ok.</text>
</g>
<!-- DialogWeapon4&#45;&gt;DialogExit -->
<g id="edge26" class="edge">
<title>DialogWeapon4&#45;&gt;DialogExit</title>
<path fill="none" stroke="#009963" d="M823.71,-139.55C846.08,-120.41 871.86,-101.77 898.61,-89.25 1004.82,-39.54 1370.83,-23.91 1490.45,-20.07"/>
<polygon fill="#009963" stroke="#009963" points="1490.36,-23.54 1500.24,-19.73 1490.14,-16.55 1490.36,-23.54"/>
<text text-anchor="middle" x="1078.11" y="-57.95" font-family="Times,serif" font-size="14.00" fill="#009963">Hmm, ok.</text>
</g>
<!-- DialogSpecial2 -->
<g id="node31" class="node">
<title>DialogSpecial2</title>
<ellipse fill="#ffffff" stroke="#000000" cx="2536.61" cy="-603.64" rx="133.29" ry="188.62"/>
<text text-anchor="middle" x="2536.61" y="-719.71" font-family="Times,serif" font-size="14.00">Yes, I can tell you are</text>
<text text-anchor="middle" x="2536.61" y="-702.46" font-family="Times,serif" font-size="14.00">from a Vault. &#160;You have</text>
<text text-anchor="middle" x="2536.61" y="-685.21" font-family="Times,serif" font-size="14.00">that look about you.</text>
<text text-anchor="middle" x="2536.61" y="-667.96" font-family="Times,serif" font-size="14.00">I came from Vault&#45;15, to</text>
<text text-anchor="middle" x="2536.61" y="-650.71" font-family="Times,serif" font-size="14.00">the east. &#160;But I had to</text>
<text text-anchor="middle" x="2536.61" y="-633.46" font-family="Times,serif" font-size="14.00">leave my home and now</text>
<text text-anchor="middle" x="2536.61" y="-616.21" font-family="Times,serif" font-size="14.00">I live here. &#160;Hopefully</text>
<text text-anchor="middle" x="2536.61" y="-598.96" font-family="Times,serif" font-size="14.00">you will find what you</text>
<text text-anchor="middle" x="2536.61" y="-581.71" font-family="Times,serif" font-size="14.00">are looking for, even</text>
<text text-anchor="middle" x="2536.61" y="-564.46" font-family="Times,serif" font-size="14.00">if it is just another</text>
<text text-anchor="middle" x="2536.61" y="-547.21" font-family="Times,serif" font-size="14.00">place to live. &#160;I hope</text>
<text text-anchor="middle" x="2536.61" y="-529.96" font-family="Times,serif" font-size="14.00">that your Vault did not</text>
<text text-anchor="middle" x="2536.61" y="-512.71" font-family="Times,serif" font-size="14.00">kick you out due to your</text>
<text text-anchor="middle" x="2536.61" y="-495.46" font-family="Times,serif" font-size="14.00">wits. &#160;I do hope there is</text>
<text text-anchor="middle" x="2536.61" y="-478.21" font-family="Times,serif" font-size="14.00">another reason.</text>
</g>
<!-- DialogSpecial1&#45;&gt;DialogSpecial2 -->
<g id="edge45" class="edge">
<title>DialogSpecial1&#45;&gt;DialogSpecial2</title>
<path fill="none" stroke="#990400" d="M2591.57,-1142.72C2586.3,-1133.51 2581.65,-1123.96 2578.11,-1114.31 2541.96,-1015.81 2530.34,-899.62 2528.31,-803.07"/>
<polygon fill="#990400" stroke="#990400" points="2531.8,-803.23 2528.12,-793.3 2524.8,-803.36 2531.8,-803.23"/>
<text text-anchor="middle" x="2619.86" y="-957.61" font-family="Times,serif" font-size="14.00" fill="#990400">Wubba&#45;val?</text>
</g>
<!-- DialogMain5&#45;&gt;DialogMain -->
<g id="edge39" class="edge">
<title>DialogMain5&#45;&gt;DialogMain</title>
<path fill="none" stroke="#555555" stroke-dasharray="1,5" d="M1987.09,-1207.08C2002.48,-1187.17 2027.81,-1150.58 2037.61,-1114.31 2072.87,-983.86 2082.43,-937.74 2037.61,-810.26 2017.33,-752.57 1973.28,-699.1 1935.79,-661.15"/>
<polygon fill="#555555" stroke="#555555" points="1938.94,-659.35 1929.39,-654.77 1934,-664.31 1938.94,-659.35"/>
</g>
<!-- DialogMain&#45;&gt;DialogMain5 -->
<g id="edge32" class="edge">
<title>DialogMain&#45;&gt;DialogMain5</title>
<path fill="none" stroke="#998a00" d="M1867.88,-658.29C1858.67,-771.84 1841.89,-1032.73 1874.11,-1114.31 1888.94,-1151.87 1923.62,-1184.14 1948.07,-1203.4"/>
<polygon fill="#998a00" stroke="#998a00" points="1945.49,-1206.59 1955.56,-1209.89 1949.74,-1201.03 1945.49,-1206.59"/>
<text text-anchor="middle" x="1956.36" y="-957.61" font-family="Times,serif" font-size="14.00" fill="#998a00">Tell me about yourself.</text>
</g>
<!-- DialogMain&#45;&gt;DialogExit -->
<g id="edge34" class="edge">
<title>DialogMain&#45;&gt;DialogExit</title>
<path fill="none" stroke="#009930" d="M1876.19,-549.04C1877.93,-499.6 1876.59,-424.69 1858.61,-362.52 1820.06,-229.22 1811.93,-180.74 1707.61,-89.25 1666.4,-53.11 1604.43,-34.43 1565.27,-25.68"/>
<polygon fill="#009930" stroke="#009930" points="1566.13,-22.07 1555.62,-23.42 1564.68,-28.92 1566.13,-22.07"/>
<text text-anchor="middle" x="1915.98" y="-220.83" font-family="Times,serif" font-size="14.00" fill="#009930">That&#39;s all for now,</text>
<text text-anchor="middle" x="1915.98" y="-203.58" font-family="Times,serif" font-size="14.00" fill="#009930">thanks.</text>
</g>
<!-- DialogMain1 -->
<g id="node25" class="node">
<title>DialogMain1</title>
<ellipse fill="#ffffff" stroke="#000000" cx="2044.61" cy="-216.88" rx="27" ry="18"/>
</g>
<!-- DialogMain&#45;&gt;DialogMain1 -->
<g id="edge27" class="edge">
<title>DialogMain&#45;&gt;DialogMain1</title>
<path fill="none" stroke="#993700" d="M1879.44,-548.85C1888.45,-486.35 1906.27,-388.45 1932.11,-362.52 1955.24,-339.3 1979.68,-366.9 2003.61,-344.52 2031.05,-318.84 2040.17,-274.7 2043.17,-245.9"/>
<polygon fill="#993700" stroke="#993700" points="2046.74,-246.22 2044.1,-235.96 2039.77,-245.63 2046.74,-246.22"/>
<text text-anchor="middle" x="2018.86" y="-383.72" font-family="Times,serif" font-size="14.00" fill="#993700">What should I do if I get</text>
<text text-anchor="middle" x="2018.86" y="-366.47" font-family="Times,serif" font-size="14.00" fill="#993700">hurt?</text>
</g>
<!-- DialogMain2 -->
<g id="node26" class="node">
<title>DialogMain2</title>
<ellipse fill="#ffffff" stroke="#000000" cx="2135.61" cy="-216.88" rx="27" ry="18"/>
</g>
<!-- DialogMain&#45;&gt;DialogMain2 -->
<g id="edge28" class="edge">
<title>DialogMain&#45;&gt;DialogMain2</title>
<path fill="none" stroke="#0a0099" d="M1957.22,-560.51C2017.09,-525.66 2092.99,-470.06 2129.61,-397.02 2154.06,-348.24 2147.83,-282.23 2141.48,-245.49"/>
<polygon fill="#0a0099" stroke="#0a0099" points="2144.81,-245.26 2139.54,-236.08 2137.93,-246.55 2144.81,-245.26"/>
<text text-anchor="middle" x="2219.23" y="-383.72" font-family="Times,serif" font-size="14.00" fill="#0a0099">Where can I get some</text>
<text text-anchor="middle" x="2219.23" y="-366.47" font-family="Times,serif" font-size="14.00" fill="#0a0099">better equipment?</text>
</g>
<!-- DialogMain6 -->
<g id="node27" class="node">
<title>DialogMain6</title>
<ellipse fill="#ffffff" stroke="#000000" cx="2326.61" cy="-216.88" rx="27" ry="18"/>
</g>
<!-- DialogMain&#45;&gt;DialogMain6 -->
<g id="edge29" class="edge">
<title>DialogMain&#45;&gt;DialogMain6</title>
<path fill="none" stroke="#239900" d="M2000.99,-584.04C2109.95,-560.74 2259.86,-509.22 2332.61,-397.02 2362.73,-350.56 2348.08,-282.14 2336.34,-244.74"/>
<polygon fill="#239900" stroke="#239900" points="2339.46,-244.01 2333,-235.62 2332.82,-246.21 2339.46,-244.01"/>
<text text-anchor="middle" x="2415.61" y="-383.72" font-family="Times,serif" font-size="14.00" fill="#239900">Tell me more about</text>
<text text-anchor="middle" x="2415.61" y="-366.47" font-family="Times,serif" font-size="14.00" fill="#239900">bartering.</text>
</g>
<!-- DialogMain3 -->
<g id="node28" class="node">
<title>DialogMain3</title>
<ellipse fill="#ffffff" stroke="#000000" cx="1240.61" cy="-216.88" rx="27" ry="18"/>
</g>
<!-- DialogMain&#45;&gt;DialogMain3 -->
<g id="edge30" class="edge">
<title>DialogMain&#45;&gt;DialogMain3</title>
<path fill="none" stroke="#99004f" d="M1767.53,-568.24C1597.3,-512.31 1279.23,-406.86 1270.86,-397.02 1234.52,-354.25 1234.08,-284.39 1237.19,-245.77"/>
<polygon fill="#99004f" stroke="#99004f" points="1240.73,-246.58 1238.19,-236.3 1233.76,-245.92 1240.73,-246.58"/>
<text text-anchor="middle" x="1358.98" y="-375.09" font-family="Times,serif" font-size="14.00" fill="#99004f">Tell me about this place.</text>
</g>
<!-- DialogMain4 -->
<g id="node29" class="node">
<title>DialogMain4</title>
<ellipse fill="#ffffff" stroke="#000000" cx="1447.61" cy="-216.88" rx="27" ry="18"/>
</g>
<!-- DialogMain&#45;&gt;DialogMain4 -->
<g id="edge31" class="edge">
<title>DialogMain&#45;&gt;DialogMain4</title>
<path fill="none" stroke="#007c99" d="M1760.92,-571.81C1672.89,-541.67 1554.01,-486.94 1486.11,-397.02 1452.23,-352.16 1446.78,-283.87 1446.65,-245.88"/>
<polygon fill="#007c99" stroke="#007c99" points="1450.16,-246.15 1446.76,-236.12 1443.16,-246.08 1450.16,-246.15"/>
<text text-anchor="middle" x="1574.36" y="-383.72" font-family="Times,serif" font-size="14.00" fill="#007c99">Tell me about the rest of</text>
<text text-anchor="middle" x="1574.36" y="-366.47" font-family="Times,serif" font-size="14.00" fill="#007c99">the world.</text>
</g>
<!-- DialogMain7 -->
<g id="node30" class="node">
<title>DialogMain7</title>
<ellipse fill="#ffffff" stroke="#000000" cx="1671.61" cy="-216.88" rx="27" ry="18"/>
</g>
<!-- DialogMain&#45;&gt;DialogMain7 -->
<g id="edge33" class="edge">
<title>DialogMain&#45;&gt;DialogMain7</title>
<path fill="none" stroke="#5d0099" d="M1812.96,-554.45C1770.61,-516.5 1716.57,-459.68 1689.11,-397.02 1667.32,-347.3 1667.05,-282.58 1669.12,-246.11"/>
<polygon fill="#5d0099" stroke="#5d0099" points="1672.66,-246.52 1669.85,-236.31 1665.68,-246.05 1672.66,-246.52"/>
<text text-anchor="middle" x="1774.36" y="-383.72" font-family="Times,serif" font-size="14.00" fill="#5d0099">Where was this Vault of</text>
<text text-anchor="middle" x="1774.36" y="-366.47" font-family="Times,serif" font-size="14.00" fill="#5d0099">yours?</text>
</g>
<!-- DialogMain8&#45;&gt;DialogMain -->
<g id="edge42" class="edge">
<title>DialogMain8&#45;&gt;DialogMain</title>
<path fill="none" stroke="#555555" stroke-dasharray="1,5" d="M2106.91,-1205.27C2113.99,-1146.91 2131.33,-951.33 2067.61,-810.26 2040.4,-750.02 1988.05,-696.38 1944.44,-659"/>
<polygon fill="#555555" stroke="#555555" points="1947.02,-655.76 1937.12,-651.98 1942.5,-661.11 1947.02,-655.76"/>
</g>
<!-- DialogMain9&#45;&gt;DialogMain -->
<g id="edge43" class="edge">
<title>DialogMain9&#45;&gt;DialogMain</title>
<path fill="none" stroke="#555555" stroke-dasharray="1,5" d="M1839.84,-1205.06C1840.66,-1148.39 1843.96,-963.15 1853.61,-810.26 1856.6,-762.9 1861.58,-709.54 1865.69,-669.05"/>
<polygon fill="#555555" stroke="#555555" points="1869.26,-669.56 1866.79,-659.25 1862.29,-668.85 1869.26,-669.56"/>
</g>
<!-- DialogMain10&#45;&gt;DialogMain -->
<g id="edge44" class="edge">
<title>DialogMain10&#45;&gt;DialogMain</title>
<path fill="none" stroke="#555555" stroke-dasharray="1,5" d="M1582.58,-1205.83C1619.64,-1129.01 1776.1,-804.68 1842.55,-666.93"/>
<polygon fill="#555555" stroke="#555555" points="1845.99,-668.87 1847.18,-658.34 1839.68,-665.83 1845.99,-668.87"/>
</g>
<!-- DialogSpecial4&#45;&gt;DialogExit -->
<g id="edge48" class="edge">
<title>DialogSpecial4&#45;&gt;DialogExit</title>
<path fill="none" stroke="#990082" d="M2836.18,-812.74C2861.8,-616.82 2872.17,-275.17 2677.61,-89.25 2636.53,-49.99 1761.29,-25.04 1566.71,-19.96"/>
<polygon fill="#990082" stroke="#990082" points="1566.99,-16.44 1556.91,-19.68 1566.81,-23.44 1566.99,-16.44"/>
<text text-anchor="middle" x="2893.86" y="-375.09" font-family="Times,serif" font-size="14.00" fill="#990082">Ah, yeah. &#160;Thanks.</text>
</g>
<!-- DialogMain1&#45;&gt;DialogMain -->
<g id="edge35" class="edge">
<title>DialogMain1&#45;&gt;DialogMain</title>
<path fill="none" stroke="#555555" stroke-dasharray="1,5" d="M2044.28,-235.16C2042.76,-262.65 2035.59,-316.15 2003.61,-344.52 1972.44,-372.16 1940.59,-332.58 1911.61,-362.52 1867.15,-408.43 1861.62,-483.96 1864.54,-538.06"/>
<polygon fill="#555555" stroke="#555555" points="1861.1,-538.17 1865.25,-547.92 1868.09,-537.71 1861.1,-538.17"/>
</g>
<!-- DialogMain2&#45;&gt;DialogMain -->
<g id="edge36" class="edge">
<title>DialogMain2&#45;&gt;DialogMain</title>
<path fill="none" stroke="#555555" stroke-dasharray="1,5" d="M2136.28,-235.16C2136.84,-268.63 2134.34,-343.67 2104.61,-397.02 2069.13,-460.68 2006.27,-514.52 1954.92,-551.12"/>
<polygon fill="#555555" stroke="#555555" points="1953.3,-548.69 1947.13,-557.3 1957.33,-554.41 1953.3,-548.69"/>
</g>
<!-- DialogMain6&#45;&gt;DialogMain -->
<g id="edge40" class="edge">
<title>DialogMain6&#45;&gt;DialogMain</title>
<path fill="none" stroke="#555555" stroke-dasharray="1,5" d="M2329.06,-235.14C2332.98,-269.54 2336.89,-347.63 2300.61,-397.02 2229.74,-493.49 2101.57,-546.68 2003.89,-574.64"/>
<polygon fill="#555555" stroke="#555555" points="2003.03,-571.53 1994.34,-577.6 2004.92,-578.27 2003.03,-571.53"/>
</g>
<!-- DialogMain3&#45;&gt;DialogMain -->
<g id="edge37" class="edge">
<title>DialogMain3&#45;&gt;DialogMain</title>
<path fill="none" stroke="#555555" stroke-dasharray="1,5" d="M1235.34,-234.91C1225.75,-269.6 1209.73,-349.2 1247.61,-397.02 1266.22,-420.51 1283.94,-406.25 1312.61,-415.02 1469.02,-462.84 1647.95,-523.91 1760.59,-563.15"/>
<polygon fill="#555555" stroke="#555555" points="1759.35,-566.78 1769.95,-566.76 1761.66,-560.17 1759.35,-566.78"/>
</g>
<!-- DialogMain4&#45;&gt;DialogMain -->
<g id="edge38" class="edge">
<title>DialogMain4&#45;&gt;DialogMain</title>
<path fill="none" stroke="#555555" stroke-dasharray="1,5" d="M1444.07,-234.97C1438.01,-269.08 1429.38,-346.66 1463.61,-397.02 1527.88,-491.57 1649.07,-544.79 1742.92,-573.27"/>
<polygon fill="#555555" stroke="#555555" points="1741.77,-576.87 1752.35,-576.37 1743.76,-570.16 1741.77,-576.87"/>
</g>
<!-- DialogMain7&#45;&gt;DialogMain -->
<g id="edge41" class="edge">
<title>DialogMain7&#45;&gt;DialogMain</title>
<path fill="none" stroke="#555555" stroke-dasharray="1,5" d="M1667.9,-235.01C1661.63,-267.89 1651.7,-341.53 1674.61,-397.02 1699.98,-458.46 1753.14,-511.98 1797.99,-548.99"/>
<polygon fill="#555555" stroke="#555555" points="1795.29,-552.12 1805.25,-555.71 1799.7,-546.69 1795.29,-552.12"/>
</g>
<!-- DialogSpecial3 -->
<g id="node32" class="node">
<title>DialogSpecial3</title>
<ellipse fill="#ffffff" stroke="#000000" cx="2522.61" cy="-216.88" rx="146.02" ry="127.63"/>
<text text-anchor="middle" x="2522.61" y="-289.83" font-family="Times,serif" font-size="14.00">You will need to find</text>
<text text-anchor="middle" x="2522.61" y="-272.58" font-family="Times,serif" font-size="14.00">another way to get your</text>
<text text-anchor="middle" x="2522.61" y="-255.33" font-family="Times,serif" font-size="14.00">answers, as you cannot</text>
<text text-anchor="middle" x="2522.61" y="-238.08" font-family="Times,serif" font-size="14.00">communicate well enough.</text>
<text text-anchor="middle" x="2522.61" y="-220.83" font-family="Times,serif" font-size="14.00">I hope that you do not</text>
<text text-anchor="middle" x="2522.61" y="-203.58" font-family="Times,serif" font-size="14.00">hurt too many people</text>
<text text-anchor="middle" x="2522.61" y="-186.33" font-family="Times,serif" font-size="14.00">in your journey. &#160;Please</text>
<text text-anchor="middle" x="2522.61" y="-169.08" font-family="Times,serif" font-size="14.00">be nice to the people</text>
<text text-anchor="middle" x="2522.61" y="-151.83" font-family="Times,serif" font-size="14.00">here, we mean you no</text>
<text text-anchor="middle" x="2522.61" y="-134.58" font-family="Times,serif" font-size="14.00">harm.</text>
</g>
<!-- DialogSpecial2&#45;&gt;DialogSpecial3 -->
<g id="edge46" class="edge">
<title>DialogSpecial2&#45;&gt;DialogSpecial3</title>
<path fill="none" stroke="#002999" d="M2529.77,-414.77C2529.05,-394.82 2528.32,-374.81 2527.62,-355.6"/>
<polygon fill="#002999" stroke="#002999" points="2531.08,-355.56 2527.22,-345.69 2524.09,-355.81 2531.08,-355.56"/>
<text text-anchor="middle" x="2546.86" y="-375.09" font-family="Times,serif" font-size="14.00" fill="#002999">Hng.</text>
</g>
<!-- DialogSpecial3&#45;&gt;DialogExit -->
<g id="edge47" class="edge">
<title>DialogSpecial3&#45;&gt;DialogExit</title>
<path fill="none" stroke="#569900" d="M2423.18,-123.11C2404.23,-109.68 2383.69,-97.59 2362.61,-89.25 2214.61,-30.69 1709.19,-20.91 1566.43,-19.31"/>
<polygon fill="#569900" stroke="#569900" points="1566.68,-15.8 1556.65,-19.2 1566.61,-22.8 1566.68,-15.8"/>
<text text-anchor="middle" x="2318.23" y="-57.95" font-family="Times,serif" font-size="14.00" fill="#569900">Ahhh.</text>
</g>
<!-- LevelToReact -->
<g id="node34" class="node">
<title>LevelToReact</title>
<ellipse fill="#ffffff" stroke="#000000" cx="2627.61" cy="-1517.58" rx="27" ry="18"/>
</g>
<!-- UpReact -->
<g id="node35" class="node">
<title>UpReact</title>
<ellipse fill="#ffffff" stroke="#000000" cx="982.61" cy="-1517.58" rx="27" ry="18"/>
</g>
<!-- UpReact&#45;&gt;ReactToLevel -->
<g id="edge50" class="edge">
<title>UpReact&#45;&gt;ReactToLevel</title>
<path fill="none" stroke="#555555" stroke-dasharray="1,5" d="M978.43,-1499.6C966.47,-1451.08 932.07,-1311.46 917.38,-1251.86"/>
<polygon fill="#555555" stroke="#555555" points="920.59,-1251.25 914.8,-1242.37 913.8,-1252.92 920.59,-1251.25"/>
</g>
<!-- DownReact -->
<g id="node36" class="node">
<title>DownReact</title>
<ellipse fill="#ffffff" stroke="#000000" cx="1054.61" cy="-1517.58" rx="27" ry="18"/>
</g>
<!-- DownReact&#45;&gt;ReactToLevel -->
<g id="edge51" class="edge">
<title>DownReact&#45;&gt;ReactToLevel</title>
<path fill="none" stroke="#555555" stroke-dasharray="1,5" d="M1050.59,-1499.43C1044.95,-1476.63 1033.65,-1435.34 1018.61,-1402.14 992.43,-1344.36 951.33,-1282.16 928.11,-1248.82"/>
<polygon fill="#555555" stroke="#555555" points="930.4,-1246.99 921.79,-1240.82 924.67,-1251.01 930.4,-1246.99"/>
</g>
<!-- BottomReact -->
<g id="node37" class="node">
<title>BottomReact</title>
<ellipse fill="#ffffff" stroke="#000000" cx="2735.61" cy="-1700.07" rx="27" ry="18"/>
</g>
<!-- TopReact -->
<g id="node38" class="node">
<title>TopReact</title>
<ellipse fill="#ffffff" stroke="#000000" cx="2807.61" cy="-1700.07" rx="27" ry="18"/>
</g>
<!-- BigUpReact -->
<g id="node39" class="node">
<title>BigUpReact</title>
<ellipse fill="#ffffff" stroke="#000000" cx="766.61" cy="-1517.58" rx="27" ry="18"/>
</g>
<!-- BigUpReact&#45;&gt;ReactToLevel -->
<g id="edge52" class="edge">
<title>BigUpReact&#45;&gt;ReactToLevel</title>
<path fill="none" stroke="#555555" stroke-dasharray="1,5" d="M770.62,-1499.43C776.27,-1476.63 787.57,-1435.34 802.61,-1402.14 828.79,-1344.36 869.89,-1282.16 893.11,-1248.82"/>
<polygon fill="#555555" stroke="#555555" points="896.55,-1251.01 899.43,-1240.82 890.82,-1246.99 896.55,-1251.01"/>
</g>
<!-- BigDownReact -->
<g id="node40" class="node">
<title>BigDownReact</title>
<ellipse fill="#ffffff" stroke="#000000" cx="838.61" cy="-1517.58" rx="27" ry="18"/>
</g>
<!-- BigDownReact&#45;&gt;ReactToLevel -->
<g id="edge53" class="edge">
<title>BigDownReact&#45;&gt;ReactToLevel</title>
<path fill="none" stroke="#555555" stroke-dasharray="1,5" d="M842.79,-1499.6C854.75,-1451.08 889.15,-1311.46 903.83,-1251.86"/>
<polygon fill="#555555" stroke="#555555" points="907.42,-1252.92 906.41,-1242.37 900.62,-1251.25 907.42,-1252.92"/>
</g>
<!-- UpReactLevel -->
<g id="node41" class="node">
<title>UpReactLevel</title>
<ellipse fill="#ffffff" stroke="#000000" cx="2591.61" cy="-1700.07" rx="27" ry="18"/>
</g>
<!-- UpReactLevel&#45;&gt;LevelToReact -->
<g id="edge54" class="edge">
<title>UpReactLevel&#45;&gt;LevelToReact</title>
<path fill="none" stroke="#555555" stroke-dasharray="1,5" d="M2595.06,-1681.76C2601.3,-1650.5 2614.49,-1584.35 2622.02,-1546.57"/>
<polygon fill="#555555" stroke="#555555" points="2625.64,-1547.32 2624.17,-1536.83 2618.78,-1545.95 2625.64,-1547.32"/>
</g>
<!-- DownReactLevel -->
<g id="node42" class="node">
<title>DownReactLevel</title>
<ellipse fill="#ffffff" stroke="#000000" cx="2663.61" cy="-1700.07" rx="27" ry="18"/>
</g>
<!-- DownReactLevel&#45;&gt;LevelToReact -->
<g id="edge55" class="edge">
<title>DownReactLevel&#45;&gt;LevelToReact</title>
<path fill="none" stroke="#555555" stroke-dasharray="1,5" d="M2660.16,-1681.76C2653.92,-1650.5 2640.73,-1584.35 2633.19,-1546.57"/>
<polygon fill="#555555" stroke="#555555" points="2636.44,-1545.95 2631.05,-1536.83 2629.57,-1547.32 2636.44,-1545.95"/>
</g>
<!-- Goodbyes -->
<g id="node43" class="node">
<title>Goodbyes</title>
<ellipse fill="#ffffff" stroke="#000000" cx="2879.61" cy="-1700.07" rx="27" ry="18"/>
</g>
</g>
</svg>
