<?xml version="1.0" encoding="UTF-8" standalone="no"?>
<!DOCTYPE svg PUBLIC "-//W3C//DTD SVG 1.1//EN"
 "http://www.w3.org/Graphics/SVG/1.1/DTD/svg11.dtd">
<!-- Generated by graphviz version 8.0.5 (0)
 -->
<!-- Title: TAYLOR Pages: 1 -->
<svg width="1539pt" height="1061pt"
 viewBox="0.00 0.00 1539.00 1060.51" xmlns="http://www.w3.org/2000/svg" xmlns:xlink="http://www.w3.org/1999/xlink">
<g id="graph0" class="graph" transform="scale(1 1) rotate(0) translate(4 1056.51)">
<title>TAYLOR</title>
<polygon fill="white" stroke="none" points="-4,4 -4,-1056.51 1535,-1056.51 1535,4 -4,4"/>
<!-- start -->
<g id="node1" class="node">
<title>start</title>
<ellipse fill="#ffffff" stroke="#000000" cx="243" cy="-1034.51" rx="27" ry="18"/>
</g>
<!-- combat_p_proc -->
<g id="node2" class="node">
<title>combat_p_proc</title>
<ellipse fill="#ffffff" stroke="#000000" cx="27" cy="-912.86" rx="27" ry="18"/>
</g>
<!-- start&#45;&gt;combat_p_proc -->
<g id="edge1" class="edge">
<title>start&#45;&gt;combat_p_proc</title>
<path fill="none" stroke="#555555" stroke-dasharray="1,5" d="M215.95,-1031.73C177.92,-1027.94 108.27,-1016.14 63,-979.51 50.72,-969.57 41.99,-954.28 36.2,-940.95"/>
<polygon fill="#555555" stroke="#555555" points="39.12,-939.83 32.18,-931.82 32.62,-942.41 39.12,-939.83"/>
</g>
<!-- critter_p_proc -->
<g id="node3" class="node">
<title>critter_p_proc</title>
<ellipse fill="#ffffff" stroke="#000000" cx="99" cy="-912.86" rx="27" ry="18"/>
</g>
<!-- start&#45;&gt;critter_p_proc -->
<g id="edge2" class="edge">
<title>start&#45;&gt;critter_p_proc</title>
<path fill="none" stroke="#555555" stroke-dasharray="1,5" d="M218.58,-1026.08C194.86,-1017.85 159.01,-1002.62 135,-979.51 123.77,-968.69 115.16,-953.6 109.18,-940.62"/>
<polygon fill="#555555" stroke="#555555" points="112.11,-939.58 104.95,-931.78 105.68,-942.35 112.11,-939.58"/>
</g>
<!-- damage_p_proc -->
<g id="node4" class="node">
<title>damage_p_proc</title>
<ellipse fill="#ffffff" stroke="#000000" cx="171" cy="-912.86" rx="27" ry="18"/>
</g>
<!-- start&#45;&gt;damage_p_proc -->
<g id="edge3" class="edge">
<title>start&#45;&gt;damage_p_proc</title>
<path fill="none" stroke="#555555" stroke-dasharray="1,5" d="M231.92,-1017.67C224.61,-1007.03 214.94,-992.61 207,-979.51 199.21,-966.65 191.11,-952.02 184.58,-939.83"/>
<polygon fill="#555555" stroke="#555555" points="187.28,-938.46 179.49,-931.27 181.1,-941.74 187.28,-938.46"/>
</g>
<!-- destroy_p_proc -->
<g id="node5" class="node">
<title>destroy_p_proc</title>
<ellipse fill="#ffffff" stroke="#000000" cx="243" cy="-912.86" rx="27" ry="18"/>
</g>
<!-- start&#45;&gt;destroy_p_proc -->
<g id="edge4" class="edge">
<title>start&#45;&gt;destroy_p_proc</title>
<path fill="none" stroke="#555555" stroke-dasharray="1,5" d="M243,-1016.11C243,-996.7 243,-965.03 243,-942.07"/>
<polygon fill="#555555" stroke="#555555" points="246.5,-942.28 243,-932.28 239.5,-942.28 246.5,-942.28"/>
</g>
<!-- look_at_p_proc -->
<g id="node6" class="node">
<title>look_at_p_proc</title>
<ellipse fill="#ffffff" stroke="#000000" cx="434" cy="-912.86" rx="146.02" ry="66.64"/>
<text text-anchor="middle" x="434" y="-942.69" font-family="Times,serif" font-size="14.00">You see the town&#39;s</text>
<text text-anchor="middle" x="434" y="-925.44" font-family="Times,serif" font-size="14.00">trader, Tine.</text>
<text text-anchor="middle" x="434" y="-908.19" font-family="Times,serif" font-size="14.00">&#45;&#45;&#45;</text>
<text text-anchor="middle" x="434" y="-890.94" font-family="Times,serif" font-size="14.00">You see a cheery man with</text>
<text text-anchor="middle" x="434" y="-873.69" font-family="Times,serif" font-size="14.00">close&#45;cropped hair.</text>
</g>
<!-- start&#45;&gt;look_at_p_proc -->
<g id="edge5" class="edge">
<title>start&#45;&gt;look_at_p_proc</title>
<path fill="none" stroke="#555555" stroke-dasharray="1,5" d="M262.37,-1021.37C280.93,-1009.75 310.39,-991.29 339.69,-972.93"/>
<polygon fill="#555555" stroke="#555555" points="341.16,-975.52 347.77,-967.25 337.44,-969.59 341.16,-975.52"/>
</g>
<!-- pickup_p_proc -->
<g id="node7" class="node">
<title>pickup_p_proc</title>
<ellipse fill="#ffffff" stroke="#000000" cx="625" cy="-912.86" rx="27" ry="18"/>
</g>
<!-- start&#45;&gt;pickup_p_proc -->
<g id="edge6" class="edge">
<title>start&#45;&gt;pickup_p_proc</title>
<path fill="none" stroke="#555555" stroke-dasharray="1,5" d="M270.25,-1032.31C342.59,-1028.68 537.43,-1015.7 589,-979.51 602.14,-970.28 610.98,-954.68 616.61,-941"/>
<polygon fill="#555555" stroke="#555555" points="620.11,-942.64 620.31,-932.05 613.55,-940.2 620.11,-942.64"/>
</g>
<!-- talk_p_proc -->
<g id="node8" class="node">
<title>talk_p_proc</title>
<ellipse fill="#ffffff" stroke="#000000" cx="739" cy="-912.86" rx="68.57" ry="18"/>
<text text-anchor="middle" x="739" y="-908.19" font-family="Times,serif" font-size="14.00">My name&#39;s </text>
</g>
<!-- start&#45;&gt;talk_p_proc -->
<g id="edge7" class="edge">
<title>start&#45;&gt;talk_p_proc</title>
<path fill="none" stroke="#555555" stroke-dasharray="1,5" d="M270.16,-1032.17C351.36,-1027.85 591.02,-1012.54 661,-979.51 682.07,-969.56 702.09,-952.49 716.57,-938.25"/>
<polygon fill="#555555" stroke="#555555" points="718.5,-941.27 723.02,-931.69 713.51,-936.36 718.5,-941.27"/>
</g>
<!-- get_reaction -->
<g id="node9" class="node">
<title>get_reaction</title>
<ellipse fill="#ffffff" stroke="#000000" cx="1216" cy="-730.37" rx="27" ry="18"/>
</g>
<!-- talk_p_proc&#45;&gt;get_reaction -->
<g id="edge8" class="edge">
<title>talk_p_proc&#45;&gt;get_reaction</title>
<path fill="none" stroke="#555555" stroke-dasharray="1,5" d="M753.49,-894.86C767.87,-879.29 791.41,-857.05 817,-846.22 891.67,-814.6 1113.99,-856.3 1180,-809.22 1196.56,-797.4 1205.7,-776.02 1210.62,-758.65"/>
<polygon fill="#555555" stroke="#555555" points="1214.14,-760.03 1213.17,-749.48 1207.35,-758.33 1214.14,-760.03"/>
</g>
<!-- Tine_barter1 -->
<g id="node10" class="node">
<title>Tine_barter1</title>
<ellipse fill="#ffffff" stroke="#000000" cx="264" cy="-730.37" rx="27" ry="18"/>
</g>
<!-- talk_p_proc&#45;&gt;Tine_barter1 -->
<g id="edge9" class="edge">
<title>talk_p_proc&#45;&gt;Tine_barter1</title>
<path fill="none" stroke="#555555" stroke-dasharray="1,5" d="M724.51,-894.87C710.13,-879.29 686.58,-857.06 661,-846.22 586.75,-814.75 365.64,-856.06 300,-809.22 283.6,-797.51 274.47,-776.42 269.52,-759.14"/>
<polygon fill="#555555" stroke="#555555" points="272.67,-758.32 266.83,-749.48 265.88,-760.03 272.67,-758.32"/>
</g>
<!-- Tine_barter2 -->
<g id="node11" class="node">
<title>Tine_barter2</title>
<ellipse fill="#ffffff" stroke="#000000" cx="132" cy="-730.37" rx="27" ry="18"/>
</g>
<!-- talk_p_proc&#45;&gt;Tine_barter2 -->
<g id="edge10" class="edge">
<title>talk_p_proc&#45;&gt;Tine_barter2</title>
<path fill="none" stroke="#555555" stroke-dasharray="1,5" d="M724.88,-894.91C710.6,-879.14 686.98,-856.56 661,-846.22 597.1,-820.77 420.4,-835.43 352,-828.22 296.55,-822.37 278.98,-831.78 228,-809.22 198.73,-796.26 170.98,-771.98 152.91,-753.96"/>
<polygon fill="#555555" stroke="#555555" points="155.81,-751.9 146.32,-747.19 150.81,-756.79 155.81,-751.9"/>
</g>
<!-- Tine07 -->
<g id="node12" class="node">
<title>Tine07</title>
<ellipse fill="#ffffff" stroke="#000000" cx="739" cy="-730.37" rx="130.11" ry="54.45"/>
<text text-anchor="middle" x="739" y="-751.57" font-family="Times,serif" font-size="14.00">What?</text>
<text text-anchor="middle" x="739" y="-734.32" font-family="Times,serif" font-size="14.00">&#45;&#45;&#45;</text>
<text text-anchor="middle" x="739" y="-717.07" font-family="Times,serif" font-size="14.00">Hello again! What can I</text>
<text text-anchor="middle" x="739" y="-699.82" font-family="Times,serif" font-size="14.00">help you with?</text>
</g>
<!-- talk_p_proc&#45;&gt;Tine07 -->
<g id="edge11" class="edge">
<title>talk_p_proc&#45;&gt;Tine07</title>
<path fill="none" stroke="#555555" stroke-dasharray="1,5" d="M739,-894.55C739,-871.93 739,-831.02 739,-795.83"/>
<polygon fill="#555555" stroke="#555555" points="742.5,-796.12 739,-786.12 735.5,-796.12 742.5,-796.12"/>
</g>
<!-- Tine01 -->
<g id="node13" class="node">
<title>Tine01</title>
<ellipse fill="#ffffff" stroke="#000000" cx="1029" cy="-730.37" rx="142.31" ry="78.84"/>
<text text-anchor="middle" x="1029" y="-768.82" font-family="Times,serif" font-size="14.00">We don&#39;t get many</text>
<text text-anchor="middle" x="1029" y="-751.57" font-family="Times,serif" font-size="14.00">strangers around here.</text>
<text text-anchor="middle" x="1029" y="-734.32" font-family="Times,serif" font-size="14.00">What do you want?</text>
<text text-anchor="middle" x="1029" y="-717.07" font-family="Times,serif" font-size="14.00">&#45;&#45;&#45;</text>
<text text-anchor="middle" x="1029" y="-699.82" font-family="Times,serif" font-size="14.00">Hello, stranger! What can</text>
<text text-anchor="middle" x="1029" y="-682.57" font-family="Times,serif" font-size="14.00">I do for you today?</text>
</g>
<!-- talk_p_proc&#45;&gt;Tine01 -->
<g id="edge12" class="edge">
<title>talk_p_proc&#45;&gt;Tine01</title>
<path fill="none" stroke="#555555" stroke-dasharray="1,5" d="M756.76,-895.11C772.05,-881.13 795.06,-861.16 817,-846.22 835.5,-833.62 875.53,-811.51 915.88,-790.03"/>
<polygon fill="#555555" stroke="#555555" points="917.38,-792.66 924.58,-784.88 914.1,-786.48 917.38,-792.66"/>
</g>
<!-- ReactToLevel -->
<g id="node22" class="node">
<title>ReactToLevel</title>
<ellipse fill="#ffffff" stroke="#000000" cx="1360" cy="-538.78" rx="27" ry="18"/>
</g>
<!-- get_reaction&#45;&gt;ReactToLevel -->
<g id="edge24" class="edge">
<title>get_reaction&#45;&gt;ReactToLevel</title>
<path fill="none" stroke="#555555" stroke-dasharray="1,5" d="M1221.94,-712.42C1228.11,-696.04 1238.7,-670.94 1252,-651.53 1276.18,-616.25 1311.83,-581.81 1335.47,-560.7"/>
<polygon fill="#555555" stroke="#555555" points="1337.4,-563.78 1342.59,-554.55 1332.77,-558.53 1337.4,-563.78"/>
</g>
<!-- TineBarter -->
<g id="node20" class="node">
<title>TineBarter</title>
<ellipse fill="#ffffff" stroke="#000000" cx="169" cy="-538.78" rx="146.02" ry="30.05"/>
<text text-anchor="middle" x="169" y="-542.73" font-family="Times,serif" font-size="14.00">You see a cheery man with</text>
<text text-anchor="middle" x="169" y="-525.48" font-family="Times,serif" font-size="14.00">close&#45;cropped hair.</text>
</g>
<!-- Tine_barter1&#45;&gt;TineBarter -->
<g id="edge22" class="edge">
<title>Tine_barter1&#45;&gt;TineBarter</title>
<path fill="none" stroke="#990098" d="M265.02,-712.03C265.76,-685.75 264.01,-635.07 243,-599.03 237.72,-589.97 230.48,-581.74 222.58,-574.5"/>
<polygon fill="#990098" stroke="#990098" points="225.39,-571.44 215.51,-567.59 220.83,-576.76 225.39,-571.44"/>
<text text-anchor="middle" x="341.38" y="-620.23" font-family="Times,serif" font-size="14.00" fill="#990098">Can I ask you about the</text>
<text text-anchor="middle" x="341.38" y="-602.98" font-family="Times,serif" font-size="14.00" fill="#990098">Hub merchants?</text>
</g>
<!-- Tine_barter2&#45;&gt;TineBarter -->
<g id="edge23" class="edge">
<title>Tine_barter2&#45;&gt;TineBarter</title>
<path fill="none" stroke="#00996d" d="M117.17,-715.28C93.41,-690.95 51.7,-639.73 74.25,-599.03 79.94,-588.77 88.23,-580.05 97.57,-572.71"/>
<polygon fill="#00996d" stroke="#00996d" points="99.33,-575.04 105.4,-566.36 95.24,-569.36 99.33,-575.04"/>
<text text-anchor="middle" x="159.38" y="-620.23" font-family="Times,serif" font-size="14.00" fill="#00996d">Can I ask you about the</text>
<text text-anchor="middle" x="159.38" y="-602.98" font-family="Times,serif" font-size="14.00" fill="#00996d">Hub merchants?</text>
</g>
<!-- Tine02 -->
<g id="node14" class="node">
<title>Tine02</title>
<ellipse fill="#ffffff" stroke="#000000" cx="739" cy="-538.78" rx="69.12" ry="42.25"/>
<text text-anchor="middle" x="739" y="-551.36" font-family="Times,serif" font-size="14.00">My name&#39;s </text>
<text text-anchor="middle" x="739" y="-534.11" font-family="Times,serif" font-size="14.00">&#45;&#45;&#45;</text>
<text text-anchor="middle" x="739" y="-516.86" font-family="Times,serif" font-size="14.00">.</text>
</g>
<!-- Tine07&#45;&gt;Tine02 -->
<g id="edge20" class="edge">
<title>Tine07&#45;&gt;Tine02</title>
<path fill="none" stroke="#555555" stroke-dasharray="1,5" d="M739,-675.55C739,-649.4 739,-618.1 739,-592.14"/>
<polygon fill="#555555" stroke="#555555" points="742.5,-592.38 739,-582.38 735.5,-592.38 742.5,-592.38"/>
</g>
<!-- Tine01&#45;&gt;Tine02 -->
<g id="edge13" class="edge">
<title>Tine01&#45;&gt;Tine02</title>
<path fill="none" stroke="#555555" stroke-dasharray="1,5" d="M937.64,-669.65C890.82,-639.03 835.3,-602.74 794.88,-576.32"/>
<polygon fill="#555555" stroke="#555555" points="797.01,-572.87 786.72,-570.33 793.18,-578.73 797.01,-572.87"/>
</g>
<!-- Tine03 -->
<g id="node15" class="node">
<title>Tine03</title>
<ellipse fill="#ffffff" stroke="#000000" cx="371" cy="-213.02" rx="132.76" ry="91.04"/>
<text text-anchor="middle" x="371" y="-260.09" font-family="Times,serif" font-size="14.00">Yeah, I trade with &#39;em.</text>
<text text-anchor="middle" x="371" y="-242.84" font-family="Times,serif" font-size="14.00">&#45;&#45;&#45;</text>
<text text-anchor="middle" x="371" y="-225.59" font-family="Times,serif" font-size="14.00">I do some trading with</text>
<text text-anchor="middle" x="371" y="-208.34" font-family="Times,serif" font-size="14.00">them from time to time.</text>
<text text-anchor="middle" x="371" y="-191.09" font-family="Times,serif" font-size="14.00">Mostly I sell</text>
<text text-anchor="middle" x="371" y="-173.84" font-family="Times,serif" font-size="14.00">bullets in exchange for</text>
<text text-anchor="middle" x="371" y="-156.59" font-family="Times,serif" font-size="14.00">food.</text>
</g>
<!-- Tine02&#45;&gt;Tine03 -->
<g id="edge14" class="edge">
<title>Tine02&#45;&gt;Tine03</title>
<path fill="none" stroke="#00991b" d="M670.09,-533.37C589.22,-526.74 461.86,-511.32 428.25,-478.53 385.37,-436.7 371,-370.92 367.38,-315.43"/>
<polygon fill="#00991b" stroke="#00991b" points="370.82,-315.28 366.79,-305.48 363.83,-315.65 370.82,-315.28"/>
<text text-anchor="middle" x="513.38" y="-465.23" font-family="Times,serif" font-size="14.00" fill="#00991b">Can I ask you about the</text>
<text text-anchor="middle" x="513.38" y="-447.98" font-family="Times,serif" font-size="14.00" fill="#00991b">Hub merchants?</text>
</g>
<!-- Tine05 -->
<g id="node16" class="node">
<title>Tine05</title>
<ellipse fill="#ffffff" stroke="#000000" cx="662" cy="-213.02" rx="140.18" ry="30.05"/>
<text text-anchor="middle" x="662" y="-216.97" font-family="Times,serif" font-size="14.00">Great doin&#39; business with</text>
<text text-anchor="middle" x="662" y="-199.72" font-family="Times,serif" font-size="14.00">you. Come again.</text>
</g>
<!-- Tine02&#45;&gt;Tine05 -->
<g id="edge15" class="edge">
<title>Tine02&#45;&gt;Tine05</title>
<path fill="none" stroke="#990012" d="M689.33,-509.25C678.94,-500.78 669.36,-490.5 663.5,-478.53 627.87,-405.8 640.62,-307.75 652,-253.78"/>
<polygon fill="#990012" stroke="#990012" points="655.58,-254.79 654.31,-244.27 648.74,-253.29 655.58,-254.79"/>
<text text-anchor="middle" x="729.25" y="-465.23" font-family="Times,serif" font-size="14.00" fill="#990012">I&#39;d like to do some</text>
<text text-anchor="middle" x="729.25" y="-447.98" font-family="Times,serif" font-size="14.00" fill="#990012">trading.</text>
</g>
<!-- Tine08 -->
<g id="node17" class="node">
<title>Tine08</title>
<ellipse fill="#ffffff" stroke="#000000" cx="959" cy="-213.02" rx="138.59" ry="213.02"/>
<text text-anchor="middle" x="959" y="-346.34" font-family="Times,serif" font-size="14.00">It&#39;s a good town. Might</text>
<text text-anchor="middle" x="959" y="-329.09" font-family="Times,serif" font-size="14.00">be a little happier if</text>
<text text-anchor="middle" x="959" y="-311.84" font-family="Times,serif" font-size="14.00">the Regulators didn&#39;t</text>
<text text-anchor="middle" x="959" y="-294.59" font-family="Times,serif" font-size="14.00">keep such a</text>
<text text-anchor="middle" x="959" y="-277.34" font-family="Times,serif" font-size="14.00">tight grip on things.</text>
<text text-anchor="middle" x="959" y="-260.09" font-family="Times,serif" font-size="14.00">But hey, that&#39;s their</text>
<text text-anchor="middle" x="959" y="-242.84" font-family="Times,serif" font-size="14.00">style.</text>
<text text-anchor="middle" x="959" y="-225.59" font-family="Times,serif" font-size="14.00">&#45;&#45;&#45;</text>
<text text-anchor="middle" x="959" y="-208.34" font-family="Times,serif" font-size="14.00">Ain&#39;t a bad little town.</text>
<text text-anchor="middle" x="959" y="-191.09" font-family="Times,serif" font-size="14.00">Zimmerman&#39;s a fair man,</text>
<text text-anchor="middle" x="959" y="-173.84" font-family="Times,serif" font-size="14.00">maybe not the brightest</text>
<text text-anchor="middle" x="959" y="-156.59" font-family="Times,serif" font-size="14.00">guy.</text>
<text text-anchor="middle" x="959" y="-139.34" font-family="Times,serif" font-size="14.00">And of course we&#39;ve got</text>
<text text-anchor="middle" x="959" y="-122.09" font-family="Times,serif" font-size="14.00">Miles, probably the only</text>
<text text-anchor="middle" x="959" y="-104.84" font-family="Times,serif" font-size="14.00">man in a hundred miles</text>
<text text-anchor="middle" x="959" y="-87.59" font-family="Times,serif" font-size="14.00">who knows</text>
<text text-anchor="middle" x="959" y="-70.34" font-family="Times,serif" font-size="14.00"> anything about science.</text>
</g>
<!-- Tine02&#45;&gt;Tine08 -->
<g id="edge16" class="edge">
<title>Tine02&#45;&gt;Tine08</title>
<path fill="none" stroke="#003f99" d="M774.17,-502.08C781.02,-494.53 787.95,-486.45 794,-478.53 802.17,-467.85 828.84,-425.63 858.44,-377.95"/>
<polygon fill="#003f99" stroke="#003f99" points="861.89,-380.01 864.19,-369.67 855.95,-376.32 861.89,-380.01"/>
<text text-anchor="middle" x="887.25" y="-465.23" font-family="Times,serif" font-size="14.00" fill="#003f99">What&#39;s your take on</text>
<text text-anchor="middle" x="887.25" y="-447.98" font-family="Times,serif" font-size="14.00" fill="#003f99">Adytum?</text>
</g>
<!-- Tine06 -->
<g id="node18" class="node">
<title>Tine06</title>
<ellipse fill="#ffffff" stroke="#000000" cx="1201" cy="-213.02" rx="85.03" ry="42.25"/>
<text text-anchor="middle" x="1201" y="-225.59" font-family="Times,serif" font-size="14.00">Whatever.</text>
<text text-anchor="middle" x="1201" y="-208.34" font-family="Times,serif" font-size="14.00">&#45;&#45;&#45;</text>
<text text-anchor="middle" x="1201" y="-191.09" font-family="Times,serif" font-size="14.00">Keep in touch!</text>
</g>
<!-- Tine02&#45;&gt;Tine06 -->
<g id="edge17" class="edge">
<title>Tine02&#45;&gt;Tine06</title>
<path fill="none" stroke="#6b9900" d="M808.25,-535.33C890.26,-528.7 1025.95,-505.5 1107,-426.03 1151.81,-382.1 1176.9,-313.07 1189.67,-265.79"/>
<polygon fill="#6b9900" stroke="#6b9900" points="1193.31,-266.72 1192.44,-256.16 1186.53,-264.96 1193.31,-266.72"/>
<text text-anchor="middle" x="1111.88" y="-456.61" font-family="Times,serif" font-size="14.00" fill="#6b9900">Nuthin&#39;.</text>
</g>
<!-- Tine03&#45;&gt;Tine02 -->
<g id="edge18" class="edge">
<title>Tine03&#45;&gt;Tine02</title>
<path fill="none" stroke="#555555" stroke-dasharray="1,5" d="M409.21,-300.67C432.94,-344.7 467.63,-395.26 513,-426.03 544.6,-447.46 561.95,-428.9 597,-444.03 621.79,-454.73 624.54,-463.55 647,-478.53 658.46,-486.17 670.81,-494.24 682.63,-501.88"/>
<polygon fill="#555555" stroke="#555555" points="680.24,-505.15 690.54,-507.62 684.03,-499.26 680.24,-505.15"/>
</g>
<!-- Tine08&#45;&gt;Tine02 -->
<g id="edge21" class="edge">
<title>Tine08&#45;&gt;Tine02</title>
<path fill="none" stroke="#555555" stroke-dasharray="1,5" d="M985.79,-422.48C980.97,-442.7 972.79,-461.86 960,-478.53 942.42,-501.44 873.54,-517.44 817.29,-526.99"/>
<polygon fill="#555555" stroke="#555555" points="816.88,-523.67 807.59,-528.75 818.02,-530.58 816.88,-523.67"/>
</g>
<!-- Tine04 -->
<g id="node19" class="node">
<title>Tine04</title>
<ellipse fill="#ffffff" stroke="#000000" cx="450" cy="-730.37" rx="140.71" ry="66.64"/>
<text text-anchor="middle" x="450" y="-760.2" font-family="Times,serif" font-size="14.00">I&#39;m Tine. You have some</text>
<text text-anchor="middle" x="450" y="-742.95" font-family="Times,serif" font-size="14.00">business to conduct?</text>
<text text-anchor="middle" x="450" y="-725.7" font-family="Times,serif" font-size="14.00">&#45;&#45;&#45;</text>
<text text-anchor="middle" x="450" y="-708.45" font-family="Times,serif" font-size="14.00">Pleasure to meet you. I&#39;m</text>
<text text-anchor="middle" x="450" y="-691.2" font-family="Times,serif" font-size="14.00">Tine.</text>
</g>
<!-- Tine04&#45;&gt;Tine02 -->
<g id="edge19" class="edge">
<title>Tine04&#45;&gt;Tine02</title>
<path fill="none" stroke="#555555" stroke-dasharray="1,5" d="M531.66,-675.8C580.17,-643.98 640.43,-604.45 683.46,-576.22"/>
<polygon fill="#555555" stroke="#555555" points="685.2,-578.61 691.64,-570.19 681.36,-572.75 685.2,-578.61"/>
</g>
<!-- TineEnd -->
<g id="node21" class="node">
<title>TineEnd</title>
<ellipse fill="#ffffff" stroke="#000000" cx="548" cy="-1034.51" rx="27" ry="18"/>
</g>
<!-- LevelToReact -->
<g id="node23" class="node">
<title>LevelToReact</title>
<ellipse fill="#ffffff" stroke="#000000" cx="853" cy="-912.86" rx="27" ry="18"/>
</g>
<!-- UpReact -->
<g id="node24" class="node">
<title>UpReact</title>
<ellipse fill="#ffffff" stroke="#000000" cx="1288" cy="-730.37" rx="27" ry="18"/>
</g>
<!-- UpReact&#45;&gt;ReactToLevel -->
<g id="edge25" class="edge">
<title>UpReact&#45;&gt;ReactToLevel</title>
<path fill="none" stroke="#555555" stroke-dasharray="1,5" d="M1294.39,-712.55C1306.88,-679.66 1334.62,-606.61 1349.72,-566.84"/>
<polygon fill="#555555" stroke="#555555" points="1353.35,-568.16 1353.62,-557.57 1346.8,-565.67 1353.35,-568.16"/>
</g>
<!-- DownReact -->
<g id="node25" class="node">
<title>DownReact</title>
<ellipse fill="#ffffff" stroke="#000000" cx="1360" cy="-730.37" rx="27" ry="18"/>
</g>
<!-- DownReact&#45;&gt;ReactToLevel -->
<g id="edge26" class="edge">
<title>DownReact&#45;&gt;ReactToLevel</title>
<path fill="none" stroke="#555555" stroke-dasharray="1,5" d="M1360,-711.88C1360,-679 1360,-607.76 1360,-568.02"/>
<polygon fill="#555555" stroke="#555555" points="1363.5,-568.24 1360,-558.24 1356.5,-568.24 1363.5,-568.24"/>
</g>
<!-- BottomReact -->
<g id="node26" class="node">
<title>BottomReact</title>
<ellipse fill="#ffffff" stroke="#000000" cx="961" cy="-1034.51" rx="27" ry="18"/>
</g>
<!-- TopReact -->
<g id="node27" class="node">
<title>TopReact</title>
<ellipse fill="#ffffff" stroke="#000000" cx="1033" cy="-1034.51" rx="27" ry="18"/>
</g>
<!-- BigUpReact -->
<g id="node28" class="node">
<title>BigUpReact</title>
<ellipse fill="#ffffff" stroke="#000000" cx="1432" cy="-730.37" rx="27" ry="18"/>
</g>
<!-- BigUpReact&#45;&gt;ReactToLevel -->
<g id="edge27" class="edge">
<title>BigUpReact&#45;&gt;ReactToLevel</title>
<path fill="none" stroke="#555555" stroke-dasharray="1,5" d="M1425.61,-712.55C1413.12,-679.66 1385.38,-606.61 1370.28,-566.84"/>
<polygon fill="#555555" stroke="#555555" points="1373.2,-565.67 1366.38,-557.57 1366.65,-568.16 1373.2,-565.67"/>
</g>
<!-- BigDownReact -->
<g id="node29" class="node">
<title>BigDownReact</title>
<ellipse fill="#ffffff" stroke="#000000" cx="1504" cy="-730.37" rx="27" ry="18"/>
</g>
<!-- BigDownReact&#45;&gt;ReactToLevel -->
<g id="edge28" class="edge">
<title>BigDownReact&#45;&gt;ReactToLevel</title>
<path fill="none" stroke="#555555" stroke-dasharray="1,5" d="M1498.06,-712.42C1491.89,-696.04 1481.3,-670.94 1468,-651.53 1443.82,-616.25 1408.17,-581.81 1384.53,-560.7"/>
<polygon fill="#555555" stroke="#555555" points="1387.23,-558.53 1377.41,-554.55 1382.6,-563.78 1387.23,-558.53"/>
</g>
<!-- UpReactLevel -->
<g id="node30" class="node">
<title>UpReactLevel</title>
<ellipse fill="#ffffff" stroke="#000000" cx="817" cy="-1034.51" rx="27" ry="18"/>
</g>
<!-- UpReactLevel&#45;&gt;LevelToReact -->
<g id="edge29" class="edge">
<title>UpReactLevel&#45;&gt;LevelToReact</title>
<path fill="none" stroke="#555555" stroke-dasharray="1,5" d="M822.16,-1016.36C828.04,-996.82 837.74,-964.59 844.69,-941.48"/>
<polygon fill="#555555" stroke="#555555" points="848.32,-942.56 847.85,-931.97 841.62,-940.54 848.32,-942.56"/>
</g>
<!-- DownReactLevel -->
<g id="node31" class="node">
<title>DownReactLevel</title>
<ellipse fill="#ffffff" stroke="#000000" cx="889" cy="-1034.51" rx="27" ry="18"/>
</g>
<!-- DownReactLevel&#45;&gt;LevelToReact -->
<g id="edge30" class="edge">
<title>DownReactLevel&#45;&gt;LevelToReact</title>
<path fill="none" stroke="#555555" stroke-dasharray="1,5" d="M883.84,-1016.36C877.96,-996.82 868.26,-964.59 861.31,-941.48"/>
<polygon fill="#555555" stroke="#555555" points="864.38,-940.54 858.15,-931.97 857.68,-942.56 864.38,-940.54"/>
</g>
<!-- Goodbyes -->
<g id="node32" class="node">
<title>Goodbyes</title>
<ellipse fill="#ffffff" stroke="#000000" cx="1105" cy="-1034.51" rx="27" ry="18"/>
</g>
</g>
</svg>
