<?xml version="1.0" encoding="UTF-8" standalone="no"?>
<!DOCTYPE svg PUBLIC "-//W3C//DTD SVG 1.1//EN"
 "http://www.w3.org/Graphics/SVG/1.1/DTD/svg11.dtd">
<!-- Generated by graphviz version 8.0.5 (0)
 -->
<!-- Title: TERRY Pages: 1 -->
<svg width="1427pt" height="285pt"
 viewBox="0.00 0.00 1426.79 285.00" xmlns="http://www.w3.org/2000/svg" xmlns:xlink="http://www.w3.org/1999/xlink">
<g id="graph0" class="graph" transform="scale(1 1) rotate(0) translate(4 281)">
<title>TERRY</title>
<polygon fill="white" stroke="none" points="-4,4 -4,-281 1422.79,-281 1422.79,4 -4,4"/>
<!-- start -->
<g id="node1" class="node">
<title>start</title>
<ellipse fill="#ffffff" stroke="#000000" cx="156.03" cy="-222.55" rx="134.88" ry="42.25"/>
<text text-anchor="middle" x="156.03" y="-235.13" font-family="Times,serif" font-size="14.00">The mutant ignores you.</text>
<text text-anchor="middle" x="156.03" y="-217.88" font-family="Times,serif" font-size="14.00">&#45;&#45;&#45;</text>
<text text-anchor="middle" x="156.03" y="-200.63" font-family="Times,serif" font-size="14.00">You see Terry.</text>
</g>
<!-- do_dialogue -->
<g id="node2" class="node">
<title>do_dialogue</title>
<ellipse fill="#ffffff" stroke="#000000" cx="120.03" cy="-114.1" rx="27" ry="18"/>
</g>
<!-- start&#45;&gt;do_dialogue -->
<g id="edge1" class="edge">
<title>start&#45;&gt;do_dialogue</title>
<path fill="none" stroke="#555555" stroke-dasharray="1,5" d="M142.01,-180.09C137.73,-167.44 133.14,-153.85 129.26,-142.39"/>
<polygon fill="#555555" stroke="#555555" points="132.32,-141.5 125.8,-133.15 125.69,-143.75 132.32,-141.5"/>
</g>
<!-- Critter_Action -->
<g id="node3" class="node">
<title>Critter_Action</title>
<ellipse fill="#ffffff" stroke="#000000" cx="192.03" cy="-114.1" rx="27" ry="18"/>
</g>
<!-- start&#45;&gt;Critter_Action -->
<g id="edge2" class="edge">
<title>start&#45;&gt;Critter_Action</title>
<path fill="none" stroke="#555555" stroke-dasharray="1,5" d="M170.05,-180.09C174.33,-167.44 178.93,-153.85 182.8,-142.39"/>
<polygon fill="#555555" stroke="#555555" points="186.38,-143.75 186.27,-133.15 179.75,-141.5 186.38,-143.75"/>
</g>
<!-- terry03 -->
<g id="node4" class="node">
<title>terry03</title>
<ellipse fill="#ffffff" stroke="#000000" cx="120.03" cy="-30.05" rx="120.03" ry="30.05"/>
<text text-anchor="middle" x="120.03" y="-34" font-family="Times,serif" font-size="14.00">Hey, no talking! It</text>
<text text-anchor="middle" x="120.03" y="-16.75" font-family="Times,serif" font-size="14.00">disturbs my thinking.</text>
</g>
<!-- do_dialogue&#45;&gt;terry03 -->
<g id="edge3" class="edge">
<title>do_dialogue&#45;&gt;terry03</title>
<path fill="none" stroke="#555555" stroke-dasharray="1,5" d="M120.03,-95.7C120.03,-88.49 120.03,-79.8 120.03,-71.17"/>
<polygon fill="#555555" stroke="#555555" points="123.53,-71.38 120.03,-61.38 116.53,-71.38 123.53,-71.38"/>
</g>
<!-- terrycbt -->
<g id="node5" class="node">
<title>terrycbt</title>
<ellipse fill="#ffffff" stroke="#000000" cx="712.03" cy="-114.1" rx="27" ry="18"/>
</g>
<!-- terryend -->
<g id="node6" class="node">
<title>terryend</title>
<ellipse fill="#ffffff" stroke="#000000" cx="1286.03" cy="-114.1" rx="27" ry="18"/>
</g>
<!-- terry00 -->
<g id="node7" class="node">
<title>terry00</title>
<ellipse fill="#ffffff" stroke="#000000" cx="437.03" cy="-222.55" rx="127.99" ry="54.45"/>
<text text-anchor="middle" x="437.03" y="-243.75" font-family="Times,serif" font-size="14.00">The water ration is</text>
<text text-anchor="middle" x="437.03" y="-226.5" font-family="Times,serif" font-size="14.00">passed out at night . . .</text>
<text text-anchor="middle" x="437.03" y="-209.25" font-family="Times,serif" font-size="14.00">Hey, you&#39;re not</text>
<text text-anchor="middle" x="437.03" y="-192" font-family="Times,serif" font-size="14.00"> a ghoul!</text>
</g>
<!-- terry00&#45;&gt;terrycbt -->
<g id="edge4" class="edge">
<title>terry00&#45;&gt;terrycbt</title>
<path fill="none" stroke="#555555" stroke-dasharray="1,5" d="M530.6,-184.97C545.13,-179.31 559.98,-173.54 574.03,-168.1 609.9,-154.22 651.06,-138.43 679.03,-127.72"/>
<polygon fill="#555555" stroke="#555555" points="679.98,-130.73 688.06,-123.88 677.47,-124.19 679.98,-130.73"/>
</g>
<!-- terry01 -->
<g id="node8" class="node">
<title>terry01</title>
<ellipse fill="#ffffff" stroke="#000000" cx="712.03" cy="-222.55" rx="129.05" ry="42.25"/>
<text text-anchor="middle" x="712.03" y="-235.13" font-family="Times,serif" font-size="14.00">I&#39;ll take you to him.</text>
<text text-anchor="middle" x="712.03" y="-217.88" font-family="Times,serif" font-size="14.00">Here, let me give you a</text>
<text text-anchor="middle" x="712.03" y="-200.63" font-family="Times,serif" font-size="14.00">hand.</text>
</g>
<!-- terry01&#45;&gt;terrycbt -->
<g id="edge5" class="edge">
<title>terry01&#45;&gt;terrycbt</title>
<path fill="none" stroke="#555555" stroke-dasharray="1,5" d="M712.03,-180.09C712.03,-167.79 712.03,-154.6 712.03,-143.34"/>
<polygon fill="#555555" stroke="#555555" points="715.53,-143.42 712.03,-133.43 708.53,-143.43 715.53,-143.42"/>
</g>
<!-- terry02 -->
<g id="node9" class="node">
<title>terry02</title>
<ellipse fill="#ffffff" stroke="#000000" cx="997.03" cy="-222.55" rx="138.06" ry="42.25"/>
<text text-anchor="middle" x="997.03" y="-235.13" font-family="Times,serif" font-size="14.00">I&#39;d better take you to</text>
<text text-anchor="middle" x="997.03" y="-217.88" font-family="Times,serif" font-size="14.00">Harry, he&#39;ll know what to</text>
<text text-anchor="middle" x="997.03" y="-200.63" font-family="Times,serif" font-size="14.00">do with you.</text>
</g>
<!-- terry02&#45;&gt;terrycbt -->
<g id="edge6" class="edge">
<title>terry02&#45;&gt;terrycbt</title>
<path fill="none" stroke="#555555" stroke-dasharray="1,5" d="M910.75,-189.32C854.95,-168.48 785.46,-142.53 745.18,-127.49"/>
<polygon fill="#555555" stroke="#555555" points="746.71,-123.95 736.11,-123.73 744.26,-130.5 746.71,-123.95"/>
</g>
<!-- terry04 -->
<g id="node10" class="node">
<title>terry04</title>
<ellipse fill="#ffffff" stroke="#000000" cx="1286.03" cy="-222.55" rx="132.76" ry="18"/>
<text text-anchor="middle" x="1286.03" y="-217.88" font-family="Times,serif" font-size="14.00">What time of night is it?</text>
</g>
<!-- terry04&#45;&gt;terryend -->
<g id="edge7" class="edge">
<title>terry04&#45;&gt;terryend</title>
<path fill="none" stroke="#555555" stroke-dasharray="1,5" d="M1286.03,-204.45C1286.03,-188.02 1286.03,-162.89 1286.03,-143.47"/>
<polygon fill="#555555" stroke="#555555" points="1289.53,-143.52 1286.03,-133.52 1282.53,-143.52 1289.53,-143.52"/>
</g>
</g>
</svg>
