<?xml version="1.0" encoding="UTF-8" standalone="no"?>
<!DOCTYPE svg PUBLIC "-//W3C//DTD SVG 1.1//EN"
 "http://www.w3.org/Graphics/SVG/1.1/DTD/svg11.dtd">
<!-- Generated by graphviz version 8.0.5 (0)
 -->
<!-- Title: TOGGLE Pages: 1 -->
<svg width="386pt" height="335pt"
 viewBox="0.00 0.00 386.44 335.27" xmlns="http://www.w3.org/2000/svg" xmlns:xlink="http://www.w3.org/1999/xlink">
<g id="graph0" class="graph" transform="scale(1 1) rotate(0) translate(4 331.27)">
<title>TOGGLE</title>
<polygon fill="white" stroke="none" points="-4,4 -4,-331.27 382.44,-331.27 382.44,4 -4,4"/>
<!-- start -->
<g id="node1" class="node">
<title>start</title>
<ellipse fill="#ffffff" stroke="#000000" cx="126" cy="-309.27" rx="27" ry="18"/>
</g>
<!-- use_p_proc -->
<g id="node2" class="node">
<title>use_p_proc</title>
<ellipse fill="#ffffff" stroke="#000000" cx="27" cy="-127.63" rx="27" ry="18"/>
</g>
<!-- start&#45;&gt;use_p_proc -->
<g id="edge1" class="edge">
<title>start&#45;&gt;use_p_proc</title>
<path fill="none" stroke="#555555" stroke-dasharray="1,5" d="M106.5,-296.43C92.46,-286.95 74.1,-272.43 63,-255.27 43.34,-224.87 34.23,-183.62 30.14,-156.57"/>
<polygon fill="#555555" stroke="#555555" points="33.5,-156.36 28.67,-146.93 26.57,-157.31 33.5,-156.36"/>
</g>
<!-- use_skill_on_p_proc -->
<g id="node3" class="node">
<title>use_skill_on_p_proc</title>
<ellipse fill="#ffffff" stroke="#000000" cx="225" cy="-127.63" rx="153.44" ry="127.63"/>
<text text-anchor="middle" x="225" y="-200.58" font-family="Times,serif" font-size="14.00">This toggle has a small</text>
<text text-anchor="middle" x="225" y="-183.33" font-family="Times,serif" font-size="14.00">radio emitter and a tiny</text>
<text text-anchor="middle" x="225" y="-166.08" font-family="Times,serif" font-size="14.00">power cell. It probably</text>
<text text-anchor="middle" x="225" y="-148.83" font-family="Times,serif" font-size="14.00">links to a control</text>
<text text-anchor="middle" x="225" y="-131.58" font-family="Times,serif" font-size="14.00">computer somewhere, as an</text>
<text text-anchor="middle" x="225" y="-114.33" font-family="Times,serif" font-size="14.00">on/off switch.</text>
<text text-anchor="middle" x="225" y="-97.08" font-family="Times,serif" font-size="14.00">&#45;&#45;&#45;</text>
<text text-anchor="middle" x="225" y="-79.83" font-family="Times,serif" font-size="14.00">The toggle switch looks</text>
<text text-anchor="middle" x="225" y="-62.58" font-family="Times,serif" font-size="14.00">like an on/off</text>
<text text-anchor="middle" x="225" y="-45.33" font-family="Times,serif" font-size="14.00">transmitter of some sort.</text>
</g>
<!-- start&#45;&gt;use_skill_on_p_proc -->
<g id="edge2" class="edge">
<title>start&#45;&gt;use_skill_on_p_proc</title>
<path fill="none" stroke="#555555" stroke-dasharray="1,5" d="M134.96,-292.01C140.36,-282.21 147.79,-268.73 156.08,-253.69"/>
<polygon fill="#555555" stroke="#555555" points="159.58,-255.58 161.34,-245.13 153.45,-252.2 159.58,-255.58"/>
</g>
</g>
</svg>
