<?xml version="1.0" encoding="UTF-8" standalone="no"?>
<!DOCTYPE svg PUBLIC "-//W3C//DTD SVG 1.1//EN"
 "http://www.w3.org/Graphics/SVG/1.1/DTD/svg11.dtd">
<!-- Generated by graphviz version 8.0.5 (0)
 -->
<!-- Title: VALTCTZN Pages: 1 -->
<svg width="690pt" height="212pt"
 viewBox="0.00 0.00 690.00 212.10" xmlns="http://www.w3.org/2000/svg" xmlns:xlink="http://www.w3.org/1999/xlink">
<g id="graph0" class="graph" transform="scale(1 1) rotate(0) translate(4 208.1)">
<title>VALTCTZN</title>
<polygon fill="white" stroke="none" points="-4,4 -4,-208.1 686,-208.1 686,4 -4,4"/>
<!-- start -->
<g id="node1" class="node">
<title>start</title>
<ellipse fill="#ffffff" stroke="#000000" cx="243" cy="-186.1" rx="27" ry="18"/>
</g>
<!-- critter_p_proc -->
<g id="node2" class="node">
<title>critter_p_proc</title>
<ellipse fill="#ffffff" stroke="#000000" cx="27" cy="-102.05" rx="27" ry="18"/>
</g>
<!-- start&#45;&gt;critter_p_proc -->
<g id="edge1" class="edge">
<title>start&#45;&gt;critter_p_proc</title>
<path fill="none" stroke="#555555" stroke-dasharray="1,5" d="M216.75,-180.72C180.57,-173.96 114.07,-158.87 63,-132.1 58.64,-129.82 54.31,-126.96 50.23,-123.94"/>
<polygon fill="#555555" stroke="#555555" points="52.82,-120.73 42.83,-117.22 48.45,-126.2 52.82,-120.73"/>
</g>
<!-- damage_p_proc -->
<g id="node3" class="node">
<title>damage_p_proc</title>
<ellipse fill="#ffffff" stroke="#000000" cx="99" cy="-102.05" rx="27" ry="18"/>
</g>
<!-- start&#45;&gt;damage_p_proc -->
<g id="edge2" class="edge">
<title>start&#45;&gt;damage_p_proc</title>
<path fill="none" stroke="#555555" stroke-dasharray="1,5" d="M220.29,-175.73C197.88,-166.08 163,-149.96 135,-132.1 130.93,-129.51 126.78,-126.53 122.82,-123.49"/>
<polygon fill="#555555" stroke="#555555" points="125.55,-120.39 115.55,-116.87 121.17,-125.85 125.55,-120.39"/>
</g>
<!-- destroy_p_proc -->
<g id="node4" class="node">
<title>destroy_p_proc</title>
<ellipse fill="#ffffff" stroke="#000000" cx="171" cy="-102.05" rx="27" ry="18"/>
</g>
<!-- start&#45;&gt;destroy_p_proc -->
<g id="edge3" class="edge">
<title>start&#45;&gt;destroy_p_proc</title>
<path fill="none" stroke="#555555" stroke-dasharray="1,5" d="M229.79,-170.05C219.04,-157.79 203.66,-140.28 191.34,-126.23"/>
<polygon fill="#555555" stroke="#555555" points="193.35,-124.21 184.12,-119.01 188.09,-128.83 193.35,-124.21"/>
</g>
<!-- map_enter_p_proc -->
<g id="node5" class="node">
<title>map_enter_p_proc</title>
<ellipse fill="#ffffff" stroke="#000000" cx="243" cy="-102.05" rx="27" ry="18"/>
</g>
<!-- start&#45;&gt;map_enter_p_proc -->
<g id="edge4" class="edge">
<title>start&#45;&gt;map_enter_p_proc</title>
<path fill="none" stroke="#555555" stroke-dasharray="1,5" d="M243,-167.7C243,-157.15 243,-143.44 243,-131.35"/>
<polygon fill="#555555" stroke="#555555" points="246.5,-131.43 243,-121.43 239.5,-131.43 246.5,-131.43"/>
</g>
<!-- pickup_p_proc -->
<g id="node6" class="node">
<title>pickup_p_proc</title>
<ellipse fill="#ffffff" stroke="#000000" cx="315" cy="-102.05" rx="27" ry="18"/>
</g>
<!-- start&#45;&gt;pickup_p_proc -->
<g id="edge5" class="edge">
<title>start&#45;&gt;pickup_p_proc</title>
<path fill="none" stroke="#555555" stroke-dasharray="1,5" d="M256.21,-170.05C266.96,-157.79 282.34,-140.28 294.66,-126.23"/>
<polygon fill="#555555" stroke="#555555" points="297.91,-128.83 301.88,-119.01 292.65,-124.21 297.91,-128.83"/>
</g>
<!-- talk_p_proc -->
<g id="node7" class="node">
<title>talk_p_proc</title>
<ellipse fill="#ffffff" stroke="#000000" cx="485" cy="-102.05" rx="125.33" ry="30.05"/>
<text text-anchor="middle" x="485" y="-106" font-family="Times,serif" font-size="14.00">Don&#39;t forget to see the</text>
<text text-anchor="middle" x="485" y="-88.75" font-family="Times,serif" font-size="14.00">medic if you are hurt.</text>
</g>
<!-- start&#45;&gt;talk_p_proc -->
<g id="edge6" class="edge">
<title>start&#45;&gt;talk_p_proc</title>
<path fill="none" stroke="#555555" stroke-dasharray="1,5" d="M266.64,-177.09C298.11,-166.42 355.37,-147 403.36,-130.73"/>
<polygon fill="#555555" stroke="#555555" points="404.41,-133.73 412.76,-127.21 402.16,-127.1 404.41,-133.73"/>
</g>
<!-- timed_event_p_proc -->
<g id="node8" class="node">
<title>timed_event_p_proc</title>
<ellipse fill="#ffffff" stroke="#000000" cx="655" cy="-102.05" rx="27" ry="18"/>
</g>
<!-- start&#45;&gt;timed_event_p_proc -->
<g id="edge7" class="edge">
<title>start&#45;&gt;timed_event_p_proc</title>
<path fill="none" stroke="#555555" stroke-dasharray="1,5" d="M269.98,-183.17C345.18,-177.5 555.81,-159.53 619,-132.1 623.6,-130.11 628.1,-127.36 632.27,-124.34"/>
<polygon fill="#555555" stroke="#555555" points="634.19,-126.48 639.79,-117.49 629.81,-121.02 634.19,-126.48"/>
</g>
<!-- get_rations -->
<g id="node9" class="node">
<title>get_rations</title>
<ellipse fill="#ffffff" stroke="#000000" cx="27" cy="-18" rx="27" ry="18"/>
</g>
<!-- critter_p_proc&#45;&gt;get_rations -->
<g id="edge8" class="edge">
<title>critter_p_proc&#45;&gt;get_rations</title>
<path fill="none" stroke="#555555" stroke-dasharray="1,5" d="M27,-83.65C27,-73.1 27,-59.38 27,-47.3"/>
<polygon fill="#555555" stroke="#555555" points="30.5,-47.38 27,-37.38 23.5,-47.38 30.5,-47.38"/>
</g>
<!-- sleeping -->
<g id="node10" class="node">
<title>sleeping</title>
<ellipse fill="#ffffff" stroke="#000000" cx="99" cy="-18" rx="27" ry="18"/>
</g>
<!-- critter_p_proc&#45;&gt;sleeping -->
<g id="edge9" class="edge">
<title>critter_p_proc&#45;&gt;sleeping</title>
<path fill="none" stroke="#555555" stroke-dasharray="1,5" d="M40.21,-86C50.96,-73.74 66.34,-56.22 78.66,-42.18"/>
<polygon fill="#555555" stroke="#555555" points="81.91,-44.78 85.88,-34.95 76.65,-40.16 81.91,-44.78"/>
</g>
<!-- set_ration_tile -->
<g id="node11" class="node">
<title>set_ration_tile</title>
<ellipse fill="#ffffff" stroke="#000000" cx="207" cy="-18" rx="27" ry="18"/>
</g>
<!-- map_enter_p_proc&#45;&gt;set_ration_tile -->
<g id="edge10" class="edge">
<title>map_enter_p_proc&#45;&gt;set_ration_tile</title>
<path fill="none" stroke="#555555" stroke-dasharray="1,5" d="M235.71,-84.45C230.79,-73.21 224.17,-58.14 218.54,-45.29"/>
<polygon fill="#555555" stroke="#555555" points="221.5,-44.33 214.27,-36.58 215.09,-47.14 221.5,-44.33"/>
</g>
<!-- set_sleep_tile -->
<g id="node12" class="node">
<title>set_sleep_tile</title>
<ellipse fill="#ffffff" stroke="#000000" cx="279" cy="-18" rx="27" ry="18"/>
</g>
<!-- map_enter_p_proc&#45;&gt;set_sleep_tile -->
<g id="edge11" class="edge">
<title>map_enter_p_proc&#45;&gt;set_sleep_tile</title>
<path fill="none" stroke="#555555" stroke-dasharray="1,5" d="M250.29,-84.45C255.21,-73.21 261.83,-58.14 267.46,-45.29"/>
<polygon fill="#555555" stroke="#555555" points="270.91,-47.14 271.73,-36.58 264.5,-44.33 270.91,-47.14"/>
</g>
</g>
</svg>
