<?xml version="1.0" encoding="UTF-8" standalone="no"?>
<!DOCTYPE svg PUBLIC "-//W3C//DTD SVG 1.1//EN"
 "http://www.w3.org/Graphics/SVG/1.1/DTD/svg11.dtd">
<!-- Generated by graphviz version 8.0.5 (0)
 -->
<!-- Title: VALTGLO Pages: 1 -->
<svg width="792pt" height="238pt"
 viewBox="0.00 0.00 791.86 237.68" xmlns="http://www.w3.org/2000/svg" xmlns:xlink="http://www.w3.org/1999/xlink">
<g id="graph0" class="graph" transform="scale(1 1) rotate(0) translate(4 233.68)">
<title>VALTGLO</title>
<polygon fill="white" stroke="none" points="-4,4 -4,-233.68 787.86,-233.68 787.86,4 -4,4"/>
<!-- start -->
<g id="node1" class="node">
<title>start</title>
<ellipse fill="#ffffff" stroke="#000000" cx="499.86" cy="-211.68" rx="27" ry="18"/>
</g>
<!-- look_at_p_proc -->
<g id="node2" class="node">
<title>look_at_p_proc</title>
<ellipse fill="#ffffff" stroke="#000000" cx="134.86" cy="-78.84" rx="134.86" ry="18"/>
<text text-anchor="middle" x="134.86" y="-74.17" font-family="Times,serif" font-size="14.00">You see a glowing ghoul.</text>
</g>
<!-- start&#45;&gt;look_at_p_proc -->
<g id="edge1" class="edge">
<title>start&#45;&gt;look_at_p_proc</title>
<path fill="none" stroke="#555555" stroke-dasharray="1,5" d="M473.68,-206.68C431.63,-199.75 346.85,-183.7 278.86,-157.68 240.23,-142.9 198.98,-119.77 170.57,-102.55"/>
<polygon fill="#555555" stroke="#555555" points="172.81,-99.21 162.45,-96.97 169.15,-105.18 172.81,-99.21"/>
</g>
<!-- pickup_p_proc -->
<g id="node3" class="node">
<title>pickup_p_proc</title>
<ellipse fill="#ffffff" stroke="#000000" cx="314.86" cy="-78.84" rx="27" ry="18"/>
</g>
<!-- start&#45;&gt;pickup_p_proc -->
<g id="edge2" class="edge">
<title>start&#45;&gt;pickup_p_proc</title>
<path fill="none" stroke="#555555" stroke-dasharray="1,5" d="M473.24,-207.55C440.69,-202.42 385.64,-189.42 350.86,-157.68 336.24,-144.35 327.1,-123.88 321.69,-107.28"/>
<polygon fill="#555555" stroke="#555555" points="324.85,-106.63 318.65,-98.04 318.14,-108.63 324.85,-106.63"/>
</g>
<!-- talk_p_proc -->
<g id="node4" class="node">
<title>talk_p_proc</title>
<ellipse fill="#ffffff" stroke="#000000" cx="499.86" cy="-78.84" rx="139.65" ry="78.84"/>
<text text-anchor="middle" x="499.86" y="-117.29" font-family="Times,serif" font-size="14.00">The liquid clear no</text>
<text text-anchor="middle" x="499.86" y="-100.04" font-family="Times,serif" font-size="14.00">longer flows. Without the</text>
<text text-anchor="middle" x="499.86" y="-82.79" font-family="Times,serif" font-size="14.00">flow we all</text>
<text text-anchor="middle" x="499.86" y="-65.54" font-family="Times,serif" font-size="14.00"> take final rest.</text>
<text text-anchor="middle" x="499.86" y="-48.29" font-family="Times,serif" font-size="14.00">&#45;&#45;&#45;</text>
<text text-anchor="middle" x="499.86" y="-31.04" font-family="Times,serif" font-size="14.00">The ghoul ignores you.</text>
</g>
<!-- start&#45;&gt;talk_p_proc -->
<g id="edge3" class="edge">
<title>start&#45;&gt;talk_p_proc</title>
<path fill="none" stroke="#555555" stroke-dasharray="1,5" d="M499.86,-193.31C499.86,-186.46 499.86,-178.06 499.86,-168.94"/>
<polygon fill="#555555" stroke="#555555" points="503.36,-168.96 499.86,-158.96 496.36,-168.96 503.36,-168.96"/>
</g>
<!-- critter_p_proc -->
<g id="node5" class="node">
<title>critter_p_proc</title>
<ellipse fill="#ffffff" stroke="#000000" cx="684.86" cy="-78.84" rx="27" ry="18"/>
</g>
<!-- start&#45;&gt;critter_p_proc -->
<g id="edge4" class="edge">
<title>start&#45;&gt;critter_p_proc</title>
<path fill="none" stroke="#555555" stroke-dasharray="1,5" d="M520.97,-200.14C525.81,-197.89 530.97,-195.61 535.86,-193.68 584.91,-174.39 609.34,-192.56 648.86,-157.68 663.7,-144.59 672.83,-124.12 678.18,-107.45"/>
<polygon fill="#555555" stroke="#555555" points="681.74,-108.75 681.18,-98.17 675.02,-106.79 681.74,-108.75"/>
</g>
<!-- destroy_p_proc -->
<g id="node6" class="node">
<title>destroy_p_proc</title>
<ellipse fill="#ffffff" stroke="#000000" cx="756.86" cy="-78.84" rx="27" ry="18"/>
</g>
<!-- start&#45;&gt;destroy_p_proc -->
<g id="edge5" class="edge">
<title>start&#45;&gt;destroy_p_proc</title>
<path fill="none" stroke="#555555" stroke-dasharray="1,5" d="M520.82,-199.72C525.67,-197.48 530.87,-195.32 535.86,-193.68 615.46,-167.6 654.94,-209.37 720.86,-157.68 736.62,-145.33 745.76,-124.46 750.88,-107.44"/>
<polygon fill="#555555" stroke="#555555" points="754.49,-108.5 753.7,-97.94 747.73,-106.69 754.49,-108.5"/>
</g>
<!-- combat -->
<g id="node7" class="node">
<title>combat</title>
<ellipse fill="#ffffff" stroke="#000000" cx="571.86" cy="-211.68" rx="27" ry="18"/>
</g>
</g>
</svg>
