<?xml version="1.0" encoding="UTF-8" standalone="no"?>
<!DOCTYPE svg PUBLIC "-//W3C//DTD SVG 1.1//EN"
 "http://www.w3.org/Graphics/SVG/1.1/DTD/svg11.dtd">
<!-- Generated by graphviz version 8.0.5 (0)
 -->
<!-- Title: VALTCUPL Pages: 1 -->
<svg width="940pt" height="1273pt"
 viewBox="0.00 0.00 940.02 1273.30" xmlns="http://www.w3.org/2000/svg" xmlns:xlink="http://www.w3.org/1999/xlink">
<g id="graph0" class="graph" transform="scale(1 1) rotate(0) translate(4 1269.3)">
<title>VALTCUPL</title>
<polygon fill="white" stroke="none" points="-4,4 -4,-1269.3 936.02,-1269.3 936.02,4 -4,4"/>
<!-- start -->
<g id="node1" class="node">
<title>start</title>
<ellipse fill="#ffffff" stroke="#000000" cx="252" cy="-1247.3" rx="27" ry="18"/>
</g>
<!-- critter_p_proc -->
<g id="node2" class="node">
<title>critter_p_proc</title>
<ellipse fill="#ffffff" stroke="#000000" cx="27" cy="-1162.25" rx="27" ry="18"/>
</g>
<!-- start&#45;&gt;critter_p_proc -->
<g id="edge1" class="edge">
<title>start&#45;&gt;critter_p_proc</title>
<path fill="none" stroke="#555555" stroke-dasharray="1,5" d="M225.71,-1242.22C188.02,-1235.63 117.22,-1220.44 63,-1192.3 58.63,-1190.04 54.29,-1187.19 50.22,-1184.17"/>
<polygon fill="#555555" stroke="#555555" points="52.81,-1180.96 42.81,-1177.45 48.43,-1186.43 52.81,-1180.96"/>
</g>
<!-- destroy_p_proc -->
<g id="node3" class="node">
<title>destroy_p_proc</title>
<ellipse fill="#ffffff" stroke="#000000" cx="99" cy="-1162.25" rx="27" ry="18"/>
</g>
<!-- start&#45;&gt;destroy_p_proc -->
<g id="edge2" class="edge">
<title>start&#45;&gt;destroy_p_proc</title>
<path fill="none" stroke="#555555" stroke-dasharray="1,5" d="M228.71,-1237.54C204.46,-1227.97 165.79,-1211.42 135,-1192.3 131.01,-1189.82 126.96,-1186.96 123.09,-1184.02"/>
<polygon fill="#555555" stroke="#555555" points="125.5,-1180.66 115.5,-1177.15 121.13,-1186.13 125.5,-1180.66"/>
</g>
<!-- look_at_p_proc -->
<g id="node4" class="node">
<title>look_at_p_proc</title>
<ellipse fill="#ffffff" stroke="#000000" cx="252" cy="-1162.25" rx="107.83" ry="30.05"/>
<text text-anchor="middle" x="252" y="-1166.2" font-family="Times,serif" font-size="14.00">You see a citizen of</text>
<text text-anchor="middle" x="252" y="-1148.95" font-family="Times,serif" font-size="14.00">Vault 13.</text>
</g>
<!-- start&#45;&gt;look_at_p_proc -->
<g id="edge3" class="edge">
<title>start&#45;&gt;look_at_p_proc</title>
<path fill="none" stroke="#555555" stroke-dasharray="1,5" d="M252,-1229.09C252,-1221.6 252,-1212.46 252,-1203.42"/>
<polygon fill="#555555" stroke="#555555" points="255.5,-1203.54 252,-1193.54 248.5,-1203.54 255.5,-1203.54"/>
</g>
<!-- pickup_p_proc -->
<g id="node5" class="node">
<title>pickup_p_proc</title>
<ellipse fill="#ffffff" stroke="#000000" cx="405" cy="-1162.25" rx="27" ry="18"/>
</g>
<!-- start&#45;&gt;pickup_p_proc -->
<g id="edge4" class="edge">
<title>start&#45;&gt;pickup_p_proc</title>
<path fill="none" stroke="#555555" stroke-dasharray="1,5" d="M275.29,-1237.54C299.54,-1227.97 338.21,-1211.42 369,-1192.3 372.99,-1189.82 377.04,-1186.96 380.91,-1184.02"/>
<polygon fill="#555555" stroke="#555555" points="382.87,-1186.13 388.5,-1177.15 378.5,-1180.66 382.87,-1186.13"/>
</g>
<!-- talk_p_proc -->
<g id="node6" class="node">
<title>talk_p_proc</title>
<ellipse fill="#ffffff" stroke="#000000" cx="477" cy="-1162.25" rx="27" ry="18"/>
</g>
<!-- start&#45;&gt;talk_p_proc -->
<g id="edge5" class="edge">
<title>start&#45;&gt;talk_p_proc</title>
<path fill="none" stroke="#555555" stroke-dasharray="1,5" d="M278.29,-1242.22C315.98,-1235.63 386.78,-1220.44 441,-1192.3 445.37,-1190.04 449.71,-1187.19 453.78,-1184.17"/>
<polygon fill="#555555" stroke="#555555" points="455.57,-1186.43 461.19,-1177.45 451.19,-1180.96 455.57,-1186.43"/>
</g>
<!-- get_reaction -->
<g id="node7" class="node">
<title>get_reaction</title>
<ellipse fill="#ffffff" stroke="#000000" cx="36" cy="-827.6" rx="27" ry="18"/>
</g>
<!-- talk_p_proc&#45;&gt;get_reaction -->
<g id="edge6" class="edge">
<title>talk_p_proc&#45;&gt;get_reaction</title>
<path fill="none" stroke="#555555" stroke-dasharray="1,5" d="M462.83,-1146.72C456.65,-1141.25 449,-1135.56 441,-1132.2 375.82,-1104.81 179.86,-1139.8 125,-1095.2 51.12,-1035.14 38.16,-911.76 36.17,-856.47"/>
<polygon fill="#555555" stroke="#555555" points="39.65,-856.66 35.9,-846.75 32.65,-856.84 39.65,-856.66"/>
</g>
<!-- ValtCupl07 -->
<g id="node8" class="node">
<title>ValtCupl07</title>
<ellipse fill="#ffffff" stroke="#000000" cx="553" cy="-991.96" rx="123.21" ry="42.25"/>
<text text-anchor="middle" x="553" y="-1004.54" font-family="Times,serif" font-size="14.00">You should leave. This</text>
<text text-anchor="middle" x="553" y="-987.29" font-family="Times,serif" font-size="14.00">isn&#39;t your place here</text>
<text text-anchor="middle" x="553" y="-970.04" font-family="Times,serif" font-size="14.00">anymore.</text>
</g>
<!-- talk_p_proc&#45;&gt;ValtCupl07 -->
<g id="edge7" class="edge">
<title>talk_p_proc&#45;&gt;ValtCupl07</title>
<path fill="none" stroke="#555555" stroke-dasharray="1,5" d="M484.57,-1144.5C495.06,-1121.27 514.48,-1078.26 529.96,-1043.98"/>
<polygon fill="#555555" stroke="#555555" points="533.49,-1045.67 534.42,-1035.11 527.11,-1042.79 533.49,-1045.67"/>
</g>
<!-- ValtCupl06 -->
<g id="node9" class="node">
<title>ValtCupl06</title>
<ellipse fill="#ffffff" stroke="#000000" cx="812" cy="-991.96" rx="118.02" ry="18"/>
<text text-anchor="middle" x="812" y="-987.29" font-family="Times,serif" font-size="14.00">We really like it here.</text>
</g>
<!-- talk_p_proc&#45;&gt;ValtCupl06 -->
<g id="edge8" class="edge">
<title>talk_p_proc&#45;&gt;ValtCupl06</title>
<path fill="none" stroke="#555555" stroke-dasharray="1,5" d="M496.42,-1149.22C506.45,-1143.42 519.07,-1136.76 531,-1132.2 596.76,-1107.09 621.82,-1126.25 685,-1095.2 725.17,-1075.46 764.17,-1041.1 788.12,-1017.71"/>
<polygon fill="#555555" stroke="#555555" points="790.01,-1020.77 794.64,-1011.24 785.08,-1015.8 790.01,-1020.77"/>
</g>
<!-- ValtCupl00 -->
<g id="node10" class="node">
<title>ValtCupl00</title>
<ellipse fill="#ffffff" stroke="#000000" cx="273" cy="-991.96" rx="139.12" ry="103.24"/>
<text text-anchor="middle" x="273" y="-1047.66" font-family="Times,serif" font-size="14.00">We didn&#39;t think that you</text>
<text text-anchor="middle" x="273" y="-1030.41" font-family="Times,serif" font-size="14.00">were coming back. You</text>
<text text-anchor="middle" x="273" y="-1013.16" font-family="Times,serif" font-size="14.00">have</text>
<text text-anchor="middle" x="273" y="-995.91" font-family="Times,serif" font-size="14.00">such a nice room, and we</text>
<text text-anchor="middle" x="273" y="-978.66" font-family="Times,serif" font-size="14.00">were a little crowded</text>
<text text-anchor="middle" x="273" y="-961.41" font-family="Times,serif" font-size="14.00">with</text>
<text text-anchor="middle" x="273" y="-944.16" font-family="Times,serif" font-size="14.00">her parents. I hope you</text>
<text text-anchor="middle" x="273" y="-926.91" font-family="Times,serif" font-size="14.00">don&#39;t mind.</text>
</g>
<!-- talk_p_proc&#45;&gt;ValtCupl00 -->
<g id="edge9" class="edge">
<title>talk_p_proc&#45;&gt;ValtCupl00</title>
<path fill="none" stroke="#555555" stroke-dasharray="1,5" d="M460.65,-1147.76C441.31,-1131.81 407.46,-1103.88 373.79,-1076.1"/>
<polygon fill="#555555" stroke="#555555" points="376.64,-1073.1 366.7,-1069.43 372.18,-1078.5 376.64,-1073.1"/>
</g>
<!-- ReactToLevel -->
<g id="node20" class="node">
<title>ReactToLevel</title>
<ellipse fill="#ffffff" stroke="#000000" cx="246" cy="-18" rx="27" ry="18"/>
</g>
<!-- get_reaction&#45;&gt;ReactToLevel -->
<g id="edge22" class="edge">
<title>get_reaction&#45;&gt;ReactToLevel</title>
<path fill="none" stroke="#555555" stroke-dasharray="1,5" d="M36,-809.28C36,-776.2 36,-701.76 36,-639.1 36,-639.1 36,-639.1 36,-90 36,-53.95 148.46,-32.64 208.79,-23.8"/>
<polygon fill="#555555" stroke="#555555" points="208.99,-27.17 218.4,-22.3 208.01,-20.24 208.99,-27.17"/>
</g>
<!-- ValtCupl02 -->
<g id="node11" class="node">
<title>ValtCupl02</title>
<ellipse fill="#ffffff" stroke="#000000" cx="273" cy="-724.22" rx="138.59" ry="42.25"/>
<text text-anchor="middle" x="273" y="-736.8" font-family="Times,serif" font-size="14.00">Look, we could really use</text>
<text text-anchor="middle" x="273" y="-719.55" font-family="Times,serif" font-size="14.00">the space. I hope you</text>
<text text-anchor="middle" x="273" y="-702.3" font-family="Times,serif" font-size="14.00">will reconsider.</text>
</g>
<!-- ValtCupl00&#45;&gt;ValtCupl02 -->
<g id="edge10" class="edge">
<title>ValtCupl00&#45;&gt;ValtCupl02</title>
<path fill="none" stroke="#00991f" d="M273,-888.6C273,-850.67 273,-809.24 273,-777.59"/>
<polygon fill="#00991f" stroke="#00991f" points="276.5,-777.82 273,-767.82 269.5,-777.82 276.5,-777.82"/>
<text text-anchor="middle" x="354.38" y="-831.55" font-family="Times,serif" font-size="14.00" fill="#00991f">Yes, I do mind. Get out</text>
<text text-anchor="middle" x="354.38" y="-814.3" font-family="Times,serif" font-size="14.00" fill="#00991f">of my room!</text>
</g>
<!-- ValtCupl03 -->
<g id="node12" class="node">
<title>ValtCupl03</title>
<ellipse fill="#ffffff" stroke="#000000" cx="191" cy="-259.84" rx="126.93" ry="42.25"/>
<text text-anchor="middle" x="191" y="-272.42" font-family="Times,serif" font-size="14.00">Thanks! We really</text>
<text text-anchor="middle" x="191" y="-255.17" font-family="Times,serif" font-size="14.00">appreciate it. We put</text>
<text text-anchor="middle" x="191" y="-237.92" font-family="Times,serif" font-size="14.00">your stuff in the trunk.</text>
</g>
<!-- ValtCupl00&#45;&gt;ValtCupl03 -->
<g id="edge11" class="edge">
<title>ValtCupl00&#45;&gt;ValtCupl03</title>
<path fill="none" stroke="#99000e" d="M199.27,-904.14C152.03,-841.89 95.83,-753.52 75.25,-663.97 45.68,-535.35 116.01,-386.78 159.59,-310.99"/>
<polygon fill="#99000e" stroke="#99000e" points="163.01,-313.07 165.03,-302.67 156.97,-309.54 163.01,-313.07"/>
<text text-anchor="middle" x="160.38" y="-642.05" font-family="Times,serif" font-size="14.00" fill="#99000e">Nah, I don&#39;t care. Enjoy</text>
<text text-anchor="middle" x="160.38" y="-624.8" font-family="Times,serif" font-size="14.00" fill="#99000e">the room.</text>
</g>
<!-- ValtCupl00a -->
<g id="node13" class="node">
<title>ValtCupl00a</title>
<ellipse fill="#ffffff" stroke="#000000" cx="486" cy="-724.22" rx="27" ry="18"/>
</g>
<!-- ValtCupl00&#45;&gt;ValtCupl00a -->
<g id="edge12" class="edge">
<title>ValtCupl00&#45;&gt;ValtCupl00a</title>
<path fill="none" stroke="#003a99" d="M374.87,-921.44C406.52,-899.1 434.61,-878.18 440,-870.72 465.87,-834.98 477.55,-784.16 482.55,-753.01"/>
<polygon fill="#003a99" stroke="#003a99" points="486.11,-753.89 484.11,-743.49 479.18,-752.87 486.11,-753.89"/>
<text text-anchor="middle" x="567" y="-857.42" font-family="Times,serif" font-size="14.00" fill="#003a99">It would be reassuring to</text>
<text text-anchor="middle" x="567" y="-840.17" font-family="Times,serif" font-size="14.00" fill="#003a99">have my own quarters</text>
<text text-anchor="middle" x="567" y="-822.92" font-family="Times,serif" font-size="14.00" fill="#003a99">back.</text>
<text text-anchor="middle" x="567" y="-805.67" font-family="Times,serif" font-size="14.00" fill="#003a99">Please find somewhere</text>
<text text-anchor="middle" x="567" y="-788.42" font-family="Times,serif" font-size="14.00" fill="#003a99">else to live.</text>
</g>
<!-- ValtCupl01 -->
<g id="node14" class="node">
<title>ValtCupl01</title>
<ellipse fill="#ffffff" stroke="#000000" cx="786" cy="-527.58" rx="146.02" ry="66.64"/>
<text text-anchor="middle" x="786" y="-557.4" font-family="Times,serif" font-size="14.00">Look, I don&#39;t want to</text>
<text text-anchor="middle" x="786" y="-540.15" font-family="Times,serif" font-size="14.00">argue with you, but you</text>
<text text-anchor="middle" x="786" y="-522.9" font-family="Times,serif" font-size="14.00">obviously don&#39;t deserve</text>
<text text-anchor="middle" x="786" y="-505.65" font-family="Times,serif" font-size="14.00">this room anymore. Please</text>
<text text-anchor="middle" x="786" y="-488.4" font-family="Times,serif" font-size="14.00">leave.</text>
</g>
<!-- ValtCupl00&#45;&gt;ValtCupl01 -->
<g id="edge13" class="edge">
<title>ValtCupl00&#45;&gt;ValtCupl01</title>
<path fill="none" stroke="#679900" d="M366.89,-915.43C384.07,-904.8 402.45,-895.28 421,-888.72 471.43,-870.9 618.35,-902.99 661,-870.72 743.78,-808.1 771.79,-685.14 781.24,-604.95"/>
<polygon fill="#679900" stroke="#679900" points="784.78,-605.74 782.4,-595.41 777.83,-604.97 784.78,-605.74"/>
<text text-anchor="middle" x="784.25" y="-719.55" font-family="Times,serif" font-size="14.00" fill="#679900">Hng.</text>
</g>
<!-- ValtCupl02&#45;&gt;ValtCupl03 -->
<g id="edge18" class="edge">
<title>ValtCupl02&#45;&gt;ValtCupl03</title>
<path fill="none" stroke="#009972" d="M273.07,-681.63C271,-658.66 264.73,-631.05 248,-612.22 232.03,-594.26 211.06,-613.72 197,-594.22 137.02,-511.04 157.18,-383.34 175.29,-312.56"/>
<polygon fill="#009972" stroke="#009972" points="178.87,-313.69 178.05,-303.13 172.11,-311.9 178.87,-313.69"/>
<text text-anchor="middle" x="269" y="-531.53" font-family="Times,serif" font-size="14.00" fill="#009972">Well, ok. You need it</text>
<text text-anchor="middle" x="269" y="-514.28" font-family="Times,serif" font-size="14.00" fill="#009972">more than I do.</text>
</g>
<!-- ValtCupl02&#45;&gt;ValtCupl01 -->
<g id="edge17" class="edge">
<title>ValtCupl02&#45;&gt;ValtCupl01</title>
<path fill="none" stroke="#990093" d="M309.21,-683.12C334.44,-658.06 370.35,-627.7 408.75,-612.22 500.67,-575.18 534.76,-617.85 631,-594.22 645.76,-590.6 660.92,-585.74 675.7,-580.3"/>
<polygon fill="#990093" stroke="#990093" points="676.76,-583.26 684.87,-576.44 674.28,-576.72 676.76,-583.26"/>
<text text-anchor="middle" x="494.12" y="-650.67" font-family="Times,serif" font-size="14.00" fill="#990093">Well, let me think about</text>
<text text-anchor="middle" x="494.12" y="-633.42" font-family="Times,serif" font-size="14.00" fill="#990093">it for a moment.</text>
<text text-anchor="middle" x="494.12" y="-616.17" font-family="Times,serif" font-size="14.00" fill="#990093"> Hmmm. No. Get out!</text>
</g>
<!-- BigUpReact -->
<g id="node17" class="node">
<title>BigUpReact</title>
<ellipse fill="#ffffff" stroke="#000000" cx="191" cy="-91" rx="27" ry="18"/>
</g>
<!-- ValtCupl03&#45;&gt;BigUpReact -->
<g id="edge19" class="edge">
<title>ValtCupl03&#45;&gt;BigUpReact</title>
<path fill="none" stroke="#555555" stroke-dasharray="1,5" d="M191,-217.17C191,-186.9 191,-146.76 191,-120.19"/>
<polygon fill="#555555" stroke="#555555" points="194.5,-120.36 191,-110.36 187.5,-120.36 194.5,-120.36"/>
</g>
<!-- ValtCupl00a&#45;&gt;ValtCupl01 -->
<g id="edge15" class="edge">
<title>ValtCupl00a&#45;&gt;ValtCupl01</title>
<path fill="none" stroke="#555555" stroke-dasharray="1,5" d="M504.77,-711.05C541.9,-686.95 626.96,-631.77 693.87,-588.36"/>
<polygon fill="#555555" stroke="#555555" points="695.28,-590.96 701.76,-582.58 691.47,-585.09 695.28,-590.96"/>
</g>
<!-- ValtCupl04 -->
<g id="node15" class="node">
<title>ValtCupl04</title>
<ellipse fill="#ffffff" stroke="#000000" cx="486" cy="-527.58" rx="136.47" ry="66.64"/>
<text text-anchor="middle" x="486" y="-557.4" font-family="Times,serif" font-size="14.00">Well, I don&#39;t know. You</text>
<text text-anchor="middle" x="486" y="-540.15" font-family="Times,serif" font-size="14.00">don&#39;t seem to be using it</text>
<text text-anchor="middle" x="486" y="-522.9" font-family="Times,serif" font-size="14.00">very</text>
<text text-anchor="middle" x="486" y="-505.65" font-family="Times,serif" font-size="14.00">often, and we sure could</text>
<text text-anchor="middle" x="486" y="-488.4" font-family="Times,serif" font-size="14.00">use the space.</text>
</g>
<!-- ValtCupl00a&#45;&gt;ValtCupl04 -->
<g id="edge14" class="edge">
<title>ValtCupl00a&#45;&gt;ValtCupl04</title>
<path fill="none" stroke="#555555" stroke-dasharray="1,5" d="M486,-705.95C486,-683.34 486,-642.24 486,-605.29"/>
<polygon fill="#555555" stroke="#555555" points="489.5,-605.49 486,-595.49 482.5,-605.49 489.5,-605.49"/>
</g>
<!-- BigDownReact -->
<g id="node16" class="node">
<title>BigDownReact</title>
<ellipse fill="#ffffff" stroke="#000000" cx="489" cy="-145" rx="27" ry="18"/>
</g>
<!-- ValtCupl01&#45;&gt;BigDownReact -->
<g id="edge16" class="edge">
<title>ValtCupl01&#45;&gt;BigDownReact</title>
<path fill="none" stroke="#555555" stroke-dasharray="1,5" d="M772.5,-460.88C752.96,-382.58 709.15,-253.29 622,-181 595.31,-158.86 556.1,-150.58 527.17,-147.55"/>
<polygon fill="#555555" stroke="#555555" points="527.51,-143.98 517.24,-146.61 526.9,-150.96 527.51,-143.98"/>
</g>
<!-- ValtCupl04&#45;&gt;ValtCupl03 -->
<g id="edge20" class="edge">
<title>ValtCupl04&#45;&gt;ValtCupl03</title>
<path fill="none" stroke="#994500" d="M418.97,-469.26C408.88,-460.5 398.63,-451.51 389,-442.93 337.94,-397.46 280.52,-344.44 240.71,-307.38"/>
<polygon fill="#994500" stroke="#994500" points="243.45,-305.21 233.75,-300.95 238.68,-310.33 243.45,-305.21"/>
<text text-anchor="middle" x="435.5" y="-395.13" font-family="Times,serif" font-size="14.00" fill="#994500">Fine. Take it.</text>
</g>
<!-- ValtCupl05 -->
<g id="node18" class="node">
<title>ValtCupl05</title>
<ellipse fill="#ffffff" stroke="#000000" cx="486" cy="-259.84" rx="127.46" ry="78.84"/>
<text text-anchor="middle" x="486" y="-298.29" font-family="Times,serif" font-size="14.00">Gee, I didn&#39;t think you</text>
<text text-anchor="middle" x="486" y="-281.04" font-family="Times,serif" font-size="14.00">would still care about</text>
<text text-anchor="middle" x="486" y="-263.79" font-family="Times,serif" font-size="14.00">this place from what</text>
<text text-anchor="middle" x="486" y="-246.54" font-family="Times,serif" font-size="14.00">I&#39;ve heard. You have a</text>
<text text-anchor="middle" x="486" y="-229.29" font-family="Times,serif" font-size="14.00">good day. We&#39;ll go back</text>
<text text-anchor="middle" x="486" y="-212.04" font-family="Times,serif" font-size="14.00">to her mothers&#39; place.</text>
</g>
<!-- ValtCupl04&#45;&gt;ValtCupl05 -->
<g id="edge21" class="edge">
<title>ValtCupl04&#45;&gt;ValtCupl05</title>
<path fill="none" stroke="#190099" d="M486,-460.55C486,-426.97 486,-385.7 486,-349.4"/>
<polygon fill="#190099" stroke="#190099" points="489.5,-349.81 486,-339.81 482.5,-349.81 489.5,-349.81"/>
<text text-anchor="middle" x="575.25" y="-429.63" font-family="Times,serif" font-size="14.00" fill="#190099">I need this place to</text>
<text text-anchor="middle" x="575.25" y="-412.38" font-family="Times,serif" font-size="14.00" fill="#190099">remember my roots. And</text>
<text text-anchor="middle" x="575.25" y="-395.13" font-family="Times,serif" font-size="14.00" fill="#190099">besides,</text>
<text text-anchor="middle" x="575.25" y="-377.88" font-family="Times,serif" font-size="14.00" fill="#190099">it&#39;s a good place to</text>
<text text-anchor="middle" x="575.25" y="-360.63" font-family="Times,serif" font-size="14.00" fill="#190099">rest.</text>
</g>
<!-- BigDownReact&#45;&gt;ReactToLevel -->
<g id="edge26" class="edge">
<title>BigDownReact&#45;&gt;ReactToLevel</title>
<path fill="none" stroke="#555555" stroke-dasharray="1,5" d="M461.65,-143.48C408.24,-141.89 292.85,-135.41 265,-109 248.53,-93.38 244.49,-67.37 244.16,-47.32"/>
<polygon fill="#555555" stroke="#555555" points="247.67,-47.37 244.32,-37.32 240.67,-47.27 247.67,-47.37"/>
</g>
<!-- BigUpReact&#45;&gt;ReactToLevel -->
<g id="edge25" class="edge">
<title>BigUpReact&#45;&gt;ReactToLevel</title>
<path fill="none" stroke="#555555" stroke-dasharray="1,5" d="M202.93,-74.59C210.07,-65.38 219.29,-53.48 227.37,-43.05"/>
<polygon fill="#555555" stroke="#555555" points="230.73,-45.42 234.09,-35.38 225.2,-41.14 230.73,-45.42"/>
</g>
<!-- ValtCuplEnd -->
<g id="node19" class="node">
<title>ValtCuplEnd</title>
<ellipse fill="#ffffff" stroke="#000000" cx="392" cy="-1247.3" rx="27" ry="18"/>
</g>
<!-- LevelToReact -->
<g id="node21" class="node">
<title>LevelToReact</title>
<ellipse fill="#ffffff" stroke="#000000" cx="567" cy="-1162.25" rx="27" ry="18"/>
</g>
<!-- UpReact -->
<g id="node22" class="node">
<title>UpReact</title>
<ellipse fill="#ffffff" stroke="#000000" cx="301" cy="-91" rx="27" ry="18"/>
</g>
<!-- UpReact&#45;&gt;ReactToLevel -->
<g id="edge23" class="edge">
<title>UpReact&#45;&gt;ReactToLevel</title>
<path fill="none" stroke="#555555" stroke-dasharray="1,5" d="M289.07,-74.59C281.93,-65.38 272.71,-53.48 264.63,-43.05"/>
<polygon fill="#555555" stroke="#555555" points="266.8,-41.14 257.91,-35.38 261.27,-45.42 266.8,-41.14"/>
</g>
<!-- DownReact -->
<g id="node23" class="node">
<title>DownReact</title>
<ellipse fill="#ffffff" stroke="#000000" cx="373" cy="-91" rx="27" ry="18"/>
</g>
<!-- DownReact&#45;&gt;ReactToLevel -->
<g id="edge24" class="edge">
<title>DownReact&#45;&gt;ReactToLevel</title>
<path fill="none" stroke="#555555" stroke-dasharray="1,5" d="M352.88,-78.75C332.07,-67.12 299.36,-48.83 275.6,-35.55"/>
<polygon fill="#555555" stroke="#555555" points="277.47,-32.02 267.03,-30.2 274.05,-38.13 277.47,-32.02"/>
</g>
<!-- BottomReact -->
<g id="node24" class="node">
<title>BottomReact</title>
<ellipse fill="#ffffff" stroke="#000000" cx="648" cy="-1247.3" rx="27" ry="18"/>
</g>
<!-- TopReact -->
<g id="node25" class="node">
<title>TopReact</title>
<ellipse fill="#ffffff" stroke="#000000" cx="720" cy="-1247.3" rx="27" ry="18"/>
</g>
<!-- UpReactLevel -->
<g id="node26" class="node">
<title>UpReactLevel</title>
<ellipse fill="#ffffff" stroke="#000000" cx="504" cy="-1247.3" rx="27" ry="18"/>
</g>
<!-- UpReactLevel&#45;&gt;LevelToReact -->
<g id="edge27" class="edge">
<title>UpReactLevel&#45;&gt;LevelToReact</title>
<path fill="none" stroke="#555555" stroke-dasharray="1,5" d="M515.85,-1230.68C525.09,-1218.5 538.08,-1201.37 548.66,-1187.42"/>
<polygon fill="#555555" stroke="#555555" points="551.95,-1189.88 555.2,-1179.8 546.37,-1185.65 551.95,-1189.88"/>
</g>
<!-- DownReactLevel -->
<g id="node27" class="node">
<title>DownReactLevel</title>
<ellipse fill="#ffffff" stroke="#000000" cx="576" cy="-1247.3" rx="27" ry="18"/>
</g>
<!-- DownReactLevel&#45;&gt;LevelToReact -->
<g id="edge28" class="edge">
<title>DownReactLevel&#45;&gt;LevelToReact</title>
<path fill="none" stroke="#555555" stroke-dasharray="1,5" d="M574.14,-1229.09C572.95,-1218.18 571.4,-1203.81 570.04,-1191.28"/>
<polygon fill="#555555" stroke="#555555" points="573.42,-1191 568.86,-1181.44 566.46,-1191.76 573.42,-1191"/>
</g>
<!-- Goodbyes -->
<g id="node28" class="node">
<title>Goodbyes</title>
<ellipse fill="#ffffff" stroke="#000000" cx="792" cy="-1247.3" rx="27" ry="18"/>
</g>
</g>
</svg>
