<?xml version="1.0" encoding="UTF-8" standalone="no"?>
<!DOCTYPE svg PUBLIC "-//W3C//DTD SVG 1.1//EN"
 "http://www.w3.org/Graphics/SVG/1.1/DTD/svg11.dtd">
<!-- Generated by graphviz version 8.0.5 (0)
 -->
<!-- Title: ACVillgr Pages: 1 -->
<svg width="1715pt" height="1951pt"
 viewBox="0.00 0.00 1715.24 1951.37" xmlns="http://www.w3.org/2000/svg" xmlns:xlink="http://www.w3.org/1999/xlink">
<g id="graph0" class="graph" transform="scale(1 1) rotate(0) translate(4 1947.37)">
<title>ACVillgr</title>
<polygon fill="white" stroke="none" points="-4,4 -4,-1947.37 1711.24,-1947.37 1711.24,4 -4,4"/>
<!-- checkPartyMembersNearDoor -->
<g id="node1" class="node">
<title>checkPartyMembersNearDoor</title>
<ellipse fill="#ffffff" stroke="#000000" cx="30.24" cy="-1888.92" rx="27" ry="18"/>
</g>
<!-- start -->
<g id="node2" class="node">
<title>start</title>
<ellipse fill="#ffffff" stroke="#000000" cx="102.24" cy="-1888.92" rx="27" ry="18"/>
</g>
<!-- critter_p_proc -->
<g id="node3" class="node">
<title>critter_p_proc</title>
<ellipse fill="#ffffff" stroke="#000000" cx="174.24" cy="-1888.92" rx="27" ry="18"/>
</g>
<!-- pickup_p_proc -->
<g id="node4" class="node">
<title>pickup_p_proc</title>
<ellipse fill="#ffffff" stroke="#000000" cx="246.24" cy="-1888.92" rx="27" ry="18"/>
</g>
<!-- talk_p_proc -->
<g id="node5" class="node">
<title>talk_p_proc</title>
<ellipse fill="#ffffff" stroke="#000000" cx="318.24" cy="-1888.92" rx="27" ry="18"/>
</g>
<!-- Node009 -->
<g id="node6" class="node">
<title>Node009</title>
<ellipse fill="#ffffff" stroke="#000000" cx="318.24" cy="-1763.22" rx="27" ry="18"/>
</g>
<!-- talk_p_proc&#45;&gt;Node009 -->
<g id="edge1" class="edge">
<title>talk_p_proc&#45;&gt;Node009</title>
<path fill="none" stroke="#555555" stroke-dasharray="1,5" d="M318.24,-1870.46C318.24,-1850.2 318.24,-1816.51 318.24,-1792.5"/>
<polygon fill="#555555" stroke="#555555" points="321.74,-1792.6 318.24,-1782.6 314.74,-1792.6 321.74,-1792.6"/>
</g>
<!-- Node997 -->
<g id="node7" class="node">
<title>Node997</title>
<ellipse fill="#ffffff" stroke="#000000" cx="452.24" cy="-1763.22" rx="27" ry="18"/>
</g>
<!-- talk_p_proc&#45;&gt;Node997 -->
<g id="edge2" class="edge">
<title>talk_p_proc&#45;&gt;Node997</title>
<path fill="none" stroke="#555555" stroke-dasharray="1,5" d="M327,-1871.87C333.59,-1860.64 343.33,-1845.71 354.24,-1834.47 374.77,-1813.34 402.34,-1794.22 423.01,-1781.28"/>
<polygon fill="#555555" stroke="#555555" points="424.56,-1783.82 431.25,-1775.61 420.9,-1777.85 424.56,-1783.82"/>
</g>
<!-- Node007 -->
<g id="node16" class="node">
<title>Node007</title>
<ellipse fill="#ffffff" stroke="#000000" cx="141.24" cy="-1275.65" rx="141.24" ry="66.64"/>
<text text-anchor="middle" x="141.24" y="-1305.48" font-family="Times,serif" font-size="14.00">Oh gods &#45;&#45; may the spirit</text>
<text text-anchor="middle" x="141.24" y="-1288.23" font-family="Times,serif" font-size="14.00">of the Founder guide you.</text>
<text text-anchor="middle" x="141.24" y="-1270.98" font-family="Times,serif" font-size="14.00">If you&#39;re the Chosen One,</text>
<text text-anchor="middle" x="141.24" y="-1253.73" font-family="Times,serif" font-size="14.00">we&#39;re</text>
<text text-anchor="middle" x="141.24" y="-1236.48" font-family="Times,serif" font-size="14.00"> going to need it.</text>
</g>
<!-- Node997&#45;&gt;Node007 -->
<g id="edge3" class="edge">
<title>Node997&#45;&gt;Node007</title>
<path fill="none" stroke="#555555" stroke-dasharray="1,5" d="M425.16,-1760.17C390.15,-1756.09 329.42,-1743.99 293.24,-1708.22 195.62,-1611.69 160.53,-1448.78 148.04,-1353.13"/>
<polygon fill="#555555" stroke="#555555" points="151.41,-1352.86 146.69,-1343.38 144.46,-1353.73 151.41,-1352.86"/>
</g>
<!-- Node001 -->
<g id="node17" class="node">
<title>Node001</title>
<ellipse fill="#ffffff" stroke="#000000" cx="452.24" cy="-1275.65" rx="150.26" ry="432.57"/>
<text text-anchor="middle" x="452.24" y="-1564.23" font-family="Times,serif" font-size="14.00">Chosen One, our village</text>
<text text-anchor="middle" x="452.24" y="-1546.98" font-family="Times,serif" font-size="14.00">is almost dead... you&#39;re</text>
<text text-anchor="middle" x="452.24" y="-1529.73" font-family="Times,serif" font-size="14.00">our only hope. Is there</text>
<text text-anchor="middle" x="452.24" y="-1512.48" font-family="Times,serif" font-size="14.00">anything</text>
<text text-anchor="middle" x="452.24" y="-1495.23" font-family="Times,serif" font-size="14.00">I could tell you that</text>
<text text-anchor="middle" x="452.24" y="-1477.98" font-family="Times,serif" font-size="14.00">would aide you in our</text>
<text text-anchor="middle" x="452.24" y="-1460.73" font-family="Times,serif" font-size="14.00">salvation?</text>
<text text-anchor="middle" x="452.24" y="-1443.48" font-family="Times,serif" font-size="14.00">&#45;&#45;&#45;</text>
<text text-anchor="middle" x="452.24" y="-1426.23" font-family="Times,serif" font-size="14.00">We are running out of</text>
<text text-anchor="middle" x="452.24" y="-1408.98" font-family="Times,serif" font-size="14.00">time, Chosen One. Please,</text>
<text text-anchor="middle" x="452.24" y="-1391.73" font-family="Times,serif" font-size="14.00">finish your holy quest</text>
<text text-anchor="middle" x="452.24" y="-1374.48" font-family="Times,serif" font-size="14.00">soon. We can</text>
<text text-anchor="middle" x="452.24" y="-1357.23" font-family="Times,serif" font-size="14.00">not afford to wait much</text>
<text text-anchor="middle" x="452.24" y="-1339.98" font-family="Times,serif" font-size="14.00">longer. If there&#39;s</text>
<text text-anchor="middle" x="452.24" y="-1322.73" font-family="Times,serif" font-size="14.00">anythying I can do to</text>
<text text-anchor="middle" x="452.24" y="-1305.48" font-family="Times,serif" font-size="14.00">help you to save us, let</text>
<text text-anchor="middle" x="452.24" y="-1288.23" font-family="Times,serif" font-size="14.00">me know.</text>
<text text-anchor="middle" x="452.24" y="-1270.98" font-family="Times,serif" font-size="14.00">&#45;&#45;&#45;</text>
<text text-anchor="middle" x="452.24" y="-1253.73" font-family="Times,serif" font-size="14.00">Chosen One, our people</text>
<text text-anchor="middle" x="452.24" y="-1236.48" font-family="Times,serif" font-size="14.00">are dying. You must hurry</text>
<text text-anchor="middle" x="452.24" y="-1219.23" font-family="Times,serif" font-size="14.00">your search for the holy</text>
<text text-anchor="middle" x="452.24" y="-1201.98" font-family="Times,serif" font-size="14.00">GECK. What may I do to</text>
<text text-anchor="middle" x="452.24" y="-1184.73" font-family="Times,serif" font-size="14.00">aid you in this most holy</text>
<text text-anchor="middle" x="452.24" y="-1167.48" font-family="Times,serif" font-size="14.00">of quests?</text>
<text text-anchor="middle" x="452.24" y="-1150.23" font-family="Times,serif" font-size="14.00">&#45;&#45;&#45;</text>
<text text-anchor="middle" x="452.24" y="-1132.98" font-family="Times,serif" font-size="14.00">Hello, Chosen One. Nice</text>
<text text-anchor="middle" x="452.24" y="-1115.73" font-family="Times,serif" font-size="14.00">to see you again. I pray</text>
<text text-anchor="middle" x="452.24" y="-1098.48" font-family="Times,serif" font-size="14.00">that your holy quest is</text>
<text text-anchor="middle" x="452.24" y="-1081.23" font-family="Times,serif" font-size="14.00">going well. Is there</text>
<text text-anchor="middle" x="452.24" y="-1063.98" font-family="Times,serif" font-size="14.00">something I can help you</text>
<text text-anchor="middle" x="452.24" y="-1046.73" font-family="Times,serif" font-size="14.00">with?</text>
<text text-anchor="middle" x="452.24" y="-1029.48" font-family="Times,serif" font-size="14.00">&#45;&#45;&#45;</text>
<text text-anchor="middle" x="452.24" y="-1012.23" font-family="Times,serif" font-size="14.00">Hello! I hear you are the</text>
<text text-anchor="middle" x="452.24" y="-994.98" font-family="Times,serif" font-size="14.00">Chosen One. Now, perhaps,</text>
<text text-anchor="middle" x="452.24" y="-977.73" font-family="Times,serif" font-size="14.00">our village can be saved.</text>
</g>
<!-- Node997&#45;&gt;Node001 -->
<g id="edge4" class="edge">
<title>Node997&#45;&gt;Node001</title>
<path fill="none" stroke="#555555" stroke-dasharray="1,5" d="M449.53,-1744.94C449.04,-1738.1 448.6,-1729.41 448.2,-1719.21"/>
<polygon fill="#555555" stroke="#555555" points="451.67,-1719.38 447.82,-1709.51 444.68,-1719.63 451.67,-1719.38"/>
</g>
<!-- Node997&#45;&gt;Node001 -->
<g id="edge5" class="edge">
<title>Node997&#45;&gt;Node001</title>
<path fill="none" stroke="#555555" stroke-dasharray="1,5" d="M454.96,-1744.94C455.44,-1738.1 455.89,-1729.41 456.29,-1719.21"/>
<polygon fill="#555555" stroke="#555555" points="459.81,-1719.63 456.67,-1709.51 452.82,-1719.38 459.81,-1719.63"/>
</g>
<!-- destroy_p_proc -->
<g id="node8" class="node">
<title>destroy_p_proc</title>
<ellipse fill="#ffffff" stroke="#000000" cx="680.24" cy="-1888.92" rx="27" ry="18"/>
</g>
<!-- look_at_p_proc -->
<g id="node9" class="node">
<title>look_at_p_proc</title>
<ellipse fill="#ffffff" stroke="#000000" cx="855.24" cy="-1888.92" rx="129.58" ry="54.45"/>
<text text-anchor="middle" x="855.24" y="-1910.12" font-family="Times,serif" font-size="14.00">You see a male villager.</text>
<text text-anchor="middle" x="855.24" y="-1892.87" font-family="Times,serif" font-size="14.00">&#45;&#45;&#45;</text>
<text text-anchor="middle" x="855.24" y="-1875.62" font-family="Times,serif" font-size="14.00">You see a female</text>
<text text-anchor="middle" x="855.24" y="-1858.37" font-family="Times,serif" font-size="14.00">villager.</text>
</g>
<!-- description_p_proc -->
<g id="node10" class="node">
<title>description_p_proc</title>
<ellipse fill="#ffffff" stroke="#000000" cx="1139.24" cy="-1888.92" rx="135.94" ry="30.05"/>
<text text-anchor="middle" x="1139.24" y="-1892.87" font-family="Times,serif" font-size="14.00">A kindly member of your</text>
<text text-anchor="middle" x="1139.24" y="-1875.62" font-family="Times,serif" font-size="14.00">village.</text>
</g>
<!-- use_skill_on_p_proc -->
<g id="node11" class="node">
<title>use_skill_on_p_proc</title>
<ellipse fill="#ffffff" stroke="#000000" cx="1320.24" cy="-1888.92" rx="27" ry="18"/>
</g>
<!-- damage_p_proc -->
<g id="node12" class="node">
<title>damage_p_proc</title>
<ellipse fill="#ffffff" stroke="#000000" cx="1392.24" cy="-1888.92" rx="27" ry="18"/>
</g>
<!-- map_enter_p_proc -->
<g id="node13" class="node">
<title>map_enter_p_proc</title>
<ellipse fill="#ffffff" stroke="#000000" cx="1464.24" cy="-1888.92" rx="27" ry="18"/>
</g>
<!-- timed_event_p_proc -->
<g id="node14" class="node">
<title>timed_event_p_proc</title>
<ellipse fill="#ffffff" stroke="#000000" cx="1536.24" cy="-1888.92" rx="27" ry="18"/>
</g>
<!-- push_p_proc -->
<g id="node15" class="node">
<title>push_p_proc</title>
<ellipse fill="#ffffff" stroke="#000000" cx="1608.24" cy="-1888.92" rx="27" ry="18"/>
</g>
<!-- Node008 -->
<g id="node27" class="node">
<title>Node008</title>
<ellipse fill="#ffffff" stroke="#000000" cx="133.24" cy="-553.77" rx="112.24" ry="18"/>
<text text-anchor="middle" x="133.24" y="-549.09" font-family="Times,serif" font-size="14.00">Have a safe journey.</text>
</g>
<!-- Node007&#45;&gt;Node008 -->
<g id="edge22" class="edge">
<title>Node007&#45;&gt;Node008</title>
<path fill="none" stroke="#009933" d="M140.51,-1208.54C138.82,-1056.76 134.73,-688.33 133.56,-583.2"/>
<polygon fill="#009933" stroke="#009933" points="137.05,-583.21 133.44,-573.25 130.05,-583.29 137.05,-583.21"/>
<text text-anchor="middle" x="165.49" y="-794.53" font-family="Times,serif" font-size="14.00" fill="#009933">Uun Ga.</text>
</g>
<!-- Node999 -->
<g id="node19" class="node">
<title>Node999</title>
<ellipse fill="#ffffff" stroke="#000000" cx="1019.24" cy="-18" rx="27" ry="18"/>
</g>
<!-- Node001&#45;&gt;Node999 -->
<g id="edge9" class="edge">
<title>Node001&#45;&gt;Node999</title>
<path fill="none" stroke="#009914" d="M340.7,-984.97C298.4,-865.04 260.24,-739.63 260.24,-677.49 260.24,-677.49 260.24,-677.49 260.24,-130.5 260.24,-56.76 828.24,-27.16 981.52,-20.51"/>
<polygon fill="#009914" stroke="#009914" points="981.39,-23.98 991.23,-20.06 981.09,-16.99 981.39,-23.98"/>
<text text-anchor="middle" x="334.49" y="-361.07" font-family="Times,serif" font-size="14.00" fill="#009914">It is good to see you,</text>
<text text-anchor="middle" x="334.49" y="-343.82" font-family="Times,serif" font-size="14.00" fill="#009914">but I must be going.</text>
</g>
<!-- Node003 -->
<g id="node21" class="node">
<title>Node003</title>
<ellipse fill="#ffffff" stroke="#000000" cx="461.24" cy="-455.45" rx="123.21" ry="54.45"/>
<text text-anchor="middle" x="461.24" y="-476.65" font-family="Times,serif" font-size="14.00">Go see Hakunin in the</text>
<text text-anchor="middle" x="461.24" y="-459.4" font-family="Times,serif" font-size="14.00">north corner of the</text>
<text text-anchor="middle" x="461.24" y="-442.15" font-family="Times,serif" font-size="14.00">village. &#160;He can help</text>
<text text-anchor="middle" x="461.24" y="-424.9" font-family="Times,serif" font-size="14.00">you.</text>
</g>
<!-- Node001&#45;&gt;Node003 -->
<g id="edge7" class="edge">
<title>Node001&#45;&gt;Node003</title>
<path fill="none" stroke="#996d00" d="M456.99,-843.09C458.38,-716.77 459.74,-593.32 460.53,-521.1"/>
<polygon fill="#996d00" stroke="#996d00" points="464.04,-521.42 460.65,-511.39 457.04,-521.35 464.04,-521.42"/>
<text text-anchor="middle" x="545.37" y="-689.06" font-family="Times,serif" font-size="14.00" fill="#996d00">Can you tell me where I</text>
<text text-anchor="middle" x="545.37" y="-671.81" font-family="Times,serif" font-size="14.00" fill="#996d00">can find more healing</text>
<text text-anchor="middle" x="545.37" y="-654.56" font-family="Times,serif" font-size="14.00" fill="#996d00">powder?</text>
</g>
<!-- Node004 -->
<g id="node22" class="node">
<title>Node004</title>
<ellipse fill="#ffffff" stroke="#000000" cx="1163.24" cy="-676.49" rx="128.52" ry="78.84"/>
<text text-anchor="middle" x="1163.24" y="-714.94" font-family="Times,serif" font-size="14.00">Oh, it&#39;s not my place to</text>
<text text-anchor="middle" x="1163.24" y="-697.69" font-family="Times,serif" font-size="14.00">deal with the traders.</text>
<text text-anchor="middle" x="1163.24" y="-680.44" font-family="Times,serif" font-size="14.00">Talk to Mynoc, the</text>
<text text-anchor="middle" x="1163.24" y="-663.19" font-family="Times,serif" font-size="14.00">guardian of the</text>
<text text-anchor="middle" x="1163.24" y="-645.94" font-family="Times,serif" font-size="14.00">great bridge. He sees</text>
<text text-anchor="middle" x="1163.24" y="-628.69" font-family="Times,serif" font-size="14.00">them all.</text>
</g>
<!-- Node001&#45;&gt;Node004 -->
<g id="edge8" class="edge">
<title>Node001&#45;&gt;Node004</title>
<path fill="none" stroke="#400099" d="M596,-1146.96C713,-1044.11 883.25,-896.82 1036.49,-773.33 1048.28,-763.83 1060.83,-754.01 1073.28,-744.43"/>
<polygon fill="#400099" stroke="#400099" points="1075.06,-746.71 1080.87,-737.85 1070.8,-741.15 1075.06,-746.71"/>
<text text-anchor="middle" x="1120.62" y="-811.78" font-family="Times,serif" font-size="14.00" fill="#400099">What can you tell me of</text>
<text text-anchor="middle" x="1120.62" y="-794.53" font-family="Times,serif" font-size="14.00" fill="#400099">the traders who trade</text>
<text text-anchor="middle" x="1120.62" y="-777.28" font-family="Times,serif" font-size="14.00" fill="#400099">with us?</text>
</g>
<!-- Node998 -->
<g id="node18" class="node">
<title>Node998</title>
<ellipse fill="#ffffff" stroke="#000000" cx="1680.24" cy="-1888.92" rx="27" ry="18"/>
</g>
<!-- Node000 -->
<g id="node20" class="node">
<title>Node000</title>
<ellipse fill="#ffffff" stroke="#000000" cx="499.24" cy="-1888.92" rx="135.94" ry="30.05"/>
<text text-anchor="middle" x="499.24" y="-1892.87" font-family="Times,serif" font-size="14.00">A kindly member of your</text>
<text text-anchor="middle" x="499.24" y="-1875.62" font-family="Times,serif" font-size="14.00">village.</text>
</g>
<!-- Node000&#45;&gt;Node997 -->
<g id="edge6" class="edge">
<title>Node000&#45;&gt;Node997</title>
<path fill="none" stroke="#009899" d="M488.11,-1858.61C480.36,-1838.23 470.12,-1811.27 462.56,-1791.38"/>
<polygon fill="#009899" stroke="#009899" points="465.5,-1790.25 458.68,-1782.15 458.96,-1792.74 465.5,-1790.25"/>
<text text-anchor="middle" x="496.62" y="-1803.17" font-family="Times,serif" font-size="14.00" fill="#009899">[TALK]</text>
</g>
<!-- Node003&#45;&gt;Node999 -->
<g id="edge13" class="edge">
<title>Node003&#45;&gt;Node999</title>
<path fill="none" stroke="#930099" d="M457.31,-400.7C458.06,-377.75 462.35,-351.62 475.24,-331.25 483.36,-318.43 495.6,-325.72 504.24,-313.25 535.62,-267.99 501.06,-239.49 528.49,-191.75 562.73,-132.17 582.52,-119.45 644.24,-89.25 758.09,-33.55 911.26,-21.87 981.36,-19.52"/>
<polygon fill="#930099" stroke="#930099" points="981.37,-22.99 991.27,-19.21 981.17,-16 981.37,-22.99"/>
<text text-anchor="middle" x="605.12" y="-212.95" font-family="Times,serif" font-size="14.00" fill="#930099">Thank you. &#160;Goodbye.</text>
</g>
<!-- Node006 -->
<g id="node24" class="node">
<title>Node006</title>
<ellipse fill="#ffffff" stroke="#000000" cx="880.24" cy="-287.37" rx="117.5" ry="18"/>
<text text-anchor="middle" x="880.24" y="-282.7" font-family="Times,serif" font-size="14.00">Of course, what is it?</text>
</g>
<!-- Node003&#45;&gt;Node006 -->
<g id="edge12" class="edge">
<title>Node003&#45;&gt;Node006</title>
<path fill="none" stroke="#729900" d="M469.83,-400.76C475.57,-371.99 484.08,-340.58 494.99,-331.25 515.03,-314.13 654.75,-301.91 760.21,-295"/>
<polygon fill="#729900" stroke="#729900" points="760.19,-298.45 769.94,-294.31 759.74,-291.46 760.19,-298.45"/>
<text text-anchor="middle" x="577.37" y="-361.07" font-family="Times,serif" font-size="14.00" fill="#729900">One more question, if I</text>
<text text-anchor="middle" x="577.37" y="-343.82" font-family="Times,serif" font-size="14.00" fill="#729900">may.</text>
</g>
<!-- Node004&#45;&gt;Node999 -->
<g id="edge14" class="edge">
<title>Node004&#45;&gt;Node999</title>
<path fill="none" stroke="#009967" d="M1273.48,-635.78C1298.47,-621.75 1322.31,-603.37 1338.24,-579.64 1368.97,-533.9 1352.24,-511.55 1352.24,-456.45 1352.24,-456.45 1352.24,-456.45 1352.24,-130.5 1352.24,-68.73 1143.64,-34.89 1056.64,-23.47"/>
<polygon fill="#009967" stroke="#009967" points="1057.3,-19.89 1046.93,-22.09 1056.41,-26.84 1057.3,-19.89"/>
<text text-anchor="middle" x="1429.12" y="-282.7" font-family="Times,serif" font-size="14.00" fill="#009967">Thank you. &#160;Goodbye.</text>
</g>
<!-- Node004&#45;&gt;Node006 -->
<g id="edge16" class="edge">
<title>Node004&#45;&gt;Node006</title>
<path fill="none" stroke="#0d0099" d="M1049.59,-639.34C988.75,-613.57 919.09,-572.25 882.99,-509.89 864.45,-477.87 872.23,-368.81 877.24,-316.63"/>
<polygon fill="#0d0099" stroke="#0d0099" points="880.81,-317.13 878.32,-306.83 873.84,-316.43 880.81,-317.13"/>
<text text-anchor="middle" x="964.37" y="-459.4" font-family="Times,serif" font-size="14.00" fill="#0d0099">One more question, if I</text>
<text text-anchor="middle" x="964.37" y="-442.15" font-family="Times,serif" font-size="14.00" fill="#0d0099">may.</text>
</g>
<!-- Node005 -->
<g id="node25" class="node">
<title>Node005</title>
<ellipse fill="#ffffff" stroke="#000000" cx="1190.24" cy="-455.45" rx="134.35" ry="42.25"/>
<text text-anchor="middle" x="1190.24" y="-468.02" font-family="Times,serif" font-size="14.00">Good joke, Chosen One!</text>
<text text-anchor="middle" x="1190.24" y="-450.77" font-family="Times,serif" font-size="14.00">You know where it is.</text>
<text text-anchor="middle" x="1190.24" y="-433.52" font-family="Times,serif" font-size="14.00">That way &#45;&#45; to the south.</text>
</g>
<!-- Node004&#45;&gt;Node005 -->
<g id="edge15" class="edge">
<title>Node004&#45;&gt;Node005</title>
<path fill="none" stroke="#993a00" d="M1158.81,-597.28C1158.87,-574.74 1160.23,-550.21 1164.24,-527.89 1165.42,-521.33 1167.15,-514.57 1169.16,-507.95"/>
<polygon fill="#993a00" stroke="#993a00" points="1172.73,-509.31 1172.52,-498.72 1166.08,-507.13 1172.73,-509.31"/>
<text text-anchor="middle" x="1251.24" y="-566.34" font-family="Times,serif" font-size="14.00" fill="#993a00">Could you tell me where</text>
<text text-anchor="middle" x="1251.24" y="-549.09" font-family="Times,serif" font-size="14.00" fill="#993a00">the great bridge is</text>
<text text-anchor="middle" x="1251.24" y="-531.84" font-family="Times,serif" font-size="14.00" fill="#993a00">located?</text>
</g>
<!-- Node002 -->
<g id="node23" class="node">
<title>Node002</title>
<ellipse fill="#ffffff" stroke="#000000" cx="1441.24" cy="-1275.65" rx="139.12" ry="30.05"/>
<text text-anchor="middle" x="1441.24" y="-1279.6" font-family="Times,serif" font-size="14.00">Gods protect you on your</text>
<text text-anchor="middle" x="1441.24" y="-1262.35" font-family="Times,serif" font-size="14.00">journey.</text>
</g>
<!-- Node002&#45;&gt;Node999 -->
<g id="edge11" class="edge">
<title>Node002&#45;&gt;Node999</title>
<path fill="none" stroke="#004599" d="M1449.09,-1245.39C1471.51,-1159.13 1534.24,-898.09 1534.24,-677.49 1534.24,-677.49 1534.24,-677.49 1534.24,-130.5 1534.24,-32.9 1176.49,-20.54 1057.34,-19.13"/>
<polygon fill="#004599" stroke="#004599" points="1057.6,-15.62 1047.57,-19.02 1057.53,-22.62 1057.6,-15.62"/>
<text text-anchor="middle" x="1606.62" y="-352.45" font-family="Times,serif" font-size="14.00" fill="#004599">Goodbye, my friend.</text>
</g>
<!-- Node002&#45;&gt;Node004 -->
<g id="edge10" class="edge">
<title>Node002&#45;&gt;Node004</title>
<path fill="none" stroke="#990019" d="M1427.65,-1245.44C1387.11,-1158.38 1266.01,-898.23 1202.73,-762.31"/>
<polygon fill="#990019" stroke="#990019" points="1205.67,-761.33 1198.28,-753.74 1199.33,-764.29 1205.67,-761.33"/>
<text text-anchor="middle" x="1314.62" y="-803.15" font-family="Times,serif" font-size="14.00" fill="#990019">I do have a question for</text>
<text text-anchor="middle" x="1314.62" y="-785.9" font-family="Times,serif" font-size="14.00" fill="#990019">you.</text>
</g>
<!-- Node006&#45;&gt;Node999 -->
<g id="edge21" class="edge">
<title>Node006&#45;&gt;Node999</title>
<path fill="none" stroke="#600099" d="M963.9,-274.46C999.88,-267.48 1036.22,-257.3 1047.24,-243.5 1073.54,-210.59 1067.79,-93.15 1052.24,-54 1050.27,-49.02 1047.21,-44.34 1043.74,-40.12"/>
<polygon fill="#600099" stroke="#600099" points="1046.65,-38.04 1037.24,-33.16 1041.55,-42.84 1046.65,-38.04"/>
<text text-anchor="middle" x="1109.49" y="-126.82" font-family="Times,serif" font-size="14.00" fill="#600099">Never mind.</text>
</g>
<!-- Node006&#45;&gt;Node003 -->
<g id="edge19" class="edge">
<title>Node006&#45;&gt;Node003</title>
<path fill="none" stroke="#007999" d="M791.82,-299.62C747.48,-306.8 699.62,-317.37 682.49,-331.25 662.9,-347.12 677.74,-365.86 659.24,-383 637.7,-402.97 610.17,-417.44 582.53,-427.9"/>
<polygon fill="#007999" stroke="#007999" points="581.57,-424.88 573.35,-431.57 583.94,-431.47 581.57,-424.88"/>
<text text-anchor="middle" x="774.12" y="-369.7" font-family="Times,serif" font-size="14.00" fill="#007999">Could you tell me where I</text>
<text text-anchor="middle" x="774.12" y="-352.45" font-family="Times,serif" font-size="14.00" fill="#007999">can find some healing</text>
<text text-anchor="middle" x="774.12" y="-335.2" font-family="Times,serif" font-size="14.00" fill="#007999">herbs?</text>
</g>
<!-- Node010 -->
<g id="node26" class="node">
<title>Node010</title>
<ellipse fill="#ffffff" stroke="#000000" cx="788.24" cy="-131.5" rx="135.41" ry="42.25"/>
<text text-anchor="middle" x="788.24" y="-144.07" font-family="Times,serif" font-size="14.00">They come to our village</text>
<text text-anchor="middle" x="788.24" y="-126.82" font-family="Times,serif" font-size="14.00">from the east, but their</text>
<text text-anchor="middle" x="788.24" y="-109.57" font-family="Times,serif" font-size="14.00">goods are poor.</text>
</g>
<!-- Node006&#45;&gt;Node010 -->
<g id="edge20" class="edge">
<title>Node006&#45;&gt;Node010</title>
<path fill="none" stroke="#998d00" d="M788.85,-275.76C749,-269.06 708.58,-258.74 696.49,-243.5 682.2,-225.48 685.49,-211.95 696.49,-191.75 699.77,-185.74 703.94,-180.25 708.7,-175.24"/>
<polygon fill="#998d00" stroke="#998d00" points="710.73,-178.19 715.6,-168.78 705.93,-173.1 710.73,-178.19"/>
<text text-anchor="middle" x="780.62" y="-230.2" font-family="Times,serif" font-size="14.00" fill="#998d00">What can you tell me of</text>
<text text-anchor="middle" x="780.62" y="-212.95" font-family="Times,serif" font-size="14.00" fill="#998d00">the traders who trade</text>
<text text-anchor="middle" x="780.62" y="-195.7" font-family="Times,serif" font-size="14.00" fill="#998d00">with us?</text>
</g>
<!-- Node005&#45;&gt;Node999 -->
<g id="edge17" class="edge">
<title>Node005&#45;&gt;Node999</title>
<path fill="none" stroke="#1f9900" d="M1188.86,-412.77C1185.53,-322.64 1176.04,-115.54 1158.24,-89.25 1134.62,-54.35 1088.23,-35.9 1055.56,-26.82"/>
<polygon fill="#1f9900" stroke="#1f9900" points="1056.61,-23.21 1046.05,-24.08 1054.85,-29.99 1056.61,-23.21"/>
<text text-anchor="middle" x="1256.12" y="-212.95" font-family="Times,serif" font-size="14.00" fill="#1f9900">Thank you. &#160;Goodbye.</text>
</g>
<!-- Node005&#45;&gt;Node006 -->
<g id="edge18" class="edge">
<title>Node005&#45;&gt;Node006</title>
<path fill="none" stroke="#99004c" d="M1102.27,-423.18C1063.51,-408.85 1022.76,-392.9 1004.99,-383 968.89,-362.87 931.66,-333.27 907.38,-312.55"/>
<polygon fill="#99004c" stroke="#99004c" points="910.21,-309.5 900.36,-305.62 905.64,-314.8 910.21,-309.5"/>
<text text-anchor="middle" x="1086.37" y="-361.07" font-family="Times,serif" font-size="14.00" fill="#99004c">One more question, if I</text>
<text text-anchor="middle" x="1086.37" y="-343.82" font-family="Times,serif" font-size="14.00" fill="#99004c">may.</text>
</g>
<!-- Node010&#45;&gt;Node999 -->
<g id="edge26" class="edge">
<title>Node010&#45;&gt;Node999</title>
<path fill="none" stroke="#99007f" d="M838.88,-92.05C858.2,-78.67 880.9,-64.41 902.99,-54 928.67,-41.9 959.51,-32.85 982.96,-26.98"/>
<polygon fill="#99007f" stroke="#99007f" points="983.61,-30.19 992.5,-24.44 981.96,-23.38 983.61,-30.19"/>
<text text-anchor="middle" x="976.87" y="-57.95" font-family="Times,serif" font-size="14.00" fill="#99007f">Thank you. Goodbye.</text>
</g>
<!-- Node010&#45;&gt;Node003 -->
<g id="edge24" class="edge">
<title>Node010&#45;&gt;Node003</title>
<path fill="none" stroke="#002699" d="M660.58,-145.87C593.92,-155.25 521.16,-170.05 496.24,-191.75 430.08,-249.38 438.77,-295.66 447.24,-383 447.47,-385.35 447.74,-387.74 448.05,-390.15"/>
<polygon fill="#002699" stroke="#002699" points="444.69,-390.37 449.57,-399.77 451.61,-389.38 444.69,-390.37"/>
<text text-anchor="middle" x="539.12" y="-299.95" font-family="Times,serif" font-size="14.00" fill="#002699">Could you tell me where I</text>
<text text-anchor="middle" x="539.12" y="-282.7" font-family="Times,serif" font-size="14.00" fill="#002699">can find some healing</text>
<text text-anchor="middle" x="539.12" y="-265.45" font-family="Times,serif" font-size="14.00" fill="#002699">herbs?</text>
</g>
<!-- Node010&#45;&gt;Node006 -->
<g id="edge25" class="edge">
<title>Node010&#45;&gt;Node006</title>
<path fill="none" stroke="#539900" d="M847.35,-169.97C854.25,-176.49 860.51,-183.77 865.24,-191.75 877.18,-211.83 880.53,-238.36 881.13,-258.21"/>
<polygon fill="#539900" stroke="#539900" points="877.63,-258.06 881.21,-268.03 884.63,-258.01 877.63,-258.06"/>
<text text-anchor="middle" x="961.37" y="-221.57" font-family="Times,serif" font-size="14.00" fill="#539900">One more question, if I</text>
<text text-anchor="middle" x="961.37" y="-204.32" font-family="Times,serif" font-size="14.00" fill="#539900">may.</text>
</g>
<!-- Node008&#45;&gt;Node999 -->
<g id="edge23" class="edge">
<title>Node008&#45;&gt;Node999</title>
<path fill="none" stroke="#990700" d="M138.33,-535.5C147.82,-501.74 167.24,-424.5 167.24,-358.12 167.24,-358.12 167.24,-358.12 167.24,-130.5 167.24,-81.62 201.37,-73.36 246.24,-54 314.02,-24.76 835.14,-19.93 981.26,-19.15"/>
<polygon fill="#990700" stroke="#990700" points="980.92,-22.64 990.9,-19.09 980.89,-15.64 980.92,-22.64"/>
<text text-anchor="middle" x="182.24" y="-282.7" font-family="Times,serif" font-size="14.00" fill="#990700">????</text>
</g>
</g>
</svg>
