<?xml version="1.0" encoding="UTF-8" standalone="no"?>
<!DOCTYPE svg PUBLIC "-//W3C//DTD SVG 1.1//EN"
 "http://www.w3.org/Graphics/SVG/1.1/DTD/svg11.dtd">
<!-- Generated by graphviz version 8.0.5 (0)
 -->
<!-- Title: bscomp4 Pages: 1 -->
<svg width="1586pt" height="1344pt"
 viewBox="0.00 0.00 1586.31 1343.62" xmlns="http://www.w3.org/2000/svg" xmlns:xlink="http://www.w3.org/1999/xlink">
<g id="graph0" class="graph" transform="scale(1 1) rotate(0) translate(4 1339.62)">
<title>bscomp4</title>
<polygon fill="white" stroke="none" points="-4,4 -4,-1339.62 1582.31,-1339.62 1582.31,4 -4,4"/>
<!-- checkPartyMembersNearDoor -->
<g id="node1" class="node">
<title>checkPartyMembersNearDoor</title>
<ellipse fill="#ffffff" stroke="#000000" cx="27" cy="-1268.97" rx="27" ry="18"/>
</g>
<!-- getTimeBit -->
<g id="node2" class="node">
<title>getTimeBit</title>
<ellipse fill="#ffffff" stroke="#000000" cx="99" cy="-1268.97" rx="27" ry="18"/>
</g>
<!-- start -->
<g id="node3" class="node">
<title>start</title>
<ellipse fill="#ffffff" stroke="#000000" cx="171" cy="-1268.97" rx="27" ry="18"/>
</g>
<!-- use_p_proc -->
<g id="node4" class="node">
<title>use_p_proc</title>
<ellipse fill="#ffffff" stroke="#000000" cx="243" cy="-757.15" rx="27" ry="18"/>
</g>
<!-- look_at_p_proc -->
<g id="node5" class="node">
<title>look_at_p_proc</title>
<ellipse fill="#ffffff" stroke="#000000" cx="401" cy="-1268.97" rx="113.14" ry="66.64"/>
<text text-anchor="middle" x="401" y="-1298.8" font-family="Times,serif" font-size="14.00">You see a computer</text>
<text text-anchor="middle" x="401" y="-1281.55" font-family="Times,serif" font-size="14.00">terminal.</text>
<text text-anchor="middle" x="401" y="-1264.3" font-family="Times,serif" font-size="14.00">&#45;&#45;&#45;</text>
<text text-anchor="middle" x="401" y="-1247.05" font-family="Times,serif" font-size="14.00">You see the security</text>
<text text-anchor="middle" x="401" y="-1229.8" font-family="Times,serif" font-size="14.00">computer terminal.</text>
</g>
<!-- description_p_proc -->
<g id="node6" class="node">
<title>description_p_proc</title>
<ellipse fill="#ffffff" stroke="#000000" cx="666" cy="-1268.97" rx="133.82" ry="54.45"/>
<text text-anchor="middle" x="666" y="-1290.17" font-family="Times,serif" font-size="14.00">You see a standard</text>
<text text-anchor="middle" x="666" y="-1272.92" font-family="Times,serif" font-size="14.00">computer terminal. It</text>
<text text-anchor="middle" x="666" y="-1255.67" font-family="Times,serif" font-size="14.00">appears to be functional</text>
<text text-anchor="middle" x="666" y="-1238.42" font-family="Times,serif" font-size="14.00">and ready for input.</text>
</g>
<!-- use_skill_on_p_proc -->
<g id="node7" class="node">
<title>use_skill_on_p_proc</title>
<ellipse fill="#ffffff" stroke="#000000" cx="243" cy="-1268.97" rx="27" ry="18"/>
</g>
<!-- use_skill_on_p_proc&#45;&gt;use_p_proc -->
<g id="edge1" class="edge">
<title>use_skill_on_p_proc&#45;&gt;use_p_proc</title>
<path fill="none" stroke="#555555" stroke-dasharray="1,5" d="M243,-1250.72C243,-1175.91 243,-879.19 243,-786.19"/>
<polygon fill="#555555" stroke="#555555" points="246.5,-786.4 243,-776.4 239.5,-786.4 246.5,-786.4"/>
</g>
<!-- use_obj_on_p_proc -->
<g id="node8" class="node">
<title>use_obj_on_p_proc</title>
<ellipse fill="#ffffff" stroke="#000000" cx="845" cy="-1268.97" rx="27" ry="18"/>
</g>
<!-- damage_p_proc -->
<g id="node9" class="node">
<title>damage_p_proc</title>
<ellipse fill="#ffffff" stroke="#000000" cx="917" cy="-1268.97" rx="27" ry="18"/>
</g>
<!-- map_enter_p_proc -->
<g id="node10" class="node">
<title>map_enter_p_proc</title>
<ellipse fill="#ffffff" stroke="#000000" cx="989" cy="-1268.97" rx="27" ry="18"/>
</g>
<!-- map_update_p_proc -->
<g id="node11" class="node">
<title>map_update_p_proc</title>
<ellipse fill="#ffffff" stroke="#000000" cx="1061" cy="-1268.97" rx="27" ry="18"/>
</g>
<!-- talk_p_proc -->
<g id="node12" class="node">
<title>talk_p_proc</title>
<ellipse fill="#ffffff" stroke="#000000" cx="1133" cy="-1268.97" rx="27" ry="18"/>
</g>
<!-- Node001 -->
<g id="node13" class="node">
<title>Node001</title>
<ellipse fill="#ffffff" stroke="#000000" cx="1133" cy="-757.15" rx="129.58" ry="408.18"/>
<text text-anchor="middle" x="1133" y="-1028.48" font-family="Times,serif" font-size="14.00">This terminal monitors</text>
<text text-anchor="middle" x="1133" y="-1011.23" font-family="Times,serif" font-size="14.00">the force field</text>
<text text-anchor="middle" x="1133" y="-993.98" font-family="Times,serif" font-size="14.00">generators. It indicates</text>
<text text-anchor="middle" x="1133" y="-976.73" font-family="Times,serif" font-size="14.00">that the force field has</text>
<text text-anchor="middle" x="1133" y="-959.48" font-family="Times,serif" font-size="14.00">been</text>
<text text-anchor="middle" x="1133" y="-942.23" font-family="Times,serif" font-size="14.00"> temporarily disabled.</text>
<text text-anchor="middle" x="1133" y="-924.98" font-family="Times,serif" font-size="14.00">&#45;&#45;&#45;</text>
<text text-anchor="middle" x="1133" y="-907.73" font-family="Times,serif" font-size="14.00">This terminal monitors</text>
<text text-anchor="middle" x="1133" y="-890.48" font-family="Times,serif" font-size="14.00">the force field</text>
<text text-anchor="middle" x="1133" y="-873.23" font-family="Times,serif" font-size="14.00">generators. It indicates</text>
<text text-anchor="middle" x="1133" y="-855.98" font-family="Times,serif" font-size="14.00">that everything is</text>
<text text-anchor="middle" x="1133" y="-838.73" font-family="Times,serif" font-size="14.00">functioning</text>
<text text-anchor="middle" x="1133" y="-821.48" font-family="Times,serif" font-size="14.00"> normally.</text>
<text text-anchor="middle" x="1133" y="-804.23" font-family="Times,serif" font-size="14.00">&#45;&#45;&#45;</text>
<text text-anchor="middle" x="1133" y="-786.98" font-family="Times,serif" font-size="14.00">This terminal monitors</text>
<text text-anchor="middle" x="1133" y="-769.73" font-family="Times,serif" font-size="14.00">the force field</text>
<text text-anchor="middle" x="1133" y="-752.48" font-family="Times,serif" font-size="14.00">generators. It indicates</text>
<text text-anchor="middle" x="1133" y="-735.23" font-family="Times,serif" font-size="14.00">that the force field is</text>
<text text-anchor="middle" x="1133" y="-717.98" font-family="Times,serif" font-size="14.00">off.</text>
<text text-anchor="middle" x="1133" y="-700.73" font-family="Times,serif" font-size="14.00">&#45;&#45;&#45;</text>
<text text-anchor="middle" x="1133" y="-683.48" font-family="Times,serif" font-size="14.00">This terminal monitors</text>
<text text-anchor="middle" x="1133" y="-666.23" font-family="Times,serif" font-size="14.00">the force field</text>
<text text-anchor="middle" x="1133" y="-648.98" font-family="Times,serif" font-size="14.00">generators. It indicates</text>
<text text-anchor="middle" x="1133" y="-631.73" font-family="Times,serif" font-size="14.00">that the force field has</text>
<text text-anchor="middle" x="1133" y="-614.48" font-family="Times,serif" font-size="14.00">been</text>
<text text-anchor="middle" x="1133" y="-597.23" font-family="Times,serif" font-size="14.00"> compromised.</text>
<text text-anchor="middle" x="1133" y="-579.98" font-family="Times,serif" font-size="14.00">&#45;&#45;&#45;</text>
<text text-anchor="middle" x="1133" y="-562.73" font-family="Times,serif" font-size="14.00">This terminal monitors</text>
<text text-anchor="middle" x="1133" y="-545.48" font-family="Times,serif" font-size="14.00">the force field</text>
<text text-anchor="middle" x="1133" y="-528.23" font-family="Times,serif" font-size="14.00">generators. It indicates</text>
<text text-anchor="middle" x="1133" y="-510.98" font-family="Times,serif" font-size="14.00">that the unit is off line</text>
<text text-anchor="middle" x="1133" y="-493.73" font-family="Times,serif" font-size="14.00">due</text>
<text text-anchor="middle" x="1133" y="-476.48" font-family="Times,serif" font-size="14.00"> to power failure.</text>
</g>
<!-- talk_p_proc&#45;&gt;Node001 -->
<g id="edge2" class="edge">
<title>talk_p_proc&#45;&gt;Node001</title>
<path fill="none" stroke="#555555" stroke-dasharray="1,5" d="M1133,-1250.72C1133,-1234.71 1133,-1208.54 1133,-1176.38"/>
<polygon fill="#555555" stroke="#555555" points="1136.5,-1176.73 1133,-1166.73 1129.5,-1176.73 1136.5,-1176.73"/>
</g>
<!-- Node999 -->
<g id="node14" class="node">
<title>Node999</title>
<ellipse fill="#ffffff" stroke="#000000" cx="1133" cy="-18" rx="27" ry="18"/>
</g>
<!-- Node001&#45;&gt;Node999 -->
<g id="edge5" class="edge">
<title>Node001&#45;&gt;Node999</title>
<path fill="none" stroke="#870099" d="M1022.63,-541.32C989.43,-465.72 957.41,-378.86 940.75,-295.73 922.72,-205.75 888.16,-164.45 940.75,-89.25 975.57,-39.45 1049.66,-24.84 1095.01,-20.62"/>
<polygon fill="#870099" stroke="#870099" points="1095.19,-24.04 1104.88,-19.76 1094.64,-17.06 1095.19,-24.04"/>
<text text-anchor="middle" x="961.62" y="-187.81" font-family="Times,serif" font-size="14.00" fill="#870099">Done.</text>
</g>
<!-- Node002 -->
<g id="node15" class="node">
<title>Node002</title>
<ellipse fill="#ffffff" stroke="#000000" cx="1133" cy="-192.49" rx="142.31" ry="103.24"/>
<text text-anchor="middle" x="1133" y="-248.19" font-family="Times,serif" font-size="14.00">You give the command to</text>
<text text-anchor="middle" x="1133" y="-230.94" font-family="Times,serif" font-size="14.00">deactivate the force</text>
<text text-anchor="middle" x="1133" y="-213.69" font-family="Times,serif" font-size="14.00">field.</text>
<text text-anchor="middle" x="1133" y="-196.44" font-family="Times,serif" font-size="14.00">&#45;&#45;&#45;</text>
<text text-anchor="middle" x="1133" y="-179.19" font-family="Times,serif" font-size="14.00">You can&#39;t seem to get</text>
<text text-anchor="middle" x="1133" y="-161.94" font-family="Times,serif" font-size="14.00">around the security codes</text>
<text text-anchor="middle" x="1133" y="-144.69" font-family="Times,serif" font-size="14.00">to deactivate the force</text>
<text text-anchor="middle" x="1133" y="-127.44" font-family="Times,serif" font-size="14.00">field.</text>
</g>
<!-- Node001&#45;&gt;Node002 -->
<g id="edge3" class="edge">
<title>Node001&#45;&gt;Node002</title>
<path fill="none" stroke="#005199" d="M1133,-348.73C1133,-334.09 1133,-320.03 1133,-306.76"/>
<polygon fill="#005199" stroke="#005199" points="1136.5,-306.8 1133,-296.8 1129.5,-306.8 1136.5,-306.8"/>
<text text-anchor="middle" x="1215.88" y="-317.68" font-family="Times,serif" font-size="14.00" fill="#005199">Turn the force field off.</text>
</g>
<!-- Node003 -->
<g id="node16" class="node">
<title>Node003</title>
<ellipse fill="#ffffff" stroke="#000000" cx="1436" cy="-192.49" rx="142.31" ry="91.04"/>
<text text-anchor="middle" x="1436" y="-239.56" font-family="Times,serif" font-size="14.00">You give the command to</text>
<text text-anchor="middle" x="1436" y="-222.31" font-family="Times,serif" font-size="14.00">activate the force field.</text>
<text text-anchor="middle" x="1436" y="-205.06" font-family="Times,serif" font-size="14.00">&#45;&#45;&#45;</text>
<text text-anchor="middle" x="1436" y="-187.81" font-family="Times,serif" font-size="14.00">You can&#39;t seem to get</text>
<text text-anchor="middle" x="1436" y="-170.56" font-family="Times,serif" font-size="14.00">around the security codes</text>
<text text-anchor="middle" x="1436" y="-153.31" font-family="Times,serif" font-size="14.00">to activate the force</text>
<text text-anchor="middle" x="1436" y="-136.06" font-family="Times,serif" font-size="14.00">field.</text>
</g>
<!-- Node001&#45;&gt;Node003 -->
<g id="edge4" class="edge">
<title>Node001&#45;&gt;Node003</title>
<path fill="none" stroke="#7e9900" d="M1244.75,-548.63C1292.85,-459.31 1346.71,-359.31 1384.98,-288.23"/>
<polygon fill="#7e9900" stroke="#7e9900" points="1388.38,-290.3 1390.04,-279.84 1382.22,-286.98 1388.38,-290.3"/>
<text text-anchor="middle" x="1452.12" y="-317.68" font-family="Times,serif" font-size="14.00" fill="#7e9900">Turn the force field on.</text>
</g>
<!-- Node002&#45;&gt;Node999 -->
<g id="edge6" class="edge">
<title>Node002&#45;&gt;Node999</title>
<path fill="none" stroke="#00995b" d="M1133,-89.16C1133,-73.81 1133,-59.18 1133,-47.28"/>
<polygon fill="#00995b" stroke="#00995b" points="1136.5,-47.37 1133,-37.37 1129.5,-47.37 1136.5,-47.37"/>
<text text-anchor="middle" x="1153.62" y="-57.95" font-family="Times,serif" font-size="14.00" fill="#00995b">Done.</text>
</g>
<!-- Node003&#45;&gt;Node999 -->
<g id="edge7" class="edge">
<title>Node003&#45;&gt;Node999</title>
<path fill="none" stroke="#992e00" d="M1340.95,-124.25C1322.39,-112.07 1302.83,-99.88 1284,-89.25 1244.52,-66.97 1196.77,-45.63 1165.68,-32.44"/>
<polygon fill="#992e00" stroke="#992e00" points="1167.38,-28.94 1156.81,-28.29 1164.67,-35.39 1167.38,-28.94"/>
<text text-anchor="middle" x="1268.62" y="-57.95" font-family="Times,serif" font-size="14.00" fill="#992e00">Done.</text>
</g>
<!-- timed_event_p_proc -->
<g id="node17" class="node">
<title>timed_event_p_proc</title>
<ellipse fill="#ffffff" stroke="#000000" cx="1205" cy="-1268.97" rx="27" ry="18"/>
</g>
</g>
</svg>
