<?xml version="1.0" encoding="UTF-8" standalone="no"?>
<!DOCTYPE svg PUBLIC "-//W3C//DTD SVG 1.1//EN"
 "http://www.w3.org/Graphics/SVG/1.1/DTD/svg11.dtd">
<!-- Generated by graphviz version 8.0.5 (0)
 -->
<!-- Title: ecsirlau Pages: 1 -->
<svg width="1608pt" height="189pt"
 viewBox="0.00 0.00 1608.00 188.60" xmlns="http://www.w3.org/2000/svg" xmlns:xlink="http://www.w3.org/1999/xlink">
<g id="graph0" class="graph" transform="scale(1 1) rotate(0) translate(4 184.6)">
<title>ecsirlau</title>
<polygon fill="white" stroke="none" points="-4,4 -4,-184.6 1604,-184.6 1604,4 -4,4"/>
<!-- checkPartyMembersNearDoor -->
<g id="node1" class="node">
<title>checkPartyMembersNearDoor</title>
<ellipse fill="#ffffff" stroke="#000000" cx="27" cy="-138.35" rx="27" ry="18"/>
</g>
<!-- start -->
<g id="node2" class="node">
<title>start</title>
<ellipse fill="#ffffff" stroke="#000000" cx="99" cy="-138.35" rx="27" ry="18"/>
</g>
<!-- critter_p_proc -->
<g id="node3" class="node">
<title>critter_p_proc</title>
<ellipse fill="#ffffff" stroke="#000000" cx="171" cy="-138.35" rx="27" ry="18"/>
</g>
<!-- pickup_p_proc -->
<g id="node4" class="node">
<title>pickup_p_proc</title>
<ellipse fill="#ffffff" stroke="#000000" cx="243" cy="-138.35" rx="27" ry="18"/>
</g>
<!-- Node002 -->
<g id="node5" class="node">
<title>Node002</title>
<ellipse fill="#ffffff" stroke="#000000" cx="243" cy="-30.05" rx="143.37" ry="30.05"/>
<text text-anchor="middle" x="243" y="-34" font-family="Times,serif" font-size="14.00">Here now! Your hands are</text>
<text text-anchor="middle" x="243" y="-16.75" font-family="Times,serif" font-size="14.00">ice cold!</text>
</g>
<!-- pickup_p_proc&#45;&gt;Node002 -->
<g id="edge1" class="edge">
<title>pickup_p_proc&#45;&gt;Node002</title>
<path fill="none" stroke="#555555" stroke-dasharray="1,5" d="M243,-120.27C243,-107.08 243,-88.28 243,-71.33"/>
<polygon fill="#555555" stroke="#555555" points="246.5,-71.54 243,-61.54 239.5,-71.54 246.5,-71.54"/>
</g>
<!-- talk_p_proc -->
<g id="node6" class="node">
<title>talk_p_proc</title>
<ellipse fill="#ffffff" stroke="#000000" cx="525" cy="-138.35" rx="27" ry="18"/>
</g>
<!-- Node001 -->
<g id="node7" class="node">
<title>Node001</title>
<ellipse fill="#ffffff" stroke="#000000" cx="525" cy="-30.05" rx="121.09" ry="30.05"/>
<text text-anchor="middle" x="525" y="-34" font-family="Times,serif" font-size="14.00">Sir Launcelot, at your</text>
<text text-anchor="middle" x="525" y="-16.75" font-family="Times,serif" font-size="14.00">service.</text>
</g>
<!-- talk_p_proc&#45;&gt;Node001 -->
<g id="edge2" class="edge">
<title>talk_p_proc&#45;&gt;Node001</title>
<path fill="none" stroke="#555555" stroke-dasharray="1,5" d="M525,-120.27C525,-107.08 525,-88.28 525,-71.33"/>
<polygon fill="#555555" stroke="#555555" points="528.5,-71.54 525,-61.54 521.5,-71.54 528.5,-71.54"/>
</g>
<!-- destroy_p_proc -->
<g id="node8" class="node">
<title>destroy_p_proc</title>
<ellipse fill="#ffffff" stroke="#000000" cx="597" cy="-138.35" rx="27" ry="18"/>
</g>
<!-- look_at_p_proc -->
<g id="node9" class="node">
<title>look_at_p_proc</title>
<ellipse fill="#ffffff" stroke="#000000" cx="767" cy="-138.35" rx="125.39" ry="18"/>
<text text-anchor="middle" x="767" y="-133.68" font-family="Times,serif" font-size="14.00">A man in power armor.</text>
</g>
<!-- description_p_proc -->
<g id="node10" class="node">
<title>description_p_proc</title>
<ellipse fill="#ffffff" stroke="#000000" cx="1039" cy="-138.35" rx="128.52" ry="42.25"/>
<text text-anchor="middle" x="1039" y="-150.93" font-family="Times,serif" font-size="14.00">Sir Launcelot.</text>
<text text-anchor="middle" x="1039" y="-133.68" font-family="Times,serif" font-size="14.00">&#45;&#45;&#45;</text>
<text text-anchor="middle" x="1039" y="-116.43" font-family="Times,serif" font-size="14.00">He&#39;s caressing his gun.</text>
</g>
<!-- use_skill_on_p_proc -->
<g id="node11" class="node">
<title>use_skill_on_p_proc</title>
<ellipse fill="#ffffff" stroke="#000000" cx="1213" cy="-138.35" rx="27" ry="18"/>
</g>
<!-- damage_p_proc -->
<g id="node12" class="node">
<title>damage_p_proc</title>
<ellipse fill="#ffffff" stroke="#000000" cx="1285" cy="-138.35" rx="27" ry="18"/>
</g>
<!-- map_enter_p_proc -->
<g id="node13" class="node">
<title>map_enter_p_proc</title>
<ellipse fill="#ffffff" stroke="#000000" cx="1357" cy="-138.35" rx="27" ry="18"/>
</g>
<!-- timed_event_p_proc -->
<g id="node14" class="node">
<title>timed_event_p_proc</title>
<ellipse fill="#ffffff" stroke="#000000" cx="1429" cy="-138.35" rx="27" ry="18"/>
</g>
<!-- Node998 -->
<g id="node15" class="node">
<title>Node998</title>
<ellipse fill="#ffffff" stroke="#000000" cx="1501" cy="-138.35" rx="27" ry="18"/>
</g>
<!-- Node999 -->
<g id="node16" class="node">
<title>Node999</title>
<ellipse fill="#ffffff" stroke="#000000" cx="1573" cy="-138.35" rx="27" ry="18"/>
</g>
</g>
</svg>
