<?xml version="1.0" encoding="UTF-8" standalone="no"?>
<!DOCTYPE svg PUBLIC "-//W3C//DTD SVG 1.1//EN"
 "http://www.w3.org/Graphics/SVG/1.1/DTD/svg11.dtd">
<!-- Generated by graphviz version 8.0.5 (0)
 -->
<!-- Title: ecyakuza Pages: 1 -->
<svg width="1070pt" height="116pt"
 viewBox="0.00 0.00 1070.00 116.00" xmlns="http://www.w3.org/2000/svg" xmlns:xlink="http://www.w3.org/1999/xlink">
<g id="graph0" class="graph" transform="scale(1 1) rotate(0) translate(4 112)">
<title>ecyakuza</title>
<polygon fill="white" stroke="none" points="-4,4 -4,-112 1066,-112 1066,4 -4,4"/>
<!-- checkPartyMembersNearDoor -->
<g id="node1" class="node">
<title>checkPartyMembersNearDoor</title>
<ellipse fill="#ffffff" stroke="#000000" cx="27" cy="-90" rx="27" ry="18"/>
</g>
<!-- start -->
<g id="node2" class="node">
<title>start</title>
<ellipse fill="#ffffff" stroke="#000000" cx="99" cy="-90" rx="27" ry="18"/>
</g>
<!-- critter_p_proc -->
<g id="node3" class="node">
<title>critter_p_proc</title>
<ellipse fill="#ffffff" stroke="#000000" cx="171" cy="-90" rx="27" ry="18"/>
</g>
<!-- pickup_p_proc -->
<g id="node4" class="node">
<title>pickup_p_proc</title>
<ellipse fill="#ffffff" stroke="#000000" cx="243" cy="-90" rx="27" ry="18"/>
</g>
<!-- talk_p_proc -->
<g id="node5" class="node">
<title>talk_p_proc</title>
<ellipse fill="#ffffff" stroke="#000000" cx="315" cy="-90" rx="27" ry="18"/>
</g>
<!-- destroy_p_proc -->
<g id="node6" class="node">
<title>destroy_p_proc</title>
<ellipse fill="#ffffff" stroke="#000000" cx="387" cy="-90" rx="27" ry="18"/>
</g>
<!-- look_at_p_proc -->
<g id="node7" class="node">
<title>look_at_p_proc</title>
<ellipse fill="#ffffff" stroke="#000000" cx="459" cy="-90" rx="27" ry="18"/>
</g>
<!-- description_p_proc -->
<g id="node8" class="node">
<title>description_p_proc</title>
<ellipse fill="#ffffff" stroke="#000000" cx="531" cy="-90" rx="27" ry="18"/>
</g>
<!-- use_skill_on_p_proc -->
<g id="node9" class="node">
<title>use_skill_on_p_proc</title>
<ellipse fill="#ffffff" stroke="#000000" cx="603" cy="-90" rx="27" ry="18"/>
</g>
<!-- damage_p_proc -->
<g id="node10" class="node">
<title>damage_p_proc</title>
<ellipse fill="#ffffff" stroke="#000000" cx="675" cy="-90" rx="27" ry="18"/>
</g>
<!-- map_enter_p_proc -->
<g id="node11" class="node">
<title>map_enter_p_proc</title>
<ellipse fill="#ffffff" stroke="#000000" cx="747" cy="-90" rx="27" ry="18"/>
</g>
<!-- combat_p_proc -->
<g id="node12" class="node">
<title>combat_p_proc</title>
<ellipse fill="#ffffff" stroke="#000000" cx="819" cy="-90" rx="27" ry="18"/>
</g>
<!-- NodeFleeing -->
<g id="node13" class="node">
<title>NodeFleeing</title>
<ellipse fill="#ffffff" stroke="#000000" cx="696" cy="-18" rx="109.61" ry="18"/>
<text text-anchor="middle" x="696" y="-13.32" font-family="Times,serif" font-size="14.00">It is my time to die.</text>
</g>
<!-- combat_p_proc&#45;&gt;NodeFleeing -->
<g id="edge1" class="edge">
<title>combat_p_proc&#45;&gt;NodeFleeing</title>
<path fill="none" stroke="#555555" stroke-dasharray="1,5" d="M798.96,-77.6C781.61,-67.72 756.01,-53.15 734.67,-41.01"/>
<polygon fill="#555555" stroke="#555555" points="736.64,-37.53 726.22,-35.63 733.18,-43.62 736.64,-37.53"/>
</g>
<!-- NodeFighting -->
<g id="node14" class="node">
<title>NodeFighting</title>
<ellipse fill="#ffffff" stroke="#000000" cx="942" cy="-18" rx="118.55" ry="18"/>
<text text-anchor="middle" x="942" y="-13.32" font-family="Times,serif" font-size="14.00">Killing is an art form.</text>
</g>
<!-- combat_p_proc&#45;&gt;NodeFighting -->
<g id="edge2" class="edge">
<title>combat_p_proc&#45;&gt;NodeFighting</title>
<path fill="none" stroke="#555555" stroke-dasharray="1,5" d="M839.04,-77.6C856.27,-67.79 881.65,-53.35 902.89,-41.26"/>
<polygon fill="#555555" stroke="#555555" points="904.36,-43.88 911.32,-35.89 900.89,-37.8 904.36,-43.88"/>
</g>
<!-- Node998 -->
<g id="node15" class="node">
<title>Node998</title>
<ellipse fill="#ffffff" stroke="#000000" cx="891" cy="-90" rx="27" ry="18"/>
</g>
<!-- Node999 -->
<g id="node16" class="node">
<title>Node999</title>
<ellipse fill="#ffffff" stroke="#000000" cx="963" cy="-90" rx="27" ry="18"/>
</g>
<!-- Node001 -->
<g id="node17" class="node">
<title>Node001</title>
<ellipse fill="#ffffff" stroke="#000000" cx="1035" cy="-90" rx="27" ry="18"/>
</g>
</g>
</svg>
