<?xml version="1.0" encoding="UTF-8" standalone="no"?>
<!DOCTYPE svg PUBLIC "-//W3C//DTD SVG 1.1//EN"
 "http://www.w3.org/Graphics/SVG/1.1/DTD/svg11.dtd">
<!-- Generated by graphviz version 8.0.5 (0)
 -->
<!-- Title: fclogrd Pages: 1 -->
<svg width="1568pt" height="381pt"
 viewBox="0.00 0.00 1568.12 381.10" xmlns="http://www.w3.org/2000/svg" xmlns:xlink="http://www.w3.org/1999/xlink">
<g id="graph0" class="graph" transform="scale(1 1) rotate(0) translate(4 377.1)">
<title>fclogrd</title>
<polygon fill="white" stroke="none" points="-4,4 -4,-377.1 1564.12,-377.1 1564.12,4 -4,4"/>
<!-- checkPartyMembersNearDoor -->
<g id="node1" class="node">
<title>checkPartyMembersNearDoor</title>
<ellipse fill="#ffffff" stroke="#000000" cx="139.12" cy="-330.85" rx="27" ry="18"/>
</g>
<!-- start -->
<g id="node2" class="node">
<title>start</title>
<ellipse fill="#ffffff" stroke="#000000" cx="211.12" cy="-330.85" rx="27" ry="18"/>
</g>
<!-- critter_p_proc -->
<g id="node3" class="node">
<title>critter_p_proc</title>
<ellipse fill="#ffffff" stroke="#000000" cx="283.12" cy="-330.85" rx="27" ry="18"/>
</g>
<!-- talk_p_proc -->
<g id="node4" class="node">
<title>talk_p_proc</title>
<ellipse fill="#ffffff" stroke="#000000" cx="283.12" cy="-222.55" rx="27" ry="18"/>
</g>
<!-- critter_p_proc&#45;&gt;talk_p_proc -->
<g id="edge1" class="edge">
<title>critter_p_proc&#45;&gt;talk_p_proc</title>
<path fill="none" stroke="#555555" stroke-dasharray="1,5" d="M283.12,-312.77C283.12,-296.37 283.12,-271.28 283.12,-251.88"/>
<polygon fill="#555555" stroke="#555555" points="286.62,-251.94 283.12,-241.94 279.62,-251.94 286.62,-251.94"/>
</g>
<!-- Node003 -->
<g id="node7" class="node">
<title>Node003</title>
<ellipse fill="#ffffff" stroke="#000000" cx="140.12" cy="-114.25" rx="140.12" ry="18"/>
<text text-anchor="middle" x="140.12" y="-109.57" font-family="Times,serif" font-size="14.00">Die, enemy of the people!</text>
</g>
<!-- talk_p_proc&#45;&gt;Node003 -->
<g id="edge3" class="edge">
<title>talk_p_proc&#45;&gt;Node003</title>
<path fill="none" stroke="#555555" stroke-dasharray="1,5" d="M265.59,-208.52C242.2,-191.13 200.4,-160.06 171.51,-138.59"/>
<polygon fill="#555555" stroke="#555555" points="174.11,-135.41 164,-132.26 169.93,-141.03 174.11,-135.41"/>
</g>
<!-- Node001 -->
<g id="node8" class="node">
<title>Node001</title>
<ellipse fill="#ffffff" stroke="#000000" cx="427.12" cy="-114.25" rx="129.05" ry="42.25"/>
<text text-anchor="middle" x="427.12" y="-126.82" font-family="Times,serif" font-size="14.00">Just keep moving along</text>
<text text-anchor="middle" x="427.12" y="-109.57" font-family="Times,serif" font-size="14.00">and there&#39;ll be no</text>
<text text-anchor="middle" x="427.12" y="-92.32" font-family="Times,serif" font-size="14.00">problem.</text>
</g>
<!-- talk_p_proc&#45;&gt;Node001 -->
<g id="edge4" class="edge">
<title>talk_p_proc&#45;&gt;Node001</title>
<path fill="none" stroke="#555555" stroke-dasharray="1,5" d="M299.45,-208.04C305.56,-203.08 312.6,-197.46 319.12,-192.5 333.62,-181.48 349.45,-169.9 364.42,-159.17"/>
<polygon fill="#555555" stroke="#555555" points="366.01,-161.61 372.11,-152.95 361.94,-155.92 366.01,-161.61"/>
</g>
<!-- pickup_p_proc -->
<g id="node5" class="node">
<title>pickup_p_proc</title>
<ellipse fill="#ffffff" stroke="#000000" cx="463.12" cy="-330.85" rx="27" ry="18"/>
</g>
<!-- Node002 -->
<g id="node6" class="node">
<title>Node002</title>
<ellipse fill="#ffffff" stroke="#000000" cx="463.12" cy="-222.55" rx="135.41" ry="30.05"/>
<text text-anchor="middle" x="463.12" y="-226.5" font-family="Times,serif" font-size="14.00">Don&#39;t touch that and</text>
<text text-anchor="middle" x="463.12" y="-209.25" font-family="Times,serif" font-size="14.00">that&#39;s your last warning.</text>
</g>
<!-- pickup_p_proc&#45;&gt;Node002 -->
<g id="edge2" class="edge">
<title>pickup_p_proc&#45;&gt;Node002</title>
<path fill="none" stroke="#555555" stroke-dasharray="1,5" d="M463.12,-312.77C463.12,-299.58 463.12,-280.78 463.12,-263.83"/>
<polygon fill="#555555" stroke="#555555" points="466.62,-264.04 463.12,-254.04 459.62,-264.04 466.62,-264.04"/>
</g>
<!-- Node998 -->
<g id="node17" class="node">
<title>Node998</title>
<ellipse fill="#ffffff" stroke="#000000" cx="140.12" cy="-18" rx="27" ry="18"/>
</g>
<!-- Node003&#45;&gt;Node998 -->
<g id="edge5" class="edge">
<title>Node003&#45;&gt;Node998</title>
<path fill="none" stroke="#555555" stroke-dasharray="1,5" d="M140.12,-95.96C140.12,-82.36 140.12,-63.13 140.12,-47.3"/>
<polygon fill="#555555" stroke="#555555" points="143.62,-47.5 140.12,-37.5 136.62,-47.5 143.62,-47.5"/>
</g>
<!-- destroy_p_proc -->
<g id="node9" class="node">
<title>destroy_p_proc</title>
<ellipse fill="#ffffff" stroke="#000000" cx="535.12" cy="-330.85" rx="27" ry="18"/>
</g>
<!-- look_at_p_proc -->
<g id="node10" class="node">
<title>look_at_p_proc</title>
<ellipse fill="#ffffff" stroke="#000000" cx="713.12" cy="-330.85" rx="133.29" ry="42.25"/>
<text text-anchor="middle" x="713.12" y="-343.43" font-family="Times,serif" font-size="14.00">You see a guard in loose</text>
<text text-anchor="middle" x="713.12" y="-326.18" font-family="Times,serif" font-size="14.00">clothing, wearing a look</text>
<text text-anchor="middle" x="713.12" y="-308.93" font-family="Times,serif" font-size="14.00">of wary boredom.</text>
</g>
<!-- description_p_proc -->
<g id="node11" class="node">
<title>description_p_proc</title>
<ellipse fill="#ffffff" stroke="#000000" cx="996.12" cy="-330.85" rx="131.7" ry="42.25"/>
<text text-anchor="middle" x="996.12" y="-343.43" font-family="Times,serif" font-size="14.00">You see a Palace Guard.</text>
<text text-anchor="middle" x="996.12" y="-326.18" font-family="Times,serif" font-size="14.00">&#45;&#45;&#45;</text>
<text text-anchor="middle" x="996.12" y="-308.93" font-family="Times,serif" font-size="14.00">You see a Palace Guard.</text>
</g>
<!-- use_skill_on_p_proc -->
<g id="node12" class="node">
<title>use_skill_on_p_proc</title>
<ellipse fill="#ffffff" stroke="#000000" cx="1173.12" cy="-330.85" rx="27" ry="18"/>
</g>
<!-- damage_p_proc -->
<g id="node13" class="node">
<title>damage_p_proc</title>
<ellipse fill="#ffffff" stroke="#000000" cx="1245.12" cy="-330.85" rx="27" ry="18"/>
</g>
<!-- map_enter_p_proc -->
<g id="node14" class="node">
<title>map_enter_p_proc</title>
<ellipse fill="#ffffff" stroke="#000000" cx="1317.12" cy="-330.85" rx="27" ry="18"/>
</g>
<!-- timed_event_p_proc -->
<g id="node15" class="node">
<title>timed_event_p_proc</title>
<ellipse fill="#ffffff" stroke="#000000" cx="1389.12" cy="-330.85" rx="27" ry="18"/>
</g>
<!-- map_update_p_proc -->
<g id="node16" class="node">
<title>map_update_p_proc</title>
<ellipse fill="#ffffff" stroke="#000000" cx="1461.12" cy="-330.85" rx="27" ry="18"/>
</g>
<!-- Node999 -->
<g id="node18" class="node">
<title>Node999</title>
<ellipse fill="#ffffff" stroke="#000000" cx="1533.12" cy="-330.85" rx="27" ry="18"/>
</g>
</g>
</svg>
