<?xml version="1.0" encoding="UTF-8" standalone="no"?>
<!DOCTYPE svg PUBLIC "-//W3C//DTD SVG 1.1//EN"
 "http://www.w3.org/Graphics/SVG/1.1/DTD/svg11.dtd">
<!-- Generated by graphviz version 8.0.5 (0)
 -->
<!-- Title: fschesta Pages: 1 -->
<svg width="1703pt" height="1737pt"
 viewBox="0.00 0.00 1702.50 1737.19" xmlns="http://www.w3.org/2000/svg" xmlns:xlink="http://www.w3.org/1999/xlink">
<g id="graph0" class="graph" transform="scale(1 1) rotate(0) translate(4 1733.19)">
<title>fschesta</title>
<polygon fill="white" stroke="none" points="-4,4 -4,-1733.19 1698.5,-1733.19 1698.5,4 -4,4"/>
<!-- checkPartyMembersNearDoor -->
<g id="node1" class="node">
<title>checkPartyMembersNearDoor</title>
<ellipse fill="#ffffff" stroke="#000000" cx="27" cy="-1662.54" rx="27" ry="18"/>
</g>
<!-- start -->
<g id="node2" class="node">
<title>start</title>
<ellipse fill="#ffffff" stroke="#000000" cx="99" cy="-1662.54" rx="27" ry="18"/>
</g>
<!-- talk_p_proc -->
<g id="node3" class="node">
<title>talk_p_proc</title>
<ellipse fill="#ffffff" stroke="#000000" cx="171" cy="-1662.54" rx="27" ry="18"/>
</g>
<!-- Node003 -->
<g id="node4" class="node">
<title>Node003</title>
<ellipse fill="#ffffff" stroke="#000000" cx="674" cy="-1516.65" rx="122.15" ry="42.25"/>
<text text-anchor="middle" x="674" y="-1529.22" font-family="Times,serif" font-size="14.00">Please speak to the</text>
<text text-anchor="middle" x="674" y="-1511.97" font-family="Times,serif" font-size="14.00">system administrator.</text>
<text text-anchor="middle" x="674" y="-1494.72" font-family="Times,serif" font-size="14.00">Goodbye.</text>
</g>
<!-- talk_p_proc&#45;&gt;Node003 -->
<g id="edge1" class="edge">
<title>talk_p_proc&#45;&gt;Node003</title>
<path fill="none" stroke="#555555" stroke-dasharray="1,5" d="M191.86,-1650.86C220.37,-1636.62 273.44,-1611.41 321,-1595.9 397.35,-1570.99 485.54,-1551.44 554.68,-1538.1"/>
<polygon fill="#555555" stroke="#555555" points="555.01,-1541.41 564.17,-1536.1 553.69,-1534.54 555.01,-1541.41"/>
</g>
<!-- Node009 -->
<g id="node5" class="node">
<title>Node009</title>
<ellipse fill="#ffffff" stroke="#000000" cx="311" cy="-531.18" rx="112.24" ry="18"/>
<text text-anchor="middle" x="311" y="-526.51" font-family="Times,serif" font-size="14.00">Station deactivated.</text>
</g>
<!-- talk_p_proc&#45;&gt;Node009 -->
<g id="edge2" class="edge">
<title>talk_p_proc&#45;&gt;Node009</title>
<path fill="none" stroke="#555555" stroke-dasharray="1,5" d="M171,-1644.27C171,-1617.25 171,-1563.36 171,-1517.65 171,-1517.65 171,-1517.65 171,-904.74 171,-797.52 177.52,-767.19 219,-668.33 236.65,-626.26 268.15,-583.62 289.31,-557.54"/>
<polygon fill="#555555" stroke="#555555" points="292.4,-560.3 296.05,-550.36 286.99,-555.85 292.4,-560.3"/>
</g>
<!-- Node001 -->
<g id="node6" class="node">
<title>Node001</title>
<ellipse fill="#ffffff" stroke="#000000" cx="451" cy="-356.84" rx="140.71" ry="42.25"/>
<text text-anchor="middle" x="451" y="-369.42" font-family="Times,serif" font-size="14.00">Greetings. Please enter</text>
<text text-anchor="middle" x="451" y="-352.17" font-family="Times,serif" font-size="14.00">your password to confirm</text>
<text text-anchor="middle" x="451" y="-334.92" font-family="Times,serif" font-size="14.00">your identity.</text>
</g>
<!-- talk_p_proc&#45;&gt;Node001 -->
<g id="edge3" class="edge">
<title>talk_p_proc&#45;&gt;Node001</title>
<path fill="none" stroke="#555555" stroke-dasharray="1,5" d="M163.67,-1645.08C152.63,-1618.73 133,-1565.19 133,-1517.65 133,-1517.65 133,-1517.65 133,-632.08 133,-553.42 136.08,-521.8 190,-464.54 226.19,-426.11 278.19,-401.12 326.28,-385.07"/>
<polygon fill="#555555" stroke="#555555" points="327.03,-388.19 335.47,-381.78 324.88,-381.52 327.03,-388.19"/>
</g>
<!-- Node999 -->
<g id="node16" class="node">
<title>Node999</title>
<ellipse fill="#ffffff" stroke="#000000" cx="777" cy="-42.25" rx="27" ry="18"/>
</g>
<!-- Node003&#45;&gt;Node999 -->
<g id="edge15" class="edge">
<title>Node003&#45;&gt;Node999</title>
<path fill="none" stroke="#959900" d="M778.03,-1494.12C814.58,-1487.1 856,-1479.74 894,-1474.4 976.34,-1462.82 1639,-1487.29 1639,-1404.15 1639,-1404.15 1639,-1404.15 1639,-138.5 1639,-54.33 981.32,-44.53 814.9,-43.4"/>
<polygon fill="#959900" stroke="#959900" points="815.24,-39.89 805.22,-43.33 815.2,-46.89 815.24,-39.89"/>
<text text-anchor="middle" x="1666.75" y="-628.4" font-family="Times,serif" font-size="14.00" fill="#959900">::leave::</text>
</g>
<!-- NodeHack -->
<g id="node19" class="node">
<title>NodeHack</title>
<ellipse fill="#ffffff" stroke="#000000" cx="822" cy="-1403.15" rx="27" ry="18"/>
</g>
<!-- Node003&#45;&gt;NodeHack -->
<g id="edge14" class="edge">
<title>Node003&#45;&gt;NodeHack</title>
<path fill="none" stroke="#006899" d="M724.11,-1477.9C748.14,-1459.79 775.94,-1438.85 795.76,-1423.91"/>
<polygon fill="#006899" stroke="#006899" points="797.65,-1426.12 803.53,-1417.31 793.44,-1420.53 797.65,-1426.12"/>
<text text-anchor="middle" x="853" y="-1443.1" font-family="Times,serif" font-size="14.00" fill="#006899">::hack into computer::</text>
</g>
<!-- Node009&#45;&gt;Node001 -->
<g id="edge24" class="edge">
<title>Node009&#45;&gt;Node001</title>
<path fill="none" stroke="#3e0099" d="M307.91,-512.89C305.06,-491.44 303.42,-454.59 320,-429.29 328.74,-415.96 340.84,-404.91 354.19,-395.81"/>
<polygon fill="#3e0099" stroke="#3e0099" points="355.57,-398.45 362.12,-390.12 351.8,-392.55 355.57,-398.45"/>
<text text-anchor="middle" x="378.5" y="-433.24" font-family="Times,serif" font-size="14.00" fill="#3e0099">Activate station.</text>
</g>
<!-- Node009&#45;&gt;Node999 -->
<g id="edge25" class="edge">
<title>Node009&#45;&gt;Node999</title>
<path fill="none" stroke="#009911" d="M299.33,-512.91C263.53,-457.55 162.43,-281.98 243.5,-175.5 304.56,-95.31 628.12,-57.41 739.38,-46.61"/>
<polygon fill="#009911" stroke="#009911" points="739.45,-50.02 749.08,-45.59 738.79,-43.06 739.45,-50.02"/>
<text text-anchor="middle" x="267.25" y="-225.27" font-family="Times,serif" font-size="14.00" fill="#009911">&#45;leave&#45;</text>
</g>
<!-- Node001&#45;&gt;Node999 -->
<g id="edge5" class="edge">
<title>Node001&#45;&gt;Node999</title>
<path fill="none" stroke="#990008" d="M468.55,-314.91C494.73,-255.46 544.25,-149.27 575.5,-121.5 623.11,-79.19 696.16,-58.59 739.99,-49.51"/>
<polygon fill="#990008" stroke="#990008" points="740.6,-52.76 749.74,-47.39 739.25,-45.89 740.6,-52.76"/>
<text text-anchor="middle" x="660.75" y="-143.45" font-family="Times,serif" font-size="14.00" fill="#990008">? Me no understand big</text>
<text text-anchor="middle" x="660.75" y="-126.2" font-family="Times,serif" font-size="14.00" fill="#990008">words.</text>
</g>
<!-- Node001&#45;&gt;Node999 -->
<g id="edge9" class="edge">
<title>Node001&#45;&gt;Node999</title>
<path fill="none" stroke="#009977" d="M451.39,-314.46C452.83,-254.96 458.88,-149.35 483.5,-121.5 517.4,-83.16 668.64,-57.97 739.78,-48.03"/>
<polygon fill="#009977" stroke="#009977" points="740.05,-51.39 749.48,-46.57 739.1,-44.46 740.05,-51.39"/>
<text text-anchor="middle" x="514.75" y="-134.82" font-family="Times,serif" font-size="14.00" fill="#009977">Log Out.</text>
</g>
<!-- NodeGuess -->
<g id="node17" class="node">
<title>NodeGuess</title>
<ellipse fill="#ffffff" stroke="#000000" cx="105" cy="-139.5" rx="27" ry="18"/>
</g>
<!-- Node001&#45;&gt;NodeGuess -->
<g id="edge6" class="edge">
<title>Node001&#45;&gt;NodeGuess</title>
<path fill="none" stroke="#003599" d="M363.62,-323.5C345.96,-313.38 329.12,-300.52 317,-284.39 287.28,-244.85 329.41,-210.04 294,-175.5 273,-155.02 191.71,-146.16 142.84,-142.62"/>
<polygon fill="#003599" stroke="#003599" points="143.27,-139.07 133.05,-141.89 142.79,-146.06 143.27,-139.07"/>
<text text-anchor="middle" x="383" y="-225.27" font-family="Times,serif" font-size="14.00" fill="#003599">::guess password::</text>
</g>
<!-- Node002 -->
<g id="node18" class="node">
<title>Node002</title>
<ellipse fill="#ffffff" stroke="#000000" cx="822" cy="-1305.9" rx="146.02" ry="42.25"/>
<text text-anchor="middle" x="822" y="-1318.47" font-family="Times,serif" font-size="14.00">Chemistry Database: &#45;Fuel</text>
<text text-anchor="middle" x="822" y="-1301.22" font-family="Times,serif" font-size="14.00">and derivatives&#45;</text>
<text text-anchor="middle" x="822" y="-1283.97" font-family="Times,serif" font-size="14.00">&#45;Polymers&#45;</text>
</g>
<!-- Node001&#45;&gt;Node002 -->
<g id="edge7" class="edge">
<title>Node001&#45;&gt;Node002</title>
<path fill="none" stroke="#619900" d="M469.75,-399.16C501.86,-464.65 574,-590.97 676.75,-650.33 728.5,-680.22 770.25,-623.7 810,-668.33 848.38,-711.41 832.13,-1107.73 824.84,-1252.37"/>
<polygon fill="#619900" stroke="#619900" points="821.3,-1251.99 824.29,-1262.16 828.29,-1252.35 821.3,-1251.99"/>
<text text-anchor="middle" x="765.12" y="-628.4" font-family="Times,serif" font-size="14.00" fill="#619900">TIUASPO&#45;Lo&#45;Shi&#45;S12908</text>
</g>
<!-- Node001&#45;&gt;NodeHack -->
<g id="edge8" class="edge">
<title>Node001&#45;&gt;NodeHack</title>
<path fill="none" stroke="#99008e" d="M459.74,-399.14C468.19,-450.76 474.26,-539.41 432,-597.83 384.54,-663.44 308.83,-600.9 264,-668.33 205.58,-756.2 212.85,-1050.86 264,-1143.15 372.4,-1338.73 676.73,-1387.64 784,-1398.97"/>
<polygon fill="#99008e" stroke="#99008e" points="783.62,-1402.55 793.92,-1400.06 784.32,-1395.58 783.62,-1402.55"/>
<text text-anchor="middle" x="342" y="-901.06" font-family="Times,serif" font-size="14.00" fill="#99008e">::hack into computer::</text>
</g>
<!-- destroy_p_proc -->
<g id="node7" class="node">
<title>destroy_p_proc</title>
<ellipse fill="#ffffff" stroke="#000000" cx="357" cy="-1662.54" rx="27" ry="18"/>
</g>
<!-- look_at_p_proc -->
<g id="node8" class="node">
<title>look_at_p_proc</title>
<ellipse fill="#ffffff" stroke="#000000" cx="582" cy="-1662.54" rx="122.68" ry="66.64"/>
<text text-anchor="middle" x="582" y="-1692.37" font-family="Times,serif" font-size="14.00">You see a computer</text>
<text text-anchor="middle" x="582" y="-1675.12" font-family="Times,serif" font-size="14.00">terminal.</text>
<text text-anchor="middle" x="582" y="-1657.87" font-family="Times,serif" font-size="14.00">&#45;&#45;&#45;</text>
<text text-anchor="middle" x="582" y="-1640.62" font-family="Times,serif" font-size="14.00">You see the chemistry</text>
<text text-anchor="middle" x="582" y="-1623.37" font-family="Times,serif" font-size="14.00">workstation.</text>
</g>
<!-- description_p_proc -->
<g id="node9" class="node">
<title>description_p_proc</title>
<ellipse fill="#ffffff" stroke="#000000" cx="861" cy="-1662.54" rx="109.96" ry="30.05"/>
<text text-anchor="middle" x="861" y="-1666.49" font-family="Times,serif" font-size="14.00">You see a computer</text>
<text text-anchor="middle" x="861" y="-1649.24" font-family="Times,serif" font-size="14.00">workstation.</text>
</g>
<!-- use_skill_on_p_proc -->
<g id="node10" class="node">
<title>use_skill_on_p_proc</title>
<ellipse fill="#ffffff" stroke="#000000" cx="1030" cy="-1662.54" rx="27" ry="18"/>
</g>
<!-- use_p_proc -->
<g id="node11" class="node">
<title>use_p_proc</title>
<ellipse fill="#ffffff" stroke="#000000" cx="1030" cy="-1516.65" rx="127.46" ry="30.05"/>
<text text-anchor="middle" x="1030" y="-1520.6" font-family="Times,serif" font-size="14.00">The computer does not</text>
<text text-anchor="middle" x="1030" y="-1503.35" font-family="Times,serif" font-size="14.00">respond to any input.</text>
</g>
<!-- use_skill_on_p_proc&#45;&gt;use_p_proc -->
<g id="edge4" class="edge">
<title>use_skill_on_p_proc&#45;&gt;use_p_proc</title>
<path fill="none" stroke="#555555" stroke-dasharray="1,5" d="M1030,-1644.19C1030,-1622.94 1030,-1586.28 1030,-1557.87"/>
<polygon fill="#555555" stroke="#555555" points="1033.5,-1558.05 1030,-1548.05 1026.5,-1558.05 1033.5,-1558.05"/>
</g>
<!-- use_obj_on_p_proc -->
<g id="node12" class="node">
<title>use_obj_on_p_proc</title>
<ellipse fill="#ffffff" stroke="#000000" cx="1198" cy="-1662.54" rx="122.68" ry="30.05"/>
<text text-anchor="middle" x="1198" y="-1666.49" font-family="Times,serif" font-size="14.00">You can&#39;t seem to find</text>
<text text-anchor="middle" x="1198" y="-1649.24" font-family="Times,serif" font-size="14.00">anywhere to put that.</text>
</g>
<!-- damage_p_proc -->
<g id="node13" class="node">
<title>damage_p_proc</title>
<ellipse fill="#ffffff" stroke="#000000" cx="1366" cy="-1662.54" rx="27" ry="18"/>
</g>
<!-- map_enter_p_proc -->
<g id="node14" class="node">
<title>map_enter_p_proc</title>
<ellipse fill="#ffffff" stroke="#000000" cx="1438" cy="-1662.54" rx="27" ry="18"/>
</g>
<!-- timed_event_p_proc -->
<g id="node15" class="node">
<title>timed_event_p_proc</title>
<ellipse fill="#ffffff" stroke="#000000" cx="1510" cy="-1662.54" rx="27" ry="18"/>
</g>
<!-- NodeGuess&#45;&gt;Node003 -->
<g id="edge32" class="edge">
<title>NodeGuess&#45;&gt;Node003</title>
<path fill="none" stroke="#555555" stroke-dasharray="1,5" d="M103.65,-157.79C100.92,-194.34 95,-282.11 95,-355.84 95,-634.08 95,-634.08 95,-634.08 95,-912.72 36,-1048.59 233,-1245.65 338.74,-1351.42 493.63,-1433.88 588.91,-1478.56"/>
<polygon fill="#555555" stroke="#555555" points="587.26,-1482.12 597.8,-1483.17 590.21,-1475.77 587.26,-1482.12"/>
</g>
<!-- Node010 -->
<g id="node30" class="node">
<title>Node010</title>
<ellipse fill="#ffffff" stroke="#000000" cx="140" cy="-42.25" rx="131.7" ry="42.25"/>
<text text-anchor="middle" x="140" y="-54.82" font-family="Times,serif" font-size="14.00">[Your random approach</text>
<text text-anchor="middle" x="140" y="-37.57" font-family="Times,serif" font-size="14.00">works wonders... you&#39;re</text>
<text text-anchor="middle" x="140" y="-20.32" font-family="Times,serif" font-size="14.00">in the machine!]</text>
</g>
<!-- NodeGuess&#45;&gt;Node010 -->
<g id="edge31" class="edge">
<title>NodeGuess&#45;&gt;Node010</title>
<path fill="none" stroke="#555555" stroke-dasharray="1,5" d="M111.1,-121.91C113.92,-114.23 117.44,-104.65 121.04,-94.85"/>
<polygon fill="#555555" stroke="#555555" points="124.63,-96.21 124.8,-85.62 118.06,-93.8 124.63,-96.21"/>
</g>
<!-- Node002&#45;&gt;Node999 -->
<g id="edge13" class="edge">
<title>Node002&#45;&gt;Node999</title>
<path fill="none" stroke="#99003b" d="M837.74,-1263.56C839.47,-1257.62 840.98,-1251.53 842,-1245.65 887.3,-984.92 850.56,-914.95 853,-650.33 853.14,-635 862.55,-627.83 853,-615.83 830.85,-587.99 797.15,-625.67 775,-597.83 693.26,-495.07 774.49,-433.7 775,-302.39 775.32,-218.4 776.24,-119.11 776.71,-71.49"/>
<polygon fill="#99003b" stroke="#99003b" points="780.22,-71.57 776.82,-61.54 773.22,-71.5 780.22,-71.57"/>
<text text-anchor="middle" x="783.75" y="-433.24" font-family="Times,serif" font-size="14.00" fill="#99003b">Log Out.</text>
</g>
<!-- Node005 -->
<g id="node20" class="node">
<title>Node005</title>
<ellipse fill="#ffffff" stroke="#000000" cx="1039" cy="-905.74" rx="143.9" ry="237.41"/>
<text text-anchor="middle" x="1039" y="-1056.31" font-family="Times,serif" font-size="14.00">(After sifting through</text>
<text text-anchor="middle" x="1039" y="-1039.06" font-family="Times,serif" font-size="14.00">the complex chemical</text>
<text text-anchor="middle" x="1039" y="-1021.81" font-family="Times,serif" font-size="14.00">formulae and lab notes,</text>
<text text-anchor="middle" x="1039" y="-1004.56" font-family="Times,serif" font-size="14.00">you come to the</text>
<text text-anchor="middle" x="1039" y="-987.31" font-family="Times,serif" font-size="14.00">conclusion that the Shi</text>
<text text-anchor="middle" x="1039" y="-970.06" font-family="Times,serif" font-size="14.00">have created a kind of</text>
<text text-anchor="middle" x="1039" y="-952.81" font-family="Times,serif" font-size="14.00">fuel from plant extracts</text>
<text text-anchor="middle" x="1039" y="-935.56" font-family="Times,serif" font-size="14.00">and sealife. Apparently,</text>
<text text-anchor="middle" x="1039" y="-918.31" font-family="Times,serif" font-size="14.00">they have hooked into</text>
<text text-anchor="middle" x="1039" y="-901.06" font-family="Times,serif" font-size="14.00">previously existing</text>
<text text-anchor="middle" x="1039" y="-883.81" font-family="Times,serif" font-size="14.00">pipelines so they can</text>
<text text-anchor="middle" x="1039" y="-866.56" font-family="Times,serif" font-size="14.00">transport fuel to a wide</text>
<text text-anchor="middle" x="1039" y="-849.31" font-family="Times,serif" font-size="14.00">variety of destinations)</text>
<text text-anchor="middle" x="1039" y="-832.06" font-family="Times,serif" font-size="14.00">&#45;&#45;&#45;</text>
<text text-anchor="middle" x="1039" y="-814.81" font-family="Times,serif" font-size="14.00">(You come across a vast</text>
<text text-anchor="middle" x="1039" y="-797.56" font-family="Times,serif" font-size="14.00">array of complex chemical</text>
<text text-anchor="middle" x="1039" y="-780.31" font-family="Times,serif" font-size="14.00">formulae and lab notes.</text>
<text text-anchor="middle" x="1039" y="-763.06" font-family="Times,serif" font-size="14.00">You&#39;re not quite sure</text>
<text text-anchor="middle" x="1039" y="-745.81" font-family="Times,serif" font-size="14.00">what all of this means.)</text>
</g>
<!-- Node002&#45;&gt;Node005 -->
<g id="edge10" class="edge">
<title>Node002&#45;&gt;Node005</title>
<path fill="none" stroke="#994b00" d="M925.06,-1275.57C939.38,-1267.77 952.69,-1257.97 963,-1245.65 985.98,-1218.19 1002.39,-1185.23 1014.04,-1150.8"/>
<polygon fill="#994b00" stroke="#994b00" points="1017.6,-1152.15 1017.35,-1141.56 1010.94,-1150 1017.6,-1152.15"/>
<text text-anchor="middle" x="1084.38" y="-1198.72" font-family="Times,serif" font-size="14.00" fill="#994b00">Fuel and derivatives.</text>
</g>
<!-- Node006 -->
<g id="node21" class="node">
<title>Node006</title>
<ellipse fill="#ffffff" stroke="#000000" cx="651" cy="-905.74" rx="149.73" ry="188.62"/>
<text text-anchor="middle" x="651" y="-1021.81" font-family="Times,serif" font-size="14.00">(Once you have waded past</text>
<text text-anchor="middle" x="651" y="-1004.56" font-family="Times,serif" font-size="14.00">the symbology and</text>
<text text-anchor="middle" x="651" y="-987.31" font-family="Times,serif" font-size="14.00">technical discussion, you</text>
<text text-anchor="middle" x="651" y="-970.06" font-family="Times,serif" font-size="14.00">discover that the Shi are</text>
<text text-anchor="middle" x="651" y="-952.81" font-family="Times,serif" font-size="14.00">working on a new kind of</text>
<text text-anchor="middle" x="651" y="-935.56" font-family="Times,serif" font-size="14.00">polymeric combat armor</text>
<text text-anchor="middle" x="651" y="-918.31" font-family="Times,serif" font-size="14.00">that is resistant to both</text>
<text text-anchor="middle" x="651" y="-901.06" font-family="Times,serif" font-size="14.00">flame and penetration. It</text>
<text text-anchor="middle" x="651" y="-883.81" font-family="Times,serif" font-size="14.00">is still years from</text>
<text text-anchor="middle" x="651" y="-866.56" font-family="Times,serif" font-size="14.00">completion. You also see</text>
<text text-anchor="middle" x="651" y="-849.31" font-family="Times,serif" font-size="14.00">mention of new weaponry</text>
<text text-anchor="middle" x="651" y="-832.06" font-family="Times,serif" font-size="14.00">and construction</text>
<text text-anchor="middle" x="651" y="-814.81" font-family="Times,serif" font-size="14.00">capabilities. Apparently</text>
<text text-anchor="middle" x="651" y="-797.56" font-family="Times,serif" font-size="14.00">the Shi have some plans</text>
<text text-anchor="middle" x="651" y="-780.31" font-family="Times,serif" font-size="14.00">for the future.)</text>
</g>
<!-- Node002&#45;&gt;Node006 -->
<g id="edge11" class="edge">
<title>Node002&#45;&gt;Node006</title>
<path fill="none" stroke="#1e0099" d="M708.29,-1279.25C692.39,-1270.99 677.94,-1260.08 667.5,-1245.65 650.31,-1221.9 643.99,-1165.4 642.69,-1105.19"/>
<polygon fill="#1e0099" stroke="#1e0099" points="646.18,-1105.26 642.51,-1095.32 639.18,-1105.37 646.18,-1105.26"/>
<text text-anchor="middle" x="703.25" y="-1198.72" font-family="Times,serif" font-size="14.00" fill="#1e0099">Polymers.</text>
</g>
<!-- Node009a -->
<g id="node22" class="node">
<title>Node009a</title>
<ellipse fill="#ffffff" stroke="#000000" cx="456" cy="-905.74" rx="27" ry="18"/>
</g>
<!-- Node002&#45;&gt;Node009a -->
<g id="edge12" class="edge">
<title>Node002&#45;&gt;Node009a</title>
<path fill="none" stroke="#0f9900" d="M677.84,-1298.43C593.82,-1291.37 499.15,-1276.58 471.75,-1245.65 392.91,-1156.63 428.62,-997.25 447.24,-933.84"/>
<polygon fill="#0f9900" stroke="#0f9900" points="450.83,-935.08 450.38,-924.49 444.13,-933.04 450.83,-935.08"/>
<text text-anchor="middle" x="557.12" y="-1198.72" font-family="Times,serif" font-size="14.00" fill="#0f9900">Deactivate workstation.</text>
</g>
<!-- NodeHack&#45;&gt;Node002 -->
<g id="edge28" class="edge">
<title>NodeHack&#45;&gt;Node002</title>
<path fill="none" stroke="#555555" stroke-dasharray="1,5" d="M816.68,-1385.12C815.87,-1377.74 815.4,-1368.65 815.28,-1359.31"/>
<polygon fill="#555555" stroke="#555555" points="818.78,-1359.34 815.3,-1349.33 811.78,-1359.32 818.78,-1359.34"/>
</g>
<!-- NodeHack&#45;&gt;Node002 -->
<g id="edge29" class="edge">
<title>NodeHack&#45;&gt;Node002</title>
<path fill="none" stroke="#555555" stroke-dasharray="1,5" d="M827.32,-1385.12C828.13,-1377.74 828.6,-1368.65 828.72,-1359.31"/>
<polygon fill="#555555" stroke="#555555" points="832.22,-1359.32 828.7,-1349.33 825.22,-1359.34 832.22,-1359.32"/>
</g>
<!-- Node004 -->
<g id="node23" class="node">
<title>Node004</title>
<ellipse fill="#ffffff" stroke="#000000" cx="1490" cy="-1203.4" rx="133.82" ry="42.25"/>
<text text-anchor="middle" x="1490" y="-1215.97" font-family="Times,serif" font-size="14.00">Intruder alert activated.</text>
<text text-anchor="middle" x="1490" y="-1198.72" font-family="Times,serif" font-size="14.00">Shutting down. Have a</text>
<text text-anchor="middle" x="1490" y="-1181.47" font-family="Times,serif" font-size="14.00">nice day.</text>
</g>
<!-- NodeHack&#45;&gt;Node004 -->
<g id="edge30" class="edge">
<title>NodeHack&#45;&gt;Node004</title>
<path fill="none" stroke="#555555" stroke-dasharray="1,5" d="M846.58,-1394.92C922.06,-1372.72 1157.26,-1303.51 1352,-1245.65 1362.26,-1242.6 1372.95,-1239.42 1383.64,-1236.23"/>
<polygon fill="#555555" stroke="#555555" points="1384.29,-1239.39 1392.87,-1233.18 1382.29,-1232.68 1384.29,-1239.39"/>
</g>
<!-- Node005&#45;&gt;Node002 -->
<g id="edge20" class="edge">
<title>Node005&#45;&gt;Node002</title>
<path fill="none" stroke="#429900" d="M951.16,-1094.25C940.64,-1116.79 930.07,-1139.48 920,-1161.15 902.57,-1198.66 904.62,-1211.7 881,-1245.65 878.32,-1249.51 875.37,-1253.34 872.26,-1257.08"/>
<polygon fill="#429900" stroke="#429900" points="869.18,-1254.29 865.26,-1264.13 874.47,-1258.88 869.18,-1254.29"/>
<text text-anchor="middle" x="939.5" y="-1198.72" font-family="Times,serif" font-size="14.00" fill="#429900">Back.</text>
</g>
<!-- Node0708 -->
<g id="node24" class="node">
<title>Node0708</title>
<ellipse fill="#ffffff" stroke="#000000" cx="907" cy="-531.18" rx="122.68" ry="66.64"/>
<text text-anchor="middle" x="907" y="-561.01" font-family="Times,serif" font-size="14.00">You see a computer</text>
<text text-anchor="middle" x="907" y="-543.76" font-family="Times,serif" font-size="14.00">terminal.</text>
<text text-anchor="middle" x="907" y="-526.51" font-family="Times,serif" font-size="14.00">&#45;&#45;&#45;</text>
<text text-anchor="middle" x="907" y="-509.26" font-family="Times,serif" font-size="14.00">You see the chemistry</text>
<text text-anchor="middle" x="907" y="-492.01" font-family="Times,serif" font-size="14.00">workstation.</text>
</g>
<!-- Node005&#45;&gt;Node0708 -->
<g id="edge17" class="edge">
<title>Node005&#45;&gt;Node0708</title>
<path fill="none" stroke="#009944" d="M939.73,-733.54C927.76,-706.44 917.3,-678.16 910.25,-650.33 906.9,-637.09 905.07,-622.76 904.2,-608.78"/>
<polygon fill="#009944" stroke="#009944" points="907.67,-609.02 903.71,-599.2 900.67,-609.35 907.67,-609.02"/>
<text text-anchor="middle" x="992.38" y="-637.03" font-family="Times,serif" font-size="14.00" fill="#009944">Direct fuel to Poseidon</text>
<text text-anchor="middle" x="992.38" y="-619.78" font-family="Times,serif" font-size="14.00" fill="#009944">tanker.</text>
</g>
<!-- Node007a -->
<g id="node25" class="node">
<title>Node007a</title>
<ellipse fill="#ffffff" stroke="#000000" cx="1170" cy="-531.18" rx="122.68" ry="66.64"/>
<text text-anchor="middle" x="1170" y="-561.01" font-family="Times,serif" font-size="14.00">You see a computer</text>
<text text-anchor="middle" x="1170" y="-543.76" font-family="Times,serif" font-size="14.00">terminal.</text>
<text text-anchor="middle" x="1170" y="-526.51" font-family="Times,serif" font-size="14.00">&#45;&#45;&#45;</text>
<text text-anchor="middle" x="1170" y="-509.26" font-family="Times,serif" font-size="14.00">You see the chemistry</text>
<text text-anchor="middle" x="1170" y="-492.01" font-family="Times,serif" font-size="14.00">workstation.</text>
</g>
<!-- Node005&#45;&gt;Node007a -->
<g id="edge18" class="edge">
<title>Node005&#45;&gt;Node007a</title>
<path fill="none" stroke="#991800" d="M1067.71,-672.87C1073.91,-653.08 1081.42,-633.79 1090.5,-615.83 1093.66,-609.58 1097.44,-603.48 1101.6,-597.61"/>
<polygon fill="#991800" stroke="#991800" points="1104.74,-600.26 1107.96,-590.17 1099.15,-596.05 1104.74,-600.26"/>
<text text-anchor="middle" x="1137.25" y="-637.03" font-family="Times,serif" font-size="14.00" fill="#991800">Direct fuel to</text>
<text text-anchor="middle" x="1137.25" y="-619.78" font-family="Times,serif" font-size="14.00" fill="#991800">Hubologists.</text>
</g>
<!-- Node011 -->
<g id="node26" class="node">
<title>Node011</title>
<ellipse fill="#ffffff" stroke="#000000" cx="1429" cy="-531.18" rx="118.55" ry="18"/>
<text text-anchor="middle" x="1429" y="-526.51" font-family="Times,serif" font-size="14.00">Destination required.</text>
</g>
<!-- Node005&#45;&gt;Node011 -->
<g id="edge19" class="edge">
<title>Node005&#45;&gt;Node011</title>
<path fill="none" stroke="#001599" d="M1137.64,-732.68C1172.73,-672.04 1204.48,-618.14 1207.75,-615.83 1242.57,-591.21 1261.7,-611.76 1302,-597.83 1334.1,-586.73 1368.17,-568.74 1392.93,-554.4"/>
<polygon fill="#001599" stroke="#001599" points="1394.43,-556.99 1401.27,-548.9 1390.88,-550.96 1394.43,-556.99"/>
<text text-anchor="middle" x="1266.62" y="-637.03" font-family="Times,serif" font-size="14.00" fill="#001599">Direct fuel along</text>
<text text-anchor="middle" x="1266.62" y="-619.78" font-family="Times,serif" font-size="14.00" fill="#001599">pipeline.</text>
</g>
<!-- Node006&#45;&gt;Node002 -->
<g id="edge21" class="edge">
<title>Node006&#45;&gt;Node002</title>
<path fill="none" stroke="#99006e" d="M709.3,-1079.56C733.13,-1146.85 759.03,-1215.08 776,-1245.65 777.83,-1248.94 779.82,-1252.24 781.93,-1255.5"/>
<polygon fill="#99006e" stroke="#99006e" points="779.6,-1257.29 788.12,-1263.59 785.38,-1253.35 779.6,-1257.29"/>
<text text-anchor="middle" x="795.5" y="-1198.72" font-family="Times,serif" font-size="14.00" fill="#99006e">Back.</text>
</g>
<!-- Node009a&#45;&gt;Node009 -->
<g id="edge33" class="edge">
<title>Node009a&#45;&gt;Node009</title>
<path fill="none" stroke="#555555" stroke-dasharray="1,5" d="M455.78,-887.32C454.68,-847.03 448.53,-745.05 415,-668.33 395.98,-624.8 360.21,-582.59 336,-557"/>
<polygon fill="#555555" stroke="#555555" points="339.03,-555.07 329.58,-550.29 333.99,-559.93 339.03,-555.07"/>
</g>
<!-- Node004&#45;&gt;Node999 -->
<g id="edge16" class="edge">
<title>Node004&#45;&gt;Node999</title>
<path fill="none" stroke="#710099" d="M1500.63,-1161.01C1523.64,-1067.68 1576,-833.41 1576,-634.08 1576,-634.08 1576,-634.08 1576,-138.5 1576,-60.82 972.91,-46.22 814.65,-43.73"/>
<polygon fill="#710099" stroke="#710099" points="815.09,-40.22 805.04,-43.57 814.99,-47.22 815.09,-40.22"/>
<text text-anchor="middle" x="1597.75" y="-433.24" font-family="Times,serif" font-size="14.00" fill="#710099">&#45;done&#45;</text>
</g>
<!-- Node007 -->
<g id="node27" class="node">
<title>Node007</title>
<ellipse fill="#ffffff" stroke="#000000" cx="914" cy="-356.84" rx="129.58" ry="54.45"/>
<text text-anchor="middle" x="914" y="-378.04" font-family="Times,serif" font-size="14.00">Fuel directed</text>
<text text-anchor="middle" x="914" y="-360.79" font-family="Times,serif" font-size="14.00">accordingly. Storage</text>
<text text-anchor="middle" x="914" y="-343.54" font-family="Times,serif" font-size="14.00">tanks = Empty. Closing</text>
<text text-anchor="middle" x="914" y="-326.29" font-family="Times,serif" font-size="14.00">program.</text>
</g>
<!-- Node0708&#45;&gt;Node007 -->
<g id="edge34" class="edge">
<title>Node0708&#45;&gt;Node007</title>
<path fill="none" stroke="#555555" stroke-dasharray="1,5" d="M909.67,-464.54C910.23,-450.73 910.82,-436.17 911.38,-422.4"/>
<polygon fill="#555555" stroke="#555555" points="914.91,-422.69 911.82,-412.55 907.92,-422.4 914.91,-422.69"/>
</g>
<!-- Node008 -->
<g id="node29" class="node">
<title>Node008</title>
<ellipse fill="#ffffff" stroke="#000000" cx="1059" cy="-229.95" rx="129.58" ry="54.45"/>
<text text-anchor="middle" x="1059" y="-251.15" font-family="Times,serif" font-size="14.00">Fuel directed</text>
<text text-anchor="middle" x="1059" y="-233.9" font-family="Times,serif" font-size="14.00">accordingly. Storage</text>
<text text-anchor="middle" x="1059" y="-216.65" font-family="Times,serif" font-size="14.00">tanks = Empty. Closing</text>
<text text-anchor="middle" x="1059" y="-199.4" font-family="Times,serif" font-size="14.00">program.</text>
</g>
<!-- Node0708&#45;&gt;Node008 -->
<g id="edge35" class="edge">
<title>Node0708&#45;&gt;Node008</title>
<path fill="none" stroke="#555555" stroke-dasharray="1,5" d="M990.47,-481.85C1015.04,-463.15 1039.06,-439.4 1053,-411.29 1070.59,-375.81 1072.27,-331.39 1069.47,-295.51"/>
<polygon fill="#555555" stroke="#555555" points="1072.87,-295.31 1068.46,-285.67 1065.9,-295.95 1072.87,-295.31"/>
</g>
<!-- Node007a&#45;&gt;Node007 -->
<g id="edge36" class="edge">
<title>Node007a&#45;&gt;Node007</title>
<path fill="none" stroke="#555555" stroke-dasharray="1,5" d="M1093.54,-478.71C1061.08,-456.86 1023.32,-431.44 990.82,-409.56"/>
<polygon fill="#555555" stroke="#555555" points="993.06,-406.17 982.81,-403.49 989.15,-411.98 993.06,-406.17"/>
</g>
<!-- Node011&#45;&gt;Node002 -->
<g id="edge27" class="edge">
<title>Node011&#45;&gt;Node002</title>
<path fill="none" stroke="#004899" d="M1428.69,-549.56C1426.06,-640.05 1401.07,-1060.29 1164,-1245.65 1135.81,-1267.69 1039.28,-1257.69 1004,-1263.65 984.14,-1267.01 963.2,-1271.16 942.86,-1275.54"/>
<polygon fill="#004899" stroke="#004899" points="942.32,-1272.29 933.29,-1277.84 943.81,-1279.13 942.32,-1272.29"/>
<text text-anchor="middle" x="1438.5" y="-901.06" font-family="Times,serif" font-size="14.00" fill="#004899">Back.</text>
</g>
<!-- Node999a -->
<g id="node28" class="node">
<title>Node999a</title>
<ellipse fill="#ffffff" stroke="#000000" cx="845" cy="-139.5" rx="27" ry="18"/>
</g>
<!-- Node007&#45;&gt;Node999a -->
<g id="edge22" class="edge">
<title>Node007&#45;&gt;Node999a</title>
<path fill="none" stroke="#009997" d="M884.52,-303.5C881.56,-297.17 878.8,-290.71 876.5,-284.39 862.28,-245.36 853.42,-197.93 848.85,-168.47"/>
<polygon fill="#009997" stroke="#009997" points="852.19,-168.13 847.25,-158.75 845.26,-169.16 852.19,-168.13"/>
<text text-anchor="middle" x="898.75" y="-225.27" font-family="Times,serif" font-size="14.00" fill="#009997">&#45;done&#45;</text>
</g>
<!-- Node999a&#45;&gt;Node999 -->
<g id="edge37" class="edge">
<title>Node999a&#45;&gt;Node999</title>
<path fill="none" stroke="#555555" stroke-dasharray="1,5" d="M833.77,-122.77C823.04,-107.74 806.71,-84.87 794.32,-67.51"/>
<polygon fill="#555555" stroke="#555555" points="796.9,-66.11 788.25,-60 791.21,-70.17 796.9,-66.11"/>
</g>
<!-- Node008&#45;&gt;Node999 -->
<g id="edge23" class="edge">
<title>Node008&#45;&gt;Node999</title>
<path fill="none" stroke="#996a00" d="M990.02,-183.52C930.44,-144.29 847.42,-89.62 804.75,-61.52"/>
<polygon fill="#996a00" stroke="#996a00" points="807.06,-58.2 796.79,-55.62 803.21,-64.04 807.06,-58.2"/>
<text text-anchor="middle" x="970.75" y="-134.82" font-family="Times,serif" font-size="14.00" fill="#996a00">&#45;done&#45;</text>
</g>
<!-- Node010&#45;&gt;Node002 -->
<g id="edge26" class="edge">
<title>Node010&#45;&gt;Node002</title>
<path fill="none" stroke="#99001c" d="M140.73,-84.74C144.41,-274.45 163.06,-1053.87 223,-1143.15 279.78,-1227.72 330.88,-1214.92 428,-1245.65 505.94,-1270.31 595.9,-1284.83 670.16,-1293.32"/>
<polygon fill="#99001c" stroke="#99001c" points="669.67,-1296.89 679.99,-1294.52 670.44,-1289.94 669.67,-1296.89"/>
<text text-anchor="middle" x="174.88" y="-433.24" font-family="Times,serif" font-size="14.00" fill="#99001c">&#45;more&#45;</text>
</g>
</g>
</svg>
