<?xml version="1.0" encoding="UTF-8" standalone="no"?>
<!DOCTYPE svg PUBLIC "-//W3C//DTD SVG 1.1//EN"
 "http://www.w3.org/Graphics/SVG/1.1/DTD/svg11.dtd">
<!-- Generated by graphviz version 8.0.5 (0)
 -->
<!-- Title: ncActres Pages: 1 -->
<svg width="6334pt" height="456pt"
 viewBox="0.00 0.00 6333.58 455.76" xmlns="http://www.w3.org/2000/svg" xmlns:xlink="http://www.w3.org/1999/xlink">
<g id="graph0" class="graph" transform="scale(1 1) rotate(0) translate(4 451.76)">
<title>ncActres</title>
<polygon fill="white" stroke="none" points="-4,4 -4,-451.76 6329.58,-451.76 6329.58,4 -4,4"/>
<!-- checkPartyMembersNearDoor -->
<g id="node1" class="node">
<title>checkPartyMembersNearDoor</title>
<ellipse fill="#ffffff" stroke="#000000" cx="302.03" cy="-405.52" rx="27" ry="18"/>
</g>
<!-- ChooseFromList -->
<g id="node2" class="node">
<title>ChooseFromList</title>
<ellipse fill="#ffffff" stroke="#000000" cx="424.03" cy="-199.63" rx="140.18" ry="127.63"/>
<text text-anchor="middle" x="424.03" y="-272.58" font-family="Times,serif" font-size="14.00">You see an attractive</text>
<text text-anchor="middle" x="424.03" y="-255.33" font-family="Times,serif" font-size="14.00">woman. She seems to be</text>
<text text-anchor="middle" x="424.03" y="-238.08" font-family="Times,serif" font-size="14.00">talking to herself.</text>
<text text-anchor="middle" x="424.03" y="-220.83" font-family="Times,serif" font-size="14.00">&#45;&#45;&#45;</text>
<text text-anchor="middle" x="424.03" y="-203.58" font-family="Times,serif" font-size="14.00">She looks like she is</text>
<text text-anchor="middle" x="424.03" y="-186.33" font-family="Times,serif" font-size="14.00">memorizing her lines.</text>
<text text-anchor="middle" x="424.03" y="-169.08" font-family="Times,serif" font-size="14.00">Eventually, she gives up,</text>
<text text-anchor="middle" x="424.03" y="-151.83" font-family="Times,serif" font-size="14.00">makes an &quot;O&quot; with her</text>
<text text-anchor="middle" x="424.03" y="-134.58" font-family="Times,serif" font-size="14.00">mouth, and begins to bob</text>
<text text-anchor="middle" x="424.03" y="-117.33" font-family="Times,serif" font-size="14.00">her head.</text>
</g>
<!-- CLICK_PREV -->
<g id="node3" class="node">
<title>CLICK_PREV</title>
<ellipse fill="#ffffff" stroke="#000000" cx="374.03" cy="-405.52" rx="27" ry="18"/>
</g>
<!-- CLICK_PREV&#45;&gt;ChooseFromList -->
<g id="edge1" class="edge">
<title>CLICK_PREV&#45;&gt;ChooseFromList</title>
<path fill="none" stroke="#555555" stroke-dasharray="1,5" d="M378.21,-387.48C381.35,-374.65 385.99,-355.73 391.13,-334.79"/>
<polygon fill="#555555" stroke="#555555" points="394.7,-335.91 393.69,-325.36 387.91,-334.24 394.7,-335.91"/>
</g>
<!-- CLICK_0 -->
<g id="node4" class="node">
<title>CLICK_0</title>
<ellipse fill="#ffffff" stroke="#000000" cx="539.03" cy="-405.52" rx="27" ry="18"/>
</g>
<!-- stored_node -->
<g id="node5" class="node">
<title>stored_node</title>
<ellipse fill="none" stroke="black" cx="683.03" cy="-199.63" rx="72.25" ry="18"/>
<text text-anchor="middle" x="683.03" y="-194.96" font-family="Times,serif" font-size="14.00">stored_node</text>
</g>
<!-- CLICK_0&#45;&gt;stored_node -->
<g id="edge2" class="edge">
<title>CLICK_0&#45;&gt;stored_node</title>
<path fill="none" stroke="#555555" stroke-dasharray="1,5" d="M550.09,-388.86C574.75,-353.93 634.47,-269.39 664.76,-226.5"/>
<polygon fill="#555555" stroke="#555555" points="668.01,-228.96 670.92,-218.77 662.3,-224.92 668.01,-228.96"/>
</g>
<!-- CLICK_1 -->
<g id="node6" class="node">
<title>CLICK_1</title>
<ellipse fill="#ffffff" stroke="#000000" cx="611.03" cy="-405.52" rx="27" ry="18"/>
</g>
<!-- CLICK_1&#45;&gt;stored_node -->
<g id="edge3" class="edge">
<title>CLICK_1&#45;&gt;stored_node</title>
<path fill="none" stroke="#555555" stroke-dasharray="1,5" d="M617.04,-387.48C629.48,-352.27 658.12,-271.16 673.25,-228.31"/>
<polygon fill="#555555" stroke="#555555" points="676.85,-229.64 676.88,-219.05 670.25,-227.31 676.85,-229.64"/>
</g>
<!-- CLICK_2 -->
<g id="node7" class="node">
<title>CLICK_2</title>
<ellipse fill="#ffffff" stroke="#000000" cx="683.03" cy="-405.52" rx="27" ry="18"/>
</g>
<!-- CLICK_2&#45;&gt;stored_node -->
<g id="edge4" class="edge">
<title>CLICK_2&#45;&gt;stored_node</title>
<path fill="none" stroke="#555555" stroke-dasharray="1,5" d="M683.03,-387.13C683.03,-351.85 683.03,-271.55 683.03,-228.74"/>
<polygon fill="#555555" stroke="#555555" points="686.53,-228.97 683.03,-218.97 679.53,-228.97 686.53,-228.97"/>
</g>
<!-- CLICK_3 -->
<g id="node8" class="node">
<title>CLICK_3</title>
<ellipse fill="#ffffff" stroke="#000000" cx="755.03" cy="-405.52" rx="27" ry="18"/>
</g>
<!-- CLICK_3&#45;&gt;stored_node -->
<g id="edge5" class="edge">
<title>CLICK_3&#45;&gt;stored_node</title>
<path fill="none" stroke="#555555" stroke-dasharray="1,5" d="M749.01,-387.48C736.58,-352.27 707.94,-271.16 692.8,-228.31"/>
<polygon fill="#555555" stroke="#555555" points="695.81,-227.31 689.18,-219.05 689.21,-229.64 695.81,-227.31"/>
</g>
<!-- CLICK_4 -->
<g id="node9" class="node">
<title>CLICK_4</title>
<ellipse fill="#ffffff" stroke="#000000" cx="827.03" cy="-405.52" rx="27" ry="18"/>
</g>
<!-- CLICK_4&#45;&gt;stored_node -->
<g id="edge6" class="edge">
<title>CLICK_4&#45;&gt;stored_node</title>
<path fill="none" stroke="#555555" stroke-dasharray="1,5" d="M813.95,-389.54C800.82,-374.26 780.27,-349.69 764.03,-327.27 739.74,-293.71 714.43,-253.09 698.71,-227.06"/>
<polygon fill="#555555" stroke="#555555" points="701.32,-225.61 693.17,-218.84 695.32,-229.21 701.32,-225.61"/>
</g>
<!-- CLICK_MORE -->
<g id="node10" class="node">
<title>CLICK_MORE</title>
<ellipse fill="#ffffff" stroke="#000000" cx="446.03" cy="-405.52" rx="27" ry="18"/>
</g>
<!-- CLICK_MORE&#45;&gt;ChooseFromList -->
<g id="edge7" class="edge">
<title>CLICK_MORE&#45;&gt;ChooseFromList</title>
<path fill="none" stroke="#555555" stroke-dasharray="1,5" d="M444.15,-387.13C442.83,-374.89 440.93,-357.22 438.81,-337.59"/>
<polygon fill="#555555" stroke="#555555" points="442.2,-337.39 437.65,-327.83 435.24,-338.14 442.2,-337.39"/>
</g>
<!-- start -->
<g id="node11" class="node">
<title>start</title>
<ellipse fill="#ffffff" stroke="#000000" cx="1057.03" cy="-405.52" rx="27" ry="18"/>
</g>
<!-- critter_p_proc -->
<g id="node12" class="node">
<title>critter_p_proc</title>
<ellipse fill="#ffffff" stroke="#000000" cx="2392.03" cy="-405.52" rx="27" ry="18"/>
</g>
<!-- pickup_p_proc -->
<g id="node13" class="node">
<title>pickup_p_proc</title>
<ellipse fill="#ffffff" stroke="#000000" cx="3095.03" cy="-405.52" rx="27" ry="18"/>
</g>
<!-- talk_p_proc -->
<g id="node14" class="node">
<title>talk_p_proc</title>
<ellipse fill="#ffffff" stroke="#000000" cx="4590.03" cy="-405.52" rx="27" ry="18"/>
</g>
<!-- Node002 -->
<g id="node15" class="node">
<title>Node002</title>
<ellipse fill="#ffffff" stroke="#000000" cx="3992.03" cy="-199.63" rx="27" ry="18"/>
</g>
<!-- talk_p_proc&#45;&gt;Node002 -->
<g id="edge8" class="edge">
<title>talk_p_proc&#45;&gt;Node002</title>
<path fill="none" stroke="#555555" stroke-dasharray="1,5" d="M4563.48,-402.08C4500.51,-395.66 4337.85,-375.39 4211.03,-327.27 4136.9,-299.14 4058.41,-247.71 4018.58,-219.83"/>
<polygon fill="#555555" stroke="#555555" points="4020.95,-216.51 4010.77,-213.6 4016.92,-222.23 4020.95,-216.51"/>
</g>
<!-- Node008 -->
<g id="node16" class="node">
<title>Node008</title>
<ellipse fill="#ffffff" stroke="#000000" cx="4410.03" cy="-199.63" rx="27" ry="18"/>
</g>
<!-- talk_p_proc&#45;&gt;Node008 -->
<g id="edge9" class="edge">
<title>talk_p_proc&#45;&gt;Node008</title>
<path fill="none" stroke="#555555" stroke-dasharray="1,5" d="M4564.37,-399.27C4529.83,-390.05 4469.76,-367.93 4437.03,-327.27 4414.08,-298.75 4405.76,-256.37 4404.94,-228.62"/>
<polygon fill="#555555" stroke="#555555" points="4408.45,-228.73 4405.03,-218.7 4401.45,-228.67 4408.45,-228.73"/>
</g>
<!-- talk_p_proc&#45;&gt;Node008 -->
<g id="edge15" class="edge">
<title>talk_p_proc&#45;&gt;Node008</title>
<path fill="none" stroke="#555555" stroke-dasharray="1,5" d="M4566.37,-396.09C4536.03,-385.41 4484.47,-363.84 4455.03,-327.27 4431.85,-298.47 4423.59,-255.52 4418.38,-227.79"/>
<polygon fill="#555555" stroke="#555555" points="4421.69,-227.44 4416.37,-218.27 4414.81,-228.75 4421.69,-227.44"/>
</g>
<!-- Node010 -->
<g id="node17" class="node">
<title>Node010</title>
<ellipse fill="#ffffff" stroke="#000000" cx="4482.03" cy="-199.63" rx="27" ry="18"/>
</g>
<!-- talk_p_proc&#45;&gt;Node010 -->
<g id="edge10" class="edge">
<title>talk_p_proc&#45;&gt;Node010</title>
<path fill="none" stroke="#555555" stroke-dasharray="1,5" d="M4573.33,-390.85C4556.96,-376.6 4532.44,-352.81 4518.03,-327.27 4500.34,-295.91 4490.79,-255.21 4486.06,-228.52"/>
<polygon fill="#555555" stroke="#555555" points="4489.41,-228.31 4484.32,-219.01 4482.5,-229.45 4489.41,-228.31"/>
</g>
<!-- Node012 -->
<g id="node18" class="node">
<title>Node012</title>
<ellipse fill="#ffffff" stroke="#000000" cx="4554.03" cy="-199.63" rx="27" ry="18"/>
</g>
<!-- talk_p_proc&#45;&gt;Node012 -->
<g id="edge11" class="edge">
<title>talk_p_proc&#45;&gt;Node012</title>
<path fill="none" stroke="#555555" stroke-dasharray="1,5" d="M4586.96,-387.13C4580.73,-351.85 4566.55,-271.55 4558.99,-228.74"/>
<polygon fill="#555555" stroke="#555555" points="4562.28,-228.21 4557.09,-218.97 4555.38,-229.43 4562.28,-228.21"/>
</g>
<!-- Node013 -->
<g id="node19" class="node">
<title>Node013</title>
<ellipse fill="#ffffff" stroke="#000000" cx="4626.03" cy="-199.63" rx="27" ry="18"/>
</g>
<!-- talk_p_proc&#45;&gt;Node013 -->
<g id="edge12" class="edge">
<title>talk_p_proc&#45;&gt;Node013</title>
<path fill="none" stroke="#555555" stroke-dasharray="1,5" d="M4589.12,-387.13C4591.98,-351.6 4606.06,-270.4 4616.46,-227.83"/>
<polygon fill="#555555" stroke="#555555" points="4620.04,-228.96 4619.15,-218.4 4613.26,-227.21 4620.04,-228.96"/>
</g>
<!-- talk_p_proc&#45;&gt;Node013 -->
<g id="edge18" class="edge">
<title>talk_p_proc&#45;&gt;Node013</title>
<path fill="none" stroke="#555555" stroke-dasharray="1,5" d="M4596.89,-387.83C4606.51,-352.9 4621.14,-271.74 4625.9,-228.66"/>
<polygon fill="#555555" stroke="#555555" points="4629.47,-229.13 4626.95,-218.84 4622.51,-228.45 4629.47,-229.13"/>
</g>
<!-- Node014 -->
<g id="node20" class="node">
<title>Node014</title>
<ellipse fill="#ffffff" stroke="#000000" cx="4698.03" cy="-199.63" rx="27" ry="18"/>
</g>
<!-- talk_p_proc&#45;&gt;Node014 -->
<g id="edge13" class="edge">
<title>talk_p_proc&#45;&gt;Node014</title>
<path fill="none" stroke="#555555" stroke-dasharray="1,5" d="M4595.94,-387.83C4601.68,-380.23 4609.63,-371.18 4617.03,-363.27 4632.48,-346.73 4641.57,-346.78 4653.03,-327.27 4671.47,-295.88 4680.9,-254.54 4687.56,-227.78"/>
<polygon fill="#555555" stroke="#555555" points="4691.16,-228.82 4690.26,-218.27 4684.38,-227.08 4691.16,-228.82"/>
</g>
<!-- talk_p_proc&#45;&gt;Node014 -->
<g id="edge19" class="edge">
<title>talk_p_proc&#45;&gt;Node014</title>
<path fill="none" stroke="#555555" stroke-dasharray="1,5" d="M4608.18,-392.05C4616.6,-383.76 4626.2,-372.71 4635.03,-363.27 4650.48,-346.73 4659.57,-346.78 4671.03,-327.27 4689.28,-296.19 4698.71,-255.36 4701.15,-228.58"/>
<polygon fill="#555555" stroke="#555555" points="4704.7,-228.87 4701.79,-218.69 4697.71,-228.47 4704.7,-228.87"/>
</g>
<!-- Node001 -->
<g id="node21" class="node">
<title>Node001</title>
<ellipse fill="#ffffff" stroke="#000000" cx="4247.03" cy="-199.63" rx="27" ry="18"/>
</g>
<!-- talk_p_proc&#45;&gt;Node001 -->
<g id="edge14" class="edge">
<title>talk_p_proc&#45;&gt;Node001</title>
<path fill="none" stroke="#555555" stroke-dasharray="1,5" d="M4564.46,-399.22C4522.3,-389.69 4436.64,-366.85 4374.03,-327.27 4329.38,-299.04 4288.14,-252.62 4265.39,-224.51"/>
<polygon fill="#555555" stroke="#555555" points="4267.64,-222.71 4258.68,-217.07 4262.17,-227.07 4267.64,-222.71"/>
</g>
<!-- Node009 -->
<g id="node22" class="node">
<title>Node009</title>
<ellipse fill="#ffffff" stroke="#000000" cx="4816.03" cy="-199.63" rx="27" ry="18"/>
</g>
<!-- talk_p_proc&#45;&gt;Node009 -->
<g id="edge16" class="edge">
<title>talk_p_proc&#45;&gt;Node009</title>
<path fill="none" stroke="#555555" stroke-dasharray="1,5" d="M4600.74,-388.54C4607.18,-380 4616.06,-369.9 4626.03,-363.27 4668.14,-335.22 4694.03,-358.25 4734.03,-327.27 4768.33,-300.7 4792.58,-255.49 4805.42,-226.89"/>
<polygon fill="#555555" stroke="#555555" points="4808.86,-228.74 4809.63,-218.17 4802.44,-225.95 4808.86,-228.74"/>
</g>
<!-- Node011 -->
<g id="node23" class="node">
<title>Node011</title>
<ellipse fill="#ffffff" stroke="#000000" cx="5351.03" cy="-199.63" rx="27" ry="18"/>
</g>
<!-- talk_p_proc&#45;&gt;Node011 -->
<g id="edge17" class="edge">
<title>talk_p_proc&#45;&gt;Node011</title>
<path fill="none" stroke="#555555" stroke-dasharray="1,5" d="M4600.05,-388.31C4606.39,-379.47 4615.39,-369.16 4626.03,-363.27 4715.01,-314 4752.41,-347.8 4852.03,-327.27 5028.17,-290.96 5235.7,-233.5 5316.45,-210.56"/>
<polygon fill="#555555" stroke="#555555" points="5316.89,-213.79 5325.55,-207.69 5314.97,-207.06 5316.89,-213.79"/>
</g>
<!-- floater_rand_with_check_cust(305, 324, message_str(353, 500 + global_var(232))) -->
<g id="node42" class="node">
<title>floater_rand_with_check_cust(305, 324, message_str(353, 500 + global_var(232)))</title>
<ellipse fill="none" stroke="black" cx="4862.03" cy="-18" rx="422.64" ry="18"/>
<text text-anchor="middle" x="4862.03" y="-13.32" font-family="Times,serif" font-size="14.00">floater_rand_with_check_cust(305, 324, message_str(353, 500 + global_var(232)))</text>
</g>
<!-- Node009&#45;&gt;floater_rand_with_check_cust(305, 324, message_str(353, 500 + global_var(232))) -->
<g id="edge30" class="edge">
<title>Node009&#45;&gt;floater_rand_with_check_cust(305, 324, message_str(353, 500 + global_var(232)))</title>
<path fill="none" stroke="#555555" stroke-dasharray="1,5" d="M4820.44,-181.41C4828.42,-150.24 4845.33,-84.23 4854.94,-46.67"/>
<polygon fill="#555555" stroke="#555555" points="4858.47,-47.99 4857.56,-37.44 4851.69,-46.25 4858.47,-47.99"/>
</g>
<!-- floater_rand_with_check_cust(355 &#45; (5 * (global_var(259) &gt; 0)), 366 + (4 * (global_var(230) &gt; 0)), &quot;&quot;) -->
<g id="node43" class="node">
<title>floater_rand_with_check_cust(355 &#45; (5 * (global_var(259) &gt; 0)), 366 + (4 * (global_var(230) &gt; 0)), &quot;&quot;)</title>
<ellipse fill="none" stroke="black" cx="5814.03" cy="-18" rx="511.55" ry="18"/>
<text text-anchor="middle" x="5814.03" y="-13.32" font-family="Times,serif" font-size="14.00">floater_rand_with_check_cust(355 &#45; (5 * (global_var(259) &gt; 0)), 366 + (4 * (global_var(230) &gt; 0)), &quot;&quot;)</text>
</g>
<!-- Node011&#45;&gt;floater_rand_with_check_cust(355 &#45; (5 * (global_var(259) &gt; 0)), 366 + (4 * (global_var(230) &gt; 0)), &quot;&quot;) -->
<g id="edge31" class="edge">
<title>Node011&#45;&gt;floater_rand_with_check_cust(355 &#45; (5 * (global_var(259) &gt; 0)), 366 + (4 * (global_var(230) &gt; 0)), &quot;&quot;)</title>
<path fill="none" stroke="#555555" stroke-dasharray="1,5" d="M5373.99,-189.72C5444.29,-162.45 5657.95,-79.55 5759.42,-40.19"/>
<polygon fill="#555555" stroke="#555555" points="5760.41,-43.17 5768.46,-36.29 5757.87,-36.64 5760.41,-43.17"/>
</g>
<!-- destroy_p_proc -->
<g id="node24" class="node">
<title>destroy_p_proc</title>
<ellipse fill="#ffffff" stroke="#000000" cx="4662.03" cy="-405.52" rx="27" ry="18"/>
</g>
<!-- look_at_p_proc -->
<g id="node25" class="node">
<title>look_at_p_proc</title>
<ellipse fill="#ffffff" stroke="#000000" cx="4834.03" cy="-405.52" rx="126.97" ry="18"/>
<text text-anchor="middle" x="4834.03" y="-400.84" font-family="Times,serif" font-size="14.00">You see a porn actress.</text>
</g>
<!-- description_p_proc -->
<g id="node26" class="node">
<title>description_p_proc</title>
<ellipse fill="#ffffff" stroke="#000000" cx="5115.03" cy="-405.52" rx="136.47" ry="42.25"/>
<text text-anchor="middle" x="5115.03" y="-418.09" font-family="Times,serif" font-size="14.00">You see an attractive</text>
<text text-anchor="middle" x="5115.03" y="-400.84" font-family="Times,serif" font-size="14.00">woman. She seems to be</text>
<text text-anchor="middle" x="5115.03" y="-383.59" font-family="Times,serif" font-size="14.00">talking to herself.</text>
</g>
<!-- use_skill_on_p_proc -->
<g id="node27" class="node">
<title>use_skill_on_p_proc</title>
<ellipse fill="#ffffff" stroke="#000000" cx="5296.03" cy="-405.52" rx="27" ry="18"/>
</g>
<!-- damage_p_proc -->
<g id="node28" class="node">
<title>damage_p_proc</title>
<ellipse fill="#ffffff" stroke="#000000" cx="5368.03" cy="-405.52" rx="27" ry="18"/>
</g>
<!-- map_enter_p_proc -->
<g id="node29" class="node">
<title>map_enter_p_proc</title>
<ellipse fill="#ffffff" stroke="#000000" cx="5440.03" cy="-405.52" rx="27" ry="18"/>
</g>
<!-- timed_event_p_proc -->
<g id="node30" class="node">
<title>timed_event_p_proc</title>
<ellipse fill="#ffffff" stroke="#000000" cx="3483.03" cy="-405.52" rx="27" ry="18"/>
</g>
<!-- timed_event_p_proc&#45;&gt;Node002 -->
<g id="edge20" class="edge">
<title>timed_event_p_proc&#45;&gt;Node002</title>
<path fill="none" stroke="#555555" stroke-dasharray="1,5" d="M3505.89,-395.36C3587.37,-362.72 3863.8,-251.99 3959.28,-213.75"/>
<polygon fill="#555555" stroke="#555555" points="3960.25,-216.73 3968.23,-209.76 3957.65,-210.23 3960.25,-216.73"/>
</g>
<!-- timed_event_p_proc&#45;&gt;Node001 -->
<g id="edge21" class="edge">
<title>timed_event_p_proc&#45;&gt;Node001</title>
<path fill="none" stroke="#555555" stroke-dasharray="1,5" d="M3510.25,-404.29C3591.37,-402.86 3837.66,-393.01 4028.03,-327.27 4103.16,-301.32 4181.52,-248.76 4220.99,-220.19"/>
<polygon fill="#555555" stroke="#555555" points="4222.71,-222.54 4228.72,-213.81 4218.58,-216.89 4222.71,-222.54"/>
</g>
<!-- Node003 -->
<g id="node31" class="node">
<title>Node003</title>
<ellipse fill="#ffffff" stroke="#000000" cx="3483.03" cy="-199.63" rx="27" ry="18"/>
</g>
<!-- timed_event_p_proc&#45;&gt;Node003 -->
<g id="edge22" class="edge">
<title>timed_event_p_proc&#45;&gt;Node003</title>
<path fill="none" stroke="#555555" stroke-dasharray="1,5" d="M3483.03,-387.13C3483.03,-351.85 3483.03,-271.55 3483.03,-228.74"/>
<polygon fill="#555555" stroke="#555555" points="3486.53,-228.97 3483.03,-218.97 3479.53,-228.97 3486.53,-228.97"/>
</g>
<!-- Node004 -->
<g id="node32" class="node">
<title>Node004</title>
<ellipse fill="#ffffff" stroke="#000000" cx="3555.03" cy="-199.63" rx="27" ry="18"/>
</g>
<!-- timed_event_p_proc&#45;&gt;Node004 -->
<g id="edge23" class="edge">
<title>timed_event_p_proc&#45;&gt;Node004</title>
<path fill="none" stroke="#555555" stroke-dasharray="1,5" d="M3491.68,-387.97C3499.52,-372.54 3511.02,-348.76 3519.03,-327.27 3531.47,-293.87 3542.11,-254.18 3548.53,-228.25"/>
<polygon fill="#555555" stroke="#555555" points="3552.13,-229.25 3551.09,-218.7 3545.33,-227.59 3552.13,-229.25"/>
</g>
<!-- Node005 -->
<g id="node33" class="node">
<title>Node005</title>
<ellipse fill="#ffffff" stroke="#000000" cx="800.03" cy="-199.63" rx="27" ry="18"/>
</g>
<!-- timed_event_p_proc&#45;&gt;Node005 -->
<g id="edge24" class="edge">
<title>timed_event_p_proc&#45;&gt;Node005</title>
<path fill="none" stroke="#555555" stroke-dasharray="1,5" d="M3456.58,-400.98C3398.02,-393.26 3252.94,-374.66 3131.03,-363.27 3071.34,-357.69 1133.19,-223.66 837.66,-203.23"/>
<polygon fill="#555555" stroke="#555555" points="838.3,-199.7 828.08,-202.5 837.81,-206.68 838.3,-199.7"/>
</g>
<!-- Node006 -->
<g id="node34" class="node">
<title>Node006</title>
<ellipse fill="#ffffff" stroke="#000000" cx="2662.03" cy="-199.63" rx="27" ry="18"/>
</g>
<!-- timed_event_p_proc&#45;&gt;Node006 -->
<g id="edge25" class="edge">
<title>timed_event_p_proc&#45;&gt;Node006</title>
<path fill="none" stroke="#555555" stroke-dasharray="1,5" d="M3458.01,-398.3C3339.74,-368.93 2836.71,-244.01 2697.73,-209.5"/>
<polygon fill="#555555" stroke="#555555" points="2698.81,-205.91 2688.26,-206.9 2697.12,-212.7 2698.81,-205.91"/>
</g>
<!-- Node007 -->
<g id="node35" class="node">
<title>Node007</title>
<ellipse fill="#ffffff" stroke="#000000" cx="3411.03" cy="-199.63" rx="27" ry="18"/>
</g>
<!-- timed_event_p_proc&#45;&gt;Node007 -->
<g id="edge26" class="edge">
<title>timed_event_p_proc&#45;&gt;Node007</title>
<path fill="none" stroke="#555555" stroke-dasharray="1,5" d="M3474.38,-387.97C3466.54,-372.54 3455.03,-348.76 3447.03,-327.27 3434.59,-293.87 3423.95,-254.18 3417.53,-228.25"/>
<polygon fill="#555555" stroke="#555555" points="3420.73,-227.59 3414.97,-218.7 3413.93,-229.25 3420.73,-227.59"/>
</g>
<!-- floater_rand_with_check_cust(233 &#45; (3 * (get_critter_stat(dude_obj, 34) == 0)), 238 + (6 * (get_critter_stat(dude_obj, 34) == 1)), message_str(353, 500 + global_var(232))) -->
<g id="node39" class="node">
<title>floater_rand_with_check_cust(233 &#45; (3 * (get_critter_stat(dude_obj, 34) == 0)), 238 + (6 * (get_critter_stat(dude_obj, 34) == 1)), message_str(353, 500 + global_var(232)))</title>
<ellipse fill="none" stroke="black" cx="3555.03" cy="-18" rx="866.68" ry="18"/>
<text text-anchor="middle" x="3555.03" y="-13.32" font-family="Times,serif" font-size="14.00">floater_rand_with_check_cust(233 &#45; (3 * (get_critter_stat(dude_obj, 34) == 0)), 238 + (6 * (get_critter_stat(dude_obj, 34) == 1)), message_str(353, 500 + global_var(232)))</text>
</g>
<!-- Node004&#45;&gt;floater_rand_with_check_cust(233 &#45; (3 * (get_critter_stat(dude_obj, 34) == 0)), 238 + (6 * (get_critter_stat(dude_obj, 34) == 1)), message_str(353, 500 + global_var(232))) -->
<g id="edge27" class="edge">
<title>Node004&#45;&gt;floater_rand_with_check_cust(233 &#45; (3 * (get_critter_stat(dude_obj, 34) == 0)), 238 + (6 * (get_critter_stat(dude_obj, 34) == 1)), message_str(353, 500 + global_var(232)))</title>
<path fill="none" stroke="#555555" stroke-dasharray="1,5" d="M3555.03,-181.41C3555.03,-150.37 3555.03,-84.79 3555.03,-47.15"/>
<polygon fill="#555555" stroke="#555555" points="3558.53,-47.44 3555.03,-37.44 3551.53,-47.44 3558.53,-47.44"/>
</g>
<!-- floater_rand_with_check_cust(256 &#45; (6 * (get_critter_stat(dude_obj, 34) == 0)), 260, message_str(353, 400 + global_var(231))) -->
<g id="node40" class="node">
<title>floater_rand_with_check_cust(256 &#45; (6 * (get_critter_stat(dude_obj, 34) == 0)), 260, message_str(353, 400 + global_var(231)))</title>
<ellipse fill="none" stroke="black" cx="642.03" cy="-18" rx="642.03" ry="18"/>
<text text-anchor="middle" x="642.03" y="-13.32" font-family="Times,serif" font-size="14.00">floater_rand_with_check_cust(256 &#45; (6 * (get_critter_stat(dude_obj, 34) == 0)), 260, message_str(353, 400 + global_var(231)))</text>
</g>
<!-- Node005&#45;&gt;floater_rand_with_check_cust(256 &#45; (6 * (get_critter_stat(dude_obj, 34) == 0)), 260, message_str(353, 400 + global_var(231))) -->
<g id="edge28" class="edge">
<title>Node005&#45;&gt;floater_rand_with_check_cust(256 &#45; (6 * (get_critter_stat(dude_obj, 34) == 0)), 260, message_str(353, 400 + global_var(231)))</title>
<path fill="none" stroke="#555555" stroke-dasharray="1,5" d="M799.64,-181.29C798.14,-154.66 791.58,-103.47 764.03,-72 752.14,-58.42 736.14,-48.19 719.65,-40.53"/>
<polygon fill="#555555" stroke="#555555" points="721.47,-37.08 710.9,-36.31 718.69,-43.5 721.47,-37.08"/>
</g>
<!-- floater_rand_with_check_cust(271 &#45; (6 * (get_critter_stat(dude_obj, 34) == 0)), 275, message_str(353, 300 + (global_var(230) % 100))) -->
<g id="node41" class="node">
<title>floater_rand_with_check_cust(271 &#45; (6 * (get_critter_stat(dude_obj, 34) == 0)), 275, message_str(353, 300 + (global_var(230) % 100)))</title>
<ellipse fill="none" stroke="black" cx="1986.03" cy="-18" rx="684.12" ry="18"/>
<text text-anchor="middle" x="1986.03" y="-13.32" font-family="Times,serif" font-size="14.00">floater_rand_with_check_cust(271 &#45; (6 * (get_critter_stat(dude_obj, 34) == 0)), 275, message_str(353, 300 + (global_var(230) % 100)))</text>
</g>
<!-- Node006&#45;&gt;floater_rand_with_check_cust(271 &#45; (6 * (get_critter_stat(dude_obj, 34) == 0)), 275, message_str(353, 300 + (global_var(230) % 100))) -->
<g id="edge29" class="edge">
<title>Node006&#45;&gt;floater_rand_with_check_cust(271 &#45; (6 * (get_critter_stat(dude_obj, 34) == 0)), 275, message_str(353, 300 + (global_var(230) % 100)))</title>
<path fill="none" stroke="#555555" stroke-dasharray="1,5" d="M2637.17,-192.03C2543.95,-167.25 2212.8,-79.26 2061.92,-39.17"/>
<polygon fill="#555555" stroke="#555555" points="2062.94,-35.55 2052.38,-36.36 2061.14,-42.32 2062.94,-35.55"/>
</g>
<!-- map_update_p_proc -->
<g id="node36" class="node">
<title>map_update_p_proc</title>
<ellipse fill="#ffffff" stroke="#000000" cx="5512.03" cy="-405.52" rx="27" ry="18"/>
</g>
<!-- Node998 -->
<g id="node37" class="node">
<title>Node998</title>
<ellipse fill="#ffffff" stroke="#000000" cx="5584.03" cy="-405.52" rx="27" ry="18"/>
</g>
<!-- Node999 -->
<g id="node38" class="node">
<title>Node999</title>
<ellipse fill="#ffffff" stroke="#000000" cx="5656.03" cy="-405.52" rx="27" ry="18"/>
</g>
<!-- floater_rand_with_check_cust -->
<g id="node44" class="node">
<title>floater_rand_with_check_cust</title>
<ellipse fill="#ffffff" stroke="#000000" cx="5728.03" cy="-405.52" rx="27" ry="18"/>
</g>
</g>
</svg>
