<?xml version="1.0" encoding="UTF-8" standalone="no"?>
<!DOCTYPE svg PUBLIC "-//W3C//DTD SVG 1.1//EN"
 "http://www.w3.org/Graphics/SVG/1.1/DTD/svg11.dtd">
<!-- Generated by graphviz version 8.0.5 (0)
 -->
<!-- Title: ncBoxer Pages: 1 -->
<svg width="1654pt" height="262pt"
 viewBox="0.00 0.00 1654.00 262.08" xmlns="http://www.w3.org/2000/svg" xmlns:xlink="http://www.w3.org/1999/xlink">
<g id="graph0" class="graph" transform="scale(1 1) rotate(0) translate(4 258.08)">
<title>ncBoxer</title>
<polygon fill="white" stroke="none" points="-4,4 -4,-258.08 1650,-258.08 1650,4 -4,4"/>
<!-- checkPartyMembersNearDoor -->
<g id="node1" class="node">
<title>checkPartyMembersNearDoor</title>
<ellipse fill="#ffffff" stroke="#000000" cx="27" cy="-236.08" rx="27" ry="18"/>
</g>
<!-- ChooseFromList -->
<g id="node2" class="node">
<title>ChooseFromList</title>
<ellipse fill="#ffffff" stroke="#000000" cx="148" cy="-91.04" rx="144.43" ry="91.04"/>
<text text-anchor="middle" x="148" y="-138.11" font-family="Times,serif" font-size="14.00">You see a heavily&#45;muscled</text>
<text text-anchor="middle" x="148" y="-120.86" font-family="Times,serif" font-size="14.00">black man. He looks like</text>
<text text-anchor="middle" x="148" y="-103.61" font-family="Times,serif" font-size="14.00">he has just finished</text>
<text text-anchor="middle" x="148" y="-86.36" font-family="Times,serif" font-size="14.00">working out.</text>
<text text-anchor="middle" x="148" y="-69.11" font-family="Times,serif" font-size="14.00">&#45;&#45;&#45;</text>
<text text-anchor="middle" x="148" y="-51.86" font-family="Times,serif" font-size="14.00">You see a huge black man.</text>
<text text-anchor="middle" x="148" y="-34.61" font-family="Times,serif" font-size="14.00">And I do mean HUGE.</text>
</g>
<!-- CLICK_PREV -->
<g id="node3" class="node">
<title>CLICK_PREV</title>
<ellipse fill="#ffffff" stroke="#000000" cx="99" cy="-236.08" rx="27" ry="18"/>
</g>
<!-- CLICK_PREV&#45;&gt;ChooseFromList -->
<g id="edge1" class="edge">
<title>CLICK_PREV&#45;&gt;ChooseFromList</title>
<path fill="none" stroke="#555555" stroke-dasharray="1,5" d="M104.81,-218.11C107.39,-210.59 110.64,-201.1 114.2,-190.71"/>
<polygon fill="#555555" stroke="#555555" points="117.76,-192.1 117.69,-181.51 111.14,-189.83 117.76,-192.1"/>
</g>
<!-- CLICK_0 -->
<g id="node4" class="node">
<title>CLICK_0</title>
<ellipse fill="#ffffff" stroke="#000000" cx="265" cy="-236.08" rx="27" ry="18"/>
</g>
<!-- stored_node -->
<g id="node5" class="node">
<title>stored_node</title>
<ellipse fill="none" stroke="black" cx="409" cy="-91.04" rx="72.25" ry="18"/>
<text text-anchor="middle" x="409" y="-86.36" font-family="Times,serif" font-size="14.00">stored_node</text>
</g>
<!-- CLICK_0&#45;&gt;stored_node -->
<g id="edge2" class="edge">
<title>CLICK_0&#45;&gt;stored_node</title>
<path fill="none" stroke="#555555" stroke-dasharray="1,5" d="M279.6,-220.58C304.28,-196.06 354.49,-146.19 384.59,-116.28"/>
<polygon fill="#555555" stroke="#555555" points="386.52,-119.31 391.15,-109.78 381.59,-114.34 386.52,-119.31"/>
</g>
<!-- CLICK_1 -->
<g id="node6" class="node">
<title>CLICK_1</title>
<ellipse fill="#ffffff" stroke="#000000" cx="337" cy="-236.08" rx="27" ry="18"/>
</g>
<!-- CLICK_1&#45;&gt;stored_node -->
<g id="edge3" class="edge">
<title>CLICK_1&#45;&gt;stored_node</title>
<path fill="none" stroke="#555555" stroke-dasharray="1,5" d="M345.26,-218.67C357.55,-194.25 380.79,-148.08 395.55,-118.75"/>
<polygon fill="#555555" stroke="#555555" points="399.02,-120.65 400.39,-110.14 392.77,-117.5 399.02,-120.65"/>
</g>
<!-- CLICK_2 -->
<g id="node7" class="node">
<title>CLICK_2</title>
<ellipse fill="#ffffff" stroke="#000000" cx="409" cy="-236.08" rx="27" ry="18"/>
</g>
<!-- CLICK_2&#45;&gt;stored_node -->
<g id="edge4" class="edge">
<title>CLICK_2&#45;&gt;stored_node</title>
<path fill="none" stroke="#555555" stroke-dasharray="1,5" d="M409,-217.83C409,-193.55 409,-149.06 409,-120.02"/>
<polygon fill="#555555" stroke="#555555" points="412.5,-120.36 409,-110.36 405.5,-120.36 412.5,-120.36"/>
</g>
<!-- CLICK_3 -->
<g id="node8" class="node">
<title>CLICK_3</title>
<ellipse fill="#ffffff" stroke="#000000" cx="481" cy="-236.08" rx="27" ry="18"/>
</g>
<!-- CLICK_3&#45;&gt;stored_node -->
<g id="edge5" class="edge">
<title>CLICK_3&#45;&gt;stored_node</title>
<path fill="none" stroke="#555555" stroke-dasharray="1,5" d="M472.74,-218.67C460.45,-194.25 437.21,-148.08 422.45,-118.75"/>
<polygon fill="#555555" stroke="#555555" points="425.23,-117.5 417.61,-110.14 418.98,-120.65 425.23,-117.5"/>
</g>
<!-- CLICK_4 -->
<g id="node9" class="node">
<title>CLICK_4</title>
<ellipse fill="#ffffff" stroke="#000000" cx="553" cy="-236.08" rx="27" ry="18"/>
</g>
<!-- CLICK_4&#45;&gt;stored_node -->
<g id="edge6" class="edge">
<title>CLICK_4&#45;&gt;stored_node</title>
<path fill="none" stroke="#555555" stroke-dasharray="1,5" d="M538.4,-220.58C513.72,-196.06 463.51,-146.19 433.41,-116.28"/>
<polygon fill="#555555" stroke="#555555" points="436.41,-114.34 426.85,-109.78 431.48,-119.31 436.41,-114.34"/>
</g>
<!-- CLICK_MORE -->
<g id="node10" class="node">
<title>CLICK_MORE</title>
<ellipse fill="#ffffff" stroke="#000000" cx="171" cy="-236.08" rx="27" ry="18"/>
</g>
<!-- CLICK_MORE&#45;&gt;ChooseFromList -->
<g id="edge7" class="edge">
<title>CLICK_MORE&#45;&gt;ChooseFromList</title>
<path fill="none" stroke="#555555" stroke-dasharray="1,5" d="M168.23,-217.83C167.09,-210.79 165.69,-202.05 164.15,-192.47"/>
<polygon fill="#555555" stroke="#555555" points="167.48,-192.12 162.43,-182.8 160.57,-193.23 167.48,-192.12"/>
</g>
<!-- start -->
<g id="node11" class="node">
<title>start</title>
<ellipse fill="#ffffff" stroke="#000000" cx="625" cy="-236.08" rx="27" ry="18"/>
</g>
<!-- critter_p_proc -->
<g id="node12" class="node">
<title>critter_p_proc</title>
<ellipse fill="#ffffff" stroke="#000000" cx="697" cy="-236.08" rx="27" ry="18"/>
</g>
<!-- pickup_p_proc -->
<g id="node13" class="node">
<title>pickup_p_proc</title>
<ellipse fill="#ffffff" stroke="#000000" cx="769" cy="-236.08" rx="27" ry="18"/>
</g>
<!-- talk_p_proc -->
<g id="node14" class="node">
<title>talk_p_proc</title>
<ellipse fill="#ffffff" stroke="#000000" cx="841" cy="-236.08" rx="27" ry="18"/>
</g>
<!-- Node001 -->
<g id="node15" class="node">
<title>Node001</title>
<ellipse fill="#ffffff" stroke="#000000" cx="841" cy="-91.04" rx="27" ry="18"/>
</g>
<!-- talk_p_proc&#45;&gt;Node001 -->
<g id="edge8" class="edge">
<title>talk_p_proc&#45;&gt;Node001</title>
<path fill="none" stroke="#555555" stroke-dasharray="1,5" d="M841,-217.83C841,-193.55 841,-149.06 841,-120.02"/>
<polygon fill="#555555" stroke="#555555" points="844.5,-120.36 841,-110.36 837.5,-120.36 844.5,-120.36"/>
</g>
<!-- destroy_p_proc -->
<g id="node16" class="node">
<title>destroy_p_proc</title>
<ellipse fill="#ffffff" stroke="#000000" cx="913" cy="-236.08" rx="27" ry="18"/>
</g>
<!-- look_at_p_proc -->
<g id="node17" class="node">
<title>look_at_p_proc</title>
<ellipse fill="#ffffff" stroke="#000000" cx="1050" cy="-236.08" rx="91.72" ry="18"/>
<text text-anchor="middle" x="1050" y="-231.4" font-family="Times,serif" font-size="14.00">You see a boxer.</text>
</g>
<!-- description_p_proc -->
<g id="node18" class="node">
<title>description_p_proc</title>
<ellipse fill="#ffffff" stroke="#000000" cx="1187" cy="-236.08" rx="27" ry="18"/>
</g>
<!-- use_skill_on_p_proc -->
<g id="node19" class="node">
<title>use_skill_on_p_proc</title>
<ellipse fill="#ffffff" stroke="#000000" cx="1259" cy="-236.08" rx="27" ry="18"/>
</g>
<!-- damage_p_proc -->
<g id="node20" class="node">
<title>damage_p_proc</title>
<ellipse fill="#ffffff" stroke="#000000" cx="1331" cy="-236.08" rx="27" ry="18"/>
</g>
<!-- map_enter_p_proc -->
<g id="node21" class="node">
<title>map_enter_p_proc</title>
<ellipse fill="#ffffff" stroke="#000000" cx="1403" cy="-236.08" rx="27" ry="18"/>
</g>
<!-- timed_event_p_proc -->
<g id="node22" class="node">
<title>timed_event_p_proc</title>
<ellipse fill="#ffffff" stroke="#000000" cx="1475" cy="-236.08" rx="27" ry="18"/>
</g>
<!-- Node998 -->
<g id="node23" class="node">
<title>Node998</title>
<ellipse fill="#ffffff" stroke="#000000" cx="1547" cy="-236.08" rx="27" ry="18"/>
</g>
<!-- Node999 -->
<g id="node24" class="node">
<title>Node999</title>
<ellipse fill="#ffffff" stroke="#000000" cx="1619" cy="-236.08" rx="27" ry="18"/>
</g>
</g>
</svg>
