<?xml version="1.0" encoding="UTF-8" standalone="no"?>
<!DOCTYPE svg PUBLIC "-//W3C//DTD SVG 1.1//EN"
 "http://www.w3.org/Graphics/SVG/1.1/DTD/svg11.dtd">
<!-- Generated by graphviz version 8.0.5 (0)
 -->
<!-- Title: ncJunkie Pages: 1 -->
<svg width="6669pt" height="383pt"
 viewBox="0.00 0.00 6669.39 382.58" xmlns="http://www.w3.org/2000/svg" xmlns:xlink="http://www.w3.org/1999/xlink">
<g id="graph0" class="graph" transform="scale(1 1) rotate(0) translate(4 378.58)">
<title>ncJunkie</title>
<polygon fill="white" stroke="none" points="-4,4 -4,-378.58 6665.39,-378.58 6665.39,4 -4,4"/>
<!-- checkPartyMembersNearDoor -->
<g id="node1" class="node">
<title>checkPartyMembersNearDoor</title>
<ellipse fill="#ffffff" stroke="#000000" cx="27" cy="-320.13" rx="27" ry="18"/>
</g>
<!-- ChooseFromList -->
<g id="node2" class="node">
<title>ChooseFromList</title>
<ellipse fill="#ffffff" stroke="#000000" cx="149" cy="-150.84" rx="140.18" ry="78.84"/>
<text text-anchor="middle" x="149" y="-189.29" font-family="Times,serif" font-size="14.00">You see a wasted&#45;looking</text>
<text text-anchor="middle" x="149" y="-172.04" font-family="Times,serif" font-size="14.00">junkie. He is moving very</text>
<text text-anchor="middle" x="149" y="-154.79" font-family="Times,serif" font-size="14.00">slowly.</text>
<text text-anchor="middle" x="149" y="-137.54" font-family="Times,serif" font-size="14.00">&#45;&#45;&#45;</text>
<text text-anchor="middle" x="149" y="-120.29" font-family="Times,serif" font-size="14.00">You see a wasted&#45;looking</text>
<text text-anchor="middle" x="149" y="-103.04" font-family="Times,serif" font-size="14.00">junkie. He looks ill.</text>
</g>
<!-- CLICK_PREV -->
<g id="node3" class="node">
<title>CLICK_PREV</title>
<ellipse fill="#ffffff" stroke="#000000" cx="99" cy="-320.13" rx="27" ry="18"/>
</g>
<!-- CLICK_PREV&#45;&gt;ChooseFromList -->
<g id="edge1" class="edge">
<title>CLICK_PREV&#45;&gt;ChooseFromList</title>
<path fill="none" stroke="#555555" stroke-dasharray="1,5" d="M104.07,-302.17C108.63,-286.91 115.71,-263.24 122.9,-239.16"/>
<polygon fill="#555555" stroke="#555555" points="126.48,-240.42 125.99,-229.84 119.77,-238.42 126.48,-240.42"/>
</g>
<!-- CLICK_0 -->
<g id="node4" class="node">
<title>CLICK_0</title>
<ellipse fill="#ffffff" stroke="#000000" cx="264" cy="-320.13" rx="27" ry="18"/>
</g>
<!-- stored_node -->
<g id="node5" class="node">
<title>stored_node</title>
<ellipse fill="none" stroke="black" cx="408" cy="-150.84" rx="72.25" ry="18"/>
<text text-anchor="middle" x="408" y="-146.17" font-family="Times,serif" font-size="14.00">stored_node</text>
</g>
<!-- CLICK_0&#45;&gt;stored_node -->
<g id="edge2" class="edge">
<title>CLICK_0&#45;&gt;stored_node</title>
<path fill="none" stroke="#555555" stroke-dasharray="1,5" d="M273.74,-303.21C280.63,-292.32 290.34,-277.73 300,-265.68 326.11,-233.13 359.64,-198.77 382.37,-176.43"/>
<polygon fill="#555555" stroke="#555555" points="384.51,-179.25 389.22,-169.76 379.62,-174.24 384.51,-179.25"/>
</g>
<!-- CLICK_1 -->
<g id="node6" class="node">
<title>CLICK_1</title>
<ellipse fill="#ffffff" stroke="#000000" cx="336" cy="-320.13" rx="27" ry="18"/>
</g>
<!-- CLICK_1&#45;&gt;stored_node -->
<g id="edge3" class="edge">
<title>CLICK_1&#45;&gt;stored_node</title>
<path fill="none" stroke="#555555" stroke-dasharray="1,5" d="M343.17,-302.48C355.61,-273.57 381.31,-213.85 396.35,-178.91"/>
<polygon fill="#555555" stroke="#555555" points="399.91,-180.49 400.65,-169.93 393.48,-177.73 399.91,-180.49"/>
</g>
<!-- CLICK_2 -->
<g id="node7" class="node">
<title>CLICK_2</title>
<ellipse fill="#ffffff" stroke="#000000" cx="408" cy="-320.13" rx="27" ry="18"/>
</g>
<!-- CLICK_2&#45;&gt;stored_node -->
<g id="edge4" class="edge">
<title>CLICK_2&#45;&gt;stored_node</title>
<path fill="none" stroke="#555555" stroke-dasharray="1,5" d="M408,-301.86C408,-273.06 408,-214.96 408,-180.12"/>
<polygon fill="#555555" stroke="#555555" points="411.5,-180.27 408,-170.27 404.5,-180.27 411.5,-180.27"/>
</g>
<!-- CLICK_3 -->
<g id="node8" class="node">
<title>CLICK_3</title>
<ellipse fill="#ffffff" stroke="#000000" cx="480" cy="-320.13" rx="27" ry="18"/>
</g>
<!-- CLICK_3&#45;&gt;stored_node -->
<g id="edge5" class="edge">
<title>CLICK_3&#45;&gt;stored_node</title>
<path fill="none" stroke="#555555" stroke-dasharray="1,5" d="M472.83,-302.48C460.39,-273.57 434.69,-213.85 419.65,-178.91"/>
<polygon fill="#555555" stroke="#555555" points="422.52,-177.73 415.35,-169.93 416.09,-180.49 422.52,-177.73"/>
</g>
<!-- CLICK_4 -->
<g id="node9" class="node">
<title>CLICK_4</title>
<ellipse fill="#ffffff" stroke="#000000" cx="552" cy="-320.13" rx="27" ry="18"/>
</g>
<!-- CLICK_4&#45;&gt;stored_node -->
<g id="edge6" class="edge">
<title>CLICK_4&#45;&gt;stored_node</title>
<path fill="none" stroke="#555555" stroke-dasharray="1,5" d="M542.26,-303.21C535.37,-292.32 525.66,-277.73 516,-265.68 489.89,-233.13 456.36,-198.77 433.63,-176.43"/>
<polygon fill="#555555" stroke="#555555" points="436.38,-174.24 426.78,-169.76 431.49,-179.25 436.38,-174.24"/>
</g>
<!-- CLICK_MORE -->
<g id="node10" class="node">
<title>CLICK_MORE</title>
<ellipse fill="#ffffff" stroke="#000000" cx="171" cy="-320.13" rx="27" ry="18"/>
</g>
<!-- CLICK_MORE&#45;&gt;ChooseFromList -->
<g id="edge7" class="edge">
<title>CLICK_MORE&#45;&gt;ChooseFromList</title>
<path fill="none" stroke="#555555" stroke-dasharray="1,5" d="M168.73,-301.86C166.76,-286.87 163.74,-263.96 160.66,-240.51"/>
<polygon fill="#555555" stroke="#555555" points="164.02,-240.19 159.24,-230.73 157.08,-241.1 164.02,-240.19"/>
</g>
<!-- start -->
<g id="node11" class="node">
<title>start</title>
<ellipse fill="#ffffff" stroke="#000000" cx="819" cy="-320.13" rx="27" ry="18"/>
</g>
<!-- critter_p_proc -->
<g id="node12" class="node">
<title>critter_p_proc</title>
<ellipse fill="#ffffff" stroke="#000000" cx="1668" cy="-320.13" rx="27" ry="18"/>
</g>
<!-- pickup_p_proc -->
<g id="node13" class="node">
<title>pickup_p_proc</title>
<ellipse fill="#ffffff" stroke="#000000" cx="2128" cy="-320.13" rx="27" ry="18"/>
</g>
<!-- talk_p_proc -->
<g id="node14" class="node">
<title>talk_p_proc</title>
<ellipse fill="#ffffff" stroke="#000000" cx="2394" cy="-320.13" rx="27" ry="18"/>
</g>
<!-- Node010 -->
<g id="node15" class="node">
<title>Node010</title>
<ellipse fill="#ffffff" stroke="#000000" cx="636" cy="-150.84" rx="137.53" ry="30.05"/>
<text text-anchor="middle" x="636" y="-154.79" font-family="Times,serif" font-size="14.00">You see a wasted&#45;looking</text>
<text text-anchor="middle" x="636" y="-137.54" font-family="Times,serif" font-size="14.00">junkie.</text>
</g>
<!-- talk_p_proc&#45;&gt;Node010 -->
<g id="edge8" class="edge">
<title>talk_p_proc&#45;&gt;Node010</title>
<path fill="none" stroke="#555555" stroke-dasharray="1,5" d="M2369.79,-311.79C2328.18,-299.57 2240.24,-275.43 2164,-265.68 1859.27,-226.72 1079.05,-308.05 782,-229.68 747.84,-220.67 712.8,-202.35 685.61,-185.75"/>
<polygon fill="#555555" stroke="#555555" points="687.68,-182.28 677.34,-179.96 683.97,-188.22 687.68,-182.28"/>
</g>
<!-- Node016 -->
<g id="node16" class="node">
<title>Node016</title>
<ellipse fill="#ffffff" stroke="#000000" cx="929" cy="-150.84" rx="137.53" ry="30.05"/>
<text text-anchor="middle" x="929" y="-154.79" font-family="Times,serif" font-size="14.00">You see a wasted&#45;looking</text>
<text text-anchor="middle" x="929" y="-137.54" font-family="Times,serif" font-size="14.00">junkie.</text>
</g>
<!-- talk_p_proc&#45;&gt;Node016 -->
<g id="edge9" class="edge">
<title>talk_p_proc&#45;&gt;Node016</title>
<path fill="none" stroke="#555555" stroke-dasharray="1,5" d="M2369.78,-311.85C2328.17,-299.72 2240.21,-275.7 2164,-265.68 1923.93,-234.13 1308.9,-292.27 1075,-229.68 1040.87,-220.55 1005.83,-202.23 978.64,-185.65"/>
<polygon fill="#555555" stroke="#555555" points="980.7,-182.19 970.36,-179.88 977,-188.13 980.7,-182.19"/>
</g>
<!-- Node017 -->
<g id="node17" class="node">
<title>Node017</title>
<ellipse fill="#ffffff" stroke="#000000" cx="1222" cy="-150.84" rx="137.53" ry="30.05"/>
<text text-anchor="middle" x="1222" y="-154.79" font-family="Times,serif" font-size="14.00">You see a wasted&#45;looking</text>
<text text-anchor="middle" x="1222" y="-137.54" font-family="Times,serif" font-size="14.00">junkie.</text>
</g>
<!-- talk_p_proc&#45;&gt;Node017 -->
<g id="edge10" class="edge">
<title>talk_p_proc&#45;&gt;Node017</title>
<path fill="none" stroke="#555555" stroke-dasharray="1,5" d="M2369.43,-311.85C2327.66,-299.84 2239.94,-276.14 2164,-265.68 1988.58,-241.54 1538.77,-276.49 1368,-229.68 1334.05,-220.38 1299.15,-202.14 1271.98,-185.66"/>
<polygon fill="#555555" stroke="#555555" points="1274.06,-182.21 1263.71,-179.92 1270.37,-188.16 1274.06,-182.21"/>
</g>
<!-- Node018 -->
<g id="node18" class="node">
<title>Node018</title>
<ellipse fill="#ffffff" stroke="#000000" cx="1515" cy="-150.84" rx="137.53" ry="30.05"/>
<text text-anchor="middle" x="1515" y="-154.79" font-family="Times,serif" font-size="14.00">You see a wasted&#45;looking</text>
<text text-anchor="middle" x="1515" y="-137.54" font-family="Times,serif" font-size="14.00">junkie.</text>
</g>
<!-- talk_p_proc&#45;&gt;Node018 -->
<g id="edge11" class="edge">
<title>talk_p_proc&#45;&gt;Node018</title>
<path fill="none" stroke="#555555" stroke-dasharray="1,5" d="M2369.4,-312.07C2327.59,-300.37 2239.8,-277.13 2164,-265.68 1942.39,-232.22 1876.36,-291.76 1661,-229.68 1627.3,-219.97 1592.53,-201.81 1565.38,-185.48"/>
<polygon fill="#555555" stroke="#555555" points="1567.47,-182.04 1557.11,-179.79 1563.81,-188 1567.47,-182.04"/>
</g>
<!-- Node019 -->
<g id="node19" class="node">
<title>Node019</title>
<ellipse fill="#ffffff" stroke="#000000" cx="1808" cy="-150.84" rx="137.53" ry="30.05"/>
<text text-anchor="middle" x="1808" y="-154.79" font-family="Times,serif" font-size="14.00">You see a wasted&#45;looking</text>
<text text-anchor="middle" x="1808" y="-137.54" font-family="Times,serif" font-size="14.00">junkie.</text>
</g>
<!-- talk_p_proc&#45;&gt;Node019 -->
<g id="edge12" class="edge">
<title>talk_p_proc&#45;&gt;Node019</title>
<path fill="none" stroke="#555555" stroke-dasharray="1,5" d="M2368.92,-312.8C2326.76,-302.26 2238.95,-280.8 2164,-265.68 2071.17,-246.96 2043.59,-260.35 1954,-229.68 1921.55,-218.58 1887.6,-200.89 1860.62,-185.18"/>
<polygon fill="#555555" stroke="#555555" points="1862.77,-181.8 1852.38,-179.73 1859.2,-187.83 1862.77,-181.8"/>
</g>
<!-- Node020 -->
<g id="node20" class="node">
<title>Node020</title>
<ellipse fill="#ffffff" stroke="#000000" cx="2101" cy="-150.84" rx="137.53" ry="30.05"/>
<text text-anchor="middle" x="2101" y="-154.79" font-family="Times,serif" font-size="14.00">You see a wasted&#45;looking</text>
<text text-anchor="middle" x="2101" y="-137.54" font-family="Times,serif" font-size="14.00">junkie.</text>
</g>
<!-- talk_p_proc&#45;&gt;Node020 -->
<g id="edge13" class="edge">
<title>talk_p_proc&#45;&gt;Node020</title>
<path fill="none" stroke="#555555" stroke-dasharray="1,5" d="M2373.86,-307.63C2330.11,-282.66 2225.02,-222.65 2158.77,-184.83"/>
<polygon fill="#555555" stroke="#555555" points="2160.71,-181.33 2150.29,-179.41 2157.24,-187.41 2160.71,-181.33"/>
</g>
<!-- Node021 -->
<g id="node21" class="node">
<title>Node021</title>
<ellipse fill="#ffffff" stroke="#000000" cx="2394" cy="-150.84" rx="137.53" ry="30.05"/>
<text text-anchor="middle" x="2394" y="-154.79" font-family="Times,serif" font-size="14.00">You see a wasted&#45;looking</text>
<text text-anchor="middle" x="2394" y="-137.54" font-family="Times,serif" font-size="14.00">junkie.</text>
</g>
<!-- talk_p_proc&#45;&gt;Node021 -->
<g id="edge14" class="edge">
<title>talk_p_proc&#45;&gt;Node021</title>
<path fill="none" stroke="#555555" stroke-dasharray="1,5" d="M2394,-301.86C2394,-276.17 2394,-227.18 2394,-192.17"/>
<polygon fill="#555555" stroke="#555555" points="2397.5,-192.34 2394,-182.34 2390.5,-192.34 2397.5,-192.34"/>
</g>
<!-- Node009 -->
<g id="node22" class="node">
<title>Node009</title>
<ellipse fill="#ffffff" stroke="#000000" cx="2687" cy="-150.84" rx="137.53" ry="30.05"/>
<text text-anchor="middle" x="2687" y="-154.79" font-family="Times,serif" font-size="14.00">You see a wasted&#45;looking</text>
<text text-anchor="middle" x="2687" y="-137.54" font-family="Times,serif" font-size="14.00">junkie.</text>
</g>
<!-- talk_p_proc&#45;&gt;Node009 -->
<g id="edge15" class="edge">
<title>talk_p_proc&#45;&gt;Node009</title>
<path fill="none" stroke="#555555" stroke-dasharray="1,5" d="M2414.14,-307.63C2457.89,-282.66 2562.98,-222.65 2629.23,-184.83"/>
<polygon fill="#555555" stroke="#555555" points="2630.76,-187.41 2637.71,-179.41 2627.29,-181.33 2630.76,-187.41"/>
</g>
<!-- Node011 -->
<g id="node23" class="node">
<title>Node011</title>
<ellipse fill="#ffffff" stroke="#000000" cx="2980" cy="-150.84" rx="137.53" ry="30.05"/>
<text text-anchor="middle" x="2980" y="-154.79" font-family="Times,serif" font-size="14.00">You see a wasted&#45;looking</text>
<text text-anchor="middle" x="2980" y="-137.54" font-family="Times,serif" font-size="14.00">junkie.</text>
</g>
<!-- talk_p_proc&#45;&gt;Node011 -->
<g id="edge16" class="edge">
<title>talk_p_proc&#45;&gt;Node011</title>
<path fill="none" stroke="#555555" stroke-dasharray="1,5" d="M2420.76,-316.42C2490.53,-308.77 2683.08,-283.96 2834,-229.68 2866.04,-218.16 2899.71,-200.63 2926.63,-185.11"/>
<polygon fill="#555555" stroke="#555555" points="2927.98,-187.79 2934.85,-179.72 2924.45,-181.74 2927.98,-187.79"/>
</g>
<!-- Node012 -->
<g id="node24" class="node">
<title>Node012</title>
<ellipse fill="#ffffff" stroke="#000000" cx="3278" cy="-150.84" rx="142.84" ry="66.64"/>
<text text-anchor="middle" x="3278" y="-180.67" font-family="Times,serif" font-size="14.00">You see a wasted&#45;looking</text>
<text text-anchor="middle" x="3278" y="-163.42" font-family="Times,serif" font-size="14.00">junkie.</text>
<text text-anchor="middle" x="3278" y="-146.17" font-family="Times,serif" font-size="14.00">&#45;&#45;&#45;</text>
<text text-anchor="middle" x="3278" y="-128.92" font-family="Times,serif" font-size="14.00">I&#39;ll be your slave, if</text>
<text text-anchor="middle" x="3278" y="-111.67" font-family="Times,serif" font-size="14.00">you can give me some Jet.</text>
</g>
<!-- talk_p_proc&#45;&gt;Node012 -->
<g id="edge17" class="edge">
<title>talk_p_proc&#45;&gt;Node012</title>
<path fill="none" stroke="#555555" stroke-dasharray="1,5" d="M2420.61,-316.45C2544.08,-303.92 3058.08,-250.91 3127,-229.68 3144.84,-224.19 3163.08,-216.66 3180.45,-208.43"/>
<polygon fill="#555555" stroke="#555555" points="3181.52,-211.31 3188.99,-203.79 3178.47,-205.01 3181.52,-211.31"/>
</g>
<!-- Node013 -->
<g id="node25" class="node">
<title>Node013</title>
<ellipse fill="#ffffff" stroke="#000000" cx="3579" cy="-150.84" rx="140.18" ry="66.64"/>
<text text-anchor="middle" x="3579" y="-180.67" font-family="Times,serif" font-size="14.00">You see a wasted&#45;looking</text>
<text text-anchor="middle" x="3579" y="-163.42" font-family="Times,serif" font-size="14.00">junkie.</text>
<text text-anchor="middle" x="3579" y="-146.17" font-family="Times,serif" font-size="14.00">&#45;&#45;&#45;</text>
<text text-anchor="middle" x="3579" y="-128.92" font-family="Times,serif" font-size="14.00">You th&#39;fighter? You got</text>
<text text-anchor="middle" x="3579" y="-111.67" font-family="Times,serif" font-size="14.00">some chips I ken borrow?</text>
</g>
<!-- talk_p_proc&#45;&gt;Node013 -->
<g id="edge18" class="edge">
<title>talk_p_proc&#45;&gt;Node013</title>
<path fill="none" stroke="#555555" stroke-dasharray="1,5" d="M2420.8,-316.2C2499.2,-307.7 2734.97,-282.51 2931,-265.68 3152.54,-246.67 3216.11,-290.43 3430,-229.68 3448.12,-224.54 3466.58,-217.04 3484.05,-208.7"/>
<polygon fill="#555555" stroke="#555555" points="3485.21,-211.54 3492.64,-203.99 3482.12,-205.25 3485.21,-211.54"/>
</g>
<!-- Node015 -->
<g id="node26" class="node">
<title>Node015</title>
<ellipse fill="#ffffff" stroke="#000000" cx="3875" cy="-150.84" rx="137.53" ry="30.05"/>
<text text-anchor="middle" x="3875" y="-154.79" font-family="Times,serif" font-size="14.00">You see a wasted&#45;looking</text>
<text text-anchor="middle" x="3875" y="-137.54" font-family="Times,serif" font-size="14.00">junkie.</text>
</g>
<!-- talk_p_proc&#45;&gt;Node015 -->
<g id="edge19" class="edge">
<title>talk_p_proc&#45;&gt;Node015</title>
<path fill="none" stroke="#555555" stroke-dasharray="1,5" d="M2420.78,-315.95C2499.12,-306.75 2734.76,-279.87 2931,-265.68 3107.83,-252.9 3556.95,-276.3 3728,-229.68 3762.15,-220.38 3797.29,-202.14 3824.64,-185.66"/>
<polygon fill="#555555" stroke="#555555" points="3826.3,-188.14 3832.98,-179.92 3822.63,-182.18 3826.3,-188.14"/>
</g>
<!-- Node014 -->
<g id="node27" class="node">
<title>Node014</title>
<ellipse fill="#ffffff" stroke="#000000" cx="4168" cy="-150.84" rx="137.53" ry="30.05"/>
<text text-anchor="middle" x="4168" y="-154.79" font-family="Times,serif" font-size="14.00">You see a wasted&#45;looking</text>
<text text-anchor="middle" x="4168" y="-137.54" font-family="Times,serif" font-size="14.00">junkie.</text>
</g>
<!-- talk_p_proc&#45;&gt;Node014 -->
<g id="edge20" class="edge">
<title>talk_p_proc&#45;&gt;Node014</title>
<path fill="none" stroke="#555555" stroke-dasharray="1,5" d="M2420.49,-315.87C2498.53,-306.39 2734.45,-278.69 2931,-265.68 3173.05,-249.66 3787.66,-292.38 4022,-229.68 4056.13,-220.55 4091.17,-202.23 4118.36,-185.65"/>
<polygon fill="#555555" stroke="#555555" points="4120,-188.13 4126.64,-179.88 4116.3,-182.19 4120,-188.13"/>
</g>
<!-- floater_rand_with_check_cust(291, 305) -->
<g id="node50" class="node">
<title>floater_rand_with_check_cust(291, 305)</title>
<ellipse fill="none" stroke="black" cx="418" cy="-18" rx="209.57" ry="18"/>
<text text-anchor="middle" x="418" y="-13.32" font-family="Times,serif" font-size="14.00">floater_rand_with_check_cust(291, 305)</text>
</g>
<!-- Node010&#45;&gt;floater_rand_with_check_cust(291, 305) -->
<g id="edge31" class="edge">
<title>Node010&#45;&gt;floater_rand_with_check_cust(291, 305)</title>
<path fill="none" stroke="#555555" stroke-dasharray="1,5" d="M589.77,-122.09C549.9,-98.17 493.04,-64.04 455.84,-41.71"/>
<polygon fill="#555555" stroke="#555555" points="458.2,-38.44 447.82,-36.3 454.6,-44.45 458.2,-38.44"/>
</g>
<!-- floater_rand_with_check_cust(291, 294) -->
<g id="node51" class="node">
<title>floater_rand_with_check_cust(291, 294)</title>
<ellipse fill="none" stroke="black" cx="855" cy="-18" rx="209.57" ry="18"/>
<text text-anchor="middle" x="855" y="-13.32" font-family="Times,serif" font-size="14.00">floater_rand_with_check_cust(291, 294)</text>
</g>
<!-- Node010&#45;&gt;floater_rand_with_check_cust(291, 294) -->
<g id="edge32" class="edge">
<title>Node010&#45;&gt;floater_rand_with_check_cust(291, 294)</title>
<path fill="none" stroke="#555555" stroke-dasharray="1,5" d="M682.44,-122.09C722.49,-98.17 779.61,-64.04 816.99,-41.71"/>
<polygon fill="#555555" stroke="#555555" points="818.26,-44.43 825.05,-36.3 814.67,-38.42 818.26,-44.43"/>
</g>
<!-- floater_rand_with_check_cust(361 &#45; (global_var(259) &gt; 0), 370 + (3 * (global_var(230) &gt; 0))) -->
<g id="node52" class="node">
<title>floater_rand_with_check_cust(361 &#45; (global_var(259) &gt; 0), 370 + (3 * (global_var(230) &gt; 0)))</title>
<ellipse fill="none" stroke="black" cx="3579" cy="-18" rx="471.04" ry="18"/>
<text text-anchor="middle" x="3579" y="-13.32" font-family="Times,serif" font-size="14.00">floater_rand_with_check_cust(361 &#45; (global_var(259) &gt; 0), 370 + (3 * (global_var(230) &gt; 0)))</text>
</g>
<!-- Node013&#45;&gt;floater_rand_with_check_cust(361 &#45; (global_var(259) &gt; 0), 370 + (3 * (global_var(230) &gt; 0))) -->
<g id="edge33" class="edge">
<title>Node013&#45;&gt;floater_rand_with_check_cust(361 &#45; (global_var(259) &gt; 0), 370 + (3 * (global_var(230) &gt; 0)))</title>
<path fill="none" stroke="#555555" stroke-dasharray="1,5" d="M3579,-84.04C3579,-71.05 3579,-58.07 3579,-47.17"/>
<polygon fill="#555555" stroke="#555555" points="3582.5,-47.25 3579,-37.25 3575.5,-47.25 3582.5,-47.25"/>
</g>
<!-- destroy_p_proc -->
<g id="node28" class="node">
<title>destroy_p_proc</title>
<ellipse fill="#ffffff" stroke="#000000" cx="2967" cy="-320.13" rx="27" ry="18"/>
</g>
<!-- look_at_p_proc -->
<g id="node29" class="node">
<title>look_at_p_proc</title>
<ellipse fill="#ffffff" stroke="#000000" cx="4112" cy="-320.13" rx="137.53" ry="30.05"/>
<text text-anchor="middle" x="4112" y="-324.08" font-family="Times,serif" font-size="14.00">You see a wasted&#45;looking</text>
<text text-anchor="middle" x="4112" y="-306.83" font-family="Times,serif" font-size="14.00">junkie.</text>
</g>
<!-- description_p_proc -->
<g id="node30" class="node">
<title>description_p_proc</title>
<ellipse fill="#ffffff" stroke="#000000" cx="4776" cy="-320.13" rx="27" ry="18"/>
</g>
<!-- Node004 -->
<g id="node31" class="node">
<title>Node004</title>
<ellipse fill="#ffffff" stroke="#000000" cx="4461" cy="-150.84" rx="137.53" ry="54.45"/>
<text text-anchor="middle" x="4461" y="-172.04" font-family="Times,serif" font-size="14.00">You see a junkie. Despite</text>
<text text-anchor="middle" x="4461" y="-154.79" font-family="Times,serif" font-size="14.00">her tattered appearance,</text>
<text text-anchor="middle" x="4461" y="-137.54" font-family="Times,serif" font-size="14.00">she is smiling like she</text>
<text text-anchor="middle" x="4461" y="-120.29" font-family="Times,serif" font-size="14.00">just won the lottery.</text>
</g>
<!-- description_p_proc&#45;&gt;Node004 -->
<g id="edge21" class="edge">
<title>description_p_proc&#45;&gt;Node004</title>
<path fill="none" stroke="#555555" stroke-dasharray="1,5" d="M4755.33,-308.16C4714.72,-286.59 4622.35,-237.53 4551.84,-200.08"/>
<polygon fill="#555555" stroke="#555555" points="4553.95,-196.71 4543.48,-195.11 4550.67,-202.9 4553.95,-196.71"/>
</g>
<!-- Node003 -->
<g id="node32" class="node">
<title>Node003</title>
<ellipse fill="#ffffff" stroke="#000000" cx="4757" cy="-150.84" rx="140.18" ry="54.45"/>
<text text-anchor="middle" x="4757" y="-172.04" font-family="Times,serif" font-size="14.00">You see a wasted junkie.</text>
<text text-anchor="middle" x="4757" y="-154.79" font-family="Times,serif" font-size="14.00">There are bags under her</text>
<text text-anchor="middle" x="4757" y="-137.54" font-family="Times,serif" font-size="14.00">eyes and a pained</text>
<text text-anchor="middle" x="4757" y="-120.29" font-family="Times,serif" font-size="14.00">expression on her face.</text>
</g>
<!-- description_p_proc&#45;&gt;Node003 -->
<g id="edge22" class="edge">
<title>description_p_proc&#45;&gt;Node003</title>
<path fill="none" stroke="#555555" stroke-dasharray="1,5" d="M4774.04,-301.86C4771.75,-281.7 4767.83,-247.17 4764.32,-216.33"/>
<polygon fill="#555555" stroke="#555555" points="4767.71,-216.14 4763.11,-206.6 4760.76,-216.93 4767.71,-216.14"/>
</g>
<!-- Node002 -->
<g id="node33" class="node">
<title>Node002</title>
<ellipse fill="#ffffff" stroke="#000000" cx="5053" cy="-150.84" rx="137.53" ry="54.45"/>
<text text-anchor="middle" x="5053" y="-172.04" font-family="Times,serif" font-size="14.00">You see a junkie. Despite</text>
<text text-anchor="middle" x="5053" y="-154.79" font-family="Times,serif" font-size="14.00">the bags under his eyes,</text>
<text text-anchor="middle" x="5053" y="-137.54" font-family="Times,serif" font-size="14.00">he is smiling like he</text>
<text text-anchor="middle" x="5053" y="-120.29" font-family="Times,serif" font-size="14.00">just won the lottery.</text>
</g>
<!-- description_p_proc&#45;&gt;Node002 -->
<g id="edge23" class="edge">
<title>description_p_proc&#45;&gt;Node002</title>
<path fill="none" stroke="#555555" stroke-dasharray="1,5" d="M4795.48,-307.37C4831.03,-285.9 4908.36,-239.2 4969.05,-202.54"/>
<polygon fill="#555555" stroke="#555555" points="4970.51,-205.15 4977.26,-196.98 4966.89,-199.15 4970.51,-205.15"/>
</g>
<!-- Node001 -->
<g id="node34" class="node">
<title>Node001</title>
<ellipse fill="#ffffff" stroke="#000000" cx="5346" cy="-150.84" rx="137.53" ry="66.64"/>
<text text-anchor="middle" x="5346" y="-180.67" font-family="Times,serif" font-size="14.00">You see a wasted&#45;looking</text>
<text text-anchor="middle" x="5346" y="-163.42" font-family="Times,serif" font-size="14.00">junkie. There are bags</text>
<text text-anchor="middle" x="5346" y="-146.17" font-family="Times,serif" font-size="14.00">under his eyes and a</text>
<text text-anchor="middle" x="5346" y="-128.92" font-family="Times,serif" font-size="14.00">pained expression on his</text>
<text text-anchor="middle" x="5346" y="-111.67" font-family="Times,serif" font-size="14.00">face.</text>
</g>
<!-- description_p_proc&#45;&gt;Node001 -->
<g id="edge24" class="edge">
<title>description_p_proc&#45;&gt;Node001</title>
<path fill="none" stroke="#555555" stroke-dasharray="1,5" d="M4800.25,-311.84C4837.84,-300.73 4912.55,-279.42 4977,-265.68 5075.19,-244.76 5104.86,-261.74 5200,-229.68 5216.95,-223.97 5234.3,-216.43 5250.84,-208.29"/>
<polygon fill="#555555" stroke="#555555" points="5252.12,-211.06 5259.48,-203.44 5248.97,-204.81 5252.12,-211.06"/>
</g>
<!-- use_skill_on_p_proc -->
<g id="node35" class="node">
<title>use_skill_on_p_proc</title>
<ellipse fill="#ffffff" stroke="#000000" cx="5013" cy="-320.13" rx="27" ry="18"/>
</g>
<!-- damage_p_proc -->
<g id="node36" class="node">
<title>damage_p_proc</title>
<ellipse fill="#ffffff" stroke="#000000" cx="5381" cy="-320.13" rx="27" ry="18"/>
</g>
<!-- map_enter_p_proc -->
<g id="node37" class="node">
<title>map_enter_p_proc</title>
<ellipse fill="#ffffff" stroke="#000000" cx="5601" cy="-320.13" rx="27" ry="18"/>
</g>
<!-- use_obj_on_p_proc -->
<g id="node38" class="node">
<title>use_obj_on_p_proc</title>
<ellipse fill="#ffffff" stroke="#000000" cx="5858" cy="-320.13" rx="137.53" ry="54.45"/>
<text text-anchor="middle" x="5858" y="-341.33" font-family="Times,serif" font-size="14.00">You see a wasted&#45;looking</text>
<text text-anchor="middle" x="5858" y="-324.08" font-family="Times,serif" font-size="14.00">junkie.</text>
<text text-anchor="middle" x="5858" y="-306.83" font-family="Times,serif" font-size="14.00">&#45;&#45;&#45;</text>
<text text-anchor="middle" x="5858" y="-289.58" font-family="Times,serif" font-size="14.00">Mmmm...</text>
</g>
<!-- timed_event_p_proc -->
<g id="node39" class="node">
<title>timed_event_p_proc</title>
<ellipse fill="#ffffff" stroke="#000000" cx="6078" cy="-320.13" rx="27" ry="18"/>
</g>
<!-- Node006 -->
<g id="node40" class="node">
<title>Node006</title>
<ellipse fill="#ffffff" stroke="#000000" cx="5639" cy="-150.84" rx="137.53" ry="30.05"/>
<text text-anchor="middle" x="5639" y="-154.79" font-family="Times,serif" font-size="14.00">You see a wasted&#45;looking</text>
<text text-anchor="middle" x="5639" y="-137.54" font-family="Times,serif" font-size="14.00">junkie.</text>
</g>
<!-- timed_event_p_proc&#45;&gt;Node006 -->
<g id="edge25" class="edge">
<title>timed_event_p_proc&#45;&gt;Node006</title>
<path fill="none" stroke="#555555" stroke-dasharray="1,5" d="M6063.09,-304.89C6049.19,-292.48 6027.31,-275.04 6005,-265.68 5913.63,-227.37 5878.86,-261.42 5785,-229.68 5752.5,-218.7 5718.55,-201.02 5691.58,-185.29"/>
<polygon fill="#555555" stroke="#555555" points="5693.73,-181.9 5683.34,-179.82 5690.16,-187.93 5693.73,-181.9"/>
</g>
<!-- Node008 -->
<g id="node41" class="node">
<title>Node008</title>
<ellipse fill="#ffffff" stroke="#000000" cx="5932" cy="-150.84" rx="137.53" ry="30.05"/>
<text text-anchor="middle" x="5932" y="-154.79" font-family="Times,serif" font-size="14.00">You see a wasted&#45;looking</text>
<text text-anchor="middle" x="5932" y="-137.54" font-family="Times,serif" font-size="14.00">junkie.</text>
</g>
<!-- timed_event_p_proc&#45;&gt;Node008 -->
<g id="edge26" class="edge">
<title>timed_event_p_proc&#45;&gt;Node008</title>
<path fill="none" stroke="#555555" stroke-dasharray="1,5" d="M6064.79,-303.99C6042.21,-278.12 5995.59,-224.7 5964.05,-188.56"/>
<polygon fill="#555555" stroke="#555555" points="5966.38,-186.91 5957.16,-181.68 5961.1,-191.51 5966.38,-186.91"/>
</g>
<!-- Node005 -->
<g id="node42" class="node">
<title>Node005</title>
<ellipse fill="#ffffff" stroke="#000000" cx="6225" cy="-150.84" rx="137.53" ry="54.45"/>
<text text-anchor="middle" x="6225" y="-172.04" font-family="Times,serif" font-size="14.00">You see a wasted&#45;looking</text>
<text text-anchor="middle" x="6225" y="-154.79" font-family="Times,serif" font-size="14.00">junkie.</text>
<text text-anchor="middle" x="6225" y="-137.54" font-family="Times,serif" font-size="14.00">&#45;&#45;&#45;</text>
<text text-anchor="middle" x="6225" y="-120.29" font-family="Times,serif" font-size="14.00">::Cheers, then winces::</text>
</g>
<!-- timed_event_p_proc&#45;&gt;Node005 -->
<g id="edge27" class="edge">
<title>timed_event_p_proc&#45;&gt;Node005</title>
<path fill="none" stroke="#555555" stroke-dasharray="1,5" d="M6087.69,-303.17C6094.56,-292.26 6104.26,-277.66 6114,-265.68 6129.7,-246.38 6148.1,-226.56 6165.36,-208.98"/>
<polygon fill="#555555" stroke="#555555" points="6167.12,-212.16 6171.67,-202.59 6162.15,-207.24 6167.12,-212.16"/>
</g>
<!-- Node007 -->
<g id="node43" class="node">
<title>Node007</title>
<ellipse fill="#ffffff" stroke="#000000" cx="6518" cy="-150.84" rx="137.53" ry="30.05"/>
<text text-anchor="middle" x="6518" y="-154.79" font-family="Times,serif" font-size="14.00">You see a wasted&#45;looking</text>
<text text-anchor="middle" x="6518" y="-137.54" font-family="Times,serif" font-size="14.00">junkie.</text>
</g>
<!-- timed_event_p_proc&#45;&gt;Node007 -->
<g id="edge28" class="edge">
<title>timed_event_p_proc&#45;&gt;Node007</title>
<path fill="none" stroke="#555555" stroke-dasharray="1,5" d="M6084.8,-302.29C6090.65,-290.06 6100.34,-274.22 6114,-265.68 6212.2,-204.35 6261.89,-265.47 6372,-229.68 6404.87,-219 6439.09,-201.17 6466.13,-185.26"/>
<polygon fill="#555555" stroke="#555555" points="6467.6,-187.87 6474.39,-179.73 6464.01,-181.86 6467.6,-187.87"/>
</g>
<!-- floater_rand_with_check_cust(210, 215) -->
<g id="node48" class="node">
<title>floater_rand_with_check_cust(210, 215)</title>
<ellipse fill="none" stroke="black" cx="5420" cy="-18" rx="209.57" ry="18"/>
<text text-anchor="middle" x="5420" y="-13.32" font-family="Times,serif" font-size="14.00">floater_rand_with_check_cust(210, 215)</text>
</g>
<!-- Node006&#45;&gt;floater_rand_with_check_cust(210, 215) -->
<g id="edge29" class="edge">
<title>Node006&#45;&gt;floater_rand_with_check_cust(210, 215)</title>
<path fill="none" stroke="#555555" stroke-dasharray="1,5" d="M5592.56,-122.09C5552.51,-98.17 5495.39,-64.04 5458.01,-41.71"/>
<polygon fill="#555555" stroke="#555555" points="5460.33,-38.42 5449.95,-36.3 5456.74,-44.43 5460.33,-38.42"/>
</g>
<!-- floater_rand_with_check_cust(211, 212) -->
<g id="node49" class="node">
<title>floater_rand_with_check_cust(211, 212)</title>
<ellipse fill="none" stroke="black" cx="5857" cy="-18" rx="209.57" ry="18"/>
<text text-anchor="middle" x="5857" y="-13.32" font-family="Times,serif" font-size="14.00">floater_rand_with_check_cust(211, 212)</text>
</g>
<!-- Node006&#45;&gt;floater_rand_with_check_cust(211, 212) -->
<g id="edge30" class="edge">
<title>Node006&#45;&gt;floater_rand_with_check_cust(211, 212)</title>
<path fill="none" stroke="#555555" stroke-dasharray="1,5" d="M5685.23,-122.09C5725.1,-98.17 5781.96,-64.04 5819.16,-41.71"/>
<polygon fill="#555555" stroke="#555555" points="5820.4,-44.45 5827.18,-36.3 5816.8,-38.44 5820.4,-44.45"/>
</g>
<!-- push_p_proc -->
<g id="node44" class="node">
<title>push_p_proc</title>
<ellipse fill="#ffffff" stroke="#000000" cx="6150" cy="-320.13" rx="27" ry="18"/>
</g>
<!-- map_update_p_proc -->
<g id="node45" class="node">
<title>map_update_p_proc</title>
<ellipse fill="#ffffff" stroke="#000000" cx="6222" cy="-320.13" rx="27" ry="18"/>
</g>
<!-- Node998 -->
<g id="node46" class="node">
<title>Node998</title>
<ellipse fill="#ffffff" stroke="#000000" cx="6294" cy="-320.13" rx="27" ry="18"/>
</g>
<!-- Node999 -->
<g id="node47" class="node">
<title>Node999</title>
<ellipse fill="#ffffff" stroke="#000000" cx="6366" cy="-320.13" rx="27" ry="18"/>
</g>
<!-- floater_rand_with_check_cust -->
<g id="node53" class="node">
<title>floater_rand_with_check_cust</title>
<ellipse fill="#ffffff" stroke="#000000" cx="6536" cy="-320.13" rx="125.39" ry="18"/>
<text text-anchor="middle" x="6536" y="-315.46" font-family="Times,serif" font-size="14.00">::Cheers, then winces::</text>
</g>
</g>
</svg>
