<?xml version="1.0" encoding="UTF-8" standalone="no"?>
<!DOCTYPE svg PUBLIC "-//W3C//DTD SVG 1.1//EN"
 "http://www.w3.org/Graphics/SVG/1.1/DTD/svg11.dtd">
<!-- Generated by graphviz version 8.0.5 (0)
 -->
<!-- Title: ncTyson Pages: 1 -->
<svg width="1560pt" height="310pt"
 viewBox="0.00 0.00 1560.00 309.68" xmlns="http://www.w3.org/2000/svg" xmlns:xlink="http://www.w3.org/1999/xlink">
<g id="graph0" class="graph" transform="scale(1 1) rotate(0) translate(4 305.68)">
<title>ncTyson</title>
<polygon fill="white" stroke="none" points="-4,4 -4,-305.68 1556,-305.68 1556,4 -4,4"/>
<!-- checkPartyMembersNearDoor -->
<g id="node1" class="node">
<title>checkPartyMembersNearDoor</title>
<ellipse fill="#ffffff" stroke="#000000" cx="27" cy="-283.68" rx="27" ry="18"/>
</g>
<!-- ChooseFromList -->
<g id="node2" class="node">
<title>ChooseFromList</title>
<ellipse fill="#ffffff" stroke="#000000" cx="135" cy="-150.84" rx="125.87" ry="78.84"/>
<text text-anchor="middle" x="135" y="-189.29" font-family="Times,serif" font-size="14.00">His arms look like tree</text>
<text text-anchor="middle" x="135" y="-172.04" font-family="Times,serif" font-size="14.00">trunks.</text>
<text text-anchor="middle" x="135" y="-154.79" font-family="Times,serif" font-size="14.00">&#45;&#45;&#45;</text>
<text text-anchor="middle" x="135" y="-137.54" font-family="Times,serif" font-size="14.00">Each arm looks like it</text>
<text text-anchor="middle" x="135" y="-120.29" font-family="Times,serif" font-size="14.00">could double as a tank</text>
<text text-anchor="middle" x="135" y="-103.04" font-family="Times,serif" font-size="14.00">barrel.</text>
</g>
<!-- CLICK_PREV -->
<g id="node3" class="node">
<title>CLICK_PREV</title>
<ellipse fill="#ffffff" stroke="#000000" cx="99" cy="-283.68" rx="27" ry="18"/>
</g>
<!-- CLICK_PREV&#45;&gt;ChooseFromList -->
<g id="edge1" class="edge">
<title>CLICK_PREV&#45;&gt;ChooseFromList</title>
<path fill="none" stroke="#555555" stroke-dasharray="1,5" d="M103.71,-265.58C105.72,-258.28 108.22,-249.16 110.94,-239.29"/>
<polygon fill="#555555" stroke="#555555" points="114.55,-240.35 113.83,-229.78 107.81,-238.49 114.55,-240.35"/>
</g>
<!-- CLICK_0 -->
<g id="node4" class="node">
<title>CLICK_0</title>
<ellipse fill="#ffffff" stroke="#000000" cx="243" cy="-283.68" rx="27" ry="18"/>
</g>
<!-- stored_node -->
<g id="node5" class="node">
<title>stored_node</title>
<ellipse fill="none" stroke="black" cx="387" cy="-150.84" rx="72.25" ry="18"/>
<text text-anchor="middle" x="387" y="-146.17" font-family="Times,serif" font-size="14.00">stored_node</text>
</g>
<!-- CLICK_0&#45;&gt;stored_node -->
<g id="edge2" class="edge">
<title>CLICK_0&#45;&gt;stored_node</title>
<path fill="none" stroke="#555555" stroke-dasharray="1,5" d="M258.41,-268.68C282.82,-246.51 330.66,-203.04 360.6,-175.83"/>
<polygon fill="#555555" stroke="#555555" points="362.5,-178.93 367.54,-169.61 357.79,-173.75 362.5,-178.93"/>
</g>
<!-- CLICK_1 -->
<g id="node6" class="node">
<title>CLICK_1</title>
<ellipse fill="#ffffff" stroke="#000000" cx="315" cy="-283.68" rx="27" ry="18"/>
</g>
<!-- CLICK_1&#45;&gt;stored_node -->
<g id="edge3" class="edge">
<title>CLICK_1&#45;&gt;stored_node</title>
<path fill="none" stroke="#555555" stroke-dasharray="1,5" d="M323.97,-266.38C336.14,-244.27 358.01,-204.52 372.52,-178.15"/>
<polygon fill="#555555" stroke="#555555" points="375.93,-180.22 377.69,-169.77 369.8,-176.84 375.93,-180.22"/>
</g>
<!-- CLICK_2 -->
<g id="node7" class="node">
<title>CLICK_2</title>
<ellipse fill="#ffffff" stroke="#000000" cx="387" cy="-283.68" rx="27" ry="18"/>
</g>
<!-- CLICK_2&#45;&gt;stored_node -->
<g id="edge4" class="edge">
<title>CLICK_2&#45;&gt;stored_node</title>
<path fill="none" stroke="#555555" stroke-dasharray="1,5" d="M387,-265.31C387,-243.61 387,-206.19 387,-180.28"/>
<polygon fill="#555555" stroke="#555555" points="390.5,-180.29 387,-170.29 383.5,-180.29 390.5,-180.29"/>
</g>
<!-- CLICK_3 -->
<g id="node8" class="node">
<title>CLICK_3</title>
<ellipse fill="#ffffff" stroke="#000000" cx="459" cy="-283.68" rx="27" ry="18"/>
</g>
<!-- CLICK_3&#45;&gt;stored_node -->
<g id="edge5" class="edge">
<title>CLICK_3&#45;&gt;stored_node</title>
<path fill="none" stroke="#555555" stroke-dasharray="1,5" d="M450.03,-266.38C437.86,-244.27 415.99,-204.52 401.48,-178.15"/>
<polygon fill="#555555" stroke="#555555" points="404.2,-176.84 396.31,-169.77 398.07,-180.22 404.2,-176.84"/>
</g>
<!-- CLICK_4 -->
<g id="node9" class="node">
<title>CLICK_4</title>
<ellipse fill="#ffffff" stroke="#000000" cx="531" cy="-283.68" rx="27" ry="18"/>
</g>
<!-- CLICK_4&#45;&gt;stored_node -->
<g id="edge6" class="edge">
<title>CLICK_4&#45;&gt;stored_node</title>
<path fill="none" stroke="#555555" stroke-dasharray="1,5" d="M515.59,-268.68C491.18,-246.51 443.34,-203.04 413.4,-175.83"/>
<polygon fill="#555555" stroke="#555555" points="416.21,-173.75 406.46,-169.61 411.5,-178.93 416.21,-173.75"/>
</g>
<!-- CLICK_MORE -->
<g id="node10" class="node">
<title>CLICK_MORE</title>
<ellipse fill="#ffffff" stroke="#000000" cx="171" cy="-283.68" rx="27" ry="18"/>
</g>
<!-- CLICK_MORE&#45;&gt;ChooseFromList -->
<g id="edge7" class="edge">
<title>CLICK_MORE&#45;&gt;ChooseFromList</title>
<path fill="none" stroke="#555555" stroke-dasharray="1,5" d="M166.29,-265.58C164.28,-258.28 161.78,-249.16 159.06,-239.29"/>
<polygon fill="#555555" stroke="#555555" points="162.19,-238.49 156.17,-229.78 155.45,-240.35 162.19,-238.49"/>
</g>
<!-- start -->
<g id="node11" class="node">
<title>start</title>
<ellipse fill="#ffffff" stroke="#000000" cx="603" cy="-283.68" rx="27" ry="18"/>
</g>
<!-- critter_p_proc -->
<g id="node12" class="node">
<title>critter_p_proc</title>
<ellipse fill="#ffffff" stroke="#000000" cx="675" cy="-283.68" rx="27" ry="18"/>
</g>
<!-- pickup_p_proc -->
<g id="node13" class="node">
<title>pickup_p_proc</title>
<ellipse fill="#ffffff" stroke="#000000" cx="747" cy="-283.68" rx="27" ry="18"/>
</g>
<!-- talk_p_proc -->
<g id="node14" class="node">
<title>talk_p_proc</title>
<ellipse fill="#ffffff" stroke="#000000" cx="819" cy="-283.68" rx="27" ry="18"/>
</g>
<!-- Node000 -->
<g id="node15" class="node">
<title>Node000</title>
<ellipse fill="#ffffff" stroke="#000000" cx="819" cy="-150.84" rx="27" ry="18"/>
</g>
<!-- talk_p_proc&#45;&gt;Node000 -->
<g id="edge8" class="edge">
<title>talk_p_proc&#45;&gt;Node000</title>
<path fill="none" stroke="#555555" stroke-dasharray="1,5" d="M819,-265.31C819,-243.61 819,-206.19 819,-180.28"/>
<polygon fill="#555555" stroke="#555555" points="822.5,-180.29 819,-170.29 815.5,-180.29 822.5,-180.29"/>
</g>
<!-- Node001 -->
<g id="node23" class="node">
<title>Node001</title>
<ellipse fill="#ffffff" stroke="#000000" cx="747" cy="-18" rx="27" ry="18"/>
</g>
<!-- Node000&#45;&gt;Node001 -->
<g id="edge12" class="edge">
<title>Node000&#45;&gt;Node001</title>
<path fill="none" stroke="#555555" stroke-dasharray="1,5" d="M812.18,-133.05C805.44,-117.01 794.51,-92.35 783,-72 777.53,-62.33 770.85,-52.14 764.73,-43.31"/>
<polygon fill="#555555" stroke="#555555" points="767.03,-41.49 758.4,-35.34 761.31,-45.53 767.03,-41.49"/>
</g>
<!-- Node002 -->
<g id="node26" class="node">
<title>Node002</title>
<ellipse fill="#ffffff" stroke="#000000" cx="819" cy="-18" rx="27" ry="18"/>
</g>
<!-- Node000&#45;&gt;Node002 -->
<g id="edge10" class="edge">
<title>Node000&#45;&gt;Node002</title>
<path fill="none" stroke="#555555" stroke-dasharray="1,5" d="M819,-132.47C819,-110.77 819,-73.34 819,-47.44"/>
<polygon fill="#555555" stroke="#555555" points="822.5,-47.45 819,-37.45 815.5,-47.45 822.5,-47.45"/>
</g>
<!-- Node003 -->
<g id="node27" class="node">
<title>Node003</title>
<ellipse fill="#ffffff" stroke="#000000" cx="891" cy="-18" rx="27" ry="18"/>
</g>
<!-- Node000&#45;&gt;Node003 -->
<g id="edge11" class="edge">
<title>Node000&#45;&gt;Node003</title>
<path fill="none" stroke="#555555" stroke-dasharray="1,5" d="M827.97,-133.54C840.27,-111.18 862.5,-70.8 877,-44.45"/>
<polygon fill="#555555" stroke="#555555" points="880.39,-46.55 882.14,-36.1 874.25,-43.17 880.39,-46.55"/>
</g>
<!-- destroy_p_proc -->
<g id="node16" class="node">
<title>destroy_p_proc</title>
<ellipse fill="#ffffff" stroke="#000000" cx="891" cy="-283.68" rx="27" ry="18"/>
</g>
<!-- look_at_p_proc -->
<g id="node17" class="node">
<title>look_at_p_proc</title>
<ellipse fill="#ffffff" stroke="#000000" cx="1028" cy="-283.68" rx="91.72" ry="18"/>
<text text-anchor="middle" x="1028" y="-279.01" font-family="Times,serif" font-size="14.00">You see a boxer.</text>
</g>
<!-- description_p_proc -->
<g id="node18" class="node">
<title>description_p_proc</title>
<ellipse fill="#ffffff" stroke="#000000" cx="1165" cy="-283.68" rx="27" ry="18"/>
</g>
<!-- use_skill_on_p_proc -->
<g id="node19" class="node">
<title>use_skill_on_p_proc</title>
<ellipse fill="#ffffff" stroke="#000000" cx="1237" cy="-283.68" rx="27" ry="18"/>
</g>
<!-- damage_p_proc -->
<g id="node20" class="node">
<title>damage_p_proc</title>
<ellipse fill="#ffffff" stroke="#000000" cx="1309" cy="-283.68" rx="27" ry="18"/>
</g>
<!-- map_enter_p_proc -->
<g id="node21" class="node">
<title>map_enter_p_proc</title>
<ellipse fill="#ffffff" stroke="#000000" cx="1381" cy="-283.68" rx="27" ry="18"/>
</g>
<!-- timed_event_p_proc -->
<g id="node22" class="node">
<title>timed_event_p_proc</title>
<ellipse fill="#ffffff" stroke="#000000" cx="747" cy="-150.84" rx="27" ry="18"/>
</g>
<!-- timed_event_p_proc&#45;&gt;Node001 -->
<g id="edge9" class="edge">
<title>timed_event_p_proc&#45;&gt;Node001</title>
<path fill="none" stroke="#555555" stroke-dasharray="1,5" d="M747,-132.47C747,-110.77 747,-73.34 747,-47.44"/>
<polygon fill="#555555" stroke="#555555" points="750.5,-47.45 747,-37.45 743.5,-47.45 750.5,-47.45"/>
</g>
<!-- Node998 -->
<g id="node24" class="node">
<title>Node998</title>
<ellipse fill="#ffffff" stroke="#000000" cx="1453" cy="-283.68" rx="27" ry="18"/>
</g>
<!-- Node999 -->
<g id="node25" class="node">
<title>Node999</title>
<ellipse fill="#ffffff" stroke="#000000" cx="1525" cy="-283.68" rx="27" ry="18"/>
</g>
</g>
</svg>
