<?xml version="1.0" encoding="UTF-8" standalone="no"?>
<!DOCTYPE svg PUBLIC "-//W3C//DTD SVG 1.1//EN"
 "http://www.w3.org/Graphics/SVG/1.1/DTD/svg11.dtd">
<!-- Generated by graphviz version 8.0.5 (0)
 -->
<!-- Title: ntCar1 Pages: 1 -->
<svg width="980pt" height="116pt"
 viewBox="0.00 0.00 980.00 116.00" xmlns="http://www.w3.org/2000/svg" xmlns:xlink="http://www.w3.org/1999/xlink">
<g id="graph0" class="graph" transform="scale(1 1) rotate(0) translate(4 112)">
<title>ntCar1</title>
<polygon fill="white" stroke="none" points="-4,4 -4,-112 976,-112 976,4 -4,4"/>
<!-- checkPartyMembersNearDoor -->
<g id="node1" class="node">
<title>checkPartyMembersNearDoor</title>
<ellipse fill="#ffffff" stroke="#000000" cx="27" cy="-90" rx="27" ry="18"/>
</g>
<!-- ChooseFromList -->
<g id="node2" class="node">
<title>ChooseFromList</title>
<ellipse fill="#ffffff" stroke="#000000" cx="135" cy="-18" rx="27" ry="18"/>
</g>
<!-- CLICK_PREV -->
<g id="node3" class="node">
<title>CLICK_PREV</title>
<ellipse fill="#ffffff" stroke="#000000" cx="99" cy="-90" rx="27" ry="18"/>
</g>
<!-- CLICK_PREV&#45;&gt;ChooseFromList -->
<g id="edge1" class="edge">
<title>CLICK_PREV&#45;&gt;ChooseFromList</title>
<path fill="none" stroke="#555555" stroke-dasharray="1,5" d="M107.35,-72.76C111.62,-64.46 116.92,-54.15 121.73,-44.79"/>
<polygon fill="#555555" stroke="#555555" points="125.23,-46.64 126.7,-36.15 119.01,-43.44 125.23,-46.64"/>
</g>
<!-- CLICK_0 -->
<g id="node4" class="node">
<title>CLICK_0</title>
<ellipse fill="#ffffff" stroke="#000000" cx="243" cy="-90" rx="27" ry="18"/>
</g>
<!-- stored_node -->
<g id="node5" class="node">
<title>stored_node</title>
<ellipse fill="none" stroke="black" cx="387" cy="-18" rx="72.25" ry="18"/>
<text text-anchor="middle" x="387" y="-13.32" font-family="Times,serif" font-size="14.00">stored_node</text>
</g>
<!-- CLICK_0&#45;&gt;stored_node -->
<g id="edge2" class="edge">
<title>CLICK_0&#45;&gt;stored_node</title>
<path fill="none" stroke="#555555" stroke-dasharray="1,5" d="M264.56,-78.52C285.85,-68.17 318.96,-52.08 345.38,-39.23"/>
<polygon fill="#555555" stroke="#555555" points="346.68,-42 354.15,-34.48 343.62,-35.71 346.68,-42"/>
</g>
<!-- CLICK_1 -->
<g id="node6" class="node">
<title>CLICK_1</title>
<ellipse fill="#ffffff" stroke="#000000" cx="315" cy="-90" rx="27" ry="18"/>
</g>
<!-- CLICK_1&#45;&gt;stored_node -->
<g id="edge3" class="edge">
<title>CLICK_1&#45;&gt;stored_node</title>
<path fill="none" stroke="#555555" stroke-dasharray="1,5" d="M329.92,-74.5C339.11,-65.56 351.13,-53.87 361.77,-43.53"/>
<polygon fill="#555555" stroke="#555555" points="363.83,-46.43 368.57,-36.95 358.96,-41.41 363.83,-46.43"/>
</g>
<!-- CLICK_2 -->
<g id="node7" class="node">
<title>CLICK_2</title>
<ellipse fill="#ffffff" stroke="#000000" cx="387" cy="-90" rx="27" ry="18"/>
</g>
<!-- CLICK_2&#45;&gt;stored_node -->
<g id="edge4" class="edge">
<title>CLICK_2&#45;&gt;stored_node</title>
<path fill="none" stroke="#555555" stroke-dasharray="1,5" d="M387,-71.7C387,-64.24 387,-55.32 387,-46.97"/>
<polygon fill="#555555" stroke="#555555" points="390.5,-47.1 387,-37.1 383.5,-47.1 390.5,-47.1"/>
</g>
<!-- CLICK_3 -->
<g id="node8" class="node">
<title>CLICK_3</title>
<ellipse fill="#ffffff" stroke="#000000" cx="459" cy="-90" rx="27" ry="18"/>
</g>
<!-- CLICK_3&#45;&gt;stored_node -->
<g id="edge5" class="edge">
<title>CLICK_3&#45;&gt;stored_node</title>
<path fill="none" stroke="#555555" stroke-dasharray="1,5" d="M444.08,-74.5C434.89,-65.56 422.87,-53.87 412.23,-43.53"/>
<polygon fill="#555555" stroke="#555555" points="415.04,-41.41 405.43,-36.95 410.17,-46.43 415.04,-41.41"/>
</g>
<!-- CLICK_4 -->
<g id="node9" class="node">
<title>CLICK_4</title>
<ellipse fill="#ffffff" stroke="#000000" cx="531" cy="-90" rx="27" ry="18"/>
</g>
<!-- CLICK_4&#45;&gt;stored_node -->
<g id="edge6" class="edge">
<title>CLICK_4&#45;&gt;stored_node</title>
<path fill="none" stroke="#555555" stroke-dasharray="1,5" d="M509.44,-78.52C488.15,-68.17 455.04,-52.08 428.62,-39.23"/>
<polygon fill="#555555" stroke="#555555" points="430.38,-35.71 419.85,-34.48 427.32,-42 430.38,-35.71"/>
</g>
<!-- CLICK_MORE -->
<g id="node10" class="node">
<title>CLICK_MORE</title>
<ellipse fill="#ffffff" stroke="#000000" cx="171" cy="-90" rx="27" ry="18"/>
</g>
<!-- CLICK_MORE&#45;&gt;ChooseFromList -->
<g id="edge7" class="edge">
<title>CLICK_MORE&#45;&gt;ChooseFromList</title>
<path fill="none" stroke="#555555" stroke-dasharray="1,5" d="M162.65,-72.76C158.38,-64.46 153.08,-54.15 148.27,-44.79"/>
<polygon fill="#555555" stroke="#555555" points="150.99,-43.44 143.3,-36.15 144.77,-46.64 150.99,-43.44"/>
</g>
<!-- start -->
<g id="node11" class="node">
<title>start</title>
<ellipse fill="#ffffff" stroke="#000000" cx="603" cy="-90" rx="27" ry="18"/>
</g>
<!-- spatial_p_proc -->
<g id="node12" class="node">
<title>spatial_p_proc</title>
<ellipse fill="#ffffff" stroke="#000000" cx="774" cy="-90" rx="125.92" ry="18"/>
<text text-anchor="middle" x="774" y="-85.33" font-family="Times,serif" font-size="14.00">Hey! Where&#39;s my car?!</text>
</g>
<!-- map_update_p_proc -->
<g id="node13" class="node">
<title>map_update_p_proc</title>
<ellipse fill="#ffffff" stroke="#000000" cx="945" cy="-90" rx="27" ry="18"/>
</g>
</g>
</svg>
