<?xml version="1.0" encoding="UTF-8" standalone="no"?>
<!DOCTYPE svg PUBLIC "-//W3C//DTD SVG 1.1//EN"
 "http://www.w3.org/Graphics/SVG/1.1/DTD/svg11.dtd">
<!-- Generated by graphviz version 8.0.5 (0)
 -->
<!-- Title: sccarkid Pages: 1 -->
<svg width="3504pt" height="884pt"
 viewBox="0.00 0.00 3504.00 884.08" xmlns="http://www.w3.org/2000/svg" xmlns:xlink="http://www.w3.org/1999/xlink">
<g id="graph0" class="graph" transform="scale(1 1) rotate(0) translate(4 880.08)">
<title>sccarkid</title>
<polygon fill="white" stroke="none" points="-4,4 -4,-880.08 3500,-880.08 3500,4 -4,4"/>
<!-- checkPartyMembersNearDoor -->
<g id="node1" class="node">
<title>checkPartyMembersNearDoor</title>
<ellipse fill="#ffffff" stroke="#000000" cx="27" cy="-809.43" rx="27" ry="18"/>
</g>
<!-- old_pickup_p_proc -->
<g id="node2" class="node">
<title>old_pickup_p_proc</title>
<ellipse fill="#ffffff" stroke="#000000" cx="99" cy="-651.34" rx="27" ry="18"/>
</g>
<!-- pickup_p_proc -->
<g id="node3" class="node">
<title>pickup_p_proc</title>
<ellipse fill="#ffffff" stroke="#000000" cx="99" cy="-809.43" rx="27" ry="18"/>
</g>
<!-- pickup_p_proc&#45;&gt;old_pickup_p_proc -->
<g id="edge1" class="edge">
<title>pickup_p_proc&#45;&gt;old_pickup_p_proc</title>
<path fill="none" stroke="#555555" stroke-dasharray="1,5" d="M99,-791.13C99,-764.41 99,-712.82 99,-680.62"/>
<polygon fill="#555555" stroke="#555555" points="102.5,-680.72 99,-670.72 95.5,-680.72 102.5,-680.72"/>
</g>
<!-- getTile -->
<g id="node4" class="node">
<title>getTile</title>
<ellipse fill="#ffffff" stroke="#000000" cx="171" cy="-809.43" rx="27" ry="18"/>
</g>
<!-- getTileTime -->
<g id="node5" class="node">
<title>getTileTime</title>
<ellipse fill="#ffffff" stroke="#000000" cx="243" cy="-809.43" rx="27" ry="18"/>
</g>
<!-- curTimeIsGreater -->
<g id="node6" class="node">
<title>curTimeIsGreater</title>
<ellipse fill="#ffffff" stroke="#000000" cx="315" cy="-809.43" rx="27" ry="18"/>
</g>
<!-- check_tile_events -->
<g id="node7" class="node">
<title>check_tile_events</title>
<ellipse fill="#ffffff" stroke="#000000" cx="387" cy="-809.43" rx="27" ry="18"/>
</g>
<!-- cbFunc(target_tile) -->
<g id="node8" class="node">
<title>cbFunc(target_tile)</title>
<ellipse fill="none" stroke="black" cx="387" cy="-651.34" rx="106.98" ry="18"/>
<text text-anchor="middle" x="387" y="-646.67" font-family="Times,serif" font-size="14.00">cbFunc(target_tile)</text>
</g>
<!-- check_tile_events&#45;&gt;cbFunc(target_tile) -->
<g id="edge2" class="edge">
<title>check_tile_events&#45;&gt;cbFunc(target_tile)</title>
<path fill="none" stroke="#555555" stroke-dasharray="1,5" d="M387,-791.13C387,-764.41 387,-712.82 387,-680.62"/>
<polygon fill="#555555" stroke="#555555" points="390.5,-680.72 387,-670.72 383.5,-680.72 390.5,-680.72"/>
</g>
<!-- tvar_Warp_To_Pos -->
<g id="node9" class="node">
<title>tvar_Warp_To_Pos</title>
<ellipse fill="#ffffff" stroke="#000000" cx="459" cy="-809.43" rx="27" ry="18"/>
</g>
<!-- start -->
<g id="node10" class="node">
<title>start</title>
<ellipse fill="#ffffff" stroke="#000000" cx="531" cy="-809.43" rx="27" ry="18"/>
</g>
<!-- critter_p_proc -->
<g id="node11" class="node">
<title>critter_p_proc</title>
<ellipse fill="#ffffff" stroke="#000000" cx="603" cy="-809.43" rx="27" ry="18"/>
</g>
<!-- anim_end_call -->
<g id="node12" class="node">
<title>anim_end_call</title>
<ellipse fill="#ffffff" stroke="#000000" cx="639" cy="-651.34" rx="27" ry="18"/>
</g>
<!-- critter_p_proc&#45;&gt;anim_end_call -->
<g id="edge3" class="edge">
<title>critter_p_proc&#45;&gt;anim_end_call</title>
<path fill="none" stroke="#555555" stroke-dasharray="1,5" d="M606.99,-791.13C613.21,-764.15 625.28,-711.82 632.69,-679.69"/>
<polygon fill="#555555" stroke="#555555" points="636.26,-680.77 635.1,-670.24 629.44,-679.2 636.26,-680.77"/>
</g>
<!-- tvar_Warp_To_Pos(5, game_time + game_ticks(1)) -->
<g id="node46" class="node">
<title>tvar_Warp_To_Pos(5, game_time + game_ticks(1))</title>
<ellipse fill="none" stroke="black" cx="639" cy="-484.14" rx="260.07" ry="18"/>
<text text-anchor="middle" x="639" y="-479.47" font-family="Times,serif" font-size="14.00">tvar_Warp_To_Pos(5, game_time + game_ticks(1))</text>
</g>
<!-- anim_end_call&#45;&gt;tvar_Warp_To_Pos(5, game_time + game_ticks(1)) -->
<g id="edge31" class="edge">
<title>anim_end_call&#45;&gt;tvar_Warp_To_Pos(5, game_time + game_ticks(1))</title>
<path fill="none" stroke="#555555" stroke-dasharray="1,5" d="M639,-632.97C639,-604.47 639,-547.51 639,-513.21"/>
<polygon fill="#555555" stroke="#555555" points="642.5,-513.53 639,-503.53 635.5,-513.53 642.5,-513.53"/>
</g>
<!-- talk_p_proc -->
<g id="node13" class="node">
<title>talk_p_proc</title>
<ellipse fill="#ffffff" stroke="#000000" cx="1993" cy="-809.43" rx="27" ry="18"/>
</g>
<!-- Node016 -->
<g id="node14" class="node">
<title>Node016</title>
<ellipse fill="#ffffff" stroke="#000000" cx="1276" cy="-651.34" rx="133.29" ry="30.05"/>
<text text-anchor="middle" x="1276" y="-655.29" font-family="Times,serif" font-size="14.00">I&#39;m not supposed to talk</text>
<text text-anchor="middle" x="1276" y="-638.04" font-family="Times,serif" font-size="14.00">to you anymore.</text>
</g>
<!-- talk_p_proc&#45;&gt;Node016 -->
<g id="edge4" class="edge">
<title>talk_p_proc&#45;&gt;Node016</title>
<path fill="none" stroke="#555555" stroke-dasharray="1,5" d="M1966.3,-805.4C1883.8,-795.67 1625.99,-762.48 1419,-705.79 1395.61,-699.38 1370.68,-690.73 1348.29,-682.25"/>
<polygon fill="#555555" stroke="#555555" points="1349.79,-678.69 1339.2,-678.38 1347.28,-685.23 1349.79,-678.69"/>
</g>
<!-- Node001 -->
<g id="node15" class="node">
<title>Node001</title>
<ellipse fill="#ffffff" stroke="#000000" cx="1561" cy="-651.34" rx="133.29" ry="54.45"/>
<text text-anchor="middle" x="1561" y="-672.54" font-family="Times,serif" font-size="14.00">My dad&#39;s Vice&#45;President</text>
<text text-anchor="middle" x="1561" y="-655.29" font-family="Times,serif" font-size="14.00">Carlson, so you better</text>
<text text-anchor="middle" x="1561" y="-638.04" font-family="Times,serif" font-size="14.00">treat me nice! Who are</text>
<text text-anchor="middle" x="1561" y="-620.79" font-family="Times,serif" font-size="14.00">you?</text>
</g>
<!-- talk_p_proc&#45;&gt;Node001 -->
<g id="edge5" class="edge">
<title>talk_p_proc&#45;&gt;Node001</title>
<path fill="none" stroke="#555555" stroke-dasharray="1,5" d="M1968.38,-801.45C1916.97,-785.02 1795.8,-742.52 1695,-705.79 1684.9,-702.11 1674.42,-698.25 1663.96,-694.37"/>
<polygon fill="#555555" stroke="#555555" points="1665.54,-690.85 1654.95,-690.65 1663.1,-697.41 1665.54,-690.85"/>
</g>
<!-- talk_p_proc&#45;&gt;Node001 -->
<g id="edge10" class="edge">
<title>talk_p_proc&#45;&gt;Node001</title>
<path fill="none" stroke="#555555" stroke-dasharray="1,5" d="M1970.68,-798.82C1922.99,-780.82 1808.8,-740.7 1713,-705.79 1699.77,-700.97 1685.88,-695.85 1672.09,-690.76"/>
<polygon fill="#555555" stroke="#555555" points="1673.67,-687.24 1663.07,-687.06 1671.24,-693.81 1673.67,-687.24"/>
</g>
<!-- Node015 -->
<g id="node16" class="node">
<title>Node015</title>
<ellipse fill="#ffffff" stroke="#000000" cx="1839" cy="-651.34" rx="126.44" ry="18"/>
<text text-anchor="middle" x="1839" y="-646.67" font-family="Times,serif" font-size="14.00">You got me wrong, kid.</text>
</g>
<!-- talk_p_proc&#45;&gt;Node015 -->
<g id="edge6" class="edge">
<title>talk_p_proc&#45;&gt;Node015</title>
<path fill="none" stroke="#555555" stroke-dasharray="1,5" d="M1978.51,-793.75C1952.14,-767.02 1896.05,-710.16 1863.59,-677.27"/>
<polygon fill="#555555" stroke="#555555" points="1866.4,-675.11 1856.88,-670.45 1861.41,-680.03 1866.4,-675.11"/>
</g>
<!-- Node014 -->
<g id="node17" class="node">
<title>Node014</title>
<ellipse fill="#ffffff" stroke="#000000" cx="2624" cy="-299.7" rx="131.7" ry="30.05"/>
<text text-anchor="middle" x="2624" y="-303.65" font-family="Times,serif" font-size="14.00">I told Daddy you were a</text>
<text text-anchor="middle" x="2624" y="-286.4" font-family="Times,serif" font-size="14.00">bad man.</text>
</g>
<!-- talk_p_proc&#45;&gt;Node014 -->
<g id="edge7" class="edge">
<title>talk_p_proc&#45;&gt;Node014</title>
<path fill="none" stroke="#555555" stroke-dasharray="1,5" d="M1999.03,-791.41C2005.54,-775.82 2017.53,-753.57 2036,-742.79 2143.31,-680.12 2505.79,-793.32 2594,-705.79 2644.46,-655.72 2634.05,-433.31 2627.35,-341.03"/>
<polygon fill="#555555" stroke="#555555" points="2630.77,-340.89 2626.53,-331.18 2623.79,-341.42 2630.77,-340.89"/>
</g>
<!-- Node011 -->
<g id="node18" class="node">
<title>Node011</title>
<ellipse fill="#ffffff" stroke="#000000" cx="2153" cy="-651.34" rx="132.23" ry="30.05"/>
<text text-anchor="middle" x="2153" y="-655.29" font-family="Times,serif" font-size="14.00">Daddy says he can&#39;t see</text>
<text text-anchor="middle" x="2153" y="-638.04" font-family="Times,serif" font-size="14.00">you.</text>
</g>
<!-- talk_p_proc&#45;&gt;Node011 -->
<g id="edge8" class="edge">
<title>talk_p_proc&#45;&gt;Node011</title>
<path fill="none" stroke="#555555" stroke-dasharray="1,5" d="M2001.72,-791.98C2009.58,-778.02 2022.03,-757.89 2036,-742.79 2055.3,-721.91 2079.8,-702.17 2101.39,-686.49"/>
<polygon fill="#555555" stroke="#555555" points="2103.02,-688.91 2109.12,-680.25 2098.95,-683.22 2103.02,-688.91"/>
</g>
<!-- Node013 -->
<g id="node19" class="node">
<title>Node013</title>
<ellipse fill="#ffffff" stroke="#000000" cx="2444" cy="-651.34" rx="140.71" ry="30.05"/>
<text text-anchor="middle" x="2444" y="-655.29" font-family="Times,serif" font-size="14.00">Daddy says you can come</text>
<text text-anchor="middle" x="2444" y="-638.04" font-family="Times,serif" font-size="14.00">in the house.</text>
</g>
<!-- talk_p_proc&#45;&gt;Node013 -->
<g id="edge9" class="edge">
<title>talk_p_proc&#45;&gt;Node013</title>
<path fill="none" stroke="#555555" stroke-dasharray="1,5" d="M1999.22,-791.73C2005.87,-776.36 2017.95,-754.27 2036,-742.79 2133.73,-680.6 2181.55,-733.59 2294,-705.79 2319.01,-699.6 2345.69,-690.84 2369.5,-682.19"/>
<polygon fill="#555555" stroke="#555555" points="2370.35,-685.24 2378.52,-678.5 2367.93,-678.68 2370.35,-685.24"/>
</g>
<!-- Node007 -->
<g id="node20" class="node">
<title>Node007</title>
<ellipse fill="#ffffff" stroke="#000000" cx="1993" cy="-484.14" rx="106.77" ry="30.05"/>
<text text-anchor="middle" x="1993" y="-488.09" font-family="Times,serif" font-size="14.00">Hey, it&#39;s you again.</text>
<text text-anchor="middle" x="1993" y="-470.84" font-family="Times,serif" font-size="14.00">Whatcha doing?</text>
</g>
<!-- talk_p_proc&#45;&gt;Node007 -->
<g id="edge11" class="edge">
<title>talk_p_proc&#45;&gt;Node007</title>
<path fill="none" stroke="#555555" stroke-dasharray="1,5" d="M1993,-791.05C1993,-741.13 1993,-596.36 1993,-525.36"/>
<polygon fill="#555555" stroke="#555555" points="1996.5,-525.63 1993,-515.63 1989.5,-525.63 1996.5,-525.63"/>
</g>
<!-- walkToCarlson -->
<g id="node21" class="node">
<title>walkToCarlson</title>
<ellipse fill="#ffffff" stroke="#000000" cx="2668" cy="-651.34" rx="27" ry="18"/>
</g>
<!-- talk_p_proc&#45;&gt;walkToCarlson -->
<g id="edge12" class="edge">
<title>talk_p_proc&#45;&gt;walkToCarlson</title>
<path fill="none" stroke="#555555" stroke-dasharray="1,5" d="M1998.82,-791.56C2005.24,-775.85 2017.22,-753.31 2036,-742.79 2093.32,-710.68 2570.76,-758.74 2627,-724.79 2643.44,-714.86 2653.86,-695.72 2660.08,-679.6"/>
<polygon fill="#555555" stroke="#555555" points="2663.59,-681.17 2663.58,-670.58 2656.98,-678.86 2663.59,-681.17"/>
</g>
<!-- Node001&#45;&gt;Node007 -->
<g id="edge17" class="edge">
<title>Node001&#45;&gt;Node007</title>
<path fill="none" stroke="#340099" d="M1644.33,-608.49C1687.6,-587.68 1741.7,-563.05 1791.5,-544.39 1828.17,-530.66 1869.54,-518.02 1905.21,-507.97"/>
<polygon fill="#340099" stroke="#340099" points="1905.9,-511.13 1914.59,-505.07 1904.02,-504.39 1905.9,-511.13"/>
<text text-anchor="middle" x="1885.75" y="-565.59" font-family="Times,serif" font-size="14.00" fill="#340099">I&#39;m your worst nightmare,</text>
<text text-anchor="middle" x="1885.75" y="-548.34" font-family="Times,serif" font-size="14.00" fill="#340099">puke.</text>
</g>
<!-- Node999 -->
<g id="node31" class="node">
<title>Node999</title>
<ellipse fill="#ffffff" stroke="#000000" cx="1712" cy="-18" rx="27" ry="18"/>
</g>
<!-- Node001&#45;&gt;Node999 -->
<g id="edge18" class="edge">
<title>Node001&#45;&gt;Node999</title>
<path fill="none" stroke="#009907" d="M1638.83,-606.85C1647.96,-598.7 1656.11,-589.38 1662,-578.89 1734.82,-449.31 1618.28,-378.07 1685,-245.25 1690.52,-234.26 1700.7,-238.34 1706,-227.25 1734.21,-168.18 1725.53,-88.55 1718.02,-46.95"/>
<polygon fill="#009907" stroke="#009907" points="1721.3,-46.43 1715.97,-37.27 1714.42,-47.76 1721.3,-46.43"/>
<text text-anchor="middle" x="1754" y="-295.02" font-family="Times,serif" font-size="14.00" fill="#009907">Sorry kid, I&#39;m busy.</text>
</g>
<!-- Node003 -->
<g id="node32" class="node">
<title>Node003</title>
<ellipse fill="#ffffff" stroke="#000000" cx="1052" cy="-484.14" rx="135.41" ry="42.25"/>
<text text-anchor="middle" x="1052" y="-496.72" font-family="Times,serif" font-size="14.00">Then you got to be extra</text>
<text text-anchor="middle" x="1052" y="-479.47" font-family="Times,serif" font-size="14.00">nice to me or I&#39;ll tell</text>
<text text-anchor="middle" x="1052" y="-462.22" font-family="Times,serif" font-size="14.00">my dad.</text>
</g>
<!-- Node001&#45;&gt;Node003 -->
<g id="edge14" class="edge">
<title>Node001&#45;&gt;Node003</title>
<path fill="none" stroke="#990078" d="M1469.54,-611.44C1452.66,-605.62 1435,-600.41 1418,-596.89 1378.97,-588.82 1088.38,-606.62 1059.75,-578.89 1048.8,-568.29 1044.8,-552.95 1044.15,-537.75"/>
<polygon fill="#990078" stroke="#990078" points="1047.65,-537.79 1044.21,-527.77 1040.65,-537.75 1047.65,-537.79"/>
<text text-anchor="middle" x="1134.62" y="-565.59" font-family="Times,serif" font-size="14.00" fill="#990078">I&#39;m one of your dad&#39;s</text>
<text text-anchor="middle" x="1134.62" y="-548.34" font-family="Times,serif" font-size="14.00" fill="#990078">guards.</text>
</g>
<!-- Node004 -->
<g id="node33" class="node">
<title>Node004</title>
<ellipse fill="#ffffff" stroke="#000000" cx="1519" cy="-484.14" rx="117.91" ry="42.25"/>
<text text-anchor="middle" x="1519" y="-496.72" font-family="Times,serif" font-size="14.00">He&#39;s inside. In his</text>
<text text-anchor="middle" x="1519" y="-479.47" font-family="Times,serif" font-size="14.00">office. He&#39;s always in</text>
<text text-anchor="middle" x="1519" y="-462.22" font-family="Times,serif" font-size="14.00">there.</text>
</g>
<!-- Node001&#45;&gt;Node004 -->
<g id="edge15" class="edge">
<title>Node001&#45;&gt;Node004</title>
<path fill="none" stroke="#00998d" d="M1535.39,-597.55C1533.03,-591.36 1530.91,-585.05 1529.25,-578.89 1525.68,-565.67 1523.35,-551.08 1521.83,-537.43"/>
<polygon fill="#00998d" stroke="#00998d" points="1525.24,-537.33 1520.78,-527.73 1518.27,-538.02 1525.24,-537.33"/>
<text text-anchor="middle" x="1596.38" y="-556.97" font-family="Times,serif" font-size="14.00" fill="#00998d">Where&#39;s your dad?</text>
</g>
<!-- Node006 -->
<g id="node34" class="node">
<title>Node006</title>
<ellipse fill="#ffffff" stroke="#000000" cx="1189" cy="-299.7" rx="123.21" ry="54.45"/>
<text text-anchor="middle" x="1189" y="-320.9" font-family="Times,serif" font-size="14.00">You&#39;re not a nice man,</text>
<text text-anchor="middle" x="1189" y="-303.65" font-family="Times,serif" font-size="14.00">you&#39;re a bad man! I&#39;m</text>
<text text-anchor="middle" x="1189" y="-286.4" font-family="Times,serif" font-size="14.00">going to go tell my</text>
<text text-anchor="middle" x="1189" y="-269.15" font-family="Times,serif" font-size="14.00">daddy!</text>
</g>
<!-- Node001&#45;&gt;Node006 -->
<g id="edge16" class="edge">
<title>Node001&#45;&gt;Node006</title>
<path fill="none" stroke="#996100" d="M1463.64,-613.96C1367.06,-577.83 1233.23,-527.6 1232.25,-526.39 1188.66,-472.48 1223.54,-439.93 1209,-372.14 1208.46,-369.65 1207.89,-367.11 1207.29,-364.55"/>
<polygon fill="#996100" stroke="#996100" points="1210.48,-363.84 1204.69,-354.97 1203.68,-365.51 1210.48,-363.84"/>
<text text-anchor="middle" x="1312.88" y="-496.72" font-family="Times,serif" font-size="14.00" fill="#996100">See this knife? I&#39;ve</text>
<text text-anchor="middle" x="1312.88" y="-479.47" font-family="Times,serif" font-size="14.00" fill="#996100">gutted little kids nicer</text>
<text text-anchor="middle" x="1312.88" y="-462.22" font-family="Times,serif" font-size="14.00" fill="#996100">than you.</text>
</g>
<!-- Node014&#45;&gt;Node999 -->
<g id="edge30" class="edge">
<title>Node014&#45;&gt;Node999</title>
<path fill="none" stroke="#540099" d="M2610.1,-269.35C2596.69,-240.87 2575.96,-196.39 2558.75,-157.5 2542.25,-120.21 2556.22,-96.64 2523,-73 2459.49,-27.8 1901.38,-20.4 1749.83,-19.22"/>
<polygon fill="#540099" stroke="#540099" points="1750.26,-15.71 1740.23,-19.14 1750.21,-22.71 1750.26,-15.71"/>
<text text-anchor="middle" x="2641.12" y="-110.57" font-family="Times,serif" font-size="14.00" fill="#540099">You got me wrong, kid.</text>
</g>
<!-- Node999c -->
<g id="node44" class="node">
<title>Node999c</title>
<ellipse fill="#ffffff" stroke="#000000" cx="2759" cy="-115.25" rx="27" ry="18"/>
</g>
<!-- Node014&#45;&gt;Node999c -->
<g id="edge29" class="edge">
<title>Node014&#45;&gt;Node999c</title>
<path fill="none" stroke="#998000" d="M2645.39,-269.79C2671.9,-233.97 2716.57,-173.6 2741.26,-140.23"/>
<polygon fill="#998000" stroke="#998000" points="2744.53,-142.69 2747.66,-132.57 2738.9,-138.53 2744.53,-142.69"/>
<text text-anchor="middle" x="2807.62" y="-213.95" font-family="Times,serif" font-size="14.00" fill="#998000">That&#39;s right, I&#39;m the</text>
<text text-anchor="middle" x="2807.62" y="-196.7" font-family="Times,serif" font-size="14.00" fill="#998000">boogy man! And I&#39;m gonna</text>
<text text-anchor="middle" x="2807.62" y="-179.45" font-family="Times,serif" font-size="14.00" fill="#998000">eat you.</text>
</g>
<!-- Node129a -->
<g id="node38" class="node">
<title>Node129a</title>
<ellipse fill="#ffffff" stroke="#000000" cx="2447" cy="-299.7" rx="27" ry="18"/>
</g>
<!-- Node007&#45;&gt;Node129a -->
<g id="edge25" class="edge">
<title>Node007&#45;&gt;Node129a</title>
<path fill="none" stroke="#010099" d="M2094.65,-474.55C2186.76,-461.93 2321.42,-430.81 2411,-354.14 2420.05,-346.4 2427.8,-335.84 2433.77,-326.16"/>
<polygon fill="#010099" stroke="#010099" points="2437.14,-328.32 2439.12,-317.91 2431.09,-324.81 2437.14,-328.32"/>
<text text-anchor="middle" x="2462.38" y="-401.97" font-family="Times,serif" font-size="14.00" fill="#010099">Go ask your father if I</text>
<text text-anchor="middle" x="2462.38" y="-384.72" font-family="Times,serif" font-size="14.00" fill="#010099">can see him.</text>
</g>
<!-- Node010 -->
<g id="node39" class="node">
<title>Node010</title>
<ellipse fill="#ffffff" stroke="#000000" cx="1967" cy="-299.7" rx="134.88" ry="30.05"/>
<text text-anchor="middle" x="1967" y="-303.65" font-family="Times,serif" font-size="14.00">News about Mr. Mishop.</text>
<text text-anchor="middle" x="1967" y="-286.4" font-family="Times,serif" font-size="14.00">Okay?</text>
</g>
<!-- Node007&#45;&gt;Node010 -->
<g id="edge26" class="edge">
<title>Node007&#45;&gt;Node010</title>
<path fill="none" stroke="#2c9900" d="M1988.82,-453.83C1984.44,-423.11 1977.54,-374.65 1972.67,-340.49"/>
<polygon fill="#2c9900" stroke="#2c9900" points="1976.04,-340.34 1971.17,-330.94 1969.11,-341.33 1976.04,-340.34"/>
<text text-anchor="middle" x="2072.88" y="-410.59" font-family="Times,serif" font-size="14.00" fill="#2c9900">Tell you father I have</text>
<text text-anchor="middle" x="2072.88" y="-393.34" font-family="Times,serif" font-size="14.00" fill="#2c9900">news about Mr. Bishop.</text>
<text text-anchor="middle" x="2072.88" y="-376.09" font-family="Times,serif" font-size="14.00" fill="#2c9900">Can you remember that?</text>
</g>
<!-- Node008 -->
<g id="node40" class="node">
<title>Node008</title>
<ellipse fill="#ffffff" stroke="#000000" cx="2261" cy="-299.7" rx="140.71" ry="30.05"/>
<text text-anchor="middle" x="2261" y="-303.65" font-family="Times,serif" font-size="14.00">You&#39;re a poop brain! Poop</text>
<text text-anchor="middle" x="2261" y="-286.4" font-family="Times,serif" font-size="14.00">brain!</text>
</g>
<!-- Node007&#45;&gt;Node008 -->
<g id="edge27" class="edge">
<title>Node007&#45;&gt;Node008</title>
<path fill="none" stroke="#990058" d="M2076.48,-465.23C2106.55,-456.13 2139.55,-442.85 2166,-423.89 2197.12,-401.58 2222.91,-366.2 2239.73,-339.06"/>
<polygon fill="#990058" stroke="#990058" points="2243.12,-341.21 2245.3,-330.84 2237.13,-337.59 2243.12,-341.21"/>
<text text-anchor="middle" x="2237.62" y="-393.34" font-family="Times,serif" font-size="14.00" fill="#990058">Fnuh.</text>
</g>
<!-- destroy_p_proc -->
<g id="node22" class="node">
<title>destroy_p_proc</title>
<ellipse fill="#ffffff" stroke="#000000" cx="2072" cy="-809.43" rx="27" ry="18"/>
</g>
<!-- look_at_p_proc -->
<g id="node23" class="node">
<title>look_at_p_proc</title>
<ellipse fill="#ffffff" stroke="#000000" cx="2335" cy="-809.43" rx="116.32" ry="66.64"/>
<text text-anchor="middle" x="2335" y="-839.26" font-family="Times,serif" font-size="14.00">You see a snot&#45;nosed</text>
<text text-anchor="middle" x="2335" y="-822.01" font-family="Times,serif" font-size="14.00">little kid.</text>
<text text-anchor="middle" x="2335" y="-804.76" font-family="Times,serif" font-size="14.00">&#45;&#45;&#45;</text>
<text text-anchor="middle" x="2335" y="-787.51" font-family="Times,serif" font-size="14.00">It&#39;s Vice&#45;President</text>
<text text-anchor="middle" x="2335" y="-770.26" font-family="Times,serif" font-size="14.00">Carlson&#39;s kid</text>
</g>
<!-- description_p_proc -->
<g id="node24" class="node">
<title>description_p_proc</title>
<ellipse fill="#ffffff" stroke="#000000" cx="2630" cy="-809.43" rx="109.96" ry="30.05"/>
<text text-anchor="middle" x="2630" y="-813.38" font-family="Times,serif" font-size="14.00">Looks like a spoiled</text>
<text text-anchor="middle" x="2630" y="-796.13" font-family="Times,serif" font-size="14.00">little runt. Fat, too.</text>
</g>
<!-- use_skill_on_p_proc -->
<g id="node25" class="node">
<title>use_skill_on_p_proc</title>
<ellipse fill="#ffffff" stroke="#000000" cx="2810" cy="-809.43" rx="27" ry="18"/>
</g>
<!-- damage_p_proc -->
<g id="node26" class="node">
<title>damage_p_proc</title>
<ellipse fill="#ffffff" stroke="#000000" cx="2895" cy="-809.43" rx="27" ry="18"/>
</g>
<!-- map_enter_p_proc -->
<g id="node27" class="node">
<title>map_enter_p_proc</title>
<ellipse fill="#ffffff" stroke="#000000" cx="2973" cy="-809.43" rx="27" ry="18"/>
</g>
<!-- tvar_Warp_To_Pos(0, game_time + game_ticks(1)) -->
<g id="node28" class="node">
<title>tvar_Warp_To_Pos(0, game_time + game_ticks(1))</title>
<ellipse fill="none" stroke="black" cx="2973" cy="-651.34" rx="260.07" ry="18"/>
<text text-anchor="middle" x="2973" y="-646.67" font-family="Times,serif" font-size="14.00">tvar_Warp_To_Pos(0, game_time + game_ticks(1))</text>
</g>
<!-- map_enter_p_proc&#45;&gt;tvar_Warp_To_Pos(0, game_time + game_ticks(1)) -->
<g id="edge13" class="edge">
<title>map_enter_p_proc&#45;&gt;tvar_Warp_To_Pos(0, game_time + game_ticks(1))</title>
<path fill="none" stroke="#555555" stroke-dasharray="1,5" d="M2973,-791.13C2973,-764.41 2973,-712.82 2973,-680.62"/>
<polygon fill="#555555" stroke="#555555" points="2976.5,-680.72 2973,-670.72 2969.5,-680.72 2976.5,-680.72"/>
</g>
<!-- push_p_proc -->
<g id="node29" class="node">
<title>push_p_proc</title>
<ellipse fill="#ffffff" stroke="#000000" cx="3045" cy="-809.43" rx="27" ry="18"/>
</g>
<!-- Node998 -->
<g id="node30" class="node">
<title>Node998</title>
<ellipse fill="#ffffff" stroke="#000000" cx="3117" cy="-809.43" rx="27" ry="18"/>
</g>
<!-- Node003&#45;&gt;Node999 -->
<g id="edge20" class="edge">
<title>Node003&#45;&gt;Node999</title>
<path fill="none" stroke="#005299" d="M1041.28,-441.53C1030.78,-391.24 1021.07,-305.83 1057,-245.25 1160.6,-70.57 1271.32,-85.21 1472,-54 1543.84,-42.83 1627.95,-30.81 1675.09,-24.16"/>
<polygon fill="#005299" stroke="#005299" points="1675.28,-27.53 1684.7,-22.67 1674.31,-20.6 1675.28,-27.53"/>
<text text-anchor="middle" x="1156.25" y="-196.7" font-family="Times,serif" font-size="14.00" fill="#005299">Right. Oh boy.</text>
</g>
<!-- Node003&#45;&gt;Node006 -->
<g id="edge19" class="edge">
<title>Node003&#45;&gt;Node006</title>
<path fill="none" stroke="#990025" d="M1059.71,-441.49C1065.33,-419.32 1074.67,-392.51 1089.75,-372.14 1095.32,-364.63 1101.91,-357.58 1109,-351.06"/>
<polygon fill="#990025" stroke="#990025" points="1110.64,-353.41 1115.88,-344.21 1106.04,-348.13 1110.64,-353.41"/>
<text text-anchor="middle" x="1149.62" y="-401.97" font-family="Times,serif" font-size="14.00" fill="#990025">Oh? How about I</text>
<text text-anchor="middle" x="1149.62" y="-384.72" font-family="Times,serif" font-size="14.00" fill="#990025">(whisper).</text>
</g>
<!-- Node004&#45;&gt;Node999 -->
<g id="edge22" class="edge">
<title>Node004&#45;&gt;Node999</title>
<path fill="none" stroke="#870099" d="M1453.6,-448.71C1418.93,-426.68 1379.39,-394.61 1359,-354.14 1323.25,-283.21 1327.4,-250.43 1353.75,-175.5 1379.26,-102.94 1403.31,-76.06 1477,-54 1544.72,-33.73 1627.08,-24.91 1674.14,-21.3"/>
<polygon fill="#870099" stroke="#870099" points="1674.31,-24.72 1684.03,-20.51 1673.8,-17.74 1674.31,-24.72"/>
<text text-anchor="middle" x="1403.12" y="-196.7" font-family="Times,serif" font-size="14.00" fill="#870099">Okay. Thanks.</text>
</g>
<!-- Node005 -->
<g id="node36" class="node">
<title>Node005</title>
<ellipse fill="#ffffff" stroke="#000000" cx="1504" cy="-299.7" rx="136.47" ry="54.45"/>
<text text-anchor="middle" x="1504" y="-320.9" font-family="Times,serif" font-size="14.00">By the water tank. I play</text>
<text text-anchor="middle" x="1504" y="-303.65" font-family="Times,serif" font-size="14.00">over there sometimes. &#160;I</text>
<text text-anchor="middle" x="1504" y="-286.4" font-family="Times,serif" font-size="14.00">peek on him while he&#39;s</text>
<text text-anchor="middle" x="1504" y="-269.15" font-family="Times,serif" font-size="14.00">working.</text>
</g>
<!-- Node004&#45;&gt;Node005 -->
<g id="edge21" class="edge">
<title>Node004&#45;&gt;Node005</title>
<path fill="none" stroke="#7e9900" d="M1515.6,-441.74C1513.74,-419.11 1511.39,-390.58 1509.3,-365.11"/>
<polygon fill="#7e9900" stroke="#7e9900" points="1512.72,-365.09 1508.42,-355.41 1505.75,-365.66 1512.72,-365.09"/>
<text text-anchor="middle" x="1581.12" y="-393.34" font-family="Times,serif" font-size="14.00" fill="#7e9900">Where&#39;s his office?</text>
</g>
<!-- Node002 -->
<g id="node35" class="node">
<title>Node002</title>
<ellipse fill="#ffffff" stroke="#000000" cx="3293" cy="-809.43" rx="131.17" ry="42.25"/>
<text text-anchor="middle" x="3293" y="-822.01" font-family="Times,serif" font-size="14.00">? That&#39;s a crappy name.</text>
<text text-anchor="middle" x="3293" y="-804.76" font-family="Times,serif" font-size="14.00">You got a stupid name!</text>
<text text-anchor="middle" x="3293" y="-787.51" font-family="Times,serif" font-size="14.00">Stupid name!</text>
</g>
<!-- Node005&#45;&gt;Node999 -->
<g id="edge24" class="edge">
<title>Node005&#45;&gt;Node999</title>
<path fill="none" stroke="#992e00" d="M1479.19,-246C1468.28,-219.98 1456.72,-187.76 1451.25,-157.5 1444.57,-120.54 1427.54,-102.12 1451.25,-73 1478.98,-38.94 1609.19,-25.69 1674.48,-21.13"/>
<polygon fill="#992e00" stroke="#992e00" points="1674.38,-24.57 1684.13,-20.42 1673.92,-17.59 1674.38,-24.57"/>
<text text-anchor="middle" x="1543.88" y="-119.2" font-family="Times,serif" font-size="14.00" fill="#992e00">Thanks kid, you&#39;ve been a</text>
<text text-anchor="middle" x="1543.88" y="-101.95" font-family="Times,serif" font-size="14.00" fill="#992e00">big help.</text>
</g>
<!-- Node999a -->
<g id="node37" class="node">
<title>Node999a</title>
<ellipse fill="#ffffff" stroke="#000000" cx="1671" cy="-115.25" rx="27" ry="18"/>
</g>
<!-- Node005&#45;&gt;Node999a -->
<g id="edge23" class="edge">
<title>Node005&#45;&gt;Node999a</title>
<path fill="none" stroke="#00995a" d="M1503.42,-244.89C1506.04,-220.52 1513.48,-193.26 1532,-175.5 1563.96,-144.85 1590.82,-178.15 1630,-157.5 1638.35,-153.1 1646.06,-146.42 1652.5,-139.7"/>
<polygon fill="#00995a" stroke="#00995a" points="1654.37,-142.74 1658.42,-132.94 1649.15,-138.07 1654.37,-142.74"/>
<text text-anchor="middle" x="1619" y="-205.32" font-family="Times,serif" font-size="14.00" fill="#00995a">You&#39;re an annoying little</text>
<text text-anchor="middle" x="1619" y="-188.07" font-family="Times,serif" font-size="14.00" fill="#00995a">brat, aren&#39;t you?</text>
</g>
<!-- Node999a&#45;&gt;Node999 -->
<g id="edge33" class="edge">
<title>Node999a&#45;&gt;Node999</title>
<path fill="none" stroke="#555555" stroke-dasharray="1,5" d="M1678.14,-97.66C1684.34,-83.27 1693.41,-62.19 1700.61,-45.47"/>
<polygon fill="#555555" stroke="#555555" points="1704.06,-47.29 1704.8,-36.72 1697.63,-44.52 1704.06,-47.29"/>
</g>
<!-- Node009 -->
<g id="node41" class="node">
<title>Node009</title>
<ellipse fill="#ffffff" stroke="#000000" cx="2230" cy="-115.25" rx="38.06" ry="18"/>
<text text-anchor="middle" x="2230" y="-110.57" font-family="Times,serif" font-size="14.00">Okay.</text>
</g>
<!-- Node129a&#45;&gt;Node009 -->
<g id="edge35" class="edge">
<title>Node129a&#45;&gt;Node009</title>
<path fill="none" stroke="#555555" stroke-dasharray="1,5" d="M2438.39,-282.5C2431.87,-271.21 2422.15,-256.25 2411,-245.25 2360.34,-195.24 2333.67,-200.58 2277,-157.5 2269.42,-151.74 2261.52,-145.08 2254.41,-138.82"/>
<polygon fill="#555555" stroke="#555555" points="2257.27,-136.79 2247.48,-132.73 2252.6,-142.01 2257.27,-136.79"/>
</g>
<!-- Node012 -->
<g id="node43" class="node">
<title>Node012</title>
<ellipse fill="#ffffff" stroke="#000000" cx="2400" cy="-115.25" rx="113.67" ry="42.25"/>
<text text-anchor="middle" x="2400" y="-127.82" font-family="Times,serif" font-size="14.00">I told Daddy that. I</text>
<text text-anchor="middle" x="2400" y="-110.57" font-family="Times,serif" font-size="14.00">think he doesn&#39;t like</text>
<text text-anchor="middle" x="2400" y="-93.32" font-family="Times,serif" font-size="14.00">you.</text>
</g>
<!-- Node129a&#45;&gt;Node012 -->
<g id="edge34" class="edge">
<title>Node129a&#45;&gt;Node012</title>
<path fill="none" stroke="#555555" stroke-dasharray="1,5" d="M2442.58,-281.53C2435.96,-255.83 2423.19,-206.28 2413.36,-168.11"/>
<polygon fill="#555555" stroke="#555555" points="2416.56,-167.49 2410.67,-158.68 2409.78,-169.23 2416.56,-167.49"/>
</g>
<!-- Node999b -->
<g id="node42" class="node">
<title>Node999b</title>
<ellipse fill="#ffffff" stroke="#000000" cx="1825" cy="-115.25" rx="27" ry="18"/>
</g>
<!-- Node010&#45;&gt;Node999b -->
<g id="edge28" class="edge">
<title>Node010&#45;&gt;Node999b</title>
<path fill="none" stroke="#008599" d="M1944.5,-269.79C1916.62,-233.97 1869.63,-173.6 1843.66,-140.23"/>
<polygon fill="#008599" stroke="#008599" points="1845.83,-138.31 1836.93,-132.57 1840.31,-142.61 1845.83,-138.31"/>
<text text-anchor="middle" x="1958.12" y="-196.7" font-family="Times,serif" font-size="14.00" fill="#008599">Good enough.</text>
</g>
<!-- Node999b&#45;&gt;Node999 -->
<g id="edge36" class="edge">
<title>Node999b&#45;&gt;Node999</title>
<path fill="none" stroke="#555555" stroke-dasharray="1,5" d="M1808.81,-100.6C1789.85,-84.62 1758.24,-57.98 1736.32,-39.5"/>
<polygon fill="#555555" stroke="#555555" points="1739.06,-36.39 1729.16,-32.62 1734.55,-41.74 1739.06,-36.39"/>
</g>
<!-- Node999c&#45;&gt;Node999 -->
<g id="edge37" class="edge">
<title>Node999c&#45;&gt;Node999</title>
<path fill="none" stroke="#555555" stroke-dasharray="1,5" d="M2747.88,-98.72C2740.5,-89.65 2729.97,-78.86 2718,-73 2656.07,-42.66 2632.73,-59.64 2564,-54 2250.26,-28.24 1869.89,-21.13 1750.04,-19.46"/>
<polygon fill="#555555" stroke="#555555" points="1750.32,-15.95 1740.27,-19.31 1750.22,-22.94 1750.32,-15.95"/>
</g>
<!-- destCall -->
<g id="node45" class="node">
<title>destCall</title>
<ellipse fill="#ffffff" stroke="#000000" cx="3469" cy="-809.43" rx="27" ry="18"/>
</g>
<!-- timed_event_p_proc -->
<g id="node47" class="node">
<title>timed_event_p_proc</title>
<ellipse fill="#ffffff" stroke="#000000" cx="675" cy="-809.43" rx="27" ry="18"/>
</g>
<!-- timed_event_p_proc&#45;&gt;anim_end_call -->
<g id="edge32" class="edge">
<title>timed_event_p_proc&#45;&gt;anim_end_call</title>
<path fill="none" stroke="#555555" stroke-dasharray="1,5" d="M671.01,-791.13C664.79,-764.15 652.72,-711.82 645.31,-679.69"/>
<polygon fill="#555555" stroke="#555555" points="648.56,-679.2 642.9,-670.24 641.74,-680.77 648.56,-679.2"/>
</g>
</g>
</svg>
