<?xml version="1.0" encoding="UTF-8" standalone="no"?>
<!DOCTYPE svg PUBLIC "-//W3C//DTD SVG 1.1//EN"
 "http://www.w3.org/Graphics/SVG/1.1/DTD/svg11.dtd">
<!-- Generated by graphviz version 8.0.5 (0)
 -->
<!-- Title: scslaves Pages: 1 -->
<svg width="1748pt" height="237pt"
 viewBox="0.00 0.00 1748.00 237.39" xmlns="http://www.w3.org/2000/svg" xmlns:xlink="http://www.w3.org/1999/xlink">
<g id="graph0" class="graph" transform="scale(1 1) rotate(0) translate(4 233.39)">
<title>scslaves</title>
<polygon fill="white" stroke="none" points="-4,4 -4,-233.39 1744,-233.39 1744,4 -4,4"/>
<!-- checkPartyMembersNearDoor -->
<g id="node1" class="node">
<title>checkPartyMembersNearDoor</title>
<ellipse fill="#ffffff" stroke="#000000" cx="27" cy="-162.75" rx="27" ry="18"/>
</g>
<!-- start -->
<g id="node2" class="node">
<title>start</title>
<ellipse fill="#ffffff" stroke="#000000" cx="99" cy="-162.75" rx="27" ry="18"/>
</g>
<!-- critter_p_proc -->
<g id="node3" class="node">
<title>critter_p_proc</title>
<ellipse fill="#ffffff" stroke="#000000" cx="171" cy="-162.75" rx="27" ry="18"/>
</g>
<!-- RunForIt -->
<g id="node4" class="node">
<title>RunForIt</title>
<ellipse fill="#ffffff" stroke="#000000" cx="207" cy="-30.05" rx="27" ry="18"/>
</g>
<!-- critter_p_proc&#45;&gt;RunForIt -->
<g id="edge1" class="edge">
<title>critter_p_proc&#45;&gt;RunForIt</title>
<path fill="none" stroke="#555555" stroke-dasharray="1,5" d="M175.71,-144.66C181.74,-122.75 192.29,-84.46 199.45,-58.45"/>
<polygon fill="#555555" stroke="#555555" points="203.01,-59.71 202.29,-49.14 196.26,-57.85 203.01,-59.71"/>
</g>
<!-- pickup_p_proc -->
<g id="node5" class="node">
<title>pickup_p_proc</title>
<ellipse fill="#ffffff" stroke="#000000" cx="457" cy="-162.75" rx="27" ry="18"/>
</g>
<!-- talk_p_proc -->
<g id="node6" class="node">
<title>talk_p_proc</title>
<ellipse fill="#ffffff" stroke="#000000" cx="671" cy="-162.75" rx="27" ry="18"/>
</g>
<!-- Node002 -->
<g id="node7" class="node">
<title>Node002</title>
<ellipse fill="#ffffff" stroke="#000000" cx="390" cy="-30.05" rx="137.53" ry="30.05"/>
<text text-anchor="middle" x="390" y="-34" font-family="Times,serif" font-size="14.00">No more! Please, not the</text>
<text text-anchor="middle" x="390" y="-16.75" font-family="Times,serif" font-size="14.00">House of Pain!</text>
</g>
<!-- talk_p_proc&#45;&gt;Node002 -->
<g id="edge2" class="edge">
<title>talk_p_proc&#45;&gt;Node002</title>
<path fill="none" stroke="#555555" stroke-dasharray="1,5" d="M649.42,-151.71C608.86,-132.84 519.72,-91.39 457.32,-62.36"/>
<polygon fill="#555555" stroke="#555555" points="459.09,-58.86 448.54,-57.82 456.13,-65.21 459.09,-58.86"/>
</g>
<!-- Node001 -->
<g id="node8" class="node">
<title>Node001</title>
<ellipse fill="#ffffff" stroke="#000000" cx="671" cy="-30.05" rx="125.87" ry="30.05"/>
<text text-anchor="middle" x="671" y="-34" font-family="Times,serif" font-size="14.00">Help me! Please, don&#39;t</text>
<text text-anchor="middle" x="671" y="-16.75" font-family="Times,serif" font-size="14.00">turn your back on me.</text>
</g>
<!-- talk_p_proc&#45;&gt;Node001 -->
<g id="edge3" class="edge">
<title>talk_p_proc&#45;&gt;Node001</title>
<path fill="none" stroke="#555555" stroke-dasharray="1,5" d="M671,-144.39C671,-125.85 671,-95.81 671,-71.31"/>
<polygon fill="#555555" stroke="#555555" points="674.5,-71.51 671,-61.51 667.5,-71.51 674.5,-71.51"/>
</g>
<!-- Node003 -->
<g id="node9" class="node">
<title>Node003</title>
<ellipse fill="#ffffff" stroke="#000000" cx="951" cy="-30.05" rx="136.47" ry="30.05"/>
<text text-anchor="middle" x="951" y="-34" font-family="Times,serif" font-size="14.00">Freedom! Sweet blessed</text>
<text text-anchor="middle" x="951" y="-16.75" font-family="Times,serif" font-size="14.00">freedom!</text>
</g>
<!-- talk_p_proc&#45;&gt;Node003 -->
<g id="edge4" class="edge">
<title>talk_p_proc&#45;&gt;Node003</title>
<path fill="none" stroke="#555555" stroke-dasharray="1,5" d="M676.09,-144.67C681.42,-129.7 691.25,-108.45 707,-96.1 718.64,-86.98 785.81,-69.4 846.73,-54.81"/>
<polygon fill="#555555" stroke="#555555" points="847.31,-58.03 856.22,-52.31 845.68,-51.22 847.31,-58.03"/>
</g>
<!-- destroy_p_proc -->
<g id="node10" class="node">
<title>destroy_p_proc</title>
<ellipse fill="#ffffff" stroke="#000000" cx="743" cy="-162.75" rx="27" ry="18"/>
</g>
<!-- look_at_p_proc -->
<g id="node11" class="node">
<title>look_at_p_proc</title>
<ellipse fill="#ffffff" stroke="#000000" cx="928" cy="-162.75" rx="140.18" ry="66.64"/>
<text text-anchor="middle" x="928" y="-192.57" font-family="Times,serif" font-size="14.00">You see a miserable</text>
<text text-anchor="middle" x="928" y="-175.32" font-family="Times,serif" font-size="14.00">wretch of human being.</text>
<text text-anchor="middle" x="928" y="-158.07" font-family="Times,serif" font-size="14.00">&#45;&#45;&#45;</text>
<text text-anchor="middle" x="928" y="-140.82" font-family="Times,serif" font-size="14.00">You still see a miserable</text>
<text text-anchor="middle" x="928" y="-123.57" font-family="Times,serif" font-size="14.00">wretch of a human being.</text>
</g>
<!-- description_p_proc -->
<g id="node12" class="node">
<title>description_p_proc</title>
<ellipse fill="#ffffff" stroke="#000000" cx="1233" cy="-162.75" rx="146.55" ry="54.45"/>
<text text-anchor="middle" x="1233" y="-183.95" font-family="Times,serif" font-size="14.00">You see a really, really</text>
<text text-anchor="middle" x="1233" y="-166.7" font-family="Times,serif" font-size="14.00">miserable wretch of a</text>
<text text-anchor="middle" x="1233" y="-149.45" font-family="Times,serif" font-size="14.00">human being. Why are you</text>
<text text-anchor="middle" x="1233" y="-132.2" font-family="Times,serif" font-size="14.00">staring?</text>
</g>
<!-- use_skill_on_p_proc -->
<g id="node13" class="node">
<title>use_skill_on_p_proc</title>
<ellipse fill="#ffffff" stroke="#000000" cx="1425" cy="-162.75" rx="27" ry="18"/>
</g>
<!-- damage_p_proc -->
<g id="node14" class="node">
<title>damage_p_proc</title>
<ellipse fill="#ffffff" stroke="#000000" cx="1497" cy="-162.75" rx="27" ry="18"/>
</g>
<!-- map_enter_p_proc -->
<g id="node15" class="node">
<title>map_enter_p_proc</title>
<ellipse fill="#ffffff" stroke="#000000" cx="243" cy="-162.75" rx="27" ry="18"/>
</g>
<!-- map_enter_p_proc&#45;&gt;RunForIt -->
<g id="edge5" class="edge">
<title>map_enter_p_proc&#45;&gt;RunForIt</title>
<path fill="none" stroke="#555555" stroke-dasharray="1,5" d="M238.29,-144.66C232.26,-122.75 221.71,-84.46 214.55,-58.45"/>
<polygon fill="#555555" stroke="#555555" points="217.74,-57.85 211.71,-49.14 210.99,-59.71 217.74,-57.85"/>
</g>
<!-- Node998 -->
<g id="node16" class="node">
<title>Node998</title>
<ellipse fill="#ffffff" stroke="#000000" cx="1569" cy="-162.75" rx="27" ry="18"/>
</g>
<!-- Node999 -->
<g id="node17" class="node">
<title>Node999</title>
<ellipse fill="#ffffff" stroke="#000000" cx="1641" cy="-162.75" rx="27" ry="18"/>
</g>
<!-- checkRunTile -->
<g id="node18" class="node">
<title>checkRunTile</title>
<ellipse fill="#ffffff" stroke="#000000" cx="1713" cy="-30.05" rx="27" ry="18"/>
</g>
<!-- timed_event_p_proc -->
<g id="node19" class="node">
<title>timed_event_p_proc</title>
<ellipse fill="#ffffff" stroke="#000000" cx="1713" cy="-162.75" rx="27" ry="18"/>
</g>
<!-- timed_event_p_proc&#45;&gt;checkRunTile -->
<g id="edge6" class="edge">
<title>timed_event_p_proc&#45;&gt;checkRunTile</title>
<path fill="none" stroke="#555555" stroke-dasharray="1,5" d="M1713,-144.39C1713,-122.72 1713,-85.34 1713,-59.46"/>
<polygon fill="#555555" stroke="#555555" points="1716.5,-59.48 1713,-49.48 1709.5,-59.48 1716.5,-59.48"/>
</g>
</g>
</svg>
