<?xml version="1.0" encoding="UTF-8" standalone="no"?>
<!DOCTYPE svg PUBLIC "-//W3C//DTD SVG 1.1//EN"
 "http://www.w3.org/Graphics/SVG/1.1/DTD/svg11.dtd">
<!-- Generated by graphviz version 8.0.5 (0)
 -->
<!-- Title: siterm Pages: 1 -->
<svg width="1248pt" height="406pt"
 viewBox="0.00 0.00 1248.00 405.79" xmlns="http://www.w3.org/2000/svg" xmlns:xlink="http://www.w3.org/1999/xlink">
<g id="graph0" class="graph" transform="scale(1 1) rotate(0) translate(4 401.79)">
<title>siterm</title>
<polygon fill="white" stroke="none" points="-4,4 -4,-401.79 1244,-401.79 1244,4 -4,4"/>
<!-- checkPartyMembersNearDoor -->
<g id="node1" class="node">
<title>checkPartyMembersNearDoor</title>
<ellipse fill="#ffffff" stroke="#000000" cx="27" cy="-343.34" rx="27" ry="18"/>
</g>
<!-- start -->
<g id="node2" class="node">
<title>start</title>
<ellipse fill="#ffffff" stroke="#000000" cx="99" cy="-343.34" rx="27" ry="18"/>
</g>
<!-- use_p_proc -->
<g id="node3" class="node">
<title>use_p_proc</title>
<ellipse fill="#ffffff" stroke="#000000" cx="171" cy="-343.34" rx="27" ry="18"/>
</g>
<!-- use_skill_on_p_proc -->
<g id="node4" class="node">
<title>use_skill_on_p_proc</title>
<ellipse fill="#ffffff" stroke="#000000" cx="171" cy="-198.45" rx="139.12" ry="54.45"/>
<text text-anchor="middle" x="171" y="-219.65" font-family="Times,serif" font-size="14.00">Invalid code sequence.</text>
<text text-anchor="middle" x="171" y="-202.4" font-family="Times,serif" font-size="14.00">&#45;&#45;&#45;</text>
<text text-anchor="middle" x="171" y="-185.15" font-family="Times,serif" font-size="14.00">Hmmm, these computer</text>
<text text-anchor="middle" x="171" y="-167.9" font-family="Times,serif" font-size="14.00">thingies are complicated.</text>
</g>
<!-- use_p_proc&#45;&gt;use_skill_on_p_proc -->
<g id="edge1" class="edge">
<title>use_p_proc&#45;&gt;use_skill_on_p_proc</title>
<path fill="none" stroke="#555555" stroke-dasharray="1,5" d="M171,-325.11C171,-309.86 171,-286.62 171,-264.26"/>
<polygon fill="#555555" stroke="#555555" points="174.5,-264.39 171,-254.39 167.5,-264.39 174.5,-264.39"/>
</g>
<!-- use_success -->
<g id="node7" class="node">
<title>use_success</title>
<ellipse fill="#ffffff" stroke="#000000" cx="99" cy="-90" rx="27" ry="18"/>
</g>
<!-- use_skill_on_p_proc&#45;&gt;use_success -->
<g id="edge2" class="edge">
<title>use_skill_on_p_proc&#45;&gt;use_success</title>
<path fill="none" stroke="#555555" stroke-dasharray="1,5" d="M135.84,-145.47C128.82,-135.08 121.75,-124.63 115.71,-115.7"/>
<polygon fill="#555555" stroke="#555555" points="118.11,-114.01 109.61,-107.69 112.31,-117.93 118.11,-114.01"/>
</g>
<!-- use_fail -->
<g id="node8" class="node">
<title>use_fail</title>
<ellipse fill="#ffffff" stroke="#000000" cx="171" cy="-90" rx="27" ry="18"/>
</g>
<!-- use_skill_on_p_proc&#45;&gt;use_fail -->
<g id="edge3" class="edge">
<title>use_skill_on_p_proc&#45;&gt;use_fail</title>
<path fill="none" stroke="#555555" stroke-dasharray="1,5" d="M164.25,-143.6C164.26,-134.97 164.51,-126.36 164.99,-118.68"/>
<polygon fill="#555555" stroke="#555555" points="168.55,-119.12 165.91,-108.86 161.58,-118.53 168.55,-119.12"/>
</g>
<!-- use_skill_on_p_proc&#45;&gt;use_fail -->
<g id="edge4" class="edge">
<title>use_skill_on_p_proc&#45;&gt;use_fail</title>
<path fill="none" stroke="#555555" stroke-dasharray="1,5" d="M177.75,-143.6C177.74,-134.97 177.49,-126.36 177.01,-118.68"/>
<polygon fill="#555555" stroke="#555555" points="180.42,-118.53 176.09,-108.86 173.45,-119.12 180.42,-118.53"/>
</g>
<!-- look_at_p_proc -->
<g id="node5" class="node">
<title>look_at_p_proc</title>
<ellipse fill="#ffffff" stroke="#000000" cx="323" cy="-343.34" rx="106.98" ry="18"/>
<text text-anchor="middle" x="323" y="-338.67" font-family="Times,serif" font-size="14.00">You see a terminal.</text>
</g>
<!-- description_p_proc -->
<g id="node6" class="node">
<title>description_p_proc</title>
<ellipse fill="#ffffff" stroke="#000000" cx="565" cy="-343.34" rx="117.38" ry="54.45"/>
<text text-anchor="middle" x="565" y="-364.54" font-family="Times,serif" font-size="14.00">This is a computer</text>
<text text-anchor="middle" x="565" y="-347.29" font-family="Times,serif" font-size="14.00">terminal. It is often</text>
<text text-anchor="middle" x="565" y="-330.04" font-family="Times,serif" font-size="14.00">used to control other</text>
<text text-anchor="middle" x="565" y="-312.79" font-family="Times,serif" font-size="14.00">objects.</text>
</g>
<!-- open_slave_doors -->
<g id="node13" class="node">
<title>open_slave_doors</title>
<ellipse fill="#ffffff" stroke="#000000" cx="63" cy="-18" rx="27" ry="18"/>
</g>
<!-- use_success&#45;&gt;open_slave_doors -->
<g id="edge5" class="edge">
<title>use_success&#45;&gt;open_slave_doors</title>
<path fill="none" stroke="#555555" stroke-dasharray="1,5" d="M90.65,-72.76C86.38,-64.46 81.08,-54.15 76.27,-44.79"/>
<polygon fill="#555555" stroke="#555555" points="78.99,-43.44 71.3,-36.15 72.77,-46.64 78.99,-43.44"/>
</g>
<!-- close_slave_doors -->
<g id="node14" class="node">
<title>close_slave_doors</title>
<ellipse fill="#ffffff" stroke="#000000" cx="135" cy="-18" rx="27" ry="18"/>
</g>
<!-- use_success&#45;&gt;close_slave_doors -->
<g id="edge6" class="edge">
<title>use_success&#45;&gt;close_slave_doors</title>
<path fill="none" stroke="#555555" stroke-dasharray="1,5" d="M107.35,-72.76C111.62,-64.46 116.92,-54.15 121.73,-44.79"/>
<polygon fill="#555555" stroke="#555555" points="125.23,-46.64 126.7,-36.15 119.01,-43.44 125.23,-46.64"/>
</g>
<!-- use_obj_on_p_proc -->
<g id="node9" class="node">
<title>use_obj_on_p_proc</title>
<ellipse fill="#ffffff" stroke="#000000" cx="826" cy="-343.34" rx="125.87" ry="30.05"/>
<text text-anchor="middle" x="826" y="-347.29" font-family="Times,serif" font-size="14.00">Interesting idea, but it</text>
<text text-anchor="middle" x="826" y="-330.04" font-family="Times,serif" font-size="14.00">didn&#39;t work.</text>
</g>
<!-- damage_p_proc -->
<g id="node10" class="node">
<title>damage_p_proc</title>
<ellipse fill="#ffffff" stroke="#000000" cx="997" cy="-343.34" rx="27" ry="18"/>
</g>
<!-- map_enter_p_proc -->
<g id="node11" class="node">
<title>map_enter_p_proc</title>
<ellipse fill="#ffffff" stroke="#000000" cx="1069" cy="-343.34" rx="27" ry="18"/>
</g>
<!-- map_update_p_proc -->
<g id="node12" class="node">
<title>map_update_p_proc</title>
<ellipse fill="#ffffff" stroke="#000000" cx="1141" cy="-343.34" rx="27" ry="18"/>
</g>
<!-- timed_event_p_proc -->
<g id="node15" class="node">
<title>timed_event_p_proc</title>
<ellipse fill="#ffffff" stroke="#000000" cx="1213" cy="-343.34" rx="27" ry="18"/>
</g>
</g>
</svg>
