<?xml version="1.0" encoding="UTF-8" standalone="no"?>
<!DOCTYPE svg PUBLIC "-//W3C//DTD SVG 1.1//EN"
 "http://www.w3.org/Graphics/SVG/1.1/DTD/svg11.dtd">
<!-- Generated by graphviz version 8.0.5 (0)
 -->
<!-- Title: sscomp Pages: 1 -->
<svg width="1220pt" height="334pt"
 viewBox="0.00 0.00 1220.17 333.79" xmlns="http://www.w3.org/2000/svg" xmlns:xlink="http://www.w3.org/1999/xlink">
<g id="graph0" class="graph" transform="scale(1 1) rotate(0) translate(4 329.79)">
<title>sscomp</title>
<polygon fill="white" stroke="none" points="-4,4 -4,-329.79 1216.17,-329.79 1216.17,4 -4,4"/>
<!-- checkPartyMembersNearDoor -->
<g id="node1" class="node">
<title>checkPartyMembersNearDoor</title>
<ellipse fill="#ffffff" stroke="#000000" cx="127.17" cy="-246.95" rx="27" ry="18"/>
</g>
<!-- start -->
<g id="node2" class="node">
<title>start</title>
<ellipse fill="#ffffff" stroke="#000000" cx="199.17" cy="-246.95" rx="27" ry="18"/>
</g>
<!-- use_p_proc -->
<g id="node3" class="node">
<title>use_p_proc</title>
<ellipse fill="#ffffff" stroke="#000000" cx="271.17" cy="-246.95" rx="27" ry="18"/>
</g>
<!-- use_skill_on_p_proc -->
<g id="node4" class="node">
<title>use_skill_on_p_proc</title>
<ellipse fill="#ffffff" stroke="#000000" cx="307.17" cy="-114.1" rx="27" ry="18"/>
</g>
<!-- use_p_proc&#45;&gt;use_skill_on_p_proc -->
<g id="edge1" class="edge">
<title>use_p_proc&#45;&gt;use_skill_on_p_proc</title>
<path fill="none" stroke="#555555" stroke-dasharray="1,5" d="M275.87,-228.84C281.91,-206.9 292.45,-168.58 299.62,-142.54"/>
<polygon fill="#555555" stroke="#555555" points="303.18,-143.78 302.46,-133.21 296.43,-141.93 303.18,-143.78"/>
</g>
<!-- use_success -->
<g id="node7" class="node">
<title>use_success</title>
<ellipse fill="#ffffff" stroke="#000000" cx="96.17" cy="-30.05" rx="96.17" ry="30.05"/>
<text text-anchor="middle" x="96.17" y="-34" font-family="Times,serif" font-size="14.00">On&#45;line. Running</text>
<text text-anchor="middle" x="96.17" y="-16.75" font-family="Times,serif" font-size="14.00">self&#45;test...</text>
</g>
<!-- use_skill_on_p_proc&#45;&gt;use_success -->
<g id="edge2" class="edge">
<title>use_skill_on_p_proc&#45;&gt;use_success</title>
<path fill="none" stroke="#555555" stroke-dasharray="1,5" d="M284.18,-104.17C255.92,-93.18 206.66,-74.02 165.65,-58.07"/>
<polygon fill="#555555" stroke="#555555" points="167.01,-54.46 156.42,-54.1 164.47,-60.98 167.01,-54.46"/>
</g>
<!-- use_fail -->
<g id="node8" class="node">
<title>use_fail</title>
<ellipse fill="#ffffff" stroke="#000000" cx="307.17" cy="-30.05" rx="96.98" ry="18"/>
<text text-anchor="middle" x="307.17" y="-25.38" font-family="Times,serif" font-size="14.00">That didn&#39;t work.</text>
</g>
<!-- use_skill_on_p_proc&#45;&gt;use_fail -->
<g id="edge3" class="edge">
<title>use_skill_on_p_proc&#45;&gt;use_fail</title>
<path fill="none" stroke="#555555" stroke-dasharray="1,5" d="M301.57,-96.1C300.4,-85.39 300.12,-71.31 300.73,-58.99"/>
<polygon fill="#555555" stroke="#555555" points="304.28,-59.55 301.55,-49.31 297.3,-59.02 304.28,-59.55"/>
</g>
<!-- use_skill_on_p_proc&#45;&gt;use_fail -->
<g id="edge4" class="edge">
<title>use_skill_on_p_proc&#45;&gt;use_fail</title>
<path fill="none" stroke="#555555" stroke-dasharray="1,5" d="M312.76,-96.1C313.93,-85.39 314.21,-71.31 313.6,-58.99"/>
<polygon fill="#555555" stroke="#555555" points="317.04,-59.02 312.79,-49.31 310.06,-59.55 317.04,-59.02"/>
</g>
<!-- look_at_p_proc -->
<g id="node5" class="node">
<title>look_at_p_proc</title>
<ellipse fill="#ffffff" stroke="#000000" cx="499.17" cy="-246.95" rx="111.18" ry="18"/>
<text text-anchor="middle" x="499.17" y="-242.27" font-family="Times,serif" font-size="14.00">You see a computer.</text>
</g>
<!-- description_p_proc -->
<g id="node6" class="node">
<title>description_p_proc</title>
<ellipse fill="#ffffff" stroke="#000000" cx="758.17" cy="-246.95" rx="129.58" ry="78.84"/>
<text text-anchor="middle" x="758.17" y="-285.4" font-family="Times,serif" font-size="14.00">This is a computer. It</text>
<text text-anchor="middle" x="758.17" y="-268.15" font-family="Times,serif" font-size="14.00">appears to be working</text>
<text text-anchor="middle" x="758.17" y="-250.9" font-family="Times,serif" font-size="14.00">correctly.</text>
<text text-anchor="middle" x="758.17" y="-233.65" font-family="Times,serif" font-size="14.00">&#45;&#45;&#45;</text>
<text text-anchor="middle" x="758.17" y="-216.4" font-family="Times,serif" font-size="14.00">This is a computer. It is</text>
<text text-anchor="middle" x="758.17" y="-199.15" font-family="Times,serif" font-size="14.00">obviously damaged.</text>
</g>
<!-- use_obj_on_p_proc -->
<g id="node9" class="node">
<title>use_obj_on_p_proc</title>
<ellipse fill="#ffffff" stroke="#000000" cx="343.17" cy="-246.95" rx="27" ry="18"/>
</g>
<!-- use_obj_on_p_proc&#45;&gt;use_skill_on_p_proc -->
<g id="edge5" class="edge">
<title>use_obj_on_p_proc&#45;&gt;use_skill_on_p_proc</title>
<path fill="none" stroke="#555555" stroke-dasharray="1,5" d="M338.46,-228.84C332.42,-206.9 321.88,-168.58 314.71,-142.54"/>
<polygon fill="#555555" stroke="#555555" points="317.9,-141.93 311.87,-133.21 311.15,-143.78 317.9,-141.93"/>
</g>
<!-- damage_p_proc -->
<g id="node10" class="node">
<title>damage_p_proc</title>
<ellipse fill="#ffffff" stroke="#000000" cx="933.17" cy="-246.95" rx="27" ry="18"/>
</g>
<!-- map_enter_p_proc -->
<g id="node11" class="node">
<title>map_enter_p_proc</title>
<ellipse fill="#ffffff" stroke="#000000" cx="1005.17" cy="-246.95" rx="27" ry="18"/>
</g>
<!-- map_update_p_proc -->
<g id="node12" class="node">
<title>map_update_p_proc</title>
<ellipse fill="#ffffff" stroke="#000000" cx="1077.17" cy="-246.95" rx="27" ry="18"/>
</g>
<!-- loadDestroyed -->
<g id="node13" class="node">
<title>loadDestroyed</title>
<ellipse fill="#ffffff" stroke="#000000" cx="1113.17" cy="-114.1" rx="27" ry="18"/>
</g>
<!-- doExplosion -->
<g id="node14" class="node">
<title>doExplosion</title>
<ellipse fill="#ffffff" stroke="#000000" cx="1185.17" cy="-114.1" rx="27" ry="18"/>
</g>
<!-- timed_event_p_proc -->
<g id="node15" class="node">
<title>timed_event_p_proc</title>
<ellipse fill="#ffffff" stroke="#000000" cx="1149.17" cy="-246.95" rx="27" ry="18"/>
</g>
<!-- timed_event_p_proc&#45;&gt;loadDestroyed -->
<g id="edge7" class="edge">
<title>timed_event_p_proc&#45;&gt;loadDestroyed</title>
<path fill="none" stroke="#555555" stroke-dasharray="1,5" d="M1144.46,-228.84C1138.42,-206.9 1127.88,-168.58 1120.71,-142.54"/>
<polygon fill="#555555" stroke="#555555" points="1123.9,-141.93 1117.87,-133.21 1117.15,-143.78 1123.9,-141.93"/>
</g>
<!-- timed_event_p_proc&#45;&gt;doExplosion -->
<g id="edge6" class="edge">
<title>timed_event_p_proc&#45;&gt;doExplosion</title>
<path fill="none" stroke="#555555" stroke-dasharray="1,5" d="M1153.87,-228.84C1159.91,-206.9 1170.45,-168.58 1177.62,-142.54"/>
<polygon fill="#555555" stroke="#555555" points="1181.18,-143.78 1180.46,-133.21 1174.43,-141.93 1181.18,-143.78"/>
</g>
</g>
</svg>
