<?xml version="1.0" encoding="UTF-8" standalone="no"?>
<!DOCTYPE svg PUBLIC "-//W3C//DTD SVG 1.1//EN"
 "http://www.w3.org/Graphics/SVG/1.1/DTD/svg11.dtd">
<!-- Generated by graphviz version 8.0.5 (0)
 -->
<!-- Title: VCCharly Pages: 1 -->
<svg width="2109pt" height="677pt"
 viewBox="0.00 0.00 2109.00 676.51" xmlns="http://www.w3.org/2000/svg" xmlns:xlink="http://www.w3.org/1999/xlink">
<g id="graph0" class="graph" transform="scale(1 1) rotate(0) translate(4 672.51)">
<title>VCCharly</title>
<polygon fill="white" stroke="none" points="-4,4 -4,-672.51 2105,-672.51 2105,4 -4,4"/>
<!-- checkPartyMembersNearDoor -->
<g id="node1" class="node">
<title>checkPartyMembersNearDoor</title>
<ellipse fill="#ffffff" stroke="#000000" cx="27" cy="-528.68" rx="27" ry="18"/>
</g>
<!-- start -->
<g id="node2" class="node">
<title>start</title>
<ellipse fill="#ffffff" stroke="#000000" cx="99" cy="-528.68" rx="27" ry="18"/>
</g>
<!-- critter_p_proc -->
<g id="node3" class="node">
<title>critter_p_proc</title>
<ellipse fill="#ffffff" stroke="#000000" cx="171" cy="-528.68" rx="27" ry="18"/>
</g>
<!-- pickup_p_proc -->
<g id="node4" class="node">
<title>pickup_p_proc</title>
<ellipse fill="#ffffff" stroke="#000000" cx="243" cy="-528.68" rx="27" ry="18"/>
</g>
<!-- talk_p_proc -->
<g id="node5" class="node">
<title>talk_p_proc</title>
<ellipse fill="#ffffff" stroke="#000000" cx="315" cy="-528.68" rx="27" ry="18"/>
</g>
<!-- Node008 -->
<g id="node6" class="node">
<title>Node008</title>
<ellipse fill="#ffffff" stroke="#000000" cx="404" cy="-176.42" rx="27" ry="18"/>
</g>
<!-- talk_p_proc&#45;&gt;Node008 -->
<g id="edge1" class="edge">
<title>talk_p_proc&#45;&gt;Node008</title>
<path fill="none" stroke="#555555" stroke-dasharray="1,5" d="M320.64,-510.94C330.93,-479.99 353.11,-411.57 368,-352.85 381.12,-301.13 392.82,-239.93 399.12,-205.19"/>
<polygon fill="#555555" stroke="#555555" points="402.72,-205.94 401.04,-195.48 395.83,-204.7 402.72,-205.94"/>
</g>
<!-- Node010 -->
<g id="node7" class="node">
<title>Node010</title>
<ellipse fill="#ffffff" stroke="#000000" cx="227" cy="-176.42" rx="132.23" ry="54.45"/>
<text text-anchor="middle" x="227" y="-197.62" font-family="Times,serif" font-size="14.00">Thanks, stranger. I</text>
<text text-anchor="middle" x="227" y="-180.37" font-family="Times,serif" font-size="14.00">appreciate your help... I</text>
<text text-anchor="middle" x="227" y="-163.12" font-family="Times,serif" font-size="14.00">couldn&#39;t afford the</text>
<text text-anchor="middle" x="227" y="-145.87" font-family="Times,serif" font-size="14.00">Autodoc.</text>
</g>
<!-- talk_p_proc&#45;&gt;Node010 -->
<g id="edge2" class="edge">
<title>talk_p_proc&#45;&gt;Node010</title>
<path fill="none" stroke="#555555" stroke-dasharray="1,5" d="M310.76,-510.78C298.72,-462.87 263.89,-324.24 243.13,-241.61"/>
<polygon fill="#555555" stroke="#555555" points="246.31,-240.93 240.48,-232.08 239.52,-242.64 246.31,-240.93"/>
</g>
<!-- destroy_p_proc -->
<g id="node8" class="node">
<title>destroy_p_proc</title>
<ellipse fill="#ffffff" stroke="#000000" cx="553" cy="-528.68" rx="27" ry="18"/>
</g>
<!-- look_at_p_proc -->
<g id="node9" class="node">
<title>look_at_p_proc</title>
<ellipse fill="#ffffff" stroke="#000000" cx="751" cy="-528.68" rx="135.94" ry="139.83"/>
<text text-anchor="middle" x="751" y="-610.25" font-family="Times,serif" font-size="14.00">You see Charlie... he</text>
<text text-anchor="middle" x="751" y="-593" font-family="Times,serif" font-size="14.00">looks like he has put on</text>
<text text-anchor="middle" x="751" y="-575.75" font-family="Times,serif" font-size="14.00">weight, and is breathing</text>
<text text-anchor="middle" x="751" y="-558.5" font-family="Times,serif" font-size="14.00">normally.</text>
<text text-anchor="middle" x="751" y="-541.25" font-family="Times,serif" font-size="14.00">&#45;&#45;&#45;</text>
<text text-anchor="middle" x="751" y="-524" font-family="Times,serif" font-size="14.00">You see a gaunt man... it</text>
<text text-anchor="middle" x="751" y="-506.75" font-family="Times,serif" font-size="14.00">looks like he has</text>
<text text-anchor="middle" x="751" y="-489.5" font-family="Times,serif" font-size="14.00">symptoms of radiation</text>
<text text-anchor="middle" x="751" y="-472.25" font-family="Times,serif" font-size="14.00">poisoning.</text>
<text text-anchor="middle" x="751" y="-455" font-family="Times,serif" font-size="14.00">&#45;&#45;&#45;</text>
<text text-anchor="middle" x="751" y="-437.75" font-family="Times,serif" font-size="14.00">You see Charlie.</text>
</g>
<!-- description_p_proc -->
<g id="node10" class="node">
<title>description_p_proc</title>
<ellipse fill="#ffffff" stroke="#000000" cx="1053" cy="-528.68" rx="139.12" ry="66.64"/>
<text text-anchor="middle" x="1053" y="-558.5" font-family="Times,serif" font-size="14.00">You see a gaunt man. His</text>
<text text-anchor="middle" x="1053" y="-541.25" font-family="Times,serif" font-size="14.00">hair is plastered to his</text>
<text text-anchor="middle" x="1053" y="-524" font-family="Times,serif" font-size="14.00">head in ragged clumps,</text>
<text text-anchor="middle" x="1053" y="-506.75" font-family="Times,serif" font-size="14.00">and his skin is hanging</text>
<text text-anchor="middle" x="1053" y="-489.5" font-family="Times,serif" font-size="14.00">loosely on his body.</text>
</g>
<!-- use_skill_on_p_proc -->
<g id="node11" class="node">
<title>use_skill_on_p_proc</title>
<ellipse fill="#ffffff" stroke="#000000" cx="1241" cy="-528.68" rx="27" ry="18"/>
</g>
<!-- Node004 -->
<g id="node12" class="node">
<title>Node004</title>
<ellipse fill="#ffffff" stroke="#000000" cx="956" cy="-176.42" rx="139.12" ry="152.03"/>
<text text-anchor="middle" x="956" y="-266.62" font-family="Times,serif" font-size="14.00">This man has radiation</text>
<text text-anchor="middle" x="956" y="-249.37" font-family="Times,serif" font-size="14.00">poisoning. Your skills</text>
<text text-anchor="middle" x="956" y="-232.12" font-family="Times,serif" font-size="14.00">can&#39;t help him. He needs</text>
<text text-anchor="middle" x="956" y="-214.87" font-family="Times,serif" font-size="14.00">medication.</text>
<text text-anchor="middle" x="956" y="-197.62" font-family="Times,serif" font-size="14.00">&#45;&#45;&#45;</text>
<text text-anchor="middle" x="956" y="-180.37" font-family="Times,serif" font-size="14.00">You see Charlie.</text>
<text text-anchor="middle" x="956" y="-163.12" font-family="Times,serif" font-size="14.00">&#45;&#45;&#45;</text>
<text text-anchor="middle" x="956" y="-145.87" font-family="Times,serif" font-size="14.00">You see a gaunt man. His</text>
<text text-anchor="middle" x="956" y="-128.62" font-family="Times,serif" font-size="14.00">hair is plastered to his</text>
<text text-anchor="middle" x="956" y="-111.37" font-family="Times,serif" font-size="14.00">head in ragged clumps,</text>
<text text-anchor="middle" x="956" y="-94.12" font-family="Times,serif" font-size="14.00">and his skin is hanging</text>
<text text-anchor="middle" x="956" y="-76.87" font-family="Times,serif" font-size="14.00">loosely on his body.</text>
</g>
<!-- use_skill_on_p_proc&#45;&gt;Node004 -->
<g id="edge3" class="edge">
<title>use_skill_on_p_proc&#45;&gt;Node004</title>
<path fill="none" stroke="#555555" stroke-dasharray="1,5" d="M1240.8,-510.35C1239.54,-481.46 1232.9,-423.23 1201,-388.85 1169.72,-355.14 1141.62,-379.29 1104,-352.85 1084.46,-339.11 1065.96,-322.19 1049.08,-304.33"/>
<polygon fill="#555555" stroke="#555555" points="1052.31,-302.59 1042.94,-297.63 1047.17,-307.34 1052.31,-302.59"/>
</g>
<!-- Node005 -->
<g id="node13" class="node">
<title>Node005</title>
<ellipse fill="#ffffff" stroke="#000000" cx="1241" cy="-176.42" rx="127.99" ry="42.25"/>
<text text-anchor="middle" x="1241" y="-189" font-family="Times,serif" font-size="14.00">This man looks terribly</text>
<text text-anchor="middle" x="1241" y="-171.75" font-family="Times,serif" font-size="14.00">sick. You&#39;re not sure</text>
<text text-anchor="middle" x="1241" y="-154.5" font-family="Times,serif" font-size="14.00">what&#39;s wrong.</text>
</g>
<!-- use_skill_on_p_proc&#45;&gt;Node005 -->
<g id="edge4" class="edge">
<title>use_skill_on_p_proc&#45;&gt;Node005</title>
<path fill="none" stroke="#555555" stroke-dasharray="1,5" d="M1237.85,-510.31C1233.77,-459.55 1233.16,-310.01 1236.02,-229.75"/>
<polygon fill="#555555" stroke="#555555" points="1239.55,-230.03 1236.45,-219.9 1232.56,-229.75 1239.55,-230.03"/>
</g>
<!-- use_skill_on_p_proc&#45;&gt;Node005 -->
<g id="edge5" class="edge">
<title>use_skill_on_p_proc&#45;&gt;Node005</title>
<path fill="none" stroke="#555555" stroke-dasharray="1,5" d="M1244.15,-510.31C1248.23,-459.55 1248.84,-310.01 1245.98,-229.75"/>
<polygon fill="#555555" stroke="#555555" points="1249.44,-229.75 1245.55,-219.9 1242.45,-230.03 1249.44,-229.75"/>
</g>
<!-- Node006 -->
<g id="node14" class="node">
<title>Node006</title>
<ellipse fill="#ffffff" stroke="#000000" cx="1508" cy="-176.42" rx="120.56" ry="42.25"/>
<text text-anchor="middle" x="1508" y="-189" font-family="Times,serif" font-size="14.00">Thanks, but I&#39;m fine,</text>
<text text-anchor="middle" x="1508" y="-171.75" font-family="Times,serif" font-size="14.00">really. That Rad&#45;Away</text>
<text text-anchor="middle" x="1508" y="-154.5" font-family="Times,serif" font-size="14.00">stuff did the trick.</text>
</g>
<!-- use_skill_on_p_proc&#45;&gt;Node006 -->
<g id="edge6" class="edge">
<title>use_skill_on_p_proc&#45;&gt;Node006</title>
<path fill="none" stroke="#555555" stroke-dasharray="1,5" d="M1253.24,-512.35C1277.36,-482.07 1332.65,-412.35 1378,-352.85 1410.3,-310.46 1446.33,-261.72 1472.25,-226.39"/>
<polygon fill="#555555" stroke="#555555" points="1475.53,-228.85 1478.62,-218.71 1469.88,-224.71 1475.53,-228.85"/>
</g>
<!-- use_obj_on_p_proc -->
<g id="node15" class="node">
<title>use_obj_on_p_proc</title>
<ellipse fill="#ffffff" stroke="#000000" cx="1786" cy="-528.68" rx="27" ry="18"/>
</g>
<!-- Node007 -->
<g id="node16" class="node">
<title>Node007</title>
<ellipse fill="#ffffff" stroke="#000000" cx="1786" cy="-176.42" rx="139.12" ry="139.83"/>
<text text-anchor="middle" x="1786" y="-258" font-family="Times,serif" font-size="14.00">You find a vein and</text>
<text text-anchor="middle" x="1786" y="-240.75" font-family="Times,serif" font-size="14.00">inject the Radaway into</text>
<text text-anchor="middle" x="1786" y="-223.5" font-family="Times,serif" font-size="14.00">Charlie&#39;s system.</text>
<text text-anchor="middle" x="1786" y="-206.25" font-family="Times,serif" font-size="14.00">&#45;&#45;&#45;</text>
<text text-anchor="middle" x="1786" y="-189" font-family="Times,serif" font-size="14.00">You see Charlie.</text>
<text text-anchor="middle" x="1786" y="-171.75" font-family="Times,serif" font-size="14.00">&#45;&#45;&#45;</text>
<text text-anchor="middle" x="1786" y="-154.5" font-family="Times,serif" font-size="14.00">You see a gaunt man. His</text>
<text text-anchor="middle" x="1786" y="-137.25" font-family="Times,serif" font-size="14.00">hair is plastered to his</text>
<text text-anchor="middle" x="1786" y="-120" font-family="Times,serif" font-size="14.00">head in ragged clumps,</text>
<text text-anchor="middle" x="1786" y="-102.75" font-family="Times,serif" font-size="14.00">and his skin is hanging</text>
<text text-anchor="middle" x="1786" y="-85.5" font-family="Times,serif" font-size="14.00">loosely on his body.</text>
</g>
<!-- use_obj_on_p_proc&#45;&gt;Node007 -->
<g id="edge7" class="edge">
<title>use_obj_on_p_proc&#45;&gt;Node007</title>
<path fill="none" stroke="#555555" stroke-dasharray="1,5" d="M1786,-510.31C1786,-476.56 1786,-399.16 1786,-327.48"/>
<polygon fill="#555555" stroke="#555555" points="1789.5,-327.49 1786,-317.49 1782.5,-327.49 1789.5,-327.49"/>
</g>
<!-- damage_p_proc -->
<g id="node17" class="node">
<title>damage_p_proc</title>
<ellipse fill="#ffffff" stroke="#000000" cx="1858" cy="-528.68" rx="27" ry="18"/>
</g>
<!-- map_enter_p_proc -->
<g id="node18" class="node">
<title>map_enter_p_proc</title>
<ellipse fill="#ffffff" stroke="#000000" cx="1930" cy="-528.68" rx="27" ry="18"/>
</g>
<!-- timed_event_p_proc -->
<g id="node19" class="node">
<title>timed_event_p_proc</title>
<ellipse fill="#ffffff" stroke="#000000" cx="476" cy="-528.68" rx="27" ry="18"/>
</g>
<!-- timed_event_p_proc&#45;&gt;Node008 -->
<g id="edge8" class="edge">
<title>timed_event_p_proc&#45;&gt;Node008</title>
<path fill="none" stroke="#555555" stroke-dasharray="1,5" d="M472.52,-510.8C466.09,-479.61 451.92,-410.82 440,-352.85 429.26,-300.59 416.74,-239.57 409.66,-205.01"/>
<polygon fill="#555555" stroke="#555555" points="412.91,-204.45 407.47,-195.36 406.05,-205.86 412.91,-204.45"/>
</g>
<!-- Node009 -->
<g id="node20" class="node">
<title>Node009</title>
<ellipse fill="#ffffff" stroke="#000000" cx="476" cy="-176.42" rx="27" ry="18"/>
</g>
<!-- timed_event_p_proc&#45;&gt;Node009 -->
<g id="edge9" class="edge">
<title>timed_event_p_proc&#45;&gt;Node009</title>
<path fill="none" stroke="#555555" stroke-dasharray="1,5" d="M476,-510.31C476,-453.94 476,-275.72 476,-205.88"/>
<polygon fill="#555555" stroke="#555555" points="479.5,-205.9 476,-195.9 472.5,-205.9 479.5,-205.9"/>
</g>
<!-- Node007a -->
<g id="node21" class="node">
<title>Node007a</title>
<ellipse fill="#ffffff" stroke="#000000" cx="660" cy="-176.42" rx="139.12" ry="176.42"/>
<text text-anchor="middle" x="660" y="-283.87" font-family="Times,serif" font-size="14.00">What happened? I feel</text>
<text text-anchor="middle" x="660" y="-266.62" font-family="Times,serif" font-size="14.00">tons better.</text>
<text text-anchor="middle" x="660" y="-249.37" font-family="Times,serif" font-size="14.00">&#45;&#45;&#45;</text>
<text text-anchor="middle" x="660" y="-232.12" font-family="Times,serif" font-size="14.00">You have cured Charlie.</text>
<text text-anchor="middle" x="660" y="-214.87" font-family="Times,serif" font-size="14.00">&#45;&#45;&#45;</text>
<text text-anchor="middle" x="660" y="-197.62" font-family="Times,serif" font-size="14.00">You see Charlie.</text>
<text text-anchor="middle" x="660" y="-180.37" font-family="Times,serif" font-size="14.00">&#45;&#45;&#45;</text>
<text text-anchor="middle" x="660" y="-163.12" font-family="Times,serif" font-size="14.00">You see a gaunt man. His</text>
<text text-anchor="middle" x="660" y="-145.87" font-family="Times,serif" font-size="14.00">hair is plastered to his</text>
<text text-anchor="middle" x="660" y="-128.62" font-family="Times,serif" font-size="14.00">head in ragged clumps,</text>
<text text-anchor="middle" x="660" y="-111.37" font-family="Times,serif" font-size="14.00">and his skin is hanging</text>
<text text-anchor="middle" x="660" y="-94.12" font-family="Times,serif" font-size="14.00">loosely on his body.</text>
<text text-anchor="middle" x="660" y="-76.87" font-family="Times,serif" font-size="14.00">&#45;&#45;&#45;</text>
<text text-anchor="middle" x="660" y="-59.62" font-family="Times,serif" font-size="14.00">*Urhkkkk*...</text>
</g>
<!-- timed_event_p_proc&#45;&gt;Node007a -->
<g id="edge10" class="edge">
<title>timed_event_p_proc&#45;&gt;Node007a</title>
<path fill="none" stroke="#555555" stroke-dasharray="1,5" d="M479.31,-510.39C484.85,-483.51 497.37,-430.44 517,-388.85 528.82,-363.79 543.4,-338.37 558.68,-314.25"/>
<polygon fill="#555555" stroke="#555555" points="562.11,-316.38 564.56,-306.07 556.22,-312.6 562.11,-316.38"/>
</g>
<!-- Node998 -->
<g id="node22" class="node">
<title>Node998</title>
<ellipse fill="#ffffff" stroke="#000000" cx="2002" cy="-528.68" rx="27" ry="18"/>
</g>
<!-- Node999 -->
<g id="node23" class="node">
<title>Node999</title>
<ellipse fill="#ffffff" stroke="#000000" cx="2074" cy="-528.68" rx="27" ry="18"/>
</g>
</g>
</svg>
