<?xml version="1.0" encoding="UTF-8" standalone="no"?>
<!DOCTYPE svg PUBLIC "-//W3C//DTD SVG 1.1//EN"
 "http://www.w3.org/Graphics/SVG/1.1/DTD/svg11.dtd">
<!-- Generated by graphviz version 8.0.5 (0)
 -->
<!-- Title: vcoldjoe Pages: 1 -->
<svg width="1255pt" height="2151pt"
 viewBox="0.00 0.00 1255.00 2151.35" xmlns="http://www.w3.org/2000/svg" xmlns:xlink="http://www.w3.org/1999/xlink">
<g id="graph0" class="graph" transform="scale(1 1) rotate(0) translate(4 2147.35)">
<title>vcoldjoe</title>
<polygon fill="white" stroke="none" points="-4,4 -4,-2147.35 1251,-2147.35 1251,4 -4,4"/>
<!-- checkPartyMembersNearDoor -->
<g id="node1" class="node">
<title>checkPartyMembersNearDoor</title>
<ellipse fill="#ffffff" stroke="#000000" cx="27" cy="-2113.3" rx="27" ry="18"/>
</g>
<!-- start -->
<g id="node2" class="node">
<title>start</title>
<ellipse fill="#ffffff" stroke="#000000" cx="99" cy="-2113.3" rx="27" ry="18"/>
</g>
<!-- critter_p_proc -->
<g id="node3" class="node">
<title>critter_p_proc</title>
<ellipse fill="#ffffff" stroke="#000000" cx="171" cy="-2113.3" rx="27" ry="18"/>
</g>
<!-- pickup_p_proc -->
<g id="node4" class="node">
<title>pickup_p_proc</title>
<ellipse fill="#ffffff" stroke="#000000" cx="243" cy="-2113.3" rx="27" ry="18"/>
</g>
<!-- talk_p_proc -->
<g id="node5" class="node">
<title>talk_p_proc</title>
<ellipse fill="#ffffff" stroke="#000000" cx="315" cy="-2113.3" rx="27" ry="18"/>
</g>
<!-- Node012 -->
<g id="node6" class="node">
<title>Node012</title>
<ellipse fill="#ffffff" stroke="#000000" cx="245" cy="-2016.19" rx="27" ry="18"/>
</g>
<!-- talk_p_proc&#45;&gt;Node012 -->
<g id="edge1" class="edge">
<title>talk_p_proc&#45;&gt;Node012</title>
<path fill="none" stroke="#555555" stroke-dasharray="1,5" d="M299.72,-2098.26C287.02,-2083.66 269.58,-2060.46 257.66,-2042.62"/>
<polygon fill="#555555" stroke="#555555" points="260.35,-2041.34 251.98,-2034.85 254.48,-2045.14 260.35,-2041.34"/>
</g>
<!-- talk_p_proc&#45;&gt;Node012 -->
<g id="edge4" class="edge">
<title>talk_p_proc&#45;&gt;Node012</title>
<path fill="none" stroke="#555555" stroke-dasharray="1,5" d="M308.07,-2095.73C298.43,-2080.23 281.49,-2056.95 267.45,-2039.76"/>
<polygon fill="#555555" stroke="#555555" points="269.54,-2037.81 260.43,-2032.4 264.18,-2042.31 269.54,-2037.81"/>
</g>
<!-- Node001 -->
<g id="node7" class="node">
<title>Node001</title>
<ellipse fill="#ffffff" stroke="#000000" cx="421" cy="-2016.19" rx="131.17" ry="30.05"/>
<text text-anchor="middle" x="421" y="-2020.14" font-family="Times,serif" font-size="14.00">Hello. Haven&#39;t seen you</text>
<text text-anchor="middle" x="421" y="-2002.89" font-family="Times,serif" font-size="14.00">in a while.</text>
</g>
<!-- talk_p_proc&#45;&gt;Node001 -->
<g id="edge2" class="edge">
<title>talk_p_proc&#45;&gt;Node001</title>
<path fill="none" stroke="#555555" stroke-dasharray="1,5" d="M330.64,-2098.26C344.02,-2086.25 363.88,-2068.44 381.57,-2052.57"/>
<polygon fill="#555555" stroke="#555555" points="383.4,-2055.73 388.51,-2046.44 378.73,-2050.52 383.4,-2055.73"/>
</g>
<!-- Node013 -->
<g id="node8" class="node">
<title>Node013</title>
<ellipse fill="#ffffff" stroke="#000000" cx="597" cy="-2016.19" rx="27" ry="18"/>
</g>
<!-- talk_p_proc&#45;&gt;Node013 -->
<g id="edge3" class="edge">
<title>talk_p_proc&#45;&gt;Node013</title>
<path fill="none" stroke="#555555" stroke-dasharray="1,5" d="M329.61,-2097.69C335.75,-2092.35 343.25,-2086.77 351,-2083.24 437.27,-2044.02 474.73,-2085.47 561,-2046.24 565.48,-2044.21 569.88,-2041.48 573.98,-2038.51"/>
<polygon fill="#555555" stroke="#555555" points="575.76,-2040.77 581.39,-2031.8 571.39,-2035.3 575.76,-2040.77"/>
</g>
<!-- Node002 -->
<g id="node17" class="node">
<title>Node002</title>
<ellipse fill="#ffffff" stroke="#000000" cx="249" cy="-1831.75" rx="147.08" ry="42.25"/>
<text text-anchor="middle" x="249" y="-1844.32" font-family="Times,serif" font-size="14.00">Well, it has been a</text>
<text text-anchor="middle" x="249" y="-1827.07" font-family="Times,serif" font-size="14.00">while. What have you been</text>
<text text-anchor="middle" x="249" y="-1809.82" font-family="Times,serif" font-size="14.00">up to?</text>
</g>
<!-- Node001&#45;&gt;Node002 -->
<g id="edge5" class="edge">
<title>Node001&#45;&gt;Node002</title>
<path fill="none" stroke="#005b99" d="M370.16,-1988.1C361.05,-1982.14 352,-1975.41 344.25,-1968.14 317.8,-1943.31 294.28,-1910.05 277.22,-1882.7"/>
<polygon fill="#005b99" stroke="#005b99" points="279.9,-1881.38 271.69,-1874.68 273.93,-1885.04 279.9,-1881.38"/>
<text text-anchor="middle" x="399.38" y="-1937.59" font-family="Times,serif" font-size="14.00" fill="#005b99">Do I know you?</text>
</g>
<!-- Node003 -->
<g id="node18" class="node">
<title>Node003</title>
<ellipse fill="#ffffff" stroke="#000000" cx="552" cy="-1831.75" rx="137.53" ry="66.64"/>
<text text-anchor="middle" x="552" y="-1861.57" font-family="Times,serif" font-size="14.00">Sure has. Well, I&#39;ve been</text>
<text text-anchor="middle" x="552" y="-1844.32" font-family="Times,serif" font-size="14.00">around; finally ended up</text>
<text text-anchor="middle" x="552" y="-1827.07" font-family="Times,serif" font-size="14.00">here in this god&#45;forsaken</text>
<text text-anchor="middle" x="552" y="-1809.82" font-family="Times,serif" font-size="14.00">place. Not like the</text>
<text text-anchor="middle" x="552" y="-1792.57" font-family="Times,serif" font-size="14.00"> good old days. No sir.</text>
</g>
<!-- Node001&#45;&gt;Node003 -->
<g id="edge6" class="edge">
<title>Node001&#45;&gt;Node003</title>
<path fill="none" stroke="#879900" d="M441.76,-1986.28C457.65,-1964.16 480.26,-1932.66 500.88,-1903.95"/>
<polygon fill="#879900" stroke="#879900" points="504.21,-1906.3 507.2,-1896.14 498.53,-1902.22 504.21,-1906.3"/>
<text text-anchor="middle" x="587" y="-1954.84" font-family="Times,serif" font-size="14.00" fill="#879900">Ah, yeah. It&#39;s been a</text>
<text text-anchor="middle" x="587" y="-1937.59" font-family="Times,serif" font-size="14.00" fill="#879900">while. What have you been</text>
<text text-anchor="middle" x="587" y="-1920.34" font-family="Times,serif" font-size="14.00" fill="#879900">doing?</text>
</g>
<!-- destroy_p_proc -->
<g id="node9" class="node">
<title>destroy_p_proc</title>
<ellipse fill="#ffffff" stroke="#000000" cx="387" cy="-2113.3" rx="27" ry="18"/>
</g>
<!-- look_at_p_proc -->
<g id="node10" class="node">
<title>look_at_p_proc</title>
<ellipse fill="#ffffff" stroke="#000000" cx="575" cy="-2113.3" rx="142.84" ry="30.05"/>
<text text-anchor="middle" x="575" y="-2117.25" font-family="Times,serif" font-size="14.00">You see an old man with a</text>
<text text-anchor="middle" x="575" y="-2100" font-family="Times,serif" font-size="14.00">crazy gleam in his eye.</text>
</g>
<!-- description_p_proc -->
<g id="node11" class="node">
<title>description_p_proc</title>
<ellipse fill="#ffffff" stroke="#000000" cx="847" cy="-2113.3" rx="111.55" ry="30.05"/>
<text text-anchor="middle" x="847" y="-2117.25" font-family="Times,serif" font-size="14.00">You see Old Joe, the</text>
<text text-anchor="middle" x="847" y="-2100" font-family="Times,serif" font-size="14.00">local idiot savant.</text>
</g>
<!-- use_skill_on_p_proc -->
<g id="node12" class="node">
<title>use_skill_on_p_proc</title>
<ellipse fill="#ffffff" stroke="#000000" cx="1004" cy="-2113.3" rx="27" ry="18"/>
</g>
<!-- damage_p_proc -->
<g id="node13" class="node">
<title>damage_p_proc</title>
<ellipse fill="#ffffff" stroke="#000000" cx="1076" cy="-2113.3" rx="27" ry="18"/>
</g>
<!-- map_enter_p_proc -->
<g id="node14" class="node">
<title>map_enter_p_proc</title>
<ellipse fill="#ffffff" stroke="#000000" cx="1148" cy="-2113.3" rx="27" ry="18"/>
</g>
<!-- Node998 -->
<g id="node15" class="node">
<title>Node998</title>
<ellipse fill="#ffffff" stroke="#000000" cx="1220" cy="-2113.3" rx="27" ry="18"/>
</g>
<!-- Node999 -->
<g id="node16" class="node">
<title>Node999</title>
<ellipse fill="#ffffff" stroke="#000000" cx="322" cy="-18" rx="27" ry="18"/>
</g>
<!-- Node004 -->
<g id="node19" class="node">
<title>Node004</title>
<ellipse fill="#ffffff" stroke="#000000" cx="322" cy="-1569.06" rx="141.77" ry="42.25"/>
<text text-anchor="middle" x="322" y="-1581.64" font-family="Times,serif" font-size="14.00">Don&#39;t remember me, do</text>
<text text-anchor="middle" x="322" y="-1564.39" font-family="Times,serif" font-size="14.00">you? Well, you do seem to</text>
<text text-anchor="middle" x="322" y="-1547.14" font-family="Times,serif" font-size="14.00">be a bit young.</text>
</g>
<!-- Node002&#45;&gt;Node004 -->
<g id="edge7" class="edge">
<title>Node002&#45;&gt;Node004</title>
<path fill="none" stroke="#7e0099" d="M266.1,-1789.44C271.28,-1776.07 276.73,-1761.08 281,-1747.1 293.66,-1705.67 304.53,-1657.76 311.89,-1622.23"/>
<polygon fill="#7e0099" stroke="#7e0099" points="315.49,-1623.12 314.06,-1612.63 308.63,-1621.72 315.49,-1623.12"/>
<text text-anchor="middle" x="385.88" y="-1716.55" font-family="Times,serif" font-size="14.00" fill="#7e0099">This and that. Where do</text>
<text text-anchor="middle" x="385.88" y="-1699.3" font-family="Times,serif" font-size="14.00" fill="#7e0099">you know me from?</text>
</g>
<!-- Node005 -->
<g id="node20" class="node">
<title>Node005</title>
<ellipse fill="#ffffff" stroke="#000000" cx="145" cy="-1405.57" rx="132.23" ry="54.45"/>
<text text-anchor="middle" x="145" y="-1426.77" font-family="Times,serif" font-size="14.00">You look so familiar,</text>
<text text-anchor="middle" x="145" y="-1409.52" font-family="Times,serif" font-size="14.00">though. Ah, must be my</text>
<text text-anchor="middle" x="145" y="-1392.27" font-family="Times,serif" font-size="14.00">old eyes. Well, good day</text>
<text text-anchor="middle" x="145" y="-1375.02" font-family="Times,serif" font-size="14.00">to you.</text>
</g>
<!-- Node002&#45;&gt;Node005 -->
<g id="edge8" class="edge">
<title>Node002&#45;&gt;Node005</title>
<path fill="none" stroke="#009951" d="M167.06,-1796.31C147.24,-1783.85 128.54,-1767.64 117.25,-1747.1 69.53,-1660.27 95.89,-1541.78 119.98,-1469.91"/>
<polygon fill="#009951" stroke="#009951" points="123.57,-1471.25 123.51,-1460.65 116.95,-1468.97 123.57,-1471.25"/>
<text text-anchor="middle" x="197.88" y="-1725.18" font-family="Times,serif" font-size="14.00" fill="#009951">Look, old man, I don&#39;t</text>
<text text-anchor="middle" x="197.88" y="-1707.93" font-family="Times,serif" font-size="14.00" fill="#009951">know who the hell you</text>
<text text-anchor="middle" x="197.88" y="-1690.68" font-family="Times,serif" font-size="14.00" fill="#009951">are.</text>
</g>
<!-- Node003&#45;&gt;Node004 -->
<g id="edge10" class="edge">
<title>Node003&#45;&gt;Node004</title>
<path fill="none" stroke="#000899" d="M506.43,-1768.57C502.24,-1761.51 498.32,-1754.28 495,-1747.1 481.64,-1718.23 494.32,-1704.1 476,-1678.1 457.07,-1651.24 429.23,-1628.8 402.4,-1611.46"/>
<polygon fill="#000899" stroke="#000899" points="404.69,-1608.13 394.36,-1605.77 400.97,-1614.06 404.69,-1608.13"/>
<text text-anchor="middle" x="579" y="-1733.8" font-family="Times,serif" font-size="14.00" fill="#000899">It hasn&#39;t been the same</text>
<text text-anchor="middle" x="579" y="-1716.55" font-family="Times,serif" font-size="14.00" fill="#000899">lately, that&#39;s for sure.</text>
<text text-anchor="middle" x="579" y="-1699.3" font-family="Times,serif" font-size="14.00" fill="#000899">Now... what did we do</text>
<text text-anchor="middle" x="579" y="-1682.05" font-family="Times,serif" font-size="14.00" fill="#000899">together?</text>
</g>
<!-- Node006 -->
<g id="node21" class="node">
<title>Node006</title>
<ellipse fill="#ffffff" stroke="#000000" cx="669" cy="-1569.06" rx="148.67" ry="91.04"/>
<text text-anchor="middle" x="669" y="-1616.14" font-family="Times,serif" font-size="14.00">Yeah, we sure gave the</text>
<text text-anchor="middle" x="669" y="-1598.89" font-family="Times,serif" font-size="14.00">Master hell, didn&#39;t we?</text>
<text text-anchor="middle" x="669" y="-1581.64" font-family="Times,serif" font-size="14.00">Shit fell apart after you</text>
<text text-anchor="middle" x="669" y="-1564.39" font-family="Times,serif" font-size="14.00">left, though. Had to</text>
<text text-anchor="middle" x="669" y="-1547.14" font-family="Times,serif" font-size="14.00">move around and change</text>
<text text-anchor="middle" x="669" y="-1529.89" font-family="Times,serif" font-size="14.00">my name. Where&#39;d you end</text>
<text text-anchor="middle" x="669" y="-1512.64" font-family="Times,serif" font-size="14.00">up?</text>
</g>
<!-- Node003&#45;&gt;Node006 -->
<g id="edge9" class="edge">
<title>Node003&#45;&gt;Node006</title>
<path fill="none" stroke="#992500" d="M640.73,-1780.36C651.26,-1770.69 660.54,-1759.6 667,-1747.1 678.96,-1723.94 683.22,-1696.69 683.56,-1670.6"/>
<polygon fill="#992500" stroke="#992500" points="687.05,-1670.88 683.49,-1660.9 680.05,-1670.93 687.05,-1670.88"/>
<text text-anchor="middle" x="777.38" y="-1716.55" font-family="Times,serif" font-size="14.00" fill="#992500">Yeah, the good old days.</text>
<text text-anchor="middle" x="777.38" y="-1699.3" font-family="Times,serif" font-size="14.00" fill="#992500">Remember that time we...</text>
</g>
<!-- Node007 -->
<g id="node22" class="node">
<title>Node007</title>
<ellipse fill="#ffffff" stroke="#000000" cx="322" cy="-1102.99" rx="137.53" ry="78.84"/>
<text text-anchor="middle" x="322" y="-1141.44" font-family="Times,serif" font-size="14.00">Well, you better be</text>
<text text-anchor="middle" x="322" y="-1124.19" font-family="Times,serif" font-size="14.00">careful around here.</text>
<text text-anchor="middle" x="322" y="-1106.94" font-family="Times,serif" font-size="14.00">Things ain&#39;t as clear as</text>
<text text-anchor="middle" x="322" y="-1089.69" font-family="Times,serif" font-size="14.00">they once were. You best</text>
<text text-anchor="middle" x="322" y="-1072.44" font-family="Times,serif" font-size="14.00">watch</text>
<text text-anchor="middle" x="322" y="-1055.19" font-family="Times,serif" font-size="14.00"> your back.</text>
</g>
<!-- Node004&#45;&gt;Node007 -->
<g id="edge11" class="edge">
<title>Node004&#45;&gt;Node007</title>
<path fill="none" stroke="#359900" d="M322,-1526.47C322,-1451.66 322,-1292.9 322,-1192.72"/>
<polygon fill="#359900" stroke="#359900" points="325.5,-1193.01 322,-1183.01 318.5,-1193.01 325.5,-1193.01"/>
<text text-anchor="middle" x="403" y="-1409.52" font-family="Times,serif" font-size="14.00" fill="#359900">What are you trying to</text>
<text text-anchor="middle" x="403" y="-1392.27" font-family="Times,serif" font-size="14.00" fill="#359900">tell me?</text>
</g>
<!-- Node005&#45;&gt;Node999 -->
<g id="edge12" class="edge">
<title>Node005&#45;&gt;Node999</title>
<path fill="none" stroke="#990061" d="M148.15,-1350.84C151.4,-1290.72 156,-1190.42 156,-1103.99 156,-1103.99 156,-1103.99 156,-240.28 156,-149.11 247.29,-71.47 294.47,-37.43"/>
<polygon fill="#990061" stroke="#990061" points="296.13,-39.84 302.28,-31.21 292.09,-34.12 296.13,-39.84"/>
<text text-anchor="middle" x="229.12" y="-709.48" font-family="Times,serif" font-size="14.00" fill="#990061">Uh, yeah... goodbye.</text>
</g>
<!-- Node008 -->
<g id="node23" class="node">
<title>Node008</title>
<ellipse fill="#ffffff" stroke="#000000" cx="618" cy="-1266.48" rx="131.7" ry="66.64"/>
<text text-anchor="middle" x="618" y="-1296.31" font-family="Times,serif" font-size="14.00">Yeah, I looked for your</text>
<text text-anchor="middle" x="618" y="-1279.06" font-family="Times,serif" font-size="14.00">Vault for a while, but</text>
<text text-anchor="middle" x="618" y="-1261.81" font-family="Times,serif" font-size="14.00">never found it. So you</text>
<text text-anchor="middle" x="618" y="-1244.56" font-family="Times,serif" font-size="14.00">got any good stories for</text>
<text text-anchor="middle" x="618" y="-1227.31" font-family="Times,serif" font-size="14.00"> your old friend Ian?</text>
</g>
<!-- Node006&#45;&gt;Node008 -->
<g id="edge13" class="edge">
<title>Node006&#45;&gt;Node008</title>
<path fill="none" stroke="#008e99" d="M653.77,-1478.28C646.49,-1435.41 637.88,-1384.64 630.93,-1343.68"/>
<polygon fill="#008e99" stroke="#008e99" points="634.23,-1343.21 629.11,-1333.94 627.33,-1344.39 634.23,-1343.21"/>
<text text-anchor="middle" x="731" y="-1409.52" font-family="Times,serif" font-size="14.00" fill="#008e99">I&#39;ve been living up in a</text>
<text text-anchor="middle" x="731" y="-1392.27" font-family="Times,serif" font-size="14.00" fill="#008e99">small village.</text>
</g>
<!-- Node007&#45;&gt;Node999 -->
<g id="edge14" class="edge">
<title>Node007&#45;&gt;Node999</title>
<path fill="none" stroke="#997700" d="M322,-1023.83C322,-945.69 322,-822.11 322,-715.16 322,-715.16 322,-715.16 322,-240.28 322,-170.93 322,-89.35 322,-47.27"/>
<polygon fill="#997700" stroke="#997700" points="325.5,-47.5 322,-37.5 318.5,-47.5 325.5,-47.5"/>
<text text-anchor="middle" x="369.62" y="-545.12" font-family="Times,serif" font-size="14.00" fill="#997700">Okay, thanks.</text>
</g>
<!-- Node009 -->
<g id="node24" class="node">
<title>Node009</title>
<ellipse fill="#ffffff" stroke="#000000" cx="592" cy="-890.72" rx="143.37" ry="115.44"/>
<text text-anchor="middle" x="592" y="-955.04" font-family="Times,serif" font-size="14.00">Yeah, Ian. Don&#39;t you</text>
<text text-anchor="middle" x="592" y="-937.79" font-family="Times,serif" font-size="14.00">remember me? It&#39;s been a</text>
<text text-anchor="middle" x="592" y="-920.54" font-family="Times,serif" font-size="14.00">bunch of years. You&#39;d</text>
<text text-anchor="middle" x="592" y="-903.29" font-family="Times,serif" font-size="14.00">think someone wouldn&#39;t</text>
<text text-anchor="middle" x="592" y="-886.04" font-family="Times,serif" font-size="14.00">forget his best buddy.</text>
<text text-anchor="middle" x="592" y="-868.79" font-family="Times,serif" font-size="14.00">Well... except for the</text>
<text text-anchor="middle" x="592" y="-851.54" font-family="Times,serif" font-size="14.00">shooting in the back</text>
<text text-anchor="middle" x="592" y="-834.29" font-family="Times,serif" font-size="14.00">thing. Sorry about that</text>
<text text-anchor="middle" x="592" y="-817.04" font-family="Times,serif" font-size="14.00">again.</text>
</g>
<!-- Node008&#45;&gt;Node009 -->
<g id="edge15" class="edge">
<title>Node008&#45;&gt;Node009</title>
<path fill="none" stroke="#4b0099" d="M613.41,-1199.52C609.9,-1149.11 604.97,-1078.12 600.72,-1017.02"/>
<polygon fill="#4b0099" stroke="#4b0099" points="604.14,-1016.86 599.96,-1007.13 597.16,-1017.34 604.14,-1016.86"/>
<text text-anchor="middle" x="627" y="-1098.32" font-family="Times,serif" font-size="14.00" fill="#4b0099">Ian?</text>
</g>
<!-- Node010 -->
<g id="node25" class="node">
<title>Node010</title>
<ellipse fill="#ffffff" stroke="#000000" cx="577" cy="-549.79" rx="135.94" ry="103.24"/>
<text text-anchor="middle" x="577" y="-605.49" font-family="Times,serif" font-size="14.00">Well, that makes a bit</text>
<text text-anchor="middle" x="577" y="-588.24" font-family="Times,serif" font-size="14.00">more sense. Well, it&#39;s</text>
<text text-anchor="middle" x="577" y="-570.99" font-family="Times,serif" font-size="14.00">good to hear my friend</text>
<text text-anchor="middle" x="577" y="-553.74" font-family="Times,serif" font-size="14.00">did well. Well, old Ian&#39;s</text>
<text text-anchor="middle" x="577" y="-536.49" font-family="Times,serif" font-size="14.00">got some advice for you.</text>
<text text-anchor="middle" x="577" y="-519.24" font-family="Times,serif" font-size="14.00">You be careful out there.</text>
<text text-anchor="middle" x="577" y="-501.99" font-family="Times,serif" font-size="14.00">This place ain&#39;t as</text>
<text text-anchor="middle" x="577" y="-484.74" font-family="Times,serif" font-size="14.00">peachy as it seems.</text>
</g>
<!-- Node009&#45;&gt;Node010 -->
<g id="edge16" class="edge">
<title>Node009&#45;&gt;Node010</title>
<path fill="none" stroke="#00991e" d="M586.92,-774.97C585.34,-739.3 583.6,-699.99 582.03,-664.39"/>
<polygon fill="#00991e" stroke="#00991e" points="585.48,-664.31 581.54,-654.47 578.49,-664.62 585.48,-664.31"/>
<text text-anchor="middle" x="673.38" y="-743.98" font-family="Times,serif" font-size="14.00" fill="#00991e">I am sorry, but you must</text>
<text text-anchor="middle" x="673.38" y="-726.73" font-family="Times,serif" font-size="14.00" fill="#00991e">think I am the Vault</text>
<text text-anchor="middle" x="673.38" y="-709.48" font-family="Times,serif" font-size="14.00" fill="#00991e">Dweller. My village was</text>
<text text-anchor="middle" x="673.38" y="-692.23" font-family="Times,serif" font-size="14.00" fill="#00991e">founded by the one who</text>
<text text-anchor="middle" x="673.38" y="-674.98" font-family="Times,serif" font-size="14.00" fill="#00991e"> came from the Vault.</text>
</g>
<!-- Node011 -->
<g id="node26" class="node">
<title>Node011</title>
<ellipse fill="#ffffff" stroke="#000000" cx="531" cy="-241.28" rx="135.94" ry="152.03"/>
<text text-anchor="middle" x="531" y="-331.48" font-family="Times,serif" font-size="14.00">Well, the Vault Citizens</text>
<text text-anchor="middle" x="531" y="-314.23" font-family="Times,serif" font-size="14.00">think very highly of</text>
<text text-anchor="middle" x="531" y="-296.98" font-family="Times,serif" font-size="14.00">their bloodline and don&#39;t</text>
<text text-anchor="middle" x="531" y="-279.73" font-family="Times,serif" font-size="14.00">care much for</text>
<text text-anchor="middle" x="531" y="-262.48" font-family="Times,serif" font-size="14.00">people like me and you.</text>
<text text-anchor="middle" x="531" y="-245.23" font-family="Times,serif" font-size="14.00">You take this gun. It&#39;ll</text>
<text text-anchor="middle" x="531" y="-227.98" font-family="Times,serif" font-size="14.00">protect you if things get</text>
<text text-anchor="middle" x="531" y="-210.73" font-family="Times,serif" font-size="14.00">a little out of control.</text>
<text text-anchor="middle" x="531" y="-193.48" font-family="Times,serif" font-size="14.00">You probably shouldn&#39;t</text>
<text text-anchor="middle" x="531" y="-176.23" font-family="Times,serif" font-size="14.00">be seen talking with this</text>
<text text-anchor="middle" x="531" y="-158.98" font-family="Times,serif" font-size="14.00">crazy old man. Best get</text>
<text text-anchor="middle" x="531" y="-141.73" font-family="Times,serif" font-size="14.00">on your way.</text>
</g>
<!-- Node010&#45;&gt;Node011 -->
<g id="edge17" class="edge">
<title>Node010&#45;&gt;Node011</title>
<path fill="none" stroke="#99000e" d="M561.68,-446.73C559.53,-432.37 557.27,-417.33 555,-402.2"/>
<polygon fill="#99000e" stroke="#99000e" points="558.37,-402.09 553.43,-392.72 551.45,-403.13 558.37,-402.09"/>
<text text-anchor="middle" x="638.5" y="-415.26" font-family="Times,serif" font-size="14.00" fill="#99000e">What&#39;s going on here?</text>
</g>
<!-- Node011&#45;&gt;Node999 -->
<g id="edge18" class="edge">
<title>Node011&#45;&gt;Node999</title>
<path fill="none" stroke="#003b99" d="M432.62,-136.12C399.2,-100.73 364.94,-64.46 343.58,-41.85"/>
<polygon fill="#003b99" stroke="#003b99" points="346.46,-39.75 337.05,-34.88 341.37,-44.55 346.46,-39.75"/>
<text text-anchor="middle" x="444.12" y="-57.95" font-family="Times,serif" font-size="14.00" fill="#003b99">Thanks for your help.</text>
</g>
</g>
</svg>
