<?xml version="1.0" encoding="UTF-8" standalone="no"?>
<!DOCTYPE svg PUBLIC "-//W3C//DTD SVG 1.1//EN"
 "http://www.w3.org/Graphics/SVG/1.1/DTD/svg11.dtd">
<!-- Generated by graphviz version 8.0.5 (0)
 -->
<!-- Title: abpeople Pages: 1 -->
<svg width="1724pt" height="189pt"
 viewBox="0.00 0.00 1724.00 188.89" xmlns="http://www.w3.org/2000/svg" xmlns:xlink="http://www.w3.org/1999/xlink">
<g id="graph0" class="graph" transform="scale(1 1) rotate(0) translate(4 184.89)">
<title>abpeople</title>
<polygon fill="white" stroke="none" points="-4,4 -4,-184.89 1720,-184.89 1720,4 -4,4"/>
<!-- start -->
<g id="node1" class="node">
<title>start</title>
<ellipse fill="#ffffff" stroke="#000000" cx="27" cy="-126.45" rx="27" ry="18"/>
</g>
<!-- critter_p_proc -->
<g id="node2" class="node">
<title>critter_p_proc</title>
<ellipse fill="#ffffff" stroke="#000000" cx="99" cy="-126.45" rx="27" ry="18"/>
</g>
<!-- pickup_p_proc -->
<g id="node3" class="node">
<title>pickup_p_proc</title>
<ellipse fill="#ffffff" stroke="#000000" cx="295" cy="-126.45" rx="151.32" ry="30.05"/>
<text text-anchor="middle" x="295" y="-130.4" font-family="Times,serif" font-size="14.00">Убери свои гребаные лапы</text>
<text text-anchor="middle" x="295" y="-113.15" font-family="Times,serif" font-size="14.00">от меня!</text>
</g>
<!-- timed_event_p_proc -->
<g id="node4" class="node">
<title>timed_event_p_proc</title>
<ellipse fill="#ffffff" stroke="#000000" cx="491" cy="-126.45" rx="27" ry="18"/>
</g>
<!-- destroy_p_proc -->
<g id="node5" class="node">
<title>destroy_p_proc</title>
<ellipse fill="#ffffff" stroke="#000000" cx="563" cy="-126.45" rx="27" ry="18"/>
</g>
<!-- use_p_proc -->
<g id="node6" class="node">
<title>use_p_proc</title>
<ellipse fill="#ffffff" stroke="#000000" cx="635" cy="-126.45" rx="27" ry="18"/>
</g>
<!-- look_at_p_proc -->
<g id="node7" class="node">
<title>look_at_p_proc</title>
<ellipse fill="#ffffff" stroke="#000000" cx="818" cy="-126.45" rx="137.53" ry="54.45"/>
<text text-anchor="middle" x="818" y="-147.65" font-family="Times,serif" font-size="14.00">Вы видите крестьянина.</text>
<text text-anchor="middle" x="818" y="-130.4" font-family="Times,serif" font-size="14.00">&#45;&#45;&#45;</text>
<text text-anchor="middle" x="818" y="-113.15" font-family="Times,serif" font-size="14.00">Вы видите здорового</text>
<text text-anchor="middle" x="818" y="-95.9" font-family="Times,serif" font-size="14.00">мужика.</text>
</g>
<!-- description_p_proc -->
<g id="node8" class="node">
<title>description_p_proc</title>
<ellipse fill="#ffffff" stroke="#000000" cx="1093" cy="-126.45" rx="119.08" ry="18"/>
<text text-anchor="middle" x="1093" y="-121.77" font-family="Times,serif" font-size="14.00">Вы видите человека.</text>
</g>
<!-- use_skill_on_p_proc -->
<g id="node9" class="node">
<title>use_skill_on_p_proc</title>
<ellipse fill="#ffffff" stroke="#000000" cx="1257" cy="-126.45" rx="27" ry="18"/>
</g>
<!-- use_obj_on_p_proc -->
<g id="node10" class="node">
<title>use_obj_on_p_proc</title>
<ellipse fill="#ffffff" stroke="#000000" cx="1329" cy="-126.45" rx="27" ry="18"/>
</g>
<!-- damage_p_proc -->
<g id="node11" class="node">
<title>damage_p_proc</title>
<ellipse fill="#ffffff" stroke="#000000" cx="1401" cy="-126.45" rx="27" ry="18"/>
</g>
<!-- map_enter_p_proc -->
<g id="node12" class="node">
<title>map_enter_p_proc</title>
<ellipse fill="#ffffff" stroke="#000000" cx="1473" cy="-126.45" rx="27" ry="18"/>
</g>
<!-- map_update_p_proc -->
<g id="node13" class="node">
<title>map_update_p_proc</title>
<ellipse fill="#ffffff" stroke="#000000" cx="1545" cy="-126.45" rx="27" ry="18"/>
</g>
<!-- talk_p_proc -->
<g id="node14" class="node">
<title>talk_p_proc</title>
<ellipse fill="#ffffff" stroke="#000000" cx="1617" cy="-126.45" rx="27" ry="18"/>
</g>
<!-- Node001 -->
<g id="node15" class="node">
<title>Node001</title>
<ellipse fill="#ffffff" stroke="#000000" cx="1545" cy="-18" rx="27" ry="18"/>
</g>
<!-- talk_p_proc&#45;&gt;Node001 -->
<g id="edge1" class="edge">
<title>talk_p_proc&#45;&gt;Node001</title>
<path fill="none" stroke="#555555" stroke-dasharray="1,5" d="M1606.3,-109.53C1599.15,-98.9 1589.52,-84.6 1581,-72 1574.78,-62.8 1567.93,-52.71 1561.89,-43.83"/>
<polygon fill="#555555" stroke="#555555" points="1564.24,-42.06 1555.73,-35.76 1558.46,-46 1564.24,-42.06"/>
</g>
<!-- Node002 -->
<g id="node16" class="node">
<title>Node002</title>
<ellipse fill="#ffffff" stroke="#000000" cx="1617" cy="-18" rx="27" ry="18"/>
</g>
<!-- talk_p_proc&#45;&gt;Node002 -->
<g id="edge2" class="edge">
<title>talk_p_proc&#45;&gt;Node002</title>
<path fill="none" stroke="#555555" stroke-dasharray="1,5" d="M1617,-108.34C1617,-91.91 1617,-66.79 1617,-47.36"/>
<polygon fill="#555555" stroke="#555555" points="1620.5,-47.41 1617,-37.41 1613.5,-47.41 1620.5,-47.41"/>
</g>
<!-- Node003 -->
<g id="node17" class="node">
<title>Node003</title>
<ellipse fill="#ffffff" stroke="#000000" cx="1689" cy="-18" rx="27" ry="18"/>
</g>
<!-- talk_p_proc&#45;&gt;Node003 -->
<g id="edge3" class="edge">
<title>talk_p_proc&#45;&gt;Node003</title>
<path fill="none" stroke="#555555" stroke-dasharray="1,5" d="M1627.62,-109.74C1639.38,-92.37 1658.47,-64.14 1672.24,-43.78"/>
<polygon fill="#555555" stroke="#555555" points="1675.63,-46.02 1678.33,-35.77 1669.83,-42.09 1675.63,-46.02"/>
</g>
</g>
</svg>
