<?xml version="1.0" encoding="UTF-8" standalone="no"?>
<!DOCTYPE svg PUBLIC "-//W3C//DTD SVG 1.1//EN"
 "http://www.w3.org/Graphics/SVG/1.1/DTD/svg11.dtd">
<!-- Generated by graphviz version 8.0.5 (0)
 -->
<!-- Title: bsfield Pages: 1 -->
<svg width="1725pt" height="334pt"
 viewBox="0.00 0.00 1725.00 333.79" xmlns="http://www.w3.org/2000/svg" xmlns:xlink="http://www.w3.org/1999/xlink">
<g id="graph0" class="graph" transform="scale(1 1) rotate(0) translate(4 329.79)">
<title>bsfield</title>
<polygon fill="white" stroke="none" points="-4,4 -4,-329.79 1721,-329.79 1721,4 -4,4"/>
<!-- start -->
<g id="node1" class="node">
<title>start</title>
<ellipse fill="#ffffff" stroke="#000000" cx="27" cy="-246.95" rx="27" ry="18"/>
</g>
<!-- use_p_proc -->
<g id="node2" class="node">
<title>use_p_proc</title>
<ellipse fill="#ffffff" stroke="#000000" cx="226" cy="-102.05" rx="27" ry="18"/>
</g>
<!-- Do_Damage_Critter(source_obj) -->
<g id="node3" class="node">
<title>Do_Damage_Critter(source_obj)</title>
<ellipse fill="none" stroke="black" cx="226" cy="-18" rx="170.11" ry="18"/>
<text text-anchor="middle" x="226" y="-13.32" font-family="Times,serif" font-size="14.00">Do_Damage_Critter(source_obj)</text>
</g>
<!-- use_p_proc&#45;&gt;Do_Damage_Critter(source_obj) -->
<g id="edge1" class="edge">
<title>use_p_proc&#45;&gt;Do_Damage_Critter(source_obj)</title>
<path fill="none" stroke="#555555" stroke-dasharray="1,5" d="M226,-83.65C226,-73.1 226,-59.38 226,-47.3"/>
<polygon fill="#555555" stroke="#555555" points="229.5,-47.38 226,-37.38 222.5,-47.38 229.5,-47.38"/>
</g>
<!-- look_at_p_proc -->
<g id="node4" class="node">
<title>look_at_p_proc</title>
<ellipse fill="#ffffff" stroke="#000000" cx="497" cy="-246.95" rx="27" ry="18"/>
</g>
<!-- description_p_proc -->
<g id="node5" class="node">
<title>description_p_proc</title>
<ellipse fill="#ffffff" stroke="#000000" cx="569" cy="-246.95" rx="27" ry="18"/>
</g>
<!-- use_skill_on_p_proc -->
<g id="node6" class="node">
<title>use_skill_on_p_proc</title>
<ellipse fill="#ffffff" stroke="#000000" cx="226" cy="-246.95" rx="153.97" ry="66.64"/>
<text text-anchor="middle" x="226" y="-276.77" font-family="Times,serif" font-size="14.00">Да, это очень мощное</text>
<text text-anchor="middle" x="226" y="-259.52" font-family="Times,serif" font-size="14.00">энергетическое поле. Вы</text>
<text text-anchor="middle" x="226" y="-242.27" font-family="Times,serif" font-size="14.00">вовремя останавливаетесь,</text>
<text text-anchor="middle" x="226" y="-225.02" font-family="Times,serif" font-size="14.00">пока вам в руку не</text>
<text text-anchor="middle" x="226" y="-207.77" font-family="Times,serif" font-size="14.00">ударило током.</text>
</g>
<!-- use_skill_on_p_proc&#45;&gt;use_p_proc -->
<g id="edge2" class="edge">
<title>use_skill_on_p_proc&#45;&gt;use_p_proc</title>
<path fill="none" stroke="#555555" stroke-dasharray="1,5" d="M219.27,-179.94C219.16,-162.68 219.57,-145 220.52,-130.96"/>
<polygon fill="#555555" stroke="#555555" points="224.08,-131.36 221.44,-121.1 217.11,-130.77 224.08,-131.36"/>
</g>
<!-- use_skill_on_p_proc&#45;&gt;use_p_proc -->
<g id="edge3" class="edge">
<title>use_skill_on_p_proc&#45;&gt;use_p_proc</title>
<path fill="none" stroke="#555555" stroke-dasharray="1,5" d="M232.73,-179.94C232.84,-162.68 232.43,-145 231.48,-130.96"/>
<polygon fill="#555555" stroke="#555555" points="234.89,-130.77 230.56,-121.1 227.92,-131.36 234.89,-130.77"/>
</g>
<!-- use_obj_on_p_proc -->
<g id="node7" class="node">
<title>use_obj_on_p_proc</title>
<ellipse fill="#ffffff" stroke="#000000" cx="425" cy="-246.95" rx="27" ry="18"/>
</g>
<!-- use_obj_on_p_proc&#45;&gt;use_p_proc -->
<g id="edge4" class="edge">
<title>use_obj_on_p_proc&#45;&gt;use_p_proc</title>
<path fill="none" stroke="#555555" stroke-dasharray="1,5" d="M421.08,-228.88C416.27,-211.46 406.51,-184.7 389,-168.1 353.63,-134.58 298.82,-117.55 262.68,-109.49"/>
<polygon fill="#555555" stroke="#555555" points="263.61,-105.9 253.1,-107.27 262.17,-112.75 263.61,-105.9"/>
</g>
<!-- damage_p_proc -->
<g id="node8" class="node">
<title>damage_p_proc</title>
<ellipse fill="#ffffff" stroke="#000000" cx="772" cy="-246.95" rx="157.68" ry="30.05"/>
<text text-anchor="middle" x="772" y="-250.9" font-family="Times,serif" font-size="14.00">С силовым полем ничего не</text>
<text text-anchor="middle" x="772" y="-233.65" font-family="Times,serif" font-size="14.00">происходит.</text>
</g>
<!-- map_enter_p_proc -->
<g id="node9" class="node">
<title>map_enter_p_proc</title>
<ellipse fill="#ffffff" stroke="#000000" cx="975" cy="-246.95" rx="27" ry="18"/>
</g>
<!-- map_update_p_proc -->
<g id="node10" class="node">
<title>map_update_p_proc</title>
<ellipse fill="#ffffff" stroke="#000000" cx="1047" cy="-246.95" rx="27" ry="18"/>
</g>
<!-- talk_p_proc -->
<g id="node11" class="node">
<title>talk_p_proc</title>
<ellipse fill="#ffffff" stroke="#000000" cx="1119" cy="-246.95" rx="27" ry="18"/>
</g>
<!-- Do_Damage_Critter -->
<g id="node12" class="node">
<title>Do_Damage_Critter</title>
<ellipse fill="#ffffff" stroke="#000000" cx="1319" cy="-246.95" rx="155.03" ry="78.84"/>
<text text-anchor="middle" x="1319" y="-285.4" font-family="Times,serif" font-size="14.00">Вам не удалось сделать</text>
<text text-anchor="middle" x="1319" y="-268.15" font-family="Times,serif" font-size="14.00">ничего полезного, зато вы</text>
<text text-anchor="middle" x="1319" y="-250.9" font-family="Times,serif" font-size="14.00">получили разряд примерно</text>
<text text-anchor="middle" x="1319" y="-233.65" font-family="Times,serif" font-size="14.00">в 50 000 вольт. Ничего,</text>
<text text-anchor="middle" x="1319" y="-216.4" font-family="Times,serif" font-size="14.00">зато теперь бриться не</text>
<text text-anchor="middle" x="1319" y="-199.15" font-family="Times,serif" font-size="14.00">придется.</text>
</g>
<!-- Check_State -->
<g id="node13" class="node">
<title>Check_State</title>
<ellipse fill="#ffffff" stroke="#000000" cx="1420" cy="-18" rx="27" ry="18"/>
</g>
<!-- Delay_Field -->
<g id="node14" class="node">
<title>Delay_Field</title>
<ellipse fill="#ffffff" stroke="#000000" cx="1420" cy="-102.05" rx="152.91" ry="30.05"/>
<text text-anchor="middle" x="1420" y="-106" font-family="Times,serif" font-size="14.00">Силовое поле отключается</text>
<text text-anchor="middle" x="1420" y="-88.75" font-family="Times,serif" font-size="14.00">на пятнадцать секунд.</text>
</g>
<!-- Delay_Field&#45;&gt;Check_State -->
<g id="edge5" class="edge">
<title>Delay_Field&#45;&gt;Check_State</title>
<path fill="none" stroke="#555555" stroke-dasharray="1,5" d="M1420,-71.89C1420,-63.75 1420,-54.93 1420,-46.87"/>
<polygon fill="#555555" stroke="#555555" points="1423.5,-47.12 1420,-37.12 1416.5,-47.12 1423.5,-47.12"/>
</g>
<!-- Destroy_Field -->
<g id="node15" class="node">
<title>Destroy_Field</title>
<ellipse fill="#ffffff" stroke="#000000" cx="1618" cy="-102.05" rx="27" ry="18"/>
</g>
<!-- Do_Flicker -->
<g id="node16" class="node">
<title>Do_Flicker</title>
<ellipse fill="#ffffff" stroke="#000000" cx="1690" cy="-102.05" rx="27" ry="18"/>
</g>
<!-- Do_Flicker&#45;&gt;Check_State -->
<g id="edge6" class="edge">
<title>Do_Flicker&#45;&gt;Check_State</title>
<path fill="none" stroke="#555555" stroke-dasharray="1,5" d="M1675.3,-86.64C1669.15,-81.33 1661.66,-75.71 1654,-72 1589.27,-40.66 1505.41,-27.49 1457.67,-22.23"/>
<polygon fill="#555555" stroke="#555555" points="1458.22,-18.66 1447.92,-21.11 1457.5,-25.63 1458.22,-18.66"/>
</g>
<!-- timed_event_p_proc -->
<g id="node17" class="node">
<title>timed_event_p_proc</title>
<ellipse fill="#ffffff" stroke="#000000" cx="1519" cy="-246.95" rx="27" ry="18"/>
</g>
<!-- timed_event_p_proc&#45;&gt;Check_State -->
<g id="edge7" class="edge">
<title>timed_event_p_proc&#45;&gt;Check_State</title>
<path fill="none" stroke="#555555" stroke-dasharray="1,5" d="M1515.94,-228.72C1511.77,-210.65 1502.47,-182.85 1483,-168.1 1402.27,-106.97 1323.71,-209.16 1258,-132.1 1240.67,-111.78 1242.32,-93.63 1258,-72 1286.14,-33.19 1343.54,-22.27 1381.9,-19.49"/>
<polygon fill="#555555" stroke="#555555" points="1381.87,-22.94 1391.66,-18.89 1381.48,-15.95 1381.87,-22.94"/>
</g>
<!-- timed_event_p_proc&#45;&gt;Delay_Field -->
<g id="edge8" class="edge">
<title>timed_event_p_proc&#45;&gt;Delay_Field</title>
<path fill="none" stroke="#555555" stroke-dasharray="1,5" d="M1513.06,-228.99C1506.9,-212.61 1496.31,-187.5 1483,-168.1 1476.19,-158.18 1467.82,-148.37 1459.43,-139.5"/>
<polygon fill="#555555" stroke="#555555" points="1462.25,-137.35 1452.76,-132.64 1457.24,-142.24 1462.25,-137.35"/>
</g>
<!-- timed_event_p_proc&#45;&gt;Destroy_Field -->
<g id="edge9" class="edge">
<title>timed_event_p_proc&#45;&gt;Destroy_Field</title>
<path fill="none" stroke="#555555" stroke-dasharray="1,5" d="M1529.97,-230.11C1547.14,-205.32 1580.5,-157.17 1600.86,-127.79"/>
<polygon fill="#555555" stroke="#555555" points="1604.16,-130.17 1606.98,-119.96 1598.41,-126.19 1604.16,-130.17"/>
</g>
<!-- timed_event_p_proc&#45;&gt;Do_Flicker -->
<g id="edge10" class="edge">
<title>timed_event_p_proc&#45;&gt;Do_Flicker</title>
<path fill="none" stroke="#555555" stroke-dasharray="1,5" d="M1535.4,-232.25C1565.53,-207.07 1629.86,-153.31 1665.3,-123.69"/>
<polygon fill="#555555" stroke="#555555" points="1667.22,-125.81 1672.65,-116.71 1662.74,-120.44 1667.22,-125.81"/>
</g>
</g>
</svg>
