<?xml version="1.0" encoding="UTF-8" standalone="no"?>
<!DOCTYPE svg PUBLIC "-//W3C//DTD SVG 1.1//EN"
 "http://www.w3.org/Graphics/SVG/1.1/DTD/svg11.dtd">
<!-- Generated by graphviz version 8.0.5 (0)
 -->
<!-- Title: dcdealer Pages: 1 -->
<svg width="1709pt" height="392pt"
 viewBox="0.00 0.00 1709.49 392.50" xmlns="http://www.w3.org/2000/svg" xmlns:xlink="http://www.w3.org/1999/xlink">
<g id="graph0" class="graph" transform="scale(1 1) rotate(0) translate(4 388.5)">
<title>dcdealer</title>
<polygon fill="white" stroke="none" points="-4,4 -4,-388.5 1705.49,-388.5 1705.49,4 -4,4"/>
<!-- start -->
<g id="node1" class="node">
<title>start</title>
<ellipse fill="#ffffff" stroke="#000000" cx="27" cy="-330.05" rx="27" ry="18"/>
</g>
<!-- use_p_proc -->
<g id="node2" class="node">
<title>use_p_proc</title>
<ellipse fill="#ffffff" stroke="#000000" cx="99" cy="-330.05" rx="27" ry="18"/>
</g>
<!-- look_at_p_proc -->
<g id="node3" class="node">
<title>look_at_p_proc</title>
<ellipse fill="#ffffff" stroke="#000000" cx="283" cy="-330.05" rx="139.12" ry="42.25"/>
<text text-anchor="middle" x="283" y="-342.63" font-family="Times,serif" font-size="14.00">Вы видите наркодилера.</text>
<text text-anchor="middle" x="283" y="-325.38" font-family="Times,serif" font-size="14.00">&#45;&#45;&#45;</text>
<text text-anchor="middle" x="283" y="-308.13" font-family="Times,serif" font-size="14.00">Вы видите головореза.</text>
</g>
<!-- description_p_proc -->
<g id="node4" class="node">
<title>description_p_proc</title>
<ellipse fill="#ffffff" stroke="#000000" cx="570" cy="-330.05" rx="130.11" ry="54.45"/>
<text text-anchor="middle" x="570" y="-351.25" font-family="Times,serif" font-size="14.00">Вы видите торговца</text>
<text text-anchor="middle" x="570" y="-334" font-family="Times,serif" font-size="14.00">наркотиками.</text>
<text text-anchor="middle" x="570" y="-316.75" font-family="Times,serif" font-size="14.00">&#45;&#45;&#45;</text>
<text text-anchor="middle" x="570" y="-299.5" font-family="Times,serif" font-size="14.00">Вы видите головореза.</text>
</g>
<!-- use_skill_on_p_proc -->
<g id="node5" class="node">
<title>use_skill_on_p_proc</title>
<ellipse fill="#ffffff" stroke="#000000" cx="745" cy="-330.05" rx="27" ry="18"/>
</g>
<!-- use_obj_on_p_proc -->
<g id="node6" class="node">
<title>use_obj_on_p_proc</title>
<ellipse fill="#ffffff" stroke="#000000" cx="817" cy="-330.05" rx="27" ry="18"/>
</g>
<!-- damage_p_proc -->
<g id="node7" class="node">
<title>damage_p_proc</title>
<ellipse fill="#ffffff" stroke="#000000" cx="889" cy="-330.05" rx="27" ry="18"/>
</g>
<!-- map_enter_p_proc -->
<g id="node8" class="node">
<title>map_enter_p_proc</title>
<ellipse fill="#ffffff" stroke="#000000" cx="961" cy="-330.05" rx="27" ry="18"/>
</g>
<!-- map_update_p_proc -->
<g id="node9" class="node">
<title>map_update_p_proc</title>
<ellipse fill="#ffffff" stroke="#000000" cx="1033" cy="-330.05" rx="27" ry="18"/>
</g>
<!-- talk_p_proc -->
<g id="node10" class="node">
<title>talk_p_proc</title>
<ellipse fill="#ffffff" stroke="#000000" cx="1229" cy="-330.05" rx="150.79" ry="42.25"/>
<text text-anchor="middle" x="1229" y="-342.63" font-family="Times,serif" font-size="14.00">Я здесь для защиты.</text>
<text text-anchor="middle" x="1229" y="-325.38" font-family="Times,serif" font-size="14.00">Обратись к дилеру, если</text>
<text text-anchor="middle" x="1229" y="-308.13" font-family="Times,serif" font-size="14.00">хочешь что&#45;нибудь купить.</text>
</g>
<!-- Node001 -->
<g id="node11" class="node">
<title>Node001</title>
<ellipse fill="#ffffff" stroke="#000000" cx="1229" cy="-208.55" rx="130.64" ry="30.05"/>
<text text-anchor="middle" x="1229" y="-212.5" font-family="Times,serif" font-size="14.00">Если ты ищешь дурь, у</text>
<text text-anchor="middle" x="1229" y="-195.25" font-family="Times,serif" font-size="14.00">меня есть кое&#45;что.</text>
</g>
<!-- talk_p_proc&#45;&gt;Node001 -->
<g id="edge1" class="edge">
<title>talk_p_proc&#45;&gt;Node001</title>
<path fill="none" stroke="#555555" stroke-dasharray="1,5" d="M1229,-287.59C1229,-275.31 1229,-261.88 1229,-249.69"/>
<polygon fill="#555555" stroke="#555555" points="1232.5,-249.9 1229,-239.9 1225.5,-249.9 1232.5,-249.9"/>
</g>
<!-- Node999 -->
<g id="node16" class="node">
<title>Node999</title>
<ellipse fill="#ffffff" stroke="#000000" cx="1229" cy="-18" rx="27" ry="18"/>
</g>
<!-- Node001&#45;&gt;Node999 -->
<g id="edge4" class="edge">
<title>Node001&#45;&gt;Node999</title>
<path fill="none" stroke="#998f00" d="M1225.63,-178.39C1223.28,-154.45 1220.79,-119.66 1222.25,-89.25 1222.91,-75.38 1224.31,-60.03 1225.67,-47.22"/>
<polygon fill="#998f00" stroke="#998f00" points="1229.25,-47.61 1226.87,-37.29 1222.3,-46.84 1229.25,-47.61"/>
<text text-anchor="middle" x="1320.88" y="-102.58" font-family="Times,serif" font-size="14.00" fill="#998f00">Может быть, в другой раз.</text>
</g>
<!-- NodeBarter -->
<g id="node17" class="node">
<title>NodeBarter</title>
<ellipse fill="#ffffff" stroke="#000000" cx="1564" cy="-107.25" rx="137.49" ry="18"/>
<text text-anchor="middle" x="1564" y="-102.58" font-family="Times,serif" font-size="14.00">Нашел, что тебе нужно?</text>
</g>
<!-- Node001&#45;&gt;NodeBarter -->
<g id="edge3" class="edge">
<title>Node001&#45;&gt;NodeBarter</title>
<path fill="none" stroke="#007799" d="M1307.54,-184.27C1366.04,-166.93 1444.94,-143.54 1499.71,-127.31"/>
<polygon fill="#007799" stroke="#007799" points="1500.39,-130.46 1508.99,-124.26 1498.41,-123.75 1500.39,-130.46"/>
<text text-anchor="middle" x="1519.5" y="-147.2" font-family="Times,serif" font-size="14.00" fill="#007799">Конечно, покажи мне.</text>
</g>
<!-- critter_p_proc -->
<g id="node12" class="node">
<title>critter_p_proc</title>
<ellipse fill="#ffffff" stroke="#000000" cx="1425" cy="-330.05" rx="27" ry="18"/>
</g>
<!-- pickup_p_proc -->
<g id="node13" class="node">
<title>pickup_p_proc</title>
<ellipse fill="#ffffff" stroke="#000000" cx="1497" cy="-330.05" rx="27" ry="18"/>
</g>
<!-- Node998 -->
<g id="node14" class="node">
<title>Node998</title>
<ellipse fill="#ffffff" stroke="#000000" cx="1497" cy="-208.55" rx="27" ry="18"/>
</g>
<!-- pickup_p_proc&#45;&gt;Node998 -->
<g id="edge2" class="edge">
<title>pickup_p_proc&#45;&gt;Node998</title>
<path fill="none" stroke="#555555" stroke-dasharray="1,5" d="M1497,-311.68C1497,-292.29 1497,-260.66 1497,-237.73"/>
<polygon fill="#555555" stroke="#555555" points="1500.5,-237.95 1497,-227.95 1493.5,-237.95 1500.5,-237.95"/>
</g>
<!-- destroy_p_proc -->
<g id="node15" class="node">
<title>destroy_p_proc</title>
<ellipse fill="#ffffff" stroke="#000000" cx="1569" cy="-330.05" rx="27" ry="18"/>
</g>
<!-- NodeBarter&#45;&gt;Node999 -->
<g id="edge5" class="edge">
<title>NodeBarter&#45;&gt;Node999</title>
<path fill="none" stroke="#620099" d="M1504.11,-90.65C1434.27,-72.46 1321.15,-43 1264.18,-28.16"/>
<polygon fill="#620099" stroke="#620099" points="1265.45,-24.62 1254.89,-25.48 1263.68,-31.39 1265.45,-24.62"/>
<text text-anchor="middle" x="1510.25" y="-57.95" font-family="Times,serif" font-size="14.00" fill="#620099">Спасибо. До свидания.</text>
</g>
<!-- timed_event_p_proc -->
<g id="node18" class="node">
<title>timed_event_p_proc</title>
<ellipse fill="#ffffff" stroke="#000000" cx="1641" cy="-330.05" rx="27" ry="18"/>
</g>
</g>
</svg>
