<?xml version="1.0" encoding="UTF-8" standalone="no"?>
<!DOCTYPE svg PUBLIC "-//W3C//DTD SVG 1.1//EN"
 "http://www.w3.org/Graphics/SVG/1.1/DTD/svg11.dtd">
<!-- Generated by graphviz version 8.0.5 (0)
 -->
<!-- Title: dcPenGrd Pages: 1 -->
<svg width="1202pt" height="285pt"
 viewBox="0.00 0.00 1202.00 285.00" xmlns="http://www.w3.org/2000/svg" xmlns:xlink="http://www.w3.org/1999/xlink">
<g id="graph0" class="graph" transform="scale(1 1) rotate(0) translate(4 281)">
<title>dcPenGrd</title>
<polygon fill="white" stroke="none" points="-4,4 -4,-281 1198,-281 1198,4 -4,4"/>
<!-- start -->
<g id="node1" class="node">
<title>start</title>
<ellipse fill="#ffffff" stroke="#000000" cx="63" cy="-246.95" rx="27" ry="18"/>
</g>
<!-- critter_p_proc -->
<g id="node2" class="node">
<title>critter_p_proc</title>
<ellipse fill="#ffffff" stroke="#000000" cx="135" cy="-246.95" rx="27" ry="18"/>
</g>
<!-- pickup_p_proc -->
<g id="node3" class="node">
<title>pickup_p_proc</title>
<ellipse fill="#ffffff" stroke="#000000" cx="27" cy="-126.45" rx="27" ry="18"/>
</g>
<!-- Node998 -->
<g id="node4" class="node">
<title>Node998</title>
<ellipse fill="#ffffff" stroke="#000000" cx="207" cy="-18" rx="27" ry="18"/>
</g>
<!-- pickup_p_proc&#45;&gt;Node998 -->
<g id="edge1" class="edge">
<title>pickup_p_proc&#45;&gt;Node998</title>
<path fill="none" stroke="#555555" stroke-dasharray="1,5" d="M34.62,-108.92C40.79,-97.18 50.5,-81.81 63,-72 94.78,-47.06 139.43,-33.07 170.55,-25.81"/>
<polygon fill="#555555" stroke="#555555" points="170.94,-29.09 179.96,-23.52 169.44,-22.25 170.94,-29.09"/>
</g>
<!-- talk_p_proc -->
<g id="node5" class="node">
<title>talk_p_proc</title>
<ellipse fill="#ffffff" stroke="#000000" cx="387" cy="-126.45" rx="27" ry="18"/>
</g>
<!-- talk_p_proc&#45;&gt;Node998 -->
<g id="edge2" class="edge">
<title>talk_p_proc&#45;&gt;Node998</title>
<path fill="none" stroke="#555555" stroke-dasharray="1,5" d="M379.38,-108.92C373.21,-97.18 363.5,-81.81 351,-72 319.22,-47.06 274.57,-33.07 243.45,-25.81"/>
<polygon fill="#555555" stroke="#555555" points="244.56,-22.25 234.04,-23.52 243.06,-29.09 244.56,-22.25"/>
</g>
<!-- Node003 -->
<g id="node6" class="node">
<title>Node003</title>
<ellipse fill="#ffffff" stroke="#000000" cx="351" cy="-18" rx="27" ry="18"/>
</g>
<!-- talk_p_proc&#45;&gt;Node003 -->
<g id="edge3" class="edge">
<title>talk_p_proc&#45;&gt;Node003</title>
<path fill="none" stroke="#555555" stroke-dasharray="1,5" d="M381.38,-108.81C375.7,-92.04 366.85,-65.87 360.16,-46.09"/>
<polygon fill="#555555" stroke="#555555" points="363.22,-45.22 356.7,-36.87 356.59,-47.46 363.22,-45.22"/>
</g>
<!-- Node002 -->
<g id="node7" class="node">
<title>Node002</title>
<ellipse fill="#ffffff" stroke="#000000" cx="423" cy="-18" rx="27" ry="18"/>
</g>
<!-- talk_p_proc&#45;&gt;Node002 -->
<g id="edge4" class="edge">
<title>talk_p_proc&#45;&gt;Node002</title>
<path fill="none" stroke="#555555" stroke-dasharray="1,5" d="M392.62,-108.81C398.3,-92.04 407.15,-65.87 413.84,-46.09"/>
<polygon fill="#555555" stroke="#555555" points="417.41,-47.46 417.3,-36.87 410.78,-45.22 417.41,-47.46"/>
</g>
<!-- destroy_p_proc -->
<g id="node8" class="node">
<title>destroy_p_proc</title>
<ellipse fill="#ffffff" stroke="#000000" cx="279" cy="-246.95" rx="27" ry="18"/>
</g>
<!-- look_at_p_proc -->
<g id="node9" class="node">
<title>look_at_p_proc</title>
<ellipse fill="#ffffff" stroke="#000000" cx="465" cy="-246.95" rx="141.17" ry="18"/>
<text text-anchor="middle" x="465" y="-242.27" font-family="Times,serif" font-size="14.00">Вы видите работорговца.</text>
</g>
<!-- description_p_proc -->
<g id="node10" class="node">
<title>description_p_proc</title>
<ellipse fill="#ffffff" stroke="#000000" cx="765" cy="-246.95" rx="141.24" ry="30.05"/>
<text text-anchor="middle" x="765" y="-250.9" font-family="Times,serif" font-size="14.00">Он явно держит ушки на</text>
<text text-anchor="middle" x="765" y="-233.65" font-family="Times,serif" font-size="14.00">макушке.</text>
</g>
<!-- use_skill_on_p_proc -->
<g id="node11" class="node">
<title>use_skill_on_p_proc</title>
<ellipse fill="#ffffff" stroke="#000000" cx="951" cy="-246.95" rx="27" ry="18"/>
</g>
<!-- damage_p_proc -->
<g id="node12" class="node">
<title>damage_p_proc</title>
<ellipse fill="#ffffff" stroke="#000000" cx="1023" cy="-246.95" rx="27" ry="18"/>
</g>
<!-- map_enter_p_proc -->
<g id="node13" class="node">
<title>map_enter_p_proc</title>
<ellipse fill="#ffffff" stroke="#000000" cx="1095" cy="-246.95" rx="27" ry="18"/>
</g>
<!-- map_exit_p_proc -->
<g id="node14" class="node">
<title>map_exit_p_proc</title>
<ellipse fill="#ffffff" stroke="#000000" cx="1167" cy="-246.95" rx="27" ry="18"/>
</g>
<!-- timed_event_p_proc -->
<g id="node15" class="node">
<title>timed_event_p_proc</title>
<ellipse fill="#ffffff" stroke="#000000" cx="207" cy="-246.95" rx="27" ry="18"/>
</g>
<!-- Node001 -->
<g id="node16" class="node">
<title>Node001</title>
<ellipse fill="#ffffff" stroke="#000000" cx="207" cy="-126.45" rx="134.88" ry="54.45"/>
<text text-anchor="middle" x="207" y="-147.65" font-family="Times,serif" font-size="14.00">Все, хватит!</text>
<text text-anchor="middle" x="207" y="-130.4" font-family="Times,serif" font-size="14.00">&#45;&#45;&#45;</text>
<text text-anchor="middle" x="207" y="-113.15" font-family="Times,serif" font-size="14.00">Дотронешься еще раз &#45;&#45;</text>
<text text-anchor="middle" x="207" y="-95.9" font-family="Times,serif" font-size="14.00">останешься без руки.</text>
</g>
<!-- timed_event_p_proc&#45;&gt;Node001 -->
<g id="edge5" class="edge">
<title>timed_event_p_proc&#45;&gt;Node001</title>
<path fill="none" stroke="#555555" stroke-dasharray="1,5" d="M207,-228.46C207,-218.56 207,-205.48 207,-192.04"/>
<polygon fill="#555555" stroke="#555555" points="210.5,-192.23 207,-182.23 203.5,-192.23 210.5,-192.23"/>
</g>
<!-- Node001&#45;&gt;Node998 -->
<g id="edge6" class="edge">
<title>Node001&#45;&gt;Node998</title>
<path fill="none" stroke="#555555" stroke-dasharray="1,5" d="M207,-71.6C207,-63.21 207,-54.84 207,-47.32"/>
<polygon fill="#555555" stroke="#555555" points="210.5,-47.33 207,-37.33 203.5,-47.33 210.5,-47.33"/>
</g>
</g>
</svg>
