<?xml version="1.0" encoding="UTF-8" standalone="no"?>
<!DOCTYPE svg PUBLIC "-//W3C//DTD SVG 1.1//EN"
 "http://www.w3.org/Graphics/SVG/1.1/DTD/svg11.dtd">
<!-- Generated by graphviz version 8.0.5 (0)
 -->
<!-- Title: dcRnSlvr Pages: 1 -->
<svg width="1642pt" height="164pt"
 viewBox="0.00 0.00 1642.00 164.50" xmlns="http://www.w3.org/2000/svg" xmlns:xlink="http://www.w3.org/1999/xlink">
<g id="graph0" class="graph" transform="scale(1 1) rotate(0) translate(4 160.5)">
<title>dcRnSlvr</title>
<polygon fill="white" stroke="none" points="-4,4 -4,-160.5 1638,-160.5 1638,4 -4,4"/>
<!-- start -->
<g id="node1" class="node">
<title>start</title>
<ellipse fill="#ffffff" stroke="#000000" cx="27" cy="-114.25" rx="27" ry="18"/>
</g>
<!-- critter_p_proc -->
<g id="node2" class="node">
<title>critter_p_proc</title>
<ellipse fill="#ffffff" stroke="#000000" cx="99" cy="-114.25" rx="27" ry="18"/>
</g>
<!-- pickup_p_proc -->
<g id="node3" class="node">
<title>pickup_p_proc</title>
<ellipse fill="#ffffff" stroke="#000000" cx="171" cy="-114.25" rx="27" ry="18"/>
</g>
<!-- Node998 -->
<g id="node4" class="node">
<title>Node998</title>
<ellipse fill="#ffffff" stroke="#000000" cx="171" cy="-18" rx="27" ry="18"/>
</g>
<!-- pickup_p_proc&#45;&gt;Node998 -->
<g id="edge1" class="edge">
<title>pickup_p_proc&#45;&gt;Node998</title>
<path fill="none" stroke="#555555" stroke-dasharray="1,5" d="M171,-95.96C171,-82.36 171,-63.13 171,-47.3"/>
<polygon fill="#555555" stroke="#555555" points="174.5,-47.5 171,-37.5 167.5,-47.5 174.5,-47.5"/>
</g>
<!-- talk_p_proc -->
<g id="node5" class="node">
<title>talk_p_proc</title>
<ellipse fill="#ffffff" stroke="#000000" cx="423" cy="-114.25" rx="27" ry="18"/>
</g>
<!-- Node001 -->
<g id="node6" class="node">
<title>Node001</title>
<ellipse fill="#ffffff" stroke="#000000" cx="243" cy="-18" rx="27" ry="18"/>
</g>
<!-- talk_p_proc&#45;&gt;Node001 -->
<g id="edge2" class="edge">
<title>talk_p_proc&#45;&gt;Node001</title>
<path fill="none" stroke="#555555" stroke-dasharray="1,5" d="M402.35,-102.44C370.7,-85.86 310.01,-54.08 273.34,-34.89"/>
<polygon fill="#555555" stroke="#555555" points="275.17,-31.37 264.68,-29.83 271.92,-37.57 275.17,-31.37"/>
</g>
<!-- Node002 -->
<g id="node7" class="node">
<title>Node002</title>
<ellipse fill="#ffffff" stroke="#000000" cx="315" cy="-18" rx="27" ry="18"/>
</g>
<!-- talk_p_proc&#45;&gt;Node002 -->
<g id="edge3" class="edge">
<title>talk_p_proc&#45;&gt;Node002</title>
<path fill="none" stroke="#555555" stroke-dasharray="1,5" d="M407.06,-99.34C389.12,-83.68 359.76,-58.06 339.03,-39.97"/>
<polygon fill="#555555" stroke="#555555" points="341.84,-36.9 332,-32.96 337.23,-42.18 341.84,-36.9"/>
</g>
<!-- Node006 -->
<g id="node8" class="node">
<title>Node006</title>
<ellipse fill="#ffffff" stroke="#000000" cx="387" cy="-18" rx="27" ry="18"/>
</g>
<!-- talk_p_proc&#45;&gt;Node006 -->
<g id="edge4" class="edge">
<title>talk_p_proc&#45;&gt;Node006</title>
<path fill="none" stroke="#555555" stroke-dasharray="1,5" d="M416.56,-96.4C411.19,-82.33 403.43,-62.01 397.21,-45.72"/>
<polygon fill="#555555" stroke="#555555" points="400.22,-44.8 393.38,-36.7 393.68,-47.29 400.22,-44.8"/>
</g>
<!-- Node005 -->
<g id="node9" class="node">
<title>Node005</title>
<ellipse fill="#ffffff" stroke="#000000" cx="459" cy="-18" rx="27" ry="18"/>
</g>
<!-- talk_p_proc&#45;&gt;Node005 -->
<g id="edge5" class="edge">
<title>talk_p_proc&#45;&gt;Node005</title>
<path fill="none" stroke="#555555" stroke-dasharray="1,5" d="M429.44,-96.4C434.81,-82.33 442.57,-62.01 448.79,-45.72"/>
<polygon fill="#555555" stroke="#555555" points="452.32,-47.29 452.62,-36.7 445.78,-44.8 452.32,-47.29"/>
</g>
<!-- Node003 -->
<g id="node10" class="node">
<title>Node003</title>
<ellipse fill="#ffffff" stroke="#000000" cx="531" cy="-18" rx="27" ry="18"/>
</g>
<!-- talk_p_proc&#45;&gt;Node003 -->
<g id="edge6" class="edge">
<title>talk_p_proc&#45;&gt;Node003</title>
<path fill="none" stroke="#555555" stroke-dasharray="1,5" d="M434.93,-98.02C441.61,-89.91 450.33,-79.98 459,-72 472.64,-59.45 489.23,-47.07 503.04,-37.44"/>
<polygon fill="#555555" stroke="#555555" points="504.82,-39.78 511.09,-31.24 500.86,-34 504.82,-39.78"/>
</g>
<!-- Node004 -->
<g id="node11" class="node">
<title>Node004</title>
<ellipse fill="#ffffff" stroke="#000000" cx="603" cy="-18" rx="27" ry="18"/>
</g>
<!-- talk_p_proc&#45;&gt;Node004 -->
<g id="edge7" class="edge">
<title>talk_p_proc&#45;&gt;Node004</title>
<path fill="none" stroke="#555555" stroke-dasharray="1,5" d="M433.71,-97.28C440.15,-88.73 449.03,-78.64 459,-72 501.11,-43.96 520.04,-54.84 567,-36 568.68,-35.33 570.38,-34.62 572.1,-33.88"/>
<polygon fill="#555555" stroke="#555555" points="573.18,-36.78 580.87,-29.49 570.31,-30.4 573.18,-36.78"/>
</g>
<!-- destroy_p_proc -->
<g id="node12" class="node">
<title>destroy_p_proc</title>
<ellipse fill="#ffffff" stroke="#000000" cx="495" cy="-114.25" rx="27" ry="18"/>
</g>
<!-- look_at_p_proc -->
<g id="node13" class="node">
<title>look_at_p_proc</title>
<ellipse fill="#ffffff" stroke="#000000" cx="691" cy="-114.25" rx="150.79" ry="30.05"/>
<text text-anchor="middle" x="691" y="-118.2" font-family="Times,serif" font-size="14.00">Вы видите крепкого</text>
<text text-anchor="middle" x="691" y="-100.95" font-family="Times,serif" font-size="14.00">работорговца средних лет.</text>
</g>
<!-- description_p_proc -->
<g id="node14" class="node">
<title>description_p_proc</title>
<ellipse fill="#ffffff" stroke="#000000" cx="977" cy="-114.25" rx="117.38" ry="42.25"/>
<text text-anchor="middle" x="977" y="-126.82" font-family="Times,serif" font-size="14.00">Этот работорговец,</text>
<text text-anchor="middle" x="977" y="-109.57" font-family="Times,serif" font-size="14.00">похоже, любит свою</text>
<text text-anchor="middle" x="977" y="-92.32" font-family="Times,serif" font-size="14.00">работу.</text>
</g>
<!-- use_skill_on_p_proc -->
<g id="node15" class="node">
<title>use_skill_on_p_proc</title>
<ellipse fill="#ffffff" stroke="#000000" cx="1139" cy="-114.25" rx="27" ry="18"/>
</g>
<!-- damage_p_proc -->
<g id="node16" class="node">
<title>damage_p_proc</title>
<ellipse fill="#ffffff" stroke="#000000" cx="1211" cy="-114.25" rx="27" ry="18"/>
</g>
<!-- map_enter_p_proc -->
<g id="node17" class="node">
<title>map_enter_p_proc</title>
<ellipse fill="#ffffff" stroke="#000000" cx="1283" cy="-114.25" rx="27" ry="18"/>
</g>
<!-- map_exit_p_proc -->
<g id="node18" class="node">
<title>map_exit_p_proc</title>
<ellipse fill="#ffffff" stroke="#000000" cx="1355" cy="-114.25" rx="27" ry="18"/>
</g>
<!-- timed_event_p_proc -->
<g id="node19" class="node">
<title>timed_event_p_proc</title>
<ellipse fill="#ffffff" stroke="#000000" cx="1427" cy="-114.25" rx="27" ry="18"/>
</g>
<!-- Node007 -->
<g id="node20" class="node">
<title>Node007</title>
<ellipse fill="#ffffff" stroke="#000000" cx="1247" cy="-18" rx="27" ry="18"/>
</g>
<!-- timed_event_p_proc&#45;&gt;Node007 -->
<g id="edge8" class="edge">
<title>timed_event_p_proc&#45;&gt;Node007</title>
<path fill="none" stroke="#555555" stroke-dasharray="1,5" d="M1416.29,-97.28C1409.85,-88.73 1400.97,-78.64 1391,-72 1348.89,-43.96 1329.96,-54.84 1283,-36 1281.32,-35.33 1279.62,-34.62 1277.9,-33.88"/>
<polygon fill="#555555" stroke="#555555" points="1279.69,-30.4 1269.13,-29.49 1276.82,-36.78 1279.69,-30.4"/>
</g>
<!-- Node008 -->
<g id="node21" class="node">
<title>Node008</title>
<ellipse fill="#ffffff" stroke="#000000" cx="1319" cy="-18" rx="27" ry="18"/>
</g>
<!-- timed_event_p_proc&#45;&gt;Node008 -->
<g id="edge9" class="edge">
<title>timed_event_p_proc&#45;&gt;Node008</title>
<path fill="none" stroke="#555555" stroke-dasharray="1,5" d="M1415.07,-98.02C1408.39,-89.91 1399.67,-79.98 1391,-72 1377.36,-59.45 1360.77,-47.07 1346.96,-37.44"/>
<polygon fill="#555555" stroke="#555555" points="1349.14,-34 1338.91,-31.24 1345.18,-39.78 1349.14,-34"/>
</g>
<!-- Node012 -->
<g id="node22" class="node">
<title>Node012</title>
<ellipse fill="#ffffff" stroke="#000000" cx="1391" cy="-18" rx="27" ry="18"/>
</g>
<!-- timed_event_p_proc&#45;&gt;Node012 -->
<g id="edge10" class="edge">
<title>timed_event_p_proc&#45;&gt;Node012</title>
<path fill="none" stroke="#555555" stroke-dasharray="1,5" d="M1420.56,-96.4C1415.19,-82.33 1407.43,-62.01 1401.21,-45.72"/>
<polygon fill="#555555" stroke="#555555" points="1404.22,-44.8 1397.38,-36.7 1397.68,-47.29 1404.22,-44.8"/>
</g>
<!-- Node011 -->
<g id="node23" class="node">
<title>Node011</title>
<ellipse fill="#ffffff" stroke="#000000" cx="1463" cy="-18" rx="27" ry="18"/>
</g>
<!-- timed_event_p_proc&#45;&gt;Node011 -->
<g id="edge11" class="edge">
<title>timed_event_p_proc&#45;&gt;Node011</title>
<path fill="none" stroke="#555555" stroke-dasharray="1,5" d="M1433.44,-96.4C1438.81,-82.33 1446.57,-62.01 1452.79,-45.72"/>
<polygon fill="#555555" stroke="#555555" points="1456.32,-47.29 1456.62,-36.7 1449.78,-44.8 1456.32,-47.29"/>
</g>
<!-- Node009 -->
<g id="node24" class="node">
<title>Node009</title>
<ellipse fill="#ffffff" stroke="#000000" cx="1535" cy="-18" rx="27" ry="18"/>
</g>
<!-- timed_event_p_proc&#45;&gt;Node009 -->
<g id="edge12" class="edge">
<title>timed_event_p_proc&#45;&gt;Node009</title>
<path fill="none" stroke="#555555" stroke-dasharray="1,5" d="M1438.93,-98.02C1445.61,-89.91 1454.33,-79.98 1463,-72 1476.64,-59.45 1493.23,-47.07 1507.04,-37.44"/>
<polygon fill="#555555" stroke="#555555" points="1508.82,-39.78 1515.09,-31.24 1504.86,-34 1508.82,-39.78"/>
</g>
<!-- Node010 -->
<g id="node25" class="node">
<title>Node010</title>
<ellipse fill="#ffffff" stroke="#000000" cx="1607" cy="-18" rx="27" ry="18"/>
</g>
<!-- timed_event_p_proc&#45;&gt;Node010 -->
<g id="edge13" class="edge">
<title>timed_event_p_proc&#45;&gt;Node010</title>
<path fill="none" stroke="#555555" stroke-dasharray="1,5" d="M1437.71,-97.28C1444.15,-88.73 1453.03,-78.64 1463,-72 1505.11,-43.96 1524.04,-54.84 1571,-36 1572.68,-35.33 1574.38,-34.62 1576.1,-33.88"/>
<polygon fill="#555555" stroke="#555555" points="1577.18,-36.78 1584.87,-29.49 1574.31,-30.4 1577.18,-36.78"/>
</g>
<!-- combat_p_proc -->
<g id="node26" class="node">
<title>combat_p_proc</title>
<ellipse fill="#ffffff" stroke="#000000" cx="1499" cy="-114.25" rx="27" ry="18"/>
</g>
<!-- map_update_p_proc -->
<g id="node27" class="node">
<title>map_update_p_proc</title>
<ellipse fill="#ffffff" stroke="#000000" cx="1571" cy="-114.25" rx="27" ry="18"/>
</g>
</g>
</svg>
