<?xml version="1.0" encoding="UTF-8" standalone="no"?>
<!DOCTYPE svg PUBLIC "-//W3C//DTD SVG 1.1//EN"
 "http://www.w3.org/Graphics/SVG/1.1/DTD/svg11.dtd">
<!-- Generated by graphviz version 8.0.5 (0)
 -->
<!-- Title: dcSlave Pages: 1 -->
<svg width="2297pt" height="1479pt"
 viewBox="0.00 0.00 2297.33 1478.67" xmlns="http://www.w3.org/2000/svg" xmlns:xlink="http://www.w3.org/1999/xlink">
<g id="graph0" class="graph" transform="scale(1 1) rotate(0) translate(4 1474.67)">
<title>dcSlave</title>
<polygon fill="white" stroke="none" points="-4,4 -4,-1474.67 2293.33,-1474.67 2293.33,4 -4,4"/>
<!-- start -->
<g id="node1" class="node">
<title>start</title>
<ellipse fill="#ffffff" stroke="#000000" cx="490.33" cy="-1404.02" rx="27" ry="18"/>
</g>
<!-- critter_p_proc -->
<g id="node2" class="node">
<title>critter_p_proc</title>
<ellipse fill="#ffffff" stroke="#000000" cx="562.33" cy="-1404.02" rx="27" ry="18"/>
</g>
<!-- pickup_p_proc -->
<g id="node3" class="node">
<title>pickup_p_proc</title>
<ellipse fill="#ffffff" stroke="#000000" cx="634.33" cy="-1404.02" rx="27" ry="18"/>
</g>
<!-- Node998 -->
<g id="node4" class="node">
<title>Node998</title>
<ellipse fill="#ffffff" stroke="#000000" cx="634.33" cy="-1197.14" rx="27" ry="18"/>
</g>
<!-- pickup_p_proc&#45;&gt;Node998 -->
<g id="edge1" class="edge">
<title>pickup_p_proc&#45;&gt;Node998</title>
<path fill="none" stroke="#555555" stroke-dasharray="1,5" d="M634.33,-1385.55C634.33,-1350.1 634.33,-1269.41 634.33,-1226.38"/>
<polygon fill="#555555" stroke="#555555" points="637.83,-1226.56 634.33,-1216.56 630.83,-1226.56 637.83,-1226.56"/>
</g>
<!-- talk_p_proc -->
<g id="node5" class="node">
<title>talk_p_proc</title>
<ellipse fill="#ffffff" stroke="#000000" cx="1144.33" cy="-1404.02" rx="27" ry="18"/>
</g>
<!-- Node013 -->
<g id="node6" class="node">
<title>Node013</title>
<ellipse fill="#ffffff" stroke="#000000" cx="706.33" cy="-1197.14" rx="27" ry="18"/>
</g>
<!-- talk_p_proc&#45;&gt;Node013 -->
<g id="edge2" class="edge">
<title>talk_p_proc&#45;&gt;Node013</title>
<path fill="none" stroke="#555555" stroke-dasharray="1,5" d="M1117.78,-1399.54C1037.38,-1388.49 798.66,-1351.92 742.33,-1300.38 721.43,-1281.25 712.66,-1249.26 708.98,-1226.15"/>
<polygon fill="#555555" stroke="#555555" points="712.33,-1225.74 707.52,-1216.3 705.39,-1226.68 712.33,-1225.74"/>
</g>
<!-- Node002 -->
<g id="node7" class="node">
<title>Node002</title>
<ellipse fill="#ffffff" stroke="#000000" cx="778.33" cy="-1197.14" rx="27" ry="18"/>
</g>
<!-- talk_p_proc&#45;&gt;Node002 -->
<g id="edge3" class="edge">
<title>talk_p_proc&#45;&gt;Node002</title>
<path fill="none" stroke="#555555" stroke-dasharray="1,5" d="M1117.2,-1402.43C1055.08,-1399.61 901.17,-1384.06 814.33,-1300.38 794.04,-1280.83 785.17,-1249.18 781.3,-1226.27"/>
<polygon fill="#555555" stroke="#555555" points="784.64,-1225.9 779.74,-1216.5 777.71,-1226.9 784.64,-1225.9"/>
</g>
<!-- Node008 -->
<g id="node8" class="node">
<title>Node008</title>
<ellipse fill="#ffffff" stroke="#000000" cx="965.33" cy="-1197.14" rx="142.31" ry="103.24"/>
<text text-anchor="middle" x="965.33" y="-1252.84" font-family="Times,serif" font-size="14.00">Зачем оружие стрелять?</text>
<text text-anchor="middle" x="965.33" y="-1235.59" font-family="Times,serif" font-size="14.00">Что вы хотеть?</text>
<text text-anchor="middle" x="965.33" y="-1218.34" font-family="Times,serif" font-size="14.00">&#45;&#45;&#45;</text>
<text text-anchor="middle" x="965.33" y="-1201.09" font-family="Times,serif" font-size="14.00">Эй! Что там за стрельба?</text>
<text text-anchor="middle" x="965.33" y="-1183.84" font-family="Times,serif" font-size="14.00">Работорговцы убиты?</text>
<text text-anchor="middle" x="965.33" y="-1166.59" font-family="Times,serif" font-size="14.00">&#45;&#45;&#45;</text>
<text text-anchor="middle" x="965.33" y="-1149.34" font-family="Times,serif" font-size="14.00">друг. Он убить Мезгар.</text>
<text text-anchor="middle" x="965.33" y="-1132.09" font-family="Times,serif" font-size="14.00">Твоя теперь идти.</text>
</g>
<!-- talk_p_proc&#45;&gt;Node008 -->
<g id="edge4" class="edge">
<title>talk_p_proc&#45;&gt;Node008</title>
<path fill="none" stroke="#555555" stroke-dasharray="1,5" d="M1131.17,-1387.96C1113.3,-1367.51 1079.91,-1329.28 1047.74,-1292.47"/>
<polygon fill="#555555" stroke="#555555" points="1050.12,-1290.87 1040.9,-1285.64 1044.85,-1295.47 1050.12,-1290.87"/>
</g>
<!-- Node010 -->
<g id="node9" class="node">
<title>Node010</title>
<ellipse fill="#ffffff" stroke="#000000" cx="1154.33" cy="-968.95" rx="132.23" ry="54.45"/>
<text text-anchor="middle" x="1154.33" y="-990.15" font-family="Times,serif" font-size="14.00">Что твоя хотеть?</text>
<text text-anchor="middle" x="1154.33" y="-972.9" font-family="Times,serif" font-size="14.00">&#45;&#45;&#45;</text>
<text text-anchor="middle" x="1154.33" y="-955.65" font-family="Times,serif" font-size="14.00">друг. Он убить Мезгар.</text>
<text text-anchor="middle" x="1154.33" y="-938.4" font-family="Times,serif" font-size="14.00">Твоя теперь идти.</text>
</g>
<!-- talk_p_proc&#45;&gt;Node010 -->
<g id="edge5" class="edge">
<title>talk_p_proc&#45;&gt;Node010</title>
<path fill="none" stroke="#555555" stroke-dasharray="1,5" d="M1141.87,-1385.78C1138.87,-1327.49 1142.59,-1135.82 1147.87,-1034.32"/>
<polygon fill="#555555" stroke="#555555" points="1151.41,-1034.78 1148.46,-1024.6 1144.42,-1034.39 1151.41,-1034.78"/>
</g>
<!-- talk_p_proc&#45;&gt;Node010 -->
<g id="edge6" class="edge">
<title>talk_p_proc&#45;&gt;Node010</title>
<path fill="none" stroke="#555555" stroke-dasharray="1,5" d="M1147.58,-1385.78C1153.28,-1327.49 1158.41,-1135.82 1157.81,-1034.32"/>
<polygon fill="#555555" stroke="#555555" points="1161.31,-1034.57 1157.72,-1024.6 1154.31,-1034.63 1161.31,-1034.57"/>
</g>
<!-- Node003 -->
<g id="node10" class="node">
<title>Node003</title>
<ellipse fill="#ffffff" stroke="#000000" cx="1208.33" cy="-1197.14" rx="27" ry="18"/>
</g>
<!-- talk_p_proc&#45;&gt;Node003 -->
<g id="edge7" class="edge">
<title>talk_p_proc&#45;&gt;Node003</title>
<path fill="none" stroke="#555555" stroke-dasharray="1,5" d="M1149.68,-1385.91C1160.79,-1350.34 1186.45,-1268.19 1199.84,-1225.31"/>
<polygon fill="#555555" stroke="#555555" points="1203.4,-1226.65 1203.04,-1216.06 1196.72,-1224.56 1203.4,-1226.65"/>
</g>
<!-- Node004 -->
<g id="node11" class="node">
<title>Node004</title>
<ellipse fill="#ffffff" stroke="#000000" cx="1280.33" cy="-1197.14" rx="27" ry="18"/>
</g>
<!-- talk_p_proc&#45;&gt;Node004 -->
<g id="edge8" class="edge">
<title>talk_p_proc&#45;&gt;Node004</title>
<path fill="none" stroke="#555555" stroke-dasharray="1,5" d="M1150.61,-1386.03C1156.55,-1371.73 1166.61,-1351.41 1180.33,-1337.38 1203.3,-1313.88 1223.35,-1325.66 1244.33,-1300.38 1262.03,-1279.04 1271.28,-1248.4 1275.94,-1226.24"/>
<polygon fill="#555555" stroke="#555555" points="1279.55,-1226.99 1277.99,-1216.51 1272.68,-1225.68 1279.55,-1226.99"/>
</g>
<!-- Node999 -->
<g id="node24" class="node">
<title>Node999</title>
<ellipse fill="#ffffff" stroke="#000000" cx="775.33" cy="-18" rx="27" ry="18"/>
</g>
<!-- Node008&#45;&gt;Node999 -->
<g id="edge13" class="edge">
<title>Node008&#45;&gt;Node999</title>
<path fill="none" stroke="#990019" d="M959.53,-1093.71C957.79,-1054.95 956.33,-1010.43 956.33,-969.95 956.33,-969.95 956.33,-969.95 956.33,-559.64 956.33,-358.15 1043.18,-280.94 942.33,-106.5 914.94,-59.13 852.11,-36.31 811.8,-26.18"/>
<polygon fill="#990019" stroke="#990019" points="812.87,-22.6 802.33,-23.71 811.26,-29.41 812.87,-22.6"/>
<text text-anchor="middle" x="1053.45" y="-732.52" font-family="Times,serif" font-size="14.00" fill="#990019">О, пустяки. Просто</text>
<text text-anchor="middle" x="1053.45" y="-715.27" font-family="Times,serif" font-size="14.00" fill="#990019">хотелось проведать. Пока.</text>
</g>
<!-- Node011 -->
<g id="node25" class="node">
<title>Node011</title>
<ellipse fill="#ffffff" stroke="#000000" cx="571.33" cy="-968.95" rx="27" ry="18"/>
<text text-anchor="middle" x="571.33" y="-964.28" font-family="Times,serif" font-size="14.00">А?</text>
</g>
<!-- Node008&#45;&gt;Node011 -->
<g id="edge12" class="edge">
<title>Node008&#45;&gt;Node011</title>
<path fill="none" stroke="#009914" d="M869.38,-1120.6C851.88,-1109.97 833.17,-1100.45 814.33,-1093.9 788.92,-1085.06 591.27,-1095.49 572.83,-1075.9 553.45,-1055.32 556.8,-1021.27 562.57,-997.34"/>
<polygon fill="#009914" stroke="#009914" points="566.18,-998.39 565.41,-987.83 559.42,-996.57 566.18,-998.39"/>
<text text-anchor="middle" x="662.58" y="-1062.6" font-family="Times,serif" font-size="14.00" fill="#009914">Это был последний день</text>
<text text-anchor="middle" x="662.58" y="-1045.35" font-family="Times,serif" font-size="14.00" fill="#009914">Мецгера.</text>
</g>
<!-- Node009 -->
<g id="node26" class="node">
<title>Node009</title>
<ellipse fill="#ffffff" stroke="#000000" cx="575.33" cy="-728.57" rx="147.08" ry="115.44"/>
<text text-anchor="middle" x="575.33" y="-792.9" font-family="Times,serif" font-size="14.00">Он мертвая? Моя спасибо</text>
<text text-anchor="middle" x="575.33" y="-775.65" font-family="Times,serif" font-size="14.00">твоя! Мы идти быстро.</text>
<text text-anchor="middle" x="575.33" y="-758.4" font-family="Times,serif" font-size="14.00">Пока. Твоя друг.</text>
<text text-anchor="middle" x="575.33" y="-741.15" font-family="Times,serif" font-size="14.00">&#45;&#45;&#45;</text>
<text text-anchor="middle" x="575.33" y="-723.9" font-family="Times,serif" font-size="14.00">Вы освободили рабов из</text>
<text text-anchor="middle" x="575.33" y="-706.65" font-family="Times,serif" font-size="14.00">загонов.</text>
<text text-anchor="middle" x="575.33" y="-689.4" font-family="Times,serif" font-size="14.00">&#45;&#45;&#45;</text>
<text text-anchor="middle" x="575.33" y="-672.15" font-family="Times,serif" font-size="14.00">Вы видите здоровенного</text>
<text text-anchor="middle" x="575.33" y="-654.9" font-family="Times,serif" font-size="14.00">мужика дикарского вида.</text>
</g>
<!-- Node008&#45;&gt;Node009 -->
<g id="edge14" class="edge">
<title>Node008&#45;&gt;Node009</title>
<path fill="none" stroke="#004599" d="M864.91,-1124.15C832.88,-1096.23 800.38,-1061.71 779.58,-1023.4 744.83,-959.41 789.36,-924.11 751.33,-862.01 738.31,-840.75 720.51,-821.73 701.21,-805.19"/>
<polygon fill="#004599" stroke="#004599" points="703.78,-801.95 693.85,-798.25 699.31,-807.33 703.78,-801.95"/>
<text text-anchor="middle" x="861.7" y="-972.9" font-family="Times,serif" font-size="14.00" fill="#004599">Можете идти. Мецгер</text>
<text text-anchor="middle" x="861.7" y="-955.65" font-family="Times,serif" font-size="14.00" fill="#004599">мертв.</text>
</g>
<!-- Node012 -->
<g id="node27" class="node">
<title>Node012</title>
<ellipse fill="#ffffff" stroke="#000000" cx="1178.33" cy="-307.32" rx="145.49" ry="200.82"/>
<text text-anchor="middle" x="1178.33" y="-432.02" font-family="Times,serif" font-size="14.00">Чего? Свобода? Плохой</text>
<text text-anchor="middle" x="1178.33" y="-414.77" font-family="Times,serif" font-size="14.00">люди дохлый? Мы идти</text>
<text text-anchor="middle" x="1178.33" y="-397.52" font-family="Times,serif" font-size="14.00">сейчас! Спасибо. Твоя</text>
<text text-anchor="middle" x="1178.33" y="-380.27" font-family="Times,serif" font-size="14.00">друг! Пока!</text>
<text text-anchor="middle" x="1178.33" y="-363.02" font-family="Times,serif" font-size="14.00">&#45;&#45;&#45;</text>
<text text-anchor="middle" x="1178.33" y="-345.77" font-family="Times,serif" font-size="14.00">Вы освободили рабов из</text>
<text text-anchor="middle" x="1178.33" y="-328.52" font-family="Times,serif" font-size="14.00">загонов.</text>
<text text-anchor="middle" x="1178.33" y="-311.27" font-family="Times,serif" font-size="14.00">&#45;&#45;&#45;</text>
<text text-anchor="middle" x="1178.33" y="-294.02" font-family="Times,serif" font-size="14.00">Вы видите здоровенного</text>
<text text-anchor="middle" x="1178.33" y="-276.77" font-family="Times,serif" font-size="14.00">мужика дикарского вида.</text>
<text text-anchor="middle" x="1178.33" y="-259.52" font-family="Times,serif" font-size="14.00">&#45;&#45;&#45;</text>
<text text-anchor="middle" x="1178.33" y="-242.27" font-family="Times,serif" font-size="14.00">Вы освободили рабов из</text>
<text text-anchor="middle" x="1178.33" y="-225.02" font-family="Times,serif" font-size="14.00">загонов.</text>
<text text-anchor="middle" x="1178.33" y="-207.77" font-family="Times,serif" font-size="14.00">&#45;&#45;&#45;</text>
<text text-anchor="middle" x="1178.33" y="-190.52" font-family="Times,serif" font-size="14.00">Вы видите здоровенного</text>
<text text-anchor="middle" x="1178.33" y="-173.27" font-family="Times,serif" font-size="14.00">мужика дикарского вида.</text>
</g>
<!-- Node008&#45;&gt;Node012 -->
<g id="edge15" class="edge">
<title>Node008&#45;&gt;Node012</title>
<path fill="none" stroke="#729900" d="M970.24,-1093.5C975.28,-998.4 983.49,-870.35 991.58,-862.01 1042.22,-809.74 1104.58,-897.12 1154.33,-844.01 1236.4,-756.38 1241.88,-621.09 1227.1,-508.4"/>
<polygon fill="#729900" stroke="#729900" points="1230.44,-508 1225.61,-498.57 1223.5,-508.95 1230.44,-508"/>
<text text-anchor="middle" x="1042.2" y="-874.58" font-family="Times,serif" font-size="14.00" fill="#729900">Вы свободны.</text>
</g>
<!-- Node010&#45;&gt;Node999 -->
<g id="edge22" class="edge">
<title>Node010&#45;&gt;Node999</title>
<path fill="none" stroke="#007999" d="M1267.48,-940.48C1317.7,-922.03 1371.98,-892 1401.33,-844.01 1584.55,-544.47 1650.68,-309.04 1409.33,-54 1388.76,-32.26 946.83,-22.22 813.24,-19.67"/>
<polygon fill="#007999" stroke="#007999" points="813.43,-16.16 803.37,-19.47 813.3,-23.15 813.43,-16.16"/>
<text text-anchor="middle" x="1587.2" y="-555.96" font-family="Times,serif" font-size="14.00" fill="#007999">О, ничего.</text>
</g>
<!-- Node010&#45;&gt;Node009 -->
<g id="edge21" class="edge">
<title>Node010&#45;&gt;Node009</title>
<path fill="none" stroke="#99004c" d="M1127.78,-915.38C1114.78,-890.59 1100.76,-865.62 1095.33,-862.01 1065.36,-842.07 969.54,-851.51 934.33,-844.01 861.91,-828.57 783.34,-804.42 718.23,-782.27"/>
<polygon fill="#99004c" stroke="#99004c" points="719.49,-778.66 708.89,-778.73 717.22,-785.28 719.49,-778.66"/>
<text text-anchor="middle" x="1197.7" y="-883.21" font-family="Times,serif" font-size="14.00" fill="#99004c">Можете идти. Мецгер</text>
<text text-anchor="middle" x="1197.7" y="-865.96" font-family="Times,serif" font-size="14.00" fill="#99004c">мертв.</text>
</g>
<!-- Node010&#45;&gt;Node012 -->
<g id="edge23" class="edge">
<title>Node010&#45;&gt;Node012</title>
<path fill="none" stroke="#998d00" d="M1248.64,-930.6C1261.69,-921.4 1273.35,-910.16 1281.33,-896.51 1319.76,-830.8 1280.2,-646.93 1239.49,-502.08"/>
<polygon fill="#998d00" stroke="#998d00" points="1242.65,-501.39 1236.56,-492.72 1235.92,-503.3 1242.65,-501.39"/>
<text text-anchor="middle" x="1347.2" y="-723.9" font-family="Times,serif" font-size="14.00" fill="#998d00">Вы свободны.</text>
</g>
<!-- destroy_p_proc -->
<g id="node12" class="node">
<title>destroy_p_proc</title>
<ellipse fill="#ffffff" stroke="#000000" cx="1216.33" cy="-1404.02" rx="27" ry="18"/>
</g>
<!-- look_at_p_proc -->
<g id="node13" class="node">
<title>look_at_p_proc</title>
<ellipse fill="#ffffff" stroke="#000000" cx="1406.33" cy="-1404.02" rx="145.49" ry="66.64"/>
<text text-anchor="middle" x="1406.33" y="-1433.85" font-family="Times,serif" font-size="14.00">Вы видите здоровенного</text>
<text text-anchor="middle" x="1406.33" y="-1416.6" font-family="Times,serif" font-size="14.00">мужика дикарского вида.</text>
<text text-anchor="middle" x="1406.33" y="-1399.35" font-family="Times,serif" font-size="14.00">&#45;&#45;&#45;</text>
<text text-anchor="middle" x="1406.33" y="-1382.1" font-family="Times,serif" font-size="14.00">Вы видите оборванного</text>
<text text-anchor="middle" x="1406.33" y="-1364.85" font-family="Times,serif" font-size="14.00">мужчину.</text>
</g>
<!-- description_p_proc -->
<g id="node14" class="node">
<title>description_p_proc</title>
<ellipse fill="#ffffff" stroke="#000000" cx="1713.33" cy="-1404.02" rx="143.9" ry="66.64"/>
<text text-anchor="middle" x="1713.33" y="-1433.85" font-family="Times,serif" font-size="14.00">Он весь в синяках и</text>
<text text-anchor="middle" x="1713.33" y="-1416.6" font-family="Times,serif" font-size="14.00">порезах.</text>
<text text-anchor="middle" x="1713.33" y="-1399.35" font-family="Times,serif" font-size="14.00">&#45;&#45;&#45;</text>
<text text-anchor="middle" x="1713.33" y="-1382.1" font-family="Times,serif" font-size="14.00">Он не выглядит особенно</text>
<text text-anchor="middle" x="1713.33" y="-1364.85" font-family="Times,serif" font-size="14.00">здоровым.</text>
</g>
<!-- use_skill_on_p_proc -->
<g id="node15" class="node">
<title>use_skill_on_p_proc</title>
<ellipse fill="#ffffff" stroke="#000000" cx="1902.33" cy="-1404.02" rx="27" ry="18"/>
</g>
<!-- damage_p_proc -->
<g id="node16" class="node">
<title>damage_p_proc</title>
<ellipse fill="#ffffff" stroke="#000000" cx="1974.33" cy="-1404.02" rx="27" ry="18"/>
</g>
<!-- map_enter_p_proc -->
<g id="node17" class="node">
<title>map_enter_p_proc</title>
<ellipse fill="#ffffff" stroke="#000000" cx="2046.33" cy="-1404.02" rx="27" ry="18"/>
</g>
<!-- map_exit_p_proc -->
<g id="node18" class="node">
<title>map_exit_p_proc</title>
<ellipse fill="#ffffff" stroke="#000000" cx="2118.33" cy="-1404.02" rx="27" ry="18"/>
</g>
<!-- timed_event_p_proc -->
<g id="node19" class="node">
<title>timed_event_p_proc</title>
<ellipse fill="#ffffff" stroke="#000000" cx="2190.33" cy="-1404.02" rx="27" ry="18"/>
</g>
<!-- Node005 -->
<g id="node20" class="node">
<title>Node005</title>
<ellipse fill="#ffffff" stroke="#000000" cx="2118.33" cy="-1197.14" rx="27" ry="18"/>
</g>
<!-- timed_event_p_proc&#45;&gt;Node005 -->
<g id="edge9" class="edge">
<title>timed_event_p_proc&#45;&gt;Node005</title>
<path fill="none" stroke="#555555" stroke-dasharray="1,5" d="M2184.44,-1386.26C2172.02,-1350.91 2143.05,-1268.49 2127.92,-1225.43"/>
<polygon fill="#555555" stroke="#555555" points="2130.92,-1224.41 2124.3,-1216.14 2124.32,-1226.73 2130.92,-1224.41"/>
</g>
<!-- Node006 -->
<g id="node21" class="node">
<title>Node006</title>
<ellipse fill="#ffffff" stroke="#000000" cx="2190.33" cy="-1197.14" rx="27" ry="18"/>
</g>
<!-- timed_event_p_proc&#45;&gt;Node006 -->
<g id="edge10" class="edge">
<title>timed_event_p_proc&#45;&gt;Node006</title>
<path fill="none" stroke="#555555" stroke-dasharray="1,5" d="M2190.33,-1385.55C2190.33,-1350.1 2190.33,-1269.41 2190.33,-1226.38"/>
<polygon fill="#555555" stroke="#555555" points="2193.83,-1226.56 2190.33,-1216.56 2186.83,-1226.56 2193.83,-1226.56"/>
</g>
<!-- Node007 -->
<g id="node22" class="node">
<title>Node007</title>
<ellipse fill="#ffffff" stroke="#000000" cx="2262.33" cy="-1197.14" rx="27" ry="18"/>
</g>
<!-- timed_event_p_proc&#45;&gt;Node007 -->
<g id="edge11" class="edge">
<title>timed_event_p_proc&#45;&gt;Node007</title>
<path fill="none" stroke="#555555" stroke-dasharray="1,5" d="M2196.22,-1386.26C2208.64,-1350.91 2237.61,-1268.49 2252.74,-1225.43"/>
<polygon fill="#555555" stroke="#555555" points="2256.34,-1226.73 2256.36,-1216.14 2249.74,-1224.41 2256.34,-1226.73"/>
</g>
<!-- push_p_proc -->
<g id="node23" class="node">
<title>push_p_proc</title>
<ellipse fill="#ffffff" stroke="#000000" cx="2262.33" cy="-1404.02" rx="27" ry="18"/>
</g>
<!-- Node011&#45;&gt;Node999 -->
<g id="edge25" class="edge">
<title>Node011&#45;&gt;Node999</title>
<path fill="none" stroke="#009934" d="M549.03,-958.42C469.94,-923.34 201.02,-793.12 78.58,-595.14 1.15,-469.93 -42,-286.16 62.33,-106.5 85.97,-65.79 109.18,-67.35 154.33,-54 264.32,-21.49 619.36,-18.83 737.04,-18.87"/>
<polygon fill="#009934" stroke="#009934" points="736.98,-22.37 746.99,-18.88 736.99,-15.37 736.98,-22.37"/>
<text text-anchor="middle" x="117.2" y="-555.96" font-family="Times,serif" font-size="14.00" fill="#009934">О, ничего.</text>
</g>
<!-- Node011&#45;&gt;Node009 -->
<g id="edge24" class="edge">
<title>Node011&#45;&gt;Node009</title>
<path fill="none" stroke="#600099" d="M571.62,-950.81C571.97,-929.98 572.59,-892.88 573.23,-854.95"/>
<polygon fill="#600099" stroke="#600099" points="576.74,-855.3 573.41,-845.24 569.74,-855.18 576.74,-855.3"/>
<text text-anchor="middle" x="661.08" y="-883.21" font-family="Times,serif" font-size="14.00" fill="#600099">Да ладно. Вы свободны.</text>
<text text-anchor="middle" x="661.08" y="-865.96" font-family="Times,serif" font-size="14.00" fill="#600099">Мецгер мертв.</text>
</g>
<!-- Node009&#45;&gt;Node999 -->
<g id="edge18" class="edge">
<title>Node009&#45;&gt;Node999</title>
<path fill="none" stroke="#993a00" d="M433.53,-697.25C332.81,-667.5 204.63,-611.07 141.33,-508.14 47.82,-356.08 34.33,-249.38 141.33,-106.5 191.02,-40.14 238.78,-68.93 320.33,-54 472.97,-26.06 658.39,-20.39 737.08,-19.26"/>
<polygon fill="#993a00" stroke="#993a00" points="736.94,-22.75 746.89,-19.13 736.85,-15.75 736.94,-22.75"/>
<text text-anchor="middle" x="226.83" y="-311.27" font-family="Times,serif" font-size="14.00" fill="#993a00">Пожалуйста. Теперь</text>
<text text-anchor="middle" x="226.83" y="-294.02" font-family="Times,serif" font-size="14.00" fill="#993a00">сматывайтесь быстрее.</text>
</g>
<!-- Node009&#45;&gt;Node999 -->
<g id="edge19" class="edge">
<title>Node009&#45;&gt;Node999</title>
<path fill="none" stroke="#0d0099" d="M451.92,-665.23C423.01,-645.97 394.51,-622.49 373.33,-595.14 348.34,-562.85 350.47,-548.42 343.83,-508.14 327.4,-408.52 280.19,-119.14 357.33,-54 385.99,-29.79 639.41,-21.88 737.13,-19.71"/>
<polygon fill="#0d0099" stroke="#0d0099" points="737.06,-23.19 746.98,-19.48 736.91,-16.19 737.06,-23.19"/>
<text text-anchor="middle" x="391.58" y="-302.64" font-family="Times,serif" font-size="14.00" fill="#0d0099">Береги себя.</text>
</g>
<!-- Node009&#45;&gt;Node999 -->
<g id="edge20" class="edge">
<title>Node009&#45;&gt;Node999</title>
<path fill="none" stroke="#1f9900" d="M699.3,-666.61C726.13,-647.49 751.26,-623.73 767.33,-595.14 820.63,-500.33 732.15,-195.03 795.33,-106.5 807.6,-89.3 827.55,-106.04 839.33,-88.5 847.88,-75.77 847.15,-67.19 839.33,-54 832.79,-42.96 821.4,-35.18 810.02,-29.8"/>
<polygon fill="#1f9900" stroke="#1f9900" points="811.73,-26.31 801.15,-25.68 809.03,-32.76 811.73,-26.31"/>
<text text-anchor="middle" x="868.83" y="-302.64" font-family="Times,serif" font-size="14.00" fill="#1f9900">Всегда пожалуйста.</text>
</g>
<!-- Node014 -->
<g id="node28" class="node">
<title>Node014</title>
<ellipse fill="#ffffff" stroke="#000000" cx="596.33" cy="-307.32" rx="149.2" ry="54.45"/>
<text text-anchor="middle" x="596.33" y="-328.52" font-family="Times,serif" font-size="14.00">Это в большом лагере</text>
<text text-anchor="middle" x="596.33" y="-311.27" font-family="Times,serif" font-size="14.00">неподалеку. [Дикарь</text>
<text text-anchor="middle" x="596.33" y="-294.02" font-family="Times,serif" font-size="14.00">показывает на юго&#45;запад.]</text>
<text text-anchor="middle" x="596.33" y="-276.77" font-family="Times,serif" font-size="14.00">Он в двух лунах отсюда.</text>
</g>
<!-- Node009&#45;&gt;Node014 -->
<g id="edge16" class="edge">
<title>Node009&#45;&gt;Node014</title>
<path fill="none" stroke="#930099" d="M575.7,-612.75C576.16,-584.42 576.96,-554.17 578.33,-526.14 580.85,-474.43 585.8,-415.97 589.87,-372.64"/>
<polygon fill="#930099" stroke="#930099" points="593.42,-373.25 590.88,-362.96 586.45,-372.58 593.42,-373.25"/>
<text text-anchor="middle" x="672.83" y="-581.84" font-family="Times,serif" font-size="14.00" fill="#930099">Постой, еще кое&#45;что. Я</text>
<text text-anchor="middle" x="672.83" y="-564.59" font-family="Times,serif" font-size="14.00" fill="#930099">ищу одну девушку, но ее</text>
<text text-anchor="middle" x="672.83" y="-547.34" font-family="Times,serif" font-size="14.00" fill="#930099">здесь нет. Не знаешь, где</text>
<text text-anchor="middle" x="672.83" y="-530.09" font-family="Times,serif" font-size="14.00" fill="#930099">держат остальных рабов?</text>
</g>
<!-- Node009&#45;&gt;Node014 -->
<g id="edge17" class="edge">
<title>Node009&#45;&gt;Node014</title>
<path fill="none" stroke="#009967" d="M453.89,-663.11C399.85,-625.64 355.14,-576.06 388.58,-526.14 400.28,-508.67 415.43,-520.64 432.33,-508.14 483.36,-470.39 528.06,-413.35 557.85,-369.87"/>
<polygon fill="#009967" stroke="#009967" points="561.28,-372.05 563.98,-361.81 555.48,-368.13 561.28,-372.05"/>
<text text-anchor="middle" x="481.2" y="-564.59" font-family="Times,serif" font-size="14.00" fill="#009967">Стой! Я ищу кого&#45;то. Где</text>
<text text-anchor="middle" x="481.2" y="-547.34" font-family="Times,serif" font-size="14.00" fill="#009967">еще рабы?</text>
</g>
<!-- Node012&#45;&gt;Node999 -->
<g id="edge26" class="edge">
<title>Node012&#45;&gt;Node999</title>
<path fill="none" stroke="#990700" d="M1059.35,-190.74C1030.39,-162.96 999.39,-133.52 970.33,-106.5 961.57,-98.36 958.15,-97.55 950.33,-88.5 938.28,-74.56 942.49,-64.47 927.33,-54 893.55,-30.66 846.46,-22.69 813.68,-20.07"/>
<polygon fill="#990700" stroke="#990700" points="813.94,-16.52 803.73,-19.35 813.48,-23.5 813.94,-16.52"/>
<text text-anchor="middle" x="1035.83" y="-75.2" font-family="Times,serif" font-size="14.00" fill="#990700">Пожалуйста. Теперь</text>
<text text-anchor="middle" x="1035.83" y="-57.95" font-family="Times,serif" font-size="14.00" fill="#990700">сматывайтесь быстрее.</text>
</g>
<!-- Node012&#45;&gt;Node999 -->
<g id="edge27" class="edge">
<title>Node012&#45;&gt;Node999</title>
<path fill="none" stroke="#002699" d="M1148.65,-110.4C1141.24,-84.54 1132.21,-63.64 1121.33,-54 1098.62,-33.89 898.32,-23.78 813.26,-20.37"/>
<polygon fill="#002699" stroke="#002699" points="813.66,-16.84 803.53,-19.95 813.39,-23.84 813.66,-16.84"/>
<text text-anchor="middle" x="1187.58" y="-66.58" font-family="Times,serif" font-size="14.00" fill="#002699">Береги себя.</text>
</g>
<!-- Node012&#45;&gt;Node999 -->
<g id="edge28" class="edge">
<title>Node012&#45;&gt;Node999</title>
<path fill="none" stroke="#529900" d="M1260.69,-141.13C1265.44,-109.19 1260.76,-78.18 1238.33,-54 1209.67,-23.1 918.85,-19.33 813.32,-18.98"/>
<polygon fill="#529900" stroke="#529900" points="813.56,-15.48 803.55,-18.96 813.54,-22.48 813.56,-15.48"/>
<text text-anchor="middle" x="1331.83" y="-66.58" font-family="Times,serif" font-size="14.00" fill="#529900">Всегда пожалуйста.</text>
</g>
<!-- Node014&#45;&gt;Node999 -->
<g id="edge29" class="edge">
<title>Node014&#45;&gt;Node999</title>
<path fill="none" stroke="#99007f" d="M612.9,-252.99C633.92,-188.09 670.83,-83.51 699.08,-54 710.18,-42.4 725.86,-34.3 740.12,-28.84"/>
<polygon fill="#99007f" stroke="#99007f" points="740.89,-31.93 749.16,-25.31 738.57,-25.32 740.89,-31.93"/>
<text text-anchor="middle" x="769.45" y="-75.2" font-family="Times,serif" font-size="14.00" fill="#99007f">Спасибо. А теперь</text>
<text text-anchor="middle" x="769.45" y="-57.95" font-family="Times,serif" font-size="14.00" fill="#99007f">выбирайся отсюда.</text>
</g>
<!-- Node014&#45;&gt;Node999 -->
<g id="edge30" class="edge">
<title>Node014&#45;&gt;Node999</title>
<path fill="none" stroke="#009986" d="M565.97,-253.54C537.18,-208.08 489.83,-144.03 432.33,-106.5 407.5,-90.29 386,-112.13 368.08,-88.5 358.81,-76.28 357.71,-65.3 368.08,-54 392.75,-27.12 640.57,-20.84 737.12,-19.41"/>
<polygon fill="#009986" stroke="#009986" points="737.16,-22.9 747.11,-19.26 737.07,-15.9 737.16,-22.9"/>
<text text-anchor="middle" x="450.45" y="-66.58" font-family="Times,serif" font-size="14.00" fill="#009986">Спасибо. Береги себя.</text>
</g>
<!-- Node014&#45;&gt;Node999 -->
<g id="edge31" class="edge">
<title>Node014&#45;&gt;Node999</title>
<path fill="none" stroke="#995a00" d="M565.52,-253.7C537.2,-197.63 506.17,-109.48 553.58,-54 576.78,-26.85 680.42,-20.63 737.43,-19.3"/>
<polygon fill="#995a00" stroke="#995a00" points="737.24,-22.78 747.18,-19.09 737.11,-15.78 737.24,-22.78"/>
<text text-anchor="middle" x="614.7" y="-66.58" font-family="Times,serif" font-size="14.00" fill="#995a00">Пасиба! Убегай!</text>
</g>
</g>
</svg>
