<?xml version="1.0" encoding="UTF-8" standalone="no"?>
<!DOCTYPE svg PUBLIC "-//W3C//DTD SVG 1.1//EN"
 "http://www.w3.org/Graphics/SVG/1.1/DTD/svg11.dtd">
<!-- Generated by graphviz version 8.0.5 (0)
 -->
<!-- Title: ecfrmkid Pages: 1 -->
<svg width="1249pt" height="140pt"
 viewBox="0.00 0.00 1249.00 140.10" xmlns="http://www.w3.org/2000/svg" xmlns:xlink="http://www.w3.org/1999/xlink">
<g id="graph0" class="graph" transform="scale(1 1) rotate(0) translate(4 136.1)">
<title>ecfrmkid</title>
<polygon fill="white" stroke="none" points="-4,4 -4,-136.1 1245,-136.1 1245,4 -4,4"/>
<!-- start -->
<g id="node1" class="node">
<title>start</title>
<ellipse fill="#ffffff" stroke="#000000" cx="27" cy="-102.05" rx="27" ry="18"/>
</g>
<!-- critter_p_proc -->
<g id="node2" class="node">
<title>critter_p_proc</title>
<ellipse fill="#ffffff" stroke="#000000" cx="99" cy="-102.05" rx="27" ry="18"/>
</g>
<!-- pickup_p_proc -->
<g id="node3" class="node">
<title>pickup_p_proc</title>
<ellipse fill="#ffffff" stroke="#000000" cx="171" cy="-102.05" rx="27" ry="18"/>
</g>
<!-- talk_p_proc -->
<g id="node4" class="node">
<title>talk_p_proc</title>
<ellipse fill="#ffffff" stroke="#000000" cx="243" cy="-102.05" rx="27" ry="18"/>
</g>
<!-- destroy_p_proc -->
<g id="node5" class="node">
<title>destroy_p_proc</title>
<ellipse fill="#ffffff" stroke="#000000" cx="315" cy="-102.05" rx="27" ry="18"/>
</g>
<!-- look_at_p_proc -->
<g id="node6" class="node">
<title>look_at_p_proc</title>
<ellipse fill="#ffffff" stroke="#000000" cx="490" cy="-102.05" rx="129.58" ry="30.05"/>
<text text-anchor="middle" x="490" y="-106" font-family="Times,serif" font-size="14.00">Вы видите маленького</text>
<text text-anchor="middle" x="490" y="-88.75" font-family="Times,serif" font-size="14.00">ребенка.</text>
</g>
<!-- description_p_proc -->
<g id="node7" class="node">
<title>description_p_proc</title>
<ellipse fill="#ffffff" stroke="#000000" cx="777" cy="-102.05" rx="139.59" ry="18"/>
<text text-anchor="middle" x="777" y="-97.38" font-family="Times,serif" font-size="14.00">Это маленький мальчик.</text>
</g>
<!-- use_skill_on_p_proc -->
<g id="node8" class="node">
<title>use_skill_on_p_proc</title>
<ellipse fill="#ffffff" stroke="#000000" cx="962" cy="-102.05" rx="27" ry="18"/>
</g>
<!-- damage_p_proc -->
<g id="node9" class="node">
<title>damage_p_proc</title>
<ellipse fill="#ffffff" stroke="#000000" cx="1034" cy="-102.05" rx="27" ry="18"/>
</g>
<!-- map_enter_p_proc -->
<g id="node10" class="node">
<title>map_enter_p_proc</title>
<ellipse fill="#ffffff" stroke="#000000" cx="1106" cy="-102.05" rx="27" ry="18"/>
</g>
<!-- combat_p_proc -->
<g id="node11" class="node">
<title>combat_p_proc</title>
<ellipse fill="#ffffff" stroke="#000000" cx="1178" cy="-102.05" rx="27" ry="18"/>
</g>
<!-- NodeFleeing -->
<g id="node12" class="node">
<title>NodeFleeing</title>
<ellipse fill="#ffffff" stroke="#000000" cx="1142" cy="-18" rx="27" ry="18"/>
</g>
<!-- combat_p_proc&#45;&gt;NodeFleeing -->
<g id="edge1" class="edge">
<title>combat_p_proc&#45;&gt;NodeFleeing</title>
<path fill="none" stroke="#555555" stroke-dasharray="1,5" d="M1170.71,-84.45C1165.79,-73.21 1159.17,-58.14 1153.54,-45.29"/>
<polygon fill="#555555" stroke="#555555" points="1156.5,-44.33 1149.27,-36.58 1150.09,-47.14 1156.5,-44.33"/>
</g>
<!-- NodeFighting -->
<g id="node13" class="node">
<title>NodeFighting</title>
<ellipse fill="#ffffff" stroke="#000000" cx="1214" cy="-18" rx="27" ry="18"/>
</g>
<!-- combat_p_proc&#45;&gt;NodeFighting -->
<g id="edge2" class="edge">
<title>combat_p_proc&#45;&gt;NodeFighting</title>
<path fill="none" stroke="#555555" stroke-dasharray="1,5" d="M1185.29,-84.45C1190.21,-73.21 1196.83,-58.14 1202.46,-45.29"/>
<polygon fill="#555555" stroke="#555555" points="1205.91,-47.14 1206.73,-36.58 1199.5,-44.33 1205.91,-47.14"/>
</g>
</g>
</svg>
