<?xml version="1.0" encoding="UTF-8" standalone="no"?>
<!DOCTYPE svg PUBLIC "-//W3C//DTD SVG 1.1//EN"
 "http://www.w3.org/Graphics/SVG/1.1/DTD/svg11.dtd">
<!-- Generated by graphviz version 8.0.5 (0)
 -->
<!-- Title: ecgalaha Pages: 1 -->
<svg width="1473pt" height="237pt"
 viewBox="0.00 0.00 1473.00 237.39" xmlns="http://www.w3.org/2000/svg" xmlns:xlink="http://www.w3.org/1999/xlink">
<g id="graph0" class="graph" transform="scale(1 1) rotate(0) translate(4 233.39)">
<title>ecgalaha</title>
<polygon fill="white" stroke="none" points="-4,4 -4,-233.39 1469,-233.39 1469,4 -4,4"/>
<!-- start -->
<g id="node1" class="node">
<title>start</title>
<ellipse fill="#ffffff" stroke="#000000" cx="27" cy="-162.75" rx="27" ry="18"/>
</g>
<!-- critter_p_proc -->
<g id="node2" class="node">
<title>critter_p_proc</title>
<ellipse fill="#ffffff" stroke="#000000" cx="99" cy="-162.75" rx="27" ry="18"/>
</g>
<!-- pickup_p_proc -->
<g id="node3" class="node">
<title>pickup_p_proc</title>
<ellipse fill="#ffffff" stroke="#000000" cx="171" cy="-162.75" rx="27" ry="18"/>
</g>
<!-- Node002 -->
<g id="node4" class="node">
<title>Node002</title>
<ellipse fill="#ffffff" stroke="#000000" cx="171" cy="-30.05" rx="114.73" ry="30.05"/>
<text text-anchor="middle" x="171" y="-34" font-family="Times,serif" font-size="14.00">О Боже! Ваши руки</text>
<text text-anchor="middle" x="171" y="-16.75" font-family="Times,serif" font-size="14.00">холодны, как лед!</text>
</g>
<!-- pickup_p_proc&#45;&gt;Node002 -->
<g id="edge1" class="edge">
<title>pickup_p_proc&#45;&gt;Node002</title>
<path fill="none" stroke="#555555" stroke-dasharray="1,5" d="M171,-144.39C171,-125.85 171,-95.81 171,-71.31"/>
<polygon fill="#555555" stroke="#555555" points="174.5,-71.51 171,-61.51 167.5,-71.51 174.5,-71.51"/>
</g>
<!-- talk_p_proc -->
<g id="node5" class="node">
<title>talk_p_proc</title>
<ellipse fill="#ffffff" stroke="#000000" cx="446" cy="-162.75" rx="27" ry="18"/>
</g>
<!-- Node001 -->
<g id="node6" class="node">
<title>Node001</title>
<ellipse fill="#ffffff" stroke="#000000" cx="446" cy="-30.05" rx="142.75" ry="18"/>
<text text-anchor="middle" x="446" y="-25.38" font-family="Times,serif" font-size="14.00">Сэр Галахад готов к бою!</text>
</g>
<!-- talk_p_proc&#45;&gt;Node001 -->
<g id="edge2" class="edge">
<title>talk_p_proc&#45;&gt;Node001</title>
<path fill="none" stroke="#555555" stroke-dasharray="1,5" d="M446,-144.39C446,-122.72 446,-85.34 446,-59.46"/>
<polygon fill="#555555" stroke="#555555" points="449.5,-59.48 446,-49.48 442.5,-59.48 449.5,-59.48"/>
</g>
<!-- destroy_p_proc -->
<g id="node7" class="node">
<title>destroy_p_proc</title>
<ellipse fill="#ffffff" stroke="#000000" cx="518" cy="-162.75" rx="27" ry="18"/>
</g>
<!-- look_at_p_proc -->
<g id="node8" class="node">
<title>look_at_p_proc</title>
<ellipse fill="#ffffff" stroke="#000000" cx="714" cy="-162.75" rx="150.64" ry="18"/>
<text text-anchor="middle" x="714" y="-158.07" font-family="Times,serif" font-size="14.00">Мужчина в силовой броне.</text>
</g>
<!-- description_p_proc -->
<g id="node9" class="node">
<title>description_p_proc</title>
<ellipse fill="#ffffff" stroke="#000000" cx="1030" cy="-162.75" rx="147.08" ry="66.64"/>
<text text-anchor="middle" x="1030" y="-192.57" font-family="Times,serif" font-size="14.00">Сэр Галахад.</text>
<text text-anchor="middle" x="1030" y="-175.32" font-family="Times,serif" font-size="14.00">&#45;&#45;&#45;</text>
<text text-anchor="middle" x="1030" y="-158.07" font-family="Times,serif" font-size="14.00">Заметив, что вы смотрите</text>
<text text-anchor="middle" x="1030" y="-140.82" font-family="Times,serif" font-size="14.00">на него, он заливается</text>
<text text-anchor="middle" x="1030" y="-123.57" font-family="Times,serif" font-size="14.00">краской.</text>
</g>
<!-- use_skill_on_p_proc -->
<g id="node10" class="node">
<title>use_skill_on_p_proc</title>
<ellipse fill="#ffffff" stroke="#000000" cx="1222" cy="-162.75" rx="27" ry="18"/>
</g>
<!-- damage_p_proc -->
<g id="node11" class="node">
<title>damage_p_proc</title>
<ellipse fill="#ffffff" stroke="#000000" cx="1294" cy="-162.75" rx="27" ry="18"/>
</g>
<!-- map_enter_p_proc -->
<g id="node12" class="node">
<title>map_enter_p_proc</title>
<ellipse fill="#ffffff" stroke="#000000" cx="1366" cy="-162.75" rx="27" ry="18"/>
</g>
<!-- timed_event_p_proc -->
<g id="node13" class="node">
<title>timed_event_p_proc</title>
<ellipse fill="#ffffff" stroke="#000000" cx="1438" cy="-162.75" rx="27" ry="18"/>
</g>
</g>
</svg>
