<?xml version="1.0" encoding="UTF-8" standalone="no"?>
<!DOCTYPE svg PUBLIC "-//W3C//DTD SVG 1.1//EN"
 "http://www.w3.org/Graphics/SVG/1.1/DTD/svg11.dtd">
<!-- Generated by graphviz version 8.0.5 (0)
 -->
<!-- Title: ecmststr Pages: 1 -->
<svg width="1253pt" height="140pt"
 viewBox="0.00 0.00 1253.00 140.10" xmlns="http://www.w3.org/2000/svg" xmlns:xlink="http://www.w3.org/1999/xlink">
<g id="graph0" class="graph" transform="scale(1 1) rotate(0) translate(4 136.1)">
<title>ecmststr</title>
<polygon fill="white" stroke="none" points="-4,4 -4,-136.1 1249,-136.1 1249,4 -4,4"/>
<!-- start -->
<g id="node1" class="node">
<title>start</title>
<ellipse fill="#ffffff" stroke="#000000" cx="27" cy="-102.05" rx="27" ry="18"/>
</g>
<!-- critter_p_proc -->
<g id="node2" class="node">
<title>critter_p_proc</title>
<ellipse fill="#ffffff" stroke="#000000" cx="99" cy="-102.05" rx="27" ry="18"/>
</g>
<!-- combat_p_proc -->
<g id="node3" class="node">
<title>combat_p_proc</title>
<ellipse fill="#ffffff" stroke="#000000" cx="171" cy="-102.05" rx="27" ry="18"/>
</g>
<!-- pickup_p_proc -->
<g id="node4" class="node">
<title>pickup_p_proc</title>
<ellipse fill="#ffffff" stroke="#000000" cx="243" cy="-102.05" rx="27" ry="18"/>
</g>
<!-- talk_p_proc -->
<g id="node5" class="node">
<title>talk_p_proc</title>
<ellipse fill="#ffffff" stroke="#000000" cx="315" cy="-102.05" rx="27" ry="18"/>
</g>
<!-- Node001 -->
<g id="node6" class="node">
<title>Node001</title>
<ellipse fill="#ffffff" stroke="#000000" cx="315" cy="-18" rx="27" ry="18"/>
</g>
<!-- talk_p_proc&#45;&gt;Node001 -->
<g id="edge1" class="edge">
<title>talk_p_proc&#45;&gt;Node001</title>
<path fill="none" stroke="#555555" stroke-dasharray="1,5" d="M315,-83.65C315,-73.1 315,-59.38 315,-47.3"/>
<polygon fill="#555555" stroke="#555555" points="318.5,-47.38 315,-37.38 311.5,-47.38 318.5,-47.38"/>
</g>
<!-- destroy_p_proc -->
<g id="node7" class="node">
<title>destroy_p_proc</title>
<ellipse fill="#ffffff" stroke="#000000" cx="387" cy="-102.05" rx="27" ry="18"/>
</g>
<!-- look_at_p_proc -->
<g id="node8" class="node">
<title>look_at_p_proc</title>
<ellipse fill="#ffffff" stroke="#000000" cx="577" cy="-102.05" rx="145.49" ry="30.05"/>
<text text-anchor="middle" x="577" y="-106" font-family="Times,serif" font-size="14.00">Вы видите дружелюбного</text>
<text text-anchor="middle" x="577" y="-88.75" font-family="Times,serif" font-size="14.00">незнакомца.</text>
</g>
<!-- description_p_proc -->
<g id="node9" class="node">
<title>description_p_proc</title>
<ellipse fill="#ffffff" stroke="#000000" cx="885" cy="-102.05" rx="144.43" ry="30.05"/>
<text text-anchor="middle" x="885" y="-106" font-family="Times,serif" font-size="14.00">Вы видите таинственного</text>
<text text-anchor="middle" x="885" y="-88.75" font-family="Times,serif" font-size="14.00">незнакомца.</text>
</g>
<!-- use_skill_on_p_proc -->
<g id="node10" class="node">
<title>use_skill_on_p_proc</title>
<ellipse fill="#ffffff" stroke="#000000" cx="1074" cy="-102.05" rx="27" ry="18"/>
</g>
<!-- damage_p_proc -->
<g id="node11" class="node">
<title>damage_p_proc</title>
<ellipse fill="#ffffff" stroke="#000000" cx="1146" cy="-102.05" rx="27" ry="18"/>
</g>
<!-- map_enter_p_proc -->
<g id="node12" class="node">
<title>map_enter_p_proc</title>
<ellipse fill="#ffffff" stroke="#000000" cx="1218" cy="-102.05" rx="27" ry="18"/>
</g>
<!-- doLoadStuff -->
<g id="node13" class="node">
<title>doLoadStuff</title>
<ellipse fill="#ffffff" stroke="#000000" cx="1218" cy="-18" rx="27" ry="18"/>
</g>
<!-- map_enter_p_proc&#45;&gt;doLoadStuff -->
<g id="edge2" class="edge">
<title>map_enter_p_proc&#45;&gt;doLoadStuff</title>
<path fill="none" stroke="#555555" stroke-dasharray="1,5" d="M1218,-83.65C1218,-73.1 1218,-59.38 1218,-47.3"/>
<polygon fill="#555555" stroke="#555555" points="1221.5,-47.38 1218,-37.38 1214.5,-47.38 1221.5,-47.38"/>
</g>
</g>
</svg>
