<?xml version="1.0" encoding="UTF-8" standalone="no"?>
<!DOCTYPE svg PUBLIC "-//W3C//DTD SVG 1.1//EN"
 "http://www.w3.org/Graphics/SVG/1.1/DTD/svg11.dtd">
<!-- Generated by graphviz version 8.0.5 (0)
 -->
<!-- Title: ecset Pages: 1 -->
<svg width="1198pt" height="335pt"
 viewBox="0.00 0.00 1198.00 335.27" xmlns="http://www.w3.org/2000/svg" xmlns:xlink="http://www.w3.org/1999/xlink">
<g id="graph0" class="graph" transform="scale(1 1) rotate(0) translate(4 331.27)">
<title>ecset</title>
<polygon fill="white" stroke="none" points="-4,4 -4,-331.27 1194,-331.27 1194,4 -4,4"/>
<!-- start -->
<g id="node1" class="node">
<title>start</title>
<ellipse fill="#ffffff" stroke="#000000" cx="27" cy="-199.63" rx="27" ry="18"/>
</g>
<!-- critter_p_proc -->
<g id="node2" class="node">
<title>critter_p_proc</title>
<ellipse fill="#ffffff" stroke="#000000" cx="99" cy="-199.63" rx="27" ry="18"/>
</g>
<!-- pickup_p_proc -->
<g id="node3" class="node">
<title>pickup_p_proc</title>
<ellipse fill="#ffffff" stroke="#000000" cx="171" cy="-199.63" rx="27" ry="18"/>
</g>
<!-- talk_p_proc -->
<g id="node4" class="node">
<title>talk_p_proc</title>
<ellipse fill="#ffffff" stroke="#000000" cx="243" cy="-199.63" rx="27" ry="18"/>
</g>
<!-- Node001 -->
<g id="node5" class="node">
<title>Node001</title>
<ellipse fill="#ffffff" stroke="#000000" cx="279" cy="-18" rx="72.25" ry="18"/>
<text text-anchor="middle" x="279" y="-13.32" font-family="Times,serif" font-size="14.00">&quot;Грязесон!&quot;</text>
</g>
<!-- talk_p_proc&#45;&gt;Node001 -->
<g id="edge1" class="edge">
<title>talk_p_proc&#45;&gt;Node001</title>
<path fill="none" stroke="#555555" stroke-dasharray="1,5" d="M246.45,-181.41C252.67,-150.37 265.81,-84.79 273.36,-47.15"/>
<polygon fill="#555555" stroke="#555555" points="276.97,-47.93 275.51,-37.44 270.11,-46.55 276.97,-47.93"/>
</g>
<!-- destroy_p_proc -->
<g id="node6" class="node">
<title>destroy_p_proc</title>
<ellipse fill="#ffffff" stroke="#000000" cx="387" cy="-199.63" rx="27" ry="18"/>
</g>
<!-- look_at_p_proc -->
<g id="node7" class="node">
<title>look_at_p_proc</title>
<ellipse fill="#ffffff" stroke="#000000" cx="538" cy="-199.63" rx="106.45" ry="18"/>
<text text-anchor="middle" x="538" y="-194.96" font-family="Times,serif" font-size="14.00">Перед вами... Сет.</text>
</g>
<!-- description_p_proc -->
<g id="node8" class="node">
<title>description_p_proc</title>
<ellipse fill="#ffffff" stroke="#000000" cx="818" cy="-199.63" rx="155.56" ry="127.63"/>
<text text-anchor="middle" x="818" y="-272.58" font-family="Times,serif" font-size="14.00">Вы видите разлагающегося</text>
<text text-anchor="middle" x="818" y="-255.33" font-family="Times,serif" font-size="14.00">гуля, из головы которого</text>
<text text-anchor="middle" x="818" y="-238.08" font-family="Times,serif" font-size="14.00">торчат какие&#45;то</text>
<text text-anchor="middle" x="818" y="-220.83" font-family="Times,serif" font-size="14.00">механические детали.</text>
<text text-anchor="middle" x="818" y="-203.58" font-family="Times,serif" font-size="14.00">Трудно сказать, впал он в</text>
<text text-anchor="middle" x="818" y="-186.33" font-family="Times,serif" font-size="14.00">маразм или еще нет.</text>
<text text-anchor="middle" x="818" y="-169.08" font-family="Times,serif" font-size="14.00">&#45;&#45;&#45;</text>
<text text-anchor="middle" x="818" y="-151.83" font-family="Times,serif" font-size="14.00">Вы видите Сета. Он</text>
<text text-anchor="middle" x="818" y="-134.58" font-family="Times,serif" font-size="14.00">разговаривает сам с</text>
<text text-anchor="middle" x="818" y="-117.33" font-family="Times,serif" font-size="14.00">собой.</text>
</g>
<!-- use_skill_on_p_proc -->
<g id="node9" class="node">
<title>use_skill_on_p_proc</title>
<ellipse fill="#ffffff" stroke="#000000" cx="1019" cy="-199.63" rx="27" ry="18"/>
</g>
<!-- damage_p_proc -->
<g id="node10" class="node">
<title>damage_p_proc</title>
<ellipse fill="#ffffff" stroke="#000000" cx="1091" cy="-199.63" rx="27" ry="18"/>
</g>
<!-- map_enter_p_proc -->
<g id="node11" class="node">
<title>map_enter_p_proc</title>
<ellipse fill="#ffffff" stroke="#000000" cx="1163" cy="-199.63" rx="27" ry="18"/>
</g>
<!-- timed_event_p_proc -->
<g id="node12" class="node">
<title>timed_event_p_proc</title>
<ellipse fill="#ffffff" stroke="#000000" cx="315" cy="-199.63" rx="27" ry="18"/>
</g>
<!-- timed_event_p_proc&#45;&gt;Node001 -->
<g id="edge2" class="edge">
<title>timed_event_p_proc&#45;&gt;Node001</title>
<path fill="none" stroke="#555555" stroke-dasharray="1,5" d="M311.55,-181.41C305.33,-150.37 292.19,-84.79 284.64,-47.15"/>
<polygon fill="#555555" stroke="#555555" points="287.89,-46.55 282.49,-37.44 281.03,-47.93 287.89,-46.55"/>
</g>
</g>
</svg>
