<?xml version="1.0" encoding="UTF-8" standalone="no"?>
<!DOCTYPE svg PUBLIC "-//W3C//DTD SVG 1.1//EN"
 "http://www.w3.org/Graphics/SVG/1.1/DTD/svg11.dtd">
<!-- Generated by graphviz version 8.0.5 (0)
 -->
<!-- Title: ecwhro1 Pages: 1 -->
<svg width="1207pt" height="311pt"
 viewBox="0.00 0.00 1207.00 310.58" xmlns="http://www.w3.org/2000/svg" xmlns:xlink="http://www.w3.org/1999/xlink">
<g id="graph0" class="graph" transform="scale(1 1) rotate(0) translate(4 306.58)">
<title>ecwhro1</title>
<polygon fill="white" stroke="none" points="-4,4 -4,-306.58 1203,-306.58 1203,4 -4,4"/>
<!-- start -->
<g id="node1" class="node">
<title>start</title>
<ellipse fill="#ffffff" stroke="#000000" cx="27" cy="-199.34" rx="27" ry="18"/>
</g>
<!-- critter_p_proc -->
<g id="node2" class="node">
<title>critter_p_proc</title>
<ellipse fill="#ffffff" stroke="#000000" cx="99" cy="-199.34" rx="27" ry="18"/>
</g>
<!-- pickup_p_proc -->
<g id="node3" class="node">
<title>pickup_p_proc</title>
<ellipse fill="#ffffff" stroke="#000000" cx="171" cy="-199.34" rx="27" ry="18"/>
</g>
<!-- talk_p_proc -->
<g id="node4" class="node">
<title>talk_p_proc</title>
<ellipse fill="#ffffff" stroke="#000000" cx="243" cy="-199.34" rx="27" ry="18"/>
</g>
<!-- Node001 -->
<g id="node5" class="node">
<title>Node001</title>
<ellipse fill="#ffffff" stroke="#000000" cx="279" cy="-30.05" rx="155.56" ry="30.05"/>
<text text-anchor="middle" x="279" y="-34" font-family="Times,serif" font-size="14.00">Да... мой игрок был ТАКОЙ</text>
<text text-anchor="middle" x="279" y="-16.75" font-family="Times,serif" font-size="14.00">кретин, что...</text>
</g>
<!-- talk_p_proc&#45;&gt;Node001 -->
<g id="edge1" class="edge">
<title>talk_p_proc&#45;&gt;Node001</title>
<path fill="none" stroke="#555555" stroke-dasharray="1,5" d="M246.72,-181.07C252.27,-155.27 262.88,-105.96 270.42,-70.92"/>
<polygon fill="#555555" stroke="#555555" points="273.97,-72.06 272.65,-61.55 267.13,-70.59 273.97,-72.06"/>
</g>
<!-- destroy_p_proc -->
<g id="node6" class="node">
<title>destroy_p_proc</title>
<ellipse fill="#ffffff" stroke="#000000" cx="387" cy="-199.34" rx="27" ry="18"/>
</g>
<!-- look_at_p_proc -->
<g id="node7" class="node">
<title>look_at_p_proc</title>
<ellipse fill="#ffffff" stroke="#000000" cx="547" cy="-199.34" rx="115.26" ry="30.05"/>
<text text-anchor="middle" x="547" y="-203.29" font-family="Times,serif" font-size="14.00">Вы видите... модель</text>
<text text-anchor="middle" x="547" y="-186.04" font-family="Times,serif" font-size="14.00">белого героя.</text>
</g>
<!-- description_p_proc -->
<g id="node8" class="node">
<title>description_p_proc</title>
<ellipse fill="#ffffff" stroke="#000000" cx="832" cy="-199.34" rx="151.32" ry="103.24"/>
<text text-anchor="middle" x="832" y="-255.04" font-family="Times,serif" font-size="14.00">Вы видите мускулистого</text>
<text text-anchor="middle" x="832" y="-237.79" font-family="Times,serif" font-size="14.00">белого мужчину в форме</text>
<text text-anchor="middle" x="832" y="-220.54" font-family="Times,serif" font-size="14.00">Убежища 13. Он смеется и</text>
<text text-anchor="middle" x="832" y="-203.29" font-family="Times,serif" font-size="14.00">травит анекдоты.</text>
<text text-anchor="middle" x="832" y="-186.04" font-family="Times,serif" font-size="14.00">&#45;&#45;&#45;</text>
<text text-anchor="middle" x="832" y="-168.79" font-family="Times,serif" font-size="14.00">Вы видите мускулистого</text>
<text text-anchor="middle" x="832" y="-151.54" font-family="Times,serif" font-size="14.00">белого мужчину. Он</text>
<text text-anchor="middle" x="832" y="-134.29" font-family="Times,serif" font-size="14.00">смеется.</text>
</g>
<!-- use_skill_on_p_proc -->
<g id="node9" class="node">
<title>use_skill_on_p_proc</title>
<ellipse fill="#ffffff" stroke="#000000" cx="1028" cy="-199.34" rx="27" ry="18"/>
</g>
<!-- damage_p_proc -->
<g id="node10" class="node">
<title>damage_p_proc</title>
<ellipse fill="#ffffff" stroke="#000000" cx="1100" cy="-199.34" rx="27" ry="18"/>
</g>
<!-- map_enter_p_proc -->
<g id="node11" class="node">
<title>map_enter_p_proc</title>
<ellipse fill="#ffffff" stroke="#000000" cx="1172" cy="-199.34" rx="27" ry="18"/>
</g>
<!-- timed_event_p_proc -->
<g id="node12" class="node">
<title>timed_event_p_proc</title>
<ellipse fill="#ffffff" stroke="#000000" cx="315" cy="-199.34" rx="27" ry="18"/>
</g>
<!-- timed_event_p_proc&#45;&gt;Node001 -->
<g id="edge2" class="edge">
<title>timed_event_p_proc&#45;&gt;Node001</title>
<path fill="none" stroke="#555555" stroke-dasharray="1,5" d="M311.28,-181.07C305.73,-155.27 295.12,-105.96 287.58,-70.92"/>
<polygon fill="#555555" stroke="#555555" points="290.87,-70.59 285.35,-61.55 284.03,-72.06 290.87,-70.59"/>
</g>
</g>
</svg>
