<?xml version="1.0" encoding="UTF-8" standalone="no"?>
<!DOCTYPE svg PUBLIC "-//W3C//DTD SVG 1.1//EN"
 "http://www.w3.org/Graphics/SVG/1.1/DTD/svg11.dtd">
<!-- Generated by graphviz version 8.0.5 (0)
 -->
<!-- Title: epai25 Pages: 1 -->
<svg width="526pt" height="285pt"
 viewBox="0.00 0.00 526.00 285.29" xmlns="http://www.w3.org/2000/svg" xmlns:xlink="http://www.w3.org/1999/xlink">
<g id="graph0" class="graph" transform="scale(1 1) rotate(0) translate(4 281.29)">
<title>epai25</title>
<polygon fill="white" stroke="none" points="-4,4 -4,-281.29 522,-281.29 522,4 -4,4"/>
<!-- start -->
<g id="node1" class="node">
<title>start</title>
<ellipse fill="#ffffff" stroke="#000000" cx="27" cy="-210.64" rx="27" ry="18"/>
</g>
<!-- timed_event_p_proc -->
<g id="node2" class="node">
<title>timed_event_p_proc</title>
<ellipse fill="#ffffff" stroke="#000000" cx="99" cy="-210.64" rx="27" ry="18"/>
</g>
<!-- check_p_proc -->
<g id="node3" class="node">
<title>check_p_proc</title>
<ellipse fill="#ffffff" stroke="#000000" cx="99" cy="-90" rx="27" ry="18"/>
</g>
<!-- timed_event_p_proc&#45;&gt;check_p_proc -->
<g id="edge1" class="edge">
<title>timed_event_p_proc&#45;&gt;check_p_proc</title>
<path fill="none" stroke="#555555" stroke-dasharray="1,5" d="M99,-192.39C99,-173.15 99,-141.74 99,-118.97"/>
<polygon fill="#555555" stroke="#555555" points="102.5,-119.27 99,-109.27 95.5,-119.27 102.5,-119.27"/>
</g>
<!-- explode_p_proc -->
<g id="node7" class="node">
<title>explode_p_proc</title>
<ellipse fill="#ffffff" stroke="#000000" cx="99" cy="-18" rx="27" ry="18"/>
</g>
<!-- check_p_proc&#45;&gt;explode_p_proc -->
<g id="edge2" class="edge">
<title>check_p_proc&#45;&gt;explode_p_proc</title>
<path fill="none" stroke="#555555" stroke-dasharray="1,5" d="M99,-71.7C99,-64.24 99,-55.32 99,-46.97"/>
<polygon fill="#555555" stroke="#555555" points="102.5,-47.1 99,-37.1 95.5,-47.1 102.5,-47.1"/>
</g>
<!-- use_p_proc -->
<g id="node4" class="node">
<title>use_p_proc</title>
<ellipse fill="#ffffff" stroke="#000000" cx="259" cy="-210.64" rx="114.73" ry="66.64"/>
<text text-anchor="middle" x="259" y="-240.47" font-family="Times,serif" font-size="14.00">Вы устанавливаете</text>
<text text-anchor="middle" x="259" y="-223.22" font-family="Times,serif" font-size="14.00">динамит.</text>
<text text-anchor="middle" x="259" y="-205.97" font-family="Times,serif" font-size="14.00">&#45;&#45;&#45;</text>
<text text-anchor="middle" x="259" y="-188.72" font-family="Times,serif" font-size="14.00">Вы обезвреживаете</text>
<text text-anchor="middle" x="259" y="-171.47" font-family="Times,serif" font-size="14.00">динамит.</text>
</g>
<!-- pickup_p_proc -->
<g id="node5" class="node">
<title>pickup_p_proc</title>
<ellipse fill="#ffffff" stroke="#000000" cx="419" cy="-210.64" rx="27" ry="18"/>
</g>
<!-- destroy_p_proc -->
<g id="node6" class="node">
<title>destroy_p_proc</title>
<ellipse fill="#ffffff" stroke="#000000" cx="491" cy="-210.64" rx="27" ry="18"/>
</g>
</g>
</svg>
