<?xml version="1.0" encoding="UTF-8" standalone="no"?>
<!DOCTYPE svg PUBLIC "-//W3C//DTD SVG 1.1//EN"
 "http://www.w3.org/Graphics/SVG/1.1/DTD/svg11.dtd">
<!-- Generated by graphviz version 8.0.5 (0)
 -->
<!-- Title: epai9 Pages: 1 -->
<svg width="1515pt" height="456pt"
 viewBox="0.00 0.00 1515.44 455.76" xmlns="http://www.w3.org/2000/svg" xmlns:xlink="http://www.w3.org/1999/xlink">
<g id="graph0" class="graph" transform="scale(1 1) rotate(0) translate(4 451.76)">
<title>epai9</title>
<polygon fill="white" stroke="none" points="-4,4 -4,-451.76 1511.44,-451.76 1511.44,4 -4,4"/>
<!-- start -->
<g id="node1" class="node">
<title>start</title>
<ellipse fill="#ffffff" stroke="#000000" cx="97.44" cy="-417.71" rx="27" ry="18"/>
</g>
<!-- use_obj_on_p_proc -->
<g id="node2" class="node">
<title>use_obj_on_p_proc</title>
<ellipse fill="#ffffff" stroke="#000000" cx="243.44" cy="-417.71" rx="101.19" ry="18"/>
<text text-anchor="middle" x="243.44" y="-413.04" font-family="Times,serif" font-size="14.00">Дверь незаперта.</text>
</g>
<!-- Lockpick_Lock -->
<g id="node3" class="node">
<title>Lockpick_Lock</title>
<ellipse fill="#ffffff" stroke="#000000" cx="352.44" cy="-333.66" rx="27" ry="18"/>
</g>
<!-- use_obj_on_p_proc&#45;&gt;Lockpick_Lock -->
<g id="edge1" class="edge">
<title>use_obj_on_p_proc&#45;&gt;Lockpick_Lock</title>
<path fill="none" stroke="#555555" stroke-dasharray="1,5" d="M266.03,-399.71C283.52,-386.54 307.8,-368.27 326.16,-354.44"/>
<polygon fill="#555555" stroke="#555555" points="328.02,-356.67 333.91,-347.86 323.81,-351.08 328.02,-356.67"/>
</g>
<!-- Set_Lockpick_Lock -->
<g id="node4" class="node">
<title>Set_Lockpick_Lock</title>
<ellipse fill="#ffffff" stroke="#000000" cx="136.44" cy="-333.66" rx="27" ry="18"/>
</g>
<!-- use_obj_on_p_proc&#45;&gt;Set_Lockpick_Lock -->
<g id="edge2" class="edge">
<title>use_obj_on_p_proc&#45;&gt;Set_Lockpick_Lock</title>
<path fill="none" stroke="#555555" stroke-dasharray="1,5" d="M221.27,-399.71C204.02,-386.48 180.05,-368.1 161.99,-354.25"/>
<polygon fill="#555555" stroke="#555555" points="164.72,-351.17 154.66,-347.86 160.46,-356.72 164.72,-351.17"/>
</g>
<!-- Super_Lockpick_Lock -->
<g id="node5" class="node">
<title>Super_Lockpick_Lock</title>
<ellipse fill="#ffffff" stroke="#000000" cx="280.44" cy="-333.66" rx="27" ry="18"/>
</g>
<!-- use_obj_on_p_proc&#45;&gt;Super_Lockpick_Lock -->
<g id="edge3" class="edge">
<title>use_obj_on_p_proc&#45;&gt;Super_Lockpick_Lock</title>
<path fill="none" stroke="#555555" stroke-dasharray="1,5" d="M251.29,-399.31C256.29,-388.21 262.88,-373.61 268.52,-361.1"/>
<polygon fill="#555555" stroke="#555555" points="272.07,-362.75 272.99,-352.2 265.68,-359.87 272.07,-362.75"/>
</g>
<!-- Super_Set_Lockpick_Lock -->
<g id="node6" class="node">
<title>Super_Set_Lockpick_Lock</title>
<ellipse fill="#ffffff" stroke="#000000" cx="208.44" cy="-333.66" rx="27" ry="18"/>
</g>
<!-- use_obj_on_p_proc&#45;&gt;Super_Set_Lockpick_Lock -->
<g id="edge4" class="edge">
<title>use_obj_on_p_proc&#45;&gt;Super_Set_Lockpick_Lock</title>
<path fill="none" stroke="#555555" stroke-dasharray="1,5" d="M236.02,-399.31C231.32,-388.29 225.14,-373.81 219.83,-361.35"/>
<polygon fill="#555555" stroke="#555555" points="222.76,-360.3 215.61,-352.48 216.32,-363.05 222.76,-360.3"/>
</g>
<!-- Lockpick_Door -->
<g id="node13" class="node">
<title>Lockpick_Door</title>
<ellipse fill="#ffffff" stroke="#000000" cx="478.44" cy="-139.83" rx="153.44" ry="139.83"/>
<text text-anchor="middle" x="478.44" y="-221.41" font-family="Times,serif" font-size="14.00">Дверь незаперта.</text>
<text text-anchor="middle" x="478.44" y="-204.16" font-family="Times,serif" font-size="14.00">&#45;&#45;&#45;</text>
<text text-anchor="middle" x="478.44" y="-186.91" font-family="Times,serif" font-size="14.00">Эта дверь заперта.</text>
<text text-anchor="middle" x="478.44" y="-169.66" font-family="Times,serif" font-size="14.00">&#45;&#45;&#45;</text>
<text text-anchor="middle" x="478.44" y="-152.41" font-family="Times,serif" font-size="14.00">Вы видите запертую дверь.</text>
<text text-anchor="middle" x="478.44" y="-135.16" font-family="Times,serif" font-size="14.00">Дальше не пройти.</text>
<text text-anchor="middle" x="478.44" y="-117.91" font-family="Times,serif" font-size="14.00">&#45;&#45;&#45;</text>
<text text-anchor="middle" x="478.44" y="-100.66" font-family="Times,serif" font-size="14.00">Замок заклинило.</text>
<text text-anchor="middle" x="478.44" y="-83.41" font-family="Times,serif" font-size="14.00">&#45;&#45;&#45;</text>
<text text-anchor="middle" x="478.44" y="-66.16" font-family="Times,serif" font-size="14.00">Вы не в состоянии открыть</text>
<text text-anchor="middle" x="478.44" y="-48.91" font-family="Times,serif" font-size="14.00">дверь.</text>
</g>
<!-- Lockpick_Lock&#45;&gt;Lockpick_Door -->
<g id="edge6" class="edge">
<title>Lockpick_Lock&#45;&gt;Lockpick_Door</title>
<path fill="none" stroke="#555555" stroke-dasharray="1,5" d="M362.97,-316.64C370.58,-305.05 381.65,-288.19 393.97,-269.44"/>
<polygon fill="#555555" stroke="#555555" points="397.34,-271.68 399.9,-261.4 391.49,-267.84 397.34,-271.68"/>
</g>
<!-- Lock_Door -->
<g id="node14" class="node">
<title>Lock_Door</title>
<ellipse fill="#ffffff" stroke="#000000" cx="153.44" cy="-139.83" rx="153.44" ry="115.44"/>
<text text-anchor="middle" x="153.44" y="-204.16" font-family="Times,serif" font-size="14.00">Дверь заперта.</text>
<text text-anchor="middle" x="153.44" y="-186.91" font-family="Times,serif" font-size="14.00">&#45;&#45;&#45;</text>
<text text-anchor="middle" x="153.44" y="-169.66" font-family="Times,serif" font-size="14.00">Эта дверь заперта.</text>
<text text-anchor="middle" x="153.44" y="-152.41" font-family="Times,serif" font-size="14.00">&#45;&#45;&#45;</text>
<text text-anchor="middle" x="153.44" y="-135.16" font-family="Times,serif" font-size="14.00">Вы видите запертую дверь.</text>
<text text-anchor="middle" x="153.44" y="-117.91" font-family="Times,serif" font-size="14.00">Дальше не пройти.</text>
<text text-anchor="middle" x="153.44" y="-100.66" font-family="Times,serif" font-size="14.00">&#45;&#45;&#45;</text>
<text text-anchor="middle" x="153.44" y="-83.41" font-family="Times,serif" font-size="14.00">Вам не удалось запереть</text>
<text text-anchor="middle" x="153.44" y="-66.16" font-family="Times,serif" font-size="14.00">дверь.</text>
</g>
<!-- Set_Lockpick_Lock&#45;&gt;Lock_Door -->
<g id="edge9" class="edge">
<title>Set_Lockpick_Lock&#45;&gt;Lock_Door</title>
<path fill="none" stroke="#555555" stroke-dasharray="1,5" d="M137.98,-315.3C139.06,-303.08 140.62,-285.51 142.33,-266.17"/>
<polygon fill="#555555" stroke="#555555" points="145.9,-266.53 143.3,-256.26 138.93,-265.91 145.9,-266.53"/>
</g>
<!-- Super_Lockpick_Lock&#45;&gt;Lockpick_Door -->
<g id="edge7" class="edge">
<title>Super_Lockpick_Lock&#45;&gt;Lockpick_Door</title>
<path fill="none" stroke="#555555" stroke-dasharray="1,5" d="M295.32,-318.24C311.26,-302.81 338.09,-276.81 366.37,-249.41"/>
<polygon fill="#555555" stroke="#555555" points="368.23,-252.51 372.98,-243.04 363.36,-247.48 368.23,-252.51"/>
</g>
<!-- Super_Set_Lockpick_Lock&#45;&gt;Lock_Door -->
<g id="edge10" class="edge">
<title>Super_Set_Lockpick_Lock&#45;&gt;Lock_Door</title>
<path fill="none" stroke="#555555" stroke-dasharray="1,5" d="M203.56,-315.64C199.9,-302.85 194.51,-284.06 188.61,-263.49"/>
<polygon fill="#555555" stroke="#555555" points="191.7,-262.58 185.58,-253.93 184.97,-264.51 191.7,-262.58"/>
</g>
<!-- look_at_p_proc -->
<g id="node7" class="node">
<title>look_at_p_proc</title>
<ellipse fill="#ffffff" stroke="#000000" cx="654.44" cy="-417.71" rx="148.54" ry="18"/>
<text text-anchor="middle" x="654.44" y="-413.04" font-family="Times,serif" font-size="14.00">Вы видите крепкую дверь.</text>
</g>
<!-- description_p_proc -->
<g id="node8" class="node">
<title>description_p_proc</title>
<ellipse fill="#ffffff" stroke="#000000" cx="974.44" cy="-417.71" rx="153.44" ry="30.05"/>
<text text-anchor="middle" x="974.44" y="-421.66" font-family="Times,serif" font-size="14.00">Вы видите запертую дверь.</text>
<text text-anchor="middle" x="974.44" y="-404.41" font-family="Times,serif" font-size="14.00">Дальше не пройти.</text>
</g>
<!-- use_p_proc -->
<g id="node9" class="node">
<title>use_p_proc</title>
<ellipse fill="#ffffff" stroke="#000000" cx="1254.44" cy="-417.71" rx="108.55" ry="18"/>
<text text-anchor="middle" x="1254.44" y="-413.04" font-family="Times,serif" font-size="14.00">Эта дверь заперта.</text>
</g>
<!-- destroy_p_proc -->
<g id="node10" class="node">
<title>destroy_p_proc</title>
<ellipse fill="#ffffff" stroke="#000000" cx="1408.44" cy="-417.71" rx="27" ry="18"/>
</g>
<!-- damage_p_proc -->
<g id="node11" class="node">
<title>damage_p_proc</title>
<ellipse fill="#ffffff" stroke="#000000" cx="1480.44" cy="-417.71" rx="27" ry="18"/>
</g>
<!-- Unlock_Lock -->
<g id="node12" class="node">
<title>Unlock_Lock</title>
<ellipse fill="#ffffff" stroke="#000000" cx="496.44" cy="-333.66" rx="27" ry="18"/>
</g>
<!-- Unlock_Lock&#45;&gt;Lockpick_Door -->
<g id="edge5" class="edge">
<title>Unlock_Lock&#45;&gt;Lockpick_Door</title>
<path fill="none" stroke="#555555" stroke-dasharray="1,5" d="M494.81,-315.3C494.17,-308.46 493.37,-299.94 492.47,-290.37"/>
<polygon fill="#555555" stroke="#555555" points="495.88,-290.23 491.46,-280.6 488.91,-290.89 495.88,-290.23"/>
</g>
<!-- Set_Lock -->
<g id="node15" class="node">
<title>Set_Lock</title>
<ellipse fill="#ffffff" stroke="#000000" cx="424.44" cy="-333.66" rx="27" ry="18"/>
</g>
<!-- Set_Lock&#45;&gt;Lock_Door -->
<g id="edge8" class="edge">
<title>Set_Lock&#45;&gt;Lock_Door</title>
<path fill="none" stroke="#555555" stroke-dasharray="1,5" d="M403.13,-322.55C373.94,-308.66 324.26,-284.79 316.44,-279.66 296.82,-266.78 276.95,-251.8 258.17,-236.55"/>
<polygon fill="#555555" stroke="#555555" points="260.85,-233.41 250.9,-229.77 256.41,-238.82 260.85,-233.41"/>
</g>
<!-- use_skill_on_p_proc -->
<g id="node16" class="node">
<title>use_skill_on_p_proc</title>
<ellipse fill="#ffffff" stroke="#000000" cx="460.44" cy="-417.71" rx="27" ry="18"/>
</g>
<!-- use_skill_on_p_proc&#45;&gt;Unlock_Lock -->
<g id="edge11" class="edge">
<title>use_skill_on_p_proc&#45;&gt;Unlock_Lock</title>
<path fill="none" stroke="#555555" stroke-dasharray="1,5" d="M467.73,-400.11C472.66,-388.88 479.27,-373.8 484.91,-360.95"/>
<polygon fill="#555555" stroke="#555555" points="488.36,-362.8 489.17,-352.24 481.94,-359.99 488.36,-362.8"/>
</g>
<!-- use_skill_on_p_proc&#45;&gt;Set_Lock -->
<g id="edge12" class="edge">
<title>use_skill_on_p_proc&#45;&gt;Set_Lock</title>
<path fill="none" stroke="#555555" stroke-dasharray="1,5" d="M453.16,-400.11C448.23,-388.88 441.62,-373.8 435.98,-360.95"/>
<polygon fill="#555555" stroke="#555555" points="438.94,-359.99 431.72,-352.24 432.53,-362.8 438.94,-359.99"/>
</g>
</g>
</svg>
