<?xml version="1.0" encoding="UTF-8" standalone="no"?>
<!DOCTYPE svg PUBLIC "-//W3C//DTD SVG 1.1//EN"
 "http://www.w3.org/Graphics/SVG/1.1/DTD/svg11.dtd">
<!-- Generated by graphviz version 8.0.5 (0)
 -->
<!-- Title: epai5 Pages: 1 -->
<svg width="1481pt" height="539pt"
 viewBox="0.00 0.00 1481.33 538.68" xmlns="http://www.w3.org/2000/svg" xmlns:xlink="http://www.w3.org/1999/xlink">
<g id="graph0" class="graph" transform="scale(1 1) rotate(0) translate(4 534.68)">
<title>epai5</title>
<polygon fill="white" stroke="none" points="-4,4 -4,-534.68 1477.33,-534.68 1477.33,4 -4,4"/>
<!-- start -->
<g id="node1" class="node">
<title>start</title>
<ellipse fill="#ffffff" stroke="#000000" cx="156.57" cy="-476.24" rx="27" ry="18"/>
</g>
<!-- talk_p_proc -->
<g id="node2" class="node">
<title>talk_p_proc</title>
<ellipse fill="#ffffff" stroke="#000000" cx="353.57" cy="-366.79" rx="27" ry="18"/>
</g>
<!-- Node003 -->
<g id="node3" class="node">
<title>Node003</title>
<ellipse fill="#ffffff" stroke="#000000" cx="213.57" cy="-293.79" rx="146.96" ry="18"/>
<text text-anchor="middle" x="213.57" y="-289.11" font-family="Times,serif" font-size="14.00">Подтвердить замену кода.</text>
</g>
<!-- talk_p_proc&#45;&gt;Node003 -->
<g id="edge1" class="edge">
<title>talk_p_proc&#45;&gt;Node003</title>
<path fill="none" stroke="#555555" stroke-dasharray="1,5" d="M332.61,-355.16C312.61,-345.02 281.88,-329.43 256.65,-316.64"/>
<polygon fill="#555555" stroke="#555555" points="258.43,-313.11 247.93,-311.71 255.27,-319.35 258.43,-313.11"/>
</g>
<!-- Node001 -->
<g id="node4" class="node">
<title>Node001</title>
<ellipse fill="#ffffff" stroke="#000000" cx="495.57" cy="-293.79" rx="116.97" ry="18"/>
<text text-anchor="middle" x="495.57" y="-289.11" font-family="Times,serif" font-size="14.00">Код подтверждения:</text>
</g>
<!-- talk_p_proc&#45;&gt;Node001 -->
<g id="edge2" class="edge">
<title>talk_p_proc&#45;&gt;Node001</title>
<path fill="none" stroke="#555555" stroke-dasharray="1,5" d="M374.83,-355.16C395.34,-344.9 426.99,-329.08 452.74,-316.21"/>
<polygon fill="#555555" stroke="#555555" points="453.9,-319.04 461.28,-311.44 450.77,-312.78 453.9,-319.04"/>
</g>
<!-- Node999 -->
<g id="node9" class="node">
<title>Node999</title>
<ellipse fill="#ffffff" stroke="#000000" cx="247.57" cy="-18" rx="27" ry="18"/>
</g>
<!-- Node003&#45;&gt;Node999 -->
<g id="edge12" class="edge">
<title>Node003&#45;&gt;Node999</title>
<path fill="none" stroke="#6c9900" d="M117.39,-279.92C82.65,-270.11 46.85,-252.85 25.82,-222.54 -7.94,-173.86 -9.17,-137.05 25.82,-89.25 68.07,-31.54 158,-20.06 209.41,-18.46"/>
<polygon fill="#6c9900" stroke="#6c9900" points="209.44,-21.94 219.38,-18.25 209.31,-14.94 209.44,-21.94"/>
<text text-anchor="middle" x="59.95" y="-151.22" font-family="Times,serif" font-size="14.00" fill="#6c9900">[ВЫХОД]</text>
</g>
<!-- Node003a -->
<g id="node11" class="node">
<title>Node003a</title>
<ellipse fill="#ffffff" stroke="#000000" cx="247.57" cy="-155.89" rx="146.02" ry="30.05"/>
<text text-anchor="middle" x="247.57" y="-159.84" font-family="Times,serif" font-size="14.00">Дверь разблокирована.</text>
<text text-anchor="middle" x="247.57" y="-142.59" font-family="Times,serif" font-size="14.00">Спасибо и приятного дня.</text>
</g>
<!-- Node003&#45;&gt;Node003a -->
<g id="edge11" class="edge">
<title>Node003&#45;&gt;Node003a</title>
<path fill="none" stroke="#003f99" d="M213.17,-275.68C213.25,-265.39 213.92,-252.1 216.32,-240.54 219.42,-225.66 224.72,-209.92 230.09,-196.15"/>
<polygon fill="#003f99" stroke="#003f99" points="233.67,-197.63 234.18,-187.05 227.18,-195.01 233.67,-197.63"/>
<text text-anchor="middle" x="237.2" y="-244.49" font-family="Times,serif" font-size="14.00" fill="#003f99">ABRE</text>
</g>
<!-- Node001&#45;&gt;Node999 -->
<g id="edge9" class="edge">
<title>Node001&#45;&gt;Node999</title>
<path fill="none" stroke="#00991a" d="M474.01,-275.86C467.94,-270.48 461.62,-264.24 456.57,-257.79 408.09,-195.85 453.36,-149.31 402.57,-89.25 372.15,-53.27 319.46,-34.85 284.07,-26.08"/>
<polygon fill="#00991a" stroke="#00991a" points="285.22,-22.52 274.69,-23.66 283.63,-29.34 285.22,-22.52"/>
<text text-anchor="middle" x="469.95" y="-151.22" font-family="Times,serif" font-size="14.00" fill="#00991a">[ВЫХОД]</text>
</g>
<!-- Node002 -->
<g id="node10" class="node">
<title>Node002</title>
<ellipse fill="#ffffff" stroke="#000000" cx="660.57" cy="-155.89" rx="146.55" ry="66.64"/>
<text text-anchor="middle" x="660.57" y="-185.72" font-family="Times,serif" font-size="14.00">Неправильный код двери.</text>
<text text-anchor="middle" x="660.57" y="-168.47" font-family="Times,serif" font-size="14.00">Блокировка двери.</text>
<text text-anchor="middle" x="660.57" y="-151.22" font-family="Times,serif" font-size="14.00">Пожалуйста, свяжитесь с</text>
<text text-anchor="middle" x="660.57" y="-133.97" font-family="Times,serif" font-size="14.00">Пресс&#45;секретарем для</text>
<text text-anchor="middle" x="660.57" y="-116.72" font-family="Times,serif" font-size="14.00">замены кода.</text>
</g>
<!-- Node001&#45;&gt;Node002 -->
<g id="edge4" class="edge">
<title>Node001&#45;&gt;Node002</title>
<path fill="none" stroke="#399900" d="M474.54,-275.64C464.52,-265.34 456.21,-252.05 463.82,-240.54 465.23,-238.42 501.56,-222.75 542.63,-205.54"/>
<polygon fill="#399900" stroke="#399900" points="543.7,-208.47 551.58,-201.38 541,-202.01 543.7,-208.47"/>
<text text-anchor="middle" x="496.95" y="-244.49" font-family="Times,serif" font-size="14.00" fill="#399900">XY104FD</text>
</g>
<!-- Node001&#45;&gt;Node002 -->
<g id="edge5" class="edge">
<title>Node001&#45;&gt;Node002</title>
<path fill="none" stroke="#990066" d="M513.73,-275.73C524.96,-265.35 539.76,-251.94 553.32,-240.54 561.19,-233.93 569.47,-227.15 577.81,-220.45"/>
<polygon fill="#990066" stroke="#990066" points="579.53,-222.77 585.16,-213.79 575.16,-217.3 579.53,-222.77"/>
<text text-anchor="middle" x="577.7" y="-244.49" font-family="Times,serif" font-size="14.00" fill="#990066">BFN12</text>
</g>
<!-- Node001&#45;&gt;Node002 -->
<g id="edge6" class="edge">
<title>Node001&#45;&gt;Node002</title>
<path fill="none" stroke="#009299" d="M564.59,-278.86C578.49,-273.83 592.28,-267.02 603.57,-257.79 612.79,-250.26 620.79,-240.82 627.65,-230.76"/>
<polygon fill="#009299" stroke="#009299" points="630.95,-233.1 633.38,-222.78 625.05,-229.33 630.95,-233.1"/>
<text text-anchor="middle" x="650.07" y="-244.49" font-family="Times,serif" font-size="14.00" fill="#009299">Открыть</text>
</g>
<!-- Node001&#45;&gt;Node002 -->
<g id="edge7" class="edge">
<title>Node001&#45;&gt;Node002</title>
<path fill="none" stroke="#997300" d="M600,-285.32C637.69,-280.27 673.88,-271.84 685.57,-257.79 691.86,-250.23 694.35,-241.32 694.35,-231.97"/>
<polygon fill="#997300" stroke="#997300" points="697.77,-231.93 693.38,-222.29 690.8,-232.56 697.77,-231.93"/>
<text text-anchor="middle" x="720.32" y="-244.49" font-family="Times,serif" font-size="14.00" fill="#997300">WHEAT</text>
</g>
<!-- Node001&#45;&gt;Node003a -->
<g id="edge8" class="edge">
<title>Node001&#45;&gt;Node003a</title>
<path fill="none" stroke="#470099" d="M428.96,-278.6C410.69,-273.38 391.26,-266.54 374.32,-257.79 341.24,-240.71 308.47,-214.31 284.55,-192.8"/>
<polygon fill="#470099" stroke="#470099" points="287.21,-190.58 277.47,-186.42 282.49,-195.75 287.21,-190.58"/>
<text text-anchor="middle" x="395.2" y="-244.49" font-family="Times,serif" font-size="14.00" fill="#470099">ABRE</text>
</g>
<!-- description_p_proc -->
<g id="node5" class="node">
<title>description_p_proc</title>
<ellipse fill="#ffffff" stroke="#000000" cx="674.57" cy="-476.24" rx="150.79" ry="54.45"/>
<text text-anchor="middle" x="674.57" y="-497.44" font-family="Times,serif" font-size="14.00">Вы видите электронную</text>
<text text-anchor="middle" x="674.57" y="-480.19" font-family="Times,serif" font-size="14.00">дверь с голосовым</text>
<text text-anchor="middle" x="674.57" y="-462.94" font-family="Times,serif" font-size="14.00">управлением блокировкой</text>
<text text-anchor="middle" x="674.57" y="-445.69" font-family="Times,serif" font-size="14.00">замка.</text>
</g>
<!-- look_at_p_proc -->
<g id="node6" class="node">
<title>look_at_p_proc</title>
<ellipse fill="#ffffff" stroke="#000000" cx="980.57" cy="-476.24" rx="137" ry="54.45"/>
<text text-anchor="middle" x="980.57" y="-497.44" font-family="Times,serif" font-size="14.00">Вы видите дверь.</text>
<text text-anchor="middle" x="980.57" y="-480.19" font-family="Times,serif" font-size="14.00">&#45;&#45;&#45;</text>
<text text-anchor="middle" x="980.57" y="-462.94" font-family="Times,serif" font-size="14.00">Вы видите электронную</text>
<text text-anchor="middle" x="980.57" y="-445.69" font-family="Times,serif" font-size="14.00">дверь.</text>
</g>
<!-- use_p_proc -->
<g id="node7" class="node">
<title>use_p_proc</title>
<ellipse fill="#ffffff" stroke="#000000" cx="353.57" cy="-476.24" rx="151.85" ry="30.05"/>
<text text-anchor="middle" x="353.57" y="-480.19" font-family="Times,serif" font-size="14.00">Эта дверь заблокирована с</text>
<text text-anchor="middle" x="353.57" y="-462.94" font-family="Times,serif" font-size="14.00">помощью электроники.</text>
</g>
<!-- use_p_proc&#45;&gt;talk_p_proc -->
<g id="edge3" class="edge">
<title>use_p_proc&#45;&gt;talk_p_proc</title>
<path fill="none" stroke="#555555" stroke-dasharray="1,5" d="M353.57,-445.88C353.57,-430.33 353.57,-411.33 353.57,-395.96"/>
<polygon fill="#555555" stroke="#555555" points="357.07,-396.04 353.57,-386.04 350.07,-396.04 357.07,-396.04"/>
</g>
<!-- destroy_p_proc -->
<g id="node8" class="node">
<title>destroy_p_proc</title>
<ellipse fill="#ffffff" stroke="#000000" cx="1162.57" cy="-476.24" rx="27" ry="18"/>
</g>
<!-- Node002a -->
<g id="node12" class="node">
<title>Node002a</title>
<ellipse fill="#ffffff" stroke="#000000" cx="660.57" cy="-18" rx="27" ry="18"/>
</g>
<!-- Node002&#45;&gt;Node002a -->
<g id="edge10" class="edge">
<title>Node002&#45;&gt;Node002a</title>
<path fill="none" stroke="#990013" d="M660.57,-88.94C660.57,-74.18 660.57,-59.29 660.57,-47.07"/>
<polygon fill="#990013" stroke="#990013" points="664.07,-47.26 660.57,-37.26 657.07,-47.26 664.07,-47.26"/>
<text text-anchor="middle" x="693.95" y="-57.95" font-family="Times,serif" font-size="14.00" fill="#990013">[ВЫХОД]</text>
</g>
<!-- Node003a&#45;&gt;Node999 -->
<g id="edge13" class="edge">
<title>Node003a&#45;&gt;Node999</title>
<path fill="none" stroke="#990099" d="M247.57,-125.41C247.57,-102.17 247.57,-69.98 247.57,-47.1"/>
<polygon fill="#990099" stroke="#990099" points="251.07,-47.4 247.57,-37.4 244.07,-47.4 251.07,-47.4"/>
<text text-anchor="middle" x="280.95" y="-57.95" font-family="Times,serif" font-size="14.00" fill="#990099">[ВЫХОД]</text>
</g>
<!-- use_skill_on_p_proc -->
<g id="node13" class="node">
<title>use_skill_on_p_proc</title>
<ellipse fill="#ffffff" stroke="#000000" cx="1340.57" cy="-476.24" rx="132.76" ry="30.05"/>
<text text-anchor="middle" x="1340.57" y="-480.19" font-family="Times,serif" font-size="14.00">Здесь нет замка, чтобы</text>
<text text-anchor="middle" x="1340.57" y="-462.94" font-family="Times,serif" font-size="14.00">подобрать отмычку.</text>
</g>
</g>
</svg>
