<?xml version="1.0" encoding="UTF-8" standalone="no"?>
<!DOCTYPE svg PUBLIC "-//W3C//DTD SVG 1.1//EN"
 "http://www.w3.org/Graphics/SVG/1.1/DTD/svg11.dtd">
<!-- Generated by graphviz version 8.0.5 (0)
 -->
<!-- Title: fsbiosta Pages: 1 -->
<svg width="2671pt" height="3029pt"
 viewBox="0.00 0.00 2671.24 3028.63" xmlns="http://www.w3.org/2000/svg" xmlns:xlink="http://www.w3.org/1999/xlink">
<g id="graph0" class="graph" transform="scale(1 1) rotate(0) translate(4 3024.63)">
<title>fsbiosta</title>
<polygon fill="white" stroke="none" points="-4,4 -4,-3024.63 2667.24,-3024.63 2667.24,4 -4,4"/>
<!-- start -->
<g id="node1" class="node">
<title>start</title>
<ellipse fill="#ffffff" stroke="#000000" cx="332.49" cy="-2953.99" rx="27" ry="18"/>
</g>
<!-- talk_p_proc -->
<g id="node2" class="node">
<title>talk_p_proc</title>
<ellipse fill="#ffffff" stroke="#000000" cx="404.49" cy="-2953.99" rx="27" ry="18"/>
</g>
<!-- Node003 -->
<g id="node3" class="node">
<title>Node003</title>
<ellipse fill="#ffffff" stroke="#000000" cx="145.49" cy="-2795.9" rx="145.49" ry="54.45"/>
<text text-anchor="middle" x="145.49" y="-2817.1" font-family="Times,serif" font-size="14.00">Пароль неверен.</text>
<text text-anchor="middle" x="145.49" y="-2799.85" font-family="Times,serif" font-size="14.00">Обратитесь к системному</text>
<text text-anchor="middle" x="145.49" y="-2782.6" font-family="Times,serif" font-size="14.00">администратору. До</text>
<text text-anchor="middle" x="145.49" y="-2765.35" font-family="Times,serif" font-size="14.00">свидания.</text>
</g>
<!-- talk_p_proc&#45;&gt;Node003 -->
<g id="edge1" class="edge">
<title>talk_p_proc&#45;&gt;Node003</title>
<path fill="none" stroke="#555555" stroke-dasharray="1,5" d="M399.36,-2935.96C394,-2921.02 384.16,-2899.8 368.49,-2887.34 345.36,-2868.95 332.24,-2879.5 304.49,-2869.34 284.29,-2861.95 263.09,-2853.1 242.98,-2844.16"/>
<polygon fill="#555555" stroke="#555555" points="244.76,-2840.67 234.21,-2839.77 241.9,-2847.06 244.76,-2840.67"/>
</g>
<!-- Node009 -->
<g id="node4" class="node">
<title>Node009</title>
<ellipse fill="#ffffff" stroke="#000000" cx="416.49" cy="-1486.15" rx="117.5" ry="18"/>
<text text-anchor="middle" x="416.49" y="-1481.47" font-family="Times,serif" font-size="14.00">Станция отключена.</text>
</g>
<!-- talk_p_proc&#45;&gt;Node009 -->
<g id="edge2" class="edge">
<title>talk_p_proc&#45;&gt;Node009</title>
<path fill="none" stroke="#555555" stroke-dasharray="1,5" d="M413.46,-2936.5C420.71,-2923.21 431.2,-2904.04 440.49,-2887.34 462.92,-2847.01 491.49,-2843.04 491.49,-2796.9 491.49,-2796.9 491.49,-2796.9 491.49,-2086.41 491.49,-1864.37 440.17,-1599.62 422.43,-1514.75"/>
<polygon fill="#555555" stroke="#555555" points="425.7,-1514.27 420.21,-1505.21 418.85,-1515.72 425.7,-1514.27"/>
</g>
<!-- Node001 -->
<g id="node5" class="node">
<title>Node001</title>
<ellipse fill="#ffffff" stroke="#000000" cx="558.49" cy="-843.24" rx="155.03" ry="42.25"/>
<text text-anchor="middle" x="558.49" y="-855.82" font-family="Times,serif" font-size="14.00">Здравствуйте. Пожалуйста,</text>
<text text-anchor="middle" x="558.49" y="-838.57" font-family="Times,serif" font-size="14.00">введите пароль для</text>
<text text-anchor="middle" x="558.49" y="-821.32" font-family="Times,serif" font-size="14.00">доступа.</text>
</g>
<!-- talk_p_proc&#45;&gt;Node001 -->
<g id="edge3" class="edge">
<title>talk_p_proc&#45;&gt;Node001</title>
<path fill="none" stroke="#555555" stroke-dasharray="1,5" d="M396.17,-2936.38C367.05,-2878.14 271.49,-2685.87 271.49,-2671.2 271.49,-2671.2 271.49,-2671.2 271.49,-1485.15 271.49,-1352.7 223.5,-1302.01 290.49,-1187.75 319.67,-1137.98 359.66,-1158.99 399.49,-1117.25 463.03,-1050.67 511.58,-954.08 537.5,-895.43"/>
<polygon fill="#555555" stroke="#555555" points="540.97,-897.21 541.76,-886.64 534.56,-894.41 540.97,-897.21"/>
</g>
<!-- doCallGuards -->
<g id="node6" class="node">
<title>doCallGuards</title>
<ellipse fill="#ffffff" stroke="#000000" cx="546.49" cy="-2795.9" rx="27" ry="18"/>
</g>
<!-- talk_p_proc&#45;&gt;doCallGuards -->
<g id="edge4" class="edge">
<title>talk_p_proc&#45;&gt;doCallGuards</title>
<path fill="none" stroke="#555555" stroke-dasharray="1,5" d="M409.6,-2935.95C414.95,-2921 424.79,-2899.77 440.49,-2887.34 463.99,-2868.74 481.86,-2887.79 505.49,-2869.34 520.3,-2857.78 530.64,-2839.28 537.23,-2823.87"/>
<polygon fill="#555555" stroke="#555555" points="540.78,-2825.4 541.2,-2814.81 534.27,-2822.83 540.78,-2825.4"/>
</g>
<!-- Node999 -->
<g id="node16" class="node">
<title>Node999</title>
<ellipse fill="#ffffff" stroke="#000000" cx="612.49" cy="-334.52" rx="27" ry="18"/>
</g>
<!-- Node003&#45;&gt;Node999 -->
<g id="edge18" class="edge">
<title>Node003&#45;&gt;Node999</title>
<path fill="none" stroke="#009996" d="M174.36,-2742.27C183.6,-2720.87 191.49,-2695.48 191.49,-2671.2 191.49,-2671.2 191.49,-2671.2 191.49,-842.24 191.49,-680.65 222.81,-611.8 353.49,-516.74 375.31,-500.86 387.69,-511.48 411.49,-498.74 484.5,-459.66 556.52,-392.29 591.17,-357.59"/>
<polygon fill="#009996" stroke="#009996" points="593.22,-360.48 597.76,-350.91 588.24,-355.56 593.22,-360.48"/>
<text text-anchor="middle" x="217.36" y="-2082.73" font-family="Times,serif" font-size="14.00" fill="#009996">::уйти::</text>
</g>
<!-- NodeHack -->
<g id="node19" class="node">
<title>NodeHack</title>
<ellipse fill="#ffffff" stroke="#000000" cx="863.49" cy="-2670.2" rx="27" ry="18"/>
</g>
<!-- Node003&#45;&gt;NodeHack -->
<g id="edge17" class="edge">
<title>Node003&#45;&gt;NodeHack</title>
<path fill="none" stroke="#990070" d="M277.18,-2772.21C445.39,-2743.23 726.7,-2694.76 826.77,-2677.52"/>
<polygon fill="#990070" stroke="#990070" points="827.26,-2680.82 836.52,-2675.67 826.07,-2673.92 827.26,-2680.82"/>
<text text-anchor="middle" x="737.36" y="-2710.15" font-family="Times,serif" font-size="14.00" fill="#990070">::взломать компьютер::</text>
</g>
<!-- Node009&#45;&gt;Node001 -->
<g id="edge38" class="edge">
<title>Node009&#45;&gt;Node001</title>
<path fill="none" stroke="#002a99" d="M412.39,-1467.68C400.97,-1415.95 371.61,-1259.37 402.74,-1135.25 425.71,-1043.64 483.67,-949.36 522.03,-893.83"/>
<polygon fill="#002a99" stroke="#002a99" points="525.4,-896.12 528.25,-885.92 519.66,-892.12 525.4,-896.12"/>
<text text-anchor="middle" x="475.86" y="-1147.82" font-family="Times,serif" font-size="14.00" fill="#002a99">Включить станцию.</text>
</g>
<!-- Node009&#45;&gt;Node999 -->
<g id="edge39" class="edge">
<title>Node009&#45;&gt;Node999</title>
<path fill="none" stroke="#579900" d="M411.37,-1467.95C384.48,-1374.89 264.05,-922.78 351.74,-569.24 358.09,-543.62 361.07,-535.65 379.49,-516.74 390.87,-505.05 397.99,-507.92 411.49,-498.74 479.28,-452.64 552.49,-389.38 589,-356.81"/>
<polygon fill="#579900" stroke="#579900" points="590.94,-359.87 596.05,-350.59 586.27,-354.66 590.94,-359.87"/>
<text text-anchor="middle" x="373.86" y="-838.57" font-family="Times,serif" font-size="14.00" fill="#579900">&#45;уйти&#45;</text>
</g>
<!-- Node001&#45;&gt;Node999 -->
<g id="edge6" class="edge">
<title>Node001&#45;&gt;Node999</title>
<path fill="none" stroke="#994900" d="M546.64,-800.63C530.68,-738.24 506.68,-617.06 528.74,-516.74 541.81,-457.28 576.38,-394.09 596.78,-360.29"/>
<polygon fill="#994900" stroke="#994900" points="600.13,-362.52 602.38,-352.17 594.16,-358.86 600.13,-362.52"/>
<text text-anchor="middle" x="603.36" y="-537.94" font-family="Times,serif" font-size="14.00" fill="#994900">[Ух ты! Смотри, как</text>
<text text-anchor="middle" x="603.36" y="-520.69" font-family="Times,serif" font-size="14.00" fill="#994900">огонечки мигают!]</text>
</g>
<!-- Node001&#45;&gt;Node999 -->
<g id="edge10" class="edge">
<title>Node001&#45;&gt;Node999</title>
<path fill="none" stroke="#006999" d="M580.97,-801.4C609.79,-746.48 658.22,-644.88 676.49,-551.24 690.21,-480.9 651.4,-400.59 628.3,-360.72"/>
<polygon fill="#006999" stroke="#006999" points="630.93,-359.29 622.81,-352.49 624.91,-362.87 630.93,-359.29"/>
<text text-anchor="middle" x="728.61" y="-529.32" font-family="Times,serif" font-size="14.00" fill="#006999">Отключиться</text>
</g>
<!-- NodeGuess -->
<g id="node17" class="node">
<title>NodeGuess</title>
<ellipse fill="#ffffff" stroke="#000000" cx="375.49" cy="-334.52" rx="27" ry="18"/>
</g>
<!-- Node001&#45;&gt;NodeGuess -->
<g id="edge7" class="edge">
<title>Node001&#45;&gt;NodeGuess</title>
<path fill="none" stroke="#1d0099" d="M527.21,-801.63C487.67,-747.75 421.2,-648.14 391.49,-551.24 371.56,-486.26 371.81,-405.34 373.67,-363.49"/>
<polygon fill="#1d0099" stroke="#1d0099" points="377.2,-363.94 374.22,-353.77 370.21,-363.58 377.2,-363.94"/>
<text text-anchor="middle" x="455.99" y="-529.32" font-family="Times,serif" font-size="14.00" fill="#1d0099">::угадать пароль::</text>
</g>
<!-- Node002 -->
<g id="node18" class="node">
<title>Node002</title>
<ellipse fill="#ffffff" stroke="#000000" cx="1396.49" cy="-2560.75" rx="151.85" ry="54.45"/>
<text text-anchor="middle" x="1396.49" y="-2581.95" font-family="Times,serif" font-size="14.00">Найти данные:</text>
<text text-anchor="middle" x="1396.49" y="-2564.7" font-family="Times,serif" font-size="14.00">&#45;Ботаническая программа&#45;</text>
<text text-anchor="middle" x="1396.49" y="-2547.45" font-family="Times,serif" font-size="14.00">&#45;Генетическая программа&#45;</text>
<text text-anchor="middle" x="1396.49" y="-2530.2" font-family="Times,serif" font-size="14.00">&#45;Ксенопрограмма&#45;</text>
</g>
<!-- Node001&#45;&gt;Node002 -->
<g id="edge8" class="edge">
<title>Node001&#45;&gt;Node002</title>
<path fill="none" stroke="#109900" d="M612.62,-883.2C686.96,-940.31 817.67,-1054.57 872.49,-1187.75 979.49,-1447.73 854.64,-1542.02 897.99,-1819.8 921.75,-1972.06 971.06,-2381.84 1082.49,-2488.3 1106.47,-2511.22 1175.67,-2528.24 1243.03,-2539.91"/>
<polygon fill="#109900" stroke="#109900" points="1242.37,-2543.51 1252.82,-2541.73 1243.54,-2536.61 1242.37,-2543.51"/>
<text text-anchor="middle" x="990.74" y="-1806.5" font-family="Times,serif" font-size="14.00" fill="#109900">INTLVR&#45;Dnky&#45;Pnch&#45;98790</text>
</g>
<!-- Node001&#45;&gt;NodeHack -->
<g id="edge9" class="edge">
<title>Node001&#45;&gt;NodeHack</title>
<path fill="none" stroke="#99003d" d="M557.77,-885.97C553.51,-1138.5 532.37,-2452.84 553.49,-2488.3 615.08,-2591.77 760.33,-2642.11 827.84,-2660.57"/>
<polygon fill="#99003d" stroke="#99003d" points="826.8,-2664.18 837.36,-2663.36 828.59,-2657.41 826.8,-2664.18"/>
<text text-anchor="middle" x="631.36" y="-2082.73" font-family="Times,serif" font-size="14.00" fill="#99003d">::взломать компьютер::</text>
</g>
<!-- destroy_p_proc -->
<g id="node7" class="node">
<title>destroy_p_proc</title>
<ellipse fill="#ffffff" stroke="#000000" cx="476.49" cy="-2953.99" rx="27" ry="18"/>
</g>
<!-- look_at_p_proc -->
<g id="node8" class="node">
<title>look_at_p_proc</title>
<ellipse fill="#ffffff" stroke="#000000" cx="670.49" cy="-2953.99" rx="148.67" ry="66.64"/>
<text text-anchor="middle" x="670.49" y="-2983.81" font-family="Times,serif" font-size="14.00">Вы видите компьютерный</text>
<text text-anchor="middle" x="670.49" y="-2966.56" font-family="Times,serif" font-size="14.00">терминал.</text>
<text text-anchor="middle" x="670.49" y="-2949.31" font-family="Times,serif" font-size="14.00">&#45;&#45;&#45;</text>
<text text-anchor="middle" x="670.49" y="-2932.06" font-family="Times,serif" font-size="14.00">Вы видите биологическую</text>
<text text-anchor="middle" x="670.49" y="-2914.81" font-family="Times,serif" font-size="14.00">рабочую станцию.</text>
</g>
<!-- description_p_proc -->
<g id="node9" class="node">
<title>description_p_proc</title>
<ellipse fill="#ffffff" stroke="#000000" cx="983.49" cy="-2953.99" rx="146.55" ry="30.05"/>
<text text-anchor="middle" x="983.49" y="-2957.94" font-family="Times,serif" font-size="14.00">Вы видите работающий</text>
<text text-anchor="middle" x="983.49" y="-2940.69" font-family="Times,serif" font-size="14.00">компьютерный терминал.</text>
</g>
<!-- use_skill_on_p_proc -->
<g id="node10" class="node">
<title>use_skill_on_p_proc</title>
<ellipse fill="#ffffff" stroke="#000000" cx="1175.49" cy="-2953.99" rx="27" ry="18"/>
</g>
<!-- use_p_proc -->
<g id="node11" class="node">
<title>use_p_proc</title>
<ellipse fill="#ffffff" stroke="#000000" cx="1175.49" cy="-2795.9" rx="150.79" ry="30.05"/>
<text text-anchor="middle" x="1175.49" y="-2799.85" font-family="Times,serif" font-size="14.00">Компьютер не отвечает ни</text>
<text text-anchor="middle" x="1175.49" y="-2782.6" font-family="Times,serif" font-size="14.00">на какие команды.</text>
</g>
<!-- use_skill_on_p_proc&#45;&gt;use_p_proc -->
<g id="edge5" class="edge">
<title>use_skill_on_p_proc&#45;&gt;use_p_proc</title>
<path fill="none" stroke="#555555" stroke-dasharray="1,5" d="M1175.49,-2935.69C1175.49,-2912.04 1175.49,-2868.93 1175.49,-2837.01"/>
<polygon fill="#555555" stroke="#555555" points="1178.99,-2837.23 1175.49,-2827.23 1171.99,-2837.23 1178.99,-2837.23"/>
</g>
<!-- use_obj_on_p_proc -->
<g id="node12" class="node">
<title>use_obj_on_p_proc</title>
<ellipse fill="#ffffff" stroke="#000000" cx="1370.49" cy="-2953.99" rx="150.26" ry="30.05"/>
<text text-anchor="middle" x="1370.49" y="-2957.94" font-family="Times,serif" font-size="14.00">Вы не видите ничего, куда</text>
<text text-anchor="middle" x="1370.49" y="-2940.69" font-family="Times,serif" font-size="14.00">бы это деть.</text>
</g>
<!-- damage_p_proc -->
<g id="node13" class="node">
<title>damage_p_proc</title>
<ellipse fill="#ffffff" stroke="#000000" cx="1565.49" cy="-2953.99" rx="27" ry="18"/>
</g>
<!-- map_enter_p_proc -->
<g id="node14" class="node">
<title>map_enter_p_proc</title>
<ellipse fill="#ffffff" stroke="#000000" cx="1637.49" cy="-2953.99" rx="27" ry="18"/>
</g>
<!-- timed_event_p_proc -->
<g id="node15" class="node">
<title>timed_event_p_proc</title>
<ellipse fill="#ffffff" stroke="#000000" cx="1709.49" cy="-2953.99" rx="27" ry="18"/>
</g>
<!-- NodeGuess&#45;&gt;Node003 -->
<g id="edge45" class="edge">
<title>NodeGuess&#45;&gt;Node003</title>
<path fill="none" stroke="#555555" stroke-dasharray="1,5" d="M355.33,-346.87C313.67,-371.58 218.55,-434.64 177.49,-516.74 112.46,-646.75 145.49,-696.88 145.49,-842.24 145.49,-2671.2 145.49,-2671.2 145.49,-2671.2 145.49,-2690.32 145.49,-2711.1 145.49,-2730.07"/>
<polygon fill="#555555" stroke="#555555" points="141.99,-2730.01 145.49,-2740.01 148.99,-2730.01 141.99,-2730.01"/>
</g>
<!-- Node010 -->
<g id="node27" class="node">
<title>Node010</title>
<ellipse fill="#ffffff" stroke="#000000" cx="724.49" cy="-66.64" rx="152.91" ry="66.64"/>
<text text-anchor="middle" x="724.49" y="-96.47" font-family="Times,serif" font-size="14.00">[Неуклюже шлепая по</text>
<text text-anchor="middle" x="724.49" y="-79.22" font-family="Times,serif" font-size="14.00">клавишам, вы смогли</text>
<text text-anchor="middle" x="724.49" y="-61.97" font-family="Times,serif" font-size="14.00">случайно набрать</text>
<text text-anchor="middle" x="724.49" y="-44.72" font-family="Times,serif" font-size="14.00">правильный пароль... ваша</text>
<text text-anchor="middle" x="724.49" y="-27.47" font-family="Times,serif" font-size="14.00">удача просто невероятна!]</text>
</g>
<!-- NodeGuess&#45;&gt;Node010 -->
<g id="edge44" class="edge">
<title>NodeGuess&#45;&gt;Node010</title>
<path fill="none" stroke="#555555" stroke-dasharray="1,5" d="M391.57,-319.76C425.23,-291.12 505.86,-223.34 576.49,-170.29 594.62,-156.67 614.35,-142.53 633.33,-129.26"/>
<polygon fill="#555555" stroke="#555555" points="635.07,-131.61 641.28,-123.03 631.07,-125.87 635.07,-131.61"/>
</g>
<!-- Node002&#45;&gt;Node999 -->
<g id="edge16" class="edge">
<title>Node002&#45;&gt;Node999</title>
<path fill="none" stroke="#439900" d="M1256.59,-2539.17C1197.81,-2527.48 1138.8,-2510.65 1120.49,-2488.3 1023.76,-2370.25 1180.13,-1919.85 1082.49,-1802.55 1060.76,-1776.45 1031.16,-1809.6 1008.24,-1784.55 985.19,-1759.36 834.96,-602.04 825.49,-569.24 796.37,-468.4 691.95,-387.83 640.94,-353.49"/>
<polygon fill="#439900" stroke="#439900" points="643.05,-350.02 632.78,-347.43 639.19,-355.86 643.05,-350.02"/>
<text text-anchor="middle" x="1057.61" y="-1481.47" font-family="Times,serif" font-size="14.00" fill="#439900">Отключиться</text>
</g>
<!-- Node005 -->
<g id="node20" class="node">
<title>Node005</title>
<ellipse fill="#ffffff" stroke="#000000" cx="1566.49" cy="-2087.41" rx="157.68" ry="249.61"/>
<text text-anchor="middle" x="1566.49" y="-2246.61" font-family="Times,serif" font-size="14.00">(Примерно через двадцать</text>
<text text-anchor="middle" x="1566.49" y="-2229.36" font-family="Times,serif" font-size="14.00">минут вы обнаруживаете</text>
<text text-anchor="middle" x="1566.49" y="-2212.11" font-family="Times,serif" font-size="14.00">вот что: Первоначальные</text>
<text text-anchor="middle" x="1566.49" y="-2194.86" font-family="Times,serif" font-size="14.00">результаты эксперимента</text>
<text text-anchor="middle" x="1566.49" y="-2177.61" font-family="Times,serif" font-size="14.00">по выводу растений,</text>
<text text-anchor="middle" x="1566.49" y="-2160.36" font-family="Times,serif" font-size="14.00">поглощающих радиацию,</text>
<text text-anchor="middle" x="1566.49" y="-2143.11" font-family="Times,serif" font-size="14.00">малоутешительны. Доктор</text>
<text text-anchor="middle" x="1566.49" y="-2125.86" font-family="Times,serif" font-size="14.00">Шенг вывел устойчивую к</text>
<text text-anchor="middle" x="1566.49" y="-2108.61" font-family="Times,serif" font-size="14.00">радиации форму</text>
<text text-anchor="middle" x="1566.49" y="-2091.36" font-family="Times,serif" font-size="14.00">растительной жизни, но, к</text>
<text text-anchor="middle" x="1566.49" y="-2074.11" font-family="Times,serif" font-size="14.00">сожалению, возникли</text>
<text text-anchor="middle" x="1566.49" y="-2056.86" font-family="Times,serif" font-size="14.00">неприятные побочные</text>
<text text-anchor="middle" x="1566.49" y="-2039.61" font-family="Times,serif" font-size="14.00">эффекты. Как нам кажется,</text>
<text text-anchor="middle" x="1566.49" y="-2022.36" font-family="Times,serif" font-size="14.00">эта форма слишком опасна.</text>
<text text-anchor="middle" x="1566.49" y="-2005.11" font-family="Times,serif" font-size="14.00">Шенг настаивает на том,</text>
<text text-anchor="middle" x="1566.49" y="-1987.86" font-family="Times,serif" font-size="14.00">чтобы продолжать</text>
<text text-anchor="middle" x="1566.49" y="-1970.61" font-family="Times,serif" font-size="14.00">исследования в этом</text>
<text text-anchor="middle" x="1566.49" y="-1953.36" font-family="Times,serif" font-size="14.00">направлении и объединить</text>
<text text-anchor="middle" x="1566.49" y="-1936.11" font-family="Times,serif" font-size="14.00">усилия с генетической</text>
<text text-anchor="middle" x="1566.49" y="-1918.86" font-family="Times,serif" font-size="14.00">программой.)</text>
</g>
<!-- Node002&#45;&gt;Node005 -->
<g id="edge11" class="edge">
<title>Node002&#45;&gt;Node005</title>
<path fill="none" stroke="#969900" d="M1394.9,-2505.94C1395.15,-2463.93 1398.76,-2404.57 1414.24,-2355.01 1422.98,-2327.02 1434.99,-2298.75 1448.47,-2271.61"/>
<polygon fill="#969900" stroke="#969900" points="1451.91,-2273.56 1453.3,-2263.06 1445.66,-2270.41 1451.91,-2273.56"/>
<text text-anchor="middle" x="1510.61" y="-2416.98" font-family="Times,serif" font-size="14.00" fill="#969900">Ботаническая программа.</text>
</g>
<!-- Node006 -->
<g id="node21" class="node">
<title>Node006</title>
<ellipse fill="#ffffff" stroke="#000000" cx="2148.49" cy="-1486.15" rx="161.4" ry="298.4"/>
<text text-anchor="middle" x="2148.49" y="-1679.85" font-family="Times,serif" font-size="14.00">(Примерно через двадцать</text>
<text text-anchor="middle" x="2148.49" y="-1662.6" font-family="Times,serif" font-size="14.00">минут вы обнаруживаете</text>
<text text-anchor="middle" x="2148.49" y="-1645.35" font-family="Times,serif" font-size="14.00">вот что: взяв за основу</text>
<text text-anchor="middle" x="2148.49" y="-1628.1" font-family="Times,serif" font-size="14.00">вирус ВРЭ, доктор Лонг</text>
<text text-anchor="middle" x="2148.49" y="-1610.85" font-family="Times,serif" font-size="14.00">Ванг добился, как ему</text>
<text text-anchor="middle" x="2148.49" y="-1593.6" font-family="Times,serif" font-size="14.00">казалось, успеха в</text>
<text text-anchor="middle" x="2148.49" y="-1576.35" font-family="Times,serif" font-size="14.00">выведении</text>
<text text-anchor="middle" x="2148.49" y="-1559.1" font-family="Times,serif" font-size="14.00">солдат&#45;мутантов. Он</text>
<text text-anchor="middle" x="2148.49" y="-1541.85" font-family="Times,serif" font-size="14.00">создал сыворотку,</text>
<text text-anchor="middle" x="2148.49" y="-1524.6" font-family="Times,serif" font-size="14.00">показавшую интересные</text>
<text text-anchor="middle" x="2148.49" y="-1507.35" font-family="Times,serif" font-size="14.00">результаты в</text>
<text text-anchor="middle" x="2148.49" y="-1490.1" font-family="Times,serif" font-size="14.00">экспериментах на</text>
<text text-anchor="middle" x="2148.49" y="-1472.85" font-family="Times,serif" font-size="14.00">грызунах. Он ввел эту</text>
<text text-anchor="middle" x="2148.49" y="-1455.6" font-family="Times,serif" font-size="14.00">сыворотку себе и растекся</text>
<text text-anchor="middle" x="2148.49" y="-1438.35" font-family="Times,serif" font-size="14.00">липкой лужей. Доктор Шенг</text>
<text text-anchor="middle" x="2148.49" y="-1421.1" font-family="Times,serif" font-size="14.00">прекратил разработки в</text>
<text text-anchor="middle" x="2148.49" y="-1403.85" font-family="Times,serif" font-size="14.00">этом направлении. После</text>
<text text-anchor="middle" x="2148.49" y="-1386.6" font-family="Times,serif" font-size="14.00">смерти доктора Лонга</text>
<text text-anchor="middle" x="2148.49" y="-1369.35" font-family="Times,serif" font-size="14.00">ответственным за</text>
<text text-anchor="middle" x="2148.49" y="-1352.1" font-family="Times,serif" font-size="14.00">исследования стал доктор</text>
<text text-anchor="middle" x="2148.49" y="-1334.85" font-family="Times,serif" font-size="14.00">Шенг. Он требует</text>
<text text-anchor="middle" x="2148.49" y="-1317.6" font-family="Times,serif" font-size="14.00">направить все усилия на</text>
<text text-anchor="middle" x="2148.49" y="-1300.35" font-family="Times,serif" font-size="14.00">выведение растений,</text>
<text text-anchor="middle" x="2148.49" y="-1283.1" font-family="Times,serif" font-size="14.00">поглощающих радиацию).</text>
</g>
<!-- Node002&#45;&gt;Node006 -->
<g id="edge12" class="edge">
<title>Node002&#45;&gt;Node006</title>
<path fill="none" stroke="#6f0099" d="M1547.18,-2553.33C1730.64,-2544.02 2020.49,-2523.84 2055.49,-2488.3 2061.68,-2482.02 2097.15,-2084.29 2122.44,-1792.1"/>
<polygon fill="#6f0099" stroke="#6f0099" points="2126,-1792.58 2123.37,-1782.32 2119.03,-1791.98 2126,-1792.58"/>
<text text-anchor="middle" x="2212.86" y="-2082.73" font-family="Times,serif" font-size="14.00" fill="#6f0099">Генетическая программа.</text>
</g>
<!-- Node007 -->
<g id="node22" class="node">
<title>Node007</title>
<ellipse fill="#ffffff" stroke="#000000" cx="1988.49" cy="-334.52" rx="150.79" ry="164.23"/>
<text text-anchor="middle" x="1988.49" y="-433.34" font-family="Times,serif" font-size="14.00">&quot;Объект, на котором мы</text>
<text text-anchor="middle" x="1988.49" y="-416.09" font-family="Times,serif" font-size="14.00">надеялись провести серию</text>
<text text-anchor="middle" x="1988.49" y="-398.84" font-family="Times,serif" font-size="14.00">важных экспериментов,</text>
<text text-anchor="middle" x="1988.49" y="-381.59" font-family="Times,serif" font-size="14.00">исчез, предположительно</text>
<text text-anchor="middle" x="1988.49" y="-364.34" font-family="Times,serif" font-size="14.00">уничтожен или украден</text>
<text text-anchor="middle" x="1988.49" y="-347.09" font-family="Times,serif" font-size="14.00">хабологами. Дальнейшие</text>
<text text-anchor="middle" x="1988.49" y="-329.84" font-family="Times,serif" font-size="14.00">исследования</text>
<text text-anchor="middle" x="1988.49" y="-312.59" font-family="Times,serif" font-size="14.00">продемонстрировали свою</text>
<text text-anchor="middle" x="1988.49" y="-295.34" font-family="Times,serif" font-size="14.00">бесперспективность. Пока</text>
<text text-anchor="middle" x="1988.49" y="-278.09" font-family="Times,serif" font-size="14.00">у нас не появятся новые</text>
<text text-anchor="middle" x="1988.49" y="-260.84" font-family="Times,serif" font-size="14.00">экземпляры, эта база</text>
<text text-anchor="middle" x="1988.49" y="-243.59" font-family="Times,serif" font-size="14.00">данных будет неактивна.&quot;</text>
<text text-anchor="middle" x="1988.49" y="-226.34" font-family="Times,serif" font-size="14.00">&#45; Доктор Шенг.</text>
</g>
<!-- Node002&#45;&gt;Node007 -->
<g id="edge13" class="edge">
<title>Node002&#45;&gt;Node007</title>
<path fill="none" stroke="#009943" d="M1548.72,-2559.74C1827.14,-2558.26 2396.05,-2547.88 2462.49,-2488.3 2596.88,-2367.79 2533.49,-2268.92 2533.49,-2088.41 2533.49,-2088.41 2533.49,-2088.41 2533.49,-842.24 2533.49,-694.17 2559.03,-629.01 2462.49,-516.74 2383.7,-425.11 2253.27,-379.65 2149.15,-357.18"/>
<polygon fill="#009943" stroke="#009943" points="2150.02,-353.58 2139.52,-354.95 2148.58,-360.43 2150.02,-353.58"/>
<text text-anchor="middle" x="2598.36" y="-1481.47" font-family="Times,serif" font-size="14.00" fill="#009943">Ксенопрограмма.</text>
</g>
<!-- Node008 -->
<g id="node23" class="node">
<title>Node008</title>
<ellipse fill="#ffffff" stroke="#000000" cx="1752.49" cy="-843.24" rx="156.09" ry="274"/>
<text text-anchor="middle" x="1752.49" y="-1019.69" font-family="Times,serif" font-size="14.00">Доктор Вонг: Новый</text>
<text text-anchor="middle" x="1752.49" y="-1002.44" font-family="Times,serif" font-size="14.00">руководитель</text>
<text text-anchor="middle" x="1752.49" y="-985.19" font-family="Times,serif" font-size="14.00">биологического проекта, в</text>
<text text-anchor="middle" x="1752.49" y="-967.94" font-family="Times,serif" font-size="14.00">дополнение к физическим</text>
<text text-anchor="middle" x="1752.49" y="-950.69" font-family="Times,serif" font-size="14.00">исследованиям. Доктор</text>
<text text-anchor="middle" x="1752.49" y="-933.44" font-family="Times,serif" font-size="14.00">Шенг: руководил</text>
<text text-anchor="middle" x="1752.49" y="-916.19" font-family="Times,serif" font-size="14.00">биологическим проектом,</text>
<text text-anchor="middle" x="1752.49" y="-898.94" font-family="Times,serif" font-size="14.00">которого доктор Вонг два</text>
<text text-anchor="middle" x="1752.49" y="-881.69" font-family="Times,serif" font-size="14.00">месяца назад сменил на</text>
<text text-anchor="middle" x="1752.49" y="-864.44" font-family="Times,serif" font-size="14.00">этом посту. На месяц</text>
<text text-anchor="middle" x="1752.49" y="-847.19" font-family="Times,serif" font-size="14.00">отправился в творческий</text>
<text text-anchor="middle" x="1752.49" y="-829.94" font-family="Times,serif" font-size="14.00">отпуск по работе над</text>
<text text-anchor="middle" x="1752.49" y="-812.69" font-family="Times,serif" font-size="14.00">новой &quot;ботаническую</text>
<text text-anchor="middle" x="1752.49" y="-795.44" font-family="Times,serif" font-size="14.00">сывороткой</text>
<text text-anchor="middle" x="1752.49" y="-778.19" font-family="Times,serif" font-size="14.00">чувствительности&quot;, из</text>
<text text-anchor="middle" x="1752.49" y="-760.94" font-family="Times,serif" font-size="14.00">отпуска не вернулся,</text>
<text text-anchor="middle" x="1752.49" y="-743.69" font-family="Times,serif" font-size="14.00">причина отсутствия</text>
<text text-anchor="middle" x="1752.49" y="-726.44" font-family="Times,serif" font-size="14.00">неизвестна. Руководителем</text>
<text text-anchor="middle" x="1752.49" y="-709.19" font-family="Times,serif" font-size="14.00">биологической программы</text>
<text text-anchor="middle" x="1752.49" y="-691.94" font-family="Times,serif" font-size="14.00">стал доктор Вонг. Доктор</text>
<text text-anchor="middle" x="1752.49" y="-674.69" font-family="Times,serif" font-size="14.00">Лонг: недавно погиб от</text>
<text text-anchor="middle" x="1752.49" y="-657.44" font-family="Times,serif" font-size="14.00">ВРЭ&#45;сыворотки.</text>
</g>
<!-- Node002&#45;&gt;Node008 -->
<g id="edge14" class="edge">
<title>Node002&#45;&gt;Node008</title>
<path fill="none" stroke="#991600" d="M1394.82,-2505.92C1394.68,-2499.97 1394.57,-2494.01 1394.49,-2488.3 1393.66,-2429.07 1394.2,-2414.25 1394.49,-2355.01 1397.01,-1832.3 1359.1,-1678.72 1538.49,-1187.75 1559.47,-1130.32 1590.92,-1072.24 1623.29,-1020.59"/>
<polygon fill="#991600" stroke="#991600" points="1626.74,-1022.67 1629.13,-1012.35 1620.83,-1018.93 1626.74,-1022.67"/>
<text text-anchor="middle" x="1461.36" y="-1806.5" font-family="Times,serif" font-size="14.00" fill="#991600">Данные о кадрах.</text>
</g>
<!-- Node009a -->
<g id="node24" class="node">
<title>Node009a</title>
<ellipse fill="#ffffff" stroke="#000000" cx="756.49" cy="-2087.41" rx="27" ry="18"/>
</g>
<!-- Node002&#45;&gt;Node009a -->
<g id="edge15" class="edge">
<title>Node002&#45;&gt;Node009a</title>
<path fill="none" stroke="#001799" d="M1244.85,-2557.51C1018.49,-2552.57 613.88,-2536.97 569.24,-2488.3 549.21,-2466.48 549.61,-2377.2 569.24,-2355.01 612.63,-2305.96 668.24,-2382.36 715.49,-2337.01 776.07,-2278.86 768.85,-2168.11 761.44,-2116.36"/>
<polygon fill="#001799" stroke="#001799" points="764.78,-2116.03 759.79,-2106.68 757.86,-2117.1 764.78,-2116.03"/>
<text text-anchor="middle" x="644.11" y="-2425.61" font-family="Times,serif" font-size="14.00" fill="#001799">Отключить рабочую</text>
<text text-anchor="middle" x="644.11" y="-2408.36" font-family="Times,serif" font-size="14.00" fill="#001799">станцию.</text>
</g>
<!-- NodeHack&#45;&gt;Node002 -->
<g id="edge41" class="edge">
<title>NodeHack&#45;&gt;Node002</title>
<path fill="none" stroke="#555555" stroke-dasharray="1,5" d="M888.88,-2663.42C953.35,-2649.74 1126.68,-2614.61 1252.93,-2589.48"/>
<polygon fill="#555555" stroke="#555555" points="1253.34,-2592.77 1262.46,-2587.39 1251.97,-2585.91 1253.34,-2592.77"/>
</g>
<!-- NodeHack&#45;&gt;Node002 -->
<g id="edge42" class="edge">
<title>NodeHack&#45;&gt;Node002</title>
<path fill="none" stroke="#555555" stroke-dasharray="1,5" d="M889.34,-2664.58C954.7,-2652.13 1129.75,-2617.05 1255.93,-2591.32"/>
<polygon fill="#555555" stroke="#555555" points="1256.35,-2594.6 1265.45,-2589.17 1254.95,-2587.74 1256.35,-2594.6"/>
</g>
<!-- Node004 -->
<g id="node25" class="node">
<title>Node004</title>
<ellipse fill="#ffffff" stroke="#000000" cx="863.49" cy="-2421.66" rx="136.47" ry="66.64"/>
<text text-anchor="middle" x="863.49" y="-2451.48" font-family="Times,serif" font-size="14.00">Тревога: попытка</text>
<text text-anchor="middle" x="863.49" y="-2434.23" font-family="Times,serif" font-size="14.00">несанкционированного</text>
<text text-anchor="middle" x="863.49" y="-2416.98" font-family="Times,serif" font-size="14.00">доступа. Система</text>
<text text-anchor="middle" x="863.49" y="-2399.73" font-family="Times,serif" font-size="14.00">завершает свою работу.</text>
<text text-anchor="middle" x="863.49" y="-2382.48" font-family="Times,serif" font-size="14.00">Хорошего вам дня.</text>
</g>
<!-- NodeHack&#45;&gt;Node004 -->
<g id="edge43" class="edge">
<title>NodeHack&#45;&gt;Node004</title>
<path fill="none" stroke="#555555" stroke-dasharray="1,5" d="M863.49,-2651.86C863.49,-2620.64 863.49,-2553.2 863.49,-2499.52"/>
<polygon fill="#555555" stroke="#555555" points="866.99,-2499.64 863.49,-2489.64 859.99,-2499.64 866.99,-2499.64"/>
</g>
<!-- Node005&#45;&gt;Node002 -->
<g id="edge24" class="edge">
<title>Node005&#45;&gt;Node002</title>
<path fill="none" stroke="#004a99" d="M1642.31,-2306.78C1651.04,-2370.18 1645.85,-2436.28 1608.49,-2488.3 1593.15,-2509.65 1571.11,-2524.71 1546.98,-2535.3"/>
<polygon fill="#004a99" stroke="#004a99" points="1545.82,-2532.4 1537.9,-2539.43 1548.48,-2538.88 1545.82,-2532.4"/>
<text text-anchor="middle" x="1669.86" y="-2416.98" font-family="Times,serif" font-size="14.00" fill="#004a99">Назад.</text>
</g>
<!-- Node005&#45;&gt;Node006 -->
<g id="edge21" class="edge">
<title>Node005&#45;&gt;Node006</title>
<path fill="none" stroke="#3c0099" d="M1693.86,-1939.28C1750.81,-1875.07 1809.1,-1812.1 1826.74,-1802.55 1869.82,-1779.21 1893.89,-1810.43 1935.49,-1784.55 1969.52,-1763.37 1999.71,-1734.56 2025.9,-1703.17"/>
<polygon fill="#3c0099" stroke="#3c0099" points="2029.2,-1705.65 2032.82,-1695.69 2023.78,-1701.22 2029.2,-1705.65"/>
<text text-anchor="middle" x="1922.86" y="-1806.5" font-family="Times,serif" font-size="14.00" fill="#3c0099">Генетическая программа.</text>
</g>
<!-- Node005&#45;&gt;Node007 -->
<g id="edge22" class="edge">
<title>Node005&#45;&gt;Node007</title>
<path fill="none" stroke="#009910" d="M1443.89,-1929.81C1422.88,-1895.32 1404.11,-1857.71 1392.49,-1819.8 1310.82,-1553.33 1316.72,-789.5 1487.49,-569.24 1571.25,-461.21 1716.88,-401.04 1829.62,-368.91"/>
<polygon fill="#009910" stroke="#009910" points="1830.39,-372.05 1839.08,-365.99 1828.5,-365.31 1830.39,-372.05"/>
<text text-anchor="middle" x="1411.36" y="-1147.82" font-family="Times,serif" font-size="14.00" fill="#009910">Ксенопрограмма.</text>
</g>
<!-- Node005&#45;&gt;Node008 -->
<g id="edge23" class="edge">
<title>Node005&#45;&gt;Node008</title>
<path fill="none" stroke="#99001d" d="M1552.21,-1838.54C1541.89,-1615.79 1534.48,-1306.07 1564.74,-1187.75 1578.42,-1134.24 1602.33,-1080.09 1628.6,-1031.1"/>
<polygon fill="#99001d" stroke="#99001d" points="1632.01,-1033.15 1633.71,-1022.69 1625.86,-1029.81 1632.01,-1033.15"/>
<text text-anchor="middle" x="1639.86" y="-1490.1" font-family="Times,serif" font-size="14.00" fill="#99001d">Последние данные о</text>
<text text-anchor="middle" x="1639.86" y="-1472.85" font-family="Times,serif" font-size="14.00" fill="#99001d">кадрах.</text>
</g>
<!-- doAdvance -->
<g id="node26" class="node">
<title>doAdvance</title>
<ellipse fill="#ffffff" stroke="#000000" cx="1523.49" cy="-843.24" rx="27" ry="18"/>
</g>
<!-- Node005&#45;&gt;doAdvance -->
<g id="edge20" class="edge">
<title>Node005&#45;&gt;doAdvance</title>
<path fill="none" stroke="#555555" stroke-dasharray="1,5" d="M1533.32,-1843.23C1531.39,-1823.4 1529.74,-1803.65 1528.49,-1784.55 1504.99,-1425.04 1518.29,-986.57 1522.41,-872.46"/>
<polygon fill="#555555" stroke="#555555" points="1525.94,-872.7 1522.81,-862.58 1518.94,-872.44 1525.94,-872.7"/>
</g>
<!-- Node006&#45;&gt;Node002 -->
<g id="edge29" class="edge">
<title>Node006&#45;&gt;Node002</title>
<path fill="none" stroke="#993600" d="M2262.96,-1696.97C2344.34,-1876.73 2421.61,-2137.43 2312.49,-2337.01 2252.72,-2446.33 2194.05,-2447.06 2076.49,-2488.3 1983.96,-2520.76 1727.66,-2541.08 1557.5,-2551.41"/>
<polygon fill="#993600" stroke="#993600" points="1557.45,-2547.97 1547.67,-2552.06 1557.87,-2554.96 1557.45,-2547.97"/>
<text text-anchor="middle" x="2389.86" y="-2082.73" font-family="Times,serif" font-size="14.00" fill="#993600">Назад.</text>
</g>
<!-- Node006&#45;&gt;Node005 -->
<g id="edge26" class="edge">
<title>Node006&#45;&gt;Node005</title>
<path fill="none" stroke="#769900" d="M2034.75,-1698C2006.84,-1732.36 1973.76,-1763.54 1935.49,-1784.55 1903.47,-1802.12 1634.17,-1777.88 1607.24,-1802.55 1598.61,-1810.45 1591.23,-1819.29 1584.93,-1828.83"/>
<polygon fill="#769900" stroke="#769900" points="1581.44,-1826.82 1579.21,-1837.18 1587.41,-1830.47 1581.44,-1826.82"/>
<text text-anchor="middle" x="1703.61" y="-1806.5" font-family="Times,serif" font-size="14.00" fill="#769900">Ботаническая программа.</text>
</g>
<!-- Node006&#45;&gt;Node007 -->
<g id="edge27" class="edge">
<title>Node006&#45;&gt;Node007</title>
<path fill="none" stroke="#8f0099" d="M2183.84,-1194.82C2184.45,-1186.38 2185,-1178 2185.49,-1169.75 2186.38,-1154.44 2195.41,-1146.94 2185.49,-1135.25 2153.49,-1097.57 2108.8,-1154 2075.74,-1117.25 1896.95,-918.51 2086.91,-780.18 2041.49,-516.74 2040.61,-511.66 2039.64,-506.52 2038.6,-501.34"/>
<polygon fill="#8f0099" stroke="#8f0099" points="2041.83,-500.74 2036.34,-491.68 2034.99,-502.18 2041.83,-500.74"/>
<text text-anchor="middle" x="2140.36" y="-838.57" font-family="Times,serif" font-size="14.00" fill="#8f0099">Ксенопрограмма.</text>
</g>
<!-- Node006&#45;&gt;Node008 -->
<g id="edge28" class="edge">
<title>Node006&#45;&gt;Node008</title>
<path fill="none" stroke="#009962" d="M2045.27,-1256.35C2024.89,-1229.77 2001.08,-1205.76 1973.49,-1187.75 1916.62,-1150.61 1871.91,-1215.53 1821.74,-1169.75 1811.23,-1160.17 1802.21,-1142.24 1794.48,-1119.52"/>
<polygon fill="#009962" stroke="#009962" points="1797.54,-1118.58 1791.14,-1110.14 1790.87,-1120.73 1797.54,-1118.58"/>
<text text-anchor="middle" x="1896.86" y="-1156.45" font-family="Times,serif" font-size="14.00" fill="#009962">Последние данные о</text>
<text text-anchor="middle" x="1896.86" y="-1139.2" font-family="Times,serif" font-size="14.00" fill="#009962">кадрах.</text>
</g>
<!-- Node006&#45;&gt;doAdvance -->
<g id="edge25" class="edge">
<title>Node006&#45;&gt;doAdvance</title>
<path fill="none" stroke="#555555" stroke-dasharray="1,5" d="M2033.38,-1276.69C2005.59,-1242.11 1972.9,-1210.25 1935.49,-1187.75 1883.99,-1156.78 1860.53,-1180.92 1801.49,-1169.75 1705.26,-1151.54 1656.38,-1186.85 1587.49,-1117.25 1520.83,-1049.9 1518.54,-927.13 1521.27,-872.16"/>
<polygon fill="#555555" stroke="#555555" points="1524.8,-872.69 1521.91,-862.5 1517.81,-872.28 1524.8,-872.69"/>
</g>
<!-- Node007&#45;&gt;Node002 -->
<g id="edge33" class="edge">
<title>Node007&#45;&gt;Node002</title>
<path fill="none" stroke="#007d99" d="M2135.39,-373.31C2235.34,-407.23 2361.09,-467.71 2427.49,-569.24 2494.09,-671.09 2448.49,-720.55 2448.49,-842.24 2448.49,-2088.41 2448.49,-2088.41 2448.49,-2088.41 2448.49,-2199.7 2475.7,-2241.55 2418.49,-2337.01 2358.23,-2437.55 2312.6,-2448.15 2202.49,-2488.3 2088.2,-2529.98 1759.66,-2547.97 1559.07,-2555.24"/>
<polygon fill="#007d99" stroke="#007d99" points="1559,-2551.78 1549.13,-2555.63 1559.25,-2558.77 1559,-2551.78"/>
<text text-anchor="middle" x="2472.86" y="-1481.47" font-family="Times,serif" font-size="14.00" fill="#007d99">Назад.</text>
</g>
<!-- Node007&#45;&gt;Node005 -->
<g id="edge30" class="edge">
<title>Node007&#45;&gt;Node005</title>
<path fill="none" stroke="#090099" d="M1838.34,-352.96C1693.79,-377.38 1478.14,-435.02 1345.49,-569.24 1158.12,-758.82 1191.93,-872.48 1147.24,-1135.25 1096.57,-1433.18 1291.6,-1748.35 1432.56,-1930.71"/>
<polygon fill="#090099" stroke="#090099" points="1430.33,-1932.55 1439.23,-1938.29 1435.86,-1928.25 1430.33,-1932.55"/>
<text text-anchor="middle" x="1244.61" y="-1147.82" font-family="Times,serif" font-size="14.00" fill="#090099">Ботаническая программа.</text>
</g>
<!-- Node007&#45;&gt;Node006 -->
<g id="edge31" class="edge">
<title>Node007&#45;&gt;Node006</title>
<path fill="none" stroke="#249900" d="M2109.76,-432.98C2147.9,-471 2185.3,-517.83 2205.49,-569.24 2248.85,-679.68 2229.49,-939.96 2201.49,-1169.75 2200.64,-1176.7 2199.75,-1183.74 2198.82,-1190.83"/>
<polygon fill="#249900" stroke="#249900" points="2195.23,-1190.25 2197.37,-1200.63 2202.17,-1191.18 2195.23,-1190.25"/>
<text text-anchor="middle" x="2326.86" y="-838.57" font-family="Times,serif" font-size="14.00" fill="#249900">Генетическая программа.</text>
</g>
<!-- Node007&#45;&gt;Node008 -->
<g id="edge32" class="edge">
<title>Node007&#45;&gt;Node008</title>
<path fill="none" stroke="#990050" d="M1851.49,-403.87C1809.02,-432.49 1767.23,-470.11 1743.74,-516.74 1736.33,-531.44 1730.72,-547.01 1726.6,-563.06"/>
<polygon fill="#990050" stroke="#990050" points="1722.98,-562.14 1724.1,-572.67 1729.8,-563.74 1722.98,-562.14"/>
<text text-anchor="middle" x="1818.86" y="-537.94" font-family="Times,serif" font-size="14.00" fill="#990050">Последние данные о</text>
<text text-anchor="middle" x="1818.86" y="-520.69" font-family="Times,serif" font-size="14.00" fill="#990050">кадрах.</text>
</g>
<!-- Node008&#45;&gt;Node002 -->
<g id="edge37" class="edge">
<title>Node008&#45;&gt;Node002</title>
<path fill="none" stroke="#990300" d="M1760.3,-1117.26C1769.24,-1136.67 1781.06,-1154.53 1796.49,-1169.75 1843.99,-1216.58 1899.88,-1139.07 1945.49,-1187.75 1990.9,-1236.21 1940.65,-1729.97 1978.49,-1784.55 1989.83,-1800.9 2008.61,-1785.88 2019.49,-1802.55 2023.68,-1808.97 2021.19,-1812.32 2019.49,-1819.8 1946.33,-2141.17 1955.24,-2281.64 1698.49,-2488.3 1674.09,-2507.94 1609.55,-2524.48 1546.37,-2536.69"/>
<polygon fill="#990300" stroke="#990300" points="1546.01,-2533.38 1536.83,-2538.68 1547.31,-2540.26 1546.01,-2533.38"/>
<text text-anchor="middle" x="2045.86" y="-1806.5" font-family="Times,serif" font-size="14.00" fill="#990300">Назад.</text>
</g>
<!-- Node008&#45;&gt;Node005 -->
<g id="edge34" class="edge">
<title>Node008&#45;&gt;Node005</title>
<path fill="none" stroke="#998800" d="M1750.2,-1117.51C1746.67,-1386.24 1737.76,-1759.86 1715.49,-1784.55 1677.59,-1826.54 1628.25,-1761.34 1589.49,-1802.55 1582.13,-1810.36 1575.86,-1818.9 1570.54,-1827.97"/>
<polygon fill="#998800" stroke="#998800" points="1567,-1826.15 1565.33,-1836.61 1573.16,-1829.47 1567,-1826.15"/>
<text text-anchor="middle" x="1845.61" y="-1481.47" font-family="Times,serif" font-size="14.00" fill="#998800">Ботаническая программа.</text>
</g>
<!-- Node008&#45;&gt;Node006 -->
<g id="edge35" class="edge">
<title>Node008&#45;&gt;Node006</title>
<path fill="none" stroke="#5c0099" d="M1880.05,-1002.17C1911.82,-1044.34 1944.71,-1090.62 1972.49,-1135.25 1995.19,-1171.73 2017.41,-1211.51 2037.99,-1250.75"/>
<polygon fill="#5c0099" stroke="#5c0099" points="2035.18,-1251.93 2042.91,-1259.18 2041.39,-1248.69 2035.18,-1251.93"/>
<text text-anchor="middle" x="2084.86" y="-1147.82" font-family="Times,serif" font-size="14.00" fill="#5c0099">Генетическая программа.</text>
</g>
<!-- Node008&#45;&gt;Node007 -->
<g id="edge36" class="edge">
<title>Node008&#45;&gt;Node007</title>
<path fill="none" stroke="#00992f" d="M1854.62,-635.71C1868.22,-607.42 1881.82,-578.67 1894.49,-551.24 1903.06,-532.68 1911.87,-513.13 1920.5,-493.69"/>
<polygon fill="#00992f" stroke="#00992f" points="1924.01,-495.41 1924.85,-484.85 1917.6,-492.58 1924.01,-495.41"/>
<text text-anchor="middle" x="1972.36" y="-529.32" font-family="Times,serif" font-size="14.00" fill="#00992f">Ксенопрограмма.</text>
</g>
<!-- Node009a&#45;&gt;Node009 -->
<g id="edge46" class="edge">
<title>Node009a&#45;&gt;Node009</title>
<path fill="none" stroke="#555555" stroke-dasharray="1,5" d="M756.75,-2069.21C756.75,-2027.47 752.89,-1918.34 715.49,-1837.8 648.87,-1694.34 506.82,-1563.33 445.58,-1511.1"/>
<polygon fill="#555555" stroke="#555555" points="448.39,-1508.05 438.49,-1504.26 443.87,-1513.39 448.39,-1508.05"/>
</g>
<!-- Node004&#45;&gt;Node999 -->
<g id="edge19" class="edge">
<title>Node004&#45;&gt;Node999</title>
<path fill="none" stroke="#996900" d="M854.19,-2355.08C839.23,-2243.73 811.49,-2010.44 811.49,-1812.17 811.49,-1812.17 811.49,-1812.17 811.49,-842.24 811.49,-696.96 840.89,-649.32 781.49,-516.74 749.65,-445.68 678.36,-384.52 639.31,-354.77"/>
<polygon fill="#996900" stroke="#996900" points="641.68,-351.43 631.58,-348.24 637.49,-357.03 641.68,-351.43"/>
<text text-anchor="middle" x="839.99" y="-1481.47" font-family="Times,serif" font-size="14.00" fill="#996900">&#45;готово&#45;</text>
</g>
<!-- Node010&#45;&gt;Node002 -->
<g id="edge40" class="edge">
<title>Node010&#45;&gt;Node002</title>
<path fill="none" stroke="#990083" d="M744.62,-132.95C817.42,-369.03 1062.99,-1164.62 1067.49,-1169.75 1080.08,-1184.1 1095.81,-1171.92 1106.49,-1187.75 1143.61,-1242.79 1123.17,-1719.31 1135.49,-1784.55 1187.11,-2057.9 1312.56,-2366.83 1368.62,-2496.83"/>
<polygon fill="#990083" stroke="#990083" points="1365.67,-2497.83 1372.86,-2505.62 1372.1,-2495.05 1365.67,-2497.83"/>
<text text-anchor="middle" x="1103.49" y="-1147.82" font-family="Times,serif" font-size="14.00" fill="#990083">&#45; дальше &#45;</text>
</g>
</g>
</svg>
