<?xml version="1.0" encoding="UTF-8" standalone="no"?>
<!DOCTYPE svg PUBLIC "-//W3C//DTD SVG 1.1//EN"
 "http://www.w3.org/Graphics/SVG/1.1/DTD/svg11.dtd">
<!-- Generated by graphviz version 8.0.5 (0)
 -->
<!-- Title: hcguard2 Pages: 1 -->
<svg width="2799pt" height="1506pt"
 viewBox="0.00 0.00 2799.00 1506.13" xmlns="http://www.w3.org/2000/svg" xmlns:xlink="http://www.w3.org/1999/xlink">
<g id="graph0" class="graph" transform="scale(1 1) rotate(0) translate(4 1502.13)">
<title>hcguard2</title>
<polygon fill="white" stroke="none" points="-4,4 -4,-1502.13 2795,-1502.13 2795,4 -4,4"/>
<!-- start -->
<g id="node1" class="node">
<title>start</title>
<ellipse fill="#ffffff" stroke="#000000" cx="27" cy="-1394.9" rx="27" ry="18"/>
</g>
<!-- use_p_proc -->
<g id="node2" class="node">
<title>use_p_proc</title>
<ellipse fill="#ffffff" stroke="#000000" cx="99" cy="-1394.9" rx="27" ry="18"/>
</g>
<!-- look_at_p_proc -->
<g id="node3" class="node">
<title>look_at_p_proc</title>
<ellipse fill="#ffffff" stroke="#000000" cx="264" cy="-1394.9" rx="119.5" ry="30.05"/>
<text text-anchor="middle" x="264" y="-1398.85" font-family="Times,serif" font-size="14.00">Вы видите усталого</text>
<text text-anchor="middle" x="264" y="-1381.6" font-family="Times,serif" font-size="14.00">охранника&#45;хаболога.</text>
</g>
<!-- description_p_proc -->
<g id="node4" class="node">
<title>description_p_proc</title>
<ellipse fill="#ffffff" stroke="#000000" cx="530" cy="-1394.9" rx="128.55" ry="18"/>
<text text-anchor="middle" x="530" y="-1390.22" font-family="Times,serif" font-size="14.00">Он помирает от скуки.</text>
</g>
<!-- use_skill_on_p_proc -->
<g id="node5" class="node">
<title>use_skill_on_p_proc</title>
<ellipse fill="#ffffff" stroke="#000000" cx="704" cy="-1394.9" rx="27" ry="18"/>
</g>
<!-- use_obj_on_p_proc -->
<g id="node6" class="node">
<title>use_obj_on_p_proc</title>
<ellipse fill="#ffffff" stroke="#000000" cx="776" cy="-1394.9" rx="27" ry="18"/>
</g>
<!-- damage_p_proc -->
<g id="node7" class="node">
<title>damage_p_proc</title>
<ellipse fill="#ffffff" stroke="#000000" cx="848" cy="-1394.9" rx="27" ry="18"/>
</g>
<!-- destroy_p_proc -->
<g id="node8" class="node">
<title>destroy_p_proc</title>
<ellipse fill="#ffffff" stroke="#000000" cx="920" cy="-1394.9" rx="27" ry="18"/>
</g>
<!-- map_enter_p_proc -->
<g id="node9" class="node">
<title>map_enter_p_proc</title>
<ellipse fill="#ffffff" stroke="#000000" cx="992" cy="-1394.9" rx="27" ry="18"/>
</g>
<!-- map_update_p_proc -->
<g id="node10" class="node">
<title>map_update_p_proc</title>
<ellipse fill="#ffffff" stroke="#000000" cx="1064" cy="-1394.9" rx="27" ry="18"/>
</g>
<!-- talk_p_proc -->
<g id="node11" class="node">
<title>talk_p_proc</title>
<ellipse fill="#ffffff" stroke="#000000" cx="1136" cy="-1394.9" rx="27" ry="18"/>
</g>
<!-- forced_node -->
<g id="node12" class="node">
<title>forced_node</title>
<ellipse fill="none" stroke="black" cx="1136" cy="-1212.41" rx="71.73" ry="18"/>
<text text-anchor="middle" x="1136" y="-1207.73" font-family="Times,serif" font-size="14.00">forced_node</text>
</g>
<!-- talk_p_proc&#45;&gt;forced_node -->
<g id="edge1" class="edge">
<title>talk_p_proc&#45;&gt;forced_node</title>
<path fill="none" stroke="#555555" stroke-dasharray="1,5" d="M1131.85,-1376.92C1128.72,-1345.82 1128.41,-1279.45 1130.94,-1241.53"/>
<polygon fill="#555555" stroke="#555555" points="1134.5,-1241.99 1131.82,-1231.74 1127.52,-1241.42 1134.5,-1241.99"/>
</g>
<!-- talk_p_proc&#45;&gt;forced_node -->
<g id="edge2" class="edge">
<title>talk_p_proc&#45;&gt;forced_node</title>
<path fill="none" stroke="#555555" stroke-dasharray="1,5" d="M1140.15,-1376.92C1143.28,-1345.82 1143.59,-1279.45 1141.06,-1241.53"/>
<polygon fill="#555555" stroke="#555555" points="1144.48,-1241.42 1140.18,-1231.74 1137.5,-1241.99 1144.48,-1241.42"/>
</g>
<!-- Node001 -->
<g id="node13" class="node">
<title>Node001</title>
<ellipse fill="#ffffff" stroke="#000000" cx="1363" cy="-1212.41" rx="137.53" ry="42.25"/>
<text text-anchor="middle" x="1363" y="-1224.98" font-family="Times,serif" font-size="14.00">(Смотрит со скукой в</text>
<text text-anchor="middle" x="1363" y="-1207.73" font-family="Times,serif" font-size="14.00">глазах) Эй. Что привело</text>
<text text-anchor="middle" x="1363" y="-1190.48" font-family="Times,serif" font-size="14.00">тебя сюда?</text>
</g>
<!-- talk_p_proc&#45;&gt;Node001 -->
<g id="edge3" class="edge">
<title>talk_p_proc&#45;&gt;Node001</title>
<path fill="none" stroke="#555555" stroke-dasharray="1,5" d="M1137.77,-1376.45C1140.91,-1354.09 1149.44,-1315.39 1172,-1291.66 1192.23,-1270.38 1219.08,-1254.71 1246.24,-1243.23"/>
<polygon fill="#555555" stroke="#555555" points="1247.28,-1246.18 1255.24,-1239.19 1244.66,-1239.69 1247.28,-1246.18"/>
</g>
<!-- Node990 -->
<g id="node16" class="node">
<title>Node990</title>
<ellipse fill="#ffffff" stroke="#000000" cx="1254" cy="-1047.16" rx="27" ry="18"/>
</g>
<!-- Node001&#45;&gt;Node990 -->
<g id="edge10" class="edge">
<title>Node001&#45;&gt;Node990</title>
<path fill="none" stroke="#000499" d="M1279.77,-1178.43C1269.93,-1171.2 1261.21,-1162.53 1255,-1152.16 1241.26,-1129.2 1243.09,-1097.98 1247.07,-1075.75"/>
<polygon fill="#000499" stroke="#000499" points="1250.69,-1076.54 1249.28,-1066.04 1243.83,-1075.12 1250.69,-1076.54"/>
<text text-anchor="middle" x="1352.5" y="-1138.86" font-family="Times,serif" font-size="14.00" fill="#000499">Мне захотелось облегчить</text>
<text text-anchor="middle" x="1352.5" y="-1121.61" font-family="Times,serif" font-size="14.00" fill="#000499">твои страдания. Я</text>
<text text-anchor="middle" x="1352.5" y="-1104.36" font-family="Times,serif" font-size="14.00" fill="#000499">охранник со следующей</text>
<text text-anchor="middle" x="1352.5" y="-1087.11" font-family="Times,serif" font-size="14.00" fill="#000499">смены.</text>
</g>
<!-- Node991 -->
<g id="node19" class="node">
<title>Node991</title>
<ellipse fill="#ffffff" stroke="#000000" cx="1472" cy="-1047.16" rx="27" ry="18"/>
</g>
<!-- Node001&#45;&gt;Node991 -->
<g id="edge11" class="edge">
<title>Node001&#45;&gt;Node991</title>
<path fill="none" stroke="#319900" d="M1428.9,-1174.99C1436.93,-1168.27 1444.3,-1160.66 1450,-1152.16 1465.14,-1129.58 1470.14,-1098.54 1471.66,-1076.27"/>
<polygon fill="#319900" stroke="#319900" points="1475.19,-1076.66 1472.17,-1066.5 1468.2,-1076.33 1475.19,-1076.66"/>
<text text-anchor="middle" x="1564.75" y="-1138.86" font-family="Times,serif" font-size="14.00" fill="#319900">Меня прислал Эштон. Он</text>
<text text-anchor="middle" x="1564.75" y="-1121.61" font-family="Times,serif" font-size="14.00" fill="#319900">сказал, что тебе нужно</text>
<text text-anchor="middle" x="1564.75" y="-1104.36" font-family="Times,serif" font-size="14.00" fill="#319900">пойти проверить с ним</text>
<text text-anchor="middle" x="1564.75" y="-1087.11" font-family="Times,serif" font-size="14.00" fill="#319900">пожертвования.</text>
</g>
<!-- Node999 -->
<g id="node14" class="node">
<title>Node999</title>
<ellipse fill="#ffffff" stroke="#000000" cx="1208" cy="-1394.9" rx="27" ry="18"/>
</g>
<!-- Node998 -->
<g id="node15" class="node">
<title>Node998</title>
<ellipse fill="#ffffff" stroke="#000000" cx="1414" cy="-315.95" rx="27" ry="18"/>
</g>
<!-- Node005 -->
<g id="node17" class="node">
<title>Node005</title>
<ellipse fill="#ffffff" stroke="#000000" cx="1171" cy="-315.95" rx="130.11" ry="54.45"/>
<text text-anchor="middle" x="1171" y="-337.15" font-family="Times,serif" font-size="14.00">Черт, конечно, почему</text>
<text text-anchor="middle" x="1171" y="-319.9" font-family="Times,serif" font-size="14.00">нет? Все равно здесь</text>
<text text-anchor="middle" x="1171" y="-302.65" font-family="Times,serif" font-size="14.00">нечего делать. До</text>
<text text-anchor="middle" x="1171" y="-285.4" font-family="Times,serif" font-size="14.00">встречи.</text>
</g>
<!-- Node990&#45;&gt;Node005 -->
<g id="edge4" class="edge">
<title>Node990&#45;&gt;Node005</title>
<path fill="none" stroke="#555555" stroke-dasharray="1,5" d="M1232.09,-1036.3C1200.78,-1020.53 1147,-986.49 1147,-938.71 1147,-938.71 1147,-938.71 1147,-589.83 1147,-518.27 1155.29,-436.56 1162.13,-381.35"/>
<polygon fill="#555555" stroke="#555555" points="1165.69,-382.03 1163.47,-371.67 1158.75,-381.16 1165.69,-382.03"/>
</g>
<!-- Node002 -->
<g id="node18" class="node">
<title>Node002</title>
<ellipse fill="#ffffff" stroke="#000000" cx="1340" cy="-937.71" rx="134.88" ry="54.45"/>
<text text-anchor="middle" x="1340" y="-958.91" font-family="Times,serif" font-size="14.00">Эээ, чувак... &#45;&#45; Эй,</text>
<text text-anchor="middle" x="1340" y="-941.66" font-family="Times,serif" font-size="14.00">постой! Я никогда не</text>
<text text-anchor="middle" x="1340" y="-924.41" font-family="Times,serif" font-size="14.00">видел тебя раньше. Что</text>
<text text-anchor="middle" x="1340" y="-907.16" font-family="Times,serif" font-size="14.00">тебе здесь надо?</text>
</g>
<!-- Node990&#45;&gt;Node002 -->
<g id="edge5" class="edge">
<title>Node990&#45;&gt;Node002</title>
<path fill="none" stroke="#555555" stroke-dasharray="1,5" d="M1266.32,-1030.76C1273.34,-1021.99 1282.64,-1010.38 1292.25,-998.37"/>
<polygon fill="#555555" stroke="#555555" points="1295.42,-1001.01 1298.93,-991.02 1289.95,-996.64 1295.42,-1001.01"/>
</g>
<!-- Node801 -->
<g id="node25" class="node">
<title>Node801</title>
<ellipse fill="#ffffff" stroke="#000000" cx="1171" cy="-131.5" rx="27" ry="18"/>
</g>
<!-- Node005&#45;&gt;Node801 -->
<g id="edge16" class="edge">
<title>Node005&#45;&gt;Node801</title>
<path fill="none" stroke="#009922" d="M1171,-261.19C1171,-228.23 1171,-187.37 1171,-160.65"/>
<polygon fill="#009922" stroke="#009922" points="1174.5,-160.79 1171,-150.79 1167.5,-160.79 1174.5,-160.79"/>
<text text-anchor="middle" x="1218.25" y="-212.95" font-family="Times,serif" font-size="14.00" fill="#009922">Береги себя.</text>
</g>
<!-- Node002&#45;&gt;Node998 -->
<g id="edge13" class="edge">
<title>Node002&#45;&gt;Node998</title>
<path fill="none" stroke="#008a99" d="M1284.89,-887.81C1252.25,-855 1213.92,-808.75 1196.25,-758.76 1191.61,-745.65 1154.34,-440.45 1199,-388.39 1215.27,-369.43 1286.26,-378.2 1310,-370.39 1336.85,-361.56 1365.25,-346.53 1385.58,-334.65"/>
<polygon fill="#008a99" stroke="#008a99" points="1387.07,-337.24 1393.87,-329.12 1383.49,-331.23 1387.07,-337.24"/>
<text text-anchor="middle" x="1282.88" y="-745.46" font-family="Times,serif" font-size="14.00" fill="#008a99">Да, мне было поручено</text>
<text text-anchor="middle" x="1282.88" y="-728.21" font-family="Times,serif" font-size="14.00" fill="#008a99">убить тебя.</text>
</g>
<!-- Node992 -->
<g id="node21" class="node">
<title>Node992</title>
<ellipse fill="#ffffff" stroke="#000000" cx="1372" cy="-794.76" rx="27" ry="18"/>
</g>
<!-- Node002&#45;&gt;Node992 -->
<g id="edge12" class="edge">
<title>Node002&#45;&gt;Node992</title>
<path fill="none" stroke="#99005d" d="M1352.19,-883.02C1356.83,-862.6 1361.92,-840.18 1365.77,-823.18"/>
<polygon fill="#99005d" stroke="#99005d" points="1369.32,-824.4 1368.12,-813.87 1362.49,-822.85 1369.32,-824.4"/>
<text text-anchor="middle" x="1452.88" y="-851.96" font-family="Times,serif" font-size="14.00" fill="#99005d">Я новобранец. Меня</text>
<text text-anchor="middle" x="1452.88" y="-834.71" font-family="Times,serif" font-size="14.00" fill="#99005d">недавно перевели сюда.</text>
</g>
<!-- Node991&#45;&gt;Node002 -->
<g id="edge7" class="edge">
<title>Node991&#45;&gt;Node002</title>
<path fill="none" stroke="#555555" stroke-dasharray="1,5" d="M1455.28,-1032.55C1442.95,-1022.51 1425.28,-1008.13 1407.47,-993.63"/>
<polygon fill="#555555" stroke="#555555" points="1410.26,-990.58 1400.3,-986.98 1405.84,-996.01 1410.26,-990.58"/>
</g>
<!-- Node003 -->
<g id="node20" class="node">
<title>Node003</title>
<ellipse fill="#ffffff" stroke="#000000" cx="1791" cy="-315.95" rx="142.84" ry="54.45"/>
<text text-anchor="middle" x="1791" y="-337.15" font-family="Times,serif" font-size="14.00">Твою ж мать. У меня нет</text>
<text text-anchor="middle" x="1791" y="-319.9" font-family="Times,serif" font-size="14.00">времени на все это</text>
<text text-anchor="middle" x="1791" y="-302.65" font-family="Times,serif" font-size="14.00">дерьмо, моя смена почти</text>
<text text-anchor="middle" x="1791" y="-285.4" font-family="Times,serif" font-size="14.00">закончилась.</text>
</g>
<!-- Node991&#45;&gt;Node003 -->
<g id="edge6" class="edge">
<title>Node991&#45;&gt;Node003</title>
<path fill="none" stroke="#555555" stroke-dasharray="1,5" d="M1499.17,-1045.06C1592.02,-1040.6 1891,-1019.91 1891,-938.71 1891,-938.71 1891,-938.71 1891,-589.83 1891,-500.09 1917.92,-468.26 1877,-388.39 1874.11,-382.75 1870.55,-377.38 1866.55,-372.31"/>
<polygon fill="#555555" stroke="#555555" points="1868.62,-370.35 1859.44,-365.07 1863.32,-374.92 1868.62,-370.35"/>
</g>
<!-- Node004 -->
<g id="node26" class="node">
<title>Node004</title>
<ellipse fill="#ffffff" stroke="#000000" cx="1791" cy="-131.5" rx="144.43" ry="42.25"/>
<text text-anchor="middle" x="1791" y="-144.07" font-family="Times,serif" font-size="14.00">А, ч&#45;черт. Хорошо.</text>
<text text-anchor="middle" x="1791" y="-126.82" font-family="Times,serif" font-size="14.00">Присмотри тут за всем, я</text>
<text text-anchor="middle" x="1791" y="-109.57" font-family="Times,serif" font-size="14.00">скоро вернусь.</text>
</g>
<!-- Node003&#45;&gt;Node004 -->
<g id="edge14" class="edge">
<title>Node003&#45;&gt;Node004</title>
<path fill="none" stroke="#997b00" d="M1791,-261.19C1791,-237.15 1791,-208.9 1791,-185"/>
<polygon fill="#997b00" stroke="#997b00" points="1794.5,-185.01 1791,-175.01 1787.5,-185.01 1794.5,-185.01"/>
<text text-anchor="middle" x="1886.62" y="-230.2" font-family="Times,serif" font-size="14.00" fill="#997b00">Слушай, по&#45;моему он уже</text>
<text text-anchor="middle" x="1886.62" y="-212.95" font-family="Times,serif" font-size="14.00" fill="#997b00">нажрался. Я бы не стал</text>
<text text-anchor="middle" x="1886.62" y="-195.7" font-family="Times,serif" font-size="14.00" fill="#997b00">заставлять его ждать.</text>
</g>
<!-- Node006 -->
<g id="node22" class="node">
<title>Node006</title>
<ellipse fill="#ffffff" stroke="#000000" cx="1699" cy="-590.83" rx="156.62" ry="115.44"/>
<text text-anchor="middle" x="1699" y="-655.15" font-family="Times,serif" font-size="14.00">Новобранец, говоришь? Мы</text>
<text text-anchor="middle" x="1699" y="-637.9" font-family="Times,serif" font-size="14.00">получаем таких здесь</text>
<text text-anchor="middle" x="1699" y="-620.65" font-family="Times,serif" font-size="14.00">время от времени. Если</text>
<text text-anchor="middle" x="1699" y="-603.4" font-family="Times,serif" font-size="14.00">честно, здесь страшная</text>
<text text-anchor="middle" x="1699" y="-586.15" font-family="Times,serif" font-size="14.00">скукотища. Но все же это</text>
<text text-anchor="middle" x="1699" y="-568.9" font-family="Times,serif" font-size="14.00">лучше, чем заниматься</text>
<text text-anchor="middle" x="1699" y="-551.65" font-family="Times,serif" font-size="14.00">рекрутами, поэтому я и</text>
<text text-anchor="middle" x="1699" y="-534.4" font-family="Times,serif" font-size="14.00">помалкиваю. Добро</text>
<text text-anchor="middle" x="1699" y="-517.15" font-family="Times,serif" font-size="14.00">пожаловать к нам.</text>
</g>
<!-- Node992&#45;&gt;Node006 -->
<g id="edge8" class="edge">
<title>Node992&#45;&gt;Node006</title>
<path fill="none" stroke="#555555" stroke-dasharray="1,5" d="M1393.39,-783.17C1424.8,-767.4 1484.97,-736.38 1534,-706.26 1548.39,-697.43 1563.24,-687.83 1577.87,-678.09"/>
<polygon fill="#555555" stroke="#555555" points="1579.58,-680.49 1585.94,-672.01 1575.68,-674.67 1579.58,-680.49"/>
</g>
<!-- Node007 -->
<g id="node23" class="node">
<title>Node007</title>
<ellipse fill="#ffffff" stroke="#000000" cx="1369" cy="-590.83" rx="155.56" ry="66.64"/>
<text text-anchor="middle" x="1369" y="-620.65" font-family="Times,serif" font-size="14.00">Новобранец? Какого хрена.</text>
<text text-anchor="middle" x="1369" y="-603.4" font-family="Times,serif" font-size="14.00">Здесь очень редко бывает</text>
<text text-anchor="middle" x="1369" y="-586.15" font-family="Times,serif" font-size="14.00">пополнение. Кажется, мне</text>
<text text-anchor="middle" x="1369" y="-568.9" font-family="Times,serif" font-size="14.00">попался воришка. Ну</text>
<text text-anchor="middle" x="1369" y="-551.65" font-family="Times,serif" font-size="14.00">наконец&#45;то!</text>
</g>
<!-- Node992&#45;&gt;Node007 -->
<g id="edge9" class="edge">
<title>Node992&#45;&gt;Node007</title>
<path fill="none" stroke="#555555" stroke-dasharray="1,5" d="M1371.74,-776.55C1371.39,-752.66 1370.73,-707.94 1370.14,-668.49"/>
<polygon fill="#555555" stroke="#555555" points="1373.62,-668.47 1369.98,-658.52 1366.62,-668.57 1373.62,-668.47"/>
</g>
<!-- Node006&#45;&gt;Node998 -->
<g id="edge19" class="edge">
<title>Node006&#45;&gt;Node998</title>
<path fill="none" stroke="#649900" d="M1586.87,-509.76C1569.37,-497.94 1551.34,-486.13 1534,-475.39 1519.88,-466.65 1513.3,-468.82 1501.25,-457.39 1466.22,-424.18 1439.56,-374 1425.39,-343.47"/>
<polygon fill="#649900" stroke="#649900" points="1428.22,-342.22 1420.91,-334.55 1421.84,-345.11 1428.22,-342.22"/>
<text text-anchor="middle" x="1587.88" y="-426.84" font-family="Times,serif" font-size="14.00" fill="#649900">Да, мне было поручено</text>
<text text-anchor="middle" x="1587.88" y="-409.59" font-family="Times,serif" font-size="14.00" fill="#649900">убить тебя.</text>
</g>
<!-- Node006&#45;&gt;Node005 -->
<g id="edge18" class="edge">
<title>Node006&#45;&gt;Node005</title>
<path fill="none" stroke="#003799" d="M1593.97,-504.8C1574.94,-493.04 1554.58,-482.56 1534,-475.39 1474.49,-454.68 1304.45,-490.77 1251,-457.39 1223,-439.91 1203.84,-408.84 1191.31,-380.36"/>
<polygon fill="#003799" stroke="#003799" points="1194.24,-379.29 1187.15,-371.42 1187.78,-382 1194.24,-379.29"/>
<text text-anchor="middle" x="1348.5" y="-435.47" font-family="Times,serif" font-size="14.00" fill="#003799">Спасибо за теплый прием.</text>
<text text-anchor="middle" x="1348.5" y="-418.22" font-family="Times,serif" font-size="14.00" fill="#003799">Не хочешь смениться</text>
<text text-anchor="middle" x="1348.5" y="-400.97" font-family="Times,serif" font-size="14.00" fill="#003799">пораньше?</text>
</g>
<!-- Node006&#45;&gt;Node003 -->
<g id="edge17" class="edge">
<title>Node006&#45;&gt;Node003</title>
<path fill="none" stroke="#99000b" d="M1676.1,-476.26C1675.12,-446.36 1678.91,-415.04 1692.5,-388.39 1696,-381.54 1700.49,-375.18 1705.64,-369.33"/>
<polygon fill="#99000b" stroke="#99000b" points="1707.61,-372.29 1712.01,-362.66 1702.56,-367.44 1707.61,-372.29"/>
<text text-anchor="middle" x="1785.25" y="-444.09" font-family="Times,serif" font-size="14.00" fill="#99000b">Спасибо. Но раз уж я</text>
<text text-anchor="middle" x="1785.25" y="-426.84" font-family="Times,serif" font-size="14.00" fill="#99000b">пришел к тебе, наверное</text>
<text text-anchor="middle" x="1785.25" y="-409.59" font-family="Times,serif" font-size="14.00" fill="#99000b">не стоит заставлять</text>
<text text-anchor="middle" x="1785.25" y="-392.34" font-family="Times,serif" font-size="14.00" fill="#99000b">Эштона ждать.</text>
</g>
<!-- Node800 -->
<g id="node24" class="node">
<title>Node800</title>
<ellipse fill="#ffffff" stroke="#000000" cx="1791" cy="-18" rx="27" ry="18"/>
</g>
<!-- Node004&#45;&gt;Node800 -->
<g id="edge15" class="edge">
<title>Node004&#45;&gt;Node800</title>
<path fill="none" stroke="#4f0099" d="M1791,-88.98C1791,-75.04 1791,-59.84 1791,-47.17"/>
<polygon fill="#4f0099" stroke="#4f0099" points="1794.5,-47.36 1791,-37.36 1787.5,-47.36 1794.5,-47.36"/>
<text text-anchor="middle" x="1840.12" y="-57.95" font-family="Times,serif" font-size="14.00" fill="#4f0099">Без проблем.</text>
</g>
<!-- Node008 -->
<g id="node27" class="node">
<title>Node008</title>
<ellipse fill="#ffffff" stroke="#000000" cx="1396" cy="-1394.9" rx="142.84" ry="103.24"/>
<text text-anchor="middle" x="1396" y="-1450.6" font-family="Times,serif" font-size="14.00">Какого хера?! Эштон не</text>
<text text-anchor="middle" x="1396" y="-1433.35" font-family="Times,serif" font-size="14.00">хотел меня видеть. Я не</text>
<text text-anchor="middle" x="1396" y="-1416.1" font-family="Times,serif" font-size="14.00">знаю, какого черта здесь</text>
<text text-anchor="middle" x="1396" y="-1398.85" font-family="Times,serif" font-size="14.00">происходит, у нас нет</text>
<text text-anchor="middle" x="1396" y="-1381.6" font-family="Times,serif" font-size="14.00">никаких бумаг о вашем</text>
<text text-anchor="middle" x="1396" y="-1364.35" font-family="Times,serif" font-size="14.00">переводе сюда. Кажется,</text>
<text text-anchor="middle" x="1396" y="-1347.1" font-family="Times,serif" font-size="14.00">мне попался воришка...</text>
<text text-anchor="middle" x="1396" y="-1329.85" font-family="Times,serif" font-size="14.00">Который скоро сдохнет!</text>
</g>
<!-- Node009 -->
<g id="node28" class="node">
<title>Node009</title>
<ellipse fill="#ffffff" stroke="#000000" cx="1705" cy="-1394.9" rx="148.14" ry="91.04"/>
<text text-anchor="middle" x="1705" y="-1441.97" font-family="Times,serif" font-size="14.00">Уооу, что, ты тут</text>
<text text-anchor="middle" x="1705" y="-1424.72" font-family="Times,serif" font-size="14.00">творишь, бля?! Ты</text>
<text text-anchor="middle" x="1705" y="-1407.47" font-family="Times,serif" font-size="14.00">пытаешься обокрасть нас,</text>
<text text-anchor="middle" x="1705" y="-1390.22" font-family="Times,serif" font-size="14.00">прямо на моих глазах...</text>
<text text-anchor="middle" x="1705" y="-1372.97" font-family="Times,serif" font-size="14.00">Срань господня, какой же</text>
<text text-anchor="middle" x="1705" y="-1355.72" font-family="Times,serif" font-size="14.00">ты придурок! Ладно, в</text>
<text text-anchor="middle" x="1705" y="-1338.47" font-family="Times,serif" font-size="14.00">кои&#45;то веки кого&#45;то убью.</text>
</g>
<!-- Node010 -->
<g id="node29" class="node">
<title>Node010</title>
<ellipse fill="#ffffff" stroke="#000000" cx="2030" cy="-1394.9" rx="159.28" ry="66.64"/>
<text text-anchor="middle" x="2030" y="-1424.72" font-family="Times,serif" font-size="14.00">Уооу, что, ты тут</text>
<text text-anchor="middle" x="2030" y="-1407.47" font-family="Times,serif" font-size="14.00">творишь, бля?! Первое и</text>
<text text-anchor="middle" x="2030" y="-1390.22" font-family="Times,serif" font-size="14.00">последнее предупреждение:</text>
<text text-anchor="middle" x="2030" y="-1372.97" font-family="Times,serif" font-size="14.00">не прикасайтесь, это</text>
<text text-anchor="middle" x="2030" y="-1355.72" font-family="Times,serif" font-size="14.00">частная собственность.</text>
</g>
<!-- Node011 -->
<g id="node30" class="node">
<title>Node011</title>
<ellipse fill="#ffffff" stroke="#000000" cx="2355" cy="-1394.9" rx="148.14" ry="78.84"/>
<text text-anchor="middle" x="2355" y="-1433.35" font-family="Times,serif" font-size="14.00">Я тебя предупреждал. Ты</text>
<text text-anchor="middle" x="2355" y="-1416.1" font-family="Times,serif" font-size="14.00">пытаешься обокрасть нас,</text>
<text text-anchor="middle" x="2355" y="-1398.85" font-family="Times,serif" font-size="14.00">прямо на моих глазах...</text>
<text text-anchor="middle" x="2355" y="-1381.6" font-family="Times,serif" font-size="14.00">Срань господня, какой же</text>
<text text-anchor="middle" x="2355" y="-1364.35" font-family="Times,serif" font-size="14.00">ты придурок! Ладно, в</text>
<text text-anchor="middle" x="2355" y="-1347.1" font-family="Times,serif" font-size="14.00">кои&#45;то веки кого&#45;то убью.</text>
</g>
<!-- critter_p_proc -->
<g id="node31" class="node">
<title>critter_p_proc</title>
<ellipse fill="#ffffff" stroke="#000000" cx="2548" cy="-1394.9" rx="27" ry="18"/>
</g>
<!-- timed_event_p_proc -->
<g id="node32" class="node">
<title>timed_event_p_proc</title>
<ellipse fill="#ffffff" stroke="#000000" cx="2620" cy="-1394.9" rx="27" ry="18"/>
</g>
<!-- pickup_p_proc -->
<g id="node33" class="node">
<title>pickup_p_proc</title>
<ellipse fill="#ffffff" stroke="#000000" cx="2692" cy="-1394.9" rx="27" ry="18"/>
</g>
<!-- Node996 -->
<g id="node34" class="node">
<title>Node996</title>
<ellipse fill="#ffffff" stroke="#000000" cx="2764" cy="-1394.9" rx="27" ry="18"/>
</g>
</g>
</svg>
