<?xml version="1.0" encoding="UTF-8" standalone="no"?>
<!DOCTYPE svg PUBLIC "-//W3C//DTD SVG 1.1//EN"
 "http://www.w3.org/Graphics/SVG/1.1/DTD/svg11.dtd">
<!-- Generated by graphviz version 8.0.5 (0)
 -->
<!-- Title: hisafe Pages: 1 -->
<svg width="1558pt" height="555pt"
 viewBox="0.00 0.00 1558.00 554.53" xmlns="http://www.w3.org/2000/svg" xmlns:xlink="http://www.w3.org/1999/xlink">
<g id="graph0" class="graph" transform="scale(1 1) rotate(0) translate(4 550.53)">
<title>hisafe</title>
<polygon fill="white" stroke="none" points="-4,4 -4,-550.53 1554,-550.53 1554,4 -4,4"/>
<!-- start -->
<g id="node1" class="node">
<title>start</title>
<ellipse fill="#ffffff" stroke="#000000" cx="27" cy="-479.89" rx="27" ry="18"/>
</g>
<!-- use_p_proc -->
<g id="node2" class="node">
<title>use_p_proc</title>
<ellipse fill="#ffffff" stroke="#000000" cx="199" cy="-479.89" rx="127.49" ry="18"/>
<text text-anchor="middle" x="199" y="-475.21" font-family="Times,serif" font-size="14.00">Сейф надежно заперт.</text>
</g>
<!-- Tamper_Proc2 -->
<g id="node3" class="node">
<title>Tamper_Proc2</title>
<ellipse fill="#ffffff" stroke="#000000" cx="336" cy="-188.62" rx="27" ry="18"/>
</g>
<!-- use_p_proc&#45;&gt;Tamper_Proc2 -->
<g id="edge1" class="edge">
<title>use_p_proc&#45;&gt;Tamper_Proc2</title>
<path fill="none" stroke="#555555" stroke-dasharray="1,5" d="M207.16,-461.66C230.21,-412.99 295.91,-274.27 323.53,-215.95"/>
<polygon fill="#555555" stroke="#555555" points="327.11,-217.57 328.22,-207.04 320.78,-214.58 327.11,-217.57"/>
</g>
<!-- pickup_p_proc -->
<g id="node4" class="node">
<title>pickup_p_proc</title>
<ellipse fill="#ffffff" stroke="#000000" cx="472" cy="-479.89" rx="127.49" ry="18"/>
<text text-anchor="middle" x="472" y="-475.21" font-family="Times,serif" font-size="14.00">Сейф надежно заперт.</text>
</g>
<!-- pickup_p_proc&#45;&gt;Tamper_Proc2 -->
<g id="edge2" class="edge">
<title>pickup_p_proc&#45;&gt;Tamper_Proc2</title>
<path fill="none" stroke="#555555" stroke-dasharray="1,5" d="M463.9,-461.66C441.02,-412.99 375.8,-274.27 348.38,-215.95"/>
<polygon fill="#555555" stroke="#555555" points="351.14,-214.6 343.72,-207.04 344.81,-217.58 351.14,-214.6"/>
</g>
<!-- map_enter_p_proc -->
<g id="node5" class="node">
<title>map_enter_p_proc</title>
<ellipse fill="#ffffff" stroke="#000000" cx="644" cy="-479.89" rx="27" ry="18"/>
</g>
<!-- look_at_p_proc -->
<g id="node6" class="node">
<title>look_at_p_proc</title>
<ellipse fill="#ffffff" stroke="#000000" cx="813" cy="-479.89" rx="123.74" ry="30.05"/>
<text text-anchor="middle" x="813" y="-483.84" font-family="Times,serif" font-size="14.00">Вы видите большой</text>
<text text-anchor="middle" x="813" y="-466.59" font-family="Times,serif" font-size="14.00">металлический сейф.</text>
</g>
<!-- description_p_proc -->
<g id="node7" class="node">
<title>description_p_proc</title>
<ellipse fill="#ffffff" stroke="#000000" cx="1097" cy="-479.89" rx="141.77" ry="66.64"/>
<text text-anchor="middle" x="1097" y="-509.71" font-family="Times,serif" font-size="14.00">Это очень крепкий сейф.</text>
<text text-anchor="middle" x="1097" y="-492.46" font-family="Times,serif" font-size="14.00">Он заперт.</text>
<text text-anchor="middle" x="1097" y="-475.21" font-family="Times,serif" font-size="14.00">&#45;&#45;&#45;</text>
<text text-anchor="middle" x="1097" y="-457.96" font-family="Times,serif" font-size="14.00">Это очень крепкий сейф.</text>
<text text-anchor="middle" x="1097" y="-440.71" font-family="Times,serif" font-size="14.00">Он не заперт.</text>
</g>
<!-- lock_safe -->
<g id="node8" class="node">
<title>lock_safe</title>
<ellipse fill="#ffffff" stroke="#000000" cx="1007" cy="-188.62" rx="136.44" ry="18"/>
<text text-anchor="middle" x="1007" y="-183.95" font-family="Times,serif" font-size="14.00">Вы ловко заперли сейф.</text>
</g>
<!-- unlock_safe -->
<g id="node9" class="node">
<title>unlock_safe</title>
<ellipse fill="#ffffff" stroke="#000000" cx="1320" cy="-188.62" rx="158.22" ry="188.62"/>
<text text-anchor="middle" x="1320" y="-304.7" font-family="Times,serif" font-size="14.00">Вы ловко вскрываете замок</text>
<text text-anchor="middle" x="1320" y="-287.45" font-family="Times,serif" font-size="14.00">на сейфе.</text>
<text text-anchor="middle" x="1320" y="-270.2" font-family="Times,serif" font-size="14.00">&#45;&#45;&#45;</text>
<text text-anchor="middle" x="1320" y="-252.95" font-family="Times,serif" font-size="14.00">Вы видите большой</text>
<text text-anchor="middle" x="1320" y="-235.7" font-family="Times,serif" font-size="14.00">металлический сейф.</text>
<text text-anchor="middle" x="1320" y="-218.45" font-family="Times,serif" font-size="14.00">&#45;&#45;&#45;</text>
<text text-anchor="middle" x="1320" y="-201.2" font-family="Times,serif" font-size="14.00">Это очень крепкий сейф.</text>
<text text-anchor="middle" x="1320" y="-183.95" font-family="Times,serif" font-size="14.00">Он заперт.</text>
<text text-anchor="middle" x="1320" y="-166.7" font-family="Times,serif" font-size="14.00">&#45;&#45;&#45;</text>
<text text-anchor="middle" x="1320" y="-149.45" font-family="Times,serif" font-size="14.00">Из&#45;за ваших плохих</text>
<text text-anchor="middle" x="1320" y="-132.2" font-family="Times,serif" font-size="14.00">навыков замок на этом</text>
<text text-anchor="middle" x="1320" y="-114.95" font-family="Times,serif" font-size="14.00">сейфе заклинило.</text>
<text text-anchor="middle" x="1320" y="-97.7" font-family="Times,serif" font-size="14.00">&#45;&#45;&#45;</text>
<text text-anchor="middle" x="1320" y="-80.45" font-family="Times,serif" font-size="14.00">Вы не в состоянии вскрыть</text>
<text text-anchor="middle" x="1320" y="-63.2" font-family="Times,serif" font-size="14.00">замок на этом сейфе.</text>
</g>
<!-- use_skill_on_p_proc -->
<g id="node10" class="node">
<title>use_skill_on_p_proc</title>
<ellipse fill="#ffffff" stroke="#000000" cx="1356" cy="-479.89" rx="27" ry="18"/>
</g>
<!-- use_skill_on_p_proc&#45;&gt;lock_safe -->
<g id="edge5" class="edge">
<title>use_skill_on_p_proc&#45;&gt;lock_safe</title>
<path fill="none" stroke="#555555" stroke-dasharray="1,5" d="M1351.15,-461.92C1345.94,-446.81 1336.15,-425.29 1320,-413.24 1259.13,-367.85 1217.29,-417.63 1153,-377.24 1088.89,-336.96 1041.69,-258.06 1020.08,-216.58"/>
<polygon fill="#555555" stroke="#555555" points="1022.8,-215.21 1015.15,-207.88 1016.57,-218.38 1022.8,-215.21"/>
</g>
<!-- use_skill_on_p_proc&#45;&gt;unlock_safe -->
<g id="edge4" class="edge">
<title>use_skill_on_p_proc&#45;&gt;unlock_safe</title>
<path fill="none" stroke="#555555" stroke-dasharray="1,5" d="M1353.86,-461.66C1351.77,-444.88 1348.35,-417.41 1344.47,-386.22"/>
<polygon fill="#555555" stroke="#555555" points="1347.84,-386 1343.13,-376.5 1340.9,-386.86 1347.84,-386"/>
</g>
<!-- Tamper_Proc -->
<g id="node11" class="node">
<title>Tamper_Proc</title>
<ellipse fill="#ffffff" stroke="#000000" cx="1523" cy="-188.62" rx="27" ry="18"/>
</g>
<!-- use_skill_on_p_proc&#45;&gt;Tamper_Proc -->
<g id="edge3" class="edge">
<title>use_skill_on_p_proc&#45;&gt;Tamper_Proc</title>
<path fill="none" stroke="#555555" stroke-dasharray="1,5" d="M1377.61,-468.49C1407.34,-453 1460.21,-420.92 1487,-377.24 1517.65,-327.28 1523.14,-256.89 1523.6,-218.08"/>
<polygon fill="#555555" stroke="#555555" points="1527.1,-218.11 1523.6,-208.11 1520.1,-218.11 1527.1,-218.11"/>
</g>
<!-- use_obj_on_p_proc -->
<g id="node12" class="node">
<title>use_obj_on_p_proc</title>
<ellipse fill="#ffffff" stroke="#000000" cx="1284" cy="-479.89" rx="27" ry="18"/>
</g>
<!-- use_obj_on_p_proc&#45;&gt;lock_safe -->
<g id="edge8" class="edge">
<title>use_obj_on_p_proc&#45;&gt;lock_safe</title>
<path fill="none" stroke="#555555" stroke-dasharray="1,5" d="M1272.14,-463.32C1264.58,-448.56 1254.5,-426.72 1239,-413.24 1204.93,-383.61 1180.33,-404.06 1144,-377.24 1083.8,-332.8 1035.64,-257.21 1015.86,-216.87"/>
<polygon fill="#555555" stroke="#555555" points="1018.64,-215.54 1011.25,-207.95 1012.29,-218.5 1018.64,-215.54"/>
</g>
<!-- use_obj_on_p_proc&#45;&gt;lock_safe -->
<g id="edge10" class="edge">
<title>use_obj_on_p_proc&#45;&gt;lock_safe</title>
<path fill="none" stroke="#555555" stroke-dasharray="1,5" d="M1285.5,-461.61C1281.81,-446.92 1271.91,-426.2 1257,-413.24 1222.93,-383.61 1198.33,-404.06 1162,-377.24 1101.41,-332.52 1053.03,-256.24 1026.97,-216.1"/>
<polygon fill="#555555" stroke="#555555" points="1029.38,-214.41 1020.98,-207.95 1023.52,-218.24 1029.38,-214.41"/>
</g>
<!-- use_obj_on_p_proc&#45;&gt;unlock_safe -->
<g id="edge7" class="edge">
<title>use_obj_on_p_proc&#45;&gt;unlock_safe</title>
<path fill="none" stroke="#555555" stroke-dasharray="1,5" d="M1282.73,-461.66C1283.38,-444.67 1285.87,-416.69 1289.32,-384.99"/>
<polygon fill="#555555" stroke="#555555" points="1292.9,-385.44 1290.52,-375.11 1285.94,-384.67 1292.9,-385.44"/>
</g>
<!-- use_obj_on_p_proc&#45;&gt;unlock_safe -->
<g id="edge9" class="edge">
<title>use_obj_on_p_proc&#45;&gt;unlock_safe</title>
<path fill="none" stroke="#555555" stroke-dasharray="1,5" d="M1289.47,-462.08C1292.99,-445.51 1297.37,-418.19 1301.76,-387.1"/>
<polygon fill="#555555" stroke="#555555" points="1305.33,-387.81 1303.24,-377.42 1298.4,-386.85 1305.33,-387.81"/>
</g>
<!-- use_obj_on_p_proc&#45;&gt;Tamper_Proc -->
<g id="edge6" class="edge">
<title>use_obj_on_p_proc&#45;&gt;Tamper_Proc</title>
<path fill="none" stroke="#555555" stroke-dasharray="1,5" d="M1288.85,-461.92C1294.06,-446.81 1303.85,-425.29 1320,-413.24 1380.87,-367.85 1433.93,-431.54 1487,-377.24 1528.87,-334.41 1529.58,-258.63 1526.37,-217.71"/>
<polygon fill="#555555" stroke="#555555" points="1529.77,-217.55 1525.36,-207.92 1522.8,-218.2 1529.77,-217.55"/>
</g>
</g>
</svg>
