<?xml version="1.0" encoding="UTF-8" standalone="no"?>
<!DOCTYPE svg PUBLIC "-//W3C//DTD SVG 1.1//EN"
 "http://www.w3.org/Graphics/SVG/1.1/DTD/svg11.dtd">
<!-- Generated by graphviz version 8.0.5 (0)
 -->
<!-- Title: mcBess Pages: 1 -->
<svg width="2074pt" height="681pt"
 viewBox="0.00 0.00 2074.00 680.76" xmlns="http://www.w3.org/2000/svg" xmlns:xlink="http://www.w3.org/1999/xlink">
<g id="graph0" class="graph" transform="scale(1 1) rotate(0) translate(4 676.76)">
<title>mcBess</title>
<polygon fill="white" stroke="none" points="-4,4 -4,-676.76 2070,-676.76 2070,4 -4,4"/>
<!-- start -->
<g id="node1" class="node">
<title>start</title>
<ellipse fill="#ffffff" stroke="#000000" cx="27" cy="-569.53" rx="27" ry="18"/>
</g>
<!-- critter_p_proc -->
<g id="node2" class="node">
<title>critter_p_proc</title>
<ellipse fill="#ffffff" stroke="#000000" cx="215" cy="-569.53" rx="142.84" ry="103.24"/>
<text text-anchor="middle" x="215" y="-625.23" font-family="Times,serif" font-size="14.00">Вы вылечили сломанную</text>
<text text-anchor="middle" x="215" y="-607.98" font-family="Times,serif" font-size="14.00">ногу брамина.</text>
<text text-anchor="middle" x="215" y="-590.73" font-family="Times,serif" font-size="14.00">&#45;&#45;&#45;</text>
<text text-anchor="middle" x="215" y="-573.48" font-family="Times,serif" font-size="14.00">Судя по бирке на</text>
<text text-anchor="middle" x="215" y="-556.23" font-family="Times,serif" font-size="14.00">ошейнике, корову зовут</text>
<text text-anchor="middle" x="215" y="-538.98" font-family="Times,serif" font-size="14.00">Бесс.</text>
<text text-anchor="middle" x="215" y="-521.73" font-family="Times,serif" font-size="14.00">&#45;&#45;&#45;</text>
<text text-anchor="middle" x="215" y="-504.48" font-family="Times,serif" font-size="14.00">Вы видите Бесс.</text>
</g>
<!-- talk_p_proc -->
<g id="node3" class="node">
<title>talk_p_proc</title>
<ellipse fill="#ffffff" stroke="#000000" cx="513" cy="-569.53" rx="137.53" ry="42.25"/>
<text text-anchor="middle" x="513" y="-582.1" font-family="Times,serif" font-size="14.00">Му&#45;у&#45;у!</text>
<text text-anchor="middle" x="513" y="-564.85" font-family="Times,serif" font-size="14.00">&#45;&#45;&#45;</text>
<text text-anchor="middle" x="513" y="-547.6" font-family="Times,serif" font-size="14.00">[Бедный брамин ранен.]</text>
</g>
<!-- Node002 -->
<g id="node4" class="node">
<title>Node002</title>
<ellipse fill="#ffffff" stroke="#000000" cx="513" cy="-374.84" rx="149.73" ry="54.45"/>
<text text-anchor="middle" x="513" y="-396.04" font-family="Times,serif" font-size="14.00">Му&#45;у&#45;у&#45;у&#45;у.</text>
<text text-anchor="middle" x="513" y="-378.79" font-family="Times,serif" font-size="14.00">&#45;&#45;&#45;</text>
<text text-anchor="middle" x="513" y="-361.54" font-family="Times,serif" font-size="14.00">[Бесс издает тихое,</text>
<text text-anchor="middle" x="513" y="-344.29" font-family="Times,serif" font-size="14.00">страдальческое мычание.]</text>
</g>
<!-- talk_p_proc&#45;&gt;Node002 -->
<g id="edge1" class="edge">
<title>talk_p_proc&#45;&gt;Node002</title>
<path fill="none" stroke="#555555" stroke-dasharray="1,5" d="M513,-527.19C513,-501.89 513,-468.99 513,-440.32"/>
<polygon fill="#555555" stroke="#555555" points="516.5,-440.57 513,-430.57 509.5,-440.57 516.5,-440.57"/>
</g>
<!-- Node999 -->
<g id="node14" class="node">
<title>Node999</title>
<ellipse fill="#ffffff" stroke="#000000" cx="525" cy="-18" rx="27" ry="18"/>
</g>
<!-- Node002&#45;&gt;Node999 -->
<g id="edge3" class="edge">
<title>Node002&#45;&gt;Node999</title>
<path fill="none" stroke="#990080" d="M507.42,-320.16C502.77,-266.06 498.09,-180.25 506,-106.5 508.19,-86.09 513.18,-63.45 517.49,-46.31"/>
<polygon fill="#990080" stroke="#990080" points="521.06,-47.48 520.2,-36.93 514.29,-45.72 521.06,-47.48"/>
<text text-anchor="middle" x="590" y="-173.52" font-family="Times,serif" font-size="14.00" fill="#990080">Да! Из тебя получится</text>
<text text-anchor="middle" x="590" y="-156.27" font-family="Times,serif" font-size="14.00" fill="#990080">прекрасная вкусная</text>
<text text-anchor="middle" x="590" y="-139.02" font-family="Times,serif" font-size="14.00" fill="#990080">солонина. Увидимся.</text>
</g>
<!-- Node003 -->
<g id="node16" class="node">
<title>Node003</title>
<ellipse fill="#ffffff" stroke="#000000" cx="834" cy="-160.95" rx="150.79" ry="54.45"/>
<text text-anchor="middle" x="834" y="-182.15" font-family="Times,serif" font-size="14.00">Му&#45;у&#45;у&#45;у.</text>
<text text-anchor="middle" x="834" y="-164.9" font-family="Times,serif" font-size="14.00">&#45;&#45;&#45;</text>
<text text-anchor="middle" x="834" y="-147.65" font-family="Times,serif" font-size="14.00">[Гораздо более счастливое</text>
<text text-anchor="middle" x="834" y="-130.4" font-family="Times,serif" font-size="14.00">мычание.]</text>
</g>
<!-- Node002&#45;&gt;Node003 -->
<g id="edge2" class="edge">
<title>Node002&#45;&gt;Node003</title>
<path fill="none" stroke="#539900" d="M584.64,-326.55C634.58,-293.59 701.28,-249.56 753.13,-215.33"/>
<polygon fill="#539900" stroke="#539900" points="754.89,-217.71 761.3,-209.28 751.03,-211.86 754.89,-217.71"/>
<text text-anchor="middle" x="810.25" y="-289.09" font-family="Times,serif" font-size="14.00" fill="#539900">Бедная коровка...</text>
<text text-anchor="middle" x="810.25" y="-271.84" font-family="Times,serif" font-size="14.00" fill="#539900">Наверное, не стоит мне</text>
<text text-anchor="middle" x="810.25" y="-254.59" font-family="Times,serif" font-size="14.00" fill="#539900">продавать тебя на мясо.</text>
<text text-anchor="middle" x="810.25" y="-237.34" font-family="Times,serif" font-size="14.00" fill="#539900">Хочешь, уйдем отсюда?</text>
</g>
<!-- look_at_p_proc -->
<g id="node5" class="node">
<title>look_at_p_proc</title>
<ellipse fill="#ffffff" stroke="#000000" cx="806" cy="-569.53" rx="137" ry="42.25"/>
<text text-anchor="middle" x="806" y="-582.1" font-family="Times,serif" font-size="14.00">Судя по бирке на</text>
<text text-anchor="middle" x="806" y="-564.85" font-family="Times,serif" font-size="14.00">ошейнике, корову зовут</text>
<text text-anchor="middle" x="806" y="-547.6" font-family="Times,serif" font-size="14.00">Бесс.</text>
</g>
<!-- description_p_proc -->
<g id="node6" class="node">
<title>description_p_proc</title>
<ellipse fill="#ffffff" stroke="#000000" cx="1110" cy="-569.53" rx="149.2" ry="42.25"/>
<text text-anchor="middle" x="1110" y="-582.1" font-family="Times,serif" font-size="14.00">Кажется, на нее напал</text>
<text text-anchor="middle" x="1110" y="-564.85" font-family="Times,serif" font-size="14.00">какой&#45;то дикий зверь. Она</text>
<text text-anchor="middle" x="1110" y="-547.6" font-family="Times,serif" font-size="14.00">сильно ранена.</text>
</g>
<!-- use_skill_on_p_proc -->
<g id="node7" class="node">
<title>use_skill_on_p_proc</title>
<ellipse fill="#ffffff" stroke="#000000" cx="1420" cy="-569.53" rx="142.31" ry="66.64"/>
<text text-anchor="middle" x="1420" y="-599.35" font-family="Times,serif" font-size="14.00">Вы видите Бесс.</text>
<text text-anchor="middle" x="1420" y="-582.1" font-family="Times,serif" font-size="14.00">&#45;&#45;&#45;</text>
<text text-anchor="middle" x="1420" y="-564.85" font-family="Times,serif" font-size="14.00">У брамина сломана нога,</text>
<text text-anchor="middle" x="1420" y="-547.6" font-family="Times,serif" font-size="14.00">тут первой помощи</text>
<text text-anchor="middle" x="1420" y="-530.35" font-family="Times,serif" font-size="14.00">недостаточно.</text>
</g>
<!-- damage_p_proc -->
<g id="node8" class="node">
<title>damage_p_proc</title>
<ellipse fill="#ffffff" stroke="#000000" cx="1607" cy="-569.53" rx="27" ry="18"/>
</g>
<!-- map_enter_p_proc -->
<g id="node9" class="node">
<title>map_enter_p_proc</title>
<ellipse fill="#ffffff" stroke="#000000" cx="1679" cy="-569.53" rx="27" ry="18"/>
</g>
<!-- map_exit_p_proc -->
<g id="node10" class="node">
<title>map_exit_p_proc</title>
<ellipse fill="#ffffff" stroke="#000000" cx="1751" cy="-569.53" rx="27" ry="18"/>
</g>
<!-- timed_event_p_proc -->
<g id="node11" class="node">
<title>timed_event_p_proc</title>
<ellipse fill="#ffffff" stroke="#000000" cx="1823" cy="-569.53" rx="27" ry="18"/>
</g>
<!-- use_p_proc -->
<g id="node12" class="node">
<title>use_p_proc</title>
<ellipse fill="#ffffff" stroke="#000000" cx="1895" cy="-569.53" rx="27" ry="18"/>
</g>
<!-- push_p_proc -->
<g id="node13" class="node">
<title>push_p_proc</title>
<ellipse fill="#ffffff" stroke="#000000" cx="1967" cy="-569.53" rx="27" ry="18"/>
</g>
<!-- Node990 -->
<g id="node15" class="node">
<title>Node990</title>
<ellipse fill="#ffffff" stroke="#000000" cx="834" cy="-18" rx="27" ry="18"/>
</g>
<!-- Node003&#45;&gt;Node999 -->
<g id="edge5" class="edge">
<title>Node003&#45;&gt;Node999</title>
<path fill="none" stroke="#995900" d="M721.51,-124.3C682.47,-111.29 643.99,-97.56 626,-88.5 598.6,-74.69 570.03,-54.39 550.29,-39.3"/>
<polygon fill="#995900" stroke="#995900" points="552.67,-35.93 542.62,-32.56 548.37,-41.46 552.67,-35.93"/>
<text text-anchor="middle" x="728" y="-75.2" font-family="Times,serif" font-size="14.00" fill="#995900">Да шучу я. Вяленое мясо</text>
<text text-anchor="middle" x="728" y="-57.95" font-family="Times,serif" font-size="14.00" fill="#995900">мне нужно больше, чем ты.</text>
</g>
<!-- Node003&#45;&gt;Node990 -->
<g id="edge4" class="edge">
<title>Node003&#45;&gt;Node990</title>
<path fill="none" stroke="#009985" d="M834,-106.26C834,-86.16 834,-64.12 834,-47.23"/>
<polygon fill="#009985" stroke="#009985" points="837.5,-47.43 834,-37.43 830.5,-47.43 837.5,-47.43"/>
<text text-anchor="middle" x="927.38" y="-75.2" font-family="Times,serif" font-size="14.00" fill="#009985">Ладно, давай выбираться</text>
<text text-anchor="middle" x="927.38" y="-57.95" font-family="Times,serif" font-size="14.00" fill="#009985">отсюда.</text>
</g>
<!-- use_obj_on_p_proc -->
<g id="node17" class="node">
<title>use_obj_on_p_proc</title>
<ellipse fill="#ffffff" stroke="#000000" cx="2039" cy="-569.53" rx="27" ry="18"/>
</g>
</g>
</svg>
