<?xml version="1.0" encoding="UTF-8" standalone="no"?>
<!DOCTYPE svg PUBLIC "-//W3C//DTD SVG 1.1//EN"
 "http://www.w3.org/Graphics/SVG/1.1/DTD/svg11.dtd">
<!-- Generated by graphviz version 8.0.5 (0)
 -->
<!-- Title: mcProtec Pages: 1 -->
<svg width="1639pt" height="369pt"
 viewBox="0.00 0.00 1639.14 369.29" xmlns="http://www.w3.org/2000/svg" xmlns:xlink="http://www.w3.org/1999/xlink">
<g id="graph0" class="graph" transform="scale(1 1) rotate(0) translate(4 365.29)">
<title>mcProtec</title>
<polygon fill="white" stroke="none" points="-4,4 -4,-365.29 1635.14,-365.29 1635.14,4 -4,4"/>
<!-- start -->
<g id="node1" class="node">
<title>start</title>
<ellipse fill="#ffffff" stroke="#000000" cx="197.14" cy="-294.64" rx="27" ry="18"/>
</g>
<!-- critter_p_proc -->
<g id="node2" class="node">
<title>critter_p_proc</title>
<ellipse fill="#ffffff" stroke="#000000" cx="269.14" cy="-294.64" rx="27" ry="18"/>
</g>
<!-- pickup_p_proc -->
<g id="node3" class="node">
<title>pickup_p_proc</title>
<ellipse fill="#ffffff" stroke="#000000" cx="733.14" cy="-148.75" rx="27" ry="18"/>
</g>
<!-- Node998 -->
<g id="node4" class="node">
<title>Node998</title>
<ellipse fill="#ffffff" stroke="#000000" cx="733.14" cy="-18" rx="27" ry="18"/>
</g>
<!-- pickup_p_proc&#45;&gt;Node998 -->
<g id="edge1" class="edge">
<title>pickup_p_proc&#45;&gt;Node998</title>
<path fill="none" stroke="#555555" stroke-dasharray="1,5" d="M733.14,-130.39C733.14,-109.08 733.14,-72.66 733.14,-47.29"/>
<polygon fill="#555555" stroke="#555555" points="736.64,-47.5 733.14,-37.5 729.64,-47.5 736.64,-47.5"/>
</g>
<!-- talk_p_proc -->
<g id="node5" class="node">
<title>talk_p_proc</title>
<ellipse fill="#ffffff" stroke="#000000" cx="341.14" cy="-294.64" rx="27" ry="18"/>
</g>
<!-- Node004 -->
<g id="node6" class="node">
<title>Node004</title>
<ellipse fill="#ffffff" stroke="#000000" cx="341.14" cy="-148.75" rx="27" ry="18"/>
</g>
<!-- talk_p_proc&#45;&gt;Node004 -->
<g id="edge2" class="edge">
<title>talk_p_proc&#45;&gt;Node004</title>
<path fill="none" stroke="#555555" stroke-dasharray="1,5" d="M336.58,-276.57C334,-252.12 333.7,-206.86 335.68,-177.54"/>
<polygon fill="#555555" stroke="#555555" points="339.23,-178.06 336.59,-167.8 332.26,-177.47 339.23,-178.06"/>
</g>
<!-- talk_p_proc&#45;&gt;Node004 -->
<g id="edge3" class="edge">
<title>talk_p_proc&#45;&gt;Node004</title>
<path fill="none" stroke="#555555" stroke-dasharray="1,5" d="M345.69,-276.57C348.28,-252.12 348.58,-206.86 346.6,-177.54"/>
<polygon fill="#555555" stroke="#555555" points="350.02,-177.47 345.69,-167.8 343.05,-178.06 350.02,-177.47"/>
</g>
<!-- Node003 -->
<g id="node7" class="node">
<title>Node003</title>
<ellipse fill="#ffffff" stroke="#000000" cx="413.14" cy="-148.75" rx="27" ry="18"/>
</g>
<!-- talk_p_proc&#45;&gt;Node003 -->
<g id="edge4" class="edge">
<title>talk_p_proc&#45;&gt;Node003</title>
<path fill="none" stroke="#555555" stroke-dasharray="1,5" d="M349.4,-277.14C361.82,-252.31 385.43,-205.13 400.17,-175.68"/>
<polygon fill="#555555" stroke="#555555" points="403.63,-177.57 404.98,-167.06 397.37,-174.44 403.63,-177.57"/>
</g>
<!-- Node002 -->
<g id="node8" class="node">
<title>Node002</title>
<ellipse fill="#ffffff" stroke="#000000" cx="148.14" cy="-148.75" rx="148.14" ry="42.25"/>
<text text-anchor="middle" x="148.14" y="-161.32" font-family="Times,serif" font-size="14.00">Если хочешь поговорить с</text>
<text text-anchor="middle" x="148.14" y="-144.07" font-family="Times,serif" font-size="14.00">Вегейром, мы можем</text>
<text text-anchor="middle" x="148.14" y="-126.82" font-family="Times,serif" font-size="14.00">проводить тебя к нему.</text>
</g>
<!-- talk_p_proc&#45;&gt;Node002 -->
<g id="edge5" class="edge">
<title>talk_p_proc&#45;&gt;Node002</title>
<path fill="none" stroke="#555555" stroke-dasharray="1,5" d="M335.19,-276.72C329.4,-262.27 319.38,-241.69 305.14,-228 288.56,-212.05 268.09,-198.71 247.48,-187.81"/>
<polygon fill="#555555" stroke="#555555" points="249.19,-184.24 238.69,-182.82 246,-190.48 249.19,-184.24"/>
</g>
<!-- Node000 -->
<g id="node9" class="node">
<title>Node000</title>
<ellipse fill="#ffffff" stroke="#000000" cx="573.14" cy="-148.75" rx="115.39" ry="18"/>
<text text-anchor="middle" x="573.14" y="-144.07" font-family="Times,serif" font-size="14.00">Сдавайся или умри!</text>
</g>
<!-- talk_p_proc&#45;&gt;Node000 -->
<g id="edge6" class="edge">
<title>talk_p_proc&#45;&gt;Node000</title>
<path fill="none" stroke="#555555" stroke-dasharray="1,5" d="M346.7,-276.72C352.3,-262.05 362.25,-241.18 377.14,-228 398.01,-209.52 463.33,-185.36 512.87,-168.8"/>
<polygon fill="#555555" stroke="#555555" points="513.79,-171.86 522.19,-165.39 511.59,-165.21 513.79,-171.86"/>
</g>
<!-- Node996 -->
<g id="node18" class="node">
<title>Node996</title>
<ellipse fill="#ffffff" stroke="#000000" cx="460.14" cy="-18" rx="27" ry="18"/>
</g>
<!-- Node002&#45;&gt;Node996 -->
<g id="edge10" class="edge">
<title>Node002&#45;&gt;Node996</title>
<path fill="none" stroke="#008e99" d="M265.22,-122.57C287.01,-114.22 308.45,-103.14 326.14,-88.5 339.66,-77.3 331.72,-65.03 345.39,-54 367.46,-36.19 398.51,-27.43 422.75,-23.12"/>
<polygon fill="#008e99" stroke="#008e99" points="423.02,-26.46 432.35,-21.44 421.92,-19.55 423.02,-26.46"/>
<text text-anchor="middle" x="446.01" y="-75.2" font-family="Times,serif" font-size="14.00" fill="#008e99">Да, мне немедленно нужно</text>
<text text-anchor="middle" x="446.01" y="-57.95" font-family="Times,serif" font-size="14.00" fill="#008e99">увидеться с Вегейром.</text>
</g>
<!-- Node999 -->
<g id="node19" class="node">
<title>Node999</title>
<ellipse fill="#ffffff" stroke="#000000" cx="143.14" cy="-18" rx="27" ry="18"/>
</g>
<!-- Node002&#45;&gt;Node999 -->
<g id="edge11" class="edge">
<title>Node002&#45;&gt;Node999</title>
<path fill="none" stroke="#997700" d="M145.49,-106.32C145.17,-100.34 144.87,-94.27 144.64,-88.5 144.09,-74.93 143.74,-59.86 143.51,-47.23"/>
<polygon fill="#997700" stroke="#997700" points="147,-47.37 143.33,-37.43 140,-47.48 147,-47.37"/>
<text text-anchor="middle" x="235.89" y="-75.2" font-family="Times,serif" font-size="14.00" fill="#997700">Не сейчас. Я поговорю с</text>
<text text-anchor="middle" x="235.89" y="-57.95" font-family="Times,serif" font-size="14.00" fill="#997700">Вегейром позднее.</text>
</g>
<!-- Node000&#45;&gt;Node998 -->
<g id="edge9" class="edge">
<title>Node000&#45;&gt;Node998</title>
<path fill="none" stroke="#990061" d="M593.23,-130.74C624.59,-104.21 681.83,-55.79 684.14,-54 691.1,-48.59 698.8,-42.94 705.99,-37.8"/>
<polygon fill="#990061" stroke="#990061" points="707.59,-40.25 713.73,-31.62 703.54,-34.53 707.59,-40.25"/>
<text text-anchor="middle" x="706.64" y="-66.58" font-family="Times,serif" font-size="14.00" fill="#990061">Умри!</text>
</g>
<!-- Node000&#45;&gt;Node996 -->
<g id="edge8" class="edge">
<title>Node000&#45;&gt;Node996</title>
<path fill="none" stroke="#359900" d="M573.68,-130.37C573.39,-109.73 569.82,-75.42 551.14,-54 537.47,-38.32 515.96,-29.63 497.28,-24.83"/>
<polygon fill="#359900" stroke="#359900" points="498.22,-21.23 487.69,-22.43 496.67,-28.06 498.22,-21.23"/>
<text text-anchor="middle" x="603.76" y="-66.58" font-family="Times,serif" font-size="14.00" fill="#359900">Я сдаюсь.</text>
</g>
<!-- destroy_p_proc -->
<g id="node10" class="node">
<title>destroy_p_proc</title>
<ellipse fill="#ffffff" stroke="#000000" cx="413.14" cy="-294.64" rx="27" ry="18"/>
</g>
<!-- look_at_p_proc -->
<g id="node11" class="node">
<title>look_at_p_proc</title>
<ellipse fill="#ffffff" stroke="#000000" cx="582.14" cy="-294.64" rx="123.74" ry="30.05"/>
<text text-anchor="middle" x="582.14" y="-298.59" font-family="Times,serif" font-size="14.00">Вы видите охранника</text>
<text text-anchor="middle" x="582.14" y="-281.34" font-family="Times,serif" font-size="14.00">ушельцев.</text>
</g>
<!-- description_p_proc -->
<g id="node12" class="node">
<title>description_p_proc</title>
<ellipse fill="#ffffff" stroke="#000000" cx="847.14" cy="-294.64" rx="123.74" ry="30.05"/>
<text text-anchor="middle" x="847.14" y="-298.59" font-family="Times,serif" font-size="14.00">Вы видите охранника</text>
<text text-anchor="middle" x="847.14" y="-281.34" font-family="Times,serif" font-size="14.00">ушельцев.</text>
</g>
<!-- use_skill_on_p_proc -->
<g id="node13" class="node">
<title>use_skill_on_p_proc</title>
<ellipse fill="#ffffff" stroke="#000000" cx="1016.14" cy="-294.64" rx="27" ry="18"/>
</g>
<!-- damage_p_proc -->
<g id="node14" class="node">
<title>damage_p_proc</title>
<ellipse fill="#ffffff" stroke="#000000" cx="805.14" cy="-148.75" rx="27" ry="18"/>
</g>
<!-- damage_p_proc&#45;&gt;Node998 -->
<g id="edge7" class="edge">
<title>damage_p_proc&#45;&gt;Node998</title>
<path fill="none" stroke="#555555" stroke-dasharray="1,5" d="M796.02,-131.44C783.79,-109.58 761.96,-70.53 747.51,-44.69"/>
<polygon fill="#555555" stroke="#555555" points="750.12,-43.19 742.18,-36.17 744.01,-46.61 750.12,-43.19"/>
</g>
<!-- map_enter_p_proc -->
<g id="node15" class="node">
<title>map_enter_p_proc</title>
<ellipse fill="#ffffff" stroke="#000000" cx="1088.14" cy="-294.64" rx="27" ry="18"/>
</g>
<!-- map_exit_p_proc -->
<g id="node16" class="node">
<title>map_exit_p_proc</title>
<ellipse fill="#ffffff" stroke="#000000" cx="1160.14" cy="-294.64" rx="27" ry="18"/>
</g>
<!-- map_update_p_proc -->
<g id="node17" class="node">
<title>map_update_p_proc</title>
<ellipse fill="#ffffff" stroke="#000000" cx="1232.14" cy="-294.64" rx="27" ry="18"/>
</g>
<!-- Node005 -->
<g id="node20" class="node">
<title>Node005</title>
<ellipse fill="#ffffff" stroke="#000000" cx="1418.14" cy="-294.64" rx="141.24" ry="66.64"/>
<text text-anchor="middle" x="1418.14" y="-324.47" font-family="Times,serif" font-size="14.00">Ты тупее самого глупого</text>
<text text-anchor="middle" x="1418.14" y="-307.22" font-family="Times,serif" font-size="14.00">осла, да? Если хочешь</text>
<text text-anchor="middle" x="1418.14" y="-289.97" font-family="Times,serif" font-size="14.00">увидеть Вегейра, тебе</text>
<text text-anchor="middle" x="1418.14" y="-272.72" font-family="Times,serif" font-size="14.00">придется найти его</text>
<text text-anchor="middle" x="1418.14" y="-255.47" font-family="Times,serif" font-size="14.00">самостоятельно.</text>
</g>
<!-- timed_event_p_proc -->
<g id="node21" class="node">
<title>timed_event_p_proc</title>
<ellipse fill="#ffffff" stroke="#000000" cx="1604.14" cy="-294.64" rx="27" ry="18"/>
</g>
</g>
</svg>
