<?xml version="1.0" encoding="UTF-8" standalone="no"?>
<!DOCTYPE svg PUBLIC "-//W3C//DTD SVG 1.1//EN"
 "http://www.w3.org/Graphics/SVG/1.1/DTD/svg11.dtd">
<!-- Generated by graphviz version 8.0.5 (0)
 -->
<!-- Title: ncActres Pages: 1 -->
<svg width="6334pt" height="261pt"
 viewBox="0.00 0.00 6333.58 260.89" xmlns="http://www.w3.org/2000/svg" xmlns:xlink="http://www.w3.org/1999/xlink">
<g id="graph0" class="graph" transform="scale(1 1) rotate(0) translate(4 256.89)">
<title>ncActres</title>
<polygon fill="white" stroke="none" points="-4,4 -4,-256.89 6329.58,-256.89 6329.58,4 -4,4"/>
<!-- start -->
<g id="node1" class="node">
<title>start</title>
<ellipse fill="#ffffff" stroke="#000000" cx="3267.03" cy="-198.45" rx="27" ry="18"/>
</g>
<!-- critter_p_proc -->
<g id="node2" class="node">
<title>critter_p_proc</title>
<ellipse fill="#ffffff" stroke="#000000" cx="3339.03" cy="-198.45" rx="27" ry="18"/>
</g>
<!-- pickup_p_proc -->
<g id="node3" class="node">
<title>pickup_p_proc</title>
<ellipse fill="#ffffff" stroke="#000000" cx="3411.03" cy="-198.45" rx="27" ry="18"/>
</g>
<!-- talk_p_proc -->
<g id="node4" class="node">
<title>talk_p_proc</title>
<ellipse fill="#ffffff" stroke="#000000" cx="4590.03" cy="-198.45" rx="27" ry="18"/>
</g>
<!-- Node002 -->
<g id="node5" class="node">
<title>Node002</title>
<ellipse fill="#ffffff" stroke="#000000" cx="3992.03" cy="-90" rx="27" ry="18"/>
</g>
<!-- talk_p_proc&#45;&gt;Node002 -->
<g id="edge1" class="edge">
<title>talk_p_proc&#45;&gt;Node002</title>
<path fill="none" stroke="#555555" stroke-dasharray="1,5" d="M4563.95,-192.8C4468.65,-175.84 4139.06,-117.17 4028.51,-97.49"/>
<polygon fill="#555555" stroke="#555555" points="4029.37,-93.91 4018.91,-95.61 4028.14,-100.81 4029.37,-93.91"/>
</g>
<!-- Node008 -->
<g id="node6" class="node">
<title>Node008</title>
<ellipse fill="#ffffff" stroke="#000000" cx="4410.03" cy="-90" rx="27" ry="18"/>
</g>
<!-- talk_p_proc&#45;&gt;Node008 -->
<g id="edge2" class="edge">
<title>talk_p_proc&#45;&gt;Node008</title>
<path fill="none" stroke="#555555" stroke-dasharray="1,5" d="M4568.59,-187.24C4535.46,-169.42 4472.47,-132.39 4436.56,-109.82"/>
<polygon fill="#555555" stroke="#555555" points="4438.93,-106.55 4428.62,-104.14 4435.18,-112.45 4438.93,-106.55"/>
</g>
<!-- talk_p_proc&#45;&gt;Node008 -->
<g id="edge8" class="edge">
<title>talk_p_proc&#45;&gt;Node008</title>
<path fill="none" stroke="#555555" stroke-dasharray="1,5" d="M4572.57,-184.39C4542.05,-164.72 4479.29,-127.55 4441.2,-106.52"/>
<polygon fill="#555555" stroke="#555555" points="4443.08,-103.01 4432.62,-101.29 4439.73,-109.15 4443.08,-103.01"/>
</g>
<!-- Node010 -->
<g id="node7" class="node">
<title>Node010</title>
<ellipse fill="#ffffff" stroke="#000000" cx="4482.03" cy="-90" rx="27" ry="18"/>
</g>
<!-- talk_p_proc&#45;&gt;Node010 -->
<g id="edge3" class="edge">
<title>talk_p_proc&#45;&gt;Node010</title>
<path fill="none" stroke="#555555" stroke-dasharray="1,5" d="M4575.46,-183.09C4557.19,-165.08 4525.66,-134 4504.33,-112.98"/>
<polygon fill="#555555" stroke="#555555" points="4507.29,-111 4497.71,-106.47 4502.37,-115.98 4507.29,-111"/>
</g>
<!-- Node012 -->
<g id="node8" class="node">
<title>Node012</title>
<ellipse fill="#ffffff" stroke="#000000" cx="4554.03" cy="-90" rx="27" ry="18"/>
</g>
<!-- talk_p_proc&#45;&gt;Node012 -->
<g id="edge4" class="edge">
<title>talk_p_proc&#45;&gt;Node012</title>
<path fill="none" stroke="#555555" stroke-dasharray="1,5" d="M4584.4,-180.81C4578.73,-164.04 4569.88,-137.87 4563.19,-118.09"/>
<polygon fill="#555555" stroke="#555555" points="4566.25,-117.22 4559.73,-108.87 4559.62,-119.46 4566.25,-117.22"/>
</g>
<!-- Node013 -->
<g id="node9" class="node">
<title>Node013</title>
<ellipse fill="#ffffff" stroke="#000000" cx="4626.03" cy="-90" rx="27" ry="18"/>
</g>
<!-- talk_p_proc&#45;&gt;Node013 -->
<g id="edge5" class="edge">
<title>talk_p_proc&#45;&gt;Node013</title>
<path fill="none" stroke="#555555" stroke-dasharray="1,5" d="M4590.7,-180.34C4594.61,-163.21 4603.35,-136.61 4611.39,-116.89"/>
<polygon fill="#555555" stroke="#555555" points="4614.9,-118.59 4615.62,-108.02 4608.46,-115.83 4614.9,-118.59"/>
</g>
<!-- talk_p_proc&#45;&gt;Node013 -->
<g id="edge11" class="edge">
<title>talk_p_proc&#45;&gt;Node013</title>
<path fill="none" stroke="#555555" stroke-dasharray="1,5" d="M4600.3,-181.74C4607.88,-165.15 4617.18,-138.66 4622.7,-118.58"/>
<polygon fill="#555555" stroke="#555555" points="4626.27,-119.74 4625.34,-109.18 4619.49,-118.01 4626.27,-119.74"/>
</g>
<!-- Node014 -->
<g id="node10" class="node">
<title>Node014</title>
<ellipse fill="#ffffff" stroke="#000000" cx="4698.03" cy="-90" rx="27" ry="18"/>
</g>
<!-- talk_p_proc&#45;&gt;Node014 -->
<g id="edge6" class="edge">
<title>talk_p_proc&#45;&gt;Node014</title>
<path fill="none" stroke="#555555" stroke-dasharray="1,5" d="M4591.75,-180.46C4597,-169.38 4606.5,-154.98 4617.03,-144 4631.31,-129.11 4650.17,-115.4 4666.26,-105.65"/>
<polygon fill="#555555" stroke="#555555" points="4667.46,-108.42 4674.37,-100.39 4663.96,-102.36 4667.46,-108.42"/>
</g>
<!-- talk_p_proc&#45;&gt;Node014 -->
<g id="edge12" class="edge">
<title>talk_p_proc&#45;&gt;Node014</title>
<path fill="none" stroke="#555555" stroke-dasharray="1,5" d="M4604.99,-183.32C4613.33,-171.95 4623.57,-155.95 4635.03,-144 4646.59,-131.95 4661.15,-120.67 4673.47,-111.64"/>
<polygon fill="#555555" stroke="#555555" points="4675.33,-113.89 4681.38,-105.19 4671.23,-108.22 4675.33,-113.89"/>
</g>
<!-- Node001 -->
<g id="node11" class="node">
<title>Node001</title>
<ellipse fill="#ffffff" stroke="#000000" cx="4247.03" cy="-90" rx="27" ry="18"/>
</g>
<!-- talk_p_proc&#45;&gt;Node001 -->
<g id="edge7" class="edge">
<title>talk_p_proc&#45;&gt;Node001</title>
<path fill="none" stroke="#555555" stroke-dasharray="1,5" d="M4565.91,-189.96C4506.13,-171.41 4350.95,-123.25 4281.5,-101.7"/>
<polygon fill="#555555" stroke="#555555" points="4282.71,-98.1 4272.12,-98.48 4280.64,-104.78 4282.71,-98.1"/>
</g>
<!-- Node009 -->
<g id="node12" class="node">
<title>Node009</title>
<ellipse fill="#ffffff" stroke="#000000" cx="4816.03" cy="-90" rx="27" ry="18"/>
</g>
<!-- talk_p_proc&#45;&gt;Node009 -->
<g id="edge9" class="edge">
<title>talk_p_proc&#45;&gt;Node009</title>
<path fill="none" stroke="#555555" stroke-dasharray="1,5" d="M4597.3,-180.87C4603.34,-168.94 4613.06,-153.36 4626.03,-144 4638.61,-134.92 4728.57,-112.14 4780.07,-99.6"/>
<polygon fill="#555555" stroke="#555555" points="4780.85,-102.78 4789.74,-97.02 4779.2,-95.97 4780.85,-102.78"/>
</g>
<!-- Node011 -->
<g id="node13" class="node">
<title>Node011</title>
<ellipse fill="#ffffff" stroke="#000000" cx="5351.03" cy="-90" rx="27" ry="18"/>
</g>
<!-- talk_p_proc&#45;&gt;Node011 -->
<g id="edge10" class="edge">
<title>talk_p_proc&#45;&gt;Node011</title>
<path fill="none" stroke="#555555" stroke-dasharray="1,5" d="M4596.55,-180.61C4602.31,-168.2 4612,-152.14 4626.03,-144 4685.75,-109.37 5173.1,-95.22 5313.38,-91.84"/>
<polygon fill="#555555" stroke="#555555" points="5313.08,-95.32 5323,-91.59 5312.92,-88.32 5313.08,-95.32"/>
</g>
<!-- floater_rand_with_check_cust(305, 324, message_str(353, 500 + global_var(232))) -->
<g id="node30" class="node">
<title>floater_rand_with_check_cust(305, 324, message_str(353, 500 + global_var(232)))</title>
<ellipse fill="none" stroke="black" cx="4862.03" cy="-18" rx="422.64" ry="18"/>
<text text-anchor="middle" x="4862.03" y="-13.32" font-family="Times,serif" font-size="14.00">floater_rand_with_check_cust(305, 324, message_str(353, 500 + global_var(232)))</text>
</g>
<!-- Node009&#45;&gt;floater_rand_with_check_cust(305, 324, message_str(353, 500 + global_var(232))) -->
<g id="edge23" class="edge">
<title>Node009&#45;&gt;floater_rand_with_check_cust(305, 324, message_str(353, 500 + global_var(232)))</title>
<path fill="none" stroke="#555555" stroke-dasharray="1,5" d="M4826.47,-73.12C4831.88,-64.89 4838.62,-54.62 4844.78,-45.26"/>
<polygon fill="#555555" stroke="#555555" points="4848.1,-47.57 4850.67,-37.29 4842.25,-43.73 4848.1,-47.57"/>
</g>
<!-- floater_rand_with_check_cust(355 &#45; (5 * (global_var(259) &gt; 0)), 366 + (4 * (global_var(230) &gt; 0)), &quot;&quot;) -->
<g id="node31" class="node">
<title>floater_rand_with_check_cust(355 &#45; (5 * (global_var(259) &gt; 0)), 366 + (4 * (global_var(230) &gt; 0)), &quot;&quot;)</title>
<ellipse fill="none" stroke="black" cx="5814.03" cy="-18" rx="511.55" ry="18"/>
<text text-anchor="middle" x="5814.03" y="-13.32" font-family="Times,serif" font-size="14.00">floater_rand_with_check_cust(355 &#45; (5 * (global_var(259) &gt; 0)), 366 + (4 * (global_var(230) &gt; 0)), &quot;&quot;)</text>
</g>
<!-- Node011&#45;&gt;floater_rand_with_check_cust(355 &#45; (5 * (global_var(259) &gt; 0)), 366 + (4 * (global_var(230) &gt; 0)), &quot;&quot;) -->
<g id="edge24" class="edge">
<title>Node011&#45;&gt;floater_rand_with_check_cust(355 &#45; (5 * (global_var(259) &gt; 0)), 366 + (4 * (global_var(230) &gt; 0)), &quot;&quot;)</title>
<path fill="none" stroke="#555555" stroke-dasharray="1,5" d="M5377.25,-85.04C5436.45,-76.09 5583.63,-53.83 5690.83,-37.63"/>
<polygon fill="#555555" stroke="#555555" points="5691.04,-40.98 5700.4,-36.03 5689.99,-34.06 5691.04,-40.98"/>
</g>
<!-- destroy_p_proc -->
<g id="node14" class="node">
<title>destroy_p_proc</title>
<ellipse fill="#ffffff" stroke="#000000" cx="4662.03" cy="-198.45" rx="27" ry="18"/>
</g>
<!-- look_at_p_proc -->
<g id="node15" class="node">
<title>look_at_p_proc</title>
<ellipse fill="#ffffff" stroke="#000000" cx="4850.03" cy="-198.45" rx="142.75" ry="18"/>
<text text-anchor="middle" x="4850.03" y="-193.77" font-family="Times,serif" font-size="14.00">Вы видите порноактрису.</text>
</g>
<!-- description_p_proc -->
<g id="node16" class="node">
<title>description_p_proc</title>
<ellipse fill="#ffffff" stroke="#000000" cx="5172.03" cy="-198.45" rx="161.4" ry="54.45"/>
<text text-anchor="middle" x="5172.03" y="-219.65" font-family="Times,serif" font-size="14.00">Вы видите привлекательную</text>
<text text-anchor="middle" x="5172.03" y="-202.4" font-family="Times,serif" font-size="14.00">женщину. Кажется, она</text>
<text text-anchor="middle" x="5172.03" y="-185.15" font-family="Times,serif" font-size="14.00">разговаривает сама с</text>
<text text-anchor="middle" x="5172.03" y="-167.9" font-family="Times,serif" font-size="14.00">собой.</text>
</g>
<!-- use_skill_on_p_proc -->
<g id="node17" class="node">
<title>use_skill_on_p_proc</title>
<ellipse fill="#ffffff" stroke="#000000" cx="5378.03" cy="-198.45" rx="27" ry="18"/>
</g>
<!-- damage_p_proc -->
<g id="node18" class="node">
<title>damage_p_proc</title>
<ellipse fill="#ffffff" stroke="#000000" cx="5450.03" cy="-198.45" rx="27" ry="18"/>
</g>
<!-- map_enter_p_proc -->
<g id="node19" class="node">
<title>map_enter_p_proc</title>
<ellipse fill="#ffffff" stroke="#000000" cx="5522.03" cy="-198.45" rx="27" ry="18"/>
</g>
<!-- timed_event_p_proc -->
<g id="node20" class="node">
<title>timed_event_p_proc</title>
<ellipse fill="#ffffff" stroke="#000000" cx="3483.03" cy="-198.45" rx="27" ry="18"/>
</g>
<!-- timed_event_p_proc&#45;&gt;Node002 -->
<g id="edge13" class="edge">
<title>timed_event_p_proc&#45;&gt;Node002</title>
<path fill="none" stroke="#555555" stroke-dasharray="1,5" d="M3508.62,-192.1C3592.38,-174.58 3858.54,-118.92 3955.9,-98.56"/>
<polygon fill="#555555" stroke="#555555" points="3956.32,-101.84 3965.39,-96.36 3954.88,-94.98 3956.32,-101.84"/>
</g>
<!-- timed_event_p_proc&#45;&gt;Node001 -->
<g id="edge14" class="edge">
<title>timed_event_p_proc&#45;&gt;Node001</title>
<path fill="none" stroke="#555555" stroke-dasharray="1,5" d="M3509.33,-193.78C3623.42,-177.89 4075.8,-114.86 4209.58,-96.22"/>
<polygon fill="#555555" stroke="#555555" points="4210.03,-99.55 4219.45,-94.7 4209.06,-92.62 4210.03,-99.55"/>
</g>
<!-- Node003 -->
<g id="node21" class="node">
<title>Node003</title>
<ellipse fill="#ffffff" stroke="#000000" cx="3483.03" cy="-90" rx="27" ry="18"/>
</g>
<!-- timed_event_p_proc&#45;&gt;Node003 -->
<g id="edge15" class="edge">
<title>timed_event_p_proc&#45;&gt;Node003</title>
<path fill="none" stroke="#555555" stroke-dasharray="1,5" d="M3483.03,-180.34C3483.03,-163.91 3483.03,-138.79 3483.03,-119.36"/>
<polygon fill="#555555" stroke="#555555" points="3486.53,-119.41 3483.03,-109.41 3479.53,-119.41 3486.53,-119.41"/>
</g>
<!-- Node004 -->
<g id="node22" class="node">
<title>Node004</title>
<ellipse fill="#ffffff" stroke="#000000" cx="3555.03" cy="-90" rx="27" ry="18"/>
</g>
<!-- timed_event_p_proc&#45;&gt;Node004 -->
<g id="edge16" class="edge">
<title>timed_event_p_proc&#45;&gt;Node004</title>
<path fill="none" stroke="#555555" stroke-dasharray="1,5" d="M3493.65,-181.74C3505.4,-164.37 3524.5,-136.14 3538.27,-115.78"/>
<polygon fill="#555555" stroke="#555555" points="3541.66,-118.02 3544.36,-107.77 3535.86,-114.09 3541.66,-118.02"/>
</g>
<!-- Node005 -->
<g id="node23" class="node">
<title>Node005</title>
<ellipse fill="#ffffff" stroke="#000000" cx="1954.03" cy="-90" rx="27" ry="18"/>
</g>
<!-- timed_event_p_proc&#45;&gt;Node005 -->
<g id="edge17" class="edge">
<title>timed_event_p_proc&#45;&gt;Node005</title>
<path fill="none" stroke="#555555" stroke-dasharray="1,5" d="M3476.71,-180.71C3471.01,-168.2 3461.31,-151.93 3447.03,-144 3414.24,-125.8 2221.45,-97.21 1992,-91.87"/>
<polygon fill="#555555" stroke="#555555" points="1992.29,-88.36 1982.21,-91.62 1992.12,-95.35 1992.29,-88.36"/>
</g>
<!-- Node006 -->
<g id="node24" class="node">
<title>Node006</title>
<ellipse fill="#ffffff" stroke="#000000" cx="2662.03" cy="-90" rx="27" ry="18"/>
</g>
<!-- timed_event_p_proc&#45;&gt;Node006 -->
<g id="edge18" class="edge">
<title>timed_event_p_proc&#45;&gt;Node006</title>
<path fill="none" stroke="#555555" stroke-dasharray="1,5" d="M3476.52,-180.58C3470.77,-168.17 3461.09,-152.1 3447.03,-144 3381.86,-106.45 2847.71,-94.28 2699.84,-91.61"/>
<polygon fill="#555555" stroke="#555555" points="2700.15,-88.1 2690.09,-91.43 2700.03,-95.1 2700.15,-88.1"/>
</g>
<!-- Node007 -->
<g id="node25" class="node">
<title>Node007</title>
<ellipse fill="#ffffff" stroke="#000000" cx="3411.03" cy="-90" rx="27" ry="18"/>
</g>
<!-- timed_event_p_proc&#45;&gt;Node007 -->
<g id="edge19" class="edge">
<title>timed_event_p_proc&#45;&gt;Node007</title>
<path fill="none" stroke="#555555" stroke-dasharray="1,5" d="M3472.33,-181.53C3465.18,-170.9 3455.55,-156.6 3447.03,-144 3440.81,-134.8 3433.96,-124.71 3427.92,-115.83"/>
<polygon fill="#555555" stroke="#555555" points="3430.27,-114.06 3421.76,-107.76 3424.49,-118 3430.27,-114.06"/>
</g>
<!-- floater_rand_with_check_cust(233 &#45; (3 * (get_critter_stat(dude_obj, 34) == 0)), 238 + (6 * (get_critter_stat(dude_obj, 34) == 1)), message_str(353, 500 + global_var(232))) -->
<g id="node27" class="node">
<title>floater_rand_with_check_cust(233 &#45; (3 * (get_critter_stat(dude_obj, 34) == 0)), 238 + (6 * (get_critter_stat(dude_obj, 34) == 1)), message_str(353, 500 + global_var(232)))</title>
<ellipse fill="none" stroke="black" cx="3555.03" cy="-18" rx="866.68" ry="18"/>
<text text-anchor="middle" x="3555.03" y="-13.32" font-family="Times,serif" font-size="14.00">floater_rand_with_check_cust(233 &#45; (3 * (get_critter_stat(dude_obj, 34) == 0)), 238 + (6 * (get_critter_stat(dude_obj, 34) == 1)), message_str(353, 500 + global_var(232)))</text>
</g>
<!-- Node004&#45;&gt;floater_rand_with_check_cust(233 &#45; (3 * (get_critter_stat(dude_obj, 34) == 0)), 238 + (6 * (get_critter_stat(dude_obj, 34) == 1)), message_str(353, 500 + global_var(232))) -->
<g id="edge20" class="edge">
<title>Node004&#45;&gt;floater_rand_with_check_cust(233 &#45; (3 * (get_critter_stat(dude_obj, 34) == 0)), 238 + (6 * (get_critter_stat(dude_obj, 34) == 1)), message_str(353, 500 + global_var(232)))</title>
<path fill="none" stroke="#555555" stroke-dasharray="1,5" d="M3555.03,-71.7C3555.03,-64.24 3555.03,-55.32 3555.03,-46.97"/>
<polygon fill="#555555" stroke="#555555" points="3558.53,-47.1 3555.03,-37.1 3551.53,-47.1 3558.53,-47.1"/>
</g>
<!-- floater_rand_with_check_cust(256 &#45; (6 * (get_critter_stat(dude_obj, 34) == 0)), 260, message_str(353, 400 + global_var(231))) -->
<g id="node28" class="node">
<title>floater_rand_with_check_cust(256 &#45; (6 * (get_critter_stat(dude_obj, 34) == 0)), 260, message_str(353, 400 + global_var(231)))</title>
<ellipse fill="none" stroke="black" cx="642.03" cy="-18" rx="642.03" ry="18"/>
<text text-anchor="middle" x="642.03" y="-13.32" font-family="Times,serif" font-size="14.00">floater_rand_with_check_cust(256 &#45; (6 * (get_critter_stat(dude_obj, 34) == 0)), 260, message_str(353, 400 + global_var(231)))</text>
</g>
<!-- Node005&#45;&gt;floater_rand_with_check_cust(256 &#45; (6 * (get_critter_stat(dude_obj, 34) == 0)), 260, message_str(353, 400 + global_var(231))) -->
<g id="edge21" class="edge">
<title>Node005&#45;&gt;floater_rand_with_check_cust(256 &#45; (6 * (get_critter_stat(dude_obj, 34) == 0)), 260, message_str(353, 400 + global_var(231)))</title>
<path fill="none" stroke="#555555" stroke-dasharray="1,5" d="M1926.93,-87.55C1803.06,-80.95 1282.31,-53.16 942.97,-35.06"/>
<polygon fill="#555555" stroke="#555555" points="943.41,-31.52 933.24,-34.48 943.03,-38.51 943.41,-31.52"/>
</g>
<!-- floater_rand_with_check_cust(271 &#45; (6 * (get_critter_stat(dude_obj, 34) == 0)), 275, message_str(353, 300 + (global_var(230) % 100))) -->
<g id="node29" class="node">
<title>floater_rand_with_check_cust(271 &#45; (6 * (get_critter_stat(dude_obj, 34) == 0)), 275, message_str(353, 300 + (global_var(230) % 100)))</title>
<ellipse fill="none" stroke="black" cx="1986.03" cy="-18" rx="684.12" ry="18"/>
<text text-anchor="middle" x="1986.03" y="-13.32" font-family="Times,serif" font-size="14.00">floater_rand_with_check_cust(271 &#45; (6 * (get_critter_stat(dude_obj, 34) == 0)), 275, message_str(353, 300 + (global_var(230) % 100)))</text>
</g>
<!-- Node006&#45;&gt;floater_rand_with_check_cust(271 &#45; (6 * (get_critter_stat(dude_obj, 34) == 0)), 275, message_str(353, 300 + (global_var(230) % 100))) -->
<g id="edge22" class="edge">
<title>Node006&#45;&gt;floater_rand_with_check_cust(271 &#45; (6 * (get_critter_stat(dude_obj, 34) == 0)), 275, message_str(353, 300 + (global_var(230) % 100)))</title>
<path fill="none" stroke="#555555" stroke-dasharray="1,5" d="M2635.11,-86.21C2556.9,-78.11 2324.81,-54.08 2160.56,-37.07"/>
<polygon fill="#555555" stroke="#555555" points="2161.15,-33.51 2150.84,-35.96 2160.43,-40.47 2161.15,-33.51"/>
</g>
<!-- map_update_p_proc -->
<g id="node26" class="node">
<title>map_update_p_proc</title>
<ellipse fill="#ffffff" stroke="#000000" cx="5594.03" cy="-198.45" rx="27" ry="18"/>
</g>
<!-- floater_rand_with_check_cust -->
<g id="node32" class="node">
<title>floater_rand_with_check_cust</title>
<ellipse fill="#ffffff" stroke="#000000" cx="5666.03" cy="-198.45" rx="27" ry="18"/>
</g>
</g>
</svg>
