<?xml version="1.0" encoding="UTF-8" standalone="no"?>
<!DOCTYPE svg PUBLIC "-//W3C//DTD SVG 1.1//EN"
 "http://www.w3.org/Graphics/SVG/1.1/DTD/svg11.dtd">
<!-- Generated by graphviz version 8.0.5 (0)
 -->
<!-- Title: ncBarten Pages: 1 -->
<svg width="1854pt" height="817pt"
 viewBox="0.00 0.00 1853.65 816.74" xmlns="http://www.w3.org/2000/svg" xmlns:xlink="http://www.w3.org/1999/xlink">
<g id="graph0" class="graph" transform="scale(1 1) rotate(0) translate(4 812.74)">
<title>ncBarten</title>
<polygon fill="white" stroke="none" points="-4,4 -4,-812.74 1849.65,-812.74 1849.65,4 -4,4"/>
<!-- start -->
<g id="node1" class="node">
<title>start</title>
<ellipse fill="#ffffff" stroke="#000000" cx="489.65" cy="-754.29" rx="27" ry="18"/>
</g>
<!-- critter_p_proc -->
<g id="node2" class="node">
<title>critter_p_proc</title>
<ellipse fill="#ffffff" stroke="#000000" cx="561.65" cy="-754.29" rx="27" ry="18"/>
</g>
<!-- pickup_p_proc -->
<g id="node3" class="node">
<title>pickup_p_proc</title>
<ellipse fill="#ffffff" stroke="#000000" cx="633.65" cy="-754.29" rx="27" ry="18"/>
</g>
<!-- Node998 -->
<g id="node4" class="node">
<title>Node998</title>
<ellipse fill="#ffffff" stroke="#000000" cx="633.65" cy="-547.41" rx="32.27" ry="18"/>
<text text-anchor="middle" x="633.65" y="-542.73" font-family="Times,serif" font-size="14.00">Эй! </text>
</g>
<!-- pickup_p_proc&#45;&gt;Node998 -->
<g id="edge1" class="edge">
<title>pickup_p_proc&#45;&gt;Node998</title>
<path fill="none" stroke="#555555" stroke-dasharray="1,5" d="M633.65,-735.82C633.65,-700.37 633.65,-619.68 633.65,-576.65"/>
<polygon fill="#555555" stroke="#555555" points="637.15,-576.83 633.65,-566.83 630.15,-576.83 637.15,-576.83"/>
</g>
<!-- talk_p_proc -->
<g id="node5" class="node">
<title>talk_p_proc</title>
<ellipse fill="#ffffff" stroke="#000000" cx="758.65" cy="-754.29" rx="27" ry="18"/>
</g>
<!-- Node004 -->
<g id="node6" class="node">
<title>Node004</title>
<ellipse fill="#ffffff" stroke="#000000" cx="710.65" cy="-547.41" rx="27" ry="18"/>
</g>
<!-- talk_p_proc&#45;&gt;Node004 -->
<g id="edge2" class="edge">
<title>talk_p_proc&#45;&gt;Node004</title>
<path fill="none" stroke="#555555" stroke-dasharray="1,5" d="M754.64,-736.18C746.35,-700.77 727.24,-619.22 717.16,-576.18"/>
<polygon fill="#555555" stroke="#555555" points="720.37,-575.56 714.68,-566.62 713.56,-577.16 720.37,-575.56"/>
</g>
<!-- Node005 -->
<g id="node7" class="node">
<title>Node005</title>
<ellipse fill="#ffffff" stroke="#000000" cx="877.65" cy="-547.41" rx="122.15" ry="115.44"/>
<text text-anchor="middle" x="877.65" y="-611.73" font-family="Times,serif" font-size="14.00">Э&#45;э&#45;эй, чемпион! Чем</text>
<text text-anchor="middle" x="877.65" y="-594.48" font-family="Times,serif" font-size="14.00">траванешься?</text>
<text text-anchor="middle" x="877.65" y="-577.23" font-family="Times,serif" font-size="14.00">&#45;&#45;&#45;</text>
<text text-anchor="middle" x="877.65" y="-559.98" font-family="Times,serif" font-size="14.00">Чем траванешься,</text>
<text text-anchor="middle" x="877.65" y="-542.73" font-family="Times,serif" font-size="14.00">приятель?</text>
<text text-anchor="middle" x="877.65" y="-525.48" font-family="Times,serif" font-size="14.00">&#45;&#45;&#45;</text>
<text text-anchor="middle" x="877.65" y="-508.23" font-family="Times,serif" font-size="14.00">Эй! </text>
<text text-anchor="middle" x="877.65" y="-490.98" font-family="Times,serif" font-size="14.00">&#45;&#45;&#45;</text>
<text text-anchor="middle" x="877.65" y="-473.73" font-family="Times,serif" font-size="14.00">! Чем траванешься?</text>
</g>
<!-- talk_p_proc&#45;&gt;Node005 -->
<g id="edge3" class="edge">
<title>talk_p_proc&#45;&gt;Node005</title>
<path fill="none" stroke="#555555" stroke-dasharray="1,5" d="M767.99,-737.22C778.31,-719.44 795.89,-689.18 813.98,-658.04"/>
<polygon fill="#555555" stroke="#555555" points="817.35,-660.2 819.34,-649.8 811.3,-656.69 817.35,-660.2"/>
</g>
<!-- Node999 -->
<g id="node19" class="node">
<title>Node999</title>
<ellipse fill="#ffffff" stroke="#000000" cx="220.65" cy="-30.05" rx="27" ry="18"/>
</g>
<!-- Node005&#45;&gt;Node999 -->
<g id="edge8" class="edge">
<title>Node005&#45;&gt;Node999</title>
<path fill="none" stroke="#99001d" d="M796.36,-460.96C781.01,-449.25 764.21,-438.89 746.65,-431.97 689.04,-409.29 249.86,-428.45 189.65,-413.97 118.85,-396.95 80.42,-405.7 41.4,-344.22 -13.58,-257.59 -13.99,-199.73 41.4,-113.35 72.62,-64.66 140.68,-44.4 183.37,-36.24"/>
<polygon fill="#99001d" stroke="#99001d" points="183.92,-39.52 193.16,-34.33 182.7,-32.63 183.92,-39.52"/>
<text text-anchor="middle" x="111.78" y="-232.74" font-family="Times,serif" font-size="14.00" fill="#99001d">Травиться? Моя не</text>
<text text-anchor="middle" x="111.78" y="-215.49" font-family="Times,serif" font-size="14.00" fill="#99001d">травиться!</text>
</g>
<!-- Node005&#45;&gt;Node999 -->
<g id="edge13" class="edge">
<title>Node005&#45;&gt;Node999</title>
<path fill="none" stroke="#993500" d="M794.78,-462.36C779.73,-450.64 763.44,-439.91 746.65,-431.97 702.66,-411.18 686.6,-422.29 638.65,-413.97 466.45,-384.11 371.07,-471.83 251.65,-344.22 177.3,-264.77 199.87,-119.39 213.56,-58.76"/>
<polygon fill="#993500" stroke="#993500" points="217.18,-59.67 216.07,-49.13 210.37,-58.06 217.18,-59.67"/>
<text text-anchor="middle" x="301.15" y="-224.11" font-family="Times,serif" font-size="14.00" fill="#993500">Нет, спасибо.</text>
</g>
<!-- Node990 -->
<g id="node20" class="node">
<title>Node990</title>
<ellipse fill="#ffffff" stroke="#000000" cx="1084.65" cy="-30.05" rx="127.99" ry="30.05"/>
<text text-anchor="middle" x="1084.65" y="-34" font-family="Times,serif" font-size="14.00">Приятно было иметь с</text>
<text text-anchor="middle" x="1084.65" y="-16.75" font-family="Times,serif" font-size="14.00">тобой дело.</text>
</g>
<!-- Node005&#45;&gt;Node990 -->
<g id="edge7" class="edge">
<title>Node005&#45;&gt;Node990</title>
<path fill="none" stroke="#00990f" d="M987.68,-496.38C1021.68,-475.62 1055.88,-448.25 1077.65,-413.97 1150.08,-299.99 1026.44,-208.88 1121.9,-113.35 1160.57,-74.66 1207.91,-136.76 1243.65,-95.35 1263.88,-71.91 1241.44,-56.91 1207.66,-47.35"/>
<polygon fill="#00990f" stroke="#00990f" points="1208.91,-43.8 1198.36,-44.68 1207.16,-50.57 1208.91,-43.8"/>
<text text-anchor="middle" x="1196.53" y="-224.11" font-family="Times,serif" font-size="14.00" fill="#00990f">Тра&#45;виться &#45; хорошо</text>
</g>
<!-- Node005&#45;&gt;Node990 -->
<g id="edge9" class="edge">
<title>Node005&#45;&gt;Node990</title>
<path fill="none" stroke="#004a99" d="M996.6,-520.49C1088.87,-493.46 1210.68,-441 1269.65,-344.22 1300.44,-293.7 1302.71,-120.7 1261.65,-78.1 1247.81,-63.74 1230.12,-53.6 1211.31,-46.46"/>
<polygon fill="#004a99" stroke="#004a99" points="1212.67,-42.88 1202.07,-42.9 1210.37,-49.49 1212.67,-42.88"/>
<text text-anchor="middle" x="1376.28" y="-224.11" font-family="Times,serif" font-size="14.00" fill="#004a99">Что у вас есть выпить?</text>
</g>
<!-- Node005&#45;&gt;Node990 -->
<g id="edge10" class="edge">
<title>Node005&#45;&gt;Node990</title>
<path fill="none" stroke="#779900" d="M994.83,-513.86C1157.64,-467.48 1435.56,-383.63 1463.65,-344.22 1523.21,-260.67 1528.05,-193.24 1463.65,-113.35 1432.59,-74.83 1312.25,-53.41 1215.4,-42.16"/>
<polygon fill="#779900" stroke="#779900" points="1215.94,-38.58 1205.61,-40.93 1215.15,-45.54 1215.94,-38.58"/>
<text text-anchor="middle" x="1602.53" y="-224.11" font-family="Times,serif" font-size="14.00" fill="#779900">Какие у вас есть колеса?</text>
</g>
<!-- Node006 -->
<g id="node21" class="node">
<title>Node006</title>
<ellipse fill="#ffffff" stroke="#000000" cx="513.65" cy="-228.79" rx="153.97" ry="115.44"/>
<text text-anchor="middle" x="513.65" y="-293.11" font-family="Times,serif" font-size="14.00">О, ты имеешь в виду</text>
<text text-anchor="middle" x="513.65" y="-275.86" font-family="Times,serif" font-size="14.00">старину МакГи? Он</text>
<text text-anchor="middle" x="513.65" y="-258.61" font-family="Times,serif" font-size="14.00">безвреден. Потратил целое</text>
<text text-anchor="middle" x="513.65" y="-241.36" font-family="Times,serif" font-size="14.00">состояние на этот старый</text>
<text text-anchor="middle" x="513.65" y="-224.11" font-family="Times,serif" font-size="14.00">игральный автомат, и за</text>
<text text-anchor="middle" x="513.65" y="-206.86" font-family="Times,serif" font-size="14.00">несколько лет ни разу ни</text>
<text text-anchor="middle" x="513.65" y="-189.61" font-family="Times,serif" font-size="14.00">выиграл. Как бы то ни</text>
<text text-anchor="middle" x="513.65" y="-172.36" font-family="Times,serif" font-size="14.00">было... тебе что&#45;нибудь</text>
<text text-anchor="middle" x="513.65" y="-155.11" font-family="Times,serif" font-size="14.00">налить, друг мой?</text>
</g>
<!-- Node005&#45;&gt;Node006 -->
<g id="edge11" class="edge">
<title>Node005&#45;&gt;Node006</title>
<path fill="none" stroke="#8f0099" d="M791.76,-464.97C777.27,-453.14 761.95,-441.69 746.65,-431.97 729.85,-421.3 722.2,-425.03 705.65,-413.97 671.1,-390.88 637.13,-361.28 607.59,-332.59"/>
<polygon fill="#8f0099" stroke="#8f0099" points="610.36,-330.43 600.77,-325.92 605.46,-335.42 610.36,-330.43"/>
<text text-anchor="middle" x="789.65" y="-400.67" font-family="Times,serif" font-size="14.00" fill="#8f0099">Кто этот старик у того</text>
<text text-anchor="middle" x="789.65" y="-383.42" font-family="Times,serif" font-size="14.00" fill="#8f0099">паршивого игрального</text>
<text text-anchor="middle" x="789.65" y="-366.17" font-family="Times,serif" font-size="14.00" fill="#8f0099">автомата?</text>
</g>
<!-- Node007 -->
<g id="node22" class="node">
<title>Node007</title>
<ellipse fill="#ffffff" stroke="#000000" cx="877.65" cy="-228.79" rx="152.91" ry="115.44"/>
<text text-anchor="middle" x="877.65" y="-293.11" font-family="Times,serif" font-size="14.00">Это сынок Большого</text>
<text text-anchor="middle" x="877.65" y="-275.86" font-family="Times,serif" font-size="14.00">Хесуса, Хесусик. Он и его</text>
<text text-anchor="middle" x="877.65" y="-258.61" font-family="Times,serif" font-size="14.00">нож &#45; неразлучные</text>
<text text-anchor="middle" x="877.65" y="-241.36" font-family="Times,serif" font-size="14.00">друзья... Я видел, как он</text>
<text text-anchor="middle" x="877.65" y="-224.11" font-family="Times,serif" font-size="14.00">вытворяет с этим ножом</text>
<text text-anchor="middle" x="877.65" y="-206.86" font-family="Times,serif" font-size="14.00">поразительные вещи... Как</text>
<text text-anchor="middle" x="877.65" y="-189.61" font-family="Times,serif" font-size="14.00">бы то ни было... тебе</text>
<text text-anchor="middle" x="877.65" y="-172.36" font-family="Times,serif" font-size="14.00">что&#45;нибудь налить, друг</text>
<text text-anchor="middle" x="877.65" y="-155.11" font-family="Times,serif" font-size="14.00">мой?</text>
</g>
<!-- Node005&#45;&gt;Node007 -->
<g id="edge12" class="edge">
<title>Node005&#45;&gt;Node007</title>
<path fill="none" stroke="#009962" d="M877.65,-431.65C877.65,-406.88 877.65,-380.56 877.65,-355.39"/>
<polygon fill="#009962" stroke="#009962" points="881.15,-355.68 877.65,-345.68 874.15,-355.68 881.15,-355.68"/>
<text text-anchor="middle" x="975.53" y="-392.05" font-family="Times,serif" font-size="14.00" fill="#009962">Кто этот парень с ножом у</text>
<text text-anchor="middle" x="975.53" y="-374.8" font-family="Times,serif" font-size="14.00" fill="#009962">барной стойки?</text>
</g>
<!-- destroy_p_proc -->
<g id="node8" class="node">
<title>destroy_p_proc</title>
<ellipse fill="#ffffff" stroke="#000000" cx="830.65" cy="-754.29" rx="27" ry="18"/>
</g>
<!-- look_at_p_proc -->
<g id="node9" class="node">
<title>look_at_p_proc</title>
<ellipse fill="#ffffff" stroke="#000000" cx="990.65" cy="-754.29" rx="114.87" ry="18"/>
<text text-anchor="middle" x="990.65" y="-749.62" font-family="Times,serif" font-size="14.00">Вы видите бармена.</text>
</g>
<!-- description_p_proc -->
<g id="node10" class="node">
<title>description_p_proc</title>
<ellipse fill="#ffffff" stroke="#000000" cx="1275.65" cy="-754.29" rx="151.85" ry="54.45"/>
<text text-anchor="middle" x="1275.65" y="-775.49" font-family="Times,serif" font-size="14.00">Вы видите маленького</text>
<text text-anchor="middle" x="1275.65" y="-758.24" font-family="Times,serif" font-size="14.00">толстого человека за</text>
<text text-anchor="middle" x="1275.65" y="-740.99" font-family="Times,serif" font-size="14.00">барной стойкой. Он кивает</text>
<text text-anchor="middle" x="1275.65" y="-723.74" font-family="Times,serif" font-size="14.00">вам.</text>
</g>
<!-- use_skill_on_p_proc -->
<g id="node11" class="node">
<title>use_skill_on_p_proc</title>
<ellipse fill="#ffffff" stroke="#000000" cx="1472.65" cy="-754.29" rx="27" ry="18"/>
</g>
<!-- damage_p_proc -->
<g id="node12" class="node">
<title>damage_p_proc</title>
<ellipse fill="#ffffff" stroke="#000000" cx="1549.65" cy="-754.29" rx="32.27" ry="18"/>
<text text-anchor="middle" x="1549.65" y="-749.62" font-family="Times,serif" font-size="14.00">Эй! </text>
</g>
<!-- map_enter_p_proc -->
<g id="node13" class="node">
<title>map_enter_p_proc</title>
<ellipse fill="#ffffff" stroke="#000000" cx="1626.65" cy="-754.29" rx="27" ry="18"/>
</g>
<!-- timed_event_p_proc -->
<g id="node14" class="node">
<title>timed_event_p_proc</title>
<ellipse fill="#ffffff" stroke="#000000" cx="1698.65" cy="-754.29" rx="27" ry="18"/>
</g>
<!-- Node001 -->
<g id="node15" class="node">
<title>Node001</title>
<ellipse fill="#ffffff" stroke="#000000" cx="1454.65" cy="-547.41" rx="151.32" ry="66.64"/>
<text text-anchor="middle" x="1454.65" y="-577.23" font-family="Times,serif" font-size="14.00">Эй! </text>
<text text-anchor="middle" x="1454.65" y="-559.98" font-family="Times,serif" font-size="14.00">&#45;&#45;&#45;</text>
<text text-anchor="middle" x="1454.65" y="-542.73" font-family="Times,serif" font-size="14.00">! Давно пора было надрать</text>
<text text-anchor="middle" x="1454.65" y="-525.48" font-family="Times,serif" font-size="14.00">задницу Анклаву! Хочешь</text>
<text text-anchor="middle" x="1454.65" y="-508.23" font-family="Times,serif" font-size="14.00">выпить?</text>
</g>
<!-- timed_event_p_proc&#45;&gt;Node001 -->
<g id="edge4" class="edge">
<title>timed_event_p_proc&#45;&gt;Node001</title>
<path fill="none" stroke="#555555" stroke-dasharray="1,5" d="M1689.87,-737.26C1683.27,-726.05 1673.52,-711.12 1662.65,-699.84 1657.27,-694.26 1596.56,-650.2 1542.11,-611.04"/>
<polygon fill="#555555" stroke="#555555" points="1544.6,-607.8 1534.43,-604.8 1540.51,-613.48 1544.6,-607.8"/>
</g>
<!-- Node002 -->
<g id="node16" class="node">
<title>Node002</title>
<ellipse fill="#ffffff" stroke="#000000" cx="1698.65" cy="-547.41" rx="74.95" ry="42.25"/>
<text text-anchor="middle" x="1698.65" y="-559.98" font-family="Times,serif" font-size="14.00">Эй! </text>
<text text-anchor="middle" x="1698.65" y="-542.73" font-family="Times,serif" font-size="14.00">&#45;&#45;&#45;</text>
<text text-anchor="middle" x="1698.65" y="-525.48" font-family="Times,serif" font-size="14.00">! Как дела?!</text>
</g>
<!-- timed_event_p_proc&#45;&gt;Node002 -->
<g id="edge5" class="edge">
<title>timed_event_p_proc&#45;&gt;Node002</title>
<path fill="none" stroke="#555555" stroke-dasharray="1,5" d="M1698.65,-735.82C1698.65,-706.3 1698.65,-645.4 1698.65,-601.01"/>
<polygon fill="#555555" stroke="#555555" points="1702.15,-601.11 1698.65,-591.11 1695.15,-601.11 1702.15,-601.11"/>
</g>
<!-- Node003 -->
<g id="node17" class="node">
<title>Node003</title>
<ellipse fill="#ffffff" stroke="#000000" cx="1818.65" cy="-547.41" rx="27" ry="18"/>
</g>
<!-- timed_event_p_proc&#45;&gt;Node003 -->
<g id="edge6" class="edge">
<title>timed_event_p_proc&#45;&gt;Node003</title>
<path fill="none" stroke="#555555" stroke-dasharray="1,5" d="M1707.81,-736.87C1714.45,-725.76 1724.09,-711.11 1734.65,-699.84 1753.08,-680.2 1767.23,-684.93 1782.65,-662.84 1800.87,-636.75 1810.16,-601.04 1814.7,-576.48"/>
<polygon fill="#555555" stroke="#555555" points="1818.3,-577.18 1816.51,-566.74 1811.4,-576.02 1818.3,-577.18"/>
</g>
<!-- map_update_p_proc -->
<g id="node18" class="node">
<title>map_update_p_proc</title>
<ellipse fill="#ffffff" stroke="#000000" cx="1770.65" cy="-754.29" rx="27" ry="18"/>
</g>
<!-- Node006&#45;&gt;Node999 -->
<g id="edge16" class="edge">
<title>Node006&#45;&gt;Node999</title>
<path fill="none" stroke="#990051" d="M394.36,-155.24C366.24,-140.01 335.92,-125.05 306.65,-113.35 277.22,-101.6 260.1,-117.73 237.65,-95.35 228.1,-85.83 223.73,-71.62 221.79,-58.97"/>
<polygon fill="#990051" stroke="#990051" points="225.21,-58.98 220.65,-49.42 218.25,-59.74 225.21,-58.98"/>
<text text-anchor="middle" x="287.15" y="-82.05" font-family="Times,serif" font-size="14.00" fill="#990051">Нет, спасибо.</text>
</g>
<!-- Node006&#45;&gt;Node990 -->
<g id="edge14" class="edge">
<title>Node006&#45;&gt;Node990</title>
<path fill="none" stroke="#090099" d="M537.25,-114.55C544.52,-100.52 554.01,-87.75 566.4,-78.1 595.94,-55.12 804.43,-42.17 947.79,-35.9"/>
<polygon fill="#090099" stroke="#090099" points="947.59,-39.37 957.43,-35.44 947.29,-32.38 947.59,-39.37"/>
<text text-anchor="middle" x="650.28" y="-82.05" font-family="Times,serif" font-size="14.00" fill="#090099">Что у вас есть выпить?</text>
</g>
<!-- Node006&#45;&gt;Node990 -->
<g id="edge15" class="edge">
<title>Node006&#45;&gt;Node990</title>
<path fill="none" stroke="#249900" d="M388.91,-160.54C357.02,-135.07 338.14,-105.6 363.9,-78.1 402.7,-36.69 747.1,-30.32 945.45,-30.14"/>
<polygon fill="#249900" stroke="#249900" points="945.24,-33.64 955.24,-30.13 945.24,-26.64 945.24,-33.64"/>
<text text-anchor="middle" x="456.53" y="-82.05" font-family="Times,serif" font-size="14.00" fill="#249900">Какие у вас есть колеса?</text>
</g>
<!-- Node007&#45;&gt;Node999 -->
<g id="edge19" class="edge">
<title>Node007&#45;&gt;Node999</title>
<path fill="none" stroke="#5b0099" d="M794.86,-131.45C771.65,-106.88 748.68,-85.33 733.65,-78.1 649.74,-37.77 363.02,-31.92 258.86,-31.14"/>
<polygon fill="#5b0099" stroke="#5b0099" points="258.96,-27.64 248.93,-31.07 258.91,-34.64 258.96,-27.64"/>
<text text-anchor="middle" x="807.15" y="-82.05" font-family="Times,serif" font-size="14.00" fill="#5b0099">Нет, спасибо.</text>
</g>
<!-- Node007&#45;&gt;Node990 -->
<g id="edge17" class="edge">
<title>Node007&#45;&gt;Node990</title>
<path fill="none" stroke="#007d99" d="M998.76,-157.72C1022.39,-139.77 1045.21,-118.81 1062.65,-95.35 1068.06,-88.09 1072.2,-79.39 1075.35,-70.78"/>
<polygon fill="#007d99" stroke="#007d99" points="1078.96,-72.02 1078.72,-61.43 1072.3,-69.85 1078.96,-72.02"/>
<text text-anchor="middle" x="1156.28" y="-82.05" font-family="Times,serif" font-size="14.00" fill="#007d99">Что у вас есть выпить?</text>
</g>
<!-- Node007&#45;&gt;Node990 -->
<g id="edge18" class="edge">
<title>Node007&#45;&gt;Node990</title>
<path fill="none" stroke="#998800" d="M859.18,-113.84C861.65,-100.86 866.54,-88.55 874.9,-78.1 886.63,-63.46 921.5,-53.06 959.52,-45.83"/>
<polygon fill="#998800" stroke="#998800" points="960.1,-49.1 969.32,-43.87 958.85,-42.21 960.1,-49.1"/>
<text text-anchor="middle" x="967.53" y="-82.05" font-family="Times,serif" font-size="14.00" fill="#998800">Какие у вас есть колеса?</text>
</g>
</g>
</svg>
