<?xml version="1.0" encoding="UTF-8" standalone="no"?>
<!DOCTYPE svg PUBLIC "-//W3C//DTD SVG 1.1//EN"
 "http://www.w3.org/Graphics/SVG/1.1/DTD/svg11.dtd">
<!-- Generated by graphviz version 8.0.5 (0)
 -->
<!-- Title: rndexcow Pages: 1 -->
<svg width="594pt" height="262pt"
 viewBox="0.00 0.00 594.00 262.08" xmlns="http://www.w3.org/2000/svg" xmlns:xlink="http://www.w3.org/1999/xlink">
<g id="graph0" class="graph" transform="scale(1 1) rotate(0) translate(4 258.08)">
<title>rndexcow</title>
<polygon fill="white" stroke="none" points="-4,4 -4,-258.08 590,-258.08 590,4 -4,4"/>
<!-- start -->
<g id="node1" class="node">
<title>start</title>
<ellipse fill="#ffffff" stroke="#000000" cx="27" cy="-163.04" rx="27" ry="18"/>
</g>
<!-- map_enter_p_proc -->
<g id="node2" class="node">
<title>map_enter_p_proc</title>
<ellipse fill="#ffffff" stroke="#000000" cx="221" cy="-163.04" rx="148.67" ry="91.04"/>
<text text-anchor="middle" x="221" y="-210.11" font-family="Times,serif" font-size="14.00">У вас странное чувство</text>
<text text-anchor="middle" x="221" y="-192.86" font-family="Times,serif" font-size="14.00">относительно этого места.</text>
<text text-anchor="middle" x="221" y="-175.61" font-family="Times,serif" font-size="14.00">Очаровательный запах</text>
<text text-anchor="middle" x="221" y="-158.36" font-family="Times,serif" font-size="14.00">коровьего навоза и</text>
<text text-anchor="middle" x="221" y="-141.11" font-family="Times,serif" font-size="14.00">гниющего мяса</text>
<text text-anchor="middle" x="221" y="-123.86" font-family="Times,serif" font-size="14.00">распространяется отсюда</text>
<text text-anchor="middle" x="221" y="-106.61" font-family="Times,serif" font-size="14.00">на несколько футов.</text>
</g>
<!-- loadParts(40, 20301) -->
<g id="node3" class="node">
<title>loadParts(40, 20301)</title>
<ellipse fill="none" stroke="black" cx="221" cy="-18" rx="116.45" ry="18"/>
<text text-anchor="middle" x="221" y="-13.32" font-family="Times,serif" font-size="14.00">loadParts(40, 20301)</text>
</g>
<!-- map_enter_p_proc&#45;&gt;loadParts(40, 20301) -->
<g id="edge1" class="edge">
<title>map_enter_p_proc&#45;&gt;loadParts(40, 20301)</title>
<path fill="none" stroke="#555555" stroke-dasharray="1,5" d="M221,-71.86C221,-62.92 221,-54.41 221,-46.92"/>
<polygon fill="#555555" stroke="#555555" points="224.5,-47.1 221,-37.1 217.5,-47.1 224.5,-47.1"/>
</g>
<!-- map_update_p_proc -->
<g id="node4" class="node">
<title>map_update_p_proc</title>
<ellipse fill="#ffffff" stroke="#000000" cx="415" cy="-163.04" rx="27" ry="18"/>
</g>
<!-- LoadCritters -->
<g id="node5" class="node">
<title>LoadCritters</title>
<ellipse fill="#ffffff" stroke="#000000" cx="415" cy="-18" rx="27" ry="18"/>
</g>
<!-- map_update_p_proc&#45;&gt;LoadCritters -->
<g id="edge2" class="edge">
<title>map_update_p_proc&#45;&gt;LoadCritters</title>
<path fill="none" stroke="#555555" stroke-dasharray="1,5" d="M415,-144.79C415,-120.51 415,-76.02 415,-46.98"/>
<polygon fill="#555555" stroke="#555555" points="418.5,-47.32 415,-37.32 411.5,-47.32 418.5,-47.32"/>
</g>
<!-- map_exit_p_proc -->
<g id="node6" class="node">
<title>map_exit_p_proc</title>
<ellipse fill="#ffffff" stroke="#000000" cx="487" cy="-163.04" rx="27" ry="18"/>
</g>
<!-- loadParts -->
<g id="node7" class="node">
<title>loadParts</title>
<ellipse fill="#ffffff" stroke="#000000" cx="559" cy="-163.04" rx="27" ry="18"/>
</g>
</g>
</svg>
