<?xml version="1.0" encoding="UTF-8" standalone="no"?>
<!DOCTYPE svg PUBLIC "-//W3C//DTD SVG 1.1//EN"
 "http://www.w3.org/Graphics/SVG/1.1/DTD/svg11.dtd">
<!-- Generated by graphviz version 8.0.5 (0)
 -->
<!-- Title: sscrpdor Pages: 1 -->
<svg width="2230pt" height="930pt"
 viewBox="0.00 0.00 2229.50 930.09" xmlns="http://www.w3.org/2000/svg" xmlns:xlink="http://www.w3.org/1999/xlink">
<g id="graph0" class="graph" transform="scale(1 1) rotate(0) translate(4 926.09)">
<title>sscrpdor</title>
<polygon fill="white" stroke="none" points="-4,4 -4,-926.09 2225.5,-926.09 2225.5,4 -4,4"/>
<!-- start -->
<g id="node1" class="node">
<title>start</title>
<ellipse fill="#ffffff" stroke="#000000" cx="27" cy="-599.29" rx="27" ry="18"/>
</g>
<!-- use_p_proc -->
<g id="node2" class="node">
<title>use_p_proc</title>
<ellipse fill="#ffffff" stroke="#000000" cx="99" cy="-599.29" rx="27" ry="18"/>
</g>
<!-- look_at_p_proc -->
<g id="node3" class="node">
<title>look_at_p_proc</title>
<ellipse fill="#ffffff" stroke="#000000" cx="244" cy="-599.29" rx="100.14" ry="18"/>
<text text-anchor="middle" x="244" y="-594.62" font-family="Times,serif" font-size="14.00">Вы видите дверь.</text>
</g>
<!-- description_p_proc -->
<g id="node4" class="node">
<title>description_p_proc</title>
<ellipse fill="#ffffff" stroke="#000000" cx="477" cy="-599.29" rx="115.26" ry="30.05"/>
<text text-anchor="middle" x="477" y="-603.24" font-family="Times,serif" font-size="14.00">Штука на вид очень</text>
<text text-anchor="middle" x="477" y="-585.99" font-family="Times,serif" font-size="14.00">крепкая.</text>
</g>
<!-- use_skill_on_p_proc -->
<g id="node5" class="node">
<title>use_skill_on_p_proc</title>
<ellipse fill="#ffffff" stroke="#000000" cx="758" cy="-599.29" rx="148.14" ry="91.04"/>
<text text-anchor="middle" x="758" y="-646.37" font-family="Times,serif" font-size="14.00">Дверь закрыта на засов с</text>
<text text-anchor="middle" x="758" y="-629.12" font-family="Times,serif" font-size="14.00">другой стороны. Что тут</text>
<text text-anchor="middle" x="758" y="-611.87" font-family="Times,serif" font-size="14.00">взламывать?</text>
<text text-anchor="middle" x="758" y="-594.62" font-family="Times,serif" font-size="14.00">&#45;&#45;&#45;</text>
<text text-anchor="middle" x="758" y="-577.37" font-family="Times,serif" font-size="14.00">Дверь плотно прилегает к</text>
<text text-anchor="middle" x="758" y="-560.12" font-family="Times,serif" font-size="14.00">косяку, похоже, ловушку</text>
<text text-anchor="middle" x="758" y="-542.87" font-family="Times,serif" font-size="14.00">разместить негде.</text>
</g>
<!-- use_obj_on_p_proc -->
<g id="node6" class="node">
<title>use_obj_on_p_proc</title>
<ellipse fill="#ffffff" stroke="#000000" cx="1079" cy="-599.29" rx="154.5" ry="322.79"/>
<text text-anchor="middle" x="1079" y="-810.24" font-family="Times,serif" font-size="14.00">Дверь закрыта на засов с</text>
<text text-anchor="middle" x="1079" y="-792.99" font-family="Times,serif" font-size="14.00">другой стороны. Что тут</text>
<text text-anchor="middle" x="1079" y="-775.74" font-family="Times,serif" font-size="14.00">взламывать?</text>
<text text-anchor="middle" x="1079" y="-758.49" font-family="Times,serif" font-size="14.00">&#45;&#45;&#45;</text>
<text text-anchor="middle" x="1079" y="-741.24" font-family="Times,serif" font-size="14.00">Дверь закрыта на засов с</text>
<text text-anchor="middle" x="1079" y="-723.99" font-family="Times,serif" font-size="14.00">другой стороны. Что тут</text>
<text text-anchor="middle" x="1079" y="-706.74" font-family="Times,serif" font-size="14.00">взламывать?</text>
<text text-anchor="middle" x="1079" y="-689.49" font-family="Times,serif" font-size="14.00">&#45;&#45;&#45;</text>
<text text-anchor="middle" x="1079" y="-672.24" font-family="Times,serif" font-size="14.00">Дверь закрыта на засов с</text>
<text text-anchor="middle" x="1079" y="-654.99" font-family="Times,serif" font-size="14.00">другой стороны. Что тут</text>
<text text-anchor="middle" x="1079" y="-637.74" font-family="Times,serif" font-size="14.00">взламывать?</text>
<text text-anchor="middle" x="1079" y="-620.49" font-family="Times,serif" font-size="14.00">&#45;&#45;&#45;</text>
<text text-anchor="middle" x="1079" y="-603.24" font-family="Times,serif" font-size="14.00">Дверь закрыта на засов с</text>
<text text-anchor="middle" x="1079" y="-585.99" font-family="Times,serif" font-size="14.00">другой стороны. Что тут</text>
<text text-anchor="middle" x="1079" y="-568.74" font-family="Times,serif" font-size="14.00">взламывать?</text>
<text text-anchor="middle" x="1079" y="-551.49" font-family="Times,serif" font-size="14.00">&#45;&#45;&#45;</text>
<text text-anchor="middle" x="1079" y="-534.24" font-family="Times,serif" font-size="14.00">Под давлением дверь</text>
<text text-anchor="middle" x="1079" y="-516.99" font-family="Times,serif" font-size="14.00">трещит и разламывается.</text>
<text text-anchor="middle" x="1079" y="-499.74" font-family="Times,serif" font-size="14.00">&#45;&#45;&#45;</text>
<text text-anchor="middle" x="1079" y="-482.49" font-family="Times,serif" font-size="14.00">Дверь уже отперта.</text>
<text text-anchor="middle" x="1079" y="-465.24" font-family="Times,serif" font-size="14.00">&#45;&#45;&#45;</text>
<text text-anchor="middle" x="1079" y="-447.99" font-family="Times,serif" font-size="14.00">Этой двери вы не страшны.</text>
<text text-anchor="middle" x="1079" y="-430.74" font-family="Times,serif" font-size="14.00">&#45;&#45;&#45;</text>
<text text-anchor="middle" x="1079" y="-413.49" font-family="Times,serif" font-size="14.00">Дверь плотно прилегает к</text>
<text text-anchor="middle" x="1079" y="-396.24" font-family="Times,serif" font-size="14.00">косяку, похоже, ловушку</text>
<text text-anchor="middle" x="1079" y="-378.99" font-family="Times,serif" font-size="14.00">разместить негде.</text>
</g>
<!-- damage_p_proc -->
<g id="node7" class="node">
<title>damage_p_proc</title>
<ellipse fill="#ffffff" stroke="#000000" cx="1359" cy="-599.29" rx="107.3" ry="30.05"/>
<text text-anchor="middle" x="1359" y="-603.24" font-family="Times,serif" font-size="14.00">Кажется, дверь не</text>
<text text-anchor="middle" x="1359" y="-585.99" font-family="Times,serif" font-size="14.00">шевельнулась.</text>
</g>
<!-- map_enter_p_proc -->
<g id="node8" class="node">
<title>map_enter_p_proc</title>
<ellipse fill="#ffffff" stroke="#000000" cx="1511" cy="-599.29" rx="27" ry="18"/>
</g>
<!-- map_update_p_proc -->
<g id="node9" class="node">
<title>map_update_p_proc</title>
<ellipse fill="#ffffff" stroke="#000000" cx="1583" cy="-599.29" rx="27" ry="18"/>
</g>
<!-- talk_p_proc -->
<g id="node10" class="node">
<title>talk_p_proc</title>
<ellipse fill="#ffffff" stroke="#000000" cx="1655" cy="-599.29" rx="27" ry="18"/>
</g>
<!-- Node001 -->
<g id="node11" class="node">
<title>Node001</title>
<ellipse fill="#ffffff" stroke="#000000" cx="1655" cy="-185.05" rx="146.55" ry="54.45"/>
<text text-anchor="middle" x="1655" y="-206.25" font-family="Times,serif" font-size="14.00">(Вы замечаете маленькое</text>
<text text-anchor="middle" x="1655" y="-189" font-family="Times,serif" font-size="14.00">отверстие в двери,</text>
<text text-anchor="middle" x="1655" y="-171.75" font-family="Times,serif" font-size="14.00">откуда, похоже, исходит</text>
<text text-anchor="middle" x="1655" y="-154.5" font-family="Times,serif" font-size="14.00">звук.) Ау?</text>
</g>
<!-- talk_p_proc&#45;&gt;Node001 -->
<g id="edge1" class="edge">
<title>talk_p_proc&#45;&gt;Node001</title>
<path fill="none" stroke="#555555" stroke-dasharray="1,5" d="M1655,-580.84C1655,-524.77 1655,-347.21 1655,-250.45"/>
<polygon fill="#555555" stroke="#555555" points="1658.5,-250.63 1655,-240.63 1651.5,-250.63 1658.5,-250.63"/>
</g>
<!-- Node003 -->
<g id="node12" class="node">
<title>Node003</title>
<ellipse fill="#ffffff" stroke="#000000" cx="1605" cy="-30.05" rx="142.31" ry="30.05"/>
<text text-anchor="middle" x="1605" y="-34" font-family="Times,serif" font-size="14.00">Извините, но нам ничего</text>
<text text-anchor="middle" x="1605" y="-16.75" font-family="Times,serif" font-size="14.00">этого не нужно.</text>
</g>
<!-- Node001&#45;&gt;Node003 -->
<g id="edge2" class="edge">
<title>Node001&#45;&gt;Node003</title>
<path fill="none" stroke="#659900" d="M1510.09,-176.09C1414.01,-167.43 1300.18,-149.5 1269.5,-112.6 1259.7,-100.82 1259.44,-89.67 1269.5,-78.1 1293.83,-50.13 1375.56,-38.29 1452.26,-33.49"/>
<polygon fill="#659900" stroke="#659900" points="1452.26,-36.94 1462.04,-32.86 1451.85,-29.95 1452.26,-36.94"/>
<text text-anchor="middle" x="1332.25" y="-90.68" font-family="Times,serif" font-size="14.00" fill="#659900">Пр&#45;ривет, Ра Ра?</text>
</g>
<!-- Node001&#45;&gt;Node003 -->
<g id="edge3" class="edge">
<title>Node001&#45;&gt;Node003</title>
<path fill="none" stroke="#990092" d="M1525.02,-159.4C1477.28,-147.49 1431.4,-131.63 1417.25,-112.6 1393.15,-80.19 1427.45,-60.49 1473.05,-48.59"/>
<polygon fill="#990092" stroke="#990092" points="1473.69,-51.8 1482.57,-46.03 1472.03,-45 1473.69,-51.8"/>
<text text-anchor="middle" x="1500.88" y="-99.3" font-family="Times,serif" font-size="14.00" fill="#990092">Хе&#45;хе, дверка говорит.</text>
<text text-anchor="middle" x="1500.88" y="-82.05" font-family="Times,serif" font-size="14.00" fill="#990092">Привет!</text>
</g>
<!-- Node001&#45;&gt;Node003 -->
<g id="edge4" class="edge">
<title>Node001&#45;&gt;Node003</title>
<path fill="none" stroke="#009974" d="M1614.62,-132.42C1611.14,-126.02 1608.13,-119.34 1606,-112.6 1601.86,-99.53 1600.71,-84.67 1600.88,-71.25"/>
<polygon fill="#009974" stroke="#009974" points="1604.41,-71.52 1601.3,-61.39 1597.41,-71.25 1604.41,-71.52"/>
<text text-anchor="middle" x="1645" y="-90.68" font-family="Times,serif" font-size="14.00" fill="#009974">Э, привет?</text>
</g>
<!-- Node001&#45;&gt;Node003 -->
<g id="edge5" class="edge">
<title>Node001&#45;&gt;Node003</title>
<path fill="none" stroke="#994700" d="M1685.06,-131.36C1691.15,-113.69 1693.23,-94.35 1684,-78.1 1681.21,-73.2 1677.69,-68.75 1673.68,-64.73"/>
<polygon fill="#994700" stroke="#994700" points="1676.29,-61.48 1666.46,-57.51 1671.67,-66.74 1676.29,-61.48"/>
<text text-anchor="middle" x="1785.12" y="-99.3" font-family="Times,serif" font-size="14.00" fill="#994700">С каких пор двери умеют</text>
<text text-anchor="middle" x="1785.12" y="-82.05" font-family="Times,serif" font-size="14.00" fill="#994700">разговаривать?</text>
</g>
<!-- Node001&#45;&gt;Node003 -->
<g id="edge6" class="edge">
<title>Node001&#45;&gt;Node003</title>
<path fill="none" stroke="#1a0099" d="M1791,-164.27C1859.1,-148.6 1919.97,-121.86 1883,-78.1 1865.34,-57.2 1810.09,-45.59 1753.45,-39.13"/>
<polygon fill="#1a0099" stroke="#1a0099" points="1754.18,-35.58 1743.87,-37.98 1753.43,-42.54 1754.18,-35.58"/>
<text text-anchor="middle" x="1931.5" y="-90.68" font-family="Times,serif" font-size="14.00" fill="#1a0099">Э, привет.</text>
</g>
<!-- Node002 -->
<g id="node13" class="node">
<title>Node002</title>
<ellipse fill="#ffffff" stroke="#000000" cx="2015" cy="-30.05" rx="88.74" ry="30.05"/>
<text text-anchor="middle" x="2015" y="-34" font-family="Times,serif" font-size="14.00">Щелк... (Дверь</text>
<text text-anchor="middle" x="2015" y="-16.75" font-family="Times,serif" font-size="14.00">отпирается.)</text>
</g>
<!-- Node001&#45;&gt;Node002 -->
<g id="edge7" class="edge">
<title>Node001&#45;&gt;Node002</title>
<path fill="none" stroke="#129900" d="M1791.66,-165.08C1864.23,-152.75 1944.24,-134.84 1973,-112.6 1986.75,-101.98 1996.4,-85.6 2002.96,-70.3"/>
<polygon fill="#129900" stroke="#129900" points="2006.42,-72.06 2006.84,-61.47 1999.91,-69.49 2006.42,-72.06"/>
<text text-anchor="middle" x="2109.75" y="-90.68" font-family="Times,serif" font-size="14.00" fill="#129900">БАНДА СОЗДАЛА ПРОБЛЕМ.</text>
</g>
<!-- timed_event_p_proc -->
<g id="node14" class="node">
<title>timed_event_p_proc</title>
<ellipse fill="#ffffff" stroke="#000000" cx="1727" cy="-599.29" rx="27" ry="18"/>
</g>
<!-- Node999 -->
<g id="node15" class="node">
<title>Node999</title>
<ellipse fill="#ffffff" stroke="#000000" cx="1799" cy="-599.29" rx="27" ry="18"/>
</g>
</g>
</svg>
