<?xml version="1.0" encoding="UTF-8" standalone="no"?>
<!DOCTYPE svg PUBLIC "-//W3C//DTD SVG 1.1//EN"
 "http://www.w3.org/Graphics/SVG/1.1/DTD/svg11.dtd">
<!-- Generated by graphviz version 8.0.5 (0)
 -->
<!-- Title: tribemg2 Pages: 1 -->
<svg width="1449pt" height="189pt"
 viewBox="0.00 0.00 1449.00 188.89" xmlns="http://www.w3.org/2000/svg" xmlns:xlink="http://www.w3.org/1999/xlink">
<g id="graph0" class="graph" transform="scale(1 1) rotate(0) translate(4 184.89)">
<title>tribemg2</title>
<polygon fill="white" stroke="none" points="-4,4 -4,-184.89 1445,-184.89 1445,4 -4,4"/>
<!-- start -->
<g id="node1" class="node">
<title>start</title>
<ellipse fill="#ffffff" stroke="#000000" cx="27" cy="-126.45" rx="27" ry="18"/>
</g>
<!-- use_p_proc -->
<g id="node2" class="node">
<title>use_p_proc</title>
<ellipse fill="#ffffff" stroke="#000000" cx="99" cy="-126.45" rx="27" ry="18"/>
</g>
<!-- look_at_p_proc -->
<g id="node3" class="node">
<title>look_at_p_proc</title>
<ellipse fill="#ffffff" stroke="#000000" cx="284" cy="-126.45" rx="139.65" ry="30.05"/>
<text text-anchor="middle" x="284" y="-130.4" font-family="Times,serif" font-size="14.00">Вы видите беспокойного</text>
<text text-anchor="middle" x="284" y="-113.15" font-family="Times,serif" font-size="14.00">телохранителя.</text>
</g>
<!-- description_p_proc -->
<g id="node4" class="node">
<title>description_p_proc</title>
<ellipse fill="#ffffff" stroke="#000000" cx="581" cy="-126.45" rx="139.65" ry="54.45"/>
<text text-anchor="middle" x="581" y="-147.65" font-family="Times,serif" font-size="14.00">Один из телохранителей</text>
<text text-anchor="middle" x="581" y="-130.4" font-family="Times,serif" font-size="14.00">Одноглазого Роя. Он</text>
<text text-anchor="middle" x="581" y="-113.15" font-family="Times,serif" font-size="14.00">выглядит скучающим и</text>
<text text-anchor="middle" x="581" y="-95.9" font-family="Times,serif" font-size="14.00">готовым к действию.</text>
</g>
<!-- use_skill_on_p_proc -->
<g id="node5" class="node">
<title>use_skill_on_p_proc</title>
<ellipse fill="#ffffff" stroke="#000000" cx="766" cy="-126.45" rx="27" ry="18"/>
</g>
<!-- use_obj_on_p_proc -->
<g id="node6" class="node">
<title>use_obj_on_p_proc</title>
<ellipse fill="#ffffff" stroke="#000000" cx="838" cy="-126.45" rx="27" ry="18"/>
</g>
<!-- damage_p_proc -->
<g id="node7" class="node">
<title>damage_p_proc</title>
<ellipse fill="#ffffff" stroke="#000000" cx="910" cy="-126.45" rx="27" ry="18"/>
</g>
<!-- Node998 -->
<g id="node8" class="node">
<title>Node998</title>
<ellipse fill="#ffffff" stroke="#000000" cx="910" cy="-18" rx="27" ry="18"/>
</g>
<!-- damage_p_proc&#45;&gt;Node998 -->
<g id="edge1" class="edge">
<title>damage_p_proc&#45;&gt;Node998</title>
<path fill="none" stroke="#555555" stroke-dasharray="1,5" d="M910,-108.34C910,-91.91 910,-66.79 910,-47.36"/>
<polygon fill="#555555" stroke="#555555" points="913.5,-47.41 910,-37.41 906.5,-47.41 913.5,-47.41"/>
</g>
<!-- map_enter_p_proc -->
<g id="node9" class="node">
<title>map_enter_p_proc</title>
<ellipse fill="#ffffff" stroke="#000000" cx="982" cy="-126.45" rx="27" ry="18"/>
</g>
<!-- map_update_p_proc -->
<g id="node10" class="node">
<title>map_update_p_proc</title>
<ellipse fill="#ffffff" stroke="#000000" cx="1054" cy="-126.45" rx="27" ry="18"/>
</g>
<!-- talk_p_proc -->
<g id="node11" class="node">
<title>talk_p_proc</title>
<ellipse fill="#ffffff" stroke="#000000" cx="1126" cy="-126.45" rx="27" ry="18"/>
</g>
<!-- Node001 -->
<g id="node12" class="node">
<title>Node001</title>
<ellipse fill="#ffffff" stroke="#000000" cx="1126" cy="-18" rx="27" ry="18"/>
</g>
<!-- talk_p_proc&#45;&gt;Node001 -->
<g id="edge2" class="edge">
<title>talk_p_proc&#45;&gt;Node001</title>
<path fill="none" stroke="#555555" stroke-dasharray="1,5" d="M1126,-108.34C1126,-91.91 1126,-66.79 1126,-47.36"/>
<polygon fill="#555555" stroke="#555555" points="1129.5,-47.41 1126,-37.41 1122.5,-47.41 1129.5,-47.41"/>
</g>
<!-- pickup_p_proc -->
<g id="node13" class="node">
<title>pickup_p_proc</title>
<ellipse fill="#ffffff" stroke="#000000" cx="1198" cy="-126.45" rx="27" ry="18"/>
</g>
<!-- critter_p_proc -->
<g id="node14" class="node">
<title>critter_p_proc</title>
<ellipse fill="#ffffff" stroke="#000000" cx="1270" cy="-126.45" rx="27" ry="18"/>
</g>
<!-- timed_event_p_proc -->
<g id="node15" class="node">
<title>timed_event_p_proc</title>
<ellipse fill="#ffffff" stroke="#000000" cx="1342" cy="-126.45" rx="27" ry="18"/>
</g>
<!-- destroy_p_proc -->
<g id="node16" class="node">
<title>destroy_p_proc</title>
<ellipse fill="#ffffff" stroke="#000000" cx="1414" cy="-126.45" rx="27" ry="18"/>
</g>
</g>
</svg>
