<?xml version="1.0" encoding="UTF-8" standalone="no"?>
<!DOCTYPE svg PUBLIC "-//W3C//DTD SVG 1.1//EN"
 "http://www.w3.org/Graphics/SVG/1.1/DTD/svg11.dtd">
<!-- Generated by graphviz version 8.0.5 (0)
 -->
<!-- Title: viltodd Pages: 1 -->
<svg width="1454pt" height="164pt"
 viewBox="0.00 0.00 1454.00 164.50" xmlns="http://www.w3.org/2000/svg" xmlns:xlink="http://www.w3.org/1999/xlink">
<g id="graph0" class="graph" transform="scale(1 1) rotate(0) translate(4 160.5)">
<title>viltodd</title>
<polygon fill="white" stroke="none" points="-4,4 -4,-160.5 1450,-160.5 1450,4 -4,4"/>
<!-- start -->
<g id="node1" class="node">
<title>start</title>
<ellipse fill="#ffffff" stroke="#000000" cx="27" cy="-114.25" rx="27" ry="18"/>
</g>
<!-- use_p_proc -->
<g id="node2" class="node">
<title>use_p_proc</title>
<ellipse fill="#ffffff" stroke="#000000" cx="99" cy="-114.25" rx="27" ry="18"/>
</g>
<!-- look_at_p_proc -->
<g id="node3" class="node">
<title>look_at_p_proc</title>
<ellipse fill="#ffffff" stroke="#000000" cx="296" cy="-114.25" rx="152.38" ry="42.25"/>
<text text-anchor="middle" x="296" y="-126.82" font-family="Times,serif" font-size="14.00">Вы видите очень</text>
<text text-anchor="middle" x="296" y="-109.57" font-family="Times,serif" font-size="14.00">непоседливого маленького</text>
<text text-anchor="middle" x="296" y="-92.32" font-family="Times,serif" font-size="14.00">мальчика.</text>
</g>
<!-- description_p_proc -->
<g id="node4" class="node">
<title>description_p_proc</title>
<ellipse fill="#ffffff" stroke="#000000" cx="596" cy="-114.25" rx="129.58" ry="30.05"/>
<text text-anchor="middle" x="596" y="-118.2" font-family="Times,serif" font-size="14.00">Вы видите маленького</text>
<text text-anchor="middle" x="596" y="-100.95" font-family="Times,serif" font-size="14.00">Тодда.</text>
</g>
<!-- use_skill_on_p_proc -->
<g id="node5" class="node">
<title>use_skill_on_p_proc</title>
<ellipse fill="#ffffff" stroke="#000000" cx="771" cy="-114.25" rx="27" ry="18"/>
</g>
<!-- use_obj_on_p_proc -->
<g id="node6" class="node">
<title>use_obj_on_p_proc</title>
<ellipse fill="#ffffff" stroke="#000000" cx="843" cy="-114.25" rx="27" ry="18"/>
</g>
<!-- damage_p_proc -->
<g id="node7" class="node">
<title>damage_p_proc</title>
<ellipse fill="#ffffff" stroke="#000000" cx="915" cy="-114.25" rx="27" ry="18"/>
</g>
<!-- map_enter_p_proc -->
<g id="node8" class="node">
<title>map_enter_p_proc</title>
<ellipse fill="#ffffff" stroke="#000000" cx="987" cy="-114.25" rx="27" ry="18"/>
</g>
<!-- map_update_p_proc -->
<g id="node9" class="node">
<title>map_update_p_proc</title>
<ellipse fill="#ffffff" stroke="#000000" cx="1059" cy="-114.25" rx="27" ry="18"/>
</g>
<!-- talk_p_proc -->
<g id="node10" class="node">
<title>talk_p_proc</title>
<ellipse fill="#ffffff" stroke="#000000" cx="1131" cy="-114.25" rx="27" ry="18"/>
</g>
<!-- Node002 -->
<g id="node11" class="node">
<title>Node002</title>
<ellipse fill="#ffffff" stroke="#000000" cx="1131" cy="-18" rx="27" ry="18"/>
</g>
<!-- talk_p_proc&#45;&gt;Node002 -->
<g id="edge1" class="edge">
<title>talk_p_proc&#45;&gt;Node002</title>
<path fill="none" stroke="#555555" stroke-dasharray="1,5" d="M1131,-95.96C1131,-82.36 1131,-63.13 1131,-47.3"/>
<polygon fill="#555555" stroke="#555555" points="1134.5,-47.5 1131,-37.5 1127.5,-47.5 1134.5,-47.5"/>
</g>
<!-- Node001 -->
<g id="node12" class="node">
<title>Node001</title>
<ellipse fill="#ffffff" stroke="#000000" cx="1203" cy="-18" rx="27" ry="18"/>
</g>
<!-- timed_event_p_proc -->
<g id="node13" class="node">
<title>timed_event_p_proc</title>
<ellipse fill="#ffffff" stroke="#000000" cx="1203" cy="-114.25" rx="27" ry="18"/>
</g>
<!-- timed_event_p_proc&#45;&gt;Node001 -->
<g id="edge2" class="edge">
<title>timed_event_p_proc&#45;&gt;Node001</title>
<path fill="none" stroke="#555555" stroke-dasharray="1,5" d="M1203,-95.96C1203,-82.36 1203,-63.13 1203,-47.3"/>
<polygon fill="#555555" stroke="#555555" points="1206.5,-47.5 1203,-37.5 1199.5,-47.5 1206.5,-47.5"/>
</g>
<!-- critter_p_proc -->
<g id="node14" class="node">
<title>critter_p_proc</title>
<ellipse fill="#ffffff" stroke="#000000" cx="1275" cy="-114.25" rx="27" ry="18"/>
</g>
<!-- destroy_p_proc -->
<g id="node15" class="node">
<title>destroy_p_proc</title>
<ellipse fill="#ffffff" stroke="#000000" cx="1347" cy="-114.25" rx="27" ry="18"/>
</g>
<!-- pickup_p_proc -->
<g id="node16" class="node">
<title>pickup_p_proc</title>
<ellipse fill="#ffffff" stroke="#000000" cx="1419" cy="-114.25" rx="27" ry="18"/>
</g>
</g>
</svg>
