<?xml version="1.0" encoding="UTF-8" standalone="no"?>
<!DOCTYPE svg PUBLIC "-//W3C//DTD SVG 1.1//EN"
 "http://www.w3.org/Graphics/SVG/1.1/DTD/svg11.dtd">
<!-- Generated by graphviz version 8.0.5 (0)
 -->
<!-- Title: vsraispt Pages: 1 -->
<svg width="413pt" height="516pt"
 viewBox="0.00 0.00 413.46 515.95" xmlns="http://www.w3.org/2000/svg" xmlns:xlink="http://www.w3.org/1999/xlink">
<g id="graph0" class="graph" transform="scale(1 1) rotate(0) translate(4 511.95)">
<title>vsraispt</title>
<polygon fill="white" stroke="none" points="-4,4 -4,-511.95 409.46,-511.95 409.46,4 -4,4"/>
<!-- start -->
<g id="node1" class="node">
<title>start</title>
<ellipse fill="#ffffff" stroke="#000000" cx="90.46" cy="-489.95" rx="27" ry="18"/>
</g>
<!-- spatial_p_proc -->
<g id="node2" class="node">
<title>spatial_p_proc</title>
<ellipse fill="#ffffff" stroke="#000000" cx="162.46" cy="-489.95" rx="27" ry="18"/>
</g>
<!-- Node001 -->
<g id="node3" class="node">
<title>Node001</title>
<ellipse fill="#ffffff" stroke="#000000" cx="162.46" cy="-270.73" rx="162.46" ry="164.23"/>
<text text-anchor="middle" x="162.46" y="-369.55" font-family="Times,serif" font-size="14.00">Миновав окраину города,</text>
<text text-anchor="middle" x="162.46" y="-352.3" font-family="Times,serif" font-size="14.00">вы заметили группу</text>
<text text-anchor="middle" x="162.46" y="-335.05" font-family="Times,serif" font-size="14.00">вооруженных людей, тайком</text>
<text text-anchor="middle" x="162.46" y="-317.8" font-family="Times,serif" font-size="14.00">пробирающихся сквозь</text>
<text text-anchor="middle" x="162.46" y="-300.55" font-family="Times,serif" font-size="14.00">кусты под</text>
<text text-anchor="middle" x="162.46" y="-283.3" font-family="Times,serif" font-size="14.00">предводительством</text>
<text text-anchor="middle" x="162.46" y="-266.05" font-family="Times,serif" font-size="14.00">сильного дикаря. Дикарь</text>
<text text-anchor="middle" x="162.46" y="-248.8" font-family="Times,serif" font-size="14.00">взглянул в вашу сторону и</text>
<text text-anchor="middle" x="162.46" y="-231.55" font-family="Times,serif" font-size="14.00">засек, как вы посмотрели</text>
<text text-anchor="middle" x="162.46" y="-214.3" font-family="Times,serif" font-size="14.00">на него. Он дает сигнал,</text>
<text text-anchor="middle" x="162.46" y="-197.05" font-family="Times,serif" font-size="14.00">и его люди приседают, и</text>
<text text-anchor="middle" x="162.46" y="-179.8" font-family="Times,serif" font-size="14.00">вскоре совсем</text>
<text text-anchor="middle" x="162.46" y="-162.55" font-family="Times,serif" font-size="14.00">растворяются в кустах.</text>
</g>
<!-- spatial_p_proc&#45;&gt;Node001 -->
<g id="edge1" class="edge">
<title>spatial_p_proc&#45;&gt;Node001</title>
<path fill="none" stroke="#555555" stroke-dasharray="1,5" d="M162.46,-471.54C162.46,-464.67 162.46,-456.07 162.46,-446.33"/>
<polygon fill="#555555" stroke="#555555" points="165.96,-446.35 162.46,-436.35 158.96,-446.35 165.96,-446.35"/>
</g>
<!-- NodeFollowRaiders -->
<g id="node6" class="node">
<title>NodeFollowRaiders</title>
<ellipse fill="#ffffff" stroke="#000000" cx="59.46" cy="-18" rx="27" ry="18"/>
</g>
<!-- Node001&#45;&gt;NodeFollowRaiders -->
<g id="edge2" class="edge">
<title>Node001&#45;&gt;NodeFollowRaiders</title>
<path fill="none" stroke="#569900" d="M75.89,-131.17C69.82,-117.13 64.58,-102.78 60.71,-88.5 57.1,-75.21 56.46,-59.97 56.86,-47.15"/>
<polygon fill="#569900" stroke="#569900" points="60.41,-47.36 57.46,-37.18 53.42,-46.97 60.41,-47.36"/>
<text text-anchor="middle" x="153.33" y="-75.2" font-family="Times,serif" font-size="14.00" fill="#569900">[Следовать за ними на</text>
<text text-anchor="middle" x="153.33" y="-57.95" font-family="Times,serif" font-size="14.00" fill="#569900">безопасном расстоянии.]</text>
</g>
<!-- NodeDontFollowRaiders -->
<g id="node7" class="node">
<title>NodeDontFollowRaiders</title>
<ellipse fill="#ffffff" stroke="#000000" cx="266.46" cy="-18" rx="27" ry="18"/>
</g>
<!-- Node001&#45;&gt;NodeDontFollowRaiders -->
<g id="edge3" class="edge">
<title>Node001&#45;&gt;NodeDontFollowRaiders</title>
<path fill="none" stroke="#990082" d="M231.24,-121.48C235.86,-110.38 240.32,-99.3 244.46,-88.5 249.67,-74.88 254.65,-59.44 258.55,-46.57"/>
<polygon fill="#990082" stroke="#990082" points="262.18,-47.63 261.68,-37.05 255.47,-45.64 262.18,-47.63"/>
<text text-anchor="middle" x="329.33" y="-75.2" font-family="Times,serif" font-size="14.00" fill="#990082">[Забыть и двигаться</text>
<text text-anchor="middle" x="329.33" y="-57.95" font-family="Times,serif" font-size="14.00" fill="#990082">дальше.]</text>
</g>
<!-- map_enter_p_proc -->
<g id="node4" class="node">
<title>map_enter_p_proc</title>
<ellipse fill="#ffffff" stroke="#000000" cx="234.46" cy="-489.95" rx="27" ry="18"/>
</g>
<!-- map_update_p_proc -->
<g id="node5" class="node">
<title>map_update_p_proc</title>
<ellipse fill="#ffffff" stroke="#000000" cx="306.46" cy="-489.95" rx="27" ry="18"/>
</g>
<!-- timed_event_p_proc -->
<g id="node8" class="node">
<title>timed_event_p_proc</title>
<ellipse fill="#ffffff" stroke="#000000" cx="378.46" cy="-489.95" rx="27" ry="18"/>
</g>
</g>
</svg>
