<?xml version="1.0" encoding="UTF-8" standalone="no"?>
<!DOCTYPE svg PUBLIC "-//W3C//DTD SVG 1.1//EN"
 "http://www.w3.org/Graphics/SVG/1.1/DTD/svg11.dtd">
<!-- Generated by graphviz version 8.0.5 (0)
 -->
<!-- Title: BECA Pages: 1 -->
<svg width="1131pt" height="442pt"
 viewBox="0.00 0.00 1130.52 442.29" xmlns="http://www.w3.org/2000/svg" xmlns:xlink="http://www.w3.org/1999/xlink">
<g id="graph0" class="graph" transform="scale(1 1) rotate(0) translate(4 438.29)">
<title>BECA</title>
<polygon fill="white" stroke="none" points="-4,4 -4,-438.29 1126.52,-438.29 1126.52,4 -4,4"/>
<!-- start -->
<g id="node1" class="node">
<title>start</title>
<ellipse fill="#ffffff" stroke="#000000" cx="316.94" cy="-416.29" rx="27" ry="18"/>
</g>
<!-- critter_p_proc -->
<g id="node2" class="node">
<title>critter_p_proc</title>
<ellipse fill="#ffffff" stroke="#000000" cx="172.94" cy="-343.29" rx="27" ry="18"/>
</g>
<!-- start&#45;&gt;critter_p_proc -->
<g id="edge1" class="edge">
<title>start&#45;&gt;critter_p_proc</title>
<path fill="none" stroke="#555555" stroke-dasharray="1,5" d="M295.69,-404.81C271.45,-392.86 231.57,-373.2 203.88,-359.54"/>
<polygon fill="#555555" stroke="#555555" points="205.79,-356.09 195.28,-354.81 202.7,-362.37 205.79,-356.09"/>
</g>
<!-- destroy_p_proc -->
<g id="node3" class="node">
<title>destroy_p_proc</title>
<ellipse fill="#ffffff" stroke="#000000" cx="244.94" cy="-343.29" rx="27" ry="18"/>
</g>
<!-- start&#45;&gt;destroy_p_proc -->
<g id="edge2" class="edge">
<title>start&#45;&gt;destroy_p_proc</title>
<path fill="none" stroke="#555555" stroke-dasharray="1,5" d="M302.37,-400.92C292.29,-390.98 278.68,-377.56 267.24,-366.28"/>
<polygon fill="#555555" stroke="#555555" points="270.31,-364.41 260.74,-359.88 265.4,-369.39 270.31,-364.41"/>
</g>
<!-- look_at_p_proc -->
<g id="node4" class="node">
<title>look_at_p_proc</title>
<ellipse fill="#ffffff" stroke="#000000" cx="316.94" cy="-343.29" rx="27" ry="18"/>
</g>
<!-- start&#45;&gt;look_at_p_proc -->
<g id="edge3" class="edge">
<title>start&#45;&gt;look_at_p_proc</title>
<path fill="none" stroke="#555555" stroke-dasharray="1,5" d="M316.94,-398.1C316.94,-390.34 316.94,-380.97 316.94,-372.24"/>
<polygon fill="#555555" stroke="#555555" points="320.44,-372.32 316.94,-362.32 313.44,-372.32 320.44,-372.32"/>
</g>
<!-- pickup_p_proc -->
<g id="node5" class="node">
<title>pickup_p_proc</title>
<ellipse fill="#ffffff" stroke="#000000" cx="388.94" cy="-343.29" rx="27" ry="18"/>
</g>
<!-- start&#45;&gt;pickup_p_proc -->
<g id="edge4" class="edge">
<title>start&#45;&gt;pickup_p_proc</title>
<path fill="none" stroke="#555555" stroke-dasharray="1,5" d="M331.51,-400.92C341.59,-390.98 355.2,-377.56 366.64,-366.28"/>
<polygon fill="#555555" stroke="#555555" points="368.48,-369.39 373.15,-359.88 363.57,-364.41 368.48,-369.39"/>
</g>
<!-- talk_p_proc -->
<g id="node6" class="node">
<title>talk_p_proc</title>
<ellipse fill="#ffffff" stroke="#000000" cx="512.94" cy="-343.29" rx="27" ry="18"/>
</g>
<!-- start&#45;&gt;talk_p_proc -->
<g id="edge5" class="edge">
<title>start&#45;&gt;talk_p_proc</title>
<path fill="none" stroke="#555555" stroke-dasharray="1,5" d="M340.19,-406.87C374.66,-394.38 439.48,-370.9 479.17,-356.52"/>
<polygon fill="#555555" stroke="#555555" points="480.2,-359.51 488.41,-352.81 477.82,-352.93 480.2,-359.51"/>
</g>
<!-- show_true_name -->
<g id="node7" class="node">
<title>show_true_name</title>
<ellipse fill="#ffffff" stroke="#000000" cx="135.94" cy="-209.45" rx="135.94" ry="78.84"/>
<text text-anchor="middle" x="135.94" y="-247.9" font-family="Times,serif" font-size="14.00">You see Jade.</text>
<text text-anchor="middle" x="135.94" y="-230.65" font-family="Times,serif" font-size="14.00">&#45;&#45;&#45;</text>
<text text-anchor="middle" x="135.94" y="-213.4" font-family="Times,serif" font-size="14.00">You see Beca.</text>
<text text-anchor="middle" x="135.94" y="-196.15" font-family="Times,serif" font-size="14.00">&#45;&#45;&#45;</text>
<text text-anchor="middle" x="135.94" y="-178.9" font-family="Times,serif" font-size="14.00">You see a member of the</text>
<text text-anchor="middle" x="135.94" y="-161.65" font-family="Times,serif" font-size="14.00">Blades.</text>
</g>
<!-- look_at_p_proc&#45;&gt;show_true_name -->
<g id="edge6" class="edge">
<title>look_at_p_proc&#45;&gt;show_true_name</title>
<path fill="none" stroke="#555555" stroke-dasharray="1,5" d="M297.18,-330.82C279.32,-319.06 251.9,-299.75 224.68,-280"/>
<polygon fill="#555555" stroke="#555555" points="227.01,-276.64 216.87,-273.58 222.89,-282.3 227.01,-276.64"/>
</g>
<!-- look_at_p_proc&#45;&gt;show_true_name -->
<g id="edge10" class="edge">
<title>look_at_p_proc&#45;&gt;show_true_name</title>
<path fill="none" stroke="#555555" stroke-dasharray="1,5" d="M301.63,-327.93C285.68,-315.16 259.52,-295.53 232.63,-275.96"/>
<polygon fill="#555555" stroke="#555555" points="235.03,-272.65 224.88,-269.61 230.92,-278.32 235.03,-272.65"/>
</g>
<!-- show_false_name -->
<g id="node8" class="node">
<title>show_false_name</title>
<ellipse fill="#ffffff" stroke="#000000" cx="316.94" cy="-209.45" rx="27" ry="18"/>
</g>
<!-- look_at_p_proc&#45;&gt;show_false_name -->
<g id="edge7" class="edge">
<title>look_at_p_proc&#45;&gt;show_false_name</title>
<path fill="none" stroke="#555555" stroke-dasharray="1,5" d="M307.71,-326.12C302.74,-303.98 302.11,-263.94 305.82,-237.27"/>
<polygon fill="#555555" stroke="#555555" points="309.39,-238.2 307.68,-227.75 302.5,-236.98 309.39,-238.2"/>
</g>
<!-- look_at_p_proc&#45;&gt;show_false_name -->
<g id="edge8" class="edge">
<title>look_at_p_proc&#45;&gt;show_false_name</title>
<path fill="none" stroke="#555555" stroke-dasharray="1,5" d="M316.94,-325.05C316.94,-303.04 316.94,-264.67 316.94,-238.44"/>
<polygon fill="#555555" stroke="#555555" points="320.44,-238.69 316.94,-228.69 313.44,-238.69 320.44,-238.69"/>
</g>
<!-- look_at_p_proc&#45;&gt;show_false_name -->
<g id="edge9" class="edge">
<title>look_at_p_proc&#45;&gt;show_false_name</title>
<path fill="none" stroke="#555555" stroke-dasharray="1,5" d="M326.17,-326.12C331.14,-303.98 331.77,-263.94 328.06,-237.27"/>
<polygon fill="#555555" stroke="#555555" points="331.39,-236.98 326.2,-227.75 324.49,-238.2 331.39,-236.98"/>
</g>
<!-- Beca02 -->
<g id="node9" class="node">
<title>Beca02</title>
<ellipse fill="#ffffff" stroke="#000000" cx="512.94" cy="-209.45" rx="150.79" ry="42.25"/>
<text text-anchor="middle" x="512.94" y="-222.02" font-family="Times,serif" font-size="14.00">Hey, homie! Wazzup? Crash</text>
<text text-anchor="middle" x="512.94" y="-204.77" font-family="Times,serif" font-size="14.00">here if you need a safe</text>
<text text-anchor="middle" x="512.94" y="-187.52" font-family="Times,serif" font-size="14.00">place.</text>
</g>
<!-- talk_p_proc&#45;&gt;Beca02 -->
<g id="edge11" class="edge">
<title>talk_p_proc&#45;&gt;Beca02</title>
<path fill="none" stroke="#555555" stroke-dasharray="1,5" d="M512.94,-325.05C512.94,-309.29 512.94,-285.13 512.94,-263.06"/>
<polygon fill="#555555" stroke="#555555" points="516.44,-263.09 512.94,-253.09 509.44,-263.09 516.44,-263.09"/>
</g>
<!-- Beca00 -->
<g id="node10" class="node">
<title>Beca00</title>
<ellipse fill="#ffffff" stroke="#000000" cx="817.94" cy="-209.45" rx="135.94" ry="54.45"/>
<text text-anchor="middle" x="817.94" y="-230.65" font-family="Times,serif" font-size="14.00">These are sleeping</text>
<text text-anchor="middle" x="817.94" y="-213.4" font-family="Times,serif" font-size="14.00">quarters. Now get out of</text>
<text text-anchor="middle" x="817.94" y="-196.15" font-family="Times,serif" font-size="14.00">here before I</text>
<text text-anchor="middle" x="817.94" y="-178.9" font-family="Times,serif" font-size="14.00"> kick your butt.</text>
</g>
<!-- talk_p_proc&#45;&gt;Beca00 -->
<g id="edge12" class="edge">
<title>talk_p_proc&#45;&gt;Beca00</title>
<path fill="none" stroke="#555555" stroke-dasharray="1,5" d="M537.54,-335.38C569.37,-326.13 626.27,-308.52 672.94,-288.29 692.34,-279.88 712.64,-269.83 731.7,-259.78"/>
<polygon fill="#555555" stroke="#555555" points="733.06,-262.49 740.24,-254.7 729.77,-256.31 733.06,-262.49"/>
</g>
<!-- BecaCombat -->
<g id="node11" class="node">
<title>BecaCombat</title>
<ellipse fill="#ffffff" stroke="#000000" cx="745.94" cy="-30.05" rx="27" ry="18"/>
</g>
<!-- Beca00&#45;&gt;BecaCombat -->
<g id="edge13" class="edge">
<title>Beca00&#45;&gt;BecaCombat</title>
<path fill="none" stroke="#009946" d="M789.81,-155.69C783,-141.87 776.07,-126.85 770.44,-112.6 763.47,-94.95 757.33,-74.5 752.94,-58.49"/>
<polygon fill="#009946" stroke="#009946" points="756.16,-57.96 750.19,-49.2 749.39,-59.77 756.16,-57.96"/>
<text text-anchor="middle" x="792.69" y="-90.68" font-family="Times,serif" font-size="14.00" fill="#009946">Try it.</text>
</g>
<!-- BecaEnd -->
<g id="node12" class="node">
<title>BecaEnd</title>
<ellipse fill="#ffffff" stroke="#000000" cx="817.94" cy="-30.05" rx="27" ry="18"/>
</g>
<!-- Beca00&#45;&gt;BecaEnd -->
<g id="edge14" class="edge">
<title>Beca00&#45;&gt;BecaEnd</title>
<path fill="none" stroke="#991a00" d="M817.94,-154.74C817.94,-123.26 817.94,-84.77 817.94,-59.17"/>
<polygon fill="#991a00" stroke="#991a00" points="821.44,-59.39 817.94,-49.39 814.44,-59.39 821.44,-59.39"/>
<text text-anchor="middle" x="879.44" y="-99.3" font-family="Times,serif" font-size="14.00" fill="#991a00">Sorry about that.</text>
<text text-anchor="middle" x="879.44" y="-82.05" font-family="Times,serif" font-size="14.00" fill="#991a00">Goodbye.</text>
</g>
<!-- Beca01 -->
<g id="node13" class="node">
<title>Beca01</title>
<ellipse fill="#ffffff" stroke="#000000" cx="992.94" cy="-30.05" rx="129.58" ry="30.05"/>
<text text-anchor="middle" x="992.94" y="-34" font-family="Times,serif" font-size="14.00">No. These are for real</text>
<text text-anchor="middle" x="992.94" y="-16.75" font-family="Times,serif" font-size="14.00">Blades, not some wuss.</text>
</g>
<!-- Beca00&#45;&gt;Beca01 -->
<g id="edge15" class="edge">
<title>Beca00&#45;&gt;Beca01</title>
<path fill="none" stroke="#001399" d="M888.68,-162.73C908.25,-148.13 928.58,-130.95 944.94,-112.6 956.31,-99.85 966.37,-84 974.3,-69.67"/>
<polygon fill="#001399" stroke="#001399" points="977.81,-71.53 979.44,-61.06 971.64,-68.23 977.81,-71.53"/>
<text text-anchor="middle" x="1031.57" y="-90.68" font-family="Times,serif" font-size="14.00" fill="#001399">Can I crash here?</text>
</g>
</g>
</svg>
