<?xml version="1.0" encoding="UTF-8" standalone="no"?>
<!DOCTYPE svg PUBLIC "-//W3C//DTD SVG 1.1//EN"
 "http://www.w3.org/Graphics/SVG/1.1/DTD/svg11.dtd">
<!-- Generated by graphviz version 8.0.5 (0)
 -->
<!-- Title: BOOKCASE Pages: 1 -->
<svg width="917pt" height="506pt"
 viewBox="0.00 0.00 916.62 506.03" xmlns="http://www.w3.org/2000/svg" xmlns:xlink="http://www.w3.org/1999/xlink">
<g id="graph0" class="graph" transform="scale(1 1) rotate(0) translate(4 502.03)">
<title>BOOKCASE</title>
<polygon fill="white" stroke="none" points="-4,4 -4,-502.03 912.62,-502.03 912.62,4 -4,4"/>
<!-- start -->
<g id="node1" class="node">
<title>start</title>
<ellipse fill="#ffffff" stroke="#000000" cx="557.62" cy="-480.03" rx="27" ry="18"/>
</g>
<!-- description_p_proc -->
<g id="node2" class="node">
<title>description_p_proc</title>
<ellipse fill="#ffffff" stroke="#000000" cx="121.62" cy="-213.02" rx="121.62" ry="42.25"/>
<text text-anchor="middle" x="121.62" y="-225.59" font-family="Times,serif" font-size="14.00">The bookshelf is filled</text>
<text text-anchor="middle" x="121.62" y="-208.34" font-family="Times,serif" font-size="14.00">with religious and</text>
<text text-anchor="middle" x="121.62" y="-191.09" font-family="Times,serif" font-size="14.00">philosophy books.</text>
</g>
<!-- start&#45;&gt;description_p_proc -->
<g id="edge1" class="edge">
<title>start&#45;&gt;description_p_proc</title>
<path fill="none" stroke="#555555" stroke-dasharray="1,5" d="M530.51,-477.18C464.42,-472.23 297.13,-456.91 251.62,-426.03 194.75,-387.45 158.34,-314.87 138.94,-265.5"/>
<polygon fill="#555555" stroke="#555555" points="141.89,-264.43 135.05,-256.34 135.35,-266.93 141.89,-264.43"/>
</g>
<!-- use_skill_on_p_proc -->
<g id="node3" class="node">
<title>use_skill_on_p_proc</title>
<ellipse fill="#ffffff" stroke="#000000" cx="409.62" cy="-213.02" rx="148.67" ry="213.02"/>
<text text-anchor="middle" x="409.62" y="-346.34" font-family="Times,serif" font-size="14.00">You find a hidden latch.</text>
<text text-anchor="middle" x="409.62" y="-329.09" font-family="Times,serif" font-size="14.00">&#45;&#45;&#45;</text>
<text text-anchor="middle" x="409.62" y="-311.84" font-family="Times,serif" font-size="14.00">You fumble with the</text>
<text text-anchor="middle" x="409.62" y="-294.59" font-family="Times,serif" font-size="14.00">bookcase for a moment but</text>
<text text-anchor="middle" x="409.62" y="-277.34" font-family="Times,serif" font-size="14.00">you fail to accomplish</text>
<text text-anchor="middle" x="409.62" y="-260.09" font-family="Times,serif" font-size="14.00"> anything.</text>
<text text-anchor="middle" x="409.62" y="-242.84" font-family="Times,serif" font-size="14.00">&#45;&#45;&#45;</text>
<text text-anchor="middle" x="409.62" y="-225.59" font-family="Times,serif" font-size="14.00">You find a hidden latch.</text>
<text text-anchor="middle" x="409.62" y="-208.34" font-family="Times,serif" font-size="14.00">&#45;&#45;&#45;</text>
<text text-anchor="middle" x="409.62" y="-191.09" font-family="Times,serif" font-size="14.00">You fumble with the</text>
<text text-anchor="middle" x="409.62" y="-173.84" font-family="Times,serif" font-size="14.00">bookcase for a moment but</text>
<text text-anchor="middle" x="409.62" y="-156.59" font-family="Times,serif" font-size="14.00">you fail to accomplish</text>
<text text-anchor="middle" x="409.62" y="-139.34" font-family="Times,serif" font-size="14.00"> anything.</text>
<text text-anchor="middle" x="409.62" y="-122.09" font-family="Times,serif" font-size="14.00">&#45;&#45;&#45;</text>
<text text-anchor="middle" x="409.62" y="-104.84" font-family="Times,serif" font-size="14.00">That does nothing.</text>
<text text-anchor="middle" x="409.62" y="-87.59" font-family="Times,serif" font-size="14.00">&#45;&#45;&#45;</text>
<text text-anchor="middle" x="409.62" y="-70.34" font-family="Times,serif" font-size="14.00">That does nothing.</text>
</g>
<!-- start&#45;&gt;use_skill_on_p_proc -->
<g id="edge2" class="edge">
<title>start&#45;&gt;use_skill_on_p_proc</title>
<path fill="none" stroke="#555555" stroke-dasharray="1,5" d="M548.59,-462.85C539.52,-446.61 524.49,-419.7 507.6,-389.45"/>
<polygon fill="#555555" stroke="#555555" points="510.23,-387.99 502.3,-380.96 504.12,-391.4 510.23,-387.99"/>
</g>
<!-- use_p_proc -->
<g id="node4" class="node">
<title>use_p_proc</title>
<ellipse fill="#ffffff" stroke="#000000" cx="706.62" cy="-213.02" rx="130.11" ry="115.44"/>
<text text-anchor="middle" x="706.62" y="-277.34" font-family="Times,serif" font-size="14.00">The wall next to the</text>
<text text-anchor="middle" x="706.62" y="-260.09" font-family="Times,serif" font-size="14.00">bookshelf quietly slides</text>
<text text-anchor="middle" x="706.62" y="-242.84" font-family="Times,serif" font-size="14.00">out of the way.</text>
<text text-anchor="middle" x="706.62" y="-225.59" font-family="Times,serif" font-size="14.00">&#45;&#45;&#45;</text>
<text text-anchor="middle" x="706.62" y="-208.34" font-family="Times,serif" font-size="14.00">You take a book down,</text>
<text text-anchor="middle" x="706.62" y="-191.09" font-family="Times,serif" font-size="14.00">examine it and quickly</text>
<text text-anchor="middle" x="706.62" y="-173.84" font-family="Times,serif" font-size="14.00">replace it on the shelf.</text>
<text text-anchor="middle" x="706.62" y="-156.59" font-family="Times,serif" font-size="14.00">The shelf itself seems</text>
<text text-anchor="middle" x="706.62" y="-139.34" font-family="Times,serif" font-size="14.00">very sturdy.</text>
</g>
<!-- start&#45;&gt;use_p_proc -->
<g id="edge3" class="edge">
<title>start&#45;&gt;use_p_proc</title>
<path fill="none" stroke="#555555" stroke-dasharray="1,5" d="M566.72,-462.85C581.98,-435.71 613.97,-378.81 643.51,-326.27"/>
<polygon fill="#555555" stroke="#555555" points="646.95,-328.29 648.8,-317.86 640.85,-324.86 646.95,-328.29"/>
</g>
<!-- pickup_p_proc -->
<g id="node5" class="node">
<title>pickup_p_proc</title>
<ellipse fill="#ffffff" stroke="#000000" cx="881.62" cy="-213.02" rx="27" ry="18"/>
</g>
<!-- start&#45;&gt;pickup_p_proc -->
<g id="edge4" class="edge">
<title>start&#45;&gt;pickup_p_proc</title>
<path fill="none" stroke="#555555" stroke-dasharray="1,5" d="M578.14,-468.05C583.1,-465.76 588.46,-463.58 593.62,-462.03 647.8,-445.77 805.1,-465.5 845.62,-426.03 895.32,-377.62 891.84,-287.78 886.19,-242.16"/>
<polygon fill="#555555" stroke="#555555" points="889.53,-241.74 884.7,-232.31 882.6,-242.7 889.53,-241.74"/>
</g>
<!-- secret -->
<g id="node6" class="node">
<title>secret</title>
<ellipse fill="#ffffff" stroke="#000000" cx="731.62" cy="-480.03" rx="129.07" ry="18"/>
<text text-anchor="middle" x="731.62" y="-475.36" font-family="Times,serif" font-size="14.00">You find a hidden latch.</text>
</g>
</g>
</svg>
