<?xml version="1.0" encoding="UTF-8" standalone="no"?>
<!DOCTYPE svg PUBLIC "-//W3C//DTD SVG 1.1//EN"
 "http://www.w3.org/Graphics/SVG/1.1/DTD/svg11.dtd">
<!-- Generated by graphviz version 8.0.5 (0)
 -->
<!-- Title: BROELD Pages: 1 -->
<svg width="552pt" height="140pt"
 viewBox="0.00 0.00 552.00 140.10" xmlns="http://www.w3.org/2000/svg" xmlns:xlink="http://www.w3.org/1999/xlink">
<g id="graph0" class="graph" transform="scale(1 1) rotate(0) translate(4 136.1)">
<title>BROELD</title>
<polygon fill="white" stroke="none" points="-4,4 -4,-136.1 548,-136.1 548,4 -4,4"/>
<!-- start -->
<g id="node1" class="node">
<title>start</title>
<ellipse fill="#ffffff" stroke="#000000" cx="171" cy="-114.1" rx="27" ry="18"/>
</g>
<!-- talk_p_proc -->
<g id="node2" class="node">
<title>talk_p_proc</title>
<ellipse fill="#ffffff" stroke="#000000" cx="27" cy="-30.05" rx="27" ry="18"/>
</g>
<!-- start&#45;&gt;talk_p_proc -->
<g id="edge1" class="edge">
<title>start&#45;&gt;talk_p_proc</title>
<path fill="none" stroke="#555555" stroke-dasharray="1,5" d="M148.29,-103.73C125.88,-94.08 91,-77.96 63,-60.1 58.93,-57.51 54.78,-54.53 50.82,-51.49"/>
<polygon fill="#555555" stroke="#555555" points="53.55,-48.39 43.55,-44.87 49.17,-53.85 53.55,-48.39"/>
</g>
<!-- critter_p_proc -->
<g id="node3" class="node">
<title>critter_p_proc</title>
<ellipse fill="#ffffff" stroke="#000000" cx="99" cy="-30.05" rx="27" ry="18"/>
</g>
<!-- start&#45;&gt;critter_p_proc -->
<g id="edge2" class="edge">
<title>start&#45;&gt;critter_p_proc</title>
<path fill="none" stroke="#555555" stroke-dasharray="1,5" d="M157.79,-98.05C147.04,-85.79 131.66,-68.28 119.34,-54.23"/>
<polygon fill="#555555" stroke="#555555" points="121.35,-52.21 112.12,-47.01 116.09,-56.83 121.35,-52.21"/>
</g>
<!-- pickup_p_proc -->
<g id="node4" class="node">
<title>pickup_p_proc</title>
<ellipse fill="#ffffff" stroke="#000000" cx="171" cy="-30.05" rx="27" ry="18"/>
</g>
<!-- start&#45;&gt;pickup_p_proc -->
<g id="edge3" class="edge">
<title>start&#45;&gt;pickup_p_proc</title>
<path fill="none" stroke="#555555" stroke-dasharray="1,5" d="M171,-95.7C171,-85.15 171,-71.44 171,-59.35"/>
<polygon fill="#555555" stroke="#555555" points="174.5,-59.43 171,-49.43 167.5,-59.43 174.5,-59.43"/>
</g>
<!-- look_at_p_proc -->
<g id="node5" class="node">
<title>look_at_p_proc</title>
<ellipse fill="#ffffff" stroke="#000000" cx="344" cy="-30.05" rx="127.99" ry="30.05"/>
<text text-anchor="middle" x="344" y="-34" font-family="Times,serif" font-size="14.00">You see an Elder of the</text>
<text text-anchor="middle" x="344" y="-16.75" font-family="Times,serif" font-size="14.00">Brotherhood.</text>
</g>
<!-- start&#45;&gt;look_at_p_proc -->
<g id="edge4" class="edge">
<title>start&#45;&gt;look_at_p_proc</title>
<path fill="none" stroke="#555555" stroke-dasharray="1,5" d="M192.56,-102.88C214.06,-92.68 248.16,-76.51 278.57,-62.09"/>
<polygon fill="#555555" stroke="#555555" points="279.75,-64.92 287.29,-57.48 276.75,-58.6 279.75,-64.92"/>
</g>
<!-- destroy_p_proc -->
<g id="node6" class="node">
<title>destroy_p_proc</title>
<ellipse fill="#ffffff" stroke="#000000" cx="517" cy="-30.05" rx="27" ry="18"/>
</g>
<!-- start&#45;&gt;destroy_p_proc -->
<g id="edge5" class="edge">
<title>start&#45;&gt;destroy_p_proc</title>
<path fill="none" stroke="#555555" stroke-dasharray="1,5" d="M198.03,-112.99C253.56,-111.82 383.47,-104.15 481,-60.1 485.49,-58.08 489.89,-55.36 493.99,-52.39"/>
<polygon fill="#555555" stroke="#555555" points="495.76,-54.65 501.4,-45.68 491.4,-49.18 495.76,-54.65"/>
</g>
</g>
</svg>
