<?xml version="1.0" encoding="UTF-8" standalone="no"?>
<!DOCTYPE svg PUBLIC "-//W3C//DTD SVG 1.1//EN"
 "http://www.w3.org/Graphics/SVG/1.1/DTD/svg11.dtd">
<!-- Generated by graphviz version 8.0.5 (0)
 -->
<!-- Title: BULLBORD Pages: 1 -->
<svg width="544pt" height="749pt"
 viewBox="0.00 0.00 544.45 749.33" xmlns="http://www.w3.org/2000/svg" xmlns:xlink="http://www.w3.org/1999/xlink">
<g id="graph0" class="graph" transform="scale(1 1) rotate(0) translate(4 745.33)">
<title>BULLBORD</title>
<polygon fill="white" stroke="none" points="-4,4 -4,-745.33 540.45,-745.33 540.45,4 -4,4"/>
<!-- start -->
<g id="node1" class="node">
<title>start</title>
<ellipse fill="#ffffff" stroke="#000000" cx="318.96" cy="-723.33" rx="27" ry="18"/>
</g>
<!-- look_at_p_proc -->
<g id="node2" class="node">
<title>look_at_p_proc</title>
<ellipse fill="#ffffff" stroke="#000000" cx="136.96" cy="-650.33" rx="136.96" ry="18"/>
<text text-anchor="middle" x="136.96" y="-645.65" font-family="Times,serif" font-size="14.00">You see a Bulletin Board.</text>
</g>
<!-- start&#45;&gt;look_at_p_proc -->
<g id="edge1" class="edge">
<title>start&#45;&gt;look_at_p_proc</title>
<path fill="none" stroke="#555555" stroke-dasharray="1,5" d="M295.91,-713.34C269.27,-702.94 224.58,-685.51 189.36,-671.77"/>
<polygon fill="#555555" stroke="#555555" points="190.82,-668.19 180.24,-667.82 188.28,-674.71 190.82,-668.19"/>
</g>
<!-- use_p_proc -->
<g id="node3" class="node">
<title>use_p_proc</title>
<ellipse fill="#ffffff" stroke="#000000" cx="318.96" cy="-650.33" rx="27" ry="18"/>
</g>
<!-- start&#45;&gt;use_p_proc -->
<g id="edge2" class="edge">
<title>start&#45;&gt;use_p_proc</title>
<path fill="none" stroke="#555555" stroke-dasharray="1,5" d="M318.96,-705.14C318.96,-697.38 318.96,-688.01 318.96,-679.28"/>
<polygon fill="#555555" stroke="#555555" points="322.46,-679.36 318.96,-669.36 315.46,-679.36 322.46,-679.36"/>
</g>
<!-- talk_p_proc -->
<g id="node4" class="node">
<title>talk_p_proc</title>
<ellipse fill="#ffffff" stroke="#000000" cx="390.96" cy="-650.33" rx="27" ry="18"/>
</g>
<!-- start&#45;&gt;talk_p_proc -->
<g id="edge3" class="edge">
<title>start&#45;&gt;talk_p_proc</title>
<path fill="none" stroke="#555555" stroke-dasharray="1,5" d="M333.53,-707.96C343.62,-698.02 357.23,-684.6 368.67,-673.32"/>
<polygon fill="#555555" stroke="#555555" points="370.51,-676.43 375.17,-666.92 365.59,-671.45 370.51,-676.43"/>
</g>
<!-- bull01 -->
<g id="node5" class="node">
<title>bull01</title>
<ellipse fill="#ffffff" stroke="#000000" cx="390.96" cy="-540.88" rx="145.49" ry="54.45"/>
<text text-anchor="middle" x="390.96" y="-562.08" font-family="Times,serif" font-size="14.00">NEED WORK? &#160;The Far Go</text>
<text text-anchor="middle" x="390.96" y="-544.83" font-family="Times,serif" font-size="14.00">Traders are currently</text>
<text text-anchor="middle" x="390.96" y="-527.58" font-family="Times,serif" font-size="14.00">filling the following</text>
<text text-anchor="middle" x="390.96" y="-510.33" font-family="Times,serif" font-size="14.00">positions:</text>
</g>
<!-- talk_p_proc&#45;&gt;bull01 -->
<g id="edge4" class="edge">
<title>talk_p_proc&#45;&gt;bull01</title>
<path fill="none" stroke="#555555" stroke-dasharray="1,5" d="M390.96,-632.06C390.96,-624.82 390.96,-615.91 390.96,-606.53"/>
<polygon fill="#555555" stroke="#555555" points="394.46,-606.81 390.96,-596.81 387.46,-606.81 394.46,-606.81"/>
</g>
<!-- bull02 -->
<g id="node6" class="node">
<title>bull02</title>
<ellipse fill="#ffffff" stroke="#000000" cx="390.96" cy="-390.93" rx="144.43" ry="42.25"/>
<text text-anchor="middle" x="390.96" y="-403.51" font-family="Times,serif" font-size="14.00">1. Caravan Guards. &#160;Must</text>
<text text-anchor="middle" x="390.96" y="-386.26" font-family="Times,serif" font-size="14.00">be in good physical</text>
<text text-anchor="middle" x="390.96" y="-369.01" font-family="Times,serif" font-size="14.00">condition and dependable.</text>
</g>
<!-- bull01&#45;&gt;bull02 -->
<g id="edge5" class="edge">
<title>bull01&#45;&gt;bull02</title>
<path fill="none" stroke="#004f99" d="M390.96,-486.05C390.96,-472.36 390.96,-457.67 390.96,-444.07"/>
<polygon fill="#004f99" stroke="#004f99" points="394.46,-444.43 390.96,-434.43 387.46,-444.43 394.46,-444.43"/>
<text text-anchor="middle" x="414.96" y="-455.13" font-family="Times,serif" font-size="14.00" fill="#004f99">[More]</text>
</g>
<!-- bull03 -->
<g id="node7" class="node">
<title>bull03</title>
<ellipse fill="#ffffff" stroke="#000000" cx="390.96" cy="-240.99" rx="127.99" ry="54.45"/>
<text text-anchor="middle" x="390.96" y="-262.19" font-family="Times,serif" font-size="14.00">2. Special Position. </text>
<text text-anchor="middle" x="390.96" y="-244.94" font-family="Times,serif" font-size="14.00">Must be observant and</text>
<text text-anchor="middle" x="390.96" y="-227.69" font-family="Times,serif" font-size="14.00">willing to travel in</text>
<text text-anchor="middle" x="390.96" y="-210.44" font-family="Times,serif" font-size="14.00">dangerous territory.</text>
</g>
<!-- bull02&#45;&gt;bull03 -->
<g id="edge6" class="edge">
<title>bull02&#45;&gt;bull03</title>
<path fill="none" stroke="#7c9900" d="M390.96,-348.33C390.96,-335.32 390.96,-320.65 390.96,-306.45"/>
<polygon fill="#7c9900" stroke="#7c9900" points="394.46,-306.72 390.96,-296.72 387.46,-306.72 394.46,-306.72"/>
<text text-anchor="middle" x="414.96" y="-317.38" font-family="Times,serif" font-size="14.00" fill="#7c9900">[More]</text>
</g>
<!-- bull04 -->
<g id="node8" class="node">
<title>bull04</title>
<ellipse fill="#ffffff" stroke="#000000" cx="390.96" cy="-66.64" rx="137" ry="66.64"/>
<text text-anchor="middle" x="390.96" y="-96.47" font-family="Times,serif" font-size="14.00">Own weapons and ammo</text>
<text text-anchor="middle" x="390.96" y="-79.22" font-family="Times,serif" font-size="14.00">required for all jobs. </text>
<text text-anchor="middle" x="390.96" y="-61.97" font-family="Times,serif" font-size="14.00">Inquire with Rutger at</text>
<text text-anchor="middle" x="390.96" y="-44.72" font-family="Times,serif" font-size="14.00">the Far Go Traders</text>
<text text-anchor="middle" x="390.96" y="-27.47" font-family="Times,serif" font-size="14.00">office.</text>
</g>
<!-- bull03&#45;&gt;bull04 -->
<g id="edge7" class="edge">
<title>bull03&#45;&gt;bull04</title>
<path fill="none" stroke="#8a0099" d="M390.96,-186.4C390.96,-173.09 390.96,-158.57 390.96,-144.39"/>
<polygon fill="#8a0099" stroke="#8a0099" points="394.46,-144.64 390.96,-134.64 387.46,-144.64 394.46,-144.64"/>
<text text-anchor="middle" x="414.96" y="-155.24" font-family="Times,serif" font-size="14.00" fill="#8a0099">[More]</text>
</g>
</g>
</svg>
