<?xml version="1.0" encoding="UTF-8" standalone="no"?>
<!DOCTYPE svg PUBLIC "-//W3C//DTD SVG 1.1//EN"
 "http://www.w3.org/Graphics/SVG/1.1/DTD/svg11.dtd">
<!-- Generated by graphviz version 8.0.5 (0)
 -->
<!-- Title: BYGREG Pages: 1 -->
<svg width="2518pt" height="529pt"
 viewBox="0.00 0.00 2518.00 529.24" xmlns="http://www.w3.org/2000/svg" xmlns:xlink="http://www.w3.org/1999/xlink">
<g id="graph0" class="graph" transform="scale(1 1) rotate(0) translate(4 525.24)">
<title>BYGREG</title>
<polygon fill="white" stroke="none" points="-4,4 -4,-525.24 2514,-525.24 2514,4 -4,4"/>
<!-- Start -->
<g id="node1" class="node">
<title>Start</title>
<ellipse fill="#ffffff" stroke="#000000" cx="27" cy="-332.62" rx="27" ry="18"/>
</g>
<!-- look_at_p_proc -->
<g id="node2" class="node">
<title>look_at_p_proc</title>
<ellipse fill="#ffffff" stroke="#000000" cx="213" cy="-332.62" rx="141.24" ry="66.64"/>
<text text-anchor="middle" x="213" y="-362.45" font-family="Times,serif" font-size="14.00">You see Greg.</text>
<text text-anchor="middle" x="213" y="-345.2" font-family="Times,serif" font-size="14.00">&#45;&#45;&#45;</text>
<text text-anchor="middle" x="213" y="-327.95" font-family="Times,serif" font-size="14.00">You see a man, he quickly</text>
<text text-anchor="middle" x="213" y="-310.7" font-family="Times,serif" font-size="14.00">stares intensely into</text>
<text text-anchor="middle" x="213" y="-293.45" font-family="Times,serif" font-size="14.00">your eyes and then away.</text>
</g>
<!-- description_p_proc -->
<g id="node3" class="node">
<title>description_p_proc</title>
<ellipse fill="#ffffff" stroke="#000000" cx="513" cy="-332.62" rx="141.24" ry="66.64"/>
<text text-anchor="middle" x="513" y="-362.45" font-family="Times,serif" font-size="14.00">You see Greg.</text>
<text text-anchor="middle" x="513" y="-345.2" font-family="Times,serif" font-size="14.00">&#45;&#45;&#45;</text>
<text text-anchor="middle" x="513" y="-327.95" font-family="Times,serif" font-size="14.00">You see a man, he quickly</text>
<text text-anchor="middle" x="513" y="-310.7" font-family="Times,serif" font-size="14.00">stares intensely into</text>
<text text-anchor="middle" x="513" y="-293.45" font-family="Times,serif" font-size="14.00">your eyes and then away.</text>
</g>
<!-- talk_p_proc -->
<g id="node4" class="node">
<title>talk_p_proc</title>
<ellipse fill="#ffffff" stroke="#000000" cx="699" cy="-332.62" rx="27" ry="18"/>
</g>
<!-- get_reaction -->
<g id="node5" class="node">
<title>get_reaction</title>
<ellipse fill="#ffffff" stroke="#000000" cx="699" cy="-90" rx="27" ry="18"/>
</g>
<!-- talk_p_proc&#45;&gt;get_reaction -->
<g id="edge1" class="edge">
<title>talk_p_proc&#45;&gt;get_reaction</title>
<path fill="none" stroke="#555555" stroke-dasharray="1,5" d="M699,-314.32C699,-273.23 699,-169.48 699,-119.2"/>
<polygon fill="#555555" stroke="#555555" points="702.5,-119.47 699,-109.47 695.5,-119.47 702.5,-119.47"/>
</g>
<!-- BYGreg03 -->
<g id="node6" class="node">
<title>BYGreg03</title>
<ellipse fill="#ffffff" stroke="#000000" cx="771" cy="-90" rx="27" ry="18"/>
</g>
<!-- talk_p_proc&#45;&gt;BYGreg03 -->
<g id="edge2" class="edge">
<title>talk_p_proc&#45;&gt;BYGreg03</title>
<path fill="none" stroke="#555555" stroke-dasharray="1,5" d="M699.97,-314.4C702.39,-280.54 710.35,-203.44 735,-144 739.19,-133.89 745.48,-123.72 751.64,-115.03"/>
<polygon fill="#555555" stroke="#555555" points="755,-117.37 758.15,-107.26 749.38,-113.2 755,-117.37"/>
</g>
<!-- ReactToLevel -->
<g id="node16" class="node">
<title>ReactToLevel</title>
<ellipse fill="#ffffff" stroke="#000000" cx="915" cy="-18" rx="27" ry="18"/>
</g>
<!-- get_reaction&#45;&gt;ReactToLevel -->
<g id="edge4" class="edge">
<title>get_reaction&#45;&gt;ReactToLevel</title>
<path fill="none" stroke="#555555" stroke-dasharray="1,5" d="M720.08,-78.38C724.92,-76.13 730.09,-73.87 735,-72 783.97,-53.36 842.47,-37.22 879.19,-27.79"/>
<polygon fill="#555555" stroke="#555555" points="880.02,-30.94 888.85,-25.09 878.29,-24.16 880.02,-30.94"/>
</g>
<!-- critter_p_proc -->
<g id="node7" class="node">
<title>critter_p_proc</title>
<ellipse fill="#ffffff" stroke="#000000" cx="843" cy="-332.62" rx="27" ry="18"/>
</g>
<!-- damage_p_proc -->
<g id="node8" class="node">
<title>damage_p_proc</title>
<ellipse fill="#ffffff" stroke="#000000" cx="915" cy="-332.62" rx="27" ry="18"/>
</g>
<!-- destroy_p_proc -->
<g id="node9" class="node">
<title>destroy_p_proc</title>
<ellipse fill="#ffffff" stroke="#000000" cx="987" cy="-332.62" rx="27" ry="18"/>
</g>
<!-- pickup_p_proc -->
<g id="node10" class="node">
<title>pickup_p_proc</title>
<ellipse fill="#ffffff" stroke="#000000" cx="1059" cy="-332.62" rx="27" ry="18"/>
</g>
<!-- BYGreg04 -->
<g id="node11" class="node">
<title>BYGreg04</title>
<ellipse fill="#ffffff" stroke="#000000" cx="771" cy="-332.62" rx="27" ry="18"/>
</g>
<!-- BYGreg04&#45;&gt;BYGreg03 -->
<g id="edge3" class="edge">
<title>BYGreg04&#45;&gt;BYGreg03</title>
<path fill="none" stroke="#555555" stroke-dasharray="1,5" d="M771,-314.32C771,-273.23 771,-169.48 771,-119.2"/>
<polygon fill="#555555" stroke="#555555" points="774.5,-119.47 771,-109.47 767.5,-119.47 774.5,-119.47"/>
</g>
<!-- BYGreg05 -->
<g id="node12" class="node">
<title>BYGreg05</title>
<ellipse fill="#ffffff" stroke="#000000" cx="1242" cy="-332.62" rx="137.53" ry="78.84"/>
<text text-anchor="middle" x="1242" y="-371.07" font-family="Times,serif" font-size="14.00">Jumpy, I&#39;m not jumpy. </text>
<text text-anchor="middle" x="1242" y="-353.82" font-family="Times,serif" font-size="14.00">Just careful. &#160;They all</text>
<text text-anchor="middle" x="1242" y="-336.57" font-family="Times,serif" font-size="14.00">say I&#39;m paranoid, but I&#39;m</text>
<text text-anchor="middle" x="1242" y="-319.32" font-family="Times,serif" font-size="14.00">the one that&#39;s gonna be</text>
<text text-anchor="middle" x="1242" y="-302.07" font-family="Times,serif" font-size="14.00">here when they come to</text>
<text text-anchor="middle" x="1242" y="-284.82" font-family="Times,serif" font-size="14.00">get us.</text>
</g>
<!-- BYGreg06 -->
<g id="node13" class="node">
<title>BYGreg06</title>
<ellipse fill="#ffffff" stroke="#000000" cx="1560" cy="-332.62" rx="162.46" ry="188.62"/>
<text text-anchor="middle" x="1560" y="-448.7" font-family="Times,serif" font-size="14.00">Well they are...You know</text>
<text text-anchor="middle" x="1560" y="-431.45" font-family="Times,serif" font-size="14.00">don&#39;t you...The disease</text>
<text text-anchor="middle" x="1560" y="-414.2" font-family="Times,serif" font-size="14.00">was just the start. &#160;Now</text>
<text text-anchor="middle" x="1560" y="-396.95" font-family="Times,serif" font-size="14.00">they&#39;re going to come and</text>
<text text-anchor="middle" x="1560" y="-379.7" font-family="Times,serif" font-size="14.00">take as all. &#160;But you are</text>
<text text-anchor="middle" x="1560" y="-362.45" font-family="Times,serif" font-size="14.00">just like all the rest. </text>
<text text-anchor="middle" x="1560" y="-345.2" font-family="Times,serif" font-size="14.00">You won&#39;t believe me, and</text>
<text text-anchor="middle" x="1560" y="-327.95" font-family="Times,serif" font-size="14.00">you&#39;ll be doomed. &#160;You</text>
<text text-anchor="middle" x="1560" y="-310.7" font-family="Times,serif" font-size="14.00">mark my words. &#160;&#160;I&#39;LL</text>
<text text-anchor="middle" x="1560" y="-293.45" font-family="Times,serif" font-size="14.00">STILL BE HERE, and ALL OF</text>
<text text-anchor="middle" x="1560" y="-276.2" font-family="Times,serif" font-size="14.00">THIS, INCLUDING YOU, WILL</text>
<text text-anchor="middle" x="1560" y="-258.95" font-family="Times,serif" font-size="14.00">BE TAKEN. &#160;TAKEN. [Greg</text>
<text text-anchor="middle" x="1560" y="-241.7" font-family="Times,serif" font-size="14.00">grasps his head and curls</text>
<text text-anchor="middle" x="1560" y="-224.45" font-family="Times,serif" font-size="14.00">up in a ball, squealing</text>
<text text-anchor="middle" x="1560" y="-207.2" font-family="Times,serif" font-size="14.00">and thrashing about]</text>
</g>
<!-- BYGreg07 -->
<g id="node14" class="node">
<title>BYGreg07</title>
<ellipse fill="#ffffff" stroke="#000000" cx="1909" cy="-332.62" rx="168.82" ry="164.23"/>
<text text-anchor="middle" x="1909" y="-431.45" font-family="Times,serif" font-size="14.00">Medication...Oh so you&#39;re</text>
<text text-anchor="middle" x="1909" y="-414.2" font-family="Times,serif" font-size="14.00">one of them, trying to</text>
<text text-anchor="middle" x="1909" y="-396.95" font-family="Times,serif" font-size="14.00">get me to take my</text>
<text text-anchor="middle" x="1909" y="-379.7" font-family="Times,serif" font-size="14.00">medication again....Well</text>
<text text-anchor="middle" x="1909" y="-362.45" font-family="Times,serif" font-size="14.00">you won&#39;t get me to. &#160;I</text>
<text text-anchor="middle" x="1909" y="-345.2" font-family="Times,serif" font-size="14.00">WON&#39;T TAKE IT, NO, I</text>
<text text-anchor="middle" x="1909" y="-327.95" font-family="Times,serif" font-size="14.00">WON&#39;T. &#160;THE VOICES, NO I</text>
<text text-anchor="middle" x="1909" y="-310.7" font-family="Times,serif" font-size="14.00">WON&#39;T, YOU CAN&#39;T MAKE ME.</text>
<text text-anchor="middle" x="1909" y="-293.45" font-family="Times,serif" font-size="14.00">[Greg close his eyes shut</text>
<text text-anchor="middle" x="1909" y="-276.2" font-family="Times,serif" font-size="14.00">and clutches his head</text>
<text text-anchor="middle" x="1909" y="-258.95" font-family="Times,serif" font-size="14.00">frantically, talking with</text>
<text text-anchor="middle" x="1909" y="-241.7" font-family="Times,serif" font-size="14.00">the voices that only he</text>
<text text-anchor="middle" x="1909" y="-224.45" font-family="Times,serif" font-size="14.00">can hear.]</text>
</g>
<!-- BYGregEnd -->
<g id="node15" class="node">
<title>BYGregEnd</title>
<ellipse fill="#ffffff" stroke="#000000" cx="2123" cy="-332.62" rx="27" ry="18"/>
</g>
<!-- LevelToReact -->
<g id="node17" class="node">
<title>LevelToReact</title>
<ellipse fill="#ffffff" stroke="#000000" cx="2231" cy="-90" rx="27" ry="18"/>
</g>
<!-- UpReact -->
<g id="node18" class="node">
<title>UpReact</title>
<ellipse fill="#ffffff" stroke="#000000" cx="843" cy="-90" rx="27" ry="18"/>
</g>
<!-- UpReact&#45;&gt;ReactToLevel -->
<g id="edge5" class="edge">
<title>UpReact&#45;&gt;ReactToLevel</title>
<path fill="none" stroke="#555555" stroke-dasharray="1,5" d="M857.92,-74.5C867.86,-64.83 881.12,-51.94 892.35,-41.02"/>
<polygon fill="#555555" stroke="#555555" points="894.37,-43.97 899.1,-34.49 889.49,-38.95 894.37,-43.97"/>
</g>
<!-- DownReact -->
<g id="node19" class="node">
<title>DownReact</title>
<ellipse fill="#ffffff" stroke="#000000" cx="915" cy="-90" rx="27" ry="18"/>
</g>
<!-- DownReact&#45;&gt;ReactToLevel -->
<g id="edge6" class="edge">
<title>DownReact&#45;&gt;ReactToLevel</title>
<path fill="none" stroke="#555555" stroke-dasharray="1,5" d="M915,-71.7C915,-64.24 915,-55.32 915,-46.97"/>
<polygon fill="#555555" stroke="#555555" points="918.5,-47.1 915,-37.1 911.5,-47.1 918.5,-47.1"/>
</g>
<!-- BottomReact -->
<g id="node20" class="node">
<title>BottomReact</title>
<ellipse fill="#ffffff" stroke="#000000" cx="2339" cy="-332.62" rx="27" ry="18"/>
</g>
<!-- TopReact -->
<g id="node21" class="node">
<title>TopReact</title>
<ellipse fill="#ffffff" stroke="#000000" cx="2411" cy="-332.62" rx="27" ry="18"/>
</g>
<!-- BigUpReact -->
<g id="node22" class="node">
<title>BigUpReact</title>
<ellipse fill="#ffffff" stroke="#000000" cx="987" cy="-90" rx="27" ry="18"/>
</g>
<!-- BigUpReact&#45;&gt;ReactToLevel -->
<g id="edge7" class="edge">
<title>BigUpReact&#45;&gt;ReactToLevel</title>
<path fill="none" stroke="#555555" stroke-dasharray="1,5" d="M972.08,-74.5C962.14,-64.83 948.88,-51.94 937.65,-41.02"/>
<polygon fill="#555555" stroke="#555555" points="940.51,-38.95 930.9,-34.49 935.63,-43.97 940.51,-38.95"/>
</g>
<!-- BigDownReact -->
<g id="node23" class="node">
<title>BigDownReact</title>
<ellipse fill="#ffffff" stroke="#000000" cx="1059" cy="-90" rx="27" ry="18"/>
</g>
<!-- BigDownReact&#45;&gt;ReactToLevel -->
<g id="edge8" class="edge">
<title>BigDownReact&#45;&gt;ReactToLevel</title>
<path fill="none" stroke="#555555" stroke-dasharray="1,5" d="M1037.44,-78.52C1013.12,-66.7 973.38,-47.38 945.8,-33.97"/>
<polygon fill="#555555" stroke="#555555" points="947.76,-30.55 937.24,-29.32 944.7,-36.84 947.76,-30.55"/>
</g>
<!-- UpReactLevel -->
<g id="node24" class="node">
<title>UpReactLevel</title>
<ellipse fill="#ffffff" stroke="#000000" cx="2195" cy="-332.62" rx="27" ry="18"/>
</g>
<!-- UpReactLevel&#45;&gt;LevelToReact -->
<g id="edge9" class="edge">
<title>UpReactLevel&#45;&gt;LevelToReact</title>
<path fill="none" stroke="#555555" stroke-dasharray="1,5" d="M2197.59,-314.32C2203.75,-273.13 2219.33,-168.98 2226.84,-118.83"/>
<polygon fill="#555555" stroke="#555555" points="2230.42,-119.56 2228.43,-109.15 2223.49,-118.52 2230.42,-119.56"/>
</g>
<!-- DownReactLevel -->
<g id="node25" class="node">
<title>DownReactLevel</title>
<ellipse fill="#ffffff" stroke="#000000" cx="2267" cy="-332.62" rx="27" ry="18"/>
</g>
<!-- DownReactLevel&#45;&gt;LevelToReact -->
<g id="edge10" class="edge">
<title>DownReactLevel&#45;&gt;LevelToReact</title>
<path fill="none" stroke="#555555" stroke-dasharray="1,5" d="M2264.41,-314.32C2258.25,-273.13 2242.67,-168.98 2235.16,-118.83"/>
<polygon fill="#555555" stroke="#555555" points="2238.51,-118.52 2233.57,-109.15 2231.58,-119.56 2238.51,-118.52"/>
</g>
<!-- Goodbyes -->
<g id="node26" class="node">
<title>Goodbyes</title>
<ellipse fill="#ffffff" stroke="#000000" cx="2483" cy="-332.62" rx="27" ry="18"/>
</g>
</g>
</svg>
