<?xml version="1.0" encoding="UTF-8" standalone="no"?>
<!DOCTYPE svg PUBLIC "-//W3C//DTD SVG 1.1//EN"
 "http://www.w3.org/Graphics/SVG/1.1/DTD/svg11.dtd">
<!-- Generated by graphviz version 8.0.5 (0)
 -->
<!-- Title: CARVLEAD Pages: 1 -->
<svg width="2632pt" height="1518pt"
 viewBox="0.00 0.00 2632.00 1518.35" xmlns="http://www.w3.org/2000/svg" xmlns:xlink="http://www.w3.org/1999/xlink">
<g id="graph0" class="graph" transform="scale(1 1) rotate(0) translate(4 1514.35)">
<title>CARVLEAD</title>
<polygon fill="white" stroke="none" points="-4,4 -4,-1514.35 2628,-1514.35 2628,4 -4,4"/>
<!-- start -->
<g id="node1" class="node">
<title>start</title>
<ellipse fill="#ffffff" stroke="#000000" cx="415" cy="-1455.9" rx="27" ry="18"/>
</g>
<!-- look_at_p_proc -->
<g id="node2" class="node">
<title>look_at_p_proc</title>
<ellipse fill="#ffffff" stroke="#000000" cx="186" cy="-1322.21" rx="112.08" ry="30.05"/>
<text text-anchor="middle" x="186" y="-1326.16" font-family="Times,serif" font-size="14.00">You see the caravan</text>
<text text-anchor="middle" x="186" y="-1308.91" font-family="Times,serif" font-size="14.00">leader.</text>
</g>
<!-- start&#45;&gt;look_at_p_proc -->
<g id="edge1" class="edge">
<title>start&#45;&gt;look_at_p_proc</title>
<path fill="none" stroke="#555555" stroke-dasharray="1,5" d="M395.08,-1443.45C361.24,-1423.99 291.38,-1383.81 241.74,-1355.26"/>
<polygon fill="#555555" stroke="#555555" points="243.82,-1351.85 233.41,-1349.9 240.33,-1357.92 243.82,-1351.85"/>
</g>
<!-- pickup_p_proc -->
<g id="node3" class="node">
<title>pickup_p_proc</title>
<ellipse fill="#ffffff" stroke="#000000" cx="343" cy="-1322.21" rx="27" ry="18"/>
</g>
<!-- start&#45;&gt;pickup_p_proc -->
<g id="edge2" class="edge">
<title>start&#45;&gt;pickup_p_proc</title>
<path fill="none" stroke="#555555" stroke-dasharray="1,5" d="M406.03,-1438.49C393.73,-1415.99 371.5,-1375.34 357,-1348.82"/>
<polygon fill="#555555" stroke="#555555" points="359.73,-1347.51 351.86,-1340.41 353.59,-1350.87 359.73,-1347.51"/>
</g>
<!-- talk_p_proc -->
<g id="node4" class="node">
<title>talk_p_proc</title>
<ellipse fill="#ffffff" stroke="#000000" cx="415" cy="-1322.21" rx="27" ry="18"/>
</g>
<!-- start&#45;&gt;talk_p_proc -->
<g id="edge3" class="edge">
<title>start&#45;&gt;talk_p_proc</title>
<path fill="none" stroke="#555555" stroke-dasharray="1,5" d="M415,-1437.42C415,-1415.35 415,-1377.14 415,-1351.05"/>
<polygon fill="#555555" stroke="#555555" points="418.5,-1351.35 415,-1341.35 411.5,-1351.35 418.5,-1351.35"/>
</g>
<!-- critter_p_proc -->
<g id="node5" class="node">
<title>critter_p_proc</title>
<ellipse fill="#ffffff" stroke="#000000" cx="577" cy="-1322.21" rx="116.85" ry="42.25"/>
<text text-anchor="middle" x="577" y="-1334.78" font-family="Times,serif" font-size="14.00">The caravan has left.</text>
<text text-anchor="middle" x="577" y="-1317.53" font-family="Times,serif" font-size="14.00">&#45;&#45;&#45;</text>
<text text-anchor="middle" x="577" y="-1300.28" font-family="Times,serif" font-size="14.00">The caravan has left.</text>
</g>
<!-- start&#45;&gt;critter_p_proc -->
<g id="edge4" class="edge">
<title>start&#45;&gt;critter_p_proc</title>
<path fill="none" stroke="#555555" stroke-dasharray="1,5" d="M423.53,-1438.62C430.01,-1427.29 439.72,-1412.33 451,-1401.46 465.84,-1387.15 483.72,-1374.15 501.29,-1363.02"/>
<polygon fill="#555555" stroke="#555555" points="502.76,-1365.61 509.43,-1357.38 499.08,-1359.65 502.76,-1365.61"/>
</g>
<!-- destroy_p_proc -->
<g id="node6" class="node">
<title>destroy_p_proc</title>
<ellipse fill="#ffffff" stroke="#000000" cx="739" cy="-1322.21" rx="27" ry="18"/>
</g>
<!-- start&#45;&gt;destroy_p_proc -->
<g id="edge5" class="edge">
<title>start&#45;&gt;destroy_p_proc</title>
<path fill="none" stroke="#555555" stroke-dasharray="1,5" d="M421.81,-1438.09C427.68,-1425.88 437.37,-1410.04 451,-1401.46 546.79,-1341.14 603.63,-1418.68 703,-1364.46 710.46,-1360.39 717.1,-1354.13 722.58,-1347.71"/>
<polygon fill="#555555" stroke="#555555" points="725.94,-1350.09 729.3,-1340.05 720.41,-1345.8 725.94,-1350.09"/>
</g>
<!-- get_reaction -->
<g id="node8" class="node">
<title>get_reaction</title>
<ellipse fill="#ffffff" stroke="#000000" cx="315" cy="-1066.53" rx="27" ry="18"/>
</g>
<!-- talk_p_proc&#45;&gt;get_reaction -->
<g id="edge6" class="edge">
<title>talk_p_proc&#45;&gt;get_reaction</title>
<path fill="none" stroke="#555555" stroke-dasharray="1,5" d="M402.65,-1305.69C395.99,-1297.68 387.42,-1287.94 379,-1279.96 369.58,-1271.03 362.87,-1272.97 356,-1261.96 323.37,-1209.6 316.32,-1135.51 315.04,-1095.6"/>
<polygon fill="#555555" stroke="#555555" points="318.52,-1095.76 314.8,-1085.84 311.52,-1095.91 318.52,-1095.76"/>
</g>
<!-- CarvLead09 -->
<g id="node9" class="node">
<title>CarvLead09</title>
<ellipse fill="#ffffff" stroke="#000000" cx="291" cy="-324.57" rx="134.88" ry="127.63"/>
<text text-anchor="middle" x="291" y="-397.52" font-family="Times,serif" font-size="14.00">OK. &#160;You made it. Here&#39;s</text>
<text text-anchor="middle" x="291" y="-380.27" font-family="Times,serif" font-size="14.00">your</text>
<text text-anchor="middle" x="291" y="-363.02" font-family="Times,serif" font-size="14.00">&#45;&#45;&#45;</text>
<text text-anchor="middle" x="291" y="-345.77" font-family="Times,serif" font-size="14.00">caps. &#160;If you want more</text>
<text text-anchor="middle" x="291" y="-328.52" font-family="Times,serif" font-size="14.00">work, just go talk to the</text>
<text text-anchor="middle" x="291" y="-311.27" font-family="Times,serif" font-size="14.00">boss again. &#160;I&#39;d be more</text>
<text text-anchor="middle" x="291" y="-294.02" font-family="Times,serif" font-size="14.00">than happy to work with</text>
<text text-anchor="middle" x="291" y="-276.77" font-family="Times,serif" font-size="14.00">you again. I&#39;ll put in a</text>
<text text-anchor="middle" x="291" y="-259.52" font-family="Times,serif" font-size="14.00">good word for you with</text>
<text text-anchor="middle" x="291" y="-242.27" font-family="Times,serif" font-size="14.00">the boss. Take it easy.</text>
</g>
<!-- talk_p_proc&#45;&gt;CarvLead09 -->
<g id="edge7" class="edge">
<title>talk_p_proc&#45;&gt;CarvLead09</title>
<path fill="none" stroke="#555555" stroke-dasharray="1,5" d="M412.85,-1303.93C400.54,-1205.14 338.6,-707.76 308.07,-462.6"/>
<polygon fill="#555555" stroke="#555555" points="311.43,-462.32 306.73,-452.83 304.49,-463.19 311.43,-462.32"/>
</g>
<!-- CarvLead00 -->
<g id="node10" class="node">
<title>CarvLead00</title>
<ellipse fill="#ffffff" stroke="#000000" cx="1466" cy="-1066.53" rx="142.31" ry="176.42"/>
<text text-anchor="middle" x="1466" y="-1173.98" font-family="Times,serif" font-size="14.00">Well, here we are. Here&#39;s</text>
<text text-anchor="middle" x="1466" y="-1156.73" font-family="Times,serif" font-size="14.00">your payment of</text>
<text text-anchor="middle" x="1466" y="-1139.48" font-family="Times,serif" font-size="14.00">&#45;&#45;&#45;</text>
<text text-anchor="middle" x="1466" y="-1122.23" font-family="Times,serif" font-size="14.00">caps. [He pulls out an</text>
<text text-anchor="middle" x="1466" y="-1104.98" font-family="Times,serif" font-size="14.00">old dog&#45;eared money bag</text>
<text text-anchor="middle" x="1466" y="-1087.73" font-family="Times,serif" font-size="14.00">and gives you the money.]</text>
<text text-anchor="middle" x="1466" y="-1070.48" font-family="Times,serif" font-size="14.00">You&#39;ll get another</text>
<text text-anchor="middle" x="1466" y="-1053.23" font-family="Times,serif" font-size="14.00">&#45;&#45;&#45;</text>
<text text-anchor="middle" x="1466" y="-1035.98" font-family="Times,serif" font-size="14.00">caps if you return with</text>
<text text-anchor="middle" x="1466" y="-1018.73" font-family="Times,serif" font-size="14.00">us to the Hub. We&#39;ll rest</text>
<text text-anchor="middle" x="1466" y="-1001.48" font-family="Times,serif" font-size="14.00">here for a while, but</text>
<text text-anchor="middle" x="1466" y="-984.23" font-family="Times,serif" font-size="14.00">don&#39;t go too far or the</text>
<text text-anchor="middle" x="1466" y="-966.98" font-family="Times,serif" font-size="14.00">caravan will leave</text>
<text text-anchor="middle" x="1466" y="-949.73" font-family="Times,serif" font-size="14.00">without you.</text>
</g>
<!-- talk_p_proc&#45;&gt;CarvLead00 -->
<g id="edge8" class="edge">
<title>talk_p_proc&#45;&gt;CarvLead00</title>
<path fill="none" stroke="#555555" stroke-dasharray="1,5" d="M425.13,-1305.19C431.5,-1296.42 440.5,-1286.11 451,-1279.96 725.29,-1119.33 1104.02,-1079.23 1312.67,-1069.8"/>
<polygon fill="#555555" stroke="#555555" points="1312.55,-1073.27 1322.39,-1069.34 1312.25,-1066.27 1312.55,-1073.27"/>
</g>
<!-- CarvLead07 -->
<g id="node11" class="node">
<title>CarvLead07</title>
<ellipse fill="#ffffff" stroke="#000000" cx="513" cy="-716.37" rx="114.87" ry="18"/>
<text text-anchor="middle" x="513" y="-711.7" font-family="Times,serif" font-size="14.00">Are you ready to go?</text>
</g>
<!-- talk_p_proc&#45;&gt;CarvLead07 -->
<g id="edge9" class="edge">
<title>talk_p_proc&#45;&gt;CarvLead07</title>
<path fill="none" stroke="#555555" stroke-dasharray="1,5" d="M417.78,-1304.11C431.42,-1220.03 491.43,-850.29 508.47,-745.28"/>
<polygon fill="#555555" stroke="#555555" points="512.06,-746.04 510.2,-735.61 505.15,-744.92 512.06,-746.04"/>
</g>
<!-- combat -->
<g id="node7" class="node">
<title>combat</title>
<ellipse fill="#ffffff" stroke="#000000" cx="487" cy="-1455.9" rx="27" ry="18"/>
</g>
<!-- ReactToLevel -->
<g id="node23" class="node">
<title>ReactToLevel</title>
<ellipse fill="#ffffff" stroke="#000000" cx="171" cy="-716.37" rx="27" ry="18"/>
</g>
<!-- get_reaction&#45;&gt;ReactToLevel -->
<g id="edge35" class="edge">
<title>get_reaction&#45;&gt;ReactToLevel</title>
<path fill="none" stroke="#555555" stroke-dasharray="1,5" d="M313.51,-1048.27C310.29,-1016.13 301.12,-945.39 279,-890.11 256.04,-832.73 214.1,-773.2 189.79,-741.19"/>
<polygon fill="#555555" stroke="#555555" points="192.02,-739.34 183.15,-733.54 186.47,-743.6 192.02,-739.34"/>
</g>
<!-- CarvLead11 -->
<g id="node19" class="node">
<title>CarvLead11</title>
<ellipse fill="#ffffff" stroke="#000000" cx="950" cy="-18" rx="27" ry="18"/>
</g>
<!-- CarvLead09&#45;&gt;CarvLead11 -->
<g id="edge33" class="edge">
<title>CarvLead09&#45;&gt;CarvLead11</title>
<path fill="none" stroke="#007899" d="M328.4,-201.44C350.08,-139.18 378.22,-72.69 404.5,-54 445.62,-24.76 794.88,-19.95 911.94,-19.16"/>
<polygon fill="#007899" stroke="#007899" points="911.86,-22.65 921.84,-19.09 911.82,-15.65 911.86,-22.65"/>
<text text-anchor="middle" x="426.75" y="-75.2" font-family="Times,serif" font-size="14.00" fill="#007899">bY bY.</text>
</g>
<!-- CarvLead09&#45;&gt;CarvLead11 -->
<g id="edge34" class="edge">
<title>CarvLead09&#45;&gt;CarvLead11</title>
<path fill="none" stroke="#998d00" d="M268.94,-198.4C267.3,-146.79 276.48,-90.62 314.25,-54 335.8,-33.11 778.3,-22.48 912.05,-19.73"/>
<polygon fill="#998d00" stroke="#998d00" points="912.01,-23.21 921.93,-19.51 911.87,-16.21 912.01,-23.21"/>
<text text-anchor="middle" x="340.88" y="-75.2" font-family="Times,serif" font-size="14.00" fill="#998d00">See ya.</text>
</g>
<!-- CarvLead01 -->
<g id="node14" class="node">
<title>CarvLead01</title>
<ellipse fill="#ffffff" stroke="#000000" cx="2342" cy="-716.37" rx="132.23" ry="54.45"/>
<text text-anchor="middle" x="2342" y="-737.57" font-family="Times,serif" font-size="14.00">I don&#39;t know if you&#39;ll</text>
<text text-anchor="middle" x="2342" y="-720.32" font-family="Times,serif" font-size="14.00">understand this, but we</text>
<text text-anchor="middle" x="2342" y="-703.07" font-family="Times,serif" font-size="14.00">leave in two hours or</text>
<text text-anchor="middle" x="2342" y="-685.82" font-family="Times,serif" font-size="14.00">whenever you&#39;re ready.</text>
</g>
<!-- CarvLead00&#45;&gt;CarvLead01 -->
<g id="edge10" class="edge">
<title>CarvLead00&#45;&gt;CarvLead01</title>
<path fill="none" stroke="#0b9900" d="M1605.33,-1029.25C1752.63,-988.26 1989.67,-914.67 2181,-819.61 2209.91,-805.25 2240.16,-786.99 2266.52,-769.9"/>
<polygon fill="#0b9900" stroke="#0b9900" points="2268.23,-772.31 2274.68,-763.91 2264.4,-766.45 2268.23,-772.31"/>
<text text-anchor="middle" x="2160.25" y="-850.19" font-family="Times,serif" font-size="14.00" fill="#0b9900">Aaa... OK.</text>
</g>
<!-- CarvLead03 -->
<g id="node15" class="node">
<title>CarvLead03</title>
<ellipse fill="#ffffff" stroke="#000000" cx="1618" cy="-716.37" rx="133.82" ry="103.24"/>
<text text-anchor="middle" x="1618" y="-772.07" font-family="Times,serif" font-size="14.00">We usually leave two</text>
<text text-anchor="middle" x="1618" y="-754.82" font-family="Times,serif" font-size="14.00">hours after arrival. </text>
<text text-anchor="middle" x="1618" y="-737.57" font-family="Times,serif" font-size="14.00">There&#39;s nothing here we</text>
<text text-anchor="middle" x="1618" y="-720.32" font-family="Times,serif" font-size="14.00">haven&#39;t seen before,</text>
<text text-anchor="middle" x="1618" y="-703.07" font-family="Times,serif" font-size="14.00">though,</text>
<text text-anchor="middle" x="1618" y="-685.82" font-family="Times,serif" font-size="14.00">so if you want to leave</text>
<text text-anchor="middle" x="1618" y="-668.57" font-family="Times,serif" font-size="14.00">earlier we&#39;re ready</text>
<text text-anchor="middle" x="1618" y="-651.32" font-family="Times,serif" font-size="14.00">whenever you are.</text>
</g>
<!-- CarvLead00&#45;&gt;CarvLead03 -->
<g id="edge11" class="edge">
<title>CarvLead00&#45;&gt;CarvLead03</title>
<path fill="none" stroke="#990038" d="M1533.55,-910.8C1546.27,-881.68 1559.3,-851.84 1571.2,-824.57"/>
<polygon fill="#990038" stroke="#990038" points="1574.74,-826.22 1575.53,-815.65 1568.32,-823.42 1574.74,-826.22"/>
<text text-anchor="middle" x="1636.75" y="-858.81" font-family="Times,serif" font-size="14.00" fill="#990038">How long before the</text>
<text text-anchor="middle" x="1636.75" y="-841.56" font-family="Times,serif" font-size="14.00" fill="#990038">caravan leaves?</text>
</g>
<!-- CarvLead04 -->
<g id="node16" class="node">
<title>CarvLead04</title>
<ellipse fill="#ffffff" stroke="#000000" cx="1331" cy="-324.57" rx="129.05" ry="103.24"/>
<text text-anchor="middle" x="1331" y="-380.27" font-family="Times,serif" font-size="14.00">Well, it&#39;s quite a bit</text>
<text text-anchor="middle" x="1331" y="-363.02" font-family="Times,serif" font-size="14.00">like the Hub, really. &#160;It</text>
<text text-anchor="middle" x="1331" y="-345.77" font-family="Times,serif" font-size="14.00">has its share of</text>
<text text-anchor="middle" x="1331" y="-328.52" font-family="Times,serif" font-size="14.00">problems: gangs,</text>
<text text-anchor="middle" x="1331" y="-311.27" font-family="Times,serif" font-size="14.00">thugs, thieves, you</text>
<text text-anchor="middle" x="1331" y="-294.02" font-family="Times,serif" font-size="14.00">know... the usual stuff. </text>
<text text-anchor="middle" x="1331" y="-276.77" font-family="Times,serif" font-size="14.00">All in all, it&#39;s my kind</text>
<text text-anchor="middle" x="1331" y="-259.52" font-family="Times,serif" font-size="14.00">of town. [Laughs]</text>
</g>
<!-- CarvLead00&#45;&gt;CarvLead04 -->
<g id="edge12" class="edge">
<title>CarvLead00&#45;&gt;CarvLead04</title>
<path fill="none" stroke="#006599" d="M1372.86,-932.92C1352.88,-897.67 1334.66,-858.53 1324.25,-819.61 1305.78,-750.59 1314.21,-562.17 1322.35,-438.99"/>
<polygon fill="#006599" stroke="#006599" points="1325.91,-439.23 1323.08,-429.02 1318.92,-438.76 1325.91,-439.23"/>
<text text-anchor="middle" x="1399.38" y="-720.32" font-family="Times,serif" font-size="14.00" fill="#006599">What can you tell me</text>
<text text-anchor="middle" x="1399.38" y="-703.07" font-family="Times,serif" font-size="14.00" fill="#006599">about Junktown?</text>
</g>
<!-- CarvLead05 -->
<g id="node17" class="node">
<title>CarvLead05</title>
<ellipse fill="#ffffff" stroke="#000000" cx="1843" cy="-324.57" rx="146.02" ry="200.82"/>
<text text-anchor="middle" x="1843" y="-449.27" font-family="Times,serif" font-size="14.00">This part of the Boneyard</text>
<text text-anchor="middle" x="1843" y="-432.02" font-family="Times,serif" font-size="14.00">is called Adytum. &#160;The</text>
<text text-anchor="middle" x="1843" y="-414.77" font-family="Times,serif" font-size="14.00">Boneyard is basically run</text>
<text text-anchor="middle" x="1843" y="-397.52" font-family="Times,serif" font-size="14.00">by gangs. Kind of a rough</text>
<text text-anchor="middle" x="1843" y="-380.27" font-family="Times,serif" font-size="14.00">area, so watch your step</text>
<text text-anchor="middle" x="1843" y="-363.02" font-family="Times,serif" font-size="14.00">here. Adytum is run by</text>
<text text-anchor="middle" x="1843" y="-345.77" font-family="Times,serif" font-size="14.00">the Regulators. &#160;They&#39;re</text>
<text text-anchor="middle" x="1843" y="-328.52" font-family="Times,serif" font-size="14.00">trying to hold this place</text>
<text text-anchor="middle" x="1843" y="-311.27" font-family="Times,serif" font-size="14.00">together in light of all</text>
<text text-anchor="middle" x="1843" y="-294.02" font-family="Times,serif" font-size="14.00">the gang wars. They&#39;re</text>
<text text-anchor="middle" x="1843" y="-276.77" font-family="Times,serif" font-size="14.00">understandably suspicious</text>
<text text-anchor="middle" x="1843" y="-259.52" font-family="Times,serif" font-size="14.00">of strangers, so if you</text>
<text text-anchor="middle" x="1843" y="-242.27" font-family="Times,serif" font-size="14.00">haven&#39;t spoken to them</text>
<text text-anchor="middle" x="1843" y="-225.02" font-family="Times,serif" font-size="14.00">yet I suggest you do</text>
<text text-anchor="middle" x="1843" y="-207.77" font-family="Times,serif" font-size="14.00">before you start</text>
<text text-anchor="middle" x="1843" y="-190.52" font-family="Times,serif" font-size="14.00">wandering around.</text>
</g>
<!-- CarvLead00&#45;&gt;CarvLead05 -->
<g id="edge13" class="edge">
<title>CarvLead00&#45;&gt;CarvLead05</title>
<path fill="none" stroke="#919900" d="M1597.56,-998.42C1731.45,-921.68 1930.52,-782.1 2012,-595.14 2021.19,-574.05 2019.45,-565.15 2012,-543.39 2001.44,-512.54 1984.53,-482.68 1965.4,-455.48"/>
<polygon fill="#919900" stroke="#919900" points="1967.79,-453.81 1959.11,-447.74 1962.11,-457.9 1967.79,-453.81"/>
<text text-anchor="middle" x="2078.38" y="-720.32" font-family="Times,serif" font-size="14.00" fill="#919900">What can you tell me</text>
<text text-anchor="middle" x="2078.38" y="-703.07" font-family="Times,serif" font-size="14.00" fill="#919900">about the Boneyard?</text>
</g>
<!-- CarvLead06 -->
<g id="node18" class="node">
<title>CarvLead06</title>
<ellipse fill="#ffffff" stroke="#000000" cx="950" cy="-324.57" rx="135.94" ry="127.63"/>
<text text-anchor="middle" x="950" y="-397.52" font-family="Times,serif" font-size="14.00">Not much I can tell you</text>
<text text-anchor="middle" x="950" y="-380.27" font-family="Times,serif" font-size="14.00">about them. &#160;The</text>
<text text-anchor="middle" x="950" y="-363.02" font-family="Times,serif" font-size="14.00">Brotherhood keeps to</text>
<text text-anchor="middle" x="950" y="-345.77" font-family="Times,serif" font-size="14.00">themselves for the most</text>
<text text-anchor="middle" x="950" y="-328.52" font-family="Times,serif" font-size="14.00">part. A lot of people</text>
<text text-anchor="middle" x="950" y="-311.27" font-family="Times,serif" font-size="14.00">give them a bad rap, but</text>
<text text-anchor="middle" x="950" y="-294.02" font-family="Times,serif" font-size="14.00">from what I can tell</text>
<text text-anchor="middle" x="950" y="-276.77" font-family="Times,serif" font-size="14.00">they&#39;re good people. &#160;A</text>
<text text-anchor="middle" x="950" y="-259.52" font-family="Times,serif" font-size="14.00">little fanatical, maybe,</text>
<text text-anchor="middle" x="950" y="-242.27" font-family="Times,serif" font-size="14.00">but good guys.</text>
</g>
<!-- CarvLead00&#45;&gt;CarvLead06 -->
<g id="edge14" class="edge">
<title>CarvLead00&#45;&gt;CarvLead06</title>
<path fill="none" stroke="#740099" d="M1333.94,-999.26C1199.86,-923.11 1002.16,-783.92 931,-595.14 915.06,-552.86 913.81,-504.24 918.44,-460.03"/>
<polygon fill="#740099" stroke="#740099" points="922.02,-460.53 919.7,-450.19 915.07,-459.72 922.02,-460.53"/>
<text text-anchor="middle" x="1170.38" y="-728.95" font-family="Times,serif" font-size="14.00" fill="#740099">What can you tell me</text>
<text text-anchor="middle" x="1170.38" y="-711.7" font-family="Times,serif" font-size="14.00" fill="#740099">about the Brotherhood of</text>
<text text-anchor="middle" x="1170.38" y="-694.45" font-family="Times,serif" font-size="14.00" fill="#740099">Steel?</text>
</g>
<!-- CarvLead07&#45;&gt;CarvLead11 -->
<g id="edge30" class="edge">
<title>CarvLead07&#45;&gt;CarvLead11</title>
<path fill="none" stroke="#0e0099" d="M506.27,-698.09C494.27,-664.09 473.79,-587.98 511,-543.39 539.66,-509.05 579.62,-558.2 610,-525.39 670.96,-459.55 595.91,-194.18 651.5,-123.75 715.53,-42.61 846.74,-24.16 911.75,-20.08"/>
<polygon fill="#0e0099" stroke="#0e0099" points="911.92,-23.52 921.72,-19.49 911.54,-16.53 911.92,-23.52"/>
<text text-anchor="middle" x="675.25" y="-319.89" font-family="Times,serif" font-size="14.00" fill="#0e0099">Hunh?</text>
</g>
<!-- CarvLead07&#45;&gt;CarvLead11 -->
<g id="edge31" class="edge">
<title>CarvLead07&#45;&gt;CarvLead11</title>
<path fill="none" stroke="#1f9900" d="M506.73,-698.14C495.1,-665.15 470.6,-590.56 462,-525.39 450.33,-436.9 410.04,-196.32 462,-123.75 514.75,-50.08 806.98,-26.87 912.22,-20.84"/>
<polygon fill="#1f9900" stroke="#1f9900" points="912.17,-24.29 921.96,-20.25 911.78,-17.3 912.17,-24.29"/>
<text text-anchor="middle" x="534" y="-328.52" font-family="Times,serif" font-size="14.00" fill="#1f9900">No. &#160;I&#39;m still looking</text>
<text text-anchor="middle" x="534" y="-311.27" font-family="Times,serif" font-size="14.00" fill="#1f9900">around.</text>
</g>
<!-- CarvLead12 -->
<g id="node21" class="node">
<title>CarvLead12</title>
<ellipse fill="#ffffff" stroke="#000000" cx="734" cy="-324.57" rx="27" ry="18"/>
</g>
<!-- CarvLead07&#45;&gt;CarvLead12 -->
<g id="edge29" class="edge">
<title>CarvLead07&#45;&gt;CarvLead12</title>
<path fill="none" stroke="#993a00" d="M539.46,-698.5C570.62,-677.5 622.25,-639.02 655,-595.14 670.03,-575 664.79,-564.91 677.75,-543.39 683.01,-534.65 687.67,-534.63 692,-525.39 718.84,-468.13 728.67,-393.64 732.16,-353.74"/>
<polygon fill="#993a00" stroke="#993a00" points="735.71,-354.23 733.02,-343.99 728.74,-353.67 735.71,-354.23"/>
<text text-anchor="middle" x="689.62" y="-564.59" font-family="Times,serif" font-size="14.00" fill="#993a00">go!</text>
</g>
<!-- CarvLead07&#45;&gt;CarvLead12 -->
<g id="edge32" class="edge">
<title>CarvLead07&#45;&gt;CarvLead12</title>
<path fill="none" stroke="#99004c" d="M511.78,-697.96C509.44,-658.68 506.24,-564.96 527.25,-543.39 552.95,-517.01 664.71,-550.12 692,-525.39 740.35,-481.58 740.88,-397.48 737.37,-353.66"/>
<polygon fill="#99004c" stroke="#99004c" points="740.78,-353.57 736.36,-343.94 733.81,-354.23 740.78,-353.57"/>
<text text-anchor="middle" x="589.88" y="-564.59" font-family="Times,serif" font-size="14.00" fill="#99004c">Yeah. &#160;We can go.</text>
</g>
<!-- advance_day -->
<g id="node12" class="node">
<title>advance_day</title>
<ellipse fill="#ffffff" stroke="#000000" cx="559" cy="-1455.9" rx="27" ry="18"/>
</g>
<!-- damage_p_proc -->
<g id="node13" class="node">
<title>damage_p_proc</title>
<ellipse fill="#ffffff" stroke="#000000" cx="631" cy="-1455.9" rx="27" ry="18"/>
</g>
<!-- CarvLead01&#45;&gt;CarvLead11 -->
<g id="edge15" class="edge">
<title>CarvLead01&#45;&gt;CarvLead11</title>
<path fill="none" stroke="#009947" d="M2404.22,-668.08C2444.24,-633.52 2492.78,-582.8 2515,-525.39 2579.44,-358.92 2634.39,-256.45 2515,-123.75 2416.5,-14.28 2002.88,-64.6 1856,-54 1519.91,-29.75 1112.4,-21.58 987.91,-19.56"/>
<polygon fill="#009947" stroke="#009947" points="988.14,-16.05 978.09,-19.39 988.03,-23.04 988.14,-16.05"/>
<text text-anchor="middle" x="2604.5" y="-319.89" font-family="Times,serif" font-size="14.00" fill="#009947">Um...</text>
</g>
<!-- CarvLead02 -->
<g id="node20" class="node">
<title>CarvLead02</title>
<ellipse fill="#ffffff" stroke="#000000" cx="2373" cy="-324.57" rx="132.76" ry="30.05"/>
<text text-anchor="middle" x="2373" y="-328.52" font-family="Times,serif" font-size="14.00">Man, we&#39;re hiring dumb</text>
<text text-anchor="middle" x="2373" y="-311.27" font-family="Times,serif" font-size="14.00">ones these days.</text>
</g>
<!-- CarvLead01&#45;&gt;CarvLead02 -->
<g id="edge16" class="edge">
<title>CarvLead01&#45;&gt;CarvLead02</title>
<path fill="none" stroke="#991b00" d="M2346.28,-661.58C2352.58,-582.28 2364.23,-435.81 2369.83,-365.4"/>
<polygon fill="#991b00" stroke="#991b00" points="2373.37,-366.02 2370.68,-355.78 2366.4,-365.47 2373.37,-366.02"/>
<text text-anchor="middle" x="2378.25" y="-564.59" font-family="Times,serif" font-size="14.00" fill="#991b00">Hunh?</text>
</g>
<!-- CarvLead01&#45;&gt;CarvLead12 -->
<g id="edge17" class="edge">
<title>CarvLead01&#45;&gt;CarvLead12</title>
<path fill="none" stroke="#001299" d="M2278.2,-668.32C2214.57,-624.86 2112.14,-564.02 2012,-543.39 1979.16,-536.62 832.25,-544.93 805,-525.39 749.54,-485.62 737.17,-398.68 734.57,-353.73"/>
<polygon fill="#001299" stroke="#001299" points="738.03,-353.84 734.09,-344 731.04,-354.15 738.03,-353.84"/>
<text text-anchor="middle" x="2175" y="-564.59" font-family="Times,serif" font-size="14.00" fill="#001299">go. Gud.</text>
</g>
<!-- CarvLead03&#45;&gt;CarvLead04 -->
<g id="edge20" class="edge">
<title>CarvLead03&#45;&gt;CarvLead04</title>
<path fill="none" stroke="#009899" d="M1539.78,-632.19C1530.49,-620.24 1521.69,-607.71 1514.25,-595.14 1501.76,-574.01 1506.78,-564.91 1495,-543.39 1471.23,-499.96 1439.51,-455.66 1410.3,-418.45"/>
<polygon fill="#009899" stroke="#009899" points="1412.67,-416.8 1403.72,-411.13 1407.18,-421.14 1412.67,-416.8"/>
<text text-anchor="middle" x="1589.38" y="-573.21" font-family="Times,serif" font-size="14.00" fill="#009899">What can you tell me</text>
<text text-anchor="middle" x="1589.38" y="-555.96" font-family="Times,serif" font-size="14.00" fill="#009899">about Junktown?</text>
</g>
<!-- CarvLead03&#45;&gt;CarvLead05 -->
<g id="edge21" class="edge">
<title>CarvLead03&#45;&gt;CarvLead05</title>
<path fill="none" stroke="#996d00" d="M1741.58,-675.78C1779.05,-657.39 1816.07,-631.34 1838,-595.14 1849.25,-576.56 1856.59,-555.86 1861.06,-534.41"/>
<polygon fill="#996d00" stroke="#996d00" points="1864.64,-535.3 1863.03,-524.83 1857.76,-534.02 1864.64,-535.3"/>
<text text-anchor="middle" x="1932.38" y="-573.21" font-family="Times,serif" font-size="14.00" fill="#996d00">What can you tell me</text>
<text text-anchor="middle" x="1932.38" y="-555.96" font-family="Times,serif" font-size="14.00" fill="#996d00">about the Boneyard?</text>
</g>
<!-- CarvLead03&#45;&gt;CarvLead06 -->
<g id="edge22" class="edge">
<title>CarvLead03&#45;&gt;CarvLead06</title>
<path fill="none" stroke="#410099" d="M1526.77,-640.72C1508.88,-629.54 1489.57,-619.61 1470,-613.14 1442.62,-604.08 971.33,-615.83 951.25,-595.14 932.42,-575.73 930.33,-518.92 933.71,-462.43"/>
<polygon fill="#410099" stroke="#410099" points="937.27,-462.73 934.43,-452.52 930.28,-462.27 937.27,-462.73"/>
<text text-anchor="middle" x="1042.38" y="-581.84" font-family="Times,serif" font-size="14.00" fill="#410099">What can you tell me</text>
<text text-anchor="middle" x="1042.38" y="-564.59" font-family="Times,serif" font-size="14.00" fill="#410099">about the Brotherhood of</text>
<text text-anchor="middle" x="1042.38" y="-547.34" font-family="Times,serif" font-size="14.00" fill="#410099">Steel?</text>
</g>
<!-- CarvLead03&#45;&gt;CarvLead11 -->
<g id="edge18" class="edge">
<title>CarvLead03&#45;&gt;CarvLead11</title>
<path fill="none" stroke="#3f9900" d="M1727.63,-656.54C1762.92,-639.96 1802.8,-623.6 1841,-613.14 1877.85,-603.04 1986.43,-623.53 2012,-595.14 2022.01,-584.02 2076.77,-219.97 1998,-123.75 1912.66,-19.5 1836.42,-72.71 1703,-54 1562.59,-34.31 1120.4,-22.88 987.89,-19.83"/>
<polygon fill="#3f9900" stroke="#3f9900" points="988.18,-16.31 978.11,-19.58 988.03,-23.31 988.18,-16.31"/>
<text text-anchor="middle" x="2132.38" y="-337.14" font-family="Times,serif" font-size="14.00" fill="#3f9900">I think I&#39;ll take a look</text>
<text text-anchor="middle" x="2132.38" y="-319.89" font-family="Times,serif" font-size="14.00" fill="#3f9900">around before we go. &#160;See</text>
<text text-anchor="middle" x="2132.38" y="-302.64" font-family="Times,serif" font-size="14.00" fill="#3f9900">you later.</text>
</g>
<!-- CarvLead03&#45;&gt;CarvLead12 -->
<g id="edge19" class="edge">
<title>CarvLead03&#45;&gt;CarvLead12</title>
<path fill="none" stroke="#99006b" d="M1526.83,-640.57C1508.93,-629.41 1489.6,-619.52 1470,-613.14 1432.09,-600.79 781.3,-622.71 752.5,-595.14 686.25,-531.7 710.41,-407.91 725.52,-352.97"/>
<polygon fill="#99006b" stroke="#99006b" points="729.09,-354.21 728.48,-343.63 722.36,-352.28 729.09,-354.21"/>
<text text-anchor="middle" x="842.25" y="-581.84" font-family="Times,serif" font-size="14.00" fill="#99006b">OK. &#160;Let&#39;s head back to</text>
<text text-anchor="middle" x="842.25" y="-564.59" font-family="Times,serif" font-size="14.00" fill="#99006b">the Hub. &#160;Nothing I want</text>
<text text-anchor="middle" x="842.25" y="-547.34" font-family="Times,serif" font-size="14.00" fill="#99006b">to see here either.</text>
</g>
<!-- CarvLead04&#45;&gt;CarvLead03 -->
<g id="edge23" class="edge">
<title>CarvLead04&#45;&gt;CarvLead03</title>
<path fill="none" stroke="#009914" d="M1323.55,-427.95C1321.14,-493.69 1323.52,-571.09 1345.5,-595.14 1364.36,-615.77 1443.98,-602.92 1470,-613.14 1485.53,-619.23 1501.02,-627.23 1515.81,-636.08"/>
<polygon fill="#009914" stroke="#009914" points="1513.58,-639.43 1523.93,-641.69 1517.24,-633.47 1513.58,-639.43"/>
<text text-anchor="middle" x="1417.75" y="-573.21" font-family="Times,serif" font-size="14.00" fill="#009914">How long before the</text>
<text text-anchor="middle" x="1417.75" y="-555.96" font-family="Times,serif" font-size="14.00" fill="#009914">caravan leaves?</text>
</g>
<!-- CarvLead04&#45;&gt;CarvLead11 -->
<g id="edge24" class="edge">
<title>CarvLead04&#45;&gt;CarvLead11</title>
<path fill="none" stroke="#990019" d="M1287.07,-227.08C1255.03,-167.8 1205.88,-95.49 1141,-54 1116.15,-38.11 1036.05,-27.59 987.82,-22.52"/>
<polygon fill="#990019" stroke="#990019" points="988.19,-18.94 977.89,-21.41 987.48,-25.9 988.19,-18.94"/>
<text text-anchor="middle" x="1295.38" y="-92.45" font-family="Times,serif" font-size="14.00" fill="#990019">I think I&#39;ll take a look</text>
<text text-anchor="middle" x="1295.38" y="-75.2" font-family="Times,serif" font-size="14.00" fill="#990019">around before we go. &#160;See</text>
<text text-anchor="middle" x="1295.38" y="-57.95" font-family="Times,serif" font-size="14.00" fill="#990019">you later.</text>
</g>
<!-- CarvLead05&#45;&gt;CarvLead03 -->
<g id="edge25" class="edge">
<title>CarvLead05&#45;&gt;CarvLead03</title>
<path fill="none" stroke="#004599" d="M1737.15,-463.66C1719.7,-489.43 1702.7,-516.68 1688.5,-543.39 1676.96,-565.09 1678.13,-572.32 1669,-595.14 1667.32,-599.34 1665.59,-603.62 1663.83,-607.94"/>
<polygon fill="#004599" stroke="#004599" points="1660.23,-606.48 1659.67,-617.06 1666.71,-609.14 1660.23,-606.48"/>
<text text-anchor="middle" x="1760.75" y="-573.21" font-family="Times,serif" font-size="14.00" fill="#004599">How long before the</text>
<text text-anchor="middle" x="1760.75" y="-555.96" font-family="Times,serif" font-size="14.00" fill="#004599">caravan leaves?</text>
</g>
<!-- CarvLead05&#45;&gt;CarvLead11 -->
<g id="edge26" class="edge">
<title>CarvLead05&#45;&gt;CarvLead11</title>
<path fill="none" stroke="#729900" d="M1715.88,-225.58C1629.73,-164.88 1510.55,-91.56 1393,-54 1318.04,-30.05 1081.26,-22.04 988.14,-19.78"/>
<polygon fill="#729900" stroke="#729900" points="988.34,-16.26 978.26,-19.53 988.18,-23.26 988.34,-16.26"/>
<text text-anchor="middle" x="1605.38" y="-92.45" font-family="Times,serif" font-size="14.00" fill="#729900">I think I&#39;ll take a look</text>
<text text-anchor="middle" x="1605.38" y="-75.2" font-family="Times,serif" font-size="14.00" fill="#729900">around before we go. &#160;See</text>
<text text-anchor="middle" x="1605.38" y="-57.95" font-family="Times,serif" font-size="14.00" fill="#729900">you later.</text>
</g>
<!-- CarvLead06&#45;&gt;CarvLead03 -->
<g id="edge27" class="edge">
<title>CarvLead06&#45;&gt;CarvLead03</title>
<path fill="none" stroke="#940099" d="M1033.71,-425.66C1097.53,-501.83 1174.94,-593.85 1177.5,-595.14 1235.69,-624.38 1408.45,-591.85 1470,-613.14 1486.01,-618.67 1501.88,-626.45 1516.95,-635.28"/>
<polygon fill="#940099" stroke="#940099" points="1514.86,-638.71 1525.22,-640.9 1518.48,-632.72 1514.86,-638.71"/>
<text text-anchor="middle" x="1249.75" y="-573.21" font-family="Times,serif" font-size="14.00" fill="#940099">How long before the</text>
<text text-anchor="middle" x="1249.75" y="-555.96" font-family="Times,serif" font-size="14.00" fill="#940099">caravan leaves?</text>
</g>
<!-- CarvLead06&#45;&gt;CarvLead11 -->
<g id="edge28" class="edge">
<title>CarvLead06&#45;&gt;CarvLead11</title>
<path fill="none" stroke="#009967" d="M950,-196.61C950,-141.42 950,-81.66 950,-47.44"/>
<polygon fill="#009967" stroke="#009967" points="953.5,-47.45 950,-37.45 946.5,-47.45 953.5,-47.45"/>
<text text-anchor="middle" x="1043.38" y="-92.45" font-family="Times,serif" font-size="14.00" fill="#009967">I think I&#39;ll take a look</text>
<text text-anchor="middle" x="1043.38" y="-75.2" font-family="Times,serif" font-size="14.00" fill="#009967">around before we go. &#160;See</text>
<text text-anchor="middle" x="1043.38" y="-57.95" font-family="Times,serif" font-size="14.00" fill="#009967">you later.</text>
</g>
<!-- CarvLead10 -->
<g id="node22" class="node">
<title>CarvLead10</title>
<ellipse fill="#ffffff" stroke="#000000" cx="820" cy="-1455.9" rx="143.9" ry="54.45"/>
<text text-anchor="middle" x="820" y="-1477.1" font-family="Times,serif" font-size="14.00">Hey, how&#39;s it goin&#39;?</text>
<text text-anchor="middle" x="820" y="-1459.85" font-family="Times,serif" font-size="14.00">&#45;&#45;&#45;</text>
<text text-anchor="middle" x="820" y="-1442.6" font-family="Times,serif" font-size="14.00">If you want more work, go</text>
<text text-anchor="middle" x="820" y="-1425.35" font-family="Times,serif" font-size="14.00">check with the boss.</text>
</g>
<!-- LevelToReact -->
<g id="node24" class="node">
<title>LevelToReact</title>
<ellipse fill="#ffffff" stroke="#000000" cx="1045" cy="-1322.21" rx="27" ry="18"/>
</g>
<!-- UpReact -->
<g id="node25" class="node">
<title>UpReact</title>
<ellipse fill="#ffffff" stroke="#000000" cx="27" cy="-1066.53" rx="27" ry="18"/>
</g>
<!-- UpReact&#45;&gt;ReactToLevel -->
<g id="edge36" class="edge">
<title>UpReact&#45;&gt;ReactToLevel</title>
<path fill="none" stroke="#555555" stroke-dasharray="1,5" d="M28.49,-1048.27C31.71,-1016.13 40.88,-945.39 63,-890.11 85.96,-832.73 127.9,-773.2 152.21,-741.19"/>
<polygon fill="#555555" stroke="#555555" points="155.53,-743.6 158.85,-733.54 149.98,-739.34 155.53,-743.6"/>
</g>
<!-- DownReact -->
<g id="node26" class="node">
<title>DownReact</title>
<ellipse fill="#ffffff" stroke="#000000" cx="99" cy="-1066.53" rx="27" ry="18"/>
</g>
<!-- DownReact&#45;&gt;ReactToLevel -->
<g id="edge37" class="edge">
<title>DownReact&#45;&gt;ReactToLevel</title>
<path fill="none" stroke="#555555" stroke-dasharray="1,5" d="M102.46,-1048.6C108.85,-1017.29 122.97,-948.26 135,-890.11 145.59,-838.9 158.06,-779.18 165.2,-745.07"/>
<polygon fill="#555555" stroke="#555555" points="168.78,-746.04 167.41,-735.53 161.93,-744.6 168.78,-746.04"/>
</g>
<!-- BottomReact -->
<g id="node27" class="node">
<title>BottomReact</title>
<ellipse fill="#ffffff" stroke="#000000" cx="1153" cy="-1455.9" rx="27" ry="18"/>
</g>
<!-- TopReact -->
<g id="node28" class="node">
<title>TopReact</title>
<ellipse fill="#ffffff" stroke="#000000" cx="1225" cy="-1455.9" rx="27" ry="18"/>
</g>
<!-- BigUpReact -->
<g id="node29" class="node">
<title>BigUpReact</title>
<ellipse fill="#ffffff" stroke="#000000" cx="171" cy="-1066.53" rx="27" ry="18"/>
</g>
<!-- BigUpReact&#45;&gt;ReactToLevel -->
<g id="edge38" class="edge">
<title>BigUpReact&#45;&gt;ReactToLevel</title>
<path fill="none" stroke="#555555" stroke-dasharray="1,5" d="M171,-1048.27C171,-992.24 171,-815.08 171,-745.66"/>
<polygon fill="#555555" stroke="#555555" points="174.5,-745.74 171,-735.74 167.5,-745.74 174.5,-745.74"/>
</g>
<!-- BigDownReact -->
<g id="node30" class="node">
<title>BigDownReact</title>
<ellipse fill="#ffffff" stroke="#000000" cx="243" cy="-1066.53" rx="27" ry="18"/>
</g>
<!-- BigDownReact&#45;&gt;ReactToLevel -->
<g id="edge39" class="edge">
<title>BigDownReact&#45;&gt;ReactToLevel</title>
<path fill="none" stroke="#555555" stroke-dasharray="1,5" d="M239.54,-1048.6C233.15,-1017.29 219.03,-948.26 207,-890.11 196.41,-838.9 183.94,-779.18 176.8,-745.07"/>
<polygon fill="#555555" stroke="#555555" points="180.07,-744.6 174.59,-735.53 173.22,-746.04 180.07,-744.6"/>
</g>
<!-- UpReactLevel -->
<g id="node31" class="node">
<title>UpReactLevel</title>
<ellipse fill="#ffffff" stroke="#000000" cx="1009" cy="-1455.9" rx="27" ry="18"/>
</g>
<!-- UpReactLevel&#45;&gt;LevelToReact -->
<g id="edge40" class="edge">
<title>UpReactLevel&#45;&gt;LevelToReact</title>
<path fill="none" stroke="#555555" stroke-dasharray="1,5" d="M1013.71,-1437.69C1019.74,-1415.6 1030.29,-1377.03 1037.45,-1350.82"/>
<polygon fill="#555555" stroke="#555555" points="1041.03,-1352 1040.29,-1341.43 1034.28,-1350.15 1041.03,-1352"/>
</g>
<!-- DownReactLevel -->
<g id="node32" class="node">
<title>DownReactLevel</title>
<ellipse fill="#ffffff" stroke="#000000" cx="1081" cy="-1455.9" rx="27" ry="18"/>
</g>
<!-- DownReactLevel&#45;&gt;LevelToReact -->
<g id="edge41" class="edge">
<title>DownReactLevel&#45;&gt;LevelToReact</title>
<path fill="none" stroke="#555555" stroke-dasharray="1,5" d="M1076.29,-1437.69C1070.26,-1415.6 1059.71,-1377.03 1052.55,-1350.82"/>
<polygon fill="#555555" stroke="#555555" points="1055.72,-1350.15 1049.71,-1341.43 1048.97,-1352 1055.72,-1350.15"/>
</g>
<!-- Goodbyes -->
<g id="node33" class="node">
<title>Goodbyes</title>
<ellipse fill="#ffffff" stroke="#000000" cx="1297" cy="-1455.9" rx="27" ry="18"/>
</g>
</g>
</svg>
