<?xml version="1.0" encoding="UTF-8" standalone="no"?>
<!DOCTYPE svg PUBLIC "-//W3C//DTD SVG 1.1//EN"
 "http://www.w3.org/Graphics/SVG/1.1/DTD/svg11.dtd">
<!-- Generated by graphviz version 8.0.5 (0)
 -->
<!-- Title: CCVAN Pages: 1 -->
<svg width="1440pt" height="701pt"
 viewBox="0.00 0.00 1440.41 700.54" xmlns="http://www.w3.org/2000/svg" xmlns:xlink="http://www.w3.org/1999/xlink">
<g id="graph0" class="graph" transform="scale(1 1) rotate(0) translate(4 696.54)">
<title>CCVAN</title>
<polygon fill="white" stroke="none" points="-4,4 -4,-696.54 1436.41,-696.54 1436.41,4 -4,4"/>
<!-- start -->
<g id="node1" class="node">
<title>start</title>
<ellipse fill="#ffffff" stroke="#000000" cx="383.29" cy="-674.54" rx="27" ry="18"/>
</g>
<!-- look_at_p_proc -->
<g id="node2" class="node">
<title>look_at_p_proc</title>
<ellipse fill="#ffffff" stroke="#000000" cx="133.29" cy="-589.49" rx="133.29" ry="30.05"/>
<text text-anchor="middle" x="133.29" y="-593.44" font-family="Times,serif" font-size="14.00">You see a clerk from the</text>
<text text-anchor="middle" x="133.29" y="-576.19" font-family="Times,serif" font-size="14.00">Crimson Caravans.</text>
</g>
<!-- start&#45;&gt;look_at_p_proc -->
<g id="edge1" class="edge">
<title>start&#45;&gt;look_at_p_proc</title>
<path fill="none" stroke="#555555" stroke-dasharray="1,5" d="M359.32,-665.57C326.79,-654.77 267,-634.9 217.08,-618.32"/>
<polygon fill="#555555" stroke="#555555" points="218.51,-614.78 207.92,-614.94 216.3,-621.42 218.51,-614.78"/>
</g>
<!-- pickup_p_proc -->
<g id="node3" class="node">
<title>pickup_p_proc</title>
<ellipse fill="#ffffff" stroke="#000000" cx="311.29" cy="-589.49" rx="27" ry="18"/>
</g>
<!-- start&#45;&gt;pickup_p_proc -->
<g id="edge2" class="edge">
<title>start&#45;&gt;pickup_p_proc</title>
<path fill="none" stroke="#555555" stroke-dasharray="1,5" d="M370.42,-658.69C359.53,-646.13 343.75,-627.93 331.23,-613.48"/>
<polygon fill="#555555" stroke="#555555" points="333.49,-611.75 324.29,-606.48 328.2,-616.33 333.49,-611.75"/>
</g>
<!-- talk_p_proc -->
<g id="node4" class="node">
<title>talk_p_proc</title>
<ellipse fill="#ffffff" stroke="#000000" cx="383.29" cy="-589.49" rx="27" ry="18"/>
</g>
<!-- start&#45;&gt;talk_p_proc -->
<g id="edge3" class="edge">
<title>start&#45;&gt;talk_p_proc</title>
<path fill="none" stroke="#555555" stroke-dasharray="1,5" d="M383.29,-656.33C383.29,-645.49 383.29,-631.23 383.29,-618.76"/>
<polygon fill="#555555" stroke="#555555" points="386.79,-618.96 383.29,-608.96 379.79,-618.96 386.79,-618.96"/>
</g>
<!-- critter_p_proc -->
<g id="node5" class="node">
<title>critter_p_proc</title>
<ellipse fill="#ffffff" stroke="#000000" cx="455.29" cy="-589.49" rx="27" ry="18"/>
</g>
<!-- start&#45;&gt;critter_p_proc -->
<g id="edge4" class="edge">
<title>start&#45;&gt;critter_p_proc</title>
<path fill="none" stroke="#555555" stroke-dasharray="1,5" d="M396.16,-658.69C407.05,-646.13 422.83,-627.93 435.35,-613.48"/>
<polygon fill="#555555" stroke="#555555" points="438.38,-616.33 442.29,-606.48 433.09,-611.75 438.38,-616.33"/>
</g>
<!-- destroy_p_proc -->
<g id="node6" class="node">
<title>destroy_p_proc</title>
<ellipse fill="#ffffff" stroke="#000000" cx="527.29" cy="-589.49" rx="27" ry="18"/>
</g>
<!-- start&#45;&gt;destroy_p_proc -->
<g id="edge5" class="edge">
<title>start&#45;&gt;destroy_p_proc</title>
<path fill="none" stroke="#555555" stroke-dasharray="1,5" d="M405.56,-664.1C427.94,-654.23 463.08,-637.67 491.29,-619.54 495.35,-616.93 499.49,-613.94 503.45,-610.9"/>
<polygon fill="#555555" stroke="#555555" points="505.1,-613.26 510.72,-604.27 500.72,-607.79 505.1,-613.26"/>
</g>
<!-- get_reaction -->
<g id="node8" class="node">
<title>get_reaction</title>
<ellipse fill="#ffffff" stroke="#000000" cx="101.29" cy="-492.38" rx="27" ry="18"/>
</g>
<!-- talk_p_proc&#45;&gt;get_reaction -->
<g id="edge6" class="edge">
<title>talk_p_proc&#45;&gt;get_reaction</title>
<path fill="none" stroke="#555555" stroke-dasharray="1,5" d="M368.68,-573.88C362.54,-568.54 355.04,-562.96 347.29,-559.43 261.02,-520.21 223.56,-561.66 137.29,-522.43 132.81,-520.4 128.41,-517.67 124.31,-514.7"/>
<polygon fill="#555555" stroke="#555555" points="126.9,-511.49 116.9,-507.99 122.53,-516.96 126.9,-511.49"/>
</g>
<!-- caravan00 -->
<g id="node9" class="node">
<title>caravan00</title>
<ellipse fill="#ffffff" stroke="#000000" cx="557.29" cy="-492.38" rx="122.68" ry="30.05"/>
<text text-anchor="middle" x="557.29" y="-496.33" font-family="Times,serif" font-size="14.00">Hello. Are you looking</text>
<text text-anchor="middle" x="557.29" y="-479.08" font-family="Times,serif" font-size="14.00">for a job?</text>
</g>
<!-- talk_p_proc&#45;&gt;caravan00 -->
<g id="edge7" class="edge">
<title>talk_p_proc&#45;&gt;caravan00</title>
<path fill="none" stroke="#555555" stroke-dasharray="1,5" d="M398.82,-574.63C404.96,-569.52 412.22,-563.89 419.29,-559.43 440.23,-546.22 464.22,-533.88 486.26,-523.51"/>
<polygon fill="#555555" stroke="#555555" points="487.63,-526.27 495.23,-518.9 484.69,-519.92 487.63,-526.27"/>
</g>
<!-- combat -->
<g id="node7" class="node">
<title>combat</title>
<ellipse fill="#ffffff" stroke="#000000" cx="468.29" cy="-674.54" rx="27" ry="18"/>
</g>
<!-- ReactToLevel -->
<g id="node18" class="node">
<title>ReactToLevel</title>
<ellipse fill="#ffffff" stroke="#000000" cx="245.29" cy="-366.83" rx="27" ry="18"/>
</g>
<!-- get_reaction&#45;&gt;ReactToLevel -->
<g id="edge17" class="edge">
<title>get_reaction&#45;&gt;ReactToLevel</title>
<path fill="none" stroke="#555555" stroke-dasharray="1,5" d="M117.25,-477.69C142.44,-456.07 191.59,-413.9 221.13,-388.56"/>
<polygon fill="#555555" stroke="#555555" points="222.95,-390.75 228.26,-381.59 218.39,-385.44 222.95,-390.75"/>
</g>
<!-- caravan01 -->
<g id="node10" class="node">
<title>caravan01</title>
<ellipse fill="#ffffff" stroke="#000000" cx="693.29" cy="-366.83" rx="137.53" ry="42.25"/>
<text text-anchor="middle" x="693.29" y="-379.4" font-family="Times,serif" font-size="14.00">Great. We have space for</text>
<text text-anchor="middle" x="693.29" y="-362.15" font-family="Times,serif" font-size="14.00">another guard. Are you</text>
<text text-anchor="middle" x="693.29" y="-344.9" font-family="Times,serif" font-size="14.00">interested?</text>
</g>
<!-- caravan00&#45;&gt;caravan01 -->
<g id="edge8" class="edge">
<title>caravan00&#45;&gt;caravan01</title>
<path fill="none" stroke="#00992e" d="M588.49,-463.04C604.27,-448.7 623.83,-430.93 641.76,-414.64"/>
<polygon fill="#00992e" stroke="#00992e" points="643.82,-417.59 648.87,-408.28 639.11,-412.41 643.82,-417.59"/>
<text text-anchor="middle" x="639.54" y="-431.03" font-family="Times,serif" font-size="14.00" fill="#00992e">Yes.</text>
</g>
<!-- caravan02 -->
<g id="node11" class="node">
<title>caravan02</title>
<ellipse fill="#ffffff" stroke="#000000" cx="513.29" cy="-180.29" rx="120.56" ry="42.25"/>
<text text-anchor="middle" x="513.29" y="-192.86" font-family="Times,serif" font-size="14.00">OK. If you need work,</text>
<text text-anchor="middle" x="513.29" y="-175.61" font-family="Times,serif" font-size="14.00">just stop by and well</text>
<text text-anchor="middle" x="513.29" y="-158.36" font-family="Times,serif" font-size="14.00">will set you up.</text>
</g>
<!-- caravan00&#45;&gt;caravan02 -->
<g id="edge9" class="edge">
<title>caravan00&#45;&gt;caravan02</title>
<path fill="none" stroke="#990100" d="M541.43,-462.19C533.92,-446.85 525.71,-427.46 521.54,-409.08 508.13,-349.95 507.82,-280 509.73,-233.37"/>
<polygon fill="#990100" stroke="#990100" points="513.26,-233.77 510.22,-223.62 506.27,-233.45 513.26,-233.77"/>
<text text-anchor="middle" x="534.66" y="-362.15" font-family="Times,serif" font-size="14.00" fill="#990100">No.</text>
</g>
<!-- caravan01&#45;&gt;caravan02 -->
<g id="edge11" class="edge">
<title>caravan01&#45;&gt;caravan02</title>
<path fill="none" stroke="#589900" d="M654.68,-326.24C626.68,-297.54 588.7,-258.6 559.16,-228.32"/>
<polygon fill="#589900" stroke="#589900" points="562.33,-226.53 552.84,-221.81 557.32,-231.42 562.33,-226.53"/>
<text text-anchor="middle" x="646.66" y="-293.28" font-family="Times,serif" font-size="14.00" fill="#589900">No.</text>
</g>
<!-- caravan03 -->
<g id="node12" class="node">
<title>caravan03</title>
<ellipse fill="#ffffff" stroke="#000000" cx="788.29" cy="-180.29" rx="136.47" ry="91.04"/>
<text text-anchor="middle" x="788.29" y="-227.36" font-family="Times,serif" font-size="14.00">Excellent. We have</text>
<text text-anchor="middle" x="788.29" y="-210.11" font-family="Times,serif" font-size="14.00">caravans leaving for: the</text>
<text text-anchor="middle" x="788.29" y="-192.86" font-family="Times,serif" font-size="14.00">Boneyard, Junktown,</text>
<text text-anchor="middle" x="788.29" y="-175.61" font-family="Times,serif" font-size="14.00">Necropolis and the</text>
<text text-anchor="middle" x="788.29" y="-158.36" font-family="Times,serif" font-size="14.00">Brotherhood of Steel.</text>
<text text-anchor="middle" x="788.29" y="-141.11" font-family="Times,serif" font-size="14.00">Which would you</text>
<text text-anchor="middle" x="788.29" y="-123.86" font-family="Times,serif" font-size="14.00"> like to work on?</text>
</g>
<!-- caravan01&#45;&gt;caravan03 -->
<g id="edge10" class="edge">
<title>caravan01&#45;&gt;caravan03</title>
<path fill="none" stroke="#002c99" d="M714.37,-324.87C721.85,-310.36 730.6,-293.36 739.41,-276.24"/>
<polygon fill="#002c99" stroke="#002c99" points="742.84,-278.22 744.3,-267.73 736.62,-275.02 742.84,-278.22"/>
<text text-anchor="middle" x="745.54" y="-293.28" font-family="Times,serif" font-size="14.00" fill="#002c99">Yes.</text>
</g>
<!-- caravan03a -->
<g id="node13" class="node">
<title>caravan03a</title>
<ellipse fill="#ffffff" stroke="#000000" cx="288.29" cy="-18" rx="115.92" ry="18"/>
<text text-anchor="middle" x="288.29" y="-13.32" font-family="Times,serif" font-size="14.00">Great. We leave now.</text>
</g>
<!-- caravan03&#45;&gt;caravan03a -->
<g id="edge12" class="edge">
<title>caravan03&#45;&gt;caravan03a</title>
<path fill="none" stroke="#990085" d="M694.8,-113.67C678.21,-104.27 660.68,-95.63 643.29,-89.25 592.35,-70.55 575.89,-81.16 522.54,-71.25 467.43,-61.01 405.56,-47.1 359.24,-36.21"/>
<polygon fill="#990085" stroke="#990085" points="360.25,-32.62 349.72,-33.73 358.64,-39.43 360.25,-32.62"/>
<text text-anchor="middle" x="559.66" y="-57.95" font-family="Times,serif" font-size="14.00" fill="#990085">Boneyard.</text>
</g>
<!-- caravan03b -->
<g id="node14" class="node">
<title>caravan03b</title>
<ellipse fill="#ffffff" stroke="#000000" cx="538.29" cy="-18" rx="115.92" ry="18"/>
<text text-anchor="middle" x="538.29" y="-13.32" font-family="Times,serif" font-size="14.00">Great. We leave now.</text>
</g>
<!-- caravan03&#45;&gt;caravan03b -->
<g id="edge13" class="edge">
<title>caravan03&#45;&gt;caravan03b</title>
<path fill="none" stroke="#009980" d="M690.2,-116.4C649.04,-90.01 603.8,-61 573.48,-41.56"/>
<polygon fill="#009980" stroke="#009980" points="575.88,-38.3 565.58,-35.85 572.1,-44.2 575.88,-38.3"/>
<text text-anchor="middle" x="654.91" y="-57.95" font-family="Times,serif" font-size="14.00" fill="#009980">Junktown.</text>
</g>
<!-- caravan03c -->
<g id="node15" class="node">
<title>caravan03c</title>
<ellipse fill="#ffffff" stroke="#000000" cx="788.29" cy="-18" rx="115.92" ry="18"/>
<text text-anchor="middle" x="788.29" y="-13.32" font-family="Times,serif" font-size="14.00">Great. We leave now.</text>
</g>
<!-- caravan03&#45;&gt;caravan03c -->
<g id="edge14" class="edge">
<title>caravan03&#45;&gt;caravan03c</title>
<path fill="none" stroke="#995400" d="M788.29,-88.84C788.29,-73.82 788.29,-59.29 788.29,-47.41"/>
<polygon fill="#995400" stroke="#995400" points="791.79,-47.49 788.29,-37.49 784.79,-47.49 791.79,-47.49"/>
<text text-anchor="middle" x="865.16" y="-57.95" font-family="Times,serif" font-size="14.00" fill="#995400">Brotherhood of Steel.</text>
</g>
<!-- caravan03d -->
<g id="node16" class="node">
<title>caravan03d</title>
<ellipse fill="#ffffff" stroke="#000000" cx="1038.29" cy="-18" rx="115.92" ry="18"/>
<text text-anchor="middle" x="1038.29" y="-13.32" font-family="Times,serif" font-size="14.00">Great. We leave now.</text>
</g>
<!-- caravan03&#45;&gt;caravan03d -->
<g id="edge15" class="edge">
<title>caravan03&#45;&gt;caravan03d</title>
<path fill="none" stroke="#270099" d="M886.38,-116.4C927.54,-90.01 972.78,-61 1003.1,-41.56"/>
<polygon fill="#270099" stroke="#270099" points="1004.47,-44.2 1011,-35.85 1000.7,-38.3 1004.47,-44.2"/>
<text text-anchor="middle" x="1017.79" y="-57.95" font-family="Times,serif" font-size="14.00" fill="#270099">Necropolis.</text>
</g>
<!-- caravan04 -->
<g id="node17" class="node">
<title>caravan04</title>
<ellipse fill="#ffffff" stroke="#000000" cx="1302.29" cy="-18" rx="130.12" ry="18"/>
<text text-anchor="middle" x="1302.29" y="-13.32" font-family="Times,serif" font-size="14.00">Sorry to hear that. Bye.</text>
</g>
<!-- caravan03&#45;&gt;caravan04 -->
<g id="edge16" class="edge">
<title>caravan03&#45;&gt;caravan04</title>
<path fill="none" stroke="#069900" d="M911.73,-140.79C1015.7,-108.37 1160.05,-63.36 1240.98,-38.12"/>
<polygon fill="#069900" stroke="#069900" points="1241.5,-41.31 1250,-34.99 1239.42,-34.63 1241.5,-41.31"/>
<text text-anchor="middle" x="1198.29" y="-57.95" font-family="Times,serif" font-size="14.00" fill="#069900">None.</text>
</g>
<!-- LevelToReact -->
<g id="node19" class="node">
<title>LevelToReact</title>
<ellipse fill="#ffffff" stroke="#000000" cx="612.29" cy="-589.49" rx="27" ry="18"/>
</g>
<!-- UpReact -->
<g id="node20" class="node">
<title>UpReact</title>
<ellipse fill="#ffffff" stroke="#000000" cx="173.29" cy="-492.38" rx="27" ry="18"/>
</g>
<!-- UpReact&#45;&gt;ReactToLevel -->
<g id="edge18" class="edge">
<title>UpReact&#45;&gt;ReactToLevel</title>
<path fill="none" stroke="#555555" stroke-dasharray="1,5" d="M182.7,-475.23C194.83,-454.42 216.05,-418 230.39,-393.41"/>
<polygon fill="#555555" stroke="#555555" points="233.86,-395.39 235.87,-384.99 227.82,-391.86 233.86,-395.39"/>
</g>
<!-- DownReact -->
<g id="node21" class="node">
<title>DownReact</title>
<ellipse fill="#ffffff" stroke="#000000" cx="245.29" cy="-492.38" rx="27" ry="18"/>
</g>
<!-- DownReact&#45;&gt;ReactToLevel -->
<g id="edge19" class="edge">
<title>DownReact&#45;&gt;ReactToLevel</title>
<path fill="none" stroke="#555555" stroke-dasharray="1,5" d="M245.29,-473.94C245.29,-453.71 245.29,-420.05 245.29,-396.07"/>
<polygon fill="#555555" stroke="#555555" points="248.79,-396.18 245.29,-386.18 241.79,-396.18 248.79,-396.18"/>
</g>
<!-- BottomReact -->
<g id="node22" class="node">
<title>BottomReact</title>
<ellipse fill="#ffffff" stroke="#000000" cx="696.29" cy="-674.54" rx="27" ry="18"/>
</g>
<!-- TopReact -->
<g id="node23" class="node">
<title>TopReact</title>
<ellipse fill="#ffffff" stroke="#000000" cx="768.29" cy="-674.54" rx="27" ry="18"/>
</g>
<!-- BigUpReact -->
<g id="node24" class="node">
<title>BigUpReact</title>
<ellipse fill="#ffffff" stroke="#000000" cx="317.29" cy="-492.38" rx="27" ry="18"/>
</g>
<!-- BigUpReact&#45;&gt;ReactToLevel -->
<g id="edge20" class="edge">
<title>BigUpReact&#45;&gt;ReactToLevel</title>
<path fill="none" stroke="#555555" stroke-dasharray="1,5" d="M307.88,-475.23C295.75,-454.42 274.53,-418 260.19,-393.41"/>
<polygon fill="#555555" stroke="#555555" points="262.76,-391.86 254.7,-384.99 256.72,-395.39 262.76,-391.86"/>
</g>
<!-- BigDownReact -->
<g id="node25" class="node">
<title>BigDownReact</title>
<ellipse fill="#ffffff" stroke="#000000" cx="389.29" cy="-492.38" rx="27" ry="18"/>
</g>
<!-- BigDownReact&#45;&gt;ReactToLevel -->
<g id="edge21" class="edge">
<title>BigDownReact&#45;&gt;ReactToLevel</title>
<path fill="none" stroke="#555555" stroke-dasharray="1,5" d="M373.33,-477.69C348.14,-456.07 298.99,-413.9 269.45,-388.56"/>
<polygon fill="#555555" stroke="#555555" points="272.19,-385.44 262.32,-381.59 267.63,-390.75 272.19,-385.44"/>
</g>
<!-- UpReactLevel -->
<g id="node26" class="node">
<title>UpReactLevel</title>
<ellipse fill="#ffffff" stroke="#000000" cx="552.29" cy="-674.54" rx="27" ry="18"/>
</g>
<!-- UpReactLevel&#45;&gt;LevelToReact -->
<g id="edge22" class="edge">
<title>UpReactLevel&#45;&gt;LevelToReact</title>
<path fill="none" stroke="#555555" stroke-dasharray="1,5" d="M563.58,-657.92C572.37,-645.74 584.75,-628.6 594.83,-614.66"/>
<polygon fill="#555555" stroke="#555555" points="598.04,-617.19 601.05,-607.04 592.36,-613.09 598.04,-617.19"/>
</g>
<!-- DownReactLevel -->
<g id="node27" class="node">
<title>DownReactLevel</title>
<ellipse fill="#ffffff" stroke="#000000" cx="624.29" cy="-674.54" rx="27" ry="18"/>
</g>
<!-- DownReactLevel&#45;&gt;LevelToReact -->
<g id="edge23" class="edge">
<title>DownReactLevel&#45;&gt;LevelToReact</title>
<path fill="none" stroke="#555555" stroke-dasharray="1,5" d="M621.8,-656.33C620.23,-645.42 618.15,-631.04 616.34,-618.51"/>
<polygon fill="#555555" stroke="#555555" points="619.67,-618.07 614.77,-608.67 612.74,-619.07 619.67,-618.07"/>
</g>
<!-- Goodbyes -->
<g id="node28" class="node">
<title>Goodbyes</title>
<ellipse fill="#ffffff" stroke="#000000" cx="840.29" cy="-674.54" rx="27" ry="18"/>
</g>
</g>
</svg>
