<?xml version="1.0" encoding="UTF-8" standalone="no"?>
<!DOCTYPE svg PUBLIC "-//W3C//DTD SVG 1.1//EN"
 "http://www.w3.org/Graphics/SVG/1.1/DTD/svg11.dtd">
<!-- Generated by graphviz version 8.0.5 (0)
 -->
<!-- Title: CHIDGAB Pages: 1 -->
<svg width="1307pt" height="442pt"
 viewBox="0.00 0.00 1306.54 442.18" xmlns="http://www.w3.org/2000/svg" xmlns:xlink="http://www.w3.org/1999/xlink">
<g id="graph0" class="graph" transform="scale(1 1) rotate(0) translate(4 438.18)">
<title>CHIDGAB</title>
<polygon fill="white" stroke="none" points="-4,4 -4,-438.18 1302.54,-438.18 1302.54,4 -4,4"/>
<!-- start -->
<g id="node1" class="node">
<title>start</title>
<ellipse fill="#ffffff" stroke="#000000" cx="668.04" cy="-343.14" rx="128.52" ry="91.04"/>
<text text-anchor="middle" x="668.04" y="-390.22" font-family="Times,serif" font-size="14.00">You see a Child with a</text>
<text text-anchor="middle" x="668.04" y="-372.97" font-family="Times,serif" font-size="14.00">real attitude.</text>
<text text-anchor="middle" x="668.04" y="-355.72" font-family="Times,serif" font-size="14.00">&#45;&#45;&#45;</text>
<text text-anchor="middle" x="668.04" y="-338.47" font-family="Times,serif" font-size="14.00">Get away from me!</text>
<text text-anchor="middle" x="668.04" y="-321.22" font-family="Times,serif" font-size="14.00">&#45;&#45;&#45;</text>
<text text-anchor="middle" x="668.04" y="-303.97" font-family="Times,serif" font-size="14.00">Get out of my face, you</text>
<text text-anchor="middle" x="668.04" y="-286.72" font-family="Times,serif" font-size="14.00">son of a bitch!</text>
</g>
<!-- Brat02 -->
<g id="node2" class="node">
<title>Brat02</title>
<ellipse fill="#ffffff" stroke="#000000" cx="668.04" cy="-185.05" rx="130.64" ry="30.05"/>
<text text-anchor="middle" x="668.04" y="-189" font-family="Times,serif" font-size="14.00">What in the Hell do you</text>
<text text-anchor="middle" x="668.04" y="-171.75" font-family="Times,serif" font-size="14.00">want?</text>
</g>
<!-- start&#45;&gt;Brat02 -->
<g id="edge1" class="edge">
<title>start&#45;&gt;Brat02</title>
<path fill="none" stroke="#555555" stroke-dasharray="1,5" d="M668.04,-251.8C668.04,-242.91 668.04,-234.23 668.04,-226.26"/>
<polygon fill="#555555" stroke="#555555" points="671.54,-226.5 668.04,-216.5 664.54,-226.5 671.54,-226.5"/>
</g>
<!-- Brat03 -->
<g id="node3" class="node">
<title>Brat03</title>
<ellipse fill="#ffffff" stroke="#000000" cx="78.04" cy="-42.25" rx="78.04" ry="18"/>
<text text-anchor="middle" x="78.04" y="-37.57" font-family="Times,serif" font-size="14.00">In Hell, loser.</text>
</g>
<!-- Brat02&#45;&gt;Brat03 -->
<g id="edge2" class="edge">
<title>Brat02&#45;&gt;Brat03</title>
<path fill="none" stroke="#003b99" d="M538.2,-181.08C414.92,-176.56 239.49,-165.24 177.29,-137 144.1,-121.93 114.96,-91.12 96.99,-68.93"/>
<polygon fill="#003b99" stroke="#003b99" points="99.15,-67.02 90.22,-61.32 93.65,-71.34 99.15,-67.02"/>
<text text-anchor="middle" x="265.41" y="-123.7" font-family="Times,serif" font-size="14.00" fill="#003b99">Where might I meet this</text>
<text text-anchor="middle" x="265.41" y="-106.45" font-family="Times,serif" font-size="14.00" fill="#003b99">Master?</text>
</g>
<!-- Brat04 -->
<g id="node4" class="node">
<title>Brat04</title>
<ellipse fill="#ffffff" stroke="#000000" cx="313.04" cy="-42.25" rx="139.12" ry="30.05"/>
<text text-anchor="middle" x="313.04" y="-46.2" font-family="Times,serif" font-size="14.00">Do you always ask stupid</text>
<text text-anchor="middle" x="313.04" y="-28.95" font-family="Times,serif" font-size="14.00">questions, loser?</text>
</g>
<!-- Brat02&#45;&gt;Brat04 -->
<g id="edge3" class="edge">
<title>Brat02&#45;&gt;Brat04</title>
<path fill="none" stroke="#679900" d="M550.23,-171.64C489.07,-163.64 421.67,-151.95 395.04,-137 371.33,-123.69 351.13,-100.84 336.71,-81.03"/>
<polygon fill="#679900" stroke="#679900" points="339.11,-79.36 330.5,-73.19 333.38,-83.38 339.11,-79.36"/>
<text text-anchor="middle" x="480.54" y="-123.7" font-family="Times,serif" font-size="14.00" fill="#679900">To find out what&#39;s</text>
<text text-anchor="middle" x="480.54" y="-106.45" font-family="Times,serif" font-size="14.00" fill="#679900">happening around here.</text>
</g>
<!-- Brat05 -->
<g id="node5" class="node">
<title>Brat05</title>
<ellipse fill="#ffffff" stroke="#000000" cx="578.04" cy="-42.25" rx="108.36" ry="30.05"/>
<text text-anchor="middle" x="578.04" y="-46.2" font-family="Times,serif" font-size="14.00">It sure as Hell ain&#39;t</text>
<text text-anchor="middle" x="578.04" y="-28.95" font-family="Times,serif" font-size="14.00">you, punk.</text>
</g>
<!-- Brat02&#45;&gt;Brat05 -->
<g id="edge4" class="edge">
<title>Brat02&#45;&gt;Brat05</title>
<path fill="none" stroke="#990094" d="M600.37,-159.03C591.8,-153.08 584.16,-145.83 578.79,-137 569.16,-121.19 567.94,-100.92 569.56,-83.27"/>
<polygon fill="#990094" stroke="#990094" points="573.15,-83.77 570.93,-73.41 566.2,-82.9 573.15,-83.77"/>
<text text-anchor="middle" x="658.16" y="-115.07" font-family="Times,serif" font-size="14.00" fill="#990094">Who&#39;s in charge here?</text>
</g>
<!-- Brat06 -->
<g id="node6" class="node">
<title>Brat06</title>
<ellipse fill="#ffffff" stroke="#000000" cx="835.04" cy="-42.25" rx="130.64" ry="42.25"/>
<text text-anchor="middle" x="835.04" y="-54.82" font-family="Times,serif" font-size="14.00">What makes you think I</text>
<text text-anchor="middle" x="835.04" y="-37.57" font-family="Times,serif" font-size="14.00">want to drink with you,</text>
<text text-anchor="middle" x="835.04" y="-20.32" font-family="Times,serif" font-size="14.00">you puke!</text>
</g>
<!-- Brat02&#45;&gt;Brat06 -->
<g id="edge5" class="edge">
<title>Brat02&#45;&gt;Brat06</title>
<path fill="none" stroke="#009971" d="M713.8,-156.53C721.99,-150.61 730.1,-144.01 737.04,-137 750,-123.9 747.54,-116.04 760.04,-102.5 764.47,-97.7 769.31,-92.97 774.33,-88.41"/>
<polygon fill="#009971" stroke="#009971" points="776.13,-90.62 781.34,-81.39 771.51,-85.35 776.13,-90.62"/>
<text text-anchor="middle" x="839.54" y="-123.7" font-family="Times,serif" font-size="14.00" fill="#009971">Hey, mellow out! Let&#39;s</text>
<text text-anchor="middle" x="839.54" y="-106.45" font-family="Times,serif" font-size="14.00" fill="#009971">have a drink!</text>
</g>
<!-- Brat07 -->
<g id="node7" class="node">
<title>Brat07</title>
<ellipse fill="#ffffff" stroke="#000000" cx="1122.04" cy="-42.25" rx="130.11" ry="30.05"/>
<text text-anchor="middle" x="1122.04" y="-46.2" font-family="Times,serif" font-size="14.00">Get out of here before I</text>
<text text-anchor="middle" x="1122.04" y="-28.95" font-family="Times,serif" font-size="14.00">kill you!</text>
</g>
<!-- Brat02&#45;&gt;Brat07 -->
<g id="edge6" class="edge">
<title>Brat02&#45;&gt;Brat07</title>
<path fill="none" stroke="#994500" d="M784.48,-171.03C838.89,-163.2 896.57,-151.85 919.04,-137 934.41,-126.84 927.37,-113.66 942.04,-102.5 956.4,-91.58 991.49,-79.14 1026.92,-68.49"/>
<polygon fill="#994500" stroke="#994500" points="1027.8,-71.58 1036.4,-65.39 1025.82,-64.87 1027.8,-71.58"/>
<text text-anchor="middle" x="1024.54" y="-123.7" font-family="Times,serif" font-size="14.00" fill="#994500">To add your ears to my</text>
<text text-anchor="middle" x="1024.54" y="-106.45" font-family="Times,serif" font-size="14.00" fill="#994500">collection.</text>
</g>
<!-- Brat02&#45;&gt;Brat07 -->
<g id="edge7" class="edge">
<title>Brat02&#45;&gt;Brat07</title>
<path fill="none" stroke="#180099" d="M795.58,-178.18C917.06,-171.36 1084.68,-158.23 1107.04,-137 1121.33,-123.43 1125.54,-102.09 1125.98,-83.2"/>
<polygon fill="#180099" stroke="#180099" points="1129.47,-83.39 1125.84,-73.44 1122.47,-83.48 1129.47,-83.39"/>
<text text-anchor="middle" x="1210.79" y="-123.7" font-family="Times,serif" font-size="14.00" fill="#180099">Me no want Hell! Stupid</text>
<text text-anchor="middle" x="1210.79" y="-106.45" font-family="Times,serif" font-size="14.00" fill="#180099">man!</text>
</g>
<!-- Combat -->
<g id="node8" class="node">
<title>Combat</title>
<ellipse fill="#ffffff" stroke="#000000" cx="842.04" cy="-343.14" rx="27" ry="18"/>
</g>
<!-- BratEnd -->
<g id="node9" class="node">
<title>BratEnd</title>
<ellipse fill="#ffffff" stroke="#000000" cx="914.04" cy="-343.14" rx="27" ry="18"/>
</g>
</g>
</svg>
