<?xml version="1.0" encoding="UTF-8" standalone="no"?>
<!DOCTYPE svg PUBLIC "-//W3C//DTD SVG 1.1//EN"
 "http://www.w3.org/Graphics/SVG/1.1/DTD/svg11.dtd">
<!-- Generated by graphviz version 8.0.5 (0)
 -->
<!-- Title: COOKTABL Pages: 1 -->
<svg width="575pt" height="262pt"
 viewBox="0.00 0.00 574.91 261.79" xmlns="http://www.w3.org/2000/svg" xmlns:xlink="http://www.w3.org/1999/xlink">
<g id="graph0" class="graph" transform="scale(1 1) rotate(0) translate(4 257.79)">
<title>COOKTABL</title>
<polygon fill="white" stroke="none" points="-4,4 -4,-257.79 570.91,-257.79 570.91,4 -4,4"/>
<!-- start -->
<g id="node1" class="node">
<title>start</title>
<ellipse fill="#ffffff" stroke="#000000" cx="260.27" cy="-199.34" rx="27" ry="18"/>
</g>
<!-- pickup_p_proc -->
<g id="node2" class="node">
<title>pickup_p_proc</title>
<ellipse fill="#ffffff" stroke="#000000" cx="124.27" cy="-54.45" rx="124.27" ry="42.25"/>
<text text-anchor="middle" x="124.27" y="-67.02" font-family="Times,serif" font-size="14.00">The food is not cooked</text>
<text text-anchor="middle" x="124.27" y="-49.77" font-family="Times,serif" font-size="14.00">yet. It will poison you</text>
<text text-anchor="middle" x="124.27" y="-32.52" font-family="Times,serif" font-size="14.00">if you eat it raw.</text>
</g>
<!-- start&#45;&gt;pickup_p_proc -->
<g id="edge1" class="edge">
<title>start&#45;&gt;pickup_p_proc</title>
<path fill="none" stroke="#555555" stroke-dasharray="1,5" d="M246.23,-183.59C228.24,-164.69 196.19,-131.01 169.46,-102.92"/>
<polygon fill="#555555" stroke="#555555" points="172.51,-101 163.08,-96.17 167.43,-105.82 172.51,-101"/>
</g>
<!-- look_at_p_proc -->
<g id="node3" class="node">
<title>look_at_p_proc</title>
<ellipse fill="#ffffff" stroke="#000000" cx="397.27" cy="-54.45" rx="130.64" ry="54.45"/>
<text text-anchor="middle" x="397.27" y="-75.65" font-family="Times,serif" font-size="14.00">The table appears to be</text>
<text text-anchor="middle" x="397.27" y="-58.4" font-family="Times,serif" font-size="14.00">full of items the cooks</text>
<text text-anchor="middle" x="397.27" y="-41.15" font-family="Times,serif" font-size="14.00">are</text>
<text text-anchor="middle" x="397.27" y="-23.9" font-family="Times,serif" font-size="14.00"> using to make a meal.</text>
</g>
<!-- start&#45;&gt;look_at_p_proc -->
<g id="edge2" class="edge">
<title>start&#45;&gt;look_at_p_proc</title>
<path fill="none" stroke="#555555" stroke-dasharray="1,5" d="M269.68,-182.15C276.43,-171.13 286.1,-156.51 296.27,-144.89 306.49,-133.23 318.18,-121.61 329.9,-110.8"/>
<polygon fill="#555555" stroke="#555555" points="331.94,-113.77 337,-104.45 327.24,-108.58 331.94,-113.77"/>
</g>
<!-- description_p_proc -->
<g id="node4" class="node">
<title>description_p_proc</title>
<ellipse fill="#ffffff" stroke="#000000" cx="436.27" cy="-199.34" rx="130.64" ry="54.45"/>
<text text-anchor="middle" x="436.27" y="-220.54" font-family="Times,serif" font-size="14.00">The table appears to be</text>
<text text-anchor="middle" x="436.27" y="-203.29" font-family="Times,serif" font-size="14.00">full of items the cooks</text>
<text text-anchor="middle" x="436.27" y="-186.04" font-family="Times,serif" font-size="14.00">are</text>
<text text-anchor="middle" x="436.27" y="-168.79" font-family="Times,serif" font-size="14.00"> using to make a meal.</text>
</g>
</g>
</svg>
