<?xml version="1.0" encoding="UTF-8" standalone="no"?>
<!DOCTYPE svg PUBLIC "-//W3C//DTD SVG 1.1//EN"
 "http://www.w3.org/Graphics/SVG/1.1/DTD/svg11.dtd">
<!-- Generated by graphviz version 8.0.5 (0)
 -->
<!-- Title: COOKSHEL Pages: 1 -->
<svg width="599pt" height="237pt"
 viewBox="0.00 0.00 598.70 237.39" xmlns="http://www.w3.org/2000/svg" xmlns:xlink="http://www.w3.org/1999/xlink">
<g id="graph0" class="graph" transform="scale(1 1) rotate(0) translate(4 233.39)">
<title>COOKSHEL</title>
<polygon fill="white" stroke="none" points="-4,4 -4,-233.39 594.7,-233.39 594.7,4 -4,4"/>
<!-- start -->
<g id="node1" class="node">
<title>start</title>
<ellipse fill="#ffffff" stroke="#000000" cx="277.88" cy="-199.34" rx="27" ry="18"/>
</g>
<!-- pickup_p_proc -->
<g id="node2" class="node">
<title>pickup_p_proc</title>
<ellipse fill="#ffffff" stroke="#000000" cx="134.88" cy="-66.64" rx="134.88" ry="66.64"/>
<text text-anchor="middle" x="134.88" y="-96.47" font-family="Times,serif" font-size="14.00">The cooks are extremely</text>
<text text-anchor="middle" x="134.88" y="-79.22" font-family="Times,serif" font-size="14.00">watchful of their store</text>
<text text-anchor="middle" x="134.88" y="-61.97" font-family="Times,serif" font-size="14.00">of food</text>
<text text-anchor="middle" x="134.88" y="-44.72" font-family="Times,serif" font-size="14.00">and prevent you from</text>
<text text-anchor="middle" x="134.88" y="-27.47" font-family="Times,serif" font-size="14.00">taking anything.</text>
</g>
<!-- start&#45;&gt;pickup_p_proc -->
<g id="edge1" class="edge">
<title>start&#45;&gt;pickup_p_proc</title>
<path fill="none" stroke="#555555" stroke-dasharray="1,5" d="M262.3,-184.11C248.57,-171.55 227.51,-152.31 206.45,-133.05"/>
<polygon fill="#555555" stroke="#555555" points="209.13,-130.85 199.39,-126.69 204.41,-136.02 209.13,-130.85"/>
</g>
<!-- look_at_p_proc -->
<g id="node3" class="node">
<title>look_at_p_proc</title>
<ellipse fill="#ffffff" stroke="#000000" cx="421.88" cy="-66.64" rx="133.82" ry="30.05"/>
<text text-anchor="middle" x="421.88" y="-70.59" font-family="Times,serif" font-size="14.00">The shelf contains</text>
<text text-anchor="middle" x="421.88" y="-53.34" font-family="Times,serif" font-size="14.00">bottles of various items.</text>
</g>
<!-- start&#45;&gt;look_at_p_proc -->
<g id="edge2" class="edge">
<title>start&#45;&gt;look_at_p_proc</title>
<path fill="none" stroke="#555555" stroke-dasharray="1,5" d="M293.29,-184.35C314.38,-165.21 352.97,-130.19 382.39,-103.49"/>
<polygon fill="#555555" stroke="#555555" points="384.37,-106.51 389.42,-97.2 379.67,-101.32 384.37,-106.51"/>
</g>
<!-- description_p_proc -->
<g id="node4" class="node">
<title>description_p_proc</title>
<ellipse fill="#ffffff" stroke="#000000" cx="456.88" cy="-199.34" rx="133.82" ry="30.05"/>
<text text-anchor="middle" x="456.88" y="-203.29" font-family="Times,serif" font-size="14.00">The shelf contains</text>
<text text-anchor="middle" x="456.88" y="-186.04" font-family="Times,serif" font-size="14.00">bottles of various items.</text>
</g>
</g>
</svg>
