<?xml version="1.0" encoding="UTF-8" standalone="no"?>
<!DOCTYPE svg PUBLIC "-//W3C//DTD SVG 1.1//EN"
 "http://www.w3.org/Graphics/SVG/1.1/DTD/svg11.dtd">
<!-- Generated by graphviz version 8.0.5 (0)
 -->
<!-- Title: COVER Pages: 1 -->
<svg width="437pt" height="650pt"
 viewBox="0.00 0.00 437.22 649.74" xmlns="http://www.w3.org/2000/svg" xmlns:xlink="http://www.w3.org/1999/xlink">
<g id="graph0" class="graph" transform="scale(1 1) rotate(0) translate(4 645.74)">
<title>COVER</title>
<polygon fill="white" stroke="none" points="-4,4 -4,-645.74 433.22,-645.74 433.22,4 -4,4"/>
<!-- start -->
<g id="node1" class="node">
<title>start</title>
<ellipse fill="#ffffff" stroke="#000000" cx="207.74" cy="-623.74" rx="27" ry="18"/>
</g>
<!-- do_stuff -->
<g id="node2" class="node">
<title>do_stuff</title>
<ellipse fill="#ffffff" stroke="#000000" cx="207.74" cy="-551.74" rx="27" ry="18"/>
</g>
<!-- start&#45;&gt;do_stuff -->
<g id="edge1" class="edge">
<title>start&#45;&gt;do_stuff</title>
<path fill="none" stroke="#555555" stroke-dasharray="1,5" d="M207.74,-605.44C207.74,-597.98 207.74,-589.06 207.74,-580.71"/>
<polygon fill="#555555" stroke="#555555" points="211.24,-580.85 207.74,-570.85 204.24,-580.85 211.24,-580.85"/>
</g>
<!-- cover00 -->
<g id="node3" class="node">
<title>cover00</title>
<ellipse fill="#ffffff" stroke="#000000" cx="123.74" cy="-467.69" rx="123.74" ry="30.05"/>
<text text-anchor="middle" x="123.74" y="-471.64" font-family="Times,serif" font-size="14.00">You close the manhole</text>
<text text-anchor="middle" x="123.74" y="-454.39" font-family="Times,serif" font-size="14.00">cover.</text>
</g>
<!-- do_stuff&#45;&gt;cover00 -->
<g id="edge2" class="edge">
<title>do_stuff&#45;&gt;cover00</title>
<path fill="none" stroke="#555555" stroke-dasharray="1,5" d="M193.11,-536.45C184.1,-527.64 172.11,-515.93 160.63,-504.72"/>
<polygon fill="#555555" stroke="#555555" points="163.41,-502.57 153.81,-498.08 158.52,-507.58 163.41,-502.57"/>
</g>
<!-- cover01 -->
<g id="node4" class="node">
<title>cover01</title>
<ellipse fill="#ffffff" stroke="#000000" cx="292.74" cy="-467.69" rx="27" ry="18"/>
</g>
<!-- do_stuff&#45;&gt;cover01 -->
<g id="edge3" class="edge">
<title>do_stuff&#45;&gt;cover01</title>
<path fill="none" stroke="#555555" stroke-dasharray="1,5" d="M222.55,-536.45C235.63,-523.82 254.92,-505.2 269.97,-490.68"/>
<polygon fill="#555555" stroke="#555555" points="272.06,-493.56 276.82,-484.09 267.2,-488.52 272.06,-493.56"/>
</g>
<!-- cover01a -->
<g id="node6" class="node">
<title>cover01a</title>
<ellipse fill="#ffffff" stroke="#000000" cx="292.74" cy="-200.82" rx="136.47" ry="200.82"/>
<text text-anchor="middle" x="292.74" y="-325.52" font-family="Times,serif" font-size="14.00">You open the manhole</text>
<text text-anchor="middle" x="292.74" y="-308.27" font-family="Times,serif" font-size="14.00">cover and peer down</text>
<text text-anchor="middle" x="292.74" y="-291.02" font-family="Times,serif" font-size="14.00">into the darkness. You</text>
<text text-anchor="middle" x="292.74" y="-273.77" font-family="Times,serif" font-size="14.00">see a ladder that</text>
<text text-anchor="middle" x="292.74" y="-256.52" font-family="Times,serif" font-size="14.00"> leads into the sewers.</text>
<text text-anchor="middle" x="292.74" y="-239.27" font-family="Times,serif" font-size="14.00">&#45;&#45;&#45;</text>
<text text-anchor="middle" x="292.74" y="-222.02" font-family="Times,serif" font-size="14.00">You strain your muscles,</text>
<text text-anchor="middle" x="292.74" y="-204.77" font-family="Times,serif" font-size="14.00">but the heavy iron</text>
<text text-anchor="middle" x="292.74" y="-187.52" font-family="Times,serif" font-size="14.00">disc is too much for</text>
<text text-anchor="middle" x="292.74" y="-170.27" font-family="Times,serif" font-size="14.00">your weak physique. You</text>
<text text-anchor="middle" x="292.74" y="-153.02" font-family="Times,serif" font-size="14.00">can feel something pop</text>
<text text-anchor="middle" x="292.74" y="-135.77" font-family="Times,serif" font-size="14.00">in your back.</text>
<text text-anchor="middle" x="292.74" y="-118.52" font-family="Times,serif" font-size="14.00">&#45;&#45;&#45;</text>
<text text-anchor="middle" x="292.74" y="-101.27" font-family="Times,serif" font-size="14.00">The manhole cover is</text>
<text text-anchor="middle" x="292.74" y="-84.02" font-family="Times,serif" font-size="14.00">heavy and awkward to</text>
<text text-anchor="middle" x="292.74" y="-66.77" font-family="Times,serif" font-size="14.00">lift.</text>
</g>
<!-- cover01&#45;&gt;cover01a -->
<g id="edge4" class="edge">
<title>cover01&#45;&gt;cover01a</title>
<path fill="none" stroke="#555555" stroke-dasharray="1,5" d="M292.74,-449.31C292.74,-440 292.74,-427.46 292.74,-412.94"/>
<polygon fill="#555555" stroke="#555555" points="296.24,-413.03 292.74,-403.03 289.24,-413.03 296.24,-413.03"/>
</g>
<!-- coverend -->
<g id="node5" class="node">
<title>coverend</title>
<ellipse fill="#ffffff" stroke="#000000" cx="279.74" cy="-623.74" rx="27" ry="18"/>
</g>
</g>
</svg>
