<?xml version="1.0" encoding="UTF-8" standalone="no"?>
<!DOCTYPE svg PUBLIC "-//W3C//DTD SVG 1.1//EN"
 "http://www.w3.org/Graphics/SVG/1.1/DTD/svg11.dtd">
<!-- Generated by graphviz version 8.0.5 (0)
 -->
<!-- Title: CRASHBOX Pages: 1 -->
<svg width="632pt" height="140pt"
 viewBox="0.00 0.00 631.67 140.10" xmlns="http://www.w3.org/2000/svg" xmlns:xlink="http://www.w3.org/1999/xlink">
<g id="graph0" class="graph" transform="scale(1 1) rotate(0) translate(4 136.1)">
<title>CRASHBOX</title>
<polygon fill="white" stroke="none" points="-4,4 -4,-136.1 627.67,-136.1 627.67,4 -4,4"/>
<!-- start -->
<g id="node1" class="node">
<title>start</title>
<ellipse fill="#ffffff" stroke="#000000" cx="443.67" cy="-114.1" rx="27" ry="18"/>
</g>
<!-- description_p_proc -->
<g id="node2" class="node">
<title>description_p_proc</title>
<ellipse fill="#ffffff" stroke="#000000" cx="113.67" cy="-30.05" rx="113.67" ry="30.05"/>
<text text-anchor="middle" x="113.67" y="-34" font-family="Times,serif" font-size="14.00">The sign reads: &quot;For</text>
<text text-anchor="middle" x="113.67" y="-16.75" font-family="Times,serif" font-size="14.00">tenants only&quot;.</text>
</g>
<!-- start&#45;&gt;description_p_proc -->
<g id="edge1" class="edge">
<title>start&#45;&gt;description_p_proc</title>
<path fill="none" stroke="#555555" stroke-dasharray="1,5" d="M418.59,-106.87C373.79,-95.73 277.92,-71.89 205.56,-53.9"/>
<polygon fill="#555555" stroke="#555555" points="206.62,-50.31 196.07,-51.29 204.93,-57.1 206.62,-50.31"/>
</g>
<!-- look_at_p_proc -->
<g id="node3" class="node">
<title>look_at_p_proc</title>
<ellipse fill="#ffffff" stroke="#000000" cx="362.67" cy="-30.05" rx="116.85" ry="30.05"/>
<text text-anchor="middle" x="362.67" y="-34" font-family="Times,serif" font-size="14.00">There&#39;s a sign on the</text>
<text text-anchor="middle" x="362.67" y="-16.75" font-family="Times,serif" font-size="14.00">fridge.</text>
</g>
<!-- start&#45;&gt;look_at_p_proc -->
<g id="edge2" class="edge">
<title>start&#45;&gt;look_at_p_proc</title>
<path fill="none" stroke="#555555" stroke-dasharray="1,5" d="M429.19,-98.43C420.53,-89.67 409.14,-78.12 398.22,-67.07"/>
<polygon fill="#555555" stroke="#555555" points="401.3,-65.19 391.79,-60.54 396.32,-70.11 401.3,-65.19"/>
</g>
<!-- use_p_proc -->
<g id="node4" class="node">
<title>use_p_proc</title>
<ellipse fill="#ffffff" stroke="#000000" cx="524.67" cy="-30.05" rx="27" ry="18"/>
</g>
<!-- start&#45;&gt;use_p_proc -->
<g id="edge3" class="edge">
<title>start&#45;&gt;use_p_proc</title>
<path fill="none" stroke="#555555" stroke-dasharray="1,5" d="M458.15,-98.43C470.59,-85.83 488.71,-67.48 502.9,-53.11"/>
<polygon fill="#555555" stroke="#555555" points="504.78,-56.17 509.31,-46.59 499.8,-51.25 504.78,-56.17"/>
</g>
<!-- use_skill_on_p_proc -->
<g id="node5" class="node">
<title>use_skill_on_p_proc</title>
<ellipse fill="#ffffff" stroke="#000000" cx="596.67" cy="-30.05" rx="27" ry="18"/>
</g>
<!-- start&#45;&gt;use_skill_on_p_proc -->
<g id="edge4" class="edge">
<title>start&#45;&gt;use_skill_on_p_proc</title>
<path fill="none" stroke="#555555" stroke-dasharray="1,5" d="M466.97,-104.58C491.23,-95.24 529.91,-79.05 560.67,-60.1 564.67,-57.64 568.72,-54.78 572.59,-51.85"/>
<polygon fill="#555555" stroke="#555555" points="574.56,-53.96 580.19,-44.98 570.19,-48.49 574.56,-53.96"/>
</g>
</g>
</svg>
