<?xml version="1.0" encoding="UTF-8" standalone="no"?>
<!DOCTYPE svg PUBLIC "-//W3C//DTD SVG 1.1//EN"
 "http://www.w3.org/Graphics/SVG/1.1/DTD/svg11.dtd">
<!-- Generated by graphviz version 8.0.5 (0)
 -->
<!-- Title: CREDDOOR Pages: 1 -->
<svg width="1254pt" height="555pt"
 viewBox="0.00 0.00 1254.17 554.82" xmlns="http://www.w3.org/2000/svg" xmlns:xlink="http://www.w3.org/1999/xlink">
<g id="graph0" class="graph" transform="scale(1 1) rotate(0) translate(4 550.82)">
<title>CREDDOOR</title>
<polygon fill="white" stroke="none" points="-4,4 -4,-550.82 1250.17,-550.82 1250.17,4 -4,4"/>
<!-- start -->
<g id="node1" class="node">
<title>start</title>
<ellipse fill="#ffffff" stroke="#000000" cx="831.17" cy="-528.82" rx="27" ry="18"/>
</g>
<!-- look_at_p_proc -->
<g id="node2" class="node">
<title>look_at_p_proc</title>
<ellipse fill="#ffffff" stroke="#000000" cx="131.17" cy="-237.41" rx="131.17" ry="30.05"/>
<text text-anchor="middle" x="131.17" y="-241.36" font-family="Times,serif" font-size="14.00">You pick the lock on the</text>
<text text-anchor="middle" x="131.17" y="-224.11" font-family="Times,serif" font-size="14.00">door.</text>
</g>
<!-- start&#45;&gt;look_at_p_proc -->
<g id="edge1" class="edge">
<title>start&#45;&gt;look_at_p_proc</title>
<path fill="none" stroke="#555555" stroke-dasharray="1,5" d="M804.11,-526.7C698.37,-522.1 316.58,-503.62 271.17,-474.82 199.42,-429.31 159.74,-332.68 142.23,-278.1"/>
<polygon fill="#555555" stroke="#555555" points="145.33,-277.28 139.03,-268.77 138.65,-279.36 145.33,-277.28"/>
</g>
<!-- use_p_proc -->
<g id="node3" class="node">
<title>use_p_proc</title>
<ellipse fill="#ffffff" stroke="#000000" cx="411.17" cy="-237.41" rx="131.17" ry="30.05"/>
<text text-anchor="middle" x="411.17" y="-241.36" font-family="Times,serif" font-size="14.00">You pick the lock on the</text>
<text text-anchor="middle" x="411.17" y="-224.11" font-family="Times,serif" font-size="14.00">door.</text>
</g>
<!-- start&#45;&gt;use_p_proc -->
<g id="edge2" class="edge">
<title>start&#45;&gt;use_p_proc</title>
<path fill="none" stroke="#555555" stroke-dasharray="1,5" d="M804.51,-525.57C742.76,-519.93 592.08,-503.51 551.17,-474.82 481.97,-426.29 441.49,-331.69 423.13,-278.04"/>
<polygon fill="#555555" stroke="#555555" points="426.23,-277.26 419.75,-268.88 419.59,-279.47 426.23,-277.26"/>
</g>
<!-- use_skill_on_p_proc -->
<g id="node4" class="node">
<title>use_skill_on_p_proc</title>
<ellipse fill="#ffffff" stroke="#000000" cx="691.17" cy="-237.41" rx="131.17" ry="152.03"/>
<text text-anchor="middle" x="691.17" y="-327.61" font-family="Times,serif" font-size="14.00">The door is locked. You</text>
<text text-anchor="middle" x="691.17" y="-310.36" font-family="Times,serif" font-size="14.00">have never seen a lock</text>
<text text-anchor="middle" x="691.17" y="-293.11" font-family="Times,serif" font-size="14.00">quite like this.</text>
<text text-anchor="middle" x="691.17" y="-275.86" font-family="Times,serif" font-size="14.00">&#45;&#45;&#45;</text>
<text text-anchor="middle" x="691.17" y="-258.61" font-family="Times,serif" font-size="14.00">You fail to pick the lock</text>
<text text-anchor="middle" x="691.17" y="-241.36" font-family="Times,serif" font-size="14.00">on the door.</text>
<text text-anchor="middle" x="691.17" y="-224.11" font-family="Times,serif" font-size="14.00">&#45;&#45;&#45;</text>
<text text-anchor="middle" x="691.17" y="-206.86" font-family="Times,serif" font-size="14.00">You pick the lock on the</text>
<text text-anchor="middle" x="691.17" y="-189.61" font-family="Times,serif" font-size="14.00">door.</text>
<text text-anchor="middle" x="691.17" y="-172.36" font-family="Times,serif" font-size="14.00">&#45;&#45;&#45;</text>
<text text-anchor="middle" x="691.17" y="-155.11" font-family="Times,serif" font-size="14.00">You fail to pick the lock</text>
<text text-anchor="middle" x="691.17" y="-137.86" font-family="Times,serif" font-size="14.00">on the door.</text>
</g>
<!-- start&#45;&gt;use_skill_on_p_proc -->
<g id="edge3" class="edge">
<title>start&#45;&gt;use_skill_on_p_proc</title>
<path fill="none" stroke="#555555" stroke-dasharray="1,5" d="M823.24,-511.43C810.72,-485.54 785.16,-432.72 759.84,-380.38"/>
<polygon fill="#555555" stroke="#555555" points="762.63,-379.1 755.12,-371.62 756.33,-382.14 762.63,-379.1"/>
</g>
<!-- use_obj_on_p_proc -->
<g id="node5" class="node">
<title>use_obj_on_p_proc</title>
<ellipse fill="#ffffff" stroke="#000000" cx="971.17" cy="-237.41" rx="131.17" ry="237.41"/>
<text text-anchor="middle" x="971.17" y="-387.99" font-family="Times,serif" font-size="14.00">The door is locked. You</text>
<text text-anchor="middle" x="971.17" y="-370.74" font-family="Times,serif" font-size="14.00">have never seen a lock</text>
<text text-anchor="middle" x="971.17" y="-353.49" font-family="Times,serif" font-size="14.00">quite like this.</text>
<text text-anchor="middle" x="971.17" y="-336.24" font-family="Times,serif" font-size="14.00">&#45;&#45;&#45;</text>
<text text-anchor="middle" x="971.17" y="-318.99" font-family="Times,serif" font-size="14.00">You fail to pick the lock</text>
<text text-anchor="middle" x="971.17" y="-301.74" font-family="Times,serif" font-size="14.00">on the door.</text>
<text text-anchor="middle" x="971.17" y="-284.49" font-family="Times,serif" font-size="14.00">&#45;&#45;&#45;</text>
<text text-anchor="middle" x="971.17" y="-267.24" font-family="Times,serif" font-size="14.00">You pick the lock on the</text>
<text text-anchor="middle" x="971.17" y="-249.99" font-family="Times,serif" font-size="14.00">door.</text>
<text text-anchor="middle" x="971.17" y="-232.74" font-family="Times,serif" font-size="14.00">&#45;&#45;&#45;</text>
<text text-anchor="middle" x="971.17" y="-215.49" font-family="Times,serif" font-size="14.00">The door is closed, but</text>
<text text-anchor="middle" x="971.17" y="-198.24" font-family="Times,serif" font-size="14.00">it is unlocked.</text>
<text text-anchor="middle" x="971.17" y="-180.99" font-family="Times,serif" font-size="14.00">&#45;&#45;&#45;</text>
<text text-anchor="middle" x="971.17" y="-163.74" font-family="Times,serif" font-size="14.00">You fail to pick the lock</text>
<text text-anchor="middle" x="971.17" y="-146.49" font-family="Times,serif" font-size="14.00">on the door.</text>
<text text-anchor="middle" x="971.17" y="-129.24" font-family="Times,serif" font-size="14.00">&#45;&#45;&#45;</text>
<text text-anchor="middle" x="971.17" y="-111.99" font-family="Times,serif" font-size="14.00">The door is locked. You</text>
<text text-anchor="middle" x="971.17" y="-94.74" font-family="Times,serif" font-size="14.00">have never seen a lock</text>
<text text-anchor="middle" x="971.17" y="-77.49" font-family="Times,serif" font-size="14.00">quite like this.</text>
</g>
<!-- start&#45;&gt;use_obj_on_p_proc -->
<g id="edge4" class="edge">
<title>start&#45;&gt;use_obj_on_p_proc</title>
<path fill="none" stroke="#555555" stroke-dasharray="1,5" d="M839.1,-511.43C847.91,-493.21 863.18,-461.65 880.27,-426.31"/>
<polygon fill="#555555" stroke="#555555" points="883.69,-428.28 884.9,-417.75 877.39,-425.23 883.69,-428.28"/>
</g>
<!-- damage_p_proc -->
<g id="node6" class="node">
<title>damage_p_proc</title>
<ellipse fill="#ffffff" stroke="#000000" cx="1147.17" cy="-237.41" rx="27" ry="18"/>
</g>
<!-- start&#45;&gt;damage_p_proc -->
<g id="edge5" class="edge">
<title>start&#45;&gt;damage_p_proc</title>
<path fill="none" stroke="#555555" stroke-dasharray="1,5" d="M858.19,-526.57C921.43,-523.05 1076.39,-510.87 1111.17,-474.82 1165.87,-418.11 1159.25,-315.56 1152.17,-266.3"/>
<polygon fill="#555555" stroke="#555555" points="1155.49,-265.87 1150.49,-256.53 1148.57,-266.95 1155.49,-265.87"/>
</g>
<!-- map_update_p_proc -->
<g id="node7" class="node">
<title>map_update_p_proc</title>
<ellipse fill="#ffffff" stroke="#000000" cx="1219.17" cy="-237.41" rx="27" ry="18"/>
</g>
<!-- start&#45;&gt;map_update_p_proc -->
<g id="edge6" class="edge">
<title>start&#45;&gt;map_update_p_proc</title>
<path fill="none" stroke="#555555" stroke-dasharray="1,5" d="M858.59,-527.72C933.25,-526.85 1137.63,-520.29 1183.17,-474.82 1238.93,-419.15 1231.8,-316.09 1224.38,-266.5"/>
<polygon fill="#555555" stroke="#555555" points="1227.68,-265.97 1222.62,-256.66 1220.77,-267.09 1227.68,-265.97"/>
</g>
</g>
</svg>
