<?xml version="1.0" encoding="UTF-8" standalone="no"?>
<!DOCTYPE svg PUBLIC "-//W3C//DTD SVG 1.1//EN"
 "http://www.w3.org/Graphics/SVG/1.1/DTD/svg11.dtd">
<!-- Generated by graphviz version 8.0.5 (0)
 -->
<!-- Title: FALCON1 Pages: 1 -->
<svg width="1482pt" height="1700pt"
 viewBox="0.00 0.00 1482.33 1699.96" xmlns="http://www.w3.org/2000/svg" xmlns:xlink="http://www.w3.org/1999/xlink">
<g id="graph0" class="graph" transform="scale(1 1) rotate(0) translate(4 1695.96)">
<title>FALCON1</title>
<polygon fill="white" stroke="none" points="-4,4 -4,-1695.96 1478.33,-1695.96 1478.33,4 -4,4"/>
<!-- start -->
<g id="node1" class="node">
<title>start</title>
<ellipse fill="#ffffff" stroke="#000000" cx="781.33" cy="-1673.96" rx="27" ry="18"/>
</g>
<!-- look_at_p_proc -->
<g id="node2" class="node">
<title>look_at_p_proc</title>
<ellipse fill="#ffffff" stroke="#000000" cx="534.33" cy="-1600.96" rx="129.6" ry="18"/>
<text text-anchor="middle" x="534.33" y="-1596.28" font-family="Times,serif" font-size="14.00">You see the Bar Tender.</text>
</g>
<!-- start&#45;&gt;look_at_p_proc -->
<g id="edge1" class="edge">
<title>start&#45;&gt;look_at_p_proc</title>
<path fill="none" stroke="#555555" stroke-dasharray="1,5" d="M756.75,-1665.89C720.33,-1655.42 650.8,-1635.44 599.13,-1620.58"/>
<polygon fill="#555555" stroke="#555555" points="600.3,-1616.99 589.73,-1617.59 598.37,-1623.72 600.3,-1616.99"/>
</g>
<!-- pickup_p_proc -->
<g id="node3" class="node">
<title>pickup_p_proc</title>
<ellipse fill="#ffffff" stroke="#000000" cx="709.33" cy="-1600.96" rx="27" ry="18"/>
</g>
<!-- start&#45;&gt;pickup_p_proc -->
<g id="edge2" class="edge">
<title>start&#45;&gt;pickup_p_proc</title>
<path fill="none" stroke="#555555" stroke-dasharray="1,5" d="M766.76,-1658.59C756.68,-1648.65 743.07,-1635.23 731.63,-1623.95"/>
<polygon fill="#555555" stroke="#555555" points="734.71,-1622.08 725.13,-1617.55 729.79,-1627.06 734.71,-1622.08"/>
</g>
<!-- talk_p_proc -->
<g id="node4" class="node">
<title>talk_p_proc</title>
<ellipse fill="#ffffff" stroke="#000000" cx="781.33" cy="-1600.96" rx="27" ry="18"/>
</g>
<!-- start&#45;&gt;talk_p_proc -->
<g id="edge3" class="edge">
<title>start&#45;&gt;talk_p_proc</title>
<path fill="none" stroke="#555555" stroke-dasharray="1,5" d="M781.33,-1655.77C781.33,-1648.01 781.33,-1638.64 781.33,-1629.91"/>
<polygon fill="#555555" stroke="#555555" points="784.83,-1629.99 781.33,-1619.99 777.83,-1629.99 784.83,-1629.99"/>
</g>
<!-- critter_p_proc -->
<g id="node5" class="node">
<title>critter_p_proc</title>
<ellipse fill="#ffffff" stroke="#000000" cx="853.33" cy="-1600.96" rx="27" ry="18"/>
</g>
<!-- start&#45;&gt;critter_p_proc -->
<g id="edge4" class="edge">
<title>start&#45;&gt;critter_p_proc</title>
<path fill="none" stroke="#555555" stroke-dasharray="1,5" d="M795.9,-1658.59C805.99,-1648.65 819.6,-1635.23 831.04,-1623.95"/>
<polygon fill="#555555" stroke="#555555" points="832.88,-1627.06 837.54,-1617.55 827.96,-1622.08 832.88,-1627.06"/>
</g>
<!-- destroy_p_proc -->
<g id="node6" class="node">
<title>destroy_p_proc</title>
<ellipse fill="#ffffff" stroke="#000000" cx="925.33" cy="-1600.96" rx="27" ry="18"/>
</g>
<!-- start&#45;&gt;destroy_p_proc -->
<g id="edge5" class="edge">
<title>start&#45;&gt;destroy_p_proc</title>
<path fill="none" stroke="#555555" stroke-dasharray="1,5" d="M802.58,-1662.48C826.83,-1650.53 866.7,-1630.87 894.4,-1617.21"/>
<polygon fill="#555555" stroke="#555555" points="895.58,-1620.04 903,-1612.48 892.48,-1613.76 895.58,-1620.04"/>
</g>
<!-- get_reaction -->
<g id="node8" class="node">
<title>get_reaction</title>
<ellipse fill="#ffffff" stroke="#000000" cx="852.33" cy="-1527.96" rx="27" ry="18"/>
</g>
<!-- talk_p_proc&#45;&gt;get_reaction -->
<g id="edge6" class="edge">
<title>talk_p_proc&#45;&gt;get_reaction</title>
<path fill="none" stroke="#555555" stroke-dasharray="1,5" d="M795.7,-1585.59C805.61,-1575.68 818.98,-1562.31 830.24,-1551.05"/>
<polygon fill="#555555" stroke="#555555" points="832.39,-1553.85 836.99,-1544.3 827.44,-1548.9 832.39,-1553.85"/>
</g>
<!-- Falcon00 -->
<g id="node9" class="node">
<title>Falcon00</title>
<ellipse fill="#ffffff" stroke="#000000" cx="676.33" cy="-1527.96" rx="128.02" ry="18"/>
<text text-anchor="middle" x="676.33" y="-1523.28" font-family="Times,serif" font-size="14.00">Yeah, whadda ya want?</text>
</g>
<!-- talk_p_proc&#45;&gt;Falcon00 -->
<g id="edge7" class="edge">
<title>talk_p_proc&#45;&gt;Falcon00</title>
<path fill="none" stroke="#555555" stroke-dasharray="1,5" d="M763.05,-1587.59C748.54,-1577.78 727.85,-1563.79 710.32,-1551.94"/>
<polygon fill="#555555" stroke="#555555" points="712.74,-1548.67 702.49,-1545.97 708.82,-1554.47 712.74,-1548.67"/>
</g>
<!-- combat -->
<g id="node7" class="node">
<title>combat</title>
<ellipse fill="#ffffff" stroke="#000000" cx="853.33" cy="-1673.96" rx="27" ry="18"/>
</g>
<!-- ReactToLevel -->
<g id="node26" class="node">
<title>ReactToLevel</title>
<ellipse fill="#ffffff" stroke="#000000" cx="998.33" cy="-1438.71" rx="27" ry="18"/>
</g>
<!-- get_reaction&#45;&gt;ReactToLevel -->
<g id="edge33" class="edge">
<title>get_reaction&#45;&gt;ReactToLevel</title>
<path fill="none" stroke="#555555" stroke-dasharray="1,5" d="M872.02,-1515.32C883.49,-1508.52 898.24,-1499.77 911.33,-1491.96 930.68,-1480.41 952.41,-1467.36 969.32,-1457.19"/>
<polygon fill="#555555" stroke="#555555" points="970.89,-1459.72 977.66,-1451.57 967.29,-1453.72 970.89,-1459.72"/>
</g>
<!-- Falcon05 -->
<g id="node10" class="node">
<title>Falcon05</title>
<ellipse fill="#ffffff" stroke="#000000" cx="615.33" cy="-1438.71" rx="108.55" ry="18"/>
<text text-anchor="middle" x="615.33" y="-1434.03" font-family="Times,serif" font-size="14.00">That&#39;ll be two caps.</text>
</g>
<!-- Falcon00&#45;&gt;Falcon05 -->
<g id="edge8" class="edge">
<title>Falcon00&#45;&gt;Falcon05</title>
<path fill="none" stroke="#995a00" d="M664.28,-1509.72C655.51,-1497.17 643.48,-1479.96 633.54,-1465.74"/>
<polygon fill="#995a00" stroke="#995a00" points="635.96,-1464.1 627.36,-1457.91 630.22,-1468.11 635.96,-1464.1"/>
<text text-anchor="middle" x="673.83" y="-1478.66" font-family="Times,serif" font-size="14.00" fill="#995a00">Water.</text>
</g>
<!-- Falcon06 -->
<g id="node11" class="node">
<title>Falcon06</title>
<ellipse fill="#ffffff" stroke="#000000" cx="1032.33" cy="-569.85" rx="108.55" ry="18"/>
<text text-anchor="middle" x="1032.33" y="-565.17" font-family="Times,serif" font-size="14.00">That&#39;ll be five caps.</text>
</g>
<!-- Falcon00&#45;&gt;Falcon06 -->
<g id="edge9" class="edge">
<title>Falcon00&#45;&gt;Falcon06</title>
<path fill="none" stroke="#2d0099" d="M749.99,-1512.81C815.28,-1498.1 900.33,-1472.63 900.33,-1439.71 900.33,-1439.71 900.33,-1439.71 900.33,-706.74 900.33,-654.89 950.39,-615.37 988.85,-592.65"/>
<polygon fill="#2d0099" stroke="#2d0099" points="990.39,-595.23 997.34,-587.24 986.92,-589.15 990.39,-595.23"/>
<text text-anchor="middle" x="918.71" y="-1300.16" font-family="Times,serif" font-size="14.00" fill="#2d0099">Beer.</text>
</g>
<!-- Falcon07 -->
<g id="node12" class="node">
<title>Falcon07</title>
<ellipse fill="#ffffff" stroke="#000000" cx="473.33" cy="-569.85" rx="106.45" ry="18"/>
<text text-anchor="middle" x="473.33" y="-565.17" font-family="Times,serif" font-size="14.00">That&#39;ll be ten caps.</text>
</g>
<!-- Falcon00&#45;&gt;Falcon07 -->
<g id="edge10" class="edge">
<title>Falcon00&#45;&gt;Falcon07</title>
<path fill="none" stroke="#009901" d="M548.5,-1526.25C417.64,-1521.96 233.33,-1504.43 233.33,-1439.71 233.33,-1439.71 233.33,-1439.71 233.33,-706.74 233.33,-706.74 366.41,-631.39 434.37,-592.91"/>
<polygon fill="#009901" stroke="#009901" points="435.93,-595.48 442.91,-587.51 432.48,-589.39 435.93,-595.48"/>
<text text-anchor="middle" x="258.08" y="-1300.16" font-family="Times,serif" font-size="14.00" fill="#009901">Liquor.</text>
</g>
<!-- Falcon04 -->
<g id="node13" class="node">
<title>Falcon04</title>
<ellipse fill="#ffffff" stroke="#000000" cx="789.33" cy="-569.85" rx="116.45" ry="18"/>
<text text-anchor="middle" x="789.33" y="-565.17" font-family="Times,serif" font-size="14.00">Yeah . . . well beat it.</text>
</g>
<!-- Falcon00&#45;&gt;Falcon04 -->
<g id="edge11" class="edge">
<title>Falcon00&#45;&gt;Falcon04</title>
<path fill="none" stroke="#99002c" d="M741.76,-1512.13C777.82,-1499.67 815.33,-1477.6 815.33,-1439.71 815.33,-1439.71 815.33,-1439.71 815.33,-706.74 815.33,-668.74 805.41,-625.81 797.82,-598.55"/>
<polygon fill="#99002c" stroke="#99002c" points="800.98,-597.87 794.85,-589.23 794.25,-599.81 800.98,-597.87"/>
<text text-anchor="middle" x="846.46" y="-1300.16" font-family="Times,serif" font-size="14.00" fill="#99002c">Nothing.</text>
</g>
<!-- Falcon03 -->
<g id="node14" class="node">
<title>Falcon03</title>
<ellipse fill="#ffffff" stroke="#000000" cx="247.33" cy="-569.85" rx="101.47" ry="66.64"/>
<text text-anchor="middle" x="247.33" y="-599.67" font-family="Times,serif" font-size="14.00">I think you&#39;ve had</text>
<text text-anchor="middle" x="247.33" y="-582.42" font-family="Times,serif" font-size="14.00">enough, buddy.</text>
<text text-anchor="middle" x="247.33" y="-565.17" font-family="Times,serif" font-size="14.00">&#45;&#45;&#45;</text>
<text text-anchor="middle" x="247.33" y="-547.92" font-family="Times,serif" font-size="14.00">I think you&#39;ve had</text>
<text text-anchor="middle" x="247.33" y="-530.67" font-family="Times,serif" font-size="14.00">enough, lady.</text>
</g>
<!-- Falcon00&#45;&gt;Falcon03 -->
<g id="edge12" class="edge">
<title>Falcon00&#45;&gt;Falcon03</title>
<path fill="none" stroke="#005899" d="M553.77,-1522.43C449.27,-1517.54 307.61,-1508.18 253.33,-1491.96 206.79,-1478.04 157.33,-1488.28 157.33,-1439.71 157.33,-1439.71 157.33,-1439.71 157.33,-706.74 157.33,-680.5 169.14,-655.44 184.2,-634.15"/>
<polygon fill="#005899" stroke="#005899" points="187.43,-636.68 190.59,-626.57 181.81,-632.5 187.43,-636.68"/>
<text text-anchor="middle" x="174.58" y="-1300.16" font-family="Times,serif" font-size="14.00" fill="#005899">Tuh?</text>
</g>
<!-- Falcon05a -->
<g id="node17" class="node">
<title>Falcon05a</title>
<ellipse fill="#ffffff" stroke="#000000" cx="428.33" cy="-1349.46" rx="27" ry="18"/>
</g>
<!-- Falcon05&#45;&gt;Falcon05a -->
<g id="edge13" class="edge">
<title>Falcon05&#45;&gt;Falcon05a</title>
<path fill="none" stroke="#859900" d="M576.21,-1421.63C562.49,-1415.84 547.03,-1409.15 533.08,-1402.71 507.71,-1390.99 479.38,-1376.79 458.58,-1366.15"/>
<polygon fill="#859900" stroke="#859900" points="460.52,-1362.7 450.02,-1361.24 457.32,-1368.92 460.52,-1362.7"/>
<text text-anchor="middle" x="552.46" y="-1389.41" font-family="Times,serif" font-size="14.00" fill="#859900">Okay.</text>
</g>
<!-- Falcon11 -->
<g id="node18" class="node">
<title>Falcon11</title>
<ellipse fill="#ffffff" stroke="#000000" cx="771.33" cy="-310.12" rx="136.47" ry="139.83"/>
<text text-anchor="middle" x="771.33" y="-391.69" font-family="Times,serif" font-size="14.00">Didn&#39;t think you looked</text>
<text text-anchor="middle" x="771.33" y="-374.44" font-family="Times,serif" font-size="14.00">like someone that could</text>
<text text-anchor="middle" x="771.33" y="-357.19" font-family="Times,serif" font-size="14.00">hold their</text>
<text text-anchor="middle" x="771.33" y="-339.94" font-family="Times,serif" font-size="14.00">&#45;&#45;&#45;</text>
<text text-anchor="middle" x="771.33" y="-322.69" font-family="Times,serif" font-size="14.00"> liquor.</text>
<text text-anchor="middle" x="771.33" y="-305.44" font-family="Times,serif" font-size="14.00">&#45;&#45;&#45;</text>
<text text-anchor="middle" x="771.33" y="-288.19" font-family="Times,serif" font-size="14.00">That&#39;s a shame. We were</text>
<text text-anchor="middle" x="771.33" y="-270.94" font-family="Times,serif" font-size="14.00">all looking forward to</text>
<text text-anchor="middle" x="771.33" y="-253.69" font-family="Times,serif" font-size="14.00">seeing you</text>
<text text-anchor="middle" x="771.33" y="-236.44" font-family="Times,serif" font-size="14.00">&#45;&#45;&#45;</text>
<text text-anchor="middle" x="771.33" y="-219.19" font-family="Times,serif" font-size="14.00"> &#39;perform&#39; again.</text>
</g>
<!-- Falcon05&#45;&gt;Falcon11 -->
<g id="edge14" class="edge">
<title>Falcon05&#45;&gt;Falcon11</title>
<path fill="none" stroke="#800099" d="M624.99,-1420.59C633.76,-1403.42 645.33,-1375.93 645.33,-1350.46 645.33,-1350.46 645.33,-1350.46 645.33,-568.85 645.33,-521.37 662.81,-473.51 684.74,-432.15"/>
<polygon fill="#800099" stroke="#800099" points="688.22,-434.06 689.93,-423.6 682.08,-430.71 688.22,-434.06"/>
<text text-anchor="middle" x="686.21" y="-747.69" font-family="Times,serif" font-size="14.00" fill="#800099">No, thanks.</text>
</g>
<!-- Falcon06&#45;&gt;Falcon11 -->
<g id="edge18" class="edge">
<title>Falcon06&#45;&gt;Falcon11</title>
<path fill="none" stroke="#992700" d="M1005.15,-551.99C980.72,-536.22 944.51,-511.24 916.58,-485.2 897.99,-467.86 879.53,-448.18 862.32,-428.46"/>
<polygon fill="#992700" stroke="#992700" points="864.47,-426.59 855.28,-421.31 859.17,-431.16 864.47,-426.59"/>
<text text-anchor="middle" x="958.21" y="-471.9" font-family="Times,serif" font-size="14.00" fill="#992700">No, thanks.</text>
</g>
<!-- Falcon06a -->
<g id="node20" class="node">
<title>Falcon06a</title>
<ellipse fill="#ffffff" stroke="#000000" cx="952.33" cy="-310.12" rx="27" ry="18"/>
</g>
<!-- Falcon06&#45;&gt;Falcon06a -->
<g id="edge17" class="edge">
<title>Falcon06&#45;&gt;Falcon06a</title>
<path fill="none" stroke="#009954" d="M1026.96,-551.53C1013.32,-507.6 977.28,-391.48 960.79,-338.35"/>
<polygon fill="#009954" stroke="#009954" points="963.89,-337.53 957.58,-329.02 957.2,-339.61 963.89,-337.53"/>
<text text-anchor="middle" x="1023.46" y="-471.9" font-family="Times,serif" font-size="14.00" fill="#009954">Sure.</text>
</g>
<!-- Falcon07&#45;&gt;Falcon11 -->
<g id="edge22" class="edge">
<title>Falcon07&#45;&gt;Falcon11</title>
<path fill="none" stroke="#329900" d="M484.05,-551.5C497.66,-530.32 522.62,-494.08 549.58,-467.95 578.57,-439.86 612.97,-413.02 645.92,-389.74"/>
<polygon fill="#329900" stroke="#329900" points="647.52,-392.19 653.71,-383.58 643.51,-386.45 647.52,-392.19"/>
<text text-anchor="middle" x="591.21" y="-471.9" font-family="Times,serif" font-size="14.00" fill="#329900">No, thanks.</text>
</g>
<!-- Falcon07a -->
<g id="node22" class="node">
<title>Falcon07a</title>
<ellipse fill="#ffffff" stroke="#000000" cx="415.33" cy="-310.12" rx="27" ry="18"/>
</g>
<!-- Falcon07&#45;&gt;Falcon07a -->
<g id="edge21" class="edge">
<title>Falcon07&#45;&gt;Falcon07a</title>
<path fill="none" stroke="#000699" d="M465.98,-551.52C459.15,-534.82 449.14,-508.68 443.08,-485.2 429.96,-434.35 421.96,-373.45 418.12,-338.83"/>
<polygon fill="#000699" stroke="#000699" points="421.52,-338.71 416.97,-329.14 414.56,-339.46 421.52,-338.71"/>
<text text-anchor="middle" x="462.46" y="-471.9" font-family="Times,serif" font-size="14.00" fill="#000699">Sure.</text>
</g>
<!-- Falcon01 -->
<g id="node15" class="node">
<title>Falcon01</title>
<ellipse fill="#ffffff" stroke="#000000" cx="415.33" cy="-66.64" rx="122.15" ry="30.05"/>
<text text-anchor="middle" x="415.33" y="-70.59" font-family="Times,serif" font-size="14.00">If ya&#39; don&#39;t have the</text>
<text text-anchor="middle" x="415.33" y="-53.34" font-family="Times,serif" font-size="14.00">caps, get the hell out!</text>
</g>
<!-- Falcon02 -->
<g id="node16" class="node">
<title>Falcon02</title>
<ellipse fill="#ffffff" stroke="#000000" cx="970.33" cy="-1673.96" rx="72.25" ry="18"/>
<text text-anchor="middle" x="970.33" y="-1669.28" font-family="Times,serif" font-size="14.00">Suit yerself.</text>
</g>
<!-- Falcon05a&#45;&gt;Falcon01 -->
<g id="edge16" class="edge">
<title>Falcon05a&#45;&gt;Falcon01</title>
<path fill="none" stroke="#555555" stroke-dasharray="1,5" d="M403.02,-1342.54C371.71,-1333.87 319.02,-1314.64 290.33,-1278.21 149.24,-1099 224.25,-1000.86 171.33,-778.99 156.23,-715.66 144.94,-701.16 137.33,-636.49 130.41,-577.66 120.73,-560.07 137.33,-503.2 185.65,-337.7 318.1,-175.22 381.13,-104.49"/>
<polygon fill="#555555" stroke="#555555" points="383.39,-107.11 387.46,-97.33 378.18,-102.43 383.39,-107.11"/>
</g>
<!-- Falcon09 -->
<g id="node19" class="node">
<title>Falcon09</title>
<ellipse fill="#ffffff" stroke="#000000" cx="428.33" cy="-1028.6" rx="129.05" ry="249.61"/>
<text text-anchor="middle" x="428.33" y="-1187.8" font-family="Times,serif" font-size="14.00">Here. (The bartender</text>
<text text-anchor="middle" x="428.33" y="-1170.55" font-family="Times,serif" font-size="14.00">slides you another cup</text>
<text text-anchor="middle" x="428.33" y="-1153.3" font-family="Times,serif" font-size="14.00">full of the same</text>
<text text-anchor="middle" x="428.33" y="-1136.05" font-family="Times,serif" font-size="14.00">&#45;&#45;&#45;</text>
<text text-anchor="middle" x="428.33" y="-1118.8" font-family="Times,serif" font-size="14.00">murky water, and after</text>
<text text-anchor="middle" x="428.33" y="-1101.55" font-family="Times,serif" font-size="14.00">you drink it, you&#39;re</text>
<text text-anchor="middle" x="428.33" y="-1084.3" font-family="Times,serif" font-size="14.00">reminded as to</text>
<text text-anchor="middle" x="428.33" y="-1067.05" font-family="Times,serif" font-size="14.00">&#45;&#45;&#45;</text>
<text text-anchor="middle" x="428.33" y="-1049.8" font-family="Times,serif" font-size="14.00">how strange it tasted</text>
<text text-anchor="middle" x="428.33" y="-1032.55" font-family="Times,serif" font-size="14.00">the last time . . .</text>
<text text-anchor="middle" x="428.33" y="-1015.3" font-family="Times,serif" font-size="14.00">&#45;&#45;&#45;</text>
<text text-anchor="middle" x="428.33" y="-998.05" font-family="Times,serif" font-size="14.00">Here. (The bartender</text>
<text text-anchor="middle" x="428.33" y="-980.8" font-family="Times,serif" font-size="14.00">slides you a dirty tin</text>
<text text-anchor="middle" x="428.33" y="-963.55" font-family="Times,serif" font-size="14.00">cup full of some</text>
<text text-anchor="middle" x="428.33" y="-946.3" font-family="Times,serif" font-size="14.00">&#45;&#45;&#45;</text>
<text text-anchor="middle" x="428.33" y="-929.05" font-family="Times,serif" font-size="14.00">murky water. After</text>
<text text-anchor="middle" x="428.33" y="-911.8" font-family="Times,serif" font-size="14.00">drinking the water, you</text>
<text text-anchor="middle" x="428.33" y="-894.55" font-family="Times,serif" font-size="14.00">have a strange</text>
<text text-anchor="middle" x="428.33" y="-877.3" font-family="Times,serif" font-size="14.00">&#45;&#45;&#45;</text>
<text text-anchor="middle" x="428.33" y="-860.05" font-family="Times,serif" font-size="14.00"> taste in your mouth.</text>
</g>
<!-- Falcon05a&#45;&gt;Falcon09 -->
<g id="edge15" class="edge">
<title>Falcon05a&#45;&gt;Falcon09</title>
<path fill="none" stroke="#555555" stroke-dasharray="1,5" d="M428.33,-1331.31C428.33,-1320.98 428.33,-1306.52 428.33,-1289.47"/>
<polygon fill="#555555" stroke="#555555" points="431.83,-1289.54 428.33,-1279.54 424.83,-1289.54 431.83,-1289.54"/>
</g>
<!-- Falcon15 -->
<g id="node24" class="node">
<title>Falcon15</title>
<ellipse fill="#ffffff" stroke="#000000" cx="557.33" cy="-707.74" rx="27" ry="18"/>
</g>
<!-- Falcon09&#45;&gt;Falcon15 -->
<g id="edge25" class="edge">
<title>Falcon09&#45;&gt;Falcon15</title>
<path fill="none" stroke="#555555" stroke-dasharray="1,5" d="M507.64,-831.56C523.02,-793.56 537.2,-758.5 546.45,-735.65"/>
<polygon fill="#555555" stroke="#555555" points="550.07,-737.03 550.57,-726.45 543.58,-734.41 550.07,-737.03"/>
</g>
<!-- Falcon06a&#45;&gt;Falcon01 -->
<g id="edge19" class="edge">
<title>Falcon06a&#45;&gt;Falcon01</title>
<path fill="none" stroke="#555555" stroke-dasharray="1,5" d="M953.56,-291.87C954.63,-262.02 952.02,-200.97 916.33,-170.29 855.86,-118.29 636.3,-154.22 559.33,-133.29 529.95,-125.3 499.01,-111.92 473.38,-99.32"/>
<polygon fill="#555555" stroke="#555555" points="475.34,-95.89 464.83,-94.54 472.21,-102.15 475.34,-95.89"/>
</g>
<!-- Falcon14 -->
<g id="node21" class="node">
<title>Falcon14</title>
<ellipse fill="#ffffff" stroke="#000000" cx="693.33" cy="-66.64" rx="125.33" ry="66.64"/>
<text text-anchor="middle" x="693.33" y="-96.47" font-family="Times,serif" font-size="14.00">Here you are. (The</text>
<text text-anchor="middle" x="693.33" y="-79.22" font-family="Times,serif" font-size="14.00">bartender hands you a</text>
<text text-anchor="middle" x="693.33" y="-61.97" font-family="Times,serif" font-size="14.00">beer bottle.) Anything</text>
<text text-anchor="middle" x="693.33" y="-44.72" font-family="Times,serif" font-size="14.00">&#45;&#45;&#45;</text>
<text text-anchor="middle" x="693.33" y="-27.47" font-family="Times,serif" font-size="14.00"> else?</text>
</g>
<!-- Falcon06a&#45;&gt;Falcon14 -->
<g id="edge20" class="edge">
<title>Falcon06a&#45;&gt;Falcon14</title>
<path fill="none" stroke="#555555" stroke-dasharray="1,5" d="M952.4,-291.62C951.59,-263 946.05,-205.81 916.33,-170.29 890.1,-138.93 852.22,-116.66 815.1,-101.07"/>
<polygon fill="#555555" stroke="#555555" points="816.76,-97.56 806.17,-97.05 814.13,-104.05 816.76,-97.56"/>
</g>
<!-- Falcon14&#45;&gt;Falcon15 -->
<g id="edge26" class="edge">
<title>Falcon14&#45;&gt;Falcon15</title>
<path fill="none" stroke="#555555" stroke-dasharray="1,5" d="M646.37,-128.84C638.4,-141.91 631.15,-156.08 626.33,-170.29 554.55,-381.95 675.42,-465.9 588.33,-671.74 586.4,-676.32 583.61,-680.71 580.49,-684.75"/>
<polygon fill="#555555" stroke="#555555" points="577.28,-682.1 573.34,-691.93 582.55,-686.71 577.28,-682.1"/>
</g>
<!-- Falcon07a&#45;&gt;Falcon01 -->
<g id="edge23" class="edge">
<title>Falcon07a&#45;&gt;Falcon01</title>
<path fill="none" stroke="#555555" stroke-dasharray="1,5" d="M415.33,-291.75C415.33,-253.49 415.33,-161.08 415.33,-107.64"/>
<polygon fill="#555555" stroke="#555555" points="418.83,-107.86 415.33,-97.86 411.83,-107.86 418.83,-107.86"/>
</g>
<!-- Falcon16 -->
<g id="node23" class="node">
<title>Falcon16</title>
<ellipse fill="#ffffff" stroke="#000000" cx="125.33" cy="-66.64" rx="125.33" ry="66.64"/>
<text text-anchor="middle" x="125.33" y="-96.47" font-family="Times,serif" font-size="14.00">Here you are. (The</text>
<text text-anchor="middle" x="125.33" y="-79.22" font-family="Times,serif" font-size="14.00">bartender hands you a</text>
<text text-anchor="middle" x="125.33" y="-61.97" font-family="Times,serif" font-size="14.00">liquor bottle.)</text>
<text text-anchor="middle" x="125.33" y="-44.72" font-family="Times,serif" font-size="14.00">&#45;&#45;&#45;</text>
<text text-anchor="middle" x="125.33" y="-27.47" font-family="Times,serif" font-size="14.00"> Anything else?</text>
</g>
<!-- Falcon07a&#45;&gt;Falcon16 -->
<g id="edge24" class="edge">
<title>Falcon07a&#45;&gt;Falcon16</title>
<path fill="none" stroke="#555555" stroke-dasharray="1,5" d="M398.91,-295.45C361.43,-264.24 267.65,-186.14 200.34,-130.1"/>
<polygon fill="#555555" stroke="#555555" points="203.19,-127.08 193.26,-123.37 198.71,-132.46 203.19,-127.08"/>
</g>
<!-- Falcon16&#45;&gt;Falcon15 -->
<g id="edge32" class="edge">
<title>Falcon16&#45;&gt;Falcon15</title>
<path fill="none" stroke="#555555" stroke-dasharray="1,5" d="M103.11,-132.35C67.7,-248.66 14.24,-494.16 137.33,-636.49 186.78,-693.66 425.18,-704.32 519.15,-706.3"/>
<polygon fill="#555555" stroke="#555555" points="519.06,-709.81 529.13,-706.5 519.19,-702.81 519.06,-709.81"/>
</g>
<!-- Falcon15&#45;&gt;Falcon05 -->
<g id="edge27" class="edge">
<title>Falcon15&#45;&gt;Falcon05</title>
<path fill="none" stroke="#99005f" d="M559.99,-726.02C562.06,-740.21 564.84,-760.85 566.33,-778.99 585.9,-1015.89 554.73,-1077.86 586.33,-1313.46 590.86,-1347.16 600.38,-1385.11 607.28,-1410.11"/>
<polygon fill="#99005f" stroke="#99005f" points="604.16,-1410.94 610.24,-1419.61 610.9,-1409.04 604.16,-1410.94"/>
<text text-anchor="middle" x="608.83" y="-1300.16" font-family="Times,serif" font-size="14.00" fill="#99005f">Water.</text>
</g>
<!-- Falcon15&#45;&gt;Falcon06 -->
<g id="edge28" class="edge">
<title>Falcon15&#45;&gt;Falcon06</title>
<path fill="none" stroke="#008c99" d="M583.52,-702.68C655.05,-691.41 852.57,-659.1 914.33,-636.49 944.19,-625.56 975.53,-607.78 998.4,-593.49"/>
<polygon fill="#008c99" stroke="#008c99" points="1000.1,-595.92 1006.66,-587.6 996.34,-590.01 1000.1,-595.92"/>
<text text-anchor="middle" x="858.71" y="-658.44" font-family="Times,serif" font-size="14.00" fill="#008c99">Beer.</text>
</g>
<!-- Falcon15&#45;&gt;Falcon07 -->
<g id="edge29" class="edge">
<title>Falcon15&#45;&gt;Falcon07</title>
<path fill="none" stroke="#997a00" d="M547.37,-690.62C533.14,-667.6 506.84,-625.04 489.72,-597.35"/>
<polygon fill="#997a00" stroke="#997a00" points="492.32,-595.9 484.08,-589.23 486.36,-599.58 492.32,-595.9"/>
<text text-anchor="middle" x="560.08" y="-658.44" font-family="Times,serif" font-size="14.00" fill="#997a00">Liquor.</text>
</g>
<!-- Falcon15&#45;&gt;Falcon04 -->
<g id="edge30" class="edge">
<title>Falcon15&#45;&gt;Falcon04</title>
<path fill="none" stroke="#4d0099" d="M577.92,-695.76C590.52,-688.96 606.94,-679.99 621.33,-671.74 667.06,-645.52 718.98,-614.08 752.84,-593.34"/>
<polygon fill="#4d0099" stroke="#4d0099" points="754.19,-596 760.89,-587.79 750.54,-590.04 754.19,-596"/>
<text text-anchor="middle" x="680.46" y="-658.44" font-family="Times,serif" font-size="14.00" fill="#4d0099">Nothing.</text>
</g>
<!-- Falcon15&#45;&gt;Falcon03 -->
<g id="edge31" class="edge">
<title>Falcon15&#45;&gt;Falcon03</title>
<path fill="none" stroke="#009920" d="M532.84,-699.78C494.67,-688.56 419.09,-664.85 358.33,-636.49 348.9,-632.09 339.23,-627.12 329.72,-621.93"/>
<polygon fill="#009920" stroke="#009920" points="331.73,-618.49 321.29,-616.69 328.33,-624.6 331.73,-618.49"/>
<text text-anchor="middle" x="461.58" y="-658.44" font-family="Times,serif" font-size="14.00" fill="#009920">Tuh?</text>
</g>
<!-- FalconEnd -->
<g id="node25" class="node">
<title>FalconEnd</title>
<ellipse fill="#ffffff" stroke="#000000" cx="1087.33" cy="-1673.96" rx="27" ry="18"/>
</g>
<!-- LevelToReact -->
<g id="node27" class="node">
<title>LevelToReact</title>
<ellipse fill="#ffffff" stroke="#000000" cx="1195.33" cy="-1600.96" rx="27" ry="18"/>
</g>
<!-- UpReact -->
<g id="node28" class="node">
<title>UpReact</title>
<ellipse fill="#ffffff" stroke="#000000" cx="926.33" cy="-1527.96" rx="27" ry="18"/>
</g>
<!-- UpReact&#45;&gt;ReactToLevel -->
<g id="edge34" class="edge">
<title>UpReact&#45;&gt;ReactToLevel</title>
<path fill="none" stroke="#555555" stroke-dasharray="1,5" d="M938.88,-1511.76C949.96,-1498.33 966.29,-1478.53 979.04,-1463.09"/>
<polygon fill="#555555" stroke="#555555" points="982.03,-1465.96 985.7,-1456.02 976.63,-1461.51 982.03,-1465.96"/>
</g>
<!-- DownReact -->
<g id="node29" class="node">
<title>DownReact</title>
<ellipse fill="#ffffff" stroke="#000000" cx="998.33" cy="-1527.96" rx="27" ry="18"/>
</g>
<!-- DownReact&#45;&gt;ReactToLevel -->
<g id="edge35" class="edge">
<title>DownReact&#45;&gt;ReactToLevel</title>
<path fill="none" stroke="#555555" stroke-dasharray="1,5" d="M998.33,-1509.72C998.33,-1497.77 998.33,-1481.59 998.33,-1467.79"/>
<polygon fill="#555555" stroke="#555555" points="1001.83,-1467.91 998.33,-1457.91 994.83,-1467.91 1001.83,-1467.91"/>
</g>
<!-- BottomReact -->
<g id="node30" class="node">
<title>BottomReact</title>
<ellipse fill="#ffffff" stroke="#000000" cx="1303.33" cy="-1673.96" rx="27" ry="18"/>
</g>
<!-- TopReact -->
<g id="node31" class="node">
<title>TopReact</title>
<ellipse fill="#ffffff" stroke="#000000" cx="1375.33" cy="-1673.96" rx="27" ry="18"/>
</g>
<!-- BigUpReact -->
<g id="node32" class="node">
<title>BigUpReact</title>
<ellipse fill="#ffffff" stroke="#000000" cx="1070.33" cy="-1527.96" rx="27" ry="18"/>
</g>
<!-- BigUpReact&#45;&gt;ReactToLevel -->
<g id="edge36" class="edge">
<title>BigUpReact&#45;&gt;ReactToLevel</title>
<path fill="none" stroke="#555555" stroke-dasharray="1,5" d="M1057.79,-1511.76C1046.71,-1498.33 1030.38,-1478.53 1017.63,-1463.09"/>
<polygon fill="#555555" stroke="#555555" points="1020.04,-1461.51 1010.97,-1456.02 1014.64,-1465.96 1020.04,-1461.51"/>
</g>
<!-- BigDownReact -->
<g id="node33" class="node">
<title>BigDownReact</title>
<ellipse fill="#ffffff" stroke="#000000" cx="1142.33" cy="-1527.96" rx="27" ry="18"/>
</g>
<!-- BigDownReact&#45;&gt;ReactToLevel -->
<g id="edge37" class="edge">
<title>BigDownReact&#45;&gt;ReactToLevel</title>
<path fill="none" stroke="#555555" stroke-dasharray="1,5" d="M1122.91,-1515.19C1098.22,-1500.23 1055.39,-1474.28 1026.95,-1457.05"/>
<polygon fill="#555555" stroke="#555555" points="1029.27,-1453.76 1018.91,-1451.57 1025.65,-1459.74 1029.27,-1453.76"/>
</g>
<!-- UpReactLevel -->
<g id="node34" class="node">
<title>UpReactLevel</title>
<ellipse fill="#ffffff" stroke="#000000" cx="1159.33" cy="-1673.96" rx="27" ry="18"/>
</g>
<!-- UpReactLevel&#45;&gt;LevelToReact -->
<g id="edge38" class="edge">
<title>UpReactLevel&#45;&gt;LevelToReact</title>
<path fill="none" stroke="#555555" stroke-dasharray="1,5" d="M1167.68,-1656.49C1171.96,-1648.07 1177.26,-1637.61 1182.07,-1628.12"/>
<polygon fill="#555555" stroke="#555555" points="1185.63,-1629.84 1187.03,-1619.34 1179.39,-1626.67 1185.63,-1629.84"/>
</g>
<!-- DownReactLevel -->
<g id="node35" class="node">
<title>DownReactLevel</title>
<ellipse fill="#ffffff" stroke="#000000" cx="1231.33" cy="-1673.96" rx="27" ry="18"/>
</g>
<!-- DownReactLevel&#45;&gt;LevelToReact -->
<g id="edge39" class="edge">
<title>DownReactLevel&#45;&gt;LevelToReact</title>
<path fill="none" stroke="#555555" stroke-dasharray="1,5" d="M1222.99,-1656.49C1218.71,-1648.07 1213.41,-1637.61 1208.6,-1628.12"/>
<polygon fill="#555555" stroke="#555555" points="1211.28,-1626.67 1203.64,-1619.34 1205.04,-1629.84 1211.28,-1626.67"/>
</g>
<!-- Goodbyes -->
<g id="node36" class="node">
<title>Goodbyes</title>
<ellipse fill="#ffffff" stroke="#000000" cx="1447.33" cy="-1673.96" rx="27" ry="18"/>
</g>
</g>
</svg>
