<?xml version="1.0" encoding="UTF-8" standalone="no"?>
<!DOCTYPE svg PUBLIC "-//W3C//DTD SVG 1.1//EN"
 "http://www.w3.org/Graphics/SVG/1.1/DTD/svg11.dtd">
<!-- Generated by graphviz version 8.0.5 (0)
 -->
<!-- Title: FEMFARMR Pages: 1 -->
<svg width="951pt" height="748pt"
 viewBox="0.00 0.00 951.00 747.61" xmlns="http://www.w3.org/2000/svg" xmlns:xlink="http://www.w3.org/1999/xlink">
<g id="graph0" class="graph" transform="scale(1 1) rotate(0) translate(4 743.61)">
<title>FEMFARMR</title>
<polygon fill="white" stroke="none" points="-4,4 -4,-743.61 947,-743.61 947,4 -4,4"/>
<!-- start -->
<g id="node1" class="node">
<title>start</title>
<ellipse fill="#ffffff" stroke="#000000" cx="381" cy="-721.61" rx="27" ry="18"/>
</g>
<!-- look_at_p_proc -->
<g id="node2" class="node">
<title>look_at_p_proc</title>
<ellipse fill="#ffffff" stroke="#000000" cx="128" cy="-649.61" rx="97.51" ry="18"/>
<text text-anchor="middle" x="128" y="-644.94" font-family="Times,serif" font-size="14.00">You see a farmer.</text>
</g>
<!-- start&#45;&gt;look_at_p_proc -->
<g id="edge1" class="edge">
<title>start&#45;&gt;look_at_p_proc</title>
<path fill="none" stroke="#555555" stroke-dasharray="1,5" d="M356.28,-713.77C318.28,-703.26 244.31,-682.79 190.85,-668"/>
<polygon fill="#555555" stroke="#555555" points="192.01,-664.42 181.44,-665.12 190.15,-671.16 192.01,-664.42"/>
</g>
<!-- pickup_p_proc -->
<g id="node3" class="node">
<title>pickup_p_proc</title>
<ellipse fill="#ffffff" stroke="#000000" cx="271" cy="-649.61" rx="27" ry="18"/>
</g>
<!-- start&#45;&gt;pickup_p_proc -->
<g id="edge2" class="edge">
<title>start&#45;&gt;pickup_p_proc</title>
<path fill="none" stroke="#555555" stroke-dasharray="1,5" d="M361.84,-708.42C344.49,-697.38 318.71,-680.97 299.04,-668.46"/>
<polygon fill="#555555" stroke="#555555" points="301.26,-665.08 290.94,-662.67 297.5,-670.99 301.26,-665.08"/>
</g>
<!-- talk_p_proc -->
<g id="node4" class="node">
<title>talk_p_proc</title>
<ellipse fill="#ffffff" stroke="#000000" cx="343" cy="-649.61" rx="27" ry="18"/>
</g>
<!-- start&#45;&gt;talk_p_proc -->
<g id="edge3" class="edge">
<title>start&#45;&gt;talk_p_proc</title>
<path fill="none" stroke="#555555" stroke-dasharray="1,5" d="M372.19,-704.38C367.68,-696.07 362.08,-685.77 357,-676.41"/>
<polygon fill="#555555" stroke="#555555" points="359.61,-674.88 351.77,-667.76 353.46,-678.22 359.61,-674.88"/>
</g>
<!-- critter_p_proc -->
<g id="node5" class="node">
<title>critter_p_proc</title>
<ellipse fill="#ffffff" stroke="#000000" cx="415" cy="-649.61" rx="27" ry="18"/>
</g>
<!-- start&#45;&gt;critter_p_proc -->
<g id="edge4" class="edge">
<title>start&#45;&gt;critter_p_proc</title>
<path fill="none" stroke="#555555" stroke-dasharray="1,5" d="M389.06,-704.02C393,-695.92 397.83,-685.97 402.25,-676.86"/>
<polygon fill="#555555" stroke="#555555" points="405.78,-678.61 407,-668.08 399.48,-675.55 405.78,-678.61"/>
</g>
<!-- destroy_p_proc -->
<g id="node6" class="node">
<title>destroy_p_proc</title>
<ellipse fill="#ffffff" stroke="#000000" cx="487" cy="-649.61" rx="27" ry="18"/>
</g>
<!-- start&#45;&gt;destroy_p_proc -->
<g id="edge5" class="edge">
<title>start&#45;&gt;destroy_p_proc</title>
<path fill="none" stroke="#555555" stroke-dasharray="1,5" d="M399.46,-708.42C416.01,-697.5 440.5,-681.32 459.37,-668.86"/>
<polygon fill="#555555" stroke="#555555" points="460.98,-671.33 467.39,-662.9 457.12,-665.49 460.98,-671.33"/>
</g>
<!-- timed_event_p_proc -->
<g id="node7" class="node">
<title>timed_event_p_proc</title>
<ellipse fill="#ffffff" stroke="#000000" cx="559" cy="-649.61" rx="27" ry="18"/>
</g>
<!-- start&#45;&gt;timed_event_p_proc -->
<g id="edge6" class="edge">
<title>start&#45;&gt;timed_event_p_proc</title>
<path fill="none" stroke="#555555" stroke-dasharray="1,5" d="M404.61,-712.49C432.98,-702.56 481.9,-684.95 523,-667.61 524.66,-666.91 526.36,-666.18 528.07,-665.42"/>
<polygon fill="#555555" stroke="#555555" points="529.17,-668.31 536.81,-660.98 526.26,-661.94 529.17,-668.31"/>
</g>
<!-- get_reaction -->
<g id="node10" class="node">
<title>get_reaction</title>
<ellipse fill="#ffffff" stroke="#000000" cx="27" cy="-333.81" rx="27" ry="18"/>
</g>
<!-- talk_p_proc&#45;&gt;get_reaction -->
<g id="edge8" class="edge">
<title>talk_p_proc&#45;&gt;get_reaction</title>
<path fill="none" stroke="#555555" stroke-dasharray="1,5" d="M322.47,-637.65C317.52,-635.36 312.16,-633.17 307,-631.61 254.54,-615.74 101.57,-634.55 63,-595.61 0.81,-532.84 12.02,-416.15 21.23,-362.77"/>
<polygon fill="#555555" stroke="#555555" points="24.83,-363.56 23.2,-353.09 17.95,-362.29 24.83,-363.56"/>
</g>
<!-- Farmer00 -->
<g id="node11" class="node">
<title>Farmer00</title>
<ellipse fill="#ffffff" stroke="#000000" cx="203" cy="-333.81" rx="131.17" ry="261.81"/>
<text text-anchor="middle" x="203" y="-501.63" font-family="Times,serif" font-size="14.00">Hi there, stranger. Like</text>
<text text-anchor="middle" x="203" y="-484.38" font-family="Times,serif" font-size="14.00">my crops?</text>
<text text-anchor="middle" x="203" y="-467.13" font-family="Times,serif" font-size="14.00">&#45;&#45;&#45;</text>
<text text-anchor="middle" x="203" y="-449.88" font-family="Times,serif" font-size="14.00">Good morning to you!</text>
<text text-anchor="middle" x="203" y="-432.63" font-family="Times,serif" font-size="14.00">&#45;&#45;&#45;</text>
<text text-anchor="middle" x="203" y="-415.38" font-family="Times,serif" font-size="14.00">Good afternoon!</text>
<text text-anchor="middle" x="203" y="-398.13" font-family="Times,serif" font-size="14.00">&#45;&#45;&#45;</text>
<text text-anchor="middle" x="203" y="-380.88" font-family="Times,serif" font-size="14.00">Evening, friend!</text>
<text text-anchor="middle" x="203" y="-363.63" font-family="Times,serif" font-size="14.00">&#45;&#45;&#45;</text>
<text text-anchor="middle" x="203" y="-346.38" font-family="Times,serif" font-size="14.00">Nice day, isn&#39;t it?</text>
<text text-anchor="middle" x="203" y="-329.13" font-family="Times,serif" font-size="14.00">&#45;&#45;&#45;</text>
<text text-anchor="middle" x="203" y="-311.88" font-family="Times,serif" font-size="14.00">This soil is much</text>
<text text-anchor="middle" x="203" y="-294.63" font-family="Times,serif" font-size="14.00">healthier than it looks.</text>
<text text-anchor="middle" x="203" y="-277.38" font-family="Times,serif" font-size="14.00">&#45;&#45;&#45;</text>
<text text-anchor="middle" x="203" y="-260.13" font-family="Times,serif" font-size="14.00">I&#39;m trying to save these</text>
<text text-anchor="middle" x="203" y="-242.88" font-family="Times,serif" font-size="14.00">trees and I think it&#39;s</text>
<text text-anchor="middle" x="203" y="-225.63" font-family="Times,serif" font-size="14.00">working.</text>
<text text-anchor="middle" x="203" y="-208.38" font-family="Times,serif" font-size="14.00">&#45;&#45;&#45;</text>
<text text-anchor="middle" x="203" y="-191.13" font-family="Times,serif" font-size="14.00">There should be a</text>
<text text-anchor="middle" x="203" y="-173.88" font-family="Times,serif" font-size="14.00">fertilizer caravan. &#160;Now</text>
<text text-anchor="middle" x="203" y="-156.63" font-family="Times,serif" font-size="14.00">there&#39;s some money.</text>
</g>
<!-- talk_p_proc&#45;&gt;Farmer00 -->
<g id="edge9" class="edge">
<title>talk_p_proc&#45;&gt;Farmer00</title>
<path fill="none" stroke="#555555" stroke-dasharray="1,5" d="M335.67,-632.18C327.06,-612.88 311.75,-578.56 294.5,-539.91"/>
<polygon fill="#555555" stroke="#555555" points="297.35,-538.7 290.08,-530.99 290.96,-541.55 297.35,-538.7"/>
</g>
<!-- Farmer01 -->
<g id="node12" class="node">
<title>Farmer01</title>
<ellipse fill="#ffffff" stroke="#000000" cx="379" cy="-333.81" rx="27" ry="18"/>
</g>
<!-- talk_p_proc&#45;&gt;Farmer01 -->
<g id="edge10" class="edge">
<title>talk_p_proc&#45;&gt;Farmer01</title>
<path fill="none" stroke="#555555" stroke-dasharray="1,5" d="M344.99,-631.29C350.91,-579.64 368.5,-426.34 375.78,-362.84"/>
<polygon fill="#555555" stroke="#555555" points="379.36,-363.41 377.02,-353.07 372.4,-362.61 379.36,-363.41"/>
</g>
<!-- CheckWorkHeading -->
<g id="node9" class="node">
<title>CheckWorkHeading</title>
<ellipse fill="#ffffff" stroke="#000000" cx="451" cy="-333.81" rx="27" ry="18"/>
</g>
<!-- critter_p_proc&#45;&gt;CheckWorkHeading -->
<g id="edge7" class="edge">
<title>critter_p_proc&#45;&gt;CheckWorkHeading</title>
<path fill="none" stroke="#555555" stroke-dasharray="1,5" d="M416.99,-631.29C422.91,-579.64 440.5,-426.34 447.78,-362.84"/>
<polygon fill="#555555" stroke="#555555" points="451.36,-363.41 449.02,-353.07 444.4,-362.61 451.36,-363.41"/>
</g>
<!-- SendToWork -->
<g id="node13" class="node">
<title>SendToWork</title>
<ellipse fill="#ffffff" stroke="#000000" cx="523" cy="-333.81" rx="27" ry="18"/>
</g>
<!-- timed_event_p_proc&#45;&gt;SendToWork -->
<g id="edge11" class="edge">
<title>timed_event_p_proc&#45;&gt;SendToWork</title>
<path fill="none" stroke="#555555" stroke-dasharray="1,5" d="M557.01,-631.29C551.09,-579.64 533.5,-426.34 526.22,-362.84"/>
<polygon fill="#555555" stroke="#555555" points="529.6,-362.61 524.98,-353.07 522.64,-363.41 529.6,-362.61"/>
</g>
<!-- SendToSleep -->
<g id="node14" class="node">
<title>SendToSleep</title>
<ellipse fill="#ffffff" stroke="#000000" cx="595" cy="-333.81" rx="27" ry="18"/>
</g>
<!-- timed_event_p_proc&#45;&gt;SendToSleep -->
<g id="edge12" class="edge">
<title>timed_event_p_proc&#45;&gt;SendToSleep</title>
<path fill="none" stroke="#555555" stroke-dasharray="1,5" d="M560.99,-631.29C566.91,-579.64 584.5,-426.34 591.78,-362.84"/>
<polygon fill="#555555" stroke="#555555" points="595.36,-363.41 593.02,-353.07 588.4,-362.61 595.36,-363.41"/>
</g>
<!-- combat -->
<g id="node8" class="node">
<title>combat</title>
<ellipse fill="#ffffff" stroke="#000000" cx="471" cy="-721.61" rx="27" ry="18"/>
</g>
<!-- ReactToLevel -->
<g id="node16" class="node">
<title>ReactToLevel</title>
<ellipse fill="#ffffff" stroke="#000000" cx="739" cy="-18" rx="27" ry="18"/>
</g>
<!-- get_reaction&#45;&gt;ReactToLevel -->
<g id="edge13" class="edge">
<title>get_reaction&#45;&gt;ReactToLevel</title>
<path fill="none" stroke="#555555" stroke-dasharray="1,5" d="M23.03,-315.62C13.29,-268.63 -6.18,-137.22 63,-72 109.6,-28.06 565.52,-20.53 701.14,-19.25"/>
<polygon fill="#555555" stroke="#555555" points="700.83,-22.75 710.8,-19.16 700.77,-15.75 700.83,-22.75"/>
</g>
<!-- damage_p_proc -->
<g id="node15" class="node">
<title>damage_p_proc</title>
<ellipse fill="#ffffff" stroke="#000000" cx="552" cy="-721.61" rx="27" ry="18"/>
</g>
<!-- LevelToReact -->
<g id="node17" class="node">
<title>LevelToReact</title>
<ellipse fill="#ffffff" stroke="#000000" cx="667" cy="-649.61" rx="27" ry="18"/>
</g>
<!-- UpReact -->
<g id="node18" class="node">
<title>UpReact</title>
<ellipse fill="#ffffff" stroke="#000000" cx="667" cy="-333.81" rx="27" ry="18"/>
</g>
<!-- UpReact&#45;&gt;ReactToLevel -->
<g id="edge14" class="edge">
<title>UpReact&#45;&gt;ReactToLevel</title>
<path fill="none" stroke="#555555" stroke-dasharray="1,5" d="M666.71,-315.35C666.57,-272.42 669.63,-158.82 703,-72 706.93,-61.78 713.15,-51.59 719.33,-42.91"/>
<polygon fill="#555555" stroke="#555555" points="722.7,-45.26 725.91,-35.16 717.1,-41.05 722.7,-45.26"/>
</g>
<!-- DownReact -->
<g id="node19" class="node">
<title>DownReact</title>
<ellipse fill="#ffffff" stroke="#000000" cx="739" cy="-333.81" rx="27" ry="18"/>
</g>
<!-- DownReact&#45;&gt;ReactToLevel -->
<g id="edge15" class="edge">
<title>DownReact&#45;&gt;ReactToLevel</title>
<path fill="none" stroke="#555555" stroke-dasharray="1,5" d="M739,-315.49C739,-263.84 739,-110.53 739,-47.03"/>
<polygon fill="#555555" stroke="#555555" points="742.5,-47.27 739,-37.27 735.5,-47.27 742.5,-47.27"/>
</g>
<!-- BottomReact -->
<g id="node20" class="node">
<title>BottomReact</title>
<ellipse fill="#ffffff" stroke="#000000" cx="772" cy="-721.61" rx="27" ry="18"/>
</g>
<!-- TopReact -->
<g id="node21" class="node">
<title>TopReact</title>
<ellipse fill="#ffffff" stroke="#000000" cx="844" cy="-721.61" rx="27" ry="18"/>
</g>
<!-- BigUpReact -->
<g id="node22" class="node">
<title>BigUpReact</title>
<ellipse fill="#ffffff" stroke="#000000" cx="811" cy="-333.81" rx="27" ry="18"/>
</g>
<!-- BigUpReact&#45;&gt;ReactToLevel -->
<g id="edge16" class="edge">
<title>BigUpReact&#45;&gt;ReactToLevel</title>
<path fill="none" stroke="#555555" stroke-dasharray="1,5" d="M811.29,-315.35C811.43,-272.42 808.37,-158.82 775,-72 771.07,-61.78 764.85,-51.59 758.67,-42.91"/>
<polygon fill="#555555" stroke="#555555" points="760.9,-41.05 752.09,-35.16 755.3,-45.26 760.9,-41.05"/>
</g>
<!-- BigDownReact -->
<g id="node23" class="node">
<title>BigDownReact</title>
<ellipse fill="#ffffff" stroke="#000000" cx="883" cy="-333.81" rx="27" ry="18"/>
</g>
<!-- BigDownReact&#45;&gt;ReactToLevel -->
<g id="edge17" class="edge">
<title>BigDownReact&#45;&gt;ReactToLevel</title>
<path fill="none" stroke="#555555" stroke-dasharray="1,5" d="M885.73,-315.58C891.86,-270.69 902.16,-148.31 847,-72 829.84,-48.26 799.07,-34.62 774.75,-27.15"/>
<polygon fill="#555555" stroke="#555555" points="776.02,-23.59 765.44,-24.22 774.1,-30.32 776.02,-23.59"/>
</g>
<!-- UpReactLevel -->
<g id="node24" class="node">
<title>UpReactLevel</title>
<ellipse fill="#ffffff" stroke="#000000" cx="628" cy="-721.61" rx="27" ry="18"/>
</g>
<!-- UpReactLevel&#45;&gt;LevelToReact -->
<g id="edge18" class="edge">
<title>UpReactLevel&#45;&gt;LevelToReact</title>
<path fill="none" stroke="#555555" stroke-dasharray="1,5" d="M637.05,-704.38C641.72,-695.98 647.54,-685.55 652.8,-676.11"/>
<polygon fill="#555555" stroke="#555555" points="656.19,-678.2 658,-667.76 650.08,-674.79 656.19,-678.2"/>
</g>
<!-- DownReactLevel -->
<g id="node25" class="node">
<title>DownReactLevel</title>
<ellipse fill="#ffffff" stroke="#000000" cx="700" cy="-721.61" rx="27" ry="18"/>
</g>
<!-- DownReactLevel&#45;&gt;LevelToReact -->
<g id="edge19" class="edge">
<title>DownReactLevel&#45;&gt;LevelToReact</title>
<path fill="none" stroke="#555555" stroke-dasharray="1,5" d="M692.18,-704.02C688.36,-695.92 683.67,-685.97 679.37,-676.86"/>
<polygon fill="#555555" stroke="#555555" points="682.19,-675.64 674.76,-668.08 675.86,-678.62 682.19,-675.64"/>
</g>
<!-- Goodbyes -->
<g id="node26" class="node">
<title>Goodbyes</title>
<ellipse fill="#ffffff" stroke="#000000" cx="916" cy="-721.61" rx="27" ry="18"/>
</g>
</g>
</svg>
