<?xml version="1.0" encoding="UTF-8" standalone="no"?>
<!DOCTYPE svg PUBLIC "-//W3C//DTD SVG 1.1//EN"
 "http://www.w3.org/Graphics/SVG/1.1/DTD/svg11.dtd">
<!-- Generated by graphviz version 8.0.5 (0)
 -->
<!-- Title: FOLINVAD Pages: 1 -->
<svg width="484pt" height="384pt"
 viewBox="0.00 0.00 484.00 384.06" xmlns="http://www.w3.org/2000/svg" xmlns:xlink="http://www.w3.org/1999/xlink">
<g id="graph0" class="graph" transform="scale(1 1) rotate(0) translate(4 380.06)">
<title>FOLINVAD</title>
<polygon fill="white" stroke="none" points="-4,4 -4,-380.06 480,-380.06 480,4 -4,4"/>
<!-- start -->
<g id="node1" class="node">
<title>start</title>
<ellipse fill="#ffffff" stroke="#000000" cx="186" cy="-358.06" rx="27" ry="18"/>
</g>
<!-- Initialize_p_proc -->
<g id="node2" class="node">
<title>Initialize_p_proc</title>
<ellipse fill="#ffffff" stroke="#000000" cx="27" cy="-152.03" rx="27" ry="18"/>
</g>
<!-- start&#45;&gt;Initialize_p_proc -->
<g id="edge1" class="edge">
<title>start&#45;&gt;Initialize_p_proc</title>
<path fill="none" stroke="#555555" stroke-dasharray="1,5" d="M159.78,-352.86C131.65,-346.95 87.69,-333.43 63,-304.06 33.52,-268.99 27.32,-213.91 26.48,-180.86"/>
<polygon fill="#555555" stroke="#555555" points="29.97,-181.12 26.37,-171.15 22.97,-181.18 29.97,-181.12"/>
</g>
<!-- talk_p_proc -->
<g id="node3" class="node">
<title>talk_p_proc</title>
<ellipse fill="#ffffff" stroke="#000000" cx="99" cy="-152.03" rx="27" ry="18"/>
</g>
<!-- start&#45;&gt;talk_p_proc -->
<g id="edge2" class="edge">
<title>start&#45;&gt;talk_p_proc</title>
<path fill="none" stroke="#555555" stroke-dasharray="1,5" d="M169.36,-343.93C158.02,-334.12 143.57,-319.74 135,-304.06 113.47,-264.66 104.72,-212.6 101.23,-181.03"/>
<polygon fill="#555555" stroke="#555555" points="104.64,-180.99 100.17,-171.39 97.68,-181.69 104.64,-180.99"/>
</g>
<!-- critter_p_proc -->
<g id="node4" class="node">
<title>critter_p_proc</title>
<ellipse fill="#ffffff" stroke="#000000" cx="274" cy="-152.03" rx="129.58" ry="152.03"/>
<text text-anchor="middle" x="274" y="-242.23" font-family="Times,serif" font-size="14.00">Glad to meet ya. Let&#39;s</text>
<text text-anchor="middle" x="274" y="-224.98" font-family="Times,serif" font-size="14.00">get it on.</text>
<text text-anchor="middle" x="274" y="-207.73" font-family="Times,serif" font-size="14.00">&#45;&#45;&#45;</text>
<text text-anchor="middle" x="274" y="-190.48" font-family="Times,serif" font-size="14.00">This place looks like</text>
<text text-anchor="middle" x="274" y="-173.23" font-family="Times,serif" font-size="14.00">shit on a wall.</text>
<text text-anchor="middle" x="274" y="-155.98" font-family="Times,serif" font-size="14.00">&#45;&#45;&#45;</text>
<text text-anchor="middle" x="274" y="-138.73" font-family="Times,serif" font-size="14.00">I think I&#39;m going to be</text>
<text text-anchor="middle" x="274" y="-121.48" font-family="Times,serif" font-size="14.00">sick.</text>
<text text-anchor="middle" x="274" y="-104.23" font-family="Times,serif" font-size="14.00">&#45;&#45;&#45;</text>
<text text-anchor="middle" x="274" y="-86.98" font-family="Times,serif" font-size="14.00">Nicole told us to return</text>
<text text-anchor="middle" x="274" y="-69.73" font-family="Times,serif" font-size="14.00">as soon as you left the</text>
<text text-anchor="middle" x="274" y="-52.48" font-family="Times,serif" font-size="14.00">Cathedral.</text>
</g>
<!-- start&#45;&gt;critter_p_proc -->
<g id="edge3" class="edge">
<title>start&#45;&gt;critter_p_proc</title>
<path fill="none" stroke="#555555" stroke-dasharray="1,5" d="M193.2,-340.36C197.77,-329.78 204.16,-314.96 211.37,-298.24"/>
<polygon fill="#555555" stroke="#555555" points="214.95,-299.77 215.7,-289.2 208.53,-296.99 214.95,-299.77"/>
</g>
<!-- map_enter_p_proc -->
<g id="node5" class="node">
<title>map_enter_p_proc</title>
<ellipse fill="#ffffff" stroke="#000000" cx="449" cy="-152.03" rx="27" ry="18"/>
</g>
<!-- start&#45;&gt;map_enter_p_proc -->
<g id="edge4" class="edge">
<title>start&#45;&gt;map_enter_p_proc</title>
<path fill="none" stroke="#555555" stroke-dasharray="1,5" d="M212.52,-354.34C266.16,-348.32 384.82,-332.11 413,-304.06 445.64,-271.57 450.75,-215.17 450.53,-181.25"/>
<polygon fill="#555555" stroke="#555555" points="454.01,-181.18 450.27,-171.27 447.01,-181.35 454.01,-181.18"/>
</g>
</g>
</svg>
