<?xml version="1.0" encoding="UTF-8" standalone="no"?>
<!DOCTYPE svg PUBLIC "-//W3C//DTD SVG 1.1//EN"
 "http://www.w3.org/Graphics/SVG/1.1/DTD/svg11.dtd">
<!-- Generated by graphviz version 8.0.5 (0)
 -->
<!-- Title: FORCCOMP Pages: 1 -->
<svg width="576pt" height="189pt"
 viewBox="0.00 0.00 576.06 188.89" xmlns="http://www.w3.org/2000/svg" xmlns:xlink="http://www.w3.org/1999/xlink">
<g id="graph0" class="graph" transform="scale(1 1) rotate(0) translate(4 184.89)">
<title>FORCCOMP</title>
<polygon fill="white" stroke="none" points="-4,4 -4,-184.89 572.06,-184.89 572.06,4 -4,4"/>
<!-- start -->
<g id="node1" class="node">
<title>start</title>
<ellipse fill="#ffffff" stroke="#000000" cx="286.18" cy="-162.89" rx="27" ry="18"/>
</g>
<!-- description_p_proc -->
<g id="node2" class="node">
<title>description_p_proc</title>
<ellipse fill="#ffffff" stroke="#000000" cx="140.18" cy="-54.45" rx="140.18" ry="30.05"/>
<text text-anchor="middle" x="140.18" y="-58.4" font-family="Times,serif" font-size="14.00">This computer is marked:</text>
<text text-anchor="middle" x="140.18" y="-41.15" font-family="Times,serif" font-size="14.00">Force Field Controls.</text>
</g>
<!-- start&#45;&gt;description_p_proc -->
<g id="edge1" class="edge">
<title>start&#45;&gt;description_p_proc</title>
<path fill="none" stroke="#555555" stroke-dasharray="1,5" d="M268.57,-149.05C248.66,-134.53 215.4,-110.29 187.73,-90.11"/>
<polygon fill="#555555" stroke="#555555" points="190.1,-86.78 179.96,-83.72 185.98,-92.44 190.1,-86.78"/>
</g>
<!-- use_p_proc -->
<g id="node3" class="node">
<title>use_p_proc</title>
<ellipse fill="#ffffff" stroke="#000000" cx="433.18" cy="-54.45" rx="134.88" ry="54.45"/>
<text text-anchor="middle" x="433.18" y="-75.65" font-family="Times,serif" font-size="14.00">You manipulate the</text>
<text text-anchor="middle" x="433.18" y="-58.4" font-family="Times,serif" font-size="14.00">computer and a moment</text>
<text text-anchor="middle" x="433.18" y="-41.15" font-family="Times,serif" font-size="14.00">later it sparks once</text>
<text text-anchor="middle" x="433.18" y="-23.9" font-family="Times,serif" font-size="14.00"> and then shuts down.</text>
</g>
<!-- start&#45;&gt;use_p_proc -->
<g id="edge2" class="edge">
<title>start&#45;&gt;use_p_proc</title>
<path fill="none" stroke="#555555" stroke-dasharray="1,5" d="M303.92,-149.05C317.95,-138.89 338.56,-123.97 359.22,-109.01"/>
<polygon fill="#555555" stroke="#555555" points="361.01,-111.31 367.05,-102.61 356.9,-105.64 361.01,-111.31"/>
</g>
</g>
</svg>
