<?xml version="1.0" encoding="UTF-8" standalone="no"?>
<!DOCTYPE svg PUBLIC "-//W3C//DTD SVG 1.1//EN"
 "http://www.w3.org/Graphics/SVG/1.1/DTD/svg11.dtd">
<!-- Generated by graphviz version 8.0.5 (0)
 -->
<!-- Title: GENGHOUL Pages: 1 -->
<svg width="320pt" height="188pt"
 viewBox="0.00 0.00 320.21 188.00" xmlns="http://www.w3.org/2000/svg" xmlns:xlink="http://www.w3.org/1999/xlink">
<g id="graph0" class="graph" transform="scale(1 1) rotate(0) translate(4 184)">
<title>GENGHOUL</title>
<polygon fill="white" stroke="none" points="-4,4 -4,-184 316.21,-184 316.21,4 -4,4"/>
<!-- start -->
<g id="node1" class="node">
<title>start</title>
<ellipse fill="#ffffff" stroke="#000000" cx="141.21" cy="-162" rx="27" ry="18"/>
</g>
<!-- timetomove -->
<g id="node2" class="node">
<title>timetomove</title>
<ellipse fill="#ffffff" stroke="#000000" cx="41.21" cy="-90" rx="41.21" ry="18"/>
<text text-anchor="middle" x="41.21" y="-85.33" font-family="Times,serif" font-size="14.00">Arrrr!</text>
</g>
<!-- start&#45;&gt;timetomove -->
<g id="edge1" class="edge">
<title>start&#45;&gt;timetomove</title>
<path fill="none" stroke="#555555" stroke-dasharray="1,5" d="M123.33,-148.49C108.92,-138.4 88.34,-123.99 71.39,-112.12"/>
<polygon fill="#555555" stroke="#555555" points="73.6,-108.7 63.4,-105.83 69.59,-114.44 73.6,-108.7"/>
</g>
<!-- do_dialogue -->
<g id="node3" class="node">
<title>do_dialogue</title>
<ellipse fill="#ffffff" stroke="#000000" cx="141.21" cy="-90" rx="41.21" ry="18"/>
<text text-anchor="middle" x="141.21" y="-85.33" font-family="Times,serif" font-size="14.00">Arrrr!</text>
</g>
<!-- start&#45;&gt;do_dialogue -->
<g id="edge2" class="edge">
<title>start&#45;&gt;do_dialogue</title>
<path fill="none" stroke="#555555" stroke-dasharray="1,5" d="M141.21,-143.7C141.21,-136.24 141.21,-127.32 141.21,-118.97"/>
<polygon fill="#555555" stroke="#555555" points="144.71,-119.1 141.21,-109.1 137.71,-119.1 144.71,-119.1"/>
</g>
<!-- Critter_Action -->
<g id="node4" class="node">
<title>Critter_Action</title>
<ellipse fill="#ffffff" stroke="#000000" cx="125.21" cy="-18" rx="27" ry="18"/>
</g>
<!-- start&#45;&gt;Critter_Action -->
<g id="edge3" class="edge">
<title>start&#45;&gt;Critter_Action</title>
<path fill="none" stroke="#555555" stroke-dasharray="1,5" d="M158.93,-148.15C170.54,-138.56 184.72,-124.34 191.21,-108 197.12,-93.13 198.13,-86.43 191.21,-72 183.73,-56.39 169.15,-43.92 155.6,-35.01"/>
<polygon fill="#555555" stroke="#555555" points="157.83,-31.66 147.48,-29.41 154.17,-37.63 157.83,-31.66"/>
</g>
<!-- timetomove&#45;&gt;Critter_Action -->
<g id="edge4" class="edge">
<title>timetomove&#45;&gt;Critter_Action</title>
<path fill="none" stroke="#555555" stroke-dasharray="1,5" d="M59.85,-73.46C71.91,-63.42 87.72,-50.24 100.78,-39.36"/>
<polygon fill="#555555" stroke="#555555" points="102.45,-41.69 107.89,-32.6 97.97,-36.31 102.45,-41.69"/>
</g>
<!-- genericend -->
<g id="node5" class="node">
<title>genericend</title>
<ellipse fill="#ffffff" stroke="#000000" cx="213.21" cy="-162" rx="27" ry="18"/>
</g>
<!-- genericcbt -->
<g id="node6" class="node">
<title>genericcbt</title>
<ellipse fill="#ffffff" stroke="#000000" cx="285.21" cy="-162" rx="27" ry="18"/>
</g>
</g>
</svg>
