<?xml version="1.0" encoding="UTF-8" standalone="no"?>
<!DOCTYPE svg PUBLIC "-//W3C//DTD SVG 1.1//EN"
 "http://www.w3.org/Graphics/SVG/1.1/DTD/svg11.dtd">
<!-- Generated by graphviz version 8.0.5 (0)
 -->
<!-- Title: GENKNIGH Pages: 1 -->
<svg width="492pt" height="116pt"
 viewBox="0.00 0.00 492.03 116.00" xmlns="http://www.w3.org/2000/svg" xmlns:xlink="http://www.w3.org/1999/xlink">
<g id="graph0" class="graph" transform="scale(1 1) rotate(0) translate(4 112)">
<title>GENKNIGH</title>
<polygon fill="white" stroke="none" points="-4,4 -4,-112 488.03,-112 488.03,4 -4,4"/>
<!-- start -->
<g id="node1" class="node">
<title>start</title>
<ellipse fill="#ffffff" stroke="#000000" cx="313.03" cy="-90" rx="27" ry="18"/>
</g>
<!-- look_at_p_proc -->
<g id="node2" class="node">
<title>look_at_p_proc</title>
<ellipse fill="#ffffff" stroke="#000000" cx="98.03" cy="-18" rx="98.03" ry="18"/>
<text text-anchor="middle" x="98.03" y="-13.32" font-family="Times,serif" font-size="14.00">You see a Knight.</text>
</g>
<!-- start&#45;&gt;look_at_p_proc -->
<g id="edge1" class="edge">
<title>start&#45;&gt;look_at_p_proc</title>
<path fill="none" stroke="#555555" stroke-dasharray="1,5" d="M289.2,-81.24C257.01,-70.76 198.64,-51.76 154.83,-37.49"/>
<polygon fill="#555555" stroke="#555555" points="156.19,-33.93 145.6,-34.16 154.02,-40.58 156.19,-33.93"/>
</g>
<!-- pickup_p_proc -->
<g id="node3" class="node">
<title>pickup_p_proc</title>
<ellipse fill="#ffffff" stroke="#000000" cx="241.03" cy="-18" rx="27" ry="18"/>
</g>
<!-- start&#45;&gt;pickup_p_proc -->
<g id="edge2" class="edge">
<title>start&#45;&gt;pickup_p_proc</title>
<path fill="none" stroke="#555555" stroke-dasharray="1,5" d="M298.11,-74.5C288.17,-64.83 274.91,-51.94 263.68,-41.02"/>
<polygon fill="#555555" stroke="#555555" points="266.54,-38.95 256.93,-34.49 261.66,-43.97 266.54,-38.95"/>
</g>
<!-- talk_p_proc -->
<g id="node4" class="node">
<title>talk_p_proc</title>
<ellipse fill="#ffffff" stroke="#000000" cx="313.03" cy="-18" rx="27" ry="18"/>
</g>
<!-- start&#45;&gt;talk_p_proc -->
<g id="edge3" class="edge">
<title>start&#45;&gt;talk_p_proc</title>
<path fill="none" stroke="#555555" stroke-dasharray="1,5" d="M313.03,-71.7C313.03,-64.24 313.03,-55.32 313.03,-46.97"/>
<polygon fill="#555555" stroke="#555555" points="316.53,-47.1 313.03,-37.1 309.53,-47.1 316.53,-47.1"/>
</g>
<!-- critter_p_proc -->
<g id="node5" class="node">
<title>critter_p_proc</title>
<ellipse fill="#ffffff" stroke="#000000" cx="385.03" cy="-18" rx="27" ry="18"/>
</g>
<!-- start&#45;&gt;critter_p_proc -->
<g id="edge4" class="edge">
<title>start&#45;&gt;critter_p_proc</title>
<path fill="none" stroke="#555555" stroke-dasharray="1,5" d="M327.95,-74.5C337.89,-64.83 351.15,-51.94 362.39,-41.02"/>
<polygon fill="#555555" stroke="#555555" points="364.4,-43.97 369.13,-34.49 359.52,-38.95 364.4,-43.97"/>
</g>
<!-- destroy_p_proc -->
<g id="node6" class="node">
<title>destroy_p_proc</title>
<ellipse fill="#ffffff" stroke="#000000" cx="457.03" cy="-18" rx="27" ry="18"/>
</g>
<!-- start&#45;&gt;destroy_p_proc -->
<g id="edge5" class="edge">
<title>start&#45;&gt;destroy_p_proc</title>
<path fill="none" stroke="#555555" stroke-dasharray="1,5" d="M334.59,-78.52C358.91,-66.7 398.65,-47.38 426.24,-33.97"/>
<polygon fill="#555555" stroke="#555555" points="427.33,-36.84 434.8,-29.32 424.27,-30.55 427.33,-36.84"/>
</g>
<!-- combat -->
<g id="node7" class="node">
<title>combat</title>
<ellipse fill="#ffffff" stroke="#000000" cx="385.03" cy="-90" rx="27" ry="18"/>
</g>
</g>
</svg>
