<?xml version="1.0" encoding="UTF-8" standalone="no"?>
<!DOCTYPE svg PUBLIC "-//W3C//DTD SVG 1.1//EN"
 "http://www.w3.org/Graphics/SVG/1.1/DTD/svg11.dtd">
<!-- Generated by graphviz version 8.0.5 (0)
 -->
<!-- Title: GENLOCK Pages: 1 -->
<svg width="1432pt" height="555pt"
 viewBox="0.00 0.00 1432.27 554.82" xmlns="http://www.w3.org/2000/svg" xmlns:xlink="http://www.w3.org/1999/xlink">
<g id="graph0" class="graph" transform="scale(1 1) rotate(0) translate(4 550.82)">
<title>GENLOCK</title>
<polygon fill="white" stroke="none" points="-4,4 -4,-550.82 1428.27,-550.82 1428.27,4 -4,4"/>
<!-- start -->
<g id="node1" class="node">
<title>start</title>
<ellipse fill="#ffffff" stroke="#000000" cx="796.27" cy="-528.82" rx="27" ry="18"/>
</g>
<!-- use_p_proc -->
<g id="node2" class="node">
<title>use_p_proc</title>
<ellipse fill="#ffffff" stroke="#000000" cx="124.27" cy="-237.41" rx="124.27" ry="30.05"/>
<text text-anchor="middle" x="124.27" y="-241.36" font-family="Times,serif" font-size="14.00">The container appears</text>
<text text-anchor="middle" x="124.27" y="-224.11" font-family="Times,serif" font-size="14.00">locked.</text>
</g>
<!-- start&#45;&gt;use_p_proc -->
<g id="edge1" class="edge">
<title>start&#45;&gt;use_p_proc</title>
<path fill="none" stroke="#555555" stroke-dasharray="1,5" d="M768.9,-528.37C671.6,-529.82 343.74,-530.41 258.27,-474.82 187.83,-429 150.54,-332.49 134.37,-278.01"/>
<polygon fill="#555555" stroke="#555555" points="137.54,-277.35 131.42,-268.7 130.81,-279.28 137.54,-277.35"/>
</g>
<!-- look_at_p_proc -->
<g id="node3" class="node">
<title>look_at_p_proc</title>
<ellipse fill="#ffffff" stroke="#000000" cx="391.27" cy="-237.41" rx="124.27" ry="30.05"/>
<text text-anchor="middle" x="391.27" y="-241.36" font-family="Times,serif" font-size="14.00">The container appears</text>
<text text-anchor="middle" x="391.27" y="-224.11" font-family="Times,serif" font-size="14.00">locked.</text>
</g>
<!-- start&#45;&gt;look_at_p_proc -->
<g id="edge2" class="edge">
<title>start&#45;&gt;look_at_p_proc</title>
<path fill="none" stroke="#555555" stroke-dasharray="1,5" d="M769.54,-525.43C709.14,-519.59 564.37,-502.98 525.27,-474.82 457.58,-426.07 419.47,-331.88 402.37,-278.28"/>
<polygon fill="#555555" stroke="#555555" points="405.43,-277.33 399.14,-268.81 398.75,-279.39 405.43,-277.33"/>
</g>
<!-- pickup_p_proc -->
<g id="node4" class="node">
<title>pickup_p_proc</title>
<ellipse fill="#ffffff" stroke="#000000" cx="658.27" cy="-237.41" rx="124.27" ry="30.05"/>
<text text-anchor="middle" x="658.27" y="-241.36" font-family="Times,serif" font-size="14.00">The container appears</text>
<text text-anchor="middle" x="658.27" y="-224.11" font-family="Times,serif" font-size="14.00">locked.</text>
</g>
<!-- start&#45;&gt;pickup_p_proc -->
<g id="edge3" class="edge">
<title>start&#45;&gt;pickup_p_proc</title>
<path fill="none" stroke="#555555" stroke-dasharray="1,5" d="M788.46,-511.43C767.13,-466.71 707.5,-341.65 676.9,-277.48"/>
<polygon fill="#555555" stroke="#555555" points="679.71,-276.24 672.25,-268.72 673.4,-279.26 679.71,-276.24"/>
</g>
<!-- use_obj_on_p_proc -->
<g id="node5" class="node">
<title>use_obj_on_p_proc</title>
<ellipse fill="#ffffff" stroke="#000000" cx="934.27" cy="-237.41" rx="133.29" ry="237.41"/>
<text text-anchor="middle" x="934.27" y="-387.99" font-family="Times,serif" font-size="14.00">You deftly pick the lock.</text>
<text text-anchor="middle" x="934.27" y="-370.74" font-family="Times,serif" font-size="14.00">&#45;&#45;&#45;</text>
<text text-anchor="middle" x="934.27" y="-353.49" font-family="Times,serif" font-size="14.00">You fail to pick the</text>
<text text-anchor="middle" x="934.27" y="-336.24" font-family="Times,serif" font-size="14.00">lock.</text>
<text text-anchor="middle" x="934.27" y="-318.99" font-family="Times,serif" font-size="14.00">&#45;&#45;&#45;</text>
<text text-anchor="middle" x="934.27" y="-301.74" font-family="Times,serif" font-size="14.00">The locker is already</text>
<text text-anchor="middle" x="934.27" y="-284.49" font-family="Times,serif" font-size="14.00">unlocked.</text>
<text text-anchor="middle" x="934.27" y="-267.24" font-family="Times,serif" font-size="14.00">&#45;&#45;&#45;</text>
<text text-anchor="middle" x="934.27" y="-249.99" font-family="Times,serif" font-size="14.00">This lock is beyond your</text>
<text text-anchor="middle" x="934.27" y="-232.74" font-family="Times,serif" font-size="14.00">ability to pick.</text>
<text text-anchor="middle" x="934.27" y="-215.49" font-family="Times,serif" font-size="14.00">&#45;&#45;&#45;</text>
<text text-anchor="middle" x="934.27" y="-198.24" font-family="Times,serif" font-size="14.00">You break your picks in</text>
<text text-anchor="middle" x="934.27" y="-180.99" font-family="Times,serif" font-size="14.00">the lock.</text>
<text text-anchor="middle" x="934.27" y="-163.74" font-family="Times,serif" font-size="14.00">&#45;&#45;&#45;</text>
<text text-anchor="middle" x="934.27" y="-146.49" font-family="Times,serif" font-size="14.00">You fail to pick the</text>
<text text-anchor="middle" x="934.27" y="-129.24" font-family="Times,serif" font-size="14.00">lock.</text>
<text text-anchor="middle" x="934.27" y="-111.99" font-family="Times,serif" font-size="14.00">&#45;&#45;&#45;</text>
<text text-anchor="middle" x="934.27" y="-94.74" font-family="Times,serif" font-size="14.00">The locker is already</text>
<text text-anchor="middle" x="934.27" y="-77.49" font-family="Times,serif" font-size="14.00">unlocked.</text>
</g>
<!-- start&#45;&gt;use_obj_on_p_proc -->
<g id="edge4" class="edge">
<title>start&#45;&gt;use_obj_on_p_proc</title>
<path fill="none" stroke="#555555" stroke-dasharray="1,5" d="M804.09,-511.43C812.56,-493.67 827.07,-463.24 843.41,-428.98"/>
<polygon fill="#555555" stroke="#555555" points="846.91,-430.75 848.06,-420.22 840.59,-427.74 846.91,-430.75"/>
</g>
<!-- use_skill_on_p_proc -->
<g id="node6" class="node">
<title>use_skill_on_p_proc</title>
<ellipse fill="#ffffff" stroke="#000000" cx="1219.27" cy="-237.41" rx="133.29" ry="237.41"/>
<text text-anchor="middle" x="1219.27" y="-387.99" font-family="Times,serif" font-size="14.00">You deftly pick the lock.</text>
<text text-anchor="middle" x="1219.27" y="-370.74" font-family="Times,serif" font-size="14.00">&#45;&#45;&#45;</text>
<text text-anchor="middle" x="1219.27" y="-353.49" font-family="Times,serif" font-size="14.00">You fail to pick the</text>
<text text-anchor="middle" x="1219.27" y="-336.24" font-family="Times,serif" font-size="14.00">lock.</text>
<text text-anchor="middle" x="1219.27" y="-318.99" font-family="Times,serif" font-size="14.00">&#45;&#45;&#45;</text>
<text text-anchor="middle" x="1219.27" y="-301.74" font-family="Times,serif" font-size="14.00">The locker is already</text>
<text text-anchor="middle" x="1219.27" y="-284.49" font-family="Times,serif" font-size="14.00">unlocked.</text>
<text text-anchor="middle" x="1219.27" y="-267.24" font-family="Times,serif" font-size="14.00">&#45;&#45;&#45;</text>
<text text-anchor="middle" x="1219.27" y="-249.99" font-family="Times,serif" font-size="14.00">This lock is beyond your</text>
<text text-anchor="middle" x="1219.27" y="-232.74" font-family="Times,serif" font-size="14.00">ability to pick.</text>
<text text-anchor="middle" x="1219.27" y="-215.49" font-family="Times,serif" font-size="14.00">&#45;&#45;&#45;</text>
<text text-anchor="middle" x="1219.27" y="-198.24" font-family="Times,serif" font-size="14.00">You fail to pick the</text>
<text text-anchor="middle" x="1219.27" y="-180.99" font-family="Times,serif" font-size="14.00">lock.</text>
<text text-anchor="middle" x="1219.27" y="-163.74" font-family="Times,serif" font-size="14.00">&#45;&#45;&#45;</text>
<text text-anchor="middle" x="1219.27" y="-146.49" font-family="Times,serif" font-size="14.00">The locker is already</text>
<text text-anchor="middle" x="1219.27" y="-129.24" font-family="Times,serif" font-size="14.00">unlocked.</text>
<text text-anchor="middle" x="1219.27" y="-111.99" font-family="Times,serif" font-size="14.00">&#45;&#45;&#45;</text>
<text text-anchor="middle" x="1219.27" y="-94.74" font-family="Times,serif" font-size="14.00">The container appears</text>
<text text-anchor="middle" x="1219.27" y="-77.49" font-family="Times,serif" font-size="14.00">locked.</text>
</g>
<!-- start&#45;&gt;use_skill_on_p_proc -->
<g id="edge5" class="edge">
<title>start&#45;&gt;use_skill_on_p_proc</title>
<path fill="none" stroke="#555555" stroke-dasharray="1,5" d="M822.91,-525.55C884.62,-519.84 1035.23,-503.32 1076.27,-474.82 1094.98,-461.83 1111.67,-445.53 1126.44,-427.59"/>
<polygon fill="#555555" stroke="#555555" points="1129.6,-430.24 1133.09,-420.24 1124.13,-425.88 1129.6,-430.24"/>
</g>
<!-- map_update_p_proc -->
<g id="node7" class="node">
<title>map_update_p_proc</title>
<ellipse fill="#ffffff" stroke="#000000" cx="1397.27" cy="-237.41" rx="27" ry="18"/>
</g>
<!-- start&#45;&gt;map_update_p_proc -->
<g id="edge6" class="edge">
<title>start&#45;&gt;map_update_p_proc</title>
<path fill="none" stroke="#555555" stroke-dasharray="1,5" d="M823.58,-527.2C931.16,-524.48 1321.78,-512.1 1361.27,-474.82 1418.83,-420.49 1410.63,-315.96 1402.69,-266.14"/>
<polygon fill="#555555" stroke="#555555" points="1406.01,-265.81 1400.87,-256.54 1399.11,-266.99 1406.01,-265.81"/>
</g>
</g>
</svg>
