<?xml version="1.0" encoding="UTF-8" standalone="no"?>
<!DOCTYPE svg PUBLIC "-//W3C//DTD SVG 1.1//EN"
 "http://www.w3.org/Graphics/SVG/1.1/DTD/svg11.dtd">
<!-- Generated by graphviz version 8.0.5 (0)
 -->
<!-- Title: GENSKULZ Pages: 1 -->
<svg width="1242pt" height="236pt"
 viewBox="0.00 0.00 1241.62 236.50" xmlns="http://www.w3.org/2000/svg" xmlns:xlink="http://www.w3.org/1999/xlink">
<g id="graph0" class="graph" transform="scale(1 1) rotate(0) translate(4 232.5)">
<title>GENSKULZ</title>
<polygon fill="white" stroke="none" points="-4,4 -4,-232.5 1237.62,-232.5 1237.62,4 -4,4"/>
<!-- start -->
<g id="node1" class="node">
<title>start</title>
<ellipse fill="#ffffff" stroke="#000000" cx="497" cy="-210.5" rx="27" ry="18"/>
</g>
<!-- critter_p_proc -->
<g id="node2" class="node">
<title>critter_p_proc</title>
<ellipse fill="#ffffff" stroke="#000000" cx="27" cy="-114.25" rx="27" ry="18"/>
</g>
<!-- start&#45;&gt;critter_p_proc -->
<g id="edge1" class="edge">
<title>start&#45;&gt;critter_p_proc</title>
<path fill="none" stroke="#555555" stroke-dasharray="1,5" d="M469.84,-208.7C386.26,-205.85 134.26,-194.27 63,-156.5 55.49,-152.52 48.84,-146.29 43.36,-139.87"/>
<polygon fill="#555555" stroke="#555555" points="45.53,-137.95 36.64,-132.19 39.99,-142.24 45.53,-137.95"/>
</g>
<!-- destroy_p_proc -->
<g id="node3" class="node">
<title>destroy_p_proc</title>
<ellipse fill="#ffffff" stroke="#000000" cx="99" cy="-114.25" rx="27" ry="18"/>
</g>
<!-- start&#45;&gt;destroy_p_proc -->
<g id="edge2" class="edge">
<title>start&#45;&gt;destroy_p_proc</title>
<path fill="none" stroke="#555555" stroke-dasharray="1,5" d="M469.98,-207.96C396.21,-203.39 193.06,-188.17 135,-156.5 127.54,-152.43 120.9,-146.18 115.42,-139.76"/>
<polygon fill="#555555" stroke="#555555" points="117.59,-137.84 108.69,-132.09 112.06,-142.14 117.59,-137.84"/>
</g>
<!-- look_at_p_proc -->
<g id="node4" class="node">
<title>look_at_p_proc</title>
<ellipse fill="#ffffff" stroke="#000000" cx="280" cy="-114.25" rx="135.94" ry="30.05"/>
<text text-anchor="middle" x="280" y="-118.2" font-family="Times,serif" font-size="14.00">You see a member of the</text>
<text text-anchor="middle" x="280" y="-100.95" font-family="Times,serif" font-size="14.00">Skulz gang.</text>
</g>
<!-- start&#45;&gt;look_at_p_proc -->
<g id="edge3" class="edge">
<title>start&#45;&gt;look_at_p_proc</title>
<path fill="none" stroke="#555555" stroke-dasharray="1,5" d="M475,-199.94C446.01,-187.35 393.64,-164.61 350.47,-145.86"/>
<polygon fill="#555555" stroke="#555555" points="352.13,-142.33 341.57,-141.56 349.34,-148.75 352.13,-142.33"/>
</g>
<!-- map_enter_p_proc -->
<g id="node5" class="node">
<title>map_enter_p_proc</title>
<ellipse fill="#ffffff" stroke="#000000" cx="461" cy="-114.25" rx="27" ry="18"/>
</g>
<!-- start&#45;&gt;map_enter_p_proc -->
<g id="edge4" class="edge">
<title>start&#45;&gt;map_enter_p_proc</title>
<path fill="none" stroke="#555555" stroke-dasharray="1,5" d="M490.56,-192.65C485.19,-178.58 477.43,-158.26 471.21,-141.97"/>
<polygon fill="#555555" stroke="#555555" points="474.22,-141.05 467.38,-132.95 467.68,-143.54 474.22,-141.05"/>
</g>
<!-- map_exit_p_proc -->
<g id="node6" class="node">
<title>map_exit_p_proc</title>
<ellipse fill="#ffffff" stroke="#000000" cx="533" cy="-114.25" rx="27" ry="18"/>
</g>
<!-- start&#45;&gt;map_exit_p_proc -->
<g id="edge5" class="edge">
<title>start&#45;&gt;map_exit_p_proc</title>
<path fill="none" stroke="#555555" stroke-dasharray="1,5" d="M503.44,-192.65C508.81,-178.58 516.57,-158.26 522.79,-141.97"/>
<polygon fill="#555555" stroke="#555555" points="526.32,-143.54 526.62,-132.95 519.78,-141.05 526.32,-143.54"/>
</g>
<!-- pickup_p_proc -->
<g id="node7" class="node">
<title>pickup_p_proc</title>
<ellipse fill="#ffffff" stroke="#000000" cx="727" cy="-114.25" rx="149.2" ry="30.05"/>
<text text-anchor="middle" x="727" y="-118.2" font-family="Times,serif" font-size="14.00">Hey! Whaddya think you&#39;re</text>
<text text-anchor="middle" x="727" y="-100.95" font-family="Times,serif" font-size="14.00">doing?!</text>
</g>
<!-- start&#45;&gt;pickup_p_proc -->
<g id="edge6" class="edge">
<title>start&#45;&gt;pickup_p_proc</title>
<path fill="none" stroke="#555555" stroke-dasharray="1,5" d="M519.47,-200.29C550.01,-187.78 606.11,-164.79 652.28,-145.87"/>
<polygon fill="#555555" stroke="#555555" points="653.35,-148.8 661.27,-141.77 650.69,-142.33 653.35,-148.8"/>
</g>
<!-- talk_p_proc -->
<g id="node8" class="node">
<title>talk_p_proc</title>
<ellipse fill="#ffffff" stroke="#000000" cx="933" cy="-114.25" rx="39.11" ry="18"/>
<text text-anchor="middle" x="933" y="-109.57" font-family="Times,serif" font-size="14.00">Zzzzz</text>
</g>
<!-- start&#45;&gt;talk_p_proc -->
<g id="edge7" class="edge">
<title>start&#45;&gt;talk_p_proc</title>
<path fill="none" stroke="#555555" stroke-dasharray="1,5" d="M524.05,-207.8C601.04,-202.65 819.98,-185.76 885,-156.5 894.57,-152.19 903.67,-145.36 911.33,-138.49"/>
<polygon fill="#555555" stroke="#555555" points="913.22,-141.57 918.03,-132.13 908.38,-136.51 913.22,-141.57"/>
</g>
<!-- timed_event_p_proc -->
<g id="node9" class="node">
<title>timed_event_p_proc</title>
<ellipse fill="#ffffff" stroke="#000000" cx="1112" cy="-114.25" rx="121.62" ry="42.25"/>
<text text-anchor="middle" x="1112" y="-126.82" font-family="Times,serif" font-size="14.00">You&#39;re on Skulz turf,</text>
<text text-anchor="middle" x="1112" y="-109.57" font-family="Times,serif" font-size="14.00">stranger. You&#39;d better</text>
<text text-anchor="middle" x="1112" y="-92.32" font-family="Times,serif" font-size="14.00">leave.</text>
</g>
<!-- start&#45;&gt;timed_event_p_proc -->
<g id="edge8" class="edge">
<title>start&#45;&gt;timed_event_p_proc</title>
<path fill="none" stroke="#555555" stroke-dasharray="1,5" d="M524.32,-208.38C598.49,-204.95 809.55,-192.52 981,-156.5 992.55,-154.07 1004.53,-151.04 1016.35,-147.73"/>
<polygon fill="#555555" stroke="#555555" points="1017.03,-150.89 1025.67,-144.76 1015.09,-144.16 1017.03,-150.89"/>
</g>
<!-- sleeping -->
<g id="node10" class="node">
<title>sleeping</title>
<ellipse fill="#ffffff" stroke="#000000" cx="27" cy="-18" rx="27" ry="18"/>
</g>
<!-- critter_p_proc&#45;&gt;sleeping -->
<g id="edge9" class="edge">
<title>critter_p_proc&#45;&gt;sleeping</title>
<path fill="none" stroke="#555555" stroke-dasharray="1,5" d="M21.68,-96.4C20.15,-82.68 19.85,-63.02 20.77,-46.95"/>
<polygon fill="#555555" stroke="#555555" points="24.34,-47.27 21.67,-37.02 17.36,-46.7 24.34,-47.27"/>
</g>
<!-- critter_p_proc&#45;&gt;sleeping -->
<g id="edge10" class="edge">
<title>critter_p_proc&#45;&gt;sleeping</title>
<path fill="none" stroke="#555555" stroke-dasharray="1,5" d="M32.32,-96.4C33.85,-82.68 34.15,-63.02 33.23,-46.95"/>
<polygon fill="#555555" stroke="#555555" points="36.64,-46.7 32.33,-37.02 29.66,-47.27 36.64,-46.7"/>
</g>
<!-- set_sleep_tile -->
<g id="node11" class="node">
<title>set_sleep_tile</title>
<ellipse fill="#ffffff" stroke="#000000" cx="461" cy="-18" rx="27" ry="18"/>
</g>
<!-- map_enter_p_proc&#45;&gt;set_sleep_tile -->
<g id="edge11" class="edge">
<title>map_enter_p_proc&#45;&gt;set_sleep_tile</title>
<path fill="none" stroke="#555555" stroke-dasharray="1,5" d="M461,-95.96C461,-82.36 461,-63.13 461,-47.3"/>
<polygon fill="#555555" stroke="#555555" points="464.5,-47.5 461,-37.5 457.5,-47.5 464.5,-47.5"/>
</g>
</g>
</svg>
