<?xml version="1.0" encoding="UTF-8" standalone="no"?>
<!DOCTYPE svg PUBLIC "-//W3C//DTD SVG 1.1//EN"
 "http://www.w3.org/Graphics/SVG/1.1/DTD/svg11.dtd">
<!-- Generated by graphviz version 8.0.5 (0)
 -->
<!-- Title: HTWRRICK Pages: 1 -->
<svg width="1862pt" height="1172pt"
 viewBox="0.00 0.00 1862.00 1172.34" xmlns="http://www.w3.org/2000/svg" xmlns:xlink="http://www.w3.org/1999/xlink">
<g id="graph0" class="graph" transform="scale(1 1) rotate(0) translate(4 1168.34)">
<title>HTWRRICK</title>
<polygon fill="white" stroke="none" points="-4,4 -4,-1168.34 1858,-1168.34 1858,4 -4,4"/>
<!-- start -->
<g id="node1" class="node">
<title>start</title>
<ellipse fill="#ffffff" stroke="#000000" cx="605" cy="-1146.34" rx="27" ry="18"/>
</g>
<!-- look_at_p_proc -->
<g id="node2" class="node">
<title>look_at_p_proc</title>
<ellipse fill="#ffffff" stroke="#000000" cx="338" cy="-1073.34" rx="121.71" ry="18"/>
<text text-anchor="middle" x="338" y="-1068.67" font-family="Times,serif" font-size="14.00">You see Rick, a guard.</text>
</g>
<!-- start&#45;&gt;look_at_p_proc -->
<g id="edge1" class="edge">
<title>start&#45;&gt;look_at_p_proc</title>
<path fill="none" stroke="#555555" stroke-dasharray="1,5" d="M580.36,-1138.79C541.04,-1128.34 462.75,-1107.52 405.76,-1092.36"/>
<polygon fill="#555555" stroke="#555555" points="406.94,-1088.79 396.38,-1089.6 405.15,-1095.56 406.94,-1088.79"/>
</g>
<!-- pickup_p_proc -->
<g id="node3" class="node">
<title>pickup_p_proc</title>
<ellipse fill="#ffffff" stroke="#000000" cx="505" cy="-1073.34" rx="27" ry="18"/>
</g>
<!-- start&#45;&gt;pickup_p_proc -->
<g id="edge2" class="edge">
<title>start&#45;&gt;pickup_p_proc</title>
<path fill="none" stroke="#555555" stroke-dasharray="1,5" d="M587.12,-1132.65C571.72,-1121.71 549.26,-1105.77 531.72,-1093.32"/>
<polygon fill="#555555" stroke="#555555" points="534.24,-1090.1 524.06,-1087.17 530.19,-1095.81 534.24,-1090.1"/>
</g>
<!-- talk_p_proc -->
<g id="node4" class="node">
<title>talk_p_proc</title>
<ellipse fill="#ffffff" stroke="#000000" cx="577" cy="-1073.34" rx="27" ry="18"/>
</g>
<!-- start&#45;&gt;talk_p_proc -->
<g id="edge3" class="edge">
<title>start&#45;&gt;talk_p_proc</title>
<path fill="none" stroke="#555555" stroke-dasharray="1,5" d="M598.36,-1128.52C595.16,-1120.38 591.23,-1110.42 587.62,-1101.27"/>
<polygon fill="#555555" stroke="#555555" points="590.51,-1100.07 583.59,-1092.05 584,-1102.64 590.51,-1100.07"/>
</g>
<!-- critter_p_proc -->
<g id="node5" class="node">
<title>critter_p_proc</title>
<ellipse fill="#ffffff" stroke="#000000" cx="1243" cy="-1019.34" rx="27" ry="18"/>
</g>
<!-- start&#45;&gt;critter_p_proc -->
<g id="edge4" class="edge">
<title>start&#45;&gt;critter_p_proc</title>
<path fill="none" stroke="#555555" stroke-dasharray="1,5" d="M608.36,-1128.33C613.51,-1107.21 625.59,-1071.95 651,-1055.34 697.23,-1025.14 1081.79,-1020.98 1205.11,-1020.42"/>
<polygon fill="#555555" stroke="#555555" points="1204.89,-1023.92 1214.87,-1020.38 1204.86,-1016.92 1204.89,-1023.92"/>
</g>
<!-- destroy_p_proc -->
<g id="node6" class="node">
<title>destroy_p_proc</title>
<ellipse fill="#ffffff" stroke="#000000" cx="687" cy="-1073.34" rx="27" ry="18"/>
</g>
<!-- start&#45;&gt;destroy_p_proc -->
<g id="edge5" class="edge">
<title>start&#45;&gt;destroy_p_proc</title>
<path fill="none" stroke="#555555" stroke-dasharray="1,5" d="M621.01,-1131.77C628.6,-1125.3 637.79,-1117.45 646,-1110.34 651.58,-1105.51 657.56,-1100.29 663.19,-1095.35"/>
<polygon fill="#555555" stroke="#555555" points="664.88,-1097.65 670.08,-1088.42 660.26,-1092.39 664.88,-1097.65"/>
</g>
<!-- damage_p_proc -->
<g id="node7" class="node">
<title>damage_p_proc</title>
<ellipse fill="#ffffff" stroke="#000000" cx="759" cy="-1073.34" rx="27" ry="18"/>
</g>
<!-- start&#45;&gt;damage_p_proc -->
<g id="edge6" class="edge">
<title>start&#45;&gt;damage_p_proc</title>
<path fill="none" stroke="#555555" stroke-dasharray="1,5" d="M626.78,-1135.47C650.49,-1124.7 689.5,-1106.92 723,-1091.34 724.45,-1090.67 725.93,-1089.98 727.43,-1089.28"/>
<polygon fill="#555555" stroke="#555555" points="728.75,-1092.05 736.32,-1084.64 725.78,-1085.72 728.75,-1092.05"/>
</g>
<!-- get_reaction -->
<g id="node9" class="node">
<title>get_reaction</title>
<ellipse fill="#ffffff" stroke="#000000" cx="171" cy="-965.34" rx="27" ry="18"/>
</g>
<!-- talk_p_proc&#45;&gt;get_reaction -->
<g id="edge8" class="edge">
<title>talk_p_proc&#45;&gt;get_reaction</title>
<path fill="none" stroke="#555555" stroke-dasharray="1,5" d="M556.53,-1061.2C551.57,-1058.92 546.2,-1056.78 541,-1055.34 461.36,-1033.38 436.58,-1055.56 356,-1037.34 287.3,-1021.81 272.03,-1010.41 207,-983.34 205.33,-982.65 203.63,-981.92 201.92,-981.17"/>
<polygon fill="#555555" stroke="#555555" points="203.72,-977.69 193.17,-976.75 200.83,-984.07 203.72,-977.69"/>
</g>
<!-- Rick09 -->
<g id="node10" class="node">
<title>Rick09</title>
<ellipse fill="#ffffff" stroke="#000000" cx="213" cy="-341.63" rx="146.02" ry="127.63"/>
<text text-anchor="middle" x="213" y="-414.58" font-family="Times,serif" font-size="14.00">After sundown nobody is</text>
<text text-anchor="middle" x="213" y="-397.33" font-family="Times,serif" font-size="14.00">allowed in this area. </text>
<text text-anchor="middle" x="213" y="-380.08" font-family="Times,serif" font-size="14.00">The other guards won&#39;t</text>
<text text-anchor="middle" x="213" y="-362.83" font-family="Times,serif" font-size="14.00">even give you a warning. </text>
<text text-anchor="middle" x="213" y="-345.58" font-family="Times,serif" font-size="14.00">If they</text>
<text text-anchor="middle" x="213" y="-328.33" font-family="Times,serif" font-size="14.00">catch you they&#39;ll</text>
<text text-anchor="middle" x="213" y="-311.08" font-family="Times,serif" font-size="14.00">attack. &#160;You&#39;d better get</text>
<text text-anchor="middle" x="213" y="-293.83" font-family="Times,serif" font-size="14.00">back downtown while your</text>
<text text-anchor="middle" x="213" y="-276.58" font-family="Times,serif" font-size="14.00">head is still attached to</text>
<text text-anchor="middle" x="213" y="-259.33" font-family="Times,serif" font-size="14.00">your neck.</text>
</g>
<!-- talk_p_proc&#45;&gt;Rick09 -->
<g id="edge9" class="edge">
<title>talk_p_proc&#45;&gt;Rick09</title>
<path fill="none" stroke="#555555" stroke-dasharray="1,5" d="M555.63,-1062.02C502.74,-1036.38 370,-971.52 370,-966.34 370,-966.34 370,-966.34 370,-647.06 370,-578.47 338.14,-509.9 303.12,-455.25"/>
<polygon fill="#555555" stroke="#555555" points="305.64,-453.71 297.24,-447.25 299.78,-457.54 305.64,-453.71"/>
</g>
<!-- Rick01 -->
<g id="node11" class="node">
<title>Rick01</title>
<ellipse fill="#ffffff" stroke="#000000" cx="771" cy="-965.34" rx="104.87" ry="18"/>
<text text-anchor="middle" x="771" y="-960.67" font-family="Times,serif" font-size="14.00">Whadda&#39; ya&#39; want?</text>
</g>
<!-- talk_p_proc&#45;&gt;Rick01 -->
<g id="edge10" class="edge">
<title>talk_p_proc&#45;&gt;Rick01</title>
<path fill="none" stroke="#555555" stroke-dasharray="1,5" d="M597.39,-1061.2C629.03,-1043.92 690.51,-1010.32 731.16,-988.11"/>
<polygon fill="#555555" stroke="#555555" points="732.67,-990.73 739.77,-982.86 729.31,-984.59 732.67,-990.73"/>
</g>
<!-- combat -->
<g id="node8" class="node">
<title>combat</title>
<ellipse fill="#ffffff" stroke="#000000" cx="1289" cy="-18" rx="27" ry="18"/>
</g>
<!-- critter_p_proc&#45;&gt;combat -->
<g id="edge7" class="edge">
<title>critter_p_proc&#45;&gt;combat</title>
<path fill="none" stroke="#555555" stroke-dasharray="1,5" d="M1270.04,-1016.59C1388.29,-1008.59 1854,-973.24 1854,-913.09 1854,-913.09 1854,-913.09 1854,-90 1854,-36.74 1453.64,-22.84 1326.96,-19.77"/>
<polygon fill="#555555" stroke="#555555" points="1327.33,-16.25 1317.25,-19.52 1327.17,-23.25 1327.33,-16.25"/>
</g>
<!-- ReactToLevel -->
<g id="node22" class="node">
<title>ReactToLevel</title>
<ellipse fill="#ffffff" stroke="#000000" cx="171" cy="-834.6" rx="27" ry="18"/>
</g>
<!-- get_reaction&#45;&gt;ReactToLevel -->
<g id="edge35" class="edge">
<title>get_reaction&#45;&gt;ReactToLevel</title>
<path fill="none" stroke="#555555" stroke-dasharray="1,5" d="M171,-946.98C171,-925.67 171,-889.25 171,-863.88"/>
<polygon fill="#555555" stroke="#555555" points="174.5,-864.09 171,-854.1 167.5,-864.1 174.5,-864.09"/>
</g>
<!-- RickEnd -->
<g id="node17" class="node">
<title>RickEnd</title>
<ellipse fill="#ffffff" stroke="#000000" cx="1233" cy="-91" rx="27" ry="18"/>
</g>
<!-- Rick09&#45;&gt;RickEnd -->
<g id="edge31" class="edge">
<title>Rick09&#45;&gt;RickEnd</title>
<path fill="none" stroke="#998f00" d="M313.34,-248.69C332.12,-235.25 352.36,-222.95 373,-214 422.48,-192.54 452.53,-231.65 493,-196 516.91,-174.94 487.56,-146.84 512.5,-127 539.4,-105.6 1050.11,-95.16 1194.98,-92.63"/>
<polygon fill="#998f00" stroke="#998f00" points="1194.99,-96.11 1204.93,-92.44 1194.87,-89.11 1194.99,-96.11"/>
<text text-anchor="middle" x="597.75" y="-156.82" font-family="Times,serif" font-size="14.00" fill="#998f00">Sorry, I&#39;ll be on my way.</text>
</g>
<!-- Rick09&#45;&gt;RickEnd -->
<g id="edge32" class="edge">
<title>Rick09&#45;&gt;RickEnd</title>
<path fill="none" stroke="#620099" d="M322.51,-257.08C343.85,-238.23 365.12,-217.42 383,-196 405.72,-168.79 392.68,-145.36 423,-127 456.37,-106.8 1039.44,-95.34 1195.07,-92.63"/>
<polygon fill="#620099" stroke="#620099" points="1195,-96.11 1204.94,-92.44 1194.88,-89.11 1195,-96.11"/>
<text text-anchor="middle" x="456" y="-156.82" font-family="Times,serif" font-size="14.00" fill="#620099">oK. &#160;I gO.</text>
</g>
<!-- RickCombat -->
<g id="node20" class="node">
<title>RickCombat</title>
<ellipse fill="#ffffff" stroke="#000000" cx="551" cy="-91" rx="27" ry="18"/>
</g>
<!-- Rick09&#45;&gt;RickCombat -->
<g id="edge30" class="edge">
<title>Rick09&#45;&gt;RickCombat</title>
<path fill="none" stroke="#007699" d="M119.34,-243.16C92.66,-203.87 78.15,-160.11 108.75,-127 135.92,-97.59 410.78,-92.87 512.99,-92.13"/>
<polygon fill="#007699" stroke="#007699" points="512.75,-95.62 522.73,-92.06 512.71,-88.62 512.75,-95.62"/>
<text text-anchor="middle" x="195.62" y="-156.82" font-family="Times,serif" font-size="14.00" fill="#007699">I&#39;m not going anywhere.</text>
</g>
<!-- Rick09&#45;&gt;RickCombat -->
<g id="edge33" class="edge">
<title>Rick09&#45;&gt;RickCombat</title>
<path fill="none" stroke="#009936" d="M270.2,-223.97C274.33,-214.57 278.32,-205.17 282,-196 294.03,-166.03 279.99,-147.72 304.75,-127 335.62,-101.17 452.08,-94.4 513.13,-92.63"/>
<polygon fill="#009936" stroke="#009936" points="512.95,-96.11 522.86,-92.35 512.77,-89.11 512.95,-96.11"/>
<text text-anchor="middle" x="342.12" y="-156.82" font-family="Times,serif" font-size="14.00" fill="#009936">no. &#160;I stAy.</text>
</g>
<!-- Rick03 -->
<g id="node12" class="node">
<title>Rick03</title>
<ellipse fill="#ffffff" stroke="#000000" cx="1124" cy="-834.6" rx="141.24" ry="42.25"/>
<text text-anchor="middle" x="1124" y="-847.17" font-family="Times,serif" font-size="14.00">Make it quick. &#160;I&#39;m not</text>
<text text-anchor="middle" x="1124" y="-829.92" font-family="Times,serif" font-size="14.00">supposed to be talking on</text>
<text text-anchor="middle" x="1124" y="-812.67" font-family="Times,serif" font-size="14.00">the job.</text>
</g>
<!-- Rick01&#45;&gt;Rick03 -->
<g id="edge11" class="edge">
<title>Rick01&#45;&gt;Rick03</title>
<path fill="none" stroke="#760099" d="M814.28,-948.56C866.58,-929.49 956.16,-896.81 1025.58,-871.49"/>
<polygon fill="#760099" stroke="#760099" points="1026.47,-874.53 1034.66,-867.81 1024.07,-867.95 1026.47,-874.53"/>
<text text-anchor="middle" x="1043.12" y="-916.04" font-family="Times,serif" font-size="14.00" fill="#760099">Excuse me. &#160;Could I ask</text>
<text text-anchor="middle" x="1043.12" y="-898.79" font-family="Times,serif" font-size="14.00" fill="#760099">you a few questions?</text>
</g>
<!-- Rick04 -->
<g id="node13" class="node">
<title>Rick04</title>
<ellipse fill="#ffffff" stroke="#000000" cx="570" cy="-648.06" rx="132.23" ry="42.25"/>
<text text-anchor="middle" x="570" y="-660.63" font-family="Times,serif" font-size="14.00">You&#39;d better watch your</text>
<text text-anchor="middle" x="570" y="-643.38" font-family="Times,serif" font-size="14.00">step and your mouth,</text>
<text text-anchor="middle" x="570" y="-626.13" font-family="Times,serif" font-size="14.00">punk!</text>
</g>
<!-- Rick01&#45;&gt;Rick04 -->
<g id="edge12" class="edge">
<title>Rick01&#45;&gt;Rick04</title>
<path fill="none" stroke="#009949" d="M717.08,-949.5C680.2,-936.48 633.38,-913.72 607,-876.84 570.27,-825.49 564.74,-751.05 565.92,-701.4"/>
<polygon fill="#009949" stroke="#009949" points="569.44,-701.7 566.29,-691.58 562.45,-701.46 569.44,-701.7"/>
<text text-anchor="middle" x="682" y="-829.92" font-family="Times,serif" font-size="14.00" fill="#009949">Your head on a stick!</text>
</g>
<!-- Rick08 -->
<g id="node14" class="node">
<title>Rick08</title>
<ellipse fill="#ffffff" stroke="#000000" cx="708" cy="-341.63" rx="122.68" ry="42.25"/>
<text text-anchor="middle" x="708" y="-354.21" font-family="Times,serif" font-size="14.00">I don&#39;t like your</text>
<text text-anchor="middle" x="708" y="-336.96" font-family="Times,serif" font-size="14.00">attitude. &#160;You&#39;d better</text>
<text text-anchor="middle" x="708" y="-319.71" font-family="Times,serif" font-size="14.00">leave.</text>
</g>
<!-- Rick01&#45;&gt;Rick08 -->
<g id="edge13" class="edge">
<title>Rick01&#45;&gt;Rick08</title>
<path fill="none" stroke="#991d00" d="M772.31,-947.25C776.7,-884.99 788.91,-664.64 757,-487.27 751.28,-455.45 739.89,-421.14 729.53,-393.92"/>
<polygon fill="#991d00" stroke="#991d00" points="732.51,-392.91 725.63,-384.85 725.98,-395.44 732.51,-392.91"/>
<text text-anchor="middle" x="821" y="-761.05" font-family="Times,serif" font-size="14.00" fill="#991d00">Nevermind.</text>
</g>
<!-- Rick02 -->
<g id="node15" class="node">
<title>Rick02</title>
<ellipse fill="#ffffff" stroke="#000000" cx="1638" cy="-834.6" rx="132.76" ry="30.05"/>
<text text-anchor="middle" x="1638" y="-838.55" font-family="Times,serif" font-size="14.00">Get back over to the</text>
<text text-anchor="middle" x="1638" y="-821.3" font-family="Times,serif" font-size="14.00">Eastside, you hop head!</text>
</g>
<!-- Rick01&#45;&gt;Rick02 -->
<g id="edge14" class="edge">
<title>Rick01&#45;&gt;Rick02</title>
<path fill="none" stroke="#001099" d="M865.9,-957.4C938.86,-951.52 1042.06,-942.01 1132,-929.34 1271.06,-909.76 1430.12,-878.88 1532.19,-857.96"/>
<polygon fill="#001099" stroke="#001099" points="1532.72,-861.22 1541.81,-855.78 1531.31,-854.36 1532.72,-861.22"/>
<text text-anchor="middle" x="1379.25" y="-907.42" font-family="Times,serif" font-size="14.00" fill="#001099">Da... Um...</text>
</g>
<!-- Rick03&#45;&gt;RickEnd -->
<g id="edge19" class="edge">
<title>Rick03&#45;&gt;RickEnd</title>
<path fill="none" stroke="#430099" d="M1245.35,-812.61C1326.31,-796.05 1422.74,-770.54 1450,-739.1 1488.32,-694.9 1508.37,-268.83 1488,-214 1470.22,-166.15 1457.16,-152.62 1413,-127 1368.76,-101.34 1309.17,-94.1 1270.91,-92.27"/>
<polygon fill="#430099" stroke="#430099" points="1271.36,-88.75 1261.23,-91.87 1271.1,-95.74 1271.36,-88.75"/>
<text text-anchor="middle" x="1564.62" y="-517.09" font-family="Times,serif" font-size="14.00" fill="#430099">Sorry to bother you. </text>
<text text-anchor="middle" x="1564.62" y="-499.84" font-family="Times,serif" font-size="14.00" fill="#430099">Bye.</text>
</g>
<!-- Rick05 -->
<g id="node18" class="node">
<title>Rick05</title>
<ellipse fill="#ffffff" stroke="#000000" cx="1309" cy="-648.06" rx="131.7" ry="91.04"/>
<text text-anchor="middle" x="1309" y="-695.13" font-family="Times,serif" font-size="14.00">If you don&#39;t know, you</text>
<text text-anchor="middle" x="1309" y="-677.88" font-family="Times,serif" font-size="14.00">probably shouldn&#39;t be</text>
<text text-anchor="middle" x="1309" y="-660.63" font-family="Times,serif" font-size="14.00">here. &#160;This is the</text>
<text text-anchor="middle" x="1309" y="-643.38" font-family="Times,serif" font-size="14.00">Heights. &#160;Mister</text>
<text text-anchor="middle" x="1309" y="-626.13" font-family="Times,serif" font-size="14.00">Hightower lives here</text>
<text text-anchor="middle" x="1309" y="-608.88" font-family="Times,serif" font-size="14.00">and he only sees people</text>
<text text-anchor="middle" x="1309" y="-591.63" font-family="Times,serif" font-size="14.00">on appointment.</text>
</g>
<!-- Rick03&#45;&gt;Rick05 -->
<g id="edge17" class="edge">
<title>Rick03&#45;&gt;Rick05</title>
<path fill="none" stroke="#009699" d="M1163.69,-794.01C1182.11,-775.63 1204.74,-753.06 1226.61,-731.24"/>
<polygon fill="#009699" stroke="#009699" points="1228.69,-734.11 1233.3,-724.57 1223.75,-729.15 1228.69,-734.11"/>
<text text-anchor="middle" x="1244" y="-761.05" font-family="Times,serif" font-size="14.00" fill="#009699">Where am I?</text>
</g>
<!-- Rick06 -->
<g id="node19" class="node">
<title>Rick06</title>
<ellipse fill="#ffffff" stroke="#000000" cx="1073" cy="-341.63" rx="133.82" ry="42.25"/>
<text text-anchor="middle" x="1073" y="-354.21" font-family="Times,serif" font-size="14.00">I&#39;m here to make sure</text>
<text text-anchor="middle" x="1073" y="-336.96" font-family="Times,serif" font-size="14.00">nobody messes with Mr.</text>
<text text-anchor="middle" x="1073" y="-319.71" font-family="Times,serif" font-size="14.00">Hightower.</text>
</g>
<!-- Rick03&#45;&gt;Rick06 -->
<g id="edge18" class="edge">
<title>Rick03&#45;&gt;Rick06</title>
<path fill="none" stroke="#996f00" d="M1082.73,-794.07C1069.19,-778.39 1055.81,-759.29 1048.75,-739.1 1007.57,-621.28 1036.74,-471.89 1057.37,-394.46"/>
<polygon fill="#996f00" stroke="#996f00" points="1060.96,-395.59 1060.21,-385.02 1054.21,-393.75 1060.96,-395.59"/>
<text text-anchor="middle" x="1107.62" y="-643.38" font-family="Times,serif" font-size="14.00" fill="#996f00">What&#39;s your job?</text>
</g>
<!-- Rick04&#45;&gt;Rick08 -->
<g id="edge21" class="edge">
<title>Rick04&#45;&gt;Rick08</title>
<path fill="none" stroke="#990017" d="M562.12,-605.4C557.72,-572.17 555.79,-525.1 571,-487.27 586.86,-447.81 619.09,-412.9 648.3,-387.26"/>
<polygon fill="#990017" stroke="#990017" points="650.13,-389.44 655.44,-380.28 645.57,-384.13 650.13,-389.44"/>
<text text-anchor="middle" x="664" y="-508.47" font-family="Times,serif" font-size="14.00" fill="#990017">You&#39;re not worth my time.</text>
</g>
<!-- Rick04&#45;&gt;RickCombat -->
<g id="edge20" class="edge">
<title>Rick04&#45;&gt;RickCombat</title>
<path fill="none" stroke="#009916" d="M517.17,-608.92C477.5,-576.78 426.27,-526.88 403.5,-469.27 375.55,-398.52 358.8,-185.84 407,-127 420.35,-110.7 475.59,-100.93 513.63,-96"/>
<polygon fill="#009916" stroke="#009916" points="513.84,-99.38 523.34,-94.69 512.99,-92.43 513.84,-99.38"/>
<text text-anchor="middle" x="490.25" y="-354.21" font-family="Times,serif" font-size="14.00" fill="#009916">NO! &#160;You&#39;d better watch</text>
<text text-anchor="middle" x="490.25" y="-336.96" font-family="Times,serif" font-size="14.00" fill="#009916">it! &#160;I&#39;m gonna&#39; put a</text>
<text text-anchor="middle" x="490.25" y="-319.71" font-family="Times,serif" font-size="14.00" fill="#009916">bullet in your head!</text>
</g>
<!-- Rick08&#45;&gt;RickEnd -->
<g id="edge28" class="edge">
<title>Rick08&#45;&gt;RickEnd</title>
<path fill="none" stroke="#1d9900" d="M737.24,-300.28C761.03,-270.86 797.41,-232.96 839,-214 880.81,-194.94 1009.74,-225.47 1045,-196 1069.38,-175.62 1040.6,-148.77 1063.75,-127 1082.4,-109.46 1151.39,-99.75 1195.32,-95.23"/>
<polygon fill="#1d9900" stroke="#1d9900" points="1195.56,-98.62 1205.17,-94.16 1194.88,-91.66 1195.56,-98.62"/>
<text text-anchor="middle" x="1134.62" y="-156.82" font-family="Times,serif" font-size="14.00" fill="#1d9900">All right. &#160;I&#39;m going.</text>
</g>
<!-- Rick08&#45;&gt;RickCombat -->
<g id="edge29" class="edge">
<title>Rick08&#45;&gt;RickCombat</title>
<path fill="none" stroke="#99004a" d="M709.15,-299.31C709.79,-244.57 707.51,-152.03 686,-127 673.34,-112.27 623.55,-102.26 588.12,-96.84"/>
<polygon fill="#99004a" stroke="#99004a" points="589.05,-93.29 578.64,-95.3 588.03,-100.21 589.05,-93.29"/>
<text text-anchor="middle" x="778" y="-165.45" font-family="Times,serif" font-size="14.00" fill="#99004a">Make me, you damn</text>
<text text-anchor="middle" x="778" y="-148.2" font-family="Times,serif" font-size="14.00" fill="#99004a">long&#45;haired freak!</text>
</g>
<!-- Rick10 -->
<g id="node16" class="node">
<title>Rick10</title>
<ellipse fill="#ffffff" stroke="#000000" cx="1638" cy="-648.06" rx="140.71" ry="30.05"/>
<text text-anchor="middle" x="1638" y="-652.01" font-family="Times,serif" font-size="14.00">Man, you are rock&#45;stupid,</text>
<text text-anchor="middle" x="1638" y="-634.76" font-family="Times,serif" font-size="14.00">aren&#39;t you? &#160;Take a hike!</text>
</g>
<!-- Rick02&#45;&gt;Rick10 -->
<g id="edge15" class="edge">
<title>Rick02&#45;&gt;Rick10</title>
<path fill="none" stroke="#3d9900" d="M1638,-804.35C1638,-773.27 1638,-723.89 1638,-689.18"/>
<polygon fill="#3d9900" stroke="#3d9900" points="1641.5,-689.46 1638,-679.46 1634.5,-689.46 1641.5,-689.46"/>
<text text-anchor="middle" x="1657.5" y="-761.05" font-family="Times,serif" font-size="14.00" fill="#3d9900">Wha?</text>
</g>
<!-- Rick02&#45;&gt;RickEnd -->
<g id="edge16" class="edge">
<title>Rick02&#45;&gt;RickEnd</title>
<path fill="none" stroke="#990069" d="M1706.47,-808.54C1737.21,-793.46 1770.45,-770.89 1788,-739.1 1827.1,-668.25 1813.9,-633.68 1788,-557.02 1711.06,-329.29 1666.65,-249.77 1460,-127 1428.73,-108.42 1326.75,-98.55 1270.72,-94.41"/>
<polygon fill="#990069" stroke="#990069" points="1271.05,-90.85 1260.83,-93.63 1270.56,-97.83 1271.05,-90.85"/>
<text text-anchor="middle" x="1795.75" y="-508.47" font-family="Times,serif" font-size="14.00" fill="#990069">I go.</text>
</g>
<!-- Rick05&#45;&gt;RickEnd -->
<g id="edge24" class="edge">
<title>Rick05&#45;&gt;RickEnd</title>
<path fill="none" stroke="#950099" d="M1308.87,-556.54C1309.51,-437.5 1313.71,-240.27 1334.25,-214 1350.81,-192.82 1376.07,-217.65 1392,-196 1410.17,-171.3 1411.21,-150.9 1392,-127 1377.09,-108.45 1312.96,-99.15 1270.84,-94.97"/>
<polygon fill="#950099" stroke="#950099" points="1271.41,-91.41 1261.12,-93.97 1270.76,-98.38 1271.41,-91.41"/>
<text text-anchor="middle" x="1410.88" y="-336.96" font-family="Times,serif" font-size="14.00" fill="#950099">Thanks for your time.</text>
</g>
<!-- Rick05&#45;&gt;Rick06 -->
<g id="edge22" class="edge">
<title>Rick05&#45;&gt;Rick06</title>
<path fill="none" stroke="#004399" d="M1222.31,-579.09C1209.41,-566.63 1197.02,-553.08 1186.75,-539.02 1171.94,-518.72 1175.78,-509.46 1164,-487.27 1146.76,-454.78 1124.87,-419.83 1106.88,-392.43"/>
<polygon fill="#004399" stroke="#004399" points="1109.38,-390.86 1100.95,-384.44 1103.54,-394.71 1109.38,-390.86"/>
<text text-anchor="middle" x="1245.62" y="-508.47" font-family="Times,serif" font-size="14.00" fill="#004399">What&#39;s your job?</text>
</g>
<!-- Rick07 -->
<g id="node21" class="node">
<title>Rick07</title>
<ellipse fill="#ffffff" stroke="#000000" cx="877" cy="-341.63" rx="28.59" ry="18"/>
<text text-anchor="middle" x="877" y="-336.96" font-family="Times,serif" font-size="14.00">No.</text>
</g>
<!-- Rick05&#45;&gt;Rick07 -->
<g id="edge23" class="edge">
<title>Rick05&#45;&gt;Rick07</title>
<path fill="none" stroke="#709900" d="M1218.05,-581.77C1200.49,-571.88 1181.72,-563 1163,-557.02 1134.1,-547.78 911.98,-560.44 890.5,-539.02 846.07,-494.71 858.43,-412.95 868.97,-370.24"/>
<polygon fill="#709900" stroke="#709900" points="872.56,-371.35 871.71,-360.78 865.79,-369.57 872.56,-371.35"/>
<text text-anchor="middle" x="971.75" y="-525.72" font-family="Times,serif" font-size="14.00" fill="#709900">Can I set up an</text>
<text text-anchor="middle" x="971.75" y="-508.47" font-family="Times,serif" font-size="14.00" fill="#709900">appointement with Mr.</text>
<text text-anchor="middle" x="971.75" y="-491.22" font-family="Times,serif" font-size="14.00" fill="#709900">Hightower?</text>
</g>
<!-- Rick06&#45;&gt;RickEnd -->
<g id="edge27" class="edge">
<title>Rick06&#45;&gt;RickEnd</title>
<path fill="none" stroke="#0f0099" d="M1121.7,-302.02C1151.97,-275.4 1189.15,-237.45 1211,-196 1223.55,-172.2 1228.94,-141.78 1231.26,-119.99"/>
<polygon fill="#0f0099" stroke="#0f0099" points="1234.82,-120.45 1232.23,-110.17 1227.85,-119.82 1234.82,-120.45"/>
<text text-anchor="middle" x="1309.12" y="-165.45" font-family="Times,serif" font-size="14.00" fill="#0f0099">Thanks for your time. </text>
<text text-anchor="middle" x="1309.12" y="-148.2" font-family="Times,serif" font-size="14.00" fill="#0f0099">Bye.</text>
</g>
<!-- Rick06&#45;&gt;Rick05 -->
<g id="edge26" class="edge">
<title>Rick06&#45;&gt;Rick05</title>
<path fill="none" stroke="#993c00" d="M1066.34,-384C1059.2,-434.58 1051.23,-516.26 1070,-539.02 1096.79,-571.49 1123.78,-541.72 1163,-557.02 1177.68,-562.74 1192.53,-569.95 1206.85,-577.77"/>
<polygon fill="#993c00" stroke="#993c00" points="1204.74,-581.17 1215.17,-583 1208.16,-575.06 1204.74,-581.17"/>
<text text-anchor="middle" x="1115" y="-508.47" font-family="Times,serif" font-size="14.00" fill="#993c00">Where am I?</text>
</g>
<!-- Rick06&#45;&gt;RickCombat -->
<g id="edge25" class="edge">
<title>Rick06&#45;&gt;RickCombat</title>
<path fill="none" stroke="#009969" d="M1029.85,-301.31C999.23,-274.63 956.37,-239.67 915,-214 898.86,-203.99 888.92,-210.14 876.25,-196 854.66,-171.9 878.15,-147.36 853,-127 813.28,-94.84 660.86,-91.31 588.96,-91.49"/>
<polygon fill="#009969" stroke="#009969" points="589.12,-88 579.14,-91.55 589.16,-95 589.12,-88"/>
<text text-anchor="middle" x="961.38" y="-182.7" font-family="Times,serif" font-size="14.00" fill="#009969">Well, I&#39;m actually</text>
<text text-anchor="middle" x="961.38" y="-165.45" font-family="Times,serif" font-size="14.00" fill="#009969">interested in killing Mr.</text>
<text text-anchor="middle" x="961.38" y="-148.2" font-family="Times,serif" font-size="14.00" fill="#009969">Hightower. &#160;It&#39;s time to</text>
<text text-anchor="middle" x="961.38" y="-130.95" font-family="Times,serif" font-size="14.00" fill="#009969">earn your pay!</text>
</g>
<!-- RickCombat&#45;&gt;combat -->
<g id="edge34" class="edge">
<title>RickCombat&#45;&gt;combat</title>
<path fill="none" stroke="#555555" stroke-dasharray="1,5" d="M577.7,-87.43C689.69,-76.66 1121.7,-35.1 1251.75,-22.58"/>
<polygon fill="#555555" stroke="#555555" points="1251.72,-26.01 1261.33,-21.57 1251.04,-19.04 1251.72,-26.01"/>
</g>
<!-- LevelToReact -->
<g id="node23" class="node">
<title>LevelToReact</title>
<ellipse fill="#ffffff" stroke="#000000" cx="844" cy="-1073.34" rx="27" ry="18"/>
</g>
<!-- UpReact -->
<g id="node24" class="node">
<title>UpReact</title>
<ellipse fill="#ffffff" stroke="#000000" cx="99" cy="-965.34" rx="27" ry="18"/>
</g>
<!-- UpReact&#45;&gt;ReactToLevel -->
<g id="edge36" class="edge">
<title>UpReact&#45;&gt;ReactToLevel</title>
<path fill="none" stroke="#555555" stroke-dasharray="1,5" d="M108.12,-948.04C120.35,-926.18 142.18,-887.13 156.63,-861.29"/>
<polygon fill="#555555" stroke="#555555" points="160.13,-863.21 161.96,-852.77 154.02,-859.79 160.13,-863.21"/>
</g>
<!-- DownReact -->
<g id="node25" class="node">
<title>DownReact</title>
<ellipse fill="#ffffff" stroke="#000000" cx="27" cy="-965.34" rx="27" ry="18"/>
</g>
<!-- DownReact&#45;&gt;ReactToLevel -->
<g id="edge37" class="edge">
<title>DownReact&#45;&gt;ReactToLevel</title>
<path fill="none" stroke="#555555" stroke-dasharray="1,5" d="M42.68,-950.32C67.9,-927.78 117.6,-883.34 147.2,-856.88"/>
<polygon fill="#555555" stroke="#555555" points="149.21,-859.88 154.33,-850.6 144.55,-854.66 149.21,-859.88"/>
</g>
<!-- BottomReact -->
<g id="node26" class="node">
<title>BottomReact</title>
<ellipse fill="#ffffff" stroke="#000000" cx="928" cy="-1146.34" rx="27" ry="18"/>
</g>
<!-- TopReact -->
<g id="node27" class="node">
<title>TopReact</title>
<ellipse fill="#ffffff" stroke="#000000" cx="1000" cy="-1146.34" rx="27" ry="18"/>
</g>
<!-- BigUpReact -->
<g id="node28" class="node">
<title>BigUpReact</title>
<ellipse fill="#ffffff" stroke="#000000" cx="243" cy="-965.34" rx="27" ry="18"/>
</g>
<!-- BigUpReact&#45;&gt;ReactToLevel -->
<g id="edge38" class="edge">
<title>BigUpReact&#45;&gt;ReactToLevel</title>
<path fill="none" stroke="#555555" stroke-dasharray="1,5" d="M233.88,-948.04C221.65,-926.18 199.82,-887.13 185.37,-861.29"/>
<polygon fill="#555555" stroke="#555555" points="187.98,-859.79 180.04,-852.77 181.87,-863.21 187.98,-859.79"/>
</g>
<!-- BigDownReact -->
<g id="node29" class="node">
<title>BigDownReact</title>
<ellipse fill="#ffffff" stroke="#000000" cx="315" cy="-965.34" rx="27" ry="18"/>
</g>
<!-- BigDownReact&#45;&gt;ReactToLevel -->
<g id="edge39" class="edge">
<title>BigDownReact&#45;&gt;ReactToLevel</title>
<path fill="none" stroke="#555555" stroke-dasharray="1,5" d="M299.32,-950.32C274.1,-927.78 224.4,-883.34 194.8,-856.88"/>
<polygon fill="#555555" stroke="#555555" points="197.45,-854.66 187.67,-850.6 192.79,-859.88 197.45,-854.66"/>
</g>
<!-- UpReactLevel -->
<g id="node30" class="node">
<title>UpReactLevel</title>
<ellipse fill="#ffffff" stroke="#000000" cx="784" cy="-1146.34" rx="27" ry="18"/>
</g>
<!-- UpReactLevel&#45;&gt;LevelToReact -->
<g id="edge40" class="edge">
<title>UpReactLevel&#45;&gt;LevelToReact</title>
<path fill="none" stroke="#555555" stroke-dasharray="1,5" d="M796.72,-1130.29C804.76,-1120.78 815.3,-1108.31 824.39,-1097.55"/>
<polygon fill="#555555" stroke="#555555" points="827.51,-1100.28 831.29,-1090.38 822.17,-1095.76 827.51,-1100.28"/>
</g>
<!-- DownReactLevel -->
<g id="node31" class="node">
<title>DownReactLevel</title>
<ellipse fill="#ffffff" stroke="#000000" cx="856" cy="-1146.34" rx="27" ry="18"/>
</g>
<!-- DownReactLevel&#45;&gt;LevelToReact -->
<g id="edge41" class="edge">
<title>DownReactLevel&#45;&gt;LevelToReact</title>
<path fill="none" stroke="#555555" stroke-dasharray="1,5" d="M853.1,-1128.16C851.77,-1120.31 850.16,-1110.82 848.67,-1102"/>
<polygon fill="#555555" stroke="#555555" points="852,-1101.65 846.88,-1092.37 845.09,-1102.82 852,-1101.65"/>
</g>
<!-- Goodbyes -->
<g id="node32" class="node">
<title>Goodbyes</title>
<ellipse fill="#ffffff" stroke="#000000" cx="1072" cy="-1146.34" rx="27" ry="18"/>
</g>
</g>
</svg>
