<?xml version="1.0" encoding="UTF-8" standalone="no"?>
<!DOCTYPE svg PUBLIC "-//W3C//DTD SVG 1.1//EN"
 "http://www.w3.org/Graphics/SVG/1.1/DTD/svg11.dtd">
<!-- Generated by graphviz version 8.0.5 (0)
 -->
<!-- Title: HTWRGRD Pages: 1 -->
<svg width="920pt" height="284pt"
 viewBox="0.00 0.00 920.20 284.10" xmlns="http://www.w3.org/2000/svg" xmlns:xlink="http://www.w3.org/1999/xlink">
<g id="graph0" class="graph" transform="scale(1 1) rotate(0) translate(4 280.1)">
<title>HTWRGRD</title>
<polygon fill="white" stroke="none" points="-4,4 -4,-280.1 916.2,-280.1 916.2,4 -4,4"/>
<!-- start -->
<g id="node1" class="node">
<title>start</title>
<ellipse fill="#ffffff" stroke="#000000" cx="381.2" cy="-258.1" rx="27" ry="18"/>
</g>
<!-- look_at_p_proc -->
<g id="node2" class="node">
<title>look_at_p_proc</title>
<ellipse fill="#ffffff" stroke="#000000" cx="114.2" cy="-174.05" rx="114.2" ry="30.05"/>
<text text-anchor="middle" x="114.2" y="-178" font-family="Times,serif" font-size="14.00">You see one of</text>
<text text-anchor="middle" x="114.2" y="-160.75" font-family="Times,serif" font-size="14.00">Hightower&#39;s guards.</text>
</g>
<!-- start&#45;&gt;look_at_p_proc -->
<g id="edge1" class="edge">
<title>start&#45;&gt;look_at_p_proc</title>
<path fill="none" stroke="#555555" stroke-dasharray="1,5" d="M357.03,-249.68C321.4,-238.73 253.01,-217.71 197.87,-200.77"/>
<polygon fill="#555555" stroke="#555555" points="198.98,-197.14 188.39,-197.54 196.92,-203.83 198.98,-197.14"/>
</g>
<!-- pickup_p_proc -->
<g id="node3" class="node">
<title>pickup_p_proc</title>
<ellipse fill="#ffffff" stroke="#000000" cx="273.2" cy="-174.05" rx="27" ry="18"/>
</g>
<!-- start&#45;&gt;pickup_p_proc -->
<g id="edge2" class="edge">
<title>start&#45;&gt;pickup_p_proc</title>
<path fill="none" stroke="#555555" stroke-dasharray="1,5" d="M363.28,-244.25C348.61,-233.65 327.39,-218.13 309.2,-204.1 305.55,-201.29 301.73,-198.28 297.99,-195.3"/>
<polygon fill="#555555" stroke="#555555" points="300.55,-192.06 290.56,-188.51 296.16,-197.51 300.55,-192.06"/>
</g>
<!-- talk_p_proc -->
<g id="node4" class="node">
<title>talk_p_proc</title>
<ellipse fill="#ffffff" stroke="#000000" cx="417.2" cy="-174.05" rx="27" ry="18"/>
</g>
<!-- start&#45;&gt;talk_p_proc -->
<g id="edge3" class="edge">
<title>start&#45;&gt;talk_p_proc</title>
<path fill="none" stroke="#555555" stroke-dasharray="1,5" d="M388.48,-240.5C393.41,-229.27 400.02,-214.19 405.66,-201.34"/>
<polygon fill="#555555" stroke="#555555" points="409.11,-203.2 409.92,-192.63 402.7,-200.38 409.11,-203.2"/>
</g>
<!-- critter_p_proc -->
<g id="node5" class="node">
<title>critter_p_proc</title>
<ellipse fill="#ffffff" stroke="#000000" cx="345.2" cy="-174.05" rx="27" ry="18"/>
</g>
<!-- start&#45;&gt;critter_p_proc -->
<g id="edge4" class="edge">
<title>start&#45;&gt;critter_p_proc</title>
<path fill="none" stroke="#555555" stroke-dasharray="1,5" d="M373.91,-240.5C368.98,-229.27 362.37,-214.19 356.73,-201.34"/>
<polygon fill="#555555" stroke="#555555" points="359.69,-200.38 352.47,-192.63 353.28,-203.2 359.69,-200.38"/>
</g>
<!-- destroy_p_proc -->
<g id="node6" class="node">
<title>destroy_p_proc</title>
<ellipse fill="#ffffff" stroke="#000000" cx="489.2" cy="-174.05" rx="27" ry="18"/>
</g>
<!-- start&#45;&gt;destroy_p_proc -->
<g id="edge5" class="edge">
<title>start&#45;&gt;destroy_p_proc</title>
<path fill="none" stroke="#555555" stroke-dasharray="1,5" d="M399.12,-244.25C413.78,-233.65 435,-218.13 453.2,-204.1 456.85,-201.29 460.67,-198.28 464.4,-195.3"/>
<polygon fill="#555555" stroke="#555555" points="466.24,-197.51 471.83,-188.51 461.85,-192.06 466.24,-197.51"/>
</g>
<!-- damage_p_proc -->
<g id="node7" class="node">
<title>damage_p_proc</title>
<ellipse fill="#ffffff" stroke="#000000" cx="561.2" cy="-174.05" rx="27" ry="18"/>
</g>
<!-- start&#45;&gt;damage_p_proc -->
<g id="edge6" class="edge">
<title>start&#45;&gt;damage_p_proc</title>
<path fill="none" stroke="#555555" stroke-dasharray="1,5" d="M406.22,-250.6C435.82,-242.3 486.03,-226.31 525.2,-204.1 529.28,-201.79 533.38,-199.01 537.28,-196.11"/>
<polygon fill="#555555" stroke="#555555" points="539.24,-198.23 544.88,-189.26 534.88,-192.75 539.24,-198.23"/>
</g>
<!-- combat -->
<g id="node8" class="node">
<title>combat</title>
<ellipse fill="#ffffff" stroke="#000000" cx="345.2" cy="-90" rx="27" ry="18"/>
</g>
<!-- talk_p_proc&#45;&gt;combat -->
<g id="edge9" class="edge">
<title>talk_p_proc&#45;&gt;combat</title>
<path fill="none" stroke="#555555" stroke-dasharray="1,5" d="M403.99,-158C393.23,-145.74 377.86,-128.22 365.53,-114.18"/>
<polygon fill="#555555" stroke="#555555" points="367.55,-112.16 358.32,-106.95 362.28,-116.78 367.55,-112.16"/>
</g>
<!-- get_reaction -->
<g id="node9" class="node">
<title>get_reaction</title>
<ellipse fill="#ffffff" stroke="#000000" cx="417.2" cy="-90" rx="27" ry="18"/>
</g>
<!-- talk_p_proc&#45;&gt;get_reaction -->
<g id="edge8" class="edge">
<title>talk_p_proc&#45;&gt;get_reaction</title>
<path fill="none" stroke="#555555" stroke-dasharray="1,5" d="M417.2,-155.65C417.2,-145.1 417.2,-131.38 417.2,-119.3"/>
<polygon fill="#555555" stroke="#555555" points="420.7,-119.38 417.2,-109.38 413.7,-119.38 420.7,-119.38"/>
</g>
<!-- critter_p_proc&#45;&gt;combat -->
<g id="edge7" class="edge">
<title>critter_p_proc&#45;&gt;combat</title>
<path fill="none" stroke="#555555" stroke-dasharray="1,5" d="M345.2,-155.65C345.2,-145.1 345.2,-131.38 345.2,-119.3"/>
<polygon fill="#555555" stroke="#555555" points="348.7,-119.38 345.2,-109.38 341.7,-119.38 348.7,-119.38"/>
</g>
<!-- ReactToLevel -->
<g id="node10" class="node">
<title>ReactToLevel</title>
<ellipse fill="#ffffff" stroke="#000000" cx="561.2" cy="-18" rx="27" ry="18"/>
</g>
<!-- get_reaction&#45;&gt;ReactToLevel -->
<g id="edge10" class="edge">
<title>get_reaction&#45;&gt;ReactToLevel</title>
<path fill="none" stroke="#555555" stroke-dasharray="1,5" d="M438.76,-78.52C463.07,-66.7 502.82,-47.38 530.4,-33.97"/>
<polygon fill="#555555" stroke="#555555" points="531.5,-36.84 538.96,-29.32 528.44,-30.55 531.5,-36.84"/>
</g>
<!-- LevelToReact -->
<g id="node11" class="node">
<title>LevelToReact</title>
<ellipse fill="#ffffff" stroke="#000000" cx="633.2" cy="-174.05" rx="27" ry="18"/>
</g>
<!-- UpReact -->
<g id="node12" class="node">
<title>UpReact</title>
<ellipse fill="#ffffff" stroke="#000000" cx="489.2" cy="-90" rx="27" ry="18"/>
</g>
<!-- UpReact&#45;&gt;ReactToLevel -->
<g id="edge11" class="edge">
<title>UpReact&#45;&gt;ReactToLevel</title>
<path fill="none" stroke="#555555" stroke-dasharray="1,5" d="M504.12,-74.5C514.06,-64.83 527.32,-51.94 538.55,-41.02"/>
<polygon fill="#555555" stroke="#555555" points="540.57,-43.97 545.3,-34.49 535.69,-38.95 540.57,-43.97"/>
</g>
<!-- DownReact -->
<g id="node13" class="node">
<title>DownReact</title>
<ellipse fill="#ffffff" stroke="#000000" cx="561.2" cy="-90" rx="27" ry="18"/>
</g>
<!-- DownReact&#45;&gt;ReactToLevel -->
<g id="edge12" class="edge">
<title>DownReact&#45;&gt;ReactToLevel</title>
<path fill="none" stroke="#555555" stroke-dasharray="1,5" d="M561.2,-71.7C561.2,-64.24 561.2,-55.32 561.2,-46.97"/>
<polygon fill="#555555" stroke="#555555" points="564.7,-47.1 561.2,-37.1 557.7,-47.1 564.7,-47.1"/>
</g>
<!-- BottomReact -->
<g id="node14" class="node">
<title>BottomReact</title>
<ellipse fill="#ffffff" stroke="#000000" cx="741.2" cy="-258.1" rx="27" ry="18"/>
</g>
<!-- TopReact -->
<g id="node15" class="node">
<title>TopReact</title>
<ellipse fill="#ffffff" stroke="#000000" cx="813.2" cy="-258.1" rx="27" ry="18"/>
</g>
<!-- BigUpReact -->
<g id="node16" class="node">
<title>BigUpReact</title>
<ellipse fill="#ffffff" stroke="#000000" cx="633.2" cy="-90" rx="27" ry="18"/>
</g>
<!-- BigUpReact&#45;&gt;ReactToLevel -->
<g id="edge13" class="edge">
<title>BigUpReact&#45;&gt;ReactToLevel</title>
<path fill="none" stroke="#555555" stroke-dasharray="1,5" d="M618.28,-74.5C608.34,-64.83 595.08,-51.94 583.84,-41.02"/>
<polygon fill="#555555" stroke="#555555" points="586.71,-38.95 577.1,-34.49 581.83,-43.97 586.71,-38.95"/>
</g>
<!-- BigDownReact -->
<g id="node17" class="node">
<title>BigDownReact</title>
<ellipse fill="#ffffff" stroke="#000000" cx="705.2" cy="-90" rx="27" ry="18"/>
</g>
<!-- BigDownReact&#45;&gt;ReactToLevel -->
<g id="edge14" class="edge">
<title>BigDownReact&#45;&gt;ReactToLevel</title>
<path fill="none" stroke="#555555" stroke-dasharray="1,5" d="M683.64,-78.52C659.32,-66.7 619.58,-47.38 591.99,-33.97"/>
<polygon fill="#555555" stroke="#555555" points="593.96,-30.55 583.43,-29.32 590.9,-36.84 593.96,-30.55"/>
</g>
<!-- UpReactLevel -->
<g id="node18" class="node">
<title>UpReactLevel</title>
<ellipse fill="#ffffff" stroke="#000000" cx="597.2" cy="-258.1" rx="27" ry="18"/>
</g>
<!-- UpReactLevel&#45;&gt;LevelToReact -->
<g id="edge15" class="edge">
<title>UpReactLevel&#45;&gt;LevelToReact</title>
<path fill="none" stroke="#555555" stroke-dasharray="1,5" d="M604.48,-240.5C609.41,-229.27 616.02,-214.19 621.66,-201.34"/>
<polygon fill="#555555" stroke="#555555" points="625.11,-203.2 625.92,-192.63 618.7,-200.38 625.11,-203.2"/>
</g>
<!-- DownReactLevel -->
<g id="node19" class="node">
<title>DownReactLevel</title>
<ellipse fill="#ffffff" stroke="#000000" cx="669.2" cy="-258.1" rx="27" ry="18"/>
</g>
<!-- DownReactLevel&#45;&gt;LevelToReact -->
<g id="edge16" class="edge">
<title>DownReactLevel&#45;&gt;LevelToReact</title>
<path fill="none" stroke="#555555" stroke-dasharray="1,5" d="M661.91,-240.5C656.98,-229.27 650.37,-214.19 644.73,-201.34"/>
<polygon fill="#555555" stroke="#555555" points="647.69,-200.38 640.47,-192.63 641.28,-203.2 647.69,-200.38"/>
</g>
<!-- Goodbyes -->
<g id="node20" class="node">
<title>Goodbyes</title>
<ellipse fill="#ffffff" stroke="#000000" cx="885.2" cy="-258.1" rx="27" ry="18"/>
</g>
</g>
</svg>
