<?xml version="1.0" encoding="UTF-8" standalone="no"?>
<!DOCTYPE svg PUBLIC "-//W3C//DTD SVG 1.1//EN"
 "http://www.w3.org/Graphics/SVG/1.1/DTD/svg11.dtd">
<!-- Generated by graphviz version 8.0.5 (0)
 -->
<!-- Title: HUBPATNT Pages: 1 -->
<svg width="1600pt" height="284pt"
 viewBox="0.00 0.00 1600.14 284.10" xmlns="http://www.w3.org/2000/svg" xmlns:xlink="http://www.w3.org/1999/xlink">
<g id="graph0" class="graph" transform="scale(1 1) rotate(0) translate(4 280.1)">
<title>HUBPATNT</title>
<polygon fill="white" stroke="none" points="-4,4 -4,-280.1 1596.14,-280.1 1596.14,4 -4,4"/>
<!-- start -->
<g id="node1" class="node">
<title>start</title>
<ellipse fill="#ffffff" stroke="#000000" cx="601.14" cy="-258.1" rx="27" ry="18"/>
</g>
<!-- look_at_p_proc -->
<g id="node2" class="node">
<title>look_at_p_proc</title>
<ellipse fill="#ffffff" stroke="#000000" cx="100.14" cy="-174.05" rx="100.14" ry="18"/>
<text text-anchor="middle" x="100.14" y="-169.38" font-family="Times,serif" font-size="14.00">You see a Patient.</text>
</g>
<!-- start&#45;&gt;look_at_p_proc -->
<g id="edge1" class="edge">
<title>start&#45;&gt;look_at_p_proc</title>
<path fill="none" stroke="#555555" stroke-dasharray="1,5" d="M574.33,-254.66C510.59,-248.58 345.16,-231.32 209.14,-204.1 193.53,-200.98 176.85,-196.92 161.36,-192.82"/>
<polygon fill="#555555" stroke="#555555" points="162.41,-189.21 151.84,-189.99 160.59,-195.97 162.41,-189.21"/>
</g>
<!-- pickup_p_proc -->
<g id="node3" class="node">
<title>pickup_p_proc</title>
<ellipse fill="#ffffff" stroke="#000000" cx="245.14" cy="-174.05" rx="27" ry="18"/>
</g>
<!-- start&#45;&gt;pickup_p_proc -->
<g id="edge2" class="edge">
<title>start&#45;&gt;pickup_p_proc</title>
<path fill="none" stroke="#555555" stroke-dasharray="1,5" d="M573.68,-257.18C516.61,-256.38 382.1,-249.38 281.14,-204.1 276.65,-202.09 272.24,-199.38 268.14,-196.41"/>
<polygon fill="#555555" stroke="#555555" points="270.73,-193.2 260.73,-189.7 266.36,-198.67 270.73,-193.2"/>
</g>
<!-- talk_p_proc -->
<g id="node4" class="node">
<title>talk_p_proc</title>
<ellipse fill="#ffffff" stroke="#000000" cx="423.14" cy="-174.05" rx="132.76" ry="30.05"/>
<text text-anchor="middle" x="423.14" y="-178" font-family="Times,serif" font-size="14.00">Ohhhh…. Mercy…. Holy</text>
<text text-anchor="middle" x="423.14" y="-160.75" font-family="Times,serif" font-size="14.00">Flame….</text>
</g>
<!-- start&#45;&gt;talk_p_proc -->
<g id="edge3" class="edge">
<title>start&#45;&gt;talk_p_proc</title>
<path fill="none" stroke="#555555" stroke-dasharray="1,5" d="M579.31,-247.04C557.18,-236.84 521.81,-220.54 490.33,-206.02"/>
<polygon fill="#555555" stroke="#555555" points="492.24,-202.59 481.7,-201.59 489.31,-208.95 492.24,-202.59"/>
</g>
<!-- critter_p_proc -->
<g id="node5" class="node">
<title>critter_p_proc</title>
<ellipse fill="#ffffff" stroke="#000000" cx="601.14" cy="-174.05" rx="27" ry="18"/>
</g>
<!-- start&#45;&gt;critter_p_proc -->
<g id="edge4" class="edge">
<title>start&#45;&gt;critter_p_proc</title>
<path fill="none" stroke="#555555" stroke-dasharray="1,5" d="M601.14,-239.7C601.14,-229.15 601.14,-215.44 601.14,-203.35"/>
<polygon fill="#555555" stroke="#555555" points="604.64,-203.43 601.14,-193.43 597.64,-203.43 604.64,-203.43"/>
</g>
<!-- destroy_p_proc -->
<g id="node6" class="node">
<title>destroy_p_proc</title>
<ellipse fill="#ffffff" stroke="#000000" cx="673.14" cy="-174.05" rx="27" ry="18"/>
</g>
<!-- start&#45;&gt;destroy_p_proc -->
<g id="edge5" class="edge">
<title>start&#45;&gt;destroy_p_proc</title>
<path fill="none" stroke="#555555" stroke-dasharray="1,5" d="M614.34,-242.05C625.1,-229.79 640.47,-212.28 652.8,-198.23"/>
<polygon fill="#555555" stroke="#555555" points="656.05,-200.83 660.01,-191.01 650.79,-196.21 656.05,-200.83"/>
</g>
<!-- use_skill_on_p_proc -->
<g id="node7" class="node">
<title>use_skill_on_p_proc</title>
<ellipse fill="#ffffff" stroke="#000000" cx="851.14" cy="-174.05" rx="132.76" ry="30.05"/>
<text text-anchor="middle" x="851.14" y="-178" font-family="Times,serif" font-size="14.00">Ohhhh…. Mercy…. Holy</text>
<text text-anchor="middle" x="851.14" y="-160.75" font-family="Times,serif" font-size="14.00">Flame….</text>
</g>
<!-- start&#45;&gt;use_skill_on_p_proc -->
<g id="edge6" class="edge">
<title>start&#45;&gt;use_skill_on_p_proc</title>
<path fill="none" stroke="#555555" stroke-dasharray="1,5" d="M625.11,-249.24C657.52,-238.6 717.01,-219.07 766.82,-202.73"/>
<polygon fill="#555555" stroke="#555555" points="767.55,-205.84 775.96,-199.4 765.37,-199.19 767.55,-205.84"/>
</g>
<!-- use_obj_on_p_proc -->
<g id="node8" class="node">
<title>use_obj_on_p_proc</title>
<ellipse fill="#ffffff" stroke="#000000" cx="1135.14" cy="-174.05" rx="132.76" ry="30.05"/>
<text text-anchor="middle" x="1135.14" y="-178" font-family="Times,serif" font-size="14.00">Ohhhh…. Mercy…. Holy</text>
<text text-anchor="middle" x="1135.14" y="-160.75" font-family="Times,serif" font-size="14.00">Flame….</text>
</g>
<!-- start&#45;&gt;use_obj_on_p_proc -->
<g id="edge7" class="edge">
<title>start&#45;&gt;use_obj_on_p_proc</title>
<path fill="none" stroke="#555555" stroke-dasharray="1,5" d="M627.85,-254.12C691.37,-246.89 856.37,-227.31 993.14,-204.1 1004.94,-202.1 1017.25,-199.84 1029.49,-197.49"/>
<polygon fill="#555555" stroke="#555555" points="1030.06,-200.75 1039.21,-195.4 1028.72,-193.87 1030.06,-200.75"/>
</g>
<!-- get_reaction -->
<g id="node10" class="node">
<title>get_reaction</title>
<ellipse fill="#ffffff" stroke="#000000" cx="423.14" cy="-90" rx="27" ry="18"/>
</g>
<!-- talk_p_proc&#45;&gt;get_reaction -->
<g id="edge8" class="edge">
<title>talk_p_proc&#45;&gt;get_reaction</title>
<path fill="none" stroke="#555555" stroke-dasharray="1,5" d="M423.14,-143.89C423.14,-135.75 423.14,-126.93 423.14,-118.87"/>
<polygon fill="#555555" stroke="#555555" points="426.64,-119.12 423.14,-109.12 419.64,-119.12 426.64,-119.12"/>
</g>
<!-- combat -->
<g id="node9" class="node">
<title>combat</title>
<ellipse fill="#ffffff" stroke="#000000" cx="815.14" cy="-258.1" rx="27" ry="18"/>
</g>
<!-- ReactToLevel -->
<g id="node12" class="node">
<title>ReactToLevel</title>
<ellipse fill="#ffffff" stroke="#000000" cx="567.14" cy="-18" rx="27" ry="18"/>
</g>
<!-- get_reaction&#45;&gt;ReactToLevel -->
<g id="edge9" class="edge">
<title>get_reaction&#45;&gt;ReactToLevel</title>
<path fill="none" stroke="#555555" stroke-dasharray="1,5" d="M444.69,-78.52C469.01,-66.7 508.76,-47.38 536.34,-33.97"/>
<polygon fill="#555555" stroke="#555555" points="537.44,-36.84 544.9,-29.32 534.38,-30.55 537.44,-36.84"/>
</g>
<!-- damage_p_proc -->
<g id="node11" class="node">
<title>damage_p_proc</title>
<ellipse fill="#ffffff" stroke="#000000" cx="1099.14" cy="-258.1" rx="27" ry="18"/>
</g>
<!-- LevelToReact -->
<g id="node13" class="node">
<title>LevelToReact</title>
<ellipse fill="#ffffff" stroke="#000000" cx="1313.14" cy="-174.05" rx="27" ry="18"/>
</g>
<!-- UpReact -->
<g id="node14" class="node">
<title>UpReact</title>
<ellipse fill="#ffffff" stroke="#000000" cx="495.14" cy="-90" rx="27" ry="18"/>
</g>
<!-- UpReact&#45;&gt;ReactToLevel -->
<g id="edge10" class="edge">
<title>UpReact&#45;&gt;ReactToLevel</title>
<path fill="none" stroke="#555555" stroke-dasharray="1,5" d="M510.05,-74.5C520,-64.83 533.25,-51.94 544.49,-41.02"/>
<polygon fill="#555555" stroke="#555555" points="546.51,-43.97 551.24,-34.49 541.63,-38.95 546.51,-43.97"/>
</g>
<!-- DownReact -->
<g id="node15" class="node">
<title>DownReact</title>
<ellipse fill="#ffffff" stroke="#000000" cx="567.14" cy="-90" rx="27" ry="18"/>
</g>
<!-- DownReact&#45;&gt;ReactToLevel -->
<g id="edge11" class="edge">
<title>DownReact&#45;&gt;ReactToLevel</title>
<path fill="none" stroke="#555555" stroke-dasharray="1,5" d="M567.14,-71.7C567.14,-64.24 567.14,-55.32 567.14,-46.97"/>
<polygon fill="#555555" stroke="#555555" points="570.64,-47.1 567.14,-37.1 563.64,-47.1 570.64,-47.1"/>
</g>
<!-- BottomReact -->
<g id="node16" class="node">
<title>BottomReact</title>
<ellipse fill="#ffffff" stroke="#000000" cx="1421.14" cy="-258.1" rx="27" ry="18"/>
</g>
<!-- TopReact -->
<g id="node17" class="node">
<title>TopReact</title>
<ellipse fill="#ffffff" stroke="#000000" cx="1493.14" cy="-258.1" rx="27" ry="18"/>
</g>
<!-- BigUpReact -->
<g id="node18" class="node">
<title>BigUpReact</title>
<ellipse fill="#ffffff" stroke="#000000" cx="639.14" cy="-90" rx="27" ry="18"/>
</g>
<!-- BigUpReact&#45;&gt;ReactToLevel -->
<g id="edge12" class="edge">
<title>BigUpReact&#45;&gt;ReactToLevel</title>
<path fill="none" stroke="#555555" stroke-dasharray="1,5" d="M624.22,-74.5C614.27,-64.83 601.02,-51.94 589.78,-41.02"/>
<polygon fill="#555555" stroke="#555555" points="592.65,-38.95 583.04,-34.49 587.77,-43.97 592.65,-38.95"/>
</g>
<!-- BigDownReact -->
<g id="node19" class="node">
<title>BigDownReact</title>
<ellipse fill="#ffffff" stroke="#000000" cx="711.14" cy="-90" rx="27" ry="18"/>
</g>
<!-- BigDownReact&#45;&gt;ReactToLevel -->
<g id="edge13" class="edge">
<title>BigDownReact&#45;&gt;ReactToLevel</title>
<path fill="none" stroke="#555555" stroke-dasharray="1,5" d="M689.58,-78.52C665.26,-66.7 625.52,-47.38 597.93,-33.97"/>
<polygon fill="#555555" stroke="#555555" points="599.9,-30.55 589.37,-29.32 596.84,-36.84 599.9,-30.55"/>
</g>
<!-- UpReactLevel -->
<g id="node20" class="node">
<title>UpReactLevel</title>
<ellipse fill="#ffffff" stroke="#000000" cx="1277.14" cy="-258.1" rx="27" ry="18"/>
</g>
<!-- UpReactLevel&#45;&gt;LevelToReact -->
<g id="edge14" class="edge">
<title>UpReactLevel&#45;&gt;LevelToReact</title>
<path fill="none" stroke="#555555" stroke-dasharray="1,5" d="M1284.42,-240.5C1289.35,-229.27 1295.96,-214.19 1301.6,-201.34"/>
<polygon fill="#555555" stroke="#555555" points="1305.05,-203.2 1305.86,-192.63 1298.64,-200.38 1305.05,-203.2"/>
</g>
<!-- DownReactLevel -->
<g id="node21" class="node">
<title>DownReactLevel</title>
<ellipse fill="#ffffff" stroke="#000000" cx="1349.14" cy="-258.1" rx="27" ry="18"/>
</g>
<!-- DownReactLevel&#45;&gt;LevelToReact -->
<g id="edge15" class="edge">
<title>DownReactLevel&#45;&gt;LevelToReact</title>
<path fill="none" stroke="#555555" stroke-dasharray="1,5" d="M1341.85,-240.5C1336.92,-229.27 1330.31,-214.19 1324.67,-201.34"/>
<polygon fill="#555555" stroke="#555555" points="1327.63,-200.38 1320.41,-192.63 1321.22,-203.2 1327.63,-200.38"/>
</g>
<!-- Goodbyes -->
<g id="node22" class="node">
<title>Goodbyes</title>
<ellipse fill="#ffffff" stroke="#000000" cx="1565.14" cy="-258.1" rx="27" ry="18"/>
</g>
</g>
</svg>
