<?xml version="1.0" encoding="UTF-8" standalone="no"?>
<!DOCTYPE svg PUBLIC "-//W3C//DTD SVG 1.1//EN"
 "http://www.w3.org/Graphics/SVG/1.1/DTD/svg11.dtd">
<!-- Generated by graphviz version 8.0.5 (0)
 -->
<!-- Title: JTBOB Pages: 1 -->
<svg width="2276pt" height="1900pt"
 viewBox="0.00 0.00 2275.75 1900.35" xmlns="http://www.w3.org/2000/svg" xmlns:xlink="http://www.w3.org/1999/xlink">
<g id="graph0" class="graph" transform="scale(1 1) rotate(0) translate(4 1896.35)">
<title>JTBOB</title>
<polygon fill="white" stroke="none" points="-4,4 -4,-1896.35 2271.75,-1896.35 2271.75,4 -4,4"/>
<!-- start -->
<g id="node1" class="node">
<title>start</title>
<ellipse fill="#ffffff" stroke="#000000" cx="1444" cy="-1862.3" rx="147.08" ry="30.05"/>
<text text-anchor="middle" x="1444" y="-1866.25" font-family="Times,serif" font-size="14.00">You see the haggard shape</text>
<text text-anchor="middle" x="1444" y="-1849" font-family="Times,serif" font-size="14.00">of Bob.</text>
</g>
<!-- Do_Dialogue -->
<g id="node2" class="node">
<title>Do_Dialogue</title>
<ellipse fill="#ffffff" stroke="#000000" cx="1444" cy="-1777.25" rx="27" ry="18"/>
</g>
<!-- start&#45;&gt;Do_Dialogue -->
<g id="edge1" class="edge">
<title>start&#45;&gt;Do_Dialogue</title>
<path fill="none" stroke="#555555" stroke-dasharray="1,5" d="M1444,-1831.78C1444,-1823.54 1444,-1814.61 1444,-1806.45"/>
<polygon fill="#555555" stroke="#555555" points="1447.5,-1806.58 1444,-1796.58 1440.5,-1806.58 1447.5,-1806.58"/>
</g>
<!-- bob0 -->
<g id="node3" class="node">
<title>bob0</title>
<ellipse fill="#ffffff" stroke="#000000" cx="1682" cy="-1655.6" rx="124.27" ry="42.25"/>
<text text-anchor="middle" x="1682" y="-1668.18" font-family="Times,serif" font-size="14.00">Please don&#39;t kill me! I</text>
<text text-anchor="middle" x="1682" y="-1650.93" font-family="Times,serif" font-size="14.00">swear I&#39;ll get you your</text>
<text text-anchor="middle" x="1682" y="-1633.68" font-family="Times,serif" font-size="14.00">money.!</text>
</g>
<!-- Do_Dialogue&#45;&gt;bob0 -->
<g id="edge2" class="edge">
<title>Do_Dialogue&#45;&gt;bob0</title>
<path fill="none" stroke="#555555" stroke-dasharray="1,5" d="M1465.12,-1765.63C1495.94,-1750.13 1554.88,-1720.51 1603.54,-1696.04"/>
<polygon fill="#555555" stroke="#555555" points="1604.76,-1698.85 1612.12,-1691.23 1601.62,-1692.59 1604.76,-1698.85"/>
</g>
<!-- bob9 -->
<g id="node4" class="node">
<title>bob9</title>
<ellipse fill="#ffffff" stroke="#000000" cx="1961" cy="-1655.6" rx="136.47" ry="42.25"/>
<text text-anchor="middle" x="1961" y="-1668.18" font-family="Times,serif" font-size="14.00">Oh, it&#39;s you again. I</text>
<text text-anchor="middle" x="1961" y="-1650.93" font-family="Times,serif" font-size="14.00">hope you did better than</text>
<text text-anchor="middle" x="1961" y="-1633.68" font-family="Times,serif" font-size="14.00">me.</text>
</g>
<!-- Do_Dialogue&#45;&gt;bob9 -->
<g id="edge3" class="edge">
<title>Do_Dialogue&#45;&gt;bob9</title>
<path fill="none" stroke="#555555" stroke-dasharray="1,5" d="M1471.08,-1774.88C1533.1,-1771.2 1689.71,-1758.75 1815,-1722.25 1837.34,-1715.74 1860.69,-1706.46 1881.99,-1696.93"/>
<polygon fill="#555555" stroke="#555555" points="1883.3,-1699.72 1890.95,-1692.39 1880.4,-1693.35 1883.3,-1699.72"/>
</g>
<!-- bob13 -->
<g id="node5" class="node">
<title>bob13</title>
<ellipse fill="#ffffff" stroke="#000000" cx="770" cy="-1655.6" rx="137.53" ry="66.64"/>
<text text-anchor="middle" x="770" y="-1685.43" font-family="Times,serif" font-size="14.00">Oh, it&#39;s you again. You</text>
<text text-anchor="middle" x="770" y="-1668.18" font-family="Times,serif" font-size="14.00">scared me for a moment.</text>
<text text-anchor="middle" x="770" y="-1650.93" font-family="Times,serif" font-size="14.00">You haven&#39;t seen anyone</text>
<text text-anchor="middle" x="770" y="-1633.68" font-family="Times,serif" font-size="14.00">from the Casino around</text>
<text text-anchor="middle" x="770" y="-1616.43" font-family="Times,serif" font-size="14.00">here, have you?</text>
</g>
<!-- Do_Dialogue&#45;&gt;bob13 -->
<g id="edge4" class="edge">
<title>Do_Dialogue&#45;&gt;bob13</title>
<path fill="none" stroke="#555555" stroke-dasharray="1,5" d="M1417.99,-1771.63C1335.26,-1756.94 1073.94,-1710.56 909.52,-1681.37"/>
<polygon fill="#555555" stroke="#555555" points="910.29,-1677.77 899.84,-1679.47 909.07,-1684.67 910.29,-1677.77"/>
</g>
<!-- bob10 -->
<g id="node6" class="node">
<title>bob10</title>
<ellipse fill="#ffffff" stroke="#000000" cx="1337" cy="-1655.6" rx="142.84" ry="42.25"/>
<text text-anchor="middle" x="1337" y="-1668.18" font-family="Times,serif" font-size="14.00">Hey, what are you doing</text>
<text text-anchor="middle" x="1337" y="-1650.93" font-family="Times,serif" font-size="14.00">in my room? Are you from</text>
<text text-anchor="middle" x="1337" y="-1633.68" font-family="Times,serif" font-size="14.00">the Casino?</text>
</g>
<!-- Do_Dialogue&#45;&gt;bob10 -->
<g id="edge5" class="edge">
<title>Do_Dialogue&#45;&gt;bob10</title>
<path fill="none" stroke="#555555" stroke-dasharray="1,5" d="M1430.88,-1761.58C1418.22,-1747.42 1398.34,-1725.19 1380.13,-1704.83"/>
<polygon fill="#555555" stroke="#555555" points="1383.27,-1702.97 1373.99,-1697.85 1378.05,-1707.63 1383.27,-1702.97"/>
</g>
<!-- bob1 -->
<g id="node7" class="node">
<title>bob1</title>
<ellipse fill="#ffffff" stroke="#000000" cx="1060" cy="-1439.61" rx="133.82" ry="54.45"/>
<text text-anchor="middle" x="1060" y="-1460.81" font-family="Times,serif" font-size="14.00">Ack! You must be Dumb</text>
<text text-anchor="middle" x="1060" y="-1443.56" font-family="Times,serif" font-size="14.00">Fred, Merciless Killer of</text>
<text text-anchor="middle" x="1060" y="-1426.31" font-family="Times,serif" font-size="14.00">the Dirt. Please</text>
<text text-anchor="middle" x="1060" y="-1409.06" font-family="Times,serif" font-size="14.00"> don&#39;t kill me!</text>
</g>
<!-- bob0&#45;&gt;bob1 -->
<g id="edge6" class="edge">
<title>bob0&#45;&gt;bob1</title>
<path fill="none" stroke="#007f99" d="M1590.17,-1626.81C1557.89,-1613.71 1523.12,-1595.45 1496.75,-1570.96 1483.96,-1559.08 1492.69,-1545.87 1478,-1536.46 1427.37,-1504.02 1265.87,-1534.81 1208,-1518.46 1185.35,-1512.06 1162.2,-1501.9 1141.14,-1491.01"/>
<polygon fill="#007f99" stroke="#007f99" points="1143.09,-1487.56 1132.62,-1485.97 1139.82,-1493.74 1143.09,-1487.56"/>
<text text-anchor="middle" x="1529.62" y="-1549.03" font-family="Times,serif" font-size="14.00" fill="#007f99">Duh&#45;huh.</text>
</g>
<!-- bob2 -->
<g id="node8" class="node">
<title>bob2</title>
<ellipse fill="#ffffff" stroke="#000000" cx="1839" cy="-1439.61" rx="122.68" ry="30.05"/>
<text text-anchor="middle" x="1839" y="-1443.56" font-family="Times,serif" font-size="14.00">Here. Here. Take this.</text>
<text text-anchor="middle" x="1839" y="-1426.31" font-family="Times,serif" font-size="14.00">It&#39;s all I have.</text>
</g>
<!-- bob0&#45;&gt;bob2 -->
<g id="edge7" class="edge">
<title>bob0&#45;&gt;bob2</title>
<path fill="none" stroke="#998700" d="M1699.53,-1613.43C1710.48,-1589.86 1725.79,-1560.32 1743.25,-1536.46 1759.29,-1514.53 1780.35,-1492.88 1798.63,-1475.72"/>
<polygon fill="#998700" stroke="#998700" points="1800.31,-1479.01 1805.27,-1469.65 1795.55,-1473.87 1800.31,-1479.01"/>
<text text-anchor="middle" x="1823.88" y="-1557.66" font-family="Times,serif" font-size="14.00" fill="#998700">Yeah, you&#39;d better pay</text>
<text text-anchor="middle" x="1823.88" y="-1540.41" font-family="Times,serif" font-size="14.00" fill="#998700">up.</text>
</g>
<!-- bob3 -->
<g id="node9" class="node">
<title>bob3</title>
<ellipse fill="#ffffff" stroke="#000000" cx="2120" cy="-1439.61" rx="140.18" ry="30.05"/>
<text text-anchor="middle" x="2120" y="-1443.56" font-family="Times,serif" font-size="14.00">You mean you&#39;re not here</text>
<text text-anchor="middle" x="2120" y="-1426.31" font-family="Times,serif" font-size="14.00">to kill me?</text>
</g>
<!-- bob0&#45;&gt;bob3 -->
<g id="edge8" class="edge">
<title>bob0&#45;&gt;bob3</title>
<path fill="none" stroke="#5a0099" d="M1746.37,-1618.99C1768,-1608.14 1792.59,-1596.97 1816,-1588.96 1853.36,-1576.17 1870.21,-1592.95 1903,-1570.96 1918.35,-1560.66 1911.87,-1548.08 1926.25,-1536.46 1942.92,-1522.97 1951.53,-1527.43 1971,-1518.46 2001.11,-1504.58 2033.84,-1487.69 2060.93,-1473.19"/>
<polygon fill="#5a0099" stroke="#5a0099" points="2062.12,-1475.99 2069.27,-1468.17 2058.8,-1469.82 2062.12,-1475.99"/>
<text text-anchor="middle" x="2011.88" y="-1557.66" font-family="Times,serif" font-size="14.00" fill="#5a0099">I think I have the wrong</text>
<text text-anchor="middle" x="2011.88" y="-1540.41" font-family="Times,serif" font-size="14.00" fill="#5a0099">room.</text>
</g>
<!-- bob0&#45;&gt;bob3 -->
<g id="edge9" class="edge">
<title>bob0&#45;&gt;bob3</title>
<path fill="none" stroke="#00992d" d="M1743.08,-1618.42C1765.3,-1606.96 1791.09,-1595.57 1816,-1588.96 1846.34,-1580.9 2074.68,-1591.98 2098,-1570.96 2122.56,-1548.81 2126.44,-1510.3 2125.14,-1480.87"/>
<polygon fill="#00992d" stroke="#00992d" points="2128.58,-1480.83 2124.42,-1471.08 2121.6,-1481.29 2128.58,-1480.83"/>
<text text-anchor="middle" x="2192.62" y="-1557.66" font-family="Times,serif" font-size="14.00" fill="#00992d">What are you talking</text>
<text text-anchor="middle" x="2192.62" y="-1540.41" font-family="Times,serif" font-size="14.00" fill="#00992d">about?</text>
</g>
<!-- bob13&#45;&gt;bob1 -->
<g id="edge35" class="edge">
<title>bob13&#45;&gt;bob1</title>
<path fill="none" stroke="#00996c" d="M844.68,-1599.49C888.64,-1567.06 943.98,-1526.22 987.55,-1494.07"/>
<polygon fill="#00996c" stroke="#00996c" points="989.41,-1496.31 995.38,-1487.56 985.26,-1490.68 989.41,-1496.31"/>
<text text-anchor="middle" x="946.5" y="-1549.03" font-family="Times,serif" font-size="14.00" fill="#00996c">Hnnn!</text>
</g>
<!-- bob14 -->
<g id="node18" class="node">
<title>bob14</title>
<ellipse fill="#ffffff" stroke="#000000" cx="770" cy="-1439.61" rx="138.59" ry="78.84"/>
<text text-anchor="middle" x="770" y="-1478.06" font-family="Times,serif" font-size="14.00">Good, good. I just need a</text>
<text text-anchor="middle" x="770" y="-1460.81" font-family="Times,serif" font-size="14.00">couple more days, and</text>
<text text-anchor="middle" x="770" y="-1443.56" font-family="Times,serif" font-size="14.00">I&#39;ll make their money</text>
<text text-anchor="middle" x="770" y="-1426.31" font-family="Times,serif" font-size="14.00">back and much more. I&#39;m</text>
<text text-anchor="middle" x="770" y="-1409.06" font-family="Times,serif" font-size="14.00">a better gambler than</text>
<text text-anchor="middle" x="770" y="-1391.81" font-family="Times,serif" font-size="14.00">they think.</text>
</g>
<!-- bob13&#45;&gt;bob14 -->
<g id="edge36" class="edge">
<title>bob13&#45;&gt;bob14</title>
<path fill="none" stroke="#994000" d="M770,-1588.65C770,-1570 770,-1549.39 770,-1529.62"/>
<polygon fill="#994000" stroke="#994000" points="773.5,-1529.74 770,-1519.74 766.5,-1529.74 773.5,-1529.74"/>
<text text-anchor="middle" x="782.38" y="-1549.03" font-family="Times,serif" font-size="14.00" fill="#994000">No.</text>
</g>
<!-- bob15 -->
<g id="node19" class="node">
<title>bob15</title>
<ellipse fill="#ffffff" stroke="#000000" cx="264" cy="-1439.61" rx="129.58" ry="30.05"/>
<text text-anchor="middle" x="264" y="-1443.56" font-family="Times,serif" font-size="14.00">Ack! Ohmygawd! I&#39;m in</text>
<text text-anchor="middle" x="264" y="-1426.31" font-family="Times,serif" font-size="14.00">trouble! Bye.</text>
</g>
<!-- bob13&#45;&gt;bob15 -->
<g id="edge37" class="edge">
<title>bob13&#45;&gt;bob15</title>
<path fill="none" stroke="#130099" d="M634.28,-1643.65C519.46,-1631.87 366.19,-1609.44 318.5,-1570.96 290.88,-1548.66 277.07,-1509.92 270.28,-1480.45"/>
<polygon fill="#130099" stroke="#130099" points="273.58,-1480.12 268.09,-1471.06 266.73,-1481.57 273.58,-1480.12"/>
<text text-anchor="middle" x="367.75" y="-1549.03" font-family="Times,serif" font-size="14.00" fill="#130099">Yep, sure did.</text>
</g>
<!-- bob16 -->
<g id="node20" class="node">
<title>bob16</title>
<ellipse fill="#ffffff" stroke="#000000" cx="430" cy="-1150.44" rx="141.77" ry="42.25"/>
<text text-anchor="middle" x="430" y="-1163.02" font-family="Times,serif" font-size="14.00">Go ahead, shoot. Oh, bad</text>
<text text-anchor="middle" x="430" y="-1145.77" font-family="Times,serif" font-size="14.00">choice of words, Bob. Bad</text>
<text text-anchor="middle" x="430" y="-1128.52" font-family="Times,serif" font-size="14.00">choice of words.</text>
</g>
<!-- bob13&#45;&gt;bob16 -->
<g id="edge38" class="edge">
<title>bob13&#45;&gt;bob16</title>
<path fill="none" stroke="#199900" d="M638.39,-1635.89C566.63,-1618.31 483.46,-1584.27 438.25,-1518.46 404.2,-1468.9 415.86,-1293.02 424.35,-1203.95"/>
<polygon fill="#199900" stroke="#199900" points="427.93,-1204.31 425.42,-1194.02 420.96,-1203.63 427.93,-1204.31"/>
<text text-anchor="middle" x="530.88" y="-1443.56" font-family="Times,serif" font-size="14.00" fill="#199900">Hey, I got some questions</text>
<text text-anchor="middle" x="530.88" y="-1426.31" font-family="Times,serif" font-size="14.00" fill="#199900">for you.</text>
</g>
<!-- bob10&#45;&gt;bob1 -->
<g id="edge25" class="edge">
<title>bob10&#45;&gt;bob1</title>
<path fill="none" stroke="#399900" d="M1254.2,-1620.88C1226.33,-1607.51 1195.99,-1590.6 1171,-1570.96 1145.71,-1551.08 1121.97,-1524.72 1102.98,-1500.91"/>
<polygon fill="#399900" stroke="#399900" points="1105.13,-1498.98 1096.21,-1493.27 1099.62,-1503.3 1105.13,-1498.98"/>
<text text-anchor="middle" x="1193.5" y="-1549.03" font-family="Times,serif" font-size="14.00" fill="#399900">Nhhh!</text>
</g>
<!-- bob10&#45;&gt;bob2 -->
<g id="edge26" class="edge">
<title>bob10&#45;&gt;bob2</title>
<path fill="none" stroke="#990066" d="M1450.92,-1629.66C1490.42,-1616.92 1533.02,-1598.16 1566,-1570.96 1579.8,-1559.57 1571.87,-1546.4 1586.75,-1536.46 1631.69,-1506.44 1656.07,-1536.51 1707,-1518.46 1736.91,-1507.85 1767.6,-1490.24 1791.85,-1474.44"/>
<polygon fill="#990066" stroke="#990066" points="1793.42,-1476.94 1799.81,-1468.49 1789.55,-1471.1 1793.42,-1476.94"/>
<text text-anchor="middle" x="1652.62" y="-1557.66" font-family="Times,serif" font-size="14.00" fill="#990066">Yeah, I&#39;m from the</text>
<text text-anchor="middle" x="1652.62" y="-1540.41" font-family="Times,serif" font-size="14.00" fill="#990066">Casino.</text>
</g>
<!-- bob5 -->
<g id="node11" class="node">
<title>bob5</title>
<ellipse fill="#ffffff" stroke="#000000" cx="1471" cy="-1150.44" rx="138.59" ry="66.64"/>
<text text-anchor="middle" x="1471" y="-1180.27" font-family="Times,serif" font-size="14.00">Geez, I thought you were</text>
<text text-anchor="middle" x="1471" y="-1163.02" font-family="Times,serif" font-size="14.00">from the Casino. Sure as</text>
<text text-anchor="middle" x="1471" y="-1145.77" font-family="Times,serif" font-size="14.00">sand in the</text>
<text text-anchor="middle" x="1471" y="-1128.52" font-family="Times,serif" font-size="14.00">desert, I owe them a lot</text>
<text text-anchor="middle" x="1471" y="-1111.27" font-family="Times,serif" font-size="14.00">of money.</text>
</g>
<!-- bob10&#45;&gt;bob5 -->
<g id="edge28" class="edge">
<title>bob10&#45;&gt;bob5</title>
<path fill="none" stroke="#997300" d="M1297.85,-1614.6C1275.9,-1589.3 1250.66,-1554.63 1239,-1518.46 1217.49,-1451.76 1210.53,-1424.81 1239,-1360.77 1267.07,-1297.63 1324.65,-1245.49 1375.42,-1209.05"/>
<polygon fill="#997300" stroke="#997300" points="1377,-1211.51 1383.15,-1202.88 1372.97,-1205.79 1377,-1211.51"/>
<text text-anchor="middle" x="1320" y="-1443.56" font-family="Times,serif" font-size="14.00" fill="#997300">What&#39;s wrong with the</text>
<text text-anchor="middle" x="1320" y="-1426.31" font-family="Times,serif" font-size="14.00" fill="#997300">Casino?</text>
</g>
<!-- bob11 -->
<g id="node16" class="node">
<title>bob11</title>
<ellipse fill="#ffffff" stroke="#000000" cx="1554" cy="-1439.61" rx="144.43" ry="42.25"/>
<text text-anchor="middle" x="1554" y="-1452.19" font-family="Times,serif" font-size="14.00">Oh gosh. I thought you</text>
<text text-anchor="middle" x="1554" y="-1434.94" font-family="Times,serif" font-size="14.00">were from the Casino. You</text>
<text text-anchor="middle" x="1554" y="-1417.69" font-family="Times,serif" font-size="14.00">scared me.</text>
</g>
<!-- bob10&#45;&gt;bob11 -->
<g id="edge27" class="edge">
<title>bob10&#45;&gt;bob11</title>
<path fill="none" stroke="#009299" d="M1326.24,-1613.02C1322.43,-1588.44 1322.45,-1558.01 1338.5,-1536.46 1354.49,-1514.98 1371.14,-1528.4 1396,-1518.46 1422.44,-1507.88 1450.56,-1494.69 1475.63,-1482.2"/>
<polygon fill="#009299" stroke="#009299" points="1477.08,-1484.89 1484.44,-1477.27 1473.93,-1478.63 1477.08,-1484.89"/>
<text text-anchor="middle" x="1408.75" y="-1557.66" font-family="Times,serif" font-size="14.00" fill="#009299">No, I&#39;m just looking</text>
<text text-anchor="middle" x="1408.75" y="-1540.41" font-family="Times,serif" font-size="14.00" fill="#009299">around.</text>
</g>
<!-- bob4 -->
<g id="node10" class="node">
<title>bob4</title>
<ellipse fill="#ffffff" stroke="#000000" cx="2120" cy="-1150.44" rx="130.11" ry="139.83"/>
<text text-anchor="middle" x="2120" y="-1232.02" font-family="Times,serif" font-size="14.00">Thanks. I just got a</text>
<text text-anchor="middle" x="2120" y="-1214.77" font-family="Times,serif" font-size="14.00">little nervous when you</text>
<text text-anchor="middle" x="2120" y="-1197.52" font-family="Times,serif" font-size="14.00">walked in here with a</text>
<text text-anchor="middle" x="2120" y="-1180.27" font-family="Times,serif" font-size="14.00">&#45;&#45;&#45;</text>
<text text-anchor="middle" x="2120" y="-1163.02" font-family="Times,serif" font-size="14.00"> in your hand.</text>
<text text-anchor="middle" x="2120" y="-1145.77" font-family="Times,serif" font-size="14.00">&#45;&#45;&#45;</text>
<text text-anchor="middle" x="2120" y="-1128.52" font-family="Times,serif" font-size="14.00">Thanks. I just got a</text>
<text text-anchor="middle" x="2120" y="-1111.27" font-family="Times,serif" font-size="14.00">little nervous when you</text>
<text text-anchor="middle" x="2120" y="-1094.02" font-family="Times,serif" font-size="14.00">walked in here with a</text>
<text text-anchor="middle" x="2120" y="-1076.77" font-family="Times,serif" font-size="14.00">&#45;&#45;&#45;</text>
<text text-anchor="middle" x="2120" y="-1059.52" font-family="Times,serif" font-size="14.00"> in your hand.</text>
</g>
<!-- bob3&#45;&gt;bob4 -->
<g id="edge10" class="edge">
<title>bob3&#45;&gt;bob4</title>
<path fill="none" stroke="#990100" d="M2120,-1409.23C2120,-1383 2120,-1342.45 2120,-1301.22"/>
<polygon fill="#990100" stroke="#990100" points="2123.5,-1301.44 2120,-1291.44 2116.5,-1301.44 2123.5,-1301.44"/>
<text text-anchor="middle" x="2193.88" y="-1329.47" font-family="Times,serif" font-size="14.00" fill="#990100">Nope. It&#39;s your lucky</text>
<text text-anchor="middle" x="2193.88" y="-1312.22" font-family="Times,serif" font-size="14.00" fill="#990100">day.</text>
</g>
<!-- bob3&#45;&gt;bob5 -->
<g id="edge11" class="edge">
<title>bob3&#45;&gt;bob5</title>
<path fill="none" stroke="#002c99" d="M2070.19,-1411.24C2041.48,-1395.81 2004.55,-1376.52 1971,-1360.77 1841.78,-1300.1 1690.13,-1237.83 1588.01,-1197.16"/>
<polygon fill="#002c99" stroke="#002c99" points="1589.56,-1193.61 1578.98,-1193.17 1586.98,-1200.11 1589.56,-1193.61"/>
<text text-anchor="middle" x="1995.88" y="-1329.47" font-family="Times,serif" font-size="14.00" fill="#002c99">No. Who would be</text>
<text text-anchor="middle" x="1995.88" y="-1312.22" font-family="Times,serif" font-size="14.00" fill="#002c99">threatening you?</text>
</g>
<!-- bob6 -->
<g id="node12" class="node">
<title>bob6</title>
<ellipse fill="#ffffff" stroke="#000000" cx="654" cy="-849.07" rx="142.84" ry="91.04"/>
<text text-anchor="middle" x="654" y="-896.15" font-family="Times,serif" font-size="14.00">They cheat. I played a</text>
<text text-anchor="middle" x="654" y="-878.9" font-family="Times,serif" font-size="14.00">little slots and some</text>
<text text-anchor="middle" x="654" y="-861.65" font-family="Times,serif" font-size="14.00">poker. But I&#39;m a better</text>
<text text-anchor="middle" x="654" y="-844.4" font-family="Times,serif" font-size="14.00">player than that. I</text>
<text text-anchor="middle" x="654" y="-827.15" font-family="Times,serif" font-size="14.00">swear those machines are</text>
<text text-anchor="middle" x="654" y="-809.9" font-family="Times,serif" font-size="14.00">rigged. I lost a lot of</text>
<text text-anchor="middle" x="654" y="-792.65" font-family="Times,serif" font-size="14.00">money.</text>
</g>
<!-- bob5&#45;&gt;bob6 -->
<g id="edge12" class="edge">
<title>bob5&#45;&gt;bob6</title>
<path fill="none" stroke="#599900" d="M1396.03,-1094.04C1353.01,-1064.87 1296.79,-1031.01 1242,-1010.61 1198.07,-994.25 870.43,-955.08 826,-940.11 806.82,-933.65 787.18,-925.27 768.35,-916.22"/>
<polygon fill="#599900" stroke="#599900" points="770.1,-912.69 759.58,-911.43 767.02,-918.97 770.1,-912.69"/>
<text text-anchor="middle" x="1239.88" y="-979.31" font-family="Times,serif" font-size="14.00" fill="#599900">Why do you owe them so</text>
<text text-anchor="middle" x="1239.88" y="-962.06" font-family="Times,serif" font-size="14.00" fill="#599900">much money?</text>
</g>
<!-- bob7 -->
<g id="node13" class="node">
<title>bob7</title>
<ellipse fill="#ffffff" stroke="#000000" cx="1067" cy="-584.29" rx="148.67" ry="103.24"/>
<text text-anchor="middle" x="1067" y="-639.99" font-family="Times,serif" font-size="14.00">Some goons. They say they</text>
<text text-anchor="middle" x="1067" y="-622.74" font-family="Times,serif" font-size="14.00">work for the Casino Boss,</text>
<text text-anchor="middle" x="1067" y="-605.49" font-family="Times,serif" font-size="14.00">but I never</text>
<text text-anchor="middle" x="1067" y="-588.24" font-family="Times,serif" font-size="14.00">saw him. One was called</text>
<text text-anchor="middle" x="1067" y="-570.99" font-family="Times,serif" font-size="14.00">Izo, I think, and the</text>
<text text-anchor="middle" x="1067" y="-553.74" font-family="Times,serif" font-size="14.00">other was some big Guido</text>
<text text-anchor="middle" x="1067" y="-536.49" font-family="Times,serif" font-size="14.00">looking guy. Damn</text>
<text text-anchor="middle" x="1067" y="-519.24" font-family="Times,serif" font-size="14.00">cheaters.</text>
</g>
<!-- bob5&#45;&gt;bob7 -->
<g id="edge13" class="edge">
<title>bob5&#45;&gt;bob7</title>
<path fill="none" stroke="#990085" d="M1435.89,-1085.69C1413.39,-1044.41 1383.81,-989.36 1358.75,-940.11 1318.01,-860.05 1325.98,-829.07 1271,-758.03 1244.88,-724.28 1211.2,-692.49 1178.77,-665.61"/>
<polygon fill="#990085" stroke="#990085" points="1181.51,-662.51 1171.56,-658.88 1177.07,-667.92 1181.51,-662.51"/>
<text text-anchor="middle" x="1448.62" y="-853.02" font-family="Times,serif" font-size="14.00" fill="#990085">Who at the casino do you</text>
<text text-anchor="middle" x="1448.62" y="-835.77" font-family="Times,serif" font-size="14.00" fill="#990085">owe this money to?</text>
</g>
<!-- bob8 -->
<g id="node14" class="node">
<title>bob8</title>
<ellipse fill="#ffffff" stroke="#000000" cx="740" cy="-258.53" rx="153.44" ry="152.03"/>
<text text-anchor="middle" x="740" y="-348.73" font-family="Times,serif" font-size="14.00">Oh, not too much. A</text>
<text text-anchor="middle" x="740" y="-331.48" font-family="Times,serif" font-size="14.00">couple thousand. I only</text>
<text text-anchor="middle" x="740" y="-314.23" font-family="Times,serif" font-size="14.00">played for four or</text>
<text text-anchor="middle" x="740" y="-296.98" font-family="Times,serif" font-size="14.00">five hours. Well, maybe</text>
<text text-anchor="middle" x="740" y="-279.73" font-family="Times,serif" font-size="14.00">a little longer. They</text>
<text text-anchor="middle" x="740" y="-262.48" font-family="Times,serif" font-size="14.00">gave me some markers, and</text>
<text text-anchor="middle" x="740" y="-245.23" font-family="Times,serif" font-size="14.00">I don&#39;t have enough here</text>
<text text-anchor="middle" x="740" y="-227.98" font-family="Times,serif" font-size="14.00">to cover it. I gotta get</text>
<text text-anchor="middle" x="740" y="-210.73" font-family="Times,serif" font-size="14.00">back to the Hub and get</text>
<text text-anchor="middle" x="740" y="-193.48" font-family="Times,serif" font-size="14.00">some cash. I&#39;m afraid</text>
<text text-anchor="middle" x="740" y="-176.23" font-family="Times,serif" font-size="14.00">they&#39;ll beat me up if I</text>
<text text-anchor="middle" x="740" y="-158.98" font-family="Times,serif" font-size="14.00">try to leave.</text>
</g>
<!-- bob5&#45;&gt;bob8 -->
<g id="edge14" class="edge">
<title>bob5&#45;&gt;bob8</title>
<path fill="none" stroke="#009980" d="M1497.46,-1084.71C1512.66,-1043.98 1530.23,-989.88 1538,-940.11 1550.48,-860.16 1583.43,-825 1538,-758.03 1525.85,-740.12 1505.74,-757.34 1492.75,-740.03 1423.35,-647.55 1544.75,-567.53 1468,-481.06 1370.17,-370.84 1285.38,-452.13 1144,-410.56 1059.09,-385.59 966.47,-351.48 891.36,-322"/>
<polygon fill="#009980" stroke="#009980" points="892.93,-318.46 882.35,-318.06 890.37,-324.98 892.93,-318.46"/>
<text text-anchor="middle" x="1582.62" y="-726.73" font-family="Times,serif" font-size="14.00" fill="#009980">How much money do you</text>
<text text-anchor="middle" x="1582.62" y="-709.48" font-family="Times,serif" font-size="14.00" fill="#009980">owe?</text>
</g>
<!-- bobend -->
<g id="node15" class="node">
<title>bobend</title>
<ellipse fill="#ffffff" stroke="#000000" cx="1152" cy="-18" rx="27" ry="18"/>
</g>
<!-- bob5&#45;&gt;bobend -->
<g id="edge15" class="edge">
<title>bob5&#45;&gt;bobend</title>
<path fill="none" stroke="#995300" d="M1544.09,-1093.52C1606.42,-1038.94 1686,-949.73 1686,-850.07 1686,-850.07 1686,-850.07 1686,-257.53 1686,-39.92 1311.76,-19.49 1189.87,-18.6"/>
<polygon fill="#995300" stroke="#995300" points="1190.23,-15.1 1180.22,-18.57 1190.2,-22.1 1190.23,-15.1"/>
<text text-anchor="middle" x="1768.5" y="-588.24" font-family="Times,serif" font-size="14.00" fill="#995300">Hmmm. Thanks for the</text>
<text text-anchor="middle" x="1768.5" y="-570.99" font-family="Times,serif" font-size="14.00" fill="#995300">info.</text>
</g>
<!-- bob6&#45;&gt;bob7 -->
<g id="edge16" class="edge">
<title>bob6&#45;&gt;bob7</title>
<path fill="none" stroke="#270099" d="M764.07,-790.56C804.78,-768.75 843.02,-747.38 851,-740.03 864.5,-727.58 860.38,-718.12 873.75,-705.53 885.42,-694.54 891.28,-695.81 905,-687.53 919.27,-678.92 934.16,-669.77 948.87,-660.61"/>
<polygon fill="#270099" stroke="#270099" points="950.38,-663.18 957.01,-654.92 946.67,-657.24 950.38,-663.18"/>
<text text-anchor="middle" x="963.62" y="-726.73" font-family="Times,serif" font-size="14.00" fill="#270099">Who at the casino do you</text>
<text text-anchor="middle" x="963.62" y="-709.48" font-family="Times,serif" font-size="14.00" fill="#270099">owe this money to?</text>
</g>
<!-- bob6&#45;&gt;bob8 -->
<g id="edge17" class="edge">
<title>bob6&#45;&gt;bob8</title>
<path fill="none" stroke="#069900" d="M635.29,-758.7C627.35,-738.83 616.05,-719.54 600,-705.53 573.11,-682.07 543.98,-715.45 521.75,-687.53 464.6,-615.74 486.95,-565.97 521.75,-481.06 540.77,-434.65 574.72,-392.75 610.27,-358.2"/>
<polygon fill="#069900" stroke="#069900" points="612.06,-361.38 616.87,-351.94 607.22,-356.32 612.06,-361.38"/>
<text text-anchor="middle" x="611.62" y="-588.24" font-family="Times,serif" font-size="14.00" fill="#069900">How much money do you</text>
<text text-anchor="middle" x="611.62" y="-570.99" font-family="Times,serif" font-size="14.00" fill="#069900">owe?</text>
</g>
<!-- bob6&#45;&gt;bobend -->
<g id="edge18" class="edge">
<title>bob6&#45;&gt;bobend</title>
<path fill="none" stroke="#990033" d="M613.68,-761.52C600.42,-736.49 586.21,-713.69 575,-705.53 541.31,-681.02 516.5,-712.3 483,-687.53 380.99,-612.13 326.2,-549.96 363,-428.56 412.92,-263.86 433.02,-199.23 578,-106.5 667.8,-49.07 1000.97,-26.81 1114.12,-20.81"/>
<polygon fill="#990033" stroke="#990033" points="1114.17,-24.26 1123.98,-20.25 1113.81,-17.27 1114.17,-24.26"/>
<text text-anchor="middle" x="445.5" y="-449.76" font-family="Times,serif" font-size="14.00" fill="#990033">Hmmm. Thanks for the</text>
<text text-anchor="middle" x="445.5" y="-432.51" font-family="Times,serif" font-size="14.00" fill="#990033">info.</text>
</g>
<!-- bob7&#45;&gt;bob6 -->
<g id="edge19" class="edge">
<title>bob7&#45;&gt;bob6</title>
<path fill="none" stroke="#005f99" d="M965.3,-659.76C946.07,-670.81 925.52,-680.74 905,-687.53 855.12,-704.04 706.96,-668.95 669.25,-705.53 662.28,-712.29 658.14,-728.18 655.76,-747"/>
<polygon fill="#005f99" stroke="#005f99" points="652.19,-746.4 654.61,-756.72 659.15,-747.15 652.19,-746.4"/>
<text text-anchor="middle" x="758.88" y="-726.73" font-family="Times,serif" font-size="14.00" fill="#005f99">Why do you owe them so</text>
<text text-anchor="middle" x="758.88" y="-709.48" font-family="Times,serif" font-size="14.00" fill="#005f99">much money?</text>
</g>
<!-- bob7&#45;&gt;bob8 -->
<g id="edge20" class="edge">
<title>bob7&#45;&gt;bob8</title>
<path fill="none" stroke="#8c9900" d="M986.78,-497.28C977.08,-485.98 967.51,-474.39 958.75,-463.06 947.52,-448.52 948.13,-442.35 936,-428.56 915.48,-405.21 891.73,-382.14 868.01,-360.89"/>
<polygon fill="#8c9900" stroke="#8c9900" points="870.77,-358.78 860.97,-354.76 866.13,-364.02 870.77,-358.78"/>
<text text-anchor="middle" x="1048.62" y="-449.76" font-family="Times,serif" font-size="14.00" fill="#8c9900">How much money do you</text>
<text text-anchor="middle" x="1048.62" y="-432.51" font-family="Times,serif" font-size="14.00" fill="#8c9900">owe?</text>
</g>
<!-- bob7&#45;&gt;bobend -->
<g id="edge21" class="edge">
<title>bob7&#45;&gt;bobend</title>
<path fill="none" stroke="#790099" d="M1128.03,-489.81C1131.97,-481.01 1135.4,-472.02 1138,-463.06 1160.79,-384.53 1155.43,-131.47 1152.92,-46.85"/>
<polygon fill="#790099" stroke="#790099" points="1156.39,-46.95 1152.59,-37.07 1149.4,-47.17 1156.39,-46.95"/>
<text text-anchor="middle" x="1238.5" y="-262.48" font-family="Times,serif" font-size="14.00" fill="#790099">Hmmm. Thanks for the</text>
<text text-anchor="middle" x="1238.5" y="-245.23" font-family="Times,serif" font-size="14.00" fill="#790099">info.</text>
</g>
<!-- bob8&#45;&gt;bob6 -->
<g id="edge22" class="edge">
<title>bob8&#45;&gt;bob6</title>
<path fill="none" stroke="#00994d" d="M734.03,-410.91C728.23,-525.01 717.8,-665.5 701,-687.53 687.19,-705.65 665.98,-686.8 653,-705.53 644.44,-717.89 639.99,-732.41 638.2,-747.37"/>
<polygon fill="#00994d" stroke="#00994d" points="634.63,-747.07 637.34,-757.32 641.61,-747.62 634.63,-747.07"/>
<text text-anchor="middle" x="818.88" y="-588.24" font-family="Times,serif" font-size="14.00" fill="#00994d">Why do you owe them so</text>
<text text-anchor="middle" x="818.88" y="-570.99" font-family="Times,serif" font-size="14.00" fill="#00994d">much money?</text>
</g>
<!-- bob8&#45;&gt;bob7 -->
<g id="edge23" class="edge">
<title>bob8&#45;&gt;bob7</title>
<path fill="none" stroke="#992000" d="M736.87,-410.97C739.35,-434.48 744.17,-453.99 752.75,-463.06 776.17,-487.8 872.89,-469.68 905,-481.06 921.9,-487.04 938.87,-495.04 955.13,-503.94"/>
<polygon fill="#992000" stroke="#992000" points="953.18,-507.42 963.61,-509.28 956.62,-501.32 953.18,-507.42"/>
<text text-anchor="middle" x="842.62" y="-449.76" font-family="Times,serif" font-size="14.00" fill="#992000">Who at the casino do you</text>
<text text-anchor="middle" x="842.62" y="-432.51" font-family="Times,serif" font-size="14.00" fill="#992000">owe this money to?</text>
</g>
<!-- bob8&#45;&gt;bobend -->
<g id="edge24" class="edge">
<title>bob8&#45;&gt;bobend</title>
<path fill="none" stroke="#000c99" d="M843.85,-146.04C881.43,-111.69 926.21,-76.92 973,-54 1018.23,-31.84 1076.35,-23.71 1113.88,-20.72"/>
<polygon fill="#000c99" stroke="#000c99" points="1114.11,-24.15 1123.84,-19.95 1113.62,-17.16 1114.11,-24.15"/>
<text text-anchor="middle" x="1055.5" y="-75.2" font-family="Times,serif" font-size="14.00" fill="#000c99">Hmmm. Thanks for the</text>
<text text-anchor="middle" x="1055.5" y="-57.95" font-family="Times,serif" font-size="14.00" fill="#000c99">info.</text>
</g>
<!-- bob11&#45;&gt;bobend -->
<g id="edge29" class="edge">
<title>bob11&#45;&gt;bobend</title>
<path fill="none" stroke="#460099" d="M1615.53,-1400.95C1642.64,-1386.05 1675.46,-1370.25 1707,-1360.77 1740.84,-1350.6 1840.52,-1368.26 1865,-1342.77 1924.06,-1281.28 1879,-1236.7 1879,-1151.44 1879,-1151.44 1879,-1151.44 1879,-257.53 1879,-153.44 1791.17,-156.73 1700,-106.5 1632.23,-69.16 1609.85,-69.28 1534,-54 1409.7,-28.95 1258.99,-21.8 1189.91,-19.78"/>
<polygon fill="#460099" stroke="#460099" points="1190.24,-16.26 1180.15,-19.49 1190.05,-23.26 1190.24,-16.26"/>
<text text-anchor="middle" x="1923.62" y="-718.11" font-family="Times,serif" font-size="14.00" fill="#460099">Oh, Ok. Bye.</text>
</g>
<!-- bob12 -->
<g id="node17" class="node">
<title>bob12</title>
<ellipse fill="#ffffff" stroke="#000000" cx="1092" cy="-1150.44" rx="140.71" ry="42.25"/>
<text text-anchor="middle" x="1092" y="-1163.02" font-family="Times,serif" font-size="14.00">Well, I got into some</text>
<text text-anchor="middle" x="1092" y="-1145.77" font-family="Times,serif" font-size="14.00">trouble there. I owe them</text>
<text text-anchor="middle" x="1092" y="-1128.52" font-family="Times,serif" font-size="14.00">a lot of money.</text>
</g>
<!-- bob11&#45;&gt;bob12 -->
<g id="edge30" class="edge">
<title>bob11&#45;&gt;bob12</title>
<path fill="none" stroke="#00991a" d="M1493.6,-1401.07C1408.09,-1347.92 1252.09,-1250.95 1161.75,-1194.8"/>
<polygon fill="#00991a" stroke="#00991a" points="1163.75,-1191.3 1153.41,-1188.99 1160.06,-1197.25 1163.75,-1191.3"/>
<text text-anchor="middle" x="1411.5" y="-1320.85" font-family="Times,serif" font-size="14.00" fill="#00991a">Why?</text>
</g>
<!-- bob12&#45;&gt;bob6 -->
<g id="edge31" class="edge">
<title>bob12&#45;&gt;bob6</title>
<path fill="none" stroke="#990013" d="M969.95,-1129.26C883.33,-1108.86 770.25,-1068.96 699.25,-992.61 688.01,-980.52 679.56,-965.65 673.21,-950.12"/>
<polygon fill="#990013" stroke="#990013" points="676.14,-948.96 669.33,-940.84 669.59,-951.43 676.14,-948.96"/>
<text text-anchor="middle" x="788.88" y="-979.31" font-family="Times,serif" font-size="14.00" fill="#990013">Why do you owe them so</text>
<text text-anchor="middle" x="788.88" y="-962.06" font-family="Times,serif" font-size="14.00" fill="#990013">much money?</text>
</g>
<!-- bob12&#45;&gt;bob7 -->
<g id="edge32" class="edge">
<title>bob12&#45;&gt;bob7</title>
<path fill="none" stroke="#004099" d="M1091.52,-1107.79C1090.42,-1029.11 1087.08,-853.3 1078,-705.53 1077.85,-703.15 1077.7,-700.75 1077.54,-698.32"/>
<polygon fill="#004099" stroke="#004099" points="1080.97,-698.32 1076.78,-688.59 1073.99,-698.81 1080.97,-698.32"/>
<text text-anchor="middle" x="1177.62" y="-853.02" font-family="Times,serif" font-size="14.00" fill="#004099">Who at the casino do you</text>
<text text-anchor="middle" x="1177.62" y="-835.77" font-family="Times,serif" font-size="14.00" fill="#004099">owe this money to?</text>
</g>
<!-- bob12&#45;&gt;bob8 -->
<g id="edge33" class="edge">
<title>bob12&#45;&gt;bob8</title>
<path fill="none" stroke="#6c9900" d="M995.86,-1119.4C893.8,-1088.44 727.35,-1040.58 581,-1010.61 552.64,-1004.81 472.47,-1013.08 452,-992.61 361.1,-901.71 398.37,-832.76 416.75,-705.53 431.63,-602.58 433.33,-572.45 483,-481.06 511.33,-428.92 557.16,-383.52 602.33,-347.62"/>
<polygon fill="#6c9900" stroke="#6c9900" points="604.03,-349.94 609.75,-341.02 599.72,-344.43 604.03,-349.94"/>
<text text-anchor="middle" x="506.62" y="-726.73" font-family="Times,serif" font-size="14.00" fill="#6c9900">How much money do you</text>
<text text-anchor="middle" x="506.62" y="-709.48" font-family="Times,serif" font-size="14.00" fill="#6c9900">owe?</text>
</g>
<!-- bob12&#45;&gt;bobend -->
<g id="edge34" class="edge">
<title>bob12&#45;&gt;bobend</title>
<path fill="none" stroke="#990099" d="M1138.75,-1110.33C1181.21,-1071.82 1241.55,-1008.9 1271,-940.11 1317.56,-831.37 1318.99,-528.69 1325,-410.56 1331.86,-275.59 1395.78,-221.62 1325,-106.5 1295.37,-58.31 1230.06,-35.68 1188.71,-25.82"/>
<polygon fill="#990099" stroke="#990099" points="1189.51,-22.19 1178.98,-23.42 1187.98,-29.02 1189.51,-22.19"/>
<text text-anchor="middle" x="1405.5" y="-588.24" font-family="Times,serif" font-size="14.00" fill="#990099">Hmmm. Thanks for the</text>
<text text-anchor="middle" x="1405.5" y="-570.99" font-family="Times,serif" font-size="14.00" fill="#990099">info.</text>
</g>
<!-- bob16&#45;&gt;bob6 -->
<g id="edge39" class="edge">
<title>bob16&#45;&gt;bob6</title>
<path fill="none" stroke="#990046" d="M430.17,-1107.9C432.32,-1066.34 441.17,-1002.37 473.25,-958.11 487.71,-938.17 507.07,-921.24 527.76,-907.12"/>
<polygon fill="#990046" stroke="#990046" points="529.27,-909.66 535.7,-901.24 525.42,-903.81 529.27,-909.66"/>
<text text-anchor="middle" x="562.88" y="-979.31" font-family="Times,serif" font-size="14.00" fill="#990046">Why do you owe them so</text>
<text text-anchor="middle" x="562.88" y="-962.06" font-family="Times,serif" font-size="14.00" fill="#990046">much money?</text>
</g>
<!-- bob16&#45;&gt;bob7 -->
<g id="edge40" class="edge">
<title>bob16&#45;&gt;bob7</title>
<path fill="none" stroke="#007399" d="M491.51,-1112.26C537.83,-1082.77 601.57,-1038.94 651,-992.61 665.41,-979.11 661.81,-967.84 679,-958.11 728.62,-930.04 759.68,-973.35 806,-940.11 879.62,-887.28 823.46,-809.92 897.75,-758.03 926.22,-738.14 1028.75,-764.9 1053,-740.03 1064.35,-728.39 1071.14,-713.64 1074.87,-697.91"/>
<polygon fill="#007399" stroke="#007399" points="1078.43,-698.93 1076.9,-688.45 1071.56,-697.6 1078.43,-698.93"/>
<text text-anchor="middle" x="987.62" y="-853.02" font-family="Times,serif" font-size="14.00" fill="#007399">Who at the casino do you</text>
<text text-anchor="middle" x="987.62" y="-835.77" font-family="Times,serif" font-size="14.00" fill="#007399">owe this money to?</text>
</g>
<!-- bob16&#45;&gt;bob8 -->
<g id="edge41" class="edge">
<title>bob16&#45;&gt;bob8</title>
<path fill="none" stroke="#999300" d="M396.86,-1109.11C341.79,-1039.2 233.56,-888.66 193.75,-740.03 163.53,-627.2 147.59,-568.48 281,-428.56 358.74,-347.02 479.18,-304.6 577.18,-282.65"/>
<polygon fill="#999300" stroke="#999300" points="577.77,-285.88 586.8,-280.33 576.28,-279.04 577.77,-285.88"/>
<text text-anchor="middle" x="283.62" y="-726.73" font-family="Times,serif" font-size="14.00" fill="#999300">How much money do you</text>
<text text-anchor="middle" x="283.62" y="-709.48" font-family="Times,serif" font-size="14.00" fill="#999300">owe?</text>
</g>
<!-- bob16&#45;&gt;bobend -->
<g id="edge42" class="edge">
<title>bob16&#45;&gt;bobend</title>
<path fill="none" stroke="#660099" d="M318.98,-1123.71C191.58,-1086.82 0,-1005.5 0,-850.07 0,-850.07 0,-850.07 0,-257.53 0,-24.62 914.36,-17.39 1113.86,-18.58"/>
<polygon fill="#660099" stroke="#660099" points="1113.63,-22.09 1123.66,-18.66 1113.69,-15.09 1113.63,-22.09"/>
<text text-anchor="middle" x="82.5" y="-588.24" font-family="Times,serif" font-size="14.00" fill="#660099">Hmmm. Thanks for the</text>
<text text-anchor="middle" x="82.5" y="-570.99" font-family="Times,serif" font-size="14.00" fill="#660099">info.</text>
</g>
<!-- combat -->
<g id="node21" class="node">
<title>combat</title>
<ellipse fill="#ffffff" stroke="#000000" cx="1636" cy="-1862.3" rx="27" ry="18"/>
</g>
<!-- damage_p_proc -->
<g id="node22" class="node">
<title>damage_p_proc</title>
<ellipse fill="#ffffff" stroke="#000000" cx="1708" cy="-1862.3" rx="27" ry="18"/>
</g>
<!-- destroy_p_proc -->
<g id="node23" class="node">
<title>destroy_p_proc</title>
<ellipse fill="#ffffff" stroke="#000000" cx="1780" cy="-1862.3" rx="27" ry="18"/>
</g>
</g>
</svg>
