<?xml version="1.0" encoding="UTF-8" standalone="no"?>
<!DOCTYPE svg PUBLIC "-//W3C//DTD SVG 1.1//EN"
 "http://www.w3.org/Graphics/SVG/1.1/DTD/svg11.dtd">
<!-- Generated by graphviz version 8.0.5 (0)
 -->
<!-- Title: JUNKDOG Pages: 1 -->
<svg width="1235pt" height="334pt"
 viewBox="0.00 0.00 1235.44 333.79" xmlns="http://www.w3.org/2000/svg" xmlns:xlink="http://www.w3.org/1999/xlink">
<g id="graph0" class="graph" transform="scale(1 1) rotate(0) translate(4 329.79)">
<title>JUNKDOG</title>
<polygon fill="white" stroke="none" points="-4,4 -4,-329.79 1231.44,-329.79 1231.44,4 -4,4"/>
<!-- start -->
<g id="node1" class="node">
<title>start</title>
<ellipse fill="#ffffff" stroke="#000000" cx="701.05" cy="-307.79" rx="27" ry="18"/>
</g>
<!-- critter_p_proc -->
<g id="node2" class="node">
<title>critter_p_proc</title>
<ellipse fill="#ffffff" stroke="#000000" cx="129.05" cy="-199.34" rx="129.05" ry="30.05"/>
<text text-anchor="middle" x="129.05" y="-203.29" font-family="Times,serif" font-size="14.00">The dog seems to think</text>
<text text-anchor="middle" x="129.05" y="-186.04" font-family="Times,serif" font-size="14.00">you are his owner.</text>
</g>
<!-- start&#45;&gt;critter_p_proc -->
<g id="edge1" class="edge">
<title>start&#45;&gt;critter_p_proc</title>
<path fill="none" stroke="#555555" stroke-dasharray="1,5" d="M673.96,-305.81C605.03,-302.82 417.81,-291.56 267.05,-253.79 243.81,-247.97 219.2,-239.3 197.29,-230.62"/>
<polygon fill="#555555" stroke="#555555" points="198.68,-227.01 188.1,-226.52 196.06,-233.5 198.68,-227.01"/>
</g>
<!-- destroy_p_proc -->
<g id="node3" class="node">
<title>destroy_p_proc</title>
<ellipse fill="#ffffff" stroke="#000000" cx="303.05" cy="-199.34" rx="27" ry="18"/>
</g>
<!-- start&#45;&gt;destroy_p_proc -->
<g id="edge2" class="edge">
<title>start&#45;&gt;destroy_p_proc</title>
<path fill="none" stroke="#555555" stroke-dasharray="1,5" d="M673.8,-305.62C599.48,-302 395.02,-289.02 339.05,-253.79 328.82,-247.35 320.82,-236.84 314.98,-226.82"/>
<polygon fill="#555555" stroke="#555555" points="317.63,-225.36 309.86,-218.15 311.44,-228.63 317.63,-225.36"/>
</g>
<!-- look_at_p_proc -->
<g id="node4" class="node">
<title>look_at_p_proc</title>
<ellipse fill="#ffffff" stroke="#000000" cx="484.05" cy="-199.34" rx="135.94" ry="54.45"/>
<text text-anchor="middle" x="484.05" y="-220.54" font-family="Times,serif" font-size="14.00">You see a dog. He seems</text>
<text text-anchor="middle" x="484.05" y="-203.29" font-family="Times,serif" font-size="14.00">to be following you.</text>
<text text-anchor="middle" x="484.05" y="-186.04" font-family="Times,serif" font-size="14.00">&#45;&#45;&#45;</text>
<text text-anchor="middle" x="484.05" y="-168.79" font-family="Times,serif" font-size="14.00">You see a dog.</text>
</g>
<!-- start&#45;&gt;look_at_p_proc -->
<g id="edge3" class="edge">
<title>start&#45;&gt;look_at_p_proc</title>
<path fill="none" stroke="#555555" stroke-dasharray="1,5" d="M679.85,-296.39C656.2,-284.79 616.32,-265.23 578.7,-246.77"/>
<polygon fill="#555555" stroke="#555555" points="580.71,-243.37 570.19,-242.11 577.63,-249.65 580.71,-243.37"/>
</g>
<!-- map_enter_p_proc -->
<g id="node5" class="node">
<title>map_enter_p_proc</title>
<ellipse fill="#ffffff" stroke="#000000" cx="665.05" cy="-199.34" rx="27" ry="18"/>
</g>
<!-- start&#45;&gt;map_enter_p_proc -->
<g id="edge4" class="edge">
<title>start&#45;&gt;map_enter_p_proc</title>
<path fill="none" stroke="#555555" stroke-dasharray="1,5" d="M695.42,-290.16C689.75,-273.38 680.9,-247.21 674.21,-227.44"/>
<polygon fill="#555555" stroke="#555555" points="677.27,-226.56 670.75,-218.21 670.64,-228.8 677.27,-226.56"/>
</g>
<!-- pickup_p_proc -->
<g id="node6" class="node">
<title>pickup_p_proc</title>
<ellipse fill="#ffffff" stroke="#000000" cx="737.05" cy="-199.34" rx="27" ry="18"/>
</g>
<!-- start&#45;&gt;pickup_p_proc -->
<g id="edge5" class="edge">
<title>start&#45;&gt;pickup_p_proc</title>
<path fill="none" stroke="#555555" stroke-dasharray="1,5" d="M706.67,-290.16C712.35,-273.38 721.2,-247.21 727.88,-227.44"/>
<polygon fill="#555555" stroke="#555555" points="731.45,-228.8 731.34,-218.21 724.82,-226.56 731.45,-228.8"/>
</g>
<!-- talk_p_proc -->
<g id="node7" class="node">
<title>talk_p_proc</title>
<ellipse fill="#ffffff" stroke="#000000" cx="823.05" cy="-199.34" rx="40.69" ry="18"/>
<text text-anchor="middle" x="823.05" y="-194.67" font-family="Times,serif" font-size="14.00">Woof!</text>
</g>
<!-- start&#45;&gt;talk_p_proc -->
<g id="edge6" class="edge">
<title>start&#45;&gt;talk_p_proc</title>
<path fill="none" stroke="#555555" stroke-dasharray="1,5" d="M719.82,-294.39C734.78,-284.17 755.99,-268.95 773.05,-253.79 783.18,-244.78 793.56,-233.99 802.21,-224.47"/>
<polygon fill="#555555" stroke="#555555" points="804.27,-227.3 808.32,-217.51 799.05,-222.64 804.27,-227.3"/>
</g>
<!-- timed_event_p_proc -->
<g id="node8" class="node">
<title>timed_event_p_proc</title>
<ellipse fill="#ffffff" stroke="#000000" cx="919.05" cy="-199.34" rx="37.53" ry="18"/>
<text text-anchor="middle" x="919.05" y="-194.67" font-family="Times,serif" font-size="14.00">Grrr!</text>
</g>
<!-- start&#45;&gt;timed_event_p_proc -->
<g id="edge7" class="edge">
<title>start&#45;&gt;timed_event_p_proc</title>
<path fill="none" stroke="#555555" stroke-dasharray="1,5" d="M727.46,-303.32C762.99,-297.66 827.03,-283.91 873.05,-253.79 884.18,-246.5 894.16,-235.76 901.95,-225.82"/>
<polygon fill="#555555" stroke="#555555" points="905.32,-228.15 908.46,-218.03 899.69,-223.98 905.32,-228.15"/>
</g>
<!-- use_obj_on_p_proc -->
<g id="node9" class="node">
<title>use_obj_on_p_proc</title>
<ellipse fill="#ffffff" stroke="#000000" cx="1101.05" cy="-199.34" rx="126.4" ry="42.25"/>
<text text-anchor="middle" x="1101.05" y="-211.92" font-family="Times,serif" font-size="14.00">It seems that you have</text>
<text text-anchor="middle" x="1101.05" y="-194.67" font-family="Times,serif" font-size="14.00">made a friend of this</text>
<text text-anchor="middle" x="1101.05" y="-177.42" font-family="Times,serif" font-size="14.00">dog.</text>
</g>
<!-- start&#45;&gt;use_obj_on_p_proc -->
<g id="edge8" class="edge">
<title>start&#45;&gt;use_obj_on_p_proc</title>
<path fill="none" stroke="#555555" stroke-dasharray="1,5" d="M727.38,-303.13C775.44,-296.09 880.33,-279.11 966.05,-253.79 982.06,-249.06 998.83,-243.2 1014.89,-237.11"/>
<polygon fill="#555555" stroke="#555555" points="1015.71,-240.16 1023.78,-233.29 1013.19,-233.62 1015.71,-240.16"/>
</g>
<!-- dog_joins_dude -->
<g id="node10" class="node">
<title>dog_joins_dude</title>
<ellipse fill="#ffffff" stroke="#000000" cx="615.05" cy="-54.45" rx="134.88" ry="54.45"/>
<text text-anchor="middle" x="615.05" y="-75.65" font-family="Times,serif" font-size="14.00">You gain 100 experience</text>
<text text-anchor="middle" x="615.05" y="-58.4" font-family="Times,serif" font-size="14.00">points for helping Phil</text>
<text text-anchor="middle" x="615.05" y="-41.15" font-family="Times,serif" font-size="14.00">solve his canine</text>
<text text-anchor="middle" x="615.05" y="-23.9" font-family="Times,serif" font-size="14.00">conundrum.</text>
</g>
<!-- critter_p_proc&#45;&gt;dog_joins_dude -->
<g id="edge9" class="edge">
<title>critter_p_proc&#45;&gt;dog_joins_dude</title>
<path fill="none" stroke="#555555" stroke-dasharray="1,5" d="M191,-172.55C214.59,-163.21 241.85,-152.98 267.05,-144.89 339.21,-121.73 421.27,-100.41 487.57,-84.4"/>
<polygon fill="#555555" stroke="#555555" points="488.16,-87.61 497.07,-81.87 486.53,-80.81 488.16,-87.61"/>
</g>
<!-- use_obj_on_p_proc&#45;&gt;dog_joins_dude -->
<g id="edge10" class="edge">
<title>use_obj_on_p_proc&#45;&gt;dog_joins_dude</title>
<path fill="none" stroke="#555555" stroke-dasharray="1,5" d="M1023.49,-165.68C1004.85,-158.38 984.87,-150.99 966.05,-144.89 893.22,-121.3 810.28,-99.92 743.32,-83.98"/>
<polygon fill="#555555" stroke="#555555" points="744.25,-80.37 733.71,-81.47 742.64,-87.18 744.25,-80.37"/>
</g>
</g>
</svg>
