<?xml version="1.0" encoding="UTF-8" standalone="no"?>
<!DOCTYPE svg PUBLIC "-//W3C//DTD SVG 1.1//EN"
 "http://www.w3.org/Graphics/SVG/1.1/DTD/svg11.dtd">
<!-- Generated by graphviz version 8.0.5 (0)
 -->
<!-- Title: JUNKJAIL Pages: 1 -->
<svg width="912pt" height="553pt"
 viewBox="0.00 0.00 912.38 553.35" xmlns="http://www.w3.org/2000/svg" xmlns:xlink="http://www.w3.org/1999/xlink">
<g id="graph0" class="graph" transform="scale(1 1) rotate(0) translate(4 549.35)">
<title>JUNKJAIL</title>
<polygon fill="white" stroke="none" points="-4,4 -4,-549.35 908.38,-549.35 908.38,4 -4,4"/>
<!-- start -->
<g id="node1" class="node">
<title>start</title>
<ellipse fill="#ffffff" stroke="#000000" cx="481" cy="-527.35" rx="27" ry="18"/>
</g>
<!-- damage_p_proc -->
<g id="node2" class="node">
<title>damage_p_proc</title>
<ellipse fill="#ffffff" stroke="#000000" cx="27" cy="-370.11" rx="27" ry="18"/>
</g>
<!-- start&#45;&gt;damage_p_proc -->
<g id="edge1" class="edge">
<title>start&#45;&gt;damage_p_proc</title>
<path fill="none" stroke="#555555" stroke-dasharray="1,5" d="M453.55,-526.5C370.4,-526.44 123.33,-522.05 63,-473.35 40.73,-455.37 32.21,-422.66 28.97,-399.07"/>
<polygon fill="#555555" stroke="#555555" points="32.36,-398.88 27.76,-389.33 25.4,-399.66 32.36,-398.88"/>
</g>
<!-- description_p_proc -->
<g id="node3" class="node">
<title>description_p_proc</title>
<ellipse fill="#ffffff" stroke="#000000" cx="209" cy="-370.11" rx="137" ry="54.45"/>
<text text-anchor="middle" x="209" y="-391.31" font-family="Times,serif" font-size="14.00">The door looks solid, and</text>
<text text-anchor="middle" x="209" y="-374.06" font-family="Times,serif" font-size="14.00">has a stout lock. Still,</text>
<text text-anchor="middle" x="209" y="-356.81" font-family="Times,serif" font-size="14.00">locks can be picked, and</text>
<text text-anchor="middle" x="209" y="-339.56" font-family="Times,serif" font-size="14.00"> doors can be destroyed.</text>
</g>
<!-- start&#45;&gt;description_p_proc -->
<g id="edge2" class="edge">
<title>start&#45;&gt;description_p_proc</title>
<path fill="none" stroke="#555555" stroke-dasharray="1,5" d="M457.55,-518.19C431.71,-508.82 389.28,-492.27 355,-473.35 329.54,-459.29 303.09,-441.77 279.82,-425.23"/>
<polygon fill="#555555" stroke="#555555" points="282.23,-421.93 272.06,-418.95 278.15,-427.62 282.23,-421.93"/>
</g>
<!-- map_enter_p_proc -->
<g id="node4" class="node">
<title>map_enter_p_proc</title>
<ellipse fill="#ffffff" stroke="#000000" cx="391" cy="-370.11" rx="27" ry="18"/>
</g>
<!-- start&#45;&gt;map_enter_p_proc -->
<g id="edge3" class="edge">
<title>start&#45;&gt;map_enter_p_proc</title>
<path fill="none" stroke="#555555" stroke-dasharray="1,5" d="M463.87,-513.12C452.1,-503.26 436.87,-488.86 427,-473.35 412.27,-450.2 402.64,-420.26 397.08,-398.77"/>
<polygon fill="#555555" stroke="#555555" points="400.25,-397.97 394.47,-389.09 393.45,-399.63 400.25,-397.97"/>
</g>
<!-- spatial_p_proc -->
<g id="node5" class="node">
<title>spatial_p_proc</title>
<ellipse fill="#ffffff" stroke="#000000" cx="571" cy="-370.11" rx="134.88" ry="103.24"/>
<text text-anchor="middle" x="571" y="-425.81" font-family="Times,serif" font-size="14.00">You have broken out of</text>
<text text-anchor="middle" x="571" y="-408.56" font-family="Times,serif" font-size="14.00">the jail. You&#39;re now</text>
<text text-anchor="middle" x="571" y="-391.31" font-family="Times,serif" font-size="14.00">definitely a fugitive in</text>
<text text-anchor="middle" x="571" y="-374.06" font-family="Times,serif" font-size="14.00"> Junktown!</text>
<text text-anchor="middle" x="571" y="-356.81" font-family="Times,serif" font-size="14.00">&#45;&#45;&#45;</text>
<text text-anchor="middle" x="571" y="-339.56" font-family="Times,serif" font-size="14.00">You gain 250 experience</text>
<text text-anchor="middle" x="571" y="-322.31" font-family="Times,serif" font-size="14.00">points for busting out of</text>
<text text-anchor="middle" x="571" y="-305.06" font-family="Times,serif" font-size="14.00">jail!</text>
</g>
<!-- start&#45;&gt;spatial_p_proc -->
<g id="edge4" class="edge">
<title>start&#45;&gt;spatial_p_proc</title>
<path fill="none" stroke="#555555" stroke-dasharray="1,5" d="M490.46,-510.03C495.9,-500.64 503.25,-487.97 511.3,-474.08"/>
<polygon fill="#555555" stroke="#555555" points="514.69,-476.21 516.68,-465.8 508.64,-472.7 514.69,-476.21"/>
</g>
<!-- use_obj_on_p_proc -->
<g id="node6" class="node">
<title>use_obj_on_p_proc</title>
<ellipse fill="#ffffff" stroke="#000000" cx="751" cy="-370.11" rx="27" ry="18"/>
</g>
<!-- start&#45;&gt;use_obj_on_p_proc -->
<g id="edge5" class="edge">
<title>start&#45;&gt;use_obj_on_p_proc</title>
<path fill="none" stroke="#555555" stroke-dasharray="1,5" d="M501.57,-515.51C506.52,-513.21 511.87,-510.99 517,-509.35 602.17,-482.02 646.94,-531.38 715,-473.35 736.66,-454.88 745.29,-422.55 748.73,-399.18"/>
<polygon fill="#555555" stroke="#555555" points="752.29,-399.88 750.03,-389.52 745.34,-399.02 752.29,-399.88"/>
</g>
<!-- use_skill_on_p_proc -->
<g id="node7" class="node">
<title>use_skill_on_p_proc</title>
<ellipse fill="#ffffff" stroke="#000000" cx="823" cy="-370.11" rx="27" ry="18"/>
</g>
<!-- start&#45;&gt;use_skill_on_p_proc -->
<g id="edge6" class="edge">
<title>start&#45;&gt;use_skill_on_p_proc</title>
<path fill="none" stroke="#555555" stroke-dasharray="1,5" d="M501.51,-515.33C506.47,-513.05 511.83,-510.87 517,-509.35 633.11,-475.09 693.05,-549.69 787,-473.35 809.21,-455.29 817.74,-422.6 821,-399.04"/>
<polygon fill="#555555" stroke="#555555" points="824.57,-399.64 822.22,-389.31 817.61,-398.85 824.57,-399.64"/>
</g>
<!-- lockpicking -->
<g id="node8" class="node">
<title>lockpicking</title>
<ellipse fill="#ffffff" stroke="#000000" cx="787" cy="-115.44" rx="117.38" ry="115.44"/>
<text text-anchor="middle" x="787" y="-179.76" font-family="Times,serif" font-size="14.00">You unlock the door.</text>
<text text-anchor="middle" x="787" y="-162.51" font-family="Times,serif" font-size="14.00">&#45;&#45;&#45;</text>
<text text-anchor="middle" x="787" y="-145.26" font-family="Times,serif" font-size="14.00">You lock the door.</text>
<text text-anchor="middle" x="787" y="-128.01" font-family="Times,serif" font-size="14.00">&#45;&#45;&#45;</text>
<text text-anchor="middle" x="787" y="-110.76" font-family="Times,serif" font-size="14.00">You fail to unlock the</text>
<text text-anchor="middle" x="787" y="-93.51" font-family="Times,serif" font-size="14.00">door.</text>
<text text-anchor="middle" x="787" y="-76.26" font-family="Times,serif" font-size="14.00">&#45;&#45;&#45;</text>
<text text-anchor="middle" x="787" y="-59.01" font-family="Times,serif" font-size="14.00">You fail to lock the</text>
<text text-anchor="middle" x="787" y="-41.76" font-family="Times,serif" font-size="14.00">door.</text>
</g>
<!-- use_obj_on_p_proc&#45;&gt;lockpicking -->
<g id="edge7" class="edge">
<title>use_obj_on_p_proc&#45;&gt;lockpicking</title>
<path fill="none" stroke="#555555" stroke-dasharray="1,5" d="M753.47,-351.74C756.81,-328.31 763.06,-284.46 769.26,-240.91"/>
<polygon fill="#555555" stroke="#555555" points="772.85,-241.55 770.8,-231.16 765.92,-240.56 772.85,-241.55"/>
</g>
<!-- use_skill_on_p_proc&#45;&gt;lockpicking -->
<g id="edge8" class="edge">
<title>use_skill_on_p_proc&#45;&gt;lockpicking</title>
<path fill="none" stroke="#555555" stroke-dasharray="1,5" d="M820.53,-351.74C817.19,-328.31 810.94,-284.46 804.74,-240.91"/>
<polygon fill="#555555" stroke="#555555" points="808.08,-240.56 803.2,-231.16 801.15,-241.55 808.08,-240.56"/>
</g>
<!-- use_p_proc -->
<g id="node9" class="node">
<title>use_p_proc</title>
<ellipse fill="#ffffff" stroke="#000000" cx="631" cy="-527.35" rx="105.4" ry="18"/>
<text text-anchor="middle" x="631" y="-522.67" font-family="Times,serif" font-size="14.00">The door is locked.</text>
</g>
</g>
</svg>
