<?xml version="1.0" encoding="UTF-8" standalone="no"?>
<!DOCTYPE svg PUBLIC "-//W3C//DTD SVG 1.1//EN"
 "http://www.w3.org/Graphics/SVG/1.1/DTD/svg11.dtd">
<!-- Generated by graphviz version 8.0.5 (0)
 -->
<!-- Title: JUNKIE Pages: 1 -->
<svg width="1066pt" height="382pt"
 viewBox="0.00 0.00 1065.88 381.68" xmlns="http://www.w3.org/2000/svg" xmlns:xlink="http://www.w3.org/1999/xlink">
<g id="graph0" class="graph" transform="scale(1 1) rotate(0) translate(4 377.68)">
<title>JUNKIE</title>
<polygon fill="white" stroke="none" points="-4,4 -4,-377.68 1061.88,-377.68 1061.88,4 -4,4"/>
<!-- start -->
<g id="node1" class="node">
<title>start</title>
<ellipse fill="#ffffff" stroke="#000000" cx="434.88" cy="-355.68" rx="27" ry="18"/>
</g>
<!-- look_at_p_proc -->
<g id="node2" class="node">
<title>look_at_p_proc</title>
<ellipse fill="#ffffff" stroke="#000000" cx="94.88" cy="-222.84" rx="94.88" ry="18"/>
<text text-anchor="middle" x="94.88" y="-218.17" font-family="Times,serif" font-size="14.00">You see a junkie.</text>
</g>
<!-- start&#45;&gt;look_at_p_proc -->
<g id="edge1" class="edge">
<title>start&#45;&gt;look_at_p_proc</title>
<path fill="none" stroke="#555555" stroke-dasharray="1,5" d="M407.87,-352.33C362.75,-347.61 270.01,-334.46 198.88,-301.68 169.48,-288.14 140.36,-265.32 120.45,-247.88"/>
<polygon fill="#555555" stroke="#555555" points="123.29,-245.84 113.5,-241.78 118.62,-251.05 123.29,-245.84"/>
</g>
<!-- pickup_p_proc -->
<g id="node3" class="node">
<title>pickup_p_proc</title>
<ellipse fill="#ffffff" stroke="#000000" cx="234.88" cy="-222.84" rx="27" ry="18"/>
</g>
<!-- start&#45;&gt;pickup_p_proc -->
<g id="edge2" class="edge">
<title>start&#45;&gt;pickup_p_proc</title>
<path fill="none" stroke="#555555" stroke-dasharray="1,5" d="M407.78,-352.55C372.31,-348.43 310.07,-336.41 270.88,-301.68 256.07,-288.56 246.93,-268.09 241.57,-251.43"/>
<polygon fill="#555555" stroke="#555555" points="244.73,-250.77 238.57,-242.15 238.01,-252.73 244.73,-250.77"/>
</g>
<!-- talk_p_proc -->
<g id="node4" class="node">
<title>talk_p_proc</title>
<ellipse fill="#ffffff" stroke="#000000" cx="434.88" cy="-222.84" rx="154.5" ry="78.84"/>
<text text-anchor="middle" x="434.88" y="-261.29" font-family="Times,serif" font-size="14.00">Look at the colors!</text>
<text text-anchor="middle" x="434.88" y="-244.04" font-family="Times,serif" font-size="14.00">&#45;&#45;&#45;</text>
<text text-anchor="middle" x="434.88" y="-226.79" font-family="Times,serif" font-size="14.00">Ohhhhh wowwwwwww! &#160;I&#39;m</text>
<text text-anchor="middle" x="434.88" y="-209.54" font-family="Times,serif" font-size="14.00">eating my own face...</text>
<text text-anchor="middle" x="434.88" y="-192.29" font-family="Times,serif" font-size="14.00">&#45;&#45;&#45;</text>
<text text-anchor="middle" x="434.88" y="-175.04" font-family="Times,serif" font-size="14.00">Mother?</text>
</g>
<!-- start&#45;&gt;talk_p_proc -->
<g id="edge3" class="edge">
<title>start&#45;&gt;talk_p_proc</title>
<path fill="none" stroke="#555555" stroke-dasharray="1,5" d="M434.88,-337.31C434.88,-330.46 434.88,-322.06 434.88,-312.94"/>
<polygon fill="#555555" stroke="#555555" points="438.38,-312.96 434.88,-302.96 431.38,-312.96 438.38,-312.96"/>
</g>
<!-- critter_p_proc -->
<g id="node5" class="node">
<title>critter_p_proc</title>
<ellipse fill="#ffffff" stroke="#000000" cx="634.88" cy="-222.84" rx="27" ry="18"/>
</g>
<!-- start&#45;&gt;critter_p_proc -->
<g id="edge4" class="edge">
<title>start&#45;&gt;critter_p_proc</title>
<path fill="none" stroke="#555555" stroke-dasharray="1,5" d="M461.97,-352.55C497.44,-348.43 559.68,-336.41 598.88,-301.68 613.68,-288.56 622.82,-268.09 628.18,-251.43"/>
<polygon fill="#555555" stroke="#555555" points="631.74,-252.73 631.18,-242.15 625.02,-250.77 631.74,-252.73"/>
</g>
<!-- destroy_p_proc -->
<g id="node6" class="node">
<title>destroy_p_proc</title>
<ellipse fill="#ffffff" stroke="#000000" cx="706.88" cy="-222.84" rx="27" ry="18"/>
</g>
<!-- start&#45;&gt;destroy_p_proc -->
<g id="edge5" class="edge">
<title>start&#45;&gt;destroy_p_proc</title>
<path fill="none" stroke="#555555" stroke-dasharray="1,5" d="M461.58,-351.68C516.29,-345.05 638.69,-327.67 670.88,-301.68 686.37,-289.18 695.49,-268.5 700.68,-251.6"/>
<polygon fill="#555555" stroke="#555555" points="704.28,-252.73 703.55,-242.16 697.53,-250.88 704.28,-252.73"/>
</g>
<!-- get_reaction -->
<g id="node8" class="node">
<title>get_reaction</title>
<ellipse fill="#ffffff" stroke="#000000" cx="434.88" cy="-90" rx="27" ry="18"/>
</g>
<!-- talk_p_proc&#45;&gt;get_reaction -->
<g id="edge6" class="edge">
<title>talk_p_proc&#45;&gt;get_reaction</title>
<path fill="none" stroke="#555555" stroke-dasharray="1,5" d="M434.88,-143.84C434.88,-135.08 434.88,-126.63 434.88,-119.15"/>
<polygon fill="#555555" stroke="#555555" points="438.38,-119.3 434.88,-109.3 431.38,-119.3 438.38,-119.3"/>
</g>
<!-- combat -->
<g id="node7" class="node">
<title>combat</title>
<ellipse fill="#ffffff" stroke="#000000" cx="606.88" cy="-355.68" rx="27" ry="18"/>
</g>
<!-- ReactToLevel -->
<g id="node9" class="node">
<title>ReactToLevel</title>
<ellipse fill="#ffffff" stroke="#000000" cx="578.88" cy="-18" rx="27" ry="18"/>
</g>
<!-- get_reaction&#45;&gt;ReactToLevel -->
<g id="edge7" class="edge">
<title>get_reaction&#45;&gt;ReactToLevel</title>
<path fill="none" stroke="#555555" stroke-dasharray="1,5" d="M456.43,-78.52C480.75,-66.7 520.5,-47.38 548.08,-33.97"/>
<polygon fill="#555555" stroke="#555555" points="549.18,-36.84 556.64,-29.32 546.12,-30.55 549.18,-36.84"/>
</g>
<!-- LevelToReact -->
<g id="node10" class="node">
<title>LevelToReact</title>
<ellipse fill="#ffffff" stroke="#000000" cx="778.88" cy="-222.84" rx="27" ry="18"/>
</g>
<!-- UpReact -->
<g id="node11" class="node">
<title>UpReact</title>
<ellipse fill="#ffffff" stroke="#000000" cx="506.88" cy="-90" rx="27" ry="18"/>
</g>
<!-- UpReact&#45;&gt;ReactToLevel -->
<g id="edge8" class="edge">
<title>UpReact&#45;&gt;ReactToLevel</title>
<path fill="none" stroke="#555555" stroke-dasharray="1,5" d="M521.79,-74.5C531.74,-64.83 544.99,-51.94 556.23,-41.02"/>
<polygon fill="#555555" stroke="#555555" points="558.25,-43.97 562.98,-34.49 553.37,-38.95 558.25,-43.97"/>
</g>
<!-- DownReact -->
<g id="node12" class="node">
<title>DownReact</title>
<ellipse fill="#ffffff" stroke="#000000" cx="578.88" cy="-90" rx="27" ry="18"/>
</g>
<!-- DownReact&#45;&gt;ReactToLevel -->
<g id="edge9" class="edge">
<title>DownReact&#45;&gt;ReactToLevel</title>
<path fill="none" stroke="#555555" stroke-dasharray="1,5" d="M578.88,-71.7C578.88,-64.24 578.88,-55.32 578.88,-46.97"/>
<polygon fill="#555555" stroke="#555555" points="582.38,-47.1 578.88,-37.1 575.38,-47.1 582.38,-47.1"/>
</g>
<!-- BottomReact -->
<g id="node13" class="node">
<title>BottomReact</title>
<ellipse fill="#ffffff" stroke="#000000" cx="886.88" cy="-355.68" rx="27" ry="18"/>
</g>
<!-- TopReact -->
<g id="node14" class="node">
<title>TopReact</title>
<ellipse fill="#ffffff" stroke="#000000" cx="958.88" cy="-355.68" rx="27" ry="18"/>
</g>
<!-- BigUpReact -->
<g id="node15" class="node">
<title>BigUpReact</title>
<ellipse fill="#ffffff" stroke="#000000" cx="650.88" cy="-90" rx="27" ry="18"/>
</g>
<!-- BigUpReact&#45;&gt;ReactToLevel -->
<g id="edge10" class="edge">
<title>BigUpReact&#45;&gt;ReactToLevel</title>
<path fill="none" stroke="#555555" stroke-dasharray="1,5" d="M635.96,-74.5C626.01,-64.83 612.76,-51.94 601.52,-41.02"/>
<polygon fill="#555555" stroke="#555555" points="604.38,-38.95 594.77,-34.49 599.5,-43.97 604.38,-38.95"/>
</g>
<!-- BigDownReact -->
<g id="node16" class="node">
<title>BigDownReact</title>
<ellipse fill="#ffffff" stroke="#000000" cx="722.88" cy="-90" rx="27" ry="18"/>
</g>
<!-- BigDownReact&#45;&gt;ReactToLevel -->
<g id="edge11" class="edge">
<title>BigDownReact&#45;&gt;ReactToLevel</title>
<path fill="none" stroke="#555555" stroke-dasharray="1,5" d="M701.32,-78.52C677,-66.7 637.25,-47.38 609.67,-33.97"/>
<polygon fill="#555555" stroke="#555555" points="611.63,-30.55 601.11,-29.32 608.57,-36.84 611.63,-30.55"/>
</g>
<!-- UpReactLevel -->
<g id="node17" class="node">
<title>UpReactLevel</title>
<ellipse fill="#ffffff" stroke="#000000" cx="742.88" cy="-355.68" rx="27" ry="18"/>
</g>
<!-- UpReactLevel&#45;&gt;LevelToReact -->
<g id="edge12" class="edge">
<title>UpReactLevel&#45;&gt;LevelToReact</title>
<path fill="none" stroke="#555555" stroke-dasharray="1,5" d="M747.58,-337.58C753.62,-315.64 764.16,-277.31 771.33,-251.28"/>
<polygon fill="#555555" stroke="#555555" points="774.89,-252.52 774.17,-241.95 768.14,-250.67 774.89,-252.52"/>
</g>
<!-- DownReactLevel -->
<g id="node18" class="node">
<title>DownReactLevel</title>
<ellipse fill="#ffffff" stroke="#000000" cx="814.88" cy="-355.68" rx="27" ry="18"/>
</g>
<!-- DownReactLevel&#45;&gt;LevelToReact -->
<g id="edge13" class="edge">
<title>DownReactLevel&#45;&gt;LevelToReact</title>
<path fill="none" stroke="#555555" stroke-dasharray="1,5" d="M810.17,-337.58C804.13,-315.64 793.59,-277.31 786.42,-251.28"/>
<polygon fill="#555555" stroke="#555555" points="789.61,-250.67 783.58,-241.95 782.86,-252.52 789.61,-250.67"/>
</g>
<!-- Goodbyes -->
<g id="node19" class="node">
<title>Goodbyes</title>
<ellipse fill="#ffffff" stroke="#000000" cx="1030.88" cy="-355.68" rx="27" ry="18"/>
</g>
</g>
</svg>
