<?xml version="1.0" encoding="UTF-8" standalone="no"?>
<!DOCTYPE svg PUBLIC "-//W3C//DTD SVG 1.1//EN"
 "http://www.w3.org/Graphics/SVG/1.1/DTD/svg11.dtd">
<!-- Generated by graphviz version 8.0.5 (0)
 -->
<!-- Title: KILDOOR1 Pages: 1 -->
<svg width="1025pt" height="335pt"
 viewBox="0.00 0.00 1024.59 335.27" xmlns="http://www.w3.org/2000/svg" xmlns:xlink="http://www.w3.org/1999/xlink">
<g id="graph0" class="graph" transform="scale(1 1) rotate(0) translate(4 331.27)">
<title>KILDOOR1</title>
<polygon fill="white" stroke="none" points="-4,4 -4,-331.27 1020.59,-331.27 1020.59,4 -4,4"/>
<!-- start -->
<g id="node1" class="node">
<title>start</title>
<ellipse fill="#ffffff" stroke="#000000" cx="246" cy="-309.27" rx="27" ry="18"/>
</g>
<!-- damage_p_proc -->
<g id="node2" class="node">
<title>damage_p_proc</title>
<ellipse fill="#ffffff" stroke="#000000" cx="27" cy="-127.63" rx="27" ry="18"/>
</g>
<!-- start&#45;&gt;damage_p_proc -->
<g id="edge1" class="edge">
<title>start&#45;&gt;damage_p_proc</title>
<path fill="none" stroke="#555555" stroke-dasharray="1,5" d="M218.63,-308.2C178.82,-306.58 105.11,-297.59 63,-255.27 36.93,-229.06 29.43,-185.43 27.44,-156.85"/>
<polygon fill="#555555" stroke="#555555" points="30.89,-156.79 26.9,-146.97 23.9,-157.14 30.89,-156.79"/>
</g>
<!-- map_enter_p_proc -->
<g id="node3" class="node">
<title>map_enter_p_proc</title>
<ellipse fill="#ffffff" stroke="#000000" cx="99" cy="-127.63" rx="27" ry="18"/>
</g>
<!-- start&#45;&gt;map_enter_p_proc -->
<g id="edge2" class="edge">
<title>start&#45;&gt;map_enter_p_proc</title>
<path fill="none" stroke="#555555" stroke-dasharray="1,5" d="M220.65,-302.64C195.36,-295.73 157.18,-281.54 135,-255.27 111.29,-227.18 103.16,-184.4 100.39,-156.47"/>
<polygon fill="#555555" stroke="#555555" points="103.83,-156.54 99.53,-146.86 96.85,-157.11 103.83,-156.54"/>
</g>
<!-- map_update_p_proc -->
<g id="node4" class="node">
<title>map_update_p_proc</title>
<ellipse fill="#ffffff" stroke="#000000" cx="171" cy="-127.63" rx="27" ry="18"/>
</g>
<!-- start&#45;&gt;map_update_p_proc -->
<g id="edge3" class="edge">
<title>start&#45;&gt;map_update_p_proc</title>
<path fill="none" stroke="#555555" stroke-dasharray="1,5" d="M232.83,-293.44C224.42,-283.3 213.84,-269.22 207,-255.27 191.23,-223.08 181.27,-182.82 175.92,-156.45"/>
<polygon fill="#555555" stroke="#555555" points="179.18,-155.87 173.85,-146.72 172.31,-157.2 179.18,-155.87"/>
</g>
<!-- use_p_proc -->
<g id="node5" class="node">
<title>use_p_proc</title>
<ellipse fill="#ffffff" stroke="#000000" cx="321" cy="-127.63" rx="105.4" ry="18"/>
<text text-anchor="middle" x="321" y="-122.96" font-family="Times,serif" font-size="14.00">The door is locked.</text>
</g>
<!-- start&#45;&gt;use_p_proc -->
<g id="edge4" class="edge">
<title>start&#45;&gt;use_p_proc</title>
<path fill="none" stroke="#555555" stroke-dasharray="1,5" d="M252.92,-291.69C265.88,-260.65 293.92,-193.49 309.67,-155.76"/>
<polygon fill="#555555" stroke="#555555" points="313.14,-157.54 313.77,-146.96 306.68,-154.84 313.14,-157.54"/>
</g>
<!-- use_obj_on_p_proc -->
<g id="node6" class="node">
<title>use_obj_on_p_proc</title>
<ellipse fill="#ffffff" stroke="#000000" cx="583" cy="-127.63" rx="138.59" ry="127.63"/>
<text text-anchor="middle" x="583" y="-200.58" font-family="Times,serif" font-size="14.00">The door isn&#39;t locked.</text>
<text text-anchor="middle" x="583" y="-183.33" font-family="Times,serif" font-size="14.00">&#45;&#45;&#45;</text>
<text text-anchor="middle" x="583" y="-166.08" font-family="Times,serif" font-size="14.00">You pick the lock.</text>
<text text-anchor="middle" x="583" y="-148.83" font-family="Times,serif" font-size="14.00">&#45;&#45;&#45;</text>
<text text-anchor="middle" x="583" y="-131.58" font-family="Times,serif" font-size="14.00">While picking the lock,</text>
<text text-anchor="middle" x="583" y="-114.33" font-family="Times,serif" font-size="14.00">you manage to tweak the</text>
<text text-anchor="middle" x="583" y="-97.08" font-family="Times,serif" font-size="14.00">tumblers and jam it.</text>
<text text-anchor="middle" x="583" y="-79.83" font-family="Times,serif" font-size="14.00">&#45;&#45;&#45;</text>
<text text-anchor="middle" x="583" y="-62.58" font-family="Times,serif" font-size="14.00">You attempt to pick the</text>
<text text-anchor="middle" x="583" y="-45.33" font-family="Times,serif" font-size="14.00">lock, but fail.</text>
</g>
<!-- start&#45;&gt;use_obj_on_p_proc -->
<g id="edge5" class="edge">
<title>start&#45;&gt;use_obj_on_p_proc</title>
<path fill="none" stroke="#555555" stroke-dasharray="1,5" d="M272.41,-304.57C310.23,-298.47 381.19,-284 435,-255.27 449.94,-247.28 464.71,-237.58 478.79,-227.12"/>
<polygon fill="#555555" stroke="#555555" points="480.62,-229.37 486.46,-220.53 476.39,-223.79 480.62,-229.37"/>
</g>
<!-- use_skill_on_p_proc -->
<g id="node7" class="node">
<title>use_skill_on_p_proc</title>
<ellipse fill="#ffffff" stroke="#000000" cx="878" cy="-127.63" rx="138.59" ry="127.63"/>
<text text-anchor="middle" x="878" y="-200.58" font-family="Times,serif" font-size="14.00">The door isn&#39;t locked.</text>
<text text-anchor="middle" x="878" y="-183.33" font-family="Times,serif" font-size="14.00">&#45;&#45;&#45;</text>
<text text-anchor="middle" x="878" y="-166.08" font-family="Times,serif" font-size="14.00">You pick the lock.</text>
<text text-anchor="middle" x="878" y="-148.83" font-family="Times,serif" font-size="14.00">&#45;&#45;&#45;</text>
<text text-anchor="middle" x="878" y="-131.58" font-family="Times,serif" font-size="14.00">While picking the lock,</text>
<text text-anchor="middle" x="878" y="-114.33" font-family="Times,serif" font-size="14.00">you manage to tweak the</text>
<text text-anchor="middle" x="878" y="-97.08" font-family="Times,serif" font-size="14.00">tumblers and jam it.</text>
<text text-anchor="middle" x="878" y="-79.83" font-family="Times,serif" font-size="14.00">&#45;&#45;&#45;</text>
<text text-anchor="middle" x="878" y="-62.58" font-family="Times,serif" font-size="14.00">You attempt to pick the</text>
<text text-anchor="middle" x="878" y="-45.33" font-family="Times,serif" font-size="14.00">lock, but fail.</text>
</g>
<!-- start&#45;&gt;use_skill_on_p_proc -->
<g id="edge6" class="edge">
<title>start&#45;&gt;use_skill_on_p_proc</title>
<path fill="none" stroke="#555555" stroke-dasharray="1,5" d="M273.22,-307.4C362.83,-304.24 647.59,-291.52 731,-255.27 746.73,-248.43 762.03,-239.3 776.43,-229.06"/>
<polygon fill="#555555" stroke="#555555" points="778.29,-231.3 784.28,-222.55 774.15,-225.66 778.29,-231.3"/>
</g>
</g>
</svg>
