<?xml version="1.0" encoding="UTF-8" standalone="no"?>
<!DOCTYPE svg PUBLIC "-//W3C//DTD SVG 1.1//EN"
 "http://www.w3.org/Graphics/SVG/1.1/DTD/svg11.dtd">
<!-- Generated by graphviz version 8.0.5 (0)
 -->
<!-- Title: KILLSAFE Pages: 1 -->
<svg width="1363pt" height="456pt"
 viewBox="0.00 0.00 1362.91 455.76" xmlns="http://www.w3.org/2000/svg" xmlns:xlink="http://www.w3.org/1999/xlink">
<g id="graph0" class="graph" transform="scale(1 1) rotate(0) translate(4 451.76)">
<title>KILLSAFE</title>
<polygon fill="white" stroke="none" points="-4,4 -4,-451.76 1358.91,-451.76 1358.91,4 -4,4"/>
<!-- start -->
<g id="node1" class="node">
<title>start</title>
<ellipse fill="#ffffff" stroke="#000000" cx="543.74" cy="-429.76" rx="27" ry="18"/>
</g>
<!-- description_p_proc -->
<g id="node2" class="node">
<title>description_p_proc</title>
<ellipse fill="#ffffff" stroke="#000000" cx="123.74" cy="-248.13" rx="123.74" ry="42.25"/>
<text text-anchor="middle" x="123.74" y="-260.71" font-family="Times,serif" font-size="14.00">The safe is locked.</text>
<text text-anchor="middle" x="123.74" y="-243.46" font-family="Times,serif" font-size="14.00">&#45;&#45;&#45;</text>
<text text-anchor="middle" x="123.74" y="-226.21" font-family="Times,serif" font-size="14.00">The safe is not locked.</text>
</g>
<!-- start&#45;&gt;description_p_proc -->
<g id="edge1" class="edge">
<title>start&#45;&gt;description_p_proc</title>
<path fill="none" stroke="#555555" stroke-dasharray="1,5" d="M516.28,-428.85C463.04,-427.94 343.3,-420.61 255.74,-375.76 219.11,-357 185.74,-324.79 161.72,-297.54"/>
<polygon fill="#555555" stroke="#555555" points="163.76,-295.55 154.57,-290.27 158.46,-300.12 163.76,-295.55"/>
</g>
<!-- look_at_p_proc -->
<g id="node3" class="node">
<title>look_at_p_proc</title>
<ellipse fill="#ffffff" stroke="#000000" cx="345.74" cy="-248.13" rx="80.67" ry="18"/>
<text text-anchor="middle" x="345.74" y="-243.46" font-family="Times,serif" font-size="14.00">You see: Safe.</text>
</g>
<!-- start&#45;&gt;look_at_p_proc -->
<g id="edge2" class="edge">
<title>start&#45;&gt;look_at_p_proc</title>
<path fill="none" stroke="#555555" stroke-dasharray="1,5" d="M519.87,-420.97C496.58,-412.51 461.05,-397.27 435.74,-375.76 402.25,-347.29 374.93,-303.75 359.49,-275.86"/>
<polygon fill="#555555" stroke="#555555" points="362.18,-274.49 354.35,-267.35 356.03,-277.81 362.18,-274.49"/>
</g>
<!-- map_enter_p_proc -->
<g id="node4" class="node">
<title>map_enter_p_proc</title>
<ellipse fill="#ffffff" stroke="#000000" cx="471.74" cy="-248.13" rx="27" ry="18"/>
</g>
<!-- start&#45;&gt;map_enter_p_proc -->
<g id="edge3" class="edge">
<title>start&#45;&gt;map_enter_p_proc</title>
<path fill="none" stroke="#555555" stroke-dasharray="1,5" d="M531.3,-413.33C523.62,-403.16 514.05,-389.27 507.74,-375.76 492.58,-343.29 482.49,-303.09 476.94,-276.81"/>
<polygon fill="#555555" stroke="#555555" points="480.19,-276.24 474.78,-267.13 473.33,-277.63 480.19,-276.24"/>
</g>
<!-- pickup_p_proc -->
<g id="node5" class="node">
<title>pickup_p_proc</title>
<ellipse fill="#ffffff" stroke="#000000" cx="543.74" cy="-248.13" rx="27" ry="18"/>
</g>
<!-- start&#45;&gt;pickup_p_proc -->
<g id="edge4" class="edge">
<title>start&#45;&gt;pickup_p_proc</title>
<path fill="none" stroke="#555555" stroke-dasharray="1,5" d="M543.74,-411.54C543.74,-380.5 543.74,-314.93 543.74,-277.28"/>
<polygon fill="#555555" stroke="#555555" points="547.24,-277.57 543.74,-267.57 540.24,-277.57 547.24,-277.57"/>
</g>
<!-- use_p_proc -->
<g id="node6" class="node">
<title>use_p_proc</title>
<ellipse fill="#ffffff" stroke="#000000" cx="691.74" cy="-248.13" rx="103.29" ry="18"/>
<text text-anchor="middle" x="691.74" y="-243.46" font-family="Times,serif" font-size="14.00">The safe is locked.</text>
</g>
<!-- start&#45;&gt;use_p_proc -->
<g id="edge5" class="edge">
<title>start&#45;&gt;use_p_proc</title>
<path fill="none" stroke="#555555" stroke-dasharray="1,5" d="M556.36,-413.45C581.8,-382.58 639.45,-312.61 670.68,-274.7"/>
<polygon fill="#555555" stroke="#555555" points="674,-277.17 677.66,-267.23 668.6,-272.72 674,-277.17"/>
</g>
<!-- use_obj_on_p_proc -->
<g id="node7" class="node">
<title>use_obj_on_p_proc</title>
<ellipse fill="#ffffff" stroke="#000000" cx="943.74" cy="-248.13" rx="131.17" ry="127.63"/>
<text text-anchor="middle" x="943.74" y="-321.08" font-family="Times,serif" font-size="14.00">The safe is not locked.</text>
<text text-anchor="middle" x="943.74" y="-303.83" font-family="Times,serif" font-size="14.00">&#45;&#45;&#45;</text>
<text text-anchor="middle" x="943.74" y="-286.58" font-family="Times,serif" font-size="14.00">Got it!</text>
<text text-anchor="middle" x="943.74" y="-269.33" font-family="Times,serif" font-size="14.00">&#45;&#45;&#45;</text>
<text text-anchor="middle" x="943.74" y="-252.08" font-family="Times,serif" font-size="14.00">You tweak the tumblers</text>
<text text-anchor="middle" x="943.74" y="-234.83" font-family="Times,serif" font-size="14.00">and manage to jam the</text>
<text text-anchor="middle" x="943.74" y="-217.58" font-family="Times,serif" font-size="14.00">lock with a pick. Just</text>
<text text-anchor="middle" x="943.74" y="-200.33" font-family="Times,serif" font-size="14.00">great.</text>
<text text-anchor="middle" x="943.74" y="-183.08" font-family="Times,serif" font-size="14.00">&#45;&#45;&#45;</text>
<text text-anchor="middle" x="943.74" y="-165.83" font-family="Times,serif" font-size="14.00">Drat! Almost had it.</text>
</g>
<!-- start&#45;&gt;use_obj_on_p_proc -->
<g id="edge6" class="edge">
<title>start&#45;&gt;use_obj_on_p_proc</title>
<path fill="none" stroke="#555555" stroke-dasharray="1,5" d="M570.72,-427.91C619.7,-425.38 725.43,-415.37 803.74,-375.76 818.4,-368.35 832.68,-358.99 846.17,-348.73"/>
<polygon fill="#555555" stroke="#555555" points="847.75,-351.16 853.46,-342.23 843.43,-345.65 847.75,-351.16"/>
</g>
<!-- use_skill_on_p_proc -->
<g id="node8" class="node">
<title>use_skill_on_p_proc</title>
<ellipse fill="#ffffff" stroke="#000000" cx="1223.74" cy="-248.13" rx="131.17" ry="127.63"/>
<text text-anchor="middle" x="1223.74" y="-321.08" font-family="Times,serif" font-size="14.00">The safe is not locked.</text>
<text text-anchor="middle" x="1223.74" y="-303.83" font-family="Times,serif" font-size="14.00">&#45;&#45;&#45;</text>
<text text-anchor="middle" x="1223.74" y="-286.58" font-family="Times,serif" font-size="14.00">Got it!</text>
<text text-anchor="middle" x="1223.74" y="-269.33" font-family="Times,serif" font-size="14.00">&#45;&#45;&#45;</text>
<text text-anchor="middle" x="1223.74" y="-252.08" font-family="Times,serif" font-size="14.00">You tweak the tumblers</text>
<text text-anchor="middle" x="1223.74" y="-234.83" font-family="Times,serif" font-size="14.00">and manage to jam the</text>
<text text-anchor="middle" x="1223.74" y="-217.58" font-family="Times,serif" font-size="14.00">lock with a pick. Just</text>
<text text-anchor="middle" x="1223.74" y="-200.33" font-family="Times,serif" font-size="14.00">great.</text>
<text text-anchor="middle" x="1223.74" y="-183.08" font-family="Times,serif" font-size="14.00">&#45;&#45;&#45;</text>
<text text-anchor="middle" x="1223.74" y="-165.83" font-family="Times,serif" font-size="14.00">Drat! Almost had it.</text>
</g>
<!-- start&#45;&gt;use_skill_on_p_proc -->
<g id="edge7" class="edge">
<title>start&#45;&gt;use_skill_on_p_proc</title>
<path fill="none" stroke="#555555" stroke-dasharray="1,5" d="M571.02,-428.33C667.26,-426.45 990.28,-417.12 1083.74,-375.76 1099.01,-369.01 1113.74,-359.93 1127.55,-349.72"/>
<polygon fill="#555555" stroke="#555555" points="1129.21,-352.09 1135.02,-343.23 1124.95,-346.53 1129.21,-352.09"/>
</g>
<!-- safe_bonus -->
<g id="node9" class="node">
<title>safe_bonus</title>
<ellipse fill="#ffffff" stroke="#000000" cx="1083.74" cy="-42.25" rx="134.88" ry="42.25"/>
<text text-anchor="middle" x="1083.74" y="-54.82" font-family="Times,serif" font-size="14.00">You gain 500 experience</text>
<text text-anchor="middle" x="1083.74" y="-37.57" font-family="Times,serif" font-size="14.00">points for cracking</text>
<text text-anchor="middle" x="1083.74" y="-20.32" font-family="Times,serif" font-size="14.00">Killian&#39;s personal safe.</text>
</g>
<!-- use_obj_on_p_proc&#45;&gt;safe_bonus -->
<g id="edge8" class="edge">
<title>use_obj_on_p_proc&#45;&gt;safe_bonus</title>
<path fill="none" stroke="#555555" stroke-dasharray="1,5" d="M1016.41,-141.31C1028.1,-124.29 1039.69,-107.41 1049.87,-92.58"/>
<polygon fill="#555555" stroke="#555555" points="1053.24,-94.85 1056.02,-84.62 1047.47,-90.89 1053.24,-94.85"/>
</g>
<!-- use_skill_on_p_proc&#45;&gt;safe_bonus -->
<g id="edge9" class="edge">
<title>use_skill_on_p_proc&#45;&gt;safe_bonus</title>
<path fill="none" stroke="#555555" stroke-dasharray="1,5" d="M1151.08,-141.31C1139.39,-124.29 1127.8,-107.41 1117.62,-92.58"/>
<polygon fill="#555555" stroke="#555555" points="1120.01,-90.89 1111.47,-84.62 1114.24,-94.85 1120.01,-90.89"/>
</g>
</g>
</svg>
