<?xml version="1.0" encoding="UTF-8" standalone="no"?>
<!DOCTYPE svg PUBLIC "-//W3C//DTD SVG 1.1//EN"
 "http://www.w3.org/Graphics/SVG/1.1/DTD/svg11.dtd">
<!-- Generated by graphviz version 8.0.5 (0)
 -->
<!-- Title: LADDER Pages: 1 -->
<svg width="341pt" height="698pt"
 viewBox="0.00 0.00 341.50 697.64" xmlns="http://www.w3.org/2000/svg" xmlns:xlink="http://www.w3.org/1999/xlink">
<g id="graph0" class="graph" transform="scale(1 1) rotate(0) translate(4 693.64)">
<title>LADDER</title>
<polygon fill="white" stroke="none" points="-4,4 -4,-693.64 337.5,-693.64 337.5,4 -4,4"/>
<!-- start -->
<g id="node1" class="node">
<title>start</title>
<ellipse fill="#ffffff" stroke="#000000" cx="50.78" cy="-671.64" rx="27" ry="18"/>
</g>
<!-- do_stuff -->
<g id="node2" class="node">
<title>do_stuff</title>
<ellipse fill="#ffffff" stroke="#000000" cx="50.78" cy="-599.64" rx="27" ry="18"/>
</g>
<!-- start&#45;&gt;do_stuff -->
<g id="edge1" class="edge">
<title>start&#45;&gt;do_stuff</title>
<path fill="none" stroke="#555555" stroke-dasharray="1,5" d="M50.78,-653.33C50.78,-645.87 50.78,-636.96 50.78,-628.6"/>
<polygon fill="#555555" stroke="#555555" points="54.28,-628.74 50.78,-618.74 47.28,-628.74 54.28,-628.74"/>
</g>
<!-- ladder00 -->
<g id="node3" class="node">
<title>ladder00</title>
<ellipse fill="#ffffff" stroke="#000000" cx="107.78" cy="-18" rx="27" ry="18"/>
</g>
<!-- do_stuff&#45;&gt;ladder00 -->
<g id="edge2" class="edge">
<title>do_stuff&#45;&gt;ladder00</title>
<path fill="none" stroke="#555555" stroke-dasharray="1,5" d="M45.38,-581.57C24.73,-513.22 -43.71,-254.13 42.78,-72 50.09,-56.61 64.3,-44.22 77.57,-35.3"/>
<polygon fill="#555555" stroke="#555555" points="78.9,-37.96 85.51,-29.68 75.18,-32.04 78.9,-37.96"/>
</g>
<!-- ladder01 -->
<g id="node4" class="node">
<title>ladder01</title>
<ellipse fill="#ffffff" stroke="#000000" cx="135.78" cy="-527.64" rx="27" ry="18"/>
</g>
<!-- do_stuff&#45;&gt;ladder01 -->
<g id="edge3" class="edge">
<title>do_stuff&#45;&gt;ladder01</title>
<path fill="none" stroke="#555555" stroke-dasharray="1,5" d="M67.17,-585.14C79.56,-574.94 96.77,-560.76 110.86,-549.16"/>
<polygon fill="#555555" stroke="#555555" points="112.66,-551.39 118.16,-542.33 108.21,-545.99 112.66,-551.39"/>
</g>
<!-- ladder01a -->
<g id="node6" class="node">
<title>ladder01a</title>
<ellipse fill="#ffffff" stroke="#000000" cx="192.78" cy="-272.82" rx="140.71" ry="200.82"/>
<text text-anchor="middle" x="192.78" y="-397.52" font-family="Times,serif" font-size="14.00">You open the manhole</text>
<text text-anchor="middle" x="192.78" y="-380.27" font-family="Times,serif" font-size="14.00">cover and climb out</text>
<text text-anchor="middle" x="192.78" y="-363.02" font-family="Times,serif" font-size="14.00"> of the dank sewers.</text>
<text text-anchor="middle" x="192.78" y="-345.77" font-family="Times,serif" font-size="14.00">&#45;&#45;&#45;</text>
<text text-anchor="middle" x="192.78" y="-328.52" font-family="Times,serif" font-size="14.00">You strain your shoulders</text>
<text text-anchor="middle" x="192.78" y="-311.27" font-family="Times,serif" font-size="14.00">on the manhole</text>
<text text-anchor="middle" x="192.78" y="-294.02" font-family="Times,serif" font-size="14.00">cover, and then slip off</text>
<text text-anchor="middle" x="192.78" y="-276.77" font-family="Times,serif" font-size="14.00">the ladder.</text>
<text text-anchor="middle" x="192.78" y="-259.52" font-family="Times,serif" font-size="14.00">&#45;&#45;&#45;</text>
<text text-anchor="middle" x="192.78" y="-242.27" font-family="Times,serif" font-size="14.00">You cannot budge the</text>
<text text-anchor="middle" x="192.78" y="-225.02" font-family="Times,serif" font-size="14.00">manhole cover.</text>
<text text-anchor="middle" x="192.78" y="-207.77" font-family="Times,serif" font-size="14.00">&#45;&#45;&#45;</text>
<text text-anchor="middle" x="192.78" y="-190.52" font-family="Times,serif" font-size="14.00">You nearly slip off the</text>
<text text-anchor="middle" x="192.78" y="-173.27" font-family="Times,serif" font-size="14.00">ladder.</text>
<text text-anchor="middle" x="192.78" y="-156.02" font-family="Times,serif" font-size="14.00">&#45;&#45;&#45;</text>
<text text-anchor="middle" x="192.78" y="-138.77" font-family="Times,serif" font-size="14.00">You fall to the ground.</text>
</g>
<!-- ladder01&#45;&gt;ladder01a -->
<g id="edge4" class="edge">
<title>ladder01&#45;&gt;ladder01a</title>
<path fill="none" stroke="#555555" stroke-dasharray="1,5" d="M139.61,-509.66C141.63,-500.7 144.34,-488.69 147.47,-474.82"/>
<polygon fill="#555555" stroke="#555555" points="151.03,-475.93 149.82,-465.4 144.2,-474.39 151.03,-475.93"/>
</g>
<!-- ladderend -->
<g id="node5" class="node">
<title>ladderend</title>
<ellipse fill="#ffffff" stroke="#000000" cx="122.78" cy="-671.64" rx="27" ry="18"/>
</g>
<!-- ladder01a&#45;&gt;ladder00 -->
<g id="edge5" class="edge">
<title>ladder01a&#45;&gt;ladder00</title>
<path fill="none" stroke="#555555" stroke-dasharray="1,5" d="M132.03,-91.11C126.26,-73.95 121.04,-58.44 116.94,-46.24"/>
<polygon fill="#555555" stroke="#555555" points="120.01,-45.38 113.5,-37.01 113.37,-47.61 120.01,-45.38"/>
</g>
</g>
</svg>
