<?xml version="1.0" encoding="UTF-8" standalone="no"?>
<!DOCTYPE svg PUBLIC "-//W3C//DTD SVG 1.1//EN"
 "http://www.w3.org/Graphics/SVG/1.1/DTD/svg11.dtd">
<!-- Generated by graphviz version 8.0.5 (0)
 -->
<!-- Title: LENORE Pages: 1 -->
<svg width="1104pt" height="578pt"
 viewBox="0.00 0.00 1103.88 577.74" xmlns="http://www.w3.org/2000/svg" xmlns:xlink="http://www.w3.org/1999/xlink">
<g id="graph0" class="graph" transform="scale(1 1) rotate(0) translate(4 573.74)">
<title>LENORE</title>
<polygon fill="white" stroke="none" points="-4,4 -4,-573.74 1099.88,-573.74 1099.88,4 -4,4"/>
<!-- start -->
<g id="node1" class="node">
<title>start</title>
<ellipse fill="#ffffff" stroke="#000000" cx="747" cy="-551.74" rx="103.82" ry="18"/>
<text text-anchor="middle" x="747" y="-547.07" font-family="Times,serif" font-size="14.00">You see a peasant.</text>
</g>
<!-- do_dialogue -->
<g id="node2" class="node">
<title>do_dialogue</title>
<ellipse fill="#ffffff" stroke="#000000" cx="556" cy="-321.32" rx="27" ry="18"/>
</g>
<!-- start&#45;&gt;do_dialogue -->
<g id="edge1" class="edge">
<title>start&#45;&gt;do_dialogue</title>
<path fill="none" stroke="#555555" stroke-dasharray="1,5" d="M667.02,-539.91C639.67,-532.35 611.17,-519.51 592,-497.74 555.7,-456.5 552.36,-388.61 553.78,-350.51"/>
<polygon fill="#555555" stroke="#555555" points="557.31,-350.87 554.34,-340.7 550.32,-350.51 557.31,-350.87"/>
</g>
<!-- Lenore00 -->
<g id="node3" class="node">
<title>Lenore00</title>
<ellipse fill="#ffffff" stroke="#000000" cx="747" cy="-321.32" rx="146.02" ry="176.42"/>
<text text-anchor="middle" x="747" y="-428.77" font-family="Times,serif" font-size="14.00">Oh, yeah, big man running</text>
<text text-anchor="middle" x="747" y="-411.52" font-family="Times,serif" font-size="14.00">from a scary dog. Phil,</text>
<text text-anchor="middle" x="747" y="-394.27" font-family="Times,serif" font-size="14.00">you sure showed it. Yep,</text>
<text text-anchor="middle" x="747" y="-377.02" font-family="Times,serif" font-size="14.00">you sure did.</text>
<text text-anchor="middle" x="747" y="-359.77" font-family="Times,serif" font-size="14.00">&#45;&#45;&#45;</text>
<text text-anchor="middle" x="747" y="-342.52" font-family="Times,serif" font-size="14.00">What are you doing, Phil?</text>
<text text-anchor="middle" x="747" y="-325.27" font-family="Times,serif" font-size="14.00">You&#39;re checking the tread</text>
<text text-anchor="middle" x="747" y="-308.02" font-family="Times,serif" font-size="14.00">on those</text>
<text text-anchor="middle" x="747" y="-290.77" font-family="Times,serif" font-size="14.00"> sneakers, aren&#39;t you?</text>
<text text-anchor="middle" x="747" y="-273.52" font-family="Times,serif" font-size="14.00">&#45;&#45;&#45;</text>
<text text-anchor="middle" x="747" y="-256.27" font-family="Times,serif" font-size="14.00">Man, that dog looks</text>
<text text-anchor="middle" x="747" y="-239.02" font-family="Times,serif" font-size="14.00">hungry. It sure wants to</text>
<text text-anchor="middle" x="747" y="-221.77" font-family="Times,serif" font-size="14.00">eat you alive,</text>
<text text-anchor="middle" x="747" y="-204.52" font-family="Times,serif" font-size="14.00"> Phil.</text>
</g>
<!-- start&#45;&gt;Lenore00 -->
<g id="edge2" class="edge">
<title>start&#45;&gt;Lenore00</title>
<path fill="none" stroke="#555555" stroke-dasharray="1,5" d="M747,-533.57C747,-526.87 747,-518.49 747,-508.97"/>
<polygon fill="#555555" stroke="#555555" points="750.5,-509.21 747,-499.21 743.5,-509.21 750.5,-509.21"/>
</g>
<!-- go_inside -->
<g id="node4" class="node">
<title>go_inside</title>
<ellipse fill="#ffffff" stroke="#000000" cx="938" cy="-321.32" rx="27" ry="18"/>
</g>
<!-- start&#45;&gt;go_inside -->
<g id="edge3" class="edge">
<title>start&#45;&gt;go_inside</title>
<path fill="none" stroke="#555555" stroke-dasharray="1,5" d="M826.98,-539.91C854.33,-532.35 882.83,-519.51 902,-497.74 938.31,-456.5 941.64,-388.61 940.23,-350.51"/>
<polygon fill="#555555" stroke="#555555" points="943.68,-350.51 939.67,-340.7 936.69,-350.87 943.68,-350.51"/>
</g>
<!-- Lenore02 -->
<g id="node5" class="node">
<title>Lenore02</title>
<ellipse fill="#ffffff" stroke="#000000" cx="137" cy="-54.45" rx="137" ry="30.05"/>
<text text-anchor="middle" x="137" y="-58.4" font-family="Times,serif" font-size="14.00">That sure is a nice pooch</text>
<text text-anchor="middle" x="137" y="-41.15" font-family="Times,serif" font-size="14.00">you have there.</text>
</g>
<!-- do_dialogue&#45;&gt;Lenore02 -->
<g id="edge4" class="edge">
<title>do_dialogue&#45;&gt;Lenore02</title>
<path fill="none" stroke="#555555" stroke-dasharray="1,5" d="M536.91,-308.25C475.86,-269.66 283.95,-148.34 189.94,-88.91"/>
<polygon fill="#555555" stroke="#555555" points="192.21,-85.57 181.88,-83.19 188.47,-91.49 192.21,-85.57"/>
</g>
<!-- Lenore04 -->
<g id="node6" class="node">
<title>Lenore04</title>
<ellipse fill="#ffffff" stroke="#000000" cx="423" cy="-54.45" rx="130.64" ry="30.05"/>
<text text-anchor="middle" x="423" y="-58.4" font-family="Times,serif" font-size="14.00">Thanks for dealing with</text>
<text text-anchor="middle" x="423" y="-41.15" font-family="Times,serif" font-size="14.00">that dog.</text>
</g>
<!-- do_dialogue&#45;&gt;Lenore04 -->
<g id="edge5" class="edge">
<title>do_dialogue&#45;&gt;Lenore04</title>
<path fill="none" stroke="#555555" stroke-dasharray="1,5" d="M547.68,-303.75C526.88,-262.32 472.15,-153.32 442.6,-94.47"/>
<polygon fill="#555555" stroke="#555555" points="445.35,-93.15 437.73,-85.78 439.09,-96.29 445.35,-93.15"/>
</g>
<!-- Lenore01 -->
<g id="node7" class="node">
<title>Lenore01</title>
<ellipse fill="#ffffff" stroke="#000000" cx="690" cy="-54.45" rx="118.44" ry="54.45"/>
<text text-anchor="middle" x="690" y="-75.65" font-family="Times,serif" font-size="14.00">That might be a little</text>
<text text-anchor="middle" x="690" y="-58.4" font-family="Times,serif" font-size="14.00">overkill for a poor</text>
<text text-anchor="middle" x="690" y="-41.15" font-family="Times,serif" font-size="14.00">defenseless animal,</text>
<text text-anchor="middle" x="690" y="-23.9" font-family="Times,serif" font-size="14.00">don&#39;cha think?</text>
</g>
<!-- do_dialogue&#45;&gt;Lenore01 -->
<g id="edge6" class="edge">
<title>do_dialogue&#45;&gt;Lenore01</title>
<path fill="none" stroke="#555555" stroke-dasharray="1,5" d="M556.09,-302.9C556.98,-269.9 562.44,-196.93 592,-144.89 599.45,-131.79 609.48,-119.55 620.3,-108.58"/>
<polygon fill="#555555" stroke="#555555" points="622.17,-111.67 626.89,-102.19 617.29,-106.66 622.17,-111.67"/>
</g>
<!-- Lenore03 -->
<g id="node8" class="node">
<title>Lenore03</title>
<ellipse fill="#ffffff" stroke="#000000" cx="961" cy="-54.45" rx="134.88" ry="42.25"/>
<text text-anchor="middle" x="961" y="-67.02" font-family="Times,serif" font-size="14.00">I&#39;m sure Phil would</text>
<text text-anchor="middle" x="961" y="-49.77" font-family="Times,serif" font-size="14.00">appreciate it if you were</text>
<text text-anchor="middle" x="961" y="-32.52" font-family="Times,serif" font-size="14.00"> to get rid of his dog.</text>
</g>
<!-- do_dialogue&#45;&gt;Lenore03 -->
<g id="edge7" class="edge">
<title>do_dialogue&#45;&gt;Lenore03</title>
<path fill="none" stroke="#555555" stroke-dasharray="1,5" d="M553.78,-303.14C550.28,-267.89 547.87,-187.14 592,-144.89 665.16,-74.87 719.06,-134.64 817,-108.89 834.36,-104.33 852.54,-98.48 869.91,-92.32"/>
<polygon fill="#555555" stroke="#555555" points="870.82,-95.35 879.04,-88.67 868.44,-88.77 870.82,-95.35"/>
</g>
</g>
</svg>
