<?xml version="1.0" encoding="UTF-8" standalone="no"?>
<!DOCTYPE svg PUBLIC "-//W3C//DTD SVG 1.1//EN"
 "http://www.w3.org/Graphics/SVG/1.1/DTD/svg11.dtd">
<!-- Generated by graphviz version 8.0.5 (0)
 -->
<!-- Title: LOSER Pages: 1 -->
<svg width="528pt" height="188pt"
 viewBox="0.00 0.00 528.00 188.00" xmlns="http://www.w3.org/2000/svg" xmlns:xlink="http://www.w3.org/1999/xlink">
<g id="graph0" class="graph" transform="scale(1 1) rotate(0) translate(4 184)">
<title>LOSER</title>
<polygon fill="white" stroke="none" points="-4,4 -4,-184 524,-184 524,4 -4,4"/>
<!-- start -->
<g id="node1" class="node">
<title>start</title>
<ellipse fill="#ffffff" stroke="#000000" cx="233" cy="-162" rx="27" ry="18"/>
</g>
<!-- combat_p_proc -->
<g id="node2" class="node">
<title>combat_p_proc</title>
<ellipse fill="#ffffff" stroke="#000000" cx="27" cy="-90" rx="27" ry="18"/>
</g>
<!-- start&#45;&gt;combat_p_proc -->
<g id="edge1" class="edge">
<title>start&#45;&gt;combat_p_proc</title>
<path fill="none" stroke="#555555" stroke-dasharray="1,5" d="M208.14,-154.42C174.69,-145.3 113.55,-127.71 63,-108 61.32,-107.34 59.6,-106.65 57.88,-105.92"/>
<polygon fill="#555555" stroke="#555555" points="59.67,-102.44 49.11,-101.57 56.82,-108.83 59.67,-102.44"/>
</g>
<!-- critter_p_proc -->
<g id="node3" class="node">
<title>critter_p_proc</title>
<ellipse fill="#ffffff" stroke="#000000" cx="99" cy="-90" rx="27" ry="18"/>
</g>
<!-- start&#45;&gt;critter_p_proc -->
<g id="edge2" class="edge">
<title>start&#45;&gt;critter_p_proc</title>
<path fill="none" stroke="#555555" stroke-dasharray="1,5" d="M212.06,-150.06C189.84,-138.45 154.51,-120 129.26,-106.81"/>
<polygon fill="#555555" stroke="#555555" points="131.27,-103.39 120.79,-101.86 128.03,-109.59 131.27,-103.39"/>
</g>
<!-- destroy_p_proc -->
<g id="node4" class="node">
<title>destroy_p_proc</title>
<ellipse fill="#ffffff" stroke="#000000" cx="171" cy="-90" rx="27" ry="18"/>
</g>
<!-- start&#45;&gt;destroy_p_proc -->
<g id="edge3" class="edge">
<title>start&#45;&gt;destroy_p_proc</title>
<path fill="none" stroke="#555555" stroke-dasharray="1,5" d="M219.85,-146.15C211.55,-136.78 200.66,-124.48 191.26,-113.88"/>
<polygon fill="#555555" stroke="#555555" points="194.38,-111.99 185.13,-106.82 189.14,-116.63 194.38,-111.99"/>
</g>
<!-- look_at_p_proc -->
<g id="node5" class="node">
<title>look_at_p_proc</title>
<ellipse fill="#ffffff" stroke="#000000" cx="296" cy="-90" rx="80.14" ry="18"/>
<text text-anchor="middle" x="296" y="-85.33" font-family="Times,serif" font-size="14.00">Got any food?</text>
</g>
<!-- start&#45;&gt;look_at_p_proc -->
<g id="edge4" class="edge">
<title>start&#45;&gt;look_at_p_proc</title>
<path fill="none" stroke="#555555" stroke-dasharray="1,5" d="M246.36,-146.15C254.21,-137.44 264.33,-126.19 273.38,-116.13"/>
<polygon fill="#555555" stroke="#555555" points="275.58,-118.81 279.66,-109.04 270.37,-114.13 275.58,-118.81"/>
</g>
<!-- pickup_p_proc -->
<g id="node6" class="node">
<title>pickup_p_proc</title>
<ellipse fill="#ffffff" stroke="#000000" cx="421" cy="-90" rx="27" ry="18"/>
</g>
<!-- start&#45;&gt;pickup_p_proc -->
<g id="edge5" class="edge">
<title>start&#45;&gt;pickup_p_proc</title>
<path fill="none" stroke="#555555" stroke-dasharray="1,5" d="M254.1,-150.43C258.94,-148.18 264.1,-145.9 269,-144 319.31,-124.43 334.69,-127.57 385,-108 386.68,-107.35 388.4,-106.65 390.12,-105.92"/>
<polygon fill="#555555" stroke="#555555" points="391.18,-108.83 398.9,-101.57 388.34,-102.44 391.18,-108.83"/>
</g>
<!-- talk_p_proc -->
<g id="node7" class="node">
<title>talk_p_proc</title>
<ellipse fill="#ffffff" stroke="#000000" cx="493" cy="-90" rx="27" ry="18"/>
</g>
<!-- start&#45;&gt;talk_p_proc -->
<g id="edge6" class="edge">
<title>start&#45;&gt;talk_p_proc</title>
<path fill="none" stroke="#555555" stroke-dasharray="1,5" d="M253.58,-150.2C258.53,-147.9 263.87,-145.67 269,-144 349.88,-117.63 376.12,-134.37 457,-108 458.76,-107.43 460.55,-106.78 462.34,-106.1"/>
<polygon fill="#555555" stroke="#555555" points="463.59,-108.94 471.42,-101.8 460.85,-102.5 463.59,-108.94"/>
</g>
<!-- flee_dude -->
<g id="node8" class="node">
<title>flee_dude</title>
<ellipse fill="#ffffff" stroke="#000000" cx="99" cy="-18" rx="27" ry="18"/>
</g>
<!-- critter_p_proc&#45;&gt;flee_dude -->
<g id="edge7" class="edge">
<title>critter_p_proc&#45;&gt;flee_dude</title>
<path fill="none" stroke="#555555" stroke-dasharray="1,5" d="M99,-71.7C99,-64.24 99,-55.32 99,-46.97"/>
<polygon fill="#555555" stroke="#555555" points="102.5,-47.1 99,-37.1 95.5,-47.1 102.5,-47.1"/>
</g>
<!-- damage_p_proc -->
<g id="node9" class="node">
<title>damage_p_proc</title>
<ellipse fill="#ffffff" stroke="#000000" cx="305" cy="-162" rx="27" ry="18"/>
</g>
<!-- timed_event_p_proc -->
<g id="node10" class="node">
<title>timed_event_p_proc</title>
<ellipse fill="#ffffff" stroke="#000000" cx="377" cy="-162" rx="27" ry="18"/>
</g>
</g>
</svg>
