<?xml version="1.0" encoding="UTF-8" standalone="no"?>
<!DOCTYPE svg PUBLIC "-//W3C//DTD SVG 1.1//EN"
 "http://www.w3.org/Graphics/SVG/1.1/DTD/svg11.dtd">
<!-- Generated by graphviz version 8.0.5 (0)
 -->
<!-- Title: MUTEJAR Pages: 1 -->
<svg width="696pt" height="189pt"
 viewBox="0.00 0.00 695.96 188.60" xmlns="http://www.w3.org/2000/svg" xmlns:xlink="http://www.w3.org/1999/xlink">
<g id="graph0" class="graph" transform="scale(1 1) rotate(0) translate(4 184.6)">
<title>MUTEJAR</title>
<polygon fill="white" stroke="none" points="-4,4 -4,-184.6 691.96,-184.6 691.96,4 -4,4"/>
<!-- start -->
<g id="node1" class="node">
<title>start</title>
<ellipse fill="#ffffff" stroke="#000000" cx="121.09" cy="-138.35" rx="27" ry="18"/>
</g>
<!-- use_p_proc -->
<g id="node2" class="node">
<title>use_p_proc</title>
<ellipse fill="#ffffff" stroke="#000000" cx="121.09" cy="-30.05" rx="121.09" ry="30.05"/>
<text text-anchor="middle" x="121.09" y="-34" font-family="Times,serif" font-size="14.00">You take the odd fruit</text>
<text text-anchor="middle" x="121.09" y="-16.75" font-family="Times,serif" font-size="14.00">from the jar.</text>
</g>
<!-- start&#45;&gt;use_p_proc -->
<g id="edge1" class="edge">
<title>start&#45;&gt;use_p_proc</title>
<path fill="none" stroke="#555555" stroke-dasharray="1,5" d="M121.09,-120.27C121.09,-107.08 121.09,-88.28 121.09,-71.33"/>
<polygon fill="#555555" stroke="#555555" points="124.59,-71.54 121.09,-61.54 117.59,-71.54 124.59,-71.54"/>
</g>
<!-- look_at_p_proc -->
<g id="node3" class="node">
<title>look_at_p_proc</title>
<ellipse fill="#ffffff" stroke="#000000" cx="292.09" cy="-138.35" rx="125.87" ry="42.25"/>
<text text-anchor="middle" x="292.09" y="-150.93" font-family="Times,serif" font-size="14.00">You notice some oddly</text>
<text text-anchor="middle" x="292.09" y="-133.68" font-family="Times,serif" font-size="14.00">shaped fruit inside the</text>
<text text-anchor="middle" x="292.09" y="-116.43" font-family="Times,serif" font-size="14.00">jar.</text>
</g>
<!-- description_p_proc -->
<g id="node4" class="node">
<title>description_p_proc</title>
<ellipse fill="#ffffff" stroke="#000000" cx="562.09" cy="-138.35" rx="125.87" ry="42.25"/>
<text text-anchor="middle" x="562.09" y="-150.93" font-family="Times,serif" font-size="14.00">You notice some oddly</text>
<text text-anchor="middle" x="562.09" y="-133.68" font-family="Times,serif" font-size="14.00">shaped fruit inside the</text>
<text text-anchor="middle" x="562.09" y="-116.43" font-family="Times,serif" font-size="14.00">jar.</text>
</g>
</g>
</svg>
