<?xml version="1.0" encoding="UTF-8" standalone="no"?>
<!DOCTYPE svg PUBLIC "-//W3C//DTD SVG 1.1//EN"
 "http://www.w3.org/Graphics/SVG/1.1/DTD/svg11.dtd">
<!-- Generated by graphviz version 8.0.5 (0)
 -->
<!-- Title: PALGUARD Pages: 1 -->
<svg width="954pt" height="1016pt"
 viewBox="0.00 0.00 954.19 1015.96" xmlns="http://www.w3.org/2000/svg" xmlns:xlink="http://www.w3.org/1999/xlink">
<g id="graph0" class="graph" transform="scale(1 1) rotate(0) translate(4 1011.96)">
<title>PALGUARD</title>
<polygon fill="white" stroke="none" points="-4,4 -4,-1011.96 950.19,-1011.96 950.19,4 -4,4"/>
<!-- start -->
<g id="node1" class="node">
<title>start</title>
<ellipse fill="#ffffff" stroke="#000000" cx="218.19" cy="-989.96" rx="133.81" ry="18"/>
<text text-anchor="middle" x="218.19" y="-985.28" font-family="Times,serif" font-size="14.00">You see a Paladin guard.</text>
</g>
<!-- do_dialogue -->
<g id="node2" class="node">
<title>do_dialogue</title>
<ellipse fill="#ffffff" stroke="#000000" cx="218.19" cy="-917.96" rx="27" ry="18"/>
</g>
<!-- start&#45;&gt;do_dialogue -->
<g id="edge1" class="edge">
<title>start&#45;&gt;do_dialogue</title>
<path fill="none" stroke="#555555" stroke-dasharray="1,5" d="M218.19,-971.66C218.19,-964.2 218.19,-955.28 218.19,-946.92"/>
<polygon fill="#555555" stroke="#555555" points="221.69,-947.06 218.19,-937.06 214.69,-947.06 221.69,-947.06"/>
</g>
<!-- get_reaction -->
<g id="node3" class="node">
<title>get_reaction</title>
<ellipse fill="#ffffff" stroke="#000000" cx="31.19" cy="-467.98" rx="27" ry="18"/>
</g>
<!-- do_dialogue&#45;&gt;get_reaction -->
<g id="edge2" class="edge">
<title>do_dialogue&#45;&gt;get_reaction</title>
<path fill="none" stroke="#555555" stroke-dasharray="1,5" d="M191.08,-915.89C156.32,-912.93 96.99,-902.2 67.19,-863.96 -19.62,-752.58 9.55,-566.17 24.59,-496.42"/>
<polygon fill="#555555" stroke="#555555" points="28.18,-497.41 26.95,-486.89 21.35,-495.88 28.18,-497.41"/>
</g>
<!-- PalGuard01 -->
<g id="node4" class="node">
<title>PalGuard01</title>
<ellipse fill="#ffffff" stroke="#000000" cx="218.19" cy="-467.98" rx="142.31" ry="395.98"/>
<text text-anchor="middle" x="218.19" y="-730.68" font-family="Times,serif" font-size="14.00">Pssst, see any good</text>
<text text-anchor="middle" x="218.19" y="-713.43" font-family="Times,serif" font-size="14.00">deals?</text>
<text text-anchor="middle" x="218.19" y="-696.18" font-family="Times,serif" font-size="14.00">&#45;&#45;&#45;</text>
<text text-anchor="middle" x="218.19" y="-678.93" font-family="Times,serif" font-size="14.00">Sorry, I&#39;m on duty. Can&#39;t</text>
<text text-anchor="middle" x="218.19" y="-661.68" font-family="Times,serif" font-size="14.00">talk right now.</text>
<text text-anchor="middle" x="218.19" y="-644.43" font-family="Times,serif" font-size="14.00">&#45;&#45;&#45;</text>
<text text-anchor="middle" x="218.19" y="-627.18" font-family="Times,serif" font-size="14.00">What a nice day. I hope</text>
<text text-anchor="middle" x="218.19" y="-609.93" font-family="Times,serif" font-size="14.00">we don&#39;t have any attacks</text>
<text text-anchor="middle" x="218.19" y="-592.68" font-family="Times,serif" font-size="14.00">today.</text>
<text text-anchor="middle" x="218.19" y="-575.43" font-family="Times,serif" font-size="14.00">&#45;&#45;&#45;</text>
<text text-anchor="middle" x="218.19" y="-558.18" font-family="Times,serif" font-size="14.00">Some of these Caravan</text>
<text text-anchor="middle" x="218.19" y="-540.93" font-family="Times,serif" font-size="14.00">traders are a little</text>
<text text-anchor="middle" x="218.19" y="-523.68" font-family="Times,serif" font-size="14.00">strange.</text>
<text text-anchor="middle" x="218.19" y="-506.43" font-family="Times,serif" font-size="14.00">&#45;&#45;&#45;</text>
<text text-anchor="middle" x="218.19" y="-489.18" font-family="Times,serif" font-size="14.00">Good day.</text>
<text text-anchor="middle" x="218.19" y="-471.93" font-family="Times,serif" font-size="14.00">&#45;&#45;&#45;</text>
<text text-anchor="middle" x="218.19" y="-454.68" font-family="Times,serif" font-size="14.00">Hi there, good looking.</text>
<text text-anchor="middle" x="218.19" y="-437.43" font-family="Times,serif" font-size="14.00">&#45;&#45;&#45;</text>
<text text-anchor="middle" x="218.19" y="-420.18" font-family="Times,serif" font-size="14.00">Greetings, initiate.</text>
<text text-anchor="middle" x="218.19" y="-402.93" font-family="Times,serif" font-size="14.00">&#45;&#45;&#45;</text>
<text text-anchor="middle" x="218.19" y="-385.68" font-family="Times,serif" font-size="14.00">If you have any questions</text>
<text text-anchor="middle" x="218.19" y="-368.43" font-family="Times,serif" font-size="14.00">about our order, you</text>
<text text-anchor="middle" x="218.19" y="-351.18" font-family="Times,serif" font-size="14.00">should</text>
<text text-anchor="middle" x="218.19" y="-333.93" font-family="Times,serif" font-size="14.00">talk to Cabbot, over by</text>
<text text-anchor="middle" x="218.19" y="-316.68" font-family="Times,serif" font-size="14.00">the door.</text>
<text text-anchor="middle" x="218.19" y="-299.43" font-family="Times,serif" font-size="14.00">&#45;&#45;&#45;</text>
<text text-anchor="middle" x="218.19" y="-282.18" font-family="Times,serif" font-size="14.00">Cabbot is the one you</text>
<text text-anchor="middle" x="218.19" y="-264.93" font-family="Times,serif" font-size="14.00">want to talk to; he&#39;s the</text>
<text text-anchor="middle" x="218.19" y="-247.68" font-family="Times,serif" font-size="14.00"> young lad by the door.</text>
<text text-anchor="middle" x="218.19" y="-230.43" font-family="Times,serif" font-size="14.00">&#45;&#45;&#45;</text>
<text text-anchor="middle" x="218.19" y="-213.18" font-family="Times,serif" font-size="14.00">Pssst, see any good</text>
<text text-anchor="middle" x="218.19" y="-195.93" font-family="Times,serif" font-size="14.00">deals?</text>
</g>
<!-- do_dialogue&#45;&gt;PalGuard01 -->
<g id="edge3" class="edge">
<title>do_dialogue&#45;&gt;PalGuard01</title>
<path fill="none" stroke="#555555" stroke-dasharray="1,5" d="M218.19,-899.67C218.19,-893.12 218.19,-884.88 218.19,-875.26"/>
<polygon fill="#555555" stroke="#555555" points="221.69,-875.3 218.19,-865.3 214.69,-875.3 221.69,-875.3"/>
</g>
<!-- PalGuard02 -->
<g id="node5" class="node">
<title>PalGuard02</title>
<ellipse fill="#ffffff" stroke="#000000" cx="518.19" cy="-467.98" rx="140.18" ry="395.98"/>
<text text-anchor="middle" x="518.19" y="-730.68" font-family="Times,serif" font-size="14.00">If you&#39;re here to trade</text>
<text text-anchor="middle" x="518.19" y="-713.43" font-family="Times,serif" font-size="14.00">you&#39;re talking to the</text>
<text text-anchor="middle" x="518.19" y="-696.18" font-family="Times,serif" font-size="14.00">wrong person.</text>
<text text-anchor="middle" x="518.19" y="-678.93" font-family="Times,serif" font-size="14.00">&#45;&#45;&#45;</text>
<text text-anchor="middle" x="518.19" y="-661.68" font-family="Times,serif" font-size="14.00">What?</text>
<text text-anchor="middle" x="518.19" y="-644.43" font-family="Times,serif" font-size="14.00">&#45;&#45;&#45;</text>
<text text-anchor="middle" x="518.19" y="-627.18" font-family="Times,serif" font-size="14.00">Don&#39;t bother me, worm.</text>
<text text-anchor="middle" x="518.19" y="-609.93" font-family="Times,serif" font-size="14.00">&#45;&#45;&#45;</text>
<text text-anchor="middle" x="518.19" y="-592.68" font-family="Times,serif" font-size="14.00">Do I look like I&#39;m</text>
<text text-anchor="middle" x="518.19" y="-575.43" font-family="Times,serif" font-size="14.00">interested in anything</text>
<text text-anchor="middle" x="518.19" y="-558.18" font-family="Times,serif" font-size="14.00">you might have</text>
<text text-anchor="middle" x="518.19" y="-540.93" font-family="Times,serif" font-size="14.00"> to offer?</text>
<text text-anchor="middle" x="518.19" y="-523.68" font-family="Times,serif" font-size="14.00">&#45;&#45;&#45;</text>
<text text-anchor="middle" x="518.19" y="-506.43" font-family="Times,serif" font-size="14.00">Hmph. The nerve.</text>
<text text-anchor="middle" x="518.19" y="-489.18" font-family="Times,serif" font-size="14.00">&#45;&#45;&#45;</text>
<text text-anchor="middle" x="518.19" y="-471.93" font-family="Times,serif" font-size="14.00">Initiate, you should know</text>
<text text-anchor="middle" x="518.19" y="-454.68" font-family="Times,serif" font-size="14.00">better than to bother us</text>
<text text-anchor="middle" x="518.19" y="-437.43" font-family="Times,serif" font-size="14.00">while</text>
<text text-anchor="middle" x="518.19" y="-420.18" font-family="Times,serif" font-size="14.00"> we&#39;re on watch.</text>
<text text-anchor="middle" x="518.19" y="-402.93" font-family="Times,serif" font-size="14.00">&#45;&#45;&#45;</text>
<text text-anchor="middle" x="518.19" y="-385.68" font-family="Times,serif" font-size="14.00">If you have any questions</text>
<text text-anchor="middle" x="518.19" y="-368.43" font-family="Times,serif" font-size="14.00">about the Order, you</text>
<text text-anchor="middle" x="518.19" y="-351.18" font-family="Times,serif" font-size="14.00">should</text>
<text text-anchor="middle" x="518.19" y="-333.93" font-family="Times,serif" font-size="14.00">talk to Cabbot, by the</text>
<text text-anchor="middle" x="518.19" y="-316.68" font-family="Times,serif" font-size="14.00">door.</text>
<text text-anchor="middle" x="518.19" y="-299.43" font-family="Times,serif" font-size="14.00">&#45;&#45;&#45;</text>
<text text-anchor="middle" x="518.19" y="-282.18" font-family="Times,serif" font-size="14.00">Initiate, shouldn&#39;t you</text>
<text text-anchor="middle" x="518.19" y="-264.93" font-family="Times,serif" font-size="14.00">be doing something</text>
<text text-anchor="middle" x="518.19" y="-247.68" font-family="Times,serif" font-size="14.00">useful?</text>
<text text-anchor="middle" x="518.19" y="-230.43" font-family="Times,serif" font-size="14.00">&#45;&#45;&#45;</text>
<text text-anchor="middle" x="518.19" y="-213.18" font-family="Times,serif" font-size="14.00">I don&#39;t think you should</text>
<text text-anchor="middle" x="518.19" y="-195.93" font-family="Times,serif" font-size="14.00">be here, stranger.</text>
</g>
<!-- do_dialogue&#45;&gt;PalGuard02 -->
<g id="edge4" class="edge">
<title>do_dialogue&#45;&gt;PalGuard02</title>
<path fill="none" stroke="#555555" stroke-dasharray="1,5" d="M244.96,-914.41C278.26,-909.87 334.91,-897.45 369.19,-863.96 391.44,-842.22 410.41,-816.82 426.57,-789.59"/>
<polygon fill="#555555" stroke="#555555" points="429.98,-791.69 431.95,-781.28 423.92,-788.19 429.98,-791.69"/>
</g>
<!-- ReactToLevel -->
<g id="node6" class="node">
<title>ReactToLevel</title>
<ellipse fill="#ffffff" stroke="#000000" cx="775.19" cy="-18" rx="27" ry="18"/>
</g>
<!-- get_reaction&#45;&gt;ReactToLevel -->
<g id="edge5" class="edge">
<title>get_reaction&#45;&gt;ReactToLevel</title>
<path fill="none" stroke="#555555" stroke-dasharray="1,5" d="M26.14,-449.99C9.09,-388.7 -39.57,-177.04 67.19,-72 115.2,-24.76 597.37,-19.55 737.31,-19.04"/>
<polygon fill="#555555" stroke="#555555" points="736.92,-22.54 746.91,-19.01 736.9,-15.54 736.92,-22.54"/>
</g>
<!-- LevelToReact -->
<g id="node7" class="node">
<title>LevelToReact</title>
<ellipse fill="#ffffff" stroke="#000000" cx="433.19" cy="-917.96" rx="27" ry="18"/>
</g>
<!-- UpReact -->
<g id="node8" class="node">
<title>UpReact</title>
<ellipse fill="#ffffff" stroke="#000000" cx="703.19" cy="-467.98" rx="27" ry="18"/>
</g>
<!-- UpReact&#45;&gt;ReactToLevel -->
<g id="edge6" class="edge">
<title>UpReact&#45;&gt;ReactToLevel</title>
<path fill="none" stroke="#555555" stroke-dasharray="1,5" d="M701.76,-449.78C697.73,-393.53 689.52,-210.73 739.19,-72 742.88,-61.69 749.05,-51.48 755.25,-42.81"/>
<polygon fill="#555555" stroke="#555555" points="758.62,-45.16 761.87,-35.08 753.04,-40.93 758.62,-45.16"/>
</g>
<!-- DownReact -->
<g id="node9" class="node">
<title>DownReact</title>
<ellipse fill="#ffffff" stroke="#000000" cx="775.19" cy="-467.98" rx="27" ry="18"/>
</g>
<!-- DownReact&#45;&gt;ReactToLevel -->
<g id="edge7" class="edge">
<title>DownReact&#45;&gt;ReactToLevel</title>
<path fill="none" stroke="#555555" stroke-dasharray="1,5" d="M775.19,-449.69C775.19,-381.66 775.19,-131.95 775.19,-47.29"/>
<polygon fill="#555555" stroke="#555555" points="778.69,-47.48 775.19,-37.48 771.69,-47.48 778.69,-47.48"/>
</g>
<!-- BottomReact -->
<g id="node10" class="node">
<title>BottomReact</title>
<ellipse fill="#ffffff" stroke="#000000" cx="541.19" cy="-989.96" rx="27" ry="18"/>
</g>
<!-- TopReact -->
<g id="node11" class="node">
<title>TopReact</title>
<ellipse fill="#ffffff" stroke="#000000" cx="613.19" cy="-989.96" rx="27" ry="18"/>
</g>
<!-- BigUpReact -->
<g id="node12" class="node">
<title>BigUpReact</title>
<ellipse fill="#ffffff" stroke="#000000" cx="847.19" cy="-467.98" rx="27" ry="18"/>
</g>
<!-- BigUpReact&#45;&gt;ReactToLevel -->
<g id="edge8" class="edge">
<title>BigUpReact&#45;&gt;ReactToLevel</title>
<path fill="none" stroke="#555555" stroke-dasharray="1,5" d="M848.61,-449.78C852.64,-393.53 860.85,-210.73 811.19,-72 807.5,-61.69 801.32,-51.48 795.12,-42.81"/>
<polygon fill="#555555" stroke="#555555" points="797.33,-40.93 788.5,-35.08 791.75,-45.16 797.33,-40.93"/>
</g>
<!-- BigDownReact -->
<g id="node13" class="node">
<title>BigDownReact</title>
<ellipse fill="#ffffff" stroke="#000000" cx="919.19" cy="-467.98" rx="27" ry="18"/>
</g>
<!-- BigDownReact&#45;&gt;ReactToLevel -->
<g id="edge9" class="edge">
<title>BigDownReact&#45;&gt;ReactToLevel</title>
<path fill="none" stroke="#555555" stroke-dasharray="1,5" d="M923,-450.04C935.16,-391.48 967.5,-194.52 883.19,-72 866.58,-47.87 835.76,-34.27 811.28,-26.91"/>
<polygon fill="#555555" stroke="#555555" points="812.46,-23.33 801.89,-24.03 810.6,-30.07 812.46,-23.33"/>
</g>
<!-- UpReactLevel -->
<g id="node14" class="node">
<title>UpReactLevel</title>
<ellipse fill="#ffffff" stroke="#000000" cx="397.19" cy="-989.96" rx="27" ry="18"/>
</g>
<!-- UpReactLevel&#45;&gt;LevelToReact -->
<g id="edge10" class="edge">
<title>UpReactLevel&#45;&gt;LevelToReact</title>
<path fill="none" stroke="#555555" stroke-dasharray="1,5" d="M405.54,-972.72C409.81,-964.42 415.11,-954.11 419.92,-944.75"/>
<polygon fill="#555555" stroke="#555555" points="423.42,-946.6 424.88,-936.11 417.2,-943.4 423.42,-946.6"/>
</g>
<!-- DownReactLevel -->
<g id="node15" class="node">
<title>DownReactLevel</title>
<ellipse fill="#ffffff" stroke="#000000" cx="469.19" cy="-989.96" rx="27" ry="18"/>
</g>
<!-- DownReactLevel&#45;&gt;LevelToReact -->
<g id="edge11" class="edge">
<title>DownReactLevel&#45;&gt;LevelToReact</title>
<path fill="none" stroke="#555555" stroke-dasharray="1,5" d="M460.84,-972.72C456.57,-964.42 451.27,-954.11 446.45,-944.75"/>
<polygon fill="#555555" stroke="#555555" points="449.18,-943.4 441.49,-936.11 442.95,-946.6 449.18,-943.4"/>
</g>
<!-- Goodbyes -->
<g id="node16" class="node">
<title>Goodbyes</title>
<ellipse fill="#ffffff" stroke="#000000" cx="685.19" cy="-989.96" rx="27" ry="18"/>
</g>
</g>
</svg>
