<?xml version="1.0" encoding="UTF-8" standalone="no"?>
<!DOCTYPE svg PUBLIC "-//W3C//DTD SVG 1.1//EN"
 "http://www.w3.org/Graphics/SVG/1.1/DTD/svg11.dtd">
<!-- Generated by graphviz version 8.0.5 (0)
 -->
<!-- Title: PLEASANT Pages: 1 -->
<svg width="576pt" height="188pt"
 viewBox="0.00 0.00 576.00 188.00" xmlns="http://www.w3.org/2000/svg" xmlns:xlink="http://www.w3.org/1999/xlink">
<g id="graph0" class="graph" transform="scale(1 1) rotate(0) translate(4 184)">
<title>PLEASANT</title>
<polygon fill="white" stroke="none" points="-4,4 -4,-184 572,-184 572,4 -4,4"/>
<!-- start -->
<g id="node1" class="node">
<title>start</title>
<ellipse fill="#ffffff" stroke="#000000" cx="245" cy="-162" rx="27" ry="18"/>
</g>
<!-- combat_p_proc -->
<g id="node2" class="node">
<title>combat_p_proc</title>
<ellipse fill="#ffffff" stroke="#000000" cx="27" cy="-90" rx="27" ry="18"/>
</g>
<!-- start&#45;&gt;combat_p_proc -->
<g id="edge1" class="edge">
<title>start&#45;&gt;combat_p_proc</title>
<path fill="none" stroke="#555555" stroke-dasharray="1,5" d="M219.86,-155.02C184.37,-146.27 117.78,-128.76 63,-108 61.31,-107.36 59.59,-106.67 57.87,-105.96"/>
<polygon fill="#555555" stroke="#555555" points="59.64,-102.47 49.08,-101.63 56.81,-108.88 59.64,-102.47"/>
</g>
<!-- critter_p_proc -->
<g id="node3" class="node">
<title>critter_p_proc</title>
<ellipse fill="#ffffff" stroke="#000000" cx="99" cy="-90" rx="27" ry="18"/>
</g>
<!-- start&#45;&gt;critter_p_proc -->
<g id="edge2" class="edge">
<title>start&#45;&gt;critter_p_proc</title>
<path fill="none" stroke="#555555" stroke-dasharray="1,5" d="M223.46,-150.67C198.87,-138.88 158.45,-119.5 130.37,-106.04"/>
<polygon fill="#555555" stroke="#555555" points="132.16,-102.54 121.63,-101.37 129.14,-108.85 132.16,-102.54"/>
</g>
<!-- destroy_p_proc -->
<g id="node4" class="node">
<title>destroy_p_proc</title>
<ellipse fill="#ffffff" stroke="#000000" cx="171" cy="-90" rx="27" ry="18"/>
</g>
<!-- start&#45;&gt;destroy_p_proc -->
<g id="edge3" class="edge">
<title>start&#45;&gt;destroy_p_proc</title>
<path fill="none" stroke="#555555" stroke-dasharray="1,5" d="M230.02,-146.83C219.66,-137.03 205.68,-123.8 193.92,-112.68"/>
<polygon fill="#555555" stroke="#555555" points="196.88,-110.71 187.21,-106.38 192.07,-115.8 196.88,-110.71"/>
</g>
<!-- look_at_p_proc -->
<g id="node5" class="node">
<title>look_at_p_proc</title>
<ellipse fill="#ffffff" stroke="#000000" cx="320" cy="-90" rx="103.82" ry="18"/>
<text text-anchor="middle" x="320" y="-85.33" font-family="Times,serif" font-size="14.00">You see a peasant.</text>
</g>
<!-- start&#45;&gt;look_at_p_proc -->
<g id="edge4" class="edge">
<title>start&#45;&gt;look_at_p_proc</title>
<path fill="none" stroke="#555555" stroke-dasharray="1,5" d="M260.18,-146.83C269.82,-137.83 282.56,-125.94 293.81,-115.45"/>
<polygon fill="#555555" stroke="#555555" points="295.74,-118.49 300.66,-109.11 290.97,-113.38 295.74,-118.49"/>
</g>
<!-- pickup_p_proc -->
<g id="node6" class="node">
<title>pickup_p_proc</title>
<ellipse fill="#ffffff" stroke="#000000" cx="469" cy="-90" rx="27" ry="18"/>
</g>
<!-- start&#45;&gt;pickup_p_proc -->
<g id="edge5" class="edge">
<title>start&#45;&gt;pickup_p_proc</title>
<path fill="none" stroke="#555555" stroke-dasharray="1,5" d="M266.01,-150.18C270.86,-147.94 276.04,-145.74 281,-144 346.52,-121.05 367.48,-130.95 433,-108 434.7,-107.4 436.44,-106.75 438.17,-106.06"/>
<polygon fill="#555555" stroke="#555555" points="439.2,-109 446.99,-101.82 436.42,-102.57 439.2,-109"/>
</g>
<!-- talk_p_proc -->
<g id="node7" class="node">
<title>talk_p_proc</title>
<ellipse fill="#ffffff" stroke="#000000" cx="541" cy="-90" rx="27" ry="18"/>
</g>
<!-- start&#45;&gt;talk_p_proc -->
<g id="edge6" class="edge">
<title>start&#45;&gt;talk_p_proc</title>
<path fill="none" stroke="#555555" stroke-dasharray="1,5" d="M265.54,-150.09C270.5,-147.8 275.85,-145.59 281,-144 377.32,-114.18 408.68,-137.82 505,-108 506.77,-107.45 508.56,-106.83 510.36,-106.16"/>
<polygon fill="#555555" stroke="#555555" points="511.6,-109.02 519.46,-101.91 508.88,-102.56 511.6,-109.02"/>
</g>
<!-- flee_dude -->
<g id="node8" class="node">
<title>flee_dude</title>
<ellipse fill="#ffffff" stroke="#000000" cx="99" cy="-18" rx="27" ry="18"/>
</g>
<!-- critter_p_proc&#45;&gt;flee_dude -->
<g id="edge7" class="edge">
<title>critter_p_proc&#45;&gt;flee_dude</title>
<path fill="none" stroke="#555555" stroke-dasharray="1,5" d="M99,-71.7C99,-64.24 99,-55.32 99,-46.97"/>
<polygon fill="#555555" stroke="#555555" points="102.5,-47.1 99,-37.1 95.5,-47.1 102.5,-47.1"/>
</g>
<!-- damage_p_proc -->
<g id="node9" class="node">
<title>damage_p_proc</title>
<ellipse fill="#ffffff" stroke="#000000" cx="317" cy="-162" rx="27" ry="18"/>
</g>
<!-- timed_event_p_proc -->
<g id="node10" class="node">
<title>timed_event_p_proc</title>
<ellipse fill="#ffffff" stroke="#000000" cx="389" cy="-162" rx="27" ry="18"/>
</g>
</g>
</svg>
