<?xml version="1.0" encoding="UTF-8" standalone="no"?>
<!DOCTYPE svg PUBLIC "-//W3C//DTD SVG 1.1//EN"
 "http://www.w3.org/Graphics/SVG/1.1/DTD/svg11.dtd">
<!-- Generated by graphviz version 8.0.5 (0)
 -->
<!-- Title: RAIDGRD Pages: 1 -->
<svg width="1322pt" height="1154pt"
 viewBox="0.00 0.00 1321.52 1153.84" xmlns="http://www.w3.org/2000/svg" xmlns:xlink="http://www.w3.org/1999/xlink">
<g id="graph0" class="graph" transform="scale(1 1) rotate(0) translate(4 1149.84)">
<title>RAIDGRD</title>
<polygon fill="white" stroke="none" points="-4,4 -4,-1149.84 1317.52,-1149.84 1317.52,4 -4,4"/>
<!-- start -->
<g id="node1" class="node">
<title>start</title>
<ellipse fill="#ffffff" stroke="#000000" cx="128.52" cy="-1067" rx="128.52" ry="78.84"/>
<text text-anchor="middle" x="128.52" y="-1105.45" font-family="Times,serif" font-size="14.00">The Raider is too</text>
<text text-anchor="middle" x="128.52" y="-1088.2" font-family="Times,serif" font-size="14.00">frightened of Garl to</text>
<text text-anchor="middle" x="128.52" y="-1070.95" font-family="Times,serif" font-size="14.00">speak to you any more.</text>
<text text-anchor="middle" x="128.52" y="-1053.7" font-family="Times,serif" font-size="14.00">&#45;&#45;&#45;</text>
<text text-anchor="middle" x="128.52" y="-1036.45" font-family="Times,serif" font-size="14.00">You see a tough desert</text>
<text text-anchor="middle" x="128.52" y="-1019.2" font-family="Times,serif" font-size="14.00">Raider.</text>
</g>
<!-- combat -->
<g id="node2" class="node">
<title>combat</title>
<ellipse fill="#ffffff" stroke="#000000" cx="92.52" cy="-91.04" rx="27" ry="18"/>
</g>
<!-- start&#45;&gt;combat -->
<g id="edge1" class="edge">
<title>start&#45;&gt;combat</title>
<path fill="none" stroke="#555555" stroke-dasharray="1,5" d="M83.72,-992.69C78.17,-973.88 74.52,-953.5 74.52,-934.16 74.52,-934.16 74.52,-934.16 74.52,-347.67 74.52,-264.41 74.52,-165.9 81.6,-119.2"/>
<polygon fill="#555555" stroke="#555555" points="85.2,-119.95 83.56,-109.49 78.32,-118.7 85.2,-119.95"/>
</g>
<!-- start&#45;&gt;combat -->
<g id="edge2" class="edge">
<title>start&#45;&gt;combat</title>
<path fill="none" stroke="#555555" stroke-dasharray="1,5" d="M100.42,-989.91C95.82,-971.89 92.52,-952.55 92.52,-934.16 92.52,-934.16 92.52,-934.16 92.52,-347.67 92.52,-265.03 92.52,-167.35 92.52,-120.24"/>
<polygon fill="#555555" stroke="#555555" points="96.02,-120.4 92.52,-110.4 89.02,-120.4 96.02,-120.4"/>
</g>
<!-- start&#45;&gt;combat -->
<g id="edge3" class="edge">
<title>start&#45;&gt;combat</title>
<path fill="none" stroke="#555555" stroke-dasharray="1,5" d="M117.52,-988.16C113.61,-970.64 110.52,-951.95 110.52,-934.16 110.52,-934.16 110.52,-934.16 110.52,-347.67 110.52,-264.41 110.52,-165.9 103.43,-119.2"/>
<polygon fill="#555555" stroke="#555555" points="106.72,-118.7 101.48,-109.49 99.83,-119.95 106.72,-118.7"/>
</g>
<!-- do_dialogue -->
<g id="node3" class="node">
<title>do_dialogue</title>
<ellipse fill="#ffffff" stroke="#000000" cx="165.52" cy="-933.16" rx="27" ry="18"/>
</g>
<!-- start&#45;&gt;do_dialogue -->
<g id="edge4" class="edge">
<title>start&#45;&gt;do_dialogue</title>
<path fill="none" stroke="#555555" stroke-dasharray="1,5" d="M150.15,-988.93C152.89,-979.16 155.53,-969.74 157.83,-961.54"/>
<polygon fill="#555555" stroke="#555555" points="161.4,-962.77 160.73,-952.2 154.66,-960.88 161.4,-962.77"/>
</g>
<!-- Critter_Action -->
<g id="node4" class="node">
<title>Critter_Action</title>
<ellipse fill="#ffffff" stroke="#000000" cx="237.52" cy="-933.16" rx="27" ry="18"/>
</g>
<!-- start&#45;&gt;Critter_Action -->
<g id="edge5" class="edge">
<title>start&#45;&gt;Critter_Action</title>
<path fill="none" stroke="#555555" stroke-dasharray="1,5" d="M186.21,-996.22C197.73,-982.28 209.07,-968.57 218.14,-957.6"/>
<polygon fill="#555555" stroke="#555555" points="221.21,-960.37 224.89,-950.43 215.82,-955.91 221.21,-960.37"/>
</g>
<!-- damage_p_proc -->
<g id="node5" class="node">
<title>damage_p_proc</title>
<ellipse fill="#ffffff" stroke="#000000" cx="309.52" cy="-933.16" rx="27" ry="18"/>
</g>
<!-- start&#45;&gt;damage_p_proc -->
<g id="edge6" class="edge">
<title>start&#45;&gt;damage_p_proc</title>
<path fill="none" stroke="#555555" stroke-dasharray="1,5" d="M210.81,-1006.06C236.97,-987 264.06,-967.27 283.22,-953.31"/>
<polygon fill="#555555" stroke="#555555" points="284.93,-955.67 290.95,-946.95 280.81,-950.01 284.93,-955.67"/>
</g>
<!-- guard00 -->
<g id="node6" class="node">
<title>guard00</title>
<ellipse fill="#ffffff" stroke="#000000" cx="494.52" cy="-860.16" rx="27" ry="18"/>
</g>
<!-- do_dialogue&#45;&gt;guard00 -->
<g id="edge7" class="edge">
<title>do_dialogue&#45;&gt;guard00</title>
<path fill="none" stroke="#555555" stroke-dasharray="1,5" d="M186.04,-921.18C190.99,-918.9 196.35,-916.71 201.52,-915.16 312.03,-881.93 348,-911.39 458.52,-878.16 460.29,-877.63 462.09,-877.02 463.89,-876.36"/>
<polygon fill="#555555" stroke="#555555" points="465.12,-879.22 472.99,-872.13 462.42,-872.76 465.12,-879.22"/>
</g>
<!-- guard02 -->
<g id="node7" class="node">
<title>guard02</title>
<ellipse fill="#ffffff" stroke="#000000" cx="165.52" cy="-860.16" rx="27" ry="18"/>
</g>
<!-- do_dialogue&#45;&gt;guard02 -->
<g id="edge8" class="edge">
<title>do_dialogue&#45;&gt;guard02</title>
<path fill="none" stroke="#555555" stroke-dasharray="1,5" d="M165.52,-914.97C165.52,-907.21 165.52,-897.84 165.52,-889.11"/>
<polygon fill="#555555" stroke="#555555" points="169.02,-889.19 165.52,-879.19 162.02,-889.19 169.02,-889.19"/>
</g>
<!-- sys_dialog -->
<g id="node8" class="node">
<title>sys_dialog</title>
<ellipse fill="#ffffff" stroke="#000000" cx="422.52" cy="-860.16" rx="27" ry="18"/>
</g>
<!-- do_dialogue&#45;&gt;sys_dialog -->
<g id="edge9" class="edge">
<title>do_dialogue&#45;&gt;sys_dialog</title>
<path fill="none" stroke="#555555" stroke-dasharray="1,5" d="M186.54,-921.37C191.38,-919.12 196.57,-916.91 201.52,-915.16 264.84,-892.73 341.57,-876.27 385.95,-867.74"/>
<polygon fill="#555555" stroke="#555555" points="386.33,-871.05 395.5,-865.75 385.03,-864.17 386.33,-871.05"/>
</g>
<!-- get_reaction -->
<g id="node9" class="node">
<title>get_reaction</title>
<ellipse fill="#ffffff" stroke="#000000" cx="1004.52" cy="-733.16" rx="27" ry="18"/>
</g>
<!-- sys_dialog&#45;&gt;get_reaction -->
<g id="edge10" class="edge">
<title>sys_dialog&#45;&gt;get_reaction</title>
<path fill="none" stroke="#555555" stroke-dasharray="1,5" d="M443.02,-848.13C447.98,-845.85 453.34,-843.68 458.52,-842.16 580.66,-806.33 617.69,-830.09 742.52,-805.16 825.22,-788.64 920.34,-760.52 970.09,-745.09"/>
<polygon fill="#555555" stroke="#555555" points="971.07,-748.14 979.57,-741.82 968.99,-741.46 971.07,-748.14"/>
</g>
<!-- guard04 -->
<g id="node10" class="node">
<title>guard04</title>
<ellipse fill="#ffffff" stroke="#000000" cx="422.52" cy="-787.16" rx="106.98" ry="18"/>
<text text-anchor="middle" x="422.52" y="-782.48" font-family="Times,serif" font-size="14.00">What do you want?</text>
</g>
<!-- sys_dialog&#45;&gt;guard04 -->
<g id="edge11" class="edge">
<title>sys_dialog&#45;&gt;guard04</title>
<path fill="none" stroke="#555555" stroke-dasharray="1,5" d="M422.52,-841.97C422.52,-834.21 422.52,-824.84 422.52,-816.11"/>
<polygon fill="#555555" stroke="#555555" points="426.02,-816.19 422.52,-806.19 419.02,-816.19 426.02,-816.19"/>
</g>
<!-- guard15 -->
<g id="node11" class="node">
<title>guard15</title>
<ellipse fill="#ffffff" stroke="#000000" cx="640.52" cy="-787.16" rx="92.77" ry="18"/>
<text text-anchor="middle" x="640.52" y="-782.48" font-family="Times,serif" font-size="14.00">What? Go away!</text>
</g>
<!-- sys_dialog&#45;&gt;guard15 -->
<g id="edge12" class="edge">
<title>sys_dialog&#45;&gt;guard15</title>
<path fill="none" stroke="#555555" stroke-dasharray="1,5" d="M443.6,-848.54C448.44,-846.29 453.61,-844.03 458.52,-842.16 496.47,-827.67 540.06,-814.61 575.07,-804.97"/>
<polygon fill="#555555" stroke="#555555" points="575.91,-808.1 584.64,-802.09 574.07,-801.34 575.91,-808.1"/>
</g>
<!-- ReactToLevel -->
<g id="node29" class="node">
<title>ReactToLevel</title>
<ellipse fill="#ffffff" stroke="#000000" cx="1101.52" cy="-348.67" rx="27" ry="18"/>
</g>
<!-- get_reaction&#45;&gt;ReactToLevel -->
<g id="edge26" class="edge">
<title>get_reaction&#45;&gt;ReactToLevel</title>
<path fill="none" stroke="#555555" stroke-dasharray="1,5" d="M1016.55,-716.9C1020.63,-711.03 1024.82,-704.07 1027.52,-697.16 1065.56,-599.54 1041.34,-566.46 1065.52,-464.51 1072.73,-434.11 1083.8,-400.05 1091.76,-376.97"/>
<polygon fill="#555555" stroke="#555555" points="1095.39,-378.18 1095.38,-367.58 1088.78,-375.87 1095.39,-378.18"/>
</g>
<!-- guard07 -->
<g id="node14" class="node">
<title>guard07</title>
<ellipse fill="#ffffff" stroke="#000000" cx="357.52" cy="-642.71" rx="116.32" ry="30.05"/>
<text text-anchor="middle" x="357.52" y="-646.66" font-family="Times,serif" font-size="14.00">Nah. I ain&#39;t seen her.</text>
<text text-anchor="middle" x="357.52" y="-629.41" font-family="Times,serif" font-size="14.00">Why are you asking?</text>
</g>
<!-- guard04&#45;&gt;guard07 -->
<g id="edge13" class="edge">
<title>guard04&#45;&gt;guard07</title>
<path fill="none" stroke="#004599" d="M414.68,-768.98C404.99,-747.76 388.22,-711.01 375.35,-682.78"/>
<polygon fill="#004599" stroke="#004599" points="378.13,-681.46 370.8,-673.82 371.76,-684.37 378.13,-681.46"/>
<text text-anchor="middle" x="491.39" y="-737.11" font-family="Times,serif" font-size="14.00" fill="#004599">I&#39;m looking for a woman</text>
<text text-anchor="middle" x="491.39" y="-719.86" font-family="Times,serif" font-size="14.00" fill="#004599">named Tandi. Seen her?</text>
</g>
<!-- guard06 -->
<g id="node15" class="node">
<title>guard06</title>
<ellipse fill="#ffffff" stroke="#000000" cx="899.52" cy="-642.71" rx="119.08" ry="18"/>
<text text-anchor="middle" x="899.52" y="-638.04" font-family="Times,serif" font-size="14.00">Then do it elsewhere.</text>
</g>
<!-- guard04&#45;&gt;guard06 -->
<g id="edge14" class="edge">
<title>guard04&#45;&gt;guard06</title>
<path fill="none" stroke="#729900" d="M501.19,-774.57C568.74,-764.59 655.59,-751.72 657.52,-751.16 731.7,-729.6 812.77,-690.05 859.72,-665.41"/>
<polygon fill="#729900" stroke="#729900" points="861,-668.16 868.2,-660.39 857.73,-661.98 861,-668.16"/>
<text text-anchor="middle" x="828.89" y="-737.11" font-family="Times,serif" font-size="14.00" fill="#729900">Nothing. Just looking</text>
<text text-anchor="middle" x="828.89" y="-719.86" font-family="Times,serif" font-size="14.00" fill="#729900">around.</text>
</g>
<!-- guard05 -->
<g id="node16" class="node">
<title>guard05</title>
<ellipse fill="#ffffff" stroke="#000000" cx="627.52" cy="-642.71" rx="135.41" ry="54.45"/>
<text text-anchor="middle" x="627.52" y="-663.91" font-family="Times,serif" font-size="14.00">Oh. You must be looking</text>
<text text-anchor="middle" x="627.52" y="-646.66" font-family="Times,serif" font-size="14.00">for a job. Go and see</text>
<text text-anchor="middle" x="627.52" y="-629.41" font-family="Times,serif" font-size="14.00">Garl in the big room and</text>
<text text-anchor="middle" x="627.52" y="-612.16" font-family="Times,serif" font-size="14.00">leave us alone.</text>
</g>
<!-- guard04&#45;&gt;guard05 -->
<g id="edge15" class="edge">
<title>guard04&#45;&gt;guard05</title>
<path fill="none" stroke="#940099" d="M503.98,-775.21C536.51,-769.43 569.16,-761.39 581.52,-751.16 595.17,-739.85 604.87,-723.75 611.71,-707.44"/>
<polygon fill="#940099" stroke="#940099" points="615.29,-708.89 615.61,-698.3 608.75,-706.38 615.29,-708.89"/>
<text text-anchor="middle" x="631.02" y="-728.48" font-family="Times,serif" font-size="14.00" fill="#940099">Huh??</text>
</g>
<!-- guard01 -->
<g id="node12" class="node">
<title>guard01</title>
<ellipse fill="#ffffff" stroke="#000000" cx="302.52" cy="-1067" rx="27" ry="18"/>
</g>
<!-- guard03 -->
<g id="node13" class="node">
<title>guard03</title>
<ellipse fill="#ffffff" stroke="#000000" cx="374.52" cy="-1067" rx="27" ry="18"/>
</g>
<!-- guard08 -->
<g id="node18" class="node">
<title>guard08</title>
<ellipse fill="#ffffff" stroke="#000000" cx="744.52" cy="-482.51" rx="45.42" ry="18"/>
<text text-anchor="middle" x="744.52" y="-477.84" font-family="Times,serif" font-size="14.00">Ah, ok.</text>
</g>
<!-- guard07&#45;&gt;guard08 -->
<g id="edge17" class="edge">
<title>guard07&#45;&gt;guard08</title>
<path fill="none" stroke="#009967" d="M408.93,-615.41C431.28,-605.17 458.12,-594.43 483.52,-588.26 535.27,-575.7 681.74,-604.53 722.52,-570.26 739.32,-556.14 744.28,-531.19 745.35,-511.66"/>
<polygon fill="#009967" stroke="#009967" points="748.86,-511.98 745.59,-501.91 741.86,-511.83 748.86,-511.98"/>
<text text-anchor="middle" x="833.27" y="-548.34" font-family="Times,serif" font-size="14.00" fill="#009967">Nothing. Just looking for</text>
<text text-anchor="middle" x="833.27" y="-531.09" font-family="Times,serif" font-size="14.00" fill="#009967">a friend of mine.</text>
</g>
<!-- guard07a -->
<g id="node19" class="node">
<title>guard07a</title>
<ellipse fill="#ffffff" stroke="#000000" cx="654.52" cy="-482.51" rx="27" ry="18"/>
</g>
<!-- guard07&#45;&gt;guard07a -->
<g id="edge18" class="edge">
<title>guard07&#45;&gt;guard07a</title>
<path fill="none" stroke="#993a00" d="M417.86,-616.67C458.85,-599.24 506.95,-577.84 514.52,-570.26 532.37,-552.4 519,-535.14 538.02,-518.51 559.81,-499.47 591.64,-490.79 616.53,-486.83"/>
<polygon fill="#993a00" stroke="#993a00" points="616.99,-490.16 626.42,-485.32 616.03,-483.23 616.99,-490.16"/>
<text text-anchor="middle" x="630.77" y="-556.96" font-family="Times,serif" font-size="14.00" fill="#993a00">There is a bounty on her</text>
<text text-anchor="middle" x="630.77" y="-539.71" font-family="Times,serif" font-size="14.00" fill="#993a00">head. If I can kill her,</text>
<text text-anchor="middle" x="630.77" y="-522.46" font-family="Times,serif" font-size="14.00" fill="#993a00">I can get some good cash.</text>
</g>
<!-- guard07b -->
<g id="node20" class="node">
<title>guard07b</title>
<ellipse fill="#ffffff" stroke="#000000" cx="357.52" cy="-482.51" rx="27" ry="18"/>
</g>
<!-- guard07&#45;&gt;guard07b -->
<g id="edge19" class="edge">
<title>guard07&#45;&gt;guard07b</title>
<path fill="none" stroke="#0e0099" d="M357.52,-612.33C357.52,-583.58 357.52,-540.11 357.52,-511.76"/>
<polygon fill="#0e0099" stroke="#0e0099" points="361.02,-511.99 357.52,-501.99 354.02,-511.99 361.02,-511.99"/>
<text text-anchor="middle" x="435.52" y="-548.34" font-family="Times,serif" font-size="14.00" fill="#0e0099">You&#39;re lying. Where is</text>
<text text-anchor="middle" x="435.52" y="-531.09" font-family="Times,serif" font-size="14.00" fill="#0e0099">she?</text>
</g>
<!-- DownReact -->
<g id="node17" class="node">
<title>DownReact</title>
<ellipse fill="#ffffff" stroke="#000000" cx="963.52" cy="-482.51" rx="27" ry="18"/>
</g>
<!-- guard06&#45;&gt;DownReact -->
<g id="edge16" class="edge">
<title>guard06&#45;&gt;DownReact</title>
<path fill="none" stroke="#555555" stroke-dasharray="1,5" d="M906.49,-624.48C917.61,-597 939.44,-543.02 952.63,-510.42"/>
<polygon fill="#555555" stroke="#555555" points="956.24,-511.83 956.75,-501.25 949.75,-509.2 956.24,-511.83"/>
</g>
<!-- DownReact&#45;&gt;ReactToLevel -->
<g id="edge28" class="edge">
<title>DownReact&#45;&gt;ReactToLevel</title>
<path fill="none" stroke="#555555" stroke-dasharray="1,5" d="M984.25,-470.75C1013.61,-455.47 1063.96,-429.16 1065.52,-427.51 1079.04,-413.24 1088.19,-392.98 1093.88,-376.7"/>
<polygon fill="#555555" stroke="#555555" points="1097.38,-378.28 1097.14,-367.69 1090.72,-376.12 1097.38,-378.28"/>
</g>
<!-- guard09 -->
<g id="node21" class="node">
<title>guard09</title>
<ellipse fill="#ffffff" stroke="#000000" cx="931.52" cy="-348.67" rx="124.8" ry="30.05"/>
<text text-anchor="middle" x="931.52" y="-352.62" font-family="Times,serif" font-size="14.00">Really? What does she</text>
<text text-anchor="middle" x="931.52" y="-335.37" font-family="Times,serif" font-size="14.00">look like?</text>
</g>
<!-- guard07a&#45;&gt;guard09 -->
<g id="edge20" class="edge">
<title>guard07a&#45;&gt;guard09</title>
<path fill="none" stroke="#555555" stroke-dasharray="1,5" d="M675.67,-471.06C680.5,-468.8 685.65,-466.5 690.52,-464.51 737.11,-445.52 751.77,-448.47 797.52,-427.51 825.6,-414.65 855.45,-397.66 879.84,-382.84"/>
<polygon fill="#555555" stroke="#555555" points="881.21,-385.49 887.9,-377.28 877.54,-379.53 881.21,-385.49"/>
</g>
<!-- guard11 -->
<g id="node22" class="node">
<title>guard11</title>
<ellipse fill="#ffffff" stroke="#000000" cx="654.52" cy="-348.67" rx="133.82" ry="78.84"/>
<text text-anchor="middle" x="654.52" y="-387.12" font-family="Times,serif" font-size="14.00">You don&#39;t sound like you</text>
<text text-anchor="middle" x="654.52" y="-369.87" font-family="Times,serif" font-size="14.00">mean it. I think that you</text>
<text text-anchor="middle" x="654.52" y="-352.62" font-family="Times,serif" font-size="14.00">are up to something.</text>
<text text-anchor="middle" x="654.52" y="-335.37" font-family="Times,serif" font-size="14.00">And if you are telling</text>
<text text-anchor="middle" x="654.52" y="-318.12" font-family="Times,serif" font-size="14.00">the truth, then I&#39;ll bag</text>
<text text-anchor="middle" x="654.52" y="-300.87" font-family="Times,serif" font-size="14.00">the reward for myself.</text>
</g>
<!-- guard07a&#45;&gt;guard11 -->
<g id="edge21" class="edge">
<title>guard07a&#45;&gt;guard11</title>
<path fill="none" stroke="#555555" stroke-dasharray="1,5" d="M654.52,-464.28C654.52,-457.1 654.52,-448.19 654.52,-438.52"/>
<polygon fill="#555555" stroke="#555555" points="658.02,-438.78 654.52,-428.78 651.02,-438.78 658.02,-438.78"/>
</g>
<!-- guard12 -->
<g id="node23" class="node">
<title>guard12</title>
<ellipse fill="#ffffff" stroke="#000000" cx="383.52" cy="-348.67" rx="118.97" ry="42.25"/>
<text text-anchor="middle" x="383.52" y="-361.25" font-family="Times,serif" font-size="14.00">I . . . I can&#39;t say any</text>
<text text-anchor="middle" x="383.52" y="-344" font-family="Times,serif" font-size="14.00">more, or Garl will kill</text>
<text text-anchor="middle" x="383.52" y="-326.75" font-family="Times,serif" font-size="14.00">me.</text>
</g>
<!-- guard07b&#45;&gt;guard12 -->
<g id="edge22" class="edge">
<title>guard07b&#45;&gt;guard12</title>
<path fill="none" stroke="#555555" stroke-dasharray="1,5" d="M360.92,-464.28C364.04,-448.44 368.83,-424.14 373.2,-401.98"/>
<polygon fill="#555555" stroke="#555555" points="376.8,-402.81 375.3,-392.32 369.93,-401.45 376.8,-402.81"/>
</g>
<!-- guard13 -->
<g id="node24" class="node">
<title>guard13</title>
<ellipse fill="#ffffff" stroke="#000000" cx="192.52" cy="-348.67" rx="54.36" ry="18"/>
<text text-anchor="middle" x="192.52" y="-344" font-family="Times,serif" font-size="14.00">Bite me!</text>
</g>
<!-- guard07b&#45;&gt;guard13 -->
<g id="edge23" class="edge">
<title>guard07b&#45;&gt;guard13</title>
<path fill="none" stroke="#555555" stroke-dasharray="1,5" d="M334.45,-472.5C312.67,-463.29 279.81,-447.51 255.52,-427.51 237.45,-412.65 220.97,-391.9 209.4,-375.56"/>
<polygon fill="#555555" stroke="#555555" points="211.73,-373.78 203.18,-367.53 205.97,-377.75 211.73,-373.78"/>
</g>
<!-- guard10 -->
<g id="node25" class="node">
<title>guard10</title>
<ellipse fill="#ffffff" stroke="#000000" cx="931.52" cy="-91.04" rx="143.37" ry="91.04"/>
<text text-anchor="middle" x="931.52" y="-138.11" font-family="Times,serif" font-size="14.00">Yeah, she&#39;s here. She&#39;s</text>
<text text-anchor="middle" x="931.52" y="-120.86" font-family="Times,serif" font-size="14.00">in the big house. You</text>
<text text-anchor="middle" x="931.52" y="-103.61" font-family="Times,serif" font-size="14.00">know, if we tell Garl,</text>
<text text-anchor="middle" x="931.52" y="-86.36" font-family="Times,serif" font-size="14.00">then he would want a</text>
<text text-anchor="middle" x="931.52" y="-69.11" font-family="Times,serif" font-size="14.00">piece of the bounty. You</text>
<text text-anchor="middle" x="931.52" y="-51.86" font-family="Times,serif" font-size="14.00">might want to think about</text>
<text text-anchor="middle" x="931.52" y="-34.61" font-family="Times,serif" font-size="14.00">that.</text>
</g>
<!-- guard09&#45;&gt;guard10 -->
<g id="edge24" class="edge">
<title>guard09&#45;&gt;guard10</title>
<path fill="none" stroke="#1f9900" d="M931.52,-318.35C931.52,-287.88 931.52,-238.46 931.52,-193.56"/>
<polygon fill="#1f9900" stroke="#1f9900" points="935.02,-193.56 931.52,-183.56 928.02,-193.56 935.02,-193.56"/>
<text text-anchor="middle" x="1023.39" y="-238.53" font-family="Times,serif" font-size="14.00" fill="#1f9900">About 6 feet tall.</text>
<text text-anchor="middle" x="1023.39" y="-221.28" font-family="Times,serif" font-size="14.00" fill="#1f9900">Blonde. She&#39;s from Shady</text>
<text text-anchor="middle" x="1023.39" y="-204.03" font-family="Times,serif" font-size="14.00" fill="#1f9900">Sands.</text>
</g>
<!-- guard13&#45;&gt;combat -->
<g id="edge25" class="edge">
<title>guard13&#45;&gt;combat</title>
<path fill="none" stroke="#555555" stroke-dasharray="1,5" d="M185.8,-330.5C168.72,-286.83 123.51,-171.26 102.95,-118.72"/>
<polygon fill="#555555" stroke="#555555" points="105.98,-117.84 99.07,-109.8 99.46,-120.39 105.98,-117.84"/>
</g>
<!-- guard14 -->
<g id="node26" class="node">
<title>guard14</title>
<ellipse fill="#ffffff" stroke="#000000" cx="542.52" cy="-1067" rx="123.21" ry="42.25"/>
<text text-anchor="middle" x="542.52" y="-1079.58" font-family="Times,serif" font-size="14.00">I don&#39;t like your looks.</text>
<text text-anchor="middle" x="542.52" y="-1062.33" font-family="Times,serif" font-size="14.00">You&#39;d better get away</text>
<text text-anchor="middle" x="542.52" y="-1045.08" font-family="Times,serif" font-size="14.00">from me.</text>
</g>
<!-- guardend -->
<g id="node27" class="node">
<title>guardend</title>
<ellipse fill="#ffffff" stroke="#000000" cx="710.52" cy="-1067" rx="27" ry="18"/>
</g>
<!-- weapon_check -->
<g id="node28" class="node">
<title>weapon_check</title>
<ellipse fill="#ffffff" stroke="#000000" cx="782.52" cy="-1067" rx="27" ry="18"/>
</g>
<!-- LevelToReact -->
<g id="node30" class="node">
<title>LevelToReact</title>
<ellipse fill="#ffffff" stroke="#000000" cx="890.52" cy="-933.16" rx="27" ry="18"/>
</g>
<!-- UpReact -->
<g id="node31" class="node">
<title>UpReact</title>
<ellipse fill="#ffffff" stroke="#000000" cx="1101.52" cy="-482.51" rx="27" ry="18"/>
</g>
<!-- UpReact&#45;&gt;ReactToLevel -->
<g id="edge27" class="edge">
<title>UpReact&#45;&gt;ReactToLevel</title>
<path fill="none" stroke="#555555" stroke-dasharray="1,5" d="M1101.52,-464.28C1101.52,-442.27 1101.52,-403.9 1101.52,-377.67"/>
<polygon fill="#555555" stroke="#555555" points="1105.02,-377.91 1101.52,-367.91 1098.02,-377.91 1105.02,-377.91"/>
</g>
<!-- BottomReact -->
<g id="node32" class="node">
<title>BottomReact</title>
<ellipse fill="#ffffff" stroke="#000000" cx="998.52" cy="-1067" rx="27" ry="18"/>
</g>
<!-- TopReact -->
<g id="node33" class="node">
<title>TopReact</title>
<ellipse fill="#ffffff" stroke="#000000" cx="1070.52" cy="-1067" rx="27" ry="18"/>
</g>
<!-- BigUpReact -->
<g id="node34" class="node">
<title>BigUpReact</title>
<ellipse fill="#ffffff" stroke="#000000" cx="1173.52" cy="-482.51" rx="27" ry="18"/>
</g>
<!-- BigUpReact&#45;&gt;ReactToLevel -->
<g id="edge29" class="edge">
<title>BigUpReact&#45;&gt;ReactToLevel</title>
<path fill="none" stroke="#555555" stroke-dasharray="1,5" d="M1164.54,-465.08C1152.24,-442.56 1130.02,-401.87 1115.52,-375.31"/>
<polygon fill="#555555" stroke="#555555" points="1118.24,-374 1110.38,-366.9 1112.1,-377.35 1118.24,-374"/>
</g>
<!-- BigDownReact -->
<g id="node35" class="node">
<title>BigDownReact</title>
<ellipse fill="#ffffff" stroke="#000000" cx="1245.52" cy="-482.51" rx="27" ry="18"/>
</g>
<!-- BigDownReact&#45;&gt;ReactToLevel -->
<g id="edge30" class="edge">
<title>BigDownReact&#45;&gt;ReactToLevel</title>
<path fill="none" stroke="#555555" stroke-dasharray="1,5" d="M1230.11,-467.41C1204.77,-444.21 1154.19,-397.9 1124.57,-370.78"/>
<polygon fill="#555555" stroke="#555555" points="1127.56,-368.85 1117.82,-364.68 1122.83,-374.01 1127.56,-368.85"/>
</g>
<!-- UpReactLevel -->
<g id="node36" class="node">
<title>UpReactLevel</title>
<ellipse fill="#ffffff" stroke="#000000" cx="854.52" cy="-1067" rx="27" ry="18"/>
</g>
<!-- UpReactLevel&#45;&gt;LevelToReact -->
<g id="edge31" class="edge">
<title>UpReactLevel&#45;&gt;LevelToReact</title>
<path fill="none" stroke="#555555" stroke-dasharray="1,5" d="M859.15,-1049.04C865.2,-1026.88 875.86,-987.84 883.05,-961.49"/>
<polygon fill="#555555" stroke="#555555" points="886.64,-962.63 885.9,-952.06 879.89,-960.79 886.64,-962.63"/>
</g>
<!-- DownReactLevel -->
<g id="node37" class="node">
<title>DownReactLevel</title>
<ellipse fill="#ffffff" stroke="#000000" cx="926.52" cy="-1067" rx="27" ry="18"/>
</g>
<!-- DownReactLevel&#45;&gt;LevelToReact -->
<g id="edge32" class="edge">
<title>DownReactLevel&#45;&gt;LevelToReact</title>
<path fill="none" stroke="#555555" stroke-dasharray="1,5" d="M921.88,-1049.04C915.84,-1026.88 905.17,-987.84 897.98,-961.49"/>
<polygon fill="#555555" stroke="#555555" points="901.14,-960.79 895.13,-952.06 894.39,-962.63 901.14,-960.79"/>
</g>
<!-- Goodbyes -->
<g id="node38" class="node">
<title>Goodbyes</title>
<ellipse fill="#ffffff" stroke="#000000" cx="1142.52" cy="-1067" rx="27" ry="18"/>
</g>
<!-- first -->
<g id="node39" class="node">
<title>first</title>
<ellipse fill="#ffffff" stroke="#000000" cx="1214.52" cy="-1067" rx="27" ry="18"/>
</g>
<!-- notfirst -->
<g id="node40" class="node">
<title>notfirst</title>
<ellipse fill="#ffffff" stroke="#000000" cx="1286.52" cy="-1067" rx="27" ry="18"/>
</g>
</g>
</svg>
