<?xml version="1.0" encoding="UTF-8" standalone="no"?>
<!DOCTYPE svg PUBLIC "-//W3C//DTD SVG 1.1//EN"
 "http://www.w3.org/Graphics/SVG/1.1/DTD/svg11.dtd">
<!-- Generated by graphviz version 8.0.5 (0)
 -->
<!-- Title: ROBOT Pages: 1 -->
<svg width="1067pt" height="406pt"
 viewBox="0.00 0.00 1066.58 406.08" xmlns="http://www.w3.org/2000/svg" xmlns:xlink="http://www.w3.org/1999/xlink">
<g id="graph0" class="graph" transform="scale(1 1) rotate(0) translate(4 402.08)">
<title>ROBOT</title>
<polygon fill="white" stroke="none" points="-4,4 -4,-402.08 1062.58,-402.08 1062.58,4 -4,4"/>
<!-- start -->
<g id="node1" class="node">
<title>start</title>
<ellipse fill="#ffffff" stroke="#000000" cx="404" cy="-380.08" rx="27" ry="18"/>
</g>
<!-- do_dialogue -->
<g id="node2" class="node">
<title>do_dialogue</title>
<ellipse fill="#ffffff" stroke="#000000" cx="404" cy="-308.08" rx="27" ry="18"/>
</g>
<!-- start&#45;&gt;do_dialogue -->
<g id="edge1" class="edge">
<title>start&#45;&gt;do_dialogue</title>
<path fill="none" stroke="#555555" stroke-dasharray="1,5" d="M404,-361.78C404,-354.32 404,-345.4 404,-337.05"/>
<polygon fill="#555555" stroke="#555555" points="407.5,-337.18 404,-327.18 400.5,-337.18 407.5,-337.18"/>
</g>
<!-- get_reaction -->
<g id="node3" class="node">
<title>get_reaction</title>
<ellipse fill="#ffffff" stroke="#000000" cx="27" cy="-163.04" rx="27" ry="18"/>
</g>
<!-- do_dialogue&#45;&gt;get_reaction -->
<g id="edge2" class="edge">
<title>do_dialogue&#45;&gt;get_reaction</title>
<path fill="none" stroke="#555555" stroke-dasharray="1,5" d="M376.9,-306.25C304.99,-303.54 111.57,-292.75 63,-254.08 44,-238.95 34.98,-212.28 30.73,-191.87"/>
<polygon fill="#555555" stroke="#555555" points="34.04,-191.52 28.82,-182.3 27.15,-192.76 34.04,-191.52"/>
</g>
<!-- robot00 -->
<g id="node4" class="node">
<title>robot00</title>
<ellipse fill="#ffffff" stroke="#000000" cx="150" cy="-163.04" rx="77.51" ry="18"/>
<text text-anchor="middle" x="150" y="-158.36" font-family="Times,serif" font-size="14.00">Peace to you.</text>
</g>
<!-- do_dialogue&#45;&gt;robot00 -->
<g id="edge3" class="edge">
<title>do_dialogue&#45;&gt;robot00</title>
<path fill="none" stroke="#555555" stroke-dasharray="1,5" d="M377.72,-302.89C343.32,-296.51 282.11,-282.05 237,-254.08 209.76,-237.2 185.05,-209.9 168.98,-189.78"/>
<polygon fill="#555555" stroke="#555555" points="171.13,-187.85 162.22,-182.11 165.61,-192.15 171.13,-187.85"/>
</g>
<!-- robot02 -->
<g id="node5" class="node">
<title>robot02</title>
<ellipse fill="#ffffff" stroke="#000000" cx="658" cy="-163.04" rx="123.74" ry="30.05"/>
<text text-anchor="middle" x="658" y="-166.99" font-family="Times,serif" font-size="14.00">[Breep!] No peace. No</text>
<text text-anchor="middle" x="658" y="-149.74" font-family="Times,serif" font-size="14.00">peace.</text>
</g>
<!-- do_dialogue&#45;&gt;robot02 -->
<g id="edge4" class="edge">
<title>do_dialogue&#45;&gt;robot02</title>
<path fill="none" stroke="#555555" stroke-dasharray="1,5" d="M427.34,-298.33C452.16,-288.68 492.27,-272.13 525,-254.08 554.9,-237.59 586.63,-216.27 611.6,-198.52"/>
<polygon fill="#555555" stroke="#555555" points="613.38,-200.83 619.47,-192.16 609.3,-195.14 613.38,-200.83"/>
</g>
<!-- robot01 -->
<g id="node6" class="node">
<title>robot01</title>
<ellipse fill="#ffffff" stroke="#000000" cx="929" cy="-163.04" rx="129.58" ry="91.04"/>
<text text-anchor="middle" x="929" y="-210.11" font-family="Times,serif" font-size="14.00">Exterminate!</text>
<text text-anchor="middle" x="929" y="-192.86" font-family="Times,serif" font-size="14.00">&#45;&#45;&#45;</text>
<text text-anchor="middle" x="929" y="-175.61" font-family="Times,serif" font-size="14.00">Kill the human!</text>
<text text-anchor="middle" x="929" y="-158.36" font-family="Times,serif" font-size="14.00">&#45;&#45;&#45;</text>
<text text-anchor="middle" x="929" y="-141.11" font-family="Times,serif" font-size="14.00">Kill the intruder!</text>
<text text-anchor="middle" x="929" y="-123.86" font-family="Times,serif" font-size="14.00">&#45;&#45;&#45;</text>
<text text-anchor="middle" x="929" y="-106.61" font-family="Times,serif" font-size="14.00">[Brrzk!] Death to flesh!</text>
</g>
<!-- do_dialogue&#45;&gt;robot01 -->
<g id="edge5" class="edge">
<title>do_dialogue&#45;&gt;robot01</title>
<path fill="none" stroke="#555555" stroke-dasharray="1,5" d="M430.46,-303.78C514.99,-293.2 774,-260.42 791,-254.08 804.48,-249.05 817.99,-242.52 831,-235.28"/>
<polygon fill="#555555" stroke="#555555" points="832.45,-237.91 839.37,-229.89 828.96,-231.84 832.45,-237.91"/>
</g>
<!-- ReactToLevel -->
<g id="node9" class="node">
<title>ReactToLevel</title>
<ellipse fill="#ffffff" stroke="#000000" cx="345" cy="-18" rx="27" ry="18"/>
</g>
<!-- get_reaction&#45;&gt;ReactToLevel -->
<g id="edge8" class="edge">
<title>get_reaction&#45;&gt;ReactToLevel</title>
<path fill="none" stroke="#555555" stroke-dasharray="1,5" d="M28.92,-144.9C32.17,-124.32 40.76,-90.28 63,-72 99.82,-41.73 239.14,-27.1 307.17,-21.64"/>
<polygon fill="#555555" stroke="#555555" points="307.14,-25.08 316.84,-20.81 306.6,-18.1 307.14,-25.08"/>
</g>
<!-- robotcbt -->
<g id="node7" class="node">
<title>robotcbt</title>
<ellipse fill="#ffffff" stroke="#000000" cx="793" cy="-18" rx="27" ry="18"/>
</g>
<!-- robot02&#45;&gt;robotcbt -->
<g id="edge7" class="edge">
<title>robot02&#45;&gt;robotcbt</title>
<path fill="none" stroke="#555555" stroke-dasharray="1,5" d="M684.99,-133.44C710.57,-106.34 748.47,-66.19 771.9,-41.36"/>
<polygon fill="#555555" stroke="#555555" points="773.94,-44.24 778.25,-34.56 768.85,-39.43 773.94,-44.24"/>
</g>
<!-- robot01&#45;&gt;robotcbt -->
<g id="edge6" class="edge">
<title>robot01&#45;&gt;robotcbt</title>
<path fill="none" stroke="#555555" stroke-dasharray="1,5" d="M857.42,-86.75C841.82,-70.34 826.47,-54.2 814.67,-41.79"/>
<polygon fill="#555555" stroke="#555555" points="817.54,-39.68 808.11,-34.84 812.47,-44.5 817.54,-39.68"/>
</g>
<!-- robotend -->
<g id="node8" class="node">
<title>robotend</title>
<ellipse fill="#ffffff" stroke="#000000" cx="476" cy="-380.08" rx="27" ry="18"/>
</g>
<!-- LevelToReact -->
<g id="node10" class="node">
<title>LevelToReact</title>
<ellipse fill="#ffffff" stroke="#000000" cx="584" cy="-308.08" rx="27" ry="18"/>
</g>
<!-- UpReact -->
<g id="node11" class="node">
<title>UpReact</title>
<ellipse fill="#ffffff" stroke="#000000" cx="273" cy="-163.04" rx="27" ry="18"/>
</g>
<!-- UpReact&#45;&gt;ReactToLevel -->
<g id="edge9" class="edge">
<title>UpReact&#45;&gt;ReactToLevel</title>
<path fill="none" stroke="#555555" stroke-dasharray="1,5" d="M278.59,-144.96C284.91,-126.48 296.04,-96.38 309,-72 314.21,-62.19 320.84,-51.97 326.98,-43.15"/>
<polygon fill="#555555" stroke="#555555" points="330.4,-45.38 333.37,-35.21 324.7,-41.31 330.4,-45.38"/>
</g>
<!-- DownReact -->
<g id="node12" class="node">
<title>DownReact</title>
<ellipse fill="#ffffff" stroke="#000000" cx="345" cy="-163.04" rx="27" ry="18"/>
</g>
<!-- DownReact&#45;&gt;ReactToLevel -->
<g id="edge10" class="edge">
<title>DownReact&#45;&gt;ReactToLevel</title>
<path fill="none" stroke="#555555" stroke-dasharray="1,5" d="M345,-144.79C345,-120.51 345,-76.02 345,-46.98"/>
<polygon fill="#555555" stroke="#555555" points="348.5,-47.32 345,-37.32 341.5,-47.32 348.5,-47.32"/>
</g>
<!-- BottomReact -->
<g id="node13" class="node">
<title>BottomReact</title>
<ellipse fill="#ffffff" stroke="#000000" cx="692" cy="-380.08" rx="27" ry="18"/>
</g>
<!-- TopReact -->
<g id="node14" class="node">
<title>TopReact</title>
<ellipse fill="#ffffff" stroke="#000000" cx="764" cy="-380.08" rx="27" ry="18"/>
</g>
<!-- BigUpReact -->
<g id="node15" class="node">
<title>BigUpReact</title>
<ellipse fill="#ffffff" stroke="#000000" cx="417" cy="-163.04" rx="27" ry="18"/>
</g>
<!-- BigUpReact&#45;&gt;ReactToLevel -->
<g id="edge11" class="edge">
<title>BigUpReact&#45;&gt;ReactToLevel</title>
<path fill="none" stroke="#555555" stroke-dasharray="1,5" d="M411.41,-144.96C405.09,-126.48 393.96,-96.38 381,-72 375.79,-62.19 369.16,-51.97 363.02,-43.15"/>
<polygon fill="#555555" stroke="#555555" points="365.3,-41.31 356.63,-35.21 359.6,-45.38 365.3,-41.31"/>
</g>
<!-- BigDownReact -->
<g id="node16" class="node">
<title>BigDownReact</title>
<ellipse fill="#ffffff" stroke="#000000" cx="489" cy="-163.04" rx="27" ry="18"/>
</g>
<!-- BigDownReact&#45;&gt;ReactToLevel -->
<g id="edge12" class="edge">
<title>BigDownReact&#45;&gt;ReactToLevel</title>
<path fill="none" stroke="#555555" stroke-dasharray="1,5" d="M485.98,-144.79C481.72,-125.04 472.23,-92.74 453,-72 433.42,-50.88 403.6,-37.13 380.26,-28.95"/>
<polygon fill="#555555" stroke="#555555" points="381.64,-25.39 371.04,-25.57 379.44,-32.03 381.64,-25.39"/>
</g>
<!-- UpReactLevel -->
<g id="node17" class="node">
<title>UpReactLevel</title>
<ellipse fill="#ffffff" stroke="#000000" cx="548" cy="-380.08" rx="27" ry="18"/>
</g>
<!-- UpReactLevel&#45;&gt;LevelToReact -->
<g id="edge13" class="edge">
<title>UpReactLevel&#45;&gt;LevelToReact</title>
<path fill="none" stroke="#555555" stroke-dasharray="1,5" d="M556.35,-362.84C560.62,-354.54 565.92,-344.23 570.73,-334.87"/>
<polygon fill="#555555" stroke="#555555" points="574.23,-336.72 575.7,-326.23 568.01,-333.52 574.23,-336.72"/>
</g>
<!-- DownReactLevel -->
<g id="node18" class="node">
<title>DownReactLevel</title>
<ellipse fill="#ffffff" stroke="#000000" cx="620" cy="-380.08" rx="27" ry="18"/>
</g>
<!-- DownReactLevel&#45;&gt;LevelToReact -->
<g id="edge14" class="edge">
<title>DownReactLevel&#45;&gt;LevelToReact</title>
<path fill="none" stroke="#555555" stroke-dasharray="1,5" d="M611.65,-362.84C607.38,-354.54 602.08,-344.23 597.27,-334.87"/>
<polygon fill="#555555" stroke="#555555" points="599.99,-333.52 592.3,-326.23 593.77,-336.72 599.99,-333.52"/>
</g>
<!-- Goodbyes -->
<g id="node19" class="node">
<title>Goodbyes</title>
<ellipse fill="#ffffff" stroke="#000000" cx="836" cy="-380.08" rx="27" ry="18"/>
</g>
</g>
</svg>
