<?xml version="1.0" encoding="UTF-8" standalone="no"?>
<!DOCTYPE svg PUBLIC "-//W3C//DTD SVG 1.1//EN"
 "http://www.w3.org/Graphics/SVG/1.1/DTD/svg11.dtd">
<!-- Generated by graphviz version 8.0.5 (0)
 -->
<!-- Title: SETCOLER Pages: 1 -->
<svg width="1142pt" height="552pt"
 viewBox="0.00 0.00 1141.87 552.16" xmlns="http://www.w3.org/2000/svg" xmlns:xlink="http://www.w3.org/1999/xlink">
<g id="graph0" class="graph" transform="scale(1 1) rotate(0) translate(4 548.16)">
<title>SETCOLER</title>
<polygon fill="white" stroke="none" points="-4,4 -4,-548.16 1137.87,-548.16 1137.87,4 -4,4"/>
<!-- start -->
<g id="node1" class="node">
<title>start</title>
<ellipse fill="#ffffff" stroke="#000000" cx="835.99" cy="-526.16" rx="27" ry="18"/>
</g>
<!-- see_stuff -->
<g id="node2" class="node">
<title>see_stuff</title>
<ellipse fill="#ffffff" stroke="#000000" cx="320.99" cy="-381.12" rx="121.18" ry="18"/>
<text text-anchor="middle" x="320.99" y="-376.44" font-family="Times,serif" font-size="14.00">You see Set&#39;s lockbox.</text>
</g>
<!-- start&#45;&gt;see_stuff -->
<g id="edge1" class="edge">
<title>start&#45;&gt;see_stuff</title>
<path fill="none" stroke="#555555" stroke-dasharray="1,5" d="M808.77,-525.68C744.27,-526.02 577.99,-521.61 450.99,-472.16 411.62,-456.83 372.62,-427.41 347.76,-406.36"/>
<polygon fill="#555555" stroke="#555555" points="350.44,-403.19 340.58,-399.31 345.86,-408.49 350.44,-403.19"/>
</g>
<!-- trap_stuff -->
<g id="node3" class="node">
<title>trap_stuff</title>
<ellipse fill="#ffffff" stroke="#000000" cx="573.99" cy="-381.12" rx="113.67" ry="30.05"/>
<text text-anchor="middle" x="573.99" y="-385.07" font-family="Times,serif" font-size="14.00">That skill won&#39;t help</text>
<text text-anchor="middle" x="573.99" y="-367.82" font-family="Times,serif" font-size="14.00">here.</text>
</g>
<!-- start&#45;&gt;trap_stuff -->
<g id="edge2" class="edge">
<title>start&#45;&gt;trap_stuff</title>
<path fill="none" stroke="#555555" stroke-dasharray="1,5" d="M811.52,-518.03C783.05,-509.24 735.1,-492.89 696.99,-472.16 668.33,-456.58 638.76,-435.13 615.79,-417.07"/>
<polygon fill="#555555" stroke="#555555" points="618.33,-413.83 608.33,-410.34 613.97,-419.3 618.33,-413.83"/>
</g>
<!-- find_iq -->
<g id="node4" class="node">
<title>find_iq</title>
<ellipse fill="#ffffff" stroke="#000000" cx="835.99" cy="-381.12" rx="130.11" ry="91.04"/>
<text text-anchor="middle" x="835.99" y="-428.19" font-family="Times,serif" font-size="14.00">You find a crude</text>
<text text-anchor="middle" x="835.99" y="-410.94" font-family="Times,serif" font-size="14.00">explosive device</text>
<text text-anchor="middle" x="835.99" y="-393.69" font-family="Times,serif" font-size="14.00">connected to the</text>
<text text-anchor="middle" x="835.99" y="-376.44" font-family="Times,serif" font-size="14.00">footlocker.</text>
<text text-anchor="middle" x="835.99" y="-359.19" font-family="Times,serif" font-size="14.00">&#45;&#45;&#45;</text>
<text text-anchor="middle" x="835.99" y="-341.94" font-family="Times,serif" font-size="14.00">You set off an explosive</text>
<text text-anchor="middle" x="835.99" y="-324.69" font-family="Times,serif" font-size="14.00">trap!</text>
</g>
<!-- start&#45;&gt;find_iq -->
<g id="edge3" class="edge">
<title>start&#45;&gt;find_iq</title>
<path fill="none" stroke="#555555" stroke-dasharray="1,5" d="M835.99,-507.91C835.99,-501.05 835.99,-492.58 835.99,-483.3"/>
<polygon fill="#555555" stroke="#555555" points="839.49,-483.52 835.99,-473.52 832.49,-483.52 839.49,-483.52"/>
</g>
<!-- close_cooler -->
<g id="node5" class="node">
<title>close_cooler</title>
<ellipse fill="#ffffff" stroke="#000000" cx="1010.99" cy="-381.12" rx="27" ry="18"/>
</g>
<!-- start&#45;&gt;close_cooler -->
<g id="edge4" class="edge">
<title>start&#45;&gt;close_cooler</title>
<path fill="none" stroke="#555555" stroke-dasharray="1,5" d="M862.46,-521.56C893.26,-516.07 943.88,-502.77 974.99,-472.16 992.02,-455.4 1001.23,-429.55 1006.06,-409.84"/>
<polygon fill="#555555" stroke="#555555" points="1009.64,-410.85 1008.37,-400.33 1002.8,-409.35 1009.64,-410.85"/>
</g>
<!-- open_cooler -->
<g id="node6" class="node">
<title>open_cooler</title>
<ellipse fill="#ffffff" stroke="#000000" cx="1082.99" cy="-381.12" rx="27" ry="18"/>
</g>
<!-- start&#45;&gt;open_cooler -->
<g id="edge5" class="edge">
<title>start&#45;&gt;open_cooler</title>
<path fill="none" stroke="#555555" stroke-dasharray="1,5" d="M863.18,-525.81C907.14,-525.38 994.23,-518.27 1046.99,-472.16 1065.08,-456.34 1074.19,-430.16 1078.71,-410.1"/>
<polygon fill="#555555" stroke="#555555" points="1082.32,-410.89 1080.82,-400.4 1075.45,-409.53 1082.32,-410.89"/>
</g>
<!-- disarm_trap -->
<g id="node7" class="node">
<title>disarm_trap</title>
<ellipse fill="#ffffff" stroke="#000000" cx="127.99" cy="-163.04" rx="127.99" ry="91.04"/>
<text text-anchor="middle" x="127.99" y="-210.11" font-family="Times,serif" font-size="14.00">You disarm the trap.</text>
<text text-anchor="middle" x="127.99" y="-192.86" font-family="Times,serif" font-size="14.00">&#45;&#45;&#45;</text>
<text text-anchor="middle" x="127.99" y="-175.61" font-family="Times,serif" font-size="14.00">You accidentally set off</text>
<text text-anchor="middle" x="127.99" y="-158.36" font-family="Times,serif" font-size="14.00">the explosive!</text>
<text text-anchor="middle" x="127.99" y="-141.11" font-family="Times,serif" font-size="14.00">&#45;&#45;&#45;</text>
<text text-anchor="middle" x="127.99" y="-123.86" font-family="Times,serif" font-size="14.00">You did not disarm the</text>
<text text-anchor="middle" x="127.99" y="-106.61" font-family="Times,serif" font-size="14.00">trap.</text>
</g>
<!-- trap_stuff&#45;&gt;disarm_trap -->
<g id="edge6" class="edge">
<title>trap_stuff&#45;&gt;disarm_trap</title>
<path fill="none" stroke="#555555" stroke-dasharray="1,5" d="M543.52,-351.83C519.99,-331.54 485.67,-305.22 450.99,-290.08 373.82,-256.4 342.98,-285.8 264.99,-254.08 251.73,-248.69 238.39,-241.94 225.52,-234.57"/>
<polygon fill="#555555" stroke="#555555" points="227.63,-231.17 217.23,-229.11 224.08,-237.2 227.63,-231.17"/>
</g>
<!-- disarm_mech -->
<g id="node8" class="node">
<title>disarm_mech</title>
<ellipse fill="#ffffff" stroke="#000000" cx="401.99" cy="-163.04" rx="127.99" ry="91.04"/>
<text text-anchor="middle" x="401.99" y="-210.11" font-family="Times,serif" font-size="14.00">You disarm the trap.</text>
<text text-anchor="middle" x="401.99" y="-192.86" font-family="Times,serif" font-size="14.00">&#45;&#45;&#45;</text>
<text text-anchor="middle" x="401.99" y="-175.61" font-family="Times,serif" font-size="14.00">You accidentally set off</text>
<text text-anchor="middle" x="401.99" y="-158.36" font-family="Times,serif" font-size="14.00">the explosive!</text>
<text text-anchor="middle" x="401.99" y="-141.11" font-family="Times,serif" font-size="14.00">&#45;&#45;&#45;</text>
<text text-anchor="middle" x="401.99" y="-123.86" font-family="Times,serif" font-size="14.00">You did not disarm the</text>
<text text-anchor="middle" x="401.99" y="-106.61" font-family="Times,serif" font-size="14.00">trap.</text>
</g>
<!-- trap_stuff&#45;&gt;disarm_mech -->
<g id="edge7" class="edge">
<title>trap_stuff&#45;&gt;disarm_mech</title>
<path fill="none" stroke="#555555" stroke-dasharray="1,5" d="M551.15,-351.43C530.76,-325.81 499.81,-286.94 471.39,-251.23"/>
<polygon fill="#555555" stroke="#555555" points="473.57,-249.35 464.6,-243.71 468.09,-253.71 473.57,-249.35"/>
</g>
<!-- find_trap -->
<g id="node9" class="node">
<title>find_trap</title>
<ellipse fill="#ffffff" stroke="#000000" cx="677.99" cy="-163.04" rx="130.11" ry="91.04"/>
<text text-anchor="middle" x="677.99" y="-210.11" font-family="Times,serif" font-size="14.00">You find a crude</text>
<text text-anchor="middle" x="677.99" y="-192.86" font-family="Times,serif" font-size="14.00">explosive device</text>
<text text-anchor="middle" x="677.99" y="-175.61" font-family="Times,serif" font-size="14.00">connected to the</text>
<text text-anchor="middle" x="677.99" y="-158.36" font-family="Times,serif" font-size="14.00">footlocker.</text>
<text text-anchor="middle" x="677.99" y="-141.11" font-family="Times,serif" font-size="14.00">&#45;&#45;&#45;</text>
<text text-anchor="middle" x="677.99" y="-123.86" font-family="Times,serif" font-size="14.00">You set off an explosive</text>
<text text-anchor="middle" x="677.99" y="-106.61" font-family="Times,serif" font-size="14.00">trap!</text>
</g>
<!-- trap_stuff&#45;&gt;find_trap -->
<g id="edge8" class="edge">
<title>trap_stuff&#45;&gt;find_trap</title>
<path fill="none" stroke="#555555" stroke-dasharray="1,5" d="M588.01,-350.98C599.42,-327.28 616.18,-292.45 632.16,-259.26"/>
<polygon fill="#555555" stroke="#555555" points="635.67,-261.02 636.86,-250.49 629.37,-257.99 635.67,-261.02"/>
</g>
<!-- explode -->
<g id="node10" class="node">
<title>explode</title>
<ellipse fill="#ffffff" stroke="#000000" cx="677.99" cy="-18" rx="27" ry="18"/>
</g>
<!-- find_iq&#45;&gt;explode -->
<g id="edge11" class="edge">
<title>find_iq&#45;&gt;explode</title>
<path fill="none" stroke="#555555" stroke-dasharray="1,5" d="M840.94,-289.71C843.37,-211.36 841.59,-105.46 816.99,-72 793.48,-40.03 748.13,-27.35 715.61,-22.31"/>
<polygon fill="#555555" stroke="#555555" points="716.51,-18.77 706.13,-20.88 715.56,-25.7 716.51,-18.77"/>
</g>
<!-- failure -->
<g id="node11" class="node">
<title>failure</title>
<ellipse fill="#ffffff" stroke="#000000" cx="998.99" cy="-163.04" rx="134.88" ry="78.84"/>
<text text-anchor="middle" x="998.99" y="-201.49" font-family="Times,serif" font-size="14.00">You accidentally set off</text>
<text text-anchor="middle" x="998.99" y="-184.24" font-family="Times,serif" font-size="14.00">the explosive, because</text>
<text text-anchor="middle" x="998.99" y="-166.99" font-family="Times,serif" font-size="14.00">you were smart enough</text>
<text text-anchor="middle" x="998.99" y="-149.74" font-family="Times,serif" font-size="14.00">to find it, but not</text>
<text text-anchor="middle" x="998.99" y="-132.49" font-family="Times,serif" font-size="14.00">smart enough to leave it</text>
<text text-anchor="middle" x="998.99" y="-115.24" font-family="Times,serif" font-size="14.00">alone.</text>
</g>
<!-- find_iq&#45;&gt;failure -->
<g id="edge10" class="edge">
<title>find_iq&#45;&gt;failure</title>
<path fill="none" stroke="#555555" stroke-dasharray="1,5" d="M896.22,-300.27C910.06,-281.92 924.78,-262.41 938.63,-244.05"/>
<polygon fill="#555555" stroke="#555555" points="941.69,-246.8 944.92,-236.71 936.11,-242.59 941.69,-246.8"/>
</g>
<!-- disarm_trap&#45;&gt;explode -->
<g id="edge12" class="edge">
<title>disarm_trap&#45;&gt;explode</title>
<path fill="none" stroke="#555555" stroke-dasharray="1,5" d="M215.51,-96.29C231.33,-86.84 248.17,-78.22 264.99,-72 396.37,-23.36 565.52,-17.99 639.96,-18.25"/>
<polygon fill="#555555" stroke="#555555" points="639.63,-21.76 649.66,-18.33 639.68,-14.76 639.63,-21.76"/>
</g>
<!-- disarm_mech&#45;&gt;explode -->
<g id="edge13" class="edge">
<title>disarm_mech&#45;&gt;explode</title>
<path fill="none" stroke="#555555" stroke-dasharray="1,5" d="M492.83,-98.43C507.92,-89.01 523.66,-79.84 538.99,-72 573.24,-54.48 614.7,-39.4 643.37,-29.86"/>
<polygon fill="#555555" stroke="#555555" points="644.28,-32.92 652.7,-26.48 642.1,-26.26 644.28,-32.92"/>
</g>
<!-- find_trap&#45;&gt;explode -->
<g id="edge9" class="edge">
<title>find_trap&#45;&gt;explode</title>
<path fill="none" stroke="#555555" stroke-dasharray="1,5" d="M677.99,-71.86C677.99,-62.92 677.99,-54.41 677.99,-46.92"/>
<polygon fill="#555555" stroke="#555555" points="681.49,-47.1 677.99,-37.1 674.49,-47.1 681.49,-47.1"/>
</g>
<!-- failure&#45;&gt;explode -->
<g id="edge14" class="edge">
<title>failure&#45;&gt;explode</title>
<path fill="none" stroke="#555555" stroke-dasharray="1,5" d="M909.89,-103.39C890.6,-92.07 869.98,-80.96 849.99,-72 804.63,-51.68 749.24,-36.15 713.8,-27.3"/>
<polygon fill="#555555" stroke="#555555" points="715.01,-23.75 704.47,-24.77 713.35,-30.55 715.01,-23.75"/>
</g>
</g>
</svg>
