<?xml version="1.0" encoding="UTF-8" standalone="no"?>
<!DOCTYPE svg PUBLIC "-//W3C//DTD SVG 1.1//EN"
 "http://www.w3.org/Graphics/SVG/1.1/DTD/svg11.dtd">
<!-- Generated by graphviz version 8.0.5 (0)
 -->
<!-- Title: SETDOOR1 Pages: 1 -->
<svg width="695pt" height="311pt"
 viewBox="0.00 0.00 694.93 310.87" xmlns="http://www.w3.org/2000/svg" xmlns:xlink="http://www.w3.org/1999/xlink">
<g id="graph0" class="graph" transform="scale(1 1) rotate(0) translate(4 306.87)">
<title>SETDOOR1</title>
<polygon fill="white" stroke="none" points="-4,4 -4,-306.87 690.93,-306.87 690.93,4 -4,4"/>
<!-- start -->
<g id="node1" class="node">
<title>start</title>
<ellipse fill="#ffffff" stroke="#000000" cx="328.27" cy="-284.87" rx="27" ry="18"/>
</g>
<!-- see_stuff -->
<g id="node2" class="node">
<title>see_stuff</title>
<ellipse fill="#ffffff" stroke="#000000" cx="124.27" cy="-115.44" rx="124.27" ry="78.84"/>
<text text-anchor="middle" x="124.27" y="-153.89" font-family="Times,serif" font-size="14.00">The door is locked.</text>
<text text-anchor="middle" x="124.27" y="-136.64" font-family="Times,serif" font-size="14.00">&#45;&#45;&#45;</text>
<text text-anchor="middle" x="124.27" y="-119.39" font-family="Times,serif" font-size="14.00">The door is open.</text>
<text text-anchor="middle" x="124.27" y="-102.14" font-family="Times,serif" font-size="14.00">&#45;&#45;&#45;</text>
<text text-anchor="middle" x="124.27" y="-84.89" font-family="Times,serif" font-size="14.00">The door is closed and</text>
<text text-anchor="middle" x="124.27" y="-67.64" font-family="Times,serif" font-size="14.00">unlocked.</text>
</g>
<!-- start&#45;&gt;see_stuff -->
<g id="edge1" class="edge">
<title>start&#45;&gt;see_stuff</title>
<path fill="none" stroke="#555555" stroke-dasharray="1,5" d="M310.21,-270.92C295.71,-260.39 274.91,-245.02 257.27,-230.87 240.02,-217.03 221.85,-201.84 204.67,-187.17"/>
<polygon fill="#555555" stroke="#555555" points="207.2,-183.87 197.33,-180.02 202.65,-189.18 207.2,-183.87"/>
</g>
<!-- do_stuff -->
<g id="node3" class="node">
<title>do_stuff</title>
<ellipse fill="#ffffff" stroke="#000000" cx="328.27" cy="-115.44" rx="61.73" ry="18"/>
<text text-anchor="middle" x="328.27" y="-110.76" font-family="Times,serif" font-size="14.00">creeeeeek</text>
</g>
<!-- start&#45;&gt;do_stuff -->
<g id="edge2" class="edge">
<title>start&#45;&gt;do_stuff</title>
<path fill="none" stroke="#555555" stroke-dasharray="1,5" d="M328.27,-266.58C328.27,-237.76 328.27,-179.6 328.27,-144.74"/>
<polygon fill="#555555" stroke="#555555" points="331.77,-144.88 328.27,-134.88 324.77,-144.88 331.77,-144.88"/>
</g>
<!-- do_skill -->
<g id="node4" class="node">
<title>do_skill</title>
<ellipse fill="#ffffff" stroke="#000000" cx="547.27" cy="-115.44" rx="139.65" ry="115.44"/>
<text text-anchor="middle" x="547.27" y="-179.76" font-family="Times,serif" font-size="14.00">You pick the lock.</text>
<text text-anchor="middle" x="547.27" y="-162.51" font-family="Times,serif" font-size="14.00">&#45;&#45;&#45;</text>
<text text-anchor="middle" x="547.27" y="-145.26" font-family="Times,serif" font-size="14.00">You cannot open this</text>
<text text-anchor="middle" x="547.27" y="-128.01" font-family="Times,serif" font-size="14.00">lock.</text>
<text text-anchor="middle" x="547.27" y="-110.76" font-family="Times,serif" font-size="14.00">&#45;&#45;&#45;</text>
<text text-anchor="middle" x="547.27" y="-93.51" font-family="Times,serif" font-size="14.00">You broke your lockpicks.</text>
<text text-anchor="middle" x="547.27" y="-76.26" font-family="Times,serif" font-size="14.00">&#45;&#45;&#45;</text>
<text text-anchor="middle" x="547.27" y="-59.01" font-family="Times,serif" font-size="14.00">You don&#39;t know how to</text>
<text text-anchor="middle" x="547.27" y="-41.76" font-family="Times,serif" font-size="14.00">pick the lock.</text>
</g>
<!-- start&#45;&gt;do_skill -->
<g id="edge3" class="edge">
<title>start&#45;&gt;do_skill</title>
<path fill="none" stroke="#555555" stroke-dasharray="1,5" d="M345.84,-270.88C360.25,-260.2 381.15,-244.64 399.27,-230.87 411.68,-221.44 424.64,-211.53 437.51,-201.64"/>
<polygon fill="#555555" stroke="#555555" points="439.15,-204.02 444.94,-195.15 434.88,-198.47 439.15,-204.02"/>
</g>
<!-- doorend -->
<g id="node5" class="node">
<title>doorend</title>
<ellipse fill="#ffffff" stroke="#000000" cx="400.27" cy="-284.87" rx="27" ry="18"/>
</g>
</g>
</svg>
