<?xml version="1.0" encoding="UTF-8" standalone="no"?>
<!DOCTYPE svg PUBLIC "-//W3C//DTD SVG 1.1//EN"
 "http://www.w3.org/Graphics/SVG/1.1/DTD/svg11.dtd">
<!-- Generated by graphviz version 8.0.5 (0)
 -->
<!-- Title: SINK Pages: 1 -->
<svg width="518pt" height="236pt"
 viewBox="0.00 0.00 517.59 236.50" xmlns="http://www.w3.org/2000/svg" xmlns:xlink="http://www.w3.org/1999/xlink">
<g id="graph0" class="graph" transform="scale(1 1) rotate(0) translate(4 232.5)">
<title>SINK</title>
<polygon fill="white" stroke="none" points="-4,4 -4,-232.5 513.59,-232.5 513.59,4 -4,4"/>
<!-- start -->
<g id="node1" class="node">
<title>start</title>
<ellipse fill="#ffffff" stroke="#000000" cx="224.88" cy="-210.5" rx="27" ry="18"/>
</g>
<!-- look_at_p_proc -->
<g id="node2" class="node">
<title>look_at_p_proc</title>
<ellipse fill="#ffffff" stroke="#000000" cx="84.88" cy="-114.25" rx="84.88" ry="18"/>
<text text-anchor="middle" x="84.88" y="-109.57" font-family="Times,serif" font-size="14.00">You see a sink.</text>
</g>
<!-- start&#45;&gt;look_at_p_proc -->
<g id="edge1" class="edge">
<title>start&#45;&gt;look_at_p_proc</title>
<path fill="none" stroke="#555555" stroke-dasharray="1,5" d="M206.29,-196.98C183.83,-181.87 145.65,-156.16 118.1,-137.61"/>
<polygon fill="#555555" stroke="#555555" points="120.45,-134.3 110.2,-131.62 116.54,-140.11 120.45,-134.3"/>
</g>
<!-- use_p_proc -->
<g id="node3" class="node">
<title>use_p_proc</title>
<ellipse fill="#ffffff" stroke="#000000" cx="224.88" cy="-18" rx="120.13" ry="18"/>
<text text-anchor="middle" x="224.88" y="-13.32" font-family="Times,serif" font-size="14.00">You wash your hands.</text>
</g>
<!-- start&#45;&gt;use_p_proc -->
<g id="edge2" class="edge">
<title>start&#45;&gt;use_p_proc</title>
<path fill="none" stroke="#555555" stroke-dasharray="1,5" d="M221.63,-192.39C219.83,-182.04 217.78,-168.56 216.88,-156.5 214.07,-119.05 214.07,-109.45 216.88,-72 217.49,-63.8 218.64,-54.95 219.87,-46.87"/>
<polygon fill="#555555" stroke="#555555" points="223.47,-47.55 221.63,-37.11 216.56,-46.42 223.47,-47.55"/>
</g>
<!-- pickup_p_proc -->
<g id="node4" class="node">
<title>pickup_p_proc</title>
<ellipse fill="#ffffff" stroke="#000000" cx="252.88" cy="-114.25" rx="27" ry="18"/>
</g>
<!-- start&#45;&gt;pickup_p_proc -->
<g id="edge3" class="edge">
<title>start&#45;&gt;pickup_p_proc</title>
<path fill="none" stroke="#555555" stroke-dasharray="1,5" d="M229.88,-192.65C234,-178.8 239.91,-158.89 244.71,-142.74"/>
<polygon fill="#555555" stroke="#555555" points="248.33,-143.85 247.82,-133.27 241.62,-141.86 248.33,-143.85"/>
</g>
<!-- use_obj_on_p_proc -->
<g id="node5" class="node">
<title>use_obj_on_p_proc</title>
<ellipse fill="#ffffff" stroke="#000000" cx="403.88" cy="-114.25" rx="105.71" ry="42.25"/>
<text text-anchor="middle" x="403.88" y="-126.82" font-family="Times,serif" font-size="14.00">You wash your </text>
<text text-anchor="middle" x="403.88" y="-109.57" font-family="Times,serif" font-size="14.00">&#45;&#45;&#45;</text>
<text text-anchor="middle" x="403.88" y="-92.32" font-family="Times,serif" font-size="14.00">. It is a bit cleaner.</text>
</g>
<!-- start&#45;&gt;use_obj_on_p_proc -->
<g id="edge4" class="edge">
<title>start&#45;&gt;use_obj_on_p_proc</title>
<path fill="none" stroke="#555555" stroke-dasharray="1,5" d="M245.76,-198.5C266.82,-187.41 300.56,-169.65 331.46,-153.38"/>
<polygon fill="#555555" stroke="#555555" points="332.73,-156.14 339.95,-148.39 329.47,-149.95 332.73,-156.14"/>
</g>
<!-- pickup_p_proc&#45;&gt;use_p_proc -->
<g id="edge5" class="edge">
<title>pickup_p_proc&#45;&gt;use_p_proc</title>
<path fill="none" stroke="#555555" stroke-dasharray="1,5" d="M247.87,-96.4C243.78,-82.63 237.92,-62.89 233.13,-46.79"/>
<polygon fill="#555555" stroke="#555555" points="236.23,-45.93 230.03,-37.34 229.52,-47.92 236.23,-45.93"/>
</g>
</g>
</svg>
