<?xml version="1.0" encoding="UTF-8" standalone="no"?>
<!DOCTYPE svg PUBLIC "-//W3C//DTD SVG 1.1//EN"
 "http://www.w3.org/Graphics/SVG/1.1/DTD/svg11.dtd">
<!-- Generated by graphviz version 8.0.5 (0)
 -->
<!-- Title: SMPRAY Pages: 1 -->
<svg width="430pt" height="284pt"
 viewBox="0.00 0.00 430.12 284.10" xmlns="http://www.w3.org/2000/svg" xmlns:xlink="http://www.w3.org/1999/xlink">
<g id="graph0" class="graph" transform="scale(1 1) rotate(0) translate(4 280.1)">
<title>SMPRAY</title>
<polygon fill="white" stroke="none" points="-4,4 -4,-280.1 426.12,-280.1 426.12,4 -4,4"/>
<!-- start -->
<g id="node1" class="node">
<title>start</title>
<ellipse fill="#ffffff" stroke="#000000" cx="191" cy="-258.1" rx="27" ry="18"/>
</g>
<!-- look_at_p_proc -->
<g id="node2" class="node">
<title>look_at_p_proc</title>
<ellipse fill="#ffffff" stroke="#000000" cx="47" cy="-186.1" rx="27" ry="18"/>
</g>
<!-- start&#45;&gt;look_at_p_proc -->
<g id="edge1" class="edge">
<title>start&#45;&gt;look_at_p_proc</title>
<path fill="none" stroke="#555555" stroke-dasharray="1,5" d="M169.44,-246.62C145.12,-234.8 105.38,-215.48 77.8,-202.07"/>
<polygon fill="#555555" stroke="#555555" points="79.76,-198.65 69.24,-197.43 76.7,-204.95 79.76,-198.65"/>
</g>
<!-- pickup_p_proc -->
<g id="node3" class="node">
<title>pickup_p_proc</title>
<ellipse fill="#ffffff" stroke="#000000" cx="119" cy="-186.1" rx="27" ry="18"/>
</g>
<!-- start&#45;&gt;pickup_p_proc -->
<g id="edge2" class="edge">
<title>start&#45;&gt;pickup_p_proc</title>
<path fill="none" stroke="#555555" stroke-dasharray="1,5" d="M176.08,-242.6C166.14,-232.93 152.88,-220.04 141.65,-209.12"/>
<polygon fill="#555555" stroke="#555555" points="144.51,-207.05 134.9,-202.59 139.63,-212.07 144.51,-207.05"/>
</g>
<!-- talk_p_proc -->
<g id="node4" class="node">
<title>talk_p_proc</title>
<ellipse fill="#ffffff" stroke="#000000" cx="191" cy="-186.1" rx="27" ry="18"/>
</g>
<!-- start&#45;&gt;talk_p_proc -->
<g id="edge3" class="edge">
<title>start&#45;&gt;talk_p_proc</title>
<path fill="none" stroke="#555555" stroke-dasharray="1,5" d="M191,-239.8C191,-232.34 191,-223.43 191,-215.07"/>
<polygon fill="#555555" stroke="#555555" points="194.5,-215.21 191,-205.21 187.5,-215.21 194.5,-215.21"/>
</g>
<!-- critter_p_proc -->
<g id="node5" class="node">
<title>critter_p_proc</title>
<ellipse fill="#ffffff" stroke="#000000" cx="263" cy="-186.1" rx="27" ry="18"/>
</g>
<!-- start&#45;&gt;critter_p_proc -->
<g id="edge4" class="edge">
<title>start&#45;&gt;critter_p_proc</title>
<path fill="none" stroke="#555555" stroke-dasharray="1,5" d="M205.92,-242.6C215.86,-232.93 229.12,-220.04 240.35,-209.12"/>
<polygon fill="#555555" stroke="#555555" points="242.37,-212.07 247.1,-202.59 237.49,-207.05 242.37,-212.07"/>
</g>
<!-- destroy_p_proc -->
<g id="node6" class="node">
<title>destroy_p_proc</title>
<ellipse fill="#ffffff" stroke="#000000" cx="335" cy="-186.1" rx="27" ry="18"/>
</g>
<!-- start&#45;&gt;destroy_p_proc -->
<g id="edge5" class="edge">
<title>start&#45;&gt;destroy_p_proc</title>
<path fill="none" stroke="#555555" stroke-dasharray="1,5" d="M212.56,-246.62C236.88,-234.8 276.62,-215.48 304.2,-202.07"/>
<polygon fill="#555555" stroke="#555555" points="305.3,-204.95 312.76,-197.43 302.24,-198.65 305.3,-204.95"/>
</g>
<!-- zamin -->
<g id="node8" class="node">
<title>zamin</title>
<ellipse fill="#ffffff" stroke="#000000" cx="27" cy="-102.05" rx="27" ry="18"/>
</g>
<!-- talk_p_proc&#45;&gt;zamin -->
<g id="edge6" class="edge">
<title>talk_p_proc&#45;&gt;zamin</title>
<path fill="none" stroke="#555555" stroke-dasharray="1,5" d="M169.79,-174.79C164.96,-172.53 159.82,-170.18 155,-168.1 114.68,-150.72 100.97,-154.15 63,-132.1 58.94,-129.75 54.85,-126.95 50.96,-124.03"/>
<polygon fill="#555555" stroke="#555555" points="53.37,-120.68 43.36,-117.18 49,-126.15 53.37,-120.68"/>
</g>
<!-- goto00 -->
<g id="node9" class="node">
<title>goto00</title>
<ellipse fill="#ffffff" stroke="#000000" cx="99" cy="-102.05" rx="27" ry="18"/>
</g>
<!-- talk_p_proc&#45;&gt;goto00 -->
<g id="edge7" class="edge">
<title>talk_p_proc&#45;&gt;goto00</title>
<path fill="none" stroke="#555555" stroke-dasharray="1,5" d="M175.39,-171.19C160.99,-158.34 139.38,-139.07 122.82,-124.3"/>
<polygon fill="#555555" stroke="#555555" points="125.48,-122.08 115.68,-118.04 120.82,-127.31 125.48,-122.08"/>
</g>
<!-- goto01 -->
<g id="node10" class="node">
<title>goto01</title>
<ellipse fill="#ffffff" stroke="#000000" cx="283" cy="-102.05" rx="139.12" ry="30.05"/>
<text text-anchor="middle" x="283" y="-106" font-family="Times,serif" font-size="14.00">Unbeliever! Blasphemer!</text>
<text text-anchor="middle" x="283" y="-88.75" font-family="Times,serif" font-size="14.00">You will be punished!</text>
</g>
<!-- talk_p_proc&#45;&gt;goto01 -->
<g id="edge8" class="edge">
<title>talk_p_proc&#45;&gt;goto01</title>
<path fill="none" stroke="#555555" stroke-dasharray="1,5" d="M202.89,-169.67C211.72,-160.84 224.16,-149.36 236.63,-138.44"/>
<polygon fill="#555555" stroke="#555555" points="238.53,-140.56 243.8,-131.37 233.95,-135.27 238.53,-140.56"/>
</g>
<!-- talk_p_proc&#45;&gt;goto01 -->
<g id="edge9" class="edge">
<title>talk_p_proc&#45;&gt;goto01</title>
<path fill="none" stroke="#555555" stroke-dasharray="1,5" d="M209.53,-173C220.92,-164.06 235.7,-151.41 249.05,-139.31"/>
<polygon fill="#555555" stroke="#555555" points="251.14,-142.23 256.14,-132.89 246.41,-137.07 251.14,-142.23"/>
</g>
<!-- combat -->
<g id="node7" class="node">
<title>combat</title>
<ellipse fill="#ffffff" stroke="#000000" cx="283" cy="-18" rx="27" ry="18"/>
</g>
<!-- goto01&#45;&gt;combat -->
<g id="edge10" class="edge">
<title>goto01&#45;&gt;combat</title>
<path fill="none" stroke="#555555" stroke-dasharray="1,5" d="M283,-71.89C283,-63.75 283,-54.93 283,-46.87"/>
<polygon fill="#555555" stroke="#555555" points="286.5,-47.12 283,-37.12 279.5,-47.12 286.5,-47.12"/>
</g>
</g>
</svg>
