<?xml version="1.0" encoding="UTF-8" standalone="no"?>
<!DOCTYPE svg PUBLIC "-//W3C//DTD SVG 1.1//EN"
 "http://www.w3.org/Graphics/SVG/1.1/DTD/svg11.dtd">
<!-- Generated by graphviz version 8.0.5 (0)
 -->
<!-- Title: TOLYA Pages: 1 -->
<svg width="2265pt" height="1738pt"
 viewBox="0.00 0.00 2265.02 1737.72" xmlns="http://www.w3.org/2000/svg" xmlns:xlink="http://www.w3.org/1999/xlink">
<g id="graph0" class="graph" transform="scale(1 1) rotate(0) translate(4 1733.72)">
<title>TOLYA</title>
<polygon fill="white" stroke="none" points="-4,4 -4,-1733.72 2261.02,-1733.72 2261.02,4 -4,4"/>
<!-- start -->
<g id="node1" class="node">
<title>start</title>
<ellipse fill="#ffffff" stroke="#000000" cx="562" cy="-1614.29" rx="127.46" ry="30.05"/>
<text text-anchor="middle" x="562" y="-1618.24" font-family="Times,serif" font-size="14.00">You see Tolya, a desert</text>
<text text-anchor="middle" x="562" y="-1600.99" font-family="Times,serif" font-size="14.00">bandit.</text>
</g>
<!-- talk_p_proc -->
<g id="node2" class="node">
<title>talk_p_proc</title>
<ellipse fill="#ffffff" stroke="#000000" cx="490" cy="-1443.85" rx="27" ry="18"/>
</g>
<!-- start&#45;&gt;talk_p_proc -->
<g id="edge1" class="edge">
<title>start&#45;&gt;talk_p_proc</title>
<path fill="none" stroke="#555555" stroke-dasharray="1,5" d="M549.46,-1583.95C535.91,-1552.25 514.5,-1502.17 501.41,-1471.54"/>
<polygon fill="#555555" stroke="#555555" points="504.3,-1470.4 497.15,-1462.58 497.86,-1473.15 504.3,-1470.4"/>
</g>
<!-- Critter_Action -->
<g id="node3" class="node">
<title>Critter_Action</title>
<ellipse fill="#ffffff" stroke="#000000" cx="562" cy="-1443.85" rx="27" ry="18"/>
</g>
<!-- start&#45;&gt;Critter_Action -->
<g id="edge2" class="edge">
<title>start&#45;&gt;Critter_Action</title>
<path fill="none" stroke="#555555" stroke-dasharray="1,5" d="M562,-1583.95C562,-1552.69 562,-1503.57 562,-1472.84"/>
<polygon fill="#555555" stroke="#555555" points="565.5,-1473.04 562,-1463.04 558.5,-1473.04 565.5,-1473.04"/>
</g>
<!-- damage_p_proc -->
<g id="node4" class="node">
<title>damage_p_proc</title>
<ellipse fill="#ffffff" stroke="#000000" cx="634" cy="-1443.85" rx="27" ry="18"/>
</g>
<!-- start&#45;&gt;damage_p_proc -->
<g id="edge3" class="edge">
<title>start&#45;&gt;damage_p_proc</title>
<path fill="none" stroke="#555555" stroke-dasharray="1,5" d="M574.54,-1583.95C588.09,-1552.25 609.5,-1502.17 622.59,-1471.54"/>
<polygon fill="#555555" stroke="#555555" points="626.14,-1473.15 626.85,-1462.58 619.7,-1470.4 626.14,-1473.15"/>
</g>
<!-- do_dialogue -->
<g id="node5" class="node">
<title>do_dialogue</title>
<ellipse fill="#ffffff" stroke="#000000" cx="490" cy="-1297.81" rx="27" ry="18"/>
</g>
<!-- talk_p_proc&#45;&gt;do_dialogue -->
<g id="edge22" class="edge">
<title>talk_p_proc&#45;&gt;do_dialogue</title>
<path fill="none" stroke="#555555" stroke-dasharray="1,5" d="M490,-1425.48C490,-1401.04 490,-1356.23 490,-1326.99"/>
<polygon fill="#555555" stroke="#555555" points="493.5,-1327.25 490,-1317.25 486.5,-1327.25 493.5,-1327.25"/>
</g>
<!-- get_reaction -->
<g id="node6" class="node">
<title>get_reaction</title>
<ellipse fill="#ffffff" stroke="#000000" cx="243" cy="-1015.78" rx="27" ry="18"/>
</g>
<!-- do_dialogue&#45;&gt;get_reaction -->
<g id="edge4" class="edge">
<title>do_dialogue&#45;&gt;get_reaction</title>
<path fill="none" stroke="#555555" stroke-dasharray="1,5" d="M470.09,-1285.21C428.67,-1260.09 332.64,-1196.66 279,-1119.02 263.33,-1096.35 253.81,-1066.15 248.53,-1044.46"/>
<polygon fill="#555555" stroke="#555555" points="251.77,-1043.96 246.14,-1034.98 244.95,-1045.51 251.77,-1043.96"/>
</g>
<!-- tolya10 -->
<g id="node7" class="node">
<title>tolya10</title>
<ellipse fill="#ffffff" stroke="#000000" cx="490" cy="-1015.78" rx="130.11" ry="42.25"/>
<text text-anchor="middle" x="490" y="-1028.36" font-family="Times,serif" font-size="14.00">Do not bother me right</text>
<text text-anchor="middle" x="490" y="-1011.11" font-family="Times,serif" font-size="14.00">now. I am preparing for</text>
<text text-anchor="middle" x="490" y="-993.86" font-family="Times,serif" font-size="14.00">the next raid.</text>
</g>
<!-- do_dialogue&#45;&gt;tolya10 -->
<g id="edge5" class="edge">
<title>do_dialogue&#45;&gt;tolya10</title>
<path fill="none" stroke="#555555" stroke-dasharray="1,5" d="M490,-1279.72C490,-1238.69 490,-1133.3 490,-1069.09"/>
<polygon fill="#555555" stroke="#555555" points="493.5,-1069.39 490,-1059.39 486.5,-1069.39 493.5,-1069.39"/>
</g>
<!-- tolya00 -->
<g id="node8" class="node">
<title>tolya00</title>
<ellipse fill="#ffffff" stroke="#000000" cx="779" cy="-1015.78" rx="141.24" ry="103.24"/>
<text text-anchor="middle" x="779" y="-1071.48" font-family="Times,serif" font-size="14.00">Hello, I am Tolya. Looks</text>
<text text-anchor="middle" x="779" y="-1054.23" font-family="Times,serif" font-size="14.00">like you just wandered in</text>
<text text-anchor="middle" x="779" y="-1036.98" font-family="Times,serif" font-size="14.00">from</text>
<text text-anchor="middle" x="779" y="-1019.73" font-family="Times,serif" font-size="14.00"> the desert. Who are you?</text>
<text text-anchor="middle" x="779" y="-1002.48" font-family="Times,serif" font-size="14.00">&#45;&#45;&#45;</text>
<text text-anchor="middle" x="779" y="-985.23" font-family="Times,serif" font-size="14.00">I&#39;m </text>
<text text-anchor="middle" x="779" y="-967.98" font-family="Times,serif" font-size="14.00">&#45;&#45;&#45;</text>
<text text-anchor="middle" x="779" y="-950.73" font-family="Times,serif" font-size="14.00">. What do you do?</text>
</g>
<!-- do_dialogue&#45;&gt;tolya00 -->
<g id="edge6" class="edge">
<title>do_dialogue&#45;&gt;tolya00</title>
<path fill="none" stroke="#555555" stroke-dasharray="1,5" d="M504.73,-1282.54C537.9,-1250.4 620.72,-1170.15 686.73,-1106.19"/>
<polygon fill="#555555" stroke="#555555" points="688.54,-1109.34 693.28,-1099.87 683.67,-1104.32 688.54,-1109.34"/>
</g>
<!-- ReactToLevel -->
<g id="node20" class="node">
<title>ReactToLevel</title>
<ellipse fill="#ffffff" stroke="#000000" cx="171" cy="-690.02" rx="27" ry="18"/>
</g>
<!-- get_reaction&#45;&gt;ReactToLevel -->
<g id="edge23" class="edge">
<title>get_reaction&#45;&gt;ReactToLevel</title>
<path fill="none" stroke="#555555" stroke-dasharray="1,5" d="M239.23,-997.83C227.52,-945.18 191.69,-784.07 177.19,-718.86"/>
<polygon fill="#555555" stroke="#555555" points="180.41,-718.2 174.82,-709.19 173.57,-719.71 180.41,-718.2"/>
</g>
<!-- tolya02 -->
<g id="node9" class="node">
<title>tolya02</title>
<ellipse fill="#ffffff" stroke="#000000" cx="946" cy="-690.02" rx="134.35" ry="152.03"/>
<text text-anchor="middle" x="946" y="-780.22" font-family="Times,serif" font-size="14.00">Come now, Garl tells me</text>
<text text-anchor="middle" x="946" y="-762.97" font-family="Times,serif" font-size="14.00">never to talk to</text>
<text text-anchor="middle" x="946" y="-745.72" font-family="Times,serif" font-size="14.00">strangers. You should</text>
<text text-anchor="middle" x="946" y="-728.47" font-family="Times,serif" font-size="14.00">at least be willing to</text>
<text text-anchor="middle" x="946" y="-711.22" font-family="Times,serif" font-size="14.00">tell me your name.</text>
<text text-anchor="middle" x="946" y="-693.97" font-family="Times,serif" font-size="14.00">&#45;&#45;&#45;</text>
<text text-anchor="middle" x="946" y="-676.72" font-family="Times,serif" font-size="14.00">You&#39;re right. I&#39;m </text>
<text text-anchor="middle" x="946" y="-659.47" font-family="Times,serif" font-size="14.00">&#45;&#45;&#45;</text>
<text text-anchor="middle" x="946" y="-642.22" font-family="Times,serif" font-size="14.00">.</text>
<text text-anchor="middle" x="946" y="-624.97" font-family="Times,serif" font-size="14.00">Will you tell me</text>
<text text-anchor="middle" x="946" y="-607.72" font-family="Times,serif" font-size="14.00">something about your</text>
<text text-anchor="middle" x="946" y="-590.47" font-family="Times,serif" font-size="14.00">band?</text>
</g>
<!-- tolya00&#45;&gt;tolya02 -->
<g id="edge7" class="edge">
<title>tolya00&#45;&gt;tolya02</title>
<path fill="none" stroke="#009947" d="M828.43,-918.96C842.57,-891.53 858.3,-861.05 873.52,-831.54"/>
<polygon fill="#009947" stroke="#009947" points="876.97,-833.49 878.44,-823 870.75,-830.28 876.97,-833.49"/>
<text text-anchor="middle" x="936.38" y="-881.25" font-family="Times,serif" font-size="14.00" fill="#009947">Can you tell me about</text>
<text text-anchor="middle" x="936.38" y="-864" font-family="Times,serif" font-size="14.00" fill="#009947">your camp?</text>
</g>
<!-- tolya03 -->
<g id="node10" class="node">
<title>tolya03</title>
<ellipse fill="#ffffff" stroke="#000000" cx="700" cy="-690.02" rx="93.82" ry="18"/>
<text text-anchor="middle" x="700" y="-685.34" font-family="Times,serif" font-size="14.00">Go away, moron.</text>
</g>
<!-- tolya00&#45;&gt;tolya03 -->
<g id="edge8" class="edge">
<title>tolya00&#45;&gt;tolya03</title>
<path fill="none" stroke="#991a00" d="M754.33,-913.68C737.79,-845.89 717.19,-761.47 706.75,-718.67"/>
<polygon fill="#991a00" stroke="#991a00" points="709.97,-718.12 704.2,-709.24 703.17,-719.78 709.97,-718.12"/>
<text text-anchor="middle" x="771.12" y="-872.62" font-family="Times,serif" font-size="14.00" fill="#991a00">Urgh?</text>
</g>
<!-- combat -->
<g id="node15" class="node">
<title>combat</title>
<ellipse fill="#ffffff" stroke="#000000" cx="1089" cy="-261.62" rx="27" ry="18"/>
</g>
<!-- tolya02&#45;&gt;combat -->
<g id="edge12" class="edge">
<title>tolya02&#45;&gt;combat</title>
<path fill="none" stroke="#009899" d="M969.29,-540.08C974.67,-515.79 981.11,-491.11 988.75,-468.24 1011.45,-400.3 1051.93,-326.01 1073.87,-288.06"/>
<polygon fill="#009899" stroke="#009899" points="1077.26,-290.19 1079.28,-279.79 1071.22,-286.66 1077.26,-290.19"/>
<text text-anchor="middle" x="1072.62" y="-506.69" font-family="Times,serif" font-size="14.00" fill="#009899">Look you idiot, I don&#39;t</text>
<text text-anchor="middle" x="1072.62" y="-489.44" font-family="Times,serif" font-size="14.00" fill="#009899">have to say anything to</text>
<text text-anchor="middle" x="1072.62" y="-472.19" font-family="Times,serif" font-size="14.00" fill="#009899">you.</text>
</g>
<!-- tolya01 -->
<g id="node11" class="node">
<title>tolya01</title>
<ellipse fill="#ffffff" stroke="#000000" cx="1597" cy="-1297.81" rx="139.65" ry="91.04"/>
<text text-anchor="middle" x="1597" y="-1344.89" font-family="Times,serif" font-size="14.00">As a raider, I explore</text>
<text text-anchor="middle" x="1597" y="-1327.64" font-family="Times,serif" font-size="14.00">the lands in search of</text>
<text text-anchor="middle" x="1597" y="-1310.39" font-family="Times,serif" font-size="14.00">new supplies. There have</text>
<text text-anchor="middle" x="1597" y="-1293.14" font-family="Times,serif" font-size="14.00">been</text>
<text text-anchor="middle" x="1597" y="-1275.89" font-family="Times,serif" font-size="14.00">some towns which have</text>
<text text-anchor="middle" x="1597" y="-1258.64" font-family="Times,serif" font-size="14.00">been graced by our</text>
<text text-anchor="middle" x="1597" y="-1241.39" font-family="Times,serif" font-size="14.00">presence.</text>
</g>
<!-- tolya04 -->
<g id="node12" class="node">
<title>tolya04</title>
<ellipse fill="#ffffff" stroke="#000000" cx="1403" cy="-1015.78" rx="147.61" ry="66.64"/>
<text text-anchor="middle" x="1403" y="-1045.61" font-family="Times,serif" font-size="14.00">We never steal. We just</text>
<text text-anchor="middle" x="1403" y="-1028.36" font-family="Times,serif" font-size="14.00">take the extra that</text>
<text text-anchor="middle" x="1403" y="-1011.11" font-family="Times,serif" font-size="14.00">others have and</text>
<text text-anchor="middle" x="1403" y="-993.86" font-family="Times,serif" font-size="14.00">redistribute it</text>
<text text-anchor="middle" x="1403" y="-976.61" font-family="Times,serif" font-size="14.00"> among our hungry people.</text>
</g>
<!-- tolya01&#45;&gt;tolya04 -->
<g id="edge9" class="edge">
<title>tolya01&#45;&gt;tolya04</title>
<path fill="none" stroke="#001299" d="M1474.77,-1253.28C1446.93,-1237.39 1420.79,-1216.32 1404.5,-1188.77 1387.7,-1160.37 1385.13,-1124.44 1387.63,-1092.77"/>
<polygon fill="#001299" stroke="#001299" points="1391.17,-1093.51 1388.66,-1083.22 1384.2,-1092.83 1391.17,-1093.51"/>
<text text-anchor="middle" x="1493.25" y="-1175.47" font-family="Times,serif" font-size="14.00" fill="#001299">In other words, you steal</text>
<text text-anchor="middle" x="1493.25" y="-1158.22" font-family="Times,serif" font-size="14.00" fill="#001299">from the people you</text>
<text text-anchor="middle" x="1493.25" y="-1140.97" font-family="Times,serif" font-size="14.00" fill="#001299">visit.</text>
</g>
<!-- tolyaend -->
<g id="node13" class="node">
<title>tolyaend</title>
<ellipse fill="#ffffff" stroke="#000000" cx="1665" cy="-18" rx="27" ry="18"/>
</g>
<!-- tolya01&#45;&gt;tolyaend -->
<g id="edge10" class="edge">
<title>tolya01&#45;&gt;tolyaend</title>
<path fill="none" stroke="#3f9900" d="M1597,-1206.33C1597,-1151.48 1597,-1080.11 1597,-1016.78 1597,-1016.78 1597,-1016.78 1597,-260.62 1597,-179.7 1632.78,-89.05 1652.43,-45.35"/>
<polygon fill="#3f9900" stroke="#3f9900" points="1655.94,-47.09 1656.93,-36.54 1649.58,-44.17 1655.94,-47.09"/>
<text text-anchor="middle" x="1685.5" y="-702.59" font-family="Times,serif" font-size="14.00" fill="#3f9900">Hey, that&#39;s really great</text>
<text text-anchor="middle" x="1685.5" y="-685.34" font-family="Times,serif" font-size="14.00" fill="#3f9900">of you. I&#39;m sure that</text>
<text text-anchor="middle" x="1685.5" y="-668.09" font-family="Times,serif" font-size="14.00" fill="#3f9900">Garl is pleased with you.</text>
</g>
<!-- tolya05 -->
<g id="node14" class="node">
<title>tolya05</title>
<ellipse fill="#ffffff" stroke="#000000" cx="1810" cy="-1015.78" rx="137" ry="103.24"/>
<text text-anchor="middle" x="1810" y="-1071.48" font-family="Times,serif" font-size="14.00">I&#39;ve been to many places</text>
<text text-anchor="middle" x="1810" y="-1054.23" font-family="Times,serif" font-size="14.00">in the wastelands. The</text>
<text text-anchor="middle" x="1810" y="-1036.98" font-family="Times,serif" font-size="14.00">closest places that I&#39;ve</text>
<text text-anchor="middle" x="1810" y="-1019.73" font-family="Times,serif" font-size="14.00">been to are Shady Sands</text>
<text text-anchor="middle" x="1810" y="-1002.48" font-family="Times,serif" font-size="14.00">and Junktown. They are</text>
<text text-anchor="middle" x="1810" y="-985.23" font-family="Times,serif" font-size="14.00">very grateful</text>
<text text-anchor="middle" x="1810" y="-967.98" font-family="Times,serif" font-size="14.00">for the trips we make to</text>
<text text-anchor="middle" x="1810" y="-950.73" font-family="Times,serif" font-size="14.00">them.</text>
</g>
<!-- tolya01&#45;&gt;tolya05 -->
<g id="edge11" class="edge">
<title>tolya01&#45;&gt;tolya05</title>
<path fill="none" stroke="#99006b" d="M1658.61,-1215.82C1682.73,-1184.1 1710.62,-1147.44 1735.84,-1114.28"/>
<polygon fill="#99006b" stroke="#99006b" points="1738.92,-1117.02 1742.19,-1106.94 1733.35,-1112.78 1738.92,-1117.02"/>
<text text-anchor="middle" x="1813.12" y="-1166.85" font-family="Times,serif" font-size="14.00" fill="#99006b">What places have you been</text>
<text text-anchor="middle" x="1813.12" y="-1149.6" font-family="Times,serif" font-size="14.00" fill="#99006b">to?</text>
</g>
<!-- tolya04&#45;&gt;tolyaend -->
<g id="edge14" class="edge">
<title>tolya04&#45;&gt;tolyaend</title>
<path fill="none" stroke="#410099" d="M1400.45,-949.04C1396.15,-824.39 1389.61,-558.14 1408.25,-468.24 1448.81,-272.58 1442,-195.59 1583,-54 1595.63,-41.31 1613.59,-32.95 1629.48,-27.59"/>
<polygon fill="#410099" stroke="#410099" points="1630.02,-30.77 1638.55,-24.48 1627.96,-24.08 1630.02,-30.77"/>
<text text-anchor="middle" x="1495.38" y="-498.07" font-family="Times,serif" font-size="14.00" fill="#410099">That sounds like a really</text>
<text text-anchor="middle" x="1495.38" y="-480.82" font-family="Times,serif" font-size="14.00" fill="#410099">great idea.</text>
</g>
<!-- tolya06 -->
<g id="node16" class="node">
<title>tolya06</title>
<ellipse fill="#ffffff" stroke="#000000" cx="1231" cy="-690.02" rx="132.23" ry="54.45"/>
<text text-anchor="middle" x="1231" y="-711.22" font-family="Times,serif" font-size="14.00">You are starting to</text>
<text text-anchor="middle" x="1231" y="-693.97" font-family="Times,serif" font-size="14.00">become annoying now. I</text>
<text text-anchor="middle" x="1231" y="-676.72" font-family="Times,serif" font-size="14.00">think I will end</text>
<text text-anchor="middle" x="1231" y="-659.47" font-family="Times,serif" font-size="14.00"> that slight problem.</text>
</g>
<!-- tolya04&#45;&gt;tolya06 -->
<g id="edge13" class="edge">
<title>tolya04&#45;&gt;tolya06</title>
<path fill="none" stroke="#996d00" d="M1302.2,-966.63C1274.6,-948.17 1248.03,-924.23 1232.5,-894.55 1210.2,-851.92 1211.2,-797.07 1217.02,-755.05"/>
<polygon fill="#996d00" stroke="#996d00" points="1220.59,-755.8 1218.63,-745.38 1213.67,-754.75 1220.59,-755.8"/>
<text text-anchor="middle" x="1312.25" y="-881.25" font-family="Times,serif" font-size="14.00" fill="#996d00">So, basically, you steal</text>
<text text-anchor="middle" x="1312.25" y="-864" font-family="Times,serif" font-size="14.00" fill="#996d00">it.</text>
</g>
<!-- tolya08 -->
<g id="node17" class="node">
<title>tolya08</title>
<ellipse fill="#ffffff" stroke="#000000" cx="2111" cy="-690.02" rx="146.02" ry="139.83"/>
<text text-anchor="middle" x="2111" y="-771.59" font-family="Times,serif" font-size="14.00">Yes, we go to Shady Sands</text>
<text text-anchor="middle" x="2111" y="-754.34" font-family="Times,serif" font-size="14.00">from time to time. It</text>
<text text-anchor="middle" x="2111" y="-737.09" font-family="Times,serif" font-size="14.00">adds a little</text>
<text text-anchor="middle" x="2111" y="-719.84" font-family="Times,serif" font-size="14.00">excitement to the lives</text>
<text text-anchor="middle" x="2111" y="-702.59" font-family="Times,serif" font-size="14.00">of everyone concerned.</text>
<text text-anchor="middle" x="2111" y="-685.34" font-family="Times,serif" font-size="14.00">&#45;&#45;&#45;</text>
<text text-anchor="middle" x="2111" y="-668.09" font-family="Times,serif" font-size="14.00">Yes, we go to Shady Sands</text>
<text text-anchor="middle" x="2111" y="-650.84" font-family="Times,serif" font-size="14.00">from time to time. It</text>
<text text-anchor="middle" x="2111" y="-633.59" font-family="Times,serif" font-size="14.00">adds a little</text>
<text text-anchor="middle" x="2111" y="-616.34" font-family="Times,serif" font-size="14.00">excitement to the lives</text>
<text text-anchor="middle" x="2111" y="-599.09" font-family="Times,serif" font-size="14.00">of everyone concerned.</text>
</g>
<!-- tolya05&#45;&gt;tolya08 -->
<g id="edge15" class="edge">
<title>tolya05&#45;&gt;tolya08</title>
<path fill="none" stroke="#009914" d="M1888.3,-930.56C1924.46,-891.66 1967.92,-844.92 2006.8,-803.1"/>
<polygon fill="#009914" stroke="#009914" points="2009.02,-805.78 2013.26,-796.07 2003.89,-801.01 2009.02,-805.78"/>
<text text-anchor="middle" x="2033.5" y="-872.62" font-family="Times,serif" font-size="14.00" fill="#009914">You visit Shady Sands?</text>
</g>
<!-- tolya09 -->
<g id="node18" class="node">
<title>tolya09</title>
<ellipse fill="#ffffff" stroke="#000000" cx="1827" cy="-261.62" rx="128.52" ry="188.62"/>
<text text-anchor="middle" x="1827" y="-377.7" font-family="Times,serif" font-size="14.00">Why, Junktown is just a</text>
<text text-anchor="middle" x="1827" y="-360.45" font-family="Times,serif" font-size="14.00">little bit to the south</text>
<text text-anchor="middle" x="1827" y="-343.2" font-family="Times,serif" font-size="14.00">of here.</text>
<text text-anchor="middle" x="1827" y="-325.95" font-family="Times,serif" font-size="14.00">Go a few miles, turn</text>
<text text-anchor="middle" x="1827" y="-308.7" font-family="Times,serif" font-size="14.00">right at the dying</text>
<text text-anchor="middle" x="1827" y="-291.45" font-family="Times,serif" font-size="14.00">cactus. You can&#39;t miss</text>
<text text-anchor="middle" x="1827" y="-274.2" font-family="Times,serif" font-size="14.00">it!</text>
<text text-anchor="middle" x="1827" y="-256.95" font-family="Times,serif" font-size="14.00">&#45;&#45;&#45;</text>
<text text-anchor="middle" x="1827" y="-239.7" font-family="Times,serif" font-size="14.00">Why, Junktown is just a</text>
<text text-anchor="middle" x="1827" y="-222.45" font-family="Times,serif" font-size="14.00">little bit to the south</text>
<text text-anchor="middle" x="1827" y="-205.2" font-family="Times,serif" font-size="14.00">of here.</text>
<text text-anchor="middle" x="1827" y="-187.95" font-family="Times,serif" font-size="14.00">Go a few miles, turn</text>
<text text-anchor="middle" x="1827" y="-170.7" font-family="Times,serif" font-size="14.00">right at the dying</text>
<text text-anchor="middle" x="1827" y="-153.45" font-family="Times,serif" font-size="14.00">cactus. You can&#39;t miss</text>
<text text-anchor="middle" x="1827" y="-136.2" font-family="Times,serif" font-size="14.00">it!</text>
</g>
<!-- tolya05&#45;&gt;tolya09 -->
<g id="edge16" class="edge">
<title>tolya05&#45;&gt;tolya09</title>
<path fill="none" stroke="#990019" d="M1811.82,-912.47C1813.59,-815.92 1816.46,-667.11 1819.5,-537.99 1820.09,-513.09 1820.75,-486.93 1821.42,-461.05"/>
<polygon fill="#990019" stroke="#990019" points="1824.94,-461.46 1821.7,-451.37 1817.94,-461.27 1824.94,-461.46"/>
<text text-anchor="middle" x="1887.25" y="-685.34" font-family="Times,serif" font-size="14.00" fill="#990019">Where&#39;s Junktown?</text>
</g>
<!-- tolya06&#45;&gt;combat -->
<g id="edge17" class="edge">
<title>tolya06&#45;&gt;combat</title>
<path fill="none" stroke="#555555" stroke-dasharray="1,5" d="M1213.3,-635.88C1182.75,-544.12 1121.15,-359.15 1098.03,-289.75"/>
<polygon fill="#555555" stroke="#555555" points="1101.15,-289.02 1094.67,-280.63 1094.5,-291.23 1101.15,-289.02"/>
</g>
<!-- tolya08&#45;&gt;tolyaend -->
<g id="edge18" class="edge">
<title>tolya08&#45;&gt;tolyaend</title>
<path fill="none" stroke="#555555" stroke-dasharray="1,5" d="M2179.45,-566.2C2189.68,-534.56 2194.37,-500.36 2186,-468.24 2135.25,-273.49 2128.86,-189.86 1965,-73 1923.39,-43.32 1773.77,-27.69 1702.83,-21.8"/>
<polygon fill="#555555" stroke="#555555" points="1703.39,-18.25 1693.15,-20.94 1702.83,-25.23 1703.39,-18.25"/>
</g>
<!-- tolya08&#45;&gt;tolya09 -->
<g id="edge19" class="edge">
<title>tolya08&#45;&gt;tolya09</title>
<path fill="none" stroke="#004599" d="M2016.5,-583.01C1996.45,-565.63 1974.26,-549.56 1951,-537.99 1907.72,-516.47 1876.15,-555.85 1843.75,-519.99 1834.08,-509.29 1828.21,-487.66 1824.85,-461.29"/>
<polygon fill="#004599" stroke="#004599" points="1828.24,-461.1 1823.64,-451.55 1821.28,-461.88 1828.24,-461.1"/>
<text text-anchor="middle" x="1923.62" y="-489.44" font-family="Times,serif" font-size="14.00" fill="#004599">What about Junktown?</text>
</g>
<!-- tolya09&#45;&gt;tolyaend -->
<g id="edge20" class="edge">
<title>tolya09&#45;&gt;tolyaend</title>
<path fill="none" stroke="#555555" stroke-dasharray="1,5" d="M1737,-126.39C1715.72,-94.65 1695.28,-64.16 1681.65,-43.83"/>
<polygon fill="#555555" stroke="#555555" points="1684.01,-42.07 1675.53,-35.71 1678.2,-45.97 1684.01,-42.07"/>
</g>
<!-- tolya09&#45;&gt;tolya08 -->
<g id="edge21" class="edge">
<title>tolya09&#45;&gt;tolya08</title>
<path fill="none" stroke="#729900" d="M1931.57,-371.67C1957.4,-401.63 1983.73,-435.05 2005,-468.24 2018.63,-489.51 2017.74,-497.14 2028.5,-519.99 2033.61,-530.84 2038.96,-542.06 2044.36,-553.32"/>
<polygon fill="#729900" stroke="#729900" points="2041.63,-554.72 2049.12,-562.21 2047.94,-551.68 2041.63,-554.72"/>
<text text-anchor="middle" x="2106.75" y="-498.07" font-family="Times,serif" font-size="14.00" fill="#729900">You also said you visit</text>
<text text-anchor="middle" x="2106.75" y="-480.82" font-family="Times,serif" font-size="14.00" fill="#729900">Shady Sands.</text>
</g>
<!-- tolya07 -->
<g id="node19" class="node">
<title>tolya07</title>
<ellipse fill="#ffffff" stroke="#000000" cx="849" cy="-1614.29" rx="141.24" ry="115.44"/>
<text text-anchor="middle" x="849" y="-1678.61" font-family="Times,serif" font-size="14.00">We are the Khan, and our</text>
<text text-anchor="middle" x="849" y="-1661.36" font-family="Times,serif" font-size="14.00">leader is Garl. We are</text>
<text text-anchor="middle" x="849" y="-1644.11" font-family="Times,serif" font-size="14.00">the most feared</text>
<text text-anchor="middle" x="849" y="-1626.86" font-family="Times,serif" font-size="14.00">group in the wasteland,</text>
<text text-anchor="middle" x="849" y="-1609.61" font-family="Times,serif" font-size="14.00">and with good reason. We</text>
<text text-anchor="middle" x="849" y="-1592.36" font-family="Times,serif" font-size="14.00">take</text>
<text text-anchor="middle" x="849" y="-1575.11" font-family="Times,serif" font-size="14.00">what we want, and those</text>
<text text-anchor="middle" x="849" y="-1557.86" font-family="Times,serif" font-size="14.00">who get in our way pay</text>
<text text-anchor="middle" x="849" y="-1540.61" font-family="Times,serif" font-size="14.00">the price.</text>
</g>
<!-- LevelToReact -->
<g id="node21" class="node">
<title>LevelToReact</title>
<ellipse fill="#ffffff" stroke="#000000" cx="1071" cy="-1443.85" rx="27" ry="18"/>
</g>
<!-- UpReact -->
<g id="node22" class="node">
<title>UpReact</title>
<ellipse fill="#ffffff" stroke="#000000" cx="315" cy="-1015.78" rx="27" ry="18"/>
</g>
<!-- UpReact&#45;&gt;ReactToLevel -->
<g id="edge24" class="edge">
<title>UpReact&#45;&gt;ReactToLevel</title>
<path fill="none" stroke="#555555" stroke-dasharray="1,5" d="M309.72,-997.92C303.17,-977.46 291.34,-942.06 279,-912.55 248.72,-840.13 206.37,-757.74 184.81,-716.86"/>
<polygon fill="#555555" stroke="#555555" points="187.57,-715.59 179.79,-708.39 181.38,-718.87 187.57,-715.59"/>
</g>
<!-- DownReact -->
<g id="node23" class="node">
<title>DownReact</title>
<ellipse fill="#ffffff" stroke="#000000" cx="27" cy="-1015.78" rx="27" ry="18"/>
</g>
<!-- DownReact&#45;&gt;ReactToLevel -->
<g id="edge25" class="edge">
<title>DownReact&#45;&gt;ReactToLevel</title>
<path fill="none" stroke="#555555" stroke-dasharray="1,5" d="M32.28,-997.92C38.83,-977.46 50.66,-942.06 63,-912.55 93.28,-840.13 135.63,-757.74 157.19,-716.86"/>
<polygon fill="#555555" stroke="#555555" points="160.62,-718.87 162.21,-708.39 154.43,-715.59 160.62,-718.87"/>
</g>
<!-- BottomReact -->
<g id="node24" class="node">
<title>BottomReact</title>
<ellipse fill="#ffffff" stroke="#000000" cx="1179" cy="-1614.29" rx="27" ry="18"/>
</g>
<!-- TopReact -->
<g id="node25" class="node">
<title>TopReact</title>
<ellipse fill="#ffffff" stroke="#000000" cx="1251" cy="-1614.29" rx="27" ry="18"/>
</g>
<!-- BigUpReact -->
<g id="node26" class="node">
<title>BigUpReact</title>
<ellipse fill="#ffffff" stroke="#000000" cx="99" cy="-1015.78" rx="27" ry="18"/>
</g>
<!-- BigUpReact&#45;&gt;ReactToLevel -->
<g id="edge26" class="edge">
<title>BigUpReact&#45;&gt;ReactToLevel</title>
<path fill="none" stroke="#555555" stroke-dasharray="1,5" d="M102.77,-997.83C114.48,-945.18 150.31,-784.07 164.81,-718.86"/>
<polygon fill="#555555" stroke="#555555" points="168.43,-719.71 167.18,-709.19 161.59,-718.2 168.43,-719.71"/>
</g>
<!-- BigDownReact -->
<g id="node27" class="node">
<title>BigDownReact</title>
<ellipse fill="#ffffff" stroke="#000000" cx="171" cy="-1015.78" rx="27" ry="18"/>
</g>
<!-- BigDownReact&#45;&gt;ReactToLevel -->
<g id="edge27" class="edge">
<title>BigDownReact&#45;&gt;ReactToLevel</title>
<path fill="none" stroke="#555555" stroke-dasharray="1,5" d="M171,-997.38C171,-944.35 171,-784.44 171,-719.2"/>
<polygon fill="#555555" stroke="#555555" points="174.5,-719.51 171,-709.51 167.5,-719.51 174.5,-719.51"/>
</g>
<!-- UpReactLevel -->
<g id="node28" class="node">
<title>UpReactLevel</title>
<ellipse fill="#ffffff" stroke="#000000" cx="1035" cy="-1614.29" rx="27" ry="18"/>
</g>
<!-- UpReactLevel&#45;&gt;LevelToReact -->
<g id="edge28" class="edge">
<title>UpReactLevel&#45;&gt;LevelToReact</title>
<path fill="none" stroke="#555555" stroke-dasharray="1,5" d="M1038.65,-1596.21C1044.88,-1567.08 1057.6,-1507.54 1065.1,-1472.44"/>
<polygon fill="#555555" stroke="#555555" points="1068.67,-1473.49 1067.34,-1462.98 1061.83,-1472.02 1068.67,-1473.49"/>
</g>
<!-- DownReactLevel -->
<g id="node29" class="node">
<title>DownReactLevel</title>
<ellipse fill="#ffffff" stroke="#000000" cx="1107" cy="-1614.29" rx="27" ry="18"/>
</g>
<!-- DownReactLevel&#45;&gt;LevelToReact -->
<g id="edge29" class="edge">
<title>DownReactLevel&#45;&gt;LevelToReact</title>
<path fill="none" stroke="#555555" stroke-dasharray="1,5" d="M1103.35,-1596.21C1097.12,-1567.08 1084.4,-1507.54 1076.9,-1472.44"/>
<polygon fill="#555555" stroke="#555555" points="1080.17,-1472.02 1074.66,-1462.98 1073.33,-1473.49 1080.17,-1472.02"/>
</g>
<!-- Goodbyes -->
<g id="node30" class="node">
<title>Goodbyes</title>
<ellipse fill="#ffffff" stroke="#000000" cx="1323" cy="-1614.29" rx="27" ry="18"/>
</g>
</g>
</svg>
