<?xml version="1.0" encoding="UTF-8" standalone="no"?>
<!DOCTYPE svg PUBLIC "-//W3C//DTD SVG 1.1//EN"
 "http://www.w3.org/Graphics/SVG/1.1/DTD/svg11.dtd">
<!-- Generated by graphviz version 8.0.5 (0)
 -->
<!-- Title: WIFE Pages: 1 -->
<svg width="700pt" height="466pt"
 viewBox="0.00 0.00 700.17 466.50" xmlns="http://www.w3.org/2000/svg" xmlns:xlink="http://www.w3.org/1999/xlink">
<g id="graph0" class="graph" transform="scale(1 1) rotate(0) translate(4 462.5)">
<title>WIFE</title>
<polygon fill="white" stroke="none" points="-4,4 -4,-462.5 696.17,-462.5 696.17,4 -4,4"/>
<!-- start -->
<g id="node1" class="node">
<title>start</title>
<ellipse fill="#ffffff" stroke="#000000" cx="204.56" cy="-440.5" rx="27" ry="18"/>
</g>
<!-- critter_p_proc -->
<g id="node2" class="node">
<title>critter_p_proc</title>
<ellipse fill="#ffffff" stroke="#000000" cx="60.56" cy="-367.5" rx="27" ry="18"/>
</g>
<!-- start&#45;&gt;critter_p_proc -->
<g id="edge1" class="edge">
<title>start&#45;&gt;critter_p_proc</title>
<path fill="none" stroke="#555555" stroke-dasharray="1,5" d="M183.31,-429.02C159.07,-417.07 119.19,-397.41 91.5,-383.75"/>
<polygon fill="#555555" stroke="#555555" points="93.41,-380.3 82.9,-379.02 90.32,-386.58 93.41,-380.3"/>
</g>
<!-- talk_p_proc -->
<g id="node3" class="node">
<title>talk_p_proc</title>
<ellipse fill="#ffffff" stroke="#000000" cx="132.56" cy="-367.5" rx="27" ry="18"/>
</g>
<!-- start&#45;&gt;talk_p_proc -->
<g id="edge2" class="edge">
<title>start&#45;&gt;talk_p_proc</title>
<path fill="none" stroke="#555555" stroke-dasharray="1,5" d="M189.99,-425.13C179.91,-415.19 166.3,-401.77 154.86,-390.49"/>
<polygon fill="#555555" stroke="#555555" points="157.94,-388.62 148.36,-384.09 153.02,-393.6 157.94,-388.62"/>
</g>
<!-- pickup_p_proc -->
<g id="node4" class="node">
<title>pickup_p_proc</title>
<ellipse fill="#ffffff" stroke="#000000" cx="204.56" cy="-367.5" rx="27" ry="18"/>
</g>
<!-- start&#45;&gt;pickup_p_proc -->
<g id="edge3" class="edge">
<title>start&#45;&gt;pickup_p_proc</title>
<path fill="none" stroke="#555555" stroke-dasharray="1,5" d="M204.56,-422.31C204.56,-414.55 204.56,-405.18 204.56,-396.45"/>
<polygon fill="#555555" stroke="#555555" points="208.06,-396.53 204.56,-386.53 201.06,-396.53 208.06,-396.53"/>
</g>
<!-- destroy_p_proc -->
<g id="node5" class="node">
<title>destroy_p_proc</title>
<ellipse fill="#ffffff" stroke="#000000" cx="276.56" cy="-367.5" rx="27" ry="18"/>
</g>
<!-- start&#45;&gt;destroy_p_proc -->
<g id="edge4" class="edge">
<title>start&#45;&gt;destroy_p_proc</title>
<path fill="none" stroke="#555555" stroke-dasharray="1,5" d="M219.13,-425.13C229.21,-415.19 242.82,-401.77 254.26,-390.49"/>
<polygon fill="#555555" stroke="#555555" points="256.1,-393.6 260.77,-384.09 251.19,-388.62 256.1,-393.6"/>
</g>
<!-- damage_p_proc -->
<g id="node6" class="node">
<title>damage_p_proc</title>
<ellipse fill="#ffffff" stroke="#000000" cx="348.56" cy="-367.5" rx="27" ry="18"/>
</g>
<!-- start&#45;&gt;damage_p_proc -->
<g id="edge5" class="edge">
<title>start&#45;&gt;damage_p_proc</title>
<path fill="none" stroke="#555555" stroke-dasharray="1,5" d="M225.81,-429.02C250.06,-417.07 289.93,-397.41 317.63,-383.75"/>
<polygon fill="#555555" stroke="#555555" points="318.81,-386.58 326.23,-379.02 315.71,-380.3 318.81,-386.58"/>
</g>
<!-- do_dialogue -->
<g id="node7" class="node">
<title>do_dialogue</title>
<ellipse fill="#ffffff" stroke="#000000" cx="132.56" cy="-294.5" rx="27" ry="18"/>
</g>
<!-- talk_p_proc&#45;&gt;do_dialogue -->
<g id="edge11" class="edge">
<title>talk_p_proc&#45;&gt;do_dialogue</title>
<path fill="none" stroke="#555555" stroke-dasharray="1,5" d="M132.56,-349.31C132.56,-341.55 132.56,-332.18 132.56,-323.45"/>
<polygon fill="#555555" stroke="#555555" points="136.06,-323.53 132.56,-313.53 129.06,-323.53 136.06,-323.53"/>
</g>
<!-- Wife00n -->
<g id="node8" class="node">
<title>Wife00n</title>
<ellipse fill="#ffffff" stroke="#000000" cx="120.56" cy="-185.05" rx="120.56" ry="54.45"/>
<text text-anchor="middle" x="120.56" y="-206.25" font-family="Times,serif" font-size="14.00">You will have to come</text>
<text text-anchor="middle" x="120.56" y="-189" font-family="Times,serif" font-size="14.00">back in the morning.</text>
<text text-anchor="middle" x="120.56" y="-171.75" font-family="Times,serif" font-size="14.00">Please let us</text>
<text text-anchor="middle" x="120.56" y="-154.5" font-family="Times,serif" font-size="14.00"> sleep in peace.</text>
</g>
<!-- do_dialogue&#45;&gt;Wife00n -->
<g id="edge6" class="edge">
<title>do_dialogue&#45;&gt;Wife00n</title>
<path fill="none" stroke="#555555" stroke-dasharray="1,5" d="M130.63,-276.24C129.82,-268.91 128.81,-259.87 127.74,-250.37"/>
<polygon fill="#555555" stroke="#555555" points="131.12,-250.06 126.53,-240.51 124.16,-250.84 131.12,-250.06"/>
</g>
<!-- Wife01 -->
<g id="node9" class="node">
<title>Wife01</title>
<ellipse fill="#ffffff" stroke="#000000" cx="392.56" cy="-185.05" rx="133.29" ry="42.25"/>
<text text-anchor="middle" x="392.56" y="-197.63" font-family="Times,serif" font-size="14.00">You look distraught. Are</text>
<text text-anchor="middle" x="392.56" y="-180.38" font-family="Times,serif" font-size="14.00">you in need of</text>
<text text-anchor="middle" x="392.56" y="-163.13" font-family="Times,serif" font-size="14.00">assistance?</text>
</g>
<!-- do_dialogue&#45;&gt;Wife01 -->
<g id="edge7" class="edge">
<title>do_dialogue&#45;&gt;Wife01</title>
<path fill="none" stroke="#555555" stroke-dasharray="1,5" d="M155.18,-284.15C187.8,-270.67 249.88,-245.01 302.38,-223.32"/>
<polygon fill="#555555" stroke="#555555" points="303.5,-226.23 311.4,-219.18 300.82,-219.76 303.5,-226.23"/>
</g>
<!-- Wife02 -->
<g id="node10" class="node">
<title>Wife02</title>
<ellipse fill="#ffffff" stroke="#000000" cx="197.56" cy="-30.05" rx="149.73" ry="30.05"/>
<text text-anchor="middle" x="197.56" y="-34" font-family="Times,serif" font-size="14.00">My husband Razlo can help</text>
<text text-anchor="middle" x="197.56" y="-16.75" font-family="Times,serif" font-size="14.00">you . . . ask him.</text>
</g>
<!-- Wife01&#45;&gt;Wife02 -->
<g id="edge8" class="edge">
<title>Wife01&#45;&gt;Wife02</title>
<path fill="none" stroke="#99001b" d="M331.35,-147.07C315.14,-136.52 297.96,-124.61 282.81,-112.6 265.45,-98.85 247.54,-82.16 232.65,-67.47"/>
<polygon fill="#99001b" stroke="#99001b" points="235.71,-65.58 226.16,-61 230.77,-70.54 235.71,-65.58"/>
<text text-anchor="middle" x="336.44" y="-90.68" font-family="Times,serif" font-size="14.00" fill="#99001b">I need healing.</text>
</g>
<!-- WifeEnd -->
<g id="node11" class="node">
<title>WifeEnd</title>
<ellipse fill="#ffffff" stroke="#000000" cx="392.56" cy="-30.05" rx="27" ry="18"/>
</g>
<!-- Wife01&#45;&gt;WifeEnd -->
<g id="edge9" class="edge">
<title>Wife01&#45;&gt;WifeEnd</title>
<path fill="none" stroke="#004899" d="M392.56,-142.65C392.56,-116.15 392.56,-82.48 392.56,-59.09"/>
<polygon fill="#004899" stroke="#004899" points="396.06,-59.2 392.56,-49.2 389.06,-59.2 396.06,-59.2"/>
<text text-anchor="middle" x="474.31" y="-99.3" font-family="Times,serif" font-size="14.00" fill="#004899">No, I am not in need of</text>
<text text-anchor="middle" x="474.31" y="-82.05" font-family="Times,serif" font-size="14.00" fill="#004899">healing.</text>
</g>
<!-- Wife03 -->
<g id="node12" class="node">
<title>Wife03</title>
<ellipse fill="#ffffff" stroke="#000000" cx="579.56" cy="-30.05" rx="112.61" ry="30.05"/>
<text text-anchor="middle" x="579.56" y="-34" font-family="Times,serif" font-size="14.00">I&#39;m sorry but I don&#39;t</text>
<text text-anchor="middle" x="579.56" y="-16.75" font-family="Times,serif" font-size="14.00">understand you.</text>
</g>
<!-- Wife01&#45;&gt;Wife03 -->
<g id="edge10" class="edge">
<title>Wife01&#45;&gt;Wife03</title>
<path fill="none" stroke="#749900" d="M493.56,-157.12C517.32,-146.61 540.62,-132.2 557.56,-112.6 567.5,-101.11 572.99,-85.57 576.02,-71.13"/>
<polygon fill="#749900" stroke="#749900" points="579.62,-71.84 577.88,-61.39 572.72,-70.65 579.62,-71.84"/>
<text text-anchor="middle" x="591.19" y="-90.68" font-family="Times,serif" font-size="14.00" fill="#749900">Urrr.</text>
</g>
</g>
</svg>
