<?xml version="1.0" encoding="UTF-8" standalone="no"?>
<!DOCTYPE svg PUBLIC "-//W3C//DTD SVG 1.1//EN"
 "http://www.w3.org/Graphics/SVG/1.1/DTD/svg11.dtd">
<!-- Generated by graphviz version 8.0.5 (0)
 -->
<!-- Title: WMGROUP Pages: 1 -->
<svg width="928pt" height="284pt"
 viewBox="0.00 0.00 928.47 284.10" xmlns="http://www.w3.org/2000/svg" xmlns:xlink="http://www.w3.org/1999/xlink">
<g id="graph0" class="graph" transform="scale(1 1) rotate(0) translate(4 280.1)">
<title>WMGROUP</title>
<polygon fill="white" stroke="none" points="-4,4 -4,-280.1 924.47,-280.1 924.47,4 -4,4"/>
<!-- start -->
<g id="node1" class="node">
<title>start</title>
<ellipse fill="#ffffff" stroke="#000000" cx="389.47" cy="-258.1" rx="27" ry="18"/>
</g>
<!-- look_at_p_proc -->
<g id="node2" class="node">
<title>look_at_p_proc</title>
<ellipse fill="#ffffff" stroke="#000000" cx="136.47" cy="-174.05" rx="136.47" ry="30.05"/>
<text text-anchor="middle" x="136.47" y="-178" font-family="Times,serif" font-size="14.00">You see a Water Caravan</text>
<text text-anchor="middle" x="136.47" y="-160.75" font-family="Times,serif" font-size="14.00">employee.</text>
</g>
<!-- start&#45;&gt;look_at_p_proc -->
<g id="edge1" class="edge">
<title>start&#45;&gt;look_at_p_proc</title>
<path fill="none" stroke="#555555" stroke-dasharray="1,5" d="M365.67,-249.38C333.04,-238.8 272.72,-219.24 222.14,-202.84"/>
<polygon fill="#555555" stroke="#555555" points="223.43,-199.25 212.84,-199.49 221.27,-205.91 223.43,-199.25"/>
</g>
<!-- pickup_p_proc -->
<g id="node3" class="node">
<title>pickup_p_proc</title>
<ellipse fill="#ffffff" stroke="#000000" cx="317.47" cy="-174.05" rx="27" ry="18"/>
</g>
<!-- start&#45;&gt;pickup_p_proc -->
<g id="edge2" class="edge">
<title>start&#45;&gt;pickup_p_proc</title>
<path fill="none" stroke="#555555" stroke-dasharray="1,5" d="M376.27,-242.05C365.51,-229.79 350.14,-212.28 337.81,-198.23"/>
<polygon fill="#555555" stroke="#555555" points="339.82,-196.21 330.59,-191.01 334.56,-200.83 339.82,-196.21"/>
</g>
<!-- talk_p_proc -->
<g id="node4" class="node">
<title>talk_p_proc</title>
<ellipse fill="#ffffff" stroke="#000000" cx="389.47" cy="-174.05" rx="27" ry="18"/>
</g>
<!-- start&#45;&gt;talk_p_proc -->
<g id="edge3" class="edge">
<title>start&#45;&gt;talk_p_proc</title>
<path fill="none" stroke="#555555" stroke-dasharray="1,5" d="M389.47,-239.7C389.47,-229.15 389.47,-215.44 389.47,-203.35"/>
<polygon fill="#555555" stroke="#555555" points="392.97,-203.43 389.47,-193.43 385.97,-203.43 392.97,-203.43"/>
</g>
<!-- critter_p_proc -->
<g id="node5" class="node">
<title>critter_p_proc</title>
<ellipse fill="#ffffff" stroke="#000000" cx="461.47" cy="-174.05" rx="27" ry="18"/>
</g>
<!-- start&#45;&gt;critter_p_proc -->
<g id="edge4" class="edge">
<title>start&#45;&gt;critter_p_proc</title>
<path fill="none" stroke="#555555" stroke-dasharray="1,5" d="M402.68,-242.05C413.44,-229.79 428.81,-212.28 441.14,-198.23"/>
<polygon fill="#555555" stroke="#555555" points="444.38,-200.83 448.35,-191.01 439.12,-196.21 444.38,-200.83"/>
</g>
<!-- destroy_p_proc -->
<g id="node6" class="node">
<title>destroy_p_proc</title>
<ellipse fill="#ffffff" stroke="#000000" cx="533.47" cy="-174.05" rx="27" ry="18"/>
</g>
<!-- start&#45;&gt;destroy_p_proc -->
<g id="edge5" class="edge">
<title>start&#45;&gt;destroy_p_proc</title>
<path fill="none" stroke="#555555" stroke-dasharray="1,5" d="M410.77,-246.97C439.93,-233.04 489.59,-209.13 497.47,-204.1 501.54,-201.51 505.69,-198.53 509.65,-195.49"/>
<polygon fill="#555555" stroke="#555555" points="511.3,-197.85 516.92,-188.87 506.92,-192.39 511.3,-197.85"/>
</g>
<!-- get_reaction -->
<g id="node8" class="node">
<title>get_reaction</title>
<ellipse fill="#ffffff" stroke="#000000" cx="389.47" cy="-90" rx="27" ry="18"/>
</g>
<!-- talk_p_proc&#45;&gt;get_reaction -->
<g id="edge6" class="edge">
<title>talk_p_proc&#45;&gt;get_reaction</title>
<path fill="none" stroke="#555555" stroke-dasharray="1,5" d="M389.47,-155.65C389.47,-145.1 389.47,-131.38 389.47,-119.3"/>
<polygon fill="#555555" stroke="#555555" points="392.97,-119.38 389.47,-109.38 385.97,-119.38 392.97,-119.38"/>
</g>
<!-- combat -->
<g id="node7" class="node">
<title>combat</title>
<ellipse fill="#ffffff" stroke="#000000" cx="461.47" cy="-258.1" rx="27" ry="18"/>
</g>
<!-- ReactToLevel -->
<g id="node10" class="node">
<title>ReactToLevel</title>
<ellipse fill="#ffffff" stroke="#000000" cx="533.47" cy="-18" rx="27" ry="18"/>
</g>
<!-- get_reaction&#45;&gt;ReactToLevel -->
<g id="edge7" class="edge">
<title>get_reaction&#45;&gt;ReactToLevel</title>
<path fill="none" stroke="#555555" stroke-dasharray="1,5" d="M411.03,-78.52C435.35,-66.7 475.09,-47.38 502.68,-33.97"/>
<polygon fill="#555555" stroke="#555555" points="503.77,-36.84 511.24,-29.32 500.71,-30.55 503.77,-36.84"/>
</g>
<!-- damage_p_proc -->
<g id="node9" class="node">
<title>damage_p_proc</title>
<ellipse fill="#ffffff" stroke="#000000" cx="533.47" cy="-258.1" rx="27" ry="18"/>
</g>
<!-- LevelToReact -->
<g id="node11" class="node">
<title>LevelToReact</title>
<ellipse fill="#ffffff" stroke="#000000" cx="641.47" cy="-174.05" rx="27" ry="18"/>
</g>
<!-- UpReact -->
<g id="node12" class="node">
<title>UpReact</title>
<ellipse fill="#ffffff" stroke="#000000" cx="461.47" cy="-90" rx="27" ry="18"/>
</g>
<!-- UpReact&#45;&gt;ReactToLevel -->
<g id="edge8" class="edge">
<title>UpReact&#45;&gt;ReactToLevel</title>
<path fill="none" stroke="#555555" stroke-dasharray="1,5" d="M476.39,-74.5C486.33,-64.83 499.59,-51.94 510.83,-41.02"/>
<polygon fill="#555555" stroke="#555555" points="512.84,-43.97 517.57,-34.49 507.96,-38.95 512.84,-43.97"/>
</g>
<!-- DownReact -->
<g id="node13" class="node">
<title>DownReact</title>
<ellipse fill="#ffffff" stroke="#000000" cx="533.47" cy="-90" rx="27" ry="18"/>
</g>
<!-- DownReact&#45;&gt;ReactToLevel -->
<g id="edge9" class="edge">
<title>DownReact&#45;&gt;ReactToLevel</title>
<path fill="none" stroke="#555555" stroke-dasharray="1,5" d="M533.47,-71.7C533.47,-64.24 533.47,-55.32 533.47,-46.97"/>
<polygon fill="#555555" stroke="#555555" points="536.97,-47.1 533.47,-37.1 529.97,-47.1 536.97,-47.1"/>
</g>
<!-- BottomReact -->
<g id="node14" class="node">
<title>BottomReact</title>
<ellipse fill="#ffffff" stroke="#000000" cx="749.47" cy="-258.1" rx="27" ry="18"/>
</g>
<!-- TopReact -->
<g id="node15" class="node">
<title>TopReact</title>
<ellipse fill="#ffffff" stroke="#000000" cx="821.47" cy="-258.1" rx="27" ry="18"/>
</g>
<!-- BigUpReact -->
<g id="node16" class="node">
<title>BigUpReact</title>
<ellipse fill="#ffffff" stroke="#000000" cx="605.47" cy="-90" rx="27" ry="18"/>
</g>
<!-- BigUpReact&#45;&gt;ReactToLevel -->
<g id="edge10" class="edge">
<title>BigUpReact&#45;&gt;ReactToLevel</title>
<path fill="none" stroke="#555555" stroke-dasharray="1,5" d="M590.55,-74.5C580.61,-64.83 567.35,-51.94 556.12,-41.02"/>
<polygon fill="#555555" stroke="#555555" points="558.98,-38.95 549.37,-34.49 554.1,-43.97 558.98,-38.95"/>
</g>
<!-- BigDownReact -->
<g id="node17" class="node">
<title>BigDownReact</title>
<ellipse fill="#ffffff" stroke="#000000" cx="677.47" cy="-90" rx="27" ry="18"/>
</g>
<!-- BigDownReact&#45;&gt;ReactToLevel -->
<g id="edge11" class="edge">
<title>BigDownReact&#45;&gt;ReactToLevel</title>
<path fill="none" stroke="#555555" stroke-dasharray="1,5" d="M655.91,-78.52C631.6,-66.7 591.85,-47.38 564.27,-33.97"/>
<polygon fill="#555555" stroke="#555555" points="566.23,-30.55 555.71,-29.32 563.17,-36.84 566.23,-30.55"/>
</g>
<!-- UpReactLevel -->
<g id="node18" class="node">
<title>UpReactLevel</title>
<ellipse fill="#ffffff" stroke="#000000" cx="605.47" cy="-258.1" rx="27" ry="18"/>
</g>
<!-- UpReactLevel&#45;&gt;LevelToReact -->
<g id="edge12" class="edge">
<title>UpReactLevel&#45;&gt;LevelToReact</title>
<path fill="none" stroke="#555555" stroke-dasharray="1,5" d="M612.76,-240.5C617.69,-229.27 624.3,-214.19 629.94,-201.34"/>
<polygon fill="#555555" stroke="#555555" points="633.38,-203.2 634.2,-192.63 626.97,-200.38 633.38,-203.2"/>
</g>
<!-- DownReactLevel -->
<g id="node19" class="node">
<title>DownReactLevel</title>
<ellipse fill="#ffffff" stroke="#000000" cx="677.47" cy="-258.1" rx="27" ry="18"/>
</g>
<!-- DownReactLevel&#45;&gt;LevelToReact -->
<g id="edge13" class="edge">
<title>DownReactLevel&#45;&gt;LevelToReact</title>
<path fill="none" stroke="#555555" stroke-dasharray="1,5" d="M670.19,-240.5C665.26,-229.27 658.64,-214.19 653.01,-201.34"/>
<polygon fill="#555555" stroke="#555555" points="655.97,-200.38 648.75,-192.63 649.56,-203.2 655.97,-200.38"/>
</g>
<!-- Goodbyes -->
<g id="node20" class="node">
<title>Goodbyes</title>
<ellipse fill="#ffffff" stroke="#000000" cx="893.47" cy="-258.1" rx="27" ry="18"/>
</g>
</g>
</svg>
