<?xml version="1.0" encoding="UTF-8" standalone="no"?>
<!DOCTYPE svg PUBLIC "-//W3C//DTD SVG 1.1//EN"
 "http://www.w3.org/Graphics/SVG/1.1/DTD/svg11.dtd">
<!-- Generated by graphviz version 8.0.5 (0)
 -->
<!-- Title: WOMEN Pages: 1 -->
<svg width="924pt" height="286pt"
 viewBox="0.00 0.00 923.62 286.48" xmlns="http://www.w3.org/2000/svg" xmlns:xlink="http://www.w3.org/1999/xlink">
<g id="graph0" class="graph" transform="scale(1 1) rotate(0) translate(4 282.48)">
<title>WOMEN</title>
<polygon fill="white" stroke="none" points="-4,4 -4,-282.48 919.62,-282.48 919.62,4 -4,4"/>
<!-- start -->
<g id="node1" class="node">
<title>start</title>
<ellipse fill="#ffffff" stroke="#000000" cx="548.62" cy="-260.48" rx="27" ry="18"/>
</g>
<!-- look_at_p_proc -->
<g id="node2" class="node">
<title>look_at_p_proc</title>
<ellipse fill="#ffffff" stroke="#000000" cx="121.62" cy="-103.24" rx="121.62" ry="30.05"/>
<text text-anchor="middle" x="121.62" y="-107.19" font-family="Times,serif" font-size="14.00">You see a bruised and</text>
<text text-anchor="middle" x="121.62" y="-89.94" font-family="Times,serif" font-size="14.00">battered woman.</text>
</g>
<!-- start&#45;&gt;look_at_p_proc -->
<g id="edge1" class="edge">
<title>start&#45;&gt;look_at_p_proc</title>
<path fill="none" stroke="#555555" stroke-dasharray="1,5" d="M521.22,-258.92C467.4,-256.91 345.1,-247.77 252.62,-206.48 216.88,-190.52 182.24,-162.76 157.56,-140.19"/>
<polygon fill="#555555" stroke="#555555" points="160.29,-138.02 150.58,-133.76 155.51,-143.14 160.29,-138.02"/>
</g>
<!-- talk_p_proc -->
<g id="node3" class="node">
<title>talk_p_proc</title>
<ellipse fill="#ffffff" stroke="#000000" cx="398.62" cy="-103.24" rx="137.49" ry="18"/>
<text text-anchor="middle" x="398.62" y="-98.56" font-family="Times,serif" font-size="14.00">Thank you for saving me.</text>
</g>
<!-- start&#45;&gt;talk_p_proc -->
<g id="edge2" class="edge">
<title>start&#45;&gt;talk_p_proc</title>
<path fill="none" stroke="#555555" stroke-dasharray="1,5" d="M534.51,-244.87C508.83,-218.29 454.19,-161.74 422.58,-129.03"/>
<polygon fill="#555555" stroke="#555555" points="425.53,-127.02 416.07,-122.26 420.5,-131.88 425.53,-127.02"/>
</g>
<!-- critter_p_proc -->
<g id="node4" class="node">
<title>critter_p_proc</title>
<ellipse fill="#ffffff" stroke="#000000" cx="698.62" cy="-103.24" rx="144.96" ry="103.24"/>
<text text-anchor="middle" x="698.62" y="-158.94" font-family="Times,serif" font-size="14.00">You see a bruised and</text>
<text text-anchor="middle" x="698.62" y="-141.69" font-family="Times,serif" font-size="14.00">battered woman.</text>
<text text-anchor="middle" x="698.62" y="-124.44" font-family="Times,serif" font-size="14.00">&#45;&#45;&#45;</text>
<text text-anchor="middle" x="698.62" y="-107.19" font-family="Times,serif" font-size="14.00">[whispers]Please help me!</text>
<text text-anchor="middle" x="698.62" y="-89.94" font-family="Times,serif" font-size="14.00">&#45;&#45;&#45;</text>
<text text-anchor="middle" x="698.62" y="-72.69" font-family="Times,serif" font-size="14.00">No please don&#39;t!</text>
<text text-anchor="middle" x="698.62" y="-55.44" font-family="Times,serif" font-size="14.00">&#45;&#45;&#45;</text>
<text text-anchor="middle" x="698.62" y="-38.19" font-family="Times,serif" font-size="14.00">[sobs uncontrollably]</text>
</g>
<!-- start&#45;&gt;critter_p_proc -->
<g id="edge3" class="edge">
<title>start&#45;&gt;critter_p_proc</title>
<path fill="none" stroke="#555555" stroke-dasharray="1,5" d="M562.73,-244.87C574.08,-233.13 591.08,-215.54 609.24,-196.74"/>
<polygon fill="#555555" stroke="#555555" points="611.37,-199.54 615.8,-189.91 606.34,-194.67 611.37,-199.54"/>
</g>
<!-- destroy_p_proc -->
<g id="node5" class="node">
<title>destroy_p_proc</title>
<ellipse fill="#ffffff" stroke="#000000" cx="888.62" cy="-103.24" rx="27" ry="18"/>
</g>
<!-- start&#45;&gt;destroy_p_proc -->
<g id="edge4" class="edge">
<title>start&#45;&gt;destroy_p_proc</title>
<path fill="none" stroke="#555555" stroke-dasharray="1,5" d="M569.13,-248.46C574.09,-246.18 579.45,-244 584.62,-242.48 699.88,-208.41 759.39,-282.31 852.62,-206.48 874.83,-188.41 883.35,-155.72 886.62,-132.16"/>
<polygon fill="#555555" stroke="#555555" points="890.19,-132.76 887.84,-122.43 883.23,-131.97 890.19,-132.76"/>
</g>
<!-- combat -->
<g id="node6" class="node">
<title>combat</title>
<ellipse fill="#ffffff" stroke="#000000" cx="620.62" cy="-260.48" rx="27" ry="18"/>
</g>
</g>
</svg>
