<?xml version="1.0" encoding="UTF-8" standalone="no"?>
<!DOCTYPE svg PUBLIC "-//W3C//DTD SVG 1.1//EN"
 "http://www.w3.org/Graphics/SVG/1.1/DTD/svg11.dtd">
<!-- Generated by graphviz version 8.0.5 (0)
 -->
<!-- Title: avery Pages: 1 -->
<svg width="1086pt" height="357pt"
 viewBox="0.00 0.00 1085.74 357.29" xmlns="http://www.w3.org/2000/svg" xmlns:xlink="http://www.w3.org/1999/xlink">
<g id="graph0" class="graph" transform="scale(1 1) rotate(0) translate(4 353.29)">
<title>avery</title>
<polygon fill="white" stroke="none" points="-4,4 -4,-353.29 1081.74,-353.29 1081.74,4 -4,4"/>
<!-- start -->
<g id="node1" class="node">
<title>start</title>
<ellipse fill="#ffffff" stroke="#000000" cx="473.74" cy="-331.29" rx="27" ry="18"/>
</g>
<!-- look_at_p_proc -->
<g id="node2" class="node">
<title>look_at_p_proc</title>
<ellipse fill="#ffffff" stroke="#000000" cx="123.74" cy="-210.64" rx="123.74" ry="42.25"/>
<text text-anchor="middle" x="123.74" y="-223.22" font-family="Times,serif" font-size="14.00">Вы видите охранника</text>
<text text-anchor="middle" x="123.74" y="-205.97" font-family="Times,serif" font-size="14.00">компании Friendly</text>
<text text-anchor="middle" x="123.74" y="-188.72" font-family="Times,serif" font-size="14.00">Lending.</text>
</g>
<!-- start&#45;&gt;look_at_p_proc -->
<g id="edge1" class="edge">
<title>start&#45;&gt;look_at_p_proc</title>
<path fill="none" stroke="#555555" stroke-dasharray="1,5" d="M447.82,-325.86C406.56,-318.4 323.8,-301.69 256.74,-277.29 237.27,-270.2 216.9,-261.09 198.12,-251.91"/>
<polygon fill="#555555" stroke="#555555" points="199.97,-248.43 189.45,-247.12 196.86,-254.7 199.97,-248.43"/>
</g>
<!-- pickup_p_proc -->
<g id="node3" class="node">
<title>pickup_p_proc</title>
<ellipse fill="#ffffff" stroke="#000000" cx="292.74" cy="-210.64" rx="27" ry="18"/>
</g>
<!-- start&#45;&gt;pickup_p_proc -->
<g id="edge2" class="edge">
<title>start&#45;&gt;pickup_p_proc</title>
<path fill="none" stroke="#555555" stroke-dasharray="1,5" d="M447.35,-326.42C415.91,-320.61 363.3,-306.98 328.74,-277.29 316.84,-267.06 308.16,-251.88 302.31,-238.7"/>
<polygon fill="#555555" stroke="#555555" points="305.24,-237.61 298.21,-229.68 298.76,-240.26 305.24,-237.61"/>
</g>
<!-- talk_p_proc -->
<g id="node4" class="node">
<title>talk_p_proc</title>
<ellipse fill="#ffffff" stroke="#000000" cx="473.74" cy="-210.64" rx="135.94" ry="66.64"/>
<text text-anchor="middle" x="473.74" y="-240.47" font-family="Times,serif" font-size="14.00">Какого хрена! Хватайте</text>
<text text-anchor="middle" x="473.74" y="-223.22" font-family="Times,serif" font-size="14.00">его!</text>
<text text-anchor="middle" x="473.74" y="-205.97" font-family="Times,serif" font-size="14.00">&#45;&#45;&#45;</text>
<text text-anchor="middle" x="473.74" y="-188.72" font-family="Times,serif" font-size="14.00">Какого хрена! Хватайте</text>
<text text-anchor="middle" x="473.74" y="-171.47" font-family="Times,serif" font-size="14.00">ее!</text>
</g>
<!-- start&#45;&gt;talk_p_proc -->
<g id="edge3" class="edge">
<title>start&#45;&gt;talk_p_proc</title>
<path fill="none" stroke="#555555" stroke-dasharray="1,5" d="M473.74,-313.04C473.74,-306.11 473.74,-297.6 473.74,-288.49"/>
<polygon fill="#555555" stroke="#555555" points="477.24,-288.57 473.74,-278.57 470.24,-288.57 477.24,-288.57"/>
</g>
<!-- critter_p_proc -->
<g id="node5" class="node">
<title>critter_p_proc</title>
<ellipse fill="#ffffff" stroke="#000000" cx="654.74" cy="-210.64" rx="27" ry="18"/>
</g>
<!-- start&#45;&gt;critter_p_proc -->
<g id="edge4" class="edge">
<title>start&#45;&gt;critter_p_proc</title>
<path fill="none" stroke="#555555" stroke-dasharray="1,5" d="M500.14,-326.42C531.58,-320.61 584.18,-306.98 618.74,-277.29 630.65,-267.06 639.33,-251.88 645.18,-238.7"/>
<polygon fill="#555555" stroke="#555555" points="648.73,-240.26 649.28,-229.68 642.25,-237.61 648.73,-240.26"/>
</g>
<!-- destroy_p_proc -->
<g id="node6" class="node">
<title>destroy_p_proc</title>
<ellipse fill="#ffffff" stroke="#000000" cx="726.74" cy="-210.64" rx="27" ry="18"/>
</g>
<!-- start&#45;&gt;destroy_p_proc -->
<g id="edge5" class="edge">
<title>start&#45;&gt;destroy_p_proc</title>
<path fill="none" stroke="#555555" stroke-dasharray="1,5" d="M501.06,-330.41C545.37,-329.23 633.66,-321.08 690.74,-277.29 703.28,-267.68 712.02,-252.4 717.75,-239"/>
<polygon fill="#555555" stroke="#555555" points="721.36,-240.39 721.72,-229.8 714.83,-237.85 721.36,-240.39"/>
</g>
<!-- combat -->
<g id="node7" class="node">
<title>combat</title>
<ellipse fill="#ffffff" stroke="#000000" cx="437.74" cy="-90" rx="27" ry="18"/>
</g>
<!-- talk_p_proc&#45;&gt;combat -->
<g id="edge7" class="edge">
<title>talk_p_proc&#45;&gt;combat</title>
<path fill="none" stroke="#555555" stroke-dasharray="1,5" d="M453.95,-144.42C451.15,-135.2 448.41,-126.17 446.01,-118.23"/>
<polygon fill="#555555" stroke="#555555" points="449.11,-117.39 442.85,-108.84 442.41,-119.42 449.11,-117.39"/>
</g>
<!-- get_reaction -->
<g id="node8" class="node">
<title>get_reaction</title>
<ellipse fill="#ffffff" stroke="#000000" cx="509.74" cy="-90" rx="27" ry="18"/>
</g>
<!-- talk_p_proc&#45;&gt;get_reaction -->
<g id="edge6" class="edge">
<title>talk_p_proc&#45;&gt;get_reaction</title>
<path fill="none" stroke="#555555" stroke-dasharray="1,5" d="M493.53,-144.42C496.33,-135.2 499.07,-126.17 501.48,-118.23"/>
<polygon fill="#555555" stroke="#555555" points="505.08,-119.42 504.63,-108.84 498.38,-117.39 505.08,-119.42"/>
</g>
<!-- ReactToLevel -->
<g id="node9" class="node">
<title>ReactToLevel</title>
<ellipse fill="#ffffff" stroke="#000000" cx="653.74" cy="-18" rx="27" ry="18"/>
</g>
<!-- get_reaction&#45;&gt;ReactToLevel -->
<g id="edge8" class="edge">
<title>get_reaction&#45;&gt;ReactToLevel</title>
<path fill="none" stroke="#555555" stroke-dasharray="1,5" d="M531.3,-78.52C555.62,-66.7 595.36,-47.38 622.95,-33.97"/>
<polygon fill="#555555" stroke="#555555" points="624.04,-36.84 631.51,-29.32 620.98,-30.55 624.04,-36.84"/>
</g>
<!-- LevelToReact -->
<g id="node10" class="node">
<title>LevelToReact</title>
<ellipse fill="#ffffff" stroke="#000000" cx="798.74" cy="-210.64" rx="27" ry="18"/>
</g>
<!-- UpReact -->
<g id="node11" class="node">
<title>UpReact</title>
<ellipse fill="#ffffff" stroke="#000000" cx="581.74" cy="-90" rx="27" ry="18"/>
</g>
<!-- UpReact&#45;&gt;ReactToLevel -->
<g id="edge9" class="edge">
<title>UpReact&#45;&gt;ReactToLevel</title>
<path fill="none" stroke="#555555" stroke-dasharray="1,5" d="M596.66,-74.5C606.61,-64.83 619.86,-51.94 631.1,-41.02"/>
<polygon fill="#555555" stroke="#555555" points="633.11,-43.97 637.84,-34.49 628.23,-38.95 633.11,-43.97"/>
</g>
<!-- DownReact -->
<g id="node12" class="node">
<title>DownReact</title>
<ellipse fill="#ffffff" stroke="#000000" cx="653.74" cy="-90" rx="27" ry="18"/>
</g>
<!-- DownReact&#45;&gt;ReactToLevel -->
<g id="edge10" class="edge">
<title>DownReact&#45;&gt;ReactToLevel</title>
<path fill="none" stroke="#555555" stroke-dasharray="1,5" d="M653.74,-71.7C653.74,-64.24 653.74,-55.32 653.74,-46.97"/>
<polygon fill="#555555" stroke="#555555" points="657.24,-47.1 653.74,-37.1 650.24,-47.1 657.24,-47.1"/>
</g>
<!-- BottomReact -->
<g id="node13" class="node">
<title>BottomReact</title>
<ellipse fill="#ffffff" stroke="#000000" cx="906.74" cy="-331.29" rx="27" ry="18"/>
</g>
<!-- TopReact -->
<g id="node14" class="node">
<title>TopReact</title>
<ellipse fill="#ffffff" stroke="#000000" cx="978.74" cy="-331.29" rx="27" ry="18"/>
</g>
<!-- BigUpReact -->
<g id="node15" class="node">
<title>BigUpReact</title>
<ellipse fill="#ffffff" stroke="#000000" cx="725.74" cy="-90" rx="27" ry="18"/>
</g>
<!-- BigUpReact&#45;&gt;ReactToLevel -->
<g id="edge11" class="edge">
<title>BigUpReact&#45;&gt;ReactToLevel</title>
<path fill="none" stroke="#555555" stroke-dasharray="1,5" d="M710.83,-74.5C700.88,-64.83 687.63,-51.94 676.39,-41.02"/>
<polygon fill="#555555" stroke="#555555" points="679.25,-38.95 669.64,-34.49 674.37,-43.97 679.25,-38.95"/>
</g>
<!-- BigDownReact -->
<g id="node16" class="node">
<title>BigDownReact</title>
<ellipse fill="#ffffff" stroke="#000000" cx="797.74" cy="-90" rx="27" ry="18"/>
</g>
<!-- BigDownReact&#45;&gt;ReactToLevel -->
<g id="edge12" class="edge">
<title>BigDownReact&#45;&gt;ReactToLevel</title>
<path fill="none" stroke="#555555" stroke-dasharray="1,5" d="M776.19,-78.52C751.87,-66.7 712.12,-47.38 684.54,-33.97"/>
<polygon fill="#555555" stroke="#555555" points="686.5,-30.55 675.98,-29.32 683.44,-36.84 686.5,-30.55"/>
</g>
<!-- UpReactLevel -->
<g id="node17" class="node">
<title>UpReactLevel</title>
<ellipse fill="#ffffff" stroke="#000000" cx="762.74" cy="-331.29" rx="27" ry="18"/>
</g>
<!-- UpReactLevel&#45;&gt;LevelToReact -->
<g id="edge13" class="edge">
<title>UpReactLevel&#45;&gt;LevelToReact</title>
<path fill="none" stroke="#555555" stroke-dasharray="1,5" d="M767.9,-313.29C773.78,-293.91 783.48,-261.95 790.43,-239.04"/>
<polygon fill="#555555" stroke="#555555" points="794.04,-240.2 793.6,-229.61 787.34,-238.17 794.04,-240.2"/>
</g>
<!-- DownReactLevel -->
<g id="node18" class="node">
<title>DownReactLevel</title>
<ellipse fill="#ffffff" stroke="#000000" cx="834.74" cy="-331.29" rx="27" ry="18"/>
</g>
<!-- DownReactLevel&#45;&gt;LevelToReact -->
<g id="edge14" class="edge">
<title>DownReactLevel&#45;&gt;LevelToReact</title>
<path fill="none" stroke="#555555" stroke-dasharray="1,5" d="M829.59,-313.29C823.7,-293.91 814.01,-261.95 807.06,-239.04"/>
<polygon fill="#555555" stroke="#555555" points="810.14,-238.17 803.89,-229.61 803.45,-240.2 810.14,-238.17"/>
</g>
<!-- Goodbyes -->
<g id="node19" class="node">
<title>Goodbyes</title>
<ellipse fill="#ffffff" stroke="#000000" cx="1050.74" cy="-331.29" rx="27" ry="18"/>
</g>
</g>
</svg>
