<?xml version="1.0" encoding="UTF-8" standalone="no"?>
<!DOCTYPE svg PUBLIC "-//W3C//DTD SVG 1.1//EN"
 "http://www.w3.org/Graphics/SVG/1.1/DTD/svg11.dtd">
<!-- Generated by graphviz version 8.0.5 (0)
 -->
<!-- Title: child Pages: 1 -->
<svg width="1221pt" height="254pt"
 viewBox="0.00 0.00 1221.25 254.46" xmlns="http://www.w3.org/2000/svg" xmlns:xlink="http://www.w3.org/1999/xlink">
<g id="graph0" class="graph" transform="scale(1 1) rotate(0) translate(4 250.46)">
<title>child</title>
<polygon fill="white" stroke="none" points="-4,4 -4,-250.46 1217.25,-250.46 1217.25,4 -4,4"/>
<!-- start -->
<g id="node1" class="node">
<title>start</title>
<ellipse fill="#ffffff" stroke="#000000" cx="326.39" cy="-216.41" rx="27" ry="18"/>
</g>
<!-- critter_p_proc -->
<g id="node2" class="node">
<title>critter_p_proc</title>
<ellipse fill="#ffffff" stroke="#000000" cx="398.39" cy="-216.41" rx="27" ry="18"/>
</g>
<!-- talk_p_proc -->
<g id="node3" class="node">
<title>talk_p_proc</title>
<ellipse fill="#ffffff" stroke="#000000" cx="470.39" cy="-216.41" rx="27" ry="18"/>
</g>
<!-- child04 -->
<g id="node4" class="node">
<title>child04</title>
<ellipse fill="#ffffff" stroke="#000000" cx="623.39" cy="-119.3" rx="126.93" ry="30.05"/>
<text text-anchor="middle" x="623.39" y="-123.25" font-family="Times,serif" font-size="14.00">Эй, ты хочешь кого&#45;то</text>
<text text-anchor="middle" x="623.39" y="-106" font-family="Times,serif" font-size="14.00">убить?</text>
</g>
<!-- talk_p_proc&#45;&gt;child04 -->
<g id="edge1" class="edge">
<title>talk_p_proc&#45;&gt;child04</title>
<path fill="none" stroke="#555555" stroke-dasharray="1,5" d="M486.44,-201.51C492.52,-196.5 499.62,-190.96 506.39,-186.35 523.98,-174.42 543.87,-162.61 562.19,-152.35"/>
<polygon fill="#555555" stroke="#555555" points="563.56,-155.04 570.61,-147.13 560.17,-148.92 563.56,-155.04"/>
</g>
<!-- child01 -->
<g id="node5" class="node">
<title>child01</title>
<ellipse fill="#ffffff" stroke="#000000" cx="350.39" cy="-119.3" rx="53.31" ry="18"/>
<text text-anchor="middle" x="350.39" y="-114.63" font-family="Times,serif" font-size="14.00">Привет!</text>
</g>
<!-- talk_p_proc&#45;&gt;child01 -->
<g id="edge2" class="edge">
<title>talk_p_proc&#45;&gt;child01</title>
<path fill="none" stroke="#555555" stroke-dasharray="1,5" d="M453.94,-202.06C447.82,-197.11 440.8,-191.46 434.39,-186.35 416.15,-171.82 395.57,-155.63 379.34,-142.92"/>
<polygon fill="#555555" stroke="#555555" points="381.85,-139.66 371.82,-136.25 377.54,-145.17 381.85,-139.66"/>
</g>
<!-- child03 -->
<g id="node12" class="node">
<title>child03</title>
<ellipse fill="#ffffff" stroke="#000000" cx="469.39" cy="-18" rx="145.91" ry="18"/>
<text text-anchor="middle" x="469.39" y="-13.32" font-family="Times,serif" font-size="14.00">На тебе смешная одежда!</text>
</g>
<!-- child04&#45;&gt;child03 -->
<g id="edge8" class="edge">
<title>child04&#45;&gt;child03</title>
<path fill="none" stroke="#99000c" d="M580.5,-90.64C556.67,-75.28 527.38,-56.39 504.85,-41.87"/>
<polygon fill="#99000c" stroke="#99000c" points="506.95,-38.41 496.65,-35.93 503.16,-44.29 506.95,-38.41"/>
<text text-anchor="middle" x="565.52" y="-57.95" font-family="Times,serif" font-size="14.00" fill="#99000c">Ырф.</text>
</g>
<!-- child05 -->
<g id="node13" class="node">
<title>child05</title>
<ellipse fill="#ffffff" stroke="#000000" cx="759.39" cy="-18" rx="126.44" ry="18"/>
<text text-anchor="middle" x="759.39" y="-13.32" font-family="Times,serif" font-size="14.00">Я все маме расскажу!</text>
</g>
<!-- child04&#45;&gt;child05 -->
<g id="edge6" class="edge">
<title>child04&#45;&gt;child05</title>
<path fill="none" stroke="#4d0099" d="M661.64,-90.38C682.26,-75.32 707.42,-56.95 727.06,-42.61"/>
<polygon fill="#4d0099" stroke="#4d0099" points="728.91,-44.86 734.93,-36.13 724.79,-39.2 728.91,-44.86"/>
<text text-anchor="middle" x="720.39" y="-57.95" font-family="Times,serif" font-size="14.00" fill="#4d0099">Да.</text>
</g>
<!-- child06 -->
<g id="node14" class="node">
<title>child06</title>
<ellipse fill="#ffffff" stroke="#000000" cx="1058.39" cy="-18" rx="154.85" ry="18"/>
<text text-anchor="middle" x="1058.39" y="-13.32" font-family="Times,serif" font-size="14.00">Тогда лучше убери оружие.</text>
</g>
<!-- child04&#45;&gt;child06 -->
<g id="edge7" class="edge">
<title>child04&#45;&gt;child06</title>
<path fill="none" stroke="#009921" d="M713.53,-97.73C792.08,-79.79 904.85,-54.05 979.8,-36.94"/>
<polygon fill="#009921" stroke="#009921" points="980.14,-40.23 989.11,-34.59 978.58,-33.4 980.14,-40.23"/>
<text text-anchor="middle" x="910.27" y="-57.95" font-family="Times,serif" font-size="14.00" fill="#009921">Нет!</text>
</g>
<!-- childend -->
<g id="node10" class="node">
<title>childend</title>
<ellipse fill="#ffffff" stroke="#000000" cx="278.39" cy="-18" rx="27" ry="18"/>
</g>
<!-- child01&#45;&gt;childend -->
<g id="edge3" class="edge">
<title>child01&#45;&gt;childend</title>
<path fill="none" stroke="#99005f" d="M338.18,-101.46C326.63,-85.53 309.17,-61.45 296.1,-43.42"/>
<polygon fill="#99005f" stroke="#99005f" points="298.42,-41.66 289.72,-35.62 292.75,-45.77 298.42,-41.66"/>
<text text-anchor="middle" x="343.64" y="-57.95" font-family="Times,serif" font-size="14.00" fill="#99005f">Привет.</text>
</g>
<!-- child02 -->
<g id="node11" class="node">
<title>child02</title>
<ellipse fill="#ffffff" stroke="#000000" cx="115.39" cy="-18" rx="115.39" ry="18"/>
<text text-anchor="middle" x="115.39" y="-13.32" font-family="Times,serif" font-size="14.00">Не знаю. Где&#45;то тут.</text>
</g>
<!-- child01&#45;&gt;child02 -->
<g id="edge4" class="edge">
<title>child01&#45;&gt;child02</title>
<path fill="none" stroke="#008b99" d="M298.69,-114.39C258.14,-109.33 201.65,-97.75 159.14,-71.25 148.49,-64.61 139.15,-54.5 131.87,-44.94"/>
<polygon fill="#008b99" stroke="#008b99" points="134.2,-43.17 125.54,-37.06 128.5,-47.24 134.2,-43.17"/>
<text text-anchor="middle" x="231.02" y="-57.95" font-family="Times,serif" font-size="14.00" fill="#008b99">Где твои родители?</text>
</g>
<!-- child01&#45;&gt;child03 -->
<g id="edge5" class="edge">
<title>child01&#45;&gt;child03</title>
<path fill="none" stroke="#997a00" d="M369.78,-102.13C388.96,-86.12 418.57,-61.41 440.52,-43.09"/>
<polygon fill="#997a00" stroke="#997a00" points="442.38,-45.26 447.82,-36.17 437.9,-39.89 442.38,-45.26"/>
<text text-anchor="middle" x="443.52" y="-57.95" font-family="Times,serif" font-size="14.00" fill="#997a00">Ырф.</text>
</g>
<!-- pickup_p_proc -->
<g id="node6" class="node">
<title>pickup_p_proc</title>
<ellipse fill="#ffffff" stroke="#000000" cx="542.39" cy="-216.41" rx="27" ry="18"/>
</g>
<!-- destroy_p_proc -->
<g id="node7" class="node">
<title>destroy_p_proc</title>
<ellipse fill="#ffffff" stroke="#000000" cx="614.39" cy="-216.41" rx="27" ry="18"/>
</g>
<!-- look_at_p_proc -->
<g id="node8" class="node">
<title>look_at_p_proc</title>
<ellipse fill="#ffffff" stroke="#000000" cx="789.39" cy="-216.41" rx="129.58" ry="30.05"/>
<text text-anchor="middle" x="789.39" y="-220.36" font-family="Times,serif" font-size="14.00">Вы видите маленького</text>
<text text-anchor="middle" x="789.39" y="-203.11" font-family="Times,serif" font-size="14.00">ребенка.</text>
</g>
<!-- timed_event_p_proc -->
<g id="node9" class="node">
<title>timed_event_p_proc</title>
<ellipse fill="#ffffff" stroke="#000000" cx="964.39" cy="-216.41" rx="27" ry="18"/>
</g>
</g>
</svg>
