<?xml version="1.0" encoding="UTF-8" standalone="no"?>
<!DOCTYPE svg PUBLIC "-//W3C//DTD SVG 1.1//EN"
 "http://www.w3.org/Graphics/SVG/1.1/DTD/svg11.dtd">
<!-- Generated by graphviz version 8.0.5 (0)
 -->
<!-- Title: cookshel Pages: 1 -->
<svg width="678pt" height="213pt"
 viewBox="0.00 0.00 677.54 213.00" xmlns="http://www.w3.org/2000/svg" xmlns:xlink="http://www.w3.org/1999/xlink">
<g id="graph0" class="graph" transform="scale(1 1) rotate(0) translate(4 209)">
<title>cookshel</title>
<polygon fill="white" stroke="none" points="-4,4 -4,-209 673.54,-209 673.54,4 -4,4"/>
<!-- start -->
<g id="node1" class="node">
<title>start</title>
<ellipse fill="#ffffff" stroke="#000000" cx="322.22" cy="-174.95" rx="27" ry="18"/>
</g>
<!-- pickup_p_proc -->
<g id="node2" class="node">
<title>pickup_p_proc</title>
<ellipse fill="#ffffff" stroke="#000000" cx="158.22" cy="-54.45" rx="158.22" ry="54.45"/>
<text text-anchor="middle" x="158.22" y="-75.65" font-family="Times,serif" font-size="14.00">Повара внимательно следят</text>
<text text-anchor="middle" x="158.22" y="-58.4" font-family="Times,serif" font-size="14.00">за всем. Здесь вряд ли</text>
<text text-anchor="middle" x="158.22" y="-41.15" font-family="Times,serif" font-size="14.00">удастся что&#45;нибудь</text>
<text text-anchor="middle" x="158.22" y="-23.9" font-family="Times,serif" font-size="14.00">украсть.</text>
</g>
<!-- start&#45;&gt;pickup_p_proc -->
<g id="edge1" class="edge">
<title>start&#45;&gt;pickup_p_proc</title>
<path fill="none" stroke="#555555" stroke-dasharray="1,5" d="M304.35,-161.04C287.27,-148.7 260.32,-129.22 234.19,-110.34"/>
<polygon fill="#555555" stroke="#555555" points="236.53,-106.99 226.38,-103.97 232.43,-112.67 236.53,-106.99"/>
</g>
<!-- look_at_p_proc -->
<g id="node3" class="node">
<title>look_at_p_proc</title>
<ellipse fill="#ffffff" stroke="#000000" cx="486.22" cy="-54.45" rx="151.32" ry="30.05"/>
<text text-anchor="middle" x="486.22" y="-58.4" font-family="Times,serif" font-size="14.00">На полке стоит множество</text>
<text text-anchor="middle" x="486.22" y="-41.15" font-family="Times,serif" font-size="14.00">бутылок.</text>
</g>
<!-- start&#45;&gt;look_at_p_proc -->
<g id="edge2" class="edge">
<title>start&#45;&gt;look_at_p_proc</title>
<path fill="none" stroke="#555555" stroke-dasharray="1,5" d="M338.51,-160.4C344.62,-155.43 351.67,-149.82 358.22,-144.89 383.2,-126.12 411.64,-106.12 435.35,-89.8"/>
<polygon fill="#555555" stroke="#555555" points="436.92,-92.28 443.19,-83.74 432.96,-86.5 436.92,-92.28"/>
</g>
<!-- description_p_proc -->
<g id="node4" class="node">
<title>description_p_proc</title>
<ellipse fill="#ffffff" stroke="#000000" cx="518.22" cy="-174.95" rx="151.32" ry="30.05"/>
<text text-anchor="middle" x="518.22" y="-178.9" font-family="Times,serif" font-size="14.00">На полке стоит множество</text>
<text text-anchor="middle" x="518.22" y="-161.65" font-family="Times,serif" font-size="14.00">бутылок.</text>
</g>
</g>
</svg>
