<?xml version="1.0" encoding="UTF-8" standalone="no"?>
<!DOCTYPE svg PUBLIC "-//W3C//DTD SVG 1.1//EN"
 "http://www.w3.org/Graphics/SVG/1.1/DTD/svg11.dtd">
<!-- Generated by graphviz version 8.0.5 (0)
 -->
<!-- Title: cougar Pages: 1 -->
<svg width="1251pt" height="458pt"
 viewBox="0.00 0.00 1251.03 457.96" xmlns="http://www.w3.org/2000/svg" xmlns:xlink="http://www.w3.org/1999/xlink">
<g id="graph0" class="graph" transform="scale(1 1) rotate(0) translate(4 453.96)">
<title>cougar</title>
<polygon fill="white" stroke="none" points="-4,4 -4,-453.96 1247.03,-453.96 1247.03,4 -4,4"/>
<!-- start -->
<g id="node1" class="node">
<title>start</title>
<ellipse fill="#ffffff" stroke="#000000" cx="27" cy="-419.9" rx="27" ry="18"/>
</g>
<!-- look_at_p_proc -->
<g id="node2" class="node">
<title>look_at_p_proc</title>
<ellipse fill="#ffffff" stroke="#000000" cx="195" cy="-419.9" rx="122.68" ry="30.05"/>
<text text-anchor="middle" x="195" y="-423.85" font-family="Times,serif" font-size="14.00">Пума, телохранитель</text>
<text text-anchor="middle" x="195" y="-406.6" font-family="Times,serif" font-size="14.00">доктора Морбида.</text>
</g>
<!-- critter_p_proc -->
<g id="node3" class="node">
<title>critter_p_proc</title>
<ellipse fill="#ffffff" stroke="#000000" cx="363" cy="-419.9" rx="27" ry="18"/>
</g>
<!-- map_enter_p_proc -->
<g id="node4" class="node">
<title>map_enter_p_proc</title>
<ellipse fill="#ffffff" stroke="#000000" cx="435" cy="-419.9" rx="27" ry="18"/>
</g>
<!-- pickup_p_proc -->
<g id="node5" class="node">
<title>pickup_p_proc</title>
<ellipse fill="#ffffff" stroke="#000000" cx="507" cy="-419.9" rx="27" ry="18"/>
</g>
<!-- talk_p_proc -->
<g id="node6" class="node">
<title>talk_p_proc</title>
<ellipse fill="#ffffff" stroke="#000000" cx="579" cy="-419.9" rx="27" ry="18"/>
</g>
<!-- Cougar04 -->
<g id="node7" class="node">
<title>Cougar04</title>
<ellipse fill="#ffffff" stroke="#000000" cx="514" cy="-322.8" rx="156.62" ry="30.05"/>
<text text-anchor="middle" x="514" y="-326.75" font-family="Times,serif" font-size="14.00">Это снова ты? Пуме больше</text>
<text text-anchor="middle" x="514" y="-309.5" font-family="Times,serif" font-size="14.00">нечего тебе сказать.</text>
</g>
<!-- talk_p_proc&#45;&gt;Cougar04 -->
<g id="edge1" class="edge">
<title>talk_p_proc&#45;&gt;Cougar04</title>
<path fill="none" stroke="#555555" stroke-dasharray="1,5" d="M568.27,-403.2C560.56,-391.93 549.84,-376.24 539.96,-361.78"/>
<polygon fill="#555555" stroke="#555555" points="542.48,-360.27 533.95,-353.99 536.7,-364.22 542.48,-360.27"/>
</g>
<!-- Cougar00 -->
<g id="node8" class="node">
<title>Cougar00</title>
<ellipse fill="#ffffff" stroke="#000000" cx="751" cy="-322.8" rx="62.78" ry="18"/>
<text text-anchor="middle" x="751" y="-318.13" font-family="Times,serif" font-size="14.00">Как дела?</text>
</g>
<!-- talk_p_proc&#45;&gt;Cougar00 -->
<g id="edge2" class="edge">
<title>talk_p_proc&#45;&gt;Cougar00</title>
<path fill="none" stroke="#555555" stroke-dasharray="1,5" d="M594.54,-405.07C600.68,-399.96 607.95,-394.33 615,-389.85 643.99,-371.46 678.85,-354.62 706.02,-342.54"/>
<polygon fill="#555555" stroke="#555555" points="707.28,-345.38 715.03,-338.16 704.47,-338.97 707.28,-345.38"/>
</g>
<!-- Cougar01 -->
<g id="node11" class="node">
<title>Cougar01</title>
<ellipse fill="#ffffff" stroke="#000000" cx="583" cy="-197.25" rx="117.91" ry="30.05"/>
<text text-anchor="middle" x="583" y="-201.2" font-family="Times,serif" font-size="14.00">У Пумы всегда все в</text>
<text text-anchor="middle" x="583" y="-183.95" font-family="Times,serif" font-size="14.00">порядке.</text>
</g>
<!-- Cougar00&#45;&gt;Cougar01 -->
<g id="edge3" class="edge">
<title>Cougar00&#45;&gt;Cougar01</title>
<path fill="none" stroke="#00990a" d="M718.99,-307.03C706.97,-301.92 693.05,-296.54 680,-292.75 636.43,-280.09 608.62,-309.55 579.5,-274.75 571.1,-264.71 569.68,-251.08 571.11,-238.11"/>
<polygon fill="#00990a" stroke="#00990a" points="574.69,-238.9 572.89,-228.46 567.79,-237.74 574.69,-238.9"/>
<text text-anchor="middle" x="658.75" y="-261.45" font-family="Times,serif" font-size="14.00" fill="#00990a">Нормально, а у тебя?</text>
</g>
<!-- Cougar02 -->
<g id="node12" class="node">
<title>Cougar02</title>
<ellipse fill="#ffffff" stroke="#000000" cx="667" cy="-42.25" rx="138.06" ry="42.25"/>
<text text-anchor="middle" x="667" y="-54.82" font-family="Times,serif" font-size="14.00">Поговори с тем парнем,</text>
<text text-anchor="middle" x="667" y="-37.57" font-family="Times,serif" font-size="14.00">его зовут Флэш. Он тебе</text>
<text text-anchor="middle" x="667" y="-20.32" font-family="Times,serif" font-size="14.00">поможет.</text>
</g>
<!-- Cougar00&#45;&gt;Cougar02 -->
<g id="edge4" class="edge">
<title>Cougar00&#45;&gt;Cougar02</title>
<path fill="none" stroke="#990022" d="M751.62,-304.32C752.95,-258.8 754.7,-137.69 737,-102.5 734.71,-97.94 731.89,-93.59 728.71,-89.48"/>
<polygon fill="#990022" stroke="#990022" points="730.92,-87.67 721.75,-82.36 725.61,-92.23 730.92,-87.67"/>
<text text-anchor="middle" x="835.12" y="-192.57" font-family="Times,serif" font-size="14.00" fill="#990022">Мне нужно к доктору.</text>
</g>
<!-- Cougar03 -->
<g id="node13" class="node">
<title>Cougar03</title>
<ellipse fill="#ffffff" stroke="#000000" cx="1088" cy="-197.25" rx="155.03" ry="42.25"/>
<text text-anchor="middle" x="1088" y="-209.82" font-family="Times,serif" font-size="14.00">Эй, не гони. Пума за</text>
<text text-anchor="middle" x="1088" y="-192.57" font-family="Times,serif" font-size="14.00">тобой не успевает.</text>
<text text-anchor="middle" x="1088" y="-175.32" font-family="Times,serif" font-size="14.00">Поговори лучше с Флэшем.</text>
</g>
<!-- Cougar00&#45;&gt;Cougar03 -->
<g id="edge5" class="edge">
<title>Cougar00&#45;&gt;Cougar03</title>
<path fill="none" stroke="#004f99" d="M788.68,-307.99C836.22,-290.56 919.84,-259.9 986.63,-235.41"/>
<polygon fill="#004f99" stroke="#004f99" points="987.59,-238.42 995.78,-231.69 985.18,-231.85 987.59,-238.42"/>
<text text-anchor="middle" x="941" y="-261.45" font-family="Times,serif" font-size="14.00" fill="#004f99">А&#45;ым.</text>
</g>
<!-- destroy_p_proc -->
<g id="node9" class="node">
<title>destroy_p_proc</title>
<ellipse fill="#ffffff" stroke="#000000" cx="651" cy="-419.9" rx="27" ry="18"/>
</g>
<!-- damage_p_proc -->
<g id="node10" class="node">
<title>damage_p_proc</title>
<ellipse fill="#ffffff" stroke="#000000" cx="723" cy="-419.9" rx="27" ry="18"/>
</g>
<!-- Cougar01&#45;&gt;Cougar02 -->
<g id="edge6" class="edge">
<title>Cougar01&#45;&gt;Cougar02</title>
<path fill="none" stroke="#7c9900" d="M579.25,-167.07C578.13,-147.64 579.38,-122.18 590,-102.5 592.64,-97.61 595.87,-93.01 599.49,-88.68"/>
<polygon fill="#7c9900" stroke="#7c9900" points="601.65,-91.43 605.91,-81.73 596.53,-86.66 601.65,-91.43"/>
<text text-anchor="middle" x="663.5" y="-123.7" font-family="Times,serif" font-size="14.00" fill="#7c9900">Слушай, мне нужно</text>
<text text-anchor="middle" x="663.5" y="-106.45" font-family="Times,serif" font-size="14.00" fill="#7c9900">узнать...</text>
</g>
</g>
</svg>
