<?xml version="1.0" encoding="UTF-8" standalone="no"?>
<!DOCTYPE svg PUBLIC "-//W3C//DTD SVG 1.1//EN"
 "http://www.w3.org/Graphics/SVG/1.1/DTD/svg11.dtd">
<!-- Generated by graphviz version 8.0.5 (0)
 -->
<!-- Title: crashbox Pages: 1 -->
<svg width="614pt" height="164pt"
 viewBox="0.00 0.00 613.67 164.21" xmlns="http://www.w3.org/2000/svg" xmlns:xlink="http://www.w3.org/1999/xlink">
<g id="graph0" class="graph" transform="scale(1 1) rotate(0) translate(4 160.21)">
<title>crashbox</title>
<polygon fill="white" stroke="none" points="-4,4 -4,-160.21 609.67,-160.21 609.67,4 -4,4"/>
<!-- start -->
<g id="node1" class="node">
<title>start</title>
<ellipse fill="#ffffff" stroke="#000000" cx="148.67" cy="-126.16" rx="27" ry="18"/>
</g>
<!-- description_p_proc -->
<g id="node2" class="node">
<title>description_p_proc</title>
<ellipse fill="#ffffff" stroke="#000000" cx="148.67" cy="-30.05" rx="148.67" ry="30.05"/>
<text text-anchor="middle" x="148.67" y="-34" font-family="Times,serif" font-size="14.00">Надпись на табличке:</text>
<text text-anchor="middle" x="148.67" y="-16.75" font-family="Times,serif" font-size="14.00">&quot;Только для хозяев дома&quot;.</text>
</g>
<!-- start&#45;&gt;description_p_proc -->
<g id="edge1" class="edge">
<title>start&#45;&gt;description_p_proc</title>
<path fill="none" stroke="#555555" stroke-dasharray="1,5" d="M148.67,-107.9C148.67,-97.64 148.67,-84.17 148.67,-71.37"/>
<polygon fill="#555555" stroke="#555555" points="152.17,-71.4 148.67,-61.4 145.17,-71.4 152.17,-71.4"/>
</g>
<!-- look_at_p_proc -->
<g id="node3" class="node">
<title>look_at_p_proc</title>
<ellipse fill="#ffffff" stroke="#000000" cx="327.67" cy="-126.16" rx="133.82" ry="30.05"/>
<text text-anchor="middle" x="327.67" y="-130.11" font-family="Times,serif" font-size="14.00">На холодильнике висит</text>
<text text-anchor="middle" x="327.67" y="-112.86" font-family="Times,serif" font-size="14.00">табличка.</text>
</g>
<!-- use_p_proc -->
<g id="node4" class="node">
<title>use_p_proc</title>
<ellipse fill="#ffffff" stroke="#000000" cx="506.67" cy="-126.16" rx="27" ry="18"/>
</g>
<!-- use_skill_on_p_proc -->
<g id="node5" class="node">
<title>use_skill_on_p_proc</title>
<ellipse fill="#ffffff" stroke="#000000" cx="578.67" cy="-126.16" rx="27" ry="18"/>
</g>
</g>
</svg>
