<?xml version="1.0" encoding="UTF-8" standalone="no"?>
<!DOCTYPE svg PUBLIC "-//W3C//DTD SVG 1.1//EN"
 "http://www.w3.org/Graphics/SVG/1.1/DTD/svg11.dtd">
<!-- Generated by graphviz version 8.0.5 (0)
 -->
<!-- Title: deadguy Pages: 1 -->
<svg width="1555pt" height="1118pt"
 viewBox="0.00 0.00 1554.90 1118.22" xmlns="http://www.w3.org/2000/svg" xmlns:xlink="http://www.w3.org/1999/xlink">
<g id="graph0" class="graph" transform="scale(1 1) rotate(0) translate(4 1114.22)">
<title>deadguy</title>
<polygon fill="white" stroke="none" points="-4,4 -4,-1114.22 1550.9,-1114.22 1550.9,4 -4,4"/>
<!-- start -->
<g id="node1" class="node">
<title>start</title>
<ellipse fill="#ffffff" stroke="#000000" cx="1062.9" cy="-1092.22" rx="27" ry="18"/>
</g>
<!-- look_at_p_proc -->
<g id="node2" class="node">
<title>look_at_p_proc</title>
<ellipse fill="#ffffff" stroke="#000000" cx="808.9" cy="-1019.22" rx="137.49" ry="18"/>
<text text-anchor="middle" x="808.9" y="-1014.54" font-family="Times,serif" font-size="14.00">Вы видите жителя Хаба.</text>
</g>
<!-- start&#45;&gt;look_at_p_proc -->
<g id="edge1" class="edge">
<title>start&#45;&gt;look_at_p_proc</title>
<path fill="none" stroke="#555555" stroke-dasharray="1,5" d="M1038.08,-1084.28C1000.86,-1073.88 929.28,-1053.87 875.98,-1038.97"/>
<polygon fill="#555555" stroke="#555555" points="877.15,-1035.38 866.58,-1036.06 875.26,-1042.12 877.15,-1035.38"/>
</g>
<!-- pickup_p_proc -->
<g id="node3" class="node">
<title>pickup_p_proc</title>
<ellipse fill="#ffffff" stroke="#000000" cx="990.9" cy="-1019.22" rx="27" ry="18"/>
</g>
<!-- start&#45;&gt;pickup_p_proc -->
<g id="edge2" class="edge">
<title>start&#45;&gt;pickup_p_proc</title>
<path fill="none" stroke="#555555" stroke-dasharray="1,5" d="M1048.33,-1076.85C1038.24,-1066.9 1024.63,-1053.48 1013.19,-1042.2"/>
<polygon fill="#555555" stroke="#555555" points="1016.27,-1040.33 1006.69,-1035.81 1011.35,-1045.32 1016.27,-1040.33"/>
</g>
<!-- talk_p_proc -->
<g id="node4" class="node">
<title>talk_p_proc</title>
<ellipse fill="#ffffff" stroke="#000000" cx="1062.9" cy="-1019.22" rx="27" ry="18"/>
</g>
<!-- start&#45;&gt;talk_p_proc -->
<g id="edge3" class="edge">
<title>start&#45;&gt;talk_p_proc</title>
<path fill="none" stroke="#555555" stroke-dasharray="1,5" d="M1062.9,-1074.03C1062.9,-1066.27 1062.9,-1056.9 1062.9,-1048.16"/>
<polygon fill="#555555" stroke="#555555" points="1066.4,-1048.24 1062.9,-1038.24 1059.4,-1048.24 1066.4,-1048.24"/>
</g>
<!-- critter_p_proc -->
<g id="node5" class="node">
<title>critter_p_proc</title>
<ellipse fill="#ffffff" stroke="#000000" cx="1134.9" cy="-1019.22" rx="27" ry="18"/>
</g>
<!-- start&#45;&gt;critter_p_proc -->
<g id="edge4" class="edge">
<title>start&#45;&gt;critter_p_proc</title>
<path fill="none" stroke="#555555" stroke-dasharray="1,5" d="M1077.47,-1076.85C1087.55,-1066.9 1101.16,-1053.48 1112.6,-1042.2"/>
<polygon fill="#555555" stroke="#555555" points="1114.44,-1045.32 1119.1,-1035.81 1109.52,-1040.33 1114.44,-1045.32"/>
</g>
<!-- destroy_p_proc -->
<g id="node6" class="node">
<title>destroy_p_proc</title>
<ellipse fill="#ffffff" stroke="#000000" cx="1206.9" cy="-1019.22" rx="27" ry="18"/>
</g>
<!-- start&#45;&gt;destroy_p_proc -->
<g id="edge5" class="edge">
<title>start&#45;&gt;destroy_p_proc</title>
<path fill="none" stroke="#555555" stroke-dasharray="1,5" d="M1084.14,-1080.74C1108.39,-1068.78 1148.26,-1049.12 1175.96,-1035.47"/>
<polygon fill="#555555" stroke="#555555" points="1177.14,-1038.3 1184.56,-1030.73 1174.04,-1032.02 1177.14,-1038.3"/>
</g>
<!-- get_reaction -->
<g id="node8" class="node">
<title>get_reaction</title>
<ellipse fill="#ffffff" stroke="#000000" cx="1292.9" cy="-885.37" rx="27" ry="18"/>
</g>
<!-- talk_p_proc&#45;&gt;get_reaction -->
<g id="edge6" class="edge">
<title>talk_p_proc&#45;&gt;get_reaction</title>
<path fill="none" stroke="#555555" stroke-dasharray="1,5" d="M1083.91,-1007.39C1088.75,-1005.15 1093.94,-1002.95 1098.9,-1001.22 1166.99,-977.46 1200.99,-1009.78 1256.9,-964.22 1272.33,-951.64 1281.46,-930.96 1286.66,-914.08"/>
<polygon fill="#555555" stroke="#555555" points="1290.25,-915.23 1289.54,-904.66 1283.51,-913.36 1290.25,-915.23"/>
</g>
<!-- Deadguy02 -->
<g id="node9" class="node">
<title>Deadguy02</title>
<ellipse fill="#ffffff" stroke="#000000" cx="1062.9" cy="-885.37" rx="98.03" ry="18"/>
<text text-anchor="middle" x="1062.9" y="-880.7" font-family="Times,serif" font-size="14.00">Не убивай меня!</text>
</g>
<!-- talk_p_proc&#45;&gt;Deadguy02 -->
<g id="edge7" class="edge">
<title>talk_p_proc&#45;&gt;Deadguy02</title>
<path fill="none" stroke="#555555" stroke-dasharray="1,5" d="M1062.9,-1000.98C1062.9,-978.97 1062.9,-940.6 1062.9,-914.37"/>
<polygon fill="#555555" stroke="#555555" points="1066.4,-914.61 1062.9,-904.61 1059.4,-914.61 1066.4,-914.61"/>
</g>
<!-- Deadguy00 -->
<g id="node10" class="node">
<title>Deadguy00</title>
<ellipse fill="#ffffff" stroke="#000000" cx="764.9" cy="-885.37" rx="151.85" ry="78.84"/>
<text text-anchor="middle" x="764.9" y="-923.82" font-family="Times,serif" font-size="14.00">Невероятно! Я жив! Тебе</text>
<text text-anchor="middle" x="764.9" y="-906.57" font-family="Times,serif" font-size="14.00">удалось всех их</text>
<text text-anchor="middle" x="764.9" y="-889.32" font-family="Times,serif" font-size="14.00">уничтожить! Боже! Я жив,</text>
<text text-anchor="middle" x="764.9" y="-872.07" font-family="Times,serif" font-size="14.00">так ведь? Сейчас я готов</text>
<text text-anchor="middle" x="764.9" y="-854.82" font-family="Times,serif" font-size="14.00">верить каждому твоему</text>
<text text-anchor="middle" x="764.9" y="-837.57" font-family="Times,serif" font-size="14.00">слову!</text>
</g>
<!-- talk_p_proc&#45;&gt;Deadguy00 -->
<g id="edge8" class="edge">
<title>talk_p_proc&#45;&gt;Deadguy00</title>
<path fill="none" stroke="#555555" stroke-dasharray="1,5" d="M1041.24,-1007.87C1036.52,-1005.65 1031.55,-1003.33 1026.9,-1001.22 982.86,-981.17 934.41,-959.76 891.27,-940.91"/>
<polygon fill="#555555" stroke="#555555" points="892.85,-937.35 882.29,-936.56 890.05,-943.76 892.85,-937.35"/>
</g>
<!-- combat -->
<g id="node7" class="node">
<title>combat</title>
<ellipse fill="#ffffff" stroke="#000000" cx="375.9" cy="-294.83" rx="27" ry="18"/>
</g>
<!-- ReactToLevel -->
<g id="node19" class="node">
<title>ReactToLevel</title>
<ellipse fill="#ffffff" stroke="#000000" cx="1364.9" cy="-554.55" rx="27" ry="18"/>
</g>
<!-- get_reaction&#45;&gt;ReactToLevel -->
<g id="edge19" class="edge">
<title>get_reaction&#45;&gt;ReactToLevel</title>
<path fill="none" stroke="#555555" stroke-dasharray="1,5" d="M1296.67,-867.16C1308.43,-813.44 1344.52,-648.61 1358.9,-582.96"/>
<polygon fill="#555555" stroke="#555555" points="1362.44,-584.12 1361.16,-573.6 1355.61,-582.62 1362.44,-584.12"/>
</g>
<!-- Deadguy01 -->
<g id="node11" class="node">
<title>Deadguy01</title>
<ellipse fill="#ffffff" stroke="#000000" cx="1072.9" cy="-554.55" rx="143.37" ry="54.45"/>
<text text-anchor="middle" x="1072.9" y="-575.75" font-family="Times,serif" font-size="14.00">Э&#45;э, но... ты...</text>
<text text-anchor="middle" x="1072.9" y="-558.5" font-family="Times,serif" font-size="14.00">(вздыхает) Ладно, только</text>
<text text-anchor="middle" x="1072.9" y="-541.25" font-family="Times,serif" font-size="14.00">сделай это побыстрее.</text>
<text text-anchor="middle" x="1072.9" y="-524" font-family="Times,serif" font-size="14.00">Ненавижу боль.</text>
</g>
<!-- Deadguy00&#45;&gt;Deadguy01 -->
<g id="edge9" class="edge">
<title>Deadguy00&#45;&gt;Deadguy01</title>
<path fill="none" stroke="#009986" d="M831.02,-814.36C858.82,-784.89 891.47,-750.2 920.9,-718.78 953.35,-684.13 989.59,-645.23 1018.53,-614.1"/>
<polygon fill="#009986" stroke="#009986" points="1020.48,-617.06 1024.73,-607.36 1015.36,-612.3 1020.48,-617.06"/>
<text text-anchor="middle" x="979.15" y="-757.98" font-family="Times,serif" font-size="14.00" fill="#009986">Сейчас я тебя убью.</text>
</g>
<!-- Deadguy03 -->
<g id="node12" class="node">
<title>Deadguy03</title>
<ellipse fill="#ffffff" stroke="#000000" cx="143.9" cy="-554.55" rx="143.9" ry="42.25"/>
<text text-anchor="middle" x="143.9" y="-567.13" font-family="Times,serif" font-size="14.00">Ладно. (Он отдает вам 20</text>
<text text-anchor="middle" x="143.9" y="-549.88" font-family="Times,serif" font-size="14.00">баксов.) Теперь я могу</text>
<text text-anchor="middle" x="143.9" y="-532.63" font-family="Times,serif" font-size="14.00">идти?</text>
</g>
<!-- Deadguy00&#45;&gt;Deadguy03 -->
<g id="edge10" class="edge">
<title>Deadguy00&#45;&gt;Deadguy03</title>
<path fill="none" stroke="#995900" d="M620.78,-860.02C521.15,-837.24 390.26,-794.88 296.9,-718.78 254.53,-684.25 212.51,-638.36 183.26,-604.04"/>
<polygon fill="#995900" stroke="#995900" points="185.61,-602.39 176.48,-597.01 180.26,-606.91 185.61,-602.39"/>
<text text-anchor="middle" x="471.52" y="-766.61" font-family="Times,serif" font-size="14.00" fill="#995900">Отдай мне все свои</text>
<text text-anchor="middle" x="471.52" y="-749.36" font-family="Times,serif" font-size="14.00" fill="#995900">деньги!</text>
</g>
<!-- Deadguy07 -->
<g id="node13" class="node">
<title>Deadguy07</title>
<ellipse fill="#ffffff" stroke="#000000" cx="452.9" cy="-554.55" rx="147.08" ry="164.23"/>
<text text-anchor="middle" x="452.9" y="-653.38" font-family="Times,serif" font-size="14.00">Да... Да... да, сэр. Я</text>
<text text-anchor="middle" x="452.9" y="-636.13" font-family="Times,serif" font-size="14.00">стану хорошим. Я... я не</text>
<text text-anchor="middle" x="452.9" y="-618.88" font-family="Times,serif" font-size="14.00">буду обманывать. Не буду</text>
<text text-anchor="middle" x="452.9" y="-601.63" font-family="Times,serif" font-size="14.00">врать, шантажировать,</text>
<text text-anchor="middle" x="452.9" y="-584.38" font-family="Times,serif" font-size="14.00">грабить, убивать и</text>
<text text-anchor="middle" x="452.9" y="-567.13" font-family="Times,serif" font-size="14.00">похищать людей.</text>
<text text-anchor="middle" x="452.9" y="-549.88" font-family="Times,serif" font-size="14.00">&#45;&#45;&#45;</text>
<text text-anchor="middle" x="452.9" y="-532.63" font-family="Times,serif" font-size="14.00">Да... Да... да, мэм. Я</text>
<text text-anchor="middle" x="452.9" y="-515.38" font-family="Times,serif" font-size="14.00">стану хорошим. Я... я не</text>
<text text-anchor="middle" x="452.9" y="-498.13" font-family="Times,serif" font-size="14.00">буду обманывать. Не буду</text>
<text text-anchor="middle" x="452.9" y="-480.88" font-family="Times,serif" font-size="14.00">врать, шантажировать,</text>
<text text-anchor="middle" x="452.9" y="-463.63" font-family="Times,serif" font-size="14.00">грабить, убивать и</text>
<text text-anchor="middle" x="452.9" y="-446.38" font-family="Times,serif" font-size="14.00">похищать людей.</text>
</g>
<!-- Deadguy00&#45;&gt;Deadguy07 -->
<g id="edge11" class="edge">
<title>Deadguy00&#45;&gt;Deadguy07</title>
<path fill="none" stroke="#2d0099" d="M656.41,-829.92C637.35,-817.75 618.55,-803.85 602.65,-788.53 577.27,-764.09 554.15,-734.56 534.08,-704.85"/>
<polygon fill="#2d0099" stroke="#2d0099" points="536.68,-703.44 528.23,-697.05 530.85,-707.32 536.68,-703.44"/>
<text text-anchor="middle" x="682.02" y="-775.23" font-family="Times,serif" font-size="14.00" fill="#2d0099">Спасай свою шкуру!</text>
<text text-anchor="middle" x="682.02" y="-757.98" font-family="Times,serif" font-size="14.00" fill="#2d0099">Убирайся, а то и тебя</text>
<text text-anchor="middle" x="682.02" y="-740.73" font-family="Times,serif" font-size="14.00" fill="#2d0099">прикончу!</text>
</g>
<!-- Deadguy06 -->
<g id="node14" class="node">
<title>Deadguy06</title>
<ellipse fill="#ffffff" stroke="#000000" cx="764.9" cy="-554.55" rx="147.08" ry="139.83"/>
<text text-anchor="middle" x="764.9" y="-636.13" font-family="Times,serif" font-size="14.00">Что, с головой проблемы?</text>
<text text-anchor="middle" x="764.9" y="-618.88" font-family="Times,serif" font-size="14.00">То есть, огромное</text>
<text text-anchor="middle" x="764.9" y="-601.63" font-family="Times,serif" font-size="14.00">спасибо, что спасли мне</text>
<text text-anchor="middle" x="764.9" y="-584.38" font-family="Times,serif" font-size="14.00">жизнь, сэр. Мне пора.</text>
<text text-anchor="middle" x="764.9" y="-567.13" font-family="Times,serif" font-size="14.00">Удачи!</text>
<text text-anchor="middle" x="764.9" y="-549.88" font-family="Times,serif" font-size="14.00">&#45;&#45;&#45;</text>
<text text-anchor="middle" x="764.9" y="-532.63" font-family="Times,serif" font-size="14.00">Что, с головой проблемы?</text>
<text text-anchor="middle" x="764.9" y="-515.38" font-family="Times,serif" font-size="14.00">То есть, огромное</text>
<text text-anchor="middle" x="764.9" y="-498.13" font-family="Times,serif" font-size="14.00">спасибо, что спасли мне</text>
<text text-anchor="middle" x="764.9" y="-480.88" font-family="Times,serif" font-size="14.00">жизнь, мэм. Мне пора.</text>
<text text-anchor="middle" x="764.9" y="-463.63" font-family="Times,serif" font-size="14.00">Удачи.</text>
</g>
<!-- Deadguy00&#45;&gt;Deadguy06 -->
<g id="edge12" class="edge">
<title>Deadguy00&#45;&gt;Deadguy06</title>
<path fill="none" stroke="#009900" d="M764.9,-806.03C764.9,-775.82 764.9,-740.21 764.9,-705.46"/>
<polygon fill="#009900" stroke="#009900" points="768.4,-705.72 764.9,-695.72 761.4,-705.72 768.4,-705.72"/>
<text text-anchor="middle" x="775.4" y="-757.98" font-family="Times,serif" font-size="14.00" fill="#009900">Ы?</text>
</g>
<!-- DeadguyEnd -->
<g id="node15" class="node">
<title>DeadguyEnd</title>
<ellipse fill="#ffffff" stroke="#000000" cx="125.9" cy="-91.04" rx="27" ry="18"/>
</g>
<!-- Deadguy03&#45;&gt;DeadguyEnd -->
<g id="edge13" class="edge">
<title>Deadguy03&#45;&gt;DeadguyEnd</title>
<path fill="none" stroke="#99002d" d="M139.72,-512.11C135.55,-468.58 129.41,-398.1 126.9,-337.08 123.65,-258.48 124.57,-165.59 125.33,-120.05"/>
<polygon fill="#99002d" stroke="#99002d" points="128.85,-120.34 125.53,-110.28 121.85,-120.22 128.85,-120.34"/>
<text text-anchor="middle" x="138.9" y="-290.15" font-family="Times,serif" font-size="14.00" fill="#99002d">Да.</text>
</g>
<!-- Deadguy04 -->
<g id="node16" class="node">
<title>Deadguy04</title>
<ellipse fill="#ffffff" stroke="#000000" cx="233.9" cy="-294.83" rx="74.36" ry="18"/>
<text text-anchor="middle" x="233.9" y="-290.15" font-family="Times,serif" font-size="14.00">Ох, почему?</text>
</g>
<!-- Deadguy03&#45;&gt;Deadguy04 -->
<g id="edge14" class="edge">
<title>Deadguy03&#45;&gt;Deadguy04</title>
<path fill="none" stroke="#005999" d="M158.36,-512.15C176.9,-459.04 208.55,-368.41 224.34,-323.19"/>
<polygon fill="#005999" stroke="#005999" points="227.92,-324.57 227.91,-313.97 221.31,-322.26 227.92,-324.57"/>
<text text-anchor="middle" x="229.02" y="-359.03" font-family="Times,serif" font-size="14.00" fill="#005999">Нет.</text>
</g>
<!-- Deadguy07&#45;&gt;combat -->
<g id="edge18" class="edge">
<title>Deadguy07&#45;&gt;combat</title>
<path fill="none" stroke="#992600" d="M398.76,-401.77C395.78,-391.86 392.96,-381.98 390.4,-372.33 386.18,-356.45 382.7,-338.41 380.2,-323.84"/>
<polygon fill="#992600" stroke="#992600" points="383.5,-323.3 378.42,-314 376.59,-324.44 383.5,-323.3"/>
<text text-anchor="middle" x="429.15" y="-359.03" font-family="Times,serif" font-size="14.00" fill="#992600">Ты врешь!</text>
</g>
<!-- Deadguy08 -->
<g id="node18" class="node">
<title>Deadguy08</title>
<ellipse fill="#ffffff" stroke="#000000" cx="477.9" cy="-294.83" rx="56.92" ry="42.25"/>
<text text-anchor="middle" x="477.9" y="-307.4" font-family="Times,serif" font-size="14.00">Да, сэр!</text>
<text text-anchor="middle" x="477.9" y="-290.15" font-family="Times,serif" font-size="14.00">&#45;&#45;&#45;</text>
<text text-anchor="middle" x="477.9" y="-272.9" font-family="Times,serif" font-size="14.00">Да, мэм!</text>
</g>
<!-- Deadguy07&#45;&gt;Deadguy08 -->
<g id="edge17" class="edge">
<title>Deadguy07&#45;&gt;Deadguy08</title>
<path fill="none" stroke="#009953" d="M468.66,-391.06C470.14,-375.83 471.55,-361.26 472.81,-348.31"/>
<polygon fill="#009953" stroke="#009953" points="476.39,-348.66 473.87,-338.37 469.42,-347.98 476.39,-348.66"/>
<text text-anchor="middle" x="537.9" y="-359.03" font-family="Times,serif" font-size="14.00" fill="#009953">Убирайся отсюда!</text>
</g>
<!-- Deadguy04&#45;&gt;DeadguyEnd -->
<g id="edge16" class="edge">
<title>Deadguy04&#45;&gt;DeadguyEnd</title>
<path fill="none" stroke="#7f0099" d="M199.17,-278.51C180.89,-268.63 159.81,-253.97 147.65,-234.58 125.71,-199.6 123.01,-150.53 123.87,-120.04"/>
<polygon fill="#7f0099" stroke="#7f0099" points="127.4,-120.48 124.34,-110.34 120.4,-120.17 127.4,-120.48"/>
<text text-anchor="middle" x="227.02" y="-212.65" font-family="Times,serif" font-size="14.00" fill="#7f0099">Ладно, можешь идти.</text>
</g>
<!-- Deadguy05 -->
<g id="node17" class="node">
<title>Deadguy05</title>
<ellipse fill="#ffffff" stroke="#000000" cx="331.9" cy="-91.04" rx="152.91" ry="91.04"/>
<text text-anchor="middle" x="331.9" y="-138.11" font-family="Times,serif" font-size="14.00">Не надо, сэр, пожалуйста!</text>
<text text-anchor="middle" x="331.9" y="-120.86" font-family="Times,serif" font-size="14.00">Не убивайте меня, я не</text>
<text text-anchor="middle" x="331.9" y="-103.61" font-family="Times,serif" font-size="14.00">переношу боль!</text>
<text text-anchor="middle" x="331.9" y="-86.36" font-family="Times,serif" font-size="14.00">&#45;&#45;&#45;</text>
<text text-anchor="middle" x="331.9" y="-69.11" font-family="Times,serif" font-size="14.00">Не надо, мэм, пожалуйста!</text>
<text text-anchor="middle" x="331.9" y="-51.86" font-family="Times,serif" font-size="14.00">Не убивайте меня, я не</text>
<text text-anchor="middle" x="331.9" y="-34.61" font-family="Times,serif" font-size="14.00">переношу боль!</text>
</g>
<!-- Deadguy04&#45;&gt;Deadguy05 -->
<g id="edge15" class="edge">
<title>Deadguy04&#45;&gt;Deadguy05</title>
<path fill="none" stroke="#869900" d="M263.76,-278.06C280.05,-267.86 299.05,-253.05 309.9,-234.58 317.34,-221.9 322.53,-207.53 326.1,-192.92"/>
<polygon fill="#869900" stroke="#869900" points="329.72,-193.77 328.43,-183.25 322.88,-192.28 329.72,-193.77"/>
<text text-anchor="middle" x="418.77" y="-221.28" font-family="Times,serif" font-size="14.00" fill="#869900">Потому что я так говорю.</text>
<text text-anchor="middle" x="418.77" y="-204.03" font-family="Times,serif" font-size="14.00" fill="#869900">Что&#45;то непонятно?</text>
</g>
<!-- LevelToReact -->
<g id="node20" class="node">
<title>LevelToReact</title>
<ellipse fill="#ffffff" stroke="#000000" cx="1291.9" cy="-1019.22" rx="27" ry="18"/>
</g>
<!-- UpReact -->
<g id="node21" class="node">
<title>UpReact</title>
<ellipse fill="#ffffff" stroke="#000000" cx="1364.9" cy="-885.37" rx="27" ry="18"/>
</g>
<!-- UpReact&#45;&gt;ReactToLevel -->
<g id="edge20" class="edge">
<title>UpReact&#45;&gt;ReactToLevel</title>
<path fill="none" stroke="#555555" stroke-dasharray="1,5" d="M1364.9,-867.16C1364.9,-813.68 1364.9,-650.06 1364.9,-583.83"/>
<polygon fill="#555555" stroke="#555555" points="1368.4,-584 1364.9,-574 1361.4,-584 1368.4,-584"/>
</g>
<!-- DownReact -->
<g id="node22" class="node">
<title>DownReact</title>
<ellipse fill="#ffffff" stroke="#000000" cx="1436.9" cy="-885.37" rx="27" ry="18"/>
</g>
<!-- DownReact&#45;&gt;ReactToLevel -->
<g id="edge21" class="edge">
<title>DownReact&#45;&gt;ReactToLevel</title>
<path fill="none" stroke="#555555" stroke-dasharray="1,5" d="M1433.13,-867.16C1421.37,-813.44 1385.27,-648.61 1370.9,-582.96"/>
<polygon fill="#555555" stroke="#555555" points="1374.19,-582.62 1368.63,-573.6 1367.35,-584.12 1374.19,-582.62"/>
</g>
<!-- BottomReact -->
<g id="node23" class="node">
<title>BottomReact</title>
<ellipse fill="#ffffff" stroke="#000000" cx="1375.9" cy="-1092.22" rx="27" ry="18"/>
</g>
<!-- TopReact -->
<g id="node24" class="node">
<title>TopReact</title>
<ellipse fill="#ffffff" stroke="#000000" cx="1447.9" cy="-1092.22" rx="27" ry="18"/>
</g>
<!-- BigUpReact -->
<g id="node25" class="node">
<title>BigUpReact</title>
<ellipse fill="#ffffff" stroke="#000000" cx="1508.9" cy="-885.37" rx="27" ry="18"/>
</g>
<!-- BigUpReact&#45;&gt;ReactToLevel -->
<g id="edge22" class="edge">
<title>BigUpReact&#45;&gt;ReactToLevel</title>
<path fill="none" stroke="#555555" stroke-dasharray="1,5" d="M1501.56,-867.61C1478.16,-814.18 1405.18,-647.54 1376.57,-582.21"/>
<polygon fill="#555555" stroke="#555555" points="1379.44,-581.04 1372.22,-573.28 1373.03,-583.84 1379.44,-581.04"/>
</g>
<!-- BigDownReact -->
<g id="node26" class="node">
<title>BigDownReact</title>
<ellipse fill="#ffffff" stroke="#000000" cx="1220.9" cy="-885.37" rx="27" ry="18"/>
</g>
<!-- BigDownReact&#45;&gt;ReactToLevel -->
<g id="edge23" class="edge">
<title>BigDownReact&#45;&gt;ReactToLevel</title>
<path fill="none" stroke="#555555" stroke-dasharray="1,5" d="M1228.24,-867.61C1251.63,-814.18 1324.61,-647.54 1353.22,-582.21"/>
<polygon fill="#555555" stroke="#555555" points="1356.77,-583.84 1357.57,-573.28 1350.35,-581.04 1356.77,-583.84"/>
</g>
<!-- UpReactLevel -->
<g id="node27" class="node">
<title>UpReactLevel</title>
<ellipse fill="#ffffff" stroke="#000000" cx="1231.9" cy="-1092.22" rx="27" ry="18"/>
</g>
<!-- UpReactLevel&#45;&gt;LevelToReact -->
<g id="edge24" class="edge">
<title>UpReactLevel&#45;&gt;LevelToReact</title>
<path fill="none" stroke="#555555" stroke-dasharray="1,5" d="M1244.62,-1076.16C1252.66,-1066.65 1263.2,-1054.18 1272.29,-1043.42"/>
<polygon fill="#555555" stroke="#555555" points="1275.41,-1046.15 1279.19,-1036.25 1270.06,-1041.63 1275.41,-1046.15"/>
</g>
<!-- DownReactLevel -->
<g id="node28" class="node">
<title>DownReactLevel</title>
<ellipse fill="#ffffff" stroke="#000000" cx="1303.9" cy="-1092.22" rx="27" ry="18"/>
</g>
<!-- DownReactLevel&#45;&gt;LevelToReact -->
<g id="edge25" class="edge">
<title>DownReactLevel&#45;&gt;LevelToReact</title>
<path fill="none" stroke="#555555" stroke-dasharray="1,5" d="M1300.99,-1074.03C1299.66,-1066.18 1298.06,-1056.69 1296.57,-1047.87"/>
<polygon fill="#555555" stroke="#555555" points="1299.89,-1047.52 1294.77,-1038.24 1292.99,-1048.69 1299.89,-1047.52"/>
</g>
<!-- Goodbyes -->
<g id="node29" class="node">
<title>Goodbyes</title>
<ellipse fill="#ffffff" stroke="#000000" cx="1519.9" cy="-1092.22" rx="27" ry="18"/>
</g>
</g>
</svg>
