<?xml version="1.0" encoding="UTF-8" standalone="no"?>
<!DOCTYPE svg PUBLIC "-//W3C//DTD SVG 1.1//EN"
 "http://www.w3.org/Graphics/SVG/1.1/DTD/svg11.dtd">
<!-- Generated by graphviz version 8.0.5 (0)
 -->
<!-- Title: demodog Pages: 1 -->
<svg width="320pt" height="286pt"
 viewBox="0.00 0.00 320.19 286.48" xmlns="http://www.w3.org/2000/svg" xmlns:xlink="http://www.w3.org/1999/xlink">
<g id="graph0" class="graph" transform="scale(1 1) rotate(0) translate(4 282.48)">
<title>demodog</title>
<polygon fill="white" stroke="none" points="-4,4 -4,-282.48 316.19,-282.48 316.19,4 -4,4"/>
<!-- start -->
<g id="node1" class="node">
<title>start</title>
<ellipse fill="#ffffff" stroke="#000000" cx="156.09" cy="-175.24" rx="156.09" ry="103.24"/>
<text text-anchor="middle" x="156.09" y="-230.94" font-family="Times,serif" font-size="14.00">Вы видите собаку.</text>
<text text-anchor="middle" x="156.09" y="-213.69" font-family="Times,serif" font-size="14.00">Кажется, она бежит за</text>
<text text-anchor="middle" x="156.09" y="-196.44" font-family="Times,serif" font-size="14.00">вами.</text>
<text text-anchor="middle" x="156.09" y="-179.19" font-family="Times,serif" font-size="14.00">&#45;&#45;&#45;</text>
<text text-anchor="middle" x="156.09" y="-161.94" font-family="Times,serif" font-size="14.00">Вы видите собаку.</text>
<text text-anchor="middle" x="156.09" y="-144.69" font-family="Times,serif" font-size="14.00">&#45;&#45;&#45;</text>
<text text-anchor="middle" x="156.09" y="-127.44" font-family="Times,serif" font-size="14.00">Кажется, вы приручили эту</text>
<text text-anchor="middle" x="156.09" y="-110.19" font-family="Times,serif" font-size="14.00">собаку.</text>
</g>
<!-- do_dialogue -->
<g id="node2" class="node">
<title>do_dialogue</title>
<ellipse fill="#ffffff" stroke="#000000" cx="64.09" cy="-18" rx="33.32" ry="18"/>
<text text-anchor="middle" x="64.09" y="-13.32" font-family="Times,serif" font-size="14.00">Гав!</text>
</g>
<!-- start&#45;&gt;do_dialogue -->
<g id="edge1" class="edge">
<title>start&#45;&gt;do_dialogue</title>
<path fill="none" stroke="#555555" stroke-dasharray="1,5" d="M99.4,-78.57C92.05,-66.16 85.08,-54.41 79.3,-44.66"/>
<polygon fill="#555555" stroke="#555555" points="81.86,-43.12 73.75,-36.3 75.84,-46.69 81.86,-43.12"/>
</g>
<!-- growl -->
<g id="node3" class="node">
<title>growl</title>
<ellipse fill="#ffffff" stroke="#000000" cx="156.09" cy="-18" rx="40.69" ry="18"/>
<text text-anchor="middle" x="156.09" y="-13.32" font-family="Times,serif" font-size="14.00">Гррр!</text>
</g>
<!-- start&#45;&gt;growl -->
<g id="edge2" class="edge">
<title>start&#45;&gt;growl</title>
<path fill="none" stroke="#555555" stroke-dasharray="1,5" d="M156.09,-71.56C156.09,-62.78 156.09,-54.49 156.09,-47.19"/>
<polygon fill="#555555" stroke="#555555" points="159.59,-47.28 156.09,-37.28 152.59,-47.28 159.59,-47.28"/>
</g>
<!-- follow_player -->
<g id="node4" class="node">
<title>follow_player</title>
<ellipse fill="#ffffff" stroke="#000000" cx="242.09" cy="-18" rx="27" ry="18"/>
</g>
<!-- start&#45;&gt;follow_player -->
<g id="edge3" class="edge">
<title>start&#45;&gt;follow_player</title>
<path fill="none" stroke="#555555" stroke-dasharray="1,5" d="M209.34,-78.13C216.1,-65.92 222.5,-54.36 227.82,-44.76"/>
<polygon fill="#555555" stroke="#555555" points="231.36,-46.61 233.14,-36.16 225.23,-43.21 231.36,-46.61"/>
</g>
</g>
</svg>
