<?xml version="1.0" encoding="UTF-8" standalone="no"?>
<!DOCTYPE svg PUBLIC "-//W3C//DTD SVG 1.1//EN"
 "http://www.w3.org/Graphics/SVG/1.1/DTD/svg11.dtd">
<!-- Generated by graphviz version 8.0.5 (0)
 -->
<!-- Title: dirtnap Pages: 1 -->
<svg width="1034pt" height="238pt"
 viewBox="0.00 0.00 1033.88 237.68" xmlns="http://www.w3.org/2000/svg" xmlns:xlink="http://www.w3.org/1999/xlink">
<g id="graph0" class="graph" transform="scale(1 1) rotate(0) translate(4 233.68)">
<title>dirtnap</title>
<polygon fill="white" stroke="none" points="-4,4 -4,-233.68 1029.88,-233.68 1029.88,4 -4,4"/>
<!-- start -->
<g id="node1" class="node">
<title>start</title>
<ellipse fill="#ffffff" stroke="#000000" cx="503.88" cy="-211.68" rx="27" ry="18"/>
</g>
<!-- look_at_p_proc -->
<g id="node2" class="node">
<title>look_at_p_proc</title>
<ellipse fill="#ffffff" stroke="#000000" cx="134.88" cy="-78.84" rx="134.88" ry="30.05"/>
<text text-anchor="middle" x="134.88" y="-82.79" font-family="Times,serif" font-size="14.00">Вы видите светящегося</text>
<text text-anchor="middle" x="134.88" y="-65.54" font-family="Times,serif" font-size="14.00">гуля.</text>
</g>
<!-- start&#45;&gt;look_at_p_proc -->
<g id="edge1" class="edge">
<title>start&#45;&gt;look_at_p_proc</title>
<path fill="none" stroke="#555555" stroke-dasharray="1,5" d="M477.57,-206.81C434.87,-200 348.27,-184.08 278.88,-157.68 247.65,-145.81 214.74,-128.42 188.27,-113.09"/>
<polygon fill="#555555" stroke="#555555" points="190.22,-109.59 179.83,-107.55 186.68,-115.63 190.22,-109.59"/>
</g>
<!-- pickup_p_proc -->
<g id="node3" class="node">
<title>pickup_p_proc</title>
<ellipse fill="#ffffff" stroke="#000000" cx="314.88" cy="-78.84" rx="27" ry="18"/>
</g>
<!-- start&#45;&gt;pickup_p_proc -->
<g id="edge2" class="edge">
<title>start&#45;&gt;pickup_p_proc</title>
<path fill="none" stroke="#555555" stroke-dasharray="1,5" d="M477.14,-207.83C443.8,-202.97 386.84,-190.22 350.88,-157.68 336.21,-144.41 327.07,-123.94 321.67,-107.32"/>
<polygon fill="#555555" stroke="#555555" points="324.83,-106.67 318.64,-98.07 318.12,-108.66 324.83,-106.67"/>
</g>
<!-- talk_p_proc -->
<g id="node4" class="node">
<title>talk_p_proc</title>
<ellipse fill="#ffffff" stroke="#000000" cx="503.88" cy="-78.84" rx="143.9" ry="78.84"/>
<text text-anchor="middle" x="503.88" y="-117.29" font-family="Times,serif" font-size="14.00">Вода иссякла. Как и срок</text>
<text text-anchor="middle" x="503.88" y="-100.04" font-family="Times,serif" font-size="14.00">твоей жизни.</text>
<text text-anchor="middle" x="503.88" y="-82.79" font-family="Times,serif" font-size="14.00">&#45;&#45;&#45;</text>
<text text-anchor="middle" x="503.88" y="-65.54" font-family="Times,serif" font-size="14.00">Если тронешь тут хоть</text>
<text text-anchor="middle" x="503.88" y="-48.29" font-family="Times,serif" font-size="14.00">что&#45;нибудь, умрешь.</text>
<text text-anchor="middle" x="503.88" y="-31.04" font-family="Times,serif" font-size="14.00">Кое&#45;кто уже пытался.</text>
</g>
<!-- start&#45;&gt;talk_p_proc -->
<g id="edge3" class="edge">
<title>start&#45;&gt;talk_p_proc</title>
<path fill="none" stroke="#555555" stroke-dasharray="1,5" d="M503.88,-193.31C503.88,-186.46 503.88,-178.06 503.88,-168.94"/>
<polygon fill="#555555" stroke="#555555" points="507.38,-168.96 503.88,-158.96 500.38,-168.96 507.38,-168.96"/>
</g>
<!-- critter_p_proc -->
<g id="node5" class="node">
<title>critter_p_proc</title>
<ellipse fill="#ffffff" stroke="#000000" cx="809.88" cy="-78.84" rx="143.9" ry="30.05"/>
<text text-anchor="middle" x="809.88" y="-82.79" font-family="Times,serif" font-size="14.00">Вода иссякла. Как и срок</text>
<text text-anchor="middle" x="809.88" y="-65.54" font-family="Times,serif" font-size="14.00">твоей жизни.</text>
</g>
<!-- start&#45;&gt;critter_p_proc -->
<g id="edge4" class="edge">
<title>start&#45;&gt;critter_p_proc</title>
<path fill="none" stroke="#555555" stroke-dasharray="1,5" d="M524.98,-200.11C529.82,-197.85 534.98,-195.58 539.88,-193.68 590.61,-174.02 606.45,-178.1 656.88,-157.68 688.88,-144.73 723.25,-127.56 751.29,-112.65"/>
<polygon fill="#555555" stroke="#555555" points="752.77,-115.29 759.93,-107.47 749.47,-109.12 752.77,-115.29"/>
</g>
<!-- destroy_p_proc -->
<g id="node6" class="node">
<title>destroy_p_proc</title>
<ellipse fill="#ffffff" stroke="#000000" cx="998.88" cy="-78.84" rx="27" ry="18"/>
</g>
<!-- start&#45;&gt;destroy_p_proc -->
<g id="edge5" class="edge">
<title>start&#45;&gt;destroy_p_proc</title>
<path fill="none" stroke="#555555" stroke-dasharray="1,5" d="M524.34,-199.49C529.3,-197.21 534.67,-195.09 539.88,-193.68 630.98,-169.15 885.62,-211.83 962.88,-157.68 979.54,-146.01 988.67,-124.62 993.57,-107.21"/>
<polygon fill="#555555" stroke="#555555" points="997.09,-108.56 996.09,-98.01 990.29,-106.88 997.09,-108.56"/>
</g>
<!-- combat -->
<g id="node7" class="node">
<title>combat</title>
<ellipse fill="#ffffff" stroke="#000000" cx="575.88" cy="-211.68" rx="27" ry="18"/>
</g>
</g>
</svg>
