<?xml version="1.0" encoding="UTF-8" standalone="no"?>
<!DOCTYPE svg PUBLIC "-//W3C//DTD SVG 1.1//EN"
 "http://www.w3.org/Graphics/SVG/1.1/DTD/svg11.dtd">
<!-- Generated by graphviz version 8.0.5 (0)
 -->
<!-- Title: dugan Pages: 1 -->
<svg width="2256pt" height="515pt"
 viewBox="0.00 0.00 2256.01 515.47" xmlns="http://www.w3.org/2000/svg" xmlns:xlink="http://www.w3.org/1999/xlink">
<g id="graph0" class="graph" transform="scale(1 1) rotate(0) translate(4 511.47)">
<title>dugan</title>
<polygon fill="white" stroke="none" points="-4,4 -4,-511.47 2252.01,-511.47 2252.01,4 -4,4"/>
<!-- start -->
<g id="node1" class="node">
<title>start</title>
<ellipse fill="#ffffff" stroke="#000000" cx="27" cy="-416.43" rx="27" ry="18"/>
</g>
<!-- look_at_p_proc -->
<g id="node2" class="node">
<title>look_at_p_proc</title>
<ellipse fill="#ffffff" stroke="#000000" cx="227" cy="-416.43" rx="154.5" ry="91.04"/>
<text text-anchor="middle" x="227" y="-463.51" font-family="Times,serif" font-size="14.00">Вы видите тощего как</text>
<text text-anchor="middle" x="227" y="-446.26" font-family="Times,serif" font-size="14.00">жердь парня в темных</text>
<text text-anchor="middle" x="227" y="-429.01" font-family="Times,serif" font-size="14.00">очках. У него в руке</text>
<text text-anchor="middle" x="227" y="-411.76" font-family="Times,serif" font-size="14.00">бутылка Ядер&#45;Колы.</text>
<text text-anchor="middle" x="227" y="-394.51" font-family="Times,serif" font-size="14.00">&#45;&#45;&#45;</text>
<text text-anchor="middle" x="227" y="-377.26" font-family="Times,serif" font-size="14.00">Вы видите Дагана из клана</text>
<text text-anchor="middle" x="227" y="-360.01" font-family="Times,serif" font-size="14.00">Клинков.</text>
</g>
<!-- talk_p_proc -->
<g id="node3" class="node">
<title>talk_p_proc</title>
<ellipse fill="#ffffff" stroke="#000000" cx="541" cy="-416.43" rx="141.77" ry="30.05"/>
<text text-anchor="middle" x="541" y="-420.38" font-family="Times,serif" font-size="14.00">Кажется, ты еще глупее,</text>
<text text-anchor="middle" x="541" y="-403.13" font-family="Times,serif" font-size="14.00">чем я. Иди отсюда!</text>
</g>
<!-- get_reaction -->
<g id="node4" class="node">
<title>get_reaction</title>
<ellipse fill="#ffffff" stroke="#000000" cx="498" cy="-270.39" rx="27" ry="18"/>
</g>
<!-- talk_p_proc&#45;&gt;get_reaction -->
<g id="edge1" class="edge">
<title>talk_p_proc&#45;&gt;get_reaction</title>
<path fill="none" stroke="#555555" stroke-dasharray="1,5" d="M532.3,-386.29C524.65,-360.65 513.59,-323.62 506.12,-298.59"/>
<polygon fill="#555555" stroke="#555555" points="509.27,-297.92 503.06,-289.34 502.56,-299.92 509.27,-297.92"/>
</g>
<!-- Dugan01 -->
<g id="node5" class="node">
<title>Dugan01</title>
<ellipse fill="#ffffff" stroke="#000000" cx="890" cy="-270.39" rx="30.16" ry="18"/>
<text text-anchor="middle" x="890" y="-265.72" font-family="Times,serif" font-size="14.00">Да?</text>
</g>
<!-- talk_p_proc&#45;&gt;Dugan01 -->
<g id="edge2" class="edge">
<title>talk_p_proc&#45;&gt;Dugan01</title>
<path fill="none" stroke="#555555" stroke-dasharray="1,5" d="M581.38,-387.23C610.91,-367.65 652.53,-342.17 692,-325.39 745.01,-302.86 810.04,-287.25 850.76,-278.81"/>
<polygon fill="#555555" stroke="#555555" points="851.21,-282.08 860.32,-276.66 849.82,-275.22 851.21,-282.08"/>
</g>
<!-- ReactToLevel -->
<g id="node11" class="node">
<title>ReactToLevel</title>
<ellipse fill="#ffffff" stroke="#000000" cx="85" cy="-127.45" rx="27" ry="18"/>
</g>
<!-- get_reaction&#45;&gt;ReactToLevel -->
<g id="edge3" class="edge">
<title>get_reaction&#45;&gt;ReactToLevel</title>
<path fill="none" stroke="#555555" stroke-dasharray="1,5" d="M470.95,-268.79C421.63,-267.06 314.22,-260.36 228,-234.39 177.28,-219.12 160.93,-216.71 121,-181.89 112.24,-174.25 104.66,-164.01 98.74,-154.54"/>
<polygon fill="#555555" stroke="#555555" points="101.28,-152.94 93.2,-146.08 95.24,-156.48 101.28,-152.94"/>
</g>
<!-- Dugan02 -->
<g id="node12" class="node">
<title>Dugan02</title>
<ellipse fill="#ffffff" stroke="#000000" cx="250" cy="-127.45" rx="120.03" ry="30.05"/>
<text text-anchor="middle" x="250" y="-131.4" font-family="Times,serif" font-size="14.00">Тогда не морочь мне</text>
<text text-anchor="middle" x="250" y="-114.15" font-family="Times,serif" font-size="14.00">голову.</text>
</g>
<!-- Dugan01&#45;&gt;Dugan02 -->
<g id="edge4" class="edge">
<title>Dugan01&#45;&gt;Dugan02</title>
<path fill="none" stroke="#1b0099" d="M859.71,-268.22C758.95,-264.19 439.01,-250.28 395.5,-234.39 354.14,-219.29 314.22,-188.71 286.7,-164.27"/>
<polygon fill="#1b0099" stroke="#1b0099" points="289.32,-162.03 279.56,-157.91 284.63,-167.21 289.32,-162.03"/>
<text text-anchor="middle" x="485.25" y="-221.09" font-family="Times,serif" font-size="14.00" fill="#1b0099">Я просто осматриваюсь,</text>
<text text-anchor="middle" x="485.25" y="-203.84" font-family="Times,serif" font-size="14.00" fill="#1b0099">спасибо.</text>
</g>
<!-- Dugan03 -->
<g id="node13" class="node">
<title>Dugan03</title>
<ellipse fill="#ffffff" stroke="#000000" cx="519" cy="-127.45" rx="130.64" ry="54.45"/>
<text text-anchor="middle" x="519" y="-148.65" font-family="Times,serif" font-size="14.00">Размышляю о жизни и</text>
<text text-anchor="middle" x="519" y="-131.4" font-family="Times,serif" font-size="14.00">разъясняю Клинкам</text>
<text text-anchor="middle" x="519" y="-114.15" font-family="Times,serif" font-size="14.00">истинное значение</text>
<text text-anchor="middle" x="519" y="-96.9" font-family="Times,serif" font-size="14.00">Ядер&#45;Колы.</text>
</g>
<!-- Dugan01&#45;&gt;Dugan03 -->
<g id="edge5" class="edge">
<title>Dugan01&#45;&gt;Dugan03</title>
<path fill="none" stroke="#129900" d="M859.72,-267.88C799,-264.44 664.67,-254.71 623.75,-234.39 601.55,-223.37 581.29,-205.76 564.64,-188.03"/>
<polygon fill="#129900" stroke="#129900" points="567.56,-185.94 558.24,-180.9 562.38,-190.65 567.56,-185.94"/>
<text text-anchor="middle" x="707.62" y="-212.47" font-family="Times,serif" font-size="14.00" fill="#129900">Что ты здесь делаешь?</text>
</g>
<!-- Dugan05 -->
<g id="node14" class="node">
<title>Dugan05</title>
<ellipse fill="#ffffff" stroke="#000000" cx="812" cy="-127.45" rx="143.9" ry="54.45"/>
<text text-anchor="middle" x="812" y="-148.65" font-family="Times,serif" font-size="14.00">Это напиток жизни...</text>
<text text-anchor="middle" x="812" y="-131.4" font-family="Times,serif" font-size="14.00">Ну... Если честно, у меня</text>
<text text-anchor="middle" x="812" y="-114.15" font-family="Times,serif" font-size="14.00">без нее голова начинает</text>
<text text-anchor="middle" x="812" y="-96.9" font-family="Times,serif" font-size="14.00">раскалываться.</text>
</g>
<!-- Dugan01&#45;&gt;Dugan05 -->
<g id="edge6" class="edge">
<title>Dugan01&#45;&gt;Dugan05</title>
<path fill="none" stroke="#99003e" d="M860.45,-265.77C840.92,-261.67 816.72,-252.95 804.25,-234.39 796.06,-222.2 793.71,-207.33 794.37,-192.64"/>
<polygon fill="#99003e" stroke="#99003e" points="797.92,-193.29 795.34,-183.02 790.95,-192.66 797.92,-193.29"/>
<text text-anchor="middle" x="880.38" y="-212.47" font-family="Times,serif" font-size="14.00" fill="#99003e">Любишь Ядер&#45;Колу?</text>
</g>
<!-- Dugan08 -->
<g id="node15" class="node">
<title>Dugan08</title>
<ellipse fill="#ffffff" stroke="#000000" cx="1111" cy="-127.45" rx="136.96" ry="18"/>
<text text-anchor="middle" x="1111" y="-122.77" font-family="Times,serif" font-size="14.00">Бритва. Поговори с ней.</text>
</g>
<!-- Dugan01&#45;&gt;Dugan08 -->
<g id="edge7" class="edge">
<title>Dugan01&#45;&gt;Dugan08</title>
<path fill="none" stroke="#006b99" d="M914.67,-259.63C927.66,-253.67 943.27,-245.12 955,-234.39 968.55,-222 964.19,-212.28 977.75,-199.89 1001.13,-178.55 1032.05,-161.46 1058.22,-149.35"/>
<polygon fill="#006b99" stroke="#006b99" points="1059.31,-152.25 1066.99,-144.96 1056.43,-145.87 1059.31,-152.25"/>
<text text-anchor="middle" x="1042.12" y="-212.47" font-family="Times,serif" font-size="14.00" fill="#006b99">Кто тут главный?</text>
</g>
<!-- DuganEnd -->
<g id="node16" class="node">
<title>DuganEnd</title>
<ellipse fill="#ffffff" stroke="#000000" cx="1293" cy="-127.45" rx="27" ry="18"/>
</g>
<!-- Dugan01&#45;&gt;DuganEnd -->
<g id="edge8" class="edge">
<title>Dugan01&#45;&gt;DuganEnd</title>
<path fill="none" stroke="#989900" d="M920.16,-267.29C965.8,-263.6 1054.87,-254.34 1128,-234.39 1187.72,-218.11 1208.96,-220.93 1257,-181.89 1266.25,-174.38 1274.03,-163.87 1279.97,-154.15"/>
<polygon fill="#989900" stroke="#989900" points="1283.36,-156.27 1285.28,-145.84 1277.28,-152.8 1283.36,-156.27"/>
<text text-anchor="middle" x="1277.12" y="-212.47" font-family="Times,serif" font-size="14.00" fill="#989900">Нет, ничего.</text>
</g>
<!-- Dugan09 -->
<g id="node17" class="node">
<title>Dugan09</title>
<ellipse fill="#ffffff" stroke="#000000" cx="1480" cy="-127.45" rx="141.77" ry="30.05"/>
<text text-anchor="middle" x="1480" y="-131.4" font-family="Times,serif" font-size="14.00">Кажется, ты еще глупее,</text>
<text text-anchor="middle" x="1480" y="-114.15" font-family="Times,serif" font-size="14.00">чем я. Иди отсюда!</text>
</g>
<!-- Dugan01&#45;&gt;Dugan09 -->
<g id="edge9" class="edge">
<title>Dugan01&#45;&gt;Dugan09</title>
<path fill="none" stroke="#6e0099" d="M920.28,-269.01C1006.47,-267.58 1251.82,-261.22 1327,-234.39 1369.93,-219.07 1412.01,-188.47 1441.14,-164.07"/>
<polygon fill="#6e0099" stroke="#6e0099" points="1443.03,-166.2 1448.37,-157.05 1438.49,-160.87 1443.03,-166.2"/>
<text text-anchor="middle" x="1453.38" y="-212.47" font-family="Times,serif" font-size="14.00" fill="#6e0099">Э, Кола, хорошо?</text>
</g>
<!-- critter_p_proc -->
<g id="node6" class="node">
<title>critter_p_proc</title>
<ellipse fill="#ffffff" stroke="#000000" cx="728" cy="-416.43" rx="27" ry="18"/>
</g>
<!-- damage_p_proc -->
<g id="node7" class="node">
<title>damage_p_proc</title>
<ellipse fill="#ffffff" stroke="#000000" cx="800" cy="-416.43" rx="27" ry="18"/>
</g>
<!-- destroy_p_proc -->
<g id="node8" class="node">
<title>destroy_p_proc</title>
<ellipse fill="#ffffff" stroke="#000000" cx="872" cy="-416.43" rx="27" ry="18"/>
</g>
<!-- pickup_p_proc -->
<g id="node9" class="node">
<title>pickup_p_proc</title>
<ellipse fill="#ffffff" stroke="#000000" cx="944" cy="-416.43" rx="27" ry="18"/>
</g>
<!-- map_enter_p_proc -->
<g id="node10" class="node">
<title>map_enter_p_proc</title>
<ellipse fill="#ffffff" stroke="#000000" cx="1016" cy="-416.43" rx="27" ry="18"/>
</g>
<!-- Dugan04 -->
<g id="node18" class="node">
<title>Dugan04</title>
<ellipse fill="#ffffff" stroke="#000000" cx="1543" cy="-18" rx="27" ry="18"/>
</g>
<!-- Dugan03&#45;&gt;Dugan04 -->
<g id="edge10" class="edge">
<title>Dugan03&#45;&gt;Dugan04</title>
<path fill="none" stroke="#555555" stroke-dasharray="1,5" d="M608.9,-87.55C625.31,-81.78 642.47,-76.57 659,-73 824.33,-37.27 1358.44,-23.07 1505.32,-19.78"/>
<polygon fill="#555555" stroke="#555555" points="1505.07,-23.27 1514.99,-19.55 1504.92,-16.27 1505.07,-23.27"/>
</g>
<!-- Dugan05&#45;&gt;Dugan04 -->
<g id="edge11" class="edge">
<title>Dugan05&#45;&gt;Dugan04</title>
<path fill="none" stroke="#555555" stroke-dasharray="1,5" d="M911.4,-87.82C929.05,-82.09 947.41,-76.84 965,-73 1165.17,-29.37 1411.88,-20.98 1505.01,-19.38"/>
<polygon fill="#555555" stroke="#555555" points="1504.91,-22.86 1514.85,-19.21 1504.8,-15.86 1504.91,-22.86"/>
</g>
<!-- Dugan08&#45;&gt;Dugan01 -->
<g id="edge14" class="edge">
<title>Dugan08&#45;&gt;Dugan01</title>
<path fill="none" stroke="#555555" stroke-dasharray="1,5" d="M1116.07,-145.54C1121.78,-168.74 1127.7,-210.08 1106,-234.39 1083.41,-259.7 987.21,-266.73 931.11,-268.67"/>
<polygon fill="#555555" stroke="#555555" points="931.34,-265.19 921.45,-269 931.55,-272.19 931.34,-265.19"/>
</g>
<!-- Dugan06 -->
<g id="node19" class="node">
<title>Dugan06</title>
<ellipse fill="#ffffff" stroke="#000000" cx="1787" cy="-127.45" rx="147.08" ry="42.25"/>
<text text-anchor="middle" x="1787" y="-140.02" font-family="Times,serif" font-size="14.00">И что? [Дуган</text>
<text text-anchor="middle" x="1787" y="-122.77" font-family="Times,serif" font-size="14.00">вопросительно поднимает</text>
<text text-anchor="middle" x="1787" y="-105.52" font-family="Times,serif" font-size="14.00">брови.]</text>
</g>
<!-- Dugan06&#45;&gt;Dugan04 -->
<g id="edge12" class="edge">
<title>Dugan06&#45;&gt;Dugan04</title>
<path fill="none" stroke="#555555" stroke-dasharray="1,5" d="M1707.78,-91.56C1662.63,-71.68 1608.54,-47.86 1574.96,-33.08"/>
<polygon fill="#555555" stroke="#555555" points="1576.8,-29.62 1566.23,-28.79 1573.98,-36.02 1576.8,-29.62"/>
</g>
<!-- Dugan07 -->
<g id="node20" class="node">
<title>Dugan07</title>
<ellipse fill="#ffffff" stroke="#000000" cx="2100" cy="-127.45" rx="148.01" ry="18"/>
<text text-anchor="middle" x="2100" y="-122.77" font-family="Times,serif" font-size="14.00">Около пяти литров в день.</text>
</g>
<!-- Dugan07&#45;&gt;Dugan04 -->
<g id="edge13" class="edge">
<title>Dugan07&#45;&gt;Dugan04</title>
<path fill="none" stroke="#555555" stroke-dasharray="1,5" d="M2058.33,-109.79C2027.06,-97.9 1982.94,-82.4 1943,-73 1811.89,-42.14 1652.16,-27.18 1580.7,-21.64"/>
<polygon fill="#555555" stroke="#555555" points="1581.25,-18.09 1571.01,-20.83 1580.72,-25.07 1581.25,-18.09"/>
</g>
</g>
</svg>
