<?xml version="1.0" encoding="UTF-8" standalone="no"?>
<!DOCTYPE svg PUBLIC "-//W3C//DTD SVG 1.1//EN"
 "http://www.w3.org/Graphics/SVG/1.1/DTD/svg11.dtd">
<!-- Generated by graphviz version 8.0.5 (0)
 -->
<!-- Title: fielda Pages: 1 -->
<svg width="153pt" height="260pt"
 viewBox="0.00 0.00 153.00 260.00" xmlns="http://www.w3.org/2000/svg" xmlns:xlink="http://www.w3.org/1999/xlink">
<g id="graph0" class="graph" transform="scale(1 1) rotate(0) translate(4 256)">
<title>fielda</title>
<polygon fill="white" stroke="none" points="-4,4 -4,-256 149,-256 149,4 -4,4"/>
<!-- start -->
<g id="node1" class="node">
<title>start</title>
<ellipse fill="#ffffff" stroke="#000000" cx="73" cy="-234" rx="27" ry="18"/>
</g>
<!-- use_p_proc -->
<g id="node2" class="node">
<title>use_p_proc</title>
<ellipse fill="#ffffff" stroke="#000000" cx="73" cy="-162" rx="27" ry="18"/>
</g>
<!-- start&#45;&gt;use_p_proc -->
<g id="edge1" class="edge">
<title>start&#45;&gt;use_p_proc</title>
<path fill="none" stroke="#555555" stroke-dasharray="1,5" d="M67.12,-216.05C66.31,-208.4 66.06,-199.16 66.39,-190.56"/>
<polygon fill="#555555" stroke="#555555" points="69.93,-191.01 67.14,-180.79 62.95,-190.52 69.93,-191.01"/>
</g>
<!-- start&#45;&gt;use_p_proc -->
<g id="edge2" class="edge">
<title>start&#45;&gt;use_p_proc</title>
<path fill="none" stroke="#555555" stroke-dasharray="1,5" d="M78.88,-216.05C79.69,-208.4 79.94,-199.16 79.61,-190.56"/>
<polygon fill="#555555" stroke="#555555" points="83.05,-190.52 78.86,-180.79 76.07,-191.01 83.05,-190.52"/>
</g>
<!-- toggle_field -->
<g id="node3" class="node">
<title>toggle_field</title>
<ellipse fill="#ffffff" stroke="#000000" cx="73" cy="-90" rx="27" ry="18"/>
</g>
<!-- use_p_proc&#45;&gt;toggle_field -->
<g id="edge3" class="edge">
<title>use_p_proc&#45;&gt;toggle_field</title>
<path fill="none" stroke="#555555" stroke-dasharray="1,5" d="M73,-143.7C73,-136.24 73,-127.32 73,-118.97"/>
<polygon fill="#555555" stroke="#555555" points="76.5,-119.1 73,-109.1 69.5,-119.1 76.5,-119.1"/>
</g>
<!-- turn_field_off -->
<g id="node4" class="node">
<title>turn_field_off</title>
<ellipse fill="#ffffff" stroke="#000000" cx="27" cy="-18" rx="27" ry="18"/>
</g>
<!-- use_p_proc&#45;&gt;turn_field_off -->
<g id="edge4" class="edge">
<title>use_p_proc&#45;&gt;turn_field_off</title>
<path fill="none" stroke="#555555" stroke-dasharray="1,5" d="M59.79,-145.89C51.79,-135.85 42.17,-121.98 37,-108 29.79,-88.5 27.38,-65.09 26.73,-47.18"/>
<polygon fill="#555555" stroke="#555555" points="30.21,-47.22 26.52,-37.29 23.21,-47.36 30.21,-47.22"/>
</g>
<!-- turn_field_on -->
<g id="node5" class="node">
<title>turn_field_on</title>
<ellipse fill="#ffffff" stroke="#000000" cx="118" cy="-18" rx="27" ry="18"/>
</g>
<!-- use_p_proc&#45;&gt;turn_field_on -->
<g id="edge5" class="edge">
<title>use_p_proc&#45;&gt;turn_field_on</title>
<path fill="none" stroke="#555555" stroke-dasharray="1,5" d="M86.27,-145.91C94.28,-135.87 103.91,-122.01 109,-108 116.1,-88.48 118.23,-65.08 118.66,-47.16"/>
<polygon fill="#555555" stroke="#555555" points="122.16,-47.3 118.72,-37.28 115.16,-47.26 122.16,-47.3"/>
</g>
<!-- toggle_field&#45;&gt;turn_field_off -->
<g id="edge7" class="edge">
<title>toggle_field&#45;&gt;turn_field_off</title>
<path fill="none" stroke="#555555" stroke-dasharray="1,5" d="M62.56,-73.12C56.86,-64.43 49.66,-53.49 43.24,-43.72"/>
<polygon fill="#555555" stroke="#555555" points="45.81,-42.26 37.4,-35.82 39.96,-46.1 45.81,-42.26"/>
</g>
<!-- toggle_field&#45;&gt;turn_field_on -->
<g id="edge6" class="edge">
<title>toggle_field&#45;&gt;turn_field_on</title>
<path fill="none" stroke="#555555" stroke-dasharray="1,5" d="M83.21,-73.12C88.73,-64.52 95.68,-53.72 101.92,-44.02"/>
<polygon fill="#555555" stroke="#555555" points="105.37,-46.13 107.83,-35.82 99.48,-42.34 105.37,-46.13"/>
</g>
</g>
</svg>
