<?xml version="1.0" encoding="UTF-8" standalone="no"?>
<!DOCTYPE svg PUBLIC "-//W3C//DTD SVG 1.1//EN"
 "http://www.w3.org/Graphics/SVG/1.1/DTD/svg11.dtd">
<!-- Generated by graphviz version 8.0.5 (0)
 -->
<!-- Title: gambler Pages: 1 -->
<svg width="2357pt" height="1663pt"
 viewBox="0.00 0.00 2357.48 1663.43" xmlns="http://www.w3.org/2000/svg" xmlns:xlink="http://www.w3.org/1999/xlink">
<g id="graph0" class="graph" transform="scale(1 1) rotate(0) translate(4 1659.43)">
<title>gambler</title>
<polygon fill="white" stroke="none" points="-4,4 -4,-1659.43 2353.48,-1659.43 2353.48,4 -4,4"/>
<!-- start -->
<g id="node1" class="node">
<title>start</title>
<ellipse fill="#ffffff" stroke="#000000" cx="1363.73" cy="-1588.79" rx="27" ry="18"/>
</g>
<!-- look_at_p_proc -->
<g id="node2" class="node">
<title>look_at_p_proc</title>
<ellipse fill="#ffffff" stroke="#000000" cx="1545.73" cy="-1588.79" rx="137" ry="66.64"/>
<text text-anchor="middle" x="1545.73" y="-1618.61" font-family="Times,serif" font-size="14.00">Вы видите невзрачного</text>
<text text-anchor="middle" x="1545.73" y="-1601.36" font-family="Times,serif" font-size="14.00">мексиканца с сальными</text>
<text text-anchor="middle" x="1545.73" y="-1584.11" font-family="Times,serif" font-size="14.00">волосами.</text>
<text text-anchor="middle" x="1545.73" y="-1566.86" font-family="Times,serif" font-size="14.00">&#45;&#45;&#45;</text>
<text text-anchor="middle" x="1545.73" y="-1549.61" font-family="Times,serif" font-size="14.00">Это Эрнандес, шулер.</text>
</g>
<!-- talk_p_proc -->
<g id="node3" class="node">
<title>talk_p_proc</title>
<ellipse fill="#ffffff" stroke="#000000" cx="1727.73" cy="-1588.79" rx="27" ry="18"/>
</g>
<!-- Hernandez00 -->
<g id="node4" class="node">
<title>Hernandez00</title>
<ellipse fill="#ffffff" stroke="#000000" cx="1069.73" cy="-1028.17" rx="155.56" ry="78.84"/>
<text text-anchor="middle" x="1069.73" y="-1066.62" font-family="Times,serif" font-size="14.00">Гизмо и казино больше</text>
<text text-anchor="middle" x="1069.73" y="-1049.37" font-family="Times,serif" font-size="14.00">нет, теперь я не смогу</text>
<text text-anchor="middle" x="1069.73" y="-1032.12" font-family="Times,serif" font-size="14.00">стать богатым. У меня</text>
<text text-anchor="middle" x="1069.73" y="-1014.87" font-family="Times,serif" font-size="14.00">ведь была беспроигрышная</text>
<text text-anchor="middle" x="1069.73" y="-997.62" font-family="Times,serif" font-size="14.00">система, придется наверно</text>
<text text-anchor="middle" x="1069.73" y="-980.37" font-family="Times,serif" font-size="14.00">в Хаб переезжать.</text>
</g>
<!-- talk_p_proc&#45;&gt;Hernandez00 -->
<g id="edge1" class="edge">
<title>talk_p_proc&#45;&gt;Hernandez00</title>
<path fill="none" stroke="#555555" stroke-dasharray="1,5" d="M1722.48,-1570.91C1717.04,-1556.07 1707.15,-1534.91 1691.73,-1522.14 1650.7,-1488.17 1627.16,-1504.99 1577.73,-1485.14 1423.85,-1423.37 1363.57,-1435.46 1241.73,-1323 1179.24,-1265.32 1132.67,-1179.67 1103.86,-1115.71"/>
<polygon fill="#555555" stroke="#555555" points="1106.82,-1114.75 1099.56,-1107.04 1100.42,-1117.6 1106.82,-1114.75"/>
</g>
<!-- Hernandez01 -->
<g id="node5" class="node">
<title>Hernandez01</title>
<ellipse fill="#ffffff" stroke="#000000" cx="1727.73" cy="-1430.69" rx="140.71" ry="54.45"/>
<text text-anchor="middle" x="1727.73" y="-1451.89" font-family="Times,serif" font-size="14.00">О, мучачо, позволь</text>
<text text-anchor="middle" x="1727.73" y="-1434.64" font-family="Times,serif" font-size="14.00">представиться. Я</text>
<text text-anchor="middle" x="1727.73" y="-1417.39" font-family="Times,serif" font-size="14.00">Эрнандес! Хочешь, я</text>
<text text-anchor="middle" x="1727.73" y="-1400.14" font-family="Times,serif" font-size="14.00">расскажу тебе о казино?</text>
</g>
<!-- talk_p_proc&#45;&gt;Hernandez01 -->
<g id="edge2" class="edge">
<title>talk_p_proc&#45;&gt;Hernandez01</title>
<path fill="none" stroke="#555555" stroke-dasharray="1,5" d="M1727.73,-1570.49C1727.73,-1552.56 1727.73,-1523.43 1727.73,-1496.48"/>
<polygon fill="#555555" stroke="#555555" points="1731.23,-1496.5 1727.73,-1486.5 1724.23,-1496.5 1731.23,-1496.5"/>
</g>
<!-- Hernandez12 -->
<g id="node6" class="node">
<title>Hernandez12</title>
<ellipse fill="#ffffff" stroke="#000000" cx="2172.73" cy="-1028.17" rx="157.15" ry="66.64"/>
<text text-anchor="middle" x="2172.73" y="-1057.99" font-family="Times,serif" font-size="14.00">Буэнос диас, дружище! Чем</text>
<text text-anchor="middle" x="2172.73" y="-1040.74" font-family="Times,serif" font-size="14.00">могу помочь?</text>
<text text-anchor="middle" x="2172.73" y="-1023.49" font-family="Times,serif" font-size="14.00">&#45;&#45;&#45;</text>
<text text-anchor="middle" x="2172.73" y="-1006.24" font-family="Times,serif" font-size="14.00">Буэнос диас, подруга! Чем</text>
<text text-anchor="middle" x="2172.73" y="-988.99" font-family="Times,serif" font-size="14.00">могу помочь?</text>
</g>
<!-- talk_p_proc&#45;&gt;Hernandez12 -->
<g id="edge3" class="edge">
<title>talk_p_proc&#45;&gt;Hernandez12</title>
<path fill="none" stroke="#555555" stroke-dasharray="1,5" d="M1732.98,-1570.91C1738.42,-1556.07 1748.31,-1534.91 1763.73,-1522.14 1804.76,-1488.17 1835.49,-1517.6 1877.73,-1485.14 2009.77,-1383.68 2100.03,-1205.18 2143.31,-1104.24"/>
<polygon fill="#555555" stroke="#555555" points="2146.8,-1105.99 2147.48,-1095.42 2140.35,-1103.26 2146.8,-1105.99"/>
</g>
<!-- Hernandez00a -->
<g id="node12" class="node">
<title>Hernandez00a</title>
<ellipse fill="#ffffff" stroke="#000000" cx="882.73" cy="-611.97" rx="150.79" ry="78.84"/>
<text text-anchor="middle" x="882.73" y="-650.42" font-family="Times,serif" font-size="14.00">Я бы тебе все отдал</text>
<text text-anchor="middle" x="882.73" y="-633.17" font-family="Times,serif" font-size="14.00">[смотрит невинными</text>
<text text-anchor="middle" x="882.73" y="-615.92" font-family="Times,serif" font-size="14.00">глазами], честно. Но</text>
<text text-anchor="middle" x="882.73" y="-598.67" font-family="Times,serif" font-size="14.00">казино прикрыли и теперь</text>
<text text-anchor="middle" x="882.73" y="-581.42" font-family="Times,serif" font-size="14.00">мне негде играть, а</text>
<text text-anchor="middle" x="882.73" y="-564.17" font-family="Times,serif" font-size="14.00">ничего другого я не умею.</text>
</g>
<!-- Hernandez00&#45;&gt;Hernandez00a -->
<g id="edge4" class="edge">
<title>Hernandez00&#45;&gt;Hernandez00a</title>
<path fill="none" stroke="#009908" d="M972.41,-966.67C940.2,-941.2 908,-908.54 889.98,-870.34 865.37,-818.16 863.73,-753.17 868.16,-701.56"/>
<polygon fill="#009908" stroke="#009908" points="871.72,-702.04 869.19,-691.75 864.75,-701.38 871.72,-702.04"/>
<text text-anchor="middle" x="973.6" y="-839.79" font-family="Times,serif" font-size="14.00" fill="#009908">А, как же мои деньги?</text>
</g>
<!-- Hernandezend -->
<g id="node13" class="node">
<title>Hernandezend</title>
<ellipse fill="#ffffff" stroke="#000000" cx="1860.73" cy="-176.42" rx="27" ry="18"/>
</g>
<!-- Hernandez00&#45;&gt;Hernandezend -->
<g id="edge5" class="edge">
<title>Hernandez00&#45;&gt;Hernandezend</title>
<path fill="none" stroke="#990025" d="M1065.09,-949.04C1056.72,-794.3 1043.06,-460.51 1078.48,-423.35 1100.54,-400.2 1337.3,-419.99 1365.73,-405.35 1383.28,-396.3 1377.9,-382.65 1393.73,-370.85 1534.96,-265.51 1741.9,-206.43 1824.62,-185.84"/>
<polygon fill="#990025" stroke="#990025" points="1825.34,-189.02 1834.22,-183.24 1823.68,-182.22 1825.34,-189.02"/>
<text text-anchor="middle" x="1135.35" y="-607.29" font-family="Times,serif" font-size="14.00" fill="#990025">Ну, удачи тебе.</text>
</g>
<!-- Hernandez01&#45;&gt;Hernandezend -->
<g id="edge9" class="edge">
<title>Hernandez01&#45;&gt;Hernandezend</title>
<path fill="none" stroke="#00995b" d="M1820.24,-1389.29C1860.53,-1364.9 1898.73,-1329.25 1898.73,-1281.75 1898.73,-1281.75 1898.73,-1281.75 1898.73,-610.97 1898.73,-457.4 1874.78,-274.41 1864.91,-205.51"/>
<polygon fill="#00995b" stroke="#00995b" points="1868.24,-205.12 1863.34,-195.72 1861.31,-206.12 1868.24,-205.12"/>
<text text-anchor="middle" x="1948.23" y="-1023.49" font-family="Times,serif" font-size="14.00" fill="#00995b">Нет, спасибо.</text>
</g>
<!-- Hernandez02 -->
<g id="node15" class="node">
<title>Hernandez02</title>
<ellipse fill="#ffffff" stroke="#000000" cx="1408.73" cy="-1280.75" rx="158.22" ry="42.25"/>
<text text-anchor="middle" x="1408.73" y="-1293.32" font-family="Times,serif" font-size="14.00">Это дивное заведение</text>
<text text-anchor="middle" x="1408.73" y="-1276.07" font-family="Times,serif" font-size="14.00">принадлежит легендарному</text>
<text text-anchor="middle" x="1408.73" y="-1258.82" font-family="Times,serif" font-size="14.00">Гизмо, гению и меценату!</text>
</g>
<!-- Hernandez01&#45;&gt;Hernandez02 -->
<g id="edge8" class="edge">
<title>Hernandez01&#45;&gt;Hernandez02</title>
<path fill="none" stroke="#880099" d="M1626.27,-1392.83C1599.59,-1382.37 1571.06,-1370.47 1545.23,-1358.25 1524.24,-1348.32 1502.06,-1336.49 1481.81,-1325.14"/>
<polygon fill="#880099" stroke="#880099" points="1483.78,-1321.67 1473.35,-1319.79 1480.33,-1327.76 1483.78,-1321.67"/>
<text text-anchor="middle" x="1634.98" y="-1344.95" font-family="Times,serif" font-size="14.00" fill="#880099">Ну, давай, рассказывай.</text>
</g>
<!-- Hernandez04 -->
<g id="node16" class="node">
<title>Hernandez04</title>
<ellipse fill="#ffffff" stroke="#000000" cx="1727.73" cy="-1280.75" rx="142.84" ry="42.25"/>
<text text-anchor="middle" x="1727.73" y="-1293.32" font-family="Times,serif" font-size="14.00">Прости, амиго. Эй, давай</text>
<text text-anchor="middle" x="1727.73" y="-1276.07" font-family="Times,serif" font-size="14.00">покажу тебе честную</text>
<text text-anchor="middle" x="1727.73" y="-1258.82" font-family="Times,serif" font-size="14.00">игру...</text>
</g>
<!-- Hernandez01&#45;&gt;Hernandez04 -->
<g id="edge10" class="edge">
<title>Hernandez01&#45;&gt;Hernandez04</title>
<path fill="none" stroke="#992e00" d="M1727.73,-1375.86C1727.73,-1362.17 1727.73,-1347.49 1727.73,-1333.88"/>
<polygon fill="#992e00" stroke="#992e00" points="1731.23,-1334.24 1727.73,-1324.24 1724.23,-1334.24 1731.23,-1334.24"/>
<text text-anchor="middle" x="1751.73" y="-1344.95" font-family="Times,serif" font-size="14.00" fill="#992e00">Блу&#45;у?</text>
</g>
<!-- Hernandez12&#45;&gt;Hernandezend -->
<g id="edge23" class="edge">
<title>Hernandez12&#45;&gt;Hernandezend</title>
<path fill="none" stroke="#994e00" d="M2191.41,-961.74C2220.61,-846.2 2265.21,-601.42 2177.73,-423.35 2117.12,-299.96 1961.54,-220.65 1893.46,-190.8"/>
<polygon fill="#994e00" stroke="#994e00" points="1895.26,-187.33 1884.69,-186.59 1892.49,-193.76 1895.26,-187.33"/>
<text text-anchor="middle" x="2289.1" y="-607.29" font-family="Times,serif" font-size="14.00" fill="#994e00">Ничем, спасибо.</text>
</g>
<!-- Hernandez13 -->
<g id="node25" class="node">
<title>Hernandez13</title>
<ellipse fill="#ffffff" stroke="#000000" cx="2047.73" cy="-611.97" rx="121.09" ry="54.45"/>
<text text-anchor="middle" x="2047.73" y="-633.17" font-family="Times,serif" font-size="14.00">Ее не так легко</text>
<text text-anchor="middle" x="2047.73" y="-615.92" font-family="Times,serif" font-size="14.00">раскрутить, нужно</text>
<text text-anchor="middle" x="2047.73" y="-598.67" font-family="Times,serif" font-size="14.00">некоторое время. Но</text>
<text text-anchor="middle" x="2047.73" y="-581.42" font-family="Times,serif" font-size="14.00">система отличная!</text>
</g>
<!-- Hernandez12&#45;&gt;Hernandez13 -->
<g id="edge22" class="edge">
<title>Hernandez12&#45;&gt;Hernandez13</title>
<path fill="none" stroke="#00997b" d="M2083.38,-973.04C2048.68,-946.79 2012.8,-911.89 1993.98,-870.34 1965.35,-807.12 1989.68,-728.21 2014.17,-674.55"/>
<polygon fill="#00997b" stroke="#00997b" points="2017.65,-676.38 2018.73,-665.84 2011.31,-673.4 2017.65,-676.38"/>
<text text-anchor="middle" x="2096.1" y="-848.41" font-family="Times,serif" font-size="14.00" fill="#00997b">Как поживает твоя система</text>
<text text-anchor="middle" x="2096.1" y="-831.16" font-family="Times,serif" font-size="14.00" fill="#00997b">и крышечки?</text>
</g>
<!-- critter_p_proc -->
<g id="node7" class="node">
<title>critter_p_proc</title>
<ellipse fill="#ffffff" stroke="#000000" cx="1799.73" cy="-1588.79" rx="27" ry="18"/>
</g>
<!-- damage_p_proc -->
<g id="node8" class="node">
<title>damage_p_proc</title>
<ellipse fill="#ffffff" stroke="#000000" cx="1871.73" cy="-1588.79" rx="27" ry="18"/>
</g>
<!-- pickup_p_proc -->
<g id="node9" class="node">
<title>pickup_p_proc</title>
<ellipse fill="#ffffff" stroke="#000000" cx="1943.73" cy="-1588.79" rx="27" ry="18"/>
</g>
<!-- destroy_p_proc -->
<g id="node10" class="node">
<title>destroy_p_proc</title>
<ellipse fill="#ffffff" stroke="#000000" cx="2015.73" cy="-1588.79" rx="27" ry="18"/>
</g>
<!-- map_enter_p_proc -->
<g id="node11" class="node">
<title>map_enter_p_proc</title>
<ellipse fill="#ffffff" stroke="#000000" cx="2087.73" cy="-1588.79" rx="27" ry="18"/>
</g>
<!-- Hernandez00a&#45;&gt;Hernandezend -->
<g id="edge7" class="edge">
<title>Hernandez00a&#45;&gt;Hernandezend</title>
<path fill="none" stroke="#7e9900" d="M927.84,-536.64C956.76,-495.96 998.14,-448.79 1047.73,-423.35 1120.05,-386.24 1160.15,-447.36 1229.73,-405.35 1245.45,-395.85 1237.83,-381.93 1252.48,-370.85 1435.8,-232.11 1721.48,-191.2 1823.21,-180.68"/>
<polygon fill="#7e9900" stroke="#7e9900" points="1823.25,-184.1 1832.86,-179.62 1822.56,-177.13 1823.25,-184.1"/>
<text text-anchor="middle" x="1309.35" y="-383.42" font-family="Times,serif" font-size="14.00" fill="#7e9900">Ну, удачи тебе.</text>
</g>
<!-- Hernandez14 -->
<g id="node14" class="node">
<title>Hernandez14</title>
<ellipse fill="#ffffff" stroke="#000000" cx="882.73" cy="-176.42" rx="139.65" ry="42.25"/>
<text text-anchor="middle" x="882.73" y="-189" font-family="Times,serif" font-size="14.00">Ты что, называешь меня</text>
<text text-anchor="middle" x="882.73" y="-171.75" font-family="Times,serif" font-size="14.00">лжецом! Сейчас ты</text>
<text text-anchor="middle" x="882.73" y="-154.5" font-family="Times,serif" font-size="14.00">пожалеешь об этом!</text>
</g>
<!-- Hernandez00a&#45;&gt;Hernandez14 -->
<g id="edge6" class="edge">
<title>Hernandez00a&#45;&gt;Hernandez14</title>
<path fill="none" stroke="#005199" d="M882.73,-532.71C882.73,-444.95 882.73,-305.08 882.73,-229.68"/>
<polygon fill="#005199" stroke="#005199" points="886.23,-230.03 882.73,-220.03 879.23,-230.03 886.23,-230.03"/>
<text text-anchor="middle" x="975.73" y="-392.05" font-family="Times,serif" font-size="14.00" fill="#005199">Я думаю, что ты шулер и</text>
<text text-anchor="middle" x="975.73" y="-374.8" font-family="Times,serif" font-size="14.00" fill="#005199">лжец. Где мои деньги?</text>
</g>
<!-- Hernandez02&#45;&gt;Hernandezend -->
<g id="edge13" class="edge">
<title>Hernandez02&#45;&gt;Hernandezend</title>
<path fill="none" stroke="#990058" d="M1521.43,-1250.95C1537.15,-1243.1 1551.93,-1233.13 1563.73,-1220.5 1579.67,-1203.43 1668.79,-833.54 1686.73,-818.59 1713.37,-796.39 1818.28,-826.13 1841.73,-800.59 1882.34,-756.37 1866.83,-320.68 1861.97,-205.33"/>
<polygon fill="#990058" stroke="#990058" points="1865.44,-205.44 1861.51,-195.6 1858.44,-205.74 1865.44,-205.44"/>
<text text-anchor="middle" x="1785.73" y="-848.41" font-family="Times,serif" font-size="14.00" fill="#990058">Это конечно интересно, но</text>
<text text-anchor="middle" x="1785.73" y="-831.16" font-family="Times,serif" font-size="14.00" fill="#990058">мне некогда.</text>
</g>
<!-- Hernandez09 -->
<g id="node17" class="node">
<title>Hernandez09</title>
<ellipse fill="#ffffff" stroke="#000000" cx="1408.73" cy="-1028.17" rx="153.97" ry="139.83"/>
<text text-anchor="middle" x="1408.73" y="-1109.74" font-family="Times,serif" font-size="14.00">Он помогает людям забыть</text>
<text text-anchor="middle" x="1408.73" y="-1092.49" font-family="Times,serif" font-size="14.00">обо всех заботах. И</text>
<text text-anchor="middle" x="1408.73" y="-1075.24" font-family="Times,serif" font-size="14.00">приносит доход</text>
<text text-anchor="middle" x="1408.73" y="-1057.99" font-family="Times,serif" font-size="14.00">Джанктауну!</text>
<text text-anchor="middle" x="1408.73" y="-1040.74" font-family="Times,serif" font-size="14.00">&#45;&#45;&#45;</text>
<text text-anchor="middle" x="1408.73" y="-1023.49" font-family="Times,serif" font-size="14.00">У него была мечта создать</text>
<text text-anchor="middle" x="1408.73" y="-1006.24" font-family="Times,serif" font-size="14.00">такое место, где люди</text>
<text text-anchor="middle" x="1408.73" y="-988.99" font-family="Times,serif" font-size="14.00">могли бы развлекаться и</text>
<text text-anchor="middle" x="1408.73" y="-971.74" font-family="Times,serif" font-size="14.00">получать удовольствие. И</text>
<text text-anchor="middle" x="1408.73" y="-954.49" font-family="Times,serif" font-size="14.00">он ее осуществил,</text>
<text text-anchor="middle" x="1408.73" y="-937.24" font-family="Times,serif" font-size="14.00">построив это казино!</text>
</g>
<!-- Hernandez02&#45;&gt;Hernandez09 -->
<g id="edge11" class="edge">
<title>Hernandez02&#45;&gt;Hernandez09</title>
<path fill="none" stroke="#020099" d="M1408.73,-1238.09C1408.73,-1221.3 1408.73,-1200.83 1408.73,-1179.34"/>
<polygon fill="#020099" stroke="#020099" points="1412.23,-1179.37 1408.73,-1169.37 1405.23,-1179.37 1412.23,-1179.37"/>
<text text-anchor="middle" x="1484.48" y="-1198.57" font-family="Times,serif" font-size="14.00" fill="#020099">Гению? Почему это?</text>
</g>
<!-- Hernandez11 -->
<g id="node18" class="node">
<title>Hernandez11</title>
<ellipse fill="#ffffff" stroke="#000000" cx="729.73" cy="-1028.17" rx="157.68" ry="115.44"/>
<text text-anchor="middle" x="729.73" y="-1092.49" font-family="Times,serif" font-size="14.00">Гизмо неплохо управляется</text>
<text text-anchor="middle" x="729.73" y="-1075.24" font-family="Times,serif" font-size="14.00">со своим казино, и это</text>
<text text-anchor="middle" x="729.73" y="-1057.99" font-family="Times,serif" font-size="14.00">весьма прибыльное</text>
<text text-anchor="middle" x="729.73" y="-1040.74" font-family="Times,serif" font-size="14.00">занятие. Нет, крупье</text>
<text text-anchor="middle" x="729.73" y="-1023.49" font-family="Times,serif" font-size="14.00">здесь не жульничают.</text>
<text text-anchor="middle" x="729.73" y="-1006.24" font-family="Times,serif" font-size="14.00">Просто если не</text>
<text text-anchor="middle" x="729.73" y="-988.99" font-family="Times,serif" font-size="14.00">использовать мою систему,</text>
<text text-anchor="middle" x="729.73" y="-971.74" font-family="Times,serif" font-size="14.00">выиграть сможет только</text>
<text text-anchor="middle" x="729.73" y="-954.49" font-family="Times,serif" font-size="14.00">чертовски умный человек.</text>
</g>
<!-- Hernandez02&#45;&gt;Hernandez11 -->
<g id="edge12" class="edge">
<title>Hernandez02&#45;&gt;Hernandez11</title>
<path fill="none" stroke="#2b9900" d="M1261.57,-1264.9C1157.88,-1250.26 1017.91,-1221.9 904.73,-1168 880.93,-1156.66 857.43,-1141.56 835.75,-1125.49"/>
<polygon fill="#2b9900" stroke="#2b9900" points="838.3,-1122.28 828.21,-1119.04 834.08,-1127.86 838.3,-1122.28"/>
<text text-anchor="middle" x="1110.6" y="-1207.2" font-family="Times,serif" font-size="14.00" fill="#2b9900">Какие тут шансы на</text>
<text text-anchor="middle" x="1110.6" y="-1189.95" font-family="Times,serif" font-size="14.00" fill="#2b9900">выигрыш?</text>
</g>
<!-- Hernandez07 -->
<g id="node22" class="node">
<title>Hernandez07</title>
<ellipse fill="#ffffff" stroke="#000000" cx="1347.73" cy="-611.97" rx="146.55" ry="54.45"/>
<text text-anchor="middle" x="1347.73" y="-633.17" font-family="Times,serif" font-size="14.00">О, я вижу, ты знаешь, что</text>
<text text-anchor="middle" x="1347.73" y="-615.92" font-family="Times,serif" font-size="14.00">такое стиль. Может, мы</text>
<text text-anchor="middle" x="1347.73" y="-598.67" font-family="Times,serif" font-size="14.00">когда&#45;нибудь сыграем в</text>
<text text-anchor="middle" x="1347.73" y="-581.42" font-family="Times,serif" font-size="14.00">кости?</text>
</g>
<!-- Hernandez09&#45;&gt;Hernandez07 -->
<g id="edge20" class="edge">
<title>Hernandez09&#45;&gt;Hernandez07</title>
<path fill="none" stroke="#5e9900" d="M1360.17,-895.3C1358.07,-886.92 1356.22,-878.55 1354.73,-870.34 1342.96,-805.46 1342.43,-729.9 1344.1,-677.51"/>
<polygon fill="#5e9900" stroke="#5e9900" points="1347.62,-677.81 1344.48,-667.69 1340.63,-677.56 1347.62,-677.81"/>
<text text-anchor="middle" x="1413.23" y="-839.79" font-family="Times,serif" font-size="14.00" fill="#5e9900">Что ж, неплохо.</text>
</g>
<!-- Hernandez10 -->
<g id="node24" class="node">
<title>Hernandez10</title>
<ellipse fill="#ffffff" stroke="#000000" cx="1672.73" cy="-611.97" rx="160.34" ry="66.64"/>
<text text-anchor="middle" x="1672.73" y="-641.79" font-family="Times,serif" font-size="14.00">Очевидно, ты не</text>
<text text-anchor="middle" x="1672.73" y="-624.54" font-family="Times,serif" font-size="14.00">разделяешь блестящих идей</text>
<text text-anchor="middle" x="1672.73" y="-607.29" font-family="Times,serif" font-size="14.00">Гизмо. Это место &#45;</text>
<text text-anchor="middle" x="1672.73" y="-590.04" font-family="Times,serif" font-size="14.00">укрытие от невзгод</text>
<text text-anchor="middle" x="1672.73" y="-572.79" font-family="Times,serif" font-size="14.00">повседневной жизни.</text>
</g>
<!-- Hernandez09&#45;&gt;Hernandez10 -->
<g id="edge19" class="edge">
<title>Hernandez09&#45;&gt;Hernandez10</title>
<path fill="none" stroke="#003299" d="M1461.85,-896.45C1478.06,-856.98 1492.35,-822.85 1494.98,-818.59 1525.5,-769.09 1567.82,-719.6 1603.52,-681.58"/>
<polygon fill="#003299" stroke="#003299" points="1605.7,-684.31 1610.03,-674.64 1600.61,-679.5 1605.7,-684.31"/>
<text text-anchor="middle" x="1580.1" y="-857.04" font-family="Times,serif" font-size="14.00" fill="#003299">Людям и так тяжело</text>
<text text-anchor="middle" x="1580.1" y="-839.79" font-family="Times,serif" font-size="14.00" fill="#003299">живется, а здесь они</text>
<text text-anchor="middle" x="1580.1" y="-822.54" font-family="Times,serif" font-size="14.00" fill="#003299">лишаются последнего!</text>
</g>
<!-- Hernandez03 -->
<g id="node19" class="node">
<title>Hernandez03</title>
<ellipse fill="#ffffff" stroke="#000000" cx="517.73" cy="-611.97" rx="155.56" ry="188.62"/>
<text text-anchor="middle" x="517.73" y="-728.04" font-family="Times,serif" font-size="14.00">Может, у тебя найдется 50</text>
<text text-anchor="middle" x="517.73" y="-710.79" font-family="Times,serif" font-size="14.00">лишних крышек? Выигрыш</text>
<text text-anchor="middle" x="517.73" y="-693.54" font-family="Times,serif" font-size="14.00">гарантирую.</text>
<text text-anchor="middle" x="517.73" y="-676.29" font-family="Times,serif" font-size="14.00">&#45;&#45;&#45;</text>
<text text-anchor="middle" x="517.73" y="-659.04" font-family="Times,serif" font-size="14.00">Дружище, я не люблю</text>
<text text-anchor="middle" x="517.73" y="-641.79" font-family="Times,serif" font-size="14.00">приставать с просьбами,</text>
<text text-anchor="middle" x="517.73" y="-624.54" font-family="Times,serif" font-size="14.00">но, может, ты согласишься</text>
<text text-anchor="middle" x="517.73" y="-607.29" font-family="Times,serif" font-size="14.00">мне помочь? Я создал</text>
<text text-anchor="middle" x="517.73" y="-590.04" font-family="Times,serif" font-size="14.00">систему беспроигрышной</text>
<text text-anchor="middle" x="517.73" y="-572.79" font-family="Times,serif" font-size="14.00">игры, но у меня не</text>
<text text-anchor="middle" x="517.73" y="-555.54" font-family="Times,serif" font-size="14.00">хватает денег, чтобы ею</text>
<text text-anchor="middle" x="517.73" y="-538.29" font-family="Times,serif" font-size="14.00">воспользоваться.</text>
<text text-anchor="middle" x="517.73" y="-521.04" font-family="Times,serif" font-size="14.00">&#45;&#45;&#45;</text>
<text text-anchor="middle" x="517.73" y="-503.79" font-family="Times,serif" font-size="14.00">[Вы чувствуете, что он</text>
<text text-anchor="middle" x="517.73" y="-486.54" font-family="Times,serif" font-size="14.00">пытается вас надуть.]</text>
</g>
<!-- Hernandez11&#45;&gt;Hernandez03 -->
<g id="edge21" class="edge">
<title>Hernandez11&#45;&gt;Hernandez03</title>
<path fill="none" stroke="#99008b" d="M674.72,-919.69C653.26,-877.76 628.13,-828.67 604.35,-782.21"/>
<polygon fill="#99008b" stroke="#99008b" points="607.13,-780.96 599.46,-773.65 600.9,-784.15 607.13,-780.96"/>
<text text-anchor="middle" x="722.48" y="-848.41" font-family="Times,serif" font-size="14.00" fill="#99008b">Можешь подробней</text>
<text text-anchor="middle" x="722.48" y="-831.16" font-family="Times,serif" font-size="14.00" fill="#99008b">объяснить?</text>
</g>
<!-- Hernandez03&#45;&gt;Hernandez14 -->
<g id="edge16" class="edge">
<title>Hernandez03&#45;&gt;Hernandez14</title>
<path fill="none" stroke="#540099" d="M619.26,-468.35C643.78,-435.7 670.43,-401.57 696.48,-370.85 740.71,-318.68 795.42,-262.77 834.07,-224.55"/>
<polygon fill="#540099" stroke="#540099" points="835.91,-227.66 840.57,-218.15 831,-222.68 835.91,-227.66"/>
<text text-anchor="middle" x="787.85" y="-392.05" font-family="Times,serif" font-size="14.00" fill="#540099">Я думаю, ты лжешь. И</text>
<text text-anchor="middle" x="787.85" y="-374.8" font-family="Times,serif" font-size="14.00" fill="#540099">пытаешься меня кинуть.</text>
</g>
<!-- Hernandez05 -->
<g id="node20" class="node">
<title>Hernandez05</title>
<ellipse fill="#ffffff" stroke="#000000" cx="476.73" cy="-176.42" rx="159.28" ry="176.42"/>
<text text-anchor="middle" x="476.73" y="-283.87" font-family="Times,serif" font-size="14.00">Возможно вы больше</text>
<text text-anchor="middle" x="476.73" y="-266.62" font-family="Times,serif" font-size="14.00">никогда не увидите своих</text>
<text text-anchor="middle" x="476.73" y="-249.37" font-family="Times,serif" font-size="14.00">крышечек.</text>
<text text-anchor="middle" x="476.73" y="-232.12" font-family="Times,serif" font-size="14.00">&#45;&#45;&#45;</text>
<text text-anchor="middle" x="476.73" y="-214.87" font-family="Times,serif" font-size="14.00">Спасибо, амиго! Через</text>
<text text-anchor="middle" x="476.73" y="-197.62" font-family="Times,serif" font-size="14.00">пару дней я верну тебе</text>
<text text-anchor="middle" x="476.73" y="-180.37" font-family="Times,serif" font-size="14.00">долг с процентами. Моя</text>
<text text-anchor="middle" x="476.73" y="-163.12" font-family="Times,serif" font-size="14.00">система работает</text>
<text text-anchor="middle" x="476.73" y="-145.87" font-family="Times,serif" font-size="14.00">медленно, требует</text>
<text text-anchor="middle" x="476.73" y="-128.62" font-family="Times,serif" font-size="14.00">большого терпения, но</text>
<text text-anchor="middle" x="476.73" y="-111.37" font-family="Times,serif" font-size="14.00">выигрыш гарантирован!</text>
<text text-anchor="middle" x="476.73" y="-94.12" font-family="Times,serif" font-size="14.00">&#45;&#45;&#45;</text>
<text text-anchor="middle" x="476.73" y="-76.87" font-family="Times,serif" font-size="14.00">Сначала крышки принеси, а</text>
<text text-anchor="middle" x="476.73" y="-59.62" font-family="Times,serif" font-size="14.00">потом предлагай.</text>
</g>
<!-- Hernandez03&#45;&gt;Hernandez05 -->
<g id="edge14" class="edge">
<title>Hernandez03&#45;&gt;Hernandez05</title>
<path fill="none" stroke="#008499" d="M480.63,-428.48C479.62,-420.68 478.73,-412.94 477.98,-405.35 476.65,-391.85 475.65,-377.89 474.93,-363.82"/>
<polygon fill="#008499" stroke="#008499" points="478.39,-363.87 474.42,-354.05 471.39,-364.2 478.39,-363.87"/>
<text text-anchor="middle" x="567.6" y="-392.05" font-family="Times,serif" font-size="14.00" fill="#008499">Ну ладно держи, только</text>
<text text-anchor="middle" x="567.6" y="-374.8" font-family="Times,serif" font-size="14.00" fill="#008499">обязательно отдай.</text>
</g>
<!-- Hernandez06 -->
<g id="node21" class="node">
<title>Hernandez06</title>
<ellipse fill="#ffffff" stroke="#000000" cx="149.73" cy="-176.42" rx="149.73" ry="66.64"/>
<text text-anchor="middle" x="149.73" y="-206.25" font-family="Times,serif" font-size="14.00">Я гарантирую выигрыш!</text>
<text text-anchor="middle" x="149.73" y="-189" font-family="Times,serif" font-size="14.00">Если хочешь разбогатеть &#45;</text>
<text text-anchor="middle" x="149.73" y="-171.75" font-family="Times,serif" font-size="14.00">не жмись, или я быстро</text>
<text text-anchor="middle" x="149.73" y="-154.5" font-family="Times,serif" font-size="14.00">найду себе другого</text>
<text text-anchor="middle" x="149.73" y="-137.25" font-family="Times,serif" font-size="14.00">партнера!</text>
</g>
<!-- Hernandez03&#45;&gt;Hernandez06 -->
<g id="edge15" class="edge">
<title>Hernandez03&#45;&gt;Hernandez06</title>
<path fill="none" stroke="#998100" d="M406.32,-479.71C341.43,-403.27 262.2,-309.93 209.1,-247.37"/>
<polygon fill="#998100" stroke="#998100" points="211.25,-245.49 202.11,-240.13 205.91,-250.02 211.25,-245.49"/>
<text text-anchor="middle" x="383.23" y="-383.42" font-family="Times,serif" font-size="14.00" fill="#998100">Нет, спасибо.</text>
</g>
<!-- Hernandez07&#45;&gt;Hernandezend -->
<g id="edge18" class="edge">
<title>Hernandez07&#45;&gt;Hernandezend</title>
<path fill="none" stroke="#990005" d="M1376.94,-558.24C1403.95,-514.75 1448.26,-455.19 1503.73,-423.35 1545.93,-399.12 1567.98,-426.65 1611.73,-405.35 1638.79,-392.17 1782.72,-253.41 1838.56,-199.07"/>
<polygon fill="#990005" stroke="#990005" points="1840.42,-202.18 1845.14,-192.69 1835.53,-197.16 1840.42,-202.18"/>
<text text-anchor="middle" x="1744.85" y="-383.42" font-family="Times,serif" font-size="14.00" fill="#990005">Спасибо, но в другой раз.</text>
</g>
<!-- Hernandez08 -->
<g id="node23" class="node">
<title>Hernandez08</title>
<ellipse fill="#ffffff" stroke="#000000" cx="1091.73" cy="-176.42" rx="27" ry="18"/>
</g>
<!-- Hernandez07&#45;&gt;Hernandez08 -->
<g id="edge17" class="edge">
<title>Hernandez07&#45;&gt;Hernandez08</title>
<path fill="none" stroke="#009928" d="M1316.98,-558.59C1288.73,-515.31 1242.78,-455.88 1186.73,-423.35 1150.13,-402.1 1120.28,-437.89 1093.23,-405.35 1045.45,-347.88 1067.35,-251.16 1082.13,-204.37"/>
<polygon fill="#009928" stroke="#009928" points="1085.7,-205.72 1085.5,-195.13 1079.05,-203.53 1085.7,-205.72"/>
<text text-anchor="middle" x="1161.98" y="-383.42" font-family="Times,serif" font-size="14.00" fill="#009928">Вполне возможно.</text>
</g>
<!-- Hernandez13&#45;&gt;Hernandezend -->
<g id="edge24" class="edge">
<title>Hernandez13&#45;&gt;Hernandezend</title>
<path fill="none" stroke="#210099" d="M2024.99,-558.24C1984.71,-464.87 1902.26,-273.71 1872.1,-203.79"/>
<polygon fill="#210099" stroke="#210099" points="1875.06,-202.81 1867.88,-195.01 1868.63,-205.58 1875.06,-202.81"/>
<text text-anchor="middle" x="2033.23" y="-392.05" font-family="Times,serif" font-size="14.00" fill="#210099">Замечательно! Я еще</text>
<text text-anchor="middle" x="2033.23" y="-374.8" font-family="Times,serif" font-size="14.00" fill="#210099">подожду.</text>
</g>
<!-- Hernandez13&#45;&gt;Hernandez14 -->
<g id="edge25" class="edge">
<title>Hernandez13&#45;&gt;Hernandez14</title>
<path fill="none" stroke="#0b9900" d="M2009.57,-560.17C1972.34,-515.07 1911.28,-452 1841.73,-423.35 1755.35,-387.76 1510.57,-434.23 1421.73,-405.35 1395.35,-396.77 1396.04,-379.61 1369.73,-370.85 1303.42,-348.76 1119.41,-381.65 1055.73,-352.85 996.24,-325.94 946.19,-268.75 915.47,-226.96"/>
<polygon fill="#0b9900" stroke="#0b9900" points="917.9,-225.35 909.21,-219.29 912.23,-229.45 917.9,-225.35"/>
<text text-anchor="middle" x="1514.73" y="-392.05" font-family="Times,serif" font-size="14.00" fill="#0b9900">Я думаю, что ты шулер и</text>
<text text-anchor="middle" x="1514.73" y="-374.8" font-family="Times,serif" font-size="14.00" fill="#0b9900">лжец. Где мои деньги?</text>
</g>
</g>
</svg>
