<?xml version="1.0" encoding="UTF-8" standalone="no"?>
<!DOCTYPE svg PUBLIC "-//W3C//DTD SVG 1.1//EN"
 "http://www.w3.org/Graphics/SVG/1.1/DTD/svg11.dtd">
<!-- Generated by graphviz version 8.0.5 (0)
 -->
<!-- Title: genknigh Pages: 1 -->
<svg width="516pt" height="116pt"
 viewBox="0.00 0.00 516.13 116.00" xmlns="http://www.w3.org/2000/svg" xmlns:xlink="http://www.w3.org/1999/xlink">
<g id="graph0" class="graph" transform="scale(1 1) rotate(0) translate(4 112)">
<title>genknigh</title>
<polygon fill="white" stroke="none" points="-4,4 -4,-112 512.13,-112 512.13,4 -4,4"/>
<!-- start -->
<g id="node1" class="node">
<title>start</title>
<ellipse fill="#ffffff" stroke="#000000" cx="337.13" cy="-90" rx="27" ry="18"/>
</g>
<!-- look_at_p_proc -->
<g id="node2" class="node">
<title>look_at_p_proc</title>
<ellipse fill="#ffffff" stroke="#000000" cx="110.13" cy="-18" rx="110.13" ry="18"/>
<text text-anchor="middle" x="110.13" y="-13.32" font-family="Times,serif" font-size="14.00">Вы видите рыцаря.</text>
</g>
<!-- start&#45;&gt;look_at_p_proc -->
<g id="edge1" class="edge">
<title>start&#45;&gt;look_at_p_proc</title>
<path fill="none" stroke="#555555" stroke-dasharray="1,5" d="M312.84,-81.51C279.13,-71.11 217.07,-51.98 170.46,-37.6"/>
<polygon fill="#555555" stroke="#555555" points="171.76,-34.03 161.17,-34.43 169.69,-40.72 171.76,-34.03"/>
</g>
<!-- pickup_p_proc -->
<g id="node3" class="node">
<title>pickup_p_proc</title>
<ellipse fill="#ffffff" stroke="#000000" cx="265.13" cy="-18" rx="27" ry="18"/>
</g>
<!-- start&#45;&gt;pickup_p_proc -->
<g id="edge2" class="edge">
<title>start&#45;&gt;pickup_p_proc</title>
<path fill="none" stroke="#555555" stroke-dasharray="1,5" d="M322.21,-74.5C312.27,-64.83 299.01,-51.94 287.78,-41.02"/>
<polygon fill="#555555" stroke="#555555" points="290.64,-38.95 281.03,-34.49 285.76,-43.97 290.64,-38.95"/>
</g>
<!-- talk_p_proc -->
<g id="node4" class="node">
<title>talk_p_proc</title>
<ellipse fill="#ffffff" stroke="#000000" cx="337.13" cy="-18" rx="27" ry="18"/>
</g>
<!-- start&#45;&gt;talk_p_proc -->
<g id="edge3" class="edge">
<title>start&#45;&gt;talk_p_proc</title>
<path fill="none" stroke="#555555" stroke-dasharray="1,5" d="M337.13,-71.7C337.13,-64.24 337.13,-55.32 337.13,-46.97"/>
<polygon fill="#555555" stroke="#555555" points="340.63,-47.1 337.13,-37.1 333.63,-47.1 340.63,-47.1"/>
</g>
<!-- critter_p_proc -->
<g id="node5" class="node">
<title>critter_p_proc</title>
<ellipse fill="#ffffff" stroke="#000000" cx="409.13" cy="-18" rx="27" ry="18"/>
</g>
<!-- start&#45;&gt;critter_p_proc -->
<g id="edge4" class="edge">
<title>start&#45;&gt;critter_p_proc</title>
<path fill="none" stroke="#555555" stroke-dasharray="1,5" d="M352.05,-74.5C361.99,-64.83 375.25,-51.94 386.49,-41.02"/>
<polygon fill="#555555" stroke="#555555" points="388.5,-43.97 393.23,-34.49 383.62,-38.95 388.5,-43.97"/>
</g>
<!-- destroy_p_proc -->
<g id="node6" class="node">
<title>destroy_p_proc</title>
<ellipse fill="#ffffff" stroke="#000000" cx="481.13" cy="-18" rx="27" ry="18"/>
</g>
<!-- start&#45;&gt;destroy_p_proc -->
<g id="edge5" class="edge">
<title>start&#45;&gt;destroy_p_proc</title>
<path fill="none" stroke="#555555" stroke-dasharray="1,5" d="M358.69,-78.52C383.01,-66.7 422.75,-47.38 450.34,-33.97"/>
<polygon fill="#555555" stroke="#555555" points="451.43,-36.84 458.9,-29.32 448.37,-30.55 451.43,-36.84"/>
</g>
<!-- combat -->
<g id="node7" class="node">
<title>combat</title>
<ellipse fill="#ffffff" stroke="#000000" cx="409.13" cy="-90" rx="27" ry="18"/>
</g>
</g>
</svg>
