<?xml version="1.0" encoding="UTF-8" standalone="no"?>
<!DOCTYPE svg PUBLIC "-//W3C//DTD SVG 1.1//EN"
 "http://www.w3.org/Graphics/SVG/1.1/DTD/svg11.dtd">
<!-- Generated by graphviz version 8.0.5 (0)
 -->
<!-- Title: genpala Pages: 1 -->
<svg width="600pt" height="602pt"
 viewBox="0.00 0.00 599.85 602.43" xmlns="http://www.w3.org/2000/svg" xmlns:xlink="http://www.w3.org/1999/xlink">
<g id="graph0" class="graph" transform="scale(1 1) rotate(0) translate(4 598.43)">
<title>genpala</title>
<polygon fill="white" stroke="none" points="-4,4 -4,-598.43 595.85,-598.43 595.85,4 -4,4"/>
<!-- start -->
<g id="node1" class="node">
<title>start</title>
<ellipse fill="#ffffff" stroke="#000000" cx="171" cy="-576.43" rx="27" ry="18"/>
</g>
<!-- combat_p_proc -->
<g id="node2" class="node">
<title>combat_p_proc</title>
<ellipse fill="#ffffff" stroke="#000000" cx="27" cy="-297.21" rx="27" ry="18"/>
</g>
<!-- start&#45;&gt;combat_p_proc -->
<g id="edge1" class="edge">
<title>start&#45;&gt;combat_p_proc</title>
<path fill="none" stroke="#555555" stroke-dasharray="1,5" d="M145.68,-570.12C120.56,-563.45 83,-549.46 63,-522.43 19.43,-463.53 20.15,-372 23.81,-326.24"/>
<polygon fill="#555555" stroke="#555555" points="27.38,-326.67 24.81,-316.39 20.41,-326.03 27.38,-326.67"/>
</g>
<!-- critter_p_proc -->
<g id="node3" class="node">
<title>critter_p_proc</title>
<ellipse fill="#ffffff" stroke="#000000" cx="99" cy="-297.21" rx="27" ry="18"/>
</g>
<!-- start&#45;&gt;critter_p_proc -->
<g id="edge2" class="edge">
<title>start&#45;&gt;critter_p_proc</title>
<path fill="none" stroke="#555555" stroke-dasharray="1,5" d="M158.01,-560.23C150.11,-550.15 140.5,-536.28 135,-522.43 108.41,-455.46 101.44,-369.85 99.63,-326.34"/>
<polygon fill="#555555" stroke="#555555" points="103.09,-326.35 99.25,-316.47 96.1,-326.59 103.09,-326.35"/>
</g>
<!-- destroy_p_proc -->
<g id="node4" class="node">
<title>destroy_p_proc</title>
<ellipse fill="#ffffff" stroke="#000000" cx="171" cy="-297.21" rx="27" ry="18"/>
</g>
<!-- start&#45;&gt;destroy_p_proc -->
<g id="edge3" class="edge">
<title>start&#45;&gt;destroy_p_proc</title>
<path fill="none" stroke="#555555" stroke-dasharray="1,5" d="M171,-558.09C171,-511.51 171,-383.37 171,-326.28"/>
<polygon fill="#555555" stroke="#555555" points="174.5,-326.55 171,-316.55 167.5,-326.55 174.5,-326.55"/>
</g>
<!-- pickup_p_proc -->
<g id="node5" class="node">
<title>pickup_p_proc</title>
<ellipse fill="#ffffff" stroke="#000000" cx="243" cy="-297.21" rx="27" ry="18"/>
</g>
<!-- start&#45;&gt;pickup_p_proc -->
<g id="edge4" class="edge">
<title>start&#45;&gt;pickup_p_proc</title>
<path fill="none" stroke="#555555" stroke-dasharray="1,5" d="M183.99,-560.23C191.89,-550.15 201.5,-536.28 207,-522.43 233.59,-455.46 240.56,-369.85 242.37,-326.34"/>
<polygon fill="#555555" stroke="#555555" points="245.9,-326.59 242.75,-316.47 238.91,-326.35 245.9,-326.59"/>
</g>
<!-- talk_p_proc -->
<g id="node6" class="node">
<title>talk_p_proc</title>
<ellipse fill="#ffffff" stroke="#000000" cx="440" cy="-297.21" rx="151.85" ry="225.21"/>
<text text-anchor="middle" x="440" y="-439.16" font-family="Times,serif" font-size="14.00">За меня отомстят!</text>
<text text-anchor="middle" x="440" y="-421.91" font-family="Times,serif" font-size="14.00">&#45;&#45;&#45;</text>
<text text-anchor="middle" x="440" y="-404.66" font-family="Times,serif" font-size="14.00">Умри!</text>
<text text-anchor="middle" x="440" y="-387.41" font-family="Times,serif" font-size="14.00">&#45;&#45;&#45;</text>
<text text-anchor="middle" x="440" y="-370.16" font-family="Times,serif" font-size="14.00">Приветствую, послушник!</text>
<text text-anchor="middle" x="440" y="-352.91" font-family="Times,serif" font-size="14.00">Надеюсь, патрулирование</text>
<text text-anchor="middle" x="440" y="-335.66" font-family="Times,serif" font-size="14.00">прошло без происшествий.</text>
<text text-anchor="middle" x="440" y="-318.41" font-family="Times,serif" font-size="14.00">&#45;&#45;&#45;</text>
<text text-anchor="middle" x="440" y="-301.16" font-family="Times,serif" font-size="14.00">Стой! Я узнал тебя, и я</text>
<text text-anchor="middle" x="440" y="-283.91" font-family="Times,serif" font-size="14.00">тебе не доверяю.</text>
<text text-anchor="middle" x="440" y="-266.66" font-family="Times,serif" font-size="14.00">Предупреждаю: если</text>
<text text-anchor="middle" x="440" y="-249.41" font-family="Times,serif" font-size="14.00">затеваешь что&#45;то</text>
<text text-anchor="middle" x="440" y="-232.16" font-family="Times,serif" font-size="14.00">недоброе, тебя ждет</text>
<text text-anchor="middle" x="440" y="-214.91" font-family="Times,serif" font-size="14.00">смерть. Проходи!</text>
<text text-anchor="middle" x="440" y="-197.66" font-family="Times,serif" font-size="14.00">&#45;&#45;&#45;</text>
<text text-anchor="middle" x="440" y="-180.41" font-family="Times,serif" font-size="14.00">Стой! Поговори с</text>
<text text-anchor="middle" x="440" y="-163.16" font-family="Times,serif" font-size="14.00">капитаном, если он тебя</text>
<text text-anchor="middle" x="440" y="-145.91" font-family="Times,serif" font-size="14.00">еще не видел!</text>
</g>
<!-- start&#45;&gt;talk_p_proc -->
<g id="edge5" class="edge">
<title>start&#45;&gt;talk_p_proc</title>
<path fill="none" stroke="#555555" stroke-dasharray="1,5" d="M194.85,-567.6C218.12,-559.13 253.65,-543.87 279,-522.43 297.09,-507.13 314.19,-489.37 330.02,-470.69"/>
<polygon fill="#555555" stroke="#555555" points="333.02,-473.55 336.73,-463.62 327.64,-469.07 333.02,-473.55"/>
</g>
<!-- flee_dude -->
<g id="node7" class="node">
<title>flee_dude</title>
<ellipse fill="#ffffff" stroke="#000000" cx="99" cy="-18" rx="27" ry="18"/>
</g>
<!-- critter_p_proc&#45;&gt;flee_dude -->
<g id="edge6" class="edge">
<title>critter_p_proc&#45;&gt;flee_dude</title>
<path fill="none" stroke="#555555" stroke-dasharray="1,5" d="M99,-278.87C99,-232.3 99,-104.15 99,-47.07"/>
<polygon fill="#555555" stroke="#555555" points="102.5,-47.33 99,-37.33 95.5,-47.33 102.5,-47.33"/>
</g>
</g>
</svg>
