<?xml version="1.0" encoding="UTF-8" standalone="no"?>
<!DOCTYPE svg PUBLIC "-//W3C//DTD SVG 1.1//EN"
 "http://www.w3.org/Graphics/SVG/1.1/DTD/svg11.dtd">
<!-- Generated by graphviz version 8.0.5 (0)
 -->
<!-- Title: gizguard Pages: 1 -->
<svg width="985pt" height="441pt"
 viewBox="0.00 0.00 985.14 441.29" xmlns="http://www.w3.org/2000/svg" xmlns:xlink="http://www.w3.org/1999/xlink">
<g id="graph0" class="graph" transform="scale(1 1) rotate(0) translate(4 437.29)">
<title>gizguard</title>
<polygon fill="white" stroke="none" points="-4,4 -4,-437.29 981.14,-437.29 981.14,4 -4,4"/>
<!-- start -->
<g id="node1" class="node">
<title>start</title>
<ellipse fill="#ffffff" stroke="#000000" cx="131.96" cy="-415.29" rx="27" ry="18"/>
</g>
<!-- critter_p_proc -->
<g id="node2" class="node">
<title>critter_p_proc</title>
<ellipse fill="#ffffff" stroke="#000000" cx="203.96" cy="-415.29" rx="27" ry="18"/>
</g>
<!-- destroy_p_proc -->
<g id="node3" class="node">
<title>destroy_p_proc</title>
<ellipse fill="#ffffff" stroke="#000000" cx="275.96" cy="-415.29" rx="27" ry="18"/>
</g>
<!-- map_enter_p_proc -->
<g id="node4" class="node">
<title>map_enter_p_proc</title>
<ellipse fill="#ffffff" stroke="#000000" cx="347.96" cy="-415.29" rx="27" ry="18"/>
</g>
<!-- pickup_p_proc -->
<g id="node5" class="node">
<title>pickup_p_proc</title>
<ellipse fill="#ffffff" stroke="#000000" cx="419.96" cy="-415.29" rx="27" ry="18"/>
</g>
<!-- talk_p_proc -->
<g id="node6" class="node">
<title>talk_p_proc</title>
<ellipse fill="#ffffff" stroke="#000000" cx="491.96" cy="-415.29" rx="27" ry="18"/>
</g>
<!-- GizGuard00 -->
<g id="node7" class="node">
<title>GizGuard00</title>
<ellipse fill="#ffffff" stroke="#000000" cx="393.96" cy="-342.29" rx="27" ry="18"/>
</g>
<!-- talk_p_proc&#45;&gt;GizGuard00 -->
<g id="edge1" class="edge">
<title>talk_p_proc&#45;&gt;GizGuard00</title>
<path fill="none" stroke="#555555" stroke-dasharray="1,5" d="M474.44,-401.6C459.34,-390.66 437.33,-374.71 420.14,-362.26"/>
<polygon fill="#555555" stroke="#555555" points="422.81,-359.14 412.66,-356.11 418.7,-364.81 422.81,-359.14"/>
</g>
<!-- GizGuard01 -->
<g id="node8" class="node">
<title>GizGuard01</title>
<ellipse fill="#ffffff" stroke="#000000" cx="465.96" cy="-342.29" rx="27" ry="18"/>
</g>
<!-- talk_p_proc&#45;&gt;GizGuard01 -->
<g id="edge2" class="edge">
<title>talk_p_proc&#45;&gt;GizGuard01</title>
<path fill="none" stroke="#555555" stroke-dasharray="1,5" d="M485.8,-397.46C482.82,-389.33 479.17,-379.36 475.82,-370.21"/>
<polygon fill="#555555" stroke="#555555" points="478.8,-369.18 472.07,-360.99 472.23,-371.59 478.8,-369.18"/>
</g>
<!-- GizGuard02 -->
<g id="node9" class="node">
<title>GizGuard02</title>
<ellipse fill="#ffffff" stroke="#000000" cx="545.96" cy="-342.29" rx="34.9" ry="18"/>
<text text-anchor="middle" x="545.96" y="-337.61" font-family="Times,serif" font-size="14.00">Что?</text>
</g>
<!-- talk_p_proc&#45;&gt;GizGuard02 -->
<g id="edge3" class="edge">
<title>talk_p_proc&#45;&gt;GizGuard02</title>
<path fill="none" stroke="#555555" stroke-dasharray="1,5" d="M503.67,-398.88C510.54,-389.86 519.36,-378.26 527.17,-367.99"/>
<polygon fill="#555555" stroke="#555555" points="530.43,-370.48 533.7,-360.4 524.86,-366.24 530.43,-370.48"/>
</g>
<!-- GizGuard07 -->
<g id="node10" class="node">
<title>GizGuard07</title>
<ellipse fill="#ffffff" stroke="#000000" cx="625.96" cy="-342.29" rx="27" ry="18"/>
</g>
<!-- talk_p_proc&#45;&gt;GizGuard07 -->
<g id="edge4" class="edge">
<title>talk_p_proc&#45;&gt;GizGuard07</title>
<path fill="none" stroke="#555555" stroke-dasharray="1,5" d="M512.6,-403.35C534.9,-391.54 570.62,-372.61 596,-359.16"/>
<polygon fill="#555555" stroke="#555555" points="597.31,-361.9 604.51,-354.12 594.03,-355.71 597.31,-361.9"/>
</g>
<!-- GizGuard03 -->
<g id="node13" class="node">
<title>GizGuard03</title>
<ellipse fill="#ffffff" stroke="#000000" cx="241.96" cy="-216.59" rx="104.65" ry="54.45"/>
<text text-anchor="middle" x="241.96" y="-237.79" font-family="Times,serif" font-size="14.00">Я на посту. Давай</text>
<text text-anchor="middle" x="241.96" y="-220.54" font-family="Times,serif" font-size="14.00">побыстрее.</text>
<text text-anchor="middle" x="241.96" y="-203.29" font-family="Times,serif" font-size="14.00">&#45;&#45;&#45;</text>
<text text-anchor="middle" x="241.96" y="-186.04" font-family="Times,serif" font-size="14.00">Нет. Уходи.</text>
</g>
<!-- GizGuard02&#45;&gt;GizGuard03 -->
<g id="edge5" class="edge">
<title>GizGuard02&#45;&gt;GizGuard03</title>
<path fill="none" stroke="#2f0099" d="M520.3,-329.91C514.37,-327.7 508.03,-325.65 501.96,-324.29 475.03,-318.25 274.34,-325.16 254.21,-306.29 247.2,-299.72 242.86,-291.16 240.31,-281.95"/>
<polygon fill="#2f0099" stroke="#2f0099" points="243.58,-281.45 238.15,-272.35 236.72,-282.85 243.58,-281.45"/>
<text text-anchor="middle" x="342.33" y="-292.99" font-family="Times,serif" font-size="14.00" fill="#2f0099">Привет, можно вопрос?</text>
</g>
<!-- GizGuard04 -->
<g id="node14" class="node">
<title>GizGuard04</title>
<ellipse fill="#ffffff" stroke="#000000" cx="439.96" cy="-216.59" rx="27" ry="18"/>
</g>
<!-- GizGuard02&#45;&gt;GizGuard04 -->
<g id="edge6" class="edge">
<title>GizGuard02&#45;&gt;GizGuard04</title>
<path fill="none" stroke="#009902" d="M519.09,-330.51C513.46,-328.36 507.54,-326.19 501.96,-324.29 475.2,-315.19 458.01,-328.83 440.96,-306.29 427.97,-289.12 428.87,-264.26 432.36,-245.22"/>
<polygon fill="#009902" stroke="#009902" points="435.98,-246.03 434.7,-235.51 429.14,-244.54 435.98,-246.03"/>
<text text-anchor="middle" x="535.46" y="-292.99" font-family="Times,serif" font-size="14.00" fill="#009902">Одолжишь пару крышек?</text>
</g>
<!-- GizGuardEnd -->
<g id="node15" class="node">
<title>GizGuardEnd</title>
<ellipse fill="#ffffff" stroke="#000000" cx="651.96" cy="-216.59" rx="27" ry="18"/>
</g>
<!-- GizGuard02&#45;&gt;GizGuardEnd -->
<g id="edge7" class="edge">
<title>GizGuard02&#45;&gt;GizGuardEnd</title>
<path fill="none" stroke="#99002a" d="M573.02,-330.69C596.8,-321.27 627.94,-308.64 629.96,-306.29 644.32,-289.56 649.57,-264.87 651.37,-245.77"/>
<polygon fill="#99002a" stroke="#99002a" points="654.92,-246.22 652.09,-236.01 647.93,-245.76 654.92,-246.22"/>
<text text-anchor="middle" x="687.08" y="-292.99" font-family="Times,serif" font-size="14.00" fill="#99002a">Нет, ничего.</text>
</g>
<!-- GizGuard08 -->
<g id="node16" class="node">
<title>GizGuard08</title>
<ellipse fill="#ffffff" stroke="#000000" cx="836.96" cy="-216.59" rx="140.18" ry="30.05"/>
<text text-anchor="middle" x="836.96" y="-220.54" font-family="Times,serif" font-size="14.00">Проваливай, безмозглое</text>
<text text-anchor="middle" x="836.96" y="-203.29" font-family="Times,serif" font-size="14.00">существо!</text>
</g>
<!-- GizGuard02&#45;&gt;GizGuard08 -->
<g id="edge8" class="edge">
<title>GizGuard02&#45;&gt;GizGuard08</title>
<path fill="none" stroke="#005799" d="M572.14,-329.96C577.92,-327.8 584.08,-325.76 589.96,-324.29 653.81,-308.31 676.96,-333.35 736.96,-306.29 763.24,-294.43 787.57,-273.19 805.65,-254.47"/>
<polygon fill="#005799" stroke="#005799" points="807.71,-257.32 812,-247.63 802.6,-252.53 807.71,-257.32"/>
<text text-anchor="middle" x="787.33" y="-292.99" font-family="Times,serif" font-size="14.00" fill="#005799">У&#45;у&#45;у?</text>
</g>
<!-- timed_event_p_proc -->
<g id="node11" class="node">
<title>timed_event_p_proc</title>
<ellipse fill="#ffffff" stroke="#000000" cx="563.96" cy="-415.29" rx="27" ry="18"/>
</g>
<!-- damage_p_proc -->
<g id="node12" class="node">
<title>damage_p_proc</title>
<ellipse fill="#ffffff" stroke="#000000" cx="635.96" cy="-415.29" rx="27" ry="18"/>
</g>
<!-- GizGuard05 -->
<g id="node17" class="node">
<title>GizGuard05</title>
<ellipse fill="#ffffff" stroke="#000000" cx="144.96" cy="-54.45" rx="144.96" ry="54.45"/>
<text text-anchor="middle" x="144.96" y="-75.65" font-family="Times,serif" font-size="14.00">Гизмо &#45; правильный босс.</text>
<text text-anchor="middle" x="144.96" y="-58.4" font-family="Times,serif" font-size="14.00">Хорошо платит, не</text>
<text text-anchor="middle" x="144.96" y="-41.15" font-family="Times,serif" font-size="14.00">зверствует. Будь проще и</text>
<text text-anchor="middle" x="144.96" y="-23.9" font-family="Times,serif" font-size="14.00">не создавай проблем!</text>
</g>
<!-- GizGuard03&#45;&gt;GizGuard05 -->
<g id="edge9" class="edge">
<title>GizGuard03&#45;&gt;GizGuard05</title>
<path fill="none" stroke="#849900" d="M172.09,-176.13C161.58,-167.03 152.18,-156.36 145.96,-144.14 142.12,-136.62 139.89,-128.25 138.74,-119.74"/>
<polygon fill="#849900" stroke="#849900" points="142.16,-119.61 137.83,-109.94 135.18,-120.19 142.16,-119.61"/>
<text text-anchor="middle" x="231.46" y="-130.84" font-family="Times,serif" font-size="14.00" fill="#849900">На кого ты работаешь?</text>
</g>
<!-- GizGuard06 -->
<g id="node18" class="node">
<title>GizGuard06</title>
<ellipse fill="#ffffff" stroke="#000000" cx="338.96" cy="-54.45" rx="27" ry="18"/>
</g>
<!-- GizGuard03&#45;&gt;GizGuard06 -->
<g id="edge10" class="edge">
<title>GizGuard03&#45;&gt;GizGuard06</title>
<path fill="none" stroke="#820099" d="M297.37,-170.08C304.77,-162.06 311.63,-153.32 316.96,-144.14 327.73,-125.6 333.26,-101.91 336.08,-83.68"/>
<polygon fill="#820099" stroke="#820099" points="339.67,-84.24 337.54,-73.86 332.73,-83.31 339.67,-84.24"/>
<text text-anchor="middle" x="423.21" y="-130.84" font-family="Times,serif" font-size="14.00" fill="#820099">Что интересного в городе?</text>
</g>
</g>
</svg>
