<?xml version="1.0" encoding="UTF-8" standalone="no"?>
<!DOCTYPE svg PUBLIC "-//W3C//DTD SVG 1.1//EN"
 "http://www.w3.org/Graphics/SVG/1.1/DTD/svg11.dtd">
<!-- Generated by graphviz version 8.0.5 (0)
 -->
<!-- Title: hchdgrd Pages: 1 -->
<svg width="4957pt" height="1227pt"
 viewBox="0.00 0.00 4956.59 1227.03" xmlns="http://www.w3.org/2000/svg" xmlns:xlink="http://www.w3.org/1999/xlink">
<g id="graph0" class="graph" transform="scale(1 1) rotate(0) translate(4 1223.03)">
<title>hchdgrd</title>
<polygon fill="white" stroke="none" points="-4,4 -4,-1223.03 4952.59,-1223.03 4952.59,4 -4,4"/>
<!-- start -->
<g id="node1" class="node">
<title>start</title>
<ellipse fill="#ffffff" stroke="#000000" cx="1094" cy="-1188.98" rx="27" ry="18"/>
</g>
<!-- combat -->
<g id="node2" class="node">
<title>combat</title>
<ellipse fill="#ffffff" stroke="#000000" cx="409" cy="-380.21" rx="27" ry="18"/>
</g>
<!-- critter_p_proc -->
<g id="node3" class="node">
<title>critter_p_proc</title>
<ellipse fill="#ffffff" stroke="#000000" cx="409" cy="-644.99" rx="27" ry="18"/>
</g>
<!-- critter_p_proc&#45;&gt;combat -->
<g id="edge1" class="edge">
<title>critter_p_proc&#45;&gt;combat</title>
<path fill="none" stroke="#555555" stroke-dasharray="1,5" d="M409,-626.75C409,-582.39 409,-463.98 409,-409.44"/>
<polygon fill="#555555" stroke="#555555" points="412.5,-409.52 409,-399.52 405.5,-409.52 412.5,-409.52"/>
</g>
<!-- pickup_p_proc -->
<g id="node4" class="node">
<title>pickup_p_proc</title>
<ellipse fill="#ffffff" stroke="#000000" cx="1238" cy="-1188.98" rx="27" ry="18"/>
</g>
<!-- talk_p_proc -->
<g id="node5" class="node">
<title>talk_p_proc</title>
<ellipse fill="#ffffff" stroke="#000000" cx="1166" cy="-1188.98" rx="27" ry="18"/>
</g>
<!-- get_reaction -->
<g id="node6" class="node">
<title>get_reaction</title>
<ellipse fill="#ffffff" stroke="#000000" cx="168" cy="-1079.67" rx="27" ry="18"/>
</g>
<!-- talk_p_proc&#45;&gt;get_reaction -->
<g id="edge2" class="edge">
<title>talk_p_proc&#45;&gt;get_reaction</title>
<path fill="none" stroke="#555555" stroke-dasharray="1,5" d="M1151.97,-1173.08C1145.82,-1167.57 1138.14,-1161.93 1130,-1158.92 1063.16,-1134.26 559.84,-1148.52 489,-1140.92 384.39,-1129.71 262.8,-1103.1 203.79,-1089.3"/>
<polygon fill="#555555" stroke="#555555" points="204.72,-1085.69 194.18,-1086.8 203.11,-1092.51 204.72,-1085.69"/>
</g>
<!-- ChildGuard32 -->
<g id="node7" class="node">
<title>ChildGuard32</title>
<ellipse fill="#ffffff" stroke="#000000" cx="769" cy="-1079.67" rx="98.03" ry="18"/>
<text text-anchor="middle" x="769" y="-1075" font-family="Times,serif" font-size="14.00">Ты что делаешь?</text>
</g>
<!-- talk_p_proc&#45;&gt;ChildGuard32 -->
<g id="edge3" class="edge">
<title>talk_p_proc&#45;&gt;ChildGuard32</title>
<path fill="none" stroke="#555555" stroke-dasharray="1,5" d="M1151.31,-1173.53C1145.17,-1168.21 1137.68,-1162.6 1130,-1158.92 1117.03,-1152.72 944.95,-1116.78 843.13,-1095.83"/>
<polygon fill="#555555" stroke="#555555" points="844.1,-1092.25 833.6,-1093.67 842.69,-1099.11 844.1,-1092.25"/>
</g>
<!-- ChildGuard37 -->
<g id="node8" class="node">
<title>ChildGuard37</title>
<ellipse fill="#ffffff" stroke="#000000" cx="122" cy="-1001.42" rx="27" ry="18"/>
</g>
<!-- talk_p_proc&#45;&gt;ChildGuard37 -->
<g id="edge4" class="edge">
<title>talk_p_proc&#45;&gt;ChildGuard37</title>
<path fill="none" stroke="#555555" stroke-dasharray="1,5" d="M1151.9,-1173.29C1145.72,-1167.8 1138.06,-1162.13 1130,-1158.92 1033.08,-1120.33 765.18,-1137.34 662,-1121.92 469.36,-1093.14 242.94,-1034.94 157.24,-1012.01"/>
<polygon fill="#555555" stroke="#555555" points="158.37,-1008.42 147.8,-1009.21 156.55,-1015.18 158.37,-1008.42"/>
</g>
<!-- ChildGuard00 -->
<g id="node9" class="node">
<title>ChildGuard00</title>
<ellipse fill="#ffffff" stroke="#000000" cx="535" cy="-784.08" rx="134.88" ry="30.05"/>
<text text-anchor="middle" x="535" y="-788.03" font-family="Times,serif" font-size="14.00">Филлипс! Убери отсюда</text>
<text text-anchor="middle" x="535" y="-770.78" font-family="Times,serif" font-size="14.00">этого парня!</text>
</g>
<!-- talk_p_proc&#45;&gt;ChildGuard00 -->
<g id="edge5" class="edge">
<title>talk_p_proc&#45;&gt;ChildGuard00</title>
<path fill="none" stroke="#555555" stroke-dasharray="1,5" d="M1149.88,-1174.16C1132.07,-1158.58 1104.95,-1133.87 1098,-1121.92 1066.01,-1066.96 1090.02,-1040.52 1062,-983.42 1024.55,-907.12 1019.67,-872.75 945,-832.13 903.08,-809.33 778.41,-819.64 731,-814.13 706.03,-811.24 679.35,-807.63 653.97,-803.95"/>
<polygon fill="#555555" stroke="#555555" points="654.58,-800.35 644.18,-802.37 653.57,-807.28 654.58,-800.35"/>
</g>
<!-- ChildGuard36 -->
<g id="node10" class="node">
<title>ChildGuard36</title>
<ellipse fill="#ffffff" stroke="#000000" cx="1253" cy="-1079.67" rx="146.02" ry="42.25"/>
<text text-anchor="middle" x="1253" y="-1092.25" font-family="Times,serif" font-size="14.00">Нам нельзя с тобой</text>
<text text-anchor="middle" x="1253" y="-1075" font-family="Times,serif" font-size="14.00">разговаривать. Иди своей</text>
<text text-anchor="middle" x="1253" y="-1057.75" font-family="Times,serif" font-size="14.00">дорогой.</text>
</g>
<!-- talk_p_proc&#45;&gt;ChildGuard36 -->
<g id="edge6" class="edge">
<title>talk_p_proc&#45;&gt;ChildGuard36</title>
<path fill="none" stroke="#555555" stroke-dasharray="1,5" d="M1178.46,-1172.6C1187.75,-1161.15 1200.96,-1144.85 1213.7,-1129.15"/>
<polygon fill="#555555" stroke="#555555" points="1216.71,-1131.99 1220.29,-1122.02 1211.27,-1127.58 1216.71,-1131.99"/>
</g>
<!-- ChildGuard01 -->
<g id="node11" class="node">
<title>ChildGuard01</title>
<ellipse fill="#ffffff" stroke="#000000" cx="1521" cy="-1079.67" rx="103.82" ry="18"/>
<text text-anchor="middle" x="1521" y="-1075" font-family="Times,serif" font-size="14.00">Убирайся отсюда!</text>
</g>
<!-- talk_p_proc&#45;&gt;ChildGuard01 -->
<g id="edge7" class="edge">
<title>talk_p_proc&#45;&gt;ChildGuard01</title>
<path fill="none" stroke="#555555" stroke-dasharray="1,5" d="M1180.62,-1173.38C1186.75,-1168.05 1194.26,-1162.46 1202,-1158.92 1286.62,-1120.28 1318.2,-1146.18 1408,-1121.92 1429.28,-1116.18 1452.21,-1108.16 1471.83,-1100.72"/>
<polygon fill="#555555" stroke="#555555" points="1472.98,-1103.64 1481.05,-1096.78 1470.46,-1097.11 1472.98,-1103.64"/>
</g>
<!-- ChildGuard02 -->
<g id="node12" class="node">
<title>ChildGuard02</title>
<ellipse fill="#ffffff" stroke="#000000" cx="1781" cy="-1079.67" rx="98.03" ry="18"/>
<text text-anchor="middle" x="1781" y="-1075" font-family="Times,serif" font-size="14.00">Чего ты хочешь?</text>
</g>
<!-- talk_p_proc&#45;&gt;ChildGuard02 -->
<g id="edge8" class="edge">
<title>talk_p_proc&#45;&gt;ChildGuard02</title>
<path fill="none" stroke="#555555" stroke-dasharray="1,5" d="M1180.11,-1173.32C1186.29,-1167.83 1193.95,-1162.16 1202,-1158.92 1291.4,-1122.99 1539.2,-1139.13 1634,-1121.92 1664.39,-1116.41 1697.57,-1107.37 1724.71,-1099.15"/>
<polygon fill="#555555" stroke="#555555" points="1725.65,-1102.22 1734.18,-1095.94 1723.59,-1095.53 1725.65,-1102.22"/>
</g>
<!-- ChildGuard30 -->
<g id="node13" class="node">
<title>ChildGuard30</title>
<ellipse fill="#ffffff" stroke="#000000" cx="2035" cy="-1079.67" rx="138.06" ry="30.05"/>
<text text-anchor="middle" x="2035" y="-1083.62" font-family="Times,serif" font-size="14.00">Не отвлекай меня. Босс</text>
<text text-anchor="middle" x="2035" y="-1066.37" font-family="Times,serif" font-size="14.00">этого не любит. Извини.</text>
</g>
<!-- talk_p_proc&#45;&gt;ChildGuard30 -->
<g id="edge9" class="edge">
<title>talk_p_proc&#45;&gt;ChildGuard30</title>
<path fill="none" stroke="#555555" stroke-dasharray="1,5" d="M1180.06,-1173.19C1186.23,-1167.69 1193.9,-1162.03 1202,-1158.92 1273.27,-1131.57 1812.69,-1134.37 1888,-1121.92 1908.06,-1118.61 1929.3,-1113.58 1949.21,-1108.15"/>
<polygon fill="#555555" stroke="#555555" points="1950.11,-1111.26 1958.8,-1105.2 1948.23,-1104.52 1950.11,-1111.26"/>
</g>
<!-- ReactToLevel -->
<g id="node50" class="node">
<title>ReactToLevel</title>
<ellipse fill="#ffffff" stroke="#000000" cx="27" cy="-898.78" rx="27" ry="18"/>
</g>
<!-- get_reaction&#45;&gt;ReactToLevel -->
<g id="edge49" class="edge">
<title>get_reaction&#45;&gt;ReactToLevel</title>
<path fill="none" stroke="#555555" stroke-dasharray="1,5" d="M147.28,-1067.59C129.25,-1057.1 103.34,-1039.95 86,-1019.42 62.46,-991.56 45.55,-952.7 36.03,-926.91"/>
<polygon fill="#555555" stroke="#555555" points="39.05,-925.98 32.4,-917.73 32.46,-928.33 39.05,-925.98"/>
</g>
<!-- ChildGuard31 -->
<g id="node46" class="node">
<title>ChildGuard31</title>
<ellipse fill="#ffffff" stroke="#000000" cx="347" cy="-784.08" rx="48.58" ry="18"/>
<text text-anchor="middle" x="347" y="-779.41" font-family="Times,serif" font-size="14.00">Эй, ты!</text>
</g>
<!-- ChildGuard32&#45;&gt;ChildGuard31 -->
<g id="edge47" class="edge">
<title>ChildGuard32&#45;&gt;ChildGuard31</title>
<path fill="none" stroke="#009965" d="M840.32,-1066.97C868.49,-1058.56 898.29,-1044.14 916,-1019.42 939.37,-986.79 958.65,-873.18 919,-832.13 898.96,-811.38 427.82,-821.78 400,-814.13 392.86,-812.17 385.63,-809.09 378.91,-805.65"/>
<polygon fill="#009965" stroke="#009965" points="380.92,-802.21 370.48,-800.44 377.54,-808.34 380.92,-802.21"/>
<text text-anchor="middle" x="995" y="-996.75" font-family="Times,serif" font-size="14.00" fill="#009965">Ну все, держись!</text>
</g>
<!-- ChildGuard33 -->
<g id="node47" class="node">
<title>ChildGuard33</title>
<ellipse fill="#ffffff" stroke="#000000" cx="771" cy="-898.78" rx="138.54" ry="18"/>
<text text-anchor="middle" x="771" y="-894.1" font-family="Times,serif" font-size="14.00">Не твое дело! Убирайся!</text>
</g>
<!-- ChildGuard32&#45;&gt;ChildGuard33 -->
<g id="edge44" class="edge">
<title>ChildGuard32&#45;&gt;ChildGuard33</title>
<path fill="none" stroke="#004799" d="M769.2,-1061.19C769.54,-1030.12 770.27,-965.03 770.69,-927.69"/>
<polygon fill="#004799" stroke="#004799" points="774.19,-928.1 770.81,-918.07 767.2,-928.03 774.19,-928.1"/>
<text text-anchor="middle" x="843.75" y="-996.75" font-family="Times,serif" font-size="14.00" fill="#004799">Зачем здесь замок?</text>
</g>
<!-- ChildGuard34 -->
<g id="node48" class="node">
<title>ChildGuard34</title>
<ellipse fill="#ffffff" stroke="#000000" cx="212" cy="-898.78" rx="102.24" ry="18"/>
<text text-anchor="middle" x="212" y="-894.1" font-family="Times,serif" font-size="14.00">Теперь убирайся!</text>
</g>
<!-- ChildGuard32&#45;&gt;ChildGuard34 -->
<g id="edge45" class="edge">
<title>ChildGuard32&#45;&gt;ChildGuard34</title>
<path fill="none" stroke="#749900" d="M690.4,-1068.55C625.85,-1059.15 532.5,-1043.01 453.25,-1019.42 393.19,-1001.55 379.05,-993.44 323,-965.42 296.83,-952.34 268.46,-935.51 246.95,-922.17"/>
<polygon fill="#749900" stroke="#749900" points="249.22,-918.83 238.88,-916.5 245.5,-924.77 249.22,-918.83"/>
<text text-anchor="middle" x="496.38" y="-996.75" font-family="Times,serif" font-size="14.00" fill="#749900">Ладно, все!</text>
</g>
<!-- ChildGuard35 -->
<g id="node49" class="node">
<title>ChildGuard35</title>
<ellipse fill="#ffffff" stroke="#000000" cx="473" cy="-898.78" rx="141.24" ry="30.05"/>
<text text-anchor="middle" x="473" y="-902.73" font-family="Times,serif" font-size="14.00">Отвали! Еще раз такое</text>
<text text-anchor="middle" x="473" y="-885.48" font-family="Times,serif" font-size="14.00">учудишь, я тебя прибью!</text>
</g>
<!-- ChildGuard32&#45;&gt;ChildGuard35 -->
<g id="edge46" class="edge">
<title>ChildGuard32&#45;&gt;ChildGuard35</title>
<path fill="none" stroke="#910099" d="M701.81,-1066.33C664.52,-1057.35 618.5,-1042.61 582.25,-1019.42 548.82,-998.05 519.07,-963.9 499.08,-937.55"/>
<polygon fill="#910099" stroke="#910099" points="501.46,-935.88 492.69,-929.94 495.84,-940.06 501.46,-935.88"/>
<text text-anchor="middle" x="674.88" y="-1005.37" font-family="Times,serif" font-size="14.00" fill="#910099">Помоги мне с дверью, а?</text>
<text text-anchor="middle" x="674.88" y="-988.12" font-family="Times,serif" font-size="14.00" fill="#910099">Что&#45;то не могу открыть!</text>
</g>
<!-- ChildGuard37&#45;&gt;combat -->
<g id="edge48" class="edge">
<title>ChildGuard37&#45;&gt;combat</title>
<path fill="none" stroke="#555555" stroke-dasharray="1,5" d="M110.22,-984.88C106.51,-979.09 102.89,-972.25 101,-965.42 85.19,-908.33 83.51,-888.73 101,-832.13 159.25,-643.59 326.4,-463.54 386.85,-402.82"/>
<polygon fill="#555555" stroke="#555555" points="388.71,-405.91 393.33,-396.37 383.77,-400.95 388.71,-405.91"/>
</g>
<!-- ChildGuard00&#45;&gt;combat -->
<g id="edge10" class="edge">
<title>ChildGuard00&#45;&gt;combat</title>
<path fill="none" stroke="#555555" stroke-dasharray="1,5" d="M501.58,-754.58C496.42,-748.88 491.61,-742.61 488,-736.03 479.99,-721.43 431.48,-489.7 414.71,-408.81"/>
<polygon fill="#555555" stroke="#555555" points="418.01,-408.52 412.56,-399.44 411.16,-409.94 418.01,-408.52"/>
</g>
<!-- ChildGuard03 -->
<g id="node18" class="node">
<title>ChildGuard03</title>
<ellipse fill="#ffffff" stroke="#000000" cx="2917" cy="-898.78" rx="137.53" ry="66.64"/>
<text text-anchor="middle" x="2917" y="-928.6" font-family="Times,serif" font-size="14.00">Я наемник. Если</text>
<text text-anchor="middle" x="2917" y="-911.35" font-family="Times,serif" font-size="14.00">кто&#45;нибудь побеспокоит</text>
<text text-anchor="middle" x="2917" y="-894.1" font-family="Times,serif" font-size="14.00">этих психов, я его убью.</text>
<text text-anchor="middle" x="2917" y="-876.85" font-family="Times,serif" font-size="14.00">У тебя что, какие&#45;то</text>
<text text-anchor="middle" x="2917" y="-859.6" font-family="Times,serif" font-size="14.00">проблемы?</text>
</g>
<!-- ChildGuard02&#45;&gt;ChildGuard03 -->
<g id="edge11" class="edge">
<title>ChildGuard02&#45;&gt;ChildGuard03</title>
<path fill="none" stroke="#000199" d="M1815.39,-1062.52C1835.99,-1053.58 1862.96,-1043.15 1888,-1037.42 1983.2,-1015.64 2009.98,-1030.57 2107,-1019.42 2342.78,-992.35 2615.55,-949.7 2776.77,-923.31"/>
<polygon fill="#000199" stroke="#000199" points="2776.92,-926.66 2786.22,-921.59 2775.79,-919.76 2776.92,-926.66"/>
<text text-anchor="middle" x="2456.75" y="-996.75" font-family="Times,serif" font-size="14.00" fill="#000199">Чем ты занимаешься?</text>
</g>
<!-- ChildGuard04 -->
<g id="node19" class="node">
<title>ChildGuard04</title>
<ellipse fill="#ffffff" stroke="#000000" cx="4167" cy="-898.78" rx="144.96" ry="54.45"/>
<text text-anchor="middle" x="4167" y="-919.98" font-family="Times,serif" font-size="14.00">Поклонение Священному</text>
<text text-anchor="middle" x="4167" y="-902.73" font-family="Times,serif" font-size="14.00">Огню. Не слушай эту</text>
<text text-anchor="middle" x="4167" y="-885.48" font-family="Times,serif" font-size="14.00">хрень, а то и у тебя</text>
<text text-anchor="middle" x="4167" y="-868.23" font-family="Times,serif" font-size="14.00">мозги расплавятся.</text>
</g>
<!-- ChildGuard02&#45;&gt;ChildGuard04 -->
<g id="edge12" class="edge">
<title>ChildGuard02&#45;&gt;ChildGuard04</title>
<path fill="none" stroke="#2d9900" d="M1814.33,-1062.44C1835.01,-1053.23 1862.43,-1042.55 1888,-1037.42 2030.56,-1008.86 2396.8,-1026.76 2542,-1019.42 3084.7,-991.99 3727.9,-938.36 4015.22,-913.3"/>
<polygon fill="#2d9900" stroke="#2d9900" points="4015.46,-916.7 4025.12,-912.34 4014.86,-909.73 4015.46,-916.7"/>
<text text-anchor="middle" x="3187.5" y="-996.75" font-family="Times,serif" font-size="14.00" fill="#2d9900">Что это за место?</text>
</g>
<!-- ChildGuard05 -->
<g id="node20" class="node">
<title>ChildGuard05</title>
<ellipse fill="#ffffff" stroke="#000000" cx="1255" cy="-898.78" rx="147.61" ry="42.25"/>
<text text-anchor="middle" x="1255" y="-911.35" font-family="Times,serif" font-size="14.00">Водяной чип? Не слышал.</text>
<text text-anchor="middle" x="1255" y="-894.1" font-family="Times,serif" font-size="14.00">Это название какой&#45;то</text>
<text text-anchor="middle" x="1255" y="-876.85" font-family="Times,serif" font-size="14.00">горы?</text>
</g>
<!-- ChildGuard02&#45;&gt;ChildGuard05 -->
<g id="edge13" class="edge">
<title>ChildGuard02&#45;&gt;ChildGuard05</title>
<path fill="none" stroke="#99005a" d="M1735.18,-1063.4C1706.44,-1054.42 1668.43,-1043.65 1634,-1037.42 1540.51,-1020.51 1510.1,-1052.39 1421,-1019.42 1377.72,-1003.41 1335.63,-972.84 1304.65,-946.62"/>
<polygon fill="#99005a" stroke="#99005a" points="1307.49,-943.58 1297.63,-939.7 1302.92,-948.88 1307.49,-943.58"/>
<text text-anchor="middle" x="1505" y="-1005.37" font-family="Times,serif" font-size="14.00" fill="#99005a">Не знаешь, где бы мне</text>
<text text-anchor="middle" x="1505" y="-988.12" font-family="Times,serif" font-size="14.00" fill="#99005a">найти водяной чип?</text>
</g>
<!-- ChildGuard06 -->
<g id="node21" class="node">
<title>ChildGuard06</title>
<ellipse fill="#ffffff" stroke="#000000" cx="1641" cy="-380.21" rx="146.02" ry="54.45"/>
<text text-anchor="middle" x="1641" y="-401.41" font-family="Times,serif" font-size="14.00">Да, я о нем слышал. Тот</text>
<text text-anchor="middle" x="1641" y="-384.16" font-family="Times,serif" font-size="14.00">еще сукин сын, но платит</text>
<text text-anchor="middle" x="1641" y="-366.91" font-family="Times,serif" font-size="14.00">хорошие деньги. Филлипс</text>
<text text-anchor="middle" x="1641" y="-349.66" font-family="Times,serif" font-size="14.00">пару раз на него работал.</text>
</g>
<!-- ChildGuard02&#45;&gt;ChildGuard06 -->
<g id="edge14" class="edge">
<title>ChildGuard02&#45;&gt;ChildGuard06</title>
<path fill="none" stroke="#008799" d="M1763.5,-1061.5C1724.79,-1022.13 1632.69,-920.5 1599.75,-814.13 1560.51,-687.44 1594.55,-530.76 1619.77,-444.91"/>
<polygon fill="#008799" stroke="#008799" points="1623.36,-446.13 1622.88,-435.55 1616.66,-444.12 1623.36,-446.13"/>
<text text-anchor="middle" x="1700.12" y="-788.03" font-family="Times,serif" font-size="14.00" fill="#008799">Знаешь человека по имени</text>
<text text-anchor="middle" x="1700.12" y="-770.78" font-family="Times,serif" font-size="14.00" fill="#008799">Декер?</text>
</g>
<!-- ChildGuard02a -->
<g id="node22" class="node">
<title>ChildGuard02a</title>
<ellipse fill="#ffffff" stroke="#000000" cx="1813" cy="-898.78" rx="27" ry="18"/>
</g>
<!-- ChildGuard02&#45;&gt;ChildGuard02a -->
<g id="edge15" class="edge">
<title>ChildGuard02&#45;&gt;ChildGuard02a</title>
<path fill="none" stroke="#997f00" d="M1782.9,-1061.39C1785.1,-1042.26 1789.08,-1010.52 1794,-983.42 1797.41,-964.61 1802.18,-943.64 1806.09,-927.39"/>
<polygon fill="#997f00" stroke="#997f00" points="1809.65,-928.53 1808.63,-917.99 1802.85,-926.87 1809.65,-928.53"/>
<text text-anchor="middle" x="1890" y="-996.75" font-family="Times,serif" font-size="14.00" fill="#997f00">У тебя классное оружие...</text>
</g>
<!-- ChildGuard09 -->
<g id="node23" class="node">
<title>ChildGuard09</title>
<ellipse fill="#ffffff" stroke="#000000" cx="2008" cy="-898.78" rx="150.12" ry="18"/>
<text text-anchor="middle" x="2008" y="-894.1" font-family="Times,serif" font-size="14.00">Убирайся, пока ноги целы.</text>
</g>
<!-- ChildGuard02&#45;&gt;ChildGuard09 -->
<g id="edge16" class="edge">
<title>ChildGuard02&#45;&gt;ChildGuard09</title>
<path fill="none" stroke="#520099" d="M1817.56,-1062.63C1837.98,-1054.17 1864.05,-1044.18 1888,-1037.42 1930.62,-1025.41 1954.68,-1050.73 1986,-1019.42 2009.78,-995.64 2012.49,-955.15 2011.14,-927.94"/>
<polygon fill="#520099" stroke="#520099" points="2014.57,-927.9 2010.36,-918.18 2007.59,-928.4 2014.57,-927.9"/>
<text text-anchor="middle" x="2054.38" y="-996.75" font-family="Times,serif" font-size="14.00" fill="#520099">О... молочко.</text>
</g>
<!-- destroy_p_proc -->
<g id="node14" class="node">
<title>destroy_p_proc</title>
<ellipse fill="#ffffff" stroke="#000000" cx="1310" cy="-1188.98" rx="27" ry="18"/>
</g>
<!-- look_at_p_proc -->
<g id="node15" class="node">
<title>look_at_p_proc</title>
<ellipse fill="#ffffff" stroke="#000000" cx="1479" cy="-1188.98" rx="123.74" ry="30.05"/>
<text text-anchor="middle" x="1479" y="-1192.93" font-family="Times,serif" font-size="14.00">Вы видите охранника</text>
<text text-anchor="middle" x="1479" y="-1175.68" font-family="Times,serif" font-size="14.00">Собора.</text>
</g>
<!-- damage_p_proc -->
<g id="node16" class="node">
<title>damage_p_proc</title>
<ellipse fill="#ffffff" stroke="#000000" cx="1648" cy="-1188.98" rx="27" ry="18"/>
</g>
<!-- map_enter_p_proc -->
<g id="node17" class="node">
<title>map_enter_p_proc</title>
<ellipse fill="#ffffff" stroke="#000000" cx="1720" cy="-1188.98" rx="27" ry="18"/>
</g>
<!-- ChildGuard10 -->
<g id="node26" class="node">
<title>ChildGuard10</title>
<ellipse fill="#ffffff" stroke="#000000" cx="2594" cy="-644.99" rx="148.67" ry="30.05"/>
<text text-anchor="middle" x="2594" y="-648.94" font-family="Times,serif" font-size="14.00">Да ты прямо гений мозга!</text>
<text text-anchor="middle" x="2594" y="-631.69" font-family="Times,serif" font-size="14.00">Нет, я доктор Морбид!</text>
</g>
<!-- ChildGuard03&#45;&gt;ChildGuard10 -->
<g id="edge19" class="edge">
<title>ChildGuard03&#45;&gt;ChildGuard10</title>
<path fill="none" stroke="#009926" d="M2834.49,-845.21C2819.71,-835.2 2804.6,-824.58 2790.75,-814.13 2733.81,-771.2 2671.85,-716.87 2632.98,-681.78"/>
<polygon fill="#009926" stroke="#009926" points="2635.81,-679.71 2626.05,-675.6 2631.11,-684.9 2635.81,-679.71"/>
<text text-anchor="middle" x="2852.12" y="-788.03" font-family="Times,serif" font-size="14.00" fill="#009926">Значит, ты</text>
<text text-anchor="middle" x="2852.12" y="-770.78" font-family="Times,serif" font-size="14.00" fill="#009926">телохранитель...</text>
</g>
<!-- ChildGuard11 -->
<g id="node27" class="node">
<title>ChildGuard11</title>
<ellipse fill="#ffffff" stroke="#000000" cx="2917" cy="-644.99" rx="156.09" ry="30.05"/>
<text text-anchor="middle" x="2917" y="-648.94" font-family="Times,serif" font-size="14.00">Эта святоша&#45;проповедница,</text>
<text text-anchor="middle" x="2917" y="-631.69" font-family="Times,serif" font-size="14.00">кто же еще!</text>
</g>
<!-- ChildGuard03&#45;&gt;ChildGuard11 -->
<g id="edge20" class="edge">
<title>ChildGuard03&#45;&gt;ChildGuard11</title>
<path fill="none" stroke="#990007" d="M2917,-831.95C2917,-785.8 2917,-725.58 2917,-686.37"/>
<polygon fill="#990007" stroke="#990007" points="2920.5,-686.4 2917,-676.4 2913.5,-686.4 2920.5,-686.4"/>
<text text-anchor="middle" x="2977" y="-779.41" font-family="Times,serif" font-size="14.00" fill="#990007">Кто тебя нанял?</text>
</g>
<!-- ChildGuard12 -->
<g id="node28" class="node">
<title>ChildGuard12</title>
<ellipse fill="#ffffff" stroke="#000000" cx="3838" cy="-644.99" rx="148.67" ry="42.25"/>
<text text-anchor="middle" x="3838" y="-657.57" font-family="Times,serif" font-size="14.00">В последнее время я этим</text>
<text text-anchor="middle" x="3838" y="-640.32" font-family="Times,serif" font-size="14.00">как&#45;то не интересовался.</text>
<text text-anchor="middle" x="3838" y="-623.07" font-family="Times,serif" font-size="14.00">Спроси еще кого&#45;нибудь.</text>
</g>
<!-- ChildGuard03&#45;&gt;ChildGuard12 -->
<g id="edge21" class="edge">
<title>ChildGuard03&#45;&gt;ChildGuard12</title>
<path fill="none" stroke="#003499" d="M3052.97,-887.57C3216.87,-874.03 3481.89,-847.87 3575,-814.13 3653.03,-785.86 3731.82,-731.24 3782.53,-691.92"/>
<polygon fill="#003499" stroke="#003499" points="3784.33,-694.17 3790.05,-685.25 3780.02,-688.66 3784.33,-694.17"/>
<text text-anchor="middle" x="3783.5" y="-779.41" font-family="Times,serif" font-size="14.00" fill="#003499">Что происходит в городе?</text>
</g>
<!-- ChildGuard13 -->
<g id="node29" class="node">
<title>ChildGuard13</title>
<ellipse fill="#ffffff" stroke="#000000" cx="3236" cy="-644.99" rx="144.43" ry="30.05"/>
<text text-anchor="middle" x="3236" y="-648.94" font-family="Times,serif" font-size="14.00">Дают только койку и еду.</text>
<text text-anchor="middle" x="3236" y="-631.69" font-family="Times,serif" font-size="14.00">Они такие жмоты!</text>
</g>
<!-- ChildGuard03&#45;&gt;ChildGuard13 -->
<g id="edge22" class="edge">
<title>ChildGuard03&#45;&gt;ChildGuard13</title>
<path fill="none" stroke="#609900" d="M2998.68,-844.69C3012.99,-834.82 3027.59,-824.38 3041,-814.13 3097.37,-771.06 3158.8,-716.77 3197.34,-681.72"/>
<polygon fill="#609900" stroke="#609900" points="3199.18,-684.87 3204.21,-675.55 3194.46,-679.7 3199.18,-684.87"/>
<text text-anchor="middle" x="3172" y="-779.41" font-family="Times,serif" font-size="14.00" fill="#609900">Платят хорошо?</text>
</g>
<!-- ChildGuard14 -->
<g id="node30" class="node">
<title>ChildGuard14</title>
<ellipse fill="#ffffff" stroke="#000000" cx="1993" cy="-644.99" rx="100.14" ry="18"/>
<text text-anchor="middle" x="1993" y="-640.32" font-family="Times,serif" font-size="14.00">Давай ее решим!</text>
</g>
<!-- ChildGuard03&#45;&gt;ChildGuard14 -->
<g id="edge23" class="edge">
<title>ChildGuard03&#45;&gt;ChildGuard14</title>
<path fill="none" stroke="#99008d" d="M2780.08,-891.05C2612.78,-878.33 2324.52,-841.65 2102,-736.03 2068.53,-720.14 2036.63,-691.68 2016.09,-671"/>
<polygon fill="#99008d" stroke="#99008d" points="2019.01,-668.96 2009.53,-664.23 2013.99,-673.84 2019.01,-668.96"/>
<text text-anchor="middle" x="2384.75" y="-788.03" font-family="Times,serif" font-size="14.00" fill="#99008d">Ага. Одна большая</text>
<text text-anchor="middle" x="2384.75" y="-770.78" font-family="Times,serif" font-size="14.00" fill="#99008d">проблема.</text>
</g>
<!-- ChildGuard15 -->
<g id="node31" class="node">
<title>ChildGuard15</title>
<ellipse fill="#ffffff" stroke="#000000" cx="3535" cy="-644.99" rx="136.47" ry="30.05"/>
<text text-anchor="middle" x="3535" y="-648.94" font-family="Times,serif" font-size="14.00">Отлично. Проблемы тут</text>
<text text-anchor="middle" x="3535" y="-631.69" font-family="Times,serif" font-size="14.00">никому не нужны.</text>
</g>
<!-- ChildGuard03&#45;&gt;ChildGuard15 -->
<g id="edge24" class="edge">
<title>ChildGuard03&#45;&gt;ChildGuard15</title>
<path fill="none" stroke="#009978" d="M3042.8,-871.41C3102.32,-857.27 3173.81,-837.84 3236,-814.13 3307.34,-786.94 3322.45,-773.46 3389,-736.03 3420.6,-718.26 3455.16,-697.03 3482.72,-679.65"/>
<polygon fill="#009978" stroke="#009978" points="3484.21,-682.22 3490.79,-673.91 3480.46,-676.3 3484.21,-682.22"/>
<text text-anchor="middle" x="3463.88" y="-779.41" font-family="Times,serif" font-size="14.00" fill="#009978">Никаких проблем, дружище.</text>
</g>
<!-- ChildGuard04&#45;&gt;ChildGuard12 -->
<g id="edge27" class="edge">
<title>ChildGuard04&#45;&gt;ChildGuard12</title>
<path fill="none" stroke="#0e9900" d="M4057.24,-862.79C4028.28,-850.33 3998.35,-834.26 3974,-814.13 3949.07,-793.54 3952.82,-779.58 3933,-754.03 3917.4,-733.92 3899.16,-712.71 3882.87,-694.45"/>
<polygon fill="#0e9900" stroke="#0e9900" points="3885.82,-692.38 3876.53,-687.28 3880.61,-697.06 3885.82,-692.38"/>
<text text-anchor="middle" x="4068.5" y="-779.41" font-family="Times,serif" font-size="14.00" fill="#0e9900">Что происходит в городе?</text>
</g>
<!-- ChildGuard16 -->
<g id="node32" class="node">
<title>ChildGuard16</title>
<ellipse fill="#ffffff" stroke="#000000" cx="4810" cy="-644.99" rx="138.59" ry="66.64"/>
<text text-anchor="middle" x="4810" y="-674.82" font-family="Times,serif" font-size="14.00">Не знаю, какая&#45;то их</text>
<text text-anchor="middle" x="4810" y="-657.57" font-family="Times,serif" font-size="14.00">хрень. Мне хватает</text>
<text text-anchor="middle" x="4810" y="-640.32" font-family="Times,serif" font-size="14.00">мозгов, чтобы не верить</text>
<text text-anchor="middle" x="4810" y="-623.07" font-family="Times,serif" font-size="14.00">во всю эту муру. А им</text>
<text text-anchor="middle" x="4810" y="-605.82" font-family="Times,serif" font-size="14.00">нет.</text>
</g>
<!-- ChildGuard04&#45;&gt;ChildGuard16 -->
<g id="edge25" class="edge">
<title>ChildGuard04&#45;&gt;ChildGuard16</title>
<path fill="none" stroke="#994c00" d="M4308.47,-886.28C4393.35,-875.43 4501.79,-854.49 4591,-814.13 4646.16,-789.18 4700.2,-747.93 4740.79,-712.53"/>
<polygon fill="#994c00" stroke="#994c00" points="4742.8,-715.54 4747.99,-706.3 4738.17,-710.29 4742.8,-715.54"/>
<text text-anchor="middle" x="4783.75" y="-779.41" font-family="Times,serif" font-size="14.00" fill="#994c00">Что за Священный Огонь?</text>
</g>
<!-- ChildGuard17 -->
<g id="node33" class="node">
<title>ChildGuard17</title>
<ellipse fill="#ffffff" stroke="#000000" cx="4167" cy="-644.99" rx="161.93" ry="54.45"/>
<text text-anchor="middle" x="4167" y="-666.19" font-family="Times,serif" font-size="14.00">Точно. Хорошо, ко мне не</text>
<text text-anchor="middle" x="4167" y="-648.94" font-family="Times,serif" font-size="14.00">пристают со своим</text>
<text text-anchor="middle" x="4167" y="-631.69" font-family="Times,serif" font-size="14.00">Священным Огнем, мать его</text>
<text text-anchor="middle" x="4167" y="-614.44" font-family="Times,serif" font-size="14.00">за ногу!</text>
</g>
<!-- ChildGuard04&#45;&gt;ChildGuard17 -->
<g id="edge26" class="edge">
<title>ChildGuard04&#45;&gt;ChildGuard17</title>
<path fill="none" stroke="#1f0099" d="M4167,-844.07C4167,-804.96 4167,-751.81 4167,-710.41"/>
<polygon fill="#1f0099" stroke="#1f0099" points="4170.5,-710.61 4167,-700.61 4163.5,-710.61 4170.5,-710.61"/>
<text text-anchor="middle" x="4270.88" y="-788.03" font-family="Times,serif" font-size="14.00" fill="#1f0099">Боже мой, какие сказочные</text>
<text text-anchor="middle" x="4270.88" y="-770.78" font-family="Times,serif" font-size="14.00" fill="#1f0099">идиоты!</text>
</g>
<!-- ChildGuard18 -->
<g id="node34" class="node">
<title>ChildGuard18</title>
<ellipse fill="#ffffff" stroke="#000000" cx="4500" cy="-644.99" rx="153.44" ry="91.04"/>
<text text-anchor="middle" x="4500" y="-692.07" font-family="Times,serif" font-size="14.00">Не знаю. Но это не просто</text>
<text text-anchor="middle" x="4500" y="-674.82" font-family="Times,serif" font-size="14.00">безмозглые зомби, в своем</text>
<text text-anchor="middle" x="4500" y="-657.57" font-family="Times,serif" font-size="14.00">деле они шарят. Никто</text>
<text text-anchor="middle" x="4500" y="-640.32" font-family="Times,serif" font-size="14.00">глазом не успел моргнуть,</text>
<text text-anchor="middle" x="4500" y="-623.07" font-family="Times,serif" font-size="14.00">как они тут обосновались.</text>
<text text-anchor="middle" x="4500" y="-605.82" font-family="Times,serif" font-size="14.00">С тех пор церковь</text>
<text text-anchor="middle" x="4500" y="-588.57" font-family="Times,serif" font-size="14.00">работает как часы.</text>
</g>
<!-- ChildGuard04&#45;&gt;ChildGuard18 -->
<g id="edge28" class="edge">
<title>ChildGuard04&#45;&gt;ChildGuard18</title>
<path fill="none" stroke="#99003a" d="M4282.82,-865.68C4315.97,-853.03 4350.74,-836.13 4379,-814.13 4404.75,-794.09 4427.45,-767.13 4446.03,-740.67"/>
<polygon fill="#99003a" stroke="#99003a" points="4449.39,-742.96 4452.17,-732.73 4443.62,-738.99 4449.39,-742.96"/>
<text text-anchor="middle" x="4509.88" y="-788.03" font-family="Times,serif" font-size="14.00" fill="#99003a">Как сюда попали эти</text>
<text text-anchor="middle" x="4509.88" y="-770.78" font-family="Times,serif" font-size="14.00" fill="#99003a">ребята?</text>
</g>
<!-- ChildGuard19 -->
<g id="node35" class="node">
<title>ChildGuard19</title>
<ellipse fill="#ffffff" stroke="#000000" cx="627" cy="-644.99" rx="129.58" ry="42.25"/>
<text text-anchor="middle" x="627" y="-657.57" font-family="Times,serif" font-size="14.00">По&#45;моему, это</text>
<text text-anchor="middle" x="627" y="-640.32" font-family="Times,serif" font-size="14.00">использовали только в</text>
<text text-anchor="middle" x="627" y="-623.07" font-family="Times,serif" font-size="14.00">убежищах.</text>
</g>
<!-- ChildGuard05&#45;&gt;ChildGuard19 -->
<g id="edge29" class="edge">
<title>ChildGuard05&#45;&gt;ChildGuard19</title>
<path fill="none" stroke="#006799" d="M1180.78,-861.97C1153.76,-850.47 1122.57,-838.96 1093,-832.13 979.92,-806.02 940.39,-856.9 832.5,-814.13 767.21,-788.26 706.86,-733.63 668.68,-693.64"/>
<polygon fill="#006799" stroke="#006799" points="671.75,-691.73 662.35,-686.85 666.65,-696.53 671.75,-691.73"/>
<text text-anchor="middle" x="937.25" y="-796.66" font-family="Times,serif" font-size="14.00" fill="#006799">Нет, компьютерный чип, он</text>
<text text-anchor="middle" x="937.25" y="-779.41" font-family="Times,serif" font-size="14.00" fill="#006799">нужен для системы очистки</text>
<text text-anchor="middle" x="937.25" y="-762.16" font-family="Times,serif" font-size="14.00" fill="#006799">воды.</text>
</g>
<!-- ChildGuard20 -->
<g id="node36" class="node">
<title>ChildGuard20</title>
<ellipse fill="#ffffff" stroke="#000000" cx="924" cy="-644.99" rx="149.73" ry="54.45"/>
<text text-anchor="middle" x="924" y="-666.19" font-family="Times,serif" font-size="14.00">Следи за языком! Может,</text>
<text text-anchor="middle" x="924" y="-648.94" font-family="Times,serif" font-size="14.00">эти психи и верят в</text>
<text text-anchor="middle" x="924" y="-631.69" font-family="Times,serif" font-size="14.00">любовь к ближнему, но я &#45;</text>
<text text-anchor="middle" x="924" y="-614.44" font-family="Times,serif" font-size="14.00">нет!</text>
</g>
<!-- ChildGuard05&#45;&gt;ChildGuard20 -->
<g id="edge30" class="edge">
<title>ChildGuard05&#45;&gt;ChildGuard20</title>
<path fill="none" stroke="#949900" d="M1187.66,-860.81C1164.15,-847.04 1137.98,-830.72 1115.25,-814.13 1068.73,-780.2 1020.05,-737.28 983.44,-703.29"/>
<polygon fill="#949900" stroke="#949900" points="986.52,-701.44 976.82,-697.18 981.74,-706.56 986.52,-701.44"/>
<text text-anchor="middle" x="1173.38" y="-779.41" font-family="Times,serif" font-size="14.00" fill="#949900">Да нет, болван!</text>
</g>
<!-- ChildGuard21 -->
<g id="node37" class="node">
<title>ChildGuard21</title>
<ellipse fill="#ffffff" stroke="#000000" cx="1383" cy="-103.24" rx="106.98" ry="18"/>
<text text-anchor="middle" x="1383" y="-98.56" font-family="Times,serif" font-size="14.00">Никаких проблем.</text>
</g>
<!-- ChildGuard05&#45;&gt;ChildGuard21 -->
<g id="edge31" class="edge">
<title>ChildGuard05&#45;&gt;ChildGuard21</title>
<path fill="none" stroke="#720099" d="M1346.81,-865.33C1369.07,-852.88 1390.13,-836.18 1403,-814.13 1437.76,-754.56 1396.47,-256.68 1385.52,-132.31"/>
<polygon fill="#720099" stroke="#720099" points="1388.93,-132.12 1384.56,-122.47 1381.96,-132.74 1388.93,-132.12"/>
<text text-anchor="middle" x="1501" y="-514.03" font-family="Times,serif" font-size="14.00" fill="#720099">Э&#45;э, спасибо. Наверное.</text>
</g>
<!-- ChildGuard22 -->
<g id="node38" class="node">
<title>ChildGuard22</title>
<ellipse fill="#ffffff" stroke="#000000" cx="1240" cy="-644.99" rx="148.67" ry="42.25"/>
<text text-anchor="middle" x="1240" y="-657.57" font-family="Times,serif" font-size="14.00">Не&#45;а. Чем выше</text>
<text text-anchor="middle" x="1240" y="-640.32" font-family="Times,serif" font-size="14.00">забираешься, тем сильнее</text>
<text text-anchor="middle" x="1240" y="-623.07" font-family="Times,serif" font-size="14.00">радиация.</text>
</g>
<!-- ChildGuard05&#45;&gt;ChildGuard22 -->
<g id="edge32" class="edge">
<title>ChildGuard05&#45;&gt;ChildGuard22</title>
<path fill="none" stroke="#009945" d="M1243.98,-856.38C1240.92,-843 1238.02,-828.03 1236.5,-814.13 1232.28,-775.54 1233.39,-731.68 1235.43,-698.43"/>
<polygon fill="#009945" stroke="#009945" points="1238.98,-698.79 1236.15,-688.58 1232,-698.33 1238.98,-698.79"/>
<text text-anchor="middle" x="1320.25" y="-788.03" font-family="Times,serif" font-size="14.00" fill="#009945">Ты был когда&#45;нибудь в</text>
<text text-anchor="middle" x="1320.25" y="-770.78" font-family="Times,serif" font-size="14.00" fill="#009945">горах?</text>
</g>
<!-- ChildGuard06&#45;&gt;ChildGuard21 -->
<g id="edge36" class="edge">
<title>ChildGuard06&#45;&gt;ChildGuard21</title>
<path fill="none" stroke="#99006d" d="M1593.38,-328.46C1537.87,-269.29 1448.37,-173.91 1406.29,-129.05"/>
<polygon fill="#99006d" stroke="#99006d" points="1409.39,-127.19 1400,-122.29 1404.29,-131.98 1409.39,-127.19"/>
<text text-anchor="middle" x="1561.38" y="-237.05" font-family="Times,serif" font-size="14.00" fill="#99006d">Спасибо!</text>
</g>
<!-- ChildGuard23 -->
<g id="node39" class="node">
<title>ChildGuard23</title>
<ellipse fill="#ffffff" stroke="#000000" cx="1641" cy="-103.24" rx="133.29" ry="42.25"/>
<text text-anchor="middle" x="1641" y="-115.81" font-family="Times,serif" font-size="14.00">По&#45;моему, он просто</text>
<text text-anchor="middle" x="1641" y="-98.56" font-family="Times,serif" font-size="14.00">жестокий психованный</text>
<text text-anchor="middle" x="1641" y="-81.31" font-family="Times,serif" font-size="14.00">ублюдок.</text>
</g>
<!-- ChildGuard06&#45;&gt;ChildGuard23 -->
<g id="edge33" class="edge">
<title>ChildGuard06&#45;&gt;ChildGuard23</title>
<path fill="none" stroke="#991900" d="M1641,-325.54C1641,-276.68 1641,-204.97 1641,-156.54"/>
<polygon fill="#991900" stroke="#991900" points="1644.5,-156.67 1641,-146.67 1637.5,-156.67 1644.5,-156.67"/>
<text text-anchor="middle" x="1732.5" y="-237.05" font-family="Times,serif" font-size="14.00" fill="#991900">Значит, он мерзкий тип?</text>
</g>
<!-- ChildGuard24 -->
<g id="node40" class="node">
<title>ChildGuard24</title>
<ellipse fill="#ffffff" stroke="#000000" cx="1951" cy="-103.24" rx="158.22" ry="30.05"/>
<text text-anchor="middle" x="1951" y="-107.19" font-family="Times,serif" font-size="14.00">Мой напарник. Он охраняет</text>
<text text-anchor="middle" x="1951" y="-89.94" font-family="Times,serif" font-size="14.00">Джейн.</text>
</g>
<!-- ChildGuard06&#45;&gt;ChildGuard24 -->
<g id="edge34" class="edge">
<title>ChildGuard06&#45;&gt;ChildGuard24</title>
<path fill="none" stroke="#001499" d="M1710.16,-332.09C1736.73,-314.39 1767.52,-294.35 1796,-276.98 1809.93,-268.48 1815.58,-269.56 1828,-258.98 1867.99,-224.89 1904.14,-176.23 1926.74,-142.62"/>
<polygon fill="#001499" stroke="#001499" points="1930.14,-144.83 1932.75,-134.56 1924.31,-140.96 1930.14,-144.83"/>
<text text-anchor="middle" x="1898.62" y="-237.05" font-family="Times,serif" font-size="14.00" fill="#001499">Филлипс?</text>
</g>
<!-- ChildGuard25 -->
<g id="node41" class="node">
<title>ChildGuard25</title>
<ellipse fill="#ffffff" stroke="#000000" cx="2284" cy="-103.24" rx="156.62" ry="103.24"/>
<text text-anchor="middle" x="2284" y="-158.94" font-family="Times,serif" font-size="14.00">Вряд ли, это слишком</text>
<text text-anchor="middle" x="2284" y="-141.69" font-family="Times,serif" font-size="14.00">опасно. Мне в последнее</text>
<text text-anchor="middle" x="2284" y="-124.44" font-family="Times,serif" font-size="14.00">время и так проблем</text>
<text text-anchor="middle" x="2284" y="-107.19" font-family="Times,serif" font-size="14.00">хватало, так что я решил</text>
<text text-anchor="middle" x="2284" y="-89.94" font-family="Times,serif" font-size="14.00">залечь ненадолго. Но если</text>
<text text-anchor="middle" x="2284" y="-72.69" font-family="Times,serif" font-size="14.00">ты любишь риск, поработай</text>
<text text-anchor="middle" x="2284" y="-55.44" font-family="Times,serif" font-size="14.00">с ним. Только учти, если</text>
<text text-anchor="middle" x="2284" y="-38.19" font-family="Times,serif" font-size="14.00">не справишься, ты труп.</text>
</g>
<!-- ChildGuard06&#45;&gt;ChildGuard25 -->
<g id="edge35" class="edge">
<title>ChildGuard06&#45;&gt;ChildGuard25</title>
<path fill="none" stroke="#419900" d="M1701.18,-330.19C1728.54,-310.46 1762.29,-289.45 1796,-276.98 1855.66,-254.89 1875.72,-271.92 1938,-258.98 2019.59,-242.02 2041.84,-240.3 2118,-206.48 2133.77,-199.47 2149.85,-191.2 2165.48,-182.45"/>
<polygon fill="#419900" stroke="#419900" points="2166.67,-185.23 2173.63,-177.24 2163.21,-179.14 2166.67,-185.23"/>
<text text-anchor="middle" x="2160.88" y="-245.68" font-family="Times,serif" font-size="14.00" fill="#419900">Ты бы стал работать на</text>
<text text-anchor="middle" x="2160.88" y="-228.43" font-family="Times,serif" font-size="14.00" fill="#419900">него?</text>
</g>
<!-- ChildGuard07 -->
<g id="node24" class="node">
<title>ChildGuard07</title>
<ellipse fill="#ffffff" stroke="#000000" cx="2269" cy="-644.99" rx="158.22" ry="30.05"/>
<text text-anchor="middle" x="2269" y="-648.94" font-family="Times,serif" font-size="14.00">Да, других стволов я не</text>
<text text-anchor="middle" x="2269" y="-631.69" font-family="Times,serif" font-size="14.00">признаю. Чем могу помочь?</text>
</g>
<!-- ChildGuard02a&#45;&gt;ChildGuard07 -->
<g id="edge17" class="edge">
<title>ChildGuard02a&#45;&gt;ChildGuard07</title>
<path fill="none" stroke="#555555" stroke-dasharray="1,5" d="M1818.51,-880.79C1824.07,-866.09 1834,-845.19 1849,-832.13 1939.74,-753.17 1992.6,-786.04 2102,-736.03 2139.33,-718.97 2179.89,-697.18 2211.68,-679.31"/>
<polygon fill="#555555" stroke="#555555" points="2213.27,-681.87 2220.26,-673.9 2209.83,-675.78 2213.27,-681.87"/>
</g>
<!-- ChildGuard08 -->
<g id="node25" class="node">
<title>ChildGuard08</title>
<ellipse fill="#ffffff" stroke="#000000" cx="1753" cy="-644.99" rx="121.62" ry="30.05"/>
<text text-anchor="middle" x="1753" y="-648.94" font-family="Times,serif" font-size="14.00">Извини, я на посту.</text>
<text text-anchor="middle" x="1753" y="-631.69" font-family="Times,serif" font-size="14.00">Никаких разговоров.</text>
</g>
<!-- ChildGuard02a&#45;&gt;ChildGuard08 -->
<g id="edge18" class="edge">
<title>ChildGuard02a&#45;&gt;ChildGuard08</title>
<path fill="none" stroke="#555555" stroke-dasharray="1,5" d="M1813.98,-880.64C1815.1,-853.36 1815.46,-798.59 1804,-754.03 1797.81,-729.97 1786.25,-704.78 1775.7,-684.78"/>
<polygon fill="#555555" stroke="#555555" points="1778.31,-683.24 1770.47,-676.11 1772.15,-686.57 1778.31,-683.24"/>
</g>
<!-- ChildGuard07&#45;&gt;ChildGuard06 -->
<g id="edge41" class="edge">
<title>ChildGuard07&#45;&gt;ChildGuard06</title>
<path fill="none" stroke="#99001b" d="M2228.25,-615.58C2195.7,-594.51 2148.04,-567.25 2102,-553.95 1988.48,-521.17 1946.98,-578.5 1836.75,-535.95 1782.8,-515.13 1731.88,-473.94 1695.51,-439.29"/>
<polygon fill="#99001b" stroke="#99001b" points="1698.59,-437.44 1688.97,-433.01 1693.73,-442.47 1698.59,-437.44"/>
<text text-anchor="middle" x="1937.12" y="-522.65" font-family="Times,serif" font-size="14.00" fill="#99001b">Знаешь человека по имени</text>
<text text-anchor="middle" x="1937.12" y="-505.4" font-family="Times,serif" font-size="14.00" fill="#99001b">Декер?</text>
</g>
<!-- ChildGuard26 -->
<g id="node42" class="node">
<title>ChildGuard26</title>
<ellipse fill="#ffffff" stroke="#000000" cx="1954" cy="-380.21" rx="149.2" ry="78.84"/>
<text text-anchor="middle" x="1954" y="-418.66" font-family="Times,serif" font-size="14.00">Говорят, лучший выбор у</text>
<text text-anchor="middle" x="1954" y="-401.41" font-family="Times,serif" font-size="14.00">торговцев водой. Хотя про</text>
<text text-anchor="middle" x="1954" y="-384.16" font-family="Times,serif" font-size="14.00">них много чего</text>
<text text-anchor="middle" x="1954" y="-366.91" font-family="Times,serif" font-size="14.00">болтают.... Но у этих</text>
<text text-anchor="middle" x="1954" y="-349.66" font-family="Times,serif" font-size="14.00">ребят ты точно ничего не</text>
<text text-anchor="middle" x="1954" y="-332.41" font-family="Times,serif" font-size="14.00">купишь.</text>
</g>
<!-- ChildGuard07&#45;&gt;ChildGuard26 -->
<g id="edge37" class="edge">
<title>ChildGuard07&#45;&gt;ChildGuard26</title>
<path fill="none" stroke="#009998" d="M2217.05,-616.4C2163.86,-587.92 2087.29,-546.24 2075.25,-535.95 2050.89,-515.12 2028.08,-488.74 2008.96,-463.7"/>
<polygon fill="#009998" stroke="#009998" points="2011.16,-461.8 2002.36,-455.9 2005.57,-466 2011.16,-461.8"/>
<text text-anchor="middle" x="2170.88" y="-522.65" font-family="Times,serif" font-size="14.00" fill="#009998">Где тут можно разжиться</text>
<text text-anchor="middle" x="2170.88" y="-505.4" font-family="Times,serif" font-size="14.00" fill="#009998">оружием?</text>
</g>
<!-- ChildGuard27 -->
<g id="node43" class="node">
<title>ChildGuard27</title>
<ellipse fill="#ffffff" stroke="#000000" cx="2269" cy="-380.21" rx="148.14" ry="103.24"/>
<text text-anchor="middle" x="2269" y="-435.91" font-family="Times,serif" font-size="14.00">Я уже несколько недель</text>
<text text-anchor="middle" x="2269" y="-418.66" font-family="Times,serif" font-size="14.00">пытаюсь понять, чего они</text>
<text text-anchor="middle" x="2269" y="-401.41" font-family="Times,serif" font-size="14.00">хотят. Поначалу думал,</text>
<text text-anchor="middle" x="2269" y="-384.16" font-family="Times,serif" font-size="14.00">что они просто идиоты, но</text>
<text text-anchor="middle" x="2269" y="-366.91" font-family="Times,serif" font-size="14.00">теперь сомневаюсь. У них</text>
<text text-anchor="middle" x="2269" y="-349.66" font-family="Times,serif" font-size="14.00">отличная организация, и</text>
<text text-anchor="middle" x="2269" y="-332.41" font-family="Times,serif" font-size="14.00">они явно что&#45;то</text>
<text text-anchor="middle" x="2269" y="-315.16" font-family="Times,serif" font-size="14.00">замышляют.</text>
</g>
<!-- ChildGuard07&#45;&gt;ChildGuard27 -->
<g id="edge38" class="edge">
<title>ChildGuard07&#45;&gt;ChildGuard27</title>
<path fill="none" stroke="#996b00" d="M2269,-614.61C2269,-585.35 2269,-538.56 2269,-494.53"/>
<polygon fill="#996b00" stroke="#996b00" points="2272.5,-494.71 2269,-484.71 2265.5,-494.71 2272.5,-494.71"/>
<text text-anchor="middle" x="2355.25" y="-522.65" font-family="Times,serif" font-size="14.00" fill="#996b00">Что это за ребята здесь</text>
<text text-anchor="middle" x="2355.25" y="-505.4" font-family="Times,serif" font-size="14.00" fill="#996b00">живут?</text>
</g>
<!-- ChildGuard28 -->
<g id="node44" class="node">
<title>ChildGuard28</title>
<ellipse fill="#ffffff" stroke="#000000" cx="2567" cy="-380.21" rx="131.7" ry="54.45"/>
<text text-anchor="middle" x="2567" y="-401.41" font-family="Times,serif" font-size="14.00">Говорят, у Декера есть</text>
<text text-anchor="middle" x="2567" y="-384.16" font-family="Times,serif" font-size="14.00">какая&#45;то грязная</text>
<text text-anchor="middle" x="2567" y="-366.91" font-family="Times,serif" font-size="14.00">работенка. Но с ним</text>
<text text-anchor="middle" x="2567" y="-349.66" font-family="Times,serif" font-size="14.00">опасно связываться.</text>
</g>
<!-- ChildGuard07&#45;&gt;ChildGuard28 -->
<g id="edge39" class="edge">
<title>ChildGuard07&#45;&gt;ChildGuard28</title>
<path fill="none" stroke="#3f0099" d="M2324.74,-616.39C2361.17,-596.82 2408.56,-568.35 2445,-535.95 2475.95,-508.43 2504.9,-472.34 2526.83,-441.94"/>
<polygon fill="#3f0099" stroke="#3f0099" points="2530.17,-444.29 2533.12,-434.11 2524.47,-440.23 2530.17,-444.29"/>
<text text-anchor="middle" x="2558" y="-522.65" font-family="Times,serif" font-size="14.00" fill="#3f0099">Я ищу какую&#45;нибудь</text>
<text text-anchor="middle" x="2558" y="-505.4" font-family="Times,serif" font-size="14.00" fill="#3f0099">опасную работенку...</text>
</g>
<!-- ChildGuard29 -->
<g id="node45" class="node">
<title>ChildGuard29</title>
<ellipse fill="#ffffff" stroke="#000000" cx="2867" cy="-380.21" rx="150.26" ry="103.24"/>
<text text-anchor="middle" x="2867" y="-435.91" font-family="Times,serif" font-size="14.00">Чип для очистки воды? А</text>
<text text-anchor="middle" x="2867" y="-418.66" font-family="Times,serif" font-size="14.00">чем тебе вода из колодцев</text>
<text text-anchor="middle" x="2867" y="-401.41" font-family="Times,serif" font-size="14.00">не нравится? Я слышал,</text>
<text text-anchor="middle" x="2867" y="-384.16" font-family="Times,serif" font-size="14.00">рядом с Шэйди Сэндс есть</text>
<text text-anchor="middle" x="2867" y="-366.91" font-family="Times,serif" font-size="14.00">одно Убежище, но оно</text>
<text text-anchor="middle" x="2867" y="-349.66" font-family="Times,serif" font-size="14.00">полностью разрушено, так</text>
<text text-anchor="middle" x="2867" y="-332.41" font-family="Times,serif" font-size="14.00">что там ты ничего не</text>
<text text-anchor="middle" x="2867" y="-315.16" font-family="Times,serif" font-size="14.00">найдешь.</text>
</g>
<!-- ChildGuard07&#45;&gt;ChildGuard29 -->
<g id="edge40" class="edge">
<title>ChildGuard07&#45;&gt;ChildGuard29</title>
<path fill="none" stroke="#009912" d="M2310.16,-615.62C2342.75,-594.73 2390.25,-567.66 2436,-553.95 2523.19,-527.81 2554.29,-566.58 2640,-535.95 2683.87,-520.28 2727.3,-494.04 2764.25,-467.58"/>
<polygon fill="#009912" stroke="#009912" points="2765.98,-469.93 2772.01,-461.22 2761.86,-464.26 2765.98,-469.93"/>
<text text-anchor="middle" x="2792" y="-522.65" font-family="Times,serif" font-size="14.00" fill="#009912">Не знаешь, где бы мне</text>
<text text-anchor="middle" x="2792" y="-505.4" font-family="Times,serif" font-size="14.00" fill="#009912">найти водяной чип?</text>
</g>
<!-- ChildGuard14&#45;&gt;combat -->
<g id="edge42" class="edge">
<title>ChildGuard14&#45;&gt;combat</title>
<path fill="none" stroke="#555555" stroke-dasharray="1,5" d="M1978.9,-626.87C1959.93,-605.28 1923.92,-569.14 1884,-553.95 1832.98,-534.54 1447.34,-541.2 1393,-535.95 1020.02,-499.92 573.47,-414.02 445.11,-388.49"/>
<polygon fill="#555555" stroke="#555555" points="446.19,-384.94 435.7,-386.41 444.82,-391.8 446.19,-384.94"/>
</g>
<!-- ChildGuard31&#45;&gt;combat -->
<g id="edge43" class="edge">
<title>ChildGuard31&#45;&gt;combat</title>
<path fill="none" stroke="#555555" stroke-dasharray="1,5" d="M348.41,-765.76C351.66,-727.44 360.37,-632.61 373,-553.95 381.29,-502.32 394.53,-442.74 402.43,-408.77"/>
<polygon fill="#555555" stroke="#555555" points="406.02,-409.81 404.9,-399.28 399.2,-408.21 406.02,-409.81"/>
</g>
</g>
</svg>
