<?xml version="1.0" encoding="UTF-8" standalone="no"?>
<!DOCTYPE svg PUBLIC "-//W3C//DTD SVG 1.1//EN"
 "http://www.w3.org/Graphics/SVG/1.1/DTD/svg11.dtd">
<!-- Generated by graphviz version 8.0.5 (0)
 -->
<!-- Title: hgenfarm Pages: 1 -->
<svg width="746pt" height="188pt"
 viewBox="0.00 0.00 746.00 188.00" xmlns="http://www.w3.org/2000/svg" xmlns:xlink="http://www.w3.org/1999/xlink">
<g id="graph0" class="graph" transform="scale(1 1) rotate(0) translate(4 184)">
<title>hgenfarm</title>
<polygon fill="white" stroke="none" points="-4,4 -4,-184 742,-184 742,4 -4,4"/>
<!-- start -->
<g id="node1" class="node">
<title>start</title>
<ellipse fill="#ffffff" stroke="#000000" cx="27" cy="-162" rx="27" ry="18"/>
</g>
<!-- critter_p_proc -->
<g id="node2" class="node">
<title>critter_p_proc</title>
<ellipse fill="#ffffff" stroke="#000000" cx="99" cy="-162" rx="27" ry="18"/>
</g>
<!-- pickup_p_proc -->
<g id="node3" class="node">
<title>pickup_p_proc</title>
<ellipse fill="#ffffff" stroke="#000000" cx="171" cy="-162" rx="27" ry="18"/>
</g>
<!-- talk_p_proc -->
<g id="node4" class="node">
<title>talk_p_proc</title>
<ellipse fill="#ffffff" stroke="#000000" cx="243" cy="-162" rx="27" ry="18"/>
</g>
<!-- get_reaction -->
<g id="node5" class="node">
<title>get_reaction</title>
<ellipse fill="#ffffff" stroke="#000000" cx="171" cy="-90" rx="27" ry="18"/>
</g>
<!-- talk_p_proc&#45;&gt;get_reaction -->
<g id="edge1" class="edge">
<title>talk_p_proc&#45;&gt;get_reaction</title>
<path fill="none" stroke="#555555" stroke-dasharray="1,5" d="M228.08,-146.5C218.14,-136.83 204.88,-123.94 193.65,-113.02"/>
<polygon fill="#555555" stroke="#555555" points="196.51,-110.95 186.9,-106.49 191.63,-115.97 196.51,-110.95"/>
</g>
<!-- Farmer00 -->
<g id="node6" class="node">
<title>Farmer00</title>
<ellipse fill="#ffffff" stroke="#000000" cx="243" cy="-90" rx="27" ry="18"/>
</g>
<!-- talk_p_proc&#45;&gt;Farmer00 -->
<g id="edge2" class="edge">
<title>talk_p_proc&#45;&gt;Farmer00</title>
<path fill="none" stroke="#555555" stroke-dasharray="1,5" d="M243,-143.7C243,-136.24 243,-127.32 243,-118.97"/>
<polygon fill="#555555" stroke="#555555" points="246.5,-119.1 243,-109.1 239.5,-119.1 246.5,-119.1"/>
</g>
<!-- Farmer01 -->
<g id="node7" class="node">
<title>Farmer01</title>
<ellipse fill="#ffffff" stroke="#000000" cx="315" cy="-90" rx="27" ry="18"/>
</g>
<!-- talk_p_proc&#45;&gt;Farmer01 -->
<g id="edge3" class="edge">
<title>talk_p_proc&#45;&gt;Farmer01</title>
<path fill="none" stroke="#555555" stroke-dasharray="1,5" d="M257.92,-146.5C267.86,-136.83 281.12,-123.94 292.35,-113.02"/>
<polygon fill="#555555" stroke="#555555" points="294.37,-115.97 299.1,-106.49 289.49,-110.95 294.37,-115.97"/>
</g>
<!-- ReactToLevel -->
<g id="node12" class="node">
<title>ReactToLevel</title>
<ellipse fill="#ffffff" stroke="#000000" cx="171" cy="-18" rx="27" ry="18"/>
</g>
<!-- get_reaction&#45;&gt;ReactToLevel -->
<g id="edge4" class="edge">
<title>get_reaction&#45;&gt;ReactToLevel</title>
<path fill="none" stroke="#555555" stroke-dasharray="1,5" d="M171,-71.7C171,-64.24 171,-55.32 171,-46.97"/>
<polygon fill="#555555" stroke="#555555" points="174.5,-47.1 171,-37.1 167.5,-47.1 174.5,-47.1"/>
</g>
<!-- destroy_p_proc -->
<g id="node8" class="node">
<title>destroy_p_proc</title>
<ellipse fill="#ffffff" stroke="#000000" cx="315" cy="-162" rx="27" ry="18"/>
</g>
<!-- look_at_p_proc -->
<g id="node9" class="node">
<title>look_at_p_proc</title>
<ellipse fill="#ffffff" stroke="#000000" cx="477" cy="-162" rx="116.97" ry="18"/>
<text text-anchor="middle" x="477" y="-157.32" font-family="Times,serif" font-size="14.00">Вы видите фермера.</text>
</g>
<!-- timed_event_p_proc -->
<g id="node10" class="node">
<title>timed_event_p_proc</title>
<ellipse fill="#ffffff" stroke="#000000" cx="639" cy="-162" rx="27" ry="18"/>
</g>
<!-- damage_p_proc -->
<g id="node11" class="node">
<title>damage_p_proc</title>
<ellipse fill="#ffffff" stroke="#000000" cx="711" cy="-162" rx="27" ry="18"/>
</g>
</g>
</svg>
