<?xml version="1.0" encoding="UTF-8" standalone="no"?>
<!DOCTYPE svg PUBLIC "-//W3C//DTD SVG 1.1//EN"
 "http://www.w3.org/Graphics/SVG/1.1/DTD/svg11.dtd">
<!-- Generated by graphviz version 8.0.5 (0)
 -->
<!-- Title: htwrrick Pages: 1 -->
<svg width="2328pt" height="1096pt"
 viewBox="0.00 0.00 2328.01 1095.59" xmlns="http://www.w3.org/2000/svg" xmlns:xlink="http://www.w3.org/1999/xlink">
<g id="graph0" class="graph" transform="scale(1 1) rotate(0) translate(4 1091.59)">
<title>htwrrick</title>
<polygon fill="white" stroke="none" points="-4,4 -4,-1091.59 2324.01,-1091.59 2324.01,4 -4,4"/>
<!-- start -->
<g id="node1" class="node">
<title>start</title>
<ellipse fill="#ffffff" stroke="#000000" cx="1721.01" cy="-1057.54" rx="27" ry="18"/>
</g>
<!-- combat -->
<g id="node2" class="node">
<title>combat</title>
<ellipse fill="#ffffff" stroke="#000000" cx="954.01" cy="-18" rx="27" ry="18"/>
</g>
<!-- critter_p_proc -->
<g id="node3" class="node">
<title>critter_p_proc</title>
<ellipse fill="#ffffff" stroke="#000000" cx="942.01" cy="-91" rx="27" ry="18"/>
</g>
<!-- critter_p_proc&#45;&gt;combat -->
<g id="edge1" class="edge">
<title>critter_p_proc&#45;&gt;combat</title>
<path fill="none" stroke="#555555" stroke-dasharray="1,5" d="M944.92,-72.81C946.25,-64.96 947.85,-55.47 949.34,-46.66"/>
<polygon fill="#555555" stroke="#555555" points="952.92,-47.47 951.14,-37.03 946.02,-46.31 952.92,-47.47"/>
</g>
<!-- pickup_p_proc -->
<g id="node4" class="node">
<title>pickup_p_proc</title>
<ellipse fill="#ffffff" stroke="#000000" cx="1865.01" cy="-1057.54" rx="27" ry="18"/>
</g>
<!-- talk_p_proc -->
<g id="node5" class="node">
<title>talk_p_proc</title>
<ellipse fill="#ffffff" stroke="#000000" cx="1793.01" cy="-1057.54" rx="27" ry="18"/>
</g>
<!-- get_reaction -->
<g id="node6" class="node">
<title>get_reaction</title>
<ellipse fill="#ffffff" stroke="#000000" cx="1848.01" cy="-972.49" rx="27" ry="18"/>
</g>
<!-- talk_p_proc&#45;&gt;get_reaction -->
<g id="edge2" class="edge">
<title>talk_p_proc&#45;&gt;get_reaction</title>
<path fill="none" stroke="#555555" stroke-dasharray="1,5" d="M1803.62,-1040.53C1811.53,-1028.58 1822.49,-1012.03 1831.54,-998.36"/>
<polygon fill="#555555" stroke="#555555" points="1834.84,-1000.72 1837.44,-990.45 1829,-996.86 1834.84,-1000.72"/>
</g>
<!-- Rick09 -->
<g id="node7" class="node">
<title>Rick09</title>
<ellipse fill="#ffffff" stroke="#000000" cx="1947.01" cy="-341.63" rx="158.22" ry="127.63"/>
<text text-anchor="middle" x="1947.01" y="-414.58" font-family="Times,serif" font-size="14.00">На этой территории</text>
<text text-anchor="middle" x="1947.01" y="-397.33" font-family="Times,serif" font-size="14.00">запрещено находиться</text>
<text text-anchor="middle" x="1947.01" y="-380.08" font-family="Times,serif" font-size="14.00">после заката. Другие</text>
<text text-anchor="middle" x="1947.01" y="-362.83" font-family="Times,serif" font-size="14.00">охранники предупреждать</text>
<text text-anchor="middle" x="1947.01" y="-345.58" font-family="Times,serif" font-size="14.00">не будут. Если они тебя</text>
<text text-anchor="middle" x="1947.01" y="-328.33" font-family="Times,serif" font-size="14.00">засекут, сразу откроют</text>
<text text-anchor="middle" x="1947.01" y="-311.08" font-family="Times,serif" font-size="14.00">огонь на поражение. Лучше</text>
<text text-anchor="middle" x="1947.01" y="-293.83" font-family="Times,serif" font-size="14.00">вернись в Бизнес&#45;центр</text>
<text text-anchor="middle" x="1947.01" y="-276.58" font-family="Times,serif" font-size="14.00">пока твоя голова еще</text>
<text text-anchor="middle" x="1947.01" y="-259.33" font-family="Times,serif" font-size="14.00">крепко держится на шее.</text>
</g>
<!-- talk_p_proc&#45;&gt;Rick09 -->
<g id="edge3" class="edge">
<title>talk_p_proc&#45;&gt;Rick09</title>
<path fill="none" stroke="#555555" stroke-dasharray="1,5" d="M1793.01,-1039.04C1793.01,-1022.24 1793.01,-996.13 1793.01,-973.49 1793.01,-973.49 1793.01,-973.49 1793.01,-654.2 1793.01,-585.04 1823.89,-515.35 1857.98,-459.47"/>
<polygon fill="#555555" stroke="#555555" points="1861.4,-461.61 1863.7,-451.27 1855.45,-457.92 1861.4,-461.61"/>
</g>
<!-- Rick01 -->
<g id="node8" class="node">
<title>Rick01</title>
<ellipse fill="#ffffff" stroke="#000000" cx="1294.01" cy="-972.49" rx="82.25" ry="18"/>
<text text-anchor="middle" x="1294.01" y="-967.81" font-family="Times,serif" font-size="14.00">Чче&#39; те&#39; надо?</text>
</g>
<!-- talk_p_proc&#45;&gt;Rick01 -->
<g id="edge4" class="edge">
<title>talk_p_proc&#45;&gt;Rick01</title>
<path fill="none" stroke="#555555" stroke-dasharray="1,5" d="M1778.85,-1042.01C1772.67,-1036.54 1765.01,-1030.85 1757.01,-1027.49 1691.78,-1000.1 1499.65,-984.93 1384.41,-978.07"/>
<polygon fill="#555555" stroke="#555555" points="1384.69,-974.52 1374.5,-977.43 1384.28,-981.51 1384.69,-974.52"/>
</g>
<!-- ReactToLevel -->
<g id="node23" class="node">
<title>ReactToLevel</title>
<ellipse fill="#ffffff" stroke="#000000" cx="1848.01" cy="-853.94" rx="27" ry="18"/>
</g>
<!-- get_reaction&#45;&gt;ReactToLevel -->
<g id="edge29" class="edge">
<title>get_reaction&#45;&gt;ReactToLevel</title>
<path fill="none" stroke="#555555" stroke-dasharray="1,5" d="M1848.01,-954.04C1848.01,-935.22 1848.01,-904.99 1848.01,-882.86"/>
<polygon fill="#555555" stroke="#555555" points="1851.51,-883.13 1848.01,-873.13 1844.51,-883.13 1851.51,-883.13"/>
</g>
<!-- RickEnd -->
<g id="node18" class="node">
<title>RickEnd</title>
<ellipse fill="#ffffff" stroke="#000000" cx="1014.01" cy="-91" rx="27" ry="18"/>
</g>
<!-- Rick09&#45;&gt;RickEnd -->
<g id="edge25" class="edge">
<title>Rick09&#45;&gt;RickEnd</title>
<path fill="none" stroke="#990200" d="M1839.55,-247.4C1819.24,-234.01 1797.33,-222.07 1775.01,-214 1711.21,-190.94 1524.17,-237.19 1470.26,-196 1444.55,-176.35 1472.51,-146.92 1447.01,-127 1416.26,-102.97 1152.08,-94.92 1052.12,-92.71"/>
<polygon fill="#990200" stroke="#990200" points="1052.39,-89.2 1042.32,-92.49 1052.24,-96.2 1052.39,-89.2"/>
<text text-anchor="middle" x="1567.39" y="-165.45" font-family="Times,serif" font-size="14.00" fill="#990200">Простите, меня уже здесь</text>
<text text-anchor="middle" x="1567.39" y="-148.2" font-family="Times,serif" font-size="14.00" fill="#990200">нет.</text>
</g>
<!-- Rick09&#45;&gt;RickEnd -->
<g id="edge26" class="edge">
<title>Rick09&#45;&gt;RickEnd</title>
<path fill="none" stroke="#002b99" d="M1836.6,-250.1C1816.87,-236.67 1795.92,-224 1775.01,-214 1746.72,-200.46 1732.08,-214.53 1706.76,-196 1677.46,-174.55 1694.35,-145.35 1663.01,-127 1636.55,-111.5 1186.94,-97.08 1052,-93.09"/>
<polygon fill="#002b99" stroke="#002b99" points="1052.12,-89.56 1042.02,-92.77 1051.91,-96.56 1052.12,-89.56"/>
<text text-anchor="middle" x="1736.64" y="-156.82" font-family="Times,serif" font-size="14.00" fill="#002b99">оК. идУ.</text>
</g>
<!-- RickCombat -->
<g id="node21" class="node">
<title>RickCombat</title>
<ellipse fill="#ffffff" stroke="#000000" cx="1532.01" cy="-91" rx="27" ry="18"/>
</g>
<!-- Rick09&#45;&gt;RickCombat -->
<g id="edge24" class="edge">
<title>Rick09&#45;&gt;RickCombat</title>
<path fill="none" stroke="#00992f" d="M1836.7,-249.88C1820.63,-233.17 1805.44,-214.97 1793.26,-196 1775.79,-168.76 1794.85,-147.75 1770.01,-127 1740.35,-102.22 1629.19,-94.98 1569.87,-92.87"/>
<polygon fill="#00992f" stroke="#00992f" points="1570.19,-89.34 1560.08,-92.52 1569.96,-96.34 1570.19,-89.34"/>
<text text-anchor="middle" x="1864.89" y="-156.82" font-family="Times,serif" font-size="14.00" fill="#00992f">Никуда я не пойду.</text>
</g>
<!-- Rick09&#45;&gt;RickCombat -->
<g id="edge27" class="edge">
<title>Rick09&#45;&gt;RickCombat</title>
<path fill="none" stroke="#579900" d="M1967.66,-214.86C1966.16,-182.49 1957.58,-150.27 1935.01,-127 1909.91,-101.11 1665.65,-94.24 1570.08,-92.53"/>
<polygon fill="#579900" stroke="#579900" points="1570.24,-89.01 1560.19,-92.34 1570.13,-96.01 1570.24,-89.01"/>
<text text-anchor="middle" x="2018.51" y="-156.82" font-family="Times,serif" font-size="14.00" fill="#579900">неА. оСтаюсЬ.</text>
</g>
<!-- Rick03 -->
<g id="node13" class="node">
<title>Rick03</title>
<ellipse fill="#ffffff" stroke="#000000" cx="595.01" cy="-853.94" rx="160.34" ry="30.05"/>
<text text-anchor="middle" x="595.01" y="-857.89" font-family="Times,serif" font-size="14.00">Давай побыстрее. Не люблю</text>
<text text-anchor="middle" x="595.01" y="-840.64" font-family="Times,serif" font-size="14.00">болтать во время работы.</text>
</g>
<!-- Rick01&#45;&gt;Rick03 -->
<g id="edge5" class="edge">
<title>Rick01&#45;&gt;Rick03</title>
<path fill="none" stroke="#001799" d="M1216.89,-965.79C1149.7,-960.23 1049.79,-950.56 963.51,-936.49 873.68,-921.84 772.83,-899.07 699.37,-881.32"/>
<polygon fill="#001799" stroke="#001799" points="700.28,-877.69 689.74,-878.73 698.63,-884.49 700.28,-877.69"/>
<text text-anchor="middle" x="1054.76" y="-923.19" font-family="Times,serif" font-size="14.00" fill="#001799">Простите. Могу я задать</text>
<text text-anchor="middle" x="1054.76" y="-905.94" font-family="Times,serif" font-size="14.00" fill="#001799">несколько вопросов?</text>
</g>
<!-- Rick04 -->
<g id="node14" class="node">
<title>Rick04</title>
<ellipse fill="#ffffff" stroke="#000000" cx="1467.01" cy="-655.2" rx="144.96" ry="42.25"/>
<text text-anchor="middle" x="1467.01" y="-667.78" font-family="Times,serif" font-size="14.00">Смотри, куда прешь, и на</text>
<text text-anchor="middle" x="1467.01" y="-650.53" font-family="Times,serif" font-size="14.00">кого пасть разеваешь,</text>
<text text-anchor="middle" x="1467.01" y="-633.28" font-family="Times,serif" font-size="14.00">свинья!</text>
</g>
<!-- Rick01&#45;&gt;Rick04 -->
<g id="edge6" class="edge">
<title>Rick01&#45;&gt;Rick04</title>
<path fill="none" stroke="#449900" d="M1303.32,-954.54C1328.64,-908.39 1399.56,-779.13 1439.24,-706.81"/>
<polygon fill="#449900" stroke="#449900" points="1442.65,-708.88 1444.39,-698.43 1436.51,-705.51 1442.65,-708.88"/>
<text text-anchor="middle" x="1445.89" y="-849.26" font-family="Times,serif" font-size="14.00" fill="#449900">Башка на палочке!</text>
</g>
<!-- Rick08 -->
<g id="node15" class="node">
<title>Rick08</title>
<ellipse fill="#ffffff" stroke="#000000" cx="1298.01" cy="-341.63" rx="134.88" ry="42.25"/>
<text text-anchor="middle" x="1298.01" y="-354.21" font-family="Times,serif" font-size="14.00">Не нравится мне твое</text>
<text text-anchor="middle" x="1298.01" y="-336.96" font-family="Times,serif" font-size="14.00">отношение. Тебе лучше</text>
<text text-anchor="middle" x="1298.01" y="-319.71" font-family="Times,serif" font-size="14.00">уйти.</text>
</g>
<!-- Rick01&#45;&gt;Rick08 -->
<g id="edge7" class="edge">
<title>Rick01&#45;&gt;Rick08</title>
<path fill="none" stroke="#990070" d="M1294.12,-954.01C1294.64,-872.4 1296.84,-527.16 1297.68,-394.68"/>
<polygon fill="#990070" stroke="#990070" points="1301.19,-395.05 1297.75,-385.02 1294.19,-395 1301.19,-395.05"/>
<text text-anchor="middle" x="1327.89" y="-792.59" font-family="Times,serif" font-size="14.00" fill="#990070">Прощай.</text>
</g>
<!-- Rick02 -->
<g id="node16" class="node">
<title>Rick02</title>
<ellipse fill="#ffffff" stroke="#000000" cx="1105.01" cy="-853.94" rx="131.17" ry="30.05"/>
<text text-anchor="middle" x="1105.01" y="-857.89" font-family="Times,serif" font-size="14.00">Возвращайся в свой</text>
<text text-anchor="middle" x="1105.01" y="-840.64" font-family="Times,serif" font-size="14.00">Истсайд, тупоголовый!</text>
</g>
<!-- Rick01&#45;&gt;Rick02 -->
<g id="edge8" class="edge">
<title>Rick01&#45;&gt;Rick02</title>
<path fill="none" stroke="#009995" d="M1241.95,-958.23C1225.4,-952.81 1207.47,-945.64 1192.26,-936.49 1172.29,-924.48 1153.04,-907.29 1137.72,-891.79"/>
<polygon fill="#009995" stroke="#009995" points="1140.55,-889.64 1131.09,-884.87 1135.51,-894.5 1140.55,-889.64"/>
<text text-anchor="middle" x="1236.89" y="-914.56" font-family="Times,serif" font-size="14.00" fill="#009995">Да... Ммм...</text>
</g>
<!-- destroy_p_proc -->
<g id="node9" class="node">
<title>destroy_p_proc</title>
<ellipse fill="#ffffff" stroke="#000000" cx="1937.01" cy="-1057.54" rx="27" ry="18"/>
</g>
<!-- look_at_p_proc -->
<g id="node10" class="node">
<title>look_at_p_proc</title>
<ellipse fill="#ffffff" stroke="#000000" cx="2079.01" cy="-1057.54" rx="97.23" ry="30.05"/>
<text text-anchor="middle" x="2079.01" y="-1061.49" font-family="Times,serif" font-size="14.00">Вы видите Рика,</text>
<text text-anchor="middle" x="2079.01" y="-1044.24" font-family="Times,serif" font-size="14.00">охранника.</text>
</g>
<!-- damage_p_proc -->
<g id="node11" class="node">
<title>damage_p_proc</title>
<ellipse fill="#ffffff" stroke="#000000" cx="2221.01" cy="-1057.54" rx="27" ry="18"/>
</g>
<!-- map_enter_p_proc -->
<g id="node12" class="node">
<title>map_enter_p_proc</title>
<ellipse fill="#ffffff" stroke="#000000" cx="2293.01" cy="-1057.54" rx="27" ry="18"/>
</g>
<!-- Rick03&#45;&gt;RickEnd -->
<g id="edge13" class="edge">
<title>Rick03&#45;&gt;RickEnd</title>
<path fill="none" stroke="#004a99" d="M473.21,-833.99C283.87,-797.67 -53.34,-701.98 7.76,-487.27 46.87,-349.86 64.85,-302.47 177.01,-214 273.68,-137.75 318.81,-148.61 440.01,-127 557.78,-106 861.74,-137.12 978.01,-109 979.82,-108.56 981.63,-108.03 983.45,-107.43"/>
<polygon fill="#004a99" stroke="#004a99" points="984.61,-110.34 992.6,-103.39 982.02,-103.84 984.61,-110.34"/>
<text text-anchor="middle" x="106.64" y="-508.47" font-family="Times,serif" font-size="14.00" fill="#004a99">Простите за беспокойство.</text>
<text text-anchor="middle" x="106.64" y="-491.22" font-family="Times,serif" font-size="14.00" fill="#004a99">До свидания.</text>
</g>
<!-- Rick05 -->
<g id="node19" class="node">
<title>Rick05</title>
<ellipse fill="#ffffff" stroke="#000000" cx="473.01" cy="-655.2" rx="148.67" ry="115.44"/>
<text text-anchor="middle" x="473.01" y="-719.53" font-family="Times,serif" font-size="14.00">Если ты не знаешь, тебе</text>
<text text-anchor="middle" x="473.01" y="-702.28" font-family="Times,serif" font-size="14.00">не следует здесь</text>
<text text-anchor="middle" x="473.01" y="-685.03" font-family="Times,serif" font-size="14.00">находиться. Это частные</text>
<text text-anchor="middle" x="473.01" y="-667.78" font-family="Times,serif" font-size="14.00">апартаменты. Мистер</text>
<text text-anchor="middle" x="473.01" y="-650.53" font-family="Times,serif" font-size="14.00">Хайтауэр живет здесь и</text>
<text text-anchor="middle" x="473.01" y="-633.28" font-family="Times,serif" font-size="14.00">встречается лишь с теми,</text>
<text text-anchor="middle" x="473.01" y="-616.03" font-family="Times,serif" font-size="14.00">с кем есть</text>
<text text-anchor="middle" x="473.01" y="-598.78" font-family="Times,serif" font-size="14.00">предварительная</text>
<text text-anchor="middle" x="473.01" y="-581.53" font-family="Times,serif" font-size="14.00">договоренность о встрече.</text>
</g>
<!-- Rick03&#45;&gt;Rick05 -->
<g id="edge11" class="edge">
<title>Rick03&#45;&gt;Rick05</title>
<path fill="none" stroke="#00990f" d="M577.01,-823.91C567.6,-808.73 555.41,-789.08 542.71,-768.59"/>
<polygon fill="#00990f" stroke="#00990f" points="545.29,-767.11 537.04,-760.45 539.34,-770.8 545.29,-767.11"/>
<text text-anchor="middle" x="589.26" y="-792.59" font-family="Times,serif" font-size="14.00" fill="#00990f">Где я?</text>
</g>
<!-- Rick06 -->
<g id="node20" class="node">
<title>Rick06</title>
<ellipse fill="#ffffff" stroke="#000000" cx="747.01" cy="-341.63" rx="126.93" ry="42.25"/>
<text text-anchor="middle" x="747.01" y="-354.21" font-family="Times,serif" font-size="14.00">Я здесь для того, чтоб</text>
<text text-anchor="middle" x="747.01" y="-336.96" font-family="Times,serif" font-size="14.00">мистера Хайтауэра не</text>
<text text-anchor="middle" x="747.01" y="-319.71" font-family="Times,serif" font-size="14.00">беспокоили.</text>
</g>
<!-- Rick03&#45;&gt;Rick06 -->
<g id="edge12" class="edge">
<title>Rick03&#45;&gt;Rick06</title>
<path fill="none" stroke="#99001d" d="M609.06,-823.64C616.19,-808.11 624.67,-788.57 631.01,-770.64 678.08,-637.62 717.21,-475.7 735.64,-394.43"/>
<polygon fill="#99001d" stroke="#99001d" points="739.21,-395.51 738,-384.98 732.39,-393.97 739.21,-395.51"/>
<text text-anchor="middle" x="778.14" y="-650.53" font-family="Times,serif" font-size="14.00" fill="#99001d">Что у тебя за работа?</text>
</g>
<!-- Rick04&#45;&gt;Rick08 -->
<g id="edge15" class="edge">
<title>Rick04&#45;&gt;Rick08</title>
<path fill="none" stroke="#8f0099" d="M1433.74,-613.88C1413.82,-588.49 1388.92,-554.44 1370.76,-521.77 1347.89,-480.6 1328.24,-430.75 1315.14,-394.1"/>
<polygon fill="#8f0099" stroke="#8f0099" points="1318.26,-393.39 1311.63,-385.13 1311.65,-395.72 1318.26,-393.39"/>
<text text-anchor="middle" x="1465.14" y="-508.47" font-family="Times,serif" font-size="14.00" fill="#8f0099">Ты не стоишь того, чтобы</text>
<text text-anchor="middle" x="1465.14" y="-491.22" font-family="Times,serif" font-size="14.00" fill="#8f0099">на тебя время тратить.</text>
</g>
<!-- Rick04&#45;&gt;RickCombat -->
<g id="edge14" class="edge">
<title>Rick04&#45;&gt;RickCombat</title>
<path fill="none" stroke="#779900" d="M1503.56,-613.89C1523.67,-589.16 1546.94,-555.8 1559.01,-521.77 1604.87,-392.49 1486.75,-312.69 1582.01,-214 1607.32,-187.78 1720.7,-223.15 1745.01,-196 1765.47,-173.16 1764.86,-150.38 1745.01,-127 1723,-101.08 1625.14,-94.32 1570.04,-92.58"/>
<polygon fill="#779900" stroke="#779900" points="1570.39,-89.06 1560.3,-92.29 1570.2,-96.06 1570.39,-89.06"/>
<text text-anchor="middle" x="1681.01" y="-354.21" font-family="Times,serif" font-size="14.00" fill="#779900">НЕТ! Лучше ты посмотри!</text>
<text text-anchor="middle" x="1681.01" y="-336.96" font-family="Times,serif" font-size="14.00" fill="#779900">Сейчас моя пуля прилетит</text>
<text text-anchor="middle" x="1681.01" y="-319.71" font-family="Times,serif" font-size="14.00" fill="#779900">в твою голову!</text>
</g>
<!-- Rick08&#45;&gt;RickEnd -->
<g id="edge22" class="edge">
<title>Rick08&#45;&gt;RickEnd</title>
<path fill="none" stroke="#998800" d="M1243.64,-302.5C1209.05,-275.94 1165.45,-237.88 1136.26,-196 1117.41,-168.95 1132.6,-150.04 1109.01,-127 1093.39,-111.73 1070.54,-103.04 1051.17,-98.14"/>
<polygon fill="#998800" stroke="#998800" points="1052.06,-94.52 1041.54,-95.72 1050.52,-101.35 1052.06,-94.52"/>
<text text-anchor="middle" x="1212.39" y="-156.82" font-family="Times,serif" font-size="14.00" fill="#998800">Хорошо. Уже ухожу.</text>
</g>
<!-- Rick08&#45;&gt;RickCombat -->
<g id="edge23" class="edge">
<title>Rick08&#45;&gt;RickCombat</title>
<path fill="none" stroke="#5b0099" d="M1293.59,-299.17C1288.71,-244.27 1284.18,-151.54 1306.01,-127 1330.27,-99.75 1436.14,-93.59 1493.97,-92.28"/>
<polygon fill="#5b0099" stroke="#5b0099" points="1493.92,-95.76 1503.85,-92.08 1493.79,-88.76 1493.92,-95.76"/>
<text text-anchor="middle" x="1376.51" y="-165.45" font-family="Times,serif" font-size="14.00" fill="#5b0099">Заставь меня, урод</text>
<text text-anchor="middle" x="1376.51" y="-148.2" font-family="Times,serif" font-size="14.00" fill="#5b0099">длинноволосый!</text>
</g>
<!-- Rick10 -->
<g id="node17" class="node">
<title>Rick10</title>
<ellipse fill="#ffffff" stroke="#000000" cx="1105.01" cy="-655.2" rx="147.08" ry="42.25"/>
<text text-anchor="middle" x="1105.01" y="-667.78" font-family="Times,serif" font-size="14.00">Чудило, да ты тупее</text>
<text text-anchor="middle" x="1105.01" y="-650.53" font-family="Times,serif" font-size="14.00">пробки, ты в курсе? Чеши</text>
<text text-anchor="middle" x="1105.01" y="-633.28" font-family="Times,serif" font-size="14.00">отсюда!</text>
</g>
<!-- Rick02&#45;&gt;Rick10 -->
<g id="edge9" class="edge">
<title>Rick02&#45;&gt;Rick10</title>
<path fill="none" stroke="#996800" d="M1105.01,-823.48C1105.01,-793.14 1105.01,-745.22 1105.01,-708.43"/>
<polygon fill="#996800" stroke="#996800" points="1108.51,-708.89 1105.01,-698.89 1101.51,-708.89 1108.51,-708.89"/>
<text text-anchor="middle" x="1118.14" y="-792.59" font-family="Times,serif" font-size="14.00" fill="#996800">Че?</text>
</g>
<!-- Rick02&#45;&gt;RickEnd -->
<g id="edge10" class="edge">
<title>Rick02&#45;&gt;RickEnd</title>
<path fill="none" stroke="#3c0099" d="M1026.09,-829.7C997,-817.02 966.83,-798.14 949.01,-770.64 910.07,-710.51 868.53,-183.93 912.01,-127 930.47,-102.84 949.49,-119.53 978.01,-109 979.71,-108.37 981.43,-107.7 983.16,-106.99"/>
<polygon fill="#3c0099" stroke="#3c0099" points="984.2,-109.92 991.96,-102.7 981.39,-103.51 984.2,-109.92"/>
<text text-anchor="middle" x="938.64" y="-499.84" font-family="Times,serif" font-size="14.00" fill="#3c0099">Уже иду.</text>
</g>
<!-- Rick05&#45;&gt;RickEnd -->
<g id="edge18" class="edge">
<title>Rick05&#45;&gt;RickEnd</title>
<path fill="none" stroke="#090099" d="M440.66,-542.05C435.09,-518.22 430.16,-493.07 427.26,-469.27 413.54,-356.65 361.61,-306.52 427.26,-214 495.05,-118.48 561.18,-150.04 676.01,-127 807.85,-100.55 847.75,-142.31 978.01,-109 979.81,-108.54 981.62,-107.99 983.43,-107.38"/>
<polygon fill="#090099" stroke="#090099" points="984.61,-110.27 992.58,-103.29 982,-103.78 984.61,-110.27"/>
<text text-anchor="middle" x="519.89" y="-345.58" font-family="Times,serif" font-size="14.00" fill="#090099">Спасибо, что уделил мне</text>
<text text-anchor="middle" x="519.89" y="-328.33" font-family="Times,serif" font-size="14.00" fill="#090099">время.</text>
</g>
<!-- Rick05&#45;&gt;Rick06 -->
<g id="edge16" class="edge">
<title>Rick05&#45;&gt;Rick06</title>
<path fill="none" stroke="#009962" d="M452.56,-540.75C454.53,-521.08 460.67,-502.19 473.76,-487.27 493.32,-464.97 579.1,-481.72 606.01,-469.27 645.15,-451.15 681.17,-418.39 707.01,-390.73"/>
<polygon fill="#009962" stroke="#009962" points="709.18,-393.45 713.35,-383.71 704.02,-388.72 709.18,-393.45"/>
<text text-anchor="middle" x="553.14" y="-499.84" font-family="Times,serif" font-size="14.00" fill="#009962">Что у тебя за работа?</text>
</g>
<!-- Rick07 -->
<g id="node22" class="node">
<title>Rick07</title>
<ellipse fill="#ffffff" stroke="#000000" cx="220.01" cy="-341.63" rx="33.85" ry="18"/>
<text text-anchor="middle" x="220.01" y="-336.96" font-family="Times,serif" font-size="14.00">Нет.</text>
</g>
<!-- Rick05&#45;&gt;Rick07 -->
<g id="edge17" class="edge">
<title>Rick05&#45;&gt;Rick07</title>
<path fill="none" stroke="#993500" d="M334.27,-613.09C290.52,-592.89 247,-563.59 221.51,-521.77 192.99,-474.95 203.03,-407.68 212.06,-370.32"/>
<polygon fill="#993500" stroke="#993500" points="215.68,-371.29 214.78,-360.74 208.9,-369.55 215.68,-371.29"/>
<text text-anchor="middle" x="318.76" y="-508.47" font-family="Times,serif" font-size="14.00" fill="#993500">Могу я назначить встречу</text>
<text text-anchor="middle" x="318.76" y="-491.22" font-family="Times,serif" font-size="14.00" fill="#993500">с мистером Хайтауэром?</text>
</g>
<!-- Rick06&#45;&gt;RickEnd -->
<g id="edge21" class="edge">
<title>Rick06&#45;&gt;RickEnd</title>
<path fill="none" stroke="#007d99" d="M719.53,-300.03C691.02,-252.38 656.25,-173.95 700.26,-127 721.41,-104.44 948.07,-116.74 978.01,-109 979.81,-108.54 981.62,-107.98 983.43,-107.36"/>
<polygon fill="#007d99" stroke="#007d99" points="984.61,-110.26 992.57,-103.27 981.99,-103.77 984.61,-110.26"/>
<text text-anchor="middle" x="792.89" y="-165.45" font-family="Times,serif" font-size="14.00" fill="#007d99">Спасибо, что уделил мне</text>
<text text-anchor="middle" x="792.89" y="-148.2" font-family="Times,serif" font-size="14.00" fill="#007d99">время. Пока.</text>
</g>
<!-- Rick06&#45;&gt;Rick05 -->
<g id="edge20" class="edge">
<title>Rick06&#45;&gt;Rick05</title>
<path fill="none" stroke="#990051" d="M721.37,-383.26C689.14,-434.22 637.37,-515.71 632.01,-521.77 618.32,-537.27 602.74,-552.5 586.82,-566.79"/>
<polygon fill="#990051" stroke="#990051" points="585.15,-563.48 579.99,-572.73 589.79,-568.72 585.15,-563.48"/>
<text text-anchor="middle" x="678.26" y="-499.84" font-family="Times,serif" font-size="14.00" fill="#990051">Где я?</text>
</g>
<!-- Rick06&#45;&gt;RickCombat -->
<g id="edge19" class="edge">
<title>Rick06&#45;&gt;RickCombat</title>
<path fill="none" stroke="#249900" d="M790.77,-301.8C820.54,-274.08 859.7,-234.94 889.01,-196 910.2,-167.86 898.11,-145.63 928.01,-127 952.08,-112.01 1365.46,-97.4 1494.11,-93.2"/>
<polygon fill="#249900" stroke="#249900" points="1494.08,-96.67 1503.97,-92.85 1493.86,-89.67 1494.08,-96.67"/>
<text text-anchor="middle" x="1016.51" y="-182.7" font-family="Times,serif" font-size="14.00" fill="#249900">Что ж, меня интересует</text>
<text text-anchor="middle" x="1016.51" y="-165.45" font-family="Times,serif" font-size="14.00" fill="#249900">убийство мистера</text>
<text text-anchor="middle" x="1016.51" y="-148.2" font-family="Times,serif" font-size="14.00" fill="#249900">Хайтауэра. Время</text>
<text text-anchor="middle" x="1016.51" y="-130.95" font-family="Times,serif" font-size="14.00" fill="#249900">отрабатывать зарплату!</text>
</g>
<!-- RickCombat&#45;&gt;combat -->
<g id="edge28" class="edge">
<title>RickCombat&#45;&gt;combat</title>
<path fill="none" stroke="#555555" stroke-dasharray="1,5" d="M1505.29,-86.72C1411.8,-75.23 1099.19,-36.83 991.13,-23.56"/>
<polygon fill="#555555" stroke="#555555" points="991.8,-19.99 981.45,-22.25 990.95,-26.94 991.8,-19.99"/>
</g>
</g>
</svg>
