<?xml version="1.0" encoding="UTF-8" standalone="no"?>
<!DOCTYPE svg PUBLIC "-//W3C//DTD SVG 1.1//EN"
 "http://www.w3.org/Graphics/SVG/1.1/DTD/svg11.dtd">
<!-- Generated by graphviz version 8.0.5 (0)
 -->
<!-- Title: invader Pages: 1 -->
<svg width="266pt" height="333pt"
 viewBox="0.00 0.00 266.05 332.60" xmlns="http://www.w3.org/2000/svg" xmlns:xlink="http://www.w3.org/1999/xlink">
<g id="graph0" class="graph" transform="scale(1 1) rotate(0) translate(4 328.6)">
<title>invader</title>
<polygon fill="white" stroke="none" points="-4,4 -4,-328.6 262.05,-328.6 262.05,4 -4,4"/>
<!-- start -->
<g id="node1" class="node">
<title>start</title>
<ellipse fill="#ffffff" stroke="#000000" cx="117.38" cy="-294.55" rx="117.38" ry="30.05"/>
<text text-anchor="middle" x="117.38" y="-298.5" font-family="Times,serif" font-size="14.00">Вы видите бегущего</text>
<text text-anchor="middle" x="117.38" y="-281.25" font-family="Times,serif" font-size="14.00">супермутанта.</text>
</g>
<!-- timetomove -->
<g id="node2" class="node">
<title>timetomove</title>
<ellipse fill="#ffffff" stroke="#000000" cx="62.38" cy="-210.5" rx="27" ry="18"/>
</g>
<!-- start&#45;&gt;timetomove -->
<g id="edge1" class="edge">
<title>start&#45;&gt;timetomove</title>
<path fill="none" stroke="#555555" stroke-dasharray="1,5" d="M98.14,-264.85C91.96,-255.62 85.15,-245.47 79.16,-236.53"/>
<polygon fill="#555555" stroke="#555555" points="81.51,-234.75 73.03,-228.39 75.69,-238.65 81.51,-234.75"/>
</g>
<!-- mutant00 -->
<g id="node3" class="node">
<title>mutant00</title>
<ellipse fill="#ffffff" stroke="#000000" cx="144.38" cy="-114.25" rx="113.67" ry="42.25"/>
<text text-anchor="middle" x="144.38" y="-126.82" font-family="Times,serif" font-size="14.00">Иди сюда, человек!</text>
<text text-anchor="middle" x="144.38" y="-109.57" font-family="Times,serif" font-size="14.00">&#45;&#45;&#45;</text>
<text text-anchor="middle" x="144.38" y="-92.32" font-family="Times,serif" font-size="14.00">Стой!</text>
</g>
<!-- start&#45;&gt;mutant00 -->
<g id="edge2" class="edge">
<title>start&#45;&gt;mutant00</title>
<path fill="none" stroke="#555555" stroke-dasharray="1,5" d="M121.84,-264.11C125.8,-237.92 131.7,-199.01 136.46,-167.53"/>
<polygon fill="#555555" stroke="#555555" points="140.06,-168.16 138.1,-157.74 133.14,-167.11 140.06,-168.16"/>
</g>
<!-- Critter_Action -->
<g id="node4" class="node">
<title>Critter_Action</title>
<ellipse fill="#ffffff" stroke="#000000" cx="172.38" cy="-210.5" rx="27" ry="18"/>
</g>
<!-- start&#45;&gt;Critter_Action -->
<g id="edge3" class="edge">
<title>start&#45;&gt;Critter_Action</title>
<path fill="none" stroke="#555555" stroke-dasharray="1,5" d="M136.62,-264.85C142.8,-255.62 149.61,-245.47 155.6,-236.53"/>
<polygon fill="#555555" stroke="#555555" points="159.07,-238.65 161.73,-228.39 153.25,-234.75 159.07,-238.65"/>
</g>
<!-- combat -->
<g id="node5" class="node">
<title>combat</title>
<ellipse fill="#ffffff" stroke="#000000" cx="144.38" cy="-18" rx="27" ry="18"/>
</g>
<!-- mutant00&#45;&gt;combat -->
<g id="edge4" class="edge">
<title>mutant00&#45;&gt;combat</title>
<path fill="none" stroke="#555555" stroke-dasharray="1,5" d="M144.38,-71.64C144.38,-63.38 144.38,-54.9 144.38,-47.22"/>
<polygon fill="#555555" stroke="#555555" points="147.88,-47.32 144.38,-37.32 140.88,-47.32 147.88,-47.32"/>
</g>
<!-- Critter_Action&#45;&gt;mutant00 -->
<g id="edge5" class="edge">
<title>Critter_Action&#45;&gt;mutant00</title>
<path fill="none" stroke="#555555" stroke-dasharray="1,5" d="M167.37,-192.65C165.2,-185.34 162.53,-176.35 159.79,-167.11"/>
<polygon fill="#555555" stroke="#555555" points="162.88,-166.24 156.68,-157.65 156.17,-168.23 162.88,-166.24"/>
</g>
</g>
</svg>
