<?xml version="1.0" encoding="UTF-8" standalone="no"?>
<!DOCTYPE svg PUBLIC "-//W3C//DTD SVG 1.1//EN"
 "http://www.w3.org/Graphics/SVG/1.1/DTD/svg11.dtd">
<!-- Generated by graphviz version 8.0.5 (0)
 -->
<!-- Title: izo Pages: 1 -->
<svg width="893pt" height="213pt"
 viewBox="0.00 0.00 893.15 213.00" xmlns="http://www.w3.org/2000/svg" xmlns:xlink="http://www.w3.org/1999/xlink">
<g id="graph0" class="graph" transform="scale(1 1) rotate(0) translate(4 209)">
<title>izo</title>
<polygon fill="white" stroke="none" points="-4,4 -4,-209 889.15,-209 889.15,4 -4,4"/>
<!-- start -->
<g id="node1" class="node">
<title>start</title>
<ellipse fill="#ffffff" stroke="#000000" cx="140.18" cy="-162.75" rx="27" ry="18"/>
</g>
<!-- description_p_proc -->
<g id="node2" class="node">
<title>description_p_proc</title>
<ellipse fill="#ffffff" stroke="#000000" cx="140.18" cy="-42.25" rx="140.18" ry="42.25"/>
<text text-anchor="middle" x="140.18" y="-54.82" font-family="Times,serif" font-size="14.00">Его поза и мускулатура</text>
<text text-anchor="middle" x="140.18" y="-37.57" font-family="Times,serif" font-size="14.00">указывают на то, что он</text>
<text text-anchor="middle" x="140.18" y="-20.32" font-family="Times,serif" font-size="14.00">мастер боевых искусств.</text>
</g>
<!-- start&#45;&gt;description_p_proc -->
<g id="edge1" class="edge">
<title>start&#45;&gt;description_p_proc</title>
<path fill="none" stroke="#555555" stroke-dasharray="1,5" d="M140.18,-144.26C140.18,-131.36 140.18,-113.08 140.18,-95.61"/>
<polygon fill="#555555" stroke="#555555" points="143.68,-95.9 140.18,-85.9 136.68,-95.9 143.68,-95.9"/>
</g>
<!-- critter_p_proc -->
<g id="node3" class="node">
<title>critter_p_proc</title>
<ellipse fill="#ffffff" stroke="#000000" cx="335.18" cy="-162.75" rx="149.59" ry="18"/>
<text text-anchor="middle" x="335.18" y="-158.07" font-family="Times,serif" font-size="14.00">Айзо показывает на дверь.</text>
</g>
<!-- destroy_p_proc -->
<g id="node4" class="node">
<title>destroy_p_proc</title>
<ellipse fill="#ffffff" stroke="#000000" cx="530.18" cy="-162.75" rx="27" ry="18"/>
</g>
<!-- pickup_p_proc -->
<g id="node5" class="node">
<title>pickup_p_proc</title>
<ellipse fill="#ffffff" stroke="#000000" cx="602.18" cy="-162.75" rx="27" ry="18"/>
</g>
<!-- talk_p_proc -->
<g id="node6" class="node">
<title>talk_p_proc</title>
<ellipse fill="#ffffff" stroke="#000000" cx="766.18" cy="-162.75" rx="118.97" ry="42.25"/>
<text text-anchor="middle" x="766.18" y="-175.32" font-family="Times,serif" font-size="14.00">Айзо молчит.</text>
<text text-anchor="middle" x="766.18" y="-158.07" font-family="Times,serif" font-size="14.00">&#45;&#45;&#45;</text>
<text text-anchor="middle" x="766.18" y="-140.82" font-family="Times,serif" font-size="14.00"> Он дает вам деньги.</text>
</g>
</g>
</svg>
