<?xml version="1.0" encoding="UTF-8" standalone="no"?>
<!DOCTYPE svg PUBLIC "-//W3C//DTD SVG 1.1//EN"
 "http://www.w3.org/Graphics/SVG/1.1/DTD/svg11.dtd">
<!-- Generated by graphviz version 8.0.5 (0)
 -->
<!-- Title: jtbob Pages: 1 -->
<svg width="2344pt" height="1905pt"
 viewBox="0.00 0.00 2343.87 1904.69" xmlns="http://www.w3.org/2000/svg" xmlns:xlink="http://www.w3.org/1999/xlink">
<g id="graph0" class="graph" transform="scale(1 1) rotate(0) translate(4 1900.69)">
<title>jtbob</title>
<polygon fill="white" stroke="none" points="-4,4 -4,-1900.69 2339.87,-1900.69 2339.87,4 -4,4"/>
<!-- start -->
<g id="node1" class="node">
<title>start</title>
<ellipse fill="#ffffff" stroke="#000000" cx="1234.44" cy="-1866.64" rx="27" ry="18"/>
</g>
<!-- critter_p_proc -->
<g id="node2" class="node">
<title>critter_p_proc</title>
<ellipse fill="#ffffff" stroke="#000000" cx="1306.44" cy="-1866.64" rx="27" ry="18"/>
</g>
<!-- damage_p_proc -->
<g id="node3" class="node">
<title>damage_p_proc</title>
<ellipse fill="#ffffff" stroke="#000000" cx="1378.44" cy="-1866.64" rx="27" ry="18"/>
</g>
<!-- pickup_p_proc -->
<g id="node4" class="node">
<title>pickup_p_proc</title>
<ellipse fill="#ffffff" stroke="#000000" cx="1450.44" cy="-1866.64" rx="27" ry="18"/>
</g>
<!-- destroy_p_proc -->
<g id="node5" class="node">
<title>destroy_p_proc</title>
<ellipse fill="#ffffff" stroke="#000000" cx="1522.44" cy="-1866.64" rx="27" ry="18"/>
</g>
<!-- talk_p_proc -->
<g id="node6" class="node">
<title>talk_p_proc</title>
<ellipse fill="#ffffff" stroke="#000000" cx="1594.44" cy="-1866.64" rx="27" ry="18"/>
</g>
<!-- bob15 -->
<g id="node7" class="node">
<title>bob15</title>
<ellipse fill="#ffffff" stroke="#000000" cx="2191.44" cy="-1553.54" rx="144.43" ry="30.05"/>
<text text-anchor="middle" x="2191.44" y="-1557.49" font-family="Times,serif" font-size="14.00">Эк! Боже мой! Беда! Они</text>
<text text-anchor="middle" x="2191.44" y="-1540.24" font-family="Times,serif" font-size="14.00">меня прикончат! Пока.</text>
</g>
<!-- talk_p_proc&#45;&gt;bob15 -->
<g id="edge1" class="edge">
<title>talk_p_proc&#45;&gt;bob15</title>
<path fill="none" stroke="#555555" stroke-dasharray="1,5" d="M1609.68,-1851.28C1615.78,-1846.1 1623.1,-1840.56 1630.44,-1836.58 1677.28,-1811.21 1697.65,-1825.03 1744.44,-1799.58 1811.86,-1762.92 1812.87,-1730.56 1878.44,-1690.69 1889.46,-1683.99 2030.16,-1623.47 2119.13,-1585.41"/>
<polygon fill="#555555" stroke="#555555" points="2120.36,-1588.27 2128.17,-1581.12 2117.6,-1581.83 2120.36,-1588.27"/>
</g>
<!-- bob9 -->
<g id="node8" class="node">
<title>bob9</title>
<ellipse fill="#ffffff" stroke="#000000" cx="2019.44" cy="-1745.14" rx="131.7" ry="42.25"/>
<text text-anchor="middle" x="2019.44" y="-1757.71" font-family="Times,serif" font-size="14.00">Как хорошо, что Гизмо</text>
<text text-anchor="middle" x="2019.44" y="-1740.46" font-family="Times,serif" font-size="14.00">сдох, а то я ему кучу</text>
<text text-anchor="middle" x="2019.44" y="-1723.21" font-family="Times,serif" font-size="14.00">денег задолжал.</text>
</g>
<!-- talk_p_proc&#45;&gt;bob9 -->
<g id="edge2" class="edge">
<title>talk_p_proc&#45;&gt;bob9</title>
<path fill="none" stroke="#555555" stroke-dasharray="1,5" d="M1608.54,-1850.93C1614.71,-1845.44 1622.38,-1839.77 1630.44,-1836.58 1731.15,-1796.77 1768.99,-1847.18 1873.44,-1818.58 1899.23,-1811.52 1925.87,-1799.81 1949.22,-1787.83"/>
<polygon fill="#555555" stroke="#555555" points="1950.44,-1790.62 1957.67,-1782.88 1947.19,-1784.42 1950.44,-1790.62"/>
</g>
<!-- bob0 -->
<g id="node9" class="node">
<title>bob0</title>
<ellipse fill="#ffffff" stroke="#000000" cx="365.44" cy="-1745.14" rx="136.47" ry="42.25"/>
<text text-anchor="middle" x="365.44" y="-1757.71" font-family="Times,serif" font-size="14.00">Не убивай меня,</text>
<text text-anchor="middle" x="365.44" y="-1740.46" font-family="Times,serif" font-size="14.00">пожалуйста! Клянусь, я</text>
<text text-anchor="middle" x="365.44" y="-1723.21" font-family="Times,serif" font-size="14.00">достану деньги!</text>
</g>
<!-- talk_p_proc&#45;&gt;bob0 -->
<g id="edge3" class="edge">
<title>talk_p_proc&#45;&gt;bob0</title>
<path fill="none" stroke="#555555" stroke-dasharray="1,5" d="M1580.38,-1850.84C1574.22,-1845.34 1566.54,-1839.68 1558.44,-1836.58 1411.1,-1780.18 1006.69,-1812.36 849.44,-1799.58 731.88,-1790.03 598.7,-1775.02 501.85,-1763.33"/>
<polygon fill="#555555" stroke="#555555" points="502.46,-1759.76 492.11,-1762.03 501.62,-1766.71 502.46,-1759.76"/>
</g>
<!-- bob13 -->
<g id="node10" class="node">
<title>bob13</title>
<ellipse fill="#ffffff" stroke="#000000" cx="1594.44" cy="-1745.14" rx="140.71" ry="54.45"/>
<text text-anchor="middle" x="1594.44" y="-1766.34" font-family="Times,serif" font-size="14.00">А, это ты. Снова меня</text>
<text text-anchor="middle" x="1594.44" y="-1749.09" font-family="Times,serif" font-size="14.00">пугаешь, да? Там никого</text>
<text text-anchor="middle" x="1594.44" y="-1731.84" font-family="Times,serif" font-size="14.00">из казино поблизости</text>
<text text-anchor="middle" x="1594.44" y="-1714.59" font-family="Times,serif" font-size="14.00">нету?</text>
</g>
<!-- talk_p_proc&#45;&gt;bob13 -->
<g id="edge4" class="edge">
<title>talk_p_proc&#45;&gt;bob13</title>
<path fill="none" stroke="#555555" stroke-dasharray="1,5" d="M1594.44,-1848.26C1594.44,-1838.1 1594.44,-1824.57 1594.44,-1810.69"/>
<polygon fill="#555555" stroke="#555555" points="1597.94,-1811.06 1594.44,-1801.06 1590.94,-1811.06 1597.94,-1811.06"/>
</g>
<!-- bob10 -->
<g id="node11" class="node">
<title>bob10</title>
<ellipse fill="#ffffff" stroke="#000000" cx="1010.44" cy="-1745.14" rx="152.38" ry="30.05"/>
<text text-anchor="middle" x="1010.44" y="-1749.09" font-family="Times,serif" font-size="14.00">Эй, что ты делаешь в моей</text>
<text text-anchor="middle" x="1010.44" y="-1731.84" font-family="Times,serif" font-size="14.00">комнате? Ты не из казино?</text>
</g>
<!-- talk_p_proc&#45;&gt;bob10 -->
<g id="edge5" class="edge">
<title>talk_p_proc&#45;&gt;bob10</title>
<path fill="none" stroke="#555555" stroke-dasharray="1,5" d="M1579.85,-1850.99C1573.72,-1845.64 1566.21,-1840.06 1558.44,-1836.58 1488.01,-1805.02 1291.39,-1777.57 1153.93,-1761.42"/>
<polygon fill="#555555" stroke="#555555" points="1154.65,-1757.87 1144.31,-1760.18 1153.84,-1764.82 1154.65,-1757.87"/>
</g>
<!-- bob1 -->
<g id="node14" class="node">
<title>bob1</title>
<ellipse fill="#ffffff" stroke="#000000" cx="1010.44" cy="-1553.54" rx="161.4" ry="54.45"/>
<text text-anchor="middle" x="1010.44" y="-1574.74" font-family="Times,serif" font-size="14.00">Ох! Ты наверно Тупой</text>
<text text-anchor="middle" x="1010.44" y="-1557.49" font-family="Times,serif" font-size="14.00">Фред, Безжалостный Убийца</text>
<text text-anchor="middle" x="1010.44" y="-1540.24" font-family="Times,serif" font-size="14.00">из Грязи. Не убивай меня,</text>
<text text-anchor="middle" x="1010.44" y="-1522.99" font-family="Times,serif" font-size="14.00">пожалуйста!</text>
</g>
<!-- bob0&#45;&gt;bob1 -->
<g id="edge6" class="edge">
<title>bob0&#45;&gt;bob1</title>
<path fill="none" stroke="#992d00" d="M459.01,-1714.05C482.21,-1703.54 505.75,-1689.92 524.44,-1672.69 537.31,-1660.82 528.65,-1647.56 543.44,-1638.19 598.18,-1603.52 771.07,-1633.66 834.44,-1620.19 856.61,-1615.48 879.71,-1608.49 901.61,-1600.8"/>
<polygon fill="#992d00" stroke="#992d00" points="902.68,-1603.78 910.91,-1597.1 900.32,-1597.19 902.68,-1603.78"/>
<text text-anchor="middle" x="576.44" y="-1650.76" font-family="Times,serif" font-size="14.00" fill="#992d00">Нда, ага.</text>
</g>
<!-- bob2 -->
<g id="node15" class="node">
<title>bob2</title>
<ellipse fill="#ffffff" stroke="#000000" cx="495.44" cy="-1553.54" rx="136.47" ry="42.25"/>
<text text-anchor="middle" x="495.44" y="-1566.12" font-family="Times,serif" font-size="14.00">Вот. Вот. Забирай. Это</text>
<text text-anchor="middle" x="495.44" y="-1548.87" font-family="Times,serif" font-size="14.00">все крышки, что у меня</text>
<text text-anchor="middle" x="495.44" y="-1531.62" font-family="Times,serif" font-size="14.00">есть.</text>
</g>
<!-- bob0&#45;&gt;bob2 -->
<g id="edge7" class="edge">
<title>bob0&#45;&gt;bob2</title>
<path fill="none" stroke="#000099" d="M357.24,-1702.57C355.29,-1682.01 356.28,-1657.52 366.94,-1638.19 376.68,-1620.52 391.92,-1605.99 408.54,-1594.27"/>
<polygon fill="#000099" stroke="#000099" points="409.97,-1596.87 416.34,-1588.4 406.08,-1591.04 409.97,-1596.87"/>
<text text-anchor="middle" x="446.19" y="-1659.39" font-family="Times,serif" font-size="14.00" fill="#000099">Да, пора бы тебе уже</text>
<text text-anchor="middle" x="446.19" y="-1642.14" font-family="Times,serif" font-size="14.00" fill="#000099">расплатиться.</text>
</g>
<!-- bob3 -->
<g id="node16" class="node">
<title>bob3</title>
<ellipse fill="#ffffff" stroke="#000000" cx="158.44" cy="-1553.54" rx="148.67" ry="30.05"/>
<text text-anchor="middle" x="158.44" y="-1557.49" font-family="Times,serif" font-size="14.00">Ты хочешь сказать, что не</text>
<text text-anchor="middle" x="158.44" y="-1540.24" font-family="Times,serif" font-size="14.00">убьешь меня?</text>
</g>
<!-- bob0&#45;&gt;bob3 -->
<g id="edge8" class="edge">
<title>bob0&#45;&gt;bob3</title>
<path fill="none" stroke="#2d9900" d="M239.9,-1728.17C172.78,-1716.78 99.84,-1698.81 79.44,-1672.69 58.5,-1645.87 83.04,-1613.67 110.14,-1589.66"/>
<polygon fill="#2d9900" stroke="#2d9900" points="111.85,-1591.95 117.2,-1582.8 107.31,-1586.62 111.85,-1591.95"/>
<text text-anchor="middle" x="148.44" y="-1659.39" font-family="Times,serif" font-size="14.00" fill="#2d9900">Кажется, это не та</text>
<text text-anchor="middle" x="148.44" y="-1642.14" font-family="Times,serif" font-size="14.00" fill="#2d9900">комната.</text>
</g>
<!-- bob0&#45;&gt;bob3 -->
<g id="edge9" class="edge">
<title>bob0&#45;&gt;bob3</title>
<path fill="none" stroke="#990059" d="M298.6,-1708.01C282.12,-1697.66 265.09,-1685.63 250.69,-1672.69 224.44,-1649.08 200.1,-1617.32 183.03,-1592.67"/>
<polygon fill="#990059" stroke="#990059" points="185.37,-1590.89 176.85,-1584.6 179.59,-1594.84 185.37,-1590.89"/>
<text text-anchor="middle" x="302.82" y="-1650.76" font-family="Times,serif" font-size="14.00" fill="#990059">О чем это ты?</text>
</g>
<!-- bob13&#45;&gt;bob15 -->
<g id="edge38" class="edge">
<title>bob13&#45;&gt;bob15</title>
<path fill="none" stroke="#920099" d="M1687.73,-1704.12C1703.58,-1695.07 1719.18,-1684.57 1732.44,-1672.69 1746.17,-1660.4 1739.48,-1647.4 1755.44,-1638.19 1809.83,-1606.81 1976.35,-1634.71 2037.44,-1620.19 2068.92,-1612.71 2102.15,-1599.32 2129.64,-1586.57"/>
<polygon fill="#920099" stroke="#920099" points="2130.95,-1589.35 2138.5,-1581.92 2127.96,-1583.02 2130.95,-1589.35"/>
<text text-anchor="middle" x="1800.44" y="-1650.76" font-family="Times,serif" font-size="14.00" fill="#920099">Разумеется.</text>
</g>
<!-- bob13&#45;&gt;bob1 -->
<g id="edge36" class="edge">
<title>bob13&#45;&gt;bob1</title>
<path fill="none" stroke="#004799" d="M1454.79,-1737.28C1369.48,-1729.1 1259.75,-1711.31 1169.19,-1672.69 1134.68,-1657.97 1100.73,-1634.31 1073.13,-1612.02"/>
<polygon fill="#004799" stroke="#004799" points="1075.73,-1608.8 1065.78,-1605.15 1071.28,-1614.21 1075.73,-1608.8"/>
<text text-anchor="middle" x="1188.57" y="-1650.76" font-family="Times,serif" font-size="14.00" fill="#004799">Хн&#45;н!</text>
</g>
<!-- bob14 -->
<g id="node26" class="node">
<title>bob14</title>
<ellipse fill="#ffffff" stroke="#000000" cx="1867.44" cy="-1553.54" rx="161.4" ry="66.64"/>
<text text-anchor="middle" x="1867.44" y="-1583.37" font-family="Times,serif" font-size="14.00">Хорошо, хорошо. Мне нужно</text>
<text text-anchor="middle" x="1867.44" y="-1566.12" font-family="Times,serif" font-size="14.00">еще буквально пару дней,</text>
<text text-anchor="middle" x="1867.44" y="-1548.87" font-family="Times,serif" font-size="14.00">и я отдам им все деньги и</text>
<text text-anchor="middle" x="1867.44" y="-1531.62" font-family="Times,serif" font-size="14.00">даже больше. Я лучше</text>
<text text-anchor="middle" x="1867.44" y="-1514.37" font-family="Times,serif" font-size="14.00">играю, чем они думают.</text>
</g>
<!-- bob13&#45;&gt;bob14 -->
<g id="edge37" class="edge">
<title>bob13&#45;&gt;bob14</title>
<path fill="none" stroke="#739900" d="M1638.83,-1693.16C1656.71,-1674.45 1678.27,-1654 1700.19,-1638.19 1715.19,-1627.37 1731.79,-1617.22 1748.54,-1607.99"/>
<polygon fill="#739900" stroke="#739900" points="1749.72,-1610.79 1756.85,-1602.95 1746.39,-1604.63 1749.72,-1610.79"/>
<text text-anchor="middle" x="1716.57" y="-1650.76" font-family="Times,serif" font-size="14.00" fill="#739900">Нет.</text>
</g>
<!-- bob16 -->
<g id="node27" class="node">
<title>bob16</title>
<ellipse fill="#ffffff" stroke="#000000" cx="1507.44" cy="-1337.56" rx="135.41" ry="42.25"/>
<text text-anchor="middle" x="1507.44" y="-1350.13" font-family="Times,serif" font-size="14.00">Давай, мочи. Э&#45;э, не, не</text>
<text text-anchor="middle" x="1507.44" y="-1332.88" font-family="Times,serif" font-size="14.00">то слово, Боб. Это не то</text>
<text text-anchor="middle" x="1507.44" y="-1315.63" font-family="Times,serif" font-size="14.00">слово.</text>
</g>
<!-- bob13&#45;&gt;bob16 -->
<g id="edge39" class="edge">
<title>bob13&#45;&gt;bob16</title>
<path fill="none" stroke="#009965" d="M1548.83,-1693.32C1532.81,-1672.23 1516.74,-1646.54 1508.44,-1620.19 1484.16,-1543.08 1490.83,-1448.09 1498.59,-1390.49"/>
<polygon fill="#009965" stroke="#009965" points="1502.17,-1391.22 1500.1,-1380.83 1495.24,-1390.24 1502.17,-1391.22"/>
<text text-anchor="middle" x="1602.94" y="-1557.49" font-family="Times,serif" font-size="14.00" fill="#009965">Эй, я хочу тебя кое о чем</text>
<text text-anchor="middle" x="1602.94" y="-1540.24" font-family="Times,serif" font-size="14.00" fill="#009965">спросить.</text>
</g>
<!-- bob10&#45;&gt;bob1 -->
<g id="edge26" class="edge">
<title>bob10&#45;&gt;bob1</title>
<path fill="none" stroke="#009946" d="M1010.44,-1714.93C1010.44,-1689.45 1010.44,-1651.58 1010.44,-1619.03"/>
<polygon fill="#009946" stroke="#009946" points="1013.94,-1619.22 1010.44,-1609.22 1006.94,-1619.22 1013.94,-1619.22"/>
<text text-anchor="middle" x="1033.32" y="-1650.76" font-family="Times,serif" font-size="14.00" fill="#009946">Ныхх!</text>
</g>
<!-- bob10&#45;&gt;bob2 -->
<g id="edge27" class="edge">
<title>bob10&#45;&gt;bob2</title>
<path fill="none" stroke="#991900" d="M878.96,-1729.74C787.93,-1717.78 676.33,-1698.55 636.94,-1672.69 621.43,-1662.51 626.44,-1651.43 613.44,-1638.19 599.14,-1623.61 582.01,-1609.86 565.3,-1597.87"/>
<polygon fill="#991900" stroke="#991900" points="567.82,-1594.66 557.62,-1591.77 563.79,-1600.38 567.82,-1594.66"/>
<text text-anchor="middle" x="729.69" y="-1659.39" font-family="Times,serif" font-size="14.00" fill="#991900">Да, из казино. Думал мы</text>
<text text-anchor="middle" x="729.69" y="-1642.14" font-family="Times,serif" font-size="14.00" fill="#991900">тебя не найдем?</text>
</g>
<!-- bob5 -->
<g id="node18" class="node">
<title>bob5</title>
<ellipse fill="#ffffff" stroke="#000000" cx="475.44" cy="-1337.56" rx="150.79" ry="54.45"/>
<text text-anchor="middle" x="475.44" y="-1358.76" font-family="Times,serif" font-size="14.00">Боже, я думал ты из</text>
<text text-anchor="middle" x="475.44" y="-1341.51" font-family="Times,serif" font-size="14.00">казино. Я им столько</text>
<text text-anchor="middle" x="475.44" y="-1324.26" font-family="Times,serif" font-size="14.00">денег задолжал, что песка</text>
<text text-anchor="middle" x="475.44" y="-1307.01" font-family="Times,serif" font-size="14.00">в пустыне.</text>
</g>
<!-- bob10&#45;&gt;bob5 -->
<g id="edge29" class="edge">
<title>bob10&#45;&gt;bob5</title>
<path fill="none" stroke="#409900" d="M970.12,-1715.67C933.2,-1691.08 876.15,-1656.67 821.44,-1638.19 767.33,-1619.91 739.17,-1655.39 694.19,-1620.19 643.89,-1580.82 677.08,-1539.22 640.44,-1486.9 615.8,-1451.71 581.31,-1419.02 550.23,-1393.34"/>
<polygon fill="#409900" stroke="#409900" points="552.95,-1390.23 542.99,-1386.63 548.53,-1395.66 552.95,-1390.23"/>
<text text-anchor="middle" x="767.57" y="-1548.87" font-family="Times,serif" font-size="14.00" fill="#409900">А что там с казино?</text>
</g>
<!-- bob11 -->
<g id="node24" class="node">
<title>bob11</title>
<ellipse fill="#ffffff" stroke="#000000" cx="1326.44" cy="-1553.54" rx="137" ry="30.05"/>
<text text-anchor="middle" x="1326.44" y="-1557.49" font-family="Times,serif" font-size="14.00">Ох, боже, я думал ты из</text>
<text text-anchor="middle" x="1326.44" y="-1540.24" font-family="Times,serif" font-size="14.00">казино. Ну и испугался.</text>
</g>
<!-- bob10&#45;&gt;bob11 -->
<g id="edge28" class="edge">
<title>bob10&#45;&gt;bob11</title>
<path fill="none" stroke="#001399" d="M1103.32,-1720.88C1138.82,-1709.55 1178.63,-1693.73 1211.44,-1672.69 1245.21,-1651.03 1276.48,-1617.68 1297.85,-1591.92"/>
<polygon fill="#001399" stroke="#001399" points="1301.11,-1594.47 1304.72,-1584.51 1295.68,-1590.05 1301.11,-1594.47"/>
<text text-anchor="middle" x="1335.82" y="-1650.76" font-family="Times,serif" font-size="14.00" fill="#001399">Нет, просто заглянул.</text>
</g>
<!-- look_at_p_proc -->
<g id="node12" class="node">
<title>look_at_p_proc</title>
<ellipse fill="#ffffff" stroke="#000000" cx="1781.44" cy="-1866.64" rx="141.77" ry="30.05"/>
<text text-anchor="middle" x="1781.44" y="-1870.59" font-family="Times,serif" font-size="14.00">Вы видите изможденную</text>
<text text-anchor="middle" x="1781.44" y="-1853.34" font-family="Times,serif" font-size="14.00">фигуру Бобби.</text>
</g>
<!-- map_enter_p_proc -->
<g id="node13" class="node">
<title>map_enter_p_proc</title>
<ellipse fill="#ffffff" stroke="#000000" cx="1968.44" cy="-1866.64" rx="27" ry="18"/>
</g>
<!-- bob4 -->
<g id="node17" class="node">
<title>bob4</title>
<ellipse fill="#ffffff" stroke="#000000" cx="153.44" cy="-1337.56" rx="153.44" ry="78.84"/>
<text text-anchor="middle" x="153.44" y="-1376.01" font-family="Times,serif" font-size="14.00">Спасибо. Я просто немного</text>
<text text-anchor="middle" x="153.44" y="-1358.76" font-family="Times,serif" font-size="14.00">перенервничал, когда</text>
<text text-anchor="middle" x="153.44" y="-1341.51" font-family="Times,serif" font-size="14.00">увидел тебя с этой</text>
<text text-anchor="middle" x="153.44" y="-1324.26" font-family="Times,serif" font-size="14.00">штукой.</text>
<text text-anchor="middle" x="153.44" y="-1307.01" font-family="Times,serif" font-size="14.00">&#45;&#45;&#45;</text>
<text text-anchor="middle" x="153.44" y="-1289.76" font-family="Times,serif" font-size="14.00">Бррр.</text>
</g>
<!-- bob3&#45;&gt;bob4 -->
<g id="edge10" class="edge">
<title>bob3&#45;&gt;bob4</title>
<path fill="none" stroke="#008699" d="M157.76,-1523.24C157.18,-1498.55 156.32,-1461.9 155.53,-1427.73"/>
<polygon fill="#008699" stroke="#008699" points="159,-1427.66 155.27,-1417.75 152,-1427.83 159,-1427.66"/>
<text text-anchor="middle" x="223.94" y="-1455.6" font-family="Times,serif" font-size="14.00" fill="#008699">Нет. Сегодня твой</text>
<text text-anchor="middle" x="223.94" y="-1438.35" font-family="Times,serif" font-size="14.00" fill="#008699">счастливый день.</text>
</g>
<!-- bob3&#45;&gt;bob5 -->
<g id="edge11" class="edge">
<title>bob3&#45;&gt;bob5</title>
<path fill="none" stroke="#998000" d="M206.25,-1524.61C232.84,-1508.76 266.33,-1488.28 295.44,-1468.9 331.26,-1445.05 370.04,-1417.24 402.39,-1393.45"/>
<polygon fill="#998000" stroke="#998000" points="403.93,-1395.92 409.9,-1387.17 399.78,-1390.29 403.93,-1395.92"/>
<text text-anchor="middle" x="425.07" y="-1455.6" font-family="Times,serif" font-size="14.00" fill="#998000">Нет. А кто хочет убить</text>
<text text-anchor="middle" x="425.07" y="-1438.35" font-family="Times,serif" font-size="14.00" fill="#998000">тебя?</text>
</g>
<!-- bob6 -->
<g id="node19" class="node">
<title>bob6</title>
<ellipse fill="#ffffff" stroke="#000000" cx="1104.44" cy="-1079.92" rx="156.62" ry="91.04"/>
<text text-anchor="middle" x="1104.44" y="-1127" font-family="Times,serif" font-size="14.00">Они мухлюют. Я поиграл</text>
<text text-anchor="middle" x="1104.44" y="-1109.75" font-family="Times,serif" font-size="14.00">чуть&#45;чуть в автоматы и в</text>
<text text-anchor="middle" x="1104.44" y="-1092.5" font-family="Times,serif" font-size="14.00">покер немного. Но я знаю,</text>
<text text-anchor="middle" x="1104.44" y="-1075.25" font-family="Times,serif" font-size="14.00">что играю лучше. Клянусь,</text>
<text text-anchor="middle" x="1104.44" y="-1058" font-family="Times,serif" font-size="14.00">машины там подстроены на</text>
<text text-anchor="middle" x="1104.44" y="-1040.75" font-family="Times,serif" font-size="14.00">проигрыш. Я проиграл</text>
<text text-anchor="middle" x="1104.44" y="-1023.5" font-family="Times,serif" font-size="14.00">очень много.</text>
</g>
<!-- bob5&#45;&gt;bob6 -->
<g id="edge12" class="edge">
<title>bob5&#45;&gt;bob6</title>
<path fill="none" stroke="#530099" d="M587.72,-1300.78C681.49,-1269.76 818,-1221.94 933.44,-1170.96 949.35,-1163.94 965.82,-1156.07 981.99,-1147.98"/>
<polygon fill="#530099" stroke="#530099" points="983.11,-1150.83 990.46,-1143.2 979.95,-1144.58 983.11,-1150.83"/>
<text text-anchor="middle" x="972.44" y="-1227.41" font-family="Times,serif" font-size="14.00" fill="#530099">Как получилось, что ты</text>
<text text-anchor="middle" x="972.44" y="-1210.16" font-family="Times,serif" font-size="14.00" fill="#530099">оказался им столько</text>
<text text-anchor="middle" x="972.44" y="-1192.91" font-family="Times,serif" font-size="14.00" fill="#530099">должен?</text>
</g>
<!-- bob7 -->
<g id="node20" class="node">
<title>bob7</title>
<ellipse fill="#ffffff" stroke="#000000" cx="761.44" cy="-785.7" rx="150.79" ry="115.44"/>
<text text-anchor="middle" x="761.44" y="-850.02" font-family="Times,serif" font-size="14.00">Там два головореза.</text>
<text text-anchor="middle" x="761.44" y="-832.77" font-family="Times,serif" font-size="14.00">Сказали, что работают на</text>
<text text-anchor="middle" x="761.44" y="-815.52" font-family="Times,serif" font-size="14.00">босса казино, но я его ни</text>
<text text-anchor="middle" x="761.44" y="-798.27" font-family="Times,serif" font-size="14.00">разу не видел. Одного</text>
<text text-anchor="middle" x="761.44" y="-781.02" font-family="Times,serif" font-size="14.00">звали Айзо, по&#45;моему, а</text>
<text text-anchor="middle" x="761.44" y="-763.77" font-family="Times,serif" font-size="14.00">второй здоровенный такой</text>
<text text-anchor="middle" x="761.44" y="-746.52" font-family="Times,serif" font-size="14.00">парень, на Гуидо похож.</text>
<text text-anchor="middle" x="761.44" y="-729.27" font-family="Times,serif" font-size="14.00">Чертовы мошенники, они</text>
<text text-anchor="middle" x="761.44" y="-712.02" font-family="Times,serif" font-size="14.00">убьют меня.</text>
</g>
<!-- bob5&#45;&gt;bob7 -->
<g id="edge13" class="edge">
<title>bob5&#45;&gt;bob7</title>
<path fill="none" stroke="#009926" d="M464.91,-1282.83C453.7,-1211.2 443.7,-1082.57 493.44,-988.88 523.03,-933.16 575.51,-888.41 626.24,-855.32"/>
<polygon fill="#009926" stroke="#009926" points="627.82,-857.82 634.35,-849.48 624.05,-851.93 627.82,-857.82"/>
<text text-anchor="middle" x="596.94" y="-1083.87" font-family="Times,serif" font-size="14.00" fill="#009926">А какому именно казино ты</text>
<text text-anchor="middle" x="596.94" y="-1066.62" font-family="Times,serif" font-size="14.00" fill="#009926">должен столько денег?</text>
</g>
<!-- bob8 -->
<g id="node21" class="node">
<title>bob8</title>
<ellipse fill="#ffffff" stroke="#000000" cx="1138.44" cy="-472.13" rx="150.79" ry="127.63"/>
<text text-anchor="middle" x="1138.44" y="-545.08" font-family="Times,serif" font-size="14.00">Да нет, не то, чтобы</text>
<text text-anchor="middle" x="1138.44" y="-527.83" font-family="Times,serif" font-size="14.00">очень много. Пару тысяч.</text>
<text text-anchor="middle" x="1138.44" y="-510.58" font-family="Times,serif" font-size="14.00">Всего&#45;то играл часов</text>
<text text-anchor="middle" x="1138.44" y="-493.33" font-family="Times,serif" font-size="14.00">пять. Ну, может подольше</text>
<text text-anchor="middle" x="1138.44" y="-476.08" font-family="Times,serif" font-size="14.00">немного. Они мне дали</text>
<text text-anchor="middle" x="1138.44" y="-458.83" font-family="Times,serif" font-size="14.00">немного под расписку, а у</text>
<text text-anchor="middle" x="1138.44" y="-441.58" font-family="Times,serif" font-size="14.00">меня здесь не чем это</text>
<text text-anchor="middle" x="1138.44" y="-424.33" font-family="Times,serif" font-size="14.00">покрыть. Мне нужно в Хаб</text>
<text text-anchor="middle" x="1138.44" y="-407.08" font-family="Times,serif" font-size="14.00">вернуться, достать там</text>
<text text-anchor="middle" x="1138.44" y="-389.83" font-family="Times,serif" font-size="14.00">денег.</text>
</g>
<!-- bob5&#45;&gt;bob8 -->
<g id="edge14" class="edge">
<title>bob5&#45;&gt;bob8</title>
<path fill="none" stroke="#990006" d="M433.72,-1285.07C374.39,-1205.21 278.69,-1047.32 334.44,-919.13 424.22,-712.73 530.32,-695.8 741.44,-617.76 823.59,-587.4 915.46,-553.9 990.12,-526.79"/>
<polygon fill="#990006" stroke="#990006" points="990.86,-529.88 999.07,-523.18 988.48,-523.3 990.86,-529.88"/>
<text text-anchor="middle" x="418.44" y="-940.33" font-family="Times,serif" font-size="14.00" fill="#990006">Сколько ты задолжал?</text>
</g>
<!-- bobend -->
<g id="node22" class="node">
<title>bobend</title>
<ellipse fill="#ffffff" stroke="#000000" cx="799.44" cy="-42.25" rx="27" ry="18"/>
</g>
<!-- bob5&#45;&gt;bobend -->
<g id="edge15" class="edge">
<title>bob5&#45;&gt;bobend</title>
<path fill="none" stroke="#003399" d="M383.83,-1294.06C307.93,-1251.81 212.44,-1179.14 212.44,-1080.92 212.44,-1080.92 212.44,-1080.92 212.44,-213.5 212.44,-98.67 632.05,-56.31 761.72,-45.96"/>
<polygon fill="#003399" stroke="#003399" points="761.61,-49.4 771.31,-45.14 761.07,-42.43 761.61,-49.4"/>
<text text-anchor="middle" x="273.19" y="-638.96" font-family="Times,serif" font-size="14.00" fill="#003399">Гмм. Спасибо за</text>
<text text-anchor="middle" x="273.19" y="-621.71" font-family="Times,serif" font-size="14.00" fill="#003399">информацию.</text>
</g>
<!-- bob6&#45;&gt;bob7 -->
<g id="edge16" class="edge">
<title>bob6&#45;&gt;bob7</title>
<path fill="none" stroke="#609900" d="M995.78,-1013.87C975.62,-1004.09 954.32,-995.18 933.44,-988.88 895.59,-977.47 782.95,-1000.22 756.44,-970.88 741.26,-954.08 734.86,-932.49 733.54,-910.04"/>
<polygon fill="#609900" stroke="#609900" points="737.02,-910.24 733.28,-900.32 730.02,-910.41 737.02,-910.24"/>
<text text-anchor="middle" x="859.94" y="-948.96" font-family="Times,serif" font-size="14.00" fill="#609900">А какому именно казино ты</text>
<text text-anchor="middle" x="859.94" y="-931.71" font-family="Times,serif" font-size="14.00" fill="#609900">должен столько денег?</text>
</g>
<!-- bob6&#45;&gt;bob8 -->
<g id="edge17" class="edge">
<title>bob6&#45;&gt;bob8</title>
<path fill="none" stroke="#99008c" d="M1161.69,-995C1171.95,-969.46 1175.29,-942.09 1160.44,-919.13 1149.86,-902.76 1131.03,-917.51 1120.44,-901.13 1064.73,-814.97 1064.33,-756.17 1120.44,-670.26 1131.32,-653.6 1150.56,-668.93 1161.44,-652.26 1169.83,-639.43 1162.65,-633.05 1161.44,-617.76 1161.23,-615.05 1160.99,-612.3 1160.73,-609.54"/>
<polygon fill="#99008c" stroke="#99008c" points="1164.14,-609.41 1159.65,-599.81 1157.17,-610.11 1164.14,-609.41"/>
<text text-anchor="middle" x="1204.44" y="-781.02" font-family="Times,serif" font-size="14.00" fill="#99008c">Сколько ты задолжал?</text>
</g>
<!-- bob6&#45;&gt;bobend -->
<g id="edge18" class="edge">
<title>bob6&#45;&gt;bobend</title>
<path fill="none" stroke="#009979" d="M999.22,-1012.2C980.86,-1002.99 961.52,-994.71 942.44,-988.88 792.76,-943.21 693.63,-1027.59 601.44,-901.13 570.98,-859.35 580.44,-838.41 580.44,-786.7 580.44,-786.7 580.44,-786.7 580.44,-213.5 580.44,-121.5 702.39,-72 764.29,-52.8"/>
<polygon fill="#009979" stroke="#009979" points="765.17,-55.89 773.75,-49.67 763.16,-49.19 765.17,-55.89"/>
<text text-anchor="middle" x="641.19" y="-476.08" font-family="Times,serif" font-size="14.00" fill="#009979">Гмм. Спасибо за</text>
<text text-anchor="middle" x="641.19" y="-458.83" font-family="Times,serif" font-size="14.00" fill="#009979">информацию.</text>
</g>
<!-- bob7&#45;&gt;bob6 -->
<g id="edge19" class="edge">
<title>bob7&#45;&gt;bob6</title>
<path fill="none" stroke="#994c00" d="M885.53,-851.99C913.67,-870.91 941.65,-893.49 963.44,-919.13 979.74,-938.31 971.74,-950.46 986.44,-970.88 992.84,-979.77 1000.06,-988.48 1007.7,-996.85"/>
<polygon fill="#994c00" stroke="#994c00" points="1004.75,-998.89 1014.14,-1003.78 1009.85,-994.09 1004.75,-998.89"/>
<text text-anchor="middle" x="1073.44" y="-957.58" font-family="Times,serif" font-size="14.00" fill="#994c00">Как получилось, что ты</text>
<text text-anchor="middle" x="1073.44" y="-940.33" font-family="Times,serif" font-size="14.00" fill="#994c00">оказался им столько</text>
<text text-anchor="middle" x="1073.44" y="-923.08" font-family="Times,serif" font-size="14.00" fill="#994c00">должен?</text>
</g>
<!-- bob7&#45;&gt;bob8 -->
<g id="edge20" class="edge">
<title>bob7&#45;&gt;bob8</title>
<path fill="none" stroke="#200099" d="M884.66,-718.61C914.56,-699.45 945.17,-676.96 970.44,-652.26 983.62,-639.39 981.75,-632.01 993.44,-617.76 1005.05,-603.62 1017.86,-589.32 1030.9,-575.49"/>
<polygon fill="#200099" stroke="#200099" points="1032.81,-578.52 1037.17,-568.86 1027.74,-573.69 1032.81,-578.52"/>
<text text-anchor="middle" x="1077.44" y="-630.34" font-family="Times,serif" font-size="14.00" fill="#200099">Сколько ты задолжал?</text>
</g>
<!-- bob7&#45;&gt;bobend -->
<g id="edge21" class="edge">
<title>bob7&#45;&gt;bobend</title>
<path fill="none" stroke="#0d9900" d="M744.95,-670.66C744.36,-664.45 743.85,-658.28 743.44,-652.26 742.41,-636.97 742.92,-633.09 743.44,-617.76 748.67,-465.04 751.09,-426.73 766.94,-274.75 774.62,-201.17 787.84,-115 794.82,-71.48"/>
<polygon fill="#0d9900" stroke="#0d9900" points="798.43,-72.05 796.57,-61.62 791.52,-70.94 798.43,-72.05"/>
<text text-anchor="middle" x="828.19" y="-304.57" font-family="Times,serif" font-size="14.00" fill="#0d9900">Гмм. Спасибо за</text>
<text text-anchor="middle" x="828.19" y="-287.32" font-family="Times,serif" font-size="14.00" fill="#0d9900">информацию.</text>
</g>
<!-- bob8&#45;&gt;bob6 -->
<g id="edge22" class="edge">
<title>bob8&#45;&gt;bob6</title>
<path fill="none" stroke="#99003a" d="M1233.2,-571.85C1255.7,-601.28 1276.59,-635.12 1288.44,-670.26 1321.23,-767.49 1328.52,-806.68 1288.44,-901.13 1271.97,-939.96 1242.4,-974.45 1211.72,-1002.47"/>
<polygon fill="#99003a" stroke="#99003a" points="1210.03,-999.18 1204.9,-1008.45 1214.69,-1004.4 1210.03,-999.18"/>
<text text-anchor="middle" x="1403.44" y="-798.27" font-family="Times,serif" font-size="14.00" fill="#99003a">Как получилось, что ты</text>
<text text-anchor="middle" x="1403.44" y="-781.02" font-family="Times,serif" font-size="14.00" fill="#99003a">оказался им столько</text>
<text text-anchor="middle" x="1403.44" y="-763.77" font-family="Times,serif" font-size="14.00" fill="#99003a">должен?</text>
</g>
<!-- bob8&#45;&gt;bob7 -->
<g id="edge23" class="edge">
<title>bob8&#45;&gt;bob7</title>
<path fill="none" stroke="#006699" d="M988.73,-489.46C906.44,-506.94 810.87,-543.09 759.44,-617.76 750.69,-630.47 745.67,-645.1 743.2,-660.32"/>
<polygon fill="#006699" stroke="#006699" points="739.64,-659.58 741.88,-669.93 746.58,-660.44 739.64,-659.58"/>
<text text-anchor="middle" x="862.94" y="-638.96" font-family="Times,serif" font-size="14.00" fill="#006699">А какому именно казино ты</text>
<text text-anchor="middle" x="862.94" y="-621.71" font-family="Times,serif" font-size="14.00" fill="#006699">должен столько денег?</text>
</g>
<!-- bob8&#45;&gt;bobend -->
<g id="edge25" class="edge">
<title>bob8&#45;&gt;bobend</title>
<path fill="none" stroke="#720099" d="M1018.71,-394.39C969.25,-357.72 914.77,-310.17 876.94,-256.75 835.3,-197.94 813.62,-114.3 804.62,-71.24"/>
<polygon fill="#720099" stroke="#720099" points="807.86,-70.59 802.46,-61.48 800.99,-71.97 807.86,-70.59"/>
<text text-anchor="middle" x="938.19" y="-218.45" font-family="Times,serif" font-size="14.00" fill="#720099">Гмм. Спасибо за</text>
<text text-anchor="middle" x="938.19" y="-201.2" font-family="Times,serif" font-size="14.00" fill="#720099">информацию.</text>
</g>
<!-- bob17 -->
<g id="node23" class="node">
<title>bob17</title>
<ellipse fill="#ffffff" stroke="#000000" cx="1138.44" cy="-214.5" rx="131.17" ry="42.25"/>
<text text-anchor="middle" x="1138.44" y="-227.07" font-family="Times,serif" font-size="14.00">Это было бы просто</text>
<text text-anchor="middle" x="1138.44" y="-209.82" font-family="Times,serif" font-size="14.00">замечательно, а у тебя</text>
<text text-anchor="middle" x="1138.44" y="-192.57" font-family="Times,serif" font-size="14.00">столько есть?</text>
</g>
<!-- bob8&#45;&gt;bob17 -->
<g id="edge24" class="edge">
<title>bob8&#45;&gt;bob17</title>
<path fill="none" stroke="#939900" d="M1138.44,-344.06C1138.44,-317.16 1138.44,-290.21 1138.44,-267.98"/>
<polygon fill="#939900" stroke="#939900" points="1141.94,-268.15 1138.44,-258.15 1134.94,-268.15 1141.94,-268.15"/>
<text text-anchor="middle" x="1238.57" y="-313.2" font-family="Times,serif" font-size="14.00" fill="#939900">А, что если я дам тебе</text>
<text text-anchor="middle" x="1238.57" y="-295.95" font-family="Times,serif" font-size="14.00" fill="#939900">100 крышек и ты сможешь</text>
<text text-anchor="middle" x="1238.57" y="-278.7" font-family="Times,serif" font-size="14.00" fill="#939900">сбежать?</text>
</g>
<!-- bob17&#45;&gt;bobend -->
<g id="edge45" class="edge">
<title>bob17&#45;&gt;bobend</title>
<path fill="none" stroke="#998c00" d="M1068.61,-178.43C995.41,-141.67 883.75,-85.59 830.19,-58.69"/>
<polygon fill="#998c00" stroke="#998c00" points="832.09,-55.23 821.59,-53.87 828.95,-61.48 832.09,-55.23"/>
<text text-anchor="middle" x="1035.57" y="-123.7" font-family="Times,serif" font-size="14.00" fill="#998c00">Нет.</text>
</g>
<!-- bob18 -->
<g id="node28" class="node">
<title>bob18</title>
<ellipse fill="#ffffff" stroke="#000000" cx="1138.44" cy="-42.25" rx="144.43" ry="42.25"/>
<text text-anchor="middle" x="1138.44" y="-54.82" font-family="Times,serif" font-size="14.00">Вы получаете 100 ед.</text>
<text text-anchor="middle" x="1138.44" y="-37.57" font-family="Times,serif" font-size="14.00">опыта за то, что помогли</text>
<text text-anchor="middle" x="1138.44" y="-20.32" font-family="Times,serif" font-size="14.00">Бобу скрыться от казино.</text>
</g>
<!-- bob17&#45;&gt;bob18 -->
<g id="edge44" class="edge">
<title>bob17&#45;&gt;bob18</title>
<path fill="none" stroke="#007a99" d="M1138.44,-171.85C1138.44,-148.89 1138.44,-120.15 1138.44,-95.67"/>
<polygon fill="#007a99" stroke="#007a99" points="1141.94,-95.76 1138.44,-85.76 1134.94,-95.76 1141.94,-95.76"/>
<text text-anchor="middle" x="1232.57" y="-140.95" font-family="Times,serif" font-size="14.00" fill="#007a99">Да. Вот держи и беги</text>
<text text-anchor="middle" x="1232.57" y="-123.7" font-family="Times,serif" font-size="14.00" fill="#007a99">отсюда скорей, пока тебя</text>
<text text-anchor="middle" x="1232.57" y="-106.45" font-family="Times,serif" font-size="14.00" fill="#007a99">не нашли.</text>
</g>
<!-- bob11&#45;&gt;bobend -->
<g id="edge30" class="edge">
<title>bob11&#45;&gt;bobend</title>
<path fill="none" stroke="#99006d" d="M1389.78,-1526.49C1419.65,-1514.31 1455.81,-1499.7 1488.44,-1486.9 1661.47,-1419.03 1879.44,-1524.42 1879.44,-1338.56 1879.44,-1338.56 1879.44,-1338.56 1879.44,-213.5 1879.44,-94.76 1752.1,-129.34 1636.44,-102.5 1495.47,-69.78 1129.07,-102.25 985.44,-84.5 932.11,-77.91 871.56,-63.07 834.43,-53.11"/>
<polygon fill="#99006d" stroke="#99006d" points="835.72,-49.56 825.15,-50.31 833.88,-56.31 835.72,-49.56"/>
<text text-anchor="middle" x="1942.82" y="-781.02" font-family="Times,serif" font-size="14.00" fill="#99006d">А, ну окей. Пока.</text>
</g>
<!-- bob12 -->
<g id="node25" class="node">
<title>bob12</title>
<ellipse fill="#ffffff" stroke="#000000" cx="1096.44" cy="-1337.56" rx="142.31" ry="42.25"/>
<text text-anchor="middle" x="1096.44" y="-1350.13" font-family="Times,serif" font-size="14.00">Ну, я тут в неприятности</text>
<text text-anchor="middle" x="1096.44" y="-1332.88" font-family="Times,serif" font-size="14.00">влез, денег им много</text>
<text text-anchor="middle" x="1096.44" y="-1315.63" font-family="Times,serif" font-size="14.00">задолжал.</text>
</g>
<!-- bob11&#45;&gt;bob12 -->
<g id="edge31" class="edge">
<title>bob11&#45;&gt;bob12</title>
<path fill="none" stroke="#009999" d="M1295.9,-1524.13C1257.86,-1488.74 1192.34,-1427.78 1146.82,-1385.43"/>
<polygon fill="#009999" stroke="#009999" points="1149.55,-1383.26 1139.85,-1379.01 1144.78,-1388.38 1149.55,-1383.26"/>
<text text-anchor="middle" x="1264.69" y="-1446.97" font-family="Times,serif" font-size="14.00" fill="#009999">Почему?</text>
</g>
<!-- bob12&#45;&gt;bob6 -->
<g id="edge32" class="edge">
<title>bob12&#45;&gt;bob6</title>
<path fill="none" stroke="#996c00" d="M1096.08,-1294.87C1095.98,-1265.3 1096.16,-1224.69 1097.44,-1188.96 1097.52,-1186.69 1097.61,-1184.39 1097.71,-1182.07"/>
<polygon fill="#996c00" stroke="#996c00" points="1101.25,-1182.25 1098.21,-1172.1 1094.26,-1181.93 1101.25,-1182.25"/>
<text text-anchor="middle" x="1184.44" y="-1227.41" font-family="Times,serif" font-size="14.00" fill="#996c00">Как получилось, что ты</text>
<text text-anchor="middle" x="1184.44" y="-1210.16" font-family="Times,serif" font-size="14.00" fill="#996c00">оказался им столько</text>
<text text-anchor="middle" x="1184.44" y="-1192.91" font-family="Times,serif" font-size="14.00" fill="#996c00">должен?</text>
</g>
<!-- bob12&#45;&gt;bob7 -->
<g id="edge33" class="edge">
<title>bob12&#45;&gt;bob7</title>
<path fill="none" stroke="#3f0099" d="M973.38,-1316.15C889.54,-1295.15 784.5,-1253.29 731.44,-1170.96 704.5,-1129.15 718.97,-1006.3 735.84,-910.64"/>
<polygon fill="#3f0099" stroke="#3f0099" points="739.42,-911.46 737.74,-901 732.53,-910.22 739.42,-911.46"/>
<text text-anchor="middle" x="834.94" y="-1083.87" font-family="Times,serif" font-size="14.00" fill="#3f0099">А какому именно казино ты</text>
<text text-anchor="middle" x="834.94" y="-1066.62" font-family="Times,serif" font-size="14.00" fill="#3f0099">должен столько денег?</text>
</g>
<!-- bob12&#45;&gt;bob8 -->
<g id="edge34" class="edge">
<title>bob12&#45;&gt;bob8</title>
<path fill="none" stroke="#009913" d="M1190.01,-1305.28C1220.66,-1290.44 1251.84,-1269.48 1271.44,-1240.71 1334.97,-1147.47 1255.17,-1090.86 1303.44,-988.88 1321.7,-950.31 1331.55,-938.77 1369.44,-919.13 1419.28,-893.31 1457.69,-943.56 1494.44,-901.13 1561.63,-823.58 1546.54,-758.66 1494.44,-670.26 1450.42,-595.56 1366.77,-547.17 1291.62,-517.04"/>
<polygon fill="#009913" stroke="#009913" points="1293.14,-513.49 1282.55,-513.09 1290.58,-520 1293.14,-513.49"/>
<text text-anchor="middle" x="1453.44" y="-940.33" font-family="Times,serif" font-size="14.00" fill="#009913">Сколько ты задолжал?</text>
</g>
<!-- bob12&#45;&gt;bobend -->
<g id="edge35" class="edge">
<title>bob12&#45;&gt;bobend</title>
<path fill="none" stroke="#99001a" d="M970.76,-1317.39C900.32,-1303.1 812.6,-1279.23 741.44,-1240.71 711.06,-1224.27 715.22,-1202.52 683.44,-1188.96 636.08,-1168.76 487.68,-1208.51 452.44,-1170.96 410.37,-1126.14 436.78,-678.69 444.94,-617.76 472.18,-414.34 499.91,-366.4 566.44,-172.25 577.33,-140.49 570.42,-124.88 595.44,-102.5 642.07,-60.79 716.47,-48.34 761.37,-44.69"/>
<polygon fill="#99001a" stroke="#99001a" points="761.38,-48.13 771.11,-43.94 760.89,-41.14 761.38,-48.13"/>
<text text-anchor="middle" x="506.19" y="-638.96" font-family="Times,serif" font-size="14.00" fill="#99001a">Гмм. Спасибо за</text>
<text text-anchor="middle" x="506.19" y="-621.71" font-family="Times,serif" font-size="14.00" fill="#99001a">информацию.</text>
</g>
<!-- bob16&#45;&gt;bob6 -->
<g id="edge40" class="edge">
<title>bob16&#45;&gt;bob6</title>
<path fill="none" stroke="#993900" d="M1426,-1303.63C1391.29,-1287.49 1351.49,-1266.04 1319.44,-1240.71 1295.76,-1222 1298.24,-1208.75 1275.44,-1188.96 1259.72,-1175.32 1242.1,-1162.19 1224.32,-1150.08"/>
<polygon fill="#993900" stroke="#993900" points="1226.83,-1146.89 1216.58,-1144.22 1222.93,-1152.7 1226.83,-1146.89"/>
<text text-anchor="middle" x="1406.44" y="-1227.41" font-family="Times,serif" font-size="14.00" fill="#993900">Как получилось, что ты</text>
<text text-anchor="middle" x="1406.44" y="-1210.16" font-family="Times,serif" font-size="14.00" fill="#993900">оказался им столько</text>
<text text-anchor="middle" x="1406.44" y="-1192.91" font-family="Times,serif" font-size="14.00" fill="#993900">должен?</text>
</g>
<!-- bob16&#45;&gt;bob7 -->
<g id="edge41" class="edge">
<title>bob16&#45;&gt;bob7</title>
<path fill="none" stroke="#0c0099" d="M1516.15,-1295.18C1520.51,-1261.97 1520.15,-1216.48 1493.44,-1188.96 1448.52,-1142.68 1401.06,-1209.63 1349.44,-1170.96 1278.84,-1118.08 1327.21,-1056.41 1270.44,-988.88 1234.15,-945.72 1216.59,-940.62 1164.44,-919.13 1127.13,-903.76 1114.29,-912.07 1075.44,-901.13 1018.91,-885.21 957.99,-863.99 904.99,-844.15"/>
<polygon fill="#0c0099" stroke="#0c0099" points="906.44,-840.58 895.85,-840.33 903.97,-847.13 906.44,-840.58"/>
<text text-anchor="middle" x="1452.94" y="-1083.87" font-family="Times,serif" font-size="14.00" fill="#0c0099">А какому именно казино ты</text>
<text text-anchor="middle" x="1452.94" y="-1066.62" font-family="Times,serif" font-size="14.00" fill="#0c0099">должен столько денег?</text>
</g>
<!-- bob16&#45;&gt;bob8 -->
<g id="edge42" class="edge">
<title>bob16&#45;&gt;bob8</title>
<path fill="none" stroke="#209900" d="M1523.33,-1295.11C1535.11,-1262.05 1550.17,-1214.28 1556.44,-1170.96 1564.43,-1115.84 1554.14,-721.13 1531.44,-670.26 1490.34,-578.14 1386.94,-528.6 1296.52,-502.22"/>
<polygon fill="#209900" stroke="#209900" points="1297.7,-498.63 1287.12,-499.27 1295.79,-505.37 1297.7,-498.63"/>
<text text-anchor="middle" x="1641.44" y="-940.33" font-family="Times,serif" font-size="14.00" fill="#209900">Сколько ты задолжал?</text>
</g>
<!-- bob16&#45;&gt;bobend -->
<g id="edge43" class="edge">
<title>bob16&#45;&gt;bobend</title>
<path fill="none" stroke="#99004d" d="M1575.1,-1300.52C1644.52,-1258.07 1742.44,-1180.54 1742.44,-1080.92 1742.44,-1080.92 1742.44,-1080.92 1742.44,-213.5 1742.44,-42.85 1154.53,-107.5 985.44,-84.5 932.2,-77.26 871.62,-62.59 834.47,-52.85"/>
<polygon fill="#99004d" stroke="#99004d" points="835.74,-49.3 825.18,-50.11 833.94,-56.06 835.74,-49.3"/>
<text text-anchor="middle" x="1803.19" y="-638.96" font-family="Times,serif" font-size="14.00" fill="#99004d">Гмм. Спасибо за</text>
<text text-anchor="middle" x="1803.19" y="-621.71" font-family="Times,serif" font-size="14.00" fill="#99004d">информацию.</text>
</g>
</g>
</svg>
