<?xml version="1.0" encoding="UTF-8" standalone="no"?>
<!DOCTYPE svg PUBLIC "-//W3C//DTD SVG 1.1//EN"
 "http://www.w3.org/Graphics/SVG/1.1/DTD/svg11.dtd">
<!-- Generated by graphviz version 8.0.5 (0)
 -->
<!-- Title: jtpeasnt Pages: 1 -->
<svg width="439pt" height="383pt"
 viewBox="0.00 0.00 439.44 382.58" xmlns="http://www.w3.org/2000/svg" xmlns:xlink="http://www.w3.org/1999/xlink">
<g id="graph0" class="graph" transform="scale(1 1) rotate(0) translate(4 378.58)">
<title>jtpeasnt</title>
<polygon fill="white" stroke="none" points="-4,4 -4,-378.58 435.44,-378.58 435.44,4 -4,4"/>
<!-- start -->
<g id="node1" class="node">
<title>start</title>
<ellipse fill="#ffffff" stroke="#000000" cx="153.44" cy="-344.53" rx="134.35" ry="30.05"/>
<text text-anchor="middle" x="153.44" y="-348.48" font-family="Times,serif" font-size="14.00">Вы видите крестьянина</text>
<text text-anchor="middle" x="153.44" y="-331.23" font-family="Times,serif" font-size="14.00">Джанктауна.</text>
</g>
<!-- do_dialogue -->
<g id="node2" class="node">
<title>do_dialogue</title>
<ellipse fill="#ffffff" stroke="#000000" cx="153.44" cy="-260.48" rx="27" ry="18"/>
</g>
<!-- start&#45;&gt;do_dialogue -->
<g id="edge1" class="edge">
<title>start&#45;&gt;do_dialogue</title>
<path fill="none" stroke="#555555" stroke-dasharray="1,5" d="M153.44,-314.37C153.44,-306.23 153.44,-297.41 153.44,-289.34"/>
<polygon fill="#555555" stroke="#555555" points="156.94,-289.6 153.44,-279.6 149.94,-289.6 156.94,-289.6"/>
</g>
<!-- guard00 -->
<g id="node3" class="node">
<title>guard00</title>
<ellipse fill="#ffffff" stroke="#000000" cx="153.44" cy="-103.24" rx="153.44" ry="103.24"/>
<text text-anchor="middle" x="153.44" y="-158.94" font-family="Times,serif" font-size="14.00">Привет.</text>
<text text-anchor="middle" x="153.44" y="-141.69" font-family="Times,serif" font-size="14.00">&#45;&#45;&#45;</text>
<text text-anchor="middle" x="153.44" y="-124.44" font-family="Times,serif" font-size="14.00">Это наше место. Хочешь с</text>
<text text-anchor="middle" x="153.44" y="-107.19" font-family="Times,serif" font-size="14.00">нами тут неплохо провести</text>
<text text-anchor="middle" x="153.44" y="-89.94" font-family="Times,serif" font-size="14.00">время?</text>
<text text-anchor="middle" x="153.44" y="-72.69" font-family="Times,serif" font-size="14.00">&#45;&#45;&#45;</text>
<text text-anchor="middle" x="153.44" y="-55.44" font-family="Times,serif" font-size="14.00">Хммм, у тебя кажется,</text>
<text text-anchor="middle" x="153.44" y="-38.19" font-family="Times,serif" font-size="14.00">кое&#45;что есть...</text>
</g>
<!-- do_dialogue&#45;&gt;guard00 -->
<g id="edge2" class="edge">
<title>do_dialogue&#45;&gt;guard00</title>
<path fill="none" stroke="#555555" stroke-dasharray="1,5" d="M153.44,-242.27C153.44,-235.44 153.44,-226.99 153.44,-217.65"/>
<polygon fill="#555555" stroke="#555555" points="156.94,-217.76 153.44,-207.76 149.94,-217.76 156.94,-217.76"/>
</g>
<!-- first -->
<g id="node4" class="node">
<title>first</title>
<ellipse fill="#ffffff" stroke="#000000" cx="332.44" cy="-344.53" rx="27" ry="18"/>
</g>
<!-- notfirst -->
<g id="node5" class="node">
<title>notfirst</title>
<ellipse fill="#ffffff" stroke="#000000" cx="404.44" cy="-344.53" rx="27" ry="18"/>
</g>
</g>
</svg>
