<?xml version="1.0" encoding="UTF-8" standalone="no"?>
<!DOCTYPE svg PUBLIC "-//W3C//DTD SVG 1.1//EN"
 "http://www.w3.org/Graphics/SVG/1.1/DTD/svg11.dtd">
<!-- Generated by graphviz version 8.0.5 (0)
 -->
<!-- Title: kenji Pages: 1 -->
<svg width="1058pt" height="189pt"
 viewBox="0.00 0.00 1057.91 188.89" xmlns="http://www.w3.org/2000/svg" xmlns:xlink="http://www.w3.org/1999/xlink">
<g id="graph0" class="graph" transform="scale(1 1) rotate(0) translate(4 184.89)">
<title>kenji</title>
<polygon fill="white" stroke="none" points="-4,4 -4,-184.89 1053.91,-184.89 1053.91,4 -4,4"/>
<!-- start -->
<g id="node1" class="node">
<title>start</title>
<ellipse fill="#ffffff" stroke="#000000" cx="503.91" cy="-162.89" rx="27" ry="18"/>
</g>
<!-- critter_p_proc -->
<g id="node2" class="node">
<title>critter_p_proc</title>
<ellipse fill="#ffffff" stroke="#000000" cx="135.91" cy="-54.45" rx="135.91" ry="18"/>
<text text-anchor="middle" x="135.91" y="-49.77" font-family="Times,serif" font-size="14.00">Гизмо передает привет!</text>
</g>
<!-- start&#45;&gt;critter_p_proc -->
<g id="edge1" class="edge">
<title>start&#45;&gt;critter_p_proc</title>
<path fill="none" stroke="#555555" stroke-dasharray="1,5" d="M478.23,-156.84C436.46,-148.38 351.39,-130.17 280.91,-108.89 249.26,-99.34 214.47,-86.59 186.91,-75.95"/>
<polygon fill="#555555" stroke="#555555" points="188.31,-72.35 177.72,-71.98 185.77,-78.87 188.31,-72.35"/>
</g>
<!-- damage_p_proc -->
<g id="node3" class="node">
<title>damage_p_proc</title>
<ellipse fill="#ffffff" stroke="#000000" cx="316.91" cy="-54.45" rx="27" ry="18"/>
</g>
<!-- start&#45;&gt;damage_p_proc -->
<g id="edge2" class="edge">
<title>start&#45;&gt;damage_p_proc</title>
<path fill="none" stroke="#555555" stroke-dasharray="1,5" d="M477.46,-157.85C445.25,-151.83 390.51,-137.94 352.91,-108.89 343.48,-101.61 335.67,-91.14 329.76,-81.39"/>
<polygon fill="#555555" stroke="#555555" points="332.44,-80.03 324.49,-73.03 326.34,-83.46 332.44,-80.03"/>
</g>
<!-- destroy_p_proc -->
<g id="node4" class="node">
<title>destroy_p_proc</title>
<ellipse fill="#ffffff" stroke="#000000" cx="503.91" cy="-54.45" rx="142.31" ry="54.45"/>
<text text-anchor="middle" x="503.91" y="-75.65" font-family="Times,serif" font-size="14.00">Вы получили 400 очков</text>
<text text-anchor="middle" x="503.91" y="-58.4" font-family="Times,serif" font-size="14.00">опыта за то, что помогли</text>
<text text-anchor="middle" x="503.91" y="-41.15" font-family="Times,serif" font-size="14.00">Киллиану справиться с</text>
<text text-anchor="middle" x="503.91" y="-23.9" font-family="Times,serif" font-size="14.00">убийцей.</text>
</g>
<!-- start&#45;&gt;destroy_p_proc -->
<g id="edge3" class="edge">
<title>start&#45;&gt;destroy_p_proc</title>
<path fill="none" stroke="#555555" stroke-dasharray="1,5" d="M503.91,-144.79C503.91,-137.78 503.91,-129.18 503.91,-120.12"/>
<polygon fill="#555555" stroke="#555555" points="507.41,-120.34 503.91,-110.34 500.41,-120.34 507.41,-120.34"/>
</g>
<!-- look_at_p_proc -->
<g id="node5" class="node">
<title>look_at_p_proc</title>
<ellipse fill="#ffffff" stroke="#000000" cx="820.91" cy="-54.45" rx="156.62" ry="30.05"/>
<text text-anchor="middle" x="820.91" y="-58.4" font-family="Times,serif" font-size="14.00">Вы видите подозрительного</text>
<text text-anchor="middle" x="820.91" y="-41.15" font-family="Times,serif" font-size="14.00">стрелка.</text>
</g>
<!-- start&#45;&gt;look_at_p_proc -->
<g id="edge4" class="edge">
<title>start&#45;&gt;look_at_p_proc</title>
<path fill="none" stroke="#555555" stroke-dasharray="1,5" d="M527.74,-153.89C571.04,-139.35 664.61,-107.93 734.46,-84.48"/>
<polygon fill="#555555" stroke="#555555" points="735.22,-87.58 743.58,-81.08 732.99,-80.94 735.22,-87.58"/>
</g>
<!-- talk_p_proc -->
<g id="node6" class="node">
<title>talk_p_proc</title>
<ellipse fill="#ffffff" stroke="#000000" cx="1022.91" cy="-54.45" rx="27" ry="18"/>
</g>
<!-- start&#45;&gt;talk_p_proc -->
<g id="edge5" class="edge">
<title>start&#45;&gt;talk_p_proc</title>
<path fill="none" stroke="#555555" stroke-dasharray="1,5" d="M531.14,-161.86C621.37,-161.3 909.3,-155.8 986.91,-108.89 997.43,-102.54 1005.55,-91.79 1011.4,-81.59"/>
<polygon fill="#555555" stroke="#555555" points="1014.8,-83.63 1016.31,-73.15 1008.59,-80.41 1014.8,-83.63"/>
</g>
</g>
</svg>
