<?xml version="1.0" encoding="UTF-8" standalone="no"?>
<!DOCTYPE svg PUBLIC "-//W3C//DTD SVG 1.1//EN"
 "http://www.w3.org/Graphics/SVG/1.1/DTD/svg11.dtd">
<!-- Generated by graphviz version 8.0.5 (0)
 -->
<!-- Title: leon Pages: 1 -->
<svg width="1276pt" height="432pt"
 viewBox="0.00 0.00 1275.55 431.66" xmlns="http://www.w3.org/2000/svg" xmlns:xlink="http://www.w3.org/1999/xlink">
<g id="graph0" class="graph" transform="scale(1 1) rotate(0) translate(4 427.66)">
<title>leon</title>
<polygon fill="white" stroke="none" points="-4,4 -4,-427.66 1271.55,-427.66 1271.55,4 -4,4"/>
<!-- start -->
<g id="node1" class="node">
<title>start</title>
<ellipse fill="#ffffff" stroke="#000000" cx="27" cy="-405.66" rx="27" ry="18"/>
</g>
<!-- look_at_p_proc -->
<g id="node2" class="node">
<title>look_at_p_proc</title>
<ellipse fill="#ffffff" stroke="#000000" cx="175" cy="-405.66" rx="103.29" ry="18"/>
<text text-anchor="middle" x="175" y="-400.99" font-family="Times,serif" font-size="14.00">Вы видите Леона.</text>
</g>
<!-- critter_p_proc -->
<g id="node3" class="node">
<title>critter_p_proc</title>
<ellipse fill="#ffffff" stroke="#000000" cx="323" cy="-405.66" rx="27" ry="18"/>
</g>
<!-- pickup_p_proc -->
<g id="node4" class="node">
<title>pickup_p_proc</title>
<ellipse fill="#ffffff" stroke="#000000" cx="395" cy="-405.66" rx="27" ry="18"/>
</g>
<!-- talk_p_proc -->
<g id="node5" class="node">
<title>talk_p_proc</title>
<ellipse fill="#ffffff" stroke="#000000" cx="467" cy="-405.66" rx="27" ry="18"/>
</g>
<!-- get_reaction -->
<g id="node6" class="node">
<title>get_reaction</title>
<ellipse fill="#ffffff" stroke="#000000" cx="265" cy="-211.83" rx="27" ry="18"/>
</g>
<!-- talk_p_proc&#45;&gt;get_reaction -->
<g id="edge1" class="edge">
<title>talk_p_proc&#45;&gt;get_reaction</title>
<path fill="none" stroke="#555555" stroke-dasharray="1,5" d="M445.94,-393.98C441.1,-391.73 435.92,-389.49 431,-387.66 374.8,-366.78 343.04,-394.4 301,-351.66 271.89,-322.07 265.43,-272.15 264.46,-240.92"/>
<polygon fill="#555555" stroke="#555555" points="267.95,-240.9 264.32,-230.95 260.95,-240.99 267.95,-240.9"/>
</g>
<!-- Leon00 -->
<g id="node7" class="node">
<title>Leon00</title>
<ellipse fill="#ffffff" stroke="#000000" cx="467" cy="-211.83" rx="157.15" ry="103.24"/>
<text text-anchor="middle" x="467" y="-267.53" font-family="Times,serif" font-size="14.00">Если тебе нужна компания,</text>
<text text-anchor="middle" x="467" y="-250.28" font-family="Times,serif" font-size="14.00">сними шлюху. Я занят.</text>
<text text-anchor="middle" x="467" y="-233.03" font-family="Times,serif" font-size="14.00">&#45;&#45;&#45;</text>
<text text-anchor="middle" x="467" y="-215.78" font-family="Times,serif" font-size="14.00">Отстань от меня. Каждый</text>
<text text-anchor="middle" x="467" y="-198.53" font-family="Times,serif" font-size="14.00">может колено выбить или</text>
<text text-anchor="middle" x="467" y="-181.28" font-family="Times,serif" font-size="14.00">пальцы сломать. Это</text>
<text text-anchor="middle" x="467" y="-164.03" font-family="Times,serif" font-size="14.00">больше не действует на</text>
<text text-anchor="middle" x="467" y="-146.78" font-family="Times,serif" font-size="14.00">людей так, как раньше.</text>
</g>
<!-- talk_p_proc&#45;&gt;Leon00 -->
<g id="edge2" class="edge">
<title>talk_p_proc&#45;&gt;Leon00</title>
<path fill="none" stroke="#555555" stroke-dasharray="1,5" d="M467,-387.3C467,-372.6 467,-350.14 467,-326.18"/>
<polygon fill="#555555" stroke="#555555" points="470.5,-326.46 467,-316.46 463.5,-326.46 470.5,-326.46"/>
</g>
<!-- Leon01 -->
<g id="node8" class="node">
<title>Leon01</title>
<ellipse fill="#ffffff" stroke="#000000" cx="799" cy="-211.83" rx="157.15" ry="30.05"/>
<text text-anchor="middle" x="799" y="-215.78" font-family="Times,serif" font-size="14.00">Если тебе нужна компания,</text>
<text text-anchor="middle" x="799" y="-198.53" font-family="Times,serif" font-size="14.00">сними шлюху. Я занят.</text>
</g>
<!-- talk_p_proc&#45;&gt;Leon01 -->
<g id="edge3" class="edge">
<title>talk_p_proc&#45;&gt;Leon01</title>
<path fill="none" stroke="#555555" stroke-dasharray="1,5" d="M492.99,-399.64C526.76,-392.39 586.87,-377.03 633,-351.66 683.08,-324.12 732.25,-280.3 763.91,-249.26"/>
<polygon fill="#555555" stroke="#555555" points="765.94,-252.19 770.58,-242.66 761.01,-247.22 765.94,-252.19"/>
</g>
<!-- ReactToLevel -->
<g id="node13" class="node">
<title>ReactToLevel</title>
<ellipse fill="#ffffff" stroke="#000000" cx="265" cy="-18" rx="27" ry="18"/>
</g>
<!-- get_reaction&#45;&gt;ReactToLevel -->
<g id="edge5" class="edge">
<title>get_reaction&#45;&gt;ReactToLevel</title>
<path fill="none" stroke="#555555" stroke-dasharray="1,5" d="M265,-193.47C265,-160.31 265,-87.7 265,-47.39"/>
<polygon fill="#555555" stroke="#555555" points="268.5,-47.46 265,-37.46 261.5,-47.46 268.5,-47.46"/>
</g>
<!-- destroy_p_proc -->
<g id="node9" class="node">
<title>destroy_p_proc</title>
<ellipse fill="#ffffff" stroke="#000000" cx="794" cy="-405.66" rx="27" ry="18"/>
</g>
<!-- timed_event_p_proc -->
<g id="node10" class="node">
<title>timed_event_p_proc</title>
<ellipse fill="#ffffff" stroke="#000000" cx="1121" cy="-405.66" rx="27" ry="18"/>
</g>
<!-- Leon02 -->
<g id="node11" class="node">
<title>Leon02</title>
<ellipse fill="#ffffff" stroke="#000000" cx="1121" cy="-211.83" rx="146.55" ry="139.83"/>
<text text-anchor="middle" x="1121" y="-293.41" font-family="Times,serif" font-size="14.00">Пока босс не скажет, нет.</text>
<text text-anchor="middle" x="1121" y="-276.16" font-family="Times,serif" font-size="14.00">Просто не обращай</text>
<text text-anchor="middle" x="1121" y="-258.91" font-family="Times,serif" font-size="14.00">внимания, и он уйдет.</text>
<text text-anchor="middle" x="1121" y="-241.66" font-family="Times,serif" font-size="14.00">&#45;&#45;&#45;</text>
<text text-anchor="middle" x="1121" y="-224.41" font-family="Times,serif" font-size="14.00">Пока босс не скажет, нет.</text>
<text text-anchor="middle" x="1121" y="-207.16" font-family="Times,serif" font-size="14.00">Просто не обращай</text>
<text text-anchor="middle" x="1121" y="-189.91" font-family="Times,serif" font-size="14.00">внимания, и он уйдет.</text>
<text text-anchor="middle" x="1121" y="-172.66" font-family="Times,serif" font-size="14.00">&#45;&#45;&#45;</text>
<text text-anchor="middle" x="1121" y="-155.41" font-family="Times,serif" font-size="14.00">Пока босс не скажет, нет.</text>
<text text-anchor="middle" x="1121" y="-138.16" font-family="Times,serif" font-size="14.00">Просто не обращай</text>
<text text-anchor="middle" x="1121" y="-120.91" font-family="Times,serif" font-size="14.00">внимания, и она уйдет.</text>
</g>
<!-- timed_event_p_proc&#45;&gt;Leon02 -->
<g id="edge4" class="edge">
<title>timed_event_p_proc&#45;&gt;Leon02</title>
<path fill="none" stroke="#555555" stroke-dasharray="1,5" d="M1121,-387.3C1121,-380.6 1121,-372.29 1121,-362.95"/>
<polygon fill="#555555" stroke="#555555" points="1124.5,-363.02 1121,-353.02 1117.5,-363.02 1124.5,-363.02"/>
</g>
<!-- map_enter_p_proc -->
<g id="node12" class="node">
<title>map_enter_p_proc</title>
<ellipse fill="#ffffff" stroke="#000000" cx="1193" cy="-405.66" rx="27" ry="18"/>
</g>
</g>
</svg>
