<?xml version="1.0" encoding="UTF-8" standalone="no"?>
<!DOCTYPE svg PUBLIC "-//W3C//DTD SVG 1.1//EN"
 "http://www.w3.org/Graphics/SVG/1.1/DTD/svg11.dtd">
<!-- Generated by graphviz version 8.0.5 (0)
 -->
<!-- Title: loneraid Pages: 1 -->
<svg width="4736pt" height="1318pt"
 viewBox="0.00 0.00 4735.78 1317.92" xmlns="http://www.w3.org/2000/svg" xmlns:xlink="http://www.w3.org/1999/xlink">
<g id="graph0" class="graph" transform="scale(1 1) rotate(0) translate(4 1313.92)">
<title>loneraid</title>
<polygon fill="white" stroke="none" points="-4,4 -4,-1313.92 4731.78,-1313.92 4731.78,4 -4,4"/>
<!-- start -->
<g id="node1" class="node">
<title>start</title>
<ellipse fill="#ffffff" stroke="#000000" cx="2384.75" cy="-1291.92" rx="27" ry="18"/>
</g>
<!-- critter_p_proc -->
<g id="node2" class="node">
<title>critter_p_proc</title>
<ellipse fill="#ffffff" stroke="#000000" cx="1127.75" cy="-1218.92" rx="27" ry="18"/>
</g>
<!-- start&#45;&gt;critter_p_proc -->
<g id="edge1" class="edge">
<title>start&#45;&gt;critter_p_proc</title>
<path fill="none" stroke="#555555" stroke-dasharray="1,5" d="M2357.62,-1289.39C2195.44,-1280.23 1354.84,-1232.75 1165.61,-1222.06"/>
<polygon fill="#555555" stroke="#555555" points="1166.02,-1218.52 1155.84,-1221.45 1165.62,-1225.51 1166.02,-1218.52"/>
</g>
<!-- destroy_p_proc -->
<g id="node3" class="node">
<title>destroy_p_proc</title>
<ellipse fill="#ffffff" stroke="#000000" cx="2348.75" cy="-1218.92" rx="27" ry="18"/>
</g>
<!-- start&#45;&gt;destroy_p_proc -->
<g id="edge2" class="edge">
<title>start&#45;&gt;destroy_p_proc</title>
<path fill="none" stroke="#555555" stroke-dasharray="1,5" d="M2376.4,-1274.46C2372.12,-1266.03 2366.82,-1255.58 2362.01,-1246.09"/>
<polygon fill="#555555" stroke="#555555" points="2364.69,-1244.64 2357.05,-1237.3 2358.45,-1247.8 2364.69,-1244.64"/>
</g>
<!-- pickup_p_proc -->
<g id="node4" class="node">
<title>pickup_p_proc</title>
<ellipse fill="#ffffff" stroke="#000000" cx="2420.75" cy="-1218.92" rx="27" ry="18"/>
</g>
<!-- start&#45;&gt;pickup_p_proc -->
<g id="edge3" class="edge">
<title>start&#45;&gt;pickup_p_proc</title>
<path fill="none" stroke="#555555" stroke-dasharray="1,5" d="M2393.1,-1274.46C2397.37,-1266.03 2402.67,-1255.58 2407.48,-1246.09"/>
<polygon fill="#555555" stroke="#555555" points="2411.04,-1247.8 2412.44,-1237.3 2404.8,-1244.64 2411.04,-1247.8"/>
</g>
<!-- talk_p_proc -->
<g id="node5" class="node">
<title>talk_p_proc</title>
<ellipse fill="#ffffff" stroke="#000000" cx="3067.75" cy="-1218.92" rx="27" ry="18"/>
</g>
<!-- start&#45;&gt;talk_p_proc -->
<g id="edge4" class="edge">
<title>start&#45;&gt;talk_p_proc</title>
<path fill="none" stroke="#555555" stroke-dasharray="1,5" d="M2411.52,-1288.14C2517.47,-1277.13 2907.6,-1236.57 3030.45,-1223.8"/>
<polygon fill="#555555" stroke="#555555" points="3030.57,-1227.2 3040.16,-1222.69 3029.85,-1220.24 3030.57,-1227.2"/>
</g>
<!-- flee_dude -->
<g id="node6" class="node">
<title>flee_dude</title>
<ellipse fill="#ffffff" stroke="#000000" cx="916.75" cy="-1097.28" rx="27" ry="18"/>
</g>
<!-- critter_p_proc&#45;&gt;flee_dude -->
<g id="edge5" class="edge">
<title>critter_p_proc&#45;&gt;flee_dude</title>
<path fill="none" stroke="#555555" stroke-dasharray="1,5" d="M1100.81,-1215.87C1063.7,-1211.76 996.48,-1199.6 952.75,-1163.92 940.51,-1153.94 931.78,-1138.65 925.98,-1125.33"/>
<polygon fill="#555555" stroke="#555555" points="928.9,-1124.21 921.95,-1116.21 922.4,-1126.8 928.9,-1124.21"/>
</g>
<!-- LoneRaid01 -->
<g id="node7" class="node">
<title>LoneRaid01</title>
<ellipse fill="#ffffff" stroke="#000000" cx="3780.75" cy="-1097.28" rx="149.2" ry="30.05"/>
<text text-anchor="middle" x="3780.75" y="-1101.23" font-family="Times,serif" font-size="14.00">Я побежден! Что тебе еще</text>
<text text-anchor="middle" x="3780.75" y="-1083.98" font-family="Times,serif" font-size="14.00">надо, черт подери!</text>
</g>
<!-- talk_p_proc&#45;&gt;LoneRaid01 -->
<g id="edge6" class="edge">
<title>talk_p_proc&#45;&gt;LoneRaid01</title>
<path fill="none" stroke="#555555" stroke-dasharray="1,5" d="M3095.09,-1218.11C3176.64,-1218.04 3424.83,-1213.49 3622.75,-1163.92 3654.58,-1155.95 3688.36,-1142.64 3716.48,-1130.07"/>
<polygon fill="#555555" stroke="#555555" points="3717.52,-1132.99 3725.18,-1125.67 3714.63,-1126.62 3717.52,-1132.99"/>
</g>
<!-- LoneRaid00 -->
<g id="node8" class="node">
<title>LoneRaid00</title>
<ellipse fill="#ffffff" stroke="#000000" cx="4086.75" cy="-1097.28" rx="138.59" ry="66.64"/>
<text text-anchor="middle" x="4086.75" y="-1127.1" font-family="Times,serif" font-size="14.00">Я не собираюсь тебе</text>
<text text-anchor="middle" x="4086.75" y="-1109.85" font-family="Times,serif" font-size="14.00">отдавать то, что ты</text>
<text text-anchor="middle" x="4086.75" y="-1092.6" font-family="Times,serif" font-size="14.00">требуешь, лишь потому,</text>
<text text-anchor="middle" x="4086.75" y="-1075.35" font-family="Times,serif" font-size="14.00">что ты держишь в руках</text>
<text text-anchor="middle" x="4086.75" y="-1058.1" font-family="Times,serif" font-size="14.00">оружие...</text>
</g>
<!-- talk_p_proc&#45;&gt;LoneRaid00 -->
<g id="edge7" class="edge">
<title>talk_p_proc&#45;&gt;LoneRaid00</title>
<path fill="none" stroke="#555555" stroke-dasharray="1,5" d="M3094.82,-1217.53C3223.38,-1215.49 3772.81,-1204.48 3938.75,-1163.92 3952.92,-1160.46 3967.43,-1155.7 3981.55,-1150.32"/>
<polygon fill="#555555" stroke="#555555" points="3982.74,-1153.22 3990.76,-1146.3 3980.17,-1146.71 3982.74,-1153.22"/>
</g>
<!-- LoneRaid02 -->
<g id="node9" class="node">
<title>LoneRaid02</title>
<ellipse fill="#ffffff" stroke="#000000" cx="4384.75" cy="-1097.28" rx="141.77" ry="42.25"/>
<text text-anchor="middle" x="4384.75" y="-1109.85" font-family="Times,serif" font-size="14.00">Я ничего не собираюсь</text>
<text text-anchor="middle" x="4384.75" y="-1092.6" font-family="Times,serif" font-size="14.00">говорить! Разговоры для</text>
<text text-anchor="middle" x="4384.75" y="-1075.35" font-family="Times,serif" font-size="14.00">слабаков!</text>
</g>
<!-- talk_p_proc&#45;&gt;LoneRaid02 -->
<g id="edge8" class="edge">
<title>talk_p_proc&#45;&gt;LoneRaid02</title>
<path fill="none" stroke="#555555" stroke-dasharray="1,5" d="M3095.14,-1218.02C3249.11,-1218.32 4008.03,-1217.07 4234.75,-1163.92 4258.73,-1158.3 4283.67,-1148.96 4306.17,-1139.07"/>
<polygon fill="#555555" stroke="#555555" points="4307.3,-1141.94 4314.99,-1134.65 4304.43,-1135.56 4307.3,-1141.94"/>
</g>
<!-- LoneRaid06 -->
<g id="node10" class="node">
<title>LoneRaid06</title>
<ellipse fill="#ffffff" stroke="#000000" cx="3473.75" cy="-1097.28" rx="140.12" ry="18"/>
<text text-anchor="middle" x="3473.75" y="-1092.6" font-family="Times,serif" font-size="14.00">Ты из них? Из мутантов?</text>
</g>
<!-- talk_p_proc&#45;&gt;LoneRaid06 -->
<g id="edge9" class="edge">
<title>talk_p_proc&#45;&gt;LoneRaid06</title>
<path fill="none" stroke="#555555" stroke-dasharray="1,5" d="M3092.23,-1210.71C3153.91,-1192.53 3317.27,-1144.39 3408.97,-1117.37"/>
<polygon fill="#555555" stroke="#555555" points="3409.91,-1120.45 3418.51,-1114.26 3407.93,-1113.73 3409.91,-1120.45"/>
</g>
<!-- LoneRaid05 -->
<g id="node11" class="node">
<title>LoneRaid05</title>
<ellipse fill="#ffffff" stroke="#000000" cx="2029.75" cy="-1097.28" rx="164.05" ry="66.64"/>
<text text-anchor="middle" x="2029.75" y="-1127.1" font-family="Times,serif" font-size="14.00">Ты враг Ханов! Ты</text>
<text text-anchor="middle" x="2029.75" y="-1109.85" font-family="Times,serif" font-size="14.00">нападаешь на наших воинов</text>
<text text-anchor="middle" x="2029.75" y="-1092.6" font-family="Times,serif" font-size="14.00">и забираешь наших женщин!</text>
<text text-anchor="middle" x="2029.75" y="-1075.35" font-family="Times,serif" font-size="14.00">Придумывай скорее причину</text>
<text text-anchor="middle" x="2029.75" y="-1058.1" font-family="Times,serif" font-size="14.00">не вырезать твое сердце!</text>
</g>
<!-- talk_p_proc&#45;&gt;LoneRaid05 -->
<g id="edge10" class="edge">
<title>talk_p_proc&#45;&gt;LoneRaid05</title>
<path fill="none" stroke="#555555" stroke-dasharray="1,5" d="M3041.04,-1214.85C2924.44,-1201.41 2454.27,-1147.21 2198.13,-1117.69"/>
<polygon fill="#555555" stroke="#555555" points="2198.56,-1114.1 2188.22,-1116.43 2197.76,-1121.05 2198.56,-1114.1"/>
</g>
<!-- LoneRaid04 -->
<g id="node12" class="node">
<title>LoneRaid04</title>
<ellipse fill="#ffffff" stroke="#000000" cx="2959.75" cy="-1097.28" rx="140.18" ry="42.25"/>
<text text-anchor="middle" x="2959.75" y="-1109.85" font-family="Times,serif" font-size="14.00">Приветствую, брат Хан!</text>
<text text-anchor="middle" x="2959.75" y="-1092.6" font-family="Times,serif" font-size="14.00">Как охота? Много ли</text>
<text text-anchor="middle" x="2959.75" y="-1075.35" font-family="Times,serif" font-size="14.00">слабаков сегодня убито?</text>
</g>
<!-- talk_p_proc&#45;&gt;LoneRaid04 -->
<g id="edge11" class="edge">
<title>talk_p_proc&#45;&gt;LoneRaid04</title>
<path fill="none" stroke="#555555" stroke-dasharray="1,5" d="M3054.5,-1203.25C3041.72,-1189.1 3021.66,-1166.87 3003.28,-1146.51"/>
<polygon fill="#555555" stroke="#555555" points="3006.37,-1144.6 2997.07,-1139.53 3001.18,-1149.29 3006.37,-1144.6"/>
</g>
<!-- LoneRaid03 -->
<g id="node13" class="node">
<title>LoneRaid03</title>
<ellipse fill="#ffffff" stroke="#000000" cx="1118.75" cy="-1097.28" rx="157.15" ry="54.45"/>
<text text-anchor="middle" x="1118.75" y="-1118.48" font-family="Times,serif" font-size="14.00">Я не знаю, кто ты, но я</text>
<text text-anchor="middle" x="1118.75" y="-1101.23" font-family="Times,serif" font-size="14.00">тебя честно предупреждаю:</text>
<text text-anchor="middle" x="1118.75" y="-1083.98" font-family="Times,serif" font-size="14.00">тот кто мешает Ханам,</text>
<text text-anchor="middle" x="1118.75" y="-1066.73" font-family="Times,serif" font-size="14.00">сдохнет быстро.</text>
</g>
<!-- talk_p_proc&#45;&gt;LoneRaid03 -->
<g id="edge12" class="edge">
<title>talk_p_proc&#45;&gt;LoneRaid03</title>
<path fill="none" stroke="#555555" stroke-dasharray="1,5" d="M3040.44,-1217.15C2909.21,-1213.35 2330.26,-1195.53 1856.75,-1163.92 1657.77,-1150.65 1429.14,-1129.38 1279.74,-1114.66"/>
<polygon fill="#555555" stroke="#555555" points="1280.42,-1111.11 1270.12,-1113.62 1279.73,-1118.08 1280.42,-1111.11"/>
</g>
<!-- LoneRaid12 -->
<g id="node19" class="node">
<title>LoneRaid12</title>
<ellipse fill="#ffffff" stroke="#000000" cx="2029.75" cy="-827.45" rx="144.96" ry="30.05"/>
<text text-anchor="middle" x="2029.75" y="-831.4" font-family="Times,serif" font-size="14.00">Я буду рад их услышать.</text>
<text text-anchor="middle" x="2029.75" y="-814.15" font-family="Times,serif" font-size="14.00">Счастливой дороги, брат!</text>
</g>
<!-- LoneRaid06&#45;&gt;LoneRaid12 -->
<g id="edge38" class="edge">
<title>LoneRaid06&#45;&gt;LoneRaid12</title>
<path fill="none" stroke="#993b00" d="M3473.58,-1078.96C3472.85,-1045.95 3469.23,-975.98 3451.75,-960.89 3425.18,-937.96 2222.06,-953.89 2188.75,-942.89 2141.37,-927.24 2096.07,-891.94 2066.04,-864.66"/>
<polygon fill="#993b00" stroke="#993b00" points="2068.69,-862.42 2058.98,-858.2 2063.94,-867.56 2068.69,-862.42"/>
<text text-anchor="middle" x="3477.75" y="-982.09" font-family="Times,serif" font-size="14.00" fill="#993b00">А?</text>
</g>
<!-- LoneRaid18 -->
<g id="node28" class="node">
<title>LoneRaid18</title>
<ellipse fill="#ffffff" stroke="#000000" cx="3544.75" cy="-827.45" rx="146.55" ry="78.84"/>
<text text-anchor="middle" x="3544.75" y="-865.9" font-family="Times,serif" font-size="14.00">Они уничтожили Шэйди</text>
<text text-anchor="middle" x="3544.75" y="-848.65" font-family="Times,serif" font-size="14.00">Сэндс. Они убивают</text>
<text text-anchor="middle" x="3544.75" y="-831.4" font-family="Times,serif" font-size="14.00">каждого на своем пути. Я</text>
<text text-anchor="middle" x="3544.75" y="-814.15" font-family="Times,serif" font-size="14.00">и помыслить не мог, что</text>
<text text-anchor="middle" x="3544.75" y="-796.9" font-family="Times,serif" font-size="14.00">бывает такая жестокость.</text>
<text text-anchor="middle" x="3544.75" y="-779.65" font-family="Times,serif" font-size="14.00">Мы все обречены...</text>
</g>
<!-- LoneRaid06&#45;&gt;LoneRaid18 -->
<g id="edge34" class="edge">
<title>LoneRaid06&#45;&gt;LoneRaid18</title>
<path fill="none" stroke="#004499" d="M3478.29,-1079.12C3486.87,-1046.77 3505.96,-974.76 3521.49,-916.19"/>
<polygon fill="#004499" stroke="#004499" points="3525.06,-917.36 3524.24,-906.79 3518.3,-915.56 3525.06,-917.36"/>
<text text-anchor="middle" x="3609.87" y="-982.09" font-family="Times,serif" font-size="14.00" fill="#004499">Что ты знаешь о мутантах?</text>
</g>
<!-- LoneRaid19 -->
<g id="node29" class="node">
<title>LoneRaid19</title>
<ellipse fill="#ffffff" stroke="#000000" cx="3923.75" cy="-827.45" rx="142.23" ry="18"/>
<text text-anchor="middle" x="3923.75" y="-822.77" font-family="Times,serif" font-size="14.00">Убийца, собачье отродье!</text>
</g>
<!-- LoneRaid06&#45;&gt;LoneRaid19 -->
<g id="edge35" class="edge">
<title>LoneRaid06&#45;&gt;LoneRaid19</title>
<path fill="none" stroke="#719900" d="M3506.37,-1079.41C3536.03,-1064.67 3581.36,-1043.67 3622.75,-1030.64 3662.07,-1018.25 3676.76,-1030.85 3713.75,-1012.64 3794.2,-973.01 3868,-894.52 3902.78,-853.99"/>
<polygon fill="#719900" stroke="#719900" points="3906,-856.61 3909.79,-846.71 3900.66,-852.08 3906,-856.61"/>
<text text-anchor="middle" x="3840.62" y="-982.09" font-family="Times,serif" font-size="14.00" fill="#719900">Да, я мутант!</text>
</g>
<!-- LoneRaid20 -->
<g id="node30" class="node">
<title>LoneRaid20</title>
<ellipse fill="#ffffff" stroke="#000000" cx="4241.75" cy="-827.45" rx="158.22" ry="91.04"/>
<text text-anchor="middle" x="4241.75" y="-874.52" font-family="Times,serif" font-size="14.00">Нет, но сложно сказать</text>
<text text-anchor="middle" x="4241.75" y="-857.27" font-family="Times,serif" font-size="14.00">наверняка. Я слышал, что</text>
<text text-anchor="middle" x="4241.75" y="-840.02" font-family="Times,serif" font-size="14.00">ночью они надевают плащи,</text>
<text text-anchor="middle" x="4241.75" y="-822.77" font-family="Times,serif" font-size="14.00">что они затуманивают</text>
<text text-anchor="middle" x="4241.75" y="-805.52" font-family="Times,serif" font-size="14.00">разум человека, принимая</text>
<text text-anchor="middle" x="4241.75" y="-788.27" font-family="Times,serif" font-size="14.00">облик прекрасных женщин!</text>
<text text-anchor="middle" x="4241.75" y="-771.02" font-family="Times,serif" font-size="14.00">Мы все обречены!</text>
</g>
<!-- LoneRaid06&#45;&gt;LoneRaid20 -->
<g id="edge36" class="edge">
<title>LoneRaid06&#45;&gt;LoneRaid20</title>
<path fill="none" stroke="#950099" d="M3503.74,-1079.31C3533.07,-1063.64 3579.51,-1041.24 3622.75,-1030.64 3740.41,-1001.77 3776.46,-1038.82 3894.75,-1012.64 3978.51,-994.09 3998.85,-982.9 4074.75,-942.89 4095.37,-932.01 4116.52,-919.09 4136.54,-905.91"/>
<polygon fill="#950099" stroke="#950099" points="4138.27,-908.3 4144.65,-899.84 4134.39,-902.47 4138.27,-908.3"/>
<text text-anchor="middle" x="4111.87" y="-990.71" font-family="Times,serif" font-size="14.00" fill="#950099">Я что, выгляжу как</text>
<text text-anchor="middle" x="4111.87" y="-973.46" font-family="Times,serif" font-size="14.00" fill="#950099">мутант?</text>
</g>
<!-- LoneRaid21 -->
<g id="node31" class="node">
<title>LoneRaid21</title>
<ellipse fill="#ffffff" stroke="#000000" cx="4572.75" cy="-827.45" rx="155.03" ry="103.24"/>
<text text-anchor="middle" x="4572.75" y="-883.15" font-family="Times,serif" font-size="14.00">Это хорошо. Я желаю</text>
<text text-anchor="middle" x="4572.75" y="-865.9" font-family="Times,serif" font-size="14.00">отмстить за наших убитых</text>
<text text-anchor="middle" x="4572.75" y="-848.65" font-family="Times,serif" font-size="14.00">и за тех, кого убили в</text>
<text text-anchor="middle" x="4572.75" y="-831.4" font-family="Times,serif" font-size="14.00">Шэйди Сэндс. Любой</text>
<text text-anchor="middle" x="4572.75" y="-814.15" font-family="Times,serif" font-size="14.00">мутант, вставший на моем</text>
<text text-anchor="middle" x="4572.75" y="-796.9" font-family="Times,serif" font-size="14.00">пути, умрет! Вперед,</text>
<text text-anchor="middle" x="4572.75" y="-779.65" font-family="Times,serif" font-size="14.00">друг! Вперед, пора</text>
<text text-anchor="middle" x="4572.75" y="-762.4" font-family="Times,serif" font-size="14.00">убивать! Смерть мутантам!</text>
</g>
<!-- LoneRaid06&#45;&gt;LoneRaid21 -->
<g id="edge37" class="edge">
<title>LoneRaid06&#45;&gt;LoneRaid21</title>
<path fill="none" stroke="#009968" d="M3503.11,-1079.29C3532.35,-1063.36 3579.06,-1040.56 3622.75,-1030.64 3745.46,-1002.76 4064.71,-1033.85 4188.75,-1012.64 4289.85,-995.34 4316.75,-988.25 4408.75,-942.89 4426.78,-933.99 4445.04,-923.27 4462.51,-912"/>
<polygon fill="#009968" stroke="#009968" points="4464.13,-914.47 4470.57,-906.06 4460.29,-908.61 4464.13,-914.47"/>
<text text-anchor="middle" x="4385.87" y="-982.09" font-family="Times,serif" font-size="14.00" fill="#009968">Нет.</text>
</g>
<!-- LoneRaid03a -->
<g id="node15" class="node">
<title>LoneRaid03a</title>
<ellipse fill="#ffffff" stroke="#000000" cx="260.75" cy="-538.28" rx="27" ry="18"/>
</g>
<!-- LoneRaid05&#45;&gt;LoneRaid03a -->
<g id="edge29" class="edge">
<title>LoneRaid05&#45;&gt;LoneRaid03a</title>
<path fill="none" stroke="#009799" d="M1888.76,-1062.73C1822.88,-1039.82 1749.31,-1002.46 1704.75,-942.89 1642.54,-859.73 1745.53,-781.93 1668.75,-712.01 1598.04,-647.64 905.26,-664.11 809.75,-659.51 781.26,-658.14 319.73,-658.4 296.75,-641.51 273.55,-624.47 265.22,-591.29 262.27,-567.35"/>
<polygon fill="#009799" stroke="#009799" points="265.66,-567.06 261.22,-557.44 258.7,-567.73 265.66,-567.06"/>
<text text-anchor="middle" x="1790.25" y="-831.4" font-family="Times,serif" font-size="14.00" fill="#009799">Ничего не приходит в</text>
<text text-anchor="middle" x="1790.25" y="-814.15" font-family="Times,serif" font-size="14.00" fill="#009799">голову. Давай драться!</text>
</g>
<!-- LoneRaid09 -->
<g id="node16" class="node">
<title>LoneRaid09</title>
<ellipse fill="#ffffff" stroke="#000000" cx="819.75" cy="-538.28" rx="147.08" ry="66.64"/>
<text text-anchor="middle" x="819.75" y="-568.1" font-family="Times,serif" font-size="14.00">Согласен. Даю слово, что</text>
<text text-anchor="middle" x="819.75" y="-550.85" font-family="Times,serif" font-size="14.00">ты можешь идти с миром,</text>
<text text-anchor="middle" x="819.75" y="-533.6" font-family="Times,serif" font-size="14.00">если не станешь меня</text>
<text text-anchor="middle" x="819.75" y="-516.35" font-family="Times,serif" font-size="14.00">провоцировать. Не</text>
<text text-anchor="middle" x="819.75" y="-499.1" font-family="Times,serif" font-size="14.00">беспокой меня больше.</text>
</g>
<!-- LoneRaid05&#45;&gt;LoneRaid09 -->
<g id="edge30" class="edge">
<title>LoneRaid05&#45;&gt;LoneRaid09</title>
<path fill="none" stroke="#996e00" d="M2109.78,-1038.77C2138.81,-1013.09 2168.26,-980.17 2183.75,-942.89 2203.43,-895.51 2217.67,-750.5 2183.75,-712.01 2104.92,-622.58 1318.53,-567.54 976.86,-547.67"/>
<polygon fill="#996e00" stroke="#996e00" points="977.07,-544.12 966.89,-547.04 976.67,-551.11 977.07,-544.12"/>
<text text-anchor="middle" x="2298.87" y="-840.02" font-family="Times,serif" font-size="14.00" fill="#996e00">Потому что мы оба</text>
<text text-anchor="middle" x="2298.87" y="-822.77" font-family="Times,serif" font-size="14.00" fill="#996e00">останемся живы, если ты</text>
<text text-anchor="middle" x="2298.87" y="-805.52" font-family="Times,serif" font-size="14.00" fill="#996e00">передумаешь.</text>
</g>
<!-- LoneRaid10 -->
<g id="node17" class="node">
<title>LoneRaid10</title>
<ellipse fill="#ffffff" stroke="#000000" cx="1507.75" cy="-827.45" rx="152.38" ry="54.45"/>
<text text-anchor="middle" x="1507.75" y="-848.65" font-family="Times,serif" font-size="14.00">Мне не нужно ничего, что</text>
<text text-anchor="middle" x="1507.75" y="-831.4" font-family="Times,serif" font-size="14.00">принадлежало трусу, даже</text>
<text text-anchor="middle" x="1507.75" y="-814.15" font-family="Times,serif" font-size="14.00">твоя жизнь! Убирайся с</text>
<text text-anchor="middle" x="1507.75" y="-796.9" font-family="Times,serif" font-size="14.00">глаз моих!</text>
</g>
<!-- LoneRaid05&#45;&gt;LoneRaid10 -->
<g id="edge31" class="edge">
<title>LoneRaid05&#45;&gt;LoneRaid10</title>
<path fill="none" stroke="#420099" d="M1865.65,-1092.37C1730.5,-1085.28 1553.97,-1065.77 1508.5,-1012.64 1480.84,-980.32 1481.72,-931.87 1488.95,-892.78"/>
<polygon fill="#420099" stroke="#420099" points="1492.57,-893.51 1491.13,-883.02 1485.71,-892.12 1492.57,-893.51"/>
<text text-anchor="middle" x="1604.37" y="-990.71" font-family="Times,serif" font-size="14.00" fill="#420099">Я не в состоянии драться.</text>
<text text-anchor="middle" x="1604.37" y="-973.46" font-family="Times,serif" font-size="14.00" fill="#420099">Я сдаюсь.</text>
</g>
<!-- LoneRaid11 -->
<g id="node18" class="node">
<title>LoneRaid11</title>
<ellipse fill="#ffffff" stroke="#000000" cx="1189.75" cy="-827.45" rx="147.61" ry="30.05"/>
<text text-anchor="middle" x="1189.75" y="-831.4" font-family="Times,serif" font-size="14.00">Ты глупое животное. Мне</text>
<text text-anchor="middle" x="1189.75" y="-814.15" font-family="Times,serif" font-size="14.00">будет приятно убить тебя.</text>
</g>
<!-- LoneRaid05&#45;&gt;LoneRaid11 -->
<g id="edge32" class="edge">
<title>LoneRaid05&#45;&gt;LoneRaid11</title>
<path fill="none" stroke="#009915" d="M1865.98,-1091.76C1710.13,-1084.32 1489.69,-1064.65 1422.25,-1012.64 1402.52,-997.43 1418.98,-977.85 1400.75,-960.89 1382.22,-943.65 1369.23,-954.47 1346.75,-942.89 1304.54,-921.14 1261.28,-888.71 1230.89,-863.92"/>
<polygon fill="#009915" stroke="#009915" points="1233.61,-860.8 1223.67,-857.14 1229.16,-866.2 1233.61,-860.8"/>
<text text-anchor="middle" x="1453.5" y="-982.09" font-family="Times,serif" font-size="14.00" fill="#009915">Хынгрр!</text>
</g>
<!-- LoneRaid05&#45;&gt;LoneRaid12 -->
<g id="edge33" class="edge">
<title>LoneRaid05&#45;&gt;LoneRaid12</title>
<path fill="none" stroke="#990018" d="M2029.75,-1030.42C2029.75,-979.8 2029.75,-911.52 2029.75,-868.74"/>
<polygon fill="#990018" stroke="#990018" points="2033.25,-868.92 2029.75,-858.92 2026.25,-868.92 2033.25,-868.92"/>
<text text-anchor="middle" x="2038.75" y="-982.09" font-family="Times,serif" font-size="14.00" fill="#990018">А?</text>
</g>
<!-- LoneRaid05&#45;&gt;LoneRaid18 -->
<g id="edge28" class="edge">
<title>LoneRaid05&#45;&gt;LoneRaid18</title>
<path fill="none" stroke="#99006a" d="M2151.8,-1052.35C2176.86,-1041.05 2202.39,-1027.74 2224.75,-1012.64 2251.76,-994.38 2246.71,-973.57 2276.75,-960.89 2390.58,-912.81 3271.62,-982.29 3388.75,-942.89 3415.02,-934.04 3440.57,-919.01 3463.13,-902.69"/>
<polygon fill="#99006a" stroke="#99006a" points="3465.02,-904.91 3470.95,-896.14 3460.84,-899.29 3465.02,-904.91"/>
<text text-anchor="middle" x="2351.75" y="-999.34" font-family="Times,serif" font-size="14.00" fill="#99006a">Хорош хвастать. Где</text>
<text text-anchor="middle" x="2351.75" y="-982.09" font-family="Times,serif" font-size="14.00" fill="#99006a">Танди? Скажи, или</text>
<text text-anchor="middle" x="2351.75" y="-964.84" font-family="Times,serif" font-size="14.00" fill="#99006a">сдохнешь!</text>
</g>
<!-- LoneRaid04&#45;&gt;LoneRaid12 -->
<g id="edge25" class="edge">
<title>LoneRaid04&#45;&gt;LoneRaid12</title>
<path fill="none" stroke="#3e9900" d="M2863.82,-1066.27C2758.65,-1034.67 2584.41,-986.06 2430.75,-960.89 2324.31,-943.45 2290.09,-979.77 2188.75,-942.89 2142.3,-925.98 2097.34,-891.39 2067.15,-864.64"/>
<polygon fill="#3e9900" stroke="#3e9900" points="2069.81,-862.42 2060.04,-858.32 2065.12,-867.62 2069.81,-862.42"/>
<text text-anchor="middle" x="2674.75" y="-982.09" font-family="Times,serif" font-size="14.00" fill="#3e9900">А?</text>
</g>
<!-- LoneRaid13 -->
<g id="node22" class="node">
<title>LoneRaid13</title>
<ellipse fill="#ffffff" stroke="#000000" cx="3234.75" cy="-827.45" rx="144.96" ry="30.05"/>
<text text-anchor="middle" x="3234.75" y="-831.4" font-family="Times,serif" font-size="14.00">Я буду рад их услышать.</text>
<text text-anchor="middle" x="3234.75" y="-814.15" font-family="Times,serif" font-size="14.00">Счастливой дороги, брат!</text>
</g>
<!-- LoneRaid04&#45;&gt;LoneRaid13 -->
<g id="edge21" class="edge">
<title>LoneRaid04&#45;&gt;LoneRaid13</title>
<path fill="none" stroke="#750099" d="M3021.74,-1059.04C3040.06,-1045.99 3059.11,-1030.16 3073.75,-1012.64 3090.15,-992.99 3084,-981.63 3099,-960.89 3125.41,-924.33 3162.43,-888.98 3191.13,-864.01"/>
<polygon fill="#750099" stroke="#750099" points="3193.07,-866.1 3198.37,-856.93 3188.51,-860.79 3193.07,-866.1"/>
<text text-anchor="middle" x="3184.12" y="-999.34" font-family="Times,serif" font-size="14.00" fill="#750099">Говорить я буду у</text>
<text text-anchor="middle" x="3184.12" y="-982.09" font-family="Times,serif" font-size="14.00" fill="#750099">вечернего костра. Но</text>
<text text-anchor="middle" x="3184.12" y="-964.84" font-family="Times,serif" font-size="14.00" fill="#750099">историй у меня много!</text>
</g>
<!-- LoneRaid04a -->
<g id="node23" class="node">
<title>LoneRaid04a</title>
<ellipse fill="#ffffff" stroke="#000000" cx="3736.75" cy="-827.45" rx="27" ry="18"/>
</g>
<!-- LoneRaid04&#45;&gt;LoneRaid04a -->
<g id="edge22" class="edge">
<title>LoneRaid04&#45;&gt;LoneRaid04a</title>
<path fill="none" stroke="#009948" d="M3094.5,-1085.4C3153.29,-1074.63 3219.63,-1053.56 3267.75,-1012.64 3286.99,-996.27 3270.32,-975.03 3291.25,-960.89 3328.98,-935.39 3664.63,-970.63 3700.75,-942.89 3727.05,-922.68 3734.56,-883.33 3736.48,-856.47"/>
<polygon fill="#009948" stroke="#009948" points="3740.01,-856.98 3737,-846.82 3733.01,-856.64 3740.01,-856.98"/>
<text text-anchor="middle" x="3372" y="-990.71" font-family="Times,serif" font-size="14.00" fill="#009948">Много крови и много</text>
<text text-anchor="middle" x="3372" y="-973.46" font-family="Times,serif" font-size="14.00" fill="#009948">награбленного добра.</text>
</g>
<!-- LoneRaid16 -->
<g id="node24" class="node">
<title>LoneRaid16</title>
<ellipse fill="#ffffff" stroke="#000000" cx="2587.75" cy="-827.45" rx="170.41" ry="115.44"/>
<text text-anchor="middle" x="2587.75" y="-891.77" font-family="Times,serif" font-size="14.00">Я устал и изможден</text>
<text text-anchor="middle" x="2587.75" y="-874.52" font-family="Times,serif" font-size="14.00">путешествием, которое</text>
<text text-anchor="middle" x="2587.75" y="-857.27" font-family="Times,serif" font-size="14.00">оказалось на много дней</text>
<text text-anchor="middle" x="2587.75" y="-840.02" font-family="Times,serif" font-size="14.00">дольше, чем я ожидал.</text>
<text text-anchor="middle" x="2587.75" y="-822.77" font-family="Times,serif" font-size="14.00">Радскорпионы убили моих</text>
<text text-anchor="middle" x="2587.75" y="-805.52" font-family="Times,serif" font-size="14.00">товарищей. Я соскучился</text>
<text text-anchor="middle" x="2587.75" y="-788.27" font-family="Times,serif" font-size="14.00">по уюту своего лагеря и</text>
<text text-anchor="middle" x="2587.75" y="-771.02" font-family="Times,serif" font-size="14.00">исцеляющим прикосновениям</text>
<text text-anchor="middle" x="2587.75" y="-753.77" font-family="Times,serif" font-size="14.00">наших женщин.</text>
</g>
<!-- LoneRaid04&#45;&gt;LoneRaid16 -->
<g id="edge23" class="edge">
<title>LoneRaid04&#45;&gt;LoneRaid16</title>
<path fill="none" stroke="#991c00" d="M2874.45,-1063.38C2843.57,-1049.73 2809.19,-1032.43 2780.25,-1012.64 2746.95,-989.87 2714,-961.24 2685.02,-933.38"/>
<polygon fill="#991c00" stroke="#991c00" points="2687.96,-931.39 2678.35,-926.94 2683.09,-936.42 2687.96,-931.39"/>
<text text-anchor="middle" x="2859.5" y="-982.09" font-family="Times,serif" font-size="14.00" fill="#991c00">Неплохо. Как у тебя?</text>
</g>
<!-- LoneRaid17 -->
<g id="node25" class="node">
<title>LoneRaid17</title>
<ellipse fill="#ffffff" stroke="#000000" cx="2923.75" cy="-827.45" rx="147.61" ry="42.25"/>
<text text-anchor="middle" x="2923.75" y="-840.02" font-family="Times,serif" font-size="14.00">Пусть удача снова</text>
<text text-anchor="middle" x="2923.75" y="-822.77" font-family="Times,serif" font-size="14.00">благоволит тебе. Прощай,</text>
<text text-anchor="middle" x="2923.75" y="-805.52" font-family="Times,serif" font-size="14.00">брат.</text>
</g>
<!-- LoneRaid04&#45;&gt;LoneRaid17 -->
<g id="edge24" class="edge">
<title>LoneRaid04&#45;&gt;LoneRaid17</title>
<path fill="none" stroke="#001199" d="M2954.16,-1054.73C2947.87,-1007.91 2937.63,-931.73 2930.79,-880.87"/>
<polygon fill="#001199" stroke="#001199" points="2934.15,-880.55 2929.34,-871.1 2927.21,-881.48 2934.15,-880.55"/>
<text text-anchor="middle" x="3009.12" y="-982.09" font-family="Times,serif" font-size="14.00" fill="#001199">Бывало лучше...</text>
</g>
<!-- LoneRaid07 -->
<g id="node14" class="node">
<title>LoneRaid07</title>
<ellipse fill="#ffffff" stroke="#000000" cx="604.75" cy="-827.45" rx="163.52" ry="66.64"/>
<text text-anchor="middle" x="604.75" y="-857.27" font-family="Times,serif" font-size="14.00">Возможно. Если ты желаешь</text>
<text text-anchor="middle" x="604.75" y="-840.02" font-family="Times,serif" font-size="14.00">драться, я буду драться.</text>
<text text-anchor="middle" x="604.75" y="-822.77" font-family="Times,serif" font-size="14.00">Если хочешь уйти с миром,</text>
<text text-anchor="middle" x="604.75" y="-805.52" font-family="Times,serif" font-size="14.00">я тебе даю слово Хана,</text>
<text text-anchor="middle" x="604.75" y="-788.27" font-family="Times,serif" font-size="14.00">что я не стану нападать.</text>
</g>
<!-- LoneRaid03&#45;&gt;LoneRaid07 -->
<g id="edge13" class="edge">
<title>LoneRaid03&#45;&gt;LoneRaid07</title>
<path fill="none" stroke="#994f00" d="M1025.16,-1053.16C1001.95,-1044.19 976.82,-1035.87 952.75,-1030.64 914.99,-1022.42 632.16,-1040.6 605.5,-1012.64 578.67,-984.5 577.15,-941.55 582.96,-904.2"/>
<polygon fill="#994f00" stroke="#994f00" points="586.5,-905.29 584.77,-894.83 579.6,-904.08 586.5,-905.29"/>
<text text-anchor="middle" x="705.87" y="-999.34" font-family="Times,serif" font-size="14.00" fill="#994f00">Знаешь, если бы ты правда</text>
<text text-anchor="middle" x="705.87" y="-982.09" font-family="Times,serif" font-size="14.00" fill="#994f00">считал себя сильнее, ты</text>
<text text-anchor="middle" x="705.87" y="-964.84" font-family="Times,serif" font-size="14.00" fill="#994f00">бы меня убил.</text>
</g>
<!-- LoneRaid03&#45;&gt;LoneRaid03a -->
<g id="edge14" class="edge">
<title>LoneRaid03&#45;&gt;LoneRaid03a</title>
<path fill="none" stroke="#220099" d="M1025.17,-1053.1C1001.96,-1044.13 976.83,-1035.83 952.75,-1030.64 803.16,-998.39 366.62,-1061.34 269.75,-942.89 178.14,-830.88 228.43,-637.03 251.33,-566.19"/>
<polygon fill="#220099" stroke="#220099" points="254.92,-567.5 254.75,-556.91 248.27,-565.3 254.92,-567.5"/>
<text text-anchor="middle" x="350.75" y="-831.4" font-family="Times,serif" font-size="14.00" fill="#220099">Очень жаль. Но я вам</text>
<text text-anchor="middle" x="350.75" y="-814.15" font-family="Times,serif" font-size="14.00" fill="#220099">сейчас буду мешать!</text>
</g>
<!-- LoneRaid03&#45;&gt;LoneRaid09 -->
<g id="edge15" class="edge">
<title>LoneRaid03&#45;&gt;LoneRaid09</title>
<path fill="none" stroke="#0a9900" d="M1016.72,-1055.62C941.99,-1023.55 849.95,-978.46 828,-942.89 795.46,-890.16 803.93,-717.74 812.28,-616.11"/>
<polygon fill="#0a9900" stroke="#0a9900" points="815.84,-616.55 813.2,-606.3 808.87,-615.97 815.84,-616.55"/>
<text text-anchor="middle" x="931.12" y="-840.02" font-family="Times,serif" font-size="14.00" fill="#0a9900">Отлично. Не будем друг</text>
<text text-anchor="middle" x="931.12" y="-822.77" font-family="Times,serif" font-size="14.00" fill="#0a9900">другу мешать и будем жить</text>
<text text-anchor="middle" x="931.12" y="-805.52" font-family="Times,serif" font-size="14.00" fill="#0a9900">дружно.</text>
</g>
<!-- LoneRaid03&#45;&gt;LoneRaid10 -->
<g id="edge16" class="edge">
<title>LoneRaid03&#45;&gt;LoneRaid10</title>
<path fill="none" stroke="#990037" d="M1132.68,-1042.92C1142.45,-1007.45 1154.94,-966.39 1161.75,-960.89 1193.86,-934.91 1308.05,-957.34 1346.75,-942.89 1381.83,-929.78 1416.28,-907.03 1444.25,-885.26"/>
<polygon fill="#990037" stroke="#990037" points="1446.05,-887.5 1451.71,-878.54 1441.7,-882.01 1446.05,-887.5"/>
<text text-anchor="middle" x="1260.75" y="-990.71" font-family="Times,serif" font-size="14.00" fill="#990037">Я сдаюсь. Не убивай меня,</text>
<text text-anchor="middle" x="1260.75" y="-973.46" font-family="Times,serif" font-size="14.00" fill="#990037">пожалуйста!</text>
</g>
<!-- LoneRaid03&#45;&gt;LoneRaid11 -->
<g id="edge17" class="edge">
<title>LoneRaid03&#45;&gt;LoneRaid11</title>
<path fill="none" stroke="#006499" d="M1086.55,-1043.76C1075.14,-1018.49 1067.33,-987.89 1077.25,-960.89 1091.2,-922.9 1121.41,-888.37 1147.02,-864.09"/>
<polygon fill="#006499" stroke="#006499" points="1148.83,-867.26 1153.79,-857.9 1144.08,-862.12 1148.83,-867.26"/>
<text text-anchor="middle" x="1108.5" y="-982.09" font-family="Times,serif" font-size="14.00" fill="#006499">Хынгрр!</text>
</g>
<!-- LoneRaid03&#45;&gt;LoneRaid12 -->
<g id="edge18" class="edge">
<title>LoneRaid03&#45;&gt;LoneRaid12</title>
<path fill="none" stroke="#909900" d="M1257.03,-1071.09C1294.14,-1058.68 1331.71,-1040.18 1359.75,-1012.64 1377.22,-995.47 1358.92,-975.28 1378.75,-960.89 1423.02,-928.76 1819,-960.62 1870.75,-942.89 1917.8,-926.76 1962.98,-891.71 1993.08,-864.62"/>
<polygon fill="#909900" stroke="#909900" points="1995.15,-867.55 2000.15,-858.21 1990.42,-862.39 1995.15,-867.55"/>
<text text-anchor="middle" x="1387.75" y="-982.09" font-family="Times,serif" font-size="14.00" fill="#909900">А?</text>
</g>
<!-- LoneRaid07&#45;&gt;LoneRaid03a -->
<g id="edge39" class="edge">
<title>LoneRaid07&#45;&gt;LoneRaid03a</title>
<path fill="none" stroke="#0f0099" d="M529.21,-767.99C498.88,-747.23 462.63,-725.66 426.75,-712.01 378.39,-693.63 351.19,-727.49 311.75,-694.01 274.35,-662.27 264.22,-602.54 261.57,-567.3"/>
<polygon fill="#0f0099" stroke="#0f0099" points="265.01,-567.14 260.93,-557.36 258.02,-567.55 265.01,-567.14"/>
<text text-anchor="middle" x="367.25" y="-672.09" font-family="Times,serif" font-size="14.00" fill="#0f0099">Давай драться.</text>
</g>
<!-- LoneRaid07&#45;&gt;LoneRaid09 -->
<g id="edge40" class="edge">
<title>LoneRaid07&#45;&gt;LoneRaid09</title>
<path fill="none" stroke="#1e9900" d="M599.46,-760.57C599.91,-727.88 605.34,-689.16 624.25,-659.51 642.99,-630.14 671.74,-606.8 701.47,-588.8"/>
<polygon fill="#1e9900" stroke="#1e9900" points="702.86,-591.46 709.72,-583.39 699.33,-585.42 702.86,-591.46"/>
<text text-anchor="middle" x="715.5" y="-672.09" font-family="Times,serif" font-size="14.00" fill="#1e9900">Давай не будем драться.</text>
</g>
<!-- LoneRaid22 -->
<g id="node32" class="node">
<title>LoneRaid22</title>
<ellipse fill="#ffffff" stroke="#000000" cx="450.75" cy="-538.28" rx="145.38" ry="18"/>
<text text-anchor="middle" x="450.75" y="-533.6" font-family="Times,serif" font-size="14.00">Ты умрешь за свои слова!</text>
</g>
<!-- LoneRaid07&#45;&gt;LoneRaid22 -->
<g id="edge41" class="edge">
<title>LoneRaid07&#45;&gt;LoneRaid22</title>
<path fill="none" stroke="#99004b" d="M507.57,-773.62C479.09,-752.86 451.41,-726.19 435.75,-694.01 415.79,-653.03 428.7,-598.76 439.79,-566.59"/>
<polygon fill="#99004b" stroke="#99004b" points="443.3,-568.17 443.43,-557.57 436.72,-565.78 443.3,-568.17"/>
<text text-anchor="middle" x="518.25" y="-680.71" font-family="Times,serif" font-size="14.00" fill="#99004b">Слово Хана? Смешная</text>
<text text-anchor="middle" x="518.25" y="-663.46" font-family="Times,serif" font-size="14.00" fill="#99004b">шутка!</text>
</g>
<!-- LoneRaid08 -->
<g id="node20" class="node">
<title>LoneRaid08</title>
<ellipse fill="#ffffff" stroke="#000000" cx="158.75" cy="-331.39" rx="158.75" ry="66.64"/>
<text text-anchor="middle" x="158.75" y="-361.22" font-family="Times,serif" font-size="14.00">Ты намного сильнее меня,</text>
<text text-anchor="middle" x="158.75" y="-343.97" font-family="Times,serif" font-size="14.00">а я утомлен многими днями</text>
<text text-anchor="middle" x="158.75" y="-326.72" font-family="Times,serif" font-size="14.00">жизни в пустоши. Я не</text>
<text text-anchor="middle" x="158.75" y="-309.47" font-family="Times,serif" font-size="14.00">хочу умирать. Хоть и</text>
<text text-anchor="middle" x="158.75" y="-292.22" font-family="Times,serif" font-size="14.00">стыдно мне, но я сдаюсь.</text>
</g>
<!-- LoneRaid03a&#45;&gt;LoneRaid08 -->
<g id="edge19" class="edge">
<title>LoneRaid03a&#45;&gt;LoneRaid08</title>
<path fill="none" stroke="#555555" stroke-dasharray="1,5" d="M252.57,-520.86C240.32,-496.24 216.42,-448.24 195.81,-406.85"/>
<polygon fill="#555555" stroke="#555555" points="198.52,-405.43 190.93,-398.04 192.25,-408.55 198.52,-405.43"/>
</g>
<!-- LoneRaidCombat -->
<g id="node21" class="node">
<title>LoneRaidCombat</title>
<ellipse fill="#ffffff" stroke="#000000" cx="362.75" cy="-331.39" rx="27" ry="18"/>
</g>
<!-- LoneRaid03a&#45;&gt;LoneRaidCombat -->
<g id="edge20" class="edge">
<title>LoneRaid03a&#45;&gt;LoneRaidCombat</title>
<path fill="none" stroke="#555555" stroke-dasharray="1,5" d="M264.82,-520.24C270.25,-499.31 281.04,-463.12 296.75,-435.04 307.08,-416.56 314.94,-415.61 326.75,-398.04 335.13,-385.56 343.28,-370.97 349.7,-358.71"/>
<polygon fill="#555555" stroke="#555555" points="353.2,-360.56 354.66,-350.06 346.98,-357.36 353.2,-360.56"/>
</g>
<!-- LoneRaidLoot -->
<g id="node33" class="node">
<title>LoneRaidLoot</title>
<ellipse fill="#ffffff" stroke="#000000" cx="158.75" cy="-159" rx="27" ry="18"/>
</g>
<!-- LoneRaid08&#45;&gt;LoneRaidLoot -->
<g id="edge42" class="edge">
<title>LoneRaid08&#45;&gt;LoneRaidLoot</title>
<path fill="none" stroke="#007799" d="M158.75,-264.52C158.75,-238.09 158.75,-209.04 158.75,-188.29"/>
<polygon fill="#007799" stroke="#007799" points="162.25,-188.4 158.75,-178.4 155.25,-188.4 162.25,-188.4"/>
<text text-anchor="middle" x="261.12" y="-233.45" font-family="Times,serif" font-size="14.00" fill="#007799">Отлично. Не будем друг</text>
<text text-anchor="middle" x="261.12" y="-216.2" font-family="Times,serif" font-size="14.00" fill="#007799">другу мешать и будем жить</text>
<text text-anchor="middle" x="261.12" y="-198.95" font-family="Times,serif" font-size="14.00" fill="#007799">дружно.</text>
</g>
<!-- LoneRaid14 -->
<g id="node26" class="node">
<title>LoneRaid14</title>
<ellipse fill="#ffffff" stroke="#000000" cx="3898.75" cy="-538.28" rx="154.5" ry="30.05"/>
<text text-anchor="middle" x="3898.75" y="-542.23" font-family="Times,serif" font-size="14.00">Правда? Тогда я должен их</text>
<text text-anchor="middle" x="3898.75" y="-524.98" font-family="Times,serif" font-size="14.00">себе получить!</text>
</g>
<!-- LoneRaid04a&#45;&gt;LoneRaid14 -->
<g id="edge26" class="edge">
<title>LoneRaid04a&#45;&gt;LoneRaid14</title>
<path fill="none" stroke="#555555" stroke-dasharray="1,5" d="M3740.26,-809.5C3745.41,-786.55 3756.23,-744.74 3772.75,-712.01 3798.27,-661.46 3838.12,-609.81 3866.16,-576.33"/>
<polygon fill="#555555" stroke="#555555" points="3869.23,-579.11 3873.02,-569.22 3863.89,-574.59 3869.23,-579.11"/>
</g>
<!-- LoneRaid15 -->
<g id="node27" class="node">
<title>LoneRaid15</title>
<ellipse fill="#ffffff" stroke="#000000" cx="3573.75" cy="-538.28" rx="152.38" ry="103.24"/>
<text text-anchor="middle" x="3573.75" y="-593.98" font-family="Times,serif" font-size="14.00">Да, я слышал, что удача</text>
<text text-anchor="middle" x="3573.75" y="-576.73" font-family="Times,serif" font-size="14.00">тебе сильно благоволит. И</text>
<text text-anchor="middle" x="3573.75" y="-559.48" font-family="Times,serif" font-size="14.00">только по этой причине я</text>
<text text-anchor="middle" x="3573.75" y="-542.23" font-family="Times,serif" font-size="14.00">не собираюсь отнимать</text>
<text text-anchor="middle" x="3573.75" y="-524.98" font-family="Times,serif" font-size="14.00">твою добычу. Прощай,</text>
<text text-anchor="middle" x="3573.75" y="-507.73" font-family="Times,serif" font-size="14.00">брат. Пусть в следующий</text>
<text text-anchor="middle" x="3573.75" y="-490.48" font-family="Times,serif" font-size="14.00">раз мы встретимся в битве</text>
<text text-anchor="middle" x="3573.75" y="-473.23" font-family="Times,serif" font-size="14.00">плечом к плечу.</text>
</g>
<!-- LoneRaid04a&#45;&gt;LoneRaid15 -->
<g id="edge27" class="edge">
<title>LoneRaid04a&#45;&gt;LoneRaid15</title>
<path fill="none" stroke="#555555" stroke-dasharray="1,5" d="M3733.25,-809.49C3728.12,-786.54 3717.33,-744.71 3700.75,-712.01 3687.91,-686.7 3671.45,-661.14 3654.66,-637.72"/>
<polygon fill="#555555" stroke="#555555" points="3656.93,-635.89 3648.22,-629.86 3651.27,-640.01 3656.93,-635.89"/>
</g>
<!-- LoneRaidEnd -->
<g id="node34" class="node">
<title>LoneRaidEnd</title>
<ellipse fill="#ffffff" stroke="#000000" cx="158.75" cy="-18" rx="27" ry="18"/>
</g>
<!-- LoneRaidLoot&#45;&gt;LoneRaidEnd -->
<g id="edge43" class="edge">
<title>LoneRaidLoot&#45;&gt;LoneRaidEnd</title>
<path fill="none" stroke="#998e00" d="M158.75,-140.68C158.75,-117.14 158.75,-74.78 158.75,-46.78"/>
<polygon fill="#998e00" stroke="#998e00" points="162.25,-47.11 158.75,-37.11 155.25,-47.11 162.25,-47.11"/>
<text text-anchor="middle" x="261.87" y="-109.7" font-family="Times,serif" font-size="14.00" fill="#998e00">Я не знаю, кто ты, но я</text>
<text text-anchor="middle" x="261.87" y="-92.45" font-family="Times,serif" font-size="14.00" fill="#998e00">тебя честно предупреждаю:</text>
<text text-anchor="middle" x="261.87" y="-75.2" font-family="Times,serif" font-size="14.00" fill="#998e00">тот кто мешает Ханам,</text>
<text text-anchor="middle" x="261.87" y="-57.95" font-family="Times,serif" font-size="14.00" fill="#998e00">сдохнет быстро.</text>
</g>
</g>
</svg>
