<?xml version="1.0" encoding="UTF-8" standalone="no"?>
<!DOCTYPE svg PUBLIC "-//W3C//DTD SVG 1.1//EN"
 "http://www.w3.org/Graphics/SVG/1.1/DTD/svg11.dtd">
<!-- Generated by graphviz version 8.0.5 (0)
 -->
<!-- Title: mlops Pages: 1 -->
<svg width="824pt" height="358pt"
 viewBox="0.00 0.00 823.65 358.48" xmlns="http://www.w3.org/2000/svg" xmlns:xlink="http://www.w3.org/1999/xlink">
<g id="graph0" class="graph" transform="scale(1 1) rotate(0) translate(4 354.48)">
<title>mlops</title>
<polygon fill="white" stroke="none" points="-4,4 -4,-354.48 819.65,-354.48 819.65,4 -4,4"/>
<!-- start -->
<g id="node1" class="node">
<title>start</title>
<ellipse fill="#ffffff" stroke="#000000" cx="520.65" cy="-332.48" rx="27" ry="18"/>
</g>
<!-- look_at_p_proc -->
<g id="node2" class="node">
<title>look_at_p_proc</title>
<ellipse fill="#ffffff" stroke="#000000" cx="139.65" cy="-175.24" rx="139.65" ry="54.45"/>
<text text-anchor="middle" x="139.65" y="-196.44" font-family="Times,serif" font-size="14.00">Вы видите Техника. Он</text>
<text text-anchor="middle" x="139.65" y="-179.19" font-family="Times,serif" font-size="14.00">старательно трудится во</text>
<text text-anchor="middle" x="139.65" y="-161.94" font-family="Times,serif" font-size="14.00">благо Единства и</text>
<text text-anchor="middle" x="139.65" y="-144.69" font-family="Times,serif" font-size="14.00">Создателя.</text>
</g>
<!-- start&#45;&gt;look_at_p_proc -->
<g id="edge1" class="edge">
<title>start&#45;&gt;look_at_p_proc</title>
<path fill="none" stroke="#555555" stroke-dasharray="1,5" d="M493.89,-328.67C449.62,-323.32 359.04,-309.32 288.65,-278.48 260.63,-266.2 232.34,-248.44 208.04,-231.15"/>
<polygon fill="#555555" stroke="#555555" points="210.43,-227.84 200.28,-224.82 206.33,-233.51 210.43,-227.84"/>
</g>
<!-- pickup_p_proc -->
<g id="node3" class="node">
<title>pickup_p_proc</title>
<ellipse fill="#ffffff" stroke="#000000" cx="324.65" cy="-175.24" rx="27" ry="18"/>
</g>
<!-- start&#45;&gt;pickup_p_proc -->
<g id="edge2" class="edge">
<title>start&#45;&gt;pickup_p_proc</title>
<path fill="none" stroke="#555555" stroke-dasharray="1,5" d="M493.71,-329.69C458.55,-325.94 397.2,-314.35 360.65,-278.48 340.55,-258.74 331.65,-227.12 327.72,-204.27"/>
<polygon fill="#555555" stroke="#555555" points="331.06,-203.92 326.13,-194.54 324.13,-204.94 331.06,-203.92"/>
</g>
<!-- talk_p_proc -->
<g id="node4" class="node">
<title>talk_p_proc</title>
<ellipse fill="#ffffff" stroke="#000000" cx="520.65" cy="-175.24" rx="151.32" ry="103.24"/>
<text text-anchor="middle" x="520.65" y="-230.94" font-family="Times,serif" font-size="14.00">Мы выполняем работу для</text>
<text text-anchor="middle" x="520.65" y="-213.69" font-family="Times,serif" font-size="14.00">Создателя, нам нельзя</text>
<text text-anchor="middle" x="520.65" y="-196.44" font-family="Times,serif" font-size="14.00">мешать!</text>
<text text-anchor="middle" x="520.65" y="-179.19" font-family="Times,serif" font-size="14.00">&#45;&#45;&#45;</text>
<text text-anchor="middle" x="520.65" y="-161.94" font-family="Times,serif" font-size="14.00">Мы выполняем работу для</text>
<text text-anchor="middle" x="520.65" y="-144.69" font-family="Times,serif" font-size="14.00">Создателя.</text>
<text text-anchor="middle" x="520.65" y="-127.44" font-family="Times,serif" font-size="14.00">&#45;&#45;&#45;</text>
<text text-anchor="middle" x="520.65" y="-110.19" font-family="Times,serif" font-size="14.00">Создатель! Здесь чужак!</text>
</g>
<!-- start&#45;&gt;talk_p_proc -->
<g id="edge3" class="edge">
<title>start&#45;&gt;talk_p_proc</title>
<path fill="none" stroke="#555555" stroke-dasharray="1,5" d="M520.65,-314.27C520.65,-307.44 520.65,-298.99 520.65,-289.65"/>
<polygon fill="#555555" stroke="#555555" points="524.15,-289.76 520.65,-279.76 517.15,-289.76 524.15,-289.76"/>
</g>
<!-- critter_p_proc -->
<g id="node5" class="node">
<title>critter_p_proc</title>
<ellipse fill="#ffffff" stroke="#000000" cx="716.65" cy="-175.24" rx="27" ry="18"/>
</g>
<!-- start&#45;&gt;critter_p_proc -->
<g id="edge4" class="edge">
<title>start&#45;&gt;critter_p_proc</title>
<path fill="none" stroke="#555555" stroke-dasharray="1,5" d="M541.73,-320.84C546.57,-318.59 551.74,-316.33 556.65,-314.48 610.32,-294.16 638.95,-317.9 680.65,-278.48 701.12,-259.12 709.96,-227.44 713.78,-204.47"/>
<polygon fill="#555555" stroke="#555555" points="717.37,-205.06 715.31,-194.67 710.44,-204.08 717.37,-205.06"/>
</g>
<!-- destroy_p_proc -->
<g id="node6" class="node">
<title>destroy_p_proc</title>
<ellipse fill="#ffffff" stroke="#000000" cx="788.65" cy="-175.24" rx="27" ry="18"/>
</g>
<!-- start&#45;&gt;destroy_p_proc -->
<g id="edge5" class="edge">
<title>start&#45;&gt;destroy_p_proc</title>
<path fill="none" stroke="#555555" stroke-dasharray="1,5" d="M541.22,-320.64C546.17,-318.35 551.52,-316.13 556.65,-314.48 640.96,-287.34 685.31,-336 752.65,-278.48 774.29,-259.99 782.93,-227.66 786.37,-204.3"/>
<polygon fill="#555555" stroke="#555555" points="789.94,-205 787.68,-194.65 782.99,-204.15 789.94,-205"/>
</g>
<!-- combat -->
<g id="node7" class="node">
<title>combat</title>
<ellipse fill="#ffffff" stroke="#000000" cx="520.65" cy="-18" rx="27" ry="18"/>
</g>
<!-- talk_p_proc&#45;&gt;combat -->
<g id="edge6" class="edge">
<title>talk_p_proc&#45;&gt;combat</title>
<path fill="none" stroke="#555555" stroke-dasharray="1,5" d="M520.65,-71.56C520.65,-62.78 520.65,-54.49 520.65,-47.19"/>
<polygon fill="#555555" stroke="#555555" points="524.15,-47.28 520.65,-37.28 517.15,-47.28 524.15,-47.28"/>
</g>
<!-- dialog_end -->
<g id="node8" class="node">
<title>dialog_end</title>
<ellipse fill="#ffffff" stroke="#000000" cx="592.65" cy="-332.48" rx="27" ry="18"/>
</g>
<!-- gotonull -->
<g id="node9" class="node">
<title>gotonull</title>
<ellipse fill="#ffffff" stroke="#000000" cx="664.65" cy="-332.48" rx="27" ry="18"/>
</g>
</g>
</svg>
