<?xml version="1.0" encoding="UTF-8" standalone="no"?>
<!DOCTYPE svg PUBLIC "-//W3C//DTD SVG 1.1//EN"
 "http://www.w3.org/Graphics/SVG/1.1/DTD/svg11.dtd">
<!-- Generated by graphviz version 8.0.5 (0)
 -->
<!-- Title: mrhandyc Pages: 1 -->
<svg width="1212pt" height="1484pt"
 viewBox="0.00 0.00 1212.11 1484.04" xmlns="http://www.w3.org/2000/svg" xmlns:xlink="http://www.w3.org/1999/xlink">
<g id="graph0" class="graph" transform="scale(1 1) rotate(0) translate(4 1480.04)">
<title>mrhandyc</title>
<polygon fill="white" stroke="none" points="-4,4 -4,-1480.04 1208.11,-1480.04 1208.11,4 -4,4"/>
<!-- start -->
<g id="node1" class="node">
<title>start</title>
<ellipse fill="#ffffff" stroke="#000000" cx="148.14" cy="-1189.84" rx="27" ry="18"/>
</g>
<!-- description_p_proc -->
<g id="node2" class="node">
<title>description_p_proc</title>
<ellipse fill="#ffffff" stroke="#000000" cx="148.14" cy="-665.82" rx="148.14" ry="200.82"/>
<text text-anchor="middle" x="148.14" y="-790.52" font-family="Times,serif" font-size="14.00">Робот не работает. Слой</text>
<text text-anchor="middle" x="148.14" y="-773.27" font-family="Times,serif" font-size="14.00">пыли на нем позволяет</text>
<text text-anchor="middle" x="148.14" y="-756.02" font-family="Times,serif" font-size="14.00">предположить, что в</text>
<text text-anchor="middle" x="148.14" y="-738.77" font-family="Times,serif" font-size="14.00">последнее время им не</text>
<text text-anchor="middle" x="148.14" y="-721.52" font-family="Times,serif" font-size="14.00">пользовались.</text>
<text text-anchor="middle" x="148.14" y="-704.27" font-family="Times,serif" font-size="14.00">&#45;&#45;&#45;</text>
<text text-anchor="middle" x="148.14" y="-687.02" font-family="Times,serif" font-size="14.00">Робот отремонтирован, но</text>
<text text-anchor="middle" x="148.14" y="-669.77" font-family="Times,serif" font-size="14.00">все еще не работает.</text>
<text text-anchor="middle" x="148.14" y="-652.52" font-family="Times,serif" font-size="14.00">&#45;&#45;&#45;</text>
<text text-anchor="middle" x="148.14" y="-635.27" font-family="Times,serif" font-size="14.00">Проблема не в деталях.</text>
<text text-anchor="middle" x="148.14" y="-618.02" font-family="Times,serif" font-size="14.00">Должно быть, дело в его</text>
<text text-anchor="middle" x="148.14" y="-600.77" font-family="Times,serif" font-size="14.00">программе.</text>
<text text-anchor="middle" x="148.14" y="-583.52" font-family="Times,serif" font-size="14.00">&#45;&#45;&#45;</text>
<text text-anchor="middle" x="148.14" y="-566.27" font-family="Times,serif" font-size="14.00">Проблема не в деталях.</text>
<text text-anchor="middle" x="148.14" y="-549.02" font-family="Times,serif" font-size="14.00">Должно быть, дело в его</text>
<text text-anchor="middle" x="148.14" y="-531.77" font-family="Times,serif" font-size="14.00">программе.</text>
</g>
<!-- start&#45;&gt;description_p_proc -->
<g id="edge1" class="edge">
<title>start&#45;&gt;description_p_proc</title>
<path fill="none" stroke="#555555" stroke-dasharray="1,5" d="M148.14,-1171.47C148.14,-1125.23 148.14,-994.72 148.14,-878"/>
<polygon fill="#555555" stroke="#555555" points="151.64,-878.11 148.14,-868.11 144.64,-878.11 151.64,-878.11"/>
</g>
<!-- combat_p_proc -->
<g id="node3" class="node">
<title>combat_p_proc</title>
<ellipse fill="#ffffff" stroke="#000000" cx="220.14" cy="-1189.84" rx="27" ry="18"/>
</g>
<!-- critter_p_proc -->
<g id="node4" class="node">
<title>critter_p_proc</title>
<ellipse fill="#ffffff" stroke="#000000" cx="407.14" cy="-1189.84" rx="141.77" ry="42.25"/>
<text text-anchor="middle" x="407.14" y="-1202.41" font-family="Times,serif" font-size="14.00">Вы получили 1000 очков</text>
<text text-anchor="middle" x="407.14" y="-1185.16" font-family="Times,serif" font-size="14.00">опыта за то, что сделали</text>
<text text-anchor="middle" x="407.14" y="-1167.91" font-family="Times,serif" font-size="14.00">небольшую уборку.</text>
</g>
<!-- talk_p_proc -->
<g id="node5" class="node">
<title>talk_p_proc</title>
<ellipse fill="#ffffff" stroke="#000000" cx="594.14" cy="-1189.84" rx="27" ry="18"/>
</g>
<!-- MrHandyC00 -->
<g id="node6" class="node">
<title>MrHandyC00</title>
<ellipse fill="#ffffff" stroke="#000000" cx="594.14" cy="-665.82" rx="158.75" ry="103.24"/>
<text text-anchor="middle" x="594.14" y="-721.52" font-family="Times,serif" font-size="14.00">Робот #462 готов.</text>
<text text-anchor="middle" x="594.14" y="-704.27" font-family="Times,serif" font-size="14.00">Проверка. Определение</text>
<text text-anchor="middle" x="594.14" y="-687.02" font-family="Times,serif" font-size="14.00">данных о местонахождении.</text>
<text text-anchor="middle" x="594.14" y="-669.77" font-family="Times,serif" font-size="14.00">исправлено.</text>
<text text-anchor="middle" x="594.14" y="-652.52" font-family="Times,serif" font-size="14.00">Восстановление файла</text>
<text text-anchor="middle" x="594.14" y="-635.27" font-family="Times,serif" font-size="14.00">памяти. Исправлено.</text>
<text text-anchor="middle" x="594.14" y="-618.02" font-family="Times,serif" font-size="14.00">Ошибка &#45; задача не</text>
<text text-anchor="middle" x="594.14" y="-600.77" font-family="Times,serif" font-size="14.00">выполнена.</text>
</g>
<!-- talk_p_proc&#45;&gt;MrHandyC00 -->
<g id="edge2" class="edge">
<title>talk_p_proc&#45;&gt;MrHandyC00</title>
<path fill="none" stroke="#555555" stroke-dasharray="1,5" d="M594.14,-1171.47C594.14,-1111.5 594.14,-909.74 594.14,-780.22"/>
<polygon fill="#555555" stroke="#555555" points="597.64,-780.47 594.14,-770.47 590.64,-780.47 597.64,-780.47"/>
</g>
<!-- MrHandyC01 -->
<g id="node9" class="node">
<title>MrHandyC01</title>
<ellipse fill="#ffffff" stroke="#000000" cx="693.14" cy="-30.05" rx="114.73" ry="30.05"/>
<text text-anchor="middle" x="693.14" y="-34" font-family="Times,serif" font-size="14.00">[Щелчок] Отлично!</text>
<text text-anchor="middle" x="693.14" y="-16.75" font-family="Times,serif" font-size="14.00">Перезапуск задачи.</text>
</g>
<!-- MrHandyC00&#45;&gt;MrHandyC01 -->
<g id="edge3" class="edge">
<title>MrHandyC00&#45;&gt;MrHandyC01</title>
<path fill="none" stroke="#009599" d="M559.58,-564.69C532.23,-471.96 502.32,-330.44 526.39,-208.71 538.56,-147.13 535.85,-122.58 580.14,-78.1 588.04,-70.17 597.47,-63.51 607.47,-57.94"/>
<polygon fill="#009599" stroke="#009599" points="608.91,-60.62 616.2,-52.92 605.7,-54.39 608.91,-60.62"/>
<text text-anchor="middle" x="550.01" y="-221.28" font-family="Times,serif" font-size="14.00" fill="#009599">Рогга.</text>
</g>
<!-- MrHandyC00&#45;&gt;MrHandyC01 -->
<g id="edge5" class="edge">
<title>MrHandyC00&#45;&gt;MrHandyC01</title>
<path fill="none" stroke="#440099" d="M578.4,-562.78C567.47,-469.05 559.88,-327.13 591.39,-208.71 605.4,-156.05 639.12,-102.75 663.92,-68.46"/>
<polygon fill="#440099" stroke="#440099" points="667.23,-70.87 670.33,-60.74 661.59,-66.72 667.23,-70.87"/>
<text text-anchor="middle" x="684.01" y="-229.91" font-family="Times,serif" font-size="14.00" fill="#440099">Что ж, выполни задачу и</text>
<text text-anchor="middle" x="684.01" y="-212.66" font-family="Times,serif" font-size="14.00" fill="#440099">убирайся!</text>
</g>
<!-- MrHandyC02 -->
<g id="node10" class="node">
<title>MrHandyC02</title>
<ellipse fill="#ffffff" stroke="#000000" cx="793.14" cy="-327.85" rx="147.61" ry="66.64"/>
<text text-anchor="middle" x="793.14" y="-357.68" font-family="Times,serif" font-size="14.00">Робот #462 предназначен</text>
<text text-anchor="middle" x="793.14" y="-340.43" font-family="Times,serif" font-size="14.00">для уборки. Должен</text>
<text text-anchor="middle" x="793.14" y="-323.18" font-family="Times,serif" font-size="14.00">закончить уборку и</text>
<text text-anchor="middle" x="793.14" y="-305.93" font-family="Times,serif" font-size="14.00">текущий ремонт данного</text>
<text text-anchor="middle" x="793.14" y="-288.68" font-family="Times,serif" font-size="14.00">уровня.</text>
</g>
<!-- MrHandyC00&#45;&gt;MrHandyC02 -->
<g id="edge4" class="edge">
<title>MrHandyC00&#45;&gt;MrHandyC02</title>
<path fill="none" stroke="#997100" d="M650.9,-568.99C682.36,-515.88 720.86,-450.88 749.86,-401.91"/>
<polygon fill="#997100" stroke="#997100" points="753.27,-404.04 755.35,-393.65 747.24,-400.47 753.27,-404.04"/>
<text text-anchor="middle" x="799.51" y="-433.7" font-family="Times,serif" font-size="14.00" fill="#997100">Какая задача не</text>
<text text-anchor="middle" x="799.51" y="-416.45" font-family="Times,serif" font-size="14.00" fill="#997100">выполнена?</text>
</g>
<!-- use_skill_on_p_proc -->
<g id="node7" class="node">
<title>use_skill_on_p_proc</title>
<ellipse fill="#ffffff" stroke="#000000" cx="798.14" cy="-1189.84" rx="158.75" ry="286.2"/>
<text text-anchor="middle" x="798.14" y="-1374.91" font-family="Times,serif" font-size="14.00">У вас нет доступа к</text>
<text text-anchor="middle" x="798.14" y="-1357.66" font-family="Times,serif" font-size="14.00">функциям робота, так как</text>
<text text-anchor="middle" x="798.14" y="-1340.41" font-family="Times,serif" font-size="14.00">он отключен.</text>
<text text-anchor="middle" x="798.14" y="-1323.16" font-family="Times,serif" font-size="14.00">&#45;&#45;&#45;</text>
<text text-anchor="middle" x="798.14" y="-1305.91" font-family="Times,serif" font-size="14.00">Вы перезагружаете</text>
<text text-anchor="middle" x="798.14" y="-1288.66" font-family="Times,serif" font-size="14.00">встроенный компьютер и</text>
<text text-anchor="middle" x="798.14" y="-1271.41" font-family="Times,serif" font-size="14.00">успешно перезапускаете</text>
<text text-anchor="middle" x="798.14" y="-1254.16" font-family="Times,serif" font-size="14.00">робота. Вы замечаете, что</text>
<text text-anchor="middle" x="798.14" y="-1236.91" font-family="Times,serif" font-size="14.00">рация робота сломана.</text>
<text text-anchor="middle" x="798.14" y="-1219.66" font-family="Times,serif" font-size="14.00">&#45;&#45;&#45;</text>
<text text-anchor="middle" x="798.14" y="-1202.41" font-family="Times,serif" font-size="14.00">Вы проводите некоторое</text>
<text text-anchor="middle" x="798.14" y="-1185.16" font-family="Times,serif" font-size="14.00">время, работая с</text>
<text text-anchor="middle" x="798.14" y="-1167.91" font-family="Times,serif" font-size="14.00">компьютером робота, но не</text>
<text text-anchor="middle" x="798.14" y="-1150.66" font-family="Times,serif" font-size="14.00">можете перезагрузить его.</text>
<text text-anchor="middle" x="798.14" y="-1133.41" font-family="Times,serif" font-size="14.00">&#45;&#45;&#45;</text>
<text text-anchor="middle" x="798.14" y="-1116.16" font-family="Times,serif" font-size="14.00">Робот отремонтирован, но</text>
<text text-anchor="middle" x="798.14" y="-1098.91" font-family="Times,serif" font-size="14.00">все еще не работает.</text>
<text text-anchor="middle" x="798.14" y="-1081.66" font-family="Times,serif" font-size="14.00">&#45;&#45;&#45;</text>
<text text-anchor="middle" x="798.14" y="-1064.41" font-family="Times,serif" font-size="14.00">Вы кое&#45;как чините</text>
<text text-anchor="middle" x="798.14" y="-1047.16" font-family="Times,serif" font-size="14.00">неработающие компоненты,</text>
<text text-anchor="middle" x="798.14" y="-1029.91" font-family="Times,serif" font-size="14.00">но вам нужно больше</text>
<text text-anchor="middle" x="798.14" y="-1012.66" font-family="Times,serif" font-size="14.00">времени, чтобы полностью</text>
<text text-anchor="middle" x="798.14" y="-995.41" font-family="Times,serif" font-size="14.00">отремонтировать их.</text>
</g>
<!-- map_enter_p_proc -->
<g id="node8" class="node">
<title>map_enter_p_proc</title>
<ellipse fill="#ffffff" stroke="#000000" cx="1002.14" cy="-1189.84" rx="27" ry="18"/>
</g>
<!-- MrHandyC02&#45;&gt;MrHandyC01 -->
<g id="edge6" class="edge">
<title>MrHandyC02&#45;&gt;MrHandyC01</title>
<path fill="none" stroke="#009918" d="M789.23,-260.77C787.15,-243.59 783.98,-225.26 779.14,-208.71 764.37,-158.2 736.38,-104.36 716.34,-69.36"/>
<polygon fill="#009918" stroke="#009918" points="718.96,-67.9 710.91,-61.01 712.9,-71.42 718.96,-67.9"/>
<text text-anchor="middle" x="814.89" y="-155.98" font-family="Times,serif" font-size="14.00" fill="#009918">Приступай!</text>
</g>
<!-- MrHandyC03 -->
<g id="node11" class="node">
<title>MrHandyC03</title>
<ellipse fill="#ffffff" stroke="#000000" cx="1050.14" cy="-160.66" rx="153.97" ry="30.05"/>
<text text-anchor="middle" x="1050.14" y="-164.61" font-family="Times,serif" font-size="14.00">Цистерну в диспетчерской.</text>
<text text-anchor="middle" x="1050.14" y="-147.36" font-family="Times,serif" font-size="14.00">[Щелчок] Конец списка.</text>
</g>
<!-- MrHandyC02&#45;&gt;MrHandyC03 -->
<g id="edge7" class="edge">
<title>MrHandyC02&#45;&gt;MrHandyC03</title>
<path fill="none" stroke="#990015" d="M877.29,-272.76C916.8,-247.37 962.68,-217.87 997.24,-195.66"/>
<polygon fill="#990015" stroke="#990015" points="998.7,-198.24 1005.22,-189.88 994.92,-192.35 998.7,-198.24"/>
<text text-anchor="middle" x="1070.14" y="-221.28" font-family="Times,serif" font-size="14.00" fill="#990015">Что тебе осталось убрать?</text>
</g>
<!-- MrHandyC03&#45;&gt;MrHandyC01 -->
<g id="edge8" class="edge">
<title>MrHandyC03&#45;&gt;MrHandyC01</title>
<path fill="none" stroke="#004299" d="M978.32,-133.79C917.76,-111.97 831.32,-80.83 769.5,-58.56"/>
<polygon fill="#004299" stroke="#004299" points="771.01,-55.02 760.42,-54.93 768.64,-61.61 771.01,-55.02"/>
<text text-anchor="middle" x="988.51" y="-99.3" font-family="Times,serif" font-size="14.00" fill="#004299">Хе. Заканчивай свое</text>
<text text-anchor="middle" x="988.51" y="-82.05" font-family="Times,serif" font-size="14.00" fill="#004299">задание.</text>
</g>
</g>
</svg>
