<?xml version="1.0" encoding="UTF-8" standalone="no"?>
<!DOCTYPE svg PUBLIC "-//W3C//DTD SVG 1.1//EN"
 "http://www.w3.org/Graphics/SVG/1.1/DTD/svg11.dtd">
<!-- Generated by graphviz version 8.0.5 (0)
 -->
<!-- Title: mutant3 Pages: 1 -->
<svg width="346pt" height="164pt"
 viewBox="0.00 0.00 346.29 164.50" xmlns="http://www.w3.org/2000/svg" xmlns:xlink="http://www.w3.org/1999/xlink">
<g id="graph0" class="graph" transform="scale(1 1) rotate(0) translate(4 160.5)">
<title>mutant3</title>
<polygon fill="white" stroke="none" points="-4,4 -4,-160.5 342.29,-160.5 342.29,4 -4,4"/>
<!-- start -->
<g id="node1" class="node">
<title>start</title>
<ellipse fill="#ffffff" stroke="#000000" cx="133.29" cy="-114.25" rx="133.29" ry="42.25"/>
<text text-anchor="middle" x="133.29" y="-126.82" font-family="Times,serif" font-size="14.00">Это какой&#45;то огромный</text>
<text text-anchor="middle" x="133.29" y="-109.57" font-family="Times,serif" font-size="14.00">супермутант! И у него</text>
<text text-anchor="middle" x="133.29" y="-92.32" font-family="Times,serif" font-size="14.00">очень большая пушка!</text>
</g>
<!-- timeforwhat -->
<g id="node2" class="node">
<title>timeforwhat</title>
<ellipse fill="#ffffff" stroke="#000000" cx="133.29" cy="-18" rx="27" ry="18"/>
</g>
<!-- start&#45;&gt;timeforwhat -->
<g id="edge1" class="edge">
<title>start&#45;&gt;timeforwhat</title>
<path fill="none" stroke="#555555" stroke-dasharray="1,5" d="M133.29,-71.64C133.29,-63.38 133.29,-54.9 133.29,-47.22"/>
<polygon fill="#555555" stroke="#555555" points="136.79,-47.32 133.29,-37.32 129.79,-47.32 136.79,-47.32"/>
</g>
<!-- supercbt -->
<g id="node3" class="node">
<title>supercbt</title>
<ellipse fill="#ffffff" stroke="#000000" cx="311.29" cy="-18" rx="27" ry="18"/>
</g>
<!-- superx -->
<g id="node4" class="node">
<title>superx</title>
<ellipse fill="#ffffff" stroke="#000000" cx="311.29" cy="-114.25" rx="27" ry="18"/>
</g>
<!-- superx&#45;&gt;supercbt -->
<g id="edge2" class="edge">
<title>superx&#45;&gt;supercbt</title>
<path fill="none" stroke="#555555" stroke-dasharray="1,5" d="M311.29,-95.96C311.29,-82.36 311.29,-63.13 311.29,-47.3"/>
<polygon fill="#555555" stroke="#555555" points="314.79,-47.5 311.29,-37.5 307.79,-47.5 314.79,-47.5"/>
</g>
</g>
</svg>
