<?xml version="1.0" encoding="UTF-8" standalone="no"?>
<!DOCTYPE svg PUBLIC "-//W3C//DTD SVG 1.1//EN"
 "http://www.w3.org/Graphics/SVG/1.1/DTD/svg11.dtd">
<!-- Generated by graphviz version 8.0.5 (0)
 -->
<!-- Title: mutejar Pages: 1 -->
<svg width="780pt" height="164pt"
 viewBox="0.00 0.00 780.44 164.21" xmlns="http://www.w3.org/2000/svg" xmlns:xlink="http://www.w3.org/1999/xlink">
<g id="graph0" class="graph" transform="scale(1 1) rotate(0) translate(4 160.21)">
<title>mutejar</title>
<polygon fill="white" stroke="none" points="-4,4 -4,-160.21 776.44,-160.21 776.44,4 -4,4"/>
<!-- start -->
<g id="node1" class="node">
<title>start</title>
<ellipse fill="#ffffff" stroke="#000000" cx="150.79" cy="-126.16" rx="27" ry="18"/>
</g>
<!-- use_p_proc -->
<g id="node2" class="node">
<title>use_p_proc</title>
<ellipse fill="#ffffff" stroke="#000000" cx="150.79" cy="-30.05" rx="150.79" ry="30.05"/>
<text text-anchor="middle" x="150.79" y="-34" font-family="Times,serif" font-size="14.00">Вы берете фрукт странной</text>
<text text-anchor="middle" x="150.79" y="-16.75" font-family="Times,serif" font-size="14.00">формы.</text>
</g>
<!-- start&#45;&gt;use_p_proc -->
<g id="edge1" class="edge">
<title>start&#45;&gt;use_p_proc</title>
<path fill="none" stroke="#555555" stroke-dasharray="1,5" d="M150.79,-107.9C150.79,-97.64 150.79,-84.17 150.79,-71.37"/>
<polygon fill="#555555" stroke="#555555" points="154.29,-71.4 150.79,-61.4 147.29,-71.4 154.29,-71.4"/>
</g>
<!-- look_at_p_proc -->
<g id="node3" class="node">
<title>look_at_p_proc</title>
<ellipse fill="#ffffff" stroke="#000000" cx="335.79" cy="-126.16" rx="139.65" ry="30.05"/>
<text text-anchor="middle" x="335.79" y="-130.11" font-family="Times,serif" font-size="14.00">Вы замечаете в кружке</text>
<text text-anchor="middle" x="335.79" y="-112.86" font-family="Times,serif" font-size="14.00">фрукт странной формы .</text>
</g>
<!-- description_p_proc -->
<g id="node4" class="node">
<title>description_p_proc</title>
<ellipse fill="#ffffff" stroke="#000000" cx="632.79" cy="-126.16" rx="139.65" ry="30.05"/>
<text text-anchor="middle" x="632.79" y="-130.11" font-family="Times,serif" font-size="14.00">Вы замечаете в кружке</text>
<text text-anchor="middle" x="632.79" y="-112.86" font-family="Times,serif" font-size="14.00">фрукт странной формы .</text>
</g>
</g>
</svg>
