<?xml version="1.0" encoding="UTF-8" standalone="no"?>
<!DOCTYPE svg PUBLIC "-//W3C//DTD SVG 1.1//EN"
 "http://www.w3.org/Graphics/SVG/1.1/DTD/svg11.dtd">
<!-- Generated by graphviz version 8.0.5 (0)
 -->
<!-- Title: mvairloc Pages: 1 -->
<svg width="630pt" height="286pt"
 viewBox="0.00 0.00 629.58 286.48" xmlns="http://www.w3.org/2000/svg" xmlns:xlink="http://www.w3.org/1999/xlink">
<g id="graph0" class="graph" transform="scale(1 1) rotate(0) translate(4 282.48)">
<title>mvairloc</title>
<polygon fill="white" stroke="none" points="-4,4 -4,-282.48 625.58,-282.48 625.58,4 -4,4"/>
<!-- start -->
<g id="node1" class="node">
<title>start</title>
<ellipse fill="#ffffff" stroke="#000000" cx="321.93" cy="-260.48" rx="138.02" ry="18"/>
<text text-anchor="middle" x="321.93" y="-255.8" font-family="Times,serif" font-size="14.00">Вы видите дверь шлюза.</text>
</g>
<!-- use_stuff -->
<g id="node2" class="node">
<title>use_stuff</title>
<ellipse fill="#ffffff" stroke="#000000" cx="161.93" cy="-103.24" rx="161.93" ry="30.05"/>
<text text-anchor="middle" x="161.93" y="-107.19" font-family="Times,serif" font-size="14.00">Дверь закрыта электронным</text>
<text text-anchor="middle" x="161.93" y="-89.94" font-family="Times,serif" font-size="14.00">замком.</text>
</g>
<!-- start&#45;&gt;use_stuff -->
<g id="edge1" class="edge">
<title>start&#45;&gt;use_stuff</title>
<path fill="none" stroke="#555555" stroke-dasharray="1,5" d="M304.19,-242.27C279.03,-217.86 232.38,-172.59 199.36,-140.56"/>
<polygon fill="#555555" stroke="#555555" points="202.32,-138.58 192.7,-134.13 197.44,-143.6 202.32,-138.58"/>
</g>
<!-- pick_lock -->
<g id="node3" class="node">
<title>pick_lock</title>
<ellipse fill="#ffffff" stroke="#000000" cx="481.93" cy="-103.24" rx="139.65" ry="103.24"/>
<text text-anchor="middle" x="481.93" y="-158.94" font-family="Times,serif" font-size="14.00">Дверь не заперта.</text>
<text text-anchor="middle" x="481.93" y="-141.69" font-family="Times,serif" font-size="14.00">&#45;&#45;&#45;</text>
<text text-anchor="middle" x="481.93" y="-124.44" font-family="Times,serif" font-size="14.00">У вас получается обойти</text>
<text text-anchor="middle" x="481.93" y="-107.19" font-family="Times,serif" font-size="14.00">электронный замок.</text>
<text text-anchor="middle" x="481.93" y="-89.94" font-family="Times,serif" font-size="14.00">&#45;&#45;&#45;</text>
<text text-anchor="middle" x="481.93" y="-72.69" font-family="Times,serif" font-size="14.00">Ваша попытка обойти</text>
<text text-anchor="middle" x="481.93" y="-55.44" font-family="Times,serif" font-size="14.00">электронный замок не</text>
<text text-anchor="middle" x="481.93" y="-38.19" font-family="Times,serif" font-size="14.00">удалась.</text>
</g>
<!-- start&#45;&gt;pick_lock -->
<g id="edge2" class="edge">
<title>start&#45;&gt;pick_lock</title>
<path fill="none" stroke="#555555" stroke-dasharray="1,5" d="M339.66,-242.27C352.45,-229.86 370.79,-212.07 390.06,-193.37"/>
<polygon fill="#555555" stroke="#555555" points="392.04,-196.36 396.78,-186.88 387.17,-191.33 392.04,-196.36"/>
</g>
</g>
</svg>
