<?xml version="1.0" encoding="UTF-8" standalone="no"?>
<!DOCTYPE svg PUBLIC "-//W3C//DTD SVG 1.1//EN"
 "http://www.w3.org/Graphics/SVG/1.1/DTD/svg11.dtd">
<!-- Generated by graphviz version 8.0.5 (0)
 -->
<!-- Title: mvcomp Pages: 1 -->
<svg width="660pt" height="1309pt"
 viewBox="0.00 0.00 659.87 1309.31" xmlns="http://www.w3.org/2000/svg" xmlns:xlink="http://www.w3.org/1999/xlink">
<g id="graph0" class="graph" transform="scale(1 1) rotate(0) translate(4 1305.31)">
<title>mvcomp</title>
<polygon fill="white" stroke="none" points="-4,4 -4,-1305.31 655.87,-1305.31 655.87,4 -4,4"/>
<!-- start -->
<g id="node1" class="node">
<title>start</title>
<ellipse fill="#ffffff" stroke="#000000" cx="342.15" cy="-1124.88" rx="148.14" ry="176.42"/>
<text text-anchor="middle" x="342.15" y="-1232.33" font-family="Times,serif" font-size="14.00">Этот компьютер помечен</text>
<text text-anchor="middle" x="342.15" y="-1215.08" font-family="Times,serif" font-size="14.00">как &quot;Компьютер атомного</text>
<text text-anchor="middle" x="342.15" y="-1197.83" font-family="Times,serif" font-size="14.00">доступа&quot;.</text>
<text text-anchor="middle" x="342.15" y="-1180.58" font-family="Times,serif" font-size="14.00">&#45;&#45;&#45;</text>
<text text-anchor="middle" x="342.15" y="-1163.33" font-family="Times,serif" font-size="14.00">К компьютеру доступа</text>
<text text-anchor="middle" x="342.15" y="-1146.08" font-family="Times,serif" font-size="14.00">подключены кабели,</text>
<text text-anchor="middle" x="342.15" y="-1128.83" font-family="Times,serif" font-size="14.00">ведущие к боеголовке</text>
<text text-anchor="middle" x="342.15" y="-1111.58" font-family="Times,serif" font-size="14.00">позади него.</text>
<text text-anchor="middle" x="342.15" y="-1094.33" font-family="Times,serif" font-size="14.00">&#45;&#45;&#45;</text>
<text text-anchor="middle" x="342.15" y="-1077.08" font-family="Times,serif" font-size="14.00">Не похоже на то, что это</text>
<text text-anchor="middle" x="342.15" y="-1059.83" font-family="Times,serif" font-size="14.00">работает.</text>
<text text-anchor="middle" x="342.15" y="-1042.58" font-family="Times,serif" font-size="14.00">&#45;&#45;&#45;</text>
<text text-anchor="middle" x="342.15" y="-1025.33" font-family="Times,serif" font-size="14.00">Не похоже на то, что это</text>
<text text-anchor="middle" x="342.15" y="-1008.08" font-family="Times,serif" font-size="14.00">работает.</text>
</g>
<!-- skills -->
<g id="node2" class="node">
<title>skills</title>
<ellipse fill="#ffffff" stroke="#000000" cx="157.15" cy="-516.48" rx="157.15" ry="395.98"/>
<text text-anchor="middle" x="157.15" y="-779.18" font-family="Times,serif" font-size="14.00">Не похоже на то, что это</text>
<text text-anchor="middle" x="157.15" y="-761.93" font-family="Times,serif" font-size="14.00">работает.</text>
<text text-anchor="middle" x="157.15" y="-744.68" font-family="Times,serif" font-size="14.00">&#45;&#45;&#45;</text>
<text text-anchor="middle" x="157.15" y="-727.43" font-family="Times,serif" font-size="14.00">Вы еще недостаточно</text>
<text text-anchor="middle" x="157.15" y="-710.18" font-family="Times,serif" font-size="14.00">натренированны, чтобы</text>
<text text-anchor="middle" x="157.15" y="-692.93" font-family="Times,serif" font-size="14.00">обойти механизм</text>
<text text-anchor="middle" x="157.15" y="-675.68" font-family="Times,serif" font-size="14.00">безопасности.</text>
<text text-anchor="middle" x="157.15" y="-658.43" font-family="Times,serif" font-size="14.00">&#45;&#45;&#45;</text>
<text text-anchor="middle" x="157.15" y="-641.18" font-family="Times,serif" font-size="14.00">Вы еще недостаточно</text>
<text text-anchor="middle" x="157.15" y="-623.93" font-family="Times,serif" font-size="14.00">натренированны, чтобы</text>
<text text-anchor="middle" x="157.15" y="-606.68" font-family="Times,serif" font-size="14.00">обойти механизм</text>
<text text-anchor="middle" x="157.15" y="-589.43" font-family="Times,serif" font-size="14.00">безопасности.</text>
<text text-anchor="middle" x="157.15" y="-572.18" font-family="Times,serif" font-size="14.00">&#45;&#45;&#45;</text>
<text text-anchor="middle" x="157.15" y="-554.93" font-family="Times,serif" font-size="14.00">Вы еще недостаточно</text>
<text text-anchor="middle" x="157.15" y="-537.68" font-family="Times,serif" font-size="14.00">натренированны, чтобы</text>
<text text-anchor="middle" x="157.15" y="-520.43" font-family="Times,serif" font-size="14.00">обойти механизм</text>
<text text-anchor="middle" x="157.15" y="-503.18" font-family="Times,serif" font-size="14.00">безопасности.</text>
<text text-anchor="middle" x="157.15" y="-485.93" font-family="Times,serif" font-size="14.00">&#45;&#45;&#45;</text>
<text text-anchor="middle" x="157.15" y="-468.68" font-family="Times,serif" font-size="14.00">Вы еще недостаточно</text>
<text text-anchor="middle" x="157.15" y="-451.43" font-family="Times,serif" font-size="14.00">натренированны, чтобы</text>
<text text-anchor="middle" x="157.15" y="-434.18" font-family="Times,serif" font-size="14.00">обойти механизм</text>
<text text-anchor="middle" x="157.15" y="-416.93" font-family="Times,serif" font-size="14.00">безопасности.</text>
<text text-anchor="middle" x="157.15" y="-399.68" font-family="Times,serif" font-size="14.00">&#45;&#45;&#45;</text>
<text text-anchor="middle" x="157.15" y="-382.43" font-family="Times,serif" font-size="14.00">Вы не можете использовать</text>
<text text-anchor="middle" x="157.15" y="-365.18" font-family="Times,serif" font-size="14.00">навык &quot;ловушки&quot; на этом</text>
<text text-anchor="middle" x="157.15" y="-347.93" font-family="Times,serif" font-size="14.00">компьютере.</text>
<text text-anchor="middle" x="157.15" y="-330.68" font-family="Times,serif" font-size="14.00">&#45;&#45;&#45;</text>
<text text-anchor="middle" x="157.15" y="-313.43" font-family="Times,serif" font-size="14.00">Этот компьютер нельзя</text>
<text text-anchor="middle" x="157.15" y="-296.18" font-family="Times,serif" font-size="14.00">починить.</text>
<text text-anchor="middle" x="157.15" y="-278.93" font-family="Times,serif" font-size="14.00">&#45;&#45;&#45;</text>
<text text-anchor="middle" x="157.15" y="-261.68" font-family="Times,serif" font-size="14.00">Не похоже на то, что это</text>
<text text-anchor="middle" x="157.15" y="-244.43" font-family="Times,serif" font-size="14.00">работает.</text>
</g>
<!-- start&#45;&gt;skills -->
<g id="edge1" class="edge">
<title>start&#45;&gt;skills</title>
<path fill="none" stroke="#555555" stroke-dasharray="1,5" d="M291.72,-958.58C280.58,-922.05 268.4,-882.12 256.07,-841.69"/>
<polygon fill="#555555" stroke="#555555" points="259.19,-840.95 252.93,-832.41 252.5,-842.99 259.19,-840.95"/>
</g>
<!-- disarmit -->
<g id="node3" class="node">
<title>disarmit</title>
<ellipse fill="#ffffff" stroke="#000000" cx="511.15" cy="-516.48" rx="140.71" ry="30.05"/>
<text text-anchor="middle" x="511.15" y="-520.43" font-family="Times,serif" font-size="14.00">Не похоже на то, что это</text>
<text text-anchor="middle" x="511.15" y="-503.18" font-family="Times,serif" font-size="14.00">работает.</text>
</g>
<!-- start&#45;&gt;disarmit -->
<g id="edge2" class="edge">
<title>start&#45;&gt;disarmit</title>
<path fill="none" stroke="#555555" stroke-dasharray="1,5" d="M388.67,-956.98C426.74,-820.36 477.81,-637.12 500.04,-557.36"/>
<polygon fill="#555555" stroke="#555555" points="503.67,-558.38 502.98,-547.81 496.92,-556.5 503.67,-558.38"/>
</g>
<!-- armit -->
<g id="node4" class="node">
<title>armit</title>
<ellipse fill="#ffffff" stroke="#000000" cx="157.15" cy="-42.25" rx="149.2" ry="42.25"/>
<text text-anchor="middle" x="157.15" y="-54.82" font-family="Times,serif" font-size="14.00">Вы зарядили боеголовку.</text>
<text text-anchor="middle" x="157.15" y="-37.57" font-family="Times,serif" font-size="14.00">Четырехминутный таймер</text>
<text text-anchor="middle" x="157.15" y="-20.32" font-family="Times,serif" font-size="14.00">начал отсчет.</text>
</g>
<!-- start&#45;&gt;armit -->
<g id="edge3" class="edge">
<title>start&#45;&gt;armit</title>
<path fill="none" stroke="#555555" stroke-dasharray="1,5" d="M348.81,-948.28C357.52,-678.96 366.98,-187.83 323.15,-120.5 311.08,-101.96 293.3,-87.79 273.81,-76.98"/>
<polygon fill="#555555" stroke="#555555" points="275.61,-73.45 265.12,-71.94 272.38,-79.66 275.61,-73.45"/>
</g>
<!-- skills&#45;&gt;armit -->
<g id="edge4" class="edge">
<title>skills&#45;&gt;armit</title>
<path fill="none" stroke="#555555" stroke-dasharray="1,5" d="M152.01,-120.44C152.23,-111.47 152.47,-103.08 152.73,-95.37"/>
<polygon fill="#555555" stroke="#555555" points="156.26,-95.71 153.13,-85.59 149.26,-95.45 156.26,-95.71"/>
</g>
<!-- skills&#45;&gt;armit -->
<g id="edge5" class="edge">
<title>skills&#45;&gt;armit</title>
<path fill="none" stroke="#555555" stroke-dasharray="1,5" d="M162.3,-120.44C162.08,-111.47 161.84,-103.08 161.58,-95.37"/>
<polygon fill="#555555" stroke="#555555" points="165.05,-95.45 161.18,-85.59 158.05,-95.71 165.05,-95.45"/>
</g>
<!-- reset -->
<g id="node5" class="node">
<title>reset</title>
<ellipse fill="#ffffff" stroke="#000000" cx="511.15" cy="-42.25" rx="133.29" ry="30.05"/>
<text text-anchor="middle" x="511.15" y="-46.2" font-family="Times,serif" font-size="14.00">Вы разрядили ядерную</text>
<text text-anchor="middle" x="511.15" y="-28.95" font-family="Times,serif" font-size="14.00">боеголовку.</text>
</g>
<!-- disarmit&#45;&gt;reset -->
<g id="edge6" class="edge">
<title>disarmit&#45;&gt;reset</title>
<path fill="none" stroke="#555555" stroke-dasharray="1,5" d="M511.15,-485.94C511.15,-404.53 511.15,-176.82 511.15,-83.71"/>
<polygon fill="#555555" stroke="#555555" points="514.65,-83.78 511.15,-73.78 507.65,-83.78 514.65,-83.78"/>
</g>
</g>
</svg>
