<?xml version="1.0" encoding="UTF-8" standalone="no"?>
<!DOCTYPE svg PUBLIC "-//W3C//DTD SVG 1.1//EN"
 "http://www.w3.org/Graphics/SVG/1.1/DTD/svg11.dtd">
<!-- Generated by graphviz version 8.0.5 (0)
 -->
<!-- Title: paladina Pages: 1 -->
<svg width="489pt" height="871pt"
 viewBox="0.00 0.00 488.81 870.77" xmlns="http://www.w3.org/2000/svg" xmlns:xlink="http://www.w3.org/1999/xlink">
<g id="graph0" class="graph" transform="scale(1 1) rotate(0) translate(4 866.77)">
<title>paladina</title>
<polygon fill="white" stroke="none" points="-4,4 -4,-866.77 484.81,-866.77 484.81,4 -4,4"/>
<!-- start -->
<g id="node1" class="node">
<title>start</title>
<ellipse fill="#ffffff" stroke="#000000" cx="273.81" cy="-844.77" rx="27" ry="18"/>
</g>
<!-- look_at_p_proc -->
<g id="node2" class="node">
<title>look_at_p_proc</title>
<ellipse fill="#ffffff" stroke="#000000" cx="64.81" cy="-772.77" rx="55.94" ry="18"/>
<text text-anchor="middle" x="64.81" y="-768.1" font-family="Times,serif" font-size="14.00">Паладин</text>
</g>
<!-- start&#45;&gt;look_at_p_proc -->
<g id="edge1" class="edge">
<title>start&#45;&gt;look_at_p_proc</title>
<path fill="none" stroke="#555555" stroke-dasharray="1,5" d="M249.83,-835.74C216.55,-824.6 155.62,-804.19 112.79,-789.85"/>
<polygon fill="#555555" stroke="#555555" points="114.19,-786.29 103.59,-786.43 111.96,-792.92 114.19,-786.29"/>
</g>
<!-- pickup_p_proc -->
<g id="node3" class="node">
<title>pickup_p_proc</title>
<ellipse fill="#ffffff" stroke="#000000" cx="165.81" cy="-772.77" rx="27" ry="18"/>
</g>
<!-- start&#45;&gt;pickup_p_proc -->
<g id="edge2" class="edge">
<title>start&#45;&gt;pickup_p_proc</title>
<path fill="none" stroke="#555555" stroke-dasharray="1,5" d="M254.99,-831.58C238.14,-820.66 213.19,-804.48 193.95,-792.02"/>
<polygon fill="#555555" stroke="#555555" points="196.06,-788.56 185.77,-786.06 192.25,-794.44 196.06,-788.56"/>
</g>
<!-- talk_p_proc -->
<g id="node4" class="node">
<title>talk_p_proc</title>
<ellipse fill="#ffffff" stroke="#000000" cx="237.81" cy="-772.77" rx="27" ry="18"/>
</g>
<!-- start&#45;&gt;talk_p_proc -->
<g id="edge3" class="edge">
<title>start&#45;&gt;talk_p_proc</title>
<path fill="none" stroke="#555555" stroke-dasharray="1,5" d="M265.46,-827.54C261.19,-819.23 255.89,-808.93 251.07,-799.57"/>
<polygon fill="#555555" stroke="#555555" points="253.8,-798.21 246.11,-790.92 247.57,-801.41 253.8,-798.21"/>
</g>
<!-- time_p_proc -->
<g id="node5" class="node">
<title>time_p_proc</title>
<ellipse fill="#ffffff" stroke="#000000" cx="309.81" cy="-772.77" rx="27" ry="18"/>
</g>
<!-- start&#45;&gt;time_p_proc -->
<g id="edge4" class="edge">
<title>start&#45;&gt;time_p_proc</title>
<path fill="none" stroke="#555555" stroke-dasharray="1,5" d="M282.16,-827.54C286.43,-819.23 291.73,-808.93 296.54,-799.57"/>
<polygon fill="#555555" stroke="#555555" points="300.04,-801.41 301.5,-790.92 293.82,-798.21 300.04,-801.41"/>
</g>
<!-- critter_p_proc -->
<g id="node6" class="node">
<title>critter_p_proc</title>
<ellipse fill="#ffffff" stroke="#000000" cx="381.81" cy="-772.77" rx="27" ry="18"/>
</g>
<!-- start&#45;&gt;critter_p_proc -->
<g id="edge5" class="edge">
<title>start&#45;&gt;critter_p_proc</title>
<path fill="none" stroke="#555555" stroke-dasharray="1,5" d="M292.62,-831.58C309.47,-820.66 334.43,-804.48 353.66,-792.02"/>
<polygon fill="#555555" stroke="#555555" points="355.36,-794.44 361.85,-786.06 351.55,-788.56 355.36,-794.44"/>
</g>
<!-- destroy_p_proc -->
<g id="node7" class="node">
<title>destroy_p_proc</title>
<ellipse fill="#ffffff" stroke="#000000" cx="453.81" cy="-772.77" rx="27" ry="18"/>
</g>
<!-- start&#45;&gt;destroy_p_proc -->
<g id="edge6" class="edge">
<title>start&#45;&gt;destroy_p_proc</title>
<path fill="none" stroke="#555555" stroke-dasharray="1,5" d="M297.75,-835.69C326.54,-825.8 376.16,-808.23 417.81,-790.77 419.47,-790.08 421.17,-789.34 422.88,-788.59"/>
<polygon fill="#555555" stroke="#555555" points="423.97,-791.48 431.63,-784.16 421.07,-785.11 423.97,-791.48"/>
</g>
<!-- PaladinARandom -->
<g id="node8" class="node">
<title>PaladinARandom</title>
<ellipse fill="#ffffff" stroke="#000000" cx="159.81" cy="-359.39" rx="159.81" ry="359.39"/>
<text text-anchor="middle" x="159.81" y="-596.21" font-family="Times,serif" font-size="14.00">Будь начеку, Посвященный!</text>
<text text-anchor="middle" x="159.81" y="-578.96" font-family="Times,serif" font-size="14.00">&#45;&#45;&#45;</text>
<text text-anchor="middle" x="159.81" y="-561.71" font-family="Times,serif" font-size="14.00">Прекрасно выглядишь. Так</text>
<text text-anchor="middle" x="159.81" y="-544.46" font-family="Times,serif" font-size="14.00">держать.</text>
<text text-anchor="middle" x="159.81" y="-527.21" font-family="Times,serif" font-size="14.00">&#45;&#45;&#45;</text>
<text text-anchor="middle" x="159.81" y="-509.96" font-family="Times,serif" font-size="14.00">Приветствую тебя,</text>
<text text-anchor="middle" x="159.81" y="-492.71" font-family="Times,serif" font-size="14.00">Посвященный, все вокруг</text>
<text text-anchor="middle" x="159.81" y="-475.46" font-family="Times,serif" font-size="14.00">спокойно.</text>
<text text-anchor="middle" x="159.81" y="-458.21" font-family="Times,serif" font-size="14.00">&#45;&#45;&#45;</text>
<text text-anchor="middle" x="159.81" y="-440.96" font-family="Times,serif" font-size="14.00">Привет, Брат.</text>
<text text-anchor="middle" x="159.81" y="-423.71" font-family="Times,serif" font-size="14.00">&#45;&#45;&#45;</text>
<text text-anchor="middle" x="159.81" y="-406.46" font-family="Times,serif" font-size="14.00">.</text>
<text text-anchor="middle" x="159.81" y="-389.21" font-family="Times,serif" font-size="14.00">&#45;&#45;&#45;</text>
<text text-anchor="middle" x="159.81" y="-371.96" font-family="Times,serif" font-size="14.00">Извини, я на посту.</text>
<text text-anchor="middle" x="159.81" y="-354.71" font-family="Times,serif" font-size="14.00">&#45;&#45;&#45;</text>
<text text-anchor="middle" x="159.81" y="-337.46" font-family="Times,serif" font-size="14.00">Поговори с Талусом или</text>
<text text-anchor="middle" x="159.81" y="-320.21" font-family="Times,serif" font-size="14.00">Максоном.</text>
<text text-anchor="middle" x="159.81" y="-302.96" font-family="Times,serif" font-size="14.00">&#45;&#45;&#45;</text>
<text text-anchor="middle" x="159.81" y="-285.71" font-family="Times,serif" font-size="14.00">Если тебе интересна</text>
<text text-anchor="middle" x="159.81" y="-268.46" font-family="Times,serif" font-size="14.00">техника, поговори с Врии,</text>
<text text-anchor="middle" x="159.81" y="-251.21" font-family="Times,serif" font-size="14.00">она в библиотеке.</text>
<text text-anchor="middle" x="159.81" y="-233.96" font-family="Times,serif" font-size="14.00">&#45;&#45;&#45;</text>
<text text-anchor="middle" x="159.81" y="-216.71" font-family="Times,serif" font-size="14.00">Я хочу стать таким, как</text>
<text text-anchor="middle" x="159.81" y="-199.46" font-family="Times,serif" font-size="14.00">Ромбус.</text>
<text text-anchor="middle" x="159.81" y="-182.21" font-family="Times,serif" font-size="14.00">&#45;&#45;&#45;</text>
<text text-anchor="middle" x="159.81" y="-164.96" font-family="Times,serif" font-size="14.00">Лучше бы я тренировался</text>
<text text-anchor="middle" x="159.81" y="-147.71" font-family="Times,serif" font-size="14.00">сейчас. Работать</text>
<text text-anchor="middle" x="159.81" y="-130.46" font-family="Times,serif" font-size="14.00">охранником &#45; тратить</text>
<text text-anchor="middle" x="159.81" y="-113.21" font-family="Times,serif" font-size="14.00">время зря.</text>
</g>
<!-- talk_p_proc&#45;&gt;PaladinARandom -->
<g id="edge7" class="edge">
<title>talk_p_proc&#45;&gt;PaladinARandom</title>
<path fill="none" stroke="#555555" stroke-dasharray="1,5" d="M234.55,-754.62C232.19,-742.16 228.67,-723.59 224.42,-701.18"/>
<polygon fill="#555555" stroke="#555555" points="227.72,-700.8 222.42,-691.62 220.84,-702.1 227.72,-700.8"/>
</g>
<!-- PaladinABackground -->
<g id="node9" class="node">
<title>PaladinABackground</title>
<ellipse fill="#ffffff" stroke="#000000" cx="387.81" cy="-359.39" rx="50.03" ry="42.25"/>
<text text-anchor="middle" x="387.81" y="-371.96" font-family="Times,serif" font-size="14.00">Марко!</text>
<text text-anchor="middle" x="387.81" y="-354.71" font-family="Times,serif" font-size="14.00">&#45;&#45;&#45;</text>
<text text-anchor="middle" x="387.81" y="-337.46" font-family="Times,serif" font-size="14.00">Поло!</text>
</g>
<!-- time_p_proc&#45;&gt;PaladinABackground -->
<g id="edge8" class="edge">
<title>time_p_proc&#45;&gt;PaladinABackground</title>
<path fill="none" stroke="#555555" stroke-dasharray="1,5" d="M316.58,-755.31C320.62,-744.96 325.57,-731.26 328.81,-718.77 356.6,-611.59 374.02,-482.82 382.23,-412.51"/>
<polygon fill="#555555" stroke="#555555" points="385.8,-413.07 383.46,-402.74 378.85,-412.27 385.8,-413.07"/>
</g>
</g>
</svg>
