<?xml version="1.0" encoding="UTF-8" standalone="no"?>
<!DOCTYPE svg PUBLIC "-//W3C//DTD SVG 1.1//EN"
 "http://www.w3.org/Graphics/SVG/1.1/DTD/svg11.dtd">
<!-- Generated by graphviz version 8.0.5 (0)
 -->
<!-- Title: palguard Pages: 1 -->
<svg width="1014pt" height="1089pt"
 viewBox="0.00 0.00 1013.59 1088.85" xmlns="http://www.w3.org/2000/svg" xmlns:xlink="http://www.w3.org/1999/xlink">
<g id="graph0" class="graph" transform="scale(1 1) rotate(0) translate(4 1084.85)">
<title>palguard</title>
<polygon fill="white" stroke="none" points="-4,4 -4,-1084.85 1009.59,-1084.85 1009.59,4 -4,4"/>
<!-- start -->
<g id="node1" class="node">
<title>start</title>
<ellipse fill="#ffffff" stroke="#000000" cx="233.59" cy="-1050.8" rx="123.74" ry="30.05"/>
<text text-anchor="middle" x="233.59" y="-1054.75" font-family="Times,serif" font-size="14.00">Вы видите</text>
<text text-anchor="middle" x="233.59" y="-1037.5" font-family="Times,serif" font-size="14.00">Паладина&#45;охранника.</text>
</g>
<!-- do_dialogue -->
<g id="node2" class="node">
<title>do_dialogue</title>
<ellipse fill="#ffffff" stroke="#000000" cx="233.59" cy="-966.75" rx="27" ry="18"/>
</g>
<!-- start&#45;&gt;do_dialogue -->
<g id="edge1" class="edge">
<title>start&#45;&gt;do_dialogue</title>
<path fill="none" stroke="#555555" stroke-dasharray="1,5" d="M233.59,-1020.64C233.59,-1012.5 233.59,-1003.68 233.59,-995.62"/>
<polygon fill="#555555" stroke="#555555" points="237.09,-995.87 233.59,-985.87 230.09,-995.87 237.09,-995.87"/>
</g>
<!-- get_reaction -->
<g id="node3" class="node">
<title>get_reaction</title>
<ellipse fill="#ffffff" stroke="#000000" cx="34.59" cy="-492.37" rx="27" ry="18"/>
</g>
<!-- do_dialogue&#45;&gt;get_reaction -->
<g id="edge2" class="edge">
<title>do_dialogue&#45;&gt;get_reaction</title>
<path fill="none" stroke="#555555" stroke-dasharray="1,5" d="M206.27,-965.52C169.09,-963.6 103.43,-954.12 70.59,-912.75 -23.22,-794.59 10.86,-594.26 27.57,-521.14"/>
<polygon fill="#555555" stroke="#555555" points="31.18,-522.07 30.08,-511.53 24.37,-520.46 31.18,-522.07"/>
</g>
<!-- PalGuard01 -->
<g id="node4" class="node">
<title>PalGuard01</title>
<ellipse fill="#ffffff" stroke="#000000" cx="233.59" cy="-492.37" rx="153.97" ry="420.37"/>
<text text-anchor="middle" x="233.59" y="-772.32" font-family="Times,serif" font-size="14.00">Тсссс, есть хороший</text>
<text text-anchor="middle" x="233.59" y="-755.07" font-family="Times,serif" font-size="14.00">товар. По бросовым ценам.</text>
<text text-anchor="middle" x="233.59" y="-737.82" font-family="Times,serif" font-size="14.00">&#45;&#45;&#45;</text>
<text text-anchor="middle" x="233.59" y="-720.57" font-family="Times,serif" font-size="14.00">Прости, я при исполнении.</text>
<text text-anchor="middle" x="233.59" y="-703.32" font-family="Times,serif" font-size="14.00">Не могу сейчас говорить.</text>
<text text-anchor="middle" x="233.59" y="-686.07" font-family="Times,serif" font-size="14.00">&#45;&#45;&#45;</text>
<text text-anchor="middle" x="233.59" y="-668.82" font-family="Times,serif" font-size="14.00">Какой прекрасный день.</text>
<text text-anchor="middle" x="233.59" y="-651.57" font-family="Times,serif" font-size="14.00">Надеюсь, что сегодня на</text>
<text text-anchor="middle" x="233.59" y="-634.32" font-family="Times,serif" font-size="14.00">нас никто не нападет.</text>
<text text-anchor="middle" x="233.59" y="-617.07" font-family="Times,serif" font-size="14.00">&#45;&#45;&#45;</text>
<text text-anchor="middle" x="233.59" y="-599.82" font-family="Times,serif" font-size="14.00">Некоторые из этих</text>
<text text-anchor="middle" x="233.59" y="-582.57" font-family="Times,serif" font-size="14.00">караванщиков немного</text>
<text text-anchor="middle" x="233.59" y="-565.32" font-family="Times,serif" font-size="14.00">странные.</text>
<text text-anchor="middle" x="233.59" y="-548.07" font-family="Times,serif" font-size="14.00">&#45;&#45;&#45;</text>
<text text-anchor="middle" x="233.59" y="-530.82" font-family="Times,serif" font-size="14.00">Удачного дня.</text>
<text text-anchor="middle" x="233.59" y="-513.57" font-family="Times,serif" font-size="14.00">&#45;&#45;&#45;</text>
<text text-anchor="middle" x="233.59" y="-496.32" font-family="Times,serif" font-size="14.00">Привет, неплохо</text>
<text text-anchor="middle" x="233.59" y="-479.07" font-family="Times,serif" font-size="14.00">выглядишь.</text>
<text text-anchor="middle" x="233.59" y="-461.82" font-family="Times,serif" font-size="14.00">&#45;&#45;&#45;</text>
<text text-anchor="middle" x="233.59" y="-444.57" font-family="Times,serif" font-size="14.00">Приветствую тебя,</text>
<text text-anchor="middle" x="233.59" y="-427.32" font-family="Times,serif" font-size="14.00">Посвященный.</text>
<text text-anchor="middle" x="233.59" y="-410.07" font-family="Times,serif" font-size="14.00">&#45;&#45;&#45;</text>
<text text-anchor="middle" x="233.59" y="-392.82" font-family="Times,serif" font-size="14.00">Если у тебя есть вопросы</text>
<text text-anchor="middle" x="233.59" y="-375.57" font-family="Times,serif" font-size="14.00">о нашем ордене, тебе</text>
<text text-anchor="middle" x="233.59" y="-358.32" font-family="Times,serif" font-size="14.00">следует поговорить с</text>
<text text-anchor="middle" x="233.59" y="-341.07" font-family="Times,serif" font-size="14.00">Кэбботом. Вон там около</text>
<text text-anchor="middle" x="233.59" y="-323.82" font-family="Times,serif" font-size="14.00">двери.</text>
<text text-anchor="middle" x="233.59" y="-306.57" font-family="Times,serif" font-size="14.00">&#45;&#45;&#45;</text>
<text text-anchor="middle" x="233.59" y="-289.32" font-family="Times,serif" font-size="14.00">Кэббот &#45; тот, кто тебе</text>
<text text-anchor="middle" x="233.59" y="-272.07" font-family="Times,serif" font-size="14.00">нужен. Это вон тот парень</text>
<text text-anchor="middle" x="233.59" y="-254.82" font-family="Times,serif" font-size="14.00">около двери.</text>
<text text-anchor="middle" x="233.59" y="-237.57" font-family="Times,serif" font-size="14.00">&#45;&#45;&#45;</text>
<text text-anchor="middle" x="233.59" y="-220.32" font-family="Times,serif" font-size="14.00">Тсссс, есть хороший</text>
<text text-anchor="middle" x="233.59" y="-203.07" font-family="Times,serif" font-size="14.00">товар. По бросовым ценам.</text>
</g>
<!-- do_dialogue&#45;&gt;PalGuard01 -->
<g id="edge3" class="edge">
<title>do_dialogue&#45;&gt;PalGuard01</title>
<path fill="none" stroke="#555555" stroke-dasharray="1,5" d="M233.59,-948.38C233.59,-941.84 233.59,-933.62 233.59,-924.03"/>
<polygon fill="#555555" stroke="#555555" points="237.09,-924.09 233.59,-914.09 230.09,-924.09 237.09,-924.09"/>
</g>
<!-- PalGuard02 -->
<g id="node5" class="node">
<title>PalGuard02</title>
<ellipse fill="#ffffff" stroke="#000000" cx="561.59" cy="-492.37" rx="156.09" ry="408.18"/>
<text text-anchor="middle" x="561.59" y="-763.7" font-family="Times,serif" font-size="14.00">Если ты здесь ради</text>
<text text-anchor="middle" x="561.59" y="-746.45" font-family="Times,serif" font-size="14.00">торговли, то ты</text>
<text text-anchor="middle" x="561.59" y="-729.2" font-family="Times,serif" font-size="14.00">разговариваешь не с тем</text>
<text text-anchor="middle" x="561.59" y="-711.95" font-family="Times,serif" font-size="14.00">человеком.</text>
<text text-anchor="middle" x="561.59" y="-694.7" font-family="Times,serif" font-size="14.00">&#45;&#45;&#45;</text>
<text text-anchor="middle" x="561.59" y="-677.45" font-family="Times,serif" font-size="14.00">Что?</text>
<text text-anchor="middle" x="561.59" y="-660.2" font-family="Times,serif" font-size="14.00">&#45;&#45;&#45;</text>
<text text-anchor="middle" x="561.59" y="-642.95" font-family="Times,serif" font-size="14.00">Не беспокой меня,</text>
<text text-anchor="middle" x="561.59" y="-625.7" font-family="Times,serif" font-size="14.00">ничтожество.</text>
<text text-anchor="middle" x="561.59" y="-608.45" font-family="Times,serif" font-size="14.00">&#45;&#45;&#45;</text>
<text text-anchor="middle" x="561.59" y="-591.2" font-family="Times,serif" font-size="14.00">Я что, выгляжу, как</text>
<text text-anchor="middle" x="561.59" y="-573.95" font-family="Times,serif" font-size="14.00">человек, который может</text>
<text text-anchor="middle" x="561.59" y="-556.7" font-family="Times,serif" font-size="14.00">что&#45;то у тебя купить?</text>
<text text-anchor="middle" x="561.59" y="-539.45" font-family="Times,serif" font-size="14.00">&#45;&#45;&#45;</text>
<text text-anchor="middle" x="561.59" y="-522.2" font-family="Times,serif" font-size="14.00">Хммф. Нервишки.</text>
<text text-anchor="middle" x="561.59" y="-504.95" font-family="Times,serif" font-size="14.00">&#45;&#45;&#45;</text>
<text text-anchor="middle" x="561.59" y="-487.7" font-family="Times,serif" font-size="14.00">Посвященный, тебе не</text>
<text text-anchor="middle" x="561.59" y="-470.45" font-family="Times,serif" font-size="14.00">следует беспокоить нас,</text>
<text text-anchor="middle" x="561.59" y="-453.2" font-family="Times,serif" font-size="14.00">когда мы стоим на страже.</text>
<text text-anchor="middle" x="561.59" y="-435.95" font-family="Times,serif" font-size="14.00">&#45;&#45;&#45;</text>
<text text-anchor="middle" x="561.59" y="-418.7" font-family="Times,serif" font-size="14.00">Если у тебя есть</text>
<text text-anchor="middle" x="561.59" y="-401.45" font-family="Times,serif" font-size="14.00">какие&#45;либо вопросы об</text>
<text text-anchor="middle" x="561.59" y="-384.2" font-family="Times,serif" font-size="14.00">Ордене, задай их Кэбботу,</text>
<text text-anchor="middle" x="561.59" y="-366.95" font-family="Times,serif" font-size="14.00">вон он, стоит около</text>
<text text-anchor="middle" x="561.59" y="-349.7" font-family="Times,serif" font-size="14.00">двери.</text>
<text text-anchor="middle" x="561.59" y="-332.45" font-family="Times,serif" font-size="14.00">&#45;&#45;&#45;</text>
<text text-anchor="middle" x="561.59" y="-315.2" font-family="Times,serif" font-size="14.00">Посвященный, может быть,</text>
<text text-anchor="middle" x="561.59" y="-297.95" font-family="Times,serif" font-size="14.00">тебе стоит заняться</text>
<text text-anchor="middle" x="561.59" y="-280.7" font-family="Times,serif" font-size="14.00">чем&#45;нибудь полезным?</text>
<text text-anchor="middle" x="561.59" y="-263.45" font-family="Times,serif" font-size="14.00">&#45;&#45;&#45;</text>
<text text-anchor="middle" x="561.59" y="-246.2" font-family="Times,serif" font-size="14.00">Не думаю, что тебе</text>
<text text-anchor="middle" x="561.59" y="-228.95" font-family="Times,serif" font-size="14.00">следует здесь находиться,</text>
<text text-anchor="middle" x="561.59" y="-211.7" font-family="Times,serif" font-size="14.00">чужеземец.</text>
</g>
<!-- do_dialogue&#45;&gt;PalGuard02 -->
<g id="edge4" class="edge">
<title>do_dialogue&#45;&gt;PalGuard02</title>
<path fill="none" stroke="#555555" stroke-dasharray="1,5" d="M260.52,-963.94C296.06,-960.17 358.56,-948.54 396.59,-912.75 422.32,-888.53 444.11,-859.8 462.54,-828.91"/>
<polygon fill="#555555" stroke="#555555" points="465.9,-831.1 467.9,-820.7 459.85,-827.58 465.9,-831.1"/>
</g>
<!-- ReactToLevel -->
<g id="node6" class="node">
<title>ReactToLevel</title>
<ellipse fill="#ffffff" stroke="#000000" cx="834.59" cy="-18" rx="27" ry="18"/>
</g>
<!-- get_reaction&#45;&gt;ReactToLevel -->
<g id="edge5" class="edge">
<title>get_reaction&#45;&gt;ReactToLevel</title>
<path fill="none" stroke="#555555" stroke-dasharray="1,5" d="M29.35,-474.22C11.01,-410.32 -43.24,-183.98 70.59,-72 122.72,-20.71 649.57,-18.43 796.64,-18.81"/>
<polygon fill="#555555" stroke="#555555" points="796.33,-22.31 806.34,-18.84 796.36,-15.31 796.33,-22.31"/>
</g>
<!-- LevelToReact -->
<g id="node7" class="node">
<title>LevelToReact</title>
<ellipse fill="#ffffff" stroke="#000000" cx="438.59" cy="-966.75" rx="27" ry="18"/>
</g>
<!-- UpReact -->
<g id="node8" class="node">
<title>UpReact</title>
<ellipse fill="#ffffff" stroke="#000000" cx="762.59" cy="-492.37" rx="27" ry="18"/>
</g>
<!-- UpReact&#45;&gt;ReactToLevel -->
<g id="edge6" class="edge">
<title>UpReact&#45;&gt;ReactToLevel</title>
<path fill="none" stroke="#555555" stroke-dasharray="1,5" d="M761.01,-473.94C756.36,-415.23 746.02,-220.06 798.59,-72 802.25,-61.68 808.41,-51.47 814.62,-42.8"/>
<polygon fill="#555555" stroke="#555555" points="817.99,-45.15 821.25,-35.07 812.41,-40.92 817.99,-45.15"/>
</g>
<!-- DownReact -->
<g id="node9" class="node">
<title>DownReact</title>
<ellipse fill="#ffffff" stroke="#000000" cx="834.59" cy="-492.37" rx="27" ry="18"/>
</g>
<!-- DownReact&#45;&gt;ReactToLevel -->
<g id="edge7" class="edge">
<title>DownReact&#45;&gt;ReactToLevel</title>
<path fill="none" stroke="#555555" stroke-dasharray="1,5" d="M834.59,-474C834.59,-403.03 834.59,-134.69 834.59,-46.95"/>
<polygon fill="#555555" stroke="#555555" points="838.09,-47.03 834.59,-37.03 831.09,-47.03 838.09,-47.03"/>
</g>
<!-- BottomReact -->
<g id="node10" class="node">
<title>BottomReact</title>
<ellipse fill="#ffffff" stroke="#000000" cx="546.59" cy="-1050.8" rx="27" ry="18"/>
</g>
<!-- TopReact -->
<g id="node11" class="node">
<title>TopReact</title>
<ellipse fill="#ffffff" stroke="#000000" cx="618.59" cy="-1050.8" rx="27" ry="18"/>
</g>
<!-- BigUpReact -->
<g id="node12" class="node">
<title>BigUpReact</title>
<ellipse fill="#ffffff" stroke="#000000" cx="906.59" cy="-492.37" rx="27" ry="18"/>
</g>
<!-- BigUpReact&#45;&gt;ReactToLevel -->
<g id="edge8" class="edge">
<title>BigUpReact&#45;&gt;ReactToLevel</title>
<path fill="none" stroke="#555555" stroke-dasharray="1,5" d="M908.16,-473.94C912.81,-415.23 923.15,-220.06 870.59,-72 866.92,-61.68 860.76,-51.47 854.55,-42.8"/>
<polygon fill="#555555" stroke="#555555" points="856.76,-40.92 847.92,-35.07 851.18,-45.15 856.76,-40.92"/>
</g>
<!-- BigDownReact -->
<g id="node13" class="node">
<title>BigDownReact</title>
<ellipse fill="#ffffff" stroke="#000000" cx="978.59" cy="-492.37" rx="27" ry="18"/>
</g>
<!-- BigDownReact&#45;&gt;ReactToLevel -->
<g id="edge9" class="edge">
<title>BigDownReact&#45;&gt;ReactToLevel</title>
<path fill="none" stroke="#555555" stroke-dasharray="1,5" d="M982.57,-474.25C995.74,-413.2 1032.14,-202.87 942.59,-72 926.04,-47.83 895.21,-34.23 870.71,-26.88"/>
<polygon fill="#555555" stroke="#555555" points="871.89,-23.3 861.32,-24.01 870.03,-30.05 871.89,-23.3"/>
</g>
<!-- UpReactLevel -->
<g id="node14" class="node">
<title>UpReactLevel</title>
<ellipse fill="#ffffff" stroke="#000000" cx="402.59" cy="-1050.8" rx="27" ry="18"/>
</g>
<!-- UpReactLevel&#45;&gt;LevelToReact -->
<g id="edge10" class="edge">
<title>UpReactLevel&#45;&gt;LevelToReact</title>
<path fill="none" stroke="#555555" stroke-dasharray="1,5" d="M409.87,-1033.2C414.8,-1021.96 421.41,-1006.89 427.05,-994.04"/>
<polygon fill="#555555" stroke="#555555" points="430.5,-995.89 431.31,-985.33 424.09,-993.08 430.5,-995.89"/>
</g>
<!-- DownReactLevel -->
<g id="node15" class="node">
<title>DownReactLevel</title>
<ellipse fill="#ffffff" stroke="#000000" cx="474.59" cy="-1050.8" rx="27" ry="18"/>
</g>
<!-- DownReactLevel&#45;&gt;LevelToReact -->
<g id="edge11" class="edge">
<title>DownReactLevel&#45;&gt;LevelToReact</title>
<path fill="none" stroke="#555555" stroke-dasharray="1,5" d="M467.3,-1033.2C462.37,-1021.96 455.76,-1006.89 450.12,-994.04"/>
<polygon fill="#555555" stroke="#555555" points="453.08,-993.08 445.86,-985.33 446.67,-995.89 453.08,-993.08"/>
</g>
<!-- Goodbyes -->
<g id="node16" class="node">
<title>Goodbyes</title>
<ellipse fill="#ffffff" stroke="#000000" cx="690.59" cy="-1050.8" rx="27" ry="18"/>
</g>
</g>
</svg>
