<?xml version="1.0" encoding="UTF-8" standalone="no"?>
<!DOCTYPE svg PUBLIC "-//W3C//DTD SVG 1.1//EN"
 "http://www.w3.org/Graphics/SVG/1.1/DTD/svg11.dtd">
<!-- Generated by graphviz version 8.0.5 (0)
 -->
<!-- Title: peasantd Pages: 1 -->
<svg width="1220pt" height="529pt"
 viewBox="0.00 0.00 1219.53 528.95" xmlns="http://www.w3.org/2000/svg" xmlns:xlink="http://www.w3.org/1999/xlink">
<g id="graph0" class="graph" transform="scale(1 1) rotate(0) translate(4 524.95)">
<title>peasantd</title>
<polygon fill="white" stroke="none" points="-4,4 -4,-524.95 1215.53,-524.95 1215.53,4 -4,4"/>
<!-- start -->
<g id="node1" class="node">
<title>start</title>
<ellipse fill="#ffffff" stroke="#000000" cx="664" cy="-502.95" rx="136.44" ry="18"/>
<text text-anchor="middle" x="664" y="-498.28" font-family="Times,serif" font-size="14.00">Вы видите крестьянина.</text>
</g>
<!-- do_dialogue -->
<g id="node2" class="node">
<title>do_dialogue</title>
<ellipse fill="#ffffff" stroke="#000000" cx="469" cy="-296.92" rx="27" ry="18"/>
</g>
<!-- start&#45;&gt;do_dialogue -->
<g id="edge1" class="edge">
<title>start&#45;&gt;do_dialogue</title>
<path fill="none" stroke="#555555" stroke-dasharray="1,5" d="M574.52,-489C548.98,-481.22 523.18,-468.8 505,-448.95 474.06,-415.17 468.33,-359.67 467.98,-326.19"/>
<polygon fill="#555555" stroke="#555555" points="471.49,-326.35 468.05,-316.33 464.49,-326.31 471.49,-326.35"/>
</g>
<!-- PeasantD00 -->
<g id="node3" class="node">
<title>PeasantD00</title>
<ellipse fill="#ffffff" stroke="#000000" cx="664" cy="-296.92" rx="149.73" ry="152.03"/>
<text text-anchor="middle" x="664" y="-387.12" font-family="Times,serif" font-size="14.00">О, да, большой дядька</text>
<text text-anchor="middle" x="664" y="-369.87" font-family="Times,serif" font-size="14.00">убегает от страшного пса.</text>
<text text-anchor="middle" x="664" y="-352.62" font-family="Times,serif" font-size="14.00">Фил, ты им это показал.</text>
<text text-anchor="middle" x="664" y="-335.37" font-family="Times,serif" font-size="14.00">Ох, показал.</text>
<text text-anchor="middle" x="664" y="-318.12" font-family="Times,serif" font-size="14.00">&#45;&#45;&#45;</text>
<text text-anchor="middle" x="664" y="-300.87" font-family="Times,serif" font-size="14.00">Ты что делаешь, Фил?</text>
<text text-anchor="middle" x="664" y="-283.62" font-family="Times,serif" font-size="14.00">Ищешь след этих тихарей,</text>
<text text-anchor="middle" x="664" y="-266.37" font-family="Times,serif" font-size="14.00">да?</text>
<text text-anchor="middle" x="664" y="-249.12" font-family="Times,serif" font-size="14.00">&#45;&#45;&#45;</text>
<text text-anchor="middle" x="664" y="-231.87" font-family="Times,serif" font-size="14.00">Кажется, собака очень</text>
<text text-anchor="middle" x="664" y="-214.62" font-family="Times,serif" font-size="14.00">голодна. Она наверняка</text>
<text text-anchor="middle" x="664" y="-197.37" font-family="Times,serif" font-size="14.00">хочет съесть тебя, Фил.</text>
</g>
<!-- start&#45;&gt;PeasantD00 -->
<g id="edge2" class="edge">
<title>start&#45;&gt;PeasantD00</title>
<path fill="none" stroke="#555555" stroke-dasharray="1,5" d="M664,-484.56C664,-477.9 664,-469.65 664,-460.36"/>
<polygon fill="#555555" stroke="#555555" points="667.5,-460.45 664,-450.45 660.5,-460.45 667.5,-460.45"/>
</g>
<!-- go_inside -->
<g id="node4" class="node">
<title>go_inside</title>
<ellipse fill="#ffffff" stroke="#000000" cx="859" cy="-296.92" rx="27" ry="18"/>
</g>
<!-- start&#45;&gt;go_inside -->
<g id="edge3" class="edge">
<title>start&#45;&gt;go_inside</title>
<path fill="none" stroke="#555555" stroke-dasharray="1,5" d="M753.48,-489C779.02,-481.22 804.82,-468.8 823,-448.95 853.94,-415.17 859.67,-359.67 860.02,-326.19"/>
<polygon fill="#555555" stroke="#555555" points="863.51,-326.31 859.95,-316.33 856.51,-326.35 863.51,-326.31"/>
</g>
<!-- weapon_check -->
<g id="node5" class="node">
<title>weapon_check</title>
<ellipse fill="#ffffff" stroke="#000000" cx="27" cy="-54.45" rx="27" ry="18"/>
</g>
<!-- do_dialogue&#45;&gt;weapon_check -->
<g id="edge4" class="edge">
<title>do_dialogue&#45;&gt;weapon_check</title>
<path fill="none" stroke="#555555" stroke-dasharray="1,5" d="M444.01,-289.56C376.21,-271.3 185.66,-213.23 63,-108.89 53.92,-101.17 46.17,-90.63 40.21,-80.94"/>
<polygon fill="#555555" stroke="#555555" points="42.89,-79.59 34.86,-72.68 36.83,-83.09 42.89,-79.59"/>
</g>
<!-- PeasantD02 -->
<g id="node6" class="node">
<title>PeasantD02</title>
<ellipse fill="#ffffff" stroke="#000000" cx="204" cy="-54.45" rx="132.23" ry="18"/>
<text text-anchor="middle" x="204" y="-49.77" font-family="Times,serif" font-size="14.00">Какая милая дворняга.</text>
</g>
<!-- do_dialogue&#45;&gt;PeasantD02 -->
<g id="edge5" class="edge">
<title>do_dialogue&#45;&gt;PeasantD02</title>
<path fill="none" stroke="#555555" stroke-dasharray="1,5" d="M453.61,-281.95C410.11,-242.48 285.87,-129.74 230.82,-79.78"/>
<polygon fill="#555555" stroke="#555555" points="233.66,-77.73 223.91,-73.6 228.96,-82.92 233.66,-77.73"/>
</g>
<!-- PeasantD04 -->
<g id="node7" class="node">
<title>PeasantD04</title>
<ellipse fill="#ffffff" stroke="#000000" cx="469" cy="-54.45" rx="114.34" ry="18"/>
<text text-anchor="middle" x="469" y="-49.77" font-family="Times,serif" font-size="14.00">Спасибо за помощь.</text>
</g>
<!-- do_dialogue&#45;&gt;PeasantD04 -->
<g id="edge6" class="edge">
<title>do_dialogue&#45;&gt;PeasantD04</title>
<path fill="none" stroke="#555555" stroke-dasharray="1,5" d="M469,-278.63C469,-237.56 469,-133.88 469,-83.63"/>
<polygon fill="#555555" stroke="#555555" points="472.5,-83.91 469,-73.91 465.5,-83.91 472.5,-83.91"/>
</g>
<!-- PeasantD01 -->
<g id="node8" class="node">
<title>PeasantD01</title>
<ellipse fill="#ffffff" stroke="#000000" cx="760" cy="-54.45" rx="158.75" ry="54.45"/>
<text text-anchor="middle" x="760" y="-75.65" font-family="Times,serif" font-size="14.00">Эээ, для бедного</text>
<text text-anchor="middle" x="760" y="-58.4" font-family="Times,serif" font-size="14.00">беззащитного животного ты</text>
<text text-anchor="middle" x="760" y="-41.15" font-family="Times,serif" font-size="14.00">многовато людей поубивал,</text>
<text text-anchor="middle" x="760" y="-23.9" font-family="Times,serif" font-size="14.00">а?</text>
</g>
<!-- do_dialogue&#45;&gt;PeasantD01 -->
<g id="edge7" class="edge">
<title>do_dialogue&#45;&gt;PeasantD01</title>
<path fill="none" stroke="#555555" stroke-dasharray="1,5" d="M468.11,-278.57C467.49,-247.7 470.71,-182.93 505,-144.89 510.01,-139.33 573.42,-117.08 635.75,-96.16"/>
<polygon fill="#555555" stroke="#555555" points="636.77,-99.18 645.14,-92.69 634.54,-92.54 636.77,-99.18"/>
</g>
<!-- PeasantD03 -->
<g id="node9" class="node">
<title>PeasantD03</title>
<ellipse fill="#ffffff" stroke="#000000" cx="1074" cy="-54.45" rx="137.53" ry="42.25"/>
<text text-anchor="middle" x="1074" y="-67.02" font-family="Times,serif" font-size="14.00">Наверное, Фил не будет</text>
<text text-anchor="middle" x="1074" y="-49.77" font-family="Times,serif" font-size="14.00">возражать, если ты</text>
<text text-anchor="middle" x="1074" y="-32.52" font-family="Times,serif" font-size="14.00">избавишь его от собаки.</text>
</g>
<!-- do_dialogue&#45;&gt;PeasantD03 -->
<g id="edge8" class="edge">
<title>do_dialogue&#45;&gt;PeasantD03</title>
<path fill="none" stroke="#555555" stroke-dasharray="1,5" d="M467.27,-278.66C465.14,-246.73 465.78,-178.66 505,-144.89 576.49,-83.34 835.89,-129.29 928,-108.89 946.26,-104.85 965.33,-99.08 983.44,-92.82"/>
<polygon fill="#555555" stroke="#555555" points="984.42,-95.83 992.68,-89.19 982.08,-89.23 984.42,-95.83"/>
</g>
</g>
</svg>
