<?xml version="1.0" encoding="UTF-8" standalone="no"?>
<!DOCTYPE svg PUBLIC "-//W3C//DTD SVG 1.1//EN"
 "http://www.w3.org/Graphics/SVG/1.1/DTD/svg11.dtd">
<!-- Generated by graphviz version 8.0.5 (0)
 -->
<!-- Title: raidgrd Pages: 1 -->
<svg width="1501pt" height="959pt"
 viewBox="0.00 0.00 1500.79 958.68" xmlns="http://www.w3.org/2000/svg" xmlns:xlink="http://www.w3.org/1999/xlink">
<g id="graph0" class="graph" transform="scale(1 1) rotate(0) translate(4 954.68)">
<title>raidgrd</title>
<polygon fill="white" stroke="none" points="-4,4 -4,-954.68 1496.79,-954.68 1496.79,4 -4,4"/>
<!-- start -->
<g id="node1" class="node">
<title>start</title>
<ellipse fill="#ffffff" stroke="#000000" cx="27" cy="-908.43" rx="27" ry="18"/>
</g>
<!-- look_at_p_proc -->
<g id="node2" class="node">
<title>look_at_p_proc</title>
<ellipse fill="#ffffff" stroke="#000000" cx="189" cy="-908.43" rx="116.85" ry="30.05"/>
<text text-anchor="middle" x="189" y="-912.38" font-family="Times,serif" font-size="14.00">Вы видите крепкого</text>
<text text-anchor="middle" x="189" y="-895.13" font-family="Times,serif" font-size="14.00">налетчика.</text>
</g>
<!-- timed_event_p_proc -->
<g id="node3" class="node">
<title>timed_event_p_proc</title>
<ellipse fill="#ffffff" stroke="#000000" cx="191" cy="-263.29" rx="27" ry="18"/>
</g>
<!-- combat -->
<g id="node4" class="node">
<title>combat</title>
<ellipse fill="#ffffff" stroke="#000000" cx="191" cy="-54.45" rx="27" ry="18"/>
</g>
<!-- timed_event_p_proc&#45;&gt;combat -->
<g id="edge1" class="edge">
<title>timed_event_p_proc&#45;&gt;combat</title>
<path fill="none" stroke="#555555" stroke-dasharray="1,5" d="M183.24,-245.71C176.22,-210.16 175.64,-126.29 181.5,-82.75"/>
<polygon fill="#555555" stroke="#555555" points="185.08,-83.53 183.23,-73.1 178.17,-82.41 185.08,-83.53"/>
</g>
<!-- timed_event_p_proc&#45;&gt;combat -->
<g id="edge2" class="edge">
<title>timed_event_p_proc&#45;&gt;combat</title>
<path fill="none" stroke="#555555" stroke-dasharray="1,5" d="M191,-245.01C191,-209.34 191,-127.29 191,-83.76"/>
<polygon fill="#555555" stroke="#555555" points="194.5,-83.82 191,-73.82 187.5,-83.82 194.5,-83.82"/>
</g>
<!-- timed_event_p_proc&#45;&gt;combat -->
<g id="edge3" class="edge">
<title>timed_event_p_proc&#45;&gt;combat</title>
<path fill="none" stroke="#555555" stroke-dasharray="1,5" d="M198.76,-245.71C205.78,-210.16 206.36,-126.29 200.5,-82.75"/>
<polygon fill="#555555" stroke="#555555" points="203.83,-82.41 198.77,-73.1 196.92,-83.53 203.83,-82.41"/>
</g>
<!-- talk_p_proc -->
<g id="node5" class="node">
<title>talk_p_proc</title>
<ellipse fill="#ffffff" stroke="#000000" cx="475" cy="-908.43" rx="150.79" ry="42.25"/>
<text text-anchor="middle" x="475" y="-921.01" font-family="Times,serif" font-size="14.00">Налетчик слишком боится</text>
<text text-anchor="middle" x="475" y="-903.76" font-family="Times,serif" font-size="14.00">Гарла и больше не хочет с</text>
<text text-anchor="middle" x="475" y="-886.51" font-family="Times,serif" font-size="14.00">вами говорить.</text>
</g>
<!-- do_dialogue -->
<g id="node6" class="node">
<title>do_dialogue</title>
<ellipse fill="#ffffff" stroke="#000000" cx="475" cy="-811.18" rx="27" ry="18"/>
</g>
<!-- talk_p_proc&#45;&gt;do_dialogue -->
<g id="edge4" class="edge">
<title>talk_p_proc&#45;&gt;do_dialogue</title>
<path fill="none" stroke="#555555" stroke-dasharray="1,5" d="M475,-865.93C475,-857.31 475,-848.41 475,-840.4"/>
<polygon fill="#555555" stroke="#555555" points="478.5,-840.43 475,-830.43 471.5,-840.43 478.5,-840.43"/>
</g>
<!-- guard00 -->
<g id="node12" class="node">
<title>guard00</title>
<ellipse fill="#ffffff" stroke="#000000" cx="403" cy="-738.18" rx="27" ry="18"/>
</g>
<!-- do_dialogue&#45;&gt;guard00 -->
<g id="edge6" class="edge">
<title>do_dialogue&#45;&gt;guard00</title>
<path fill="none" stroke="#555555" stroke-dasharray="1,5" d="M460.43,-795.82C450.35,-785.87 436.74,-772.45 425.3,-761.17"/>
<polygon fill="#555555" stroke="#555555" points="428.37,-759.3 418.8,-754.77 423.46,-764.29 428.37,-759.3"/>
</g>
<!-- guard02 -->
<g id="node13" class="node">
<title>guard02</title>
<ellipse fill="#ffffff" stroke="#000000" cx="475" cy="-738.18" rx="27" ry="18"/>
</g>
<!-- do_dialogue&#45;&gt;guard02 -->
<g id="edge7" class="edge">
<title>do_dialogue&#45;&gt;guard02</title>
<path fill="none" stroke="#555555" stroke-dasharray="1,5" d="M475,-793C475,-785.23 475,-775.86 475,-767.13"/>
<polygon fill="#555555" stroke="#555555" points="478.5,-767.21 475,-757.21 471.5,-767.21 478.5,-767.21"/>
</g>
<!-- sys_dialog -->
<g id="node14" class="node">
<title>sys_dialog</title>
<ellipse fill="#ffffff" stroke="#000000" cx="547" cy="-738.18" rx="27" ry="18"/>
</g>
<!-- do_dialogue&#45;&gt;sys_dialog -->
<g id="edge8" class="edge">
<title>do_dialogue&#45;&gt;sys_dialog</title>
<path fill="none" stroke="#555555" stroke-dasharray="1,5" d="M489.57,-795.82C499.65,-785.87 513.26,-772.45 524.7,-761.17"/>
<polygon fill="#555555" stroke="#555555" points="526.54,-764.29 531.2,-754.77 521.63,-759.3 526.54,-764.29"/>
</g>
<!-- pickup_p_proc -->
<g id="node7" class="node">
<title>pickup_p_proc</title>
<ellipse fill="#ffffff" stroke="#000000" cx="671" cy="-908.43" rx="27" ry="18"/>
</g>
<!-- critter_p_proc -->
<g id="node8" class="node">
<title>critter_p_proc</title>
<ellipse fill="#ffffff" stroke="#000000" cx="743" cy="-908.43" rx="27" ry="18"/>
</g>
<!-- Critter_Action -->
<g id="node9" class="node">
<title>Critter_Action</title>
<ellipse fill="#ffffff" stroke="#000000" cx="743" cy="-811.18" rx="27" ry="18"/>
</g>
<!-- critter_p_proc&#45;&gt;Critter_Action -->
<g id="edge5" class="edge">
<title>critter_p_proc&#45;&gt;Critter_Action</title>
<path fill="none" stroke="#555555" stroke-dasharray="1,5" d="M743,-889.96C743,-876.13 743,-856.54 743,-840.48"/>
<polygon fill="#555555" stroke="#555555" points="746.5,-840.54 743,-830.54 739.5,-840.54 746.5,-840.54"/>
</g>
<!-- destroy_p_proc -->
<g id="node10" class="node">
<title>destroy_p_proc</title>
<ellipse fill="#ffffff" stroke="#000000" cx="815" cy="-908.43" rx="27" ry="18"/>
</g>
<!-- damage_p_proc -->
<g id="node11" class="node">
<title>damage_p_proc</title>
<ellipse fill="#ffffff" stroke="#000000" cx="887" cy="-908.43" rx="27" ry="18"/>
</g>
<!-- get_reaction -->
<g id="node15" class="node">
<title>get_reaction</title>
<ellipse fill="#ffffff" stroke="#000000" cx="249" cy="-611.18" rx="27" ry="18"/>
</g>
<!-- sys_dialog&#45;&gt;get_reaction -->
<g id="edge9" class="edge">
<title>sys_dialog&#45;&gt;get_reaction</title>
<path fill="none" stroke="#555555" stroke-dasharray="1,5" d="M525.38,-726.76C520.66,-724.54 515.68,-722.25 511,-720.18 429.46,-684.15 332.08,-645.02 282.14,-625.23"/>
<polygon fill="#555555" stroke="#555555" points="283.53,-621.61 272.94,-621.19 280.95,-628.12 283.53,-621.61"/>
</g>
<!-- guard04 -->
<g id="node16" class="node">
<title>guard04</title>
<ellipse fill="#ffffff" stroke="#000000" cx="547" cy="-665.18" rx="98.03" ry="18"/>
<text text-anchor="middle" x="547" y="-660.51" font-family="Times,serif" font-size="14.00">Чего ты хочешь?</text>
</g>
<!-- sys_dialog&#45;&gt;guard04 -->
<g id="edge10" class="edge">
<title>sys_dialog&#45;&gt;guard04</title>
<path fill="none" stroke="#555555" stroke-dasharray="1,5" d="M547,-720C547,-712.23 547,-702.86 547,-694.13"/>
<polygon fill="#555555" stroke="#555555" points="550.5,-694.21 547,-684.21 543.5,-694.21 550.5,-694.21"/>
</g>
<!-- guard15 -->
<g id="node17" class="node">
<title>guard15</title>
<ellipse fill="#ffffff" stroke="#000000" cx="747" cy="-665.18" rx="83.83" ry="18"/>
<text text-anchor="middle" x="747" y="-660.51" font-family="Times,serif" font-size="14.00">Что? Иди вон!</text>
</g>
<!-- sys_dialog&#45;&gt;guard15 -->
<g id="edge11" class="edge">
<title>sys_dialog&#45;&gt;guard15</title>
<path fill="none" stroke="#555555" stroke-dasharray="1,5" d="M570.33,-728.9C600.67,-718.13 654.52,-699.01 694.82,-684.71"/>
<polygon fill="#555555" stroke="#555555" points="695.76,-687.73 704.01,-681.09 693.42,-681.14 695.76,-687.73"/>
</g>
<!-- ReactToLevel -->
<g id="node30" class="node">
<title>ReactToLevel</title>
<ellipse fill="#ffffff" stroke="#000000" cx="263" cy="-263.29" rx="27" ry="18"/>
</g>
<!-- get_reaction&#45;&gt;ReactToLevel -->
<g id="edge25" class="edge">
<title>get_reaction&#45;&gt;ReactToLevel</title>
<path fill="none" stroke="#555555" stroke-dasharray="1,5" d="M224.13,-603.73C209.69,-598.56 192.68,-589.71 184,-575.18 164.74,-542.94 177.73,-527.71 184,-490.68 196.73,-415.55 231.65,-332.1 250.52,-290.65"/>
<polygon fill="#555555" stroke="#555555" points="254.04,-292.36 255.05,-281.81 247.69,-289.43 254.04,-292.36"/>
</g>
<!-- guard07 -->
<g id="node18" class="node">
<title>guard07</title>
<ellipse fill="#ffffff" stroke="#000000" cx="860" cy="-532.93" rx="117.5" ry="18"/>
<text text-anchor="middle" x="860" y="-528.26" font-family="Times,serif" font-size="14.00">Нет, не знаю. А что?</text>
</g>
<!-- guard04&#45;&gt;guard07 -->
<g id="edge12" class="edge">
<title>guard04&#45;&gt;guard07</title>
<path fill="none" stroke="#00992f" d="M585.38,-648.21C642.13,-624.6 748.42,-580.36 810.82,-554.4"/>
<polygon fill="#00992f" stroke="#00992f" points="811.93,-557.31 819.81,-550.24 809.24,-550.85 811.93,-557.31"/>
<text text-anchor="middle" x="806" y="-615.13" font-family="Times,serif" font-size="14.00" fill="#00992f">Я ищу девушку по имени</text>
<text text-anchor="middle" x="806" y="-597.88" font-family="Times,serif" font-size="14.00" fill="#00992f">Танди. Знаешь ее?</text>
</g>
<!-- guard06 -->
<g id="node19" class="node">
<title>guard06</title>
<ellipse fill="#ffffff" stroke="#000000" cx="309" cy="-532.93" rx="115.92" ry="18"/>
<text text-anchor="middle" x="309" y="-528.26" font-family="Times,serif" font-size="14.00">Вот и гуляй отсюда!</text>
</g>
<!-- guard04&#45;&gt;guard06 -->
<g id="edge13" class="edge">
<title>guard04&#45;&gt;guard06</title>
<path fill="none" stroke="#990200" d="M491.26,-649.97C473.89,-644.56 454.97,-637.62 438.5,-629.18 400.28,-609.62 361.22,-579.16 336.14,-557.98"/>
<polygon fill="#990200" stroke="#990200" points="338.75,-554.75 328.88,-550.9 334.2,-560.07 338.75,-554.75"/>
<text text-anchor="middle" x="496.75" y="-615.13" font-family="Times,serif" font-size="14.00" fill="#990200">Ничего. Просто</text>
<text text-anchor="middle" x="496.75" y="-597.88" font-family="Times,serif" font-size="14.00" fill="#990200">прогуливаюсь.</text>
</g>
<!-- guard05 -->
<g id="node20" class="node">
<title>guard05</title>
<ellipse fill="#ffffff" stroke="#000000" cx="584" cy="-532.93" rx="140.71" ry="42.25"/>
<text text-anchor="middle" x="584" y="-545.51" font-family="Times,serif" font-size="14.00">Хочешь поработать? Иди</text>
<text text-anchor="middle" x="584" y="-528.26" font-family="Times,serif" font-size="14.00">поговори с Гарлом, он в</text>
<text text-anchor="middle" x="584" y="-511.01" font-family="Times,serif" font-size="14.00">большой комнате.</text>
</g>
<!-- guard04&#45;&gt;guard05 -->
<g id="edge14" class="edge">
<title>guard04&#45;&gt;guard05</title>
<path fill="none" stroke="#002b99" d="M551.91,-646.89C556.34,-631.31 563.08,-607.59 569.24,-585.9"/>
<polygon fill="#002b99" stroke="#002b99" points="572.84,-587.03 572.2,-576.46 566.1,-585.12 572.84,-587.03"/>
<text text-anchor="middle" x="576" y="-606.51" font-family="Times,serif" font-size="14.00" fill="#002b99">А?</text>
</g>
<!-- guard08 -->
<g id="node22" class="node">
<title>guard08</title>
<ellipse fill="#ffffff" stroke="#000000" cx="860" cy="-384.93" rx="69.62" ry="18"/>
<text text-anchor="middle" x="860" y="-380.26" font-family="Times,serif" font-size="14.00">Ааа, ладно.</text>
</g>
<!-- guard07&#45;&gt;guard08 -->
<g id="edge16" class="edge">
<title>guard07&#45;&gt;guard08</title>
<path fill="none" stroke="#579900" d="M860,-514.61C860,-489.81 860,-443.88 860,-414.14"/>
<polygon fill="#579900" stroke="#579900" points="863.5,-414.23 860,-404.23 856.5,-414.23 863.5,-414.23"/>
<text text-anchor="middle" x="944" y="-450.76" font-family="Times,serif" font-size="14.00" fill="#579900">Ничего. Просто ищу, и</text>
<text text-anchor="middle" x="944" y="-433.51" font-family="Times,serif" font-size="14.00" fill="#579900">все.</text>
</g>
<!-- guard07a -->
<g id="node23" class="node">
<title>guard07a</title>
<ellipse fill="#ffffff" stroke="#000000" cx="1051" cy="-384.93" rx="27" ry="18"/>
</g>
<!-- guard07&#45;&gt;guard07a -->
<g id="edge17" class="edge">
<title>guard07&#45;&gt;guard07a</title>
<path fill="none" stroke="#990084" d="M942.72,-519.91C973.65,-511.47 1006.65,-497.11 1029,-472.68 1043.5,-456.83 1048.76,-432.79 1050.52,-414.03"/>
<polygon fill="#990084" stroke="#990084" points="1054.07,-414.36 1051.22,-404.16 1047.09,-413.91 1054.07,-414.36"/>
<text text-anchor="middle" x="1149.12" y="-459.38" font-family="Times,serif" font-size="14.00" fill="#990084">Ее разыскивают. Если я ее</text>
<text text-anchor="middle" x="1149.12" y="-442.13" font-family="Times,serif" font-size="14.00" fill="#990084">убью, мне неплохо</text>
<text text-anchor="middle" x="1149.12" y="-424.88" font-family="Times,serif" font-size="14.00" fill="#990084">заплатят.</text>
</g>
<!-- guard07b -->
<g id="node24" class="node">
<title>guard07b</title>
<ellipse fill="#ffffff" stroke="#000000" cx="690" cy="-384.93" rx="27" ry="18"/>
</g>
<!-- guard07&#45;&gt;guard07b -->
<g id="edge18" class="edge">
<title>guard07&#45;&gt;guard07b</title>
<path fill="none" stroke="#009981" d="M805.74,-516.57C767.97,-504.81 722.11,-488.06 709,-472.68 695.25,-456.56 690.78,-432.74 689.6,-414.13"/>
<polygon fill="#009981" stroke="#009981" points="693.07,-414.22 689.24,-404.34 686.08,-414.45 693.07,-414.22"/>
<text text-anchor="middle" x="782.5" y="-442.13" font-family="Times,serif" font-size="14.00" fill="#009981">Ты лжешь. Где она?</text>
</g>
<!-- DownReact -->
<g id="node21" class="node">
<title>DownReact</title>
<ellipse fill="#ffffff" stroke="#000000" cx="293" cy="-384.93" rx="27" ry="18"/>
</g>
<!-- guard06&#45;&gt;DownReact -->
<g id="edge15" class="edge">
<title>guard06&#45;&gt;DownReact</title>
<path fill="none" stroke="#555555" stroke-dasharray="1,5" d="M307.1,-514.61C304.38,-489.81 299.35,-443.88 296.09,-414.14"/>
<polygon fill="#555555" stroke="#555555" points="299.46,-413.79 294.9,-404.23 292.51,-414.55 299.46,-413.79"/>
</g>
<!-- DownReact&#45;&gt;ReactToLevel -->
<g id="edge26" class="edge">
<title>DownReact&#45;&gt;ReactToLevel</title>
<path fill="none" stroke="#555555" stroke-dasharray="1,5" d="M288.7,-366.79C283.8,-347.25 275.72,-315.02 269.93,-291.91"/>
<polygon fill="#555555" stroke="#555555" points="273.12,-291.25 267.29,-282.4 266.33,-292.95 273.12,-291.25"/>
</g>
<!-- guard09 -->
<g id="node25" class="node">
<title>guard09</title>
<ellipse fill="#ffffff" stroke="#000000" cx="1018" cy="-263.29" rx="155.38" ry="18"/>
<text text-anchor="middle" x="1018" y="-258.61" font-family="Times,serif" font-size="14.00">Правда? Как она выглядит?</text>
</g>
<!-- guard07a&#45;&gt;guard09 -->
<g id="edge19" class="edge">
<title>guard07a&#45;&gt;guard09</title>
<path fill="none" stroke="#555555" stroke-dasharray="1,5" d="M1046.27,-366.79C1040.88,-347.25 1031.99,-315.02 1025.62,-291.91"/>
<polygon fill="#555555" stroke="#555555" points="1028.75,-291.11 1022.72,-282.4 1022,-292.97 1028.75,-291.11"/>
</g>
<!-- guard11 -->
<g id="node26" class="node">
<title>guard11</title>
<ellipse fill="#ffffff" stroke="#000000" cx="1342" cy="-263.29" rx="150.79" ry="66.64"/>
<text text-anchor="middle" x="1342" y="-293.11" font-family="Times,serif" font-size="14.00">Я тебе не верю. По&#45;моему,</text>
<text text-anchor="middle" x="1342" y="-275.86" font-family="Times,serif" font-size="14.00">у тебя что&#45;то есть на</text>
<text text-anchor="middle" x="1342" y="-258.61" font-family="Times,serif" font-size="14.00">уме. Но если ты говоришь</text>
<text text-anchor="middle" x="1342" y="-241.36" font-family="Times,serif" font-size="14.00">правду, я лучше сам</text>
<text text-anchor="middle" x="1342" y="-224.11" font-family="Times,serif" font-size="14.00">получу деньги.</text>
</g>
<!-- guard07a&#45;&gt;guard11 -->
<g id="edge20" class="edge">
<title>guard07a&#45;&gt;guard11</title>
<path fill="none" stroke="#555555" stroke-dasharray="1,5" d="M1073.35,-374.74C1105.3,-361.61 1166.36,-336.5 1222.2,-313.54"/>
<polygon fill="#555555" stroke="#555555" points="1223.28,-316.47 1231.2,-309.43 1220.62,-310 1223.28,-316.47"/>
</g>
<!-- guard12 -->
<g id="node27" class="node">
<title>guard12</title>
<ellipse fill="#ffffff" stroke="#000000" cx="442" cy="-263.29" rx="134.35" ry="42.25"/>
<text text-anchor="middle" x="442" y="-275.86" font-family="Times,serif" font-size="14.00">Я... я больше ничего не</text>
<text text-anchor="middle" x="442" y="-258.61" font-family="Times,serif" font-size="14.00">могу сказать, а не то</text>
<text text-anchor="middle" x="442" y="-241.36" font-family="Times,serif" font-size="14.00">Гарл меня убьет.</text>
</g>
<!-- guard07b&#45;&gt;guard12 -->
<g id="edge21" class="edge">
<title>guard07b&#45;&gt;guard12</title>
<path fill="none" stroke="#555555" stroke-dasharray="1,5" d="M668.43,-373.53C636.49,-358.12 574.91,-328.41 524.03,-303.86"/>
<polygon fill="#555555" stroke="#555555" points="525.86,-300.38 515.33,-299.19 522.82,-306.68 525.86,-300.38"/>
</g>
<!-- guard13 -->
<g id="node28" class="node">
<title>guard13</title>
<ellipse fill="#ffffff" stroke="#000000" cx="701" cy="-263.29" rx="106.45" ry="18"/>
<text text-anchor="middle" x="701" y="-258.61" font-family="Times,serif" font-size="14.00">Ну&#45;ка, врежь мне!</text>
</g>
<!-- guard07b&#45;&gt;guard13 -->
<g id="edge22" class="edge">
<title>guard07b&#45;&gt;guard13</title>
<path fill="none" stroke="#555555" stroke-dasharray="1,5" d="M691.6,-366.54C693.38,-347.13 696.3,-315.46 698.41,-292.5"/>
<polygon fill="#555555" stroke="#555555" points="701.97,-292.99 699.4,-282.71 695,-292.35 701.97,-292.99"/>
</g>
<!-- guard10 -->
<g id="node29" class="node">
<title>guard10</title>
<ellipse fill="#ffffff" stroke="#000000" cx="1018" cy="-54.45" rx="147.61" ry="54.45"/>
<text text-anchor="middle" x="1018" y="-75.65" font-family="Times,serif" font-size="14.00">Да, она здесь. Ее держат</text>
<text text-anchor="middle" x="1018" y="-58.4" font-family="Times,serif" font-size="14.00">в доме. Только знаешь, не</text>
<text text-anchor="middle" x="1018" y="-41.15" font-family="Times,serif" font-size="14.00">говори Гарлу, а то он</text>
<text text-anchor="middle" x="1018" y="-23.9" font-family="Times,serif" font-size="14.00">потребует часть денег.</text>
</g>
<!-- guard09&#45;&gt;guard10 -->
<g id="edge23" class="edge">
<title>guard09&#45;&gt;guard10</title>
<path fill="none" stroke="#995500" d="M1018,-245.01C1018,-217.8 1018,-163.58 1018,-120.08"/>
<polygon fill="#995500" stroke="#995500" points="1021.5,-120.27 1018,-110.27 1014.5,-120.27 1021.5,-120.27"/>
<text text-anchor="middle" x="1107.62" y="-165.34" font-family="Times,serif" font-size="14.00" fill="#995500">Ростом чуть ниже меня,</text>
<text text-anchor="middle" x="1107.62" y="-148.09" font-family="Times,serif" font-size="14.00" fill="#995500">волосы темные. Она из</text>
<text text-anchor="middle" x="1107.62" y="-130.84" font-family="Times,serif" font-size="14.00" fill="#995500">Шэйди Сэндс.</text>
</g>
<!-- guard13&#45;&gt;combat -->
<g id="edge24" class="edge">
<title>guard13&#45;&gt;combat</title>
<path fill="none" stroke="#555555" stroke-dasharray="1,5" d="M674.5,-245.56C651.42,-231.42 616.77,-211.2 585,-196.64 456.45,-137.76 295.68,-86.81 225.95,-65.76"/>
<polygon fill="#555555" stroke="#555555" points="227.14,-62.16 216.56,-62.64 225.13,-68.87 227.14,-62.16"/>
</g>
</g>
</svg>
