<?xml version="1.0" encoding="UTF-8" standalone="no"?>
<!DOCTYPE svg PUBLIC "-//W3C//DTD SVG 1.1//EN"
 "http://www.w3.org/Graphics/SVG/1.1/DTD/svg11.dtd">
<!-- Generated by graphviz version 8.0.5 (0)
 -->
<!-- Title: rd1init Pages: 1 -->
<svg width="1298pt" height="1433pt"
 viewBox="0.00 0.00 1297.71 1433.21" xmlns="http://www.w3.org/2000/svg" xmlns:xlink="http://www.w3.org/1999/xlink">
<g id="graph0" class="graph" transform="scale(1 1) rotate(0) translate(4 1429.21)">
<title>rd1init</title>
<polygon fill="white" stroke="none" points="-4,4 -4,-1429.21 1293.71,-1429.21 1293.71,4 -4,4"/>
<!-- start -->
<g id="node1" class="node">
<title>start</title>
<ellipse fill="#ffffff" stroke="#000000" cx="398.71" cy="-1407.21" rx="27" ry="18"/>
</g>
<!-- look_at_p_proc -->
<g id="node2" class="node">
<title>look_at_p_proc</title>
<ellipse fill="#ffffff" stroke="#000000" cx="140.71" cy="-1322.16" rx="140.71" ry="30.05"/>
<text text-anchor="middle" x="140.71" y="-1326.11" font-family="Times,serif" font-size="14.00">Вы видите Джерри,</text>
<text text-anchor="middle" x="140.71" y="-1308.86" font-family="Times,serif" font-size="14.00">молодого посвященного.</text>
</g>
<!-- start&#45;&gt;look_at_p_proc -->
<g id="edge1" class="edge">
<title>start&#45;&gt;look_at_p_proc</title>
<path fill="none" stroke="#555555" stroke-dasharray="1,5" d="M374.9,-1398.54C341.63,-1387.83 279.47,-1367.82 227.55,-1351.11"/>
<polygon fill="#555555" stroke="#555555" points="228.91,-1347.55 218.32,-1347.81 226.76,-1354.21 228.91,-1347.55"/>
</g>
<!-- pickup_p_proc -->
<g id="node3" class="node">
<title>pickup_p_proc</title>
<ellipse fill="#ffffff" stroke="#000000" cx="326.71" cy="-1322.16" rx="27" ry="18"/>
</g>
<!-- start&#45;&gt;pickup_p_proc -->
<g id="edge2" class="edge">
<title>start&#45;&gt;pickup_p_proc</title>
<path fill="none" stroke="#555555" stroke-dasharray="1,5" d="M385.84,-1391.36C374.95,-1378.8 359.17,-1360.6 346.65,-1346.15"/>
<polygon fill="#555555" stroke="#555555" points="348.91,-1344.42 339.72,-1339.15 343.62,-1349 348.91,-1344.42"/>
</g>
<!-- talk_p_proc -->
<g id="node4" class="node">
<title>talk_p_proc</title>
<ellipse fill="#ffffff" stroke="#000000" cx="398.71" cy="-1322.16" rx="27" ry="18"/>
</g>
<!-- start&#45;&gt;talk_p_proc -->
<g id="edge3" class="edge">
<title>start&#45;&gt;talk_p_proc</title>
<path fill="none" stroke="#555555" stroke-dasharray="1,5" d="M398.71,-1389C398.71,-1378.16 398.71,-1363.9 398.71,-1351.43"/>
<polygon fill="#555555" stroke="#555555" points="402.21,-1351.63 398.71,-1341.63 395.21,-1351.63 402.21,-1351.63"/>
</g>
<!-- critter_p_proc -->
<g id="node5" class="node">
<title>critter_p_proc</title>
<ellipse fill="#ffffff" stroke="#000000" cx="470.71" cy="-1322.16" rx="27" ry="18"/>
</g>
<!-- start&#45;&gt;critter_p_proc -->
<g id="edge4" class="edge">
<title>start&#45;&gt;critter_p_proc</title>
<path fill="none" stroke="#555555" stroke-dasharray="1,5" d="M411.59,-1391.36C422.47,-1378.8 438.26,-1360.6 450.78,-1346.15"/>
<polygon fill="#555555" stroke="#555555" points="453.8,-1349 457.71,-1339.15 448.52,-1344.42 453.8,-1349"/>
</g>
<!-- destroy_p_proc -->
<g id="node6" class="node">
<title>destroy_p_proc</title>
<ellipse fill="#ffffff" stroke="#000000" cx="542.71" cy="-1322.16" rx="27" ry="18"/>
</g>
<!-- start&#45;&gt;destroy_p_proc -->
<g id="edge5" class="edge">
<title>start&#45;&gt;destroy_p_proc</title>
<path fill="none" stroke="#555555" stroke-dasharray="1,5" d="M420.01,-1395.87C449.17,-1381.66 498.82,-1357.28 506.71,-1352.21 510.78,-1349.6 514.92,-1346.61 518.87,-1343.57"/>
<polygon fill="#555555" stroke="#555555" points="520.53,-1345.93 526.14,-1336.94 516.15,-1340.46 520.53,-1345.93"/>
</g>
<!-- goto07 -->
<g id="node8" class="node">
<title>goto07</title>
<ellipse fill="#ffffff" stroke="#000000" cx="374.71" cy="-1237.1" rx="27" ry="18"/>
</g>
<!-- talk_p_proc&#45;&gt;goto07 -->
<g id="edge6" class="edge">
<title>talk_p_proc&#45;&gt;goto07</title>
<path fill="none" stroke="#555555" stroke-dasharray="1,5" d="M393.86,-1304.35C390.63,-1293.17 386.31,-1278.22 382.59,-1265.36"/>
<polygon fill="#555555" stroke="#555555" points="385.78,-1264.81 379.65,-1256.17 379.06,-1266.75 385.78,-1264.81"/>
</g>
<!-- do_dialog -->
<g id="node9" class="node">
<title>do_dialog</title>
<ellipse fill="#ffffff" stroke="#000000" cx="446.71" cy="-1237.1" rx="27" ry="18"/>
</g>
<!-- talk_p_proc&#45;&gt;do_dialog -->
<g id="edge7" class="edge">
<title>talk_p_proc&#45;&gt;do_dialog</title>
<path fill="none" stroke="#555555" stroke-dasharray="1,5" d="M407.97,-1305.14C414.76,-1293.38 424.14,-1277.17 431.96,-1263.63"/>
<polygon fill="#555555" stroke="#555555" points="435.35,-1265.76 437.32,-1255.35 429.29,-1262.26 435.35,-1265.76"/>
</g>
<!-- combat -->
<g id="node7" class="node">
<title>combat</title>
<ellipse fill="#ffffff" stroke="#000000" cx="470.71" cy="-1407.21" rx="27" ry="18"/>
</g>
<!-- goto00 -->
<g id="node10" class="node">
<title>goto00</title>
<ellipse fill="#ffffff" stroke="#000000" cx="446.71" cy="-1054.47" rx="155.56" ry="127.63"/>
<text text-anchor="middle" x="446.71" y="-1127.42" font-family="Times,serif" font-size="14.00">Приветствую! Ты, должно</text>
<text text-anchor="middle" x="446.71" y="-1110.17" font-family="Times,serif" font-size="14.00">быть, брат</text>
<text text-anchor="middle" x="446.71" y="-1092.92" font-family="Times,serif" font-size="14.00">&#45;&#45;&#45;</text>
<text text-anchor="middle" x="446.71" y="-1075.67" font-family="Times,serif" font-size="14.00">, тебя недавно посвятили.</text>
<text text-anchor="middle" x="446.71" y="-1058.42" font-family="Times,serif" font-size="14.00">Меня зовут Джерри, я твой</text>
<text text-anchor="middle" x="446.71" y="-1041.17" font-family="Times,serif" font-size="14.00">сосед по комнате. Я тоже</text>
<text text-anchor="middle" x="446.71" y="-1023.92" font-family="Times,serif" font-size="14.00">посвященный! Я так долго</text>
<text text-anchor="middle" x="446.71" y="-1006.67" font-family="Times,serif" font-size="14.00">и тяжело учился. А тебя</text>
<text text-anchor="middle" x="446.71" y="-989.42" font-family="Times,serif" font-size="14.00">посвятили в рыцари или</text>
<text text-anchor="middle" x="446.71" y="-972.17" font-family="Times,serif" font-size="14.00">писцы?</text>
</g>
<!-- do_dialog&#45;&gt;goto00 -->
<g id="edge20" class="edge">
<title>do_dialog&#45;&gt;goto00</title>
<path fill="none" stroke="#555555" stroke-dasharray="1,5" d="M446.71,-1218.78C446.71,-1211.78 446.71,-1203.03 446.71,-1193.24"/>
<polygon fill="#555555" stroke="#555555" points="450.21,-1193.24 446.71,-1183.24 443.21,-1193.24 450.21,-1193.24"/>
</g>
<!-- goto03 -->
<g id="node11" class="node">
<title>goto03</title>
<ellipse fill="#ffffff" stroke="#000000" cx="332.71" cy="-697.16" rx="152.91" ry="91.04"/>
<text text-anchor="middle" x="332.71" y="-744.24" font-family="Times,serif" font-size="14.00">Да уж, я все еще пытаюсь</text>
<text text-anchor="middle" x="332.71" y="-726.99" font-family="Times,serif" font-size="14.00">решить. Так трудно</text>
<text text-anchor="middle" x="332.71" y="-709.74" font-family="Times,serif" font-size="14.00">выбрать, везде так</text>
<text text-anchor="middle" x="332.71" y="-692.49" font-family="Times,serif" font-size="14.00">весело. Кстати, если</text>
<text text-anchor="middle" x="332.71" y="-675.24" font-family="Times,serif" font-size="14.00">захочешь спать на верхней</text>
<text text-anchor="middle" x="332.71" y="-657.99" font-family="Times,serif" font-size="14.00">кровати, то я не против,</text>
<text text-anchor="middle" x="332.71" y="-640.74" font-family="Times,serif" font-size="14.00">просто дай мне знать.</text>
</g>
<!-- goto00&#45;&gt;goto03 -->
<g id="edge8" class="edge">
<title>goto00&#45;&gt;goto03</title>
<path fill="none" stroke="#008c99" d="M407.32,-930.7C393.35,-887.15 377.81,-838.72 364.55,-797.39"/>
<polygon fill="#008c99" stroke="#008c99" points="367.62,-796.49 361.23,-788.04 360.95,-798.63 367.62,-796.49"/>
<text text-anchor="middle" x="454.34" y="-895.54" font-family="Times,serif" font-size="14.00" fill="#008c99">Я пока думаю.</text>
</g>
<!-- goto01 -->
<g id="node12" class="node">
<title>goto01</title>
<ellipse fill="#ffffff" stroke="#000000" cx="658.71" cy="-697.16" rx="155.56" ry="176.42"/>
<text text-anchor="middle" x="658.71" y="-804.61" font-family="Times,serif" font-size="14.00">Да уж, быть рыцарем</text>
<text text-anchor="middle" x="658.71" y="-787.36" font-family="Times,serif" font-size="14.00">здорово, много всего</text>
<text text-anchor="middle" x="658.71" y="-770.11" font-family="Times,serif" font-size="14.00">насмотришься, во всем</text>
<text text-anchor="middle" x="658.71" y="-752.86" font-family="Times,serif" font-size="14.00">поучаствуешь и можно</text>
<text text-anchor="middle" x="658.71" y="-735.61" font-family="Times,serif" font-size="14.00">делать все эти</text>
<text text-anchor="middle" x="658.71" y="-718.36" font-family="Times,serif" font-size="14.00">устройства. Я еще сам не</text>
<text text-anchor="middle" x="658.71" y="-701.11" font-family="Times,serif" font-size="14.00">решил, но меня тянет в</text>
<text text-anchor="middle" x="658.71" y="-683.86" font-family="Times,serif" font-size="14.00">рыцари. Я тебя еще не</text>
<text text-anchor="middle" x="658.71" y="-666.61" font-family="Times,serif" font-size="14.00">утомил? Кое&#45;кто говорит,</text>
<text text-anchor="middle" x="658.71" y="-649.36" font-family="Times,serif" font-size="14.00">что я слишком много</text>
<text text-anchor="middle" x="658.71" y="-632.11" font-family="Times,serif" font-size="14.00">болтаю, но я думаю, что</text>
<text text-anchor="middle" x="658.71" y="-614.86" font-family="Times,serif" font-size="14.00">они просто ничего не</text>
<text text-anchor="middle" x="658.71" y="-597.61" font-family="Times,serif" font-size="14.00">понимают. Мне просто есть</text>
<text text-anchor="middle" x="658.71" y="-580.36" font-family="Times,serif" font-size="14.00">что сказать.</text>
</g>
<!-- goto00&#45;&gt;goto01 -->
<g id="edge9" class="edge">
<title>goto00&#45;&gt;goto01</title>
<path fill="none" stroke="#997900" d="M514.67,-939.58C531.06,-912.11 548.85,-882.29 566.16,-853.29"/>
<polygon fill="#997900" stroke="#997900" points="569.64,-855.28 571.76,-844.9 563.63,-851.69 569.64,-855.28"/>
<text text-anchor="middle" x="570.34" y="-895.54" font-family="Times,serif" font-size="14.00" fill="#997900">Рыцарь.</text>
</g>
<!-- goto02 -->
<g id="node13" class="node">
<title>goto02</title>
<ellipse fill="#ffffff" stroke="#000000" cx="987.71" cy="-697.16" rx="155.56" ry="164.23"/>
<text text-anchor="middle" x="987.71" y="-795.99" font-family="Times,serif" font-size="14.00">Да уж, писцы занимаются</text>
<text text-anchor="middle" x="987.71" y="-778.74" font-family="Times,serif" font-size="14.00">творческой работой. Было</text>
<text text-anchor="middle" x="987.71" y="-761.49" font-family="Times,serif" font-size="14.00">бы здорово изобретать</text>
<text text-anchor="middle" x="987.71" y="-744.24" font-family="Times,serif" font-size="14.00">новое оружие или</text>
<text text-anchor="middle" x="987.71" y="-726.99" font-family="Times,serif" font-size="14.00">модифицировать старое, и</text>
<text text-anchor="middle" x="987.71" y="-709.74" font-family="Times,serif" font-size="14.00">вести учет всего и вся в</text>
<text text-anchor="middle" x="987.71" y="-692.49" font-family="Times,serif" font-size="14.00">Братстве. Я тебя еще не</text>
<text text-anchor="middle" x="987.71" y="-675.24" font-family="Times,serif" font-size="14.00">утомил? Кое&#45;кто говорит,</text>
<text text-anchor="middle" x="987.71" y="-657.99" font-family="Times,serif" font-size="14.00">что я слишком много</text>
<text text-anchor="middle" x="987.71" y="-640.74" font-family="Times,serif" font-size="14.00">болтаю, но я думаю, что</text>
<text text-anchor="middle" x="987.71" y="-623.49" font-family="Times,serif" font-size="14.00">они просто ничего не</text>
<text text-anchor="middle" x="987.71" y="-606.24" font-family="Times,serif" font-size="14.00">понимают. Мне просто есть</text>
<text text-anchor="middle" x="987.71" y="-588.99" font-family="Times,serif" font-size="14.00">что сказать.</text>
</g>
<!-- goto00&#45;&gt;goto02 -->
<g id="edge10" class="edge">
<title>goto00&#45;&gt;goto02</title>
<path fill="none" stroke="#4c0099" d="M587.98,-1000.94C661.91,-969.88 751.75,-926.29 823.71,-873.59 842.09,-860.13 860.09,-844.43 877.04,-828.05"/>
<polygon fill="#4c0099" stroke="#4c0099" points="879.07,-830.98 883.76,-821.48 874.17,-825.99 879.07,-830.98"/>
<text text-anchor="middle" x="821.84" y="-895.54" font-family="Times,serif" font-size="14.00" fill="#4c0099">Писец.</text>
</g>
<!-- goto04 -->
<g id="node14" class="node">
<title>goto04</title>
<ellipse fill="#ffffff" stroke="#000000" cx="235.71" cy="-261.62" rx="146.55" ry="78.84"/>
<text text-anchor="middle" x="235.71" y="-300.07" font-family="Times,serif" font-size="14.00">С тобой все в порядке?</text>
<text text-anchor="middle" x="235.71" y="-282.82" font-family="Times,serif" font-size="14.00">Может, тебе надо сходить</text>
<text text-anchor="middle" x="235.71" y="-265.57" font-family="Times,serif" font-size="14.00">к доктору или просто</text>
<text text-anchor="middle" x="235.71" y="-248.32" font-family="Times,serif" font-size="14.00">хорошенько выспаться?</text>
<text text-anchor="middle" x="235.71" y="-231.07" font-family="Times,serif" font-size="14.00">Ладно, пойду я лучше</text>
<text text-anchor="middle" x="235.71" y="-213.82" font-family="Times,serif" font-size="14.00">поучусь. До свиданья.</text>
</g>
<!-- goto00&#45;&gt;goto04 -->
<g id="edge11" class="edge">
<title>goto00&#45;&gt;goto04</title>
<path fill="none" stroke="#009920" d="M301.8,-1007.45C238.75,-979.39 171.08,-936.52 134.71,-873.59 37.71,-705.68 127.53,-471.09 189.07,-347.13"/>
<polygon fill="#009920" stroke="#009920" points="192.65,-348.81 194.01,-338.31 186.39,-345.67 192.65,-348.81"/>
<text text-anchor="middle" x="152.71" y="-692.49" font-family="Times,serif" font-size="14.00" fill="#009920">У&#45;ук.</text>
</g>
<!-- goto03&#45;&gt;goto04 -->
<g id="edge16" class="edge">
<title>goto03&#45;&gt;goto04</title>
<path fill="none" stroke="#009972" d="M312.67,-606.6C295.88,-531.53 272.04,-424.96 255.35,-350.4"/>
<polygon fill="#009972" stroke="#009972" points="258.65,-350.09 253.05,-341.1 251.82,-351.62 258.65,-350.09"/>
<text text-anchor="middle" x="343.59" y="-480.82" font-family="Times,serif" font-size="14.00" fill="#009972">Спасибо. Пока.</text>
</g>
<!-- goto06 -->
<g id="node15" class="node">
<title>goto06</title>
<ellipse fill="#ffffff" stroke="#000000" cx="869.71" cy="-261.62" rx="150.26" ry="188.62"/>
<text text-anchor="middle" x="869.71" y="-377.7" font-family="Times,serif" font-size="14.00">Да, и я так подумал. Да,</text>
<text text-anchor="middle" x="869.71" y="-360.45" font-family="Times,serif" font-size="14.00">кстати, я рад, что мы</text>
<text text-anchor="middle" x="869.71" y="-343.2" font-family="Times,serif" font-size="14.00">будем соседями по</text>
<text text-anchor="middle" x="869.71" y="-325.95" font-family="Times,serif" font-size="14.00">комнате. Мой прежний</text>
<text text-anchor="middle" x="869.71" y="-308.7" font-family="Times,serif" font-size="14.00">сосед все время затыкал</text>
<text text-anchor="middle" x="869.71" y="-291.45" font-family="Times,serif" font-size="14.00">уши ватой, не могу понять</text>
<text text-anchor="middle" x="869.71" y="-274.2" font-family="Times,serif" font-size="14.00">почему. В любом случае,</text>
<text text-anchor="middle" x="869.71" y="-256.95" font-family="Times,serif" font-size="14.00">оставляй тут все что</text>
<text text-anchor="middle" x="869.71" y="-239.7" font-family="Times,serif" font-size="14.00">хочешь, моих вещей тут</text>
<text text-anchor="middle" x="869.71" y="-222.45" font-family="Times,serif" font-size="14.00">мало. Хочешь спать на</text>
<text text-anchor="middle" x="869.71" y="-205.2" font-family="Times,serif" font-size="14.00">верхней кровати? Я готов</text>
<text text-anchor="middle" x="869.71" y="-187.95" font-family="Times,serif" font-size="14.00">с тобой поменяться, если</text>
<text text-anchor="middle" x="869.71" y="-170.7" font-family="Times,serif" font-size="14.00">хочешь... ты ведь не</text>
<text text-anchor="middle" x="869.71" y="-153.45" font-family="Times,serif" font-size="14.00">храпишь, правда? Ладно,</text>
<text text-anchor="middle" x="869.71" y="-136.2" font-family="Times,serif" font-size="14.00">это неважно. До встречи.</text>
</g>
<!-- goto01&#45;&gt;goto06 -->
<g id="edge12" class="edge">
<title>goto01&#45;&gt;goto06</title>
<path fill="none" stroke="#99000d" d="M686.65,-523.18C692.31,-504.22 699.09,-485.54 707.21,-468.24 718.92,-443.32 734.18,-418.69 750.65,-395.61"/>
<polygon fill="#99000d" stroke="#99000d" points="753.97,-397.99 757.01,-387.84 748.31,-393.87 753.97,-397.99"/>
<text text-anchor="middle" x="768.46" y="-480.82" font-family="Times,serif" font-size="14.00" fill="#99000d">Нет, совсем нет.</text>
</g>
<!-- goto05 -->
<g id="node16" class="node">
<title>goto05</title>
<ellipse fill="#ffffff" stroke="#000000" cx="550.71" cy="-261.62" rx="150.26" ry="176.42"/>
<text text-anchor="middle" x="550.71" y="-369.07" font-family="Times,serif" font-size="14.00">Да, кстати, я рад, что мы</text>
<text text-anchor="middle" x="550.71" y="-351.82" font-family="Times,serif" font-size="14.00">будем соседями по</text>
<text text-anchor="middle" x="550.71" y="-334.57" font-family="Times,serif" font-size="14.00">комнате. Мой прежний</text>
<text text-anchor="middle" x="550.71" y="-317.32" font-family="Times,serif" font-size="14.00">сосед все время затыкал</text>
<text text-anchor="middle" x="550.71" y="-300.07" font-family="Times,serif" font-size="14.00">уши ватой, не могу понять</text>
<text text-anchor="middle" x="550.71" y="-282.82" font-family="Times,serif" font-size="14.00">почему. В любом случае,</text>
<text text-anchor="middle" x="550.71" y="-265.57" font-family="Times,serif" font-size="14.00">оставляй тут все что</text>
<text text-anchor="middle" x="550.71" y="-248.32" font-family="Times,serif" font-size="14.00">хочешь, моих вещей тут</text>
<text text-anchor="middle" x="550.71" y="-231.07" font-family="Times,serif" font-size="14.00">мало. Хочешь спать на</text>
<text text-anchor="middle" x="550.71" y="-213.82" font-family="Times,serif" font-size="14.00">верхней кровати? Я готов</text>
<text text-anchor="middle" x="550.71" y="-196.57" font-family="Times,serif" font-size="14.00">с тобой поменяться, если</text>
<text text-anchor="middle" x="550.71" y="-179.32" font-family="Times,serif" font-size="14.00">хочешь... ты ведь не</text>
<text text-anchor="middle" x="550.71" y="-162.07" font-family="Times,serif" font-size="14.00">храпишь, правда? Ладно,</text>
<text text-anchor="middle" x="550.71" y="-144.82" font-family="Times,serif" font-size="14.00">это неважно. До встречи.</text>
</g>
<!-- goto01&#45;&gt;goto05 -->
<g id="edge13" class="edge">
<title>goto01&#45;&gt;goto05</title>
<path fill="none" stroke="#003a99" d="M543.19,-578.29C526.39,-554.9 511.62,-529.31 502.21,-502.74 494.71,-481.54 492.38,-458.86 493.4,-436.2"/>
<polygon fill="#003a99" stroke="#003a99" points="496.94,-436.66 494.13,-426.45 489.96,-436.19 496.94,-436.66"/>
<text text-anchor="middle" x="593.46" y="-489.44" font-family="Times,serif" font-size="14.00" fill="#003a99">Мне пора идти. Приятно</text>
<text text-anchor="middle" x="593.46" y="-472.19" font-family="Times,serif" font-size="14.00" fill="#003a99">было познакомиться.</text>
</g>
<!-- goto02&#45;&gt;goto06 -->
<g id="edge14" class="edge">
<title>goto02&#45;&gt;goto06</title>
<path fill="none" stroke="#669900" d="M1041.17,-542.57C1043.55,-517.41 1041.98,-491.86 1033.71,-468.24 1024.18,-440.99 1009.34,-414.65 992.42,-390.44"/>
<polygon fill="#669900" stroke="#669900" points="994.76,-388.71 986.09,-382.62 989.07,-392.79 994.76,-388.71"/>
<text text-anchor="middle" x="1102.46" y="-480.82" font-family="Times,serif" font-size="14.00" fill="#669900">Нет, совсем нет.</text>
</g>
<!-- goto02&#45;&gt;goto05 -->
<g id="edge15" class="edge">
<title>goto02&#45;&gt;goto05</title>
<path fill="none" stroke="#990093" d="M891.91,-567.47C876.89,-546.12 861.84,-524.01 848.21,-502.74 838.72,-487.91 843.21,-478.24 828.71,-468.24 785.05,-438.12 757.07,-476.05 710.71,-450.24 689.93,-438.67 670.63,-423.28 653.16,-406.28"/>
<polygon fill="#990093" stroke="#990093" points="656.32,-404.5 646.78,-399.91 651.37,-409.45 656.32,-404.5"/>
<text text-anchor="middle" x="939.46" y="-489.44" font-family="Times,serif" font-size="14.00" fill="#990093">Мне пора идти. Приятно</text>
<text text-anchor="middle" x="939.46" y="-472.19" font-family="Times,serif" font-size="14.00" fill="#990093">было познакомиться.</text>
</g>
<!-- dialog_end -->
<g id="node17" class="node">
<title>dialog_end</title>
<ellipse fill="#ffffff" stroke="#000000" cx="550.71" cy="-18" rx="27" ry="18"/>
</g>
<!-- goto04&#45;&gt;dialog_end -->
<g id="edge17" class="edge">
<title>goto04&#45;&gt;dialog_end</title>
<path fill="none" stroke="#555555" stroke-dasharray="1,5" d="M282.51,-186.61C310.17,-148.07 348.25,-102.88 391.71,-73 429.22,-47.22 480.1,-32.8 514.11,-25.47"/>
<polygon fill="#555555" stroke="#555555" points="514.42,-28.78 523.52,-23.34 513.02,-21.92 514.42,-28.78"/>
</g>
<!-- goto06&#45;&gt;dialog_end -->
<g id="edge19" class="edge">
<title>goto06&#45;&gt;dialog_end</title>
<path fill="none" stroke="#555555" stroke-dasharray="1,5" d="M767.97,-123.02C750.05,-104.49 730.44,-87.06 709.71,-73 672.05,-47.45 621.2,-32.98 587.25,-25.58"/>
<polygon fill="#555555" stroke="#555555" points="588.36,-22.03 577.86,-23.42 586.93,-28.88 588.36,-22.03"/>
</g>
<!-- goto05&#45;&gt;dialog_end -->
<g id="edge18" class="edge">
<title>goto05&#45;&gt;dialog_end</title>
<path fill="none" stroke="#555555" stroke-dasharray="1,5" d="M550.71,-84.7C550.71,-70.51 550.71,-57.61 550.71,-47.07"/>
<polygon fill="#555555" stroke="#555555" points="554.21,-47.24 550.71,-37.24 547.21,-47.24 554.21,-47.24"/>
</g>
<!-- gotoend -->
<g id="node18" class="node">
<title>gotoend</title>
<ellipse fill="#ffffff" stroke="#000000" cx="542.71" cy="-1407.21" rx="27" ry="18"/>
</g>
<!-- get_reaction -->
<g id="node19" class="node">
<title>get_reaction</title>
<ellipse fill="#ffffff" stroke="#000000" cx="614.71" cy="-1407.21" rx="27" ry="18"/>
</g>
<!-- ReactToLevel -->
<g id="node20" class="node">
<title>ReactToLevel</title>
<ellipse fill="#ffffff" stroke="#000000" cx="758.71" cy="-1322.16" rx="27" ry="18"/>
</g>
<!-- get_reaction&#45;&gt;ReactToLevel -->
<g id="edge21" class="edge">
<title>get_reaction&#45;&gt;ReactToLevel</title>
<path fill="none" stroke="#555555" stroke-dasharray="1,5" d="M634.74,-1394.66C659.35,-1380.47 701.3,-1356.27 729.51,-1340"/>
<polygon fill="#555555" stroke="#555555" points="730.95,-1342.63 737.86,-1334.61 727.45,-1336.57 730.95,-1342.63"/>
</g>
<!-- LevelToReact -->
<g id="node21" class="node">
<title>LevelToReact</title>
<ellipse fill="#ffffff" stroke="#000000" cx="1010.71" cy="-1322.16" rx="27" ry="18"/>
</g>
<!-- UpReact -->
<g id="node22" class="node">
<title>UpReact</title>
<ellipse fill="#ffffff" stroke="#000000" cx="686.71" cy="-1407.21" rx="27" ry="18"/>
</g>
<!-- UpReact&#45;&gt;ReactToLevel -->
<g id="edge22" class="edge">
<title>UpReact&#45;&gt;ReactToLevel</title>
<path fill="none" stroke="#555555" stroke-dasharray="1,5" d="M699.59,-1391.36C710.47,-1378.8 726.26,-1360.6 738.78,-1346.15"/>
<polygon fill="#555555" stroke="#555555" points="741.8,-1349 745.71,-1339.15 736.52,-1344.42 741.8,-1349"/>
</g>
<!-- DownReact -->
<g id="node23" class="node">
<title>DownReact</title>
<ellipse fill="#ffffff" stroke="#000000" cx="758.71" cy="-1407.21" rx="27" ry="18"/>
</g>
<!-- DownReact&#45;&gt;ReactToLevel -->
<g id="edge23" class="edge">
<title>DownReact&#45;&gt;ReactToLevel</title>
<path fill="none" stroke="#555555" stroke-dasharray="1,5" d="M758.71,-1389C758.71,-1378.16 758.71,-1363.9 758.71,-1351.43"/>
<polygon fill="#555555" stroke="#555555" points="762.21,-1351.63 758.71,-1341.63 755.21,-1351.63 762.21,-1351.63"/>
</g>
<!-- BottomReact -->
<g id="node24" class="node">
<title>BottomReact</title>
<ellipse fill="#ffffff" stroke="#000000" cx="1118.71" cy="-1407.21" rx="27" ry="18"/>
</g>
<!-- TopReact -->
<g id="node25" class="node">
<title>TopReact</title>
<ellipse fill="#ffffff" stroke="#000000" cx="1190.71" cy="-1407.21" rx="27" ry="18"/>
</g>
<!-- BigUpReact -->
<g id="node26" class="node">
<title>BigUpReact</title>
<ellipse fill="#ffffff" stroke="#000000" cx="830.71" cy="-1407.21" rx="27" ry="18"/>
</g>
<!-- BigUpReact&#45;&gt;ReactToLevel -->
<g id="edge24" class="edge">
<title>BigUpReact&#45;&gt;ReactToLevel</title>
<path fill="none" stroke="#555555" stroke-dasharray="1,5" d="M817.84,-1391.36C806.95,-1378.8 791.17,-1360.6 778.65,-1346.15"/>
<polygon fill="#555555" stroke="#555555" points="780.91,-1344.42 771.72,-1339.15 775.62,-1349 780.91,-1344.42"/>
</g>
<!-- BigDownReact -->
<g id="node27" class="node">
<title>BigDownReact</title>
<ellipse fill="#ffffff" stroke="#000000" cx="902.71" cy="-1407.21" rx="27" ry="18"/>
</g>
<!-- BigDownReact&#45;&gt;ReactToLevel -->
<g id="edge25" class="edge">
<title>BigDownReact&#45;&gt;ReactToLevel</title>
<path fill="none" stroke="#555555" stroke-dasharray="1,5" d="M882.69,-1394.66C858.08,-1380.47 816.12,-1356.27 787.92,-1340"/>
<polygon fill="#555555" stroke="#555555" points="789.98,-1336.57 779.57,-1334.61 786.48,-1342.63 789.98,-1336.57"/>
</g>
<!-- UpReactLevel -->
<g id="node28" class="node">
<title>UpReactLevel</title>
<ellipse fill="#ffffff" stroke="#000000" cx="974.71" cy="-1407.21" rx="27" ry="18"/>
</g>
<!-- UpReactLevel&#45;&gt;LevelToReact -->
<g id="edge26" class="edge">
<title>UpReactLevel&#45;&gt;LevelToReact</title>
<path fill="none" stroke="#555555" stroke-dasharray="1,5" d="M982,-1389.4C986.93,-1378.03 993.54,-1362.77 999.18,-1349.77"/>
<polygon fill="#555555" stroke="#555555" points="1002.67,-1351.5 1003.44,-1340.94 996.25,-1348.72 1002.67,-1351.5"/>
</g>
<!-- DownReactLevel -->
<g id="node29" class="node">
<title>DownReactLevel</title>
<ellipse fill="#ffffff" stroke="#000000" cx="1046.71" cy="-1407.21" rx="27" ry="18"/>
</g>
<!-- DownReactLevel&#45;&gt;LevelToReact -->
<g id="edge27" class="edge">
<title>DownReactLevel&#45;&gt;LevelToReact</title>
<path fill="none" stroke="#555555" stroke-dasharray="1,5" d="M1039.43,-1389.4C1034.5,-1378.03 1027.89,-1362.77 1022.25,-1349.77"/>
<polygon fill="#555555" stroke="#555555" points="1025.18,-1348.72 1017.99,-1340.94 1018.75,-1351.5 1025.18,-1348.72"/>
</g>
<!-- Goodbyes -->
<g id="node30" class="node">
<title>Goodbyes</title>
<ellipse fill="#ffffff" stroke="#000000" cx="1262.71" cy="-1407.21" rx="27" ry="18"/>
</g>
</g>
</svg>
