<?xml version="1.0" encoding="UTF-8" standalone="no"?>
<!DOCTYPE svg PUBLIC "-//W3C//DTD SVG 1.1//EN"
 "http://www.w3.org/Graphics/SVG/1.1/DTD/svg11.dtd">
<!-- Generated by graphviz version 8.0.5 (0)
 -->
<!-- Title: romero Pages: 1 -->
<svg width="2104pt" height="1105pt"
 viewBox="0.00 0.00 2103.85 1105.41" xmlns="http://www.w3.org/2000/svg" xmlns:xlink="http://www.w3.org/1999/xlink">
<g id="graph0" class="graph" transform="scale(1 1) rotate(0) translate(4 1101.41)">
<title>romero</title>
<polygon fill="white" stroke="none" points="-4,4 -4,-1101.41 2099.85,-1101.41 2099.85,4 -4,4"/>
<!-- start -->
<g id="node1" class="node">
<title>start</title>
<ellipse fill="#ffffff" stroke="#000000" cx="134.35" cy="-1079.41" rx="27" ry="18"/>
</g>
<!-- description_p_proc -->
<g id="node2" class="node">
<title>description_p_proc</title>
<ellipse fill="#ffffff" stroke="#000000" cx="134.35" cy="-957.76" rx="134.35" ry="30.05"/>
<text text-anchor="middle" x="134.35" y="-961.71" font-family="Times,serif" font-size="14.00">Вы видите члена банды</text>
<text text-anchor="middle" x="134.35" y="-944.46" font-family="Times,serif" font-size="14.00">Клинков.</text>
</g>
<!-- start&#45;&gt;description_p_proc -->
<g id="edge1" class="edge">
<title>start&#45;&gt;description_p_proc</title>
<path fill="none" stroke="#555555" stroke-dasharray="1,5" d="M134.35,-1061.01C134.35,-1044.86 134.35,-1020.21 134.35,-999.16"/>
<polygon fill="#555555" stroke="#555555" points="137.85,-999.22 134.35,-989.22 130.85,-999.22 137.85,-999.22"/>
</g>
<!-- look_at_p_proc -->
<g id="node3" class="node">
<title>look_at_p_proc</title>
<ellipse fill="#ffffff" stroke="#000000" cx="294.35" cy="-1079.41" rx="109.61" ry="18"/>
<text text-anchor="middle" x="294.35" y="-1074.73" font-family="Times,serif" font-size="14.00">Вы видите Ромеро.</text>
</g>
<!-- critter_p_proc -->
<g id="node4" class="node">
<title>critter_p_proc</title>
<ellipse fill="#ffffff" stroke="#000000" cx="585.35" cy="-1079.41" rx="27" ry="18"/>
</g>
<!-- damage_p_proc -->
<g id="node5" class="node">
<title>damage_p_proc</title>
<ellipse fill="#ffffff" stroke="#000000" cx="725.35" cy="-1079.41" rx="27" ry="18"/>
</g>
<!-- pickup_p_proc -->
<g id="node6" class="node">
<title>pickup_p_proc</title>
<ellipse fill="#ffffff" stroke="#000000" cx="831.35" cy="-1079.41" rx="27" ry="18"/>
</g>
<!-- destroy_p_proc -->
<g id="node7" class="node">
<title>destroy_p_proc</title>
<ellipse fill="#ffffff" stroke="#000000" cx="920.35" cy="-1079.41" rx="27" ry="18"/>
</g>
<!-- talk_p_proc -->
<g id="node8" class="node">
<title>talk_p_proc</title>
<ellipse fill="#ffffff" stroke="#000000" cx="1001.35" cy="-1079.41" rx="27" ry="18"/>
</g>
<!-- Romero06 -->
<g id="node9" class="node">
<title>Romero06</title>
<ellipse fill="#ffffff" stroke="#000000" cx="405.35" cy="-957.76" rx="118.97" ry="30.05"/>
<text text-anchor="middle" x="405.35" y="-961.71" font-family="Times,serif" font-size="14.00">Проваливай! Сейчас</text>
<text text-anchor="middle" x="405.35" y="-944.46" font-family="Times,serif" font-size="14.00">слишком поздно.</text>
</g>
<!-- talk_p_proc&#45;&gt;Romero06 -->
<g id="edge2" class="edge">
<title>talk_p_proc&#45;&gt;Romero06</title>
<path fill="none" stroke="#555555" stroke-dasharray="1,5" d="M979.29,-1068.7C972.1,-1065.91 964,-1063.15 956.35,-1061.41 772.36,-1019.45 714.69,-1076.66 533.35,-1024.41 507.21,-1016.87 480.14,-1003.87 457.66,-991.41"/>
<polygon fill="#555555" stroke="#555555" points="459.75,-988 449.32,-986.12 456.3,-994.09 459.75,-988"/>
</g>
<!-- Romero13 -->
<g id="node10" class="node">
<title>Romero13</title>
<ellipse fill="#ffffff" stroke="#000000" cx="694.35" cy="-957.76" rx="152.38" ry="66.64"/>
<text text-anchor="middle" x="694.35" y="-987.59" font-family="Times,serif" font-size="14.00">Спасибо тебе! Она</text>
<text text-anchor="middle" x="694.35" y="-970.34" font-family="Times,serif" font-size="14.00">прислала мне записку. Мы</text>
<text text-anchor="middle" x="694.35" y="-953.09" font-family="Times,serif" font-size="14.00">собираемся встретиться у</text>
<text text-anchor="middle" x="694.35" y="-935.84" font-family="Times,serif" font-size="14.00">Последователей и</text>
<text text-anchor="middle" x="694.35" y="-918.59" font-family="Times,serif" font-size="14.00">пожениться.</text>
</g>
<!-- talk_p_proc&#45;&gt;Romero13 -->
<g id="edge3" class="edge">
<title>talk_p_proc&#45;&gt;Romero13</title>
<path fill="none" stroke="#555555" stroke-dasharray="1,5" d="M978.47,-1069.71C971.39,-1067.04 963.55,-1064.09 956.35,-1061.41 911.54,-1044.74 899.94,-1041.66 855.35,-1024.41 841.98,-1019.24 828.04,-1013.73 814.19,-1008.18"/>
<polygon fill="#555555" stroke="#555555" points="815.71,-1004.62 805.13,-1004.14 813.1,-1011.11 815.71,-1004.62"/>
</g>
<!-- Romero14 -->
<g id="node11" class="node">
<title>Romero14</title>
<ellipse fill="#ffffff" stroke="#000000" cx="1005.35" cy="-957.76" rx="140.71" ry="42.25"/>
<text text-anchor="middle" x="1005.35" y="-970.34" font-family="Times,serif" font-size="14.00">Проваливай отсюда, мне</text>
<text text-anchor="middle" x="1005.35" y="-953.09" font-family="Times,serif" font-size="14.00">уже рассказали, что</text>
<text text-anchor="middle" x="1005.35" y="-935.84" font-family="Times,serif" font-size="14.00">случилось!</text>
</g>
<!-- talk_p_proc&#45;&gt;Romero14 -->
<g id="edge4" class="edge">
<title>talk_p_proc&#45;&gt;Romero14</title>
<path fill="none" stroke="#555555" stroke-dasharray="1,5" d="M1001.93,-1061.01C1002.37,-1047.91 1002.99,-1029.23 1003.59,-1011.41"/>
<polygon fill="#555555" stroke="#555555" points="1007.12,-1011.59 1003.96,-1001.48 1000.12,-1011.36 1007.12,-1011.59"/>
</g>
<!-- Romero00 -->
<g id="node12" class="node">
<title>Romero00</title>
<ellipse fill="#ffffff" stroke="#000000" cx="1313.35" cy="-957.76" rx="149.73" ry="54.45"/>
<text text-anchor="middle" x="1313.35" y="-978.96" font-family="Times,serif" font-size="14.00">Стоять!</text>
<text text-anchor="middle" x="1313.35" y="-961.71" font-family="Times,serif" font-size="14.00">&#45;&#45;&#45;</text>
<text text-anchor="middle" x="1313.35" y="-944.46" font-family="Times,serif" font-size="14.00">Ты доставил мое послание</text>
<text text-anchor="middle" x="1313.35" y="-927.21" font-family="Times,serif" font-size="14.00">и кулон Джулиане?</text>
</g>
<!-- talk_p_proc&#45;&gt;Romero00 -->
<g id="edge5" class="edge">
<title>talk_p_proc&#45;&gt;Romero00</title>
<path fill="none" stroke="#555555" stroke-dasharray="1,5" d="M1022.46,-1067.85C1027.3,-1065.59 1032.46,-1063.32 1037.35,-1061.41 1088.54,-1041.4 1103.7,-1043.19 1155.35,-1024.41 1172.39,-1018.21 1190.28,-1011.24 1207.65,-1004.21"/>
<polygon fill="#555555" stroke="#555555" points="1208.86,-1007.09 1216.81,-1000.08 1206.22,-1000.61 1208.86,-1007.09"/>
</g>
<!-- Romero01 -->
<g id="node14" class="node">
<title>Romero01</title>
<ellipse fill="#ffffff" stroke="#000000" cx="1068.35" cy="-790.57" rx="135.41" ry="30.05"/>
<text text-anchor="middle" x="1068.35" y="-794.52" font-family="Times,serif" font-size="14.00">Вопросы здесь задаю я!</text>
<text text-anchor="middle" x="1068.35" y="-777.27" font-family="Times,serif" font-size="14.00">Что ты здесь делаешь?</text>
</g>
<!-- Romero00&#45;&gt;Romero01 -->
<g id="edge6" class="edge">
<title>Romero00&#45;&gt;Romero01</title>
<path fill="none" stroke="#990076" d="M1243.14,-909.42C1203.39,-882.62 1154.58,-849.71 1118.66,-825.49"/>
<polygon fill="#990076" stroke="#990076" points="1121.06,-822.21 1110.81,-819.52 1117.15,-828.02 1121.06,-822.21"/>
<text text-anchor="middle" x="1265.35" y="-859.82" font-family="Times,serif" font-size="14.00" fill="#990076">Что? Что ты имеешь в</text>
<text text-anchor="middle" x="1265.35" y="-842.57" font-family="Times,serif" font-size="14.00" fill="#990076">виду?</text>
</g>
<!-- Romero07 -->
<g id="node15" class="node">
<title>Romero07</title>
<ellipse fill="#ffffff" stroke="#000000" cx="1465.35" cy="-790.57" rx="149.2" ry="30.05"/>
<text text-anchor="middle" x="1465.35" y="-794.52" font-family="Times,serif" font-size="14.00">Ну, я могу попросить тебя</text>
<text text-anchor="middle" x="1465.35" y="-777.27" font-family="Times,serif" font-size="14.00">об одной услуге.</text>
</g>
<!-- Romero00&#45;&gt;Romero07 -->
<g id="edge7" class="edge">
<title>Romero00&#45;&gt;Romero07</title>
<path fill="none" stroke="#00998f" d="M1360.2,-905.85C1383.19,-880.86 1410.38,-851.3 1431.36,-828.51"/>
<polygon fill="#00998f" stroke="#00998f" points="1433.59,-831.17 1437.78,-821.44 1428.43,-826.43 1433.59,-831.17"/>
<text text-anchor="middle" x="1501.98" y="-859.82" font-family="Times,serif" font-size="14.00" fill="#00998f">Я просто хочу помочь</text>
<text text-anchor="middle" x="1501.98" y="-842.57" font-family="Times,serif" font-size="14.00" fill="#00998f">чем&#45;нибудь.</text>
</g>
<!-- kulon -->
<g id="node16" class="node">
<title>kulon</title>
<ellipse fill="#ffffff" stroke="#000000" cx="1765.35" cy="-790.57" rx="132.76" ry="30.05"/>
<text text-anchor="middle" x="1765.35" y="-794.52" font-family="Times,serif" font-size="14.00">Вот и хорошо. Приходи</text>
<text text-anchor="middle" x="1765.35" y="-777.27" font-family="Times,serif" font-size="14.00">когда все сделаешь.</text>
</g>
<!-- Romero00&#45;&gt;kulon -->
<g id="edge8" class="edge">
<title>Romero00&#45;&gt;kulon</title>
<path fill="none" stroke="#996300" d="M1431.73,-924.15C1480.14,-909.87 1536.41,-892.05 1586.35,-873.12 1625.29,-858.35 1667.76,-839.15 1701.55,-823.08"/>
<polygon fill="#996300" stroke="#996300" points="1702.78,-825.9 1710.29,-818.42 1699.76,-819.58 1702.78,-825.9"/>
<text text-anchor="middle" x="1742.1" y="-851.19" font-family="Times,serif" font-size="14.00" fill="#996300">Я работаю над этим.</text>
</g>
<!-- RomeroEnd -->
<g id="node17" class="node">
<title>RomeroEnd</title>
<ellipse fill="#ffffff" stroke="#000000" cx="867.35" cy="-127.45" rx="27" ry="18"/>
</g>
<!-- Romero00&#45;&gt;RomeroEnd -->
<g id="edge9" class="edge">
<title>Romero00&#45;&gt;RomeroEnd</title>
<path fill="none" stroke="#360099" d="M1222.48,-914.13C1200.86,-905.36 1177.6,-897.02 1155.35,-891.12 1069.41,-868.32 361.35,-880.48 361.35,-791.57 361.35,-791.57 361.35,-791.57 361.35,-342.43 361.35,-240.33 715.25,-159.34 831.11,-135.56"/>
<polygon fill="#360099" stroke="#360099" points="831.46,-138.86 840.56,-133.44 830.07,-132 831.46,-138.86"/>
<text text-anchor="middle" x="447.23" y="-618.69" font-family="Times,serif" font-size="14.00" fill="#360099">Ладно, пойду я отсюда.</text>
</g>
<!-- map_enter_p_proc -->
<g id="node13" class="node">
<title>map_enter_p_proc</title>
<ellipse fill="#ffffff" stroke="#000000" cx="1156.35" cy="-1079.41" rx="109.61" ry="18"/>
<text text-anchor="middle" x="1156.35" y="-1074.73" font-family="Times,serif" font-size="14.00">Вы видите Ромеро.</text>
</g>
<!-- Romero02 -->
<g id="node18" class="node">
<title>Romero02</title>
<ellipse fill="#ffffff" stroke="#000000" cx="905.35" cy="-623.37" rx="147.08" ry="30.05"/>
<text text-anchor="middle" x="905.35" y="-627.32" font-family="Times,serif" font-size="14.00">Значит, ты не там ищешь.</text>
<text text-anchor="middle" x="905.35" y="-610.07" font-family="Times,serif" font-size="14.00">Вали отсюда.</text>
</g>
<!-- Romero01&#45;&gt;Romero02 -->
<g id="edge10" class="edge">
<title>Romero01&#45;&gt;Romero02</title>
<path fill="none" stroke="#009909" d="M959.35,-772.4C943.45,-765.48 928.78,-755.85 917.85,-742.51 900.25,-721.05 897.7,-689.5 899.24,-664.4"/>
<polygon fill="#009909" stroke="#009909" points="902.79,-665 900.16,-654.74 895.82,-664.4 902.79,-665"/>
<text text-anchor="middle" x="988.1" y="-720.59" font-family="Times,serif" font-size="14.00" fill="#009909">Я ищу здесь друга.</text>
</g>
<!-- Romero03 -->
<g id="node19" class="node">
<title>Romero03</title>
<ellipse fill="#ffffff" stroke="#000000" cx="1227.35" cy="-623.37" rx="157.15" ry="66.64"/>
<text text-anchor="middle" x="1227.35" y="-653.19" font-family="Times,serif" font-size="14.00">Ты, наверное, из тех</text>
<text text-anchor="middle" x="1227.35" y="-635.94" font-family="Times,serif" font-size="14.00">хитрых типов в фиолетовых</text>
<text text-anchor="middle" x="1227.35" y="-618.69" font-family="Times,serif" font-size="14.00">робах. Катись&#45;ка отсюда</text>
<text text-anchor="middle" x="1227.35" y="-601.44" font-family="Times,serif" font-size="14.00">по&#45;хорошему, пока мы тебе</text>
<text text-anchor="middle" x="1227.35" y="-584.19" font-family="Times,serif" font-size="14.00">не вышибли мозги.</text>
</g>
<!-- Romero01&#45;&gt;Romero03 -->
<g id="edge11" class="edge">
<title>Romero01&#45;&gt;Romero03</title>
<path fill="none" stroke="#990023" d="M1061.88,-760.38C1059.83,-743.86 1060.14,-723.47 1069.6,-708.01 1077.69,-694.8 1088.63,-683.56 1101,-674.03"/>
<polygon fill="#990023" stroke="#990023" points="1102.71,-676.38 1108.77,-667.69 1098.62,-670.71 1102.71,-676.38"/>
<text text-anchor="middle" x="1168.23" y="-720.59" font-family="Times,serif" font-size="14.00" fill="#990023">Я хочу поговорить о мире.</text>
</g>
<!-- Romero01&#45;&gt;Romero03 -->
<g id="edge12" class="edge">
<title>Romero01&#45;&gt;Romero03</title>
<path fill="none" stroke="#005099" d="M1183.59,-774.41C1220.21,-767.07 1254.16,-756.69 1265.35,-742.51 1275.53,-729.61 1276.27,-713.91 1272.29,-698.22"/>
<polygon fill="#005099" stroke="#005099" points="1275.4,-697.42 1269.05,-688.94 1268.72,-699.53 1275.4,-697.42"/>
<text text-anchor="middle" x="1359.73" y="-729.21" font-family="Times,serif" font-size="14.00" fill="#005099">Я хочу закончить эту</text>
<text text-anchor="middle" x="1359.73" y="-711.96" font-family="Times,serif" font-size="14.00" fill="#005099">войну между бандами!</text>
</g>
<!-- RomeroCombat -->
<g id="node20" class="node">
<title>RomeroCombat</title>
<ellipse fill="#ffffff" stroke="#000000" cx="624.35" cy="-343.43" rx="27" ry="18"/>
</g>
<!-- Romero01&#45;&gt;RomeroCombat -->
<g id="edge13" class="edge">
<title>Romero01&#45;&gt;RomeroCombat</title>
<path fill="none" stroke="#7d9900" d="M938.76,-781.36C809.24,-770.14 623.09,-744.75 578.35,-690.01 500.35,-594.57 575.57,-432.27 609.59,-369.89"/>
<polygon fill="#7d9900" stroke="#7d9900" points="613.05,-371.87 614.85,-361.43 606.93,-368.47 613.05,-371.87"/>
<text text-anchor="middle" x="663.85" y="-618.69" font-family="Times,serif" font-size="14.00" fill="#7d9900">Я хочу крови Клинков!</text>
</g>
<!-- Romero09 -->
<g id="node23" class="node">
<title>Romero09</title>
<ellipse fill="#ffffff" stroke="#000000" cx="1559.35" cy="-623.37" rx="157.15" ry="66.64"/>
<text text-anchor="middle" x="1559.35" y="-653.19" font-family="Times,serif" font-size="14.00">Кажется, я влюбился в</text>
<text text-anchor="middle" x="1559.35" y="-635.94" font-family="Times,serif" font-size="14.00">одну девушку в Святилище.</text>
<text text-anchor="middle" x="1559.35" y="-618.69" font-family="Times,serif" font-size="14.00">Но я не могу с ней</text>
<text text-anchor="middle" x="1559.35" y="-601.44" font-family="Times,serif" font-size="14.00">сблизиться, потому что</text>
<text text-anchor="middle" x="1559.35" y="-584.19" font-family="Times,serif" font-size="14.00">очень стесняюсь.</text>
</g>
<!-- Romero07&#45;&gt;Romero09 -->
<g id="edge19" class="edge">
<title>Romero07&#45;&gt;Romero09</title>
<path fill="none" stroke="#990056" d="M1481.94,-760.41C1491.85,-742.99 1504.93,-720 1517.51,-697.89"/>
<polygon fill="#990056" stroke="#990056" points="1520.96,-699.91 1522.87,-689.49 1514.88,-696.45 1520.96,-699.91"/>
<text text-anchor="middle" x="1571.48" y="-720.59" font-family="Times,serif" font-size="14.00" fill="#990056">И что за услуга?</text>
</g>
<!-- Romero11 -->
<g id="node24" class="node">
<title>Romero11</title>
<ellipse fill="#ffffff" stroke="#000000" cx="1726.35" cy="-127.45" rx="137.53" ry="42.25"/>
<text text-anchor="middle" x="1726.35" y="-140.02" font-family="Times,serif" font-size="14.00">С такими друзьями, как</text>
<text text-anchor="middle" x="1726.35" y="-122.77" font-family="Times,serif" font-size="14.00">ты, и врагов не надо.</text>
<text text-anchor="middle" x="1726.35" y="-105.52" font-family="Times,serif" font-size="14.00">Прощай!</text>
</g>
<!-- Romero07&#45;&gt;Romero11 -->
<g id="edge20" class="edge">
<title>Romero07&#45;&gt;Romero11</title>
<path fill="none" stroke="#008399" d="M1562.74,-767.55C1587.2,-760.73 1613.1,-752.36 1636.35,-742.51 1807.26,-670.11 1859.36,-610.46 1918.35,-434.47 1944.07,-357.75 1957.06,-323.46 1918.35,-252.39 1897.35,-213.85 1858.65,-185.47 1821.47,-165.67"/>
<polygon fill="#008399" stroke="#008399" points="1823.55,-162.29 1813.06,-160.82 1820.34,-168.52 1823.55,-162.29"/>
<text text-anchor="middle" x="2003.6" y="-499.55" font-family="Times,serif" font-size="14.00" fill="#008399">Ну нет, у меня своих дел</text>
<text text-anchor="middle" x="2003.6" y="-482.3" font-family="Times,serif" font-size="14.00" fill="#008399">полно.</text>
</g>
<!-- Romero03&#45;&gt;RomeroEnd -->
<g id="edge16" class="edge">
<title>Romero03&#45;&gt;RomeroEnd</title>
<path fill="none" stroke="#992f00" d="M1114.32,-576.65C1022.56,-537 904,-479.14 876.35,-434.47 821.27,-345.5 845.58,-212.38 859.75,-155.64"/>
<polygon fill="#992f00" stroke="#992f00" points="863.3,-156.9 862.43,-146.35 856.53,-155.15 863.3,-156.9"/>
<text text-anchor="middle" x="961.85" y="-347.38" font-family="Times,serif" font-size="14.00" fill="#992f00">Простите. Я, наверное,</text>
<text text-anchor="middle" x="961.85" y="-330.13" font-family="Times,serif" font-size="14.00" fill="#992f00">пойду.</text>
</g>
<!-- Romero03&#45;&gt;RomeroCombat -->
<g id="edge15" class="edge">
<title>Romero03&#45;&gt;RomeroCombat</title>
<path fill="none" stroke="#00995c" d="M1120.47,-574.15C1101.13,-567.15 1080.9,-560.91 1061.35,-556.72 1017.76,-547.4 694.24,-567.97 660.6,-538.72 613.16,-497.48 615.05,-415.77 619.97,-372.63"/>
<polygon fill="#00995c" stroke="#00995c" points="623.56,-373.16 621.36,-362.79 616.61,-372.27 623.56,-373.16"/>
<text text-anchor="middle" x="757.73" y="-508.17" font-family="Times,serif" font-size="14.00" fill="#00995c">Мир? Я сейчас тебе такой</text>
<text text-anchor="middle" x="757.73" y="-490.92" font-family="Times,serif" font-size="14.00" fill="#00995c">мир устрою! Упокойся с</text>
<text text-anchor="middle" x="757.73" y="-473.67" font-family="Times,serif" font-size="14.00" fill="#00995c">МИРОМ!</text>
</g>
<!-- Romero04 -->
<g id="node21" class="node">
<title>Romero04</title>
<ellipse fill="#ffffff" stroke="#000000" cx="1207.35" cy="-343.43" rx="151.32" ry="91.04"/>
<text text-anchor="middle" x="1207.35" y="-390.51" font-family="Times,serif" font-size="14.00">Хмм. Даже если ты и на</text>
<text text-anchor="middle" x="1207.35" y="-373.26" font-family="Times,serif" font-size="14.00">самом деле из Святилища,</text>
<text text-anchor="middle" x="1207.35" y="-356.01" font-family="Times,serif" font-size="14.00">то ты все равно</text>
<text text-anchor="middle" x="1207.35" y="-338.76" font-family="Times,serif" font-size="14.00">обломаешься. Мира не</text>
<text text-anchor="middle" x="1207.35" y="-321.51" font-family="Times,serif" font-size="14.00">будет, пока эти</text>
<text text-anchor="middle" x="1207.35" y="-304.26" font-family="Times,serif" font-size="14.00">Потрошители здесь</text>
<text text-anchor="middle" x="1207.35" y="-287.01" font-family="Times,serif" font-size="14.00">ошиваются.</text>
</g>
<!-- Romero03&#45;&gt;Romero04 -->
<g id="edge14" class="edge">
<title>Romero03&#45;&gt;Romero04</title>
<path fill="none" stroke="#890099" d="M1222.61,-556.5C1220.23,-523.41 1217.29,-482.59 1214.63,-445.62"/>
<polygon fill="#890099" stroke="#890099" points="1218.06,-445.52 1213.85,-435.8 1211.08,-446.02 1218.06,-445.52"/>
<text text-anchor="middle" x="1315.1" y="-525.42" font-family="Times,serif" font-size="14.00" fill="#890099">Постой! Я не знаю, о чем</text>
<text text-anchor="middle" x="1315.1" y="-508.17" font-family="Times,serif" font-size="14.00" fill="#890099">ты говоришь. Я здесь</text>
<text text-anchor="middle" x="1315.1" y="-490.92" font-family="Times,serif" font-size="14.00" fill="#890099">из&#45;за Святилища. Они</text>
<text text-anchor="middle" x="1315.1" y="-473.67" font-family="Times,serif" font-size="14.00" fill="#890099">хотят, чтобы их оставили</text>
<text text-anchor="middle" x="1315.1" y="-456.42" font-family="Times,serif" font-size="14.00" fill="#890099">в покое.</text>
</g>
<!-- Romero04&#45;&gt;RomeroEnd -->
<g id="edge18" class="edge">
<title>Romero04&#45;&gt;RomeroEnd</title>
<path fill="none" stroke="#2a9900" d="M1095.86,-281.46C1015.53,-237.44 920.51,-185.17 916.35,-181.89 905.33,-173.23 894.62,-161.98 886.05,-152.05"/>
<polygon fill="#2a9900" stroke="#2a9900" points="888.2,-150.17 879.1,-144.75 882.83,-154.67 888.2,-150.17"/>
<text text-anchor="middle" x="1052.85" y="-212.47" font-family="Times,serif" font-size="14.00" fill="#2a9900">Ну да, ну да.</text>
</g>
<!-- Romero05 -->
<g id="node22" class="node">
<title>Romero05</title>
<ellipse fill="#ffffff" stroke="#000000" cx="1067.35" cy="-127.45" rx="141.77" ry="42.25"/>
<text text-anchor="middle" x="1067.35" y="-140.02" font-family="Times,serif" font-size="14.00">Спроси Бритву. Она тебе</text>
<text text-anchor="middle" x="1067.35" y="-122.77" font-family="Times,serif" font-size="14.00">расскажет про этих</text>
<text text-anchor="middle" x="1067.35" y="-105.52" font-family="Times,serif" font-size="14.00">кровожадных ублюдков.</text>
</g>
<!-- Romero04&#45;&gt;Romero05 -->
<g id="edge17" class="edge">
<title>Romero04&#45;&gt;Romero05</title>
<path fill="none" stroke="#030099" d="M1152.22,-258.17C1134.59,-231.22 1115.64,-202.25 1100.13,-178.55"/>
<polygon fill="#030099" stroke="#030099" points="1102.55,-176.85 1094.14,-170.4 1096.69,-180.68 1102.55,-176.85"/>
<text text-anchor="middle" x="1170.1" y="-212.47" font-family="Times,serif" font-size="14.00" fill="#030099">Ты о чем?</text>
</g>
<!-- Romero09&#45;&gt;Romero11 -->
<g id="edge23" class="edge">
<title>Romero09&#45;&gt;Romero11</title>
<path fill="none" stroke="#560099" d="M1626.34,-563.15C1633.54,-555.32 1640.4,-547.09 1646.35,-538.72 1724.05,-429.5 1731.27,-264.31 1729.27,-180.77"/>
<polygon fill="#560099" stroke="#560099" points="1732.75,-180.91 1728.95,-171.02 1725.75,-181.12 1732.75,-180.91"/>
<text text-anchor="middle" x="1821.35" y="-338.76" font-family="Times,serif" font-size="14.00" fill="#560099">Не повезло, но мне пора.</text>
</g>
<!-- Romero12 -->
<g id="node27" class="node">
<title>Romero12</title>
<ellipse fill="#ffffff" stroke="#000000" cx="1540.35" cy="-343.43" rx="145.49" ry="54.45"/>
<text text-anchor="middle" x="1540.35" y="-364.63" font-family="Times,serif" font-size="14.00">Думаю, она тоже меня</text>
<text text-anchor="middle" x="1540.35" y="-347.38" font-family="Times,serif" font-size="14.00">любит, но я не знаю</text>
<text text-anchor="middle" x="1540.35" y="-330.13" font-family="Times,serif" font-size="14.00">наверняка. Ты поможешь</text>
<text text-anchor="middle" x="1540.35" y="-312.88" font-family="Times,serif" font-size="14.00">мне?</text>
</g>
<!-- Romero09&#45;&gt;Romero12 -->
<g id="edge22" class="edge">
<title>Romero09&#45;&gt;Romero12</title>
<path fill="none" stroke="#998200" d="M1554.85,-556.5C1551.8,-511.96 1547.8,-453.41 1544.77,-409.12"/>
<polygon fill="#998200" stroke="#998200" points="1548.2,-408.92 1544.02,-399.18 1541.21,-409.4 1548.2,-408.92"/>
<text text-anchor="middle" x="1597.98" y="-490.92" font-family="Times,serif" font-size="14.00" fill="#998200">Продолжай.</text>
</g>
<!-- Romero08 -->
<g id="node25" class="node">
<title>Romero08</title>
<ellipse fill="#ffffff" stroke="#000000" cx="1392.35" cy="-127.45" rx="165.11" ry="54.45"/>
<text text-anchor="middle" x="1392.35" y="-148.65" font-family="Times,serif" font-size="14.00">Вот и хорошо. Отнеси этот</text>
<text text-anchor="middle" x="1392.35" y="-131.4" font-family="Times,serif" font-size="14.00">медальон Джулианне. Скажи</text>
<text text-anchor="middle" x="1392.35" y="-114.15" font-family="Times,serif" font-size="14.00">ей, что я надеюсь вскоре</text>
<text text-anchor="middle" x="1392.35" y="-96.9" font-family="Times,serif" font-size="14.00">с ней увидеться.</text>
</g>
<!-- GiveLocket -->
<g id="node26" class="node">
<title>GiveLocket</title>
<ellipse fill="#ffffff" stroke="#000000" cx="1392.35" cy="-18" rx="27" ry="18"/>
</g>
<!-- Romero08&#45;&gt;GiveLocket -->
<g id="edge21" class="edge">
<title>Romero08&#45;&gt;GiveLocket</title>
<path fill="none" stroke="#555555" stroke-dasharray="1,5" d="M1392.35,-72.72C1392.35,-63.84 1392.35,-54.96 1392.35,-47.05"/>
<polygon fill="#555555" stroke="#555555" points="1395.85,-47.26 1392.35,-37.26 1388.85,-47.26 1395.85,-47.26"/>
</g>
<!-- Romero12&#45;&gt;Romero11 -->
<g id="edge25" class="edge">
<title>Romero12&#45;&gt;Romero11</title>
<path fill="none" stroke="#990004" d="M1527.1,-289C1523.11,-260.2 1523.7,-225.45 1541.35,-199.89 1546.91,-191.85 1583.97,-176.87 1623.48,-162.7"/>
<polygon fill="#990004" stroke="#990004" points="1624.58,-165.67 1632.83,-159.03 1622.24,-159.07 1624.58,-165.67"/>
<text text-anchor="middle" x="1626.85" y="-221.09" font-family="Times,serif" font-size="14.00" fill="#990004">Да. Не повезло, но мне</text>
<text text-anchor="middle" x="1626.85" y="-203.84" font-family="Times,serif" font-size="14.00" fill="#990004">пора.</text>
</g>
<!-- Romero12&#45;&gt;Romero08 -->
<g id="edge24" class="edge">
<title>Romero12&#45;&gt;Romero08</title>
<path fill="none" stroke="#009929" d="M1453.58,-299.39C1404.8,-274.3 1352.38,-245.48 1345.85,-234.39 1337.66,-220.48 1339.2,-204.85 1345.17,-189.97"/>
<polygon fill="#009929" stroke="#009929" points="1348.61,-191.86 1349.67,-181.32 1342.27,-188.9 1348.61,-191.86"/>
<text text-anchor="middle" x="1432.6" y="-212.47" font-family="Times,serif" font-size="14.00" fill="#009929">Хорошо, я помогу тебе.</text>
</g>
</g>
</svg>
