<?xml version="1.0" encoding="UTF-8" standalone="no"?>
<!DOCTYPE svg PUBLIC "-//W3C//DTD SVG 1.1//EN"
 "http://www.w3.org/Graphics/SVG/1.1/DTD/svg11.dtd">
<!-- Generated by graphviz version 8.0.5 (0)
 -->
<!-- Title: shadywst Pages: 1 -->
<svg width="454pt" height="358pt"
 viewBox="0.00 0.00 454.00 358.48" xmlns="http://www.w3.org/2000/svg" xmlns:xlink="http://www.w3.org/1999/xlink">
<g id="graph0" class="graph" transform="scale(1 1) rotate(0) translate(4 354.48)">
<title>shadywst</title>
<polygon fill="white" stroke="none" points="-4,4 -4,-354.48 450,-354.48 450,4 -4,4"/>
<!-- start -->
<g id="node1" class="node">
<title>start</title>
<ellipse fill="#ffffff" stroke="#000000" cx="223" cy="-332.48" rx="27" ry="18"/>
</g>
<!-- map_enter_p_proc -->
<g id="node2" class="node">
<title>map_enter_p_proc</title>
<ellipse fill="#ffffff" stroke="#000000" cx="223" cy="-175.24" rx="150.79" ry="103.24"/>
<text text-anchor="middle" x="223" y="-230.94" font-family="Times,serif" font-size="14.00">На юге вы видите стену из</text>
<text text-anchor="middle" x="223" y="-213.69" font-family="Times,serif" font-size="14.00">кирпича, окружающую</text>
<text text-anchor="middle" x="223" y="-196.44" font-family="Times,serif" font-size="14.00">небольшую спокойную</text>
<text text-anchor="middle" x="223" y="-179.19" font-family="Times,serif" font-size="14.00">деревушку.</text>
<text text-anchor="middle" x="223" y="-161.94" font-family="Times,serif" font-size="14.00">&#45;&#45;&#45;</text>
<text text-anchor="middle" x="223" y="-144.69" font-family="Times,serif" font-size="14.00">Вы получаете 400 очков</text>
<text text-anchor="middle" x="223" y="-127.44" font-family="Times,serif" font-size="14.00">опыта за то, что вернули</text>
<text text-anchor="middle" x="223" y="-110.19" font-family="Times,serif" font-size="14.00">Танди.</text>
</g>
<!-- start&#45;&gt;map_enter_p_proc -->
<g id="edge1" class="edge">
<title>start&#45;&gt;map_enter_p_proc</title>
<path fill="none" stroke="#555555" stroke-dasharray="1,5" d="M223,-314.27C223,-307.44 223,-298.99 223,-289.65"/>
<polygon fill="#555555" stroke="#555555" points="226.5,-289.76 223,-279.76 219.5,-289.76 226.5,-289.76"/>
</g>
<!-- map_update_p_proc -->
<g id="node3" class="node">
<title>map_update_p_proc</title>
<ellipse fill="#ffffff" stroke="#000000" cx="27" cy="-175.24" rx="27" ry="18"/>
</g>
<!-- start&#45;&gt;map_update_p_proc -->
<g id="edge2" class="edge">
<title>start&#45;&gt;map_update_p_proc</title>
<path fill="none" stroke="#555555" stroke-dasharray="1,5" d="M196.06,-329.69C160.9,-325.94 99.55,-314.35 63,-278.48 42.89,-258.74 33.99,-227.12 30.07,-204.27"/>
<polygon fill="#555555" stroke="#555555" points="33.4,-203.92 28.47,-194.54 26.48,-204.94 33.4,-203.92"/>
</g>
<!-- map_exit_p_proc -->
<g id="node4" class="node">
<title>map_exit_p_proc</title>
<ellipse fill="#ffffff" stroke="#000000" cx="419" cy="-175.24" rx="27" ry="18"/>
</g>
<!-- start&#45;&gt;map_exit_p_proc -->
<g id="edge3" class="edge">
<title>start&#45;&gt;map_exit_p_proc</title>
<path fill="none" stroke="#555555" stroke-dasharray="1,5" d="M244.08,-320.84C248.92,-318.59 254.09,-316.33 259,-314.48 312.67,-294.16 341.3,-317.9 383,-278.48 403.47,-259.12 412.31,-227.44 416.12,-204.47"/>
<polygon fill="#555555" stroke="#555555" points="419.71,-205.06 417.66,-194.67 412.78,-204.08 419.71,-205.06"/>
</g>
<!-- Lighting -->
<g id="node6" class="node">
<title>Lighting</title>
<ellipse fill="#ffffff" stroke="#000000" cx="89" cy="-18" rx="27" ry="18"/>
</g>
<!-- map_enter_p_proc&#45;&gt;Lighting -->
<g id="edge4" class="edge">
<title>map_enter_p_proc&#45;&gt;Lighting</title>
<path fill="none" stroke="#555555" stroke-dasharray="1,5" d="M146.61,-85.74C132.7,-69.63 119.35,-54.16 109,-42.17"/>
<polygon fill="#555555" stroke="#555555" points="111.22,-40.39 102.04,-35.11 105.92,-44.96 111.22,-40.39"/>
</g>
<!-- Where_To_Start -->
<g id="node7" class="node">
<title>Where_To_Start</title>
<ellipse fill="#ffffff" stroke="#000000" cx="223" cy="-18" rx="27" ry="18"/>
</g>
<!-- map_enter_p_proc&#45;&gt;Where_To_Start -->
<g id="edge5" class="edge">
<title>map_enter_p_proc&#45;&gt;Where_To_Start</title>
<path fill="none" stroke="#555555" stroke-dasharray="1,5" d="M223,-71.56C223,-62.78 223,-54.49 223,-47.19"/>
<polygon fill="#555555" stroke="#555555" points="226.5,-47.28 223,-37.28 219.5,-47.28 226.5,-47.28"/>
</g>
<!-- map_update_p_proc&#45;&gt;Lighting -->
<g id="edge6" class="edge">
<title>map_update_p_proc&#45;&gt;Lighting</title>
<path fill="none" stroke="#555555" stroke-dasharray="1,5" d="M32.27,-157.36C38.81,-136.9 50.62,-101.5 63,-72 66.72,-63.13 71.21,-53.64 75.4,-45.18"/>
<polygon fill="#555555" stroke="#555555" points="78.92,-46.98 80.29,-36.48 72.67,-43.83 78.92,-46.98"/>
</g>
<!-- combat_p_proc -->
<g id="node5" class="node">
<title>combat_p_proc</title>
<ellipse fill="#ffffff" stroke="#000000" cx="295" cy="-332.48" rx="27" ry="18"/>
</g>
</g>
</svg>
