<?xml version="1.0" encoding="UTF-8" standalone="no"?>
<!DOCTYPE svg PUBLIC "-//W3C//DTD SVG 1.1//EN"
 "http://www.w3.org/Graphics/SVG/1.1/DTD/svg11.dtd">
<!-- Generated by graphviz version 8.0.5 (0)
 -->
<!-- Title: shadyrug Pages: 1 -->
<svg width="600pt" height="164pt"
 viewBox="0.00 0.00 599.73 164.50" xmlns="http://www.w3.org/2000/svg" xmlns:xlink="http://www.w3.org/1999/xlink">
<g id="graph0" class="graph" transform="scale(1 1) rotate(0) translate(4 160.5)">
<title>shadyrug</title>
<polygon fill="white" stroke="none" points="-4,4 -4,-160.5 595.73,-160.5 595.73,4 -4,4"/>
<!-- start -->
<g id="node1" class="node">
<title>start</title>
<ellipse fill="#ffffff" stroke="#000000" cx="283.17" cy="-138.5" rx="27" ry="18"/>
</g>
<!-- look_at_p_proc -->
<g id="node2" class="node">
<title>look_at_p_proc</title>
<ellipse fill="#ffffff" stroke="#000000" cx="131.17" cy="-42.25" rx="131.17" ry="30.05"/>
<text text-anchor="middle" x="131.17" y="-46.2" font-family="Times,serif" font-size="14.00">Вы видите изодранный</text>
<text text-anchor="middle" x="131.17" y="-28.95" font-family="Times,serif" font-size="14.00">коврик.</text>
</g>
<!-- start&#45;&gt;look_at_p_proc -->
<g id="edge1" class="edge">
<title>start&#45;&gt;look_at_p_proc</title>
<path fill="none" stroke="#555555" stroke-dasharray="1,5" d="M263.92,-125.56C244.11,-113.28 212.35,-93.59 184.86,-76.54"/>
<polygon fill="#555555" stroke="#555555" points="187.07,-73.17 176.73,-70.88 183.38,-79.12 187.07,-73.17"/>
</g>
<!-- description_p_proc -->
<g id="node3" class="node">
<title>description_p_proc</title>
<ellipse fill="#ffffff" stroke="#000000" cx="436.17" cy="-42.25" rx="155.56" ry="42.25"/>
<text text-anchor="middle" x="436.17" y="-54.82" font-family="Times,serif" font-size="14.00">Вам интересно, из какого</text>
<text text-anchor="middle" x="436.17" y="-37.57" font-family="Times,serif" font-size="14.00">материала мог быть сделан</text>
<text text-anchor="middle" x="436.17" y="-20.32" font-family="Times,serif" font-size="14.00">этот коврик.</text>
</g>
<!-- start&#45;&gt;description_p_proc -->
<g id="edge2" class="edge">
<title>start&#45;&gt;description_p_proc</title>
<path fill="none" stroke="#555555" stroke-dasharray="1,5" d="M302.55,-125.56C318.52,-115.72 342.21,-101.13 365.22,-86.95"/>
<polygon fill="#555555" stroke="#555555" points="366.66,-89.56 373.34,-81.34 362.99,-83.6 366.66,-89.56"/>
</g>
<!-- chairend -->
<g id="node4" class="node">
<title>chairend</title>
<ellipse fill="#ffffff" stroke="#000000" cx="355.17" cy="-138.5" rx="27" ry="18"/>
</g>
</g>
</svg>
