<?xml version="1.0" encoding="UTF-8" standalone="no"?>
<!DOCTYPE svg PUBLIC "-//W3C//DTD SVG 1.1//EN"
 "http://www.w3.org/Graphics/SVG/1.1/DTD/svg11.dtd">
<!-- Generated by graphviz version 8.0.5 (0)
 -->
<!-- Title: terry Pages: 1 -->
<svg width="1489pt" height="285pt"
 viewBox="0.00 0.00 1489.15 285.00" xmlns="http://www.w3.org/2000/svg" xmlns:xlink="http://www.w3.org/1999/xlink">
<g id="graph0" class="graph" transform="scale(1 1) rotate(0) translate(4 281)">
<title>terry</title>
<polygon fill="white" stroke="none" points="-4,4 -4,-281 1485.15,-281 1485.15,4 -4,4"/>
<!-- start -->
<g id="node1" class="node">
<title>start</title>
<ellipse fill="#ffffff" stroke="#000000" cx="182.55" cy="-222.55" rx="153.97" ry="54.45"/>
<text text-anchor="middle" x="182.55" y="-243.75" font-family="Times,serif" font-size="14.00">Мутант не обращает на вас</text>
<text text-anchor="middle" x="182.55" y="-226.5" font-family="Times,serif" font-size="14.00">внимания.</text>
<text text-anchor="middle" x="182.55" y="-209.25" font-family="Times,serif" font-size="14.00">&#45;&#45;&#45;</text>
<text text-anchor="middle" x="182.55" y="-192" font-family="Times,serif" font-size="14.00">Вы видите Тэрри.</text>
</g>
<!-- do_dialogue -->
<g id="node2" class="node">
<title>do_dialogue</title>
<ellipse fill="#ffffff" stroke="#000000" cx="146.55" cy="-114.1" rx="27" ry="18"/>
</g>
<!-- start&#45;&gt;do_dialogue -->
<g id="edge1" class="edge">
<title>start&#45;&gt;do_dialogue</title>
<path fill="none" stroke="#555555" stroke-dasharray="1,5" d="M164.44,-168.02C161.44,-159.15 158.45,-150.29 155.79,-142.43"/>
<polygon fill="#555555" stroke="#555555" points="158.81,-141.44 152.29,-133.09 152.18,-143.68 158.81,-141.44"/>
</g>
<!-- Critter_Action -->
<g id="node3" class="node">
<title>Critter_Action</title>
<ellipse fill="#ffffff" stroke="#000000" cx="218.55" cy="-114.1" rx="27" ry="18"/>
</g>
<!-- start&#45;&gt;Critter_Action -->
<g id="edge2" class="edge">
<title>start&#45;&gt;Critter_Action</title>
<path fill="none" stroke="#555555" stroke-dasharray="1,5" d="M200.65,-168.02C203.65,-159.15 206.65,-150.29 209.31,-142.43"/>
<polygon fill="#555555" stroke="#555555" points="212.92,-143.68 212.8,-133.09 206.29,-141.44 212.92,-143.68"/>
</g>
<!-- terry03 -->
<g id="node4" class="node">
<title>terry03</title>
<ellipse fill="#ffffff" stroke="#000000" cx="146.55" cy="-30.05" rx="146.55" ry="30.05"/>
<text text-anchor="middle" x="146.55" y="-34" font-family="Times,serif" font-size="14.00">Эй, без разговоров! Это</text>
<text text-anchor="middle" x="146.55" y="-16.75" font-family="Times,serif" font-size="14.00">мешает мне размышлять.</text>
</g>
<!-- do_dialogue&#45;&gt;terry03 -->
<g id="edge3" class="edge">
<title>do_dialogue&#45;&gt;terry03</title>
<path fill="none" stroke="#555555" stroke-dasharray="1,5" d="M146.55,-95.7C146.55,-88.49 146.55,-79.8 146.55,-71.17"/>
<polygon fill="#555555" stroke="#555555" points="150.05,-71.38 146.55,-61.38 143.05,-71.38 150.05,-71.38"/>
</g>
<!-- terrycbt -->
<g id="node5" class="node">
<title>terrycbt</title>
<ellipse fill="#ffffff" stroke="#000000" cx="813.55" cy="-114.1" rx="27" ry="18"/>
</g>
<!-- terryend -->
<g id="node6" class="node">
<title>terryend</title>
<ellipse fill="#ffffff" stroke="#000000" cx="1371.55" cy="-114.1" rx="27" ry="18"/>
</g>
<!-- terry00 -->
<g id="node7" class="node">
<title>terry00</title>
<ellipse fill="#ffffff" stroke="#000000" cx="501.55" cy="-222.55" rx="146.55" ry="42.25"/>
<text text-anchor="middle" x="501.55" y="-235.13" font-family="Times,serif" font-size="14.00">Водный рацион раздается</text>
<text text-anchor="middle" x="501.55" y="-217.88" font-family="Times,serif" font-size="14.00">по ночам... Эй, ты не</text>
<text text-anchor="middle" x="501.55" y="-200.63" font-family="Times,serif" font-size="14.00">гуль!</text>
</g>
<!-- terry00&#45;&gt;terrycbt -->
<g id="edge4" class="edge">
<title>terry00&#45;&gt;terrycbt</title>
<path fill="none" stroke="#555555" stroke-dasharray="1,5" d="M594.75,-189.58C615.42,-182.5 637.23,-175.04 657.55,-168.1 699.63,-153.75 748.11,-137.29 779.72,-126.57"/>
<polygon fill="#555555" stroke="#555555" points="780.41,-129.69 788.76,-123.17 778.16,-123.06 780.41,-129.69"/>
</g>
<!-- terry01 -->
<g id="node8" class="node">
<title>terry01</title>
<ellipse fill="#ffffff" stroke="#000000" cx="813.55" cy="-222.55" rx="147.08" ry="30.05"/>
<text text-anchor="middle" x="813.55" y="-226.5" font-family="Times,serif" font-size="14.00">Я тебя отведу к нему.</text>
<text text-anchor="middle" x="813.55" y="-209.25" font-family="Times,serif" font-size="14.00">Вот, позволь тебе помочь.</text>
</g>
<!-- terry01&#45;&gt;terrycbt -->
<g id="edge5" class="edge">
<title>terry01&#45;&gt;terrycbt</title>
<path fill="none" stroke="#555555" stroke-dasharray="1,5" d="M813.55,-192.18C813.55,-176.88 813.55,-158.27 813.55,-143.16"/>
<polygon fill="#555555" stroke="#555555" points="817.05,-143.41 813.55,-133.41 810.05,-143.41 817.05,-143.41"/>
</g>
<!-- terry02 -->
<g id="node9" class="node">
<title>terry02</title>
<ellipse fill="#ffffff" stroke="#000000" cx="1111.55" cy="-222.55" rx="132.76" ry="42.25"/>
<text text-anchor="middle" x="1111.55" y="-235.13" font-family="Times,serif" font-size="14.00">Я лучше отведу тебя к</text>
<text text-anchor="middle" x="1111.55" y="-217.88" font-family="Times,serif" font-size="14.00">Гарри, он лучше знает,</text>
<text text-anchor="middle" x="1111.55" y="-200.63" font-family="Times,serif" font-size="14.00">что с тобой делать.</text>
</g>
<!-- terry02&#45;&gt;terrycbt -->
<g id="edge6" class="edge">
<title>terry02&#45;&gt;terrycbt</title>
<path fill="none" stroke="#555555" stroke-dasharray="1,5" d="M1027.62,-189.45C1008.57,-182.3 988.4,-174.85 969.55,-168.1 927.69,-153.12 879.15,-136.79 847.48,-126.28"/>
<polygon fill="#555555" stroke="#555555" points="849.01,-122.77 838.42,-122.95 846.81,-129.41 849.01,-122.77"/>
</g>
<!-- terry04 -->
<g id="node10" class="node">
<title>terry04</title>
<ellipse fill="#ffffff" stroke="#000000" cx="1371.55" cy="-222.55" rx="109.61" ry="18"/>
<text text-anchor="middle" x="1371.55" y="-217.88" font-family="Times,serif" font-size="14.00">Который час ночи?</text>
</g>
<!-- terry04&#45;&gt;terryend -->
<g id="edge7" class="edge">
<title>terry04&#45;&gt;terryend</title>
<path fill="none" stroke="#555555" stroke-dasharray="1,5" d="M1371.55,-204.45C1371.55,-188.02 1371.55,-162.89 1371.55,-143.47"/>
<polygon fill="#555555" stroke="#555555" points="1375.05,-143.52 1371.55,-133.52 1368.05,-143.52 1375.05,-143.52"/>
</g>
</g>
</svg>
