<?xml version="1.0" encoding="UTF-8" standalone="no"?>
<!DOCTYPE svg PUBLIC "-//W3C//DTD SVG 1.1//EN"
 "http://www.w3.org/Graphics/SVG/1.1/DTD/svg11.dtd">
<!-- Generated by graphviz version 8.0.5 (0)
 -->
<!-- Title: tolya Pages: 1 -->
<svg width="2348pt" height="1518pt"
 viewBox="0.00 0.00 2348.20 1518.35" xmlns="http://www.w3.org/2000/svg" xmlns:xlink="http://www.w3.org/1999/xlink">
<g id="graph0" class="graph" transform="scale(1 1) rotate(0) translate(4 1514.35)">
<title>tolya</title>
<polygon fill="white" stroke="none" points="-4,4 -4,-1514.35 2344.2,-1514.35 2344.2,4 -4,4"/>
<!-- start -->
<g id="node1" class="node">
<title>start</title>
<ellipse fill="#ffffff" stroke="#000000" cx="27" cy="-1407.11" rx="27" ry="18"/>
</g>
<!-- look_at_p_proc -->
<g id="node2" class="node">
<title>look_at_p_proc</title>
<ellipse fill="#ffffff" stroke="#000000" cx="214" cy="-1407.11" rx="142.31" ry="30.05"/>
<text text-anchor="middle" x="214" y="-1411.06" font-family="Times,serif" font-size="14.00">Ты видите Толю, бандита</text>
<text text-anchor="middle" x="214" y="-1393.81" font-family="Times,serif" font-size="14.00">из пустошей.</text>
</g>
<!-- talk_p_proc -->
<g id="node3" class="node">
<title>talk_p_proc</title>
<ellipse fill="#ffffff" stroke="#000000" cx="401" cy="-1407.11" rx="27" ry="18"/>
</g>
<!-- do_dialogue -->
<g id="node4" class="node">
<title>do_dialogue</title>
<ellipse fill="#ffffff" stroke="#000000" cx="401" cy="-1188.03" rx="27" ry="18"/>
</g>
<!-- talk_p_proc&#45;&gt;do_dialogue -->
<g id="edge1" class="edge">
<title>talk_p_proc&#45;&gt;do_dialogue</title>
<path fill="none" stroke="#555555" stroke-dasharray="1,5" d="M401,-1388.72C401,-1351.33 401,-1263 401,-1217.39"/>
<polygon fill="#555555" stroke="#555555" points="404.5,-1217.51 401,-1207.51 397.5,-1217.51 404.5,-1217.51"/>
</g>
<!-- get_reaction -->
<g id="node10" class="node">
<title>get_reaction</title>
<ellipse fill="#ffffff" stroke="#000000" cx="201" cy="-930.4" rx="27" ry="18"/>
</g>
<!-- do_dialogue&#45;&gt;get_reaction -->
<g id="edge3" class="edge">
<title>do_dialogue&#45;&gt;get_reaction</title>
<path fill="none" stroke="#555555" stroke-dasharray="1,5" d="M383.87,-1173.75C351.29,-1147.7 279.83,-1086.74 237,-1021.44 224.25,-1002 214.78,-977.33 208.76,-958.73"/>
<polygon fill="#555555" stroke="#555555" points="211.83,-957.82 205.54,-949.3 205.14,-959.89 211.83,-957.82"/>
</g>
<!-- tolya10 -->
<g id="node11" class="node">
<title>tolya10</title>
<ellipse fill="#ffffff" stroke="#000000" cx="401" cy="-930.4" rx="155.03" ry="42.25"/>
<text text-anchor="middle" x="401" y="-942.98" font-family="Times,serif" font-size="14.00">Не отвлекай меня сейчас.</text>
<text text-anchor="middle" x="401" y="-925.73" font-family="Times,serif" font-size="14.00">Я готовлюсь к следующему</text>
<text text-anchor="middle" x="401" y="-908.48" font-family="Times,serif" font-size="14.00">набегу.</text>
</g>
<!-- do_dialogue&#45;&gt;tolya10 -->
<g id="edge4" class="edge">
<title>do_dialogue&#45;&gt;tolya10</title>
<path fill="none" stroke="#555555" stroke-dasharray="1,5" d="M401,-1169.86C401,-1132.32 401,-1041.64 401,-983.55"/>
<polygon fill="#555555" stroke="#555555" points="404.5,-983.75 401,-973.75 397.5,-983.75 404.5,-983.75"/>
</g>
<!-- tolya00 -->
<g id="node12" class="node">
<title>tolya00</title>
<ellipse fill="#ffffff" stroke="#000000" cx="704" cy="-930.4" rx="130.11" ry="91.04"/>
<text text-anchor="middle" x="704" y="-977.48" font-family="Times,serif" font-size="14.00">Привет, я &#45; Толя. А ты,</text>
<text text-anchor="middle" x="704" y="-960.23" font-family="Times,serif" font-size="14.00">похоже, только что из</text>
<text text-anchor="middle" x="704" y="-942.98" font-family="Times,serif" font-size="14.00">пустошей. Кто ты?</text>
<text text-anchor="middle" x="704" y="-925.73" font-family="Times,serif" font-size="14.00">&#45;&#45;&#45;</text>
<text text-anchor="middle" x="704" y="-908.48" font-family="Times,serif" font-size="14.00">Я </text>
<text text-anchor="middle" x="704" y="-891.23" font-family="Times,serif" font-size="14.00">&#45;&#45;&#45;</text>
<text text-anchor="middle" x="704" y="-873.98" font-family="Times,serif" font-size="14.00">. А кто ты такой?</text>
</g>
<!-- do_dialogue&#45;&gt;tolya00 -->
<g id="edge5" class="edge">
<title>do_dialogue&#45;&gt;tolya00</title>
<path fill="none" stroke="#555555" stroke-dasharray="1,5" d="M417.29,-1173.29C453.61,-1142.65 543.51,-1066.81 613.04,-1008.14"/>
<polygon fill="#555555" stroke="#555555" points="615.02,-1010.2 620.41,-1001.08 610.51,-1004.85 615.02,-1010.2"/>
</g>
<!-- critter_p_proc -->
<g id="node5" class="node">
<title>critter_p_proc</title>
<ellipse fill="#ffffff" stroke="#000000" cx="1781" cy="-1407.11" rx="27" ry="18"/>
</g>
<!-- Critter_Action -->
<g id="node6" class="node">
<title>Critter_Action</title>
<ellipse fill="#ffffff" stroke="#000000" cx="1781" cy="-1188.03" rx="27" ry="18"/>
</g>
<!-- critter_p_proc&#45;&gt;Critter_Action -->
<g id="edge2" class="edge">
<title>critter_p_proc&#45;&gt;Critter_Action</title>
<path fill="none" stroke="#555555" stroke-dasharray="1,5" d="M1781,-1388.72C1781,-1351.33 1781,-1263 1781,-1217.39"/>
<polygon fill="#555555" stroke="#555555" points="1784.5,-1217.51 1781,-1207.51 1777.5,-1217.51 1784.5,-1217.51"/>
</g>
<!-- pickup_p_proc -->
<g id="node7" class="node">
<title>pickup_p_proc</title>
<ellipse fill="#ffffff" stroke="#000000" cx="1853" cy="-1407.11" rx="27" ry="18"/>
</g>
<!-- destroy_p_proc -->
<g id="node8" class="node">
<title>destroy_p_proc</title>
<ellipse fill="#ffffff" stroke="#000000" cx="1925" cy="-1407.11" rx="27" ry="18"/>
</g>
<!-- damage_p_proc -->
<g id="node9" class="node">
<title>damage_p_proc</title>
<ellipse fill="#ffffff" stroke="#000000" cx="1997" cy="-1407.11" rx="27" ry="18"/>
</g>
<!-- ReactToLevel -->
<g id="node24" class="node">
<title>ReactToLevel</title>
<ellipse fill="#ffffff" stroke="#000000" cx="201" cy="-629.03" rx="27" ry="18"/>
</g>
<!-- get_reaction&#45;&gt;ReactToLevel -->
<g id="edge21" class="edge">
<title>get_reaction&#45;&gt;ReactToLevel</title>
<path fill="none" stroke="#555555" stroke-dasharray="1,5" d="M201,-912.01C201,-862.3 201,-719.27 201,-658.21"/>
<polygon fill="#555555" stroke="#555555" points="204.5,-658.47 201,-648.47 197.5,-658.47 204.5,-658.47"/>
</g>
<!-- tolya02 -->
<g id="node13" class="node">
<title>tolya02</title>
<ellipse fill="#ffffff" stroke="#000000" cx="870" cy="-629.03" rx="150.79" ry="115.44"/>
<text text-anchor="middle" x="870" y="-693.36" font-family="Times,serif" font-size="14.00">Да ладно, Гарл запретил</text>
<text text-anchor="middle" x="870" y="-676.11" font-family="Times,serif" font-size="14.00">мне болтать с</text>
<text text-anchor="middle" x="870" y="-658.86" font-family="Times,serif" font-size="14.00">незнакомцами. Я должен</text>
<text text-anchor="middle" x="870" y="-641.61" font-family="Times,serif" font-size="14.00">хотя бы знать твое имя.</text>
<text text-anchor="middle" x="870" y="-624.36" font-family="Times,serif" font-size="14.00">&#45;&#45;&#45;</text>
<text text-anchor="middle" x="870" y="-607.11" font-family="Times,serif" font-size="14.00">Ты прав. Меня зовут </text>
<text text-anchor="middle" x="870" y="-589.86" font-family="Times,serif" font-size="14.00">&#45;&#45;&#45;</text>
<text text-anchor="middle" x="870" y="-572.61" font-family="Times,serif" font-size="14.00">. Расскажешь мне</text>
<text text-anchor="middle" x="870" y="-555.36" font-family="Times,serif" font-size="14.00">что&#45;нибудь о вашей банде?</text>
</g>
<!-- tolya00&#45;&gt;tolya02 -->
<g id="edge6" class="edge">
<title>tolya00&#45;&gt;tolya02</title>
<path fill="none" stroke="#009965" d="M750.68,-845.21C767.91,-814.15 787.73,-778.4 806.21,-745.07"/>
<polygon fill="#009965" stroke="#009965" points="809.59,-747.19 811.38,-736.75 803.47,-743.79 809.59,-747.19"/>
<text text-anchor="middle" x="880.12" y="-808.06" font-family="Times,serif" font-size="14.00" fill="#009965">Можешь рассказать мне о</text>
<text text-anchor="middle" x="880.12" y="-790.81" font-family="Times,serif" font-size="14.00" fill="#009965">вашем лагере?</text>
</g>
<!-- tolya03 -->
<g id="node14" class="node">
<title>tolya03</title>
<ellipse fill="#ffffff" stroke="#000000" cx="626" cy="-629.03" rx="75.41" ry="18"/>
<text text-anchor="middle" x="626" y="-624.36" font-family="Times,serif" font-size="14.00">Уйди, идиот.</text>
</g>
<!-- tolya00&#45;&gt;tolya03 -->
<g id="edge7" class="edge">
<title>tolya00&#45;&gt;tolya03</title>
<path fill="none" stroke="#993800" d="M680.81,-840.39C664.59,-778.16 643.99,-699.09 633.25,-657.88"/>
<polygon fill="#993800" stroke="#993800" points="636.41,-657.09 630.5,-648.3 629.63,-658.86 636.41,-657.09"/>
<text text-anchor="middle" x="696" y="-799.44" font-family="Times,serif" font-size="14.00" fill="#993800">Ургх?</text>
</g>
<!-- combat -->
<g id="node19" class="node">
<title>combat</title>
<ellipse fill="#ffffff" stroke="#000000" cx="1016" cy="-237.23" rx="27" ry="18"/>
</g>
<!-- tolya02&#45;&gt;combat -->
<g id="edge11" class="edge">
<title>tolya02&#45;&gt;combat</title>
<path fill="none" stroke="#007a99" d="M907.43,-516.97C918.41,-485.34 930.65,-450.94 942.5,-419.45 963.41,-363.87 990.06,-299.64 1004.84,-264.53"/>
<polygon fill="#007a99" stroke="#007a99" points="1008.37,-266.18 1009.03,-255.61 1001.92,-263.46 1008.37,-266.18"/>
<text text-anchor="middle" x="1027.75" y="-457.9" font-family="Times,serif" font-size="14.00" fill="#007a99">Эй, кретин, я не</text>
<text text-anchor="middle" x="1027.75" y="-440.65" font-family="Times,serif" font-size="14.00" fill="#007a99">собираюсь тебе ничего</text>
<text text-anchor="middle" x="1027.75" y="-423.4" font-family="Times,serif" font-size="14.00" fill="#007a99">говорить.</text>
</g>
<!-- tolya01 -->
<g id="node15" class="node">
<title>tolya01</title>
<ellipse fill="#ffffff" stroke="#000000" cx="1581" cy="-1188.03" rx="155.03" ry="78.84"/>
<text text-anchor="middle" x="1581" y="-1226.48" font-family="Times,serif" font-size="14.00">Я налетчик &#45; мы рыщем по</text>
<text text-anchor="middle" x="1581" y="-1209.23" font-family="Times,serif" font-size="14.00">пустошам в поисках</text>
<text text-anchor="middle" x="1581" y="-1191.98" font-family="Times,serif" font-size="14.00">добычи. Были еще</text>
<text text-anchor="middle" x="1581" y="-1174.73" font-family="Times,serif" font-size="14.00">некоторые города, которые</text>
<text text-anchor="middle" x="1581" y="-1157.48" font-family="Times,serif" font-size="14.00">мы почтили своим</text>
<text text-anchor="middle" x="1581" y="-1140.23" font-family="Times,serif" font-size="14.00">присутствием.</text>
</g>
<!-- tolya04 -->
<g id="node16" class="node">
<title>tolya04</title>
<ellipse fill="#ffffff" stroke="#000000" cx="1353" cy="-930.4" rx="158.22" ry="66.64"/>
<text text-anchor="middle" x="1353" y="-960.23" font-family="Times,serif" font-size="14.00">Мы никогда не крадем. Мы</text>
<text text-anchor="middle" x="1353" y="-942.98" font-family="Times,serif" font-size="14.00">только забираем избытки</text>
<text text-anchor="middle" x="1353" y="-925.73" font-family="Times,serif" font-size="14.00">имущества и</text>
<text text-anchor="middle" x="1353" y="-908.48" font-family="Times,serif" font-size="14.00">перераспределяем их среди</text>
<text text-anchor="middle" x="1353" y="-891.23" font-family="Times,serif" font-size="14.00">наших голодных людей.</text>
</g>
<!-- tolya01&#45;&gt;tolya04 -->
<g id="edge8" class="edge">
<title>tolya01&#45;&gt;tolya04</title>
<path fill="none" stroke="#0c0099" d="M1438.9,-1156.1C1405.63,-1141.91 1374.07,-1121.25 1354,-1091.19 1337.88,-1067.05 1334.77,-1035.95 1336.73,-1007.61"/>
<polygon fill="#0c0099" stroke="#0c0099" points="1340.28,-1008.19 1337.71,-997.91 1333.31,-1007.55 1340.28,-1008.19"/>
<text text-anchor="middle" x="1460.5" y="-1077.89" font-family="Times,serif" font-size="14.00" fill="#0c0099">Иными словами, ты грабишь</text>
<text text-anchor="middle" x="1460.5" y="-1060.64" font-family="Times,serif" font-size="14.00" fill="#0c0099">людей, к которым</text>
<text text-anchor="middle" x="1460.5" y="-1043.39" font-family="Times,serif" font-size="14.00" fill="#0c0099">приходишь.</text>
</g>
<!-- tolyaend -->
<g id="node17" class="node">
<title>tolyaend</title>
<ellipse fill="#ffffff" stroke="#000000" cx="1655" cy="-18" rx="27" ry="18"/>
</g>
<!-- tolya01&#45;&gt;tolyaend -->
<g id="edge9" class="edge">
<title>tolya01&#45;&gt;tolyaend</title>
<path fill="none" stroke="#219900" d="M1581,-1108.72C1581,-1058.12 1581,-990.87 1581,-931.4 1581,-931.4 1581,-931.4 1581,-236.23 1581,-163.66 1618.46,-84.39 1640.08,-44.69"/>
<polygon fill="#219900" stroke="#219900" points="1643.52,-46.69 1645.33,-36.25 1637.41,-43.29 1643.52,-46.69"/>
<text text-anchor="middle" x="1681.88" y="-641.61" font-family="Times,serif" font-size="14.00" fill="#219900">Эй, так ты крут.</text>
<text text-anchor="middle" x="1681.88" y="-624.36" font-family="Times,serif" font-size="14.00" fill="#219900">Наверняка Гарл на тебя не</text>
<text text-anchor="middle" x="1681.88" y="-607.11" font-family="Times,serif" font-size="14.00" fill="#219900">нарадуется.</text>
</g>
<!-- tolya05 -->
<g id="node18" class="node">
<title>tolya05</title>
<ellipse fill="#ffffff" stroke="#000000" cx="1819" cy="-930.4" rx="143.37" ry="91.04"/>
<text text-anchor="middle" x="1819" y="-977.48" font-family="Times,serif" font-size="14.00">Я много где был в</text>
<text text-anchor="middle" x="1819" y="-960.23" font-family="Times,serif" font-size="14.00">пустошах. Ближе всего</text>
<text text-anchor="middle" x="1819" y="-942.98" font-family="Times,serif" font-size="14.00">отсюда Шэйди Сэндс и</text>
<text text-anchor="middle" x="1819" y="-925.73" font-family="Times,serif" font-size="14.00">Джанктаун. Их жители</text>
<text text-anchor="middle" x="1819" y="-908.48" font-family="Times,serif" font-size="14.00">очень благодарны нам за</text>
<text text-anchor="middle" x="1819" y="-891.23" font-family="Times,serif" font-size="14.00">то, что мы к ним</text>
<text text-anchor="middle" x="1819" y="-873.98" font-family="Times,serif" font-size="14.00">завернули.</text>
</g>
<!-- tolya01&#45;&gt;tolya05 -->
<g id="edge10" class="edge">
<title>tolya01&#45;&gt;tolya05</title>
<path fill="none" stroke="#99004e" d="M1646.66,-1116.5C1675.32,-1085.72 1709.19,-1049.35 1739.28,-1017.03"/>
<polygon fill="#99004e" stroke="#99004e" points="1741.19,-1020.04 1745.44,-1010.34 1736.06,-1015.27 1741.19,-1020.04"/>
<text text-anchor="middle" x="1774.62" y="-1060.64" font-family="Times,serif" font-size="14.00" fill="#99004e">А где ты бывал?</text>
</g>
<!-- tolya04&#45;&gt;tolyaend -->
<g id="edge13" class="edge">
<title>tolya04&#45;&gt;tolyaend</title>
<path fill="none" stroke="#5e0099" d="M1366.76,-863.64C1369.22,-849.73 1371.48,-835.11 1373,-821.36 1392.6,-643.69 1344.16,-592.8 1387.75,-419.45 1431.87,-244 1434.22,-176.87 1567,-54 1581.39,-40.68 1601.47,-32.18 1618.81,-26.89"/>
<polygon fill="#5e0099" stroke="#5e0099" points="1619.49,-30.06 1628.19,-24 1617.61,-23.31 1619.49,-30.06"/>
<text text-anchor="middle" x="1477.62" y="-440.65" font-family="Times,serif" font-size="14.00" fill="#5e0099">Звучит привлекательно.</text>
</g>
<!-- tolya06 -->
<g id="node20" class="node">
<title>tolya06</title>
<ellipse fill="#ffffff" stroke="#000000" cx="1196" cy="-629.03" rx="157.15" ry="54.45"/>
<text text-anchor="middle" x="1196" y="-650.23" font-family="Times,serif" font-size="14.00">Ты начинаешь меня</text>
<text text-anchor="middle" x="1196" y="-632.98" font-family="Times,serif" font-size="14.00">раздражать. Думаю,</text>
<text text-anchor="middle" x="1196" y="-615.73" font-family="Times,serif" font-size="14.00">придется разобраться с</text>
<text text-anchor="middle" x="1196" y="-598.48" font-family="Times,serif" font-size="14.00">этой небольшой проблемой.</text>
</g>
<!-- tolya04&#45;&gt;tolya06 -->
<g id="edge12" class="edge">
<title>tolya04&#45;&gt;tolya06</title>
<path fill="none" stroke="#998b00" d="M1250.97,-879.4C1229.57,-863.89 1209.78,-844.62 1197.5,-821.36 1177.09,-782.7 1177.27,-733.21 1182.26,-694.25"/>
<polygon fill="#998b00" stroke="#998b00" points="1185.84,-694.96 1183.79,-684.56 1178.91,-693.97 1185.84,-694.96"/>
<text text-anchor="middle" x="1285.75" y="-808.06" font-family="Times,serif" font-size="14.00" fill="#998b00">Так что, на самом деле,</text>
<text text-anchor="middle" x="1285.75" y="-790.81" font-family="Times,serif" font-size="14.00" fill="#998b00">вы их просто крадете.</text>
</g>
<!-- tolya08 -->
<g id="node21" class="node">
<title>tolya08</title>
<ellipse fill="#ffffff" stroke="#000000" cx="2133" cy="-629.03" rx="156.09" ry="139.83"/>
<text text-anchor="middle" x="2133" y="-710.61" font-family="Times,serif" font-size="14.00">Да, мы временами</text>
<text text-anchor="middle" x="2133" y="-693.36" font-family="Times,serif" font-size="14.00">забираемся в Шэйди Сэндс.</text>
<text text-anchor="middle" x="2133" y="-676.11" font-family="Times,serif" font-size="14.00">Это добавляет немного</text>
<text text-anchor="middle" x="2133" y="-658.86" font-family="Times,serif" font-size="14.00">приятного волнения в</text>
<text text-anchor="middle" x="2133" y="-641.61" font-family="Times,serif" font-size="14.00">жизнь всех жителей.</text>
<text text-anchor="middle" x="2133" y="-624.36" font-family="Times,serif" font-size="14.00">&#45;&#45;&#45;</text>
<text text-anchor="middle" x="2133" y="-607.11" font-family="Times,serif" font-size="14.00">Да, мы временами</text>
<text text-anchor="middle" x="2133" y="-589.86" font-family="Times,serif" font-size="14.00">забираемся в Шэйди Сэндс.</text>
<text text-anchor="middle" x="2133" y="-572.61" font-family="Times,serif" font-size="14.00">Это добавляет немного</text>
<text text-anchor="middle" x="2133" y="-555.36" font-family="Times,serif" font-size="14.00">приятного волнения в</text>
<text text-anchor="middle" x="2133" y="-538.11" font-family="Times,serif" font-size="14.00">жизнь всех жителей.</text>
</g>
<!-- tolya05&#45;&gt;tolya08 -->
<g id="edge14" class="edge">
<title>tolya05&#45;&gt;tolya08</title>
<path fill="none" stroke="#009932" d="M1897.83,-854.24C1934.44,-819.34 1978.66,-777.18 2018.83,-738.88"/>
<polygon fill="#009932" stroke="#009932" points="2020.72,-741.96 2025.54,-732.53 2015.89,-736.9 2020.72,-741.96"/>
<text text-anchor="middle" x="2053.38" y="-799.44" font-family="Times,serif" font-size="14.00" fill="#009932">Ты был в Шэйди Сэндс?</text>
</g>
<!-- tolya09 -->
<g id="node22" class="node">
<title>tolya09</title>
<ellipse fill="#ffffff" stroke="#000000" cx="1836" cy="-237.23" rx="164.05" ry="164.23"/>
<text text-anchor="middle" x="1836" y="-336.05" font-family="Times,serif" font-size="14.00">Ну, Джанктаун находится</text>
<text text-anchor="middle" x="1836" y="-318.8" font-family="Times,serif" font-size="14.00">чуть&#45;чуть к югу отсюда.</text>
<text text-anchor="middle" x="1836" y="-301.55" font-family="Times,serif" font-size="14.00">Пройдешь отсюда несколько</text>
<text text-anchor="middle" x="1836" y="-284.3" font-family="Times,serif" font-size="14.00">миль, повернешь направо</text>
<text text-anchor="middle" x="1836" y="-267.05" font-family="Times,serif" font-size="14.00">перед умирающим кактусом.</text>
<text text-anchor="middle" x="1836" y="-249.8" font-family="Times,serif" font-size="14.00">Только не пропусти его!</text>
<text text-anchor="middle" x="1836" y="-232.55" font-family="Times,serif" font-size="14.00">&#45;&#45;&#45;</text>
<text text-anchor="middle" x="1836" y="-215.3" font-family="Times,serif" font-size="14.00">Ну, Джанктаун находится</text>
<text text-anchor="middle" x="1836" y="-198.05" font-family="Times,serif" font-size="14.00">чуть&#45;чуть к югу отсюда.</text>
<text text-anchor="middle" x="1836" y="-180.8" font-family="Times,serif" font-size="14.00">Пройдешь отсюда несколько</text>
<text text-anchor="middle" x="1836" y="-163.55" font-family="Times,serif" font-size="14.00">миль, повернешь направо</text>
<text text-anchor="middle" x="1836" y="-146.3" font-family="Times,serif" font-size="14.00">перед умирающим кактусом.</text>
<text text-anchor="middle" x="1836" y="-129.05" font-family="Times,serif" font-size="14.00">Только не пропусти его!</text>
</g>
<!-- tolya05&#45;&gt;tolya09 -->
<g id="edge15" class="edge">
<title>tolya05&#45;&gt;tolya09</title>
<path fill="none" stroke="#990500" d="M1820.45,-839.19C1821.96,-750.2 1824.56,-610.31 1827.75,-489.2 1828.4,-464.41 1829.17,-438.25 1829.98,-412.55"/>
<polygon fill="#990500" stroke="#990500" points="1833.51,-412.68 1830.32,-402.57 1826.51,-412.46 1833.51,-412.68"/>
<text text-anchor="middle" x="1897.12" y="-632.98" font-family="Times,serif" font-size="14.00" fill="#990500">Где находится этот</text>
<text text-anchor="middle" x="1897.12" y="-615.73" font-family="Times,serif" font-size="14.00" fill="#990500">Джанктаун?</text>
</g>
<!-- tolya06&#45;&gt;combat -->
<g id="edge16" class="edge">
<title>tolya06&#45;&gt;combat</title>
<path fill="none" stroke="#555555" stroke-dasharray="1,5" d="M1176.27,-574.66C1160.13,-532.13 1136.1,-471.32 1112,-419.45 1085.64,-362.73 1050.26,-298.52 1030.64,-263.81"/>
<polygon fill="#555555" stroke="#555555" points="1033.3,-262.4 1025.32,-255.43 1027.21,-265.85 1033.3,-262.4"/>
</g>
<!-- tolya08&#45;&gt;tolyaend -->
<g id="edge17" class="edge">
<title>tolya08&#45;&gt;tolyaend</title>
<path fill="none" stroke="#555555" stroke-dasharray="1,5" d="M2185.3,-496.83C2189.98,-471.19 2191,-444.49 2185,-419.45 2144.78,-251.49 2148.95,-174.2 2009,-73 1958.96,-36.82 1773.41,-24.27 1692.8,-20.47"/>
<polygon fill="#555555" stroke="#555555" points="1693.29,-16.94 1683.14,-19.99 1692.98,-23.93 1693.29,-16.94"/>
</g>
<!-- tolya08&#45;&gt;tolya09 -->
<g id="edge18" class="edge">
<title>tolya08&#45;&gt;tolya09</title>
<path fill="none" stroke="#002899" d="M2026.14,-527.1C2006.3,-512.48 1984.89,-499.06 1963,-489.2 1917.73,-468.81 1886.24,-507.85 1852.75,-471.2 1843.24,-460.8 1837.66,-438.86 1834.58,-412.42"/>
<polygon fill="#002899" stroke="#002899" points="1837.98,-412.27 1833.48,-402.67 1831.02,-412.98 1837.98,-412.27"/>
<text text-anchor="middle" x="1929.62" y="-440.65" font-family="Times,serif" font-size="14.00" fill="#002899">А что за Джанктаун?</text>
</g>
<!-- tolya09&#45;&gt;tolyaend -->
<g id="edge19" class="edge">
<title>tolya09&#45;&gt;tolyaend</title>
<path fill="none" stroke="#555555" stroke-dasharray="1,5" d="M1731.24,-110.49C1709.53,-84.45 1688.95,-59.75 1674.66,-42.59"/>
<polygon fill="#555555" stroke="#555555" points="1676.87,-40.78 1667.78,-35.34 1671.5,-45.26 1676.87,-40.78"/>
</g>
<!-- tolya09&#45;&gt;tolya08 -->
<g id="edge20" class="edge">
<title>tolya09&#45;&gt;tolya08</title>
<path fill="none" stroke="#549900" d="M1954.14,-351.23C1973.48,-372.83 1992.3,-396.03 2008,-419.45 2022.04,-440.39 2019.19,-449.06 2031.25,-471.2 2036.37,-480.6 2041.86,-490.17 2047.53,-499.73"/>
<polygon fill="#549900" stroke="#549900" points="2044.88,-501.1 2053.03,-507.87 2050.88,-497.5 2044.88,-501.1"/>
<text text-anchor="middle" x="2107.88" y="-449.28" font-family="Times,serif" font-size="14.00" fill="#549900">Ты сказал, что был в</text>
<text text-anchor="middle" x="2107.88" y="-432.03" font-family="Times,serif" font-size="14.00" fill="#549900">Шэйди Сэндс.</text>
</g>
<!-- tolya07 -->
<g id="node23" class="node">
<title>tolya07</title>
<ellipse fill="#ffffff" stroke="#000000" cx="2191" cy="-1407.11" rx="149.2" ry="103.24"/>
<text text-anchor="middle" x="2191" y="-1462.81" font-family="Times,serif" font-size="14.00">Мы &#45; Ханы, а наш</text>
<text text-anchor="middle" x="2191" y="-1445.56" font-family="Times,serif" font-size="14.00">предводитель &#45; Гарл. Из</text>
<text text-anchor="middle" x="2191" y="-1428.31" font-family="Times,serif" font-size="14.00">всех отрядов пустыни нас</text>
<text text-anchor="middle" x="2191" y="-1411.06" font-family="Times,serif" font-size="14.00">боятся больше всех, и с</text>
<text text-anchor="middle" x="2191" y="-1393.81" font-family="Times,serif" font-size="14.00">серьезными основаниями.</text>
<text text-anchor="middle" x="2191" y="-1376.56" font-family="Times,serif" font-size="14.00">Мы берем то, что хотим, а</text>
<text text-anchor="middle" x="2191" y="-1359.31" font-family="Times,serif" font-size="14.00">те, кто стоят у нас на</text>
<text text-anchor="middle" x="2191" y="-1342.06" font-family="Times,serif" font-size="14.00">пути &#45; платят за это.</text>
</g>
</g>
</svg>
