<?xml version="1.0" encoding="UTF-8" standalone="no"?>
<!DOCTYPE svg PUBLIC "-//W3C//DTD SVG 1.1//EN"
 "http://www.w3.org/Graphics/SVG/1.1/DTD/svg11.dtd">
<!-- Generated by graphviz version 8.0.5 (0)
 -->
<!-- Title: v13door Pages: 1 -->
<svg width="589pt" height="262pt"
 viewBox="0.00 0.00 589.01 261.79" xmlns="http://www.w3.org/2000/svg" xmlns:xlink="http://www.w3.org/1999/xlink">
<g id="graph0" class="graph" transform="scale(1 1) rotate(0) translate(4 257.79)">
<title>v13door</title>
<polygon fill="white" stroke="none" points="-4,4 -4,-257.79 585.01,-257.79 585.01,4 -4,4"/>
<!-- start -->
<g id="node1" class="node">
<title>start</title>
<ellipse fill="#ffffff" stroke="#000000" cx="154.5" cy="-199.34" rx="27" ry="18"/>
</g>
<!-- description_p_proc -->
<g id="node2" class="node">
<title>description_p_proc</title>
<ellipse fill="#ffffff" stroke="#000000" cx="154.5" cy="-54.45" rx="154.5" ry="54.45"/>
<text text-anchor="middle" x="154.5" y="-75.65" font-family="Times,serif" font-size="14.00">Эта дверь слишком</text>
<text text-anchor="middle" x="154.5" y="-58.4" font-family="Times,serif" font-size="14.00">тяжелая, чтобы открыть ее</text>
<text text-anchor="middle" x="154.5" y="-41.15" font-family="Times,serif" font-size="14.00">вручную. Используйте</text>
<text text-anchor="middle" x="154.5" y="-23.9" font-family="Times,serif" font-size="14.00">входной терминал.</text>
</g>
<!-- start&#45;&gt;description_p_proc -->
<g id="edge1" class="edge">
<title>start&#45;&gt;description_p_proc</title>
<path fill="none" stroke="#555555" stroke-dasharray="1,5" d="M154.5,-181.11C154.5,-165.86 154.5,-142.62 154.5,-120.26"/>
<polygon fill="#555555" stroke="#555555" points="158,-120.39 154.5,-110.39 151,-120.39 158,-120.39"/>
</g>
<!-- map_enter_p_proc -->
<g id="node3" class="node">
<title>map_enter_p_proc</title>
<ellipse fill="#ffffff" stroke="#000000" cx="226.5" cy="-199.34" rx="27" ry="18"/>
</g>
<!-- use_p_proc -->
<g id="node4" class="node">
<title>use_p_proc</title>
<ellipse fill="#ffffff" stroke="#000000" cx="426.5" cy="-199.34" rx="154.5" ry="54.45"/>
<text text-anchor="middle" x="426.5" y="-220.54" font-family="Times,serif" font-size="14.00">Эта дверь слишком</text>
<text text-anchor="middle" x="426.5" y="-203.29" font-family="Times,serif" font-size="14.00">тяжелая, чтобы открыть ее</text>
<text text-anchor="middle" x="426.5" y="-186.04" font-family="Times,serif" font-size="14.00">вручную. Используйте</text>
<text text-anchor="middle" x="426.5" y="-168.79" font-family="Times,serif" font-size="14.00">входной терминал.</text>
</g>
</g>
</svg>
