<?xml version="1.0" encoding="UTF-8" standalone="no"?>
<!DOCTYPE svg PUBLIC "-//W3C//DTD SVG 1.1//EN"
 "http://www.w3.org/Graphics/SVG/1.1/DTD/svg11.dtd">
<!-- Generated by graphviz version 8.0.5 (0)
 -->
<!-- Title: valtglo Pages: 1 -->
<svg width="798pt" height="262pt"
 viewBox="0.00 0.00 797.88 262.08" xmlns="http://www.w3.org/2000/svg" xmlns:xlink="http://www.w3.org/1999/xlink">
<g id="graph0" class="graph" transform="scale(1 1) rotate(0) translate(4 258.08)">
<title>valtglo</title>
<polygon fill="white" stroke="none" points="-4,4 -4,-258.08 793.88,-258.08 793.88,4 -4,4"/>
<!-- start -->
<g id="node1" class="node">
<title>start</title>
<ellipse fill="#ffffff" stroke="#000000" cx="502.88" cy="-236.08" rx="27" ry="18"/>
</g>
<!-- look_at_p_proc -->
<g id="node2" class="node">
<title>look_at_p_proc</title>
<ellipse fill="#ffffff" stroke="#000000" cx="134.88" cy="-91.04" rx="134.88" ry="30.05"/>
<text text-anchor="middle" x="134.88" y="-94.99" font-family="Times,serif" font-size="14.00">Вы видите светящегося</text>
<text text-anchor="middle" x="134.88" y="-77.74" font-family="Times,serif" font-size="14.00">гуля.</text>
</g>
<!-- start&#45;&gt;look_at_p_proc -->
<g id="edge1" class="edge">
<title>start&#45;&gt;look_at_p_proc</title>
<path fill="none" stroke="#555555" stroke-dasharray="1,5" d="M476.49,-231.68C433.7,-225.56 347.1,-210.57 278.88,-182.08 244.29,-167.64 208.54,-145.33 181.32,-126.54"/>
<polygon fill="#555555" stroke="#555555" points="183.63,-123.18 173.43,-120.32 179.61,-128.92 183.63,-123.18"/>
</g>
<!-- pickup_p_proc -->
<g id="node3" class="node">
<title>pickup_p_proc</title>
<ellipse fill="#ffffff" stroke="#000000" cx="314.88" cy="-91.04" rx="27" ry="18"/>
</g>
<!-- start&#45;&gt;pickup_p_proc -->
<g id="edge2" class="edge">
<title>start&#45;&gt;pickup_p_proc</title>
<path fill="none" stroke="#555555" stroke-dasharray="1,5" d="M476.04,-232.48C442.63,-227.88 385.73,-215.4 350.88,-182.08 333.61,-165.57 324.42,-139.69 319.67,-119.9"/>
<polygon fill="#555555" stroke="#555555" points="322.92,-119.4 317.4,-110.36 316.08,-120.87 322.92,-119.4"/>
</g>
<!-- talk_p_proc -->
<g id="node4" class="node">
<title>talk_p_proc</title>
<ellipse fill="#ffffff" stroke="#000000" cx="502.88" cy="-91.04" rx="142.84" ry="91.04"/>
<text text-anchor="middle" x="502.88" y="-138.11" font-family="Times,serif" font-size="14.00">Очистка больше не</text>
<text text-anchor="middle" x="502.88" y="-120.86" font-family="Times,serif" font-size="14.00">работает. Без нее мы все</text>
<text text-anchor="middle" x="502.88" y="-103.61" font-family="Times,serif" font-size="14.00">скоро отправимся на тот</text>
<text text-anchor="middle" x="502.88" y="-86.36" font-family="Times,serif" font-size="14.00">свет.</text>
<text text-anchor="middle" x="502.88" y="-69.11" font-family="Times,serif" font-size="14.00">&#45;&#45;&#45;</text>
<text text-anchor="middle" x="502.88" y="-51.86" font-family="Times,serif" font-size="14.00">Гуль не обращает на вас</text>
<text text-anchor="middle" x="502.88" y="-34.61" font-family="Times,serif" font-size="14.00">внимания.</text>
</g>
<!-- start&#45;&gt;talk_p_proc -->
<g id="edge3" class="edge">
<title>start&#45;&gt;talk_p_proc</title>
<path fill="none" stroke="#555555" stroke-dasharray="1,5" d="M502.88,-217.83C502.88,-210.97 502.88,-202.5 502.88,-193.22"/>
<polygon fill="#555555" stroke="#555555" points="506.38,-193.44 502.88,-183.44 499.38,-193.44 506.38,-193.44"/>
</g>
<!-- critter_p_proc -->
<g id="node5" class="node">
<title>critter_p_proc</title>
<ellipse fill="#ffffff" stroke="#000000" cx="690.88" cy="-91.04" rx="27" ry="18"/>
</g>
<!-- start&#45;&gt;critter_p_proc -->
<g id="edge4" class="edge">
<title>start&#45;&gt;critter_p_proc</title>
<path fill="none" stroke="#555555" stroke-dasharray="1,5" d="M523.99,-224.51C528.82,-222.26 533.99,-219.98 538.88,-218.08 589.19,-198.51 615.22,-218.7 654.88,-182.08 672.54,-165.77 681.7,-139.65 686.35,-119.73"/>
<polygon fill="#555555" stroke="#555555" points="689.94,-120.62 688.54,-110.12 683.09,-119.21 689.94,-120.62"/>
</g>
<!-- destroy_p_proc -->
<g id="node6" class="node">
<title>destroy_p_proc</title>
<ellipse fill="#ffffff" stroke="#000000" cx="762.88" cy="-91.04" rx="27" ry="18"/>
</g>
<!-- start&#45;&gt;destroy_p_proc -->
<g id="edge5" class="edge">
<title>start&#45;&gt;destroy_p_proc</title>
<path fill="none" stroke="#555555" stroke-dasharray="1,5" d="M523.46,-224.28C528.41,-221.98 533.75,-219.75 538.88,-218.08 619.76,-191.71 661.26,-236.22 726.88,-182.08 745.53,-166.69 754.58,-140.23 758.94,-119.97"/>
<polygon fill="#555555" stroke="#555555" points="762.56,-120.64 760.95,-110.17 755.68,-119.36 762.56,-120.64"/>
</g>
<!-- combat -->
<g id="node7" class="node">
<title>combat</title>
<ellipse fill="#ffffff" stroke="#000000" cx="574.88" cy="-236.08" rx="27" ry="18"/>
</g>
</g>
</svg>
