<?xml version="1.0" encoding="UTF-8" standalone="no"?>
<!DOCTYPE svg PUBLIC "-//W3C//DTD SVG 1.1//EN"
 "http://www.w3.org/Graphics/SVG/1.1/DTD/svg11.dtd">
<!-- Generated by graphviz version 8.0.5 (0)
 -->
<!-- Title: valtctzn Pages: 1 -->
<svg width="794pt" height="140pt"
 viewBox="0.00 0.00 794.00 140.10" xmlns="http://www.w3.org/2000/svg" xmlns:xlink="http://www.w3.org/1999/xlink">
<g id="graph0" class="graph" transform="scale(1 1) rotate(0) translate(4 136.1)">
<title>valtctzn</title>
<polygon fill="white" stroke="none" points="-4,4 -4,-136.1 790,-136.1 790,4 -4,4"/>
<!-- start -->
<g id="node1" class="node">
<title>start</title>
<ellipse fill="#ffffff" stroke="#000000" cx="27" cy="-102.05" rx="27" ry="18"/>
</g>
<!-- critter_p_proc -->
<g id="node2" class="node">
<title>critter_p_proc</title>
<ellipse fill="#ffffff" stroke="#000000" cx="99" cy="-102.05" rx="27" ry="18"/>
</g>
<!-- get_rations -->
<g id="node3" class="node">
<title>get_rations</title>
<ellipse fill="#ffffff" stroke="#000000" cx="63" cy="-18" rx="27" ry="18"/>
</g>
<!-- critter_p_proc&#45;&gt;get_rations -->
<g id="edge1" class="edge">
<title>critter_p_proc&#45;&gt;get_rations</title>
<path fill="none" stroke="#555555" stroke-dasharray="1,5" d="M91.71,-84.45C86.79,-73.21 80.17,-58.14 74.54,-45.29"/>
<polygon fill="#555555" stroke="#555555" points="77.5,-44.33 70.27,-36.58 71.09,-47.14 77.5,-44.33"/>
</g>
<!-- sleeping -->
<g id="node4" class="node">
<title>sleeping</title>
<ellipse fill="#ffffff" stroke="#000000" cx="135" cy="-18" rx="27" ry="18"/>
</g>
<!-- critter_p_proc&#45;&gt;sleeping -->
<g id="edge2" class="edge">
<title>critter_p_proc&#45;&gt;sleeping</title>
<path fill="none" stroke="#555555" stroke-dasharray="1,5" d="M106.29,-84.45C111.21,-73.21 117.83,-58.14 123.46,-45.29"/>
<polygon fill="#555555" stroke="#555555" points="126.91,-47.14 127.73,-36.58 120.5,-44.33 126.91,-47.14"/>
</g>
<!-- damage_p_proc -->
<g id="node5" class="node">
<title>damage_p_proc</title>
<ellipse fill="#ffffff" stroke="#000000" cx="171" cy="-102.05" rx="27" ry="18"/>
</g>
<!-- destroy_p_proc -->
<g id="node6" class="node">
<title>destroy_p_proc</title>
<ellipse fill="#ffffff" stroke="#000000" cx="243" cy="-102.05" rx="27" ry="18"/>
</g>
<!-- map_enter_p_proc -->
<g id="node7" class="node">
<title>map_enter_p_proc</title>
<ellipse fill="#ffffff" stroke="#000000" cx="315" cy="-102.05" rx="27" ry="18"/>
</g>
<!-- set_ration_tile -->
<g id="node8" class="node">
<title>set_ration_tile</title>
<ellipse fill="#ffffff" stroke="#000000" cx="279" cy="-18" rx="27" ry="18"/>
</g>
<!-- map_enter_p_proc&#45;&gt;set_ration_tile -->
<g id="edge3" class="edge">
<title>map_enter_p_proc&#45;&gt;set_ration_tile</title>
<path fill="none" stroke="#555555" stroke-dasharray="1,5" d="M307.71,-84.45C302.79,-73.21 296.17,-58.14 290.54,-45.29"/>
<polygon fill="#555555" stroke="#555555" points="293.5,-44.33 286.27,-36.58 287.09,-47.14 293.5,-44.33"/>
</g>
<!-- set_sleep_tile -->
<g id="node9" class="node">
<title>set_sleep_tile</title>
<ellipse fill="#ffffff" stroke="#000000" cx="351" cy="-18" rx="27" ry="18"/>
</g>
<!-- map_enter_p_proc&#45;&gt;set_sleep_tile -->
<g id="edge4" class="edge">
<title>map_enter_p_proc&#45;&gt;set_sleep_tile</title>
<path fill="none" stroke="#555555" stroke-dasharray="1,5" d="M322.29,-84.45C327.21,-73.21 333.83,-58.14 339.46,-45.29"/>
<polygon fill="#555555" stroke="#555555" points="342.91,-47.14 343.73,-36.58 336.5,-44.33 342.91,-47.14"/>
</g>
<!-- pickup_p_proc -->
<g id="node10" class="node">
<title>pickup_p_proc</title>
<ellipse fill="#ffffff" stroke="#000000" cx="387" cy="-102.05" rx="27" ry="18"/>
</g>
<!-- talk_p_proc -->
<g id="node11" class="node">
<title>talk_p_proc</title>
<ellipse fill="#ffffff" stroke="#000000" cx="573" cy="-102.05" rx="141.24" ry="30.05"/>
<text text-anchor="middle" x="573" y="-106" font-family="Times,serif" font-size="14.00">Не забудь зайти к врачу,</text>
<text text-anchor="middle" x="573" y="-88.75" font-family="Times,serif" font-size="14.00">если тебя ранили.</text>
</g>
<!-- timed_event_p_proc -->
<g id="node12" class="node">
<title>timed_event_p_proc</title>
<ellipse fill="#ffffff" stroke="#000000" cx="759" cy="-102.05" rx="27" ry="18"/>
</g>
</g>
</svg>
