<?xml version="1.0" encoding="UTF-8" standalone="no"?>
<!DOCTYPE svg PUBLIC "-//W3C//DTD SVG 1.1//EN"
 "http://www.w3.org/Graphics/SVG/1.1/DTD/svg11.dtd">
<!-- Generated by graphviz version 8.0.5 (0)
 -->
<!-- Title: vatalert Pages: 1 -->
<svg width="915pt" height="213pt"
 viewBox="0.00 0.00 915.49 213.29" xmlns="http://www.w3.org/2000/svg" xmlns:xlink="http://www.w3.org/1999/xlink">
<g id="graph0" class="graph" transform="scale(1 1) rotate(0) translate(4 209.29)">
<title>vatalert</title>
<polygon fill="white" stroke="none" points="-4,4 -4,-209.29 911.49,-209.29 911.49,4 -4,4"/>
<!-- start -->
<g id="node1" class="node">
<title>start</title>
<ellipse fill="#ffffff" stroke="#000000" cx="448.59" cy="-187.29" rx="27" ry="18"/>
</g>
<!-- description_p_proc -->
<g id="node2" class="node">
<title>description_p_proc</title>
<ellipse fill="#ffffff" stroke="#000000" cx="138.59" cy="-66.64" rx="138.59" ry="66.64"/>
<text text-anchor="middle" x="138.59" y="-96.47" font-family="Times,serif" font-size="14.00">Есть что&#45;что странное в</text>
<text text-anchor="middle" x="138.59" y="-79.22" font-family="Times,serif" font-size="14.00">этой части пола.</text>
<text text-anchor="middle" x="138.59" y="-61.97" font-family="Times,serif" font-size="14.00">&#45;&#45;&#45;</text>
<text text-anchor="middle" x="138.59" y="-44.72" font-family="Times,serif" font-size="14.00">Вы не замечаете ничего</text>
<text text-anchor="middle" x="138.59" y="-27.47" font-family="Times,serif" font-size="14.00">особенного.</text>
</g>
<!-- start&#45;&gt;description_p_proc -->
<g id="edge1" class="edge">
<title>start&#45;&gt;description_p_proc</title>
<path fill="none" stroke="#555555" stroke-dasharray="1,5" d="M424.17,-179.14C392.22,-169.6 334.66,-151.76 286.59,-133.29 273.94,-128.43 260.81,-123.07 247.82,-117.58"/>
<polygon fill="#555555" stroke="#555555" points="249.5,-114.06 238.93,-113.35 246.75,-120.5 249.5,-114.06"/>
</g>
<!-- spatial_p_proc -->
<g id="node3" class="node">
<title>spatial_p_proc</title>
<ellipse fill="#ffffff" stroke="#000000" cx="448.59" cy="-66.64" rx="152.91" ry="66.64"/>
<text text-anchor="middle" x="448.59" y="-96.47" font-family="Times,serif" font-size="14.00">В отдалении звучит сигнал</text>
<text text-anchor="middle" x="448.59" y="-79.22" font-family="Times,serif" font-size="14.00">тревоги.</text>
<text text-anchor="middle" x="448.59" y="-61.97" font-family="Times,serif" font-size="14.00">&#45;&#45;&#45;</text>
<text text-anchor="middle" x="448.59" y="-44.72" font-family="Times,serif" font-size="14.00">У ваших ног какой&#45;то</text>
<text text-anchor="middle" x="448.59" y="-27.47" font-family="Times,serif" font-size="14.00">датчик.</text>
</g>
<!-- start&#45;&gt;spatial_p_proc -->
<g id="edge2" class="edge">
<title>start&#45;&gt;spatial_p_proc</title>
<path fill="none" stroke="#555555" stroke-dasharray="1,5" d="M448.59,-169.04C448.59,-162.11 448.59,-153.6 448.59,-144.49"/>
<polygon fill="#555555" stroke="#555555" points="452.09,-144.57 448.59,-134.57 445.09,-144.57 452.09,-144.57"/>
</g>
<!-- use_skill_on_p_proc -->
<g id="node4" class="node">
<title>use_skill_on_p_proc</title>
<ellipse fill="#ffffff" stroke="#000000" cx="763.59" cy="-66.64" rx="143.9" ry="54.45"/>
<text text-anchor="middle" x="763.59" y="-87.84" font-family="Times,serif" font-size="14.00">Вы отключаете датчик.</text>
<text text-anchor="middle" x="763.59" y="-70.59" font-family="Times,serif" font-size="14.00">&#45;&#45;&#45;</text>
<text text-anchor="middle" x="763.59" y="-53.34" font-family="Times,serif" font-size="14.00">Вы не можете отключить</text>
<text text-anchor="middle" x="763.59" y="-36.09" font-family="Times,serif" font-size="14.00">датчик.</text>
</g>
<!-- start&#45;&gt;use_skill_on_p_proc -->
<g id="edge3" class="edge">
<title>start&#45;&gt;use_skill_on_p_proc</title>
<path fill="none" stroke="#555555" stroke-dasharray="1,5" d="M472.98,-179.05C504.89,-169.42 562.42,-151.46 610.59,-133.29 627.21,-127.02 644.66,-119.98 661.59,-112.9"/>
<polygon fill="#555555" stroke="#555555" points="662.63,-115.84 670.49,-108.73 659.92,-109.39 662.63,-115.84"/>
</g>
</g>
</svg>
