<?xml version="1.0" encoding="UTF-8" standalone="no"?>
<!DOCTYPE svg PUBLIC "-//W3C//DTD SVG 1.1//EN"
 "http://www.w3.org/Graphics/SVG/1.1/DTD/svg11.dtd">
<!-- Generated by graphviz version 8.0.5 (0)
 -->
<!-- Title: vlaser Pages: 1 -->
<svg width="949pt" height="311pt"
 viewBox="0.00 0.00 949.07 310.87" xmlns="http://www.w3.org/2000/svg" xmlns:xlink="http://www.w3.org/1999/xlink">
<g id="graph0" class="graph" transform="scale(1 1) rotate(0) translate(4 306.87)">
<title>vlaser</title>
<polygon fill="white" stroke="none" points="-4,4 -4,-306.87 945.07,-306.87 945.07,4 -4,4"/>
<!-- start -->
<g id="node1" class="node">
<title>start</title>
<ellipse fill="#ffffff" stroke="#000000" cx="473.62" cy="-284.87" rx="27" ry="18"/>
</g>
<!-- description_p_proc -->
<g id="node2" class="node">
<title>description_p_proc</title>
<ellipse fill="#ffffff" stroke="#000000" cx="156.62" cy="-115.44" rx="156.62" ry="115.44"/>
<text text-anchor="middle" x="156.62" y="-179.76" font-family="Times,serif" font-size="14.00">Вы замечаете маленькую</text>
<text text-anchor="middle" x="156.62" y="-162.51" font-family="Times,serif" font-size="14.00">пластину у своих ног.</text>
<text text-anchor="middle" x="156.62" y="-145.26" font-family="Times,serif" font-size="14.00">&#45;&#45;&#45;</text>
<text text-anchor="middle" x="156.62" y="-128.01" font-family="Times,serif" font-size="14.00">Ваше знание ловушек</text>
<text text-anchor="middle" x="156.62" y="-110.76" font-family="Times,serif" font-size="14.00">подсказывает вам, что это</text>
<text text-anchor="middle" x="156.62" y="-93.51" font-family="Times,serif" font-size="14.00">некий спусковой механизм.</text>
<text text-anchor="middle" x="156.62" y="-76.26" font-family="Times,serif" font-size="14.00">&#45;&#45;&#45;</text>
<text text-anchor="middle" x="156.62" y="-59.01" font-family="Times,serif" font-size="14.00">Вы замечаете маленькую</text>
<text text-anchor="middle" x="156.62" y="-41.76" font-family="Times,serif" font-size="14.00">пластину у своих ног.</text>
</g>
<!-- start&#45;&gt;description_p_proc -->
<g id="edge1" class="edge">
<title>start&#45;&gt;description_p_proc</title>
<path fill="none" stroke="#555555" stroke-dasharray="1,5" d="M448.74,-277.35C418.12,-268.82 364.97,-252.41 322.62,-230.87 306.98,-222.91 291.09,-213.68 275.65,-203.97"/>
<polygon fill="#555555" stroke="#555555" points="277.94,-200.64 267.62,-198.21 274.17,-206.54 277.94,-200.64"/>
</g>
<!-- spatial_p_proc -->
<g id="node3" class="node">
<title>spatial_p_proc</title>
<ellipse fill="#ffffff" stroke="#000000" cx="473.62" cy="-115.44" rx="142.31" ry="30.05"/>
<text text-anchor="middle" x="473.62" y="-119.39" font-family="Times,serif" font-size="14.00">Лазерный огонь бьет с</text>
<text text-anchor="middle" x="473.62" y="-102.14" font-family="Times,serif" font-size="14.00">южного конца коридора!</text>
</g>
<!-- start&#45;&gt;spatial_p_proc -->
<g id="edge2" class="edge">
<title>start&#45;&gt;spatial_p_proc</title>
<path fill="none" stroke="#555555" stroke-dasharray="1,5" d="M473.62,-266.58C473.62,-240.87 473.62,-191.84 473.62,-156.8"/>
<polygon fill="#555555" stroke="#555555" points="477.12,-156.96 473.62,-146.96 470.12,-156.96 477.12,-156.96"/>
</g>
<!-- use_skill_on_p_proc -->
<g id="node4" class="node">
<title>use_skill_on_p_proc</title>
<ellipse fill="#ffffff" stroke="#000000" cx="787.62" cy="-115.44" rx="153.44" ry="78.84"/>
<text text-anchor="middle" x="787.62" y="-153.89" font-family="Times,serif" font-size="14.00">Вы аккуратно разводите</text>
<text text-anchor="middle" x="787.62" y="-136.64" font-family="Times,serif" font-size="14.00">пружины на пластине.</text>
<text text-anchor="middle" x="787.62" y="-119.39" font-family="Times,serif" font-size="14.00">&#45;&#45;&#45;</text>
<text text-anchor="middle" x="787.62" y="-102.14" font-family="Times,serif" font-size="14.00">Вы не совсем уверены, как</text>
<text text-anchor="middle" x="787.62" y="-84.89" font-family="Times,serif" font-size="14.00">не дать пластине</text>
<text text-anchor="middle" x="787.62" y="-67.64" font-family="Times,serif" font-size="14.00">сработать.</text>
</g>
<!-- start&#45;&gt;use_skill_on_p_proc -->
<g id="edge3" class="edge">
<title>start&#45;&gt;use_skill_on_p_proc</title>
<path fill="none" stroke="#555555" stroke-dasharray="1,5" d="M498.54,-277.41C529.19,-268.94 582.37,-252.59 624.62,-230.87 648.38,-218.66 672.64,-203.4 694.94,-188.04"/>
<polygon fill="#555555" stroke="#555555" points="696.5,-190.52 702.71,-181.93 692.5,-184.77 696.5,-190.52"/>
</g>
</g>
</svg>
