<?xml version="1.0" encoding="UTF-8" standalone="no"?>
<!DOCTYPE svg PUBLIC "-//W3C//DTD SVG 1.1//EN"
 "http://www.w3.org/Graphics/SVG/1.1/DTD/svg11.dtd">
<!-- Generated by graphviz version 8.0.5 (0)
 -->
<!-- Title: bscomp1 Pages: 1 -->
<svg width="1433pt" height="384pt"
 viewBox="0.00 0.00 1433.17 383.76" xmlns="http://www.w3.org/2000/svg" xmlns:xlink="http://www.w3.org/1999/xlink">
<g id="graph0" class="graph" transform="scale(1 1) rotate(0) translate(4 379.76)">
<title>bscomp1</title>
<polygon fill="white" stroke="none" points="-4,4 -4,-379.76 1429.17,-379.76 1429.17,4 -4,4"/>
<!-- start -->
<g id="node1" class="node">
<title>start</title>
<ellipse fill="#ffffff" stroke="#000000" cx="27" cy="-321.32" rx="27" ry="18"/>
</g>
<!-- use_p_proc -->
<g id="node2" class="node">
<title>use_p_proc</title>
<ellipse fill="#ffffff" stroke="#000000" cx="99" cy="-115.44" rx="27" ry="18"/>
</g>
<!-- look_at_p_proc -->
<g id="node3" class="node">
<title>look_at_p_proc</title>
<ellipse fill="#ffffff" stroke="#000000" cx="287" cy="-321.32" rx="143.37" ry="30.05"/>
<text text-anchor="middle" x="287" y="-325.27" font-family="Times,serif" font-size="14.00">Вы видите библиотечный</text>
<text text-anchor="middle" x="287" y="-308.02" font-family="Times,serif" font-size="14.00">терминал.</text>
</g>
<!-- description_p_proc -->
<g id="node4" class="node">
<title>description_p_proc</title>
<ellipse fill="#ffffff" stroke="#000000" cx="602" cy="-321.32" rx="153.44" ry="54.45"/>
<text text-anchor="middle" x="602" y="-342.52" font-family="Times,serif" font-size="14.00">Вы видите стандартный</text>
<text text-anchor="middle" x="602" y="-325.27" font-family="Times,serif" font-size="14.00">компьютерный терминал.</text>
<text text-anchor="middle" x="602" y="-308.02" font-family="Times,serif" font-size="14.00">Похоже, он работает и</text>
<text text-anchor="middle" x="602" y="-290.77" font-family="Times,serif" font-size="14.00">готов к вводу информации.</text>
</g>
<!-- use_skill_on_p_proc -->
<g id="node5" class="node">
<title>use_skill_on_p_proc</title>
<ellipse fill="#ffffff" stroke="#000000" cx="99" cy="-321.32" rx="27" ry="18"/>
</g>
<!-- use_skill_on_p_proc&#45;&gt;use_p_proc -->
<g id="edge1" class="edge">
<title>use_skill_on_p_proc&#45;&gt;use_p_proc</title>
<path fill="none" stroke="#555555" stroke-dasharray="1,5" d="M99,-302.93C99,-267.65 99,-187.35 99,-144.54"/>
<polygon fill="#555555" stroke="#555555" points="102.5,-144.77 99,-134.77 95.5,-144.77 102.5,-144.77"/>
</g>
<!-- use_obj_on_p_proc -->
<g id="node6" class="node">
<title>use_obj_on_p_proc</title>
<ellipse fill="#ffffff" stroke="#000000" cx="800" cy="-321.32" rx="27" ry="18"/>
</g>
<!-- damage_p_proc -->
<g id="node7" class="node">
<title>damage_p_proc</title>
<ellipse fill="#ffffff" stroke="#000000" cx="872" cy="-321.32" rx="27" ry="18"/>
</g>
<!-- map_enter_p_proc -->
<g id="node8" class="node">
<title>map_enter_p_proc</title>
<ellipse fill="#ffffff" stroke="#000000" cx="944" cy="-321.32" rx="27" ry="18"/>
</g>
<!-- map_update_p_proc -->
<g id="node9" class="node">
<title>map_update_p_proc</title>
<ellipse fill="#ffffff" stroke="#000000" cx="1016" cy="-321.32" rx="27" ry="18"/>
</g>
<!-- talk_p_proc -->
<g id="node10" class="node">
<title>talk_p_proc</title>
<ellipse fill="#ffffff" stroke="#000000" cx="1088" cy="-321.32" rx="27" ry="18"/>
</g>
<!-- Node001 -->
<g id="node11" class="node">
<title>Node001</title>
<ellipse fill="#ffffff" stroke="#000000" cx="917" cy="-115.44" rx="158.22" ry="115.44"/>
<text text-anchor="middle" x="917" y="-179.76" font-family="Times,serif" font-size="14.00">Вы входите в систему и</text>
<text text-anchor="middle" x="917" y="-162.51" font-family="Times,serif" font-size="14.00">быстро сканируете все</text>
<text text-anchor="middle" x="917" y="-145.26" font-family="Times,serif" font-size="14.00">доступные файлы. Вы</text>
<text text-anchor="middle" x="917" y="-128.01" font-family="Times,serif" font-size="14.00">находите данные об</text>
<text text-anchor="middle" x="917" y="-110.76" font-family="Times,serif" font-size="14.00">Убежище 13 и копируете их</text>
<text text-anchor="middle" x="917" y="-93.51" font-family="Times,serif" font-size="14.00">в ваш Пип&#45;Бой.</text>
<text text-anchor="middle" x="917" y="-76.26" font-family="Times,serif" font-size="14.00">&#45;&#45;&#45;</text>
<text text-anchor="middle" x="917" y="-59.01" font-family="Times,serif" font-size="14.00">Вам трудно получить</text>
<text text-anchor="middle" x="917" y="-41.76" font-family="Times,serif" font-size="14.00">доступ к файлам.</text>
</g>
<!-- talk_p_proc&#45;&gt;Node001 -->
<g id="edge2" class="edge">
<title>talk_p_proc&#45;&gt;Node001</title>
<path fill="none" stroke="#555555" stroke-dasharray="1,5" d="M1078.15,-304.48C1071.21,-293.63 1061.49,-279.05 1052,-266.87 1039.78,-251.2 1026.37,-235.1 1012.88,-219.52"/>
<polygon fill="#555555" stroke="#555555" points="1015.03,-217.67 1005.82,-212.44 1009.76,-222.27 1015.03,-217.67"/>
</g>
<!-- Node002 -->
<g id="node12" class="node">
<title>Node002</title>
<ellipse fill="#ffffff" stroke="#000000" cx="1259" cy="-115.44" rx="166.17" ry="66.64"/>
<text text-anchor="middle" x="1259" y="-145.26" font-family="Times,serif" font-size="14.00">В этом компьютере нет</text>
<text text-anchor="middle" x="1259" y="-128.01" font-family="Times,serif" font-size="14.00">никакой ценной</text>
<text text-anchor="middle" x="1259" y="-110.76" font-family="Times,serif" font-size="14.00">информации, кроме данных</text>
<text text-anchor="middle" x="1259" y="-93.51" font-family="Times,serif" font-size="14.00">о местонахождении Убежища</text>
<text text-anchor="middle" x="1259" y="-76.26" font-family="Times,serif" font-size="14.00">13.</text>
</g>
<!-- talk_p_proc&#45;&gt;Node002 -->
<g id="edge3" class="edge">
<title>talk_p_proc&#45;&gt;Node002</title>
<path fill="none" stroke="#555555" stroke-dasharray="1,5" d="M1097.85,-304.48C1104.79,-293.63 1114.51,-279.05 1124,-266.87 1145.32,-239.52 1170.29,-210.88 1192.92,-186.01"/>
<polygon fill="#555555" stroke="#555555" points="1195.01,-188.81 1199.18,-179.07 1189.84,-184.09 1195.01,-188.81"/>
</g>
<!-- Node999 -->
<g id="node13" class="node">
<title>Node999</title>
<ellipse fill="#ffffff" stroke="#000000" cx="1160" cy="-321.32" rx="27" ry="18"/>
</g>
<!-- timed_event_p_proc -->
<g id="node14" class="node">
<title>timed_event_p_proc</title>
<ellipse fill="#ffffff" stroke="#000000" cx="1232" cy="-321.32" rx="27" ry="18"/>
</g>
</g>
</svg>
