<?xml version="1.0" encoding="UTF-8" standalone="no"?>
<!DOCTYPE svg PUBLIC "-//W3C//DTD SVG 1.1//EN"
 "http://www.w3.org/Graphics/SVG/1.1/DTD/svg11.dtd">
<!-- Generated by graphviz version 8.0.5 (0)
 -->
<!-- Title: cave01 Pages: 1 -->
<svg width="4638pt" height="284pt"
 viewBox="0.00 0.00 4638.43 284.10" xmlns="http://www.w3.org/2000/svg" xmlns:xlink="http://www.w3.org/1999/xlink">
<g id="graph0" class="graph" transform="scale(1 1) rotate(0) translate(4 280.1)">
<title>cave01</title>
<polygon fill="white" stroke="none" points="-4,4 -4,-280.1 4634.43,-280.1 4634.43,4 -4,4"/>
<!-- Choose_Encounter -->
<g id="node1" class="node">
<title>Choose_Encounter</title>
<ellipse fill="#ffffff" stroke="#000000" cx="131.57" cy="-90" rx="27" ry="18"/>
</g>
<!-- Choose_Pid -->
<g id="node2" class="node">
<title>Choose_Pid</title>
<ellipse fill="#ffffff" stroke="#000000" cx="43.57" cy="-18" rx="27" ry="18"/>
</g>
<!-- placeCritter -->
<g id="node3" class="node">
<title>placeCritter</title>
<ellipse fill="#ffffff" stroke="#000000" cx="396.57" cy="-246.05" rx="27" ry="18"/>
</g>
<!-- start -->
<g id="node4" class="node">
<title>start</title>
<ellipse fill="#ffffff" stroke="#000000" cx="468.57" cy="-246.05" rx="27" ry="18"/>
</g>
<!-- map_enter_p_proc -->
<g id="node5" class="node">
<title>map_enter_p_proc</title>
<ellipse fill="#ffffff" stroke="#000000" cx="203.57" cy="-246.05" rx="148.14" ry="30.05"/>
<text text-anchor="middle" x="203.57" y="-250" font-family="Times,serif" font-size="14.00">Из глубины пещер</text>
<text text-anchor="middle" x="203.57" y="-232.75" font-family="Times,serif" font-size="14.00">доносятся какие&#45;то звуки.</text>
</g>
<!-- LoadCritters -->
<g id="node6" class="node">
<title>LoadCritters</title>
<ellipse fill="#ffffff" stroke="#000000" cx="167.57" cy="-162" rx="27" ry="18"/>
</g>
<!-- map_enter_p_proc&#45;&gt;LoadCritters -->
<g id="edge1" class="edge">
<title>map_enter_p_proc&#45;&gt;LoadCritters</title>
<path fill="none" stroke="#555555" stroke-dasharray="1,5" d="M190.78,-215.89C187.02,-207.34 182.94,-198.04 179.26,-189.65"/>
<polygon fill="#555555" stroke="#555555" points="182.1,-188.4 174.87,-180.65 175.69,-191.21 182.1,-188.4"/>
</g>
<!-- LoadChests -->
<g id="node7" class="node">
<title>LoadChests</title>
<ellipse fill="#ffffff" stroke="#000000" cx="239.57" cy="-162" rx="27" ry="18"/>
</g>
<!-- map_enter_p_proc&#45;&gt;LoadChests -->
<g id="edge2" class="edge">
<title>map_enter_p_proc&#45;&gt;LoadChests</title>
<path fill="none" stroke="#555555" stroke-dasharray="1,5" d="M216.36,-215.89C220.11,-207.34 224.2,-198.04 227.88,-189.65"/>
<polygon fill="#555555" stroke="#555555" points="231.45,-191.21 232.27,-180.65 225.04,-188.4 231.45,-191.21"/>
</g>
<!-- LoadCritters&#45;&gt;Choose_Encounter -->
<g id="edge3" class="edge">
<title>LoadCritters&#45;&gt;Choose_Encounter</title>
<path fill="none" stroke="#555555" stroke-dasharray="1,5" d="M159.22,-144.76C154.95,-136.46 149.65,-126.15 144.83,-116.79"/>
<polygon fill="#555555" stroke="#555555" points="147.56,-115.44 139.87,-108.15 141.33,-118.64 147.56,-115.44"/>
</g>
<!-- LoadCritterPos -->
<g id="node10" class="node">
<title>LoadCritterPos</title>
<ellipse fill="#ffffff" stroke="#000000" cx="203.57" cy="-90" rx="27" ry="18"/>
</g>
<!-- LoadCritters&#45;&gt;LoadCritterPos -->
<g id="edge4" class="edge">
<title>LoadCritters&#45;&gt;LoadCritterPos</title>
<path fill="none" stroke="#555555" stroke-dasharray="1,5" d="M175.92,-144.76C180.19,-136.46 185.49,-126.15 190.3,-116.79"/>
<polygon fill="#555555" stroke="#555555" points="193.8,-118.64 195.27,-108.15 187.58,-115.44 193.8,-118.64"/>
</g>
<!-- map_update_p_proc -->
<g id="node8" class="node">
<title>map_update_p_proc</title>
<ellipse fill="#ffffff" stroke="#000000" cx="540.57" cy="-246.05" rx="27" ry="18"/>
</g>
<!-- map_exit_p_proc -->
<g id="node9" class="node">
<title>map_exit_p_proc</title>
<ellipse fill="#ffffff" stroke="#000000" cx="612.57" cy="-246.05" rx="27" ry="18"/>
</g>
<!-- LoadCritterPos&#45;&gt;Choose_Pid -->
<g id="edge5" class="edge">
<title>LoadCritterPos&#45;&gt;Choose_Pid</title>
<path fill="none" stroke="#555555" stroke-dasharray="1,5" d="M176.46,-88.29C134.32,-85.91 118.17,-77.99 104.57,-72 65.89,-54.97 55.24,-53.03 16.57,-36 5.57,-31.16 -7.09,-25.05 5.65,-21.63"/>
<polygon fill="#555555" stroke="#555555" points="5.96,-24.97 15.3,-19.96 4.87,-18.05 5.96,-24.97"/>
</g>
<!-- LoadCritterPos&#45;&gt;Choose_Pid -->
<g id="edge7" class="edge">
<title>LoadCritterPos&#45;&gt;Choose_Pid</title>
<path fill="none" stroke="#555555" stroke-dasharray="1,5" d="M176.61,-87.63C149.78,-84.67 135.09,-77.51 122.57,-72 83.89,-54.97 73.24,-53.03 34.57,-36 30.84,-34.36 26.92,-32.57 23.65,-30.79"/>
<polygon fill="#555555" stroke="#555555" points="25.89,-28.98 16.99,-23.24 20.37,-33.28 25.89,-28.98"/>
</g>
<!-- LoadCritterPos&#45;&gt;Choose_Pid -->
<g id="edge9" class="edge">
<title>LoadCritterPos&#45;&gt;Choose_Pid</title>
<path fill="none" stroke="#555555" stroke-dasharray="1,5" d="M177.08,-85.76C162.8,-82.26 150.94,-76.57 140.57,-72 105.37,-56.5 93.38,-53.5 61.49,-39.86"/>
<polygon fill="#555555" stroke="#555555" points="62.99,-36.27 52.43,-35.49 60.2,-42.69 62.99,-36.27"/>
</g>
<!-- LoadCritterPos&#45;&gt;Choose_Pid -->
<g id="edge11" class="edge">
<title>LoadCritterPos&#45;&gt;Choose_Pid</title>
<path fill="none" stroke="#555555" stroke-dasharray="1,5" d="M179.52,-81.37C172.6,-78.37 165.27,-74.95 158.57,-72 122.69,-56.2 110.93,-53.39 71.13,-36.1"/>
<polygon fill="#555555" stroke="#555555" points="72.86,-32.6 62.29,-31.78 70.04,-39.01 72.86,-32.6"/>
</g>
<!-- LoadCritterPos&#45;&gt;Choose_Pid -->
<g id="edge13" class="edge">
<title>LoadCritterPos&#45;&gt;Choose_Pid</title>
<path fill="none" stroke="#555555" stroke-dasharray="1,5" d="M185.85,-76.22C182.77,-74.77 179.61,-73.34 176.57,-72 137.89,-54.97 127.24,-53.03 88.57,-36 85.01,-34.43 81.27,-32.73 77.51,-31.03"/>
<polygon fill="#555555" stroke="#555555" points="79.18,-27.5 68.62,-26.63 76.33,-33.89 79.18,-27.5"/>
</g>
<!-- LoadCritterPos&#45;&gt;Choose_Pid -->
<g id="edge15" class="edge">
<title>LoadCritterPos&#45;&gt;Choose_Pid</title>
<path fill="none" stroke="#555555" stroke-dasharray="1,5" d="M195.71,-72.51C195.33,-72.34 194.95,-72.17 194.57,-72 155.89,-54.97 145.24,-53.03 106.57,-36 98.79,-32.57 90.17,-28.52 80.33,-25.22"/>
<polygon fill="#555555" stroke="#555555" points="81.64,-21.67 71.06,-22.24 79.68,-28.39 81.64,-21.67"/>
</g>
<!-- LoadCritterPos&#45;&gt;Choose_Pid -->
<g id="edge17" class="edge">
<title>LoadCritterPos&#45;&gt;Choose_Pid</title>
<path fill="none" stroke="#555555" stroke-dasharray="1,5" d="M230.15,-85.76C234.8,-82.26 222.94,-76.57 212.57,-72 173.89,-54.97 163.24,-53.03 124.57,-36 113.81,-31.26 101.45,-25.31 81.15,-21.85"/>
<polygon fill="#555555" stroke="#555555" points="81.91,-18.29 71.53,-20.37 80.95,-25.22 81.91,-18.29"/>
</g>
<!-- LoadCritterPos&#45;&gt;Choose_Pid -->
<g id="edge19" class="edge">
<title>LoadCritterPos&#45;&gt;Choose_Pid</title>
<path fill="none" stroke="#555555" stroke-dasharray="1,5" d="M230.84,-88.04C259.27,-85.4 243.73,-77.79 230.57,-72 191.89,-54.97 181.24,-53.03 142.57,-36 130.19,-30.55 115.7,-23.5 81.42,-20.48"/>
<polygon fill="#555555" stroke="#555555" points="81.9,-16.93 71.68,-19.71 81.4,-23.91 81.9,-16.93"/>
</g>
<!-- placeCritter(choose_enc_pid, choose_enc_sid, 12666) -->
<g id="node11" class="node">
<title>placeCritter(choose_enc_pid, choose_enc_sid, 12666)</title>
<ellipse fill="none" stroke="black" cx="364.57" cy="-18" rx="275.86" ry="18"/>
<text text-anchor="middle" x="364.57" y="-13.32" font-family="Times,serif" font-size="14.00">placeCritter(choose_enc_pid, choose_enc_sid, 12666)</text>
</g>
<!-- LoadCritterPos&#45;&gt;placeCritter(choose_enc_pid, choose_enc_sid, 12666) -->
<g id="edge6" class="edge">
<title>LoadCritterPos&#45;&gt;placeCritter(choose_enc_pid, choose_enc_sid, 12666)</title>
<path fill="none" stroke="#555555" stroke-dasharray="1,5" d="M225.96,-79.27C248.93,-69.28 285.44,-53.41 315.22,-40.46"/>
<polygon fill="#555555" stroke="#555555" points="316.25,-43.39 324.03,-36.19 313.46,-36.97 316.25,-43.39"/>
</g>
<!-- placeCritter(choose_enc_pid, choose_enc_sid, 16067) -->
<g id="node12" class="node">
<title>placeCritter(choose_enc_pid, choose_enc_sid, 16067)</title>
<ellipse fill="none" stroke="black" cx="934.57" cy="-18" rx="275.86" ry="18"/>
<text text-anchor="middle" x="934.57" y="-13.32" font-family="Times,serif" font-size="14.00">placeCritter(choose_enc_pid, choose_enc_sid, 16067)</text>
</g>
<!-- LoadCritterPos&#45;&gt;placeCritter(choose_enc_pid, choose_enc_sid, 16067) -->
<g id="edge8" class="edge">
<title>LoadCritterPos&#45;&gt;placeCritter(choose_enc_pid, choose_enc_sid, 16067)</title>
<path fill="none" stroke="#555555" stroke-dasharray="1,5" d="M230.45,-86.43C316.97,-78.14 593.01,-51.71 772.67,-34.5"/>
<polygon fill="#555555" stroke="#555555" points="772.93,-37.9 782.56,-33.46 772.27,-30.93 772.93,-37.9"/>
</g>
<!-- placeCritter(choose_enc_pid, choose_enc_sid, 20266) -->
<g id="node13" class="node">
<title>placeCritter(choose_enc_pid, choose_enc_sid, 20266)</title>
<ellipse fill="none" stroke="black" cx="1504.57" cy="-18" rx="275.86" ry="18"/>
<text text-anchor="middle" x="1504.57" y="-13.32" font-family="Times,serif" font-size="14.00">placeCritter(choose_enc_pid, choose_enc_sid, 20266)</text>
</g>
<!-- LoadCritterPos&#45;&gt;placeCritter(choose_enc_pid, choose_enc_sid, 20266) -->
<g id="edge10" class="edge">
<title>LoadCritterPos&#45;&gt;placeCritter(choose_enc_pid, choose_enc_sid, 20266)</title>
<path fill="none" stroke="#555555" stroke-dasharray="1,5" d="M230.66,-87.66C348.31,-81.83 826.74,-57.96 1219.57,-36 1244.58,-34.6 1270.82,-33.09 1296.84,-31.57"/>
<polygon fill="#555555" stroke="#555555" points="1296.79,-35.02 1306.57,-30.94 1296.38,-28.03 1296.79,-35.02"/>
</g>
<!-- placeCritter(choose_enc_pid, choose_enc_sid, 21888) -->
<g id="node14" class="node">
<title>placeCritter(choose_enc_pid, choose_enc_sid, 21888)</title>
<ellipse fill="none" stroke="black" cx="2074.57" cy="-18" rx="275.86" ry="18"/>
<text text-anchor="middle" x="2074.57" y="-13.32" font-family="Times,serif" font-size="14.00">placeCritter(choose_enc_pid, choose_enc_sid, 21888)</text>
</g>
<!-- LoadCritterPos&#45;&gt;placeCritter(choose_enc_pid, choose_enc_sid, 21888) -->
<g id="edge12" class="edge">
<title>LoadCritterPos&#45;&gt;placeCritter(choose_enc_pid, choose_enc_sid, 21888)</title>
<path fill="none" stroke="#555555" stroke-dasharray="1,5" d="M230.73,-88.36C384.17,-84.68 1157.98,-65.38 1789.57,-36 1815.8,-34.78 1843.37,-33.34 1870.61,-31.82"/>
<polygon fill="#555555" stroke="#555555" points="1870.65,-35.26 1880.44,-31.21 1870.26,-28.27 1870.65,-35.26"/>
</g>
<!-- placeCritter(choose_enc_pid, choose_enc_sid, 28901) -->
<g id="node15" class="node">
<title>placeCritter(choose_enc_pid, choose_enc_sid, 28901)</title>
<ellipse fill="none" stroke="black" cx="2644.57" cy="-18" rx="275.86" ry="18"/>
<text text-anchor="middle" x="2644.57" y="-13.32" font-family="Times,serif" font-size="14.00">placeCritter(choose_enc_pid, choose_enc_sid, 28901)</text>
</g>
<!-- LoadCritterPos&#45;&gt;placeCritter(choose_enc_pid, choose_enc_sid, 28901) -->
<g id="edge14" class="edge">
<title>LoadCritterPos&#45;&gt;placeCritter(choose_enc_pid, choose_enc_sid, 28901)</title>
<path fill="none" stroke="#555555" stroke-dasharray="1,5" d="M230.95,-88.69C414.65,-86.53 1487.01,-72.74 2359.57,-36 2386.47,-34.87 2414.78,-33.45 2442.69,-31.92"/>
<polygon fill="#555555" stroke="#555555" points="2442.58,-35.38 2452.37,-31.33 2442.19,-28.39 2442.58,-35.38"/>
</g>
<!-- placeCritter(choose_enc_pid, choose_enc_sid, 24506) -->
<g id="node16" class="node">
<title>placeCritter(choose_enc_pid, choose_enc_sid, 24506)</title>
<ellipse fill="none" stroke="black" cx="3214.57" cy="-18" rx="275.86" ry="18"/>
<text text-anchor="middle" x="3214.57" y="-13.32" font-family="Times,serif" font-size="14.00">placeCritter(choose_enc_pid, choose_enc_sid, 24506)</text>
</g>
<!-- LoadCritterPos&#45;&gt;placeCritter(choose_enc_pid, choose_enc_sid, 24506) -->
<g id="edge16" class="edge">
<title>LoadCritterPos&#45;&gt;placeCritter(choose_enc_pid, choose_enc_sid, 24506)</title>
<path fill="none" stroke="#555555" stroke-dasharray="1,5" d="M230.78,-88.89C439.91,-87.93 1813.92,-80.1 2929.57,-36 2956.8,-34.92 2985.48,-33.53 3013.73,-31.99"/>
<polygon fill="#555555" stroke="#555555" points="3013.73,-35.44 3023.53,-31.4 3013.35,-28.45 3013.73,-35.44"/>
</g>
<!-- placeCritter(choose_enc_pid, choose_enc_sid, 20326) -->
<g id="node17" class="node">
<title>placeCritter(choose_enc_pid, choose_enc_sid, 20326)</title>
<ellipse fill="none" stroke="black" cx="3784.57" cy="-18" rx="275.86" ry="18"/>
<text text-anchor="middle" x="3784.57" y="-13.32" font-family="Times,serif" font-size="14.00">placeCritter(choose_enc_pid, choose_enc_sid, 20326)</text>
</g>
<!-- LoadCritterPos&#45;&gt;placeCritter(choose_enc_pid, choose_enc_sid, 20326) -->
<g id="edge18" class="edge">
<title>LoadCritterPos&#45;&gt;placeCritter(choose_enc_pid, choose_enc_sid, 20326)</title>
<path fill="none" stroke="#555555" stroke-dasharray="1,5" d="M230.7,-89.01C462.9,-89.05 2139.91,-87.46 3499.57,-36 3527.02,-34.96 3555.94,-33.58 3584.41,-32.04"/>
<polygon fill="#555555" stroke="#555555" points="3584.5,-35.49 3594.3,-31.45 3584.12,-28.5 3584.5,-35.49"/>
</g>
<!-- placeCritter(choose_enc_pid, choose_enc_sid, 14300) -->
<g id="node18" class="node">
<title>placeCritter(choose_enc_pid, choose_enc_sid, 14300)</title>
<ellipse fill="none" stroke="black" cx="4354.57" cy="-18" rx="275.86" ry="18"/>
<text text-anchor="middle" x="4354.57" y="-13.32" font-family="Times,serif" font-size="14.00">placeCritter(choose_enc_pid, choose_enc_sid, 14300)</text>
</g>
<!-- LoadCritterPos&#45;&gt;placeCritter(choose_enc_pid, choose_enc_sid, 14300) -->
<g id="edge20" class="edge">
<title>LoadCritterPos&#45;&gt;placeCritter(choose_enc_pid, choose_enc_sid, 14300)</title>
<path fill="none" stroke="#555555" stroke-dasharray="1,5" d="M230.84,-89.11C484.98,-90 2465.54,-94.8 4069.57,-36 4097.13,-34.99 4126.18,-33.62 4154.76,-32.08"/>
<polygon fill="#555555" stroke="#555555" points="4154.89,-35.53 4164.68,-31.49 4154.51,-28.54 4154.89,-35.53"/>
</g>
</g>
</svg>
