<?xml version="1.0" encoding="UTF-8" standalone="no"?>
<!DOCTYPE svg PUBLIC "-//W3C//DTD SVG 1.1//EN"
 "http://www.w3.org/Graphics/SVG/1.1/DTD/svg11.dtd">
<!-- Generated by graphviz version 8.0.5 (0)
 -->
<!-- Title: dcGamble Pages: 1 -->
<svg width="1374pt" height="506pt"
 viewBox="0.00 0.00 1374.00 506.03" xmlns="http://www.w3.org/2000/svg" xmlns:xlink="http://www.w3.org/1999/xlink">
<g id="graph0" class="graph" transform="scale(1 1) rotate(0) translate(4 502.03)">
<title>dcGamble</title>
<polygon fill="white" stroke="none" points="-4,4 -4,-502.03 1370,-502.03 1370,4 -4,4"/>
<!-- start -->
<g id="node1" class="node">
<title>start</title>
<ellipse fill="#ffffff" stroke="#000000" cx="27" cy="-285.02" rx="27" ry="18"/>
</g>
<!-- critter_p_proc -->
<g id="node2" class="node">
<title>critter_p_proc</title>
<ellipse fill="#ffffff" stroke="#000000" cx="99" cy="-285.02" rx="27" ry="18"/>
</g>
<!-- pickup_p_proc -->
<g id="node3" class="node">
<title>pickup_p_proc</title>
<ellipse fill="#ffffff" stroke="#000000" cx="171" cy="-285.02" rx="27" ry="18"/>
</g>
<!-- Node998 -->
<g id="node4" class="node">
<title>Node998</title>
<ellipse fill="#ffffff" stroke="#000000" cx="171" cy="-18" rx="27" ry="18"/>
</g>
<!-- pickup_p_proc&#45;&gt;Node998 -->
<g id="edge1" class="edge">
<title>pickup_p_proc&#45;&gt;Node998</title>
<path fill="none" stroke="#555555" stroke-dasharray="1,5" d="M171,-266.63C171,-221.8 171,-101.97 171,-47.12"/>
<polygon fill="#555555" stroke="#555555" points="174.5,-47.45 171,-37.45 167.5,-47.45 174.5,-47.45"/>
</g>
<!-- talk_p_proc -->
<g id="node5" class="node">
<title>talk_p_proc</title>
<ellipse fill="#ffffff" stroke="#000000" cx="315" cy="-285.02" rx="27" ry="18"/>
</g>
<!-- Node001 -->
<g id="node6" class="node">
<title>Node001</title>
<ellipse fill="#ffffff" stroke="#000000" cx="243" cy="-18" rx="27" ry="18"/>
</g>
<!-- talk_p_proc&#45;&gt;Node001 -->
<g id="edge2" class="edge">
<title>talk_p_proc&#45;&gt;Node001</title>
<path fill="none" stroke="#555555" stroke-dasharray="1,5" d="M310.39,-267.03C298.25,-222.36 265.34,-101.23 250.47,-46.5"/>
<polygon fill="#555555" stroke="#555555" points="253.67,-45.92 247.67,-37.18 246.91,-47.75 253.67,-45.92"/>
</g>
<!-- Node005 -->
<g id="node7" class="node">
<title>Node005</title>
<ellipse fill="#ffffff" stroke="#000000" cx="315" cy="-18" rx="27" ry="18"/>
</g>
<!-- talk_p_proc&#45;&gt;Node005 -->
<g id="edge3" class="edge">
<title>talk_p_proc&#45;&gt;Node005</title>
<path fill="none" stroke="#555555" stroke-dasharray="1,5" d="M315,-266.63C315,-221.8 315,-101.97 315,-47.12"/>
<polygon fill="#555555" stroke="#555555" points="318.5,-47.45 315,-37.45 311.5,-47.45 318.5,-47.45"/>
</g>
<!-- Node002 -->
<g id="node8" class="node">
<title>Node002</title>
<ellipse fill="#ffffff" stroke="#000000" cx="387" cy="-18" rx="27" ry="18"/>
</g>
<!-- talk_p_proc&#45;&gt;Node002 -->
<g id="edge4" class="edge">
<title>talk_p_proc&#45;&gt;Node002</title>
<path fill="none" stroke="#555555" stroke-dasharray="1,5" d="M315.47,-266.58C317,-229.46 323.48,-140.41 351,-72 355.08,-61.84 361.35,-51.67 367.51,-42.98"/>
<polygon fill="#555555" stroke="#555555" points="370.88,-45.32 374.05,-35.22 365.27,-41.14 370.88,-45.32"/>
</g>
<!-- destroy_p_proc -->
<g id="node9" class="node">
<title>destroy_p_proc</title>
<ellipse fill="#ffffff" stroke="#000000" cx="387" cy="-285.02" rx="27" ry="18"/>
</g>
<!-- look_at_p_proc -->
<g id="node10" class="node">
<title>look_at_p_proc</title>
<ellipse fill="#ffffff" stroke="#000000" cx="539" cy="-285.02" rx="106.98" ry="18"/>
<text text-anchor="middle" x="539" y="-280.34" font-family="Times,serif" font-size="14.00">Вы видите игрока.</text>
</g>
<!-- description_p_proc -->
<g id="node11" class="node">
<title>description_p_proc</title>
<ellipse fill="#ffffff" stroke="#000000" cx="817" cy="-285.02" rx="152.91" ry="213.02"/>
<text text-anchor="middle" x="817" y="-418.34" font-family="Times,serif" font-size="14.00">Похоже, у этого игрока</text>
<text text-anchor="middle" x="817" y="-401.09" font-family="Times,serif" font-size="14.00">дела идут отлично.</text>
<text text-anchor="middle" x="817" y="-383.84" font-family="Times,serif" font-size="14.00">&#45;&#45;&#45;</text>
<text text-anchor="middle" x="817" y="-366.59" font-family="Times,serif" font-size="14.00">Кажется, он выигрывает,</text>
<text text-anchor="middle" x="817" y="-349.34" font-family="Times,serif" font-size="14.00">но все его деньги на</text>
<text text-anchor="middle" x="817" y="-332.09" font-family="Times,serif" font-size="14.00">столе.</text>
<text text-anchor="middle" x="817" y="-314.84" font-family="Times,serif" font-size="14.00">&#45;&#45;&#45;</text>
<text text-anchor="middle" x="817" y="-297.59" font-family="Times,serif" font-size="14.00">Этот человек, похоже, не</text>
<text text-anchor="middle" x="817" y="-280.34" font-family="Times,serif" font-size="14.00">выигрывает и не</text>
<text text-anchor="middle" x="817" y="-263.09" font-family="Times,serif" font-size="14.00">проигрывает</text>
<text text-anchor="middle" x="817" y="-245.84" font-family="Times,serif" font-size="14.00">&#45;&#45;&#45;</text>
<text text-anchor="middle" x="817" y="-228.59" font-family="Times,serif" font-size="14.00">Этот человек уже давно не</text>
<text text-anchor="middle" x="817" y="-211.34" font-family="Times,serif" font-size="14.00">выигрывал.</text>
<text text-anchor="middle" x="817" y="-194.09" font-family="Times,serif" font-size="14.00">&#45;&#45;&#45;</text>
<text text-anchor="middle" x="817" y="-176.84" font-family="Times,serif" font-size="14.00">Она выглядит так, словно</text>
<text text-anchor="middle" x="817" y="-159.59" font-family="Times,serif" font-size="14.00">вот&#45;вот заплачет. Денег у</text>
<text text-anchor="middle" x="817" y="-142.34" font-family="Times,serif" font-size="14.00">нее почти не осталось.</text>
</g>
<!-- use_skill_on_p_proc -->
<g id="node12" class="node">
<title>use_skill_on_p_proc</title>
<ellipse fill="#ffffff" stroke="#000000" cx="1015" cy="-285.02" rx="27" ry="18"/>
</g>
<!-- damage_p_proc -->
<g id="node13" class="node">
<title>damage_p_proc</title>
<ellipse fill="#ffffff" stroke="#000000" cx="1087" cy="-285.02" rx="27" ry="18"/>
</g>
<!-- map_enter_p_proc -->
<g id="node14" class="node">
<title>map_enter_p_proc</title>
<ellipse fill="#ffffff" stroke="#000000" cx="1159" cy="-285.02" rx="27" ry="18"/>
</g>
<!-- map_exit_p_proc -->
<g id="node15" class="node">
<title>map_exit_p_proc</title>
<ellipse fill="#ffffff" stroke="#000000" cx="1231" cy="-285.02" rx="27" ry="18"/>
</g>
<!-- timed_event_p_proc -->
<g id="node16" class="node">
<title>timed_event_p_proc</title>
<ellipse fill="#ffffff" stroke="#000000" cx="1303" cy="-285.02" rx="27" ry="18"/>
</g>
<!-- Node003 -->
<g id="node17" class="node">
<title>Node003</title>
<ellipse fill="#ffffff" stroke="#000000" cx="1267" cy="-18" rx="27" ry="18"/>
</g>
<!-- timed_event_p_proc&#45;&gt;Node003 -->
<g id="edge5" class="edge">
<title>timed_event_p_proc&#45;&gt;Node003</title>
<path fill="none" stroke="#555555" stroke-dasharray="1,5" d="M1300.64,-266.63C1294.53,-221.69 1278.19,-101.4 1270.77,-46.73"/>
<polygon fill="#555555" stroke="#555555" points="1274.14,-46.55 1269.32,-37.11 1267.2,-47.49 1274.14,-46.55"/>
</g>
<!-- Node004 -->
<g id="node18" class="node">
<title>Node004</title>
<ellipse fill="#ffffff" stroke="#000000" cx="1339" cy="-18" rx="27" ry="18"/>
</g>
<!-- timed_event_p_proc&#45;&gt;Node004 -->
<g id="edge6" class="edge">
<title>timed_event_p_proc&#45;&gt;Node004</title>
<path fill="none" stroke="#555555" stroke-dasharray="1,5" d="M1305.36,-266.63C1311.47,-221.69 1327.81,-101.4 1335.23,-46.73"/>
<polygon fill="#555555" stroke="#555555" points="1338.8,-47.49 1336.68,-37.11 1331.86,-46.55 1338.8,-47.49"/>
</g>
</g>
</svg>
