<?xml version="1.0" encoding="UTF-8" standalone="no"?>
<!DOCTYPE svg PUBLIC "-//W3C//DTD SVG 1.1//EN"
 "http://www.w3.org/Graphics/SVG/1.1/DTD/svg11.dtd">
<!-- Generated by graphviz version 8.0.5 (0)
 -->
<!-- Title: dcMarc Pages: 1 -->
<svg width="2200pt" height="408pt"
 viewBox="0.00 0.00 2200.00 408.45" xmlns="http://www.w3.org/2000/svg" xmlns:xlink="http://www.w3.org/1999/xlink">
<g id="graph0" class="graph" transform="scale(1 1) rotate(0) translate(4 404.45)">
<title>dcMarc</title>
<polygon fill="white" stroke="none" points="-4,4 -4,-404.45 2196,-404.45 2196,4 -4,4"/>
<!-- start -->
<g id="node1" class="node">
<title>start</title>
<ellipse fill="#ffffff" stroke="#000000" cx="27" cy="-236.23" rx="27" ry="18"/>
</g>
<!-- critter_p_proc -->
<g id="node2" class="node">
<title>critter_p_proc</title>
<ellipse fill="#ffffff" stroke="#000000" cx="99" cy="-236.23" rx="27" ry="18"/>
</g>
<!-- pickup_p_proc -->
<g id="node3" class="node">
<title>pickup_p_proc</title>
<ellipse fill="#ffffff" stroke="#000000" cx="171" cy="-236.23" rx="27" ry="18"/>
</g>
<!-- Node998 -->
<g id="node4" class="node">
<title>Node998</title>
<ellipse fill="#ffffff" stroke="#000000" cx="171" cy="-18" rx="27" ry="18"/>
</g>
<!-- pickup_p_proc&#45;&gt;Node998 -->
<g id="edge1" class="edge">
<title>pickup_p_proc&#45;&gt;Node998</title>
<path fill="none" stroke="#555555" stroke-dasharray="1,5" d="M171,-217.9C171,-180.65 171,-92.68 171,-47.25"/>
<polygon fill="#555555" stroke="#555555" points="174.5,-47.41 171,-37.41 167.5,-47.41 174.5,-47.41"/>
</g>
<!-- talk_p_proc -->
<g id="node5" class="node">
<title>talk_p_proc</title>
<ellipse fill="#ffffff" stroke="#000000" cx="613" cy="-236.23" rx="27" ry="18"/>
</g>
<!-- Node002 -->
<g id="node6" class="node">
<title>Node002</title>
<ellipse fill="#ffffff" stroke="#000000" cx="437" cy="-18" rx="58.57" ry="18"/>
<text text-anchor="middle" x="437" y="-13.32" font-family="Times,serif" font-size="14.00">Что за...?</text>
</g>
<!-- talk_p_proc&#45;&gt;Node002 -->
<g id="edge2" class="edge">
<title>talk_p_proc&#45;&gt;Node002</title>
<path fill="none" stroke="#555555" stroke-dasharray="1,5" d="M600.62,-220.02C570.77,-183.34 494.54,-89.69 457.64,-44.35"/>
<polygon fill="#555555" stroke="#555555" points="459.83,-42.51 450.8,-36.96 454.4,-46.92 459.83,-42.51"/>
</g>
<!-- Node003 -->
<g id="node7" class="node">
<title>Node003</title>
<ellipse fill="#ffffff" stroke="#000000" cx="541" cy="-18" rx="27" ry="18"/>
</g>
<!-- talk_p_proc&#45;&gt;Node003 -->
<g id="edge3" class="edge">
<title>talk_p_proc&#45;&gt;Node003</title>
<path fill="none" stroke="#555555" stroke-dasharray="1,5" d="M607.35,-218.26C594.92,-180.92 565.09,-91.35 550.03,-46.12"/>
<polygon fill="#555555" stroke="#555555" points="553.1,-45.27 546.62,-36.89 546.46,-47.48 553.1,-45.27"/>
</g>
<!-- Node005 -->
<g id="node8" class="node">
<title>Node005</title>
<ellipse fill="#ffffff" stroke="#000000" cx="613" cy="-18" rx="27" ry="18"/>
</g>
<!-- talk_p_proc&#45;&gt;Node005 -->
<g id="edge4" class="edge">
<title>talk_p_proc&#45;&gt;Node005</title>
<path fill="none" stroke="#555555" stroke-dasharray="1,5" d="M613,-217.9C613,-180.65 613,-92.68 613,-47.25"/>
<polygon fill="#555555" stroke="#555555" points="616.5,-47.41 613,-37.41 609.5,-47.41 616.5,-47.41"/>
</g>
<!-- Node006 -->
<g id="node9" class="node">
<title>Node006</title>
<ellipse fill="#ffffff" stroke="#000000" cx="685" cy="-18" rx="27" ry="18"/>
</g>
<!-- talk_p_proc&#45;&gt;Node006 -->
<g id="edge5" class="edge">
<title>talk_p_proc&#45;&gt;Node006</title>
<path fill="none" stroke="#555555" stroke-dasharray="1,5" d="M614.65,-217.89C618.02,-187.33 627.3,-122.37 649,-72 653.33,-61.95 659.65,-51.79 665.79,-43.1"/>
<polygon fill="#555555" stroke="#555555" points="669.16,-45.43 672.28,-35.31 663.53,-41.28 669.16,-45.43"/>
</g>
<!-- Node004 -->
<g id="node10" class="node">
<title>Node004</title>
<ellipse fill="#ffffff" stroke="#000000" cx="757" cy="-18" rx="27" ry="18"/>
</g>
<!-- talk_p_proc&#45;&gt;Node004 -->
<g id="edge6" class="edge">
<title>talk_p_proc&#45;&gt;Node004</title>
<path fill="none" stroke="#555555" stroke-dasharray="1,5" d="M612.17,-217.94C611.54,-185.72 614.58,-115.82 649,-72 650.32,-70.31 694.4,-48.98 725.82,-33.9"/>
<polygon fill="#555555" stroke="#555555" points="727.01,-36.73 734.51,-29.26 723.98,-30.42 727.01,-36.73"/>
</g>
<!-- destroy_p_proc -->
<g id="node11" class="node">
<title>destroy_p_proc</title>
<ellipse fill="#ffffff" stroke="#000000" cx="785" cy="-236.23" rx="126.93" ry="78.84"/>
<text text-anchor="middle" x="785" y="-274.68" font-family="Times,serif" font-size="14.00">Что за...?</text>
<text text-anchor="middle" x="785" y="-257.43" font-family="Times,serif" font-size="14.00">&#45;&#45;&#45;</text>
<text text-anchor="middle" x="785" y="-240.18" font-family="Times,serif" font-size="14.00">Вы видите охранника.</text>
<text text-anchor="middle" x="785" y="-222.93" font-family="Times,serif" font-size="14.00">&#45;&#45;&#45;</text>
<text text-anchor="middle" x="785" y="-205.68" font-family="Times,serif" font-size="14.00">Вы видите Марка,</text>
<text text-anchor="middle" x="785" y="-188.43" font-family="Times,serif" font-size="14.00">охранника.</text>
</g>
<!-- look_at_p_proc -->
<g id="node12" class="node">
<title>look_at_p_proc</title>
<ellipse fill="#ffffff" stroke="#000000" cx="1056" cy="-236.23" rx="125.92" ry="18"/>
<text text-anchor="middle" x="1056" y="-231.55" font-family="Times,serif" font-size="14.00">Вы видите охранника.</text>
</g>
<!-- description_p_proc -->
<g id="node13" class="node">
<title>description_p_proc</title>
<ellipse fill="#ffffff" stroke="#000000" cx="1344" cy="-236.23" rx="144.43" ry="30.05"/>
<text text-anchor="middle" x="1344" y="-240.18" font-family="Times,serif" font-size="14.00">Вы видите Марка, одного</text>
<text text-anchor="middle" x="1344" y="-222.93" font-family="Times,serif" font-size="14.00">из охранников Тайлера.</text>
</g>
<!-- use_skill_on_p_proc -->
<g id="node14" class="node">
<title>use_skill_on_p_proc</title>
<ellipse fill="#ffffff" stroke="#000000" cx="1533" cy="-236.23" rx="27" ry="18"/>
</g>
<!-- damage_p_proc -->
<g id="node15" class="node">
<title>damage_p_proc</title>
<ellipse fill="#ffffff" stroke="#000000" cx="1605" cy="-236.23" rx="27" ry="18"/>
</g>
<!-- map_enter_p_proc -->
<g id="node16" class="node">
<title>map_enter_p_proc</title>
<ellipse fill="#ffffff" stroke="#000000" cx="1777" cy="-236.23" rx="126.93" ry="164.23"/>
<text text-anchor="middle" x="1777" y="-335.05" font-family="Times,serif" font-size="14.00">Что за...?</text>
<text text-anchor="middle" x="1777" y="-317.8" font-family="Times,serif" font-size="14.00">&#45;&#45;&#45;</text>
<text text-anchor="middle" x="1777" y="-300.55" font-family="Times,serif" font-size="14.00">Вы видите охранника.</text>
<text text-anchor="middle" x="1777" y="-283.3" font-family="Times,serif" font-size="14.00">&#45;&#45;&#45;</text>
<text text-anchor="middle" x="1777" y="-266.05" font-family="Times,serif" font-size="14.00">Вы видите Марка,</text>
<text text-anchor="middle" x="1777" y="-248.8" font-family="Times,serif" font-size="14.00">охранника.</text>
<text text-anchor="middle" x="1777" y="-231.55" font-family="Times,serif" font-size="14.00">&#45;&#45;&#45;</text>
<text text-anchor="middle" x="1777" y="-214.3" font-family="Times,serif" font-size="14.00">Что за...?</text>
<text text-anchor="middle" x="1777" y="-197.05" font-family="Times,serif" font-size="14.00">&#45;&#45;&#45;</text>
<text text-anchor="middle" x="1777" y="-179.8" font-family="Times,serif" font-size="14.00">Вы видите охранника.</text>
<text text-anchor="middle" x="1777" y="-162.55" font-family="Times,serif" font-size="14.00">&#45;&#45;&#45;</text>
<text text-anchor="middle" x="1777" y="-145.3" font-family="Times,serif" font-size="14.00">Вы видите Марка,</text>
<text text-anchor="middle" x="1777" y="-128.05" font-family="Times,serif" font-size="14.00">охранника.</text>
</g>
<!-- map_exit_p_proc -->
<g id="node17" class="node">
<title>map_exit_p_proc</title>
<ellipse fill="#ffffff" stroke="#000000" cx="1949" cy="-236.23" rx="27" ry="18"/>
</g>
<!-- timed_event_p_proc -->
<g id="node18" class="node">
<title>timed_event_p_proc</title>
<ellipse fill="#ffffff" stroke="#000000" cx="266" cy="-236.23" rx="27" ry="18"/>
</g>
<!-- timed_event_p_proc&#45;&gt;Node998 -->
<g id="edge8" class="edge">
<title>timed_event_p_proc&#45;&gt;Node998</title>
<path fill="none" stroke="#555555" stroke-dasharray="1,5" d="M261.45,-218.44C252.92,-188.21 233.02,-123 207,-72 202.03,-62.25 195.56,-52.16 189.48,-43.44"/>
<polygon fill="#555555" stroke="#555555" points="191.8,-41.67 183.12,-35.59 186.11,-45.76 191.8,-41.67"/>
</g>
<!-- Node001 -->
<g id="node19" class="node">
<title>Node001</title>
<ellipse fill="#ffffff" stroke="#000000" cx="288" cy="-18" rx="72.25" ry="18"/>
<text text-anchor="middle" x="288" y="-13.32" font-family="Times,serif" font-size="14.00">Эй, Тайлер!</text>
</g>
<!-- timed_event_p_proc&#45;&gt;Node001 -->
<g id="edge7" class="edge">
<title>timed_event_p_proc&#45;&gt;Node001</title>
<path fill="none" stroke="#555555" stroke-dasharray="1,5" d="M267.76,-217.9C271.55,-180.65 280.5,-92.68 285.13,-47.25"/>
<polygon fill="#555555" stroke="#555555" points="288.7,-47.71 286.23,-37.41 281.73,-47.01 288.7,-47.71"/>
</g>
<!-- map_update_p_proc -->
<g id="node20" class="node">
<title>map_update_p_proc</title>
<ellipse fill="#ffffff" stroke="#000000" cx="2021" cy="-236.23" rx="27" ry="18"/>
</g>
<!-- combat_p_proc -->
<g id="node21" class="node">
<title>combat_p_proc</title>
<ellipse fill="#ffffff" stroke="#000000" cx="2093" cy="-236.23" rx="27" ry="18"/>
</g>
<!-- push_p_proc -->
<g id="node22" class="node">
<title>push_p_proc</title>
<ellipse fill="#ffffff" stroke="#000000" cx="2165" cy="-236.23" rx="27" ry="18"/>
</g>
</g>
</svg>
