<?xml version="1.0" encoding="UTF-8" standalone="no"?>
<!DOCTYPE svg PUBLIC "-//W3C//DTD SVG 1.1//EN"
 "http://www.w3.org/Graphics/SVG/1.1/DTD/svg11.dtd">
<!-- Generated by graphviz version 8.0.5 (0)
 -->
<!-- Title: dcMetRom Pages: 1 -->
<svg width="1282pt" height="164pt"
 viewBox="0.00 0.00 1282.00 164.50" xmlns="http://www.w3.org/2000/svg" xmlns:xlink="http://www.w3.org/1999/xlink">
<g id="graph0" class="graph" transform="scale(1 1) rotate(0) translate(4 160.5)">
<title>dcMetRom</title>
<polygon fill="white" stroke="none" points="-4,4 -4,-160.5 1278,-160.5 1278,4 -4,4"/>
<!-- start -->
<g id="node1" class="node">
<title>start</title>
<ellipse fill="#ffffff" stroke="#000000" cx="27" cy="-114.25" rx="27" ry="18"/>
</g>
<!-- critter_p_proc -->
<g id="node2" class="node">
<title>critter_p_proc</title>
<ellipse fill="#ffffff" stroke="#000000" cx="99" cy="-114.25" rx="27" ry="18"/>
</g>
<!-- pickup_p_proc -->
<g id="node3" class="node">
<title>pickup_p_proc</title>
<ellipse fill="#ffffff" stroke="#000000" cx="243" cy="-114.25" rx="27" ry="18"/>
</g>
<!-- Node998 -->
<g id="node4" class="node">
<title>Node998</title>
<ellipse fill="#ffffff" stroke="#000000" cx="243" cy="-18" rx="27" ry="18"/>
</g>
<!-- pickup_p_proc&#45;&gt;Node998 -->
<g id="edge1" class="edge">
<title>pickup_p_proc&#45;&gt;Node998</title>
<path fill="none" stroke="#555555" stroke-dasharray="1,5" d="M243,-95.96C243,-82.36 243,-63.13 243,-47.3"/>
<polygon fill="#555555" stroke="#555555" points="246.5,-47.5 243,-37.5 239.5,-47.5 246.5,-47.5"/>
</g>
<!-- talk_p_proc -->
<g id="node5" class="node">
<title>talk_p_proc</title>
<ellipse fill="#ffffff" stroke="#000000" cx="171" cy="-114.25" rx="27" ry="18"/>
</g>
<!-- talk_p_proc&#45;&gt;Node998 -->
<g id="edge2" class="edge">
<title>talk_p_proc&#45;&gt;Node998</title>
<path fill="none" stroke="#555555" stroke-dasharray="1,5" d="M182.89,-97.69C194.25,-82.82 211.54,-60.18 224.66,-43"/>
<polygon fill="#555555" stroke="#555555" points="227.8,-45.66 231.09,-35.59 222.24,-41.41 227.8,-45.66"/>
</g>
<!-- Node002 -->
<g id="node6" class="node">
<title>Node002</title>
<ellipse fill="#ffffff" stroke="#000000" cx="171" cy="-18" rx="27" ry="18"/>
</g>
<!-- talk_p_proc&#45;&gt;Node002 -->
<g id="edge3" class="edge">
<title>talk_p_proc&#45;&gt;Node002</title>
<path fill="none" stroke="#555555" stroke-dasharray="1,5" d="M171,-95.96C171,-82.36 171,-63.13 171,-47.3"/>
<polygon fill="#555555" stroke="#555555" points="174.5,-47.5 171,-37.5 167.5,-47.5 174.5,-47.5"/>
</g>
<!-- destroy_p_proc -->
<g id="node7" class="node">
<title>destroy_p_proc</title>
<ellipse fill="#ffffff" stroke="#000000" cx="387" cy="-114.25" rx="27" ry="18"/>
</g>
<!-- look_at_p_proc -->
<g id="node8" class="node">
<title>look_at_p_proc</title>
<ellipse fill="#ffffff" stroke="#000000" cx="583" cy="-114.25" rx="150.79" ry="30.05"/>
<text text-anchor="middle" x="583" y="-118.2" font-family="Times,serif" font-size="14.00">Вы видите крепкого</text>
<text text-anchor="middle" x="583" y="-100.95" font-family="Times,serif" font-size="14.00">работорговца средних лет.</text>
</g>
<!-- description_p_proc -->
<g id="node9" class="node">
<title>description_p_proc</title>
<ellipse fill="#ffffff" stroke="#000000" cx="869" cy="-114.25" rx="117.38" ry="42.25"/>
<text text-anchor="middle" x="869" y="-126.82" font-family="Times,serif" font-size="14.00">Этот работорговец,</text>
<text text-anchor="middle" x="869" y="-109.57" font-family="Times,serif" font-size="14.00">похоже, любит свою</text>
<text text-anchor="middle" x="869" y="-92.32" font-family="Times,serif" font-size="14.00">работу.</text>
</g>
<!-- use_skill_on_p_proc -->
<g id="node10" class="node">
<title>use_skill_on_p_proc</title>
<ellipse fill="#ffffff" stroke="#000000" cx="1031" cy="-114.25" rx="27" ry="18"/>
</g>
<!-- damage_p_proc -->
<g id="node11" class="node">
<title>damage_p_proc</title>
<ellipse fill="#ffffff" stroke="#000000" cx="1103" cy="-114.25" rx="27" ry="18"/>
</g>
<!-- map_enter_p_proc -->
<g id="node12" class="node">
<title>map_enter_p_proc</title>
<ellipse fill="#ffffff" stroke="#000000" cx="1175" cy="-114.25" rx="27" ry="18"/>
</g>
<!-- map_exit_p_proc -->
<g id="node13" class="node">
<title>map_exit_p_proc</title>
<ellipse fill="#ffffff" stroke="#000000" cx="1247" cy="-114.25" rx="27" ry="18"/>
</g>
<!-- timed_event_p_proc -->
<g id="node14" class="node">
<title>timed_event_p_proc</title>
<ellipse fill="#ffffff" stroke="#000000" cx="315" cy="-114.25" rx="27" ry="18"/>
</g>
<!-- timed_event_p_proc&#45;&gt;Node998 -->
<g id="edge4" class="edge">
<title>timed_event_p_proc&#45;&gt;Node998</title>
<path fill="none" stroke="#555555" stroke-dasharray="1,5" d="M303.11,-97.69C291.75,-82.82 274.46,-60.18 261.34,-43"/>
<polygon fill="#555555" stroke="#555555" points="263.76,-41.41 254.91,-35.59 258.2,-45.66 263.76,-41.41"/>
</g>
<!-- Node001 -->
<g id="node15" class="node">
<title>Node001</title>
<ellipse fill="#ffffff" stroke="#000000" cx="315" cy="-18" rx="27" ry="18"/>
</g>
<!-- timed_event_p_proc&#45;&gt;Node001 -->
<g id="edge5" class="edge">
<title>timed_event_p_proc&#45;&gt;Node001</title>
<path fill="none" stroke="#555555" stroke-dasharray="1,5" d="M315,-95.96C315,-82.36 315,-63.13 315,-47.3"/>
<polygon fill="#555555" stroke="#555555" points="318.5,-47.5 315,-37.5 311.5,-47.5 318.5,-47.5"/>
</g>
</g>
</svg>
