<?xml version="1.0" encoding="UTF-8" standalone="no"?>
<!DOCTYPE svg PUBLIC "-//W3C//DTD SVG 1.1//EN"
 "http://www.w3.org/Graphics/SVG/1.1/DTD/svg11.dtd">
<!-- Generated by graphviz version 8.0.5 (0)
 -->
<!-- Title: dcPetey Pages: 1 -->
<svg width="1761pt" height="580pt"
 viewBox="0.00 0.00 1761.26 579.75" xmlns="http://www.w3.org/2000/svg" xmlns:xlink="http://www.w3.org/1999/xlink">
<g id="graph0" class="graph" transform="scale(1 1) rotate(0) translate(4 575.75)">
<title>dcPetey</title>
<polygon fill="white" stroke="none" points="-4,4 -4,-575.75 1757.26,-575.75 1757.26,4 -4,4"/>
<!-- start -->
<g id="node1" class="node">
<title>start</title>
<ellipse fill="#ffffff" stroke="#000000" cx="78.26" cy="-541.7" rx="27" ry="18"/>
</g>
<!-- critter_p_proc -->
<g id="node2" class="node">
<title>critter_p_proc</title>
<ellipse fill="#ffffff" stroke="#000000" cx="150.26" cy="-541.7" rx="27" ry="18"/>
</g>
<!-- Node004 -->
<g id="node3" class="node">
<title>Node004</title>
<ellipse fill="#ffffff" stroke="#000000" cx="150.26" cy="-420.2" rx="150.26" ry="54.45"/>
<text text-anchor="middle" x="150.26" y="-441.4" font-family="Times,serif" font-size="14.00">Сэр, [кашляет] можете</text>
<text text-anchor="middle" x="150.26" y="-424.15" font-family="Times,serif" font-size="14.00">помочь бедному человеку,</text>
<text text-anchor="middle" x="150.26" y="-406.9" font-family="Times,serif" font-size="14.00">которому не повезло в</text>
<text text-anchor="middle" x="150.26" y="-389.65" font-family="Times,serif" font-size="14.00">жизни?</text>
</g>
<!-- critter_p_proc&#45;&gt;Node004 -->
<g id="edge1" class="edge">
<title>critter_p_proc&#45;&gt;Node004</title>
<path fill="none" stroke="#555555" stroke-dasharray="1,5" d="M145.36,-523.57C144.25,-513.39 143.64,-499.76 143.53,-485.78"/>
<polygon fill="#555555" stroke="#555555" points="147.03,-486.07 143.54,-476.07 140.03,-486.06 147.03,-486.07"/>
</g>
<!-- critter_p_proc&#45;&gt;Node004 -->
<g id="edge2" class="edge">
<title>critter_p_proc&#45;&gt;Node004</title>
<path fill="none" stroke="#555555" stroke-dasharray="1,5" d="M155.16,-523.57C156.27,-513.39 156.88,-499.76 156.99,-485.78"/>
<polygon fill="#555555" stroke="#555555" points="160.49,-486.06 156.98,-476.07 153.49,-486.07 160.49,-486.06"/>
</g>
<!-- Node003 -->
<g id="node17" class="node">
<title>Node003</title>
<ellipse fill="#ffffff" stroke="#000000" cx="606.26" cy="-253" rx="144.43" ry="30.05"/>
<text text-anchor="middle" x="606.26" y="-256.95" font-family="Times,serif" font-size="14.00">Может, в другой раз. Все</text>
<text text-anchor="middle" x="606.26" y="-239.7" font-family="Times,serif" font-size="14.00">равно спасибо. [кашляет]</text>
</g>
<!-- Node004&#45;&gt;Node003 -->
<g id="edge13" class="edge">
<title>Node004&#45;&gt;Node003</title>
<path fill="none" stroke="#150099" d="M178.62,-366.37C192.15,-343.27 207.79,-319.91 219.01,-313.25 263.9,-286.59 401.8,-304.08 453.26,-295.25 473.81,-291.72 495.6,-286.67 516.1,-281.3"/>
<polygon fill="#150099" stroke="#150099" points="516.93,-284.43 525.69,-278.47 515.12,-277.67 516.93,-284.43"/>
<text text-anchor="middle" x="317.89" y="-334.45" font-family="Times,serif" font-size="14.00" fill="#150099">Извини, сейчас у меня нет</text>
<text text-anchor="middle" x="317.89" y="-317.2" font-family="Times,serif" font-size="14.00" fill="#150099">денег.</text>
</g>
<!-- Node005 -->
<g id="node19" class="node">
<title>Node005</title>
<ellipse fill="#ffffff" stroke="#000000" cx="131.26" cy="-253" rx="121.62" ry="42.25"/>
<text text-anchor="middle" x="131.26" y="-265.57" font-family="Times,serif" font-size="14.00">Тебе еще хуже меня.</text>
<text text-anchor="middle" x="131.26" y="-248.32" font-family="Times,serif" font-size="14.00">[кашляет] все равно</text>
<text text-anchor="middle" x="131.26" y="-231.07" font-family="Times,serif" font-size="14.00">спасибо.</text>
</g>
<!-- Node004&#45;&gt;Node005 -->
<g id="edge12" class="edge">
<title>Node004&#45;&gt;Node005</title>
<path fill="none" stroke="#994200" d="M74.86,-372.65C67.61,-365.21 61.29,-356.91 56.76,-347.75 49.96,-334 50.1,-327.06 56.76,-313.25 59.32,-307.95 62.61,-302.97 66.37,-298.34"/>
<polygon fill="#994200" stroke="#994200" points="68.48,-301.12 72.61,-291.36 63.3,-296.41 68.48,-301.12"/>
<text text-anchor="middle" x="83.51" y="-325.82" font-family="Times,serif" font-size="14.00" fill="#994200">Писси?</text>
</g>
<!-- pickup_p_proc -->
<g id="node4" class="node">
<title>pickup_p_proc</title>
<ellipse fill="#ffffff" stroke="#000000" cx="658.26" cy="-541.7" rx="27" ry="18"/>
</g>
<!-- Node998 -->
<g id="node5" class="node">
<title>Node998</title>
<ellipse fill="#ffffff" stroke="#000000" cx="658.26" cy="-420.2" rx="27" ry="18"/>
</g>
<!-- pickup_p_proc&#45;&gt;Node998 -->
<g id="edge3" class="edge">
<title>pickup_p_proc&#45;&gt;Node998</title>
<path fill="none" stroke="#555555" stroke-dasharray="1,5" d="M658.26,-523.32C658.26,-503.94 658.26,-472.3 658.26,-449.37"/>
<polygon fill="#555555" stroke="#555555" points="661.76,-449.59 658.26,-439.59 654.76,-449.59 661.76,-449.59"/>
</g>
<!-- talk_p_proc -->
<g id="node6" class="node">
<title>talk_p_proc</title>
<ellipse fill="#ffffff" stroke="#000000" cx="484.26" cy="-541.7" rx="27" ry="18"/>
</g>
<!-- Node001 -->
<g id="node7" class="node">
<title>Node001</title>
<ellipse fill="#ffffff" stroke="#000000" cx="484.26" cy="-420.2" rx="128.52" ry="30.05"/>
<text text-anchor="middle" x="484.26" y="-424.15" font-family="Times,serif" font-size="14.00">[кха, кха] Есть мелочь</text>
<text text-anchor="middle" x="484.26" y="-406.9" font-family="Times,serif" font-size="14.00">для Питти?</text>
</g>
<!-- talk_p_proc&#45;&gt;Node001 -->
<g id="edge4" class="edge">
<title>talk_p_proc&#45;&gt;Node001</title>
<path fill="none" stroke="#555555" stroke-dasharray="1,5" d="M479.36,-523.57C477.59,-507.31 477.09,-482.24 477.86,-460.99"/>
<polygon fill="#555555" stroke="#555555" points="481.39,-461.44 478.37,-451.29 474.39,-461.11 481.39,-461.44"/>
</g>
<!-- talk_p_proc&#45;&gt;Node001 -->
<g id="edge5" class="edge">
<title>talk_p_proc&#45;&gt;Node001</title>
<path fill="none" stroke="#555555" stroke-dasharray="1,5" d="M489.16,-523.57C490.93,-507.31 491.43,-482.24 490.66,-460.99"/>
<polygon fill="#555555" stroke="#555555" points="494.13,-461.11 490.15,-451.29 487.13,-461.44 494.13,-461.11"/>
</g>
<!-- Node001&#45;&gt;Node003 -->
<g id="edge6" class="edge">
<title>Node001&#45;&gt;Node003</title>
<path fill="none" stroke="#00991b" d="M542.67,-392.98C566.87,-383.07 595.49,-372.56 622.26,-365.75 652.45,-358.07 740.7,-371.14 761.26,-347.75 786.83,-318.66 751.92,-295.86 708.81,-280.03"/>
<polygon fill="#00991b" stroke="#00991b" points="710.21,-276.46 699.61,-276.46 707.89,-283.07 710.21,-276.46"/>
<text text-anchor="middle" x="867.89" y="-334.45" font-family="Times,serif" font-size="14.00" fill="#00991b">Извини, сейчас у меня нет</text>
<text text-anchor="middle" x="867.89" y="-317.2" font-family="Times,serif" font-size="14.00" fill="#00991b">денег.</text>
</g>
<!-- Node001&#45;&gt;Node003 -->
<g id="edge8" class="edge">
<title>Node001&#45;&gt;Node003</title>
<path fill="none" stroke="#003e99" d="M536.13,-392.36C553.81,-380.84 572.14,-365.83 584.26,-347.75 594.85,-331.95 600.37,-311.69 603.24,-294.04"/>
<polygon fill="#003e99" stroke="#003e99" points="606.84,-294.56 604.73,-284.18 599.9,-293.61 606.84,-294.56"/>
<text text-anchor="middle" x="676.14" y="-325.82" font-family="Times,serif" font-size="14.00" fill="#003e99">Нет, отойди от меня.</text>
</g>
<!-- Node990 -->
<g id="node18" class="node">
<title>Node990</title>
<ellipse fill="#ffffff" stroke="#000000" cx="417.26" cy="-253" rx="27" ry="18"/>
</g>
<!-- Node001&#45;&gt;Node990 -->
<g id="edge7" class="edge">
<title>Node001&#45;&gt;Node990</title>
<path fill="none" stroke="#990011" d="M455.96,-390.61C445.52,-378.38 434.68,-363.34 428.26,-347.75 419.68,-326.92 417.14,-301.43 416.63,-282.29"/>
<polygon fill="#990011" stroke="#990011" points="420.12,-282.26 416.54,-272.29 413.12,-282.32 420.12,-282.26"/>
<text text-anchor="middle" x="506.26" y="-325.82" font-family="Times,serif" font-size="14.00" fill="#990011">Конечно, вот, держи.</text>
</g>
<!-- Node001&#45;&gt;Node005 -->
<g id="edge9" class="edge">
<title>Node001&#45;&gt;Node005</title>
<path fill="none" stroke="#6b9900" d="M414.81,-394.58C383.01,-384.19 344.6,-372.88 309.26,-365.75 270.61,-357.95 159.42,-376.79 132.76,-347.75 122.57,-336.65 119.56,-321.33 119.86,-306.28"/>
<polygon fill="#6b9900" stroke="#6b9900" points="123.41,-306.66 120.6,-296.44 116.42,-306.17 123.41,-306.66"/>
<text text-anchor="middle" x="159.51" y="-325.82" font-family="Times,serif" font-size="14.00" fill="#6b9900">Писси?</text>
</g>
<!-- destroy_p_proc -->
<g id="node8" class="node">
<title>destroy_p_proc</title>
<ellipse fill="#ffffff" stroke="#000000" cx="730.26" cy="-541.7" rx="27" ry="18"/>
</g>
<!-- look_at_p_proc -->
<g id="node9" class="node">
<title>look_at_p_proc</title>
<ellipse fill="#ffffff" stroke="#000000" cx="902.26" cy="-541.7" rx="127.49" ry="18"/>
<text text-anchor="middle" x="902.26" y="-537.02" font-family="Times,serif" font-size="14.00">Вы видите наркомана.</text>
</g>
<!-- description_p_proc -->
<g id="node10" class="node">
<title>description_p_proc</title>
<ellipse fill="#ffffff" stroke="#000000" cx="1184.26" cy="-541.7" rx="137" ry="30.05"/>
<text text-anchor="middle" x="1184.26" y="-545.65" font-family="Times,serif" font-size="14.00">Перед вами несчастный</text>
<text text-anchor="middle" x="1184.26" y="-528.4" font-family="Times,serif" font-size="14.00">наркоман.</text>
</g>
<!-- use_skill_on_p_proc -->
<g id="node11" class="node">
<title>use_skill_on_p_proc</title>
<ellipse fill="#ffffff" stroke="#000000" cx="1366.26" cy="-541.7" rx="27" ry="18"/>
</g>
<!-- damage_p_proc -->
<g id="node12" class="node">
<title>damage_p_proc</title>
<ellipse fill="#ffffff" stroke="#000000" cx="1438.26" cy="-541.7" rx="27" ry="18"/>
</g>
<!-- map_enter_p_proc -->
<g id="node13" class="node">
<title>map_enter_p_proc</title>
<ellipse fill="#ffffff" stroke="#000000" cx="1510.26" cy="-541.7" rx="27" ry="18"/>
</g>
<!-- map_exit_p_proc -->
<g id="node14" class="node">
<title>map_exit_p_proc</title>
<ellipse fill="#ffffff" stroke="#000000" cx="1582.26" cy="-541.7" rx="27" ry="18"/>
</g>
<!-- timed_event_p_proc -->
<g id="node15" class="node">
<title>timed_event_p_proc</title>
<ellipse fill="#ffffff" stroke="#000000" cx="1654.26" cy="-541.7" rx="27" ry="18"/>
</g>
<!-- Node999 -->
<g id="node16" class="node">
<title>Node999</title>
<ellipse fill="#ffffff" stroke="#000000" cx="417.26" cy="-18" rx="27" ry="18"/>
</g>
<!-- Node003&#45;&gt;Node999 -->
<g id="edge11" class="edge">
<title>Node003&#45;&gt;Node999</title>
<path fill="none" stroke="#00996e" d="M609.7,-222.73C613,-179.72 612.2,-99.64 568.26,-54 552.81,-37.95 494.2,-28.02 454.71,-23.01"/>
<polygon fill="#00996e" stroke="#00996e" points="455.23,-19.43 444.88,-21.7 454.38,-26.38 455.23,-19.43"/>
<text text-anchor="middle" x="648.76" y="-126.82" font-family="Times,serif" font-size="14.00" fill="#00996e">Да&#45;а, да&#45;а.</text>
</g>
<!-- Node002 -->
<g id="node20" class="node">
<title>Node002</title>
<ellipse fill="#ffffff" stroke="#000000" cx="417.26" cy="-131.5" rx="138.06" ry="42.25"/>
<text text-anchor="middle" x="417.26" y="-144.07" font-family="Times,serif" font-size="14.00">Большое спасибо.</text>
<text text-anchor="middle" x="417.26" y="-126.82" font-family="Times,serif" font-size="14.00">[кашляет] Очень, очень,</text>
<text text-anchor="middle" x="417.26" y="-109.57" font-family="Times,serif" font-size="14.00">очень большое.</text>
</g>
<!-- Node990&#45;&gt;Node002 -->
<g id="edge15" class="edge">
<title>Node990&#45;&gt;Node002</title>
<path fill="none" stroke="#555555" stroke-dasharray="1,5" d="M417.26,-234.62C417.26,-221.54 417.26,-202.88 417.26,-185.08"/>
<polygon fill="#555555" stroke="#555555" points="420.76,-185.17 417.26,-175.17 413.76,-185.17 420.76,-185.17"/>
</g>
<!-- Node005&#45;&gt;Node999 -->
<g id="edge14" class="edge">
<title>Node005&#45;&gt;Node999</title>
<path fill="none" stroke="#189900" d="M141.93,-210.69C153.42,-174.01 175.16,-121.38 211.76,-89.25 259.96,-46.94 334.82,-29.84 379.64,-23.13"/>
<polygon fill="#189900" stroke="#189900" points="379.94,-26.48 389.36,-21.64 378.97,-19.55 379.94,-26.48"/>
<text text-anchor="middle" x="241.51" y="-126.82" font-family="Times,serif" font-size="14.00" fill="#189900">[готово]</text>
</g>
<!-- Node002&#45;&gt;Node999 -->
<g id="edge10" class="edge">
<title>Node002&#45;&gt;Node999</title>
<path fill="none" stroke="#990097" d="M417.26,-88.98C417.26,-75.04 417.26,-59.84 417.26,-47.17"/>
<polygon fill="#990097" stroke="#990097" points="420.76,-47.36 417.26,-37.36 413.76,-47.36 420.76,-47.36"/>
<text text-anchor="middle" x="490.76" y="-57.95" font-family="Times,serif" font-size="14.00" fill="#990097">Всегда пожалуйста.</text>
</g>
<!-- push_p_proc -->
<g id="node21" class="node">
<title>push_p_proc</title>
<ellipse fill="#ffffff" stroke="#000000" cx="1726.26" cy="-541.7" rx="27" ry="18"/>
</g>
</g>
</svg>
