<?xml version="1.0" encoding="UTF-8" standalone="no"?>
<!DOCTYPE svg PUBLIC "-//W3C//DTD SVG 1.1//EN"
 "http://www.w3.org/Graphics/SVG/1.1/DTD/svg11.dtd">
<!-- Generated by graphviz version 8.0.5 (0)
 -->
<!-- Title: dcpesnt2 Pages: 1 -->
<svg width="1658pt" height="843pt"
 viewBox="0.00 0.00 1658.00 842.93" xmlns="http://www.w3.org/2000/svg" xmlns:xlink="http://www.w3.org/1999/xlink">
<g id="graph0" class="graph" transform="scale(1 1) rotate(0) translate(4 838.93)">
<title>dcpesnt2</title>
<polygon fill="white" stroke="none" points="-4,4 -4,-838.93 1654,-838.93 1654,4 -4,4"/>
<!-- start -->
<g id="node1" class="node">
<title>start</title>
<ellipse fill="#ffffff" stroke="#000000" cx="27" cy="-816.93" rx="27" ry="18"/>
</g>
<!-- use_p_proc -->
<g id="node2" class="node">
<title>use_p_proc</title>
<ellipse fill="#ffffff" stroke="#000000" cx="99" cy="-816.93" rx="27" ry="18"/>
</g>
<!-- look_at_p_proc -->
<g id="node3" class="node">
<title>look_at_p_proc</title>
<ellipse fill="#ffffff" stroke="#000000" cx="287" cy="-816.93" rx="143.28" ry="18"/>
<text text-anchor="middle" x="287" y="-812.25" font-family="Times,serif" font-size="14.00">Вы видите жителя Дыры.</text>
</g>
<!-- description_p_proc -->
<g id="node4" class="node">
<title>description_p_proc</title>
<ellipse fill="#ffffff" stroke="#000000" cx="592" cy="-816.93" rx="143.28" ry="18"/>
<text text-anchor="middle" x="592" y="-812.25" font-family="Times,serif" font-size="14.00">Вы видите жителя Дыры.</text>
</g>
<!-- use_skill_on_p_proc -->
<g id="node5" class="node">
<title>use_skill_on_p_proc</title>
<ellipse fill="#ffffff" stroke="#000000" cx="780" cy="-816.93" rx="27" ry="18"/>
</g>
<!-- use_obj_on_p_proc -->
<g id="node6" class="node">
<title>use_obj_on_p_proc</title>
<ellipse fill="#ffffff" stroke="#000000" cx="852" cy="-816.93" rx="27" ry="18"/>
</g>
<!-- damage_p_proc -->
<g id="node7" class="node">
<title>damage_p_proc</title>
<ellipse fill="#ffffff" stroke="#000000" cx="924" cy="-816.93" rx="27" ry="18"/>
</g>
<!-- map_enter_p_proc -->
<g id="node8" class="node">
<title>map_enter_p_proc</title>
<ellipse fill="#ffffff" stroke="#000000" cx="996" cy="-816.93" rx="27" ry="18"/>
</g>
<!-- map_update_p_proc -->
<g id="node9" class="node">
<title>map_update_p_proc</title>
<ellipse fill="#ffffff" stroke="#000000" cx="1068" cy="-816.93" rx="27" ry="18"/>
</g>
<!-- talk_p_proc -->
<g id="node10" class="node">
<title>talk_p_proc</title>
<ellipse fill="#ffffff" stroke="#000000" cx="1140" cy="-816.93" rx="27" ry="18"/>
</g>
<!-- Node003 -->
<g id="node11" class="node">
<title>Node003</title>
<ellipse fill="#ffffff" stroke="#000000" cx="1036" cy="-556.19" rx="118.97" ry="30.05"/>
<text text-anchor="middle" x="1036" y="-560.14" font-family="Times,serif" font-size="14.00">Здравствуй еще раз!</text>
<text text-anchor="middle" x="1036" y="-542.89" font-family="Times,serif" font-size="14.00">Помочь чем&#45;нибудь?</text>
</g>
<!-- talk_p_proc&#45;&gt;Node003 -->
<g id="edge1" class="edge">
<title>talk_p_proc&#45;&gt;Node003</title>
<path fill="none" stroke="#555555" stroke-dasharray="1,5" d="M1133.34,-799.35C1117.09,-758.92 1075.07,-654.38 1051.9,-596.76"/>
<polygon fill="#555555" stroke="#555555" points="1054.79,-595.54 1047.81,-587.57 1048.29,-598.15 1054.79,-595.54"/>
</g>
<!-- Node001 -->
<g id="node12" class="node">
<title>Node001</title>
<ellipse fill="#ffffff" stroke="#000000" cx="1285" cy="-683.08" rx="149.2" ry="78.84"/>
<text text-anchor="middle" x="1285" y="-721.53" font-family="Times,serif" font-size="14.00">Здравствуйте и добро</text>
<text text-anchor="middle" x="1285" y="-704.28" font-family="Times,serif" font-size="14.00">пожаловать в... Эй! Это</text>
<text text-anchor="middle" x="1285" y="-687.03" font-family="Times,serif" font-size="14.00">ведь ты помог соорудить</text>
<text text-anchor="middle" x="1285" y="-669.78" font-family="Times,serif" font-size="14.00">это место! Народ Дыры</text>
<text text-anchor="middle" x="1285" y="-652.53" font-family="Times,serif" font-size="14.00">действительно ценит твою</text>
<text text-anchor="middle" x="1285" y="-635.28" font-family="Times,serif" font-size="14.00">помощь.</text>
</g>
<!-- talk_p_proc&#45;&gt;Node001 -->
<g id="edge2" class="edge">
<title>talk_p_proc&#45;&gt;Node001</title>
<path fill="none" stroke="#555555" stroke-dasharray="1,5" d="M1155.52,-801.82C1167.34,-791.06 1184.64,-775.34 1202.75,-758.87"/>
<polygon fill="#555555" stroke="#555555" points="1204.51,-762.09 1209.56,-752.77 1199.8,-756.91 1204.51,-762.09"/>
</g>
<!-- Node999 -->
<g id="node17" class="node">
<title>Node999</title>
<ellipse fill="#ffffff" stroke="#000000" cx="955" cy="-18" rx="27" ry="18"/>
</g>
<!-- Node003&#45;&gt;Node999 -->
<g id="edge6" class="edge">
<title>Node003&#45;&gt;Node999</title>
<path fill="none" stroke="#009922" d="M970.86,-530.89C961.95,-524.81 953.99,-517.32 948.5,-508.14 856.95,-354.96 920.06,-123.72 945.63,-45.74"/>
<polygon fill="#009922" stroke="#009922" points="949.11,-47.38 948.96,-36.78 942.47,-45.15 949.11,-47.38"/>
<text text-anchor="middle" x="1048.75" y="-302.64" font-family="Times,serif" font-size="14.00" fill="#009922">Нет, просто осматриваюсь.</text>
</g>
<!-- Node002 -->
<g id="node18" class="node">
<title>Node002</title>
<ellipse fill="#ffffff" stroke="#000000" cx="1310" cy="-307.32" rx="153.44" ry="200.82"/>
<text text-anchor="middle" x="1310" y="-432.02" font-family="Times,serif" font-size="14.00">С ними все хорошо.</text>
<text text-anchor="middle" x="1310" y="-414.77" font-family="Times,serif" font-size="14.00">Благодаря тебе, они</text>
<text text-anchor="middle" x="1310" y="-397.52" font-family="Times,serif" font-size="14.00">больше не бродят по</text>
<text text-anchor="middle" x="1310" y="-380.27" font-family="Times,serif" font-size="14.00">улицам, и теперь, имеют</text>
<text text-anchor="middle" x="1310" y="-363.02" font-family="Times,serif" font-size="14.00">дом. Еще раз спасибо за</text>
<text text-anchor="middle" x="1310" y="-345.77" font-family="Times,serif" font-size="14.00">все!</text>
<text text-anchor="middle" x="1310" y="-328.52" font-family="Times,serif" font-size="14.00">&#45;&#45;&#45;</text>
<text text-anchor="middle" x="1310" y="-311.27" font-family="Times,serif" font-size="14.00">С ними все хорошо.</text>
<text text-anchor="middle" x="1310" y="-294.02" font-family="Times,serif" font-size="14.00">Благодаря тебе, они</text>
<text text-anchor="middle" x="1310" y="-276.77" font-family="Times,serif" font-size="14.00">больше не бродят по</text>
<text text-anchor="middle" x="1310" y="-259.52" font-family="Times,serif" font-size="14.00">улицам, и теперь, имеют</text>
<text text-anchor="middle" x="1310" y="-242.27" font-family="Times,serif" font-size="14.00">дом. Сквоттеры, с</text>
<text text-anchor="middle" x="1310" y="-225.02" font-family="Times,serif" font-size="14.00">которыми ты договорился,</text>
<text text-anchor="middle" x="1310" y="-207.77" font-family="Times,serif" font-size="14.00">также оказывают большую</text>
<text text-anchor="middle" x="1310" y="-190.52" font-family="Times,serif" font-size="14.00">помощь. Еще раз спасибо</text>
<text text-anchor="middle" x="1310" y="-173.27" font-family="Times,serif" font-size="14.00">за все!</text>
</g>
<!-- Node001&#45;&gt;Node002 -->
<g id="edge4" class="edge">
<title>Node001&#45;&gt;Node002</title>
<path fill="none" stroke="#997b00" d="M1290.21,-604.18C1291.92,-578.64 1293.91,-548.91 1295.95,-518.34"/>
<polygon fill="#997b00" stroke="#997b00" points="1299.5,-518.71 1296.68,-508.5 1292.52,-518.25 1299.5,-518.71"/>
<text text-anchor="middle" x="1385.62" y="-560.14" font-family="Times,serif" font-size="14.00" fill="#997b00">Всегда пожалуйста. Как</text>
<text text-anchor="middle" x="1385.62" y="-542.89" font-family="Times,serif" font-size="14.00" fill="#997b00">чувствуют себя дети?</text>
</g>
<!-- critter_p_proc -->
<g id="node13" class="node">
<title>critter_p_proc</title>
<ellipse fill="#ffffff" stroke="#000000" cx="1282" cy="-816.93" rx="27" ry="18"/>
</g>
<!-- pickup_p_proc -->
<g id="node14" class="node">
<title>pickup_p_proc</title>
<ellipse fill="#ffffff" stroke="#000000" cx="1479" cy="-816.93" rx="27" ry="18"/>
</g>
<!-- Node998 -->
<g id="node15" class="node">
<title>Node998</title>
<ellipse fill="#ffffff" stroke="#000000" cx="1479" cy="-683.08" rx="27" ry="18"/>
</g>
<!-- pickup_p_proc&#45;&gt;Node998 -->
<g id="edge3" class="edge">
<title>pickup_p_proc&#45;&gt;Node998</title>
<path fill="none" stroke="#555555" stroke-dasharray="1,5" d="M1479,-798.69C1479,-776.68 1479,-738.31 1479,-712.08"/>
<polygon fill="#555555" stroke="#555555" points="1482.5,-712.32 1479,-702.32 1475.5,-712.32 1482.5,-712.32"/>
</g>
<!-- destroy_p_proc -->
<g id="node16" class="node">
<title>destroy_p_proc</title>
<ellipse fill="#ffffff" stroke="#000000" cx="1551" cy="-816.93" rx="27" ry="18"/>
</g>
<!-- Node002&#45;&gt;Node999 -->
<g id="edge5" class="edge">
<title>Node002&#45;&gt;Node999</title>
<path fill="none" stroke="#4e0099" d="M1202.82,-162.89C1183.91,-142.5 1163.39,-122.92 1142,-106.5 1094.34,-69.91 1028.91,-43.72 989.43,-30"/>
<polygon fill="#4e0099" stroke="#4e0099" points="990.85,-26.45 980.25,-26.54 988.59,-33.08 990.85,-26.45"/>
<text text-anchor="middle" x="1206.88" y="-75.2" font-family="Times,serif" font-size="14.00" fill="#4e0099">Рад слышать это. Береги</text>
<text text-anchor="middle" x="1206.88" y="-57.95" font-family="Times,serif" font-size="14.00" fill="#4e0099">себя.</text>
</g>
<!-- timed_event_p_proc -->
<g id="node19" class="node">
<title>timed_event_p_proc</title>
<ellipse fill="#ffffff" stroke="#000000" cx="1623" cy="-816.93" rx="27" ry="18"/>
</g>
</g>
</svg>
