<?xml version="1.0" encoding="UTF-8" standalone="no"?>
<!DOCTYPE svg PUBLIC "-//W3C//DTD SVG 1.1//EN"
 "http://www.w3.org/Graphics/SVG/1.1/DTD/svg11.dtd">
<!-- Generated by graphviz version 8.0.5 (0)
 -->
<!-- Title: diDadGrv Pages: 1 -->
<svg width="888pt" height="236pt"
 viewBox="0.00 0.00 887.70 236.50" xmlns="http://www.w3.org/2000/svg" xmlns:xlink="http://www.w3.org/1999/xlink">
<g id="graph0" class="graph" transform="scale(1 1) rotate(0) translate(4 232.5)">
<title>diDadGrv</title>
<polygon fill="white" stroke="none" points="-4,4 -4,-232.5 883.7,-232.5 883.7,4 -4,4"/>
<!-- grave_description_proc -->
<g id="node1" class="node">
<title>grave_description_proc</title>
<ellipse fill="#ffffff" stroke="#000000" cx="151.85" cy="-114.25" rx="151.85" ry="42.25"/>
<text text-anchor="middle" x="151.85" y="-126.82" font-family="Times,serif" font-size="14.00">Надпись на могильной</text>
<text text-anchor="middle" x="151.85" y="-109.57" font-family="Times,serif" font-size="14.00">плите: &quot;Мистер Кристофер</text>
<text text-anchor="middle" x="151.85" y="-92.32" font-family="Times,serif" font-size="14.00">Уинслоу&quot;.</text>
</g>
<!-- def_description_p_proc -->
<g id="node2" class="node">
<title>def_description_p_proc</title>
<ellipse fill="#ffffff" stroke="#000000" cx="151.85" cy="-18" rx="27" ry="18"/>
</g>
<!-- grave_description_proc&#45;&gt;def_description_p_proc -->
<g id="edge1" class="edge">
<title>grave_description_proc&#45;&gt;def_description_p_proc</title>
<path fill="none" stroke="#555555" stroke-dasharray="1,5" d="M151.85,-71.64C151.85,-63.38 151.85,-54.9 151.85,-47.22"/>
<polygon fill="#555555" stroke="#555555" points="155.35,-47.32 151.85,-37.32 148.35,-47.32 155.35,-47.32"/>
</g>
<!-- description_p_proc -->
<g id="node3" class="node">
<title>description_p_proc</title>
<ellipse fill="#ffffff" stroke="#000000" cx="151.85" cy="-210.5" rx="27" ry="18"/>
</g>
<!-- description_p_proc&#45;&gt;grave_description_proc -->
<g id="edge2" class="edge">
<title>description_p_proc&#45;&gt;grave_description_proc</title>
<path fill="none" stroke="#555555" stroke-dasharray="1,5" d="M151.85,-192.21C151.85,-185.11 151.85,-176.47 151.85,-167.58"/>
<polygon fill="#555555" stroke="#555555" points="155.35,-167.7 151.85,-157.7 148.35,-167.7 155.35,-167.7"/>
</g>
<!-- start -->
<g id="node4" class="node">
<title>start</title>
<ellipse fill="#ffffff" stroke="#000000" cx="255.85" cy="-210.5" rx="27" ry="18"/>
</g>
<!-- look_at_p_proc -->
<g id="node5" class="node">
<title>look_at_p_proc</title>
<ellipse fill="#ffffff" stroke="#000000" cx="345.85" cy="-210.5" rx="27" ry="18"/>
</g>
<!-- map_enter_p_proc -->
<g id="node6" class="node">
<title>map_enter_p_proc</title>
<ellipse fill="#ffffff" stroke="#000000" cx="426.85" cy="-210.5" rx="27" ry="18"/>
</g>
<!-- use_p_proc -->
<g id="node7" class="node">
<title>use_p_proc</title>
<ellipse fill="#ffffff" stroke="#000000" cx="348.85" cy="-114.25" rx="27" ry="18"/>
</g>
<!-- Explode_Grave -->
<g id="node8" class="node">
<title>Explode_Grave</title>
<ellipse fill="#ffffff" stroke="#000000" cx="475.85" cy="-18" rx="27" ry="18"/>
</g>
<!-- use_p_proc&#45;&gt;Explode_Grave -->
<g id="edge3" class="edge">
<title>use_p_proc&#45;&gt;Explode_Grave</title>
<path fill="none" stroke="#555555" stroke-dasharray="1,5" d="M360.45,-97.64C367.03,-89.42 375.76,-79.51 384.85,-72 403.05,-56.97 426.03,-43.62 444.35,-34.08"/>
<polygon fill="#555555" stroke="#555555" points="445.66,-36.83 452.99,-29.18 442.49,-30.59 445.66,-36.83"/>
</g>
<!-- pickup_p_proc -->
<g id="node9" class="node">
<title>pickup_p_proc</title>
<ellipse fill="#ffffff" stroke="#000000" cx="420.85" cy="-114.25" rx="27" ry="18"/>
</g>
<!-- pickup_p_proc&#45;&gt;Explode_Grave -->
<g id="edge4" class="edge">
<title>pickup_p_proc&#45;&gt;Explode_Grave</title>
<path fill="none" stroke="#555555" stroke-dasharray="1,5" d="M430.18,-97.26C438.64,-82.77 451.24,-61.18 461.06,-44.34"/>
<polygon fill="#555555" stroke="#555555" points="464.46,-46.47 466.48,-36.07 458.41,-42.94 464.46,-46.47"/>
</g>
<!-- use_obj_on_p_proc -->
<g id="node10" class="node">
<title>use_obj_on_p_proc</title>
<ellipse fill="#ffffff" stroke="#000000" cx="502.85" cy="-210.5" rx="27" ry="18"/>
</g>
<!-- use_obj_on_p_proc&#45;&gt;Explode_Grave -->
<g id="edge5" class="edge">
<title>use_obj_on_p_proc&#45;&gt;Explode_Grave</title>
<path fill="none" stroke="#555555" stroke-dasharray="1,5" d="M500.2,-192.32C498.62,-181.95 496.58,-168.47 494.85,-156.5 489.39,-118.73 483.41,-75.06 479.65,-47.26"/>
<polygon fill="#555555" stroke="#555555" points="482.99,-46.82 478.18,-37.37 476.05,-47.75 482.99,-46.82"/>
</g>
<!-- Set_Trap -->
<g id="node11" class="node">
<title>Set_Trap</title>
<ellipse fill="#ffffff" stroke="#000000" cx="530.85" cy="-114.25" rx="27" ry="18"/>
</g>
<!-- use_obj_on_p_proc&#45;&gt;Set_Trap -->
<g id="edge6" class="edge">
<title>use_obj_on_p_proc&#45;&gt;Set_Trap</title>
<path fill="none" stroke="#555555" stroke-dasharray="1,5" d="M507.86,-192.65C511.97,-178.8 517.89,-158.89 522.69,-142.74"/>
<polygon fill="#555555" stroke="#555555" points="526.3,-143.85 525.79,-133.27 519.59,-141.86 526.3,-143.85"/>
</g>
<!-- Set_Trap&#45;&gt;Explode_Grave -->
<g id="edge8" class="edge">
<title>Set_Trap&#45;&gt;Explode_Grave</title>
<path fill="none" stroke="#555555" stroke-dasharray="1,5" d="M521.52,-97.26C513.07,-82.77 500.46,-61.18 490.64,-44.34"/>
<polygon fill="#555555" stroke="#555555" points="493.29,-42.94 485.23,-36.07 487.24,-46.47 493.29,-42.94"/>
</g>
<!-- use_skill_on_p_proc -->
<g id="node12" class="node">
<title>use_skill_on_p_proc</title>
<ellipse fill="#ffffff" stroke="#000000" cx="727.85" cy="-210.5" rx="27" ry="18"/>
</g>
<!-- Disarm_Traps -->
<g id="node13" class="node">
<title>Disarm_Traps</title>
<ellipse fill="#ffffff" stroke="#000000" cx="727.85" cy="-114.25" rx="151.85" ry="42.25"/>
<text text-anchor="middle" x="727.85" y="-126.82" font-family="Times,serif" font-size="14.00">Надпись на могильной</text>
<text text-anchor="middle" x="727.85" y="-109.57" font-family="Times,serif" font-size="14.00">плите: &quot;Мистер Кристофер</text>
<text text-anchor="middle" x="727.85" y="-92.32" font-family="Times,serif" font-size="14.00">Уинслоу&quot;.</text>
</g>
<!-- use_skill_on_p_proc&#45;&gt;Disarm_Traps -->
<g id="edge7" class="edge">
<title>use_skill_on_p_proc&#45;&gt;Disarm_Traps</title>
<path fill="none" stroke="#555555" stroke-dasharray="1,5" d="M727.85,-192.21C727.85,-185.11 727.85,-176.47 727.85,-167.58"/>
<polygon fill="#555555" stroke="#555555" points="731.35,-167.7 727.85,-157.7 724.35,-167.7 731.35,-167.7"/>
</g>
<!-- Disarm_Traps&#45;&gt;Explode_Grave -->
<g id="edge9" class="edge">
<title>Disarm_Traps&#45;&gt;Explode_Grave</title>
<path fill="none" stroke="#555555" stroke-dasharray="1,5" d="M638.3,-79.76C593.49,-63 541.96,-43.72 509.16,-31.46"/>
<polygon fill="#555555" stroke="#555555" points="510.8,-27.96 500.21,-27.74 508.35,-34.52 510.8,-27.96"/>
</g>
</g>
</svg>
