<?xml version="1.0" encoding="UTF-8" standalone="no"?>
<!DOCTYPE svg PUBLIC "-//W3C//DTD SVG 1.1//EN"
 "http://www.w3.org/Graphics/SVG/1.1/DTD/svg11.dtd">
<!-- Generated by graphviz version 8.0.5 (0)
 -->
<!-- Title: ecblkhro Pages: 1 -->
<svg width="1223pt" height="335pt"
 viewBox="0.00 0.00 1223.00 334.97" xmlns="http://www.w3.org/2000/svg" xmlns:xlink="http://www.w3.org/1999/xlink">
<g id="graph0" class="graph" transform="scale(1 1) rotate(0) translate(4 330.97)">
<title>ecblkhro</title>
<polygon fill="white" stroke="none" points="-4,4 -4,-330.97 1219,-330.97 1219,4 -4,4"/>
<!-- start -->
<g id="node1" class="node">
<title>start</title>
<ellipse fill="#ffffff" stroke="#000000" cx="27" cy="-223.74" rx="27" ry="18"/>
</g>
<!-- critter_p_proc -->
<g id="node2" class="node">
<title>critter_p_proc</title>
<ellipse fill="#ffffff" stroke="#000000" cx="99" cy="-223.74" rx="27" ry="18"/>
</g>
<!-- pickup_p_proc -->
<g id="node3" class="node">
<title>pickup_p_proc</title>
<ellipse fill="#ffffff" stroke="#000000" cx="171" cy="-223.74" rx="27" ry="18"/>
</g>
<!-- talk_p_proc -->
<g id="node4" class="node">
<title>talk_p_proc</title>
<ellipse fill="#ffffff" stroke="#000000" cx="243" cy="-223.74" rx="27" ry="18"/>
</g>
<!-- Node001 -->
<g id="node5" class="node">
<title>Node001</title>
<ellipse fill="#ffffff" stroke="#000000" cx="279" cy="-42.25" rx="147.61" ry="42.25"/>
<text text-anchor="middle" x="279" y="-54.82" font-family="Times,serif" font-size="14.00">Сначала я был одной из</text>
<text text-anchor="middle" x="279" y="-37.57" font-family="Times,serif" font-size="14.00">моделей героя для Fallout</text>
<text text-anchor="middle" x="279" y="-20.32" font-family="Times,serif" font-size="14.00">1.</text>
</g>
<!-- talk_p_proc&#45;&gt;Node001 -->
<g id="edge1" class="edge">
<title>talk_p_proc&#45;&gt;Node001</title>
<path fill="none" stroke="#555555" stroke-dasharray="1,5" d="M246.45,-205.53C251.48,-180.45 261.04,-132.81 268.5,-95.61"/>
<polygon fill="#555555" stroke="#555555" points="272.11,-96.42 270.64,-85.92 265.24,-95.04 272.11,-96.42"/>
</g>
<!-- destroy_p_proc -->
<g id="node6" class="node">
<title>destroy_p_proc</title>
<ellipse fill="#ffffff" stroke="#000000" cx="387" cy="-223.74" rx="27" ry="18"/>
</g>
<!-- look_at_p_proc -->
<g id="node7" class="node">
<title>look_at_p_proc</title>
<ellipse fill="#ffffff" stroke="#000000" cx="548" cy="-223.74" rx="116.32" ry="30.05"/>
<text text-anchor="middle" x="548" y="-227.69" font-family="Times,serif" font-size="14.00">Вы видите... модель</text>
<text text-anchor="middle" x="548" y="-210.44" font-family="Times,serif" font-size="14.00">чернокожего героя.</text>
</g>
<!-- description_p_proc -->
<g id="node8" class="node">
<title>description_p_proc</title>
<ellipse fill="#ffffff" stroke="#000000" cx="841" cy="-223.74" rx="158.22" ry="103.24"/>
<text text-anchor="middle" x="841" y="-279.44" font-family="Times,serif" font-size="14.00">Перед вами перекачанный</text>
<text text-anchor="middle" x="841" y="-262.19" font-family="Times,serif" font-size="14.00">негр в комбинезоне</text>
<text text-anchor="middle" x="841" y="-244.94" font-family="Times,serif" font-size="14.00">Убежища 13. Он обиженно</text>
<text text-anchor="middle" x="841" y="-227.69" font-family="Times,serif" font-size="14.00">смотрит на вас.</text>
<text text-anchor="middle" x="841" y="-210.44" font-family="Times,serif" font-size="14.00">&#45;&#45;&#45;</text>
<text text-anchor="middle" x="841" y="-193.19" font-family="Times,serif" font-size="14.00">Перед вами модель черного</text>
<text text-anchor="middle" x="841" y="-175.94" font-family="Times,serif" font-size="14.00">героя. Герой обиженно</text>
<text text-anchor="middle" x="841" y="-158.69" font-family="Times,serif" font-size="14.00">смотрит на вас.</text>
</g>
<!-- use_skill_on_p_proc -->
<g id="node9" class="node">
<title>use_skill_on_p_proc</title>
<ellipse fill="#ffffff" stroke="#000000" cx="1044" cy="-223.74" rx="27" ry="18"/>
</g>
<!-- damage_p_proc -->
<g id="node10" class="node">
<title>damage_p_proc</title>
<ellipse fill="#ffffff" stroke="#000000" cx="1116" cy="-223.74" rx="27" ry="18"/>
</g>
<!-- map_enter_p_proc -->
<g id="node11" class="node">
<title>map_enter_p_proc</title>
<ellipse fill="#ffffff" stroke="#000000" cx="1188" cy="-223.74" rx="27" ry="18"/>
</g>
<!-- timed_event_p_proc -->
<g id="node12" class="node">
<title>timed_event_p_proc</title>
<ellipse fill="#ffffff" stroke="#000000" cx="315" cy="-223.74" rx="27" ry="18"/>
</g>
<!-- timed_event_p_proc&#45;&gt;Node001 -->
<g id="edge2" class="edge">
<title>timed_event_p_proc&#45;&gt;Node001</title>
<path fill="none" stroke="#555555" stroke-dasharray="1,5" d="M311.55,-205.53C306.52,-180.45 296.96,-132.81 289.5,-95.61"/>
<polygon fill="#555555" stroke="#555555" points="292.76,-95.04 287.36,-85.92 285.89,-96.42 292.76,-95.04"/>
</g>
</g>
</svg>
