<?xml version="1.0" encoding="UTF-8" standalone="no"?>
<!DOCTYPE svg PUBLIC "-//W3C//DTD SVG 1.1//EN"
 "http://www.w3.org/Graphics/SVG/1.1/DTD/svg11.dtd">
<!-- Generated by graphviz version 8.0.5 (0)
 -->
<!-- Title: eccowbmb Pages: 1 -->
<svg width="998pt" height="116pt"
 viewBox="0.00 0.00 998.00 116.00" xmlns="http://www.w3.org/2000/svg" xmlns:xlink="http://www.w3.org/1999/xlink">
<g id="graph0" class="graph" transform="scale(1 1) rotate(0) translate(4 112)">
<title>eccowbmb</title>
<polygon fill="white" stroke="none" points="-4,4 -4,-112 994,-112 994,4 -4,4"/>
<!-- start -->
<g id="node1" class="node">
<title>start</title>
<ellipse fill="#ffffff" stroke="#000000" cx="27" cy="-90" rx="27" ry="18"/>
</g>
<!-- map_enter_p_proc -->
<g id="node2" class="node">
<title>map_enter_p_proc</title>
<ellipse fill="#ffffff" stroke="#000000" cx="27" cy="-18" rx="27" ry="18"/>
</g>
<!-- start&#45;&gt;map_enter_p_proc -->
<g id="edge1" class="edge">
<title>start&#45;&gt;map_enter_p_proc</title>
<path fill="none" stroke="#555555" stroke-dasharray="1,5" d="M27,-71.7C27,-64.24 27,-55.32 27,-46.97"/>
<polygon fill="#555555" stroke="#555555" points="30.5,-47.1 27,-37.1 23.5,-47.1 30.5,-47.1"/>
</g>
<!-- use_p_proc -->
<g id="node3" class="node">
<title>use_p_proc</title>
<ellipse fill="#ffffff" stroke="#000000" cx="99" cy="-90" rx="27" ry="18"/>
</g>
<!-- look_at_p_proc -->
<g id="node4" class="node">
<title>look_at_p_proc</title>
<ellipse fill="#ffffff" stroke="#000000" cx="171" cy="-90" rx="27" ry="18"/>
</g>
<!-- description_p_proc -->
<g id="node5" class="node">
<title>description_p_proc</title>
<ellipse fill="#ffffff" stroke="#000000" cx="243" cy="-90" rx="27" ry="18"/>
</g>
<!-- use_skill_on_p_proc -->
<g id="node6" class="node">
<title>use_skill_on_p_proc</title>
<ellipse fill="#ffffff" stroke="#000000" cx="315" cy="-90" rx="27" ry="18"/>
</g>
<!-- use_obj_on_p_proc -->
<g id="node7" class="node">
<title>use_obj_on_p_proc</title>
<ellipse fill="#ffffff" stroke="#000000" cx="387" cy="-90" rx="27" ry="18"/>
</g>
<!-- damage_p_proc -->
<g id="node8" class="node">
<title>damage_p_proc</title>
<ellipse fill="#ffffff" stroke="#000000" cx="459" cy="-90" rx="27" ry="18"/>
</g>
<!-- map_update_p_proc -->
<g id="node9" class="node">
<title>map_update_p_proc</title>
<ellipse fill="#ffffff" stroke="#000000" cx="531" cy="-90" rx="27" ry="18"/>
</g>
<!-- talk_p_proc -->
<g id="node10" class="node">
<title>talk_p_proc</title>
<ellipse fill="#ffffff" stroke="#000000" cx="603" cy="-90" rx="27" ry="18"/>
</g>
<!-- destroy_p_proc -->
<g id="node11" class="node">
<title>destroy_p_proc</title>
<ellipse fill="#ffffff" stroke="#000000" cx="675" cy="-90" rx="27" ry="18"/>
</g>
<!-- combat_p_proc -->
<g id="node12" class="node">
<title>combat_p_proc</title>
<ellipse fill="#ffffff" stroke="#000000" cx="747" cy="-90" rx="27" ry="18"/>
</g>
<!-- critter_p_proc -->
<g id="node13" class="node">
<title>critter_p_proc</title>
<ellipse fill="#ffffff" stroke="#000000" cx="819" cy="-90" rx="27" ry="18"/>
</g>
<!-- timed_event_p_proc -->
<g id="node14" class="node">
<title>timed_event_p_proc</title>
<ellipse fill="#ffffff" stroke="#000000" cx="891" cy="-90" rx="27" ry="18"/>
</g>
<!-- doExplosion -->
<g id="node15" class="node">
<title>doExplosion</title>
<ellipse fill="#ffffff" stroke="#000000" cx="963" cy="-90" rx="27" ry="18"/>
</g>
</g>
</svg>
