<?xml version="1.0" encoding="UTF-8" standalone="no"?>
<!DOCTYPE svg PUBLIC "-//W3C//DTD SVG 1.1//EN"
 "http://www.w3.org/Graphics/SVG/1.1/DTD/svg11.dtd">
<!-- Generated by graphviz version 8.0.5 (0)
 -->
<!-- Title: echomest Pages: 1 -->
<svg width="1549pt" height="1034pt"
 viewBox="0.00 0.00 1549.00 1034.45" xmlns="http://www.w3.org/2000/svg" xmlns:xlink="http://www.w3.org/1999/xlink">
<g id="graph0" class="graph" transform="scale(1 1) rotate(0) translate(4 1030.45)">
<title>echomest</title>
<polygon fill="white" stroke="none" points="-4,4 -4,-1030.45 1545,-1030.45 1545,4 -4,4"/>
<!-- start -->
<g id="node1" class="node">
<title>start</title>
<ellipse fill="#ffffff" stroke="#000000" cx="430" cy="-972" rx="27" ry="18"/>
</g>
<!-- critter_p_proc -->
<g id="node2" class="node">
<title>critter_p_proc</title>
<ellipse fill="#ffffff" stroke="#000000" cx="502" cy="-972" rx="27" ry="18"/>
</g>
<!-- talk_p_proc -->
<g id="node3" class="node">
<title>talk_p_proc</title>
<ellipse fill="#ffffff" stroke="#000000" cx="502" cy="-862.55" rx="27" ry="18"/>
</g>
<!-- critter_p_proc&#45;&gt;talk_p_proc -->
<g id="edge1" class="edge">
<title>critter_p_proc&#45;&gt;talk_p_proc</title>
<path fill="none" stroke="#555555" stroke-dasharray="1,5" d="M502,-953.74C502,-936.98 502,-911.25 502,-891.56"/>
<polygon fill="#555555" stroke="#555555" points="505.5,-891.77 502,-881.77 498.5,-891.77 505.5,-891.77"/>
</g>
<!-- Node009 -->
<g id="node5" class="node">
<title>Node009</title>
<ellipse fill="#ffffff" stroke="#000000" cx="27" cy="-679.92" rx="27" ry="18"/>
</g>
<!-- talk_p_proc&#45;&gt;Node009 -->
<g id="edge2" class="edge">
<title>talk_p_proc&#45;&gt;Node009</title>
<path fill="none" stroke="#555555" stroke-dasharray="1,5" d="M474.57,-861.99C388.39,-862.81 125.19,-860.81 63,-807.55 34.65,-783.28 27.82,-738.43 26.59,-709.15"/>
<polygon fill="#555555" stroke="#555555" points="30.07,-709.32 26.36,-699.39 23.07,-709.47 30.07,-709.32"/>
</g>
<!-- Node002 -->
<g id="node6" class="node">
<title>Node002</title>
<ellipse fill="#ffffff" stroke="#000000" cx="203" cy="-679.92" rx="130.64" ry="30.05"/>
<text text-anchor="middle" x="203" y="-683.87" font-family="Times,serif" font-size="14.00">Спасибо еще раз за то,</text>
<text text-anchor="middle" x="203" y="-666.62" font-family="Times,serif" font-size="14.00">что помогли нам.</text>
</g>
<!-- talk_p_proc&#45;&gt;Node002 -->
<g id="edge3" class="edge">
<title>talk_p_proc&#45;&gt;Node002</title>
<path fill="none" stroke="#555555" stroke-dasharray="1,5" d="M476.23,-856.32C443.41,-848.9 385.7,-833.29 342,-807.55 301.04,-783.43 261.7,-745.78 235.39,-717.79"/>
<polygon fill="#555555" stroke="#555555" points="238.36,-715.76 228.99,-710.81 233.22,-720.52 238.36,-715.76"/>
</g>
<!-- Node001 -->
<g id="node7" class="node">
<title>Node001</title>
<ellipse fill="#ffffff" stroke="#000000" cx="502" cy="-679.92" rx="150.79" ry="127.63"/>
<text text-anchor="middle" x="502" y="-752.87" font-family="Times,serif" font-size="14.00">Вы прибыли как раз</text>
<text text-anchor="middle" x="502" y="-735.62" font-family="Times,serif" font-size="14.00">вовремя. Если бы вы не</text>
<text text-anchor="middle" x="502" y="-718.37" font-family="Times,serif" font-size="14.00">оказались здесь... Ладно,</text>
<text text-anchor="middle" x="502" y="-701.12" font-family="Times,serif" font-size="14.00">слава Богу, вы все&#45;таки</text>
<text text-anchor="middle" x="502" y="-683.87" font-family="Times,serif" font-size="14.00">оказались здесь. У нас</text>
<text text-anchor="middle" x="502" y="-666.62" font-family="Times,serif" font-size="14.00">мало что есть, но</text>
<text text-anchor="middle" x="502" y="-649.37" font-family="Times,serif" font-size="14.00">все&#45;таки мне хотелось бы</text>
<text text-anchor="middle" x="502" y="-632.12" font-family="Times,serif" font-size="14.00">предложить вам вот это за</text>
<text text-anchor="middle" x="502" y="-614.87" font-family="Times,serif" font-size="14.00">помощь. [Он что&#45;то</text>
<text text-anchor="middle" x="502" y="-597.62" font-family="Times,serif" font-size="14.00">протягивает вам.]</text>
</g>
<!-- talk_p_proc&#45;&gt;Node001 -->
<g id="edge4" class="edge">
<title>talk_p_proc&#45;&gt;Node001</title>
<path fill="none" stroke="#555555" stroke-dasharray="1,5" d="M502,-844.23C502,-837.23 502,-828.48 502,-818.69"/>
<polygon fill="#555555" stroke="#555555" points="505.5,-818.69 502,-808.69 498.5,-818.69 505.5,-818.69"/>
</g>
<!-- Node003 -->
<g id="node8" class="node">
<title>Node003</title>
<ellipse fill="#ffffff" stroke="#000000" cx="818" cy="-679.92" rx="147.08" ry="66.64"/>
<text text-anchor="middle" x="818" y="-709.75" font-family="Times,serif" font-size="14.00">Держи руки на виду. В</text>
<text text-anchor="middle" x="818" y="-692.5" font-family="Times,serif" font-size="14.00">последнее время бандиты</text>
<text text-anchor="middle" x="818" y="-675.25" font-family="Times,serif" font-size="14.00">нам покоя не дают, и я не</text>
<text text-anchor="middle" x="818" y="-658" font-family="Times,serif" font-size="14.00">знаю, не из них ли ты.</text>
<text text-anchor="middle" x="818" y="-640.75" font-family="Times,serif" font-size="14.00">Что тебе надо?</text>
</g>
<!-- talk_p_proc&#45;&gt;Node003 -->
<g id="edge5" class="edge">
<title>talk_p_proc&#45;&gt;Node003</title>
<path fill="none" stroke="#555555" stroke-dasharray="1,5" d="M527.54,-855.93C560.13,-848.09 617.58,-832.03 662,-807.55 691.91,-791.07 721.76,-768.67 747.22,-747.3"/>
<polygon fill="#555555" stroke="#555555" points="748.98,-749.55 754.33,-740.4 744.44,-744.21 748.98,-749.55"/>
</g>
<!-- Node006 -->
<g id="node9" class="node">
<title>Node006</title>
<ellipse fill="#ffffff" stroke="#000000" cx="1116" cy="-679.92" rx="133.28" ry="18"/>
<text text-anchor="middle" x="1116" y="-675.25" font-family="Times,serif" font-size="14.00">Я же сказал, убирайся!</text>
</g>
<!-- talk_p_proc&#45;&gt;Node006 -->
<g id="edge6" class="edge">
<title>talk_p_proc&#45;&gt;Node006</title>
<path fill="none" stroke="#555555" stroke-dasharray="1,5" d="M529.13,-860.6C617.1,-857.16 893.36,-843.67 974,-807.55 1025.31,-784.57 1071.16,-736.18 1096.13,-706.32"/>
<polygon fill="#555555" stroke="#555555" points="1099.27,-709.01 1102.9,-699.06 1093.85,-704.57 1099.27,-709.01"/>
</g>
<!-- pickup_p_proc -->
<g id="node4" class="node">
<title>pickup_p_proc</title>
<ellipse fill="#ffffff" stroke="#000000" cx="574" cy="-972" rx="27" ry="18"/>
</g>
<!-- Node999 -->
<g id="node19" class="node">
<title>Node999</title>
<ellipse fill="#ffffff" stroke="#000000" cx="483" cy="-415.14" rx="27" ry="18"/>
</g>
<!-- Node001&#45;&gt;Node999 -->
<g id="edge10" class="edge">
<title>Node001&#45;&gt;Node999</title>
<path fill="none" stroke="#990061" d="M427.57,-568.74C422.4,-557.45 417.97,-545.87 414.75,-534.29 410.64,-519.52 409.6,-514.23 414.75,-499.79 423.48,-475.28 442.81,-452.76 458.67,-437.27"/>
<polygon fill="#990061" stroke="#990061" points="460.69,-440.24 465.58,-430.85 455.9,-435.14 460.69,-440.24"/>
<text text-anchor="middle" x="447.62" y="-512.36" font-family="Times,serif" font-size="14.00" fill="#990061">Спасибо.</text>
</g>
<!-- Node001&#45;&gt;Node999 -->
<g id="edge11" class="edge">
<title>Node001&#45;&gt;Node999</title>
<path fill="none" stroke="#008d99" d="M492.83,-552.15C489.9,-511.63 486.93,-470.53 485.03,-444.28"/>
<polygon fill="#008d99" stroke="#008d99" points="488.45,-444.04 484.24,-434.32 481.47,-444.54 488.45,-444.04"/>
<text text-anchor="middle" x="502.5" y="-512.36" font-family="Times,serif" font-size="14.00" fill="#008d99">Ыг</text>
</g>
<!-- giveReward -->
<g id="node20" class="node">
<title>giveReward</title>
<ellipse fill="#ffffff" stroke="#000000" cx="555" cy="-415.14" rx="27" ry="18"/>
</g>
<!-- Node001&#45;&gt;giveReward -->
<g id="edge9" class="edge">
<title>Node001&#45;&gt;giveReward</title>
<path fill="none" stroke="#555555" stroke-dasharray="1,5" d="M527.26,-553.69C535.57,-512.47 544.05,-470.43 549.41,-443.87"/>
<polygon fill="#555555" stroke="#555555" points="553.02,-444.64 551.57,-434.14 546.16,-443.26 553.02,-444.64"/>
</g>
<!-- Node003&#45;&gt;Node999 -->
<g id="edge13" class="edge">
<title>Node003&#45;&gt;Node999</title>
<path fill="none" stroke="#4c0099" d="M757.18,-619.02C729.99,-595.17 696.35,-569.39 662,-552.29 632.08,-537.4 619.2,-548.6 589,-534.29 553.86,-517.63 544.48,-511.17 519,-481.79 509.02,-470.28 500.63,-455.55 494.47,-442.96"/>
<polygon fill="#4c0099" stroke="#4c0099" points="497.23,-441.6 489.83,-434.01 490.89,-444.55 497.23,-441.6"/>
<text text-anchor="middle" x="688" y="-520.99" font-family="Times,serif" font-size="14.00" fill="#4c0099">Я просто прохожу мимо. Я</text>
<text text-anchor="middle" x="688" y="-503.74" font-family="Times,serif" font-size="14.00" fill="#4c0099">пойду.</text>
</g>
<!-- Node004 -->
<g id="node21" class="node">
<title>Node004</title>
<ellipse fill="#ffffff" stroke="#000000" cx="801" cy="-240.8" rx="149.2" ry="54.45"/>
<text text-anchor="middle" x="801" y="-262" font-family="Times,serif" font-size="14.00">Ну, думаю, в этом не</text>
<text text-anchor="middle" x="801" y="-244.75" font-family="Times,serif" font-size="14.00">будет никакого вреда. Вот</text>
<text text-anchor="middle" x="801" y="-227.5" font-family="Times,serif" font-size="14.00">что у меня есть на</text>
<text text-anchor="middle" x="801" y="-210.25" font-family="Times,serif" font-size="14.00">продажу.</text>
</g>
<!-- Node003&#45;&gt;Node004 -->
<g id="edge12" class="edge">
<title>Node003&#45;&gt;Node004</title>
<path fill="none" stroke="#997800" d="M815.28,-613.21C813.71,-574.88 811.71,-525.6 810,-481.79 807.68,-422.46 805.16,-354.87 803.38,-306.58"/>
<polygon fill="#997800" stroke="#997800" points="806.84,-306.52 802.97,-296.66 799.84,-306.78 806.84,-306.52"/>
<text text-anchor="middle" x="901.5" y="-419.09" font-family="Times,serif" font-size="14.00" fill="#997800">Просто предложить свой</text>
<text text-anchor="middle" x="901.5" y="-401.84" font-family="Times,serif" font-size="14.00" fill="#997800">товар и посмотреть ваш.</text>
</g>
<!-- Node007 -->
<g id="node22" class="node">
<title>Node007</title>
<ellipse fill="#ffffff" stroke="#000000" cx="1120" cy="-415.14" rx="118.44" ry="66.64"/>
<text text-anchor="middle" x="1120" y="-444.97" font-family="Times,serif" font-size="14.00">[Он немного</text>
<text text-anchor="middle" x="1120" y="-427.72" font-family="Times,serif" font-size="14.00">расслабляется.] Для</text>
<text text-anchor="middle" x="1120" y="-410.47" font-family="Times,serif" font-size="14.00">бандита у тебя ума</text>
<text text-anchor="middle" x="1120" y="-393.22" font-family="Times,serif" font-size="14.00">маловато. Хочешь</text>
<text text-anchor="middle" x="1120" y="-375.97" font-family="Times,serif" font-size="14.00">что&#45;нибудь купить?</text>
</g>
<!-- Node003&#45;&gt;Node007 -->
<g id="edge14" class="edge">
<title>Node003&#45;&gt;Node007</title>
<path fill="none" stroke="#00991f" d="M885.4,-620.28C933.73,-578.22 998.75,-521.65 1048.08,-478.72"/>
<polygon fill="#00991f" stroke="#00991f" points="1049.92,-480.89 1055.17,-471.69 1045.32,-475.61 1049.92,-480.89"/>
<text text-anchor="middle" x="1039.12" y="-512.36" font-family="Times,serif" font-size="14.00" fill="#00991f">Гыг.</text>
</g>
<!-- destroy_p_proc -->
<g id="node10" class="node">
<title>destroy_p_proc</title>
<ellipse fill="#ffffff" stroke="#000000" cx="646" cy="-972" rx="27" ry="18"/>
</g>
<!-- look_at_p_proc -->
<g id="node11" class="node">
<title>look_at_p_proc</title>
<ellipse fill="#ffffff" stroke="#000000" cx="814" cy="-972" rx="123.21" ry="54.45"/>
<text text-anchor="middle" x="814" y="-993.2" font-family="Times,serif" font-size="14.00">Вы видите худого,</text>
<text text-anchor="middle" x="814" y="-975.95" font-family="Times,serif" font-size="14.00">загорелого мужчину.</text>
<text text-anchor="middle" x="814" y="-958.7" font-family="Times,serif" font-size="14.00">&#45;&#45;&#45;</text>
<text text-anchor="middle" x="814" y="-941.45" font-family="Times,serif" font-size="14.00">Вы видите фермера.</text>
</g>
<!-- description_p_proc -->
<g id="node12" class="node">
<title>description_p_proc</title>
<ellipse fill="#ffffff" stroke="#000000" cx="1068" cy="-972" rx="112.61" ry="30.05"/>
<text text-anchor="middle" x="1068" y="-975.95" font-family="Times,serif" font-size="14.00">Судя по загару, это</text>
<text text-anchor="middle" x="1068" y="-958.7" font-family="Times,serif" font-size="14.00">фермер.</text>
</g>
<!-- use_skill_on_p_proc -->
<g id="node13" class="node">
<title>use_skill_on_p_proc</title>
<ellipse fill="#ffffff" stroke="#000000" cx="1226" cy="-972" rx="27" ry="18"/>
</g>
<!-- damage_p_proc -->
<g id="node14" class="node">
<title>damage_p_proc</title>
<ellipse fill="#ffffff" stroke="#000000" cx="1298" cy="-972" rx="27" ry="18"/>
</g>
<!-- map_enter_p_proc -->
<g id="node15" class="node">
<title>map_enter_p_proc</title>
<ellipse fill="#ffffff" stroke="#000000" cx="1370" cy="-972" rx="27" ry="18"/>
</g>
<!-- combat_p_proc -->
<g id="node16" class="node">
<title>combat_p_proc</title>
<ellipse fill="#ffffff" stroke="#000000" cx="1442" cy="-972" rx="27" ry="18"/>
</g>
<!-- NodeFleeing -->
<g id="node17" class="node">
<title>NodeFleeing</title>
<ellipse fill="#ffffff" stroke="#000000" cx="1406" cy="-862.55" rx="27" ry="18"/>
</g>
<!-- combat_p_proc&#45;&gt;NodeFleeing -->
<g id="edge7" class="edge">
<title>combat_p_proc&#45;&gt;NodeFleeing</title>
<path fill="none" stroke="#555555" stroke-dasharray="1,5" d="M1436.38,-954.21C1430.7,-937.28 1421.85,-910.86 1415.16,-890.9"/>
<polygon fill="#555555" stroke="#555555" points="1418.2,-889.95 1411.7,-881.58 1411.56,-892.17 1418.2,-889.95"/>
</g>
<!-- NodeFighting -->
<g id="node18" class="node">
<title>NodeFighting</title>
<ellipse fill="#ffffff" stroke="#000000" cx="1478" cy="-862.55" rx="27" ry="18"/>
</g>
<!-- combat_p_proc&#45;&gt;NodeFighting -->
<g id="edge8" class="edge">
<title>combat_p_proc&#45;&gt;NodeFighting</title>
<path fill="none" stroke="#555555" stroke-dasharray="1,5" d="M1447.62,-954.21C1453.3,-937.28 1462.15,-910.86 1468.84,-890.9"/>
<polygon fill="#555555" stroke="#555555" points="1472.44,-892.17 1472.3,-881.58 1465.8,-889.95 1472.44,-892.17"/>
</g>
<!-- NodeBarter -->
<g id="node23" class="node">
<title>NodeBarter</title>
<ellipse fill="#ffffff" stroke="#000000" cx="801" cy="-115.1" rx="27" ry="18"/>
</g>
<!-- Node004&#45;&gt;NodeBarter -->
<g id="edge15" class="edge">
<title>Node004&#45;&gt;NodeBarter</title>
<path fill="none" stroke="#99000e" d="M801,-185.91C801,-171.6 801,-156.71 801,-144.38"/>
<polygon fill="#99000e" stroke="#99000e" points="804.5,-144.44 801,-134.44 797.5,-144.44 804.5,-144.44"/>
<text text-anchor="middle" x="843" y="-155.05" font-family="Times,serif" font-size="14.00" fill="#99000e">[Торговать]</text>
</g>
<!-- Node007&#45;&gt;Node004 -->
<g id="edge16" class="edge">
<title>Node007&#45;&gt;Node004</title>
<path fill="none" stroke="#003a99" d="M1035.35,-368.41C991.58,-344.76 938.09,-315.86 893.26,-291.65"/>
<polygon fill="#003a99" stroke="#003a99" points="895.3,-288.23 884.83,-286.55 891.97,-294.39 895.3,-288.23"/>
<text text-anchor="middle" x="976" y="-317.2" font-family="Times,serif" font-size="14.00" fill="#003a99">Угу.</text>
</g>
<!-- Node008 -->
<g id="node25" class="node">
<title>Node008</title>
<ellipse fill="#ffffff" stroke="#000000" cx="1122" cy="-240.8" rx="153.44" ry="42.25"/>
<text text-anchor="middle" x="1122" y="-253.38" font-family="Times,serif" font-size="14.00">Хорошо, тогда никаких дел</text>
<text text-anchor="middle" x="1122" y="-236.13" font-family="Times,serif" font-size="14.00">не ведем. Иди себе</text>
<text text-anchor="middle" x="1122" y="-218.88" font-family="Times,serif" font-size="14.00">дальше.</text>
</g>
<!-- Node007&#45;&gt;Node008 -->
<g id="edge17" class="edge">
<title>Node007&#45;&gt;Node008</title>
<path fill="none" stroke="#679900" d="M1120.77,-348C1120.97,-330.17 1121.2,-311.13 1121.39,-294.16"/>
<polygon fill="#679900" stroke="#679900" points="1124.9,-294.39 1121.52,-284.35 1117.9,-294.31 1124.9,-294.39"/>
<text text-anchor="middle" x="1146" y="-317.2" font-family="Times,serif" font-size="14.00" fill="#679900">Эх, эх.</text>
</g>
<!-- Node005 -->
<g id="node24" class="node">
<title>Node005</title>
<ellipse fill="#ffffff" stroke="#000000" cx="801" cy="-30.05" rx="101.47" ry="30.05"/>
<text text-anchor="middle" x="801" y="-34" font-family="Times,serif" font-size="14.00">Хорошо, а теперь</text>
<text text-anchor="middle" x="801" y="-16.75" font-family="Times,serif" font-size="14.00">убирайся!</text>
</g>
<!-- NodeBarter&#45;&gt;Node005 -->
<g id="edge18" class="edge">
<title>NodeBarter&#45;&gt;Node005</title>
<path fill="none" stroke="#555555" stroke-dasharray="1,5" d="M801,-96.9C801,-89.4 801,-80.26 801,-71.22"/>
<polygon fill="#555555" stroke="#555555" points="804.5,-71.34 801,-61.34 797.5,-71.34 804.5,-71.34"/>
</g>
<!-- map_exit_p_proc -->
<g id="node26" class="node">
<title>map_exit_p_proc</title>
<ellipse fill="#ffffff" stroke="#000000" cx="1514" cy="-972" rx="27" ry="18"/>
</g>
</g>
</svg>
