<?xml version="1.0" encoding="UTF-8" standalone="no"?>
<!DOCTYPE svg PUBLIC "-//W3C//DTD SVG 1.1//EN"
 "http://www.w3.org/Graphics/SVG/1.1/DTD/svg11.dtd">
<!-- Generated by graphviz version 8.0.5 (0)
 -->
<!-- Title: eckaga1 Pages: 1 -->
<svg width="2222pt" height="931pt"
 viewBox="0.00 0.00 2222.00 931.38" xmlns="http://www.w3.org/2000/svg" xmlns:xlink="http://www.w3.org/1999/xlink">
<g id="graph0" class="graph" transform="scale(1 1) rotate(0) translate(4 927.38)">
<title>eckaga1</title>
<polygon fill="white" stroke="none" points="-4,4 -4,-927.38 2218,-927.38 2218,4 -4,4"/>
<!-- start -->
<g id="node1" class="node">
<title>start</title>
<ellipse fill="#ffffff" stroke="#000000" cx="27" cy="-868.94" rx="27" ry="18"/>
</g>
<!-- critter_p_proc -->
<g id="node2" class="node">
<title>critter_p_proc</title>
<ellipse fill="#ffffff" stroke="#000000" cx="203" cy="-868.94" rx="131.17" ry="30.05"/>
<text text-anchor="middle" x="203" y="-872.89" font-family="Times,serif" font-size="14.00">Я посвящу свою жизнь</text>
<text text-anchor="middle" x="203" y="-855.64" font-family="Times,serif" font-size="14.00">борьбе с тобой.</text>
</g>
<!-- do_setup -->
<g id="node3" class="node">
<title>do_setup</title>
<ellipse fill="#ffffff" stroke="#000000" cx="291" cy="-759.49" rx="27" ry="18"/>
</g>
<!-- critter_p_proc&#45;&gt;do_setup -->
<g id="edge1" class="edge">
<title>critter_p_proc&#45;&gt;do_setup</title>
<path fill="none" stroke="#555555" stroke-dasharray="1,5" d="M226.58,-839.14C240.67,-821.94 258.35,-800.35 271.62,-784.15"/>
<polygon fill="#555555" stroke="#555555" points="274.86,-786.72 278.49,-776.76 269.45,-782.28 274.86,-786.72"/>
</g>
<!-- pickup_p_proc -->
<g id="node4" class="node">
<title>pickup_p_proc</title>
<ellipse fill="#ffffff" stroke="#000000" cx="451" cy="-868.94" rx="27" ry="18"/>
</g>
<!-- talk_p_proc -->
<g id="node5" class="node">
<title>talk_p_proc</title>
<ellipse fill="#ffffff" stroke="#000000" cx="523" cy="-868.94" rx="27" ry="18"/>
</g>
<!-- destroy_p_proc -->
<g id="node6" class="node">
<title>destroy_p_proc</title>
<ellipse fill="#ffffff" stroke="#000000" cx="595" cy="-868.94" rx="27" ry="18"/>
</g>
<!-- look_at_p_proc -->
<g id="node7" class="node">
<title>look_at_p_proc</title>
<ellipse fill="#ffffff" stroke="#000000" cx="790" cy="-868.94" rx="150.26" ry="54.45"/>
<text text-anchor="middle" x="790" y="-890.14" font-family="Times,serif" font-size="14.00">Вы видите человека почти</text>
<text text-anchor="middle" x="790" y="-872.89" font-family="Times,serif" font-size="14.00">без одежды.</text>
<text text-anchor="middle" x="790" y="-855.64" font-family="Times,serif" font-size="14.00">&#45;&#45;&#45;</text>
<text text-anchor="middle" x="790" y="-838.39" font-family="Times,serif" font-size="14.00">Вы видите Кагу.</text>
</g>
<!-- description_p_proc -->
<g id="node8" class="node">
<title>description_p_proc</title>
<ellipse fill="#ffffff" stroke="#000000" cx="1102" cy="-868.94" rx="143.37" ry="30.05"/>
<text text-anchor="middle" x="1102" y="-872.89" font-family="Times,serif" font-size="14.00">На нем только штаны, и</text>
<text text-anchor="middle" x="1102" y="-855.64" font-family="Times,serif" font-size="14.00">выглядит он, как дикарь.</text>
</g>
<!-- use_skill_on_p_proc -->
<g id="node9" class="node">
<title>use_skill_on_p_proc</title>
<ellipse fill="#ffffff" stroke="#000000" cx="1290" cy="-868.94" rx="27" ry="18"/>
</g>
<!-- damage_p_proc -->
<g id="node10" class="node">
<title>damage_p_proc</title>
<ellipse fill="#ffffff" stroke="#000000" cx="1362" cy="-868.94" rx="27" ry="18"/>
</g>
<!-- map_enter_p_proc -->
<g id="node11" class="node">
<title>map_enter_p_proc</title>
<ellipse fill="#ffffff" stroke="#000000" cx="379" cy="-868.94" rx="27" ry="18"/>
</g>
<!-- map_enter_p_proc&#45;&gt;do_setup -->
<g id="edge2" class="edge">
<title>map_enter_p_proc&#45;&gt;do_setup</title>
<path fill="none" stroke="#555555" stroke-dasharray="1,5" d="M369.29,-851.99C362.41,-841.09 352.7,-826.5 343,-814.49 333.93,-803.26 322.95,-791.62 313.43,-782.04"/>
<polygon fill="#555555" stroke="#555555" points="316.41,-780.08 306.84,-775.53 311.48,-785.05 316.41,-780.08"/>
</g>
<!-- combat_p_proc -->
<g id="node12" class="node">
<title>combat_p_proc</title>
<ellipse fill="#ffffff" stroke="#000000" cx="1538" cy="-868.94" rx="131.17" ry="30.05"/>
<text text-anchor="middle" x="1538" y="-872.89" font-family="Times,serif" font-size="14.00">Я посвящу свою жизнь</text>
<text text-anchor="middle" x="1538" y="-855.64" font-family="Times,serif" font-size="14.00">борьбе с тобой.</text>
</g>
<!-- NodeFleeing -->
<g id="node13" class="node">
<title>NodeFleeing</title>
<ellipse fill="#ffffff" stroke="#000000" cx="1502" cy="-759.49" rx="27" ry="18"/>
</g>
<!-- combat_p_proc&#45;&gt;NodeFleeing -->
<g id="edge3" class="edge">
<title>combat_p_proc&#45;&gt;NodeFleeing</title>
<path fill="none" stroke="#555555" stroke-dasharray="1,5" d="M1528.16,-838.58C1522.82,-822.62 1516.25,-803.03 1511.04,-787.47"/>
<polygon fill="#555555" stroke="#555555" points="1514.17,-786.8 1507.67,-778.43 1507.53,-789.02 1514.17,-786.8"/>
</g>
<!-- NodeFighting -->
<g id="node14" class="node">
<title>NodeFighting</title>
<ellipse fill="#ffffff" stroke="#000000" cx="1574" cy="-759.49" rx="27" ry="18"/>
</g>
<!-- combat_p_proc&#45;&gt;NodeFighting -->
<g id="edge4" class="edge">
<title>combat_p_proc&#45;&gt;NodeFighting</title>
<path fill="none" stroke="#555555" stroke-dasharray="1,5" d="M1547.84,-838.58C1553.18,-822.62 1559.75,-803.03 1564.96,-787.47"/>
<polygon fill="#555555" stroke="#555555" points="1568.47,-789.02 1568.33,-778.43 1561.83,-786.8 1568.47,-789.02"/>
</g>
<!-- timed_event_p_proc -->
<g id="node15" class="node">
<title>timed_event_p_proc</title>
<ellipse fill="#ffffff" stroke="#000000" cx="1714" cy="-868.94" rx="27" ry="18"/>
</g>
<!-- doSequence -->
<g id="node16" class="node">
<title>doSequence</title>
<ellipse fill="#ffffff" stroke="#000000" cx="1714" cy="-759.49" rx="27" ry="18"/>
</g>
<!-- timed_event_p_proc&#45;&gt;doSequence -->
<g id="edge5" class="edge">
<title>timed_event_p_proc&#45;&gt;doSequence</title>
<path fill="none" stroke="#555555" stroke-dasharray="1,5" d="M1714,-850.67C1714,-833.91 1714,-808.19 1714,-788.49"/>
<polygon fill="#555555" stroke="#555555" points="1717.5,-788.71 1714,-778.71 1710.5,-788.71 1717.5,-788.71"/>
</g>
<!-- Node001 -->
<g id="node18" class="node">
<title>Node001</title>
<ellipse fill="#ffffff" stroke="#000000" cx="1714" cy="-552.46" rx="157.15" ry="152.03"/>
<text text-anchor="middle" x="1714" y="-642.66" font-family="Times,serif" font-size="14.00">[Высокий и могучий воин</text>
<text text-anchor="middle" x="1714" y="-625.41" font-family="Times,serif" font-size="14.00">стоит перед вами. Его</text>
<text text-anchor="middle" x="1714" y="-608.16" font-family="Times,serif" font-size="14.00">глаза горят ненавистью,</text>
<text text-anchor="middle" x="1714" y="-590.91" font-family="Times,serif" font-size="14.00">когда он смотрит на вас.]</text>
<text text-anchor="middle" x="1714" y="-573.66" font-family="Times,serif" font-size="14.00">Итак, они изгнали Кагу и</text>
<text text-anchor="middle" x="1714" y="-556.41" font-family="Times,serif" font-size="14.00">выбрали ТЕБЯ Избранным?</text>
<text text-anchor="middle" x="1714" y="-539.16" font-family="Times,serif" font-size="14.00">Ха! Ты думаешь, что если</text>
<text text-anchor="middle" x="1714" y="-521.91" font-family="Times,serif" font-size="14.00">являешься правнуком</text>
<text text-anchor="middle" x="1714" y="-504.66" font-family="Times,serif" font-size="14.00">Жителя Убежища, то ты</text>
<text text-anchor="middle" x="1714" y="-487.41" font-family="Times,serif" font-size="14.00">особенный?! Ты думаешь,</text>
<text text-anchor="middle" x="1714" y="-470.16" font-family="Times,serif" font-size="14.00">что ты лучше, чем я,</text>
<text text-anchor="middle" x="1714" y="-452.91" font-family="Times,serif" font-size="14.00">Великий Кага?!</text>
</g>
<!-- doSequence&#45;&gt;Node001 -->
<g id="edge9" class="edge">
<title>doSequence&#45;&gt;Node001</title>
<path fill="none" stroke="#555555" stroke-dasharray="1,5" d="M1714,-741.01C1714,-734.11 1714,-725.5 1714,-715.79"/>
<polygon fill="#555555" stroke="#555555" points="1717.5,-715.85 1714,-705.85 1710.5,-715.85 1717.5,-715.85"/>
</g>
<!-- Node998 -->
<g id="node17" class="node">
<title>Node998</title>
<ellipse fill="#ffffff" stroke="#000000" cx="1786" cy="-868.94" rx="27" ry="18"/>
</g>
<!-- Node002 -->
<g id="node19" class="node">
<title>Node002</title>
<ellipse fill="#ffffff" stroke="#000000" cx="1394" cy="-246.04" rx="147.08" ry="54.45"/>
<text text-anchor="middle" x="1394" y="-267.24" font-family="Times,serif" font-size="14.00">Это звание ничего не</text>
<text text-anchor="middle" x="1394" y="-249.99" font-family="Times,serif" font-size="14.00">будет значить, когда Кага</text>
<text text-anchor="middle" x="1394" y="-232.74" font-family="Times,serif" font-size="14.00">сорвет голову c твоих</text>
<text text-anchor="middle" x="1394" y="-215.49" font-family="Times,serif" font-size="14.00">плеч!</text>
</g>
<!-- Node001&#45;&gt;Node002 -->
<g id="edge6" class="edge">
<title>Node001&#45;&gt;Node002</title>
<path fill="none" stroke="#990094" d="M1594.6,-452.98C1568.57,-430.39 1541.55,-406.05 1517.25,-382.43 1492.57,-358.45 1466.72,-330.54 1445.11,-306.31"/>
<polygon fill="#990094" stroke="#990094" points="1448.2,-304.4 1438.95,-299.25 1442.97,-309.05 1448.2,-304.4"/>
<text text-anchor="middle" x="1614.38" y="-360.51" font-family="Times,serif" font-size="14.00" fill="#990094">Ну, ведь я же Избранный,</text>
<text text-anchor="middle" x="1614.38" y="-343.26" font-family="Times,serif" font-size="14.00" fill="#990094">не так ли?</text>
</g>
<!-- Node003 -->
<g id="node20" class="node">
<title>Node003</title>
<ellipse fill="#ffffff" stroke="#000000" cx="1714" cy="-246.04" rx="155.03" ry="66.64"/>
<text text-anchor="middle" x="1714" y="-275.86" font-family="Times,serif" font-size="14.00">Никакие слова не сохранят</text>
<text text-anchor="middle" x="1714" y="-258.61" font-family="Times,serif" font-size="14.00">твою шкуру. С твоей</text>
<text text-anchor="middle" x="1714" y="-241.36" font-family="Times,serif" font-size="14.00">смертью честь Каги будет</text>
<text text-anchor="middle" x="1714" y="-224.11" font-family="Times,serif" font-size="14.00">восстановлена. Кага</text>
<text text-anchor="middle" x="1714" y="-206.86" font-family="Times,serif" font-size="14.00">сейчас возьмет реванш!</text>
</g>
<!-- Node001&#45;&gt;Node003 -->
<g id="edge7" class="edge">
<title>Node001&#45;&gt;Node003</title>
<path fill="none" stroke="#009972" d="M1714,-400.14C1714,-373.73 1714,-347.29 1714,-323.99"/>
<polygon fill="#009972" stroke="#009972" points="1717.5,-324.17 1714,-314.17 1710.5,-324.17 1717.5,-324.17"/>
<text text-anchor="middle" x="1810" y="-369.13" font-family="Times,serif" font-size="14.00" fill="#009972">Эй, подожди секунду. Я</text>
<text text-anchor="middle" x="1810" y="-351.88" font-family="Times,serif" font-size="14.00" fill="#009972">никогда не говорил, что я</text>
<text text-anchor="middle" x="1810" y="-334.63" font-family="Times,serif" font-size="14.00" fill="#009972">лучше, чем ты.</text>
</g>
<!-- Node004 -->
<g id="node21" class="node">
<title>Node004</title>
<ellipse fill="#ffffff" stroke="#000000" cx="2022" cy="-246.04" rx="135.41" ry="42.25"/>
<text text-anchor="middle" x="2022" y="-258.61" font-family="Times,serif" font-size="14.00">Что??? *Ты* новый</text>
<text text-anchor="middle" x="2022" y="-241.36" font-family="Times,serif" font-size="14.00">Избранный? Видно, они</text>
<text text-anchor="middle" x="2022" y="-224.11" font-family="Times,serif" font-size="14.00">совсем отчаялись.</text>
</g>
<!-- Node001&#45;&gt;Node004 -->
<g id="edge8" class="edge">
<title>Node001&#45;&gt;Node004</title>
<path fill="none" stroke="#994500" d="M1833.76,-453.78C1859.65,-431.15 1886.34,-406.59 1910,-382.43 1936.58,-355.3 1963.81,-322.53 1984.75,-296.02"/>
<polygon fill="#994500" stroke="#994500" points="1987.9,-298.68 1991.33,-288.65 1982.4,-294.36 1987.9,-298.68"/>
<text text-anchor="middle" x="1970" y="-351.88" font-family="Times,serif" font-size="14.00" fill="#994500">У&#45;у?</text>
</g>
<!-- Node005 -->
<g id="node22" class="node">
<title>Node005</title>
<ellipse fill="#ffffff" stroke="#000000" cx="2022" cy="-54.45" rx="137.53" ry="54.45"/>
<text text-anchor="middle" x="2022" y="-75.65" font-family="Times,serif" font-size="14.00">Кага не будет даже</text>
<text text-anchor="middle" x="2022" y="-58.4" font-family="Times,serif" font-size="14.00">разговаривать с тобой.</text>
<text text-anchor="middle" x="2022" y="-41.15" font-family="Times,serif" font-size="14.00">Приготовься умереть от</text>
<text text-anchor="middle" x="2022" y="-23.9" font-family="Times,serif" font-size="14.00">руки Великого Каги!</text>
</g>
<!-- Node004&#45;&gt;Node005 -->
<g id="edge10" class="edge">
<title>Node004&#45;&gt;Node005</title>
<path fill="none" stroke="#180099" d="M2022,-203.43C2022,-178.99 2022,-147.57 2022,-119.98"/>
<polygon fill="#180099" stroke="#180099" points="2025.5,-120.22 2022,-110.22 2018.5,-120.22 2025.5,-120.22"/>
<text text-anchor="middle" x="2118" y="-148.09" font-family="Times,serif" font-size="14.00" fill="#180099">Моя не нравится тебя. Ты</text>
<text text-anchor="middle" x="2118" y="-130.84" font-family="Times,serif" font-size="14.00" fill="#180099">смотришься плохой.</text>
</g>
</g>
</svg>
