<?xml version="1.0" encoding="UTF-8" standalone="no"?>
<!DOCTYPE svg PUBLIC "-//W3C//DTD SVG 1.1//EN"
 "http://www.w3.org/Graphics/SVG/1.1/DTD/svg11.dtd">
<!-- Generated by graphviz version 8.0.5 (0)
 -->
<!-- Title: ecnomchf Pages: 1 -->
<svg width="1845pt" height="1062pt"
 viewBox="0.00 0.00 1845.12 1062.47" xmlns="http://www.w3.org/2000/svg" xmlns:xlink="http://www.w3.org/1999/xlink">
<g id="graph0" class="graph" transform="scale(1 1) rotate(0) translate(4 1058.47)">
<title>ecnomchf</title>
<polygon fill="white" stroke="none" points="-4,4 -4,-1058.47 1841.12,-1058.47 1841.12,4 -4,4"/>
<!-- start -->
<g id="node1" class="node">
<title>start</title>
<ellipse fill="#ffffff" stroke="#000000" cx="644.12" cy="-1000.02" rx="27" ry="18"/>
</g>
<!-- critter_p_proc -->
<g id="node2" class="node">
<title>critter_p_proc</title>
<ellipse fill="#ffffff" stroke="#000000" cx="716.12" cy="-1000.02" rx="27" ry="18"/>
</g>
<!-- pickup_p_proc -->
<g id="node3" class="node">
<title>pickup_p_proc</title>
<ellipse fill="#ffffff" stroke="#000000" cx="788.12" cy="-1000.02" rx="27" ry="18"/>
</g>
<!-- talk_p_proc -->
<g id="node4" class="node">
<title>talk_p_proc</title>
<ellipse fill="#ffffff" stroke="#000000" cx="860.12" cy="-1000.02" rx="27" ry="18"/>
</g>
<!-- Node001 -->
<g id="node5" class="node">
<title>Node001</title>
<ellipse fill="#ffffff" stroke="#000000" cx="860.12" cy="-756.54" rx="160.87" ry="152.03"/>
<text text-anchor="middle" x="860.12" y="-846.74" font-family="Times,serif" font-size="14.00">А, странник. Добро</text>
<text text-anchor="middle" x="860.12" y="-829.49" font-family="Times,serif" font-size="14.00">пожаловать в мой скромный</text>
<text text-anchor="middle" x="860.12" y="-812.24" font-family="Times,serif" font-size="14.00">шатер. Отдохните в тени</text>
<text text-anchor="middle" x="860.12" y="-794.99" font-family="Times,serif" font-size="14.00">от бесконечного жара</text>
<text text-anchor="middle" x="860.12" y="-777.74" font-family="Times,serif" font-size="14.00">земли.</text>
<text text-anchor="middle" x="860.12" y="-760.49" font-family="Times,serif" font-size="14.00">&#45;&#45;&#45;</text>
<text text-anchor="middle" x="860.12" y="-743.24" font-family="Times,serif" font-size="14.00">А, странник. Мне жаль,</text>
<text text-anchor="middle" x="860.12" y="-725.99" font-family="Times,serif" font-size="14.00">что у нас нет шатра, где</text>
<text text-anchor="middle" x="860.12" y="-708.74" font-family="Times,serif" font-size="14.00">можно было бы укрыться в</text>
<text text-anchor="middle" x="860.12" y="-691.49" font-family="Times,serif" font-size="14.00">тени от бесконечного жара</text>
<text text-anchor="middle" x="860.12" y="-674.24" font-family="Times,serif" font-size="14.00">земли. Отдохни немного,</text>
<text text-anchor="middle" x="860.12" y="-656.99" font-family="Times,serif" font-size="14.00">побеседуй со мной.</text>
</g>
<!-- talk_p_proc&#45;&gt;Node001 -->
<g id="edge1" class="edge">
<title>talk_p_proc&#45;&gt;Node001</title>
<path fill="none" stroke="#555555" stroke-dasharray="1,5" d="M860.12,-981.65C860.12,-967.13 860.12,-944.8 860.12,-919.76"/>
<polygon fill="#555555" stroke="#555555" points="863.62,-919.88 860.12,-909.88 856.62,-919.88 863.62,-919.88"/>
</g>
<!-- Node002 -->
<g id="node16" class="node">
<title>Node002</title>
<ellipse fill="#ffffff" stroke="#000000" cx="444.12" cy="-389.13" rx="141.77" ry="78.84"/>
<text text-anchor="middle" x="444.12" y="-427.58" font-family="Times,serif" font-size="14.00">В таком случае, добро</text>
<text text-anchor="middle" x="444.12" y="-410.33" font-family="Times,serif" font-size="14.00">пожаловать. Мы здесь</text>
<text text-anchor="middle" x="444.12" y="-393.08" font-family="Times,serif" font-size="14.00">далеки от &#39;цивилизации&#39;.</text>
<text text-anchor="middle" x="444.12" y="-375.83" font-family="Times,serif" font-size="14.00">И нам очень нужны</text>
<text text-anchor="middle" x="444.12" y="-358.58" font-family="Times,serif" font-size="14.00">некоторые вещи. Может</text>
<text text-anchor="middle" x="444.12" y="-341.33" font-family="Times,serif" font-size="14.00">быть, поторгуем?</text>
</g>
<!-- Node001&#45;&gt;Node002 -->
<g id="edge4" class="edge">
<title>Node001&#45;&gt;Node002</title>
<path fill="none" stroke="#7b9900" d="M701.65,-728.78C555.02,-700.4 352.75,-650.81 305.12,-586.51 274,-544.5 306.55,-496.62 347.95,-458.65"/>
<polygon fill="#7b9900" stroke="#7b9900" points="349.9,-461.7 355.04,-452.44 345.25,-456.47 349.9,-461.7"/>
<text text-anchor="middle" x="402.62" y="-573.21" font-family="Times,serif" font-size="14.00" fill="#7b9900">Спасибо; я с</text>
<text text-anchor="middle" x="402.62" y="-555.96" font-family="Times,serif" font-size="14.00" fill="#7b9900">благодарностью войду под</text>
<text text-anchor="middle" x="402.62" y="-538.71" font-family="Times,serif" font-size="14.00" fill="#7b9900">ваш кров.</text>
</g>
<!-- Node001&#45;&gt;Node002 -->
<g id="edge7" class="edge">
<title>Node001&#45;&gt;Node002</title>
<path fill="none" stroke="#993200" d="M709.93,-701.65C650.19,-674.39 584.44,-636.35 536.62,-586.51 520.07,-569.26 497.19,-520.86 478.34,-476.42"/>
<polygon fill="#993200" stroke="#993200" points="481.24,-475.29 474.13,-467.42 474.78,-478 481.24,-475.29"/>
<text text-anchor="middle" x="642.87" y="-573.21" font-family="Times,serif" font-size="14.00" fill="#993200">Спасибо; я с</text>
<text text-anchor="middle" x="642.87" y="-555.96" font-family="Times,serif" font-size="14.00" fill="#993200">благодарностью приму ваше</text>
<text text-anchor="middle" x="642.87" y="-538.71" font-family="Times,serif" font-size="14.00" fill="#993200">предложение.</text>
</g>
<!-- Node003 -->
<g id="node17" class="node">
<title>Node003</title>
<ellipse fill="#ffffff" stroke="#000000" cx="888.12" cy="-389.13" rx="138.06" ry="54.45"/>
<text text-anchor="middle" x="888.12" y="-410.33" font-family="Times,serif" font-size="14.00">Что ж, может быть, в</text>
<text text-anchor="middle" x="888.12" y="-393.08" font-family="Times,serif" font-size="14.00">другой раз? Да</text>
<text text-anchor="middle" x="888.12" y="-375.83" font-family="Times,serif" font-size="14.00">сопутствует вам удача в</text>
<text text-anchor="middle" x="888.12" y="-358.58" font-family="Times,serif" font-size="14.00">ваших странствиях.</text>
</g>
<!-- Node001&#45;&gt;Node003 -->
<g id="edge5" class="edge">
<title>Node001&#45;&gt;Node003</title>
<path fill="none" stroke="#8b0099" d="M765.64,-633.01C751.74,-601.36 745.73,-567.09 758.12,-534.76 771.05,-501.05 795.86,-470.27 820.37,-445.85"/>
<polygon fill="#8b0099" stroke="#8b0099" points="822.22,-448.96 826.95,-439.48 817.34,-443.94 822.22,-448.96"/>
<text text-anchor="middle" x="849.62" y="-573.21" font-family="Times,serif" font-size="14.00" fill="#8b0099">Мне придется отклонить</text>
<text text-anchor="middle" x="849.62" y="-555.96" font-family="Times,serif" font-size="14.00" fill="#8b0099">ваше предложение. Я</text>
<text text-anchor="middle" x="849.62" y="-538.71" font-family="Times,serif" font-size="14.00" fill="#8b0099">просто иду мимо.</text>
</g>
<!-- Node001&#45;&gt;Node003 -->
<g id="edge8" class="edge">
<title>Node001&#45;&gt;Node003</title>
<path fill="none" stroke="#050099" d="M931.35,-619.96C935.25,-608.85 938.6,-597.62 941.12,-586.51 951.36,-541.47 937.3,-491.18 921.09,-452.77"/>
<polygon fill="#050099" stroke="#050099" points="923.93,-451.53 916.72,-443.77 917.52,-454.34 923.93,-451.53"/>
<text text-anchor="middle" x="1036.62" y="-573.21" font-family="Times,serif" font-size="14.00" fill="#050099">Мне придется отклонить</text>
<text text-anchor="middle" x="1036.62" y="-555.96" font-family="Times,serif" font-size="14.00" fill="#050099">ваше предложение. Я</text>
<text text-anchor="middle" x="1036.62" y="-538.71" font-family="Times,serif" font-size="14.00" fill="#050099">просто иду мимо.</text>
</g>
<!-- Node005 -->
<g id="node18" class="node">
<title>Node005</title>
<ellipse fill="#ffffff" stroke="#000000" cx="1199.12" cy="-389.13" rx="154.5" ry="127.63"/>
<text text-anchor="middle" x="1199.12" y="-462.08" font-family="Times,serif" font-size="14.00">Видимо, мое предложение</text>
<text text-anchor="middle" x="1199.12" y="-444.83" font-family="Times,serif" font-size="14.00">отдохнуть в тени</text>
<text text-anchor="middle" x="1199.12" y="-427.58" font-family="Times,serif" font-size="14.00">запоздало. Солнце уже</text>
<text text-anchor="middle" x="1199.12" y="-410.33" font-family="Times,serif" font-size="14.00">выжгло все слова из</text>
<text text-anchor="middle" x="1199.12" y="-393.08" font-family="Times,serif" font-size="14.00">вашего мозга. Мне следует</text>
<text text-anchor="middle" x="1199.12" y="-375.83" font-family="Times,serif" font-size="14.00">радушно относиться к тем,</text>
<text text-anchor="middle" x="1199.12" y="-358.58" font-family="Times,serif" font-size="14.00">кому меньше повезло, чем</text>
<text text-anchor="middle" x="1199.12" y="-341.33" font-family="Times,serif" font-size="14.00">мне. Оставайтесь в моем</text>
<text text-anchor="middle" x="1199.12" y="-324.08" font-family="Times,serif" font-size="14.00">лагере сколько захотите,</text>
<text text-anchor="middle" x="1199.12" y="-306.83" font-family="Times,serif" font-size="14.00">о безмозглое существо.</text>
</g>
<!-- Node001&#45;&gt;Node005 -->
<g id="edge6" class="edge">
<title>Node001&#45;&gt;Node005</title>
<path fill="none" stroke="#00995e" d="M1005.01,-690.19C1050.89,-663.57 1098.39,-628.94 1132.12,-586.51 1146.56,-568.36 1157.97,-546.91 1166.97,-524.98"/>
<polygon fill="#00995e" stroke="#00995e" points="1170.54,-526.47 1170.94,-515.88 1164.02,-523.91 1170.54,-526.47"/>
<text text-anchor="middle" x="1181.25" y="-555.96" font-family="Times,serif" font-size="14.00" fill="#00995e">Ууга.</text>
</g>
<!-- Node001&#45;&gt;Node005 -->
<g id="edge9" class="edge">
<title>Node001&#45;&gt;Node005</title>
<path fill="none" stroke="#289900" d="M1016.5,-719.09C1086.6,-694.11 1162.7,-653.02 1204.12,-586.51 1215.34,-568.5 1220.81,-547.63 1222.67,-526.37"/>
<polygon fill="#289900" stroke="#289900" points="1226.21,-526.77 1223.31,-516.58 1219.22,-526.35 1226.21,-526.77"/>
<text text-anchor="middle" x="1241.25" y="-555.96" font-family="Times,serif" font-size="14.00" fill="#289900">Ууга.</text>
</g>
<!-- destroy_p_proc -->
<g id="node6" class="node">
<title>destroy_p_proc</title>
<ellipse fill="#ffffff" stroke="#000000" cx="932.12" cy="-1000.02" rx="27" ry="18"/>
</g>
<!-- look_at_p_proc -->
<g id="node7" class="node">
<title>look_at_p_proc</title>
<ellipse fill="#ffffff" stroke="#000000" cx="1089.12" cy="-1000.02" rx="112.08" ry="42.25"/>
<text text-anchor="middle" x="1089.12" y="-1012.59" font-family="Times,serif" font-size="14.00">Кочевник.</text>
<text text-anchor="middle" x="1089.12" y="-995.34" font-family="Times,serif" font-size="14.00">&#45;&#45;&#45;</text>
<text text-anchor="middle" x="1089.12" y="-978.09" font-family="Times,serif" font-size="14.00">Вождь кочевников.</text>
</g>
<!-- description_p_proc -->
<g id="node8" class="node">
<title>description_p_proc</title>
<ellipse fill="#ffffff" stroke="#000000" cx="1366.12" cy="-1000.02" rx="146.55" ry="54.45"/>
<text text-anchor="middle" x="1366.12" y="-1021.22" font-family="Times,serif" font-size="14.00">Судя по тому, как он одет</text>
<text text-anchor="middle" x="1366.12" y="-1003.97" font-family="Times,serif" font-size="14.00">и как держится, это,</text>
<text text-anchor="middle" x="1366.12" y="-986.72" font-family="Times,serif" font-size="14.00">очевидно, какой&#45;то</text>
<text text-anchor="middle" x="1366.12" y="-969.47" font-family="Times,serif" font-size="14.00">местный вождь.</text>
</g>
<!-- use_skill_on_p_proc -->
<g id="node9" class="node">
<title>use_skill_on_p_proc</title>
<ellipse fill="#ffffff" stroke="#000000" cx="1558.12" cy="-1000.02" rx="27" ry="18"/>
</g>
<!-- damage_p_proc -->
<g id="node10" class="node">
<title>damage_p_proc</title>
<ellipse fill="#ffffff" stroke="#000000" cx="1630.12" cy="-1000.02" rx="27" ry="18"/>
</g>
<!-- map_enter_p_proc -->
<g id="node11" class="node">
<title>map_enter_p_proc</title>
<ellipse fill="#ffffff" stroke="#000000" cx="1702.12" cy="-1000.02" rx="27" ry="18"/>
</g>
<!-- combat_p_proc -->
<g id="node12" class="node">
<title>combat_p_proc</title>
<ellipse fill="#ffffff" stroke="#000000" cx="1774.12" cy="-1000.02" rx="27" ry="18"/>
</g>
<!-- NodeFleeing -->
<g id="node13" class="node">
<title>NodeFleeing</title>
<ellipse fill="#ffffff" stroke="#000000" cx="1738.12" cy="-756.54" rx="27" ry="18"/>
</g>
<!-- combat_p_proc&#45;&gt;NodeFleeing -->
<g id="edge2" class="edge">
<title>combat_p_proc&#45;&gt;NodeFleeing</title>
<path fill="none" stroke="#555555" stroke-dasharray="1,5" d="M1771.53,-981.65C1765.37,-940.32 1749.79,-835.8 1742.29,-785.47"/>
<polygon fill="#555555" stroke="#555555" points="1745.63,-785.13 1740.69,-775.75 1738.7,-786.16 1745.63,-785.13"/>
</g>
<!-- NodeFighting -->
<g id="node14" class="node">
<title>NodeFighting</title>
<ellipse fill="#ffffff" stroke="#000000" cx="1810.12" cy="-756.54" rx="27" ry="18"/>
</g>
<!-- combat_p_proc&#45;&gt;NodeFighting -->
<g id="edge3" class="edge">
<title>combat_p_proc&#45;&gt;NodeFighting</title>
<path fill="none" stroke="#555555" stroke-dasharray="1,5" d="M1776.71,-981.65C1782.87,-940.32 1798.46,-835.8 1805.96,-785.47"/>
<polygon fill="#555555" stroke="#555555" points="1809.54,-786.16 1807.56,-775.75 1802.62,-785.13 1809.54,-786.16"/>
</g>
<!-- Node999 -->
<g id="node15" class="node">
<title>Node999</title>
<ellipse fill="#ffffff" stroke="#000000" cx="755.12" cy="-18" rx="27" ry="18"/>
</g>
<!-- NodeBarter -->
<g id="node19" class="node">
<title>NodeBarter</title>
<ellipse fill="#ffffff" stroke="#000000" cx="139.12" cy="-148.75" rx="139.12" ry="42.25"/>
<text text-anchor="middle" x="139.12" y="-161.32" font-family="Times,serif" font-size="14.00">Я надеюсь, ты нашел то,</text>
<text text-anchor="middle" x="139.12" y="-144.07" font-family="Times,serif" font-size="14.00">что тебе нужно. Еще</text>
<text text-anchor="middle" x="139.12" y="-126.82" font-family="Times,serif" font-size="14.00">что&#45;нибудь?</text>
</g>
<!-- Node002&#45;&gt;NodeBarter -->
<g id="edge10" class="edge">
<title>Node002&#45;&gt;NodeBarter</title>
<path fill="none" stroke="#990054" d="M362.36,-324.46C330.03,-299.27 292.56,-270.04 258.62,-243.5 238.54,-227.79 216.58,-210.58 197.03,-195.23"/>
<polygon fill="#990054" stroke="#990054" points="199.54,-191.97 189.52,-188.55 195.22,-197.48 199.54,-191.97"/>
<text text-anchor="middle" x="349.87" y="-221.57" font-family="Times,serif" font-size="14.00" fill="#990054">Что у вас есть на обмен?</text>
</g>
<!-- Node004 -->
<g id="node20" class="node">
<title>Node004</title>
<ellipse fill="#ffffff" stroke="#000000" cx="444.12" cy="-148.75" rx="147.61" ry="42.25"/>
<text text-anchor="middle" x="444.12" y="-161.32" font-family="Times,serif" font-size="14.00">Как неудачно. Что ж,</text>
<text text-anchor="middle" x="444.12" y="-144.07" font-family="Times,serif" font-size="14.00">тогда отдыхайте, добро</text>
<text text-anchor="middle" x="444.12" y="-126.82" font-family="Times,serif" font-size="14.00">пожаловать в наш лагерь.</text>
</g>
<!-- Node002&#45;&gt;Node004 -->
<g id="edge11" class="edge">
<title>Node002&#45;&gt;Node004</title>
<path fill="none" stroke="#008199" d="M444.12,-310.08C444.12,-274.73 444.12,-233.88 444.12,-202.26"/>
<polygon fill="#008199" stroke="#008199" points="447.62,-202.49 444.12,-192.49 440.62,-202.49 447.62,-202.49"/>
<text text-anchor="middle" x="523.62" y="-230.2" font-family="Times,serif" font-size="14.00" fill="#008199">Извините, у меня нет</text>
<text text-anchor="middle" x="523.62" y="-212.95" font-family="Times,serif" font-size="14.00" fill="#008199">ничего на продажу.</text>
</g>
<!-- Node004a -->
<g id="node21" class="node">
<title>Node004a</title>
<ellipse fill="#ffffff" stroke="#000000" cx="755.12" cy="-148.75" rx="145.49" ry="30.05"/>
<text text-anchor="middle" x="755.12" y="-152.7" font-family="Times,serif" font-size="14.00">Как жаль. Тогда отдыхай;</text>
<text text-anchor="middle" x="755.12" y="-135.45" font-family="Times,serif" font-size="14.00">мы всегда рады тебе.</text>
</g>
<!-- Node002&#45;&gt;Node004a -->
<g id="edge12" class="edge">
<title>Node002&#45;&gt;Node004a</title>
<path fill="none" stroke="#998400" d="M526.65,-324.88C585.26,-279.95 661.77,-221.31 709.68,-184.58"/>
<polygon fill="#998400" stroke="#998400" points="711.47,-186.85 717.28,-177.99 707.22,-181.29 711.47,-186.85"/>
<text text-anchor="middle" x="751.62" y="-230.2" font-family="Times,serif" font-size="14.00" fill="#998400">Извините, у меня нет</text>
<text text-anchor="middle" x="751.62" y="-212.95" font-family="Times,serif" font-size="14.00" fill="#998400">ничего на продажу.</text>
</g>
<!-- Node003&#45;&gt;Node999 -->
<g id="edge13" class="edge">
<title>Node003&#45;&gt;Node999</title>
<path fill="none" stroke="#580099" d="M909,-335.07C928.89,-275.26 950.25,-177.16 909.12,-106.5 883.78,-62.96 827.81,-39.31 790.78,-27.93"/>
<polygon fill="#580099" stroke="#580099" points="792,-24.35 781.42,-24.91 790.04,-31.07 792,-24.35"/>
<text text-anchor="middle" x="954.12" y="-144.07" font-family="Times,serif" font-size="14.00" fill="#580099">Пока.</text>
</g>
<!-- Node005&#45;&gt;Node999 -->
<g id="edge16" class="edge">
<title>Node005&#45;&gt;Node999</title>
<path fill="none" stroke="#002e99" d="M1126.55,-275.94C1087.26,-220.69 1035.32,-155.58 979.12,-106.5 944.24,-76.04 931.92,-71.68 889.12,-54 857.38,-40.89 819.35,-31.51 791.93,-25.79"/>
<polygon fill="#002e99" stroke="#002e99" points="792.74,-22.18 782.24,-23.63 791.35,-29.04 792.74,-22.18"/>
<text text-anchor="middle" x="1080.12" y="-144.07" font-family="Times,serif" font-size="14.00" fill="#002e99">Пока.</text>
</g>
<!-- NodeBarter&#45;&gt;Node999 -->
<g id="edge17" class="edge">
<title>NodeBarter&#45;&gt;Node999</title>
<path fill="none" stroke="#5b9900" d="M223.55,-114.86C279.83,-94.24 355.89,-68.84 425.12,-54 529.33,-31.66 655.25,-23.33 717.09,-20.43"/>
<polygon fill="#5b9900" stroke="#5b9900" points="717.03,-23.89 726.87,-19.95 716.72,-16.9 717.03,-23.89"/>
<text text-anchor="middle" x="506.12" y="-75.2" font-family="Times,serif" font-size="14.00" fill="#5b9900">Не сегодня. Мне пора</text>
<text text-anchor="middle" x="506.12" y="-57.95" font-family="Times,serif" font-size="14.00" fill="#5b9900">идти.</text>
</g>
<!-- Node004&#45;&gt;Node999 -->
<g id="edge14" class="edge">
<title>Node004&#45;&gt;Node999</title>
<path fill="none" stroke="#00992b" d="M527.06,-113.42C591.16,-86.88 676.47,-51.56 722.45,-32.53"/>
<polygon fill="#00992b" stroke="#00992b" points="723.54,-35.45 731.44,-28.39 720.87,-28.98 723.54,-35.45"/>
<text text-anchor="middle" x="685.12" y="-66.58" font-family="Times,serif" font-size="14.00" fill="#00992b">Пока.</text>
</g>
<!-- Node004a&#45;&gt;Node999 -->
<g id="edge15" class="edge">
<title>Node004a&#45;&gt;Node999</title>
<path fill="none" stroke="#990002" d="M755.12,-118.21C755.12,-96.79 755.12,-68 755.12,-46.95"/>
<polygon fill="#990002" stroke="#990002" points="758.62,-47.15 755.12,-37.15 751.62,-47.15 758.62,-47.15"/>
<text text-anchor="middle" x="776.12" y="-66.58" font-family="Times,serif" font-size="14.00" fill="#990002">Пока.</text>
</g>
</g>
</svg>
