<?xml version="1.0" encoding="UTF-8" standalone="no"?>
<!DOCTYPE svg PUBLIC "-//W3C//DTD SVG 1.1//EN"
 "http://www.w3.org/Graphics/SVG/1.1/DTD/svg11.dtd">
<!-- Generated by graphviz version 8.0.5 (0)
 -->
<!-- Title: ecpatsy Pages: 1 -->
<svg width="1120pt" height="189pt"
 viewBox="0.00 0.00 1120.00 188.89" xmlns="http://www.w3.org/2000/svg" xmlns:xlink="http://www.w3.org/1999/xlink">
<g id="graph0" class="graph" transform="scale(1 1) rotate(0) translate(4 184.89)">
<title>ecpatsy</title>
<polygon fill="white" stroke="none" points="-4,4 -4,-184.89 1116,-184.89 1116,4 -4,4"/>
<!-- start -->
<g id="node1" class="node">
<title>start</title>
<ellipse fill="#ffffff" stroke="#000000" cx="27" cy="-126.45" rx="27" ry="18"/>
</g>
<!-- critter_p_proc -->
<g id="node2" class="node">
<title>critter_p_proc</title>
<ellipse fill="#ffffff" stroke="#000000" cx="99" cy="-126.45" rx="27" ry="18"/>
</g>
<!-- pickup_p_proc -->
<g id="node3" class="node">
<title>pickup_p_proc</title>
<ellipse fill="#ffffff" stroke="#000000" cx="171" cy="-126.45" rx="27" ry="18"/>
</g>
<!-- talk_p_proc -->
<g id="node4" class="node">
<title>talk_p_proc</title>
<ellipse fill="#ffffff" stroke="#000000" cx="243" cy="-126.45" rx="27" ry="18"/>
</g>
<!-- Node001 -->
<g id="node5" class="node">
<title>Node001</title>
<ellipse fill="#ffffff" stroke="#000000" cx="279" cy="-18" rx="81.72" ry="18"/>
<text text-anchor="middle" x="279" y="-13.32" font-family="Times,serif" font-size="14.00">Щелк! Щелк!</text>
</g>
<!-- talk_p_proc&#45;&gt;Node001 -->
<g id="edge1" class="edge">
<title>talk_p_proc&#45;&gt;Node001</title>
<path fill="none" stroke="#555555" stroke-dasharray="1,5" d="M248.62,-108.81C254.26,-92.14 263.05,-66.17 269.72,-46.44"/>
<polygon fill="#555555" stroke="#555555" points="273.29,-47.82 273.18,-37.22 266.66,-45.57 273.29,-47.82"/>
</g>
<!-- destroy_p_proc -->
<g id="node6" class="node">
<title>destroy_p_proc</title>
<ellipse fill="#ffffff" stroke="#000000" cx="387" cy="-126.45" rx="27" ry="18"/>
</g>
<!-- look_at_p_proc -->
<g id="node7" class="node">
<title>look_at_p_proc</title>
<ellipse fill="#ffffff" stroke="#000000" cx="496" cy="-126.45" rx="63.83" ry="18"/>
<text text-anchor="middle" x="496" y="-121.77" font-family="Times,serif" font-size="14.00">Мужчина.</text>
</g>
<!-- description_p_proc -->
<g id="node8" class="node">
<title>description_p_proc</title>
<ellipse fill="#ffffff" stroke="#000000" cx="737" cy="-126.45" rx="158.75" ry="54.45"/>
<text text-anchor="middle" x="737" y="-147.65" font-family="Times,serif" font-size="14.00">Пэтси.</text>
<text text-anchor="middle" x="737" y="-130.4" font-family="Times,serif" font-size="14.00">&#45;&#45;&#45;</text>
<text text-anchor="middle" x="737" y="-113.15" font-family="Times,serif" font-size="14.00">Он бьет двумя половинками</text>
<text text-anchor="middle" x="737" y="-95.9" font-family="Times,serif" font-size="14.00">кокоса друг о друга.</text>
</g>
<!-- use_skill_on_p_proc -->
<g id="node9" class="node">
<title>use_skill_on_p_proc</title>
<ellipse fill="#ffffff" stroke="#000000" cx="941" cy="-126.45" rx="27" ry="18"/>
</g>
<!-- damage_p_proc -->
<g id="node10" class="node">
<title>damage_p_proc</title>
<ellipse fill="#ffffff" stroke="#000000" cx="1013" cy="-126.45" rx="27" ry="18"/>
</g>
<!-- map_enter_p_proc -->
<g id="node11" class="node">
<title>map_enter_p_proc</title>
<ellipse fill="#ffffff" stroke="#000000" cx="1085" cy="-126.45" rx="27" ry="18"/>
</g>
<!-- timed_event_p_proc -->
<g id="node12" class="node">
<title>timed_event_p_proc</title>
<ellipse fill="#ffffff" stroke="#000000" cx="315" cy="-126.45" rx="27" ry="18"/>
</g>
<!-- timed_event_p_proc&#45;&gt;Node001 -->
<g id="edge2" class="edge">
<title>timed_event_p_proc&#45;&gt;Node001</title>
<path fill="none" stroke="#555555" stroke-dasharray="1,5" d="M309.38,-108.81C303.74,-92.14 294.95,-66.17 288.28,-46.44"/>
<polygon fill="#555555" stroke="#555555" points="291.34,-45.57 284.82,-37.22 284.71,-47.82 291.34,-45.57"/>
</g>
</g>
</svg>
