<?xml version="1.0" encoding="UTF-8" standalone="no"?>
<!DOCTYPE svg PUBLIC "-//W3C//DTD SVG 1.1//EN"
 "http://www.w3.org/Graphics/SVG/1.1/DTD/svg11.dtd">
<!-- Generated by graphviz version 8.0.5 (0)
 -->
<!-- Title: ecscaven Pages: 1 -->
<svg width="997pt" height="116pt"
 viewBox="0.00 0.00 996.92 116.00" xmlns="http://www.w3.org/2000/svg" xmlns:xlink="http://www.w3.org/1999/xlink">
<g id="graph0" class="graph" transform="scale(1 1) rotate(0) translate(4 112)">
<title>ecscaven</title>
<polygon fill="white" stroke="none" points="-4,4 -4,-112 992.92,-112 992.92,4 -4,4"/>
<!-- start -->
<g id="node1" class="node">
<title>start</title>
<ellipse fill="#ffffff" stroke="#000000" cx="27" cy="-90" rx="27" ry="18"/>
</g>
<!-- critter_p_proc -->
<g id="node2" class="node">
<title>critter_p_proc</title>
<ellipse fill="#ffffff" stroke="#000000" cx="99" cy="-90" rx="27" ry="18"/>
</g>
<!-- pickup_p_proc -->
<g id="node3" class="node">
<title>pickup_p_proc</title>
<ellipse fill="#ffffff" stroke="#000000" cx="171" cy="-90" rx="27" ry="18"/>
</g>
<!-- talk_p_proc -->
<g id="node4" class="node">
<title>talk_p_proc</title>
<ellipse fill="#ffffff" stroke="#000000" cx="243" cy="-90" rx="27" ry="18"/>
</g>
<!-- destroy_p_proc -->
<g id="node5" class="node">
<title>destroy_p_proc</title>
<ellipse fill="#ffffff" stroke="#000000" cx="315" cy="-90" rx="27" ry="18"/>
</g>
<!-- look_at_p_proc -->
<g id="node6" class="node">
<title>look_at_p_proc</title>
<ellipse fill="#ffffff" stroke="#000000" cx="387" cy="-90" rx="27" ry="18"/>
</g>
<!-- description_p_proc -->
<g id="node7" class="node">
<title>description_p_proc</title>
<ellipse fill="#ffffff" stroke="#000000" cx="459" cy="-90" rx="27" ry="18"/>
</g>
<!-- use_skill_on_p_proc -->
<g id="node8" class="node">
<title>use_skill_on_p_proc</title>
<ellipse fill="#ffffff" stroke="#000000" cx="531" cy="-90" rx="27" ry="18"/>
</g>
<!-- damage_p_proc -->
<g id="node9" class="node">
<title>damage_p_proc</title>
<ellipse fill="#ffffff" stroke="#000000" cx="603" cy="-90" rx="27" ry="18"/>
</g>
<!-- map_enter_p_proc -->
<g id="node10" class="node">
<title>map_enter_p_proc</title>
<ellipse fill="#ffffff" stroke="#000000" cx="675" cy="-90" rx="27" ry="18"/>
</g>
<!-- combat_p_proc -->
<g id="node11" class="node">
<title>combat_p_proc</title>
<ellipse fill="#ffffff" stroke="#000000" cx="747" cy="-90" rx="27" ry="18"/>
</g>
<!-- NodeFleeing -->
<g id="node12" class="node">
<title>NodeFleeing</title>
<ellipse fill="#ffffff" stroke="#000000" cx="631" cy="-18" rx="88.04" ry="18"/>
<text text-anchor="middle" x="631" y="-13.32" font-family="Times,serif" font-size="14.00">Ты заплатишь!</text>
</g>
<!-- combat_p_proc&#45;&gt;NodeFleeing -->
<g id="edge1" class="edge">
<title>combat_p_proc&#45;&gt;NodeFleeing</title>
<path fill="none" stroke="#555555" stroke-dasharray="1,5" d="M727.32,-77.13C710.99,-67.27 687.32,-52.99 667.53,-41.05"/>
<polygon fill="#555555" stroke="#555555" points="669.55,-37.57 659.18,-35.4 665.93,-43.57 669.55,-37.57"/>
</g>
<!-- NodeFighting -->
<g id="node13" class="node">
<title>NodeFighting</title>
<ellipse fill="#ffffff" stroke="#000000" cx="863" cy="-18" rx="125.92" ry="18"/>
<text text-anchor="middle" x="863" y="-13.32" font-family="Times,serif" font-size="14.00">Это наша территория.</text>
</g>
<!-- combat_p_proc&#45;&gt;NodeFighting -->
<g id="edge2" class="edge">
<title>combat_p_proc&#45;&gt;NodeFighting</title>
<path fill="none" stroke="#555555" stroke-dasharray="1,5" d="M766.68,-77.13C782.79,-67.4 806.04,-53.38 825.66,-41.54"/>
<polygon fill="#555555" stroke="#555555" points="827.2,-44.09 833.95,-35.93 823.58,-38.1 827.2,-44.09"/>
</g>
</g>
</svg>
