<?xml version="1.0" encoding="UTF-8" standalone="no"?>
<!DOCTYPE svg PUBLIC "-//W3C//DTD SVG 1.1//EN"
 "http://www.w3.org/Graphics/SVG/1.1/DTD/svg11.dtd">
<!-- Generated by graphviz version 8.0.5 (0)
 -->
<!-- Title: ectandi Pages: 1 -->
<svg width="1210pt" height="359pt"
 viewBox="0.00 0.00 1210.00 359.37" xmlns="http://www.w3.org/2000/svg" xmlns:xlink="http://www.w3.org/1999/xlink">
<g id="graph0" class="graph" transform="scale(1 1) rotate(0) translate(4 355.37)">
<title>ectandi</title>
<polygon fill="white" stroke="none" points="-4,4 -4,-355.37 1206,-355.37 1206,4 -4,4"/>
<!-- start -->
<g id="node1" class="node">
<title>start</title>
<ellipse fill="#ffffff" stroke="#000000" cx="27" cy="-235.93" rx="27" ry="18"/>
</g>
<!-- critter_p_proc -->
<g id="node2" class="node">
<title>critter_p_proc</title>
<ellipse fill="#ffffff" stroke="#000000" cx="99" cy="-235.93" rx="27" ry="18"/>
</g>
<!-- pickup_p_proc -->
<g id="node3" class="node">
<title>pickup_p_proc</title>
<ellipse fill="#ffffff" stroke="#000000" cx="171" cy="-235.93" rx="27" ry="18"/>
</g>
<!-- talk_p_proc -->
<g id="node4" class="node">
<title>talk_p_proc</title>
<ellipse fill="#ffffff" stroke="#000000" cx="243" cy="-235.93" rx="27" ry="18"/>
</g>
<!-- Node001 -->
<g id="node5" class="node">
<title>Node001</title>
<ellipse fill="#ffffff" stroke="#000000" cx="279" cy="-42.25" rx="138.59" ry="42.25"/>
<text text-anchor="middle" x="279" y="-54.82" font-family="Times,serif" font-size="14.00">Привет! Это ты потомок</text>
<text text-anchor="middle" x="279" y="-37.57" font-family="Times,serif" font-size="14.00">героя из Fallout 1? Ух</text>
<text text-anchor="middle" x="279" y="-20.32" font-family="Times,serif" font-size="14.00">ты! А я Танди! Привет!</text>
</g>
<!-- talk_p_proc&#45;&gt;Node001 -->
<g id="edge1" class="edge">
<title>talk_p_proc&#45;&gt;Node001</title>
<path fill="none" stroke="#555555" stroke-dasharray="1,5" d="M246.26,-217.59C251.39,-190.26 261.56,-136.12 269.21,-95.38"/>
<polygon fill="#555555" stroke="#555555" points="272.79,-96.28 271.19,-85.81 265.91,-94.99 272.79,-96.28"/>
</g>
<!-- destroy_p_proc -->
<g id="node6" class="node">
<title>destroy_p_proc</title>
<ellipse fill="#ffffff" stroke="#000000" cx="387" cy="-235.93" rx="27" ry="18"/>
</g>
<!-- look_at_p_proc -->
<g id="node7" class="node">
<title>look_at_p_proc</title>
<ellipse fill="#ffffff" stroke="#000000" cx="551" cy="-235.93" rx="118.55" ry="18"/>
<text text-anchor="middle" x="551" y="-231.26" font-family="Times,serif" font-size="14.00">Перед вами... Танди.</text>
</g>
<!-- description_p_proc -->
<g id="node8" class="node">
<title>description_p_proc</title>
<ellipse fill="#ffffff" stroke="#000000" cx="837" cy="-235.93" rx="149.2" ry="115.44"/>
<text text-anchor="middle" x="837" y="-300.26" font-family="Times,serif" font-size="14.00">Вы видите красивую</text>
<text text-anchor="middle" x="837" y="-283.01" font-family="Times,serif" font-size="14.00">девушку с волосами цвета</text>
<text text-anchor="middle" x="837" y="-265.76" font-family="Times,serif" font-size="14.00">воронова крыла. Она</text>
<text text-anchor="middle" x="837" y="-248.51" font-family="Times,serif" font-size="14.00">мечтательно глядит в</text>
<text text-anchor="middle" x="837" y="-231.26" font-family="Times,serif" font-size="14.00">пространство.</text>
<text text-anchor="middle" x="837" y="-214.01" font-family="Times,serif" font-size="14.00">&#45;&#45;&#45;</text>
<text text-anchor="middle" x="837" y="-196.76" font-family="Times,serif" font-size="14.00">Вы видите Танди. Она</text>
<text text-anchor="middle" x="837" y="-179.51" font-family="Times,serif" font-size="14.00">мечтательно глядит в</text>
<text text-anchor="middle" x="837" y="-162.26" font-family="Times,serif" font-size="14.00">пространство.</text>
</g>
<!-- use_skill_on_p_proc -->
<g id="node9" class="node">
<title>use_skill_on_p_proc</title>
<ellipse fill="#ffffff" stroke="#000000" cx="1031" cy="-235.93" rx="27" ry="18"/>
</g>
<!-- damage_p_proc -->
<g id="node10" class="node">
<title>damage_p_proc</title>
<ellipse fill="#ffffff" stroke="#000000" cx="1103" cy="-235.93" rx="27" ry="18"/>
</g>
<!-- map_enter_p_proc -->
<g id="node11" class="node">
<title>map_enter_p_proc</title>
<ellipse fill="#ffffff" stroke="#000000" cx="1175" cy="-235.93" rx="27" ry="18"/>
</g>
<!-- timed_event_p_proc -->
<g id="node12" class="node">
<title>timed_event_p_proc</title>
<ellipse fill="#ffffff" stroke="#000000" cx="315" cy="-235.93" rx="27" ry="18"/>
</g>
<!-- timed_event_p_proc&#45;&gt;Node001 -->
<g id="edge2" class="edge">
<title>timed_event_p_proc&#45;&gt;Node001</title>
<path fill="none" stroke="#555555" stroke-dasharray="1,5" d="M311.74,-217.59C306.61,-190.26 296.44,-136.12 288.79,-95.38"/>
<polygon fill="#555555" stroke="#555555" points="292.09,-94.99 286.81,-85.81 285.21,-96.28 292.09,-94.99"/>
</g>
</g>
</svg>
