<?xml version="1.0" encoding="UTF-8" standalone="no"?>
<!DOCTYPE svg PUBLIC "-//W3C//DTD SVG 1.1//EN"
 "http://www.w3.org/Graphics/SVG/1.1/DTD/svg11.dtd">
<!-- Generated by graphviz version 8.0.5 (0)
 -->
<!-- Title: ecwash Pages: 1 -->
<svg width="1049pt" height="872pt"
 viewBox="0.00 0.00 1049.00 871.96" xmlns="http://www.w3.org/2000/svg" xmlns:xlink="http://www.w3.org/1999/xlink">
<g id="graph0" class="graph" transform="scale(1 1) rotate(0) translate(4 867.96)">
<title>ecwash</title>
<polygon fill="white" stroke="none" points="-4,4 -4,-867.96 1045,-867.96 1045,4 -4,4"/>
<!-- pickup_p_proc -->
<g id="node1" class="node">
<title>pickup_p_proc</title>
<ellipse fill="#ffffff" stroke="#000000" cx="27" cy="-845.96" rx="27" ry="18"/>
</g>
<!-- start -->
<g id="node2" class="node">
<title>start</title>
<ellipse fill="#ffffff" stroke="#000000" cx="99" cy="-845.96" rx="27" ry="18"/>
</g>
<!-- critter_p_proc -->
<g id="node3" class="node">
<title>critter_p_proc</title>
<ellipse fill="#ffffff" stroke="#000000" cx="171" cy="-845.96" rx="27" ry="18"/>
</g>
<!-- Node001 -->
<g id="node4" class="node">
<title>Node001</title>
<ellipse fill="#ffffff" stroke="#000000" cx="207" cy="-395.98" rx="27" ry="18"/>
</g>
<!-- critter_p_proc&#45;&gt;Node001 -->
<g id="edge1" class="edge">
<title>critter_p_proc&#45;&gt;Node001</title>
<path fill="none" stroke="#555555" stroke-dasharray="1,5" d="M172.39,-827.67C177.87,-759.49 198.01,-508.81 204.77,-424.7"/>
<polygon fill="#555555" stroke="#555555" points="208.32,-425.22 205.63,-414.98 201.34,-424.66 208.32,-425.22"/>
</g>
<!-- talk_p_proc -->
<g id="node5" class="node">
<title>talk_p_proc</title>
<ellipse fill="#ffffff" stroke="#000000" cx="243" cy="-845.96" rx="27" ry="18"/>
</g>
<!-- talk_p_proc&#45;&gt;Node001 -->
<g id="edge2" class="edge">
<title>talk_p_proc&#45;&gt;Node001</title>
<path fill="none" stroke="#555555" stroke-dasharray="1,5" d="M241.61,-827.67C236.13,-759.49 215.99,-508.81 209.23,-424.7"/>
<polygon fill="#555555" stroke="#555555" points="212.66,-424.66 208.37,-414.98 205.68,-425.22 212.66,-424.66"/>
</g>
<!-- destroy_p_proc -->
<g id="node6" class="node">
<title>destroy_p_proc</title>
<ellipse fill="#ffffff" stroke="#000000" cx="315" cy="-845.96" rx="27" ry="18"/>
</g>
<!-- look_at_p_proc -->
<g id="node7" class="node">
<title>look_at_p_proc</title>
<ellipse fill="#ffffff" stroke="#000000" cx="387" cy="-845.96" rx="27" ry="18"/>
</g>
<!-- description_p_proc -->
<g id="node8" class="node">
<title>description_p_proc</title>
<ellipse fill="#ffffff" stroke="#000000" cx="459" cy="-845.96" rx="27" ry="18"/>
</g>
<!-- use_skill_on_p_proc -->
<g id="node9" class="node">
<title>use_skill_on_p_proc</title>
<ellipse fill="#ffffff" stroke="#000000" cx="531" cy="-845.96" rx="27" ry="18"/>
</g>
<!-- damage_p_proc -->
<g id="node10" class="node">
<title>damage_p_proc</title>
<ellipse fill="#ffffff" stroke="#000000" cx="603" cy="-845.96" rx="27" ry="18"/>
</g>
<!-- map_enter_p_proc -->
<g id="node11" class="node">
<title>map_enter_p_proc</title>
<ellipse fill="#ffffff" stroke="#000000" cx="675" cy="-845.96" rx="27" ry="18"/>
</g>
<!-- combat_p_proc -->
<g id="node12" class="node">
<title>combat_p_proc</title>
<ellipse fill="#ffffff" stroke="#000000" cx="747" cy="-845.96" rx="27" ry="18"/>
</g>
<!-- Node002 -->
<g id="node13" class="node">
<title>Node002</title>
<ellipse fill="#ffffff" stroke="#000000" cx="747" cy="-395.98" rx="150.26" ry="395.98"/>
<text text-anchor="middle" x="747" y="-658.68" font-family="Times,serif" font-size="14.00">Это тебе за то, что мне</text>
<text text-anchor="middle" x="747" y="-641.43" font-family="Times,serif" font-size="14.00">угрожал!</text>
<text text-anchor="middle" x="747" y="-624.18" font-family="Times,serif" font-size="14.00">&#45;&#45;&#45;</text>
<text text-anchor="middle" x="747" y="-606.93" font-family="Times,serif" font-size="14.00">Никто не смеет угрожать</text>
<text text-anchor="middle" x="747" y="-589.68" font-family="Times,serif" font-size="14.00">Думбот!</text>
<text text-anchor="middle" x="747" y="-572.43" font-family="Times,serif" font-size="14.00">&#45;&#45;&#45;</text>
<text text-anchor="middle" x="747" y="-555.18" font-family="Times,serif" font-size="14.00">Только гуанабана может</text>
<text text-anchor="middle" x="747" y="-537.93" font-family="Times,serif" font-size="14.00">сравниться со вкусом этой</text>
<text text-anchor="middle" x="747" y="-520.68" font-family="Times,serif" font-size="14.00">победы...</text>
<text text-anchor="middle" x="747" y="-503.43" font-family="Times,serif" font-size="14.00">&#45;&#45;&#45;</text>
<text text-anchor="middle" x="747" y="-486.18" font-family="Times,serif" font-size="14.00">Деревня очень радостное</text>
<text text-anchor="middle" x="747" y="-468.93" font-family="Times,serif" font-size="14.00">место, но из&#45;за вас мы</text>
<text text-anchor="middle" x="747" y="-451.68" font-family="Times,serif" font-size="14.00">все очень, очень</text>
<text text-anchor="middle" x="747" y="-434.43" font-family="Times,serif" font-size="14.00">рассердились.</text>
<text text-anchor="middle" x="747" y="-417.18" font-family="Times,serif" font-size="14.00">&#45;&#45;&#45;</text>
<text text-anchor="middle" x="747" y="-399.93" font-family="Times,serif" font-size="14.00">Своими действиями вы</text>
<text text-anchor="middle" x="747" y="-382.68" font-family="Times,serif" font-size="14.00">надолго выбили нашу</text>
<text text-anchor="middle" x="747" y="-365.43" font-family="Times,serif" font-size="14.00">страну из колеи!</text>
<text text-anchor="middle" x="747" y="-348.18" font-family="Times,serif" font-size="14.00">&#45;&#45;&#45;</text>
<text text-anchor="middle" x="747" y="-330.93" font-family="Times,serif" font-size="14.00">Я тебя навеки упокою!</text>
<text text-anchor="middle" x="747" y="-313.68" font-family="Times,serif" font-size="14.00">&#45;&#45;&#45;</text>
<text text-anchor="middle" x="747" y="-296.43" font-family="Times,serif" font-size="14.00">Мы все едем в ад, а я за</text>
<text text-anchor="middle" x="747" y="-279.18" font-family="Times,serif" font-size="14.00">рулем.</text>
<text text-anchor="middle" x="747" y="-261.93" font-family="Times,serif" font-size="14.00">&#45;&#45;&#45;</text>
<text text-anchor="middle" x="747" y="-244.68" font-family="Times,serif" font-size="14.00">Получи!</text>
<text text-anchor="middle" x="747" y="-227.43" font-family="Times,serif" font-size="14.00">&#45;&#45;&#45;</text>
<text text-anchor="middle" x="747" y="-210.18" font-family="Times,serif" font-size="14.00">Данте не описывал тот ад,</text>
<text text-anchor="middle" x="747" y="-192.93" font-family="Times,serif" font-size="14.00">куда пошлю тебя я...</text>
<text text-anchor="middle" x="747" y="-175.68" font-family="Times,serif" font-size="14.00">&#45;&#45;&#45;</text>
<text text-anchor="middle" x="747" y="-158.43" font-family="Times,serif" font-size="14.00">Пистолеты! Пистолеты!</text>
<text text-anchor="middle" x="747" y="-141.18" font-family="Times,serif" font-size="14.00">Пистолеты! Где мои</text>
<text text-anchor="middle" x="747" y="-123.93" font-family="Times,serif" font-size="14.00">пистолеты!</text>
</g>
<!-- combat_p_proc&#45;&gt;Node002 -->
<g id="edge3" class="edge">
<title>combat_p_proc&#45;&gt;Node002</title>
<path fill="none" stroke="#555555" stroke-dasharray="1,5" d="M747,-827.67C747,-821.12 747,-812.88 747,-803.26"/>
<polygon fill="#555555" stroke="#555555" points="750.5,-803.3 747,-793.3 743.5,-803.3 750.5,-803.3"/>
</g>
<!-- timed_event_p_proc -->
<g id="node14" class="node">
<title>timed_event_p_proc</title>
<ellipse fill="#ffffff" stroke="#000000" cx="978" cy="-845.96" rx="27" ry="18"/>
</g>
<!-- doExplosion -->
<g id="node15" class="node">
<title>doExplosion</title>
<ellipse fill="#ffffff" stroke="#000000" cx="942" cy="-395.98" rx="27" ry="18"/>
</g>
<!-- timed_event_p_proc&#45;&gt;doExplosion -->
<g id="edge4" class="edge">
<title>timed_event_p_proc&#45;&gt;doExplosion</title>
<path fill="none" stroke="#555555" stroke-dasharray="1,5" d="M976.61,-827.67C971.13,-759.49 950.99,-508.81 944.23,-424.7"/>
<polygon fill="#555555" stroke="#555555" points="947.66,-424.66 943.37,-414.98 940.68,-425.22 947.66,-424.66"/>
</g>
<!-- doDie -->
<g id="node16" class="node">
<title>doDie</title>
<ellipse fill="#ffffff" stroke="#000000" cx="1014" cy="-395.98" rx="27" ry="18"/>
</g>
<!-- timed_event_p_proc&#45;&gt;doDie -->
<g id="edge5" class="edge">
<title>timed_event_p_proc&#45;&gt;doDie</title>
<path fill="none" stroke="#555555" stroke-dasharray="1,5" d="M979.39,-827.67C984.87,-759.49 1005.01,-508.81 1011.77,-424.7"/>
<polygon fill="#555555" stroke="#555555" points="1015.32,-425.22 1012.63,-414.98 1008.34,-424.66 1015.32,-425.22"/>
</g>
</g>
</svg>
