<?xml version="1.0" encoding="UTF-8" standalone="no"?>
<!DOCTYPE svg PUBLIC "-//W3C//DTD SVG 1.1//EN"
 "http://www.w3.org/Graphics/SVG/1.1/DTD/svg11.dtd">
<!-- Generated by graphviz version 8.0.5 (0)
 -->
<!-- Title: ecwheon1 Pages: 1 -->
<svg width="1284pt" height="384pt"
 viewBox="0.00 0.00 1284.00 383.76" xmlns="http://www.w3.org/2000/svg" xmlns:xlink="http://www.w3.org/1999/xlink">
<g id="graph0" class="graph" transform="scale(1 1) rotate(0) translate(4 379.76)">
<title>ecwheon1</title>
<polygon fill="white" stroke="none" points="-4,4 -4,-379.76 1280,-379.76 1280,4 -4,4"/>
<!-- start -->
<g id="node1" class="node">
<title>start</title>
<ellipse fill="#ffffff" stroke="#000000" cx="27" cy="-248.13" rx="27" ry="18"/>
</g>
<!-- critter_p_proc -->
<g id="node2" class="node">
<title>critter_p_proc</title>
<ellipse fill="#ffffff" stroke="#000000" cx="99" cy="-248.13" rx="27" ry="18"/>
</g>
<!-- pickup_p_proc -->
<g id="node3" class="node">
<title>pickup_p_proc</title>
<ellipse fill="#ffffff" stroke="#000000" cx="171" cy="-248.13" rx="27" ry="18"/>
</g>
<!-- talk_p_proc -->
<g id="node4" class="node">
<title>talk_p_proc</title>
<ellipse fill="#ffffff" stroke="#000000" cx="243" cy="-248.13" rx="27" ry="18"/>
</g>
<!-- Node001 -->
<g id="node5" class="node">
<title>Node001</title>
<ellipse fill="#ffffff" stroke="#000000" cx="279" cy="-42.25" rx="113.67" ry="42.25"/>
<text text-anchor="middle" x="279" y="-54.82" font-family="Times,serif" font-size="14.00">Мне кажется, мной</text>
<text text-anchor="middle" x="279" y="-37.57" font-family="Times,serif" font-size="14.00">управлял какой&#45;то</text>
<text text-anchor="middle" x="279" y="-20.32" font-family="Times,serif" font-size="14.00">вороватый тип.</text>
</g>
<!-- talk_p_proc&#45;&gt;Node001 -->
<g id="edge1" class="edge">
<title>talk_p_proc&#45;&gt;Node001</title>
<path fill="none" stroke="#555555" stroke-dasharray="1,5" d="M246.07,-229.75C251.27,-200.3 262,-139.51 269.81,-95.31"/>
<polygon fill="#555555" stroke="#555555" points="273.38,-96.2 271.67,-85.74 266.49,-94.98 273.38,-96.2"/>
</g>
<!-- destroy_p_proc -->
<g id="node6" class="node">
<title>destroy_p_proc</title>
<ellipse fill="#ffffff" stroke="#000000" cx="387" cy="-248.13" rx="27" ry="18"/>
</g>
<!-- look_at_p_proc -->
<g id="node7" class="node">
<title>look_at_p_proc</title>
<ellipse fill="#ffffff" stroke="#000000" cx="581" cy="-248.13" rx="148.67" ry="30.05"/>
<text text-anchor="middle" x="581" y="-252.08" font-family="Times,serif" font-size="14.00">Вы видите... модель белой</text>
<text text-anchor="middle" x="581" y="-234.83" font-family="Times,serif" font-size="14.00">героини.</text>
</g>
<!-- description_p_proc -->
<g id="node8" class="node">
<title>description_p_proc</title>
<ellipse fill="#ffffff" stroke="#000000" cx="904" cy="-248.13" rx="156.09" ry="127.63"/>
<text text-anchor="middle" x="904" y="-321.08" font-family="Times,serif" font-size="14.00">Вы видите красивую</text>
<text text-anchor="middle" x="904" y="-303.83" font-family="Times,serif" font-size="14.00">девушку с волосами цвета</text>
<text text-anchor="middle" x="904" y="-286.58" font-family="Times,serif" font-size="14.00">воронова крыла в форме</text>
<text text-anchor="middle" x="904" y="-269.33" font-family="Times,serif" font-size="14.00">Убежища 13. Она шутит и</text>
<text text-anchor="middle" x="904" y="-252.08" font-family="Times,serif" font-size="14.00">смеется с обступившими ее</text>
<text text-anchor="middle" x="904" y="-234.83" font-family="Times,serif" font-size="14.00">людьми.</text>
<text text-anchor="middle" x="904" y="-217.58" font-family="Times,serif" font-size="14.00">&#45;&#45;&#45;</text>
<text text-anchor="middle" x="904" y="-200.33" font-family="Times,serif" font-size="14.00">Вы видите модель белой</text>
<text text-anchor="middle" x="904" y="-183.08" font-family="Times,serif" font-size="14.00">героини. Она шутит и</text>
<text text-anchor="middle" x="904" y="-165.83" font-family="Times,serif" font-size="14.00">смеется.</text>
</g>
<!-- use_skill_on_p_proc -->
<g id="node9" class="node">
<title>use_skill_on_p_proc</title>
<ellipse fill="#ffffff" stroke="#000000" cx="1105" cy="-248.13" rx="27" ry="18"/>
</g>
<!-- damage_p_proc -->
<g id="node10" class="node">
<title>damage_p_proc</title>
<ellipse fill="#ffffff" stroke="#000000" cx="1177" cy="-248.13" rx="27" ry="18"/>
</g>
<!-- map_enter_p_proc -->
<g id="node11" class="node">
<title>map_enter_p_proc</title>
<ellipse fill="#ffffff" stroke="#000000" cx="1249" cy="-248.13" rx="27" ry="18"/>
</g>
<!-- timed_event_p_proc -->
<g id="node12" class="node">
<title>timed_event_p_proc</title>
<ellipse fill="#ffffff" stroke="#000000" cx="315" cy="-248.13" rx="27" ry="18"/>
</g>
<!-- timed_event_p_proc&#45;&gt;Node001 -->
<g id="edge2" class="edge">
<title>timed_event_p_proc&#45;&gt;Node001</title>
<path fill="none" stroke="#555555" stroke-dasharray="1,5" d="M311.93,-229.75C306.73,-200.3 296,-139.51 288.19,-95.31"/>
<polygon fill="#555555" stroke="#555555" points="291.51,-94.98 286.33,-85.74 284.62,-96.2 291.51,-94.98"/>
</g>
</g>
</svg>
