<?xml version="1.0" encoding="UTF-8" standalone="no"?>
<!DOCTYPE svg PUBLIC "-//W3C//DTD SVG 1.1//EN"
 "http://www.w3.org/Graphics/SVG/1.1/DTD/svg11.dtd">
<!-- Generated by graphviz version 8.0.5 (0)
 -->
<!-- Title: ecwilder Pages: 1 -->
<svg width="904pt" height="116pt"
 viewBox="0.00 0.00 904.41 116.00" xmlns="http://www.w3.org/2000/svg" xmlns:xlink="http://www.w3.org/1999/xlink">
<g id="graph0" class="graph" transform="scale(1 1) rotate(0) translate(4 112)">
<title>ecwilder</title>
<polygon fill="white" stroke="none" points="-4,4 -4,-112 900.41,-112 900.41,4 -4,4"/>
<!-- start -->
<g id="node1" class="node">
<title>start</title>
<ellipse fill="#ffffff" stroke="#000000" cx="27" cy="-90" rx="27" ry="18"/>
</g>
<!-- critter_p_proc -->
<g id="node2" class="node">
<title>critter_p_proc</title>
<ellipse fill="#ffffff" stroke="#000000" cx="99" cy="-90" rx="27" ry="18"/>
</g>
<!-- pickup_p_proc -->
<g id="node3" class="node">
<title>pickup_p_proc</title>
<ellipse fill="#ffffff" stroke="#000000" cx="171" cy="-90" rx="27" ry="18"/>
</g>
<!-- talk_p_proc -->
<g id="node4" class="node">
<title>talk_p_proc</title>
<ellipse fill="#ffffff" stroke="#000000" cx="243" cy="-90" rx="27" ry="18"/>
</g>
<!-- destroy_p_proc -->
<g id="node5" class="node">
<title>destroy_p_proc</title>
<ellipse fill="#ffffff" stroke="#000000" cx="315" cy="-90" rx="27" ry="18"/>
</g>
<!-- look_at_p_proc -->
<g id="node6" class="node">
<title>look_at_p_proc</title>
<ellipse fill="#ffffff" stroke="#000000" cx="387" cy="-90" rx="27" ry="18"/>
</g>
<!-- description_p_proc -->
<g id="node7" class="node">
<title>description_p_proc</title>
<ellipse fill="#ffffff" stroke="#000000" cx="459" cy="-90" rx="27" ry="18"/>
</g>
<!-- use_skill_on_p_proc -->
<g id="node8" class="node">
<title>use_skill_on_p_proc</title>
<ellipse fill="#ffffff" stroke="#000000" cx="531" cy="-90" rx="27" ry="18"/>
</g>
<!-- damage_p_proc -->
<g id="node9" class="node">
<title>damage_p_proc</title>
<ellipse fill="#ffffff" stroke="#000000" cx="603" cy="-90" rx="27" ry="18"/>
</g>
<!-- map_enter_p_proc -->
<g id="node10" class="node">
<title>map_enter_p_proc</title>
<ellipse fill="#ffffff" stroke="#000000" cx="675" cy="-90" rx="27" ry="18"/>
</g>
<!-- combat_p_proc -->
<g id="node11" class="node">
<title>combat_p_proc</title>
<ellipse fill="#ffffff" stroke="#000000" cx="747" cy="-90" rx="27" ry="18"/>
</g>
<!-- NodeFleeing -->
<g id="node12" class="node">
<title>NodeFleeing</title>
<ellipse fill="#ffffff" stroke="#000000" cx="673" cy="-18" rx="54.36" ry="18"/>
<text text-anchor="middle" x="673" y="-13.32" font-family="Times,serif" font-size="14.00">Эээээээ!</text>
</g>
<!-- combat_p_proc&#45;&gt;NodeFleeing -->
<g id="edge1" class="edge">
<title>combat_p_proc&#45;&gt;NodeFleeing</title>
<path fill="none" stroke="#555555" stroke-dasharray="1,5" d="M732.02,-74.83C722.31,-65.64 709.4,-53.43 698.13,-42.77"/>
<polygon fill="#555555" stroke="#555555" points="700.96,-40.68 691.29,-36.35 696.15,-45.77 700.96,-40.68"/>
</g>
<!-- NodeFighting -->
<g id="node13" class="node">
<title>NodeFighting</title>
<ellipse fill="#ffffff" stroke="#000000" cx="821" cy="-18" rx="75.41" ry="18"/>
<text text-anchor="middle" x="821" y="-13.32" font-family="Times,serif" font-size="14.00">Айееееееее!</text>
</g>
<!-- combat_p_proc&#45;&gt;NodeFighting -->
<g id="edge2" class="edge">
<title>combat_p_proc&#45;&gt;NodeFighting</title>
<path fill="none" stroke="#555555" stroke-dasharray="1,5" d="M761.98,-74.83C771.56,-65.77 784.24,-53.77 795.39,-43.22"/>
<polygon fill="#555555" stroke="#555555" points="797.32,-46.27 802.18,-36.86 792.51,-41.19 797.32,-46.27"/>
</g>
</g>
</svg>
