<?xml version="1.0" encoding="UTF-8" standalone="no"?>
<!DOCTYPE svg PUBLIC "-//W3C//DTD SVG 1.1//EN"
 "http://www.w3.org/Graphics/SVG/1.1/DTD/svg11.dtd">
<!-- Generated by graphviz version 8.0.5 (0)
 -->
<!-- Title: ecyakuza Pages: 1 -->
<svg width="1027pt" height="140pt"
 viewBox="0.00 0.00 1027.15 140.10" xmlns="http://www.w3.org/2000/svg" xmlns:xlink="http://www.w3.org/1999/xlink">
<g id="graph0" class="graph" transform="scale(1 1) rotate(0) translate(4 136.1)">
<title>ecyakuza</title>
<polygon fill="white" stroke="none" points="-4,4 -4,-136.1 1023.15,-136.1 1023.15,4 -4,4"/>
<!-- start -->
<g id="node1" class="node">
<title>start</title>
<ellipse fill="#ffffff" stroke="#000000" cx="27" cy="-114.1" rx="27" ry="18"/>
</g>
<!-- critter_p_proc -->
<g id="node2" class="node">
<title>critter_p_proc</title>
<ellipse fill="#ffffff" stroke="#000000" cx="99" cy="-114.1" rx="27" ry="18"/>
</g>
<!-- pickup_p_proc -->
<g id="node3" class="node">
<title>pickup_p_proc</title>
<ellipse fill="#ffffff" stroke="#000000" cx="171" cy="-114.1" rx="27" ry="18"/>
</g>
<!-- talk_p_proc -->
<g id="node4" class="node">
<title>talk_p_proc</title>
<ellipse fill="#ffffff" stroke="#000000" cx="243" cy="-114.1" rx="27" ry="18"/>
</g>
<!-- destroy_p_proc -->
<g id="node5" class="node">
<title>destroy_p_proc</title>
<ellipse fill="#ffffff" stroke="#000000" cx="315" cy="-114.1" rx="27" ry="18"/>
</g>
<!-- look_at_p_proc -->
<g id="node6" class="node">
<title>look_at_p_proc</title>
<ellipse fill="#ffffff" stroke="#000000" cx="387" cy="-114.1" rx="27" ry="18"/>
</g>
<!-- description_p_proc -->
<g id="node7" class="node">
<title>description_p_proc</title>
<ellipse fill="#ffffff" stroke="#000000" cx="459" cy="-114.1" rx="27" ry="18"/>
</g>
<!-- use_skill_on_p_proc -->
<g id="node8" class="node">
<title>use_skill_on_p_proc</title>
<ellipse fill="#ffffff" stroke="#000000" cx="531" cy="-114.1" rx="27" ry="18"/>
</g>
<!-- damage_p_proc -->
<g id="node9" class="node">
<title>damage_p_proc</title>
<ellipse fill="#ffffff" stroke="#000000" cx="603" cy="-114.1" rx="27" ry="18"/>
</g>
<!-- map_enter_p_proc -->
<g id="node10" class="node">
<title>map_enter_p_proc</title>
<ellipse fill="#ffffff" stroke="#000000" cx="675" cy="-114.1" rx="27" ry="18"/>
</g>
<!-- combat_p_proc -->
<g id="node11" class="node">
<title>combat_p_proc</title>
<ellipse fill="#ffffff" stroke="#000000" cx="747" cy="-114.1" rx="27" ry="18"/>
</g>
<!-- NodeFleeing -->
<g id="node12" class="node">
<title>NodeFleeing</title>
<ellipse fill="#ffffff" stroke="#000000" cx="597" cy="-30.05" rx="160.11" ry="18"/>
<text text-anchor="middle" x="597" y="-25.38" font-family="Times,serif" font-size="14.00">Пришло мое время умирать.</text>
</g>
<!-- combat_p_proc&#45;&gt;NodeFleeing -->
<g id="edge1" class="edge">
<title>combat_p_proc&#45;&gt;NodeFleeing</title>
<path fill="none" stroke="#555555" stroke-dasharray="1,5" d="M726.46,-101.87C703.68,-89.41 666.36,-68.99 637.62,-53.27"/>
<polygon fill="#555555" stroke="#555555" points="639.7,-49.87 629.24,-48.14 636.34,-56.01 639.7,-49.87"/>
</g>
<!-- NodeFighting -->
<g id="node13" class="node">
<title>NodeFighting</title>
<ellipse fill="#ffffff" stroke="#000000" cx="897" cy="-30.05" rx="122.15" ry="30.05"/>
<text text-anchor="middle" x="897" y="-34" font-family="Times,serif" font-size="14.00">Убийство &#45; это форма</text>
<text text-anchor="middle" x="897" y="-16.75" font-family="Times,serif" font-size="14.00">искусства.</text>
</g>
<!-- combat_p_proc&#45;&gt;NodeFighting -->
<g id="edge2" class="edge">
<title>combat_p_proc&#45;&gt;NodeFighting</title>
<path fill="none" stroke="#555555" stroke-dasharray="1,5" d="M767.54,-101.87C785.83,-91.87 813.48,-76.74 838.54,-63.03"/>
<polygon fill="#555555" stroke="#555555" points="839.9,-65.73 847,-57.86 836.54,-59.59 839.9,-65.73"/>
</g>
</g>
</svg>
