<?xml version="1.0" encoding="UTF-8" standalone="no"?>
<!DOCTYPE svg PUBLIC "-//W3C//DTD SVG 1.1//EN"
 "http://www.w3.org/Graphics/SVG/1.1/DTD/svg11.dtd">
<!-- Generated by graphviz version 8.0.5 (0)
 -->
<!-- Title: epai23 Pages: 1 -->
<svg width="872pt" height="352pt"
 viewBox="0.00 0.00 872.18 351.85" xmlns="http://www.w3.org/2000/svg" xmlns:xlink="http://www.w3.org/1999/xlink">
<g id="graph0" class="graph" transform="scale(1 1) rotate(0) translate(4 347.85)">
<title>epai23</title>
<polygon fill="white" stroke="none" points="-4,4 -4,-347.85 868.18,-347.85 868.18,4 -4,4"/>
<!-- start -->
<g id="node1" class="node">
<title>start</title>
<ellipse fill="#ffffff" stroke="#000000" cx="27" cy="-313.8" rx="27" ry="18"/>
</g>
<!-- use_skill_on_p_proc -->
<g id="node2" class="node">
<title>use_skill_on_p_proc</title>
<ellipse fill="#ffffff" stroke="#000000" cx="99" cy="-313.8" rx="27" ry="18"/>
</g>
<!-- use_p_proc -->
<g id="node3" class="node">
<title>use_p_proc</title>
<ellipse fill="#ffffff" stroke="#000000" cx="171" cy="-313.8" rx="27" ry="18"/>
</g>
<!-- talk_p_proc -->
<g id="node4" class="node">
<title>talk_p_proc</title>
<ellipse fill="#ffffff" stroke="#000000" cx="171" cy="-228.75" rx="27" ry="18"/>
</g>
<!-- use_p_proc&#45;&gt;talk_p_proc -->
<g id="edge1" class="edge">
<title>use_p_proc&#45;&gt;talk_p_proc</title>
<path fill="none" stroke="#555555" stroke-dasharray="1,5" d="M171,-295.59C171,-284.75 171,-270.5 171,-258.03"/>
<polygon fill="#555555" stroke="#555555" points="174.5,-258.22 171,-248.22 167.5,-258.22 174.5,-258.22"/>
</g>
<!-- Node001 -->
<g id="node5" class="node">
<title>Node001</title>
<ellipse fill="#ffffff" stroke="#000000" cx="171" cy="-131.5" rx="141.24" ry="42.25"/>
<text text-anchor="middle" x="171" y="-144.07" font-family="Times,serif" font-size="14.00">Терминал управления</text>
<text text-anchor="middle" x="171" y="-126.82" font-family="Times,serif" font-size="14.00">силовым полем. Введите</text>
<text text-anchor="middle" x="171" y="-109.57" font-family="Times,serif" font-size="14.00">команду:</text>
</g>
<!-- talk_p_proc&#45;&gt;Node001 -->
<g id="edge2" class="edge">
<title>talk_p_proc&#45;&gt;Node001</title>
<path fill="none" stroke="#555555" stroke-dasharray="1,5" d="M171,-210.28C171,-202.94 171,-193.99 171,-184.8"/>
<polygon fill="#555555" stroke="#555555" points="174.5,-184.99 171,-174.99 167.5,-184.99 174.5,-184.99"/>
</g>
<!-- Node999 -->
<g id="node9" class="node">
<title>Node999</title>
<ellipse fill="#ffffff" stroke="#000000" cx="171" cy="-18" rx="27" ry="18"/>
</g>
<!-- Node001&#45;&gt;Node999 -->
<g id="edge3" class="edge">
<title>Node001&#45;&gt;Node999</title>
<path fill="none" stroke="#007799" d="M83.79,-97.95C65.21,-86 54.43,-71.13 66.75,-54 81.76,-33.13 109.83,-24.53 133.06,-21.07"/>
<polygon fill="#007799" stroke="#007799" points="133.16,-24.46 142.67,-19.78 132.32,-17.51 133.16,-24.46"/>
<text text-anchor="middle" x="160.12" y="-57.95" font-family="Times,serif" font-size="14.00" fill="#007799">Отключить силовое поле.</text>
</g>
<!-- Node001&#45;&gt;Node999 -->
<g id="edge4" class="edge">
<title>Node001&#45;&gt;Node999</title>
<path fill="none" stroke="#998e00" d="M243.11,-94.74C257.22,-82.92 264.96,-68.93 255,-54 244.48,-38.22 225.34,-29.54 207.99,-24.77"/>
<polygon fill="#998e00" stroke="#998e00" points="209.05,-21.19 198.52,-22.28 207.44,-28 209.05,-21.19"/>
<text text-anchor="middle" x="284.88" y="-57.95" font-family="Times,serif" font-size="14.00" fill="#998e00">Выйти.</text>
</g>
<!-- destroy_p_proc -->
<g id="node6" class="node">
<title>destroy_p_proc</title>
<ellipse fill="#ffffff" stroke="#000000" cx="243" cy="-313.8" rx="27" ry="18"/>
</g>
<!-- description_p_proc -->
<g id="node7" class="node">
<title>description_p_proc</title>
<ellipse fill="#ffffff" stroke="#000000" cx="446" cy="-313.8" rx="157.68" ry="30.05"/>
<text text-anchor="middle" x="446" y="-317.75" font-family="Times,serif" font-size="14.00">Вы видите блок управления</text>
<text text-anchor="middle" x="446" y="-300.5" font-family="Times,serif" font-size="14.00">силовым полем.</text>
</g>
<!-- look_at_p_proc -->
<g id="node8" class="node">
<title>look_at_p_proc</title>
<ellipse fill="#ffffff" stroke="#000000" cx="743" cy="-313.8" rx="121.18" ry="18"/>
<text text-anchor="middle" x="743" y="-309.13" font-family="Times,serif" font-size="14.00">Вы видите терминал.</text>
</g>
</g>
</svg>
