<?xml version="1.0" encoding="UTF-8" standalone="no"?>
<!DOCTYPE svg PUBLIC "-//W3C//DTD SVG 1.1//EN"
 "http://www.w3.org/Graphics/SVG/1.1/DTD/svg11.dtd">
<!-- Generated by graphviz version 8.0.5 (0)
 -->
<!-- Title: fcbadpea Pages: 1 -->
<svg width="1972pt" height="358pt"
 viewBox="0.00 0.00 1971.65 358.18" xmlns="http://www.w3.org/2000/svg" xmlns:xlink="http://www.w3.org/1999/xlink">
<g id="graph0" class="graph" transform="scale(1 1) rotate(0) translate(4 354.18)">
<title>fcbadpea</title>
<polygon fill="white" stroke="none" points="-4,4 -4,-354.18 1967.65,-354.18 1967.65,4 -4,4"/>
<!-- start -->
<g id="node1" class="node">
<title>start</title>
<ellipse fill="#ffffff" stroke="#000000" cx="758.65" cy="-271.34" rx="27" ry="18"/>
</g>
<!-- critter_p_proc -->
<g id="node2" class="node">
<title>critter_p_proc</title>
<ellipse fill="#ffffff" stroke="#000000" cx="830.65" cy="-271.34" rx="27" ry="18"/>
</g>
<!-- pickup_p_proc -->
<g id="node3" class="node">
<title>pickup_p_proc</title>
<ellipse fill="#ffffff" stroke="#000000" cx="902.65" cy="-271.34" rx="27" ry="18"/>
</g>
<!-- talk_p_proc -->
<g id="node4" class="node">
<title>talk_p_proc</title>
<ellipse fill="#ffffff" stroke="#000000" cx="974.65" cy="-138.5" rx="27" ry="18"/>
</g>
<!-- Node008 -->
<g id="node5" class="node">
<title>Node008</title>
<ellipse fill="#ffffff" stroke="#000000" cx="130.65" cy="-42.25" rx="130.65" ry="18"/>
<text text-anchor="middle" x="130.65" y="-37.57" font-family="Times,serif" font-size="14.00">Отродье свиньи! Умри!</text>
</g>
<!-- talk_p_proc&#45;&gt;Node008 -->
<g id="edge1" class="edge">
<title>talk_p_proc&#45;&gt;Node008</title>
<path fill="none" stroke="#555555" stroke-dasharray="1,5" d="M947.49,-137.53C853.04,-137.21 530.4,-132.42 269.65,-84.5 241.92,-79.4 211.85,-70.87 186.79,-62.88"/>
<polygon fill="#555555" stroke="#555555" points="187.98,-59.26 177.38,-59.51 185.82,-65.92 187.98,-59.26"/>
</g>
<!-- Node007 -->
<g id="node6" class="node">
<title>Node007</title>
<ellipse fill="#ffffff" stroke="#000000" cx="407.65" cy="-42.25" rx="128.55" ry="18"/>
<text text-anchor="middle" x="407.65" y="-37.57" font-family="Times,serif" font-size="14.00">Вы убили НИК&#45;9? Ура!</text>
</g>
<!-- talk_p_proc&#45;&gt;Node007 -->
<g id="edge2" class="edge">
<title>talk_p_proc&#45;&gt;Node007</title>
<path fill="none" stroke="#555555" stroke-dasharray="1,5" d="M947.79,-135.75C879.84,-130.99 695.85,-115.99 545.65,-84.5 518.78,-78.86 489.56,-70.47 464.97,-62.73"/>
<polygon fill="#555555" stroke="#555555" points="466.32,-59.17 455.73,-59.46 464.19,-65.83 466.32,-59.17"/>
</g>
<!-- Node003 -->
<g id="node7" class="node">
<title>Node003</title>
<ellipse fill="#ffffff" stroke="#000000" cx="690.65" cy="-42.25" rx="136.44" ry="18"/>
<text text-anchor="middle" x="690.65" y="-37.57" font-family="Times,serif" font-size="14.00">Наш вождь! Он сражен!</text>
</g>
<!-- talk_p_proc&#45;&gt;Node003 -->
<g id="edge3" class="edge">
<title>talk_p_proc&#45;&gt;Node003</title>
<path fill="none" stroke="#555555" stroke-dasharray="1,5" d="M950.93,-129.63C907.04,-115.06 812,-83.52 749.72,-62.85"/>
<polygon fill="#555555" stroke="#555555" points="751.24,-59.34 740.64,-59.51 749.03,-65.98 751.24,-59.34"/>
</g>
<!-- Node004 -->
<g id="node8" class="node">
<title>Node004</title>
<ellipse fill="#ffffff" stroke="#000000" cx="974.65" cy="-42.25" rx="129.58" ry="30.05"/>
<text text-anchor="middle" x="974.65" y="-46.2" font-family="Times,serif" font-size="14.00">Дракон мертв! Ло Пэн</text>
<text text-anchor="middle" x="974.65" y="-28.95" font-family="Times,serif" font-size="14.00">победил!</text>
</g>
<!-- talk_p_proc&#45;&gt;Node004 -->
<g id="edge4" class="edge">
<title>talk_p_proc&#45;&gt;Node004</title>
<path fill="none" stroke="#555555" stroke-dasharray="1,5" d="M974.65,-120.21C974.65,-109.94 974.65,-96.45 974.65,-83.63"/>
<polygon fill="#555555" stroke="#555555" points="978.15,-83.65 974.65,-73.65 971.15,-83.65 978.15,-83.65"/>
</g>
<!-- Node002 -->
<g id="node9" class="node">
<title>Node002</title>
<ellipse fill="#ffffff" stroke="#000000" cx="1238.65" cy="-42.25" rx="116.85" ry="30.05"/>
<text text-anchor="middle" x="1238.65" y="-46.2" font-family="Times,serif" font-size="14.00">Добро пожаловать в</text>
<text text-anchor="middle" x="1238.65" y="-28.95" font-family="Times,serif" font-size="14.00">Сан&#45;Франциско.</text>
</g>
<!-- talk_p_proc&#45;&gt;Node002 -->
<g id="edge5" class="edge">
<title>talk_p_proc&#45;&gt;Node002</title>
<path fill="none" stroke="#555555" stroke-dasharray="1,5" d="M998.08,-129.14C1034.31,-116.2 1105.57,-90.76 1161.16,-70.91"/>
<polygon fill="#555555" stroke="#555555" points="1162.11,-73.93 1170.35,-67.28 1159.76,-67.34 1162.11,-73.93"/>
</g>
<!-- Node005 -->
<g id="node10" class="node">
<title>Node005</title>
<ellipse fill="#ffffff" stroke="#000000" cx="1517.65" cy="-42.25" rx="143.9" ry="42.25"/>
<text text-anchor="middle" x="1517.65" y="-54.82" font-family="Times,serif" font-size="14.00">Глашатай Императора!</text>
<text text-anchor="middle" x="1517.65" y="-37.57" font-family="Times,serif" font-size="14.00">Мертв! Город распадется</text>
<text text-anchor="middle" x="1517.65" y="-20.32" font-family="Times,serif" font-size="14.00">на части!</text>
</g>
<!-- talk_p_proc&#45;&gt;Node005 -->
<g id="edge6" class="edge">
<title>talk_p_proc&#45;&gt;Node005</title>
<path fill="none" stroke="#555555" stroke-dasharray="1,5" d="M1001.33,-135.07C1064.75,-129.02 1229.35,-111.81 1364.65,-84.5 1377.97,-81.81 1391.85,-78.62 1405.58,-75.23"/>
<polygon fill="#555555" stroke="#555555" points="1406.19,-78.43 1415.03,-72.6 1404.48,-71.64 1406.19,-78.43"/>
</g>
<!-- Node001 -->
<g id="node11" class="node">
<title>Node001</title>
<ellipse fill="#ffffff" stroke="#000000" cx="1806.65" cy="-42.25" rx="127.49" ry="18"/>
<text text-anchor="middle" x="1806.65" y="-37.57" font-family="Times,serif" font-size="14.00">Вы ведь не шпион, да?</text>
</g>
<!-- talk_p_proc&#45;&gt;Node001 -->
<g id="edge7" class="edge">
<title>talk_p_proc&#45;&gt;Node001</title>
<path fill="none" stroke="#555555" stroke-dasharray="1,5" d="M1001.8,-137.55C1095.5,-137.29 1413.67,-132.66 1670.65,-84.5 1697.81,-79.41 1727.24,-70.88 1751.75,-62.89"/>
<polygon fill="#555555" stroke="#555555" points="1752.54,-65.98 1760.93,-59.51 1750.34,-59.34 1752.54,-65.98"/>
</g>
<!-- destroy_p_proc -->
<g id="node12" class="node">
<title>destroy_p_proc</title>
<ellipse fill="#ffffff" stroke="#000000" cx="1046.65" cy="-271.34" rx="27" ry="18"/>
</g>
<!-- look_at_p_proc -->
<g id="node13" class="node">
<title>look_at_p_proc</title>
<ellipse fill="#ffffff" stroke="#000000" cx="1217.65" cy="-271.34" rx="125.87" ry="30.05"/>
<text text-anchor="middle" x="1217.65" y="-275.29" font-family="Times,serif" font-size="14.00">Вы видите человека в</text>
<text text-anchor="middle" x="1217.65" y="-258.04" font-family="Times,serif" font-size="14.00">смешной пижаме.</text>
</g>
<!-- description_p_proc -->
<g id="node14" class="node">
<title>description_p_proc</title>
<ellipse fill="#ffffff" stroke="#000000" cx="1518.65" cy="-271.34" rx="157.15" ry="78.84"/>
<text text-anchor="middle" x="1518.65" y="-309.79" font-family="Times,serif" font-size="14.00">Вы видите горожанина Ши.</text>
<text text-anchor="middle" x="1518.65" y="-292.54" font-family="Times,serif" font-size="14.00">&#45;&#45;&#45;</text>
<text text-anchor="middle" x="1518.65" y="-275.29" font-family="Times,serif" font-size="14.00">Этот человек сильно</text>
<text text-anchor="middle" x="1518.65" y="-258.04" font-family="Times,serif" font-size="14.00">отличается от всех, кого</text>
<text text-anchor="middle" x="1518.65" y="-240.79" font-family="Times,serif" font-size="14.00">вы видели раньше. Похоже,</text>
<text text-anchor="middle" x="1518.65" y="-223.54" font-family="Times,serif" font-size="14.00">ему на вас наплевать.</text>
</g>
<!-- use_skill_on_p_proc -->
<g id="node15" class="node">
<title>use_skill_on_p_proc</title>
<ellipse fill="#ffffff" stroke="#000000" cx="1720.65" cy="-271.34" rx="27" ry="18"/>
</g>
<!-- damage_p_proc -->
<g id="node16" class="node">
<title>damage_p_proc</title>
<ellipse fill="#ffffff" stroke="#000000" cx="1792.65" cy="-271.34" rx="27" ry="18"/>
</g>
<!-- map_enter_p_proc -->
<g id="node17" class="node">
<title>map_enter_p_proc</title>
<ellipse fill="#ffffff" stroke="#000000" cx="1864.65" cy="-271.34" rx="27" ry="18"/>
</g>
<!-- timed_event_p_proc -->
<g id="node18" class="node">
<title>timed_event_p_proc</title>
<ellipse fill="#ffffff" stroke="#000000" cx="974.65" cy="-271.34" rx="27" ry="18"/>
</g>
<!-- timed_event_p_proc&#45;&gt;talk_p_proc -->
<g id="edge8" class="edge">
<title>timed_event_p_proc&#45;&gt;talk_p_proc</title>
<path fill="none" stroke="#555555" stroke-dasharray="1,5" d="M974.65,-252.97C974.65,-231.27 974.65,-193.84 974.65,-167.94"/>
<polygon fill="#555555" stroke="#555555" points="978.15,-167.95 974.65,-157.95 971.15,-167.95 978.15,-167.95"/>
</g>
<!-- push_p_proc -->
<g id="node19" class="node">
<title>push_p_proc</title>
<ellipse fill="#ffffff" stroke="#000000" cx="1936.65" cy="-271.34" rx="27" ry="18"/>
</g>
</g>
</svg>
