<?xml version="1.0" encoding="UTF-8" standalone="no"?>
<!DOCTYPE svg PUBLIC "-//W3C//DTD SVG 1.1//EN"
 "http://www.w3.org/Graphics/SVG/1.1/DTD/svg11.dtd">
<!-- Generated by graphviz version 8.0.5 (0)
 -->
<!-- Title: fcdocsqa Pages: 1 -->
<svg width="1246pt" height="189pt"
 viewBox="0.00 0.00 1246.00 188.89" xmlns="http://www.w3.org/2000/svg" xmlns:xlink="http://www.w3.org/1999/xlink">
<g id="graph0" class="graph" transform="scale(1 1) rotate(0) translate(4 184.89)">
<title>fcdocsqa</title>
<polygon fill="white" stroke="none" points="-4,4 -4,-184.89 1242,-184.89 1242,4 -4,4"/>
<!-- pickup_p_proc -->
<g id="node1" class="node">
<title>pickup_p_proc</title>
<ellipse fill="#ffffff" stroke="#000000" cx="27" cy="-126.45" rx="27" ry="18"/>
</g>
<!-- start -->
<g id="node2" class="node">
<title>start</title>
<ellipse fill="#ffffff" stroke="#000000" cx="99" cy="-126.45" rx="27" ry="18"/>
</g>
<!-- critter_p_proc -->
<g id="node3" class="node">
<title>critter_p_proc</title>
<ellipse fill="#ffffff" stroke="#000000" cx="171" cy="-126.45" rx="27" ry="18"/>
</g>
<!-- talk_p_proc -->
<g id="node4" class="node">
<title>talk_p_proc</title>
<ellipse fill="#ffffff" stroke="#000000" cx="243" cy="-126.45" rx="27" ry="18"/>
</g>
<!-- Node002 -->
<g id="node5" class="node">
<title>Node002</title>
<ellipse fill="#ffffff" stroke="#000000" cx="207" cy="-18" rx="27" ry="18"/>
</g>
<!-- talk_p_proc&#45;&gt;Node002 -->
<g id="edge1" class="edge">
<title>talk_p_proc&#45;&gt;Node002</title>
<path fill="none" stroke="#555555" stroke-dasharray="1,5" d="M237.38,-108.81C231.7,-92.04 222.85,-65.87 216.16,-46.09"/>
<polygon fill="#555555" stroke="#555555" points="219.22,-45.22 212.7,-36.87 212.59,-47.46 219.22,-45.22"/>
</g>
<!-- Node001 -->
<g id="node6" class="node">
<title>Node001</title>
<ellipse fill="#ffffff" stroke="#000000" cx="279" cy="-18" rx="27" ry="18"/>
</g>
<!-- talk_p_proc&#45;&gt;Node001 -->
<g id="edge2" class="edge">
<title>talk_p_proc&#45;&gt;Node001</title>
<path fill="none" stroke="#555555" stroke-dasharray="1,5" d="M248.62,-108.81C254.3,-92.04 263.15,-65.87 269.84,-46.09"/>
<polygon fill="#555555" stroke="#555555" points="273.41,-47.46 273.3,-36.87 266.78,-45.22 273.41,-47.46"/>
</g>
<!-- destroy_p_proc -->
<g id="node7" class="node">
<title>destroy_p_proc</title>
<ellipse fill="#ffffff" stroke="#000000" cx="315" cy="-126.45" rx="27" ry="18"/>
</g>
<!-- look_at_p_proc -->
<g id="node8" class="node">
<title>look_at_p_proc</title>
<ellipse fill="#ffffff" stroke="#000000" cx="485" cy="-126.45" rx="124.8" ry="54.45"/>
<text text-anchor="middle" x="485" y="-147.65" font-family="Times,serif" font-size="14.00">Вы видите грязного,</text>
<text text-anchor="middle" x="485" y="-130.4" font-family="Times,serif" font-size="14.00">нечесаного человека.</text>
<text text-anchor="middle" x="485" y="-113.15" font-family="Times,serif" font-size="14.00">&#45;&#45;&#45;</text>
<text text-anchor="middle" x="485" y="-95.9" font-family="Times,serif" font-size="14.00">Вы видите сквоттера.</text>
</g>
<!-- description_p_proc -->
<g id="node9" class="node">
<title>description_p_proc</title>
<ellipse fill="#ffffff" stroke="#000000" cx="753" cy="-126.45" rx="124.8" ry="30.05"/>
<text text-anchor="middle" x="753" y="-130.4" font-family="Times,serif" font-size="14.00">Вы видите грязного,</text>
<text text-anchor="middle" x="753" y="-113.15" font-family="Times,serif" font-size="14.00">нечесаного человека.</text>
</g>
<!-- use_skill_on_p_proc -->
<g id="node10" class="node">
<title>use_skill_on_p_proc</title>
<ellipse fill="#ffffff" stroke="#000000" cx="923" cy="-126.45" rx="27" ry="18"/>
</g>
<!-- damage_p_proc -->
<g id="node11" class="node">
<title>damage_p_proc</title>
<ellipse fill="#ffffff" stroke="#000000" cx="995" cy="-126.45" rx="27" ry="18"/>
</g>
<!-- map_enter_p_proc -->
<g id="node12" class="node">
<title>map_enter_p_proc</title>
<ellipse fill="#ffffff" stroke="#000000" cx="1067" cy="-126.45" rx="27" ry="18"/>
</g>
<!-- push_p_proc -->
<g id="node13" class="node">
<title>push_p_proc</title>
<ellipse fill="#ffffff" stroke="#000000" cx="1139" cy="-126.45" rx="27" ry="18"/>
</g>
<!-- timed_event_p_proc -->
<g id="node14" class="node">
<title>timed_event_p_proc</title>
<ellipse fill="#ffffff" stroke="#000000" cx="1211" cy="-126.45" rx="27" ry="18"/>
</g>
</g>
</svg>
