<?xml version="1.0" encoding="UTF-8" standalone="no"?>
<!DOCTYPE svg PUBLIC "-//W3C//DTD SVG 1.1//EN"
 "http://www.w3.org/Graphics/SVG/1.1/DTD/svg11.dtd">
<!-- Generated by graphviz version 8.0.5 (0)
 -->
<!-- Title: fclogrd Pages: 1 -->
<svg width="1551pt" height="381pt"
 viewBox="0.00 0.00 1551.18 381.10" xmlns="http://www.w3.org/2000/svg" xmlns:xlink="http://www.w3.org/1999/xlink">
<g id="graph0" class="graph" transform="scale(1 1) rotate(0) translate(4 377.1)">
<title>fclogrd</title>
<polygon fill="white" stroke="none" points="-4,4 -4,-377.1 1547.18,-377.1 1547.18,4 -4,4"/>
<!-- start -->
<g id="node1" class="node">
<title>start</title>
<ellipse fill="#ffffff" stroke="#000000" cx="174.18" cy="-330.85" rx="27" ry="18"/>
</g>
<!-- critter_p_proc -->
<g id="node2" class="node">
<title>critter_p_proc</title>
<ellipse fill="#ffffff" stroke="#000000" cx="246.18" cy="-330.85" rx="27" ry="18"/>
</g>
<!-- talk_p_proc -->
<g id="node3" class="node">
<title>talk_p_proc</title>
<ellipse fill="#ffffff" stroke="#000000" cx="246.18" cy="-210.35" rx="27" ry="18"/>
</g>
<!-- critter_p_proc&#45;&gt;talk_p_proc -->
<g id="edge1" class="edge">
<title>critter_p_proc&#45;&gt;talk_p_proc</title>
<path fill="none" stroke="#555555" stroke-dasharray="1,5" d="M246.18,-312.37C246.18,-293.18 246.18,-262.1 246.18,-239.48"/>
<polygon fill="#555555" stroke="#555555" points="249.68,-239.53 246.18,-229.53 242.68,-239.53 249.68,-239.53"/>
</g>
<!-- Node003 -->
<g id="node6" class="node">
<title>Node003</title>
<ellipse fill="#ffffff" stroke="#000000" cx="111.18" cy="-102.05" rx="111.18" ry="18"/>
<text text-anchor="middle" x="111.18" y="-97.38" font-family="Times,serif" font-size="14.00">Умри, враг народа!</text>
</g>
<!-- talk_p_proc&#45;&gt;Node003 -->
<g id="edge3" class="edge">
<title>talk_p_proc&#45;&gt;Node003</title>
<path fill="none" stroke="#555555" stroke-dasharray="1,5" d="M229.09,-195.89C206.94,-178.45 167.96,-147.76 140.91,-126.46"/>
<polygon fill="#555555" stroke="#555555" points="143.61,-123.34 133.59,-119.91 139.28,-128.84 143.61,-123.34"/>
</g>
<!-- Node001 -->
<g id="node7" class="node">
<title>Node001</title>
<ellipse fill="#ffffff" stroke="#000000" cx="382.18" cy="-102.05" rx="141.77" ry="30.05"/>
<text text-anchor="middle" x="382.18" y="-106" font-family="Times,serif" font-size="14.00">Иди своей дорогой, и все</text>
<text text-anchor="middle" x="382.18" y="-88.75" font-family="Times,serif" font-size="14.00">будет в порядке.</text>
</g>
<!-- talk_p_proc&#45;&gt;Node001 -->
<g id="edge4" class="edge">
<title>talk_p_proc&#45;&gt;Node001</title>
<path fill="none" stroke="#555555" stroke-dasharray="1,5" d="M257.93,-193.93C264.56,-185.75 273.28,-175.83 282.18,-168.1 295.27,-156.75 310.47,-145.87 325.02,-136.36"/>
<polygon fill="#555555" stroke="#555555" points="326.44,-138.97 332.97,-130.63 322.66,-133.08 326.44,-138.97"/>
</g>
<!-- pickup_p_proc -->
<g id="node4" class="node">
<title>pickup_p_proc</title>
<ellipse fill="#ffffff" stroke="#000000" cx="437.18" cy="-330.85" rx="27" ry="18"/>
</g>
<!-- Node002 -->
<g id="node5" class="node">
<title>Node002</title>
<ellipse fill="#ffffff" stroke="#000000" cx="437.18" cy="-210.35" rx="146.02" ry="42.25"/>
<text text-anchor="middle" x="437.18" y="-222.93" font-family="Times,serif" font-size="14.00">Последний раз</text>
<text text-anchor="middle" x="437.18" y="-205.68" font-family="Times,serif" font-size="14.00">предупреждаю: не трогай</text>
<text text-anchor="middle" x="437.18" y="-188.43" font-family="Times,serif" font-size="14.00">это.</text>
</g>
<!-- pickup_p_proc&#45;&gt;Node002 -->
<g id="edge2" class="edge">
<title>pickup_p_proc&#45;&gt;Node002</title>
<path fill="none" stroke="#555555" stroke-dasharray="1,5" d="M437.18,-312.37C437.18,-299.47 437.18,-281.19 437.18,-263.72"/>
<polygon fill="#555555" stroke="#555555" points="440.68,-264 437.18,-254 433.68,-264 440.68,-264"/>
</g>
<!-- Node998 -->
<g id="node16" class="node">
<title>Node998</title>
<ellipse fill="#ffffff" stroke="#000000" cx="111.18" cy="-18" rx="27" ry="18"/>
</g>
<!-- Node003&#45;&gt;Node998 -->
<g id="edge5" class="edge">
<title>Node003&#45;&gt;Node998</title>
<path fill="none" stroke="#555555" stroke-dasharray="1,5" d="M111.18,-83.65C111.18,-73.1 111.18,-59.38 111.18,-47.3"/>
<polygon fill="#555555" stroke="#555555" points="114.68,-47.38 111.18,-37.38 107.68,-47.38 114.68,-47.38"/>
</g>
<!-- destroy_p_proc -->
<g id="node8" class="node">
<title>destroy_p_proc</title>
<ellipse fill="#ffffff" stroke="#000000" cx="509.18" cy="-330.85" rx="27" ry="18"/>
</g>
<!-- look_at_p_proc -->
<g id="node9" class="node">
<title>look_at_p_proc</title>
<ellipse fill="#ffffff" stroke="#000000" cx="709.18" cy="-330.85" rx="154.5" ry="42.25"/>
<text text-anchor="middle" x="709.18" y="-343.43" font-family="Times,serif" font-size="14.00">Вы видите охранника со</text>
<text text-anchor="middle" x="709.18" y="-326.18" font-family="Times,serif" font-size="14.00">скучающе&#45;подозрительным</text>
<text text-anchor="middle" x="709.18" y="-308.93" font-family="Times,serif" font-size="14.00">выражением лица.</text>
</g>
<!-- description_p_proc -->
<g id="node10" class="node">
<title>description_p_proc</title>
<ellipse fill="#ffffff" stroke="#000000" cx="1032.18" cy="-330.85" rx="150.79" ry="42.25"/>
<text text-anchor="middle" x="1032.18" y="-343.43" font-family="Times,serif" font-size="14.00">Вы видите Стража дворца.</text>
<text text-anchor="middle" x="1032.18" y="-326.18" font-family="Times,serif" font-size="14.00">&#45;&#45;&#45;</text>
<text text-anchor="middle" x="1032.18" y="-308.93" font-family="Times,serif" font-size="14.00">Вы видите Стража дворца.</text>
</g>
<!-- use_skill_on_p_proc -->
<g id="node11" class="node">
<title>use_skill_on_p_proc</title>
<ellipse fill="#ffffff" stroke="#000000" cx="1228.18" cy="-330.85" rx="27" ry="18"/>
</g>
<!-- damage_p_proc -->
<g id="node12" class="node">
<title>damage_p_proc</title>
<ellipse fill="#ffffff" stroke="#000000" cx="1300.18" cy="-330.85" rx="27" ry="18"/>
</g>
<!-- map_enter_p_proc -->
<g id="node13" class="node">
<title>map_enter_p_proc</title>
<ellipse fill="#ffffff" stroke="#000000" cx="1372.18" cy="-330.85" rx="27" ry="18"/>
</g>
<!-- timed_event_p_proc -->
<g id="node14" class="node">
<title>timed_event_p_proc</title>
<ellipse fill="#ffffff" stroke="#000000" cx="1444.18" cy="-330.85" rx="27" ry="18"/>
</g>
<!-- map_update_p_proc -->
<g id="node15" class="node">
<title>map_update_p_proc</title>
<ellipse fill="#ffffff" stroke="#000000" cx="1516.18" cy="-330.85" rx="27" ry="18"/>
</g>
</g>
</svg>
