<?xml version="1.0" encoding="UTF-8" standalone="no"?>
<!DOCTYPE svg PUBLIC "-//W3C//DTD SVG 1.1//EN"
 "http://www.w3.org/Graphics/SVG/1.1/DTD/svg11.dtd">
<!-- Generated by graphviz version 8.0.5 (0)
 -->
<!-- Title: fcplntmn Pages: 1 -->
<svg width="2797pt" height="713pt"
 viewBox="0.00 0.00 2797.00 712.78" xmlns="http://www.w3.org/2000/svg" xmlns:xlink="http://www.w3.org/1999/xlink">
<g id="graph0" class="graph" transform="scale(1 1) rotate(0) translate(4 708.78)">
<title>fcplntmn</title>
<polygon fill="white" stroke="none" points="-4,4 -4,-708.78 2793,-708.78 2793,4 -4,4"/>
<!-- start -->
<g id="node1" class="node">
<title>start</title>
<ellipse fill="#ffffff" stroke="#000000" cx="27" cy="-503.96" rx="27" ry="18"/>
</g>
<!-- use_p_proc -->
<g id="node2" class="node">
<title>use_p_proc</title>
<ellipse fill="#ffffff" stroke="#000000" cx="99" cy="-503.96" rx="27" ry="18"/>
</g>
<!-- look_at_p_proc -->
<g id="node3" class="node">
<title>look_at_p_proc</title>
<ellipse fill="#ffffff" stroke="#000000" cx="284" cy="-503.96" rx="140.18" ry="54.45"/>
<text text-anchor="middle" x="284" y="-525.16" font-family="Times,serif" font-size="14.00">Вы видите гуманоида,</text>
<text text-anchor="middle" x="284" y="-507.91" font-family="Times,serif" font-size="14.00">покрытого</text>
<text text-anchor="middle" x="284" y="-490.66" font-family="Times,serif" font-size="14.00">растительностью. С него</text>
<text text-anchor="middle" x="284" y="-473.41" font-family="Times,serif" font-size="14.00">капает зеленая слизь.</text>
</g>
<!-- description_p_proc -->
<g id="node4" class="node">
<title>description_p_proc</title>
<ellipse fill="#ffffff" stroke="#000000" cx="583" cy="-503.96" rx="140.71" ry="115.44"/>
<text text-anchor="middle" x="583" y="-568.29" font-family="Times,serif" font-size="14.00">Вы видите одно из</text>
<text text-anchor="middle" x="583" y="-551.04" font-family="Times,serif" font-size="14.00">чудовищных созданий</text>
<text text-anchor="middle" x="583" y="-533.79" font-family="Times,serif" font-size="14.00">доктора Шенга. Похоже,</text>
<text text-anchor="middle" x="583" y="-516.54" font-family="Times,serif" font-size="14.00">этот экземпляр ему не</text>
<text text-anchor="middle" x="583" y="-499.29" font-family="Times,serif" font-size="14.00">удался.</text>
<text text-anchor="middle" x="583" y="-482.04" font-family="Times,serif" font-size="14.00">&#45;&#45;&#45;</text>
<text text-anchor="middle" x="583" y="-464.79" font-family="Times,serif" font-size="14.00">Вы видите одно из</text>
<text text-anchor="middle" x="583" y="-447.54" font-family="Times,serif" font-size="14.00">чудовищных созданий</text>
<text text-anchor="middle" x="583" y="-430.29" font-family="Times,serif" font-size="14.00">доктора Шенга.</text>
</g>
<!-- use_skill_on_p_proc -->
<g id="node5" class="node">
<title>use_skill_on_p_proc</title>
<ellipse fill="#ffffff" stroke="#000000" cx="769" cy="-503.96" rx="27" ry="18"/>
</g>
<!-- use_obj_on_p_proc -->
<g id="node6" class="node">
<title>use_obj_on_p_proc</title>
<ellipse fill="#ffffff" stroke="#000000" cx="975" cy="-503.96" rx="160.87" ry="152.03"/>
<text text-anchor="middle" x="975" y="-594.16" font-family="Times,serif" font-size="14.00">Вы обрызгиваете создание;</text>
<text text-anchor="middle" x="975" y="-576.91" font-family="Times,serif" font-size="14.00">оно издает ужасный стон</text>
<text text-anchor="middle" x="975" y="-559.66" font-family="Times,serif" font-size="14.00">и, размягчаясь, стекает в</text>
<text text-anchor="middle" x="975" y="-542.41" font-family="Times,serif" font-size="14.00">лужу.</text>
<text text-anchor="middle" x="975" y="-525.16" font-family="Times,serif" font-size="14.00">&#45;&#45;&#45;</text>
<text text-anchor="middle" x="975" y="-507.91" font-family="Times,serif" font-size="14.00">Вы обрызгиваете создание,</text>
<text text-anchor="middle" x="975" y="-490.66" font-family="Times,serif" font-size="14.00">и оно издает ужасный</text>
<text text-anchor="middle" x="975" y="-473.41" font-family="Times,serif" font-size="14.00">стон. Куски</text>
<text text-anchor="middle" x="975" y="-456.16" font-family="Times,serif" font-size="14.00">растительности,</text>
<text text-anchor="middle" x="975" y="-438.91" font-family="Times,serif" font-size="14.00">покрывающей его, отпадают</text>
<text text-anchor="middle" x="975" y="-421.66" font-family="Times,serif" font-size="14.00">и безжизненно валятся на</text>
<text text-anchor="middle" x="975" y="-404.41" font-family="Times,serif" font-size="14.00">пол.</text>
</g>
<!-- damage_p_proc -->
<g id="node7" class="node">
<title>damage_p_proc</title>
<ellipse fill="#ffffff" stroke="#000000" cx="1181" cy="-503.96" rx="27" ry="18"/>
</g>
<!-- map_enter_p_proc -->
<g id="node8" class="node">
<title>map_enter_p_proc</title>
<ellipse fill="#ffffff" stroke="#000000" cx="1253" cy="-503.96" rx="27" ry="18"/>
</g>
<!-- map_update_p_proc -->
<g id="node9" class="node">
<title>map_update_p_proc</title>
<ellipse fill="#ffffff" stroke="#000000" cx="1325" cy="-503.96" rx="27" ry="18"/>
</g>
<!-- talk_p_proc -->
<g id="node10" class="node">
<title>talk_p_proc</title>
<ellipse fill="#ffffff" stroke="#000000" cx="1397" cy="-503.96" rx="27" ry="18"/>
</g>
<!-- forced_node -->
<g id="node11" class="node">
<title>forced_node</title>
<ellipse fill="none" stroke="black" cx="1397" cy="-160.95" rx="71.73" ry="18"/>
<text text-anchor="middle" x="1397" y="-156.27" font-family="Times,serif" font-size="14.00">forced_node</text>
</g>
<!-- talk_p_proc&#45;&gt;forced_node -->
<g id="edge1" class="edge">
<title>talk_p_proc&#45;&gt;forced_node</title>
<path fill="none" stroke="#555555" stroke-dasharray="1,5" d="M1393.85,-486.05C1389.33,-431.3 1389.07,-258.45 1393.07,-190.13"/>
<polygon fill="#555555" stroke="#555555" points="1396.62,-190.58 1393.81,-180.37 1389.63,-190.1 1396.62,-190.58"/>
</g>
<!-- talk_p_proc&#45;&gt;forced_node -->
<g id="edge2" class="edge">
<title>talk_p_proc&#45;&gt;forced_node</title>
<path fill="none" stroke="#555555" stroke-dasharray="1,5" d="M1400.15,-486.05C1404.67,-431.3 1404.93,-258.45 1400.93,-190.13"/>
<polygon fill="#555555" stroke="#555555" points="1404.37,-190.1 1400.19,-180.37 1397.38,-190.58 1404.37,-190.1"/>
</g>
<!-- Node001 -->
<g id="node12" class="node">
<title>Node001</title>
<ellipse fill="#ffffff" stroke="#000000" cx="2019" cy="-503.96" rx="159.81" ry="200.82"/>
<text text-anchor="middle" x="2019" y="-628.66" font-family="Times,serif" font-size="14.00">[С полдюжины</text>
<text text-anchor="middle" x="2019" y="-611.41" font-family="Times,serif" font-size="14.00">человекоподобных созданий</text>
<text text-anchor="middle" x="2019" y="-594.16" font-family="Times,serif" font-size="14.00">медленно тащатся к вам.</text>
<text text-anchor="middle" x="2019" y="-576.91" font-family="Times,serif" font-size="14.00">Разложившиеся сплетения</text>
<text text-anchor="middle" x="2019" y="-559.66" font-family="Times,serif" font-size="14.00">тканей и покрытые мхом</text>
<text text-anchor="middle" x="2019" y="-542.41" font-family="Times,serif" font-size="14.00">тела производят</text>
<text text-anchor="middle" x="2019" y="-525.16" font-family="Times,serif" font-size="14.00">отвратительное чавканье с</text>
<text text-anchor="middle" x="2019" y="-507.91" font-family="Times,serif" font-size="14.00">каждым хромым шагом.</text>
<text text-anchor="middle" x="2019" y="-490.66" font-family="Times,serif" font-size="14.00">Ближайшее существо</text>
<text text-anchor="middle" x="2019" y="-473.41" font-family="Times,serif" font-size="14.00">обращается к вам, хрипло</text>
<text text-anchor="middle" x="2019" y="-456.16" font-family="Times,serif" font-size="14.00">скрежеща.] Хозяин хочет</text>
<text text-anchor="middle" x="2019" y="-438.91" font-family="Times,serif" font-size="14.00">говорить с тобой. Иди с</text>
<text text-anchor="middle" x="2019" y="-421.66" font-family="Times,serif" font-size="14.00">нами, человек, и не</text>
<text text-anchor="middle" x="2019" y="-404.41" font-family="Times,serif" font-size="14.00">сопротивляйся... или мы</text>
<text text-anchor="middle" x="2019" y="-387.16" font-family="Times,serif" font-size="14.00">сделаем из твоего мяса</text>
<text text-anchor="middle" x="2019" y="-369.91" font-family="Times,serif" font-size="14.00">удобрения.</text>
</g>
<!-- Node990 -->
<g id="node13" class="node">
<title>Node990</title>
<ellipse fill="#ffffff" stroke="#000000" cx="1623" cy="-18" rx="27" ry="18"/>
</g>
<!-- Node001&#45;&gt;Node990 -->
<g id="edge3" class="edge">
<title>Node001&#45;&gt;Node990</title>
<path fill="none" stroke="#009937" d="M1862.47,-460.61C1743.59,-419.31 1588.27,-343.55 1513.75,-215.39 1489.42,-173.56 1492.8,-150.13 1513.75,-106.5 1529.8,-73.09 1565.5,-48.43 1591.74,-33.96"/>
<polygon fill="#009937" stroke="#009937" points="1593.08,-36.68 1600.28,-28.91 1589.8,-30.5 1593.08,-36.68"/>
<text text-anchor="middle" x="1612.62" y="-164.9" font-family="Times,serif" font-size="14.00" fill="#009937">[Пожимая плечами.] Это</text>
<text text-anchor="middle" x="1612.62" y="-147.65" font-family="Times,serif" font-size="14.00" fill="#009937">будет занимательно. Веди.</text>
</g>
<!-- Node002 -->
<g id="node14" class="node">
<title>Node002</title>
<ellipse fill="#ffffff" stroke="#000000" cx="2151" cy="-160.95" rx="153.44" ry="54.45"/>
<text text-anchor="middle" x="2151" y="-182.15" font-family="Times,serif" font-size="14.00">У тебя нет выбора,</text>
<text text-anchor="middle" x="2151" y="-164.9" font-family="Times,serif" font-size="14.00">человек. Иди и говори с</text>
<text text-anchor="middle" x="2151" y="-147.65" font-family="Times,serif" font-size="14.00">Хозяином, или мы поведем</text>
<text text-anchor="middle" x="2151" y="-130.4" font-family="Times,serif" font-size="14.00">тебя силой.</text>
</g>
<!-- Node001&#45;&gt;Node002 -->
<g id="edge4" class="edge">
<title>Node001&#45;&gt;Node002</title>
<path fill="none" stroke="#990a00" d="M2088.67,-322.97C2102.25,-287.89 2115.62,-253.35 2126.48,-225.31"/>
<polygon fill="#990a00" stroke="#990a00" points="2130.01,-226.87 2130.36,-216.28 2123.48,-224.34 2130.01,-226.87"/>
<text text-anchor="middle" x="2207.5" y="-271.84" font-family="Times,serif" font-size="14.00" fill="#990a00">Я с тобой никуда не</text>
<text text-anchor="middle" x="2207.5" y="-254.59" font-family="Times,serif" font-size="14.00" fill="#990a00">пойду, растение...</text>
<text text-anchor="middle" x="2207.5" y="-237.34" font-family="Times,serif" font-size="14.00" fill="#990a00">существо... штуковина.</text>
</g>
<!-- Node998 -->
<g id="node15" class="node">
<title>Node998</title>
<ellipse fill="#ffffff" stroke="#000000" cx="2159" cy="-18" rx="27" ry="18"/>
</g>
<!-- Node001&#45;&gt;Node998 -->
<g id="edge5" class="edge">
<title>Node001&#45;&gt;Node998</title>
<path fill="none" stroke="#002399" d="M2124.28,-353.1C2143.51,-333.82 2164.88,-316.26 2188,-303.14 2230.7,-278.91 2261.22,-318.77 2297,-285.14 2372.91,-213.79 2402.14,-134.5 2336,-54 2318.78,-33.04 2243.83,-24.42 2197.15,-21.04"/>
<polygon fill="#002399" stroke="#002399" points="2197.44,-17.48 2187.23,-20.3 2196.98,-24.47 2197.44,-17.48"/>
<text text-anchor="middle" x="2471" y="-164.9" font-family="Times,serif" font-size="14.00" fill="#002399">У меня нет времени на это</text>
<text text-anchor="middle" x="2471" y="-147.65" font-family="Times,serif" font-size="14.00" fill="#002399">дерьмо.</text>
</g>
<!-- Node003 -->
<g id="node16" class="node">
<title>Node003</title>
<ellipse fill="#ffffff" stroke="#000000" cx="1850" cy="-160.95" rx="129.58" ry="30.05"/>
<text text-anchor="middle" x="1850" y="-164.9" font-family="Times,serif" font-size="14.00">Хозяин ответит на все</text>
<text text-anchor="middle" x="1850" y="-147.65" font-family="Times,serif" font-size="14.00">вопросы. Теперь идем.</text>
</g>
<!-- Node001&#45;&gt;Node003 -->
<g id="edge6" class="edge">
<title>Node001&#45;&gt;Node003</title>
<path fill="none" stroke="#4f9900" d="M1925.24,-340.72C1915.5,-322.17 1906.05,-303.38 1897.5,-285.14 1884.7,-257.84 1872.51,-226.07 1863.69,-201.63"/>
<polygon fill="#4f9900" stroke="#4f9900" points="1866.66,-200.55 1860,-192.3 1860.07,-202.9 1866.66,-200.55"/>
<text text-anchor="middle" x="1998.25" y="-263.22" font-family="Times,serif" font-size="14.00" fill="#4f9900">Подожди. Кто твой хозяин?</text>
<text text-anchor="middle" x="1998.25" y="-245.97" font-family="Times,serif" font-size="14.00" fill="#4f9900">И что ты вообще такое?</text>
</g>
<!-- Node002&#45;&gt;Node990 -->
<g id="edge8" class="edge">
<title>Node002&#45;&gt;Node990</title>
<path fill="none" stroke="#009989" d="M2033.52,-125.51C2007.07,-115.44 1979.81,-103.12 1956,-88.5 1936.84,-76.73 1939.4,-63.46 1919,-54 1873.97,-33.13 1730.23,-23.88 1660.99,-20.56"/>
<polygon fill="#009989" stroke="#009989" points="1661.3,-17.03 1651.15,-20.06 1660.98,-24.02 1661.3,-17.03"/>
<text text-anchor="middle" x="2053.5" y="-75.2" font-family="Times,serif" font-size="14.00" fill="#009989">Ладно. Я встречусь с этим</text>
<text text-anchor="middle" x="2053.5" y="-57.95" font-family="Times,serif" font-size="14.00" fill="#009989">вашим хозяином.</text>
</g>
<!-- Node002&#45;&gt;Node998 -->
<g id="edge7" class="edge">
<title>Node002&#45;&gt;Node998</title>
<path fill="none" stroke="#99007c" d="M2154.05,-106.26C2155.19,-86.16 2156.44,-64.12 2157.4,-47.23"/>
<polygon fill="#99007c" stroke="#99007c" points="2160.94,-47.62 2158.01,-37.43 2153.95,-47.22 2160.94,-47.62"/>
<text text-anchor="middle" x="2243.75" y="-66.58" font-family="Times,serif" font-size="14.00" fill="#99007c">Тогда давай потанцуем.</text>
</g>
<!-- Node003&#45;&gt;Node990 -->
<g id="edge10" class="edge">
<title>Node003&#45;&gt;Node990</title>
<path fill="none" stroke="#300099" d="M1786.84,-134.34C1761.92,-124.8 1732.86,-114.39 1706,-106.5 1670.2,-95.98 1647.59,-117.41 1624,-88.5 1614.67,-77.07 1614.02,-60.69 1615.9,-46.71"/>
<polygon fill="#300099" stroke="#300099" points="1619.47,-47.62 1617.82,-37.15 1612.59,-46.36 1619.47,-47.62"/>
<text text-anchor="middle" x="1721.5" y="-75.2" font-family="Times,serif" font-size="14.00" fill="#300099">Ладно. Я встречусь с этим</text>
<text text-anchor="middle" x="1721.5" y="-57.95" font-family="Times,serif" font-size="14.00" fill="#300099">вашим хозяином.</text>
</g>
<!-- Node003&#45;&gt;Node998 -->
<g id="edge9" class="edge">
<title>Node003&#45;&gt;Node998</title>
<path fill="none" stroke="#995d00" d="M1837.27,-130.62C1829.21,-107.01 1823.41,-74.48 1841.75,-54 1860.11,-33.5 2041.02,-23.74 2121.14,-20.4"/>
<polygon fill="#995d00" stroke="#995d00" points="2120.9,-23.87 2130.75,-19.97 2120.62,-16.87 2120.9,-23.87"/>
<text text-anchor="middle" x="1880.62" y="-66.58" font-family="Times,serif" font-size="14.00" fill="#995d00">Не думаю.</text>
</g>
<!-- timed_event_p_proc -->
<g id="node17" class="node">
<title>timed_event_p_proc</title>
<ellipse fill="#ffffff" stroke="#000000" cx="2349" cy="-503.96" rx="152.38" ry="66.64"/>
<text text-anchor="middle" x="2349" y="-533.79" font-family="Times,serif" font-size="14.00">Хозяин сказал, ты можешь</text>
<text text-anchor="middle" x="2349" y="-516.54" font-family="Times,serif" font-size="14.00">войти, человек.</text>
<text text-anchor="middle" x="2349" y="-499.29" font-family="Times,serif" font-size="14.00">&#45;&#45;&#45;</text>
<text text-anchor="middle" x="2349" y="-482.04" font-family="Times,serif" font-size="14.00">Хозяин сказал, никто не</text>
<text text-anchor="middle" x="2349" y="-464.79" font-family="Times,serif" font-size="14.00">может войти.</text>
</g>
<!-- critter_p_proc -->
<g id="node18" class="node">
<title>critter_p_proc</title>
<ellipse fill="#ffffff" stroke="#000000" cx="2546" cy="-503.96" rx="27" ry="18"/>
</g>
<!-- combat_p_proc -->
<g id="node19" class="node">
<title>combat_p_proc</title>
<ellipse fill="#ffffff" stroke="#000000" cx="2618" cy="-503.96" rx="27" ry="18"/>
</g>
<!-- pickup_p_proc -->
<g id="node20" class="node">
<title>pickup_p_proc</title>
<ellipse fill="#ffffff" stroke="#000000" cx="2690" cy="-503.96" rx="27" ry="18"/>
</g>
<!-- destroy_p_proc -->
<g id="node21" class="node">
<title>destroy_p_proc</title>
<ellipse fill="#ffffff" stroke="#000000" cx="2762" cy="-503.96" rx="27" ry="18"/>
</g>
</g>
</svg>
