<?xml version="1.0" encoding="UTF-8" standalone="no"?>
<!DOCTYPE svg PUBLIC "-//W3C//DTD SVG 1.1//EN"
 "http://www.w3.org/Graphics/SVG/1.1/DTD/svg11.dtd">
<!-- Generated by graphviz version 8.0.5 (0)
 -->
<!-- Title: fcsbtec1 Pages: 1 -->
<svg width="1389pt" height="164pt"
 viewBox="0.00 0.00 1389.00 164.50" xmlns="http://www.w3.org/2000/svg" xmlns:xlink="http://www.w3.org/1999/xlink">
<g id="graph0" class="graph" transform="scale(1 1) rotate(0) translate(4 160.5)">
<title>fcsbtec1</title>
<polygon fill="white" stroke="none" points="-4,4 -4,-160.5 1385,-160.5 1385,4 -4,4"/>
<!-- start -->
<g id="node1" class="node">
<title>start</title>
<ellipse fill="#ffffff" stroke="#000000" cx="27" cy="-114.25" rx="27" ry="18"/>
</g>
<!-- use_p_proc -->
<g id="node2" class="node">
<title>use_p_proc</title>
<ellipse fill="#ffffff" stroke="#000000" cx="99" cy="-114.25" rx="27" ry="18"/>
</g>
<!-- look_at_p_proc -->
<g id="node3" class="node">
<title>look_at_p_proc</title>
<ellipse fill="#ffffff" stroke="#000000" cx="270" cy="-114.25" rx="126.4" ry="42.25"/>
<text text-anchor="middle" x="270" y="-126.82" font-family="Times,serif" font-size="14.00">Вы видите человека в</text>
<text text-anchor="middle" x="270" y="-109.57" font-family="Times,serif" font-size="14.00">смешной пижаме. Он,</text>
<text text-anchor="middle" x="270" y="-92.32" font-family="Times,serif" font-size="14.00">кажется, занят.</text>
</g>
<!-- description_p_proc -->
<g id="node4" class="node">
<title>description_p_proc</title>
<ellipse fill="#ffffff" stroke="#000000" cx="538" cy="-114.25" rx="123.21" ry="30.05"/>
<text text-anchor="middle" x="538" y="-118.2" font-family="Times,serif" font-size="14.00">Вы видите техника</text>
<text text-anchor="middle" x="538" y="-100.95" font-family="Times,serif" font-size="14.00">подводной лодки Ши.</text>
</g>
<!-- use_skill_on_p_proc -->
<g id="node5" class="node">
<title>use_skill_on_p_proc</title>
<ellipse fill="#ffffff" stroke="#000000" cx="706" cy="-114.25" rx="27" ry="18"/>
</g>
<!-- use_obj_on_p_proc -->
<g id="node6" class="node">
<title>use_obj_on_p_proc</title>
<ellipse fill="#ffffff" stroke="#000000" cx="778" cy="-114.25" rx="27" ry="18"/>
</g>
<!-- damage_p_proc -->
<g id="node7" class="node">
<title>damage_p_proc</title>
<ellipse fill="#ffffff" stroke="#000000" cx="850" cy="-114.25" rx="27" ry="18"/>
</g>
<!-- map_enter_p_proc -->
<g id="node8" class="node">
<title>map_enter_p_proc</title>
<ellipse fill="#ffffff" stroke="#000000" cx="922" cy="-114.25" rx="27" ry="18"/>
</g>
<!-- map_update_p_proc -->
<g id="node9" class="node">
<title>map_update_p_proc</title>
<ellipse fill="#ffffff" stroke="#000000" cx="994" cy="-114.25" rx="27" ry="18"/>
</g>
<!-- talk_p_proc -->
<g id="node10" class="node">
<title>talk_p_proc</title>
<ellipse fill="#ffffff" stroke="#000000" cx="1066" cy="-114.25" rx="27" ry="18"/>
</g>
<!-- Node002 -->
<g id="node11" class="node">
<title>Node002</title>
<ellipse fill="#ffffff" stroke="#000000" cx="1066" cy="-18" rx="27" ry="18"/>
</g>
<!-- talk_p_proc&#45;&gt;Node002 -->
<g id="edge1" class="edge">
<title>talk_p_proc&#45;&gt;Node002</title>
<path fill="none" stroke="#555555" stroke-dasharray="1,5" d="M1066,-95.96C1066,-82.36 1066,-63.13 1066,-47.3"/>
<polygon fill="#555555" stroke="#555555" points="1069.5,-47.5 1066,-37.5 1062.5,-47.5 1069.5,-47.5"/>
</g>
<!-- critter_p_proc -->
<g id="node12" class="node">
<title>critter_p_proc</title>
<ellipse fill="#ffffff" stroke="#000000" cx="1138" cy="-114.25" rx="27" ry="18"/>
</g>
<!-- Node003 -->
<g id="node13" class="node">
<title>Node003</title>
<ellipse fill="#ffffff" stroke="#000000" cx="1138" cy="-18" rx="27" ry="18"/>
</g>
<!-- critter_p_proc&#45;&gt;Node003 -->
<g id="edge2" class="edge">
<title>critter_p_proc&#45;&gt;Node003</title>
<path fill="none" stroke="#555555" stroke-dasharray="1,5" d="M1138,-95.96C1138,-82.36 1138,-63.13 1138,-47.3"/>
<polygon fill="#555555" stroke="#555555" points="1141.5,-47.5 1138,-37.5 1134.5,-47.5 1141.5,-47.5"/>
</g>
<!-- timed_event_p_proc -->
<g id="node14" class="node">
<title>timed_event_p_proc</title>
<ellipse fill="#ffffff" stroke="#000000" cx="1210" cy="-114.25" rx="27" ry="18"/>
</g>
<!-- destroy_p_proc -->
<g id="node15" class="node">
<title>destroy_p_proc</title>
<ellipse fill="#ffffff" stroke="#000000" cx="1282" cy="-114.25" rx="27" ry="18"/>
</g>
<!-- pickup_p_proc -->
<g id="node16" class="node">
<title>pickup_p_proc</title>
<ellipse fill="#ffffff" stroke="#000000" cx="1354" cy="-114.25" rx="27" ry="18"/>
</g>
</g>
</svg>
