<?xml version="1.0" encoding="UTF-8" standalone="no"?>
<!DOCTYPE svg PUBLIC "-//W3C//DTD SVG 1.1//EN"
 "http://www.w3.org/Graphics/SVG/1.1/DTD/svg11.dtd">
<!-- Generated by graphviz version 8.0.5 (0)
 -->
<!-- Title: hcdorgrd Pages: 1 -->
<svg width="3798pt" height="2407pt"
 viewBox="0.00 0.00 3797.73 2406.83" xmlns="http://www.w3.org/2000/svg" xmlns:xlink="http://www.w3.org/1999/xlink">
<g id="graph0" class="graph" transform="scale(1 1) rotate(0) translate(4 2402.83)">
<title>hcdorgrd</title>
<polygon fill="white" stroke="none" points="-4,4 -4,-2402.83 3793.73,-2402.83 3793.73,4 -4,4"/>
<!-- start -->
<g id="node1" class="node">
<title>start</title>
<ellipse fill="#ffffff" stroke="#000000" cx="27" cy="-2368.78" rx="27" ry="18"/>
</g>
<!-- use_p_proc -->
<g id="node2" class="node">
<title>use_p_proc</title>
<ellipse fill="#ffffff" stroke="#000000" cx="99" cy="-2368.78" rx="27" ry="18"/>
</g>
<!-- look_at_p_proc -->
<g id="node3" class="node">
<title>look_at_p_proc</title>
<ellipse fill="#ffffff" stroke="#000000" cx="268" cy="-2368.78" rx="123.74" ry="30.05"/>
<text text-anchor="middle" x="268" y="-2372.73" font-family="Times,serif" font-size="14.00">Вы видите охранника</text>
<text text-anchor="middle" x="268" y="-2355.48" font-family="Times,serif" font-size="14.00">хабологов.</text>
</g>
<!-- description_p_proc -->
<g id="node4" class="node">
<title>description_p_proc</title>
<ellipse fill="#ffffff" stroke="#000000" cx="546" cy="-2368.78" rx="136.47" ry="30.05"/>
<text text-anchor="middle" x="546" y="-2372.73" font-family="Times,serif" font-size="14.00">Он выглядит крепким и</text>
<text text-anchor="middle" x="546" y="-2355.48" font-family="Times,serif" font-size="14.00">хорошо вооруженным.</text>
</g>
<!-- use_skill_on_p_proc -->
<g id="node5" class="node">
<title>use_skill_on_p_proc</title>
<ellipse fill="#ffffff" stroke="#000000" cx="727" cy="-2368.78" rx="27" ry="18"/>
</g>
<!-- use_obj_on_p_proc -->
<g id="node6" class="node">
<title>use_obj_on_p_proc</title>
<ellipse fill="#ffffff" stroke="#000000" cx="799" cy="-2368.78" rx="27" ry="18"/>
</g>
<!-- damage_p_proc -->
<g id="node7" class="node">
<title>damage_p_proc</title>
<ellipse fill="#ffffff" stroke="#000000" cx="871" cy="-2368.78" rx="27" ry="18"/>
</g>
<!-- destroy_p_proc -->
<g id="node8" class="node">
<title>destroy_p_proc</title>
<ellipse fill="#ffffff" stroke="#000000" cx="943" cy="-2368.78" rx="27" ry="18"/>
</g>
<!-- map_enter_p_proc -->
<g id="node9" class="node">
<title>map_enter_p_proc</title>
<ellipse fill="#ffffff" stroke="#000000" cx="1015" cy="-2368.78" rx="27" ry="18"/>
</g>
<!-- map_update_p_proc -->
<g id="node10" class="node">
<title>map_update_p_proc</title>
<ellipse fill="#ffffff" stroke="#000000" cx="1087" cy="-2368.78" rx="27" ry="18"/>
</g>
<!-- talk_p_proc -->
<g id="node11" class="node">
<title>talk_p_proc</title>
<ellipse fill="#ffffff" stroke="#000000" cx="1159" cy="-2235.08" rx="161.4" ry="66.64"/>
<text text-anchor="middle" x="1159" y="-2264.91" font-family="Times,serif" font-size="14.00">Последнее предупреждение.</text>
<text text-anchor="middle" x="1159" y="-2247.66" font-family="Times,serif" font-size="14.00">Уходи или я буду</text>
<text text-anchor="middle" x="1159" y="-2230.41" font-family="Times,serif" font-size="14.00">стрелять.</text>
<text text-anchor="middle" x="1159" y="-2213.16" font-family="Times,serif" font-size="14.00">&#45;&#45;&#45;</text>
<text text-anchor="middle" x="1159" y="-2195.91" font-family="Times,serif" font-size="14.00">Я тебя предупреждал!</text>
</g>
<!-- Node998 -->
<g id="node12" class="node">
<title>Node998</title>
<ellipse fill="#ffffff" stroke="#000000" cx="1120" cy="-1078.62" rx="27" ry="18"/>
</g>
<!-- talk_p_proc&#45;&gt;Node998 -->
<g id="edge1" class="edge">
<title>talk_p_proc&#45;&gt;Node998</title>
<path fill="none" stroke="#555555" stroke-dasharray="1,5" d="M1268.09,-2185.53C1307.28,-2160.16 1342,-2124.55 1342,-2077.99 1342,-2077.99 1342,-2077.99 1342,-1506.88 1342,-1444.87 1350,-1426.04 1328,-1368.05 1285.22,-1255.3 1186.62,-1146.68 1142.29,-1101.53"/>
<polygon fill="#555555" stroke="#555555" points="1145.2,-1099.49 1135.67,-1094.86 1140.23,-1104.42 1145.2,-1099.49"/>
</g>
<!-- Node001 -->
<g id="node13" class="node">
<title>Node001</title>
<ellipse fill="#ffffff" stroke="#000000" cx="977" cy="-2076.99" rx="143.37" ry="54.45"/>
<text text-anchor="middle" x="977" y="-2098.19" font-family="Times,serif" font-size="14.00">Стоять! Это частная</text>
<text text-anchor="middle" x="977" y="-2080.94" font-family="Times,serif" font-size="14.00">территория Церкви</text>
<text text-anchor="middle" x="977" y="-2063.69" font-family="Times,serif" font-size="14.00">Хабологов. Что вам здесь</text>
<text text-anchor="middle" x="977" y="-2046.44" font-family="Times,serif" font-size="14.00">надо?</text>
</g>
<!-- talk_p_proc&#45;&gt;Node001 -->
<g id="edge2" class="edge">
<title>talk_p_proc&#45;&gt;Node001</title>
<path fill="none" stroke="#555555" stroke-dasharray="1,5" d="M1089.67,-2174.63C1074.11,-2161.27 1057.64,-2147.15 1042.24,-2133.95"/>
<polygon fill="#555555" stroke="#555555" points="1045.17,-2130.99 1035.3,-2127.13 1040.61,-2136.3 1045.17,-2130.99"/>
</g>
<!-- Node002 -->
<g id="node14" class="node">
<title>Node002</title>
<ellipse fill="#ffffff" stroke="#000000" cx="561" cy="-1809.25" rx="145.49" ry="91.04"/>
<text text-anchor="middle" x="561" y="-1856.33" font-family="Times,serif" font-size="14.00">[Он жестоко усмехается.]</text>
<text text-anchor="middle" x="561" y="-1839.08" font-family="Times,serif" font-size="14.00">Ты смелый. Мне это</text>
<text text-anchor="middle" x="561" y="-1821.83" font-family="Times,serif" font-size="14.00">нравится. Давай</text>
<text text-anchor="middle" x="561" y="-1804.58" font-family="Times,serif" font-size="14.00">посмотрим, какой ты</text>
<text text-anchor="middle" x="561" y="-1787.33" font-family="Times,serif" font-size="14.00">будешь смелый, когда я</text>
<text text-anchor="middle" x="561" y="-1770.08" font-family="Times,serif" font-size="14.00">оставлю твой труп</text>
<text text-anchor="middle" x="561" y="-1752.83" font-family="Times,serif" font-size="14.00">пылиться на солнце.</text>
</g>
<!-- Node001&#45;&gt;Node002 -->
<g id="edge3" class="edge">
<title>Node001&#45;&gt;Node002</title>
<path fill="none" stroke="#009699" d="M838.96,-2061.83C789.66,-2051.68 735.83,-2034.3 693.25,-2004.54 657.48,-1979.55 628.52,-1941.54 606.92,-1905.74"/>
<polygon fill="#009699" stroke="#009699" points="609.68,-1904.53 601.59,-1897.7 603.65,-1908.09 609.68,-1904.53"/>
<text text-anchor="middle" x="790.38" y="-1982.62" font-family="Times,serif" font-size="14.00" fill="#009699">Сейчас я буду грабить это</text>
<text text-anchor="middle" x="790.38" y="-1965.37" font-family="Times,serif" font-size="14.00" fill="#009699">место. До меня дошли</text>
<text text-anchor="middle" x="790.38" y="-1948.12" font-family="Times,serif" font-size="14.00" fill="#009699">слухи, что здесь лежит</text>
<text text-anchor="middle" x="790.38" y="-1930.87" font-family="Times,serif" font-size="14.00" fill="#009699">много ценного.</text>
</g>
<!-- Node003 -->
<g id="node15" class="node">
<title>Node003</title>
<ellipse fill="#ffffff" stroke="#000000" cx="1175" cy="-1809.25" rx="139.12" ry="66.64"/>
<text text-anchor="middle" x="1175" y="-1839.08" font-family="Times,serif" font-size="14.00">Да? [Он внимательно</text>
<text text-anchor="middle" x="1175" y="-1821.83" font-family="Times,serif" font-size="14.00">осматривает вас.] Тогда</text>
<text text-anchor="middle" x="1175" y="-1804.58" font-family="Times,serif" font-size="14.00">вы не будете возражать,</text>
<text text-anchor="middle" x="1175" y="-1787.33" font-family="Times,serif" font-size="14.00">если я задам несколько</text>
<text text-anchor="middle" x="1175" y="-1770.08" font-family="Times,serif" font-size="14.00">вопросов о нашей вере.</text>
</g>
<!-- Node001&#45;&gt;Node003 -->
<g id="edge4" class="edge">
<title>Node001&#45;&gt;Node003</title>
<path fill="none" stroke="#996f00" d="M1038.95,-2027.53C1046.77,-2020.22 1054.35,-2012.46 1061,-2004.54 1091.71,-1967.96 1119.07,-1922.05 1139.28,-1884.05"/>
<polygon fill="#996f00" stroke="#996f00" points="1142.71,-1886.05 1144.27,-1875.57 1136.51,-1882.79 1142.71,-1886.05"/>
<text text-anchor="middle" x="1220" y="-1991.24" font-family="Times,serif" font-size="14.00" fill="#996f00">Тебе не стоит</text>
<text text-anchor="middle" x="1220" y="-1973.99" font-family="Times,serif" font-size="14.00" fill="#996f00">беспокоиться брат, потому</text>
<text text-anchor="middle" x="1220" y="-1956.74" font-family="Times,serif" font-size="14.00" fill="#996f00">что мы родственные души.</text>
<text text-anchor="middle" x="1220" y="-1939.49" font-family="Times,serif" font-size="14.00" fill="#996f00">Я тоже нахожусь в</text>
<text text-anchor="middle" x="1220" y="-1922.24" font-family="Times,serif" font-size="14.00" fill="#996f00">объятиях Церкви.</text>
</g>
<!-- Node013 -->
<g id="node16" class="node">
<title>Node013</title>
<ellipse fill="#ffffff" stroke="#000000" cx="871" cy="-1809.25" rx="146.55" ry="42.25"/>
<text text-anchor="middle" x="871" y="-1821.83" font-family="Times,serif" font-size="14.00">[Он странно смотрит на</text>
<text text-anchor="middle" x="871" y="-1804.58" font-family="Times,serif" font-size="14.00">вас.] Ну, тогда вам нужно</text>
<text text-anchor="middle" x="871" y="-1787.33" font-family="Times,serif" font-size="14.00">пароль.</text>
</g>
<!-- Node001&#45;&gt;Node013 -->
<g id="edge5" class="edge">
<title>Node001&#45;&gt;Node013</title>
<path fill="none" stroke="#430099" d="M931.61,-2025.12C926.99,-2018.48 922.73,-2011.54 919.25,-2004.54 896.78,-1959.36 884.27,-1902.94 877.66,-1862.55"/>
<polygon fill="#430099" stroke="#430099" points="880.99,-1862.21 875.99,-1852.87 874.08,-1863.29 880.99,-1862.21"/>
<text text-anchor="middle" x="990.88" y="-1956.74" font-family="Times,serif" font-size="14.00" fill="#430099">Моя хотеть внутрь.</text>
</g>
<!-- Node003&#45;&gt;Node998 -->
<g id="edge7" class="edge">
<title>Node003&#45;&gt;Node998</title>
<path fill="none" stroke="#990017" d="M1155.02,-1742.9C1147.1,-1714.02 1138.86,-1679.47 1134.5,-1647.71 1106.29,-1442.08 1114.65,-1190.76 1118.53,-1107.72"/>
<polygon fill="#990017" stroke="#990017" points="1122.06,-1108.09 1119.05,-1097.93 1115.07,-1107.75 1122.06,-1108.09"/>
<text text-anchor="middle" x="1231.75" y="-1520.46" font-family="Times,serif" font-size="14.00" fill="#990017">Несколько вопросов?</text>
<text text-anchor="middle" x="1231.75" y="-1503.21" font-family="Times,serif" font-size="14.00" fill="#990017">Знаешь, что? Забудь, я</text>
<text text-anchor="middle" x="1231.75" y="-1485.96" font-family="Times,serif" font-size="14.00" fill="#990017">наврал. Давай потанцуем.</text>
</g>
<!-- Node004 -->
<g id="node17" class="node">
<title>Node004</title>
<ellipse fill="#ffffff" stroke="#000000" cx="2221" cy="-1507.88" rx="152.38" ry="139.83"/>
<text text-anchor="middle" x="2221" y="-1589.46" font-family="Times,serif" font-size="14.00">Кто был основателем</text>
<text text-anchor="middle" x="2221" y="-1572.21" font-family="Times,serif" font-size="14.00">Церкви?</text>
<text text-anchor="middle" x="2221" y="-1554.96" font-family="Times,serif" font-size="14.00">&#45;&#45;&#45;</text>
<text text-anchor="middle" x="2221" y="-1537.71" font-family="Times,serif" font-size="14.00">Церковь считает, что</text>
<text text-anchor="middle" x="2221" y="-1520.46" font-family="Times,serif" font-size="14.00">жизнь, вселенная, и все</text>
<text text-anchor="middle" x="2221" y="-1503.21" font-family="Times,serif" font-size="14.00">остальное может быть</text>
<text text-anchor="middle" x="2221" y="-1485.96" font-family="Times,serif" font-size="14.00">символом чего?</text>
<text text-anchor="middle" x="2221" y="-1468.71" font-family="Times,serif" font-size="14.00">&#45;&#45;&#45;</text>
<text text-anchor="middle" x="2221" y="-1451.46" font-family="Times,serif" font-size="14.00">В контексте церкви, что</text>
<text text-anchor="middle" x="2221" y="-1434.21" font-family="Times,serif" font-size="14.00">подразумевается под</text>
<text text-anchor="middle" x="2221" y="-1416.96" font-family="Times,serif" font-size="14.00">термином &quot;Просвещение&quot;?</text>
</g>
<!-- Node003&#45;&gt;Node004 -->
<g id="edge6" class="edge">
<title>Node003&#45;&gt;Node004</title>
<path fill="none" stroke="#009916" d="M1293.97,-1774.2C1483.54,-1719.95 1854.17,-1613.87 2064.84,-1553.58"/>
<polygon fill="#009916" stroke="#009916" points="2065.72,-1556.68 2074.37,-1550.56 2063.79,-1549.95 2065.72,-1556.68"/>
<text text-anchor="middle" x="1723.38" y="-1678.29" font-family="Times,serif" font-size="14.00" fill="#009916">Валяй. Я готов.</text>
</g>
<!-- Node014 -->
<g id="node31" class="node">
<title>Node014</title>
<ellipse fill="#ffffff" stroke="#000000" cx="866" cy="-1507.88" rx="151.32" ry="78.84"/>
<text text-anchor="middle" x="866" y="-1546.33" font-family="Times,serif" font-size="14.00">Слушай, мне некогда тут с</text>
<text text-anchor="middle" x="866" y="-1529.08" font-family="Times,serif" font-size="14.00">тобой болтаться. Тебе</text>
<text text-anchor="middle" x="866" y="-1511.83" font-family="Times,serif" font-size="14.00">явно нельзя здесь</text>
<text text-anchor="middle" x="866" y="-1494.58" font-family="Times,serif" font-size="14.00">находиться, так что либо</text>
<text text-anchor="middle" x="866" y="-1477.33" font-family="Times,serif" font-size="14.00">называй пароль, либо</text>
<text text-anchor="middle" x="866" y="-1460.08" font-family="Times,serif" font-size="14.00">катись к черту.</text>
</g>
<!-- Node013&#45;&gt;Node014 -->
<g id="edge30" class="edge">
<title>Node013&#45;&gt;Node014</title>
<path fill="none" stroke="#849900" d="M872.42,-1766.7C873.04,-1746.62 873.7,-1722.17 874,-1700.21 874.21,-1684.88 874.39,-1681.04 874,-1665.71 873.44,-1643.7 872.44,-1619.96 871.32,-1597.78"/>
<polygon fill="#849900" stroke="#849900" points="874.78,-1597.84 870.77,-1588.03 867.79,-1598.2 874.78,-1597.84"/>
<text text-anchor="middle" x="967.62" y="-1686.91" font-family="Times,serif" font-size="14.00" fill="#849900">Моя нужно пернуть, а не</text>
<text text-anchor="middle" x="967.62" y="-1669.66" font-family="Times,serif" font-size="14.00" fill="#849900">пароль.</text>
</g>
<!-- Node013&#45;&gt;Node014 -->
<g id="edge31" class="edge">
<title>Node013&#45;&gt;Node014</title>
<path fill="none" stroke="#820099" d="M800.99,-1771.82C774.53,-1754.07 747.3,-1730.06 732.75,-1700.21 712.21,-1658.1 737.49,-1614.96 771.34,-1580.32"/>
<polygon fill="#820099" stroke="#820099" points="773.5,-1583.13 778.16,-1573.62 768.58,-1578.15 773.5,-1583.13"/>
<text text-anchor="middle" x="801.62" y="-1678.29" font-family="Times,serif" font-size="14.00" fill="#820099">Моя хочет внутрь!</text>
</g>
<!-- Node005 -->
<g id="node18" class="node">
<title>Node005</title>
<ellipse fill="#ffffff" stroke="#000000" cx="1996" cy="-1078.62" rx="157.68" ry="78.84"/>
<text text-anchor="middle" x="1996" y="-1117.07" font-family="Times,serif" font-size="14.00">Ха! Неправильно.</text>
<text text-anchor="middle" x="1996" y="-1099.82" font-family="Times,serif" font-size="14.00">Дедовский метод задавания</text>
<text text-anchor="middle" x="1996" y="-1082.57" font-family="Times,serif" font-size="14.00">вопросов всегда</text>
<text text-anchor="middle" x="1996" y="-1065.32" font-family="Times,serif" font-size="14.00">срабатывает. Теперь мне</text>
<text text-anchor="middle" x="1996" y="-1048.07" font-family="Times,serif" font-size="14.00">придется убить тебя,</text>
<text text-anchor="middle" x="1996" y="-1030.82" font-family="Times,serif" font-size="14.00">самозванец!</text>
</g>
<!-- Node004&#45;&gt;Node005 -->
<g id="edge8" class="edge">
<title>Node004&#45;&gt;Node005</title>
<path fill="none" stroke="#004399" d="M2368.09,-1469.72C2429.58,-1446.14 2494.99,-1408.63 2531,-1350.05 2547.06,-1323.93 2549.9,-1236.2 2531,-1212.05 2485.49,-1153.9 2300.36,-1117.73 2160.53,-1098.17"/>
<polygon fill="#004399" stroke="#004399" points="2161.08,-1094.58 2150.69,-1096.68 2160.12,-1101.51 2161.08,-1094.58"/>
<text text-anchor="middle" x="2601" y="-1276.38" font-family="Times,serif" font-size="14.00" fill="#004399">Герберт Дженц</text>
</g>
<!-- Node004&#45;&gt;Node005 -->
<g id="edge10" class="edge">
<title>Node004&#45;&gt;Node005</title>
<path fill="none" stroke="#950099" d="M2373.15,-1496.25C2473.13,-1480.44 2597.05,-1442.09 2662,-1350.05 2697.36,-1299.94 2700.91,-1259.46 2662,-1212.05 2600.1,-1136.63 2339.79,-1103.37 2163.54,-1089.29"/>
<polygon fill="#950099" stroke="#950099" points="2163.82,-1085.72 2153.58,-1088.43 2163.27,-1092.7 2163.82,-1085.72"/>
<text text-anchor="middle" x="2726.5" y="-1276.38" font-family="Times,serif" font-size="14.00" fill="#950099">Хуан Круз</text>
</g>
<!-- Node004&#45;&gt;Node005 -->
<g id="edge11" class="edge">
<title>Node004&#45;&gt;Node005</title>
<path fill="none" stroke="#009969" d="M2371.43,-1484.16C2515.69,-1458.94 2718.4,-1413.28 2766,-1350.05 2784.44,-1325.55 2785.76,-1235.5 2766,-1212.05 2690.65,-1122.63 2367.52,-1093.59 2164.56,-1084.16"/>
<polygon fill="#009969" stroke="#009969" points="2164.93,-1080.62 2154.78,-1083.67 2164.61,-1087.62 2164.93,-1080.62"/>
<text text-anchor="middle" x="2804" y="-1276.38" font-family="Times,serif" font-size="14.00" fill="#009969">НИК&#45;9</text>
</g>
<!-- Node004&#45;&gt;Node005 -->
<g id="edge12" class="edge">
<title>Node004&#45;&gt;Node005</title>
<path fill="none" stroke="#993c00" d="M2372.33,-1489.2C2534.47,-1466.76 2776.12,-1422.09 2832,-1350.05 2850.8,-1325.82 2851.92,-1235.37 2832,-1212.05 2747.95,-1113.64 2383.75,-1087.96 2164.73,-1081.51"/>
<polygon fill="#993c00" stroke="#993c00" points="2164.86,-1077.98 2154.76,-1081.2 2164.66,-1084.98 2164.86,-1077.98"/>
<text text-anchor="middle" x="2909.75" y="-1276.38" font-family="Times,serif" font-size="14.00" fill="#993c00">Хьюго Ричардсон</text>
</g>
<!-- Node004&#45;&gt;Node005 -->
<g id="edge13" class="edge">
<title>Node004&#45;&gt;Node005</title>
<path fill="none" stroke="#0f0099" d="M2068.6,-1501.15C1849.53,-1489.34 1462.39,-1453.95 1376,-1350.05 1356.39,-1326.47 1356.71,-1235.9 1376,-1212.05 1432.05,-1142.76 1665.3,-1108.14 1829.12,-1092.05"/>
<polygon fill="#0f0099" stroke="#0f0099" points="1829.19,-1095.47 1838.81,-1091.02 1828.52,-1088.5 1829.19,-1095.47"/>
<text text-anchor="middle" x="1400" y="-1276.38" font-family="Times,serif" font-size="14.00" fill="#0f0099">Круга.</text>
</g>
<!-- Node004&#45;&gt;Node005 -->
<g id="edge14" class="edge">
<title>Node004&#45;&gt;Node005</title>
<path fill="none" stroke="#1d9900" d="M2068.65,-1498.22C1865.97,-1483.15 1524.19,-1444.16 1447.25,-1350.05 1427.84,-1326.31 1428.28,-1236.15 1447.25,-1212.05 1494.46,-1152.1 1687.29,-1116.08 1831.11,-1097.06"/>
<polygon fill="#1d9900" stroke="#1d9900" points="1831.35,-1100.43 1840.81,-1095.67 1830.45,-1093.49 1831.35,-1100.43"/>
<text text-anchor="middle" x="1471.38" y="-1276.38" font-family="Times,serif" font-size="14.00" fill="#1d9900">Денег.</text>
</g>
<!-- Node004&#45;&gt;Node005 -->
<g id="edge16" class="edge">
<title>Node004&#45;&gt;Node005</title>
<path fill="none" stroke="#007799" d="M2068.88,-1494.68C1883.63,-1476.3 1586.99,-1434.3 1519.5,-1350.05 1500.33,-1326.12 1500.94,-1236.47 1519.5,-1212.05 1557.99,-1161.4 1711.57,-1125.02 1834.11,-1103.35"/>
<polygon fill="#007799" stroke="#007799" points="1834.49,-1106.66 1843.74,-1101.5 1833.29,-1099.77 1834.49,-1106.66"/>
<text text-anchor="middle" x="1563.25" y="-1276.38" font-family="Times,serif" font-size="14.00" fill="#007799">Рога Одина.</text>
</g>
<!-- Node004&#45;&gt;Node005 -->
<g id="edge17" class="edge">
<title>Node004&#45;&gt;Node005</title>
<path fill="none" stroke="#998f00" d="M2069.84,-1487.69C1913.29,-1464.35 1684.22,-1419.27 1631,-1350.05 1612.31,-1325.74 1613.4,-1237.17 1631,-1212.05 1676.45,-1147.21 1757.05,-1113.99 1830.97,-1097.02"/>
<polygon fill="#998f00" stroke="#998f00" points="1831.34,-1100.31 1840.35,-1094.74 1829.83,-1093.47 1831.34,-1100.31"/>
<text text-anchor="middle" x="1653.5" y="-1276.38" font-family="Times,serif" font-size="14.00" fill="#998f00">Рыбы.</text>
</g>
<!-- Node004&#45;&gt;Node005 -->
<g id="edge18" class="edge">
<title>Node004&#45;&gt;Node005</title>
<path fill="none" stroke="#620099" d="M2070.93,-1482.16C1933.05,-1456.03 1743.53,-1410.25 1698.75,-1350.05 1680.45,-1325.45 1682.05,-1237.78 1698.75,-1212.05 1730.75,-1162.76 1785.83,-1131.66 1839.94,-1112.11"/>
<polygon fill="#620099" stroke="#620099" points="1840.74,-1115.19 1849.03,-1108.59 1838.43,-1108.58 1840.74,-1115.19"/>
<text text-anchor="middle" x="1778.62" y="-1285" font-family="Times,serif" font-size="14.00" fill="#620099">Пополнение телесной</text>
<text text-anchor="middle" x="1778.62" y="-1267.75" font-family="Times,serif" font-size="14.00" fill="#620099">сущности.</text>
</g>
<!-- Node004&#45;&gt;Node005 -->
<g id="edge19" class="edge">
<title>Node004&#45;&gt;Node005</title>
<path fill="none" stroke="#009936" d="M2072.31,-1476.83C2002.13,-1454.39 1924.73,-1415.79 1882.75,-1350.05 1849.74,-1298.36 1861.5,-1269.59 1882.75,-1212.05 1890.04,-1192.3 1901.75,-1173.5 1914.92,-1156.59"/>
<polygon fill="#009936" stroke="#009936" points="1917.93,-1159.42 1921.49,-1149.44 1912.49,-1155.03 1917.93,-1159.42"/>
<text text-anchor="middle" x="1985.12" y="-1276.38" font-family="Times,serif" font-size="14.00" fill="#009936">Состояние полной эйфории.</text>
</g>
<!-- Node004&#45;&gt;Node005 -->
<g id="edge20" class="edge">
<title>Node004&#45;&gt;Node005</title>
<path fill="none" stroke="#990900" d="M2133.87,-1392.79C2125.75,-1378.87 2118.37,-1364.46 2112.5,-1350.05 2089.02,-1292.44 2112.68,-1269.59 2089,-1212.05 2081.78,-1194.52 2071.91,-1177.02 2061.27,-1160.76"/>
<polygon fill="#990900" stroke="#990900" points="2063.78,-1159.22 2055.3,-1152.87 2057.97,-1163.12 2063.78,-1159.22"/>
<text text-anchor="middle" x="2210.25" y="-1310.88" font-family="Times,serif" font-size="14.00" fill="#990900">Состояние, которое будет</text>
<text text-anchor="middle" x="2210.25" y="-1293.63" font-family="Times,serif" font-size="14.00" fill="#990900">достигнуто, когда ищущий</text>
<text text-anchor="middle" x="2210.25" y="-1276.38" font-family="Times,serif" font-size="14.00" fill="#990900">разовьет в себе</text>
<text text-anchor="middle" x="2210.25" y="-1259.13" font-family="Times,serif" font-size="14.00" fill="#990900">божественное понимание</text>
<text text-anchor="middle" x="2210.25" y="-1241.88" font-family="Times,serif" font-size="14.00" fill="#990900">истинной природы вещей.</text>
</g>
<!-- Node004&#45;&gt;Node005 -->
<g id="edge22" class="edge">
<title>Node004&#45;&gt;Node005</title>
<path fill="none" stroke="#509900" d="M2296.48,-1386.15C2301.52,-1374.27 2305.84,-1362.14 2309,-1350.05 2324.51,-1290.71 2342.88,-1263.18 2309,-1212.05 2274.03,-1159.28 2213.39,-1127.48 2154.74,-1108.34"/>
<polygon fill="#509900" stroke="#509900" points="2156.18,-1104.81 2145.59,-1105.15 2154.08,-1111.49 2156.18,-1104.81"/>
<text text-anchor="middle" x="2427.38" y="-1302.25" font-family="Times,serif" font-size="14.00" fill="#509900">Конечная точка на</text>
<text text-anchor="middle" x="2427.38" y="-1285" font-family="Times,serif" font-size="14.00" fill="#509900">духовном пути, когда</text>
<text text-anchor="middle" x="2427.38" y="-1267.75" font-family="Times,serif" font-size="14.00" fill="#509900">понимание своего &quot;я&quot;</text>
<text text-anchor="middle" x="2427.38" y="-1250.5" font-family="Times,serif" font-size="14.00" fill="#509900">сливается с высшим &quot;Мы&quot;.</text>
</g>
<!-- Node006 -->
<g id="node19" class="node">
<title>Node006</title>
<ellipse fill="#ffffff" stroke="#000000" cx="3239" cy="-1078.62" rx="156.09" ry="115.44"/>
<text text-anchor="middle" x="3239" y="-1142.94" font-family="Times,serif" font-size="14.00">Все верно. Только хаболог</text>
<text text-anchor="middle" x="3239" y="-1125.69" font-family="Times,serif" font-size="14.00">может иметь такую</text>
<text text-anchor="middle" x="3239" y="-1108.44" font-family="Times,serif" font-size="14.00">мудрость. Я приветствую</text>
<text text-anchor="middle" x="3239" y="-1091.19" font-family="Times,serif" font-size="14.00">вас, и прошу у вас</text>
<text text-anchor="middle" x="3239" y="-1073.94" font-family="Times,serif" font-size="14.00">прощения. Могу ли я</text>
<text text-anchor="middle" x="3239" y="-1056.69" font-family="Times,serif" font-size="14.00">спросить, зачем вы пришли</text>
<text text-anchor="middle" x="3239" y="-1039.44" font-family="Times,serif" font-size="14.00">сюда? Очень немногие из</text>
<text text-anchor="middle" x="3239" y="-1022.19" font-family="Times,serif" font-size="14.00">наших братьев знают об</text>
<text text-anchor="middle" x="3239" y="-1004.94" font-family="Times,serif" font-size="14.00">этом месте.</text>
</g>
<!-- Node004&#45;&gt;Node006 -->
<g id="edge9" class="edge">
<title>Node004&#45;&gt;Node006</title>
<path fill="none" stroke="#709900" d="M2373.8,-1505.02C2624.26,-1498.49 3105.54,-1470.2 3217,-1350.05 3227.32,-1338.93 3232.82,-1270.52 3235.75,-1205.29"/>
<polygon fill="#709900" stroke="#709900" points="3239.28,-1205.58 3236.21,-1195.44 3232.29,-1205.28 3239.28,-1205.58"/>
<text text-anchor="middle" x="3277.75" y="-1276.38" font-family="Times,serif" font-size="14.00" fill="#709900">Дик Хаббел</text>
</g>
<!-- Node004&#45;&gt;Node006 -->
<g id="edge15" class="edge">
<title>Node004&#45;&gt;Node006</title>
<path fill="none" stroke="#99004a" d="M2373.35,-1496.2C2661.57,-1474.43 3263.47,-1420.94 3325,-1350.05 3363.69,-1305.48 3347.33,-1243.39 3318.98,-1189.95"/>
<polygon fill="#99004a" stroke="#99004a" points="3321.63,-1188.51 3313.75,-1181.43 3315.49,-1191.88 3321.63,-1188.51"/>
<text text-anchor="middle" x="3433.62" y="-1276.38" font-family="Times,serif" font-size="14.00" fill="#99004a">Вращающегося колеса.</text>
</g>
<!-- Node004&#45;&gt;Node006 -->
<g id="edge21" class="edge">
<title>Node004&#45;&gt;Node006</title>
<path fill="none" stroke="#002499" d="M2372.93,-1494.88C2568.9,-1476.23 2894.56,-1433.4 2978,-1350.05 3022.33,-1305.78 2969.89,-1262.71 3006.75,-1212.05 3028.72,-1181.86 3059.81,-1157.57 3092.12,-1138.45"/>
<polygon fill="#002499" stroke="#002499" points="3093.34,-1141.21 3100.26,-1133.19 3089.85,-1135.14 3093.34,-1141.21"/>
<text text-anchor="middle" x="3109.12" y="-1336.75" font-family="Times,serif" font-size="14.00" fill="#002499">Состояние, которое будет</text>
<text text-anchor="middle" x="3109.12" y="-1319.5" font-family="Times,serif" font-size="14.00" fill="#002499">достигнуто, когда ищущий</text>
<text text-anchor="middle" x="3109.12" y="-1302.25" font-family="Times,serif" font-size="14.00" fill="#002499">получает достаточно</text>
<text text-anchor="middle" x="3109.12" y="-1285" font-family="Times,serif" font-size="14.00" fill="#002499">знаний и становится</text>
<text text-anchor="middle" x="3109.12" y="-1267.75" font-family="Times,serif" font-size="14.00" fill="#002499">неотъемлемой частью</text>
<text text-anchor="middle" x="3109.12" y="-1250.5" font-family="Times,serif" font-size="14.00" fill="#002499">вселенной, что позволяет</text>
<text text-anchor="middle" x="3109.12" y="-1233.25" font-family="Times,serif" font-size="14.00" fill="#002499">ему выйти за рамки земной</text>
<text text-anchor="middle" x="3109.12" y="-1216" font-family="Times,serif" font-size="14.00" fill="#002499">жизни.</text>
</g>
<!-- Node990 -->
<g id="node20" class="node">
<title>Node990</title>
<ellipse fill="#ffffff" stroke="#000000" cx="3137" cy="-626.29" rx="27" ry="18"/>
</g>
<!-- Node006&#45;&gt;Node990 -->
<g id="edge23" class="edge">
<title>Node006&#45;&gt;Node990</title>
<path fill="none" stroke="#99007d" d="M3176.83,-972.59C3164.57,-947.23 3153.38,-919.64 3146.5,-892.68 3125.03,-808.52 3130.01,-704.5 3134.15,-655.43"/>
<polygon fill="#99007d" stroke="#99007d" points="3137.7,-656 3135.11,-645.73 3130.73,-655.37 3137.7,-656"/>
<text text-anchor="middle" x="3245.75" y="-859.44" font-family="Times,serif" font-size="14.00" fill="#99007d">НИК&#45;9 послал меня</text>
<text text-anchor="middle" x="3245.75" y="-842.19" font-family="Times,serif" font-size="14.00" fill="#99007d">проверить пожертвования.</text>
<text text-anchor="middle" x="3245.75" y="-824.94" font-family="Times,serif" font-size="14.00" fill="#99007d">Он хочет убедиться, что у</text>
<text text-anchor="middle" x="3245.75" y="-807.69" font-family="Times,serif" font-size="14.00" fill="#99007d">вас все в порядке.</text>
</g>
<!-- Node010 -->
<g id="node21" class="node">
<title>Node010</title>
<ellipse fill="#ffffff" stroke="#000000" cx="3510" cy="-838.24" rx="155.03" ry="54.45"/>
<text text-anchor="middle" x="3510" y="-859.44" font-family="Times,serif" font-size="14.00">Но пожертвование не</text>
<text text-anchor="middle" x="3510" y="-842.19" font-family="Times,serif" font-size="14.00">обязательно делать здесь.</text>
<text text-anchor="middle" x="3510" y="-824.94" font-family="Times,serif" font-size="14.00">Вы могли бы сделать это</text>
<text text-anchor="middle" x="3510" y="-807.69" font-family="Times,serif" font-size="14.00">при любом нашем приходе.</text>
</g>
<!-- Node006&#45;&gt;Node010 -->
<g id="edge24" class="edge">
<title>Node006&#45;&gt;Node010</title>
<path fill="none" stroke="#009988" d="M3339.14,-989.53C3374.58,-958.35 3413.5,-924.12 3445.23,-896.21"/>
<polygon fill="#009988" stroke="#009988" points="3446.93,-898.49 3452.13,-889.26 3442.31,-893.24 3446.93,-898.49"/>
<text text-anchor="middle" x="3481.25" y="-931.88" font-family="Times,serif" font-size="14.00" fill="#009988">Я хочу сделать</text>
<text text-anchor="middle" x="3481.25" y="-914.63" font-family="Times,serif" font-size="14.00" fill="#009988">пожертвование.</text>
</g>
<!-- Node007 -->
<g id="node22" class="node">
<title>Node007</title>
<ellipse fill="#ffffff" stroke="#000000" cx="3006" cy="-155.89" rx="149.2" ry="66.64"/>
<text text-anchor="middle" x="3006" y="-185.72" font-family="Times,serif" font-size="14.00">А, ну я не знал о вашей</text>
<text text-anchor="middle" x="3006" y="-168.47" font-family="Times,serif" font-size="14.00">миссии. В этом случае, вы</text>
<text text-anchor="middle" x="3006" y="-151.22" font-family="Times,serif" font-size="14.00">можете свободно войти.</text>
<text text-anchor="middle" x="3006" y="-133.97" font-family="Times,serif" font-size="14.00">Позвольте открыть Вам</text>
<text text-anchor="middle" x="3006" y="-116.72" font-family="Times,serif" font-size="14.00">дверь.</text>
</g>
<!-- Node990&#45;&gt;Node007 -->
<g id="edge34" class="edge">
<title>Node990&#45;&gt;Node007</title>
<path fill="none" stroke="#555555" stroke-dasharray="1,5" d="M3111.07,-620.71C3084.49,-614.51 3044.39,-600.65 3025,-571.29 2957.97,-469.8 2971.11,-321.87 2987.82,-232.94"/>
<polygon fill="#555555" stroke="#555555" points="2991.39,-233.88 2989.87,-223.39 2984.52,-232.54 2991.39,-233.88"/>
</g>
<!-- Node008 -->
<g id="node24" class="node">
<title>Node008</title>
<ellipse fill="#ffffff" stroke="#000000" cx="3167" cy="-529.04" rx="133.29" ry="42.25"/>
<text text-anchor="middle" x="3167" y="-541.61" font-family="Times,serif" font-size="14.00">[Он хмурится.] Хм, мне</text>
<text text-anchor="middle" x="3167" y="-524.36" font-family="Times,serif" font-size="14.00">никто не говорил о</text>
<text text-anchor="middle" x="3167" y="-507.11" font-family="Times,serif" font-size="14.00">каких&#45;то проверках...</text>
</g>
<!-- Node990&#45;&gt;Node008 -->
<g id="edge35" class="edge">
<title>Node990&#45;&gt;Node008</title>
<path fill="none" stroke="#555555" stroke-dasharray="1,5" d="M3142.36,-608.26C3144.74,-600.72 3147.68,-591.39 3150.68,-581.85"/>
<polygon fill="#555555" stroke="#555555" points="3154.28,-583.06 3153.95,-572.47 3147.61,-580.96 3154.28,-583.06"/>
</g>
<!-- Node992 -->
<g id="node27" class="node">
<title>Node992</title>
<ellipse fill="#ffffff" stroke="#000000" cx="3510" cy="-626.29" rx="27" ry="18"/>
</g>
<!-- Node010&#45;&gt;Node992 -->
<g id="edge27" class="edge">
<title>Node010&#45;&gt;Node992</title>
<path fill="none" stroke="#009902" d="M3510,-783.44C3510,-742.54 3510,-687.91 3510,-655.3"/>
<polygon fill="#009902" stroke="#009902" points="3513.5,-655.34 3510,-645.34 3506.5,-655.34 3513.5,-655.34"/>
<text text-anchor="middle" x="3613.88" y="-752.49" font-family="Times,serif" font-size="14.00" fill="#009902">Я знаю, но НИК&#45;9 сказал</text>
<text text-anchor="middle" x="3613.88" y="-735.24" font-family="Times,serif" font-size="14.00" fill="#009902">мне, что новобранцы имеют</text>
<text text-anchor="middle" x="3613.88" y="-717.99" font-family="Times,serif" font-size="14.00" fill="#009902">право все здесь</text>
<text text-anchor="middle" x="3613.88" y="-700.74" font-family="Times,serif" font-size="14.00" fill="#009902">проверить, прежде чем</text>
<text text-anchor="middle" x="3613.88" y="-683.49" font-family="Times,serif" font-size="14.00" fill="#009902">сделают значительный</text>
<text text-anchor="middle" x="3613.88" y="-666.24" font-family="Times,serif" font-size="14.00" fill="#009902">вклад.</text>
</g>
<!-- Node997 -->
<g id="node23" class="node">
<title>Node997</title>
<ellipse fill="#ffffff" stroke="#000000" cx="3323" cy="-18" rx="27" ry="18"/>
</g>
<!-- Node007&#45;&gt;Node997 -->
<g id="edge25" class="edge">
<title>Node007&#45;&gt;Node997</title>
<path fill="none" stroke="#995c00" d="M3112.88,-109.08C3175.05,-82.42 3249.12,-50.67 3290.63,-32.88"/>
<polygon fill="#995c00" stroke="#995c00" points="3291.89,-35.71 3299.71,-28.56 3289.14,-29.28 3291.89,-35.71"/>
<text text-anchor="middle" x="3335.62" y="-57.95" font-family="Times,serif" font-size="14.00" fill="#995c00">Спасибо. До новых встреч.</text>
</g>
<!-- Node991 -->
<g id="node25" class="node">
<title>Node991</title>
<ellipse fill="#ffffff" stroke="#000000" cx="3167" cy="-277.54" rx="27" ry="18"/>
</g>
<!-- Node008&#45;&gt;Node991 -->
<g id="edge26" class="edge">
<title>Node008&#45;&gt;Node991</title>
<path fill="none" stroke="#2f0099" d="M3167,-486.56C3167,-435.66 3167,-350.73 3167,-306.79"/>
<polygon fill="#2f0099" stroke="#2f0099" points="3170.5,-306.8 3167,-296.8 3163.5,-306.8 3170.5,-306.8"/>
<text text-anchor="middle" x="3270.5" y="-455.49" font-family="Times,serif" font-size="14.00" fill="#2f0099">Слушай, НИК&#45;9</text>
<text text-anchor="middle" x="3270.5" y="-438.24" font-family="Times,serif" font-size="14.00" fill="#2f0099">инструктировал меня</text>
<text text-anchor="middle" x="3270.5" y="-420.99" font-family="Times,serif" font-size="14.00" fill="#2f0099">лично. Он просил, чтобы я</text>
<text text-anchor="middle" x="3270.5" y="-403.74" font-family="Times,serif" font-size="14.00" fill="#2f0099">поискал один артефакт,</text>
<text text-anchor="middle" x="3270.5" y="-386.49" font-family="Times,serif" font-size="14.00" fill="#2f0099">который был помещен сюда</text>
<text text-anchor="middle" x="3270.5" y="-369.24" font-family="Times,serif" font-size="14.00" fill="#2f0099">недавно. Он необходим ему</text>
<text text-anchor="middle" x="3270.5" y="-351.99" font-family="Times,serif" font-size="14.00" fill="#2f0099">чтобы достичь</text>
<text text-anchor="middle" x="3270.5" y="-334.74" font-family="Times,serif" font-size="14.00" fill="#2f0099">окончательного единства</text>
<text text-anchor="middle" x="3270.5" y="-317.49" font-family="Times,serif" font-size="14.00" fill="#2f0099">со Звездным Отцом.</text>
</g>
<!-- Node991&#45;&gt;Node007 -->
<g id="edge36" class="edge">
<title>Node991&#45;&gt;Node007</title>
<path fill="none" stroke="#555555" stroke-dasharray="1,5" d="M3149.46,-263.51C3135,-252.76 3113.33,-236.66 3091.19,-220.2"/>
<polygon fill="#555555" stroke="#555555" points="3093.47,-216.8 3083.36,-213.64 3089.3,-222.42 3093.47,-216.8"/>
</g>
<!-- Node009 -->
<g id="node26" class="node">
<title>Node009</title>
<ellipse fill="#ffffff" stroke="#000000" cx="3323" cy="-155.89" rx="149.73" ry="54.45"/>
<text text-anchor="middle" x="3323" y="-177.09" font-family="Times,serif" font-size="14.00">Мне становится больно от</text>
<text text-anchor="middle" x="3323" y="-159.84" font-family="Times,serif" font-size="14.00">твоей лжи. Наверное пора</text>
<text text-anchor="middle" x="3323" y="-142.59" font-family="Times,serif" font-size="14.00">избавить этот мир еще от</text>
<text text-anchor="middle" x="3323" y="-125.34" font-family="Times,serif" font-size="14.00">одного сорняка.</text>
</g>
<!-- Node991&#45;&gt;Node009 -->
<g id="edge37" class="edge">
<title>Node991&#45;&gt;Node009</title>
<path fill="none" stroke="#555555" stroke-dasharray="1,5" d="M3184.29,-263.28C3200.61,-250.76 3226.21,-231.12 3251,-212.11"/>
<polygon fill="#555555" stroke="#555555" points="3252.92,-214.29 3258.72,-205.43 3248.66,-208.74 3252.92,-214.29"/>
</g>
<!-- Node011 -->
<g id="node28" class="node">
<title>Node011</title>
<ellipse fill="#ffffff" stroke="#000000" cx="3640" cy="-155.89" rx="149.73" ry="54.45"/>
<text text-anchor="middle" x="3640" y="-177.09" font-family="Times,serif" font-size="14.00">А, понимаю. Ну ладно,</text>
<text text-anchor="middle" x="3640" y="-159.84" font-family="Times,serif" font-size="14.00">проходите, только не</text>
<text text-anchor="middle" x="3640" y="-142.59" font-family="Times,serif" font-size="14.00">болтайтесь здесь слишком</text>
<text text-anchor="middle" x="3640" y="-125.34" font-family="Times,serif" font-size="14.00">долго, пожалуйста.</text>
</g>
<!-- Node992&#45;&gt;Node011 -->
<g id="edge38" class="edge">
<title>Node992&#45;&gt;Node011</title>
<path fill="none" stroke="#555555" stroke-dasharray="1,5" d="M3534.68,-618.44C3557.43,-610.79 3590.27,-596.1 3608,-571.29 3682.31,-467.31 3669.11,-308.86 3653.93,-221.07"/>
<polygon fill="#555555" stroke="#555555" points="3657.23,-220.69 3652.02,-211.47 3650.34,-221.93 3657.23,-220.69"/>
</g>
<!-- Node012 -->
<g id="node29" class="node">
<title>Node012</title>
<ellipse fill="#ffffff" stroke="#000000" cx="3466" cy="-529.04" rx="133.29" ry="42.25"/>
<text text-anchor="middle" x="3466" y="-541.61" font-family="Times,serif" font-size="14.00">[Он хмурится.] Хм, мне</text>
<text text-anchor="middle" x="3466" y="-524.36" font-family="Times,serif" font-size="14.00">никто не говорил о</text>
<text text-anchor="middle" x="3466" y="-507.11" font-family="Times,serif" font-size="14.00">каких&#45;то проверках...</text>
</g>
<!-- Node992&#45;&gt;Node012 -->
<g id="edge39" class="edge">
<title>Node992&#45;&gt;Node012</title>
<path fill="none" stroke="#555555" stroke-dasharray="1,5" d="M3502.34,-608.7C3498.68,-600.78 3494.09,-590.84 3489.41,-580.71"/>
<polygon fill="#555555" stroke="#555555" points="3492.29,-579.61 3484.92,-572 3485.94,-582.55 3492.29,-579.61"/>
</g>
<!-- Node011&#45;&gt;Node997 -->
<g id="edge28" class="edge">
<title>Node011&#45;&gt;Node997</title>
<path fill="none" stroke="#99002a" d="M3557.9,-109.96C3521.76,-91.22 3478.42,-70.11 3438,-54 3411.89,-43.59 3381.43,-34.45 3358.42,-28.12"/>
<polygon fill="#99002a" stroke="#99002a" points="3359.66,-24.56 3349.09,-25.33 3357.83,-31.32 3359.66,-24.56"/>
<text text-anchor="middle" x="3575.62" y="-57.95" font-family="Times,serif" font-size="14.00" fill="#99002a">Спасибо. До новых встреч.</text>
</g>
<!-- Node993 -->
<g id="node30" class="node">
<title>Node993</title>
<ellipse fill="#ffffff" stroke="#000000" cx="3452" cy="-277.54" rx="27" ry="18"/>
</g>
<!-- Node012&#45;&gt;Node993 -->
<g id="edge29" class="edge">
<title>Node012&#45;&gt;Node993</title>
<path fill="none" stroke="#005799" d="M3455.52,-486.47C3454.38,-480.57 3453.4,-474.55 3452.75,-468.79 3446.29,-411.38 3448.31,-343.61 3450.23,-306.43"/>
<polygon fill="#005799" stroke="#005799" points="3453.76,-307.1 3450.82,-296.92 3446.77,-306.72 3453.76,-307.1"/>
<text text-anchor="middle" x="3538.62" y="-438.24" font-family="Times,serif" font-size="14.00" fill="#005799">Слушайте, я собираюсь</text>
<text text-anchor="middle" x="3538.62" y="-420.99" font-family="Times,serif" font-size="14.00" fill="#005799">отдать Церкви кучу</text>
<text text-anchor="middle" x="3538.62" y="-403.74" font-family="Times,serif" font-size="14.00" fill="#005799">зелени. Мне нужно</text>
<text text-anchor="middle" x="3538.62" y="-386.49" font-family="Times,serif" font-size="14.00" fill="#005799">убедиться, что мое</text>
<text text-anchor="middle" x="3538.62" y="-369.24" font-family="Times,serif" font-size="14.00" fill="#005799">пожертвование будет</text>
<text text-anchor="middle" x="3538.62" y="-351.99" font-family="Times,serif" font-size="14.00" fill="#005799">находиться здесь в</text>
<text text-anchor="middle" x="3538.62" y="-334.74" font-family="Times,serif" font-size="14.00" fill="#005799">целости и сохранности.</text>
</g>
<!-- Node993&#45;&gt;Node009 -->
<g id="edge41" class="edge">
<title>Node993&#45;&gt;Node009</title>
<path fill="none" stroke="#555555" stroke-dasharray="1,5" d="M3436.7,-262.34C3423.73,-250.32 3404.24,-232.24 3385.04,-214.44"/>
<polygon fill="#555555" stroke="#555555" points="3387.85,-212.34 3378.14,-208.11 3383.09,-217.47 3387.85,-212.34"/>
</g>
<!-- Node993&#45;&gt;Node011 -->
<g id="edge40" class="edge">
<title>Node993&#45;&gt;Node011</title>
<path fill="none" stroke="#555555" stroke-dasharray="1,5" d="M3471.06,-264.41C3491.54,-251.38 3525.48,-229.77 3557.6,-209.34"/>
<polygon fill="#555555" stroke="#555555" points="3559.03,-211.93 3565.59,-203.61 3555.28,-206.03 3559.03,-211.93"/>
</g>
<!-- Node014&#45;&gt;Node998 -->
<g id="edge33" class="edge">
<title>Node014&#45;&gt;Node998</title>
<path fill="none" stroke="#992900" d="M891.7,-1430.05C899.57,-1404.76 907.78,-1376.38 914,-1350.05 928.3,-1289.52 904.46,-1264.91 937.25,-1212.05 973.41,-1153.77 1045.58,-1113.26 1087.6,-1093.48"/>
<polygon fill="#992900" stroke="#992900" points="1088.71,-1096.36 1096.34,-1089.01 1085.79,-1090 1088.71,-1096.36"/>
<text text-anchor="middle" x="1022.38" y="-1285" font-family="Times,serif" font-size="14.00" fill="#992900">Моя хочить внутрь. Ты</text>
<text text-anchor="middle" x="1022.38" y="-1267.75" font-family="Times,serif" font-size="14.00" fill="#992900">умереть сейчас.</text>
</g>
<!-- Node994 -->
<g id="node32" class="node">
<title>Node994</title>
<ellipse fill="#ffffff" stroke="#000000" cx="836" cy="-1078.62" rx="27" ry="18"/>
</g>
<!-- Node014&#45;&gt;Node994 -->
<g id="edge32" class="edge">
<title>Node014&#45;&gt;Node994</title>
<path fill="none" stroke="#009955" d="M849.1,-1429.08C844.39,-1403.98 839.91,-1375.96 837.5,-1350.05 829.32,-1261.98 832.37,-1157.07 834.55,-1107.81"/>
<polygon fill="#009955" stroke="#009955" points="838.08,-1108.22 835.05,-1098.07 831.09,-1107.9 838.08,-1108.22"/>
<text text-anchor="middle" x="876.25" y="-1276.38" font-family="Times,serif" font-size="14.00" fill="#009955">Вах, пока!</text>
</g>
<!-- critter_p_proc -->
<g id="node33" class="node">
<title>critter_p_proc</title>
<ellipse fill="#ffffff" stroke="#000000" cx="1159" cy="-2368.78" rx="27" ry="18"/>
</g>
<!-- critter_p_proc&#45;&gt;talk_p_proc -->
<g id="edge42" class="edge">
<title>critter_p_proc&#45;&gt;talk_p_proc</title>
<path fill="none" stroke="#555555" stroke-dasharray="1,5" d="M1159,-2350.29C1159,-2340.26 1159,-2326.88 1159,-2312.82"/>
<polygon fill="#555555" stroke="#555555" points="1162.5,-2312.98 1159,-2302.98 1155.5,-2312.98 1162.5,-2312.98"/>
</g>
<!-- timed_event_p_proc -->
<g id="node34" class="node">
<title>timed_event_p_proc</title>
<ellipse fill="#ffffff" stroke="#000000" cx="1231" cy="-2368.78" rx="27" ry="18"/>
</g>
<!-- pickup_p_proc -->
<g id="node35" class="node">
<title>pickup_p_proc</title>
<ellipse fill="#ffffff" stroke="#000000" cx="1303" cy="-2368.78" rx="27" ry="18"/>
</g>
</g>
</svg>
