<?xml version="1.0" encoding="UTF-8" standalone="no"?>
<!DOCTYPE svg PUBLIC "-//W3C//DTD SVG 1.1//EN"
 "http://www.w3.org/Graphics/SVG/1.1/DTD/svg11.dtd">
<!-- Generated by graphviz version 8.0.5 (0)
 -->
<!-- Title: mcSlgGrd Pages: 1 -->
<svg width="2147pt" height="926pt"
 viewBox="0.00 0.00 2146.50 926.20" xmlns="http://www.w3.org/2000/svg" xmlns:xlink="http://www.w3.org/1999/xlink">
<g id="graph0" class="graph" transform="scale(1 1) rotate(0) translate(4 922.2)">
<title>mcSlgGrd</title>
<polygon fill="white" stroke="none" points="-4,4 -4,-922.2 2142.5,-922.2 2142.5,4 -4,4"/>
<!-- start -->
<g id="node1" class="node">
<title>start</title>
<ellipse fill="#ffffff" stroke="#000000" cx="836" cy="-863.75" rx="27" ry="18"/>
</g>
<!-- critter_p_proc -->
<g id="node2" class="node">
<title>critter_p_proc</title>
<ellipse fill="#ffffff" stroke="#000000" cx="908" cy="-863.75" rx="27" ry="18"/>
</g>
<!-- pickup_p_proc -->
<g id="node3" class="node">
<title>pickup_p_proc</title>
<ellipse fill="#ffffff" stroke="#000000" cx="27" cy="-232.04" rx="27" ry="18"/>
</g>
<!-- Node998 -->
<g id="node4" class="node">
<title>Node998</title>
<ellipse fill="#ffffff" stroke="#000000" cx="116" cy="-18" rx="27" ry="18"/>
</g>
<!-- pickup_p_proc&#45;&gt;Node998 -->
<g id="edge1" class="edge">
<title>pickup_p_proc&#45;&gt;Node998</title>
<path fill="none" stroke="#555555" stroke-dasharray="1,5" d="M33.49,-214.39C40.59,-196.27 52.37,-166.48 63,-141 76.78,-107.95 93.31,-70.18 104.21,-45.53"/>
<polygon fill="#555555" stroke="#555555" points="107.79,-47.07 108.64,-36.51 101.39,-44.24 107.79,-47.07"/>
</g>
<!-- talk_p_proc -->
<g id="node5" class="node">
<title>talk_p_proc</title>
<ellipse fill="#ffffff" stroke="#000000" cx="980" cy="-863.75" rx="27" ry="18"/>
</g>
<!-- Node007 -->
<g id="node6" class="node">
<title>Node007</title>
<ellipse fill="#ffffff" stroke="#000000" cx="1063" cy="-669.07" rx="147.08" ry="66.64"/>
<text text-anchor="middle" x="1063" y="-698.89" font-family="Times,serif" font-size="14.00">Если хочешь уйти, спроси</text>
<text text-anchor="middle" x="1063" y="-681.64" font-family="Times,serif" font-size="14.00">разрешения у Вегейра.</text>
<text text-anchor="middle" x="1063" y="-664.39" font-family="Times,serif" font-size="14.00">&#45;&#45;&#45;</text>
<text text-anchor="middle" x="1063" y="-647.14" font-family="Times,serif" font-size="14.00">Мне очень жаль, ты не</text>
<text text-anchor="middle" x="1063" y="-629.89" font-family="Times,serif" font-size="14.00">можешь так уйти.</text>
</g>
<!-- talk_p_proc&#45;&gt;Node007 -->
<g id="edge2" class="edge">
<title>talk_p_proc&#45;&gt;Node007</title>
<path fill="none" stroke="#555555" stroke-dasharray="1,5" d="M987.22,-845.99C996.96,-823.38 1014.93,-781.66 1030.93,-744.52"/>
<polygon fill="#555555" stroke="#555555" points="1034.42,-746.26 1035.16,-735.69 1027.99,-743.49 1034.42,-746.26"/>
</g>
<!-- Node003 -->
<g id="node7" class="node">
<title>Node003</title>
<ellipse fill="#ffffff" stroke="#000000" cx="756" cy="-669.07" rx="141.77" ry="78.84"/>
<text text-anchor="middle" x="756" y="-707.52" font-family="Times,serif" font-size="14.00">Нам велено всех</text>
<text text-anchor="middle" x="756" y="-690.27" font-family="Times,serif" font-size="14.00">наземников провожать к</text>
<text text-anchor="middle" x="756" y="-673.02" font-family="Times,serif" font-size="14.00">Вегейру. Тебе никто не</text>
<text text-anchor="middle" x="756" y="-655.77" font-family="Times,serif" font-size="14.00">причинит вреда.</text>
<text text-anchor="middle" x="756" y="-638.52" font-family="Times,serif" font-size="14.00">Пожалуйста, пойдем с</text>
<text text-anchor="middle" x="756" y="-621.27" font-family="Times,serif" font-size="14.00">нами.</text>
</g>
<!-- talk_p_proc&#45;&gt;Node003 -->
<g id="edge3" class="edge">
<title>talk_p_proc&#45;&gt;Node003</title>
<path fill="none" stroke="#555555" stroke-dasharray="1,5" d="M971.19,-846.75C964.58,-835.55 954.82,-820.62 944,-809.3 918.32,-782.45 886.99,-757.01 857.33,-735.41"/>
<polygon fill="#555555" stroke="#555555" points="859.76,-732.12 849.6,-729.12 855.67,-737.81 859.76,-732.12"/>
</g>
<!-- Node004 -->
<g id="node17" class="node">
<title>Node004</title>
<ellipse fill="#ffffff" stroke="#000000" cx="1027" cy="-232.04" rx="155.56" ry="66.64"/>
<text text-anchor="middle" x="1027" y="-261.86" font-family="Times,serif" font-size="14.00">Позволь мне уточнить.</text>
<text text-anchor="middle" x="1027" y="-244.61" font-family="Times,serif" font-size="14.00">Тебе никто не причинит</text>
<text text-anchor="middle" x="1027" y="-227.36" font-family="Times,serif" font-size="14.00">вреда, ЕСЛИ ты НЕ будешь</text>
<text text-anchor="middle" x="1027" y="-210.11" font-family="Times,serif" font-size="14.00">сопротивляться. Ты</text>
<text text-anchor="middle" x="1027" y="-192.86" font-family="Times,serif" font-size="14.00">сопротивляешься?</text>
</g>
<!-- Node003&#45;&gt;Node004 -->
<g id="edge6" class="edge">
<title>Node003&#45;&gt;Node004</title>
<path fill="none" stroke="#006299" d="M840.93,-605.61C861.95,-591.55 884.82,-577.39 907,-565.83 926.84,-555.49 939.31,-564.7 954,-547.83 1011.35,-481.97 1025.95,-379.8 1028.58,-309.84"/>
<polygon fill="#006299" stroke="#006299" points="1032.11,-310 1028.9,-299.9 1025.11,-309.79 1032.11,-310"/>
<text text-anchor="middle" x="1103.75" y="-457.03" font-family="Times,serif" font-size="14.00" fill="#006299">Иди к черту, я никуда с</text>
<text text-anchor="middle" x="1103.75" y="-439.78" font-family="Times,serif" font-size="14.00" fill="#006299">тобой не пойду.</text>
</g>
<!-- Node005 -->
<g id="node18" class="node">
<title>Node005</title>
<ellipse fill="#ffffff" stroke="#000000" cx="756" cy="-453.08" rx="155.03" ry="42.25"/>
<text text-anchor="middle" x="756" y="-465.65" font-family="Times,serif" font-size="14.00">Вегейр ответит на все</text>
<text text-anchor="middle" x="756" y="-448.4" font-family="Times,serif" font-size="14.00">твои вопросы. Пожалуйста,</text>
<text text-anchor="middle" x="756" y="-431.15" font-family="Times,serif" font-size="14.00">следуй за нами.</text>
</g>
<!-- Node003&#45;&gt;Node005 -->
<g id="edge7" class="edge">
<title>Node003&#45;&gt;Node005</title>
<path fill="none" stroke="#8f9900" d="M756,-589.9C756,-562.14 756,-531.57 756,-506.47"/>
<polygon fill="#8f9900" stroke="#8f9900" points="759.5,-506.72 756,-496.72 752.5,-506.72 759.5,-506.72"/>
<text text-anchor="middle" x="853.12" y="-534.53" font-family="Times,serif" font-size="14.00" fill="#8f9900">Мне бы хотелось спросить</text>
<text text-anchor="middle" x="853.12" y="-517.28" font-family="Times,serif" font-size="14.00" fill="#8f9900">тебя кое о чем.</text>
</g>
<!-- Node006 -->
<g id="node19" class="node">
<title>Node006</title>
<ellipse fill="#ffffff" stroke="#000000" cx="335" cy="-232.04" rx="147.08" ry="91.04"/>
<text text-anchor="middle" x="335" y="-279.11" font-family="Times,serif" font-size="14.00">Хмм... Интересно,</text>
<text text-anchor="middle" x="335" y="-261.86" font-family="Times,serif" font-size="14.00">является ли это</text>
<text text-anchor="middle" x="335" y="-244.61" font-family="Times,serif" font-size="14.00">исключением из правил.</text>
<text text-anchor="middle" x="335" y="-227.36" font-family="Times,serif" font-size="14.00">Нет&#45;нет&#45;нет. Вегейр</text>
<text text-anchor="middle" x="335" y="-210.11" font-family="Times,serif" font-size="14.00">сказал ВСЕХ наземников,</text>
<text text-anchor="middle" x="335" y="-192.86" font-family="Times,serif" font-size="14.00">даже идиотов. Идем со</text>
<text text-anchor="middle" x="335" y="-175.61" font-family="Times,serif" font-size="14.00">мной.</text>
</g>
<!-- Node003&#45;&gt;Node006 -->
<g id="edge8" class="edge">
<title>Node003&#45;&gt;Node006</title>
<path fill="none" stroke="#760099" d="M676.95,-603.28C639.99,-571.87 596.07,-532.88 559,-495.33 504.89,-440.51 448.61,-374.57 406,-322.52"/>
<polygon fill="#760099" stroke="#760099" points="408.32,-320.82 399.28,-315.29 402.89,-325.25 408.32,-320.82"/>
<text text-anchor="middle" x="575.5" y="-448.4" font-family="Times,serif" font-size="14.00" fill="#760099">Ась?</text>
</g>
<!-- destroy_p_proc -->
<g id="node8" class="node">
<title>destroy_p_proc</title>
<ellipse fill="#ffffff" stroke="#000000" cx="1052" cy="-863.75" rx="27" ry="18"/>
</g>
<!-- look_at_p_proc -->
<g id="node9" class="node">
<title>look_at_p_proc</title>
<ellipse fill="#ffffff" stroke="#000000" cx="1231" cy="-863.75" rx="133.81" ry="18"/>
<text text-anchor="middle" x="1231" y="-859.08" font-family="Times,serif" font-size="14.00">Кажется, это охранник.</text>
</g>
<!-- description_p_proc -->
<g id="node10" class="node">
<title>description_p_proc</title>
<ellipse fill="#ffffff" stroke="#000000" cx="1535" cy="-863.75" rx="151.85" ry="54.45"/>
<text text-anchor="middle" x="1535" y="-884.95" font-family="Times,serif" font-size="14.00">Помимо бледной кожи и</text>
<text text-anchor="middle" x="1535" y="-867.7" font-family="Times,serif" font-size="14.00">огромных зрачков, он</text>
<text text-anchor="middle" x="1535" y="-850.45" font-family="Times,serif" font-size="14.00">выглядит вполне обычным</text>
<text text-anchor="middle" x="1535" y="-833.2" font-family="Times,serif" font-size="14.00">человеком.</text>
</g>
<!-- use_skill_on_p_proc -->
<g id="node11" class="node">
<title>use_skill_on_p_proc</title>
<ellipse fill="#ffffff" stroke="#000000" cx="1732" cy="-863.75" rx="27" ry="18"/>
</g>
<!-- damage_p_proc -->
<g id="node12" class="node">
<title>damage_p_proc</title>
<ellipse fill="#ffffff" stroke="#000000" cx="99" cy="-232.04" rx="27" ry="18"/>
</g>
<!-- damage_p_proc&#45;&gt;Node998 -->
<g id="edge4" class="edge">
<title>damage_p_proc&#45;&gt;Node998</title>
<path fill="none" stroke="#555555" stroke-dasharray="1,5" d="M100.31,-213.95C102.75,-182.35 108.16,-112.69 113,-54 113.18,-51.77 113.38,-49.46 113.57,-47.13"/>
<polygon fill="#555555" stroke="#555555" points="117.12,-47.71 114.48,-37.44 110.15,-47.11 117.12,-47.71"/>
</g>
<!-- map_enter_p_proc -->
<g id="node13" class="node">
<title>map_enter_p_proc</title>
<ellipse fill="#ffffff" stroke="#000000" cx="1804" cy="-863.75" rx="27" ry="18"/>
</g>
<!-- combat_p_proc -->
<g id="node14" class="node">
<title>combat_p_proc</title>
<ellipse fill="#ffffff" stroke="#000000" cx="1876" cy="-863.75" rx="27" ry="18"/>
</g>
<!-- map_update_p_proc -->
<g id="node15" class="node">
<title>map_update_p_proc</title>
<ellipse fill="#ffffff" stroke="#000000" cx="1948" cy="-863.75" rx="27" ry="18"/>
</g>
<!-- Node002 -->
<g id="node16" class="node">
<title>Node002</title>
<ellipse fill="#ffffff" stroke="#000000" cx="1984" cy="-669.07" rx="154.5" ry="103.24"/>
<text text-anchor="middle" x="1984" y="-724.77" font-family="Times,serif" font-size="14.00">Срань господня!</text>
<text text-anchor="middle" x="1984" y="-707.52" font-family="Times,serif" font-size="14.00">&#45;&#45;&#45;</text>
<text text-anchor="middle" x="1984" y="-690.27" font-family="Times,serif" font-size="14.00">Ты ведь знаешь, что можно</text>
<text text-anchor="middle" x="1984" y="-673.02" font-family="Times,serif" font-size="14.00">войти с черного входа...</text>
<text text-anchor="middle" x="1984" y="-655.77" font-family="Times,serif" font-size="14.00">&#45;&#45;&#45;</text>
<text text-anchor="middle" x="1984" y="-638.52" font-family="Times,serif" font-size="14.00">Я не скажу ни слова.</text>
<text text-anchor="middle" x="1984" y="-621.27" font-family="Times,serif" font-size="14.00">&#45;&#45;&#45;</text>
<text text-anchor="middle" x="1984" y="-604.02" font-family="Times,serif" font-size="14.00">Ну и болван!</text>
</g>
<!-- map_update_p_proc&#45;&gt;Node002 -->
<g id="edge5" class="edge">
<title>map_update_p_proc&#45;&gt;Node002</title>
<path fill="none" stroke="#555555" stroke-dasharray="1,5" d="M1951.19,-845.65C1954.01,-830.58 1958.38,-807.21 1963.02,-782.38"/>
<polygon fill="#555555" stroke="#555555" points="1966.62,-783.15 1965.02,-772.67 1959.74,-781.86 1966.62,-783.15"/>
</g>
<!-- Node004&#45;&gt;Node998 -->
<g id="edge10" class="edge">
<title>Node004&#45;&gt;Node998</title>
<path fill="none" stroke="#991d00" d="M940.4,-176.29C914.5,-162.41 885.42,-149.14 857,-141 747.99,-109.79 708.58,-163.05 602.5,-123 555.18,-105.13 559.16,-72.28 512,-54 447.33,-28.93 240.14,-21.65 154.06,-19.68"/>
<polygon fill="#991d00" stroke="#991d00" points="154.29,-16.16 144.22,-19.45 154.14,-23.16 154.29,-16.16"/>
<text text-anchor="middle" x="672.75" y="-92.45" font-family="Times,serif" font-size="14.00" fill="#991d00">Да, я намереваюсь</text>
<text text-anchor="middle" x="672.75" y="-75.2" font-family="Times,serif" font-size="14.00" fill="#991d00">сопротивляться.</text>
</g>
<!-- Node990 -->
<g id="node20" class="node">
<title>Node990</title>
<ellipse fill="#ffffff" stroke="#000000" cx="689" cy="-18" rx="27" ry="18"/>
</g>
<!-- Node004&#45;&gt;Node990 -->
<g id="edge9" class="edge">
<title>Node004&#45;&gt;Node990</title>
<path fill="none" stroke="#00994a" d="M939.96,-176.43C866.58,-130.4 766,-67.3 717.47,-36.86"/>
<polygon fill="#00994a" stroke="#00994a" points="719.54,-33.4 709.21,-31.05 715.82,-39.33 719.54,-33.4"/>
<text text-anchor="middle" x="929.38" y="-109.7" font-family="Times,serif" font-size="14.00" fill="#00994a">Нет, я понимаю, что</text>
<text text-anchor="middle" x="929.38" y="-92.45" font-family="Times,serif" font-size="14.00" fill="#00994a">сопротивляться</text>
<text text-anchor="middle" x="929.38" y="-75.2" font-family="Times,serif" font-size="14.00" fill="#00994a">бесполезно. Я пойду с</text>
<text text-anchor="middle" x="929.38" y="-57.95" font-family="Times,serif" font-size="14.00" fill="#00994a">вами.</text>
</g>
<!-- Node005&#45;&gt;Node004 -->
<g id="edge12" class="edge">
<title>Node005&#45;&gt;Node004</title>
<path fill="none" stroke="#3c9900" d="M756.95,-410.57C759.68,-387.19 766.96,-359.15 785.25,-341.08 808.64,-317.97 826.31,-334.86 857,-323.08 880.05,-314.23 903.97,-302.98 926.33,-291.46"/>
<polygon fill="#3c9900" stroke="#3c9900" points="927.57,-294.24 934.81,-286.51 924.33,-288.04 927.57,-294.24"/>
<text text-anchor="middle" x="880.88" y="-379.53" font-family="Times,serif" font-size="14.00" fill="#3c9900">Нет, я никуда не пойду,</text>
<text text-anchor="middle" x="880.88" y="-362.28" font-family="Times,serif" font-size="14.00" fill="#3c9900">пока не получу ответы на</text>
<text text-anchor="middle" x="880.88" y="-345.03" font-family="Times,serif" font-size="14.00" fill="#3c9900">свои вопросы.</text>
</g>
<!-- Node005&#45;&gt;Node990 -->
<g id="edge11" class="edge">
<title>Node005&#45;&gt;Node990</title>
<path fill="none" stroke="#001099" d="M732.32,-410.86C719.49,-386.23 704.84,-353.85 697.75,-323.08 674.88,-223.83 681.5,-101.55 686.16,-47.26"/>
<polygon fill="#001099" stroke="#001099" points="689.72,-47.72 687.14,-37.45 682.75,-47.09 689.72,-47.72"/>
<text text-anchor="middle" x="780.12" y="-235.99" font-family="Times,serif" font-size="14.00" fill="#001099">Хорошо, пока я мирно</text>
<text text-anchor="middle" x="780.12" y="-218.74" font-family="Times,serif" font-size="14.00" fill="#001099">пойду с вами.</text>
</g>
<!-- Node006&#45;&gt;Node998 -->
<g id="edge14" class="edge">
<title>Node006&#45;&gt;Node998</title>
<path fill="none" stroke="#009599" d="M207.93,-185.77C179.35,-170.02 151.91,-149.45 133,-123 117.23,-100.95 114.02,-69.58 114.11,-47.07"/>
<polygon fill="#009599" stroke="#009599" points="117.64,-47.3 114.42,-37.21 110.64,-47.1 117.64,-47.3"/>
<text text-anchor="middle" x="223" y="-109.7" font-family="Times,serif" font-size="14.00" fill="#009599">[Убить их всех, и пусть с</text>
<text text-anchor="middle" x="223" y="-92.45" font-family="Times,serif" font-size="14.00" fill="#009599">ними разбираются боги,</text>
<text text-anchor="middle" x="223" y="-75.2" font-family="Times,serif" font-size="14.00" fill="#009599">которым они там</text>
<text text-anchor="middle" x="223" y="-57.95" font-family="Times,serif" font-size="14.00" fill="#009599">поклоняются.]</text>
</g>
<!-- Node006&#45;&gt;Node990 -->
<g id="edge13" class="edge">
<title>Node006&#45;&gt;Node990</title>
<path fill="none" stroke="#990069" d="M325.02,-140.96C323.07,-104.1 324.58,-67.05 336.5,-54 357.39,-31.13 563.69,-22.58 650.66,-19.97"/>
<polygon fill="#990069" stroke="#990069" points="650.73,-23.45 660.62,-19.66 650.52,-16.45 650.73,-23.45"/>
<text text-anchor="middle" x="424.75" y="-83.83" font-family="Times,serif" font-size="14.00" fill="#990069">[Пойти с охранниками.]</text>
</g>
<!-- timed_event_p_proc -->
<g id="node21" class="node">
<title>timed_event_p_proc</title>
<ellipse fill="#ffffff" stroke="#000000" cx="2020" cy="-863.75" rx="27" ry="18"/>
</g>
<!-- timed_event_p_proc&#45;&gt;Node002 -->
<g id="edge15" class="edge">
<title>timed_event_p_proc&#45;&gt;Node002</title>
<path fill="none" stroke="#555555" stroke-dasharray="1,5" d="M2016.81,-845.65C2013.99,-830.58 2009.62,-807.21 2004.98,-782.38"/>
<polygon fill="#555555" stroke="#555555" points="2008.26,-781.86 2002.98,-772.67 2001.38,-783.15 2008.26,-781.86"/>
</g>
</g>
</svg>
