<?xml version="1.0" encoding="UTF-8" standalone="no"?>
<!DOCTYPE svg PUBLIC "-//W3C//DTD SVG 1.1//EN"
 "http://www.w3.org/Graphics/SVG/1.1/DTD/svg11.dtd">
<!-- Generated by graphviz version 8.0.5 (0)
 -->
<!-- Title: mcSlgExt Pages: 1 -->
<svg width="1286pt" height="212pt"
 viewBox="0.00 0.00 1286.00 212.10" xmlns="http://www.w3.org/2000/svg" xmlns:xlink="http://www.w3.org/1999/xlink">
<g id="graph0" class="graph" transform="scale(1 1) rotate(0) translate(4 208.1)">
<title>mcSlgExt</title>
<polygon fill="white" stroke="none" points="-4,4 -4,-208.1 1282,-208.1 1282,4 -4,4"/>
<!-- start -->
<g id="node1" class="node">
<title>start</title>
<ellipse fill="#ffffff" stroke="#000000" cx="27" cy="-186.1" rx="27" ry="18"/>
</g>
<!-- critter_p_proc -->
<g id="node2" class="node">
<title>critter_p_proc</title>
<ellipse fill="#ffffff" stroke="#000000" cx="99" cy="-186.1" rx="27" ry="18"/>
</g>
<!-- pickup_p_proc -->
<g id="node3" class="node">
<title>pickup_p_proc</title>
<ellipse fill="#ffffff" stroke="#000000" cx="171" cy="-186.1" rx="27" ry="18"/>
</g>
<!-- Node998 -->
<g id="node4" class="node">
<title>Node998</title>
<ellipse fill="#ffffff" stroke="#000000" cx="207" cy="-114.1" rx="27" ry="18"/>
</g>
<!-- pickup_p_proc&#45;&gt;Node998 -->
<g id="edge1" class="edge">
<title>pickup_p_proc&#45;&gt;Node998</title>
<path fill="none" stroke="#555555" stroke-dasharray="1,5" d="M179.35,-168.87C183.62,-160.56 188.92,-150.26 193.73,-140.9"/>
<polygon fill="#555555" stroke="#555555" points="197.23,-142.75 198.7,-132.25 191.01,-139.54 197.23,-142.75"/>
</g>
<!-- talk_p_proc -->
<g id="node5" class="node">
<title>talk_p_proc</title>
<ellipse fill="#ffffff" stroke="#000000" cx="351" cy="-186.1" rx="27" ry="18"/>
</g>
<!-- Node000 -->
<g id="node6" class="node">
<title>Node000</title>
<ellipse fill="#ffffff" stroke="#000000" cx="351" cy="-114.1" rx="27" ry="18"/>
</g>
<!-- talk_p_proc&#45;&gt;Node000 -->
<g id="edge2" class="edge">
<title>talk_p_proc&#45;&gt;Node000</title>
<path fill="none" stroke="#555555" stroke-dasharray="1,5" d="M351,-167.8C351,-160.34 351,-151.43 351,-143.07"/>
<polygon fill="#555555" stroke="#555555" points="354.5,-143.21 351,-133.21 347.5,-143.21 354.5,-143.21"/>
</g>
<!-- Node001 -->
<g id="node14" class="node">
<title>Node001</title>
<ellipse fill="#ffffff" stroke="#000000" cx="279" cy="-30.05" rx="139.65" ry="30.05"/>
<text text-anchor="middle" x="279" y="-34" font-family="Times,serif" font-size="14.00">Вегейр говорит, пока ты</text>
<text text-anchor="middle" x="279" y="-16.75" font-family="Times,serif" font-size="14.00">уйти не можешь.</text>
</g>
<!-- Node000&#45;&gt;Node001 -->
<g id="edge5" class="edge">
<title>Node000&#45;&gt;Node001</title>
<path fill="none" stroke="#555555" stroke-dasharray="1,5" d="M337.79,-98.05C330.35,-89.57 320.71,-78.58 311.38,-67.96"/>
<polygon fill="#555555" stroke="#555555" points="313.59,-66.16 304.36,-60.96 308.33,-70.78 313.59,-66.16"/>
</g>
<!-- Node002 -->
<g id="node17" class="node">
<title>Node002</title>
<ellipse fill="#ffffff" stroke="#000000" cx="591" cy="-30.05" rx="154.5" ry="30.05"/>
<text text-anchor="middle" x="591" y="-34" font-family="Times,serif" font-size="14.00">Вегейр сказал, тебя можно</text>
<text text-anchor="middle" x="591" y="-16.75" font-family="Times,serif" font-size="14.00">пропустить.</text>
</g>
<!-- Node000&#45;&gt;Node002 -->
<g id="edge6" class="edge">
<title>Node000&#45;&gt;Node002</title>
<path fill="none" stroke="#555555" stroke-dasharray="1,5" d="M374.45,-105.09C404.72,-94.74 459.06,-76.16 505.73,-60.2"/>
<polygon fill="#555555" stroke="#555555" points="506.54,-63.28 514.87,-56.74 504.28,-56.66 506.54,-63.28"/>
</g>
<!-- destroy_p_proc -->
<g id="node7" class="node">
<title>destroy_p_proc</title>
<ellipse fill="#ffffff" stroke="#000000" cx="423" cy="-186.1" rx="27" ry="18"/>
</g>
<!-- look_at_p_proc -->
<g id="node8" class="node">
<title>look_at_p_proc</title>
<ellipse fill="#ffffff" stroke="#000000" cx="594" cy="-186.1" rx="125.92" ry="18"/>
<text text-anchor="middle" x="594" y="-181.43" font-family="Times,serif" font-size="14.00">Вы видите охранника.</text>
</g>
<!-- description_p_proc -->
<g id="node9" class="node">
<title>description_p_proc</title>
<ellipse fill="#ffffff" stroke="#000000" cx="864" cy="-186.1" rx="125.92" ry="18"/>
<text text-anchor="middle" x="864" y="-181.43" font-family="Times,serif" font-size="14.00">Вы видите охранника.</text>
</g>
<!-- use_skill_on_p_proc -->
<g id="node10" class="node">
<title>use_skill_on_p_proc</title>
<ellipse fill="#ffffff" stroke="#000000" cx="1035" cy="-186.1" rx="27" ry="18"/>
</g>
<!-- damage_p_proc -->
<g id="node11" class="node">
<title>damage_p_proc</title>
<ellipse fill="#ffffff" stroke="#000000" cx="243" cy="-186.1" rx="27" ry="18"/>
</g>
<!-- damage_p_proc&#45;&gt;Node998 -->
<g id="edge3" class="edge">
<title>damage_p_proc&#45;&gt;Node998</title>
<path fill="none" stroke="#555555" stroke-dasharray="1,5" d="M234.65,-168.87C230.38,-160.56 225.08,-150.26 220.27,-140.9"/>
<polygon fill="#555555" stroke="#555555" points="222.99,-139.54 215.3,-132.25 216.77,-142.75 222.99,-139.54"/>
</g>
<!-- map_enter_p_proc -->
<g id="node12" class="node">
<title>map_enter_p_proc</title>
<ellipse fill="#ffffff" stroke="#000000" cx="1107" cy="-186.1" rx="27" ry="18"/>
</g>
<!-- push_p_proc -->
<g id="node13" class="node">
<title>push_p_proc</title>
<ellipse fill="#ffffff" stroke="#000000" cx="279" cy="-114.1" rx="27" ry="18"/>
</g>
<!-- push_p_proc&#45;&gt;Node001 -->
<g id="edge4" class="edge">
<title>push_p_proc&#45;&gt;Node001</title>
<path fill="none" stroke="#555555" stroke-dasharray="1,5" d="M279,-95.7C279,-88.49 279,-79.8 279,-71.17"/>
<polygon fill="#555555" stroke="#555555" points="282.5,-71.38 279,-61.38 275.5,-71.38 282.5,-71.38"/>
</g>
<!-- combat_p_proc -->
<g id="node15" class="node">
<title>combat_p_proc</title>
<ellipse fill="#ffffff" stroke="#000000" cx="1179" cy="-186.1" rx="27" ry="18"/>
</g>
<!-- map_update_p_proc -->
<g id="node16" class="node">
<title>map_update_p_proc</title>
<ellipse fill="#ffffff" stroke="#000000" cx="1251" cy="-186.1" rx="27" ry="18"/>
</g>
</g>
</svg>
