<?xml version="1.0" encoding="UTF-8" standalone="no"?>
<!DOCTYPE svg PUBLIC "-//W3C//DTD SVG 1.1//EN"
 "http://www.w3.org/Graphics/SVG/1.1/DTD/svg11.dtd">
<!-- Generated by graphviz version 8.0.5 (0)
 -->
<!-- Title: ncCasBou Pages: 1 -->
<svg width="4080pt" height="262pt"
 viewBox="0.00 0.00 4080.00 261.79" xmlns="http://www.w3.org/2000/svg" xmlns:xlink="http://www.w3.org/1999/xlink">
<g id="graph0" class="graph" transform="scale(1 1) rotate(0) translate(4 257.79)">
<title>ncCasBou</title>
<polygon fill="white" stroke="none" points="-4,4 -4,-257.79 4076,-257.79 4076,4 -4,4"/>
<!-- start -->
<g id="node1" class="node">
<title>start</title>
<ellipse fill="#ffffff" stroke="#000000" cx="27" cy="-211.54" rx="27" ry="18"/>
</g>
<!-- critter_p_proc -->
<g id="node2" class="node">
<title>critter_p_proc</title>
<ellipse fill="#ffffff" stroke="#000000" cx="99" cy="-211.54" rx="27" ry="18"/>
</g>
<!-- pickup_p_proc -->
<g id="node3" class="node">
<title>pickup_p_proc</title>
<ellipse fill="#ffffff" stroke="#000000" cx="171" cy="-211.54" rx="27" ry="18"/>
</g>
<!-- Node998 -->
<g id="node4" class="node">
<title>Node998</title>
<ellipse fill="#ffffff" stroke="#000000" cx="171" cy="-66.64" rx="133.82" ry="42.25"/>
<text text-anchor="middle" x="171" y="-79.22" font-family="Times,serif" font-size="14.00">Э... вам придется снять</text>
<text text-anchor="middle" x="171" y="-61.97" font-family="Times,serif" font-size="14.00">эту броню... хотя...</text>
<text text-anchor="middle" x="171" y="-44.72" font-family="Times,serif" font-size="14.00">ладно.</text>
</g>
<!-- pickup_p_proc&#45;&gt;Node998 -->
<g id="edge1" class="edge">
<title>pickup_p_proc&#45;&gt;Node998</title>
<path fill="none" stroke="#555555" stroke-dasharray="1,5" d="M171,-193.3C171,-175.18 171,-145.77 171,-119.96"/>
<polygon fill="#555555" stroke="#555555" points="174.5,-120.16 171,-110.16 167.5,-120.16 174.5,-120.16"/>
</g>
<!-- talk_p_proc -->
<g id="node5" class="node">
<title>talk_p_proc</title>
<ellipse fill="#ffffff" stroke="#000000" cx="2569" cy="-211.54" rx="27" ry="18"/>
</g>
<!-- Node008 -->
<g id="node6" class="node">
<title>Node008</title>
<ellipse fill="#ffffff" stroke="#000000" cx="1170" cy="-66.64" rx="27" ry="18"/>
</g>
<!-- talk_p_proc&#45;&gt;Node008 -->
<g id="edge2" class="edge">
<title>talk_p_proc&#45;&gt;Node008</title>
<path fill="none" stroke="#555555" stroke-dasharray="1,5" d="M2541.75,-209.15C2445.61,-203.9 2114.69,-184.73 1842,-169.29 1770.34,-165.23 1257.72,-171.57 1197,-133.29 1183.47,-124.76 1174.62,-109.25 1170.09,-95.45"/>
<polygon fill="#555555" stroke="#555555" points="1173.26,-94.73 1167.37,-85.92 1166.48,-96.48 1173.26,-94.73"/>
</g>
<!-- talk_p_proc&#45;&gt;Node008 -->
<g id="edge4" class="edge">
<title>talk_p_proc&#45;&gt;Node008</title>
<path fill="none" stroke="#555555" stroke-dasharray="1,5" d="M2541.99,-208.75C2447.76,-202.98 2126.15,-184.36 1860,-169.29 1788.34,-165.23 1275.72,-171.57 1215,-133.29 1200.75,-124.31 1191.71,-107.61 1185.08,-93.3"/>
<polygon fill="#555555" stroke="#555555" points="1187.94,-92.12 1180.64,-84.44 1181.56,-95 1187.94,-92.12"/>
</g>
<!-- Node009 -->
<g id="node7" class="node">
<title>Node009</title>
<ellipse fill="#ffffff" stroke="#000000" cx="1242" cy="-66.64" rx="27" ry="18"/>
</g>
<!-- talk_p_proc&#45;&gt;Node009 -->
<g id="edge3" class="edge">
<title>talk_p_proc&#45;&gt;Node009</title>
<path fill="none" stroke="#555555" stroke-dasharray="1,5" d="M2541.8,-209.08C2355.15,-198.61 1272.48,-135.49 1269,-133.29 1255.48,-124.73 1246.64,-109.22 1242.1,-95.43"/>
<polygon fill="#555555" stroke="#555555" points="1245.27,-94.71 1239.38,-85.9 1238.5,-96.46 1245.27,-94.71"/>
</g>
<!-- talk_p_proc&#45;&gt;Node009 -->
<g id="edge5" class="edge">
<title>talk_p_proc&#45;&gt;Node009</title>
<path fill="none" stroke="#555555" stroke-dasharray="1,5" d="M2541.91,-208.83C2357.06,-197.67 1290.45,-135.48 1287,-133.29 1272.77,-124.28 1263.73,-107.58 1257.09,-93.28"/>
<polygon fill="#555555" stroke="#555555" points="1259.95,-92.11 1252.65,-84.43 1253.57,-94.98 1259.95,-92.11"/>
</g>
<!-- Node014 -->
<g id="node8" class="node">
<title>Node014</title>
<ellipse fill="#ffffff" stroke="#000000" cx="1464" cy="-66.64" rx="176.78" ry="30.05"/>
<text text-anchor="middle" x="1464" y="-70.59" font-family="Times,serif" font-size="14.00">Дикарь, советую</text>
<text text-anchor="middle" x="1464" y="-53.34" font-family="Times,serif" font-size="14.00">НЕМЕДЛЕННО убрать оружие.</text>
</g>
<!-- talk_p_proc&#45;&gt;Node014 -->
<g id="edge6" class="edge">
<title>talk_p_proc&#45;&gt;Node014</title>
<path fill="none" stroke="#555555" stroke-dasharray="1,5" d="M2541.85,-210.76C2429.32,-211.24 1990.48,-208.35 1641,-133.29 1603.83,-125.31 1563.92,-111.9 1531.37,-99.28"/>
<polygon fill="#555555" stroke="#555555" points="1533.1,-95.81 1522.52,-95.39 1530.54,-102.32 1533.1,-95.81"/>
</g>
<!-- talk_p_proc&#45;&gt;Node014 -->
<g id="edge7" class="edge">
<title>talk_p_proc&#45;&gt;Node014</title>
<path fill="none" stroke="#555555" stroke-dasharray="1,5" d="M2541.81,-210.78C2430.65,-211.11 2001.83,-206.92 1659,-133.29 1620.91,-125.11 1579.94,-111.23 1545.38,-98.34"/>
<polygon fill="#555555" stroke="#555555" points="1546.94,-94.81 1536.34,-94.56 1544.47,-101.36 1546.94,-94.81"/>
</g>
<!-- Node015 -->
<g id="node9" class="node">
<title>Node015</title>
<ellipse fill="#ffffff" stroke="#000000" cx="1815" cy="-66.64" rx="156.09" ry="42.25"/>
<text text-anchor="middle" x="1815" y="-79.22" font-family="Times,serif" font-size="14.00">Дикарь, советую</text>
<text text-anchor="middle" x="1815" y="-61.97" font-family="Times,serif" font-size="14.00">НЕМЕДЛЕННО прекратить</text>
<text text-anchor="middle" x="1815" y="-44.72" font-family="Times,serif" font-size="14.00">здесь шнырять.</text>
</g>
<!-- talk_p_proc&#45;&gt;Node015 -->
<g id="edge8" class="edge">
<title>talk_p_proc&#45;&gt;Node015</title>
<path fill="none" stroke="#555555" stroke-dasharray="1,5" d="M2541.96,-209.55C2456.43,-205.74 2186.09,-189.25 1971,-133.29 1946.46,-126.9 1920.66,-117.85 1897.23,-108.49"/>
<polygon fill="#555555" stroke="#555555" points="1898.93,-105 1888.35,-104.47 1896.29,-111.48 1898.93,-105"/>
</g>
<!-- talk_p_proc&#45;&gt;Node015 -->
<g id="edge9" class="edge">
<title>talk_p_proc&#45;&gt;Node015</title>
<path fill="none" stroke="#555555" stroke-dasharray="1,5" d="M2541.93,-209.17C2458.18,-204.71 2197.6,-187.56 1989,-133.29 1962.66,-126.44 1934.86,-116.5 1909.38,-106.43"/>
<polygon fill="#555555" stroke="#555555" points="1910.95,-102.89 1900.36,-102.42 1908.35,-109.38 1910.95,-102.89"/>
</g>
<!-- Node017 -->
<g id="node10" class="node">
<title>Node017</title>
<ellipse fill="#ffffff" stroke="#000000" cx="2016" cy="-66.64" rx="27" ry="18"/>
</g>
<!-- talk_p_proc&#45;&gt;Node017 -->
<g id="edge10" class="edge">
<title>talk_p_proc&#45;&gt;Node017</title>
<path fill="none" stroke="#555555" stroke-dasharray="1,5" d="M2541.8,-209.74C2445.65,-206.29 2124.62,-190.18 2043,-133.29 2029.96,-124.2 2021.16,-108.81 2016.51,-95.22"/>
<polygon fill="#555555" stroke="#555555" points="2019.69,-94.57 2013.67,-85.86 2012.94,-96.43 2019.69,-94.57"/>
</g>
<!-- talk_p_proc&#45;&gt;Node017 -->
<g id="edge11" class="edge">
<title>talk_p_proc&#45;&gt;Node017</title>
<path fill="none" stroke="#555555" stroke-dasharray="1,5" d="M2541.99,-209.47C2448.41,-205.49 2140.66,-188.82 2061,-133.29 2047.27,-123.72 2038.25,-107.17 2031.52,-93.09"/>
<polygon fill="#555555" stroke="#555555" points="2034.4,-91.98 2027,-84.4 2028.06,-94.94 2034.4,-91.98"/>
</g>
<!-- Node018 -->
<g id="node11" class="node">
<title>Node018</title>
<ellipse fill="#ffffff" stroke="#000000" cx="2088" cy="-66.64" rx="27" ry="18"/>
</g>
<!-- talk_p_proc&#45;&gt;Node018 -->
<g id="edge12" class="edge">
<title>talk_p_proc&#45;&gt;Node018</title>
<path fill="none" stroke="#555555" stroke-dasharray="1,5" d="M2541.86,-209.11C2454.58,-203.77 2184.06,-182.65 2115,-133.29 2102.15,-124.11 2093.39,-108.85 2088.69,-95.36"/>
<polygon fill="#555555" stroke="#555555" points="2091.87,-94.74 2085.79,-86.06 2085.13,-96.64 2091.87,-94.74"/>
</g>
<!-- talk_p_proc&#45;&gt;Node018 -->
<g id="edge13" class="edge">
<title>talk_p_proc&#45;&gt;Node018</title>
<path fill="none" stroke="#555555" stroke-dasharray="1,5" d="M2541.88,-208.61C2457.13,-202.53 2200.06,-181.22 2133,-133.29 2119.39,-123.56 2110.36,-107.01 2103.6,-92.97"/>
<polygon fill="#555555" stroke="#555555" points="2106.48,-91.87 2099.06,-84.31 2100.15,-94.85 2106.48,-91.87"/>
</g>
<!-- Node030 -->
<g id="node12" class="node">
<title>Node030</title>
<ellipse fill="#ffffff" stroke="#000000" cx="1098" cy="-66.64" rx="27" ry="18"/>
</g>
<!-- talk_p_proc&#45;&gt;Node030 -->
<g id="edge14" class="edge">
<title>talk_p_proc&#45;&gt;Node030</title>
<path fill="none" stroke="#555555" stroke-dasharray="1,5" d="M2541.76,-209.11C2445.62,-203.68 2114.73,-183.97 1842,-169.29 1762.35,-165 1192.6,-175.64 1125,-133.29 1111.44,-124.8 1102.6,-109.29 1098.07,-95.48"/>
<polygon fill="#555555" stroke="#555555" points="1101.24,-94.75 1095.36,-85.94 1094.46,-96.5 1101.24,-94.75"/>
</g>
<!-- talk_p_proc&#45;&gt;Node030 -->
<g id="edge15" class="edge">
<title>talk_p_proc&#45;&gt;Node030</title>
<path fill="none" stroke="#555555" stroke-dasharray="1,5" d="M2541.99,-208.69C2447.77,-202.74 2126.19,-183.62 1860,-169.29 1780.35,-165 1210.6,-175.64 1143,-133.29 1128.73,-124.35 1119.68,-107.65 1113.06,-93.33"/>
<polygon fill="#555555" stroke="#555555" points="1115.92,-92.15 1108.63,-84.47 1109.54,-95.02 1115.92,-92.15"/>
</g>
<!-- Node029 -->
<g id="node13" class="node">
<title>Node029</title>
<ellipse fill="#ffffff" stroke="#000000" cx="3829" cy="-66.64" rx="27" ry="18"/>
</g>
<!-- talk_p_proc&#45;&gt;Node029 -->
<g id="edge16" class="edge">
<title>talk_p_proc&#45;&gt;Node029</title>
<path fill="none" stroke="#555555" stroke-dasharray="1,5" d="M2578.46,-194.24C2584.72,-185.13 2593.83,-174.57 2605,-169.29 2724.38,-112.83 3680.4,-202.29 3793,-133.29 3806.87,-124.79 3815.78,-108.92 3821.26,-94.92"/>
<polygon fill="#555555" stroke="#555555" points="3824.83,-96.31 3824.82,-85.72 3818.22,-94.01 3824.83,-96.31"/>
</g>
<!-- Node001 -->
<g id="node14" class="node">
<title>Node001</title>
<ellipse fill="#ffffff" stroke="#000000" cx="3397" cy="-66.64" rx="27" ry="18"/>
</g>
<!-- talk_p_proc&#45;&gt;Node001 -->
<g id="edge17" class="edge">
<title>talk_p_proc&#45;&gt;Node001</title>
<path fill="none" stroke="#555555" stroke-dasharray="1,5" d="M2578.49,-194.31C2584.77,-185.22 2593.88,-174.67 2605,-169.29 2756.42,-96.07 3218.36,-222.4 3361,-133.29 3374.79,-124.67 3383.7,-108.8 3389.21,-94.82"/>
<polygon fill="#555555" stroke="#555555" points="3392.77,-96.25 3392.78,-85.65 3386.16,-93.93 3392.77,-96.25"/>
</g>
<!-- Node003 -->
<g id="node15" class="node">
<title>Node003</title>
<ellipse fill="#ffffff" stroke="#000000" cx="3469" cy="-66.64" rx="27" ry="18"/>
</g>
<!-- talk_p_proc&#45;&gt;Node003 -->
<g id="edge18" class="edge">
<title>talk_p_proc&#45;&gt;Node003</title>
<path fill="none" stroke="#555555" stroke-dasharray="1,5" d="M2571.15,-193.45C2576.32,-184.55 2585.21,-174.48 2596,-169.29 2761.97,-89.45 3267.6,-230.54 3424,-133.29 3438.3,-124.4 3447.35,-107.69 3453.96,-93.36"/>
<polygon fill="#555555" stroke="#555555" points="3457.49,-95.05 3458.39,-84.49 3451.1,-92.18 3457.49,-95.05"/>
</g>
<!-- talk_p_proc&#45;&gt;Node003 -->
<g id="edge24" class="edge">
<title>talk_p_proc&#45;&gt;Node003</title>
<path fill="none" stroke="#555555" stroke-dasharray="1,5" d="M2584.62,-196.36C2592.37,-186.85 2602.01,-175.06 2614,-169.29 2779.97,-89.45 3285.6,-230.54 3442,-133.29 3455.59,-124.84 3464.43,-109.34 3468.95,-95.52"/>
<polygon fill="#555555" stroke="#555555" points="3472.56,-96.52 3471.66,-85.97 3465.78,-94.78 3472.56,-96.52"/>
</g>
<!-- Node002 -->
<g id="node16" class="node">
<title>Node002</title>
<ellipse fill="#ffffff" stroke="#000000" cx="3541" cy="-66.64" rx="27" ry="18"/>
</g>
<!-- talk_p_proc&#45;&gt;Node002 -->
<g id="edge19" class="edge">
<title>talk_p_proc&#45;&gt;Node002</title>
<path fill="none" stroke="#555555" stroke-dasharray="1,5" d="M2563.02,-193.86C2567.03,-184.86 2576.03,-174.54 2587,-169.29 2677.26,-126.06 3401.92,-185.99 3487,-133.29 3502.23,-123.86 3511.49,-105.56 3519.61,-90.67"/>
<polygon fill="#555555" stroke="#555555" points="3522.92,-92.93 3524.83,-82.51 3516.84,-89.46 3522.92,-92.93"/>
</g>
<!-- talk_p_proc&#45;&gt;Node002 -->
<g id="edge23" class="edge">
<title>talk_p_proc&#45;&gt;Node002</title>
<path fill="none" stroke="#555555" stroke-dasharray="1,5" d="M2578.48,-194.28C2584.75,-185.18 2593.86,-174.63 2605,-169.29 2695.26,-126.06 3419.92,-185.99 3505,-133.29 3518.82,-124.73 3527.73,-108.85 3533.23,-94.86"/>
<polygon fill="#555555" stroke="#555555" points="3536.8,-96.28 3536.8,-85.68 3530.19,-93.96 3536.8,-96.28"/>
</g>
<!-- talk_p_proc&#45;&gt;Node002 -->
<g id="edge29" class="edge">
<title>talk_p_proc&#45;&gt;Node002</title>
<path fill="none" stroke="#555555" stroke-dasharray="1,5" d="M2589.38,-199.12C2599.45,-189.26 2609.8,-175.61 2623,-169.29 2713.26,-126.06 3437.92,-185.99 3523,-133.29 3536.95,-124.65 3545.9,-108.56 3549.22,-94.48"/>
<polygon fill="#555555" stroke="#555555" points="3552.8,-95.18 3550.67,-84.8 3545.86,-94.23 3552.8,-95.18"/>
</g>
<!-- Node019 -->
<g id="node17" class="node">
<title>Node019</title>
<ellipse fill="#ffffff" stroke="#000000" cx="3901" cy="-66.64" rx="27" ry="18"/>
</g>
<!-- talk_p_proc&#45;&gt;Node019 -->
<g id="edge20" class="edge">
<title>talk_p_proc&#45;&gt;Node019</title>
<path fill="none" stroke="#555555" stroke-dasharray="1,5" d="M2578.46,-194.23C2584.72,-185.12 2593.83,-174.56 2605,-169.29 2731.66,-109.52 3745.52,-206.36 3865,-133.29 3878.87,-124.81 3887.78,-108.94 3893.27,-94.93"/>
<polygon fill="#555555" stroke="#555555" points="3896.84,-96.32 3896.82,-85.73 3890.23,-94.02 3896.84,-96.32"/>
</g>
<!-- Node010 -->
<g id="node18" class="node">
<title>Node010</title>
<ellipse fill="#ffffff" stroke="#000000" cx="2271" cy="-66.64" rx="138.06" ry="42.25"/>
<text text-anchor="middle" x="2271" y="-79.22" font-family="Times,serif" font-size="14.00">Сэр, мне очень жаль, но</text>
<text text-anchor="middle" x="2271" y="-61.97" font-family="Times,serif" font-size="14.00">это оружие придется</text>
<text text-anchor="middle" x="2271" y="-44.72" font-family="Times,serif" font-size="14.00">убрать.</text>
</g>
<!-- talk_p_proc&#45;&gt;Node010 -->
<g id="edge21" class="edge">
<title>talk_p_proc&#45;&gt;Node010</title>
<path fill="none" stroke="#555555" stroke-dasharray="1,5" d="M2546.38,-201.38C2504.93,-182.98 2415.47,-140.5 2349.68,-108.32"/>
<polygon fill="#555555" stroke="#555555" points="2351.67,-104.91 2341.15,-103.66 2348.59,-111.2 2351.67,-104.91"/>
</g>
<!-- talk_p_proc&#45;&gt;Node010 -->
<g id="edge27" class="edge">
<title>talk_p_proc&#45;&gt;Node010</title>
<path fill="none" stroke="#555555" stroke-dasharray="1,5" d="M2548.99,-199.09C2510.43,-179.24 2424.29,-137.57 2358,-106.45"/>
<polygon fill="#555555" stroke="#555555" points="2359.91,-103.01 2349.37,-101.93 2356.94,-109.35 2359.91,-103.01"/>
</g>
<!-- Node011 -->
<g id="node19" class="node">
<title>Node011</title>
<ellipse fill="#ffffff" stroke="#000000" cx="2569" cy="-66.64" rx="142.31" ry="42.25"/>
<text text-anchor="middle" x="2569" y="-79.22" font-family="Times,serif" font-size="14.00">Мэм, мне очень жаль, но</text>
<text text-anchor="middle" x="2569" y="-61.97" font-family="Times,serif" font-size="14.00">это оружие придется</text>
<text text-anchor="middle" x="2569" y="-44.72" font-family="Times,serif" font-size="14.00">убрать.</text>
</g>
<!-- talk_p_proc&#45;&gt;Node011 -->
<g id="edge22" class="edge">
<title>talk_p_proc&#45;&gt;Node011</title>
<path fill="none" stroke="#555555" stroke-dasharray="1,5" d="M2569,-193.3C2569,-175.18 2569,-145.77 2569,-119.96"/>
<polygon fill="#555555" stroke="#555555" points="2572.5,-120.16 2569,-110.16 2565.5,-120.16 2572.5,-120.16"/>
</g>
<!-- Node021 -->
<g id="node20" class="node">
<title>Node021</title>
<ellipse fill="#ffffff" stroke="#000000" cx="3973" cy="-66.64" rx="27" ry="18"/>
</g>
<!-- talk_p_proc&#45;&gt;Node021 -->
<g id="edge25" class="edge">
<title>talk_p_proc&#45;&gt;Node021</title>
<path fill="none" stroke="#555555" stroke-dasharray="1,5" d="M2571.11,-193.38C2576.27,-184.46 2585.16,-174.39 2596,-169.29 2729.94,-106.21 3801.63,-210.44 3928,-133.29 3942.37,-124.52 3951.42,-107.81 3958.01,-93.45"/>
<polygon fill="#555555" stroke="#555555" points="3961.55,-95.11 3962.42,-84.55 3955.16,-92.26 3961.55,-95.11"/>
</g>
<!-- talk_p_proc&#45;&gt;Node021 -->
<g id="edge31" class="edge">
<title>talk_p_proc&#45;&gt;Node021</title>
<path fill="none" stroke="#555555" stroke-dasharray="1,5" d="M2584.59,-196.3C2592.32,-186.76 2601.96,-174.96 2614,-169.29 2747.94,-106.21 3819.63,-210.44 3946,-133.29 3959.66,-124.95 3968.5,-109.46 3973.01,-95.61"/>
<polygon fill="#555555" stroke="#555555" points="3976.63,-96.59 3975.7,-86.03 3969.84,-94.86 3976.63,-96.59"/>
</g>
<!-- Node022 -->
<g id="node21" class="node">
<title>Node022</title>
<ellipse fill="#ffffff" stroke="#000000" cx="4045" cy="-66.64" rx="27" ry="18"/>
</g>
<!-- talk_p_proc&#45;&gt;Node022 -->
<g id="edge26" class="edge">
<title>talk_p_proc&#45;&gt;Node022</title>
<path fill="none" stroke="#555555" stroke-dasharray="1,5" d="M2578.45,-194.22C2584.71,-185.1 2593.82,-174.55 2605,-169.29 2746.22,-102.9 3875.75,-214.51 4009,-133.29 4022.89,-124.83 4031.8,-108.96 4037.28,-94.94"/>
<polygon fill="#555555" stroke="#555555" points="4040.85,-96.33 4040.83,-85.74 4034.24,-94.03 4040.85,-96.33"/>
</g>
<!-- Node012 -->
<g id="node22" class="node">
<title>Node012</title>
<ellipse fill="#ffffff" stroke="#000000" cx="2885" cy="-66.64" rx="155.56" ry="66.64"/>
<text text-anchor="middle" x="2885" y="-96.47" font-family="Times,serif" font-size="14.00">Дорогуша, мне очень жаль,</text>
<text text-anchor="middle" x="2885" y="-79.22" font-family="Times,serif" font-size="14.00">но проносить оружие в</text>
<text text-anchor="middle" x="2885" y="-61.97" font-family="Times,serif" font-size="14.00">казино запрещено.</text>
<text text-anchor="middle" x="2885" y="-44.72" font-family="Times,serif" font-size="14.00">Хе&#45;хе... Ты и так</text>
<text text-anchor="middle" x="2885" y="-27.47" font-family="Times,serif" font-size="14.00">смертельно красивая.</text>
</g>
<!-- talk_p_proc&#45;&gt;Node012 -->
<g id="edge28" class="edge">
<title>talk_p_proc&#45;&gt;Node012</title>
<path fill="none" stroke="#555555" stroke-dasharray="1,5" d="M2579.66,-194.5C2586.09,-185.93 2594.97,-175.84 2605,-169.29 2649.85,-140.01 2669.53,-151.2 2720,-133.29 2734.05,-128.31 2748.67,-122.86 2763.16,-117.31"/>
<polygon fill="#555555" stroke="#555555" points="2764.08,-120.32 2772.15,-113.46 2761.56,-113.79 2764.08,-120.32"/>
</g>
<!-- Node013 -->
<g id="node23" class="node">
<title>Node013</title>
<ellipse fill="#ffffff" stroke="#000000" cx="3205" cy="-66.64" rx="146.55" ry="42.25"/>
<text text-anchor="middle" x="3205" y="-79.22" font-family="Times,serif" font-size="14.00">Дорогая, с такой фигурой</text>
<text text-anchor="middle" x="3205" y="-61.97" font-family="Times,serif" font-size="14.00">тебе нигде не удастся</text>
<text text-anchor="middle" x="3205" y="-44.72" font-family="Times,serif" font-size="14.00">пройти незамеченной.</text>
</g>
<!-- talk_p_proc&#45;&gt;Node013 -->
<g id="edge30" class="edge">
<title>talk_p_proc&#45;&gt;Node013</title>
<path fill="none" stroke="#555555" stroke-dasharray="1,5" d="M2578.56,-194.44C2584.86,-185.4 2593.97,-174.85 2605,-169.29 2693.59,-124.62 2953.65,-156.94 3050,-133.29 3074.35,-127.31 3099.79,-117.97 3122.86,-108.18"/>
<polygon fill="#555555" stroke="#555555" points="3124.14,-111.01 3131.93,-103.82 3121.36,-104.59 3124.14,-111.01"/>
</g>
<!-- Node024 -->
<g id="node24" class="node">
<title>Node024</title>
<ellipse fill="#ffffff" stroke="#000000" cx="3613" cy="-66.64" rx="27" ry="18"/>
</g>
<!-- talk_p_proc&#45;&gt;Node024 -->
<g id="edge32" class="edge">
<title>talk_p_proc&#45;&gt;Node024</title>
<path fill="none" stroke="#555555" stroke-dasharray="1,5" d="M2578.47,-194.26C2584.74,-185.16 2593.85,-174.61 2605,-169.29 2702.54,-122.76 3485.04,-190.06 3577,-133.29 3590.84,-124.75 3599.75,-108.88 3605.24,-94.88"/>
<polygon fill="#555555" stroke="#555555" points="3608.81,-96.29 3608.8,-85.69 3602.2,-93.98 3608.81,-96.29"/>
</g>
<!-- Node025 -->
<g id="node25" class="node">
<title>Node025</title>
<ellipse fill="#ffffff" stroke="#000000" cx="3685" cy="-66.64" rx="27" ry="18"/>
</g>
<!-- talk_p_proc&#45;&gt;Node025 -->
<g id="edge33" class="edge">
<title>talk_p_proc&#45;&gt;Node025</title>
<path fill="none" stroke="#555555" stroke-dasharray="1,5" d="M2578.47,-194.25C2584.73,-185.15 2593.84,-174.6 2605,-169.29 2709.82,-119.45 3550.16,-194.14 3649,-133.29 3662.85,-124.76 3671.76,-108.89 3677.25,-94.89"/>
<polygon fill="#555555" stroke="#555555" points="3680.82,-96.3 3680.81,-85.7 3674.21,-93.99 3680.82,-96.3"/>
</g>
<!-- Node026 -->
<g id="node26" class="node">
<title>Node026</title>
<ellipse fill="#ffffff" stroke="#000000" cx="3757" cy="-66.64" rx="27" ry="18"/>
</g>
<!-- talk_p_proc&#45;&gt;Node026 -->
<g id="edge34" class="edge">
<title>talk_p_proc&#45;&gt;Node026</title>
<path fill="none" stroke="#555555" stroke-dasharray="1,5" d="M2578.46,-194.25C2584.73,-185.14 2593.83,-174.58 2605,-169.29 2717.1,-116.14 3615.28,-198.21 3721,-133.29 3734.86,-124.78 3743.77,-108.91 3749.26,-94.91"/>
<polygon fill="#555555" stroke="#555555" points="3752.82,-96.31 3752.81,-85.71 3746.22,-94 3752.82,-96.31"/>
</g>
<!-- destroy_p_proc -->
<g id="node27" class="node">
<title>destroy_p_proc</title>
<ellipse fill="#ffffff" stroke="#000000" cx="2641" cy="-211.54" rx="27" ry="18"/>
</g>
<!-- look_at_p_proc -->
<g id="node28" class="node">
<title>look_at_p_proc</title>
<ellipse fill="#ffffff" stroke="#000000" cx="2808" cy="-211.54" rx="121.62" ry="30.05"/>
<text text-anchor="middle" x="2808" y="-215.49" font-family="Times,serif" font-size="14.00">Вы видите вышибалу</text>
<text text-anchor="middle" x="2808" y="-198.24" font-family="Times,serif" font-size="14.00">казино.</text>
</g>
<!-- description_p_proc -->
<g id="node29" class="node">
<title>description_p_proc</title>
<ellipse fill="#ffffff" stroke="#000000" cx="2975" cy="-211.54" rx="27" ry="18"/>
</g>
<!-- use_skill_on_p_proc -->
<g id="node30" class="node">
<title>use_skill_on_p_proc</title>
<ellipse fill="#ffffff" stroke="#000000" cx="3047" cy="-211.54" rx="27" ry="18"/>
</g>
<!-- damage_p_proc -->
<g id="node31" class="node">
<title>damage_p_proc</title>
<ellipse fill="#ffffff" stroke="#000000" cx="3226" cy="-211.54" rx="133.82" ry="42.25"/>
<text text-anchor="middle" x="3226" y="-224.11" font-family="Times,serif" font-size="14.00">Э... вам придется снять</text>
<text text-anchor="middle" x="3226" y="-206.86" font-family="Times,serif" font-size="14.00">эту броню... хотя...</text>
<text text-anchor="middle" x="3226" y="-189.61" font-family="Times,serif" font-size="14.00">ладно.</text>
</g>
<!-- map_enter_p_proc -->
<g id="node32" class="node">
<title>map_enter_p_proc</title>
<ellipse fill="#ffffff" stroke="#000000" cx="3405" cy="-211.54" rx="27" ry="18"/>
</g>
<!-- timed_event_p_proc -->
<g id="node33" class="node">
<title>timed_event_p_proc</title>
<ellipse fill="#ffffff" stroke="#000000" cx="1815" cy="-211.54" rx="27" ry="18"/>
</g>
<!-- timed_event_p_proc&#45;&gt;Node008 -->
<g id="edge35" class="edge">
<title>timed_event_p_proc&#45;&gt;Node008</title>
<path fill="none" stroke="#555555" stroke-dasharray="1,5" d="M1787.91,-210.4C1677.84,-209.4 1278.66,-201.13 1179,-133.29 1164.84,-123.65 1155.72,-106.54 1153.88,-92.21"/>
<polygon fill="#555555" stroke="#555555" points="1157.39,-92.54 1154.02,-82.5 1150.39,-92.46 1157.39,-92.54"/>
</g>
<!-- timed_event_p_proc&#45;&gt;Node008 -->
<g id="edge37" class="edge">
<title>timed_event_p_proc&#45;&gt;Node008</title>
<path fill="none" stroke="#555555" stroke-dasharray="1,5" d="M1787.67,-210.34C1680.95,-209.07 1294.79,-199.86 1197,-133.29 1183.86,-124.34 1175.06,-108.96 1170.43,-95.34"/>
<polygon fill="#555555" stroke="#555555" points="1173.61,-94.68 1167.61,-85.94 1166.85,-96.51 1173.61,-94.68"/>
</g>
<!-- timed_event_p_proc&#45;&gt;Node008 -->
<g id="edge49" class="edge">
<title>timed_event_p_proc&#45;&gt;Node008</title>
<path fill="none" stroke="#555555" stroke-dasharray="1,5" d="M1787.8,-210.25C1683.42,-208.67 1310.81,-198.51 1215,-133.29 1201.17,-123.87 1192.14,-107.32 1185.44,-93.2"/>
<polygon fill="#555555" stroke="#555555" points="1188.32,-92.08 1180.94,-84.48 1181.97,-95.02 1188.32,-92.08"/>
</g>
<!-- timed_event_p_proc&#45;&gt;Node008 -->
<g id="edge51" class="edge">
<title>timed_event_p_proc&#45;&gt;Node008</title>
<path fill="none" stroke="#555555" stroke-dasharray="1,5" d="M1787.89,-210.13C1684.43,-208.17 1326.61,-197.01 1233,-133.29 1217.16,-122.51 1207.63,-102.38 1197.23,-87.24"/>
<polygon fill="#555555" stroke="#555555" points="1199.45,-85.39 1190.59,-79.59 1193.9,-89.65 1199.45,-85.39"/>
</g>
<!-- timed_event_p_proc&#45;&gt;Node009 -->
<g id="edge36" class="edge">
<title>timed_event_p_proc&#45;&gt;Node009</title>
<path fill="none" stroke="#555555" stroke-dasharray="1,5" d="M1787.77,-210.05C1685.36,-207.52 1337.9,-193.51 1251,-133.29 1236.92,-123.53 1227.8,-106.43 1225.94,-92.12"/>
<polygon fill="#555555" stroke="#555555" points="1229.45,-92.48 1226.05,-82.45 1222.45,-92.41 1229.45,-92.48"/>
</g>
<!-- timed_event_p_proc&#45;&gt;Node009 -->
<g id="edge38" class="edge">
<title>timed_event_p_proc&#45;&gt;Node009</title>
<path fill="none" stroke="#555555" stroke-dasharray="1,5" d="M1787.89,-209.89C1689.54,-206.94 1354.16,-192.31 1269,-133.29 1255.93,-124.23 1247.14,-108.85 1242.49,-95.25"/>
<polygon fill="#555555" stroke="#555555" points="1245.67,-94.6 1239.65,-85.88 1238.92,-96.45 1245.67,-94.6"/>
</g>
<!-- timed_event_p_proc&#45;&gt;Node009 -->
<g id="edge50" class="edge">
<title>timed_event_p_proc&#45;&gt;Node009</title>
<path fill="none" stroke="#555555" stroke-dasharray="1,5" d="M1787.83,-209.66C1691.67,-206.21 1370.12,-190.9 1287,-133.29 1273.25,-123.76 1264.22,-107.21 1257.5,-93.11"/>
<polygon fill="#555555" stroke="#555555" points="1260.38,-92 1252.98,-84.42 1254.03,-94.96 1260.38,-92"/>
</g>
<!-- timed_event_p_proc&#45;&gt;Node009 -->
<g id="edge52" class="edge">
<title>timed_event_p_proc&#45;&gt;Node009</title>
<path fill="none" stroke="#555555" stroke-dasharray="1,5" d="M1787.83,-209.35C1692.63,-205.36 1385.9,-189.35 1305,-133.29 1289.25,-122.38 1279.7,-102.27 1269.28,-87.17"/>
<polygon fill="#555555" stroke="#555555" points="1271.5,-85.32 1262.62,-79.54 1265.96,-89.6 1271.5,-85.32"/>
</g>
<!-- timed_event_p_proc&#45;&gt;Node014 -->
<g id="edge39" class="edge">
<title>timed_event_p_proc&#45;&gt;Node014</title>
<path fill="none" stroke="#555555" stroke-dasharray="1,5" d="M1789.91,-204.03C1734.26,-185.96 1604.62,-134.3 1526.2,-100"/>
<polygon fill="#555555" stroke="#555555" points="1527.99,-96.52 1517.43,-95.7 1525.17,-102.93 1527.99,-96.52"/>
</g>
<!-- timed_event_p_proc&#45;&gt;Node014 -->
<g id="edge40" class="edge">
<title>timed_event_p_proc&#45;&gt;Node014</title>
<path fill="none" stroke="#555555" stroke-dasharray="1,5" d="M1791.24,-202.24C1739.54,-182.62 1615.73,-132.53 1536.04,-99.3"/>
<polygon fill="#555555" stroke="#555555" points="1537.65,-95.76 1527.07,-95.13 1534.95,-102.22 1537.65,-95.76"/>
</g>
<!-- timed_event_p_proc&#45;&gt;Node014 -->
<g id="edge53" class="edge">
<title>timed_event_p_proc&#45;&gt;Node014</title>
<path fill="none" stroke="#555555" stroke-dasharray="1,5" d="M1793.46,-200.26C1745.14,-179.27 1626.63,-130.76 1545.69,-98.59"/>
<polygon fill="#555555" stroke="#555555" points="1547.11,-94.99 1536.52,-94.56 1544.53,-101.5 1547.11,-94.99"/>
</g>
<!-- timed_event_p_proc&#45;&gt;Node014 -->
<g id="edge54" class="edge">
<title>timed_event_p_proc&#45;&gt;Node014</title>
<path fill="none" stroke="#555555" stroke-dasharray="1,5" d="M1796.51,-198.11C1750.9,-175.88 1636.73,-128.75 1554.53,-97.64"/>
<polygon fill="#555555" stroke="#555555" points="1556.01,-94.08 1545.42,-93.83 1553.54,-100.63 1556.01,-94.08"/>
</g>
<!-- timed_event_p_proc&#45;&gt;Node015 -->
<g id="edge41" class="edge">
<title>timed_event_p_proc&#45;&gt;Node015</title>
<path fill="none" stroke="#555555" stroke-dasharray="1,5" d="M1801.98,-195.52C1795.7,-177.63 1793.51,-146.79 1795.42,-119.88"/>
<polygon fill="#555555" stroke="#555555" points="1798.98,-120.31 1796.44,-110.03 1792.01,-119.66 1798.98,-120.31"/>
</g>
<!-- timed_event_p_proc&#45;&gt;Node015 -->
<g id="edge42" class="edge">
<title>timed_event_p_proc&#45;&gt;Node015</title>
<path fill="none" stroke="#555555" stroke-dasharray="1,5" d="M1810.42,-193.3C1808.51,-175.18 1807.86,-145.77 1808.47,-119.96"/>
<polygon fill="#555555" stroke="#555555" points="1811.99,-120.27 1808.81,-110.16 1805,-120.05 1811.99,-120.27"/>
</g>
<!-- timed_event_p_proc&#45;&gt;Node015 -->
<g id="edge55" class="edge">
<title>timed_event_p_proc&#45;&gt;Node015</title>
<path fill="none" stroke="#555555" stroke-dasharray="1,5" d="M1819.58,-193.3C1821.49,-175.18 1822.14,-145.77 1821.53,-119.96"/>
<polygon fill="#555555" stroke="#555555" points="1825,-120.05 1821.19,-110.16 1818.01,-120.27 1825,-120.05"/>
</g>
<!-- timed_event_p_proc&#45;&gt;Node015 -->
<g id="edge56" class="edge">
<title>timed_event_p_proc&#45;&gt;Node015</title>
<path fill="none" stroke="#555555" stroke-dasharray="1,5" d="M1828.02,-195.52C1834.3,-177.63 1836.49,-146.79 1834.58,-119.88"/>
<polygon fill="#555555" stroke="#555555" points="1837.99,-119.66 1833.56,-110.03 1831.02,-120.31 1837.99,-119.66"/>
</g>
<!-- timed_event_p_proc&#45;&gt;Node017 -->
<g id="edge43" class="edge">
<title>timed_event_p_proc&#45;&gt;Node017</title>
<path fill="none" stroke="#555555" stroke-dasharray="1,5" d="M1835.26,-199.17C1865.66,-187.53 1917.71,-166.4 1953,-133.29 1966.97,-120.18 1976.79,-100.4 1987.76,-85.98"/>
<polygon fill="#555555" stroke="#555555" points="1990.92,-88.67 1994.79,-78.8 1985.61,-84.11 1990.92,-88.67"/>
</g>
<!-- timed_event_p_proc&#45;&gt;Node017 -->
<g id="edge44" class="edge">
<title>timed_event_p_proc&#45;&gt;Node017</title>
<path fill="none" stroke="#555555" stroke-dasharray="1,5" d="M1839,-202.6C1872.24,-191.94 1931.9,-169.97 1971,-133.29 1982.93,-122.09 1991.84,-106.03 1998.88,-92.6"/>
<polygon fill="#555555" stroke="#555555" points="2002.38,-94.45 2003.91,-83.96 1996.18,-91.2 2002.38,-94.45"/>
</g>
<!-- timed_event_p_proc&#45;&gt;Node017 -->
<g id="edge57" class="edge">
<title>timed_event_p_proc&#45;&gt;Node017</title>
<path fill="none" stroke="#555555" stroke-dasharray="1,5" d="M1840.89,-205.47C1878.07,-196.2 1945.98,-173.65 1989,-133.29 2000.18,-122.8 2008.7,-108.04 2013.76,-95.17"/>
<polygon fill="#555555" stroke="#555555" points="2017.33,-96.53 2017.18,-85.94 2010.69,-94.32 2017.33,-96.53"/>
</g>
<!-- timed_event_p_proc&#45;&gt;Node017 -->
<g id="edge58" class="edge">
<title>timed_event_p_proc&#45;&gt;Node017</title>
<path fill="none" stroke="#555555" stroke-dasharray="1,5" d="M1841.76,-207.46C1884.99,-199.72 1960.52,-176.9 2007,-133.29 2018.88,-122.15 2027.75,-106.19 2030.55,-92.79"/>
<polygon fill="#555555" stroke="#555555" points="2034.11,-93.1 2031.37,-82.87 2027.13,-92.58 2034.11,-93.1"/>
</g>
<!-- timed_event_p_proc&#45;&gt;Node018 -->
<g id="edge45" class="edge">
<title>timed_event_p_proc&#45;&gt;Node018</title>
<path fill="none" stroke="#555555" stroke-dasharray="1,5" d="M1840.94,-205.81C1884.95,-198.35 1969.19,-179.55 2025,-133.29 2039.75,-121.06 2049.45,-101.15 2060.18,-86.46"/>
<polygon fill="#555555" stroke="#555555" points="2063.4,-89.05 2067.05,-79.1 2057.99,-84.61 2063.4,-89.05"/>
</g>
<!-- timed_event_p_proc&#45;&gt;Node018 -->
<g id="edge46" class="edge">
<title>timed_event_p_proc&#45;&gt;Node018</title>
<path fill="none" stroke="#555555" stroke-dasharray="1,5" d="M1841.61,-207.56C1887.64,-201.49 1982.19,-183.69 2043,-133.29 2055.6,-122.85 2064.51,-106.8 2071.39,-93.18"/>
<polygon fill="#555555" stroke="#555555" points="2074.95,-94.89 2076.28,-84.38 2068.68,-91.76 2074.95,-94.89"/>
</g>
<!-- timed_event_p_proc&#45;&gt;Node018 -->
<g id="edge59" class="edge">
<title>timed_event_p_proc&#45;&gt;Node018</title>
<path fill="none" stroke="#555555" stroke-dasharray="1,5" d="M1842.15,-208.72C1891.46,-203.95 1995.7,-187.42 2061,-133.29 2072.88,-123.44 2081.49,-108.6 2086.4,-95.52"/>
<polygon fill="#555555" stroke="#555555" points="2090.02,-96.69 2089.65,-86.1 2083.33,-94.61 2090.02,-96.69"/>
</g>
<!-- timed_event_p_proc&#45;&gt;Node018 -->
<g id="edge60" class="edge">
<title>timed_event_p_proc&#45;&gt;Node018</title>
<path fill="none" stroke="#555555" stroke-dasharray="1,5" d="M1842.08,-209.47C1896.56,-205.83 2009.7,-190.74 2079,-133.29 2091.82,-122.66 2100.83,-106.23 2103.24,-92.46"/>
<polygon fill="#555555" stroke="#555555" points="2106.77,-92.84 2103.65,-82.71 2099.77,-92.57 2106.77,-92.84"/>
</g>
<!-- timed_event_p_proc&#45;&gt;Node030 -->
<g id="edge47" class="edge">
<title>timed_event_p_proc&#45;&gt;Node030</title>
<path fill="none" stroke="#555555" stroke-dasharray="1,5" d="M1787.69,-210.68C1669.83,-211.09 1219.39,-208.71 1107,-133.29 1092.78,-123.75 1083.66,-106.63 1081.84,-92.27"/>
<polygon fill="#555555" stroke="#555555" points="1085.35,-92.59 1081.99,-82.54 1078.35,-92.5 1085.35,-92.59"/>
</g>
<!-- timed_event_p_proc&#45;&gt;Node030 -->
<g id="edge48" class="edge">
<title>timed_event_p_proc&#45;&gt;Node030</title>
<path fill="none" stroke="#555555" stroke-dasharray="1,5" d="M1787.57,-210.7C1673.08,-210.99 1235.53,-207.47 1125,-133.29 1111.8,-124.43 1103,-109.05 1098.38,-95.41"/>
<polygon fill="#555555" stroke="#555555" points="1101.56,-94.74 1095.58,-85.99 1094.8,-96.56 1101.56,-94.74"/>
</g>
<!-- timed_event_p_proc&#45;&gt;Node030 -->
<g id="edge61" class="edge">
<title>timed_event_p_proc&#45;&gt;Node030</title>
<path fill="none" stroke="#555555" stroke-dasharray="1,5" d="M1787.74,-210.71C1675.54,-210.84 1251.56,-206.14 1143,-133.29 1129.1,-123.96 1120.08,-107.41 1113.4,-93.27"/>
<polygon fill="#555555" stroke="#555555" points="1116.27,-92.14 1108.91,-84.53 1109.91,-95.07 1116.27,-92.14"/>
</g>
<!-- timed_event_p_proc&#45;&gt;Node030 -->
<g id="edge62" class="edge">
<title>timed_event_p_proc&#45;&gt;Node030</title>
<path fill="none" stroke="#555555" stroke-dasharray="1,5" d="M1787.76,-210.71C1676.31,-210.62 1267.33,-204.65 1161,-133.29 1145.09,-122.61 1135.57,-102.47 1125.2,-87.3"/>
<polygon fill="#555555" stroke="#555555" points="1127.42,-85.44 1118.56,-79.62 1121.86,-89.69 1127.42,-85.44"/>
</g>
<!-- timed_event_p_proc&#45;&gt;Node001 -->
<g id="edge64" class="edge">
<title>timed_event_p_proc&#45;&gt;Node001</title>
<path fill="none" stroke="#555555" stroke-dasharray="1,5" d="M1842.05,-208.85C1936.92,-202.95 2263.34,-182.9 2533,-169.29 2624.97,-164.65 3282.8,-181.92 3361,-133.29 3374.81,-124.7 3383.72,-108.83 3389.22,-94.84"/>
<polygon fill="#555555" stroke="#555555" points="3392.78,-96.26 3392.79,-85.67 3386.18,-93.95 3392.78,-96.26"/>
</g>
<!-- timed_event_p_proc&#45;&gt;Node003 -->
<g id="edge65" class="edge">
<title>timed_event_p_proc&#45;&gt;Node003</title>
<path fill="none" stroke="#555555" stroke-dasharray="1,5" d="M1842,-208.58C1936.2,-202.29 2257.74,-182.26 2524,-169.29 2573.98,-166.85 3381.46,-159.64 3424,-133.29 3438.32,-124.42 3447.36,-107.72 3453.97,-93.38"/>
<polygon fill="#555555" stroke="#555555" points="3457.5,-95.06 3458.4,-84.5 3451.11,-92.2 3457.5,-95.06"/>
</g>
<!-- timed_event_p_proc&#45;&gt;Node003 -->
<g id="edge74" class="edge">
<title>timed_event_p_proc&#45;&gt;Node003</title>
<path fill="none" stroke="#555555" stroke-dasharray="1,5" d="M1842.24,-209.02C1938.36,-203.28 2269.2,-182.58 2542,-169.29 2591.98,-166.85 3399.46,-159.64 3442,-133.29 3455.6,-124.86 3464.45,-109.36 3468.96,-95.54"/>
<polygon fill="#555555" stroke="#555555" points="3472.58,-96.54 3471.67,-85.98 3465.8,-94.8 3472.58,-96.54"/>
</g>
<!-- timed_event_p_proc&#45;&gt;Node002 -->
<g id="edge66" class="edge">
<title>timed_event_p_proc&#45;&gt;Node002</title>
<path fill="none" stroke="#555555" stroke-dasharray="1,5" d="M1841.77,-208.29C1935.47,-201.64 2252.15,-181.71 2515,-169.29 2568.98,-166.74 3441.02,-161.68 3487,-133.29 3502.24,-123.88 3511.51,-105.58 3519.62,-90.68"/>
<polygon fill="#555555" stroke="#555555" points="3522.93,-92.94 3524.84,-82.52 3516.85,-89.48 3522.93,-92.94"/>
</g>
<!-- timed_event_p_proc&#45;&gt;Node002 -->
<g id="edge73" class="edge">
<title>timed_event_p_proc&#45;&gt;Node002</title>
<path fill="none" stroke="#555555" stroke-dasharray="1,5" d="M1842.05,-208.79C1936.91,-202.68 2263.29,-182.03 2533,-169.29 2586.98,-166.74 3459.02,-161.68 3505,-133.29 3518.84,-124.75 3527.75,-108.88 3533.24,-94.88"/>
<polygon fill="#555555" stroke="#555555" points="3536.81,-96.29 3536.8,-85.69 3530.2,-93.98 3536.81,-96.29"/>
</g>
<!-- timed_event_p_proc&#45;&gt;Node002 -->
<g id="edge77" class="edge">
<title>timed_event_p_proc&#45;&gt;Node002</title>
<path fill="none" stroke="#555555" stroke-dasharray="1,5" d="M1842.22,-209.19C1939.78,-203.64 2275.06,-182.32 2551,-169.29 2604.98,-166.74 3477.02,-161.68 3523,-133.29 3536.96,-124.67 3545.91,-108.59 3549.23,-94.5"/>
<polygon fill="#555555" stroke="#555555" points="3552.81,-95.19 3550.68,-84.81 3545.87,-94.25 3552.81,-95.19"/>
</g>
<!-- timed_event_p_proc&#45;&gt;Node010 -->
<g id="edge71" class="edge">
<title>timed_event_p_proc&#45;&gt;Node010</title>
<path fill="none" stroke="#555555" stroke-dasharray="1,5" d="M1840.49,-204.71C1892.94,-193.66 2015.43,-167.67 2115,-133.29 2137.34,-125.58 2160.96,-115.8 2182.89,-106.16"/>
<polygon fill="#555555" stroke="#555555" points="2184.12,-109 2191.85,-101.75 2181.29,-102.6 2184.12,-109"/>
</g>
<!-- timed_event_p_proc&#45;&gt;Node010 -->
<g id="edge75" class="edge">
<title>timed_event_p_proc&#45;&gt;Node010</title>
<path fill="none" stroke="#555555" stroke-dasharray="1,5" d="M1841.34,-206.47C1896.72,-196.63 2027.68,-169.66 2133,-133.29 2153.45,-126.23 2174.98,-117.43 2194.81,-108.6"/>
<polygon fill="#555555" stroke="#555555" points="2196.03,-111.44 2203.7,-104.13 2193.15,-105.06 2196.03,-111.44"/>
</g>
<!-- timed_event_p_proc&#45;&gt;Node011 -->
<g id="edge72" class="edge">
<title>timed_event_p_proc&#45;&gt;Node011</title>
<path fill="none" stroke="#555555" stroke-dasharray="1,5" d="M1842.28,-209.77C1928.39,-206.79 2201.52,-192.91 2418,-133.29 2441.18,-126.9 2465.43,-117.63 2487.55,-108.05"/>
<polygon fill="#555555" stroke="#555555" points="2488.81,-110.88 2496.55,-103.64 2485.98,-104.47 2488.81,-110.88"/>
</g>
<!-- timed_event_p_proc&#45;&gt;Node012 -->
<g id="edge76" class="edge">
<title>timed_event_p_proc&#45;&gt;Node012</title>
<path fill="none" stroke="#555555" stroke-dasharray="1,5" d="M1842.48,-211.1C1953.77,-212.76 2381.22,-213.29 2720,-133.29 2735.75,-129.57 2751.98,-124.61 2767.83,-119.09"/>
<polygon fill="#555555" stroke="#555555" points="2768.95,-122.05 2777.19,-115.38 2766.59,-115.46 2768.95,-122.05"/>
</g>
<!-- timed_event_p_proc&#45;&gt;Node013 -->
<g id="edge78" class="edge">
<title>timed_event_p_proc&#45;&gt;Node013</title>
<path fill="none" stroke="#555555" stroke-dasharray="1,5" d="M1842.09,-208.97C2020.4,-198.63 3019.53,-140.47 3050,-133.29 3074.64,-127.48 3100.35,-118.09 3123.59,-108.2"/>
<polygon fill="#555555" stroke="#555555" points="3124.61,-111.14 3132.39,-103.94 3121.82,-104.72 3124.61,-111.14"/>
</g>
<!-- Node028 -->
<g id="node34" class="node">
<title>Node028</title>
<ellipse fill="#ffffff" stroke="#000000" cx="720" cy="-66.64" rx="27" ry="18"/>
</g>
<!-- timed_event_p_proc&#45;&gt;Node028 -->
<g id="edge63" class="edge">
<title>timed_event_p_proc&#45;&gt;Node028</title>
<path fill="none" stroke="#555555" stroke-dasharray="1,5" d="M1787.72,-210.09C1630.63,-207.32 845.28,-190.64 756,-133.29 742.41,-124.56 733.52,-108.83 727.99,-94.95"/>
<polygon fill="#555555" stroke="#555555" points="731.04,-94.09 724.38,-85.85 724.45,-96.45 731.04,-94.09"/>
</g>
<!-- Node005 -->
<g id="node35" class="node">
<title>Node005</title>
<ellipse fill="#ffffff" stroke="#000000" cx="792" cy="-66.64" rx="27" ry="18"/>
</g>
<!-- timed_event_p_proc&#45;&gt;Node005 -->
<g id="edge67" class="edge">
<title>timed_event_p_proc&#45;&gt;Node005</title>
<path fill="none" stroke="#555555" stroke-dasharray="1,5" d="M1787.63,-209.94C1636.8,-206.41 910.74,-186.75 828,-133.29 814.43,-124.52 805.55,-108.79 800,-94.92"/>
<polygon fill="#555555" stroke="#555555" points="803.06,-94.07 796.39,-85.83 796.47,-96.43 803.06,-94.07"/>
</g>
<!-- Node007 -->
<g id="node36" class="node">
<title>Node007</title>
<ellipse fill="#ffffff" stroke="#000000" cx="945" cy="-66.64" rx="108.03" ry="18"/>
<text text-anchor="middle" x="945" y="-61.97" font-family="Times,serif" font-size="14.00">Добрый день, мэм.</text>
</g>
<!-- timed_event_p_proc&#45;&gt;Node007 -->
<g id="edge68" class="edge">
<title>timed_event_p_proc&#45;&gt;Node007</title>
<path fill="none" stroke="#555555" stroke-dasharray="1,5" d="M1788.05,-209.24C1670.44,-203.37 1201.84,-177.59 1062,-133.29 1031.5,-123.63 1000.04,-105.43 977.44,-90.64"/>
<polygon fill="#555555" stroke="#555555" points="979.58,-87.2 969.32,-84.55 975.69,-93.02 979.58,-87.2"/>
</g>
<!-- Node004 -->
<g id="node37" class="node">
<title>Node004</title>
<ellipse fill="#ffffff" stroke="#000000" cx="350" cy="-66.64" rx="27" ry="18"/>
</g>
<!-- timed_event_p_proc&#45;&gt;Node004 -->
<g id="edge69" class="edge">
<title>timed_event_p_proc&#45;&gt;Node004</title>
<path fill="none" stroke="#555555" stroke-dasharray="1,5" d="M1787.58,-210.64C1599.92,-211.14 508.96,-210.65 386,-133.29 372.24,-124.63 363.33,-108.76 357.82,-94.79"/>
<polygon fill="#555555" stroke="#555555" points="360.86,-93.9 354.24,-85.63 354.26,-96.22 360.86,-93.9"/>
</g>
<!-- Node006 -->
<g id="node38" class="node">
<title>Node006</title>
<ellipse fill="#ffffff" stroke="#000000" cx="499" cy="-66.64" rx="103.82" ry="18"/>
<text text-anchor="middle" x="499" y="-61.97" font-family="Times,serif" font-size="14.00">Добрый день, сэр.</text>
</g>
<!-- timed_event_p_proc&#45;&gt;Node006 -->
<g id="edge70" class="edge">
<title>timed_event_p_proc&#45;&gt;Node006</title>
<path fill="none" stroke="#555555" stroke-dasharray="1,5" d="M1787.68,-210.48C1630.68,-209.87 842.39,-203.35 612,-133.29 581.99,-124.16 551.44,-105.75 529.68,-90.74"/>
<polygon fill="#555555" stroke="#555555" points="532.11,-87.47 521.92,-84.55 528.07,-93.18 532.11,-87.47"/>
</g>
<!-- Node016 -->
<g id="node39" class="node">
<title>Node016</title>
<ellipse fill="#ffffff" stroke="#000000" cx="648" cy="-66.64" rx="27" ry="18"/>
</g>
<!-- timed_event_p_proc&#45;&gt;Node016 -->
<g id="edge79" class="edge">
<title>timed_event_p_proc&#45;&gt;Node016</title>
<path fill="none" stroke="#555555" stroke-dasharray="1,5" d="M1787.75,-210.23C1624.51,-208.16 779.82,-194.53 684,-133.29 670.39,-124.59 661.5,-108.86 655.97,-94.98"/>
<polygon fill="#555555" stroke="#555555" points="659.02,-94.11 652.37,-85.87 652.43,-96.47 659.02,-94.11"/>
</g>
<!-- map_update_p_proc -->
<g id="node40" class="node">
<title>map_update_p_proc</title>
<ellipse fill="#ffffff" stroke="#000000" cx="3477" cy="-211.54" rx="27" ry="18"/>
</g>
</g>
</svg>
