<?xml version="1.0" encoding="UTF-8" standalone="no"?>
<!DOCTYPE svg PUBLIC "-//W3C//DTD SVG 1.1//EN"
 "http://www.w3.org/Graphics/SVG/1.1/DTD/svg11.dtd">
<!-- Generated by graphviz version 8.0.5 (0)
 -->
<!-- Title: ncCasPat Pages: 1 -->
<svg width="1428pt" height="116pt"
 viewBox="0.00 0.00 1428.00 116.00" xmlns="http://www.w3.org/2000/svg" xmlns:xlink="http://www.w3.org/1999/xlink">
<g id="graph0" class="graph" transform="scale(1 1) rotate(0) translate(4 112)">
<title>ncCasPat</title>
<polygon fill="white" stroke="none" points="-4,4 -4,-112 1424,-112 1424,4 -4,4"/>
<!-- start -->
<g id="node1" class="node">
<title>start</title>
<ellipse fill="#ffffff" stroke="#000000" cx="63" cy="-90" rx="27" ry="18"/>
</g>
<!-- critter_p_proc -->
<g id="node2" class="node">
<title>critter_p_proc</title>
<ellipse fill="#ffffff" stroke="#000000" cx="135" cy="-90" rx="27" ry="18"/>
</g>
<!-- pickup_p_proc -->
<g id="node3" class="node">
<title>pickup_p_proc</title>
<ellipse fill="#ffffff" stroke="#000000" cx="207" cy="-90" rx="27" ry="18"/>
</g>
<!-- talk_p_proc -->
<g id="node4" class="node">
<title>talk_p_proc</title>
<ellipse fill="#ffffff" stroke="#000000" cx="279" cy="-90" rx="27" ry="18"/>
</g>
<!-- Node011 -->
<g id="node5" class="node">
<title>Node011</title>
<ellipse fill="#ffffff" stroke="#000000" cx="27" cy="-18" rx="27" ry="18"/>
</g>
<!-- talk_p_proc&#45;&gt;Node011 -->
<g id="edge1" class="edge">
<title>talk_p_proc&#45;&gt;Node011</title>
<path fill="none" stroke="#555555" stroke-dasharray="1,5" d="M258.03,-78.05C253.19,-75.82 247.99,-73.65 243,-72 165.54,-46.39 140.46,-61.61 63,-36 61.29,-35.43 59.55,-34.81 57.8,-34.13"/>
<polygon fill="#555555" stroke="#555555" points="59.54,-30.64 48.97,-29.95 56.8,-37.08 59.54,-30.64"/>
</g>
<!-- Node012 -->
<g id="node6" class="node">
<title>Node012</title>
<ellipse fill="#ffffff" stroke="#000000" cx="99" cy="-18" rx="27" ry="18"/>
</g>
<!-- talk_p_proc&#45;&gt;Node012 -->
<g id="edge2" class="edge">
<title>talk_p_proc&#45;&gt;Node012</title>
<path fill="none" stroke="#555555" stroke-dasharray="1,5" d="M257.87,-78.51C253.03,-76.25 247.88,-73.96 243,-72 196.04,-53.16 181.96,-54.84 135,-36 133.32,-35.33 131.62,-34.62 129.9,-33.88"/>
<polygon fill="#555555" stroke="#555555" points="131.69,-30.4 121.13,-29.49 128.82,-36.78 131.69,-30.4"/>
</g>
<!-- Node013 -->
<g id="node7" class="node">
<title>Node013</title>
<ellipse fill="#ffffff" stroke="#000000" cx="171" cy="-18" rx="27" ry="18"/>
</g>
<!-- talk_p_proc&#45;&gt;Node013 -->
<g id="edge3" class="edge">
<title>talk_p_proc&#45;&gt;Node013</title>
<path fill="none" stroke="#555555" stroke-dasharray="1,5" d="M260.19,-76.81C243.33,-65.88 218.38,-49.71 199.15,-37.24"/>
<polygon fill="#555555" stroke="#555555" points="201.25,-33.79 190.96,-31.29 197.45,-39.66 201.25,-33.79"/>
</g>
<!-- Node006 -->
<g id="node8" class="node">
<title>Node006</title>
<ellipse fill="#ffffff" stroke="#000000" cx="459" cy="-18" rx="27" ry="18"/>
</g>
<!-- talk_p_proc&#45;&gt;Node006 -->
<g id="edge4" class="edge">
<title>talk_p_proc&#45;&gt;Node006</title>
<path fill="none" stroke="#555555" stroke-dasharray="1,5" d="M302.95,-80.91C331.73,-71.03 381.36,-53.46 423,-36 424.67,-35.3 426.37,-34.57 428.08,-33.82"/>
<polygon fill="#555555" stroke="#555555" points="429.17,-36.71 436.82,-29.38 426.27,-30.34 429.17,-36.71"/>
</g>
<!-- Node014 -->
<g id="node9" class="node">
<title>Node014</title>
<ellipse fill="#ffffff" stroke="#000000" cx="243" cy="-18" rx="27" ry="18"/>
</g>
<!-- talk_p_proc&#45;&gt;Node014 -->
<g id="edge5" class="edge">
<title>talk_p_proc&#45;&gt;Node014</title>
<path fill="none" stroke="#555555" stroke-dasharray="1,5" d="M270.65,-72.76C266.38,-64.46 261.08,-54.15 256.27,-44.79"/>
<polygon fill="#555555" stroke="#555555" points="258.99,-43.44 251.3,-36.15 252.77,-46.64 258.99,-43.44"/>
</g>
<!-- Node008 -->
<g id="node10" class="node">
<title>Node008</title>
<ellipse fill="#ffffff" stroke="#000000" cx="531" cy="-18" rx="27" ry="18"/>
</g>
<!-- talk_p_proc&#45;&gt;Node008 -->
<g id="edge6" class="edge">
<title>talk_p_proc&#45;&gt;Node008</title>
<path fill="none" stroke="#555555" stroke-dasharray="1,5" d="M305.09,-84.36C346.2,-76.65 428.22,-59.69 495,-36 496.7,-35.4 498.43,-34.74 500.16,-34.04"/>
<polygon fill="#555555" stroke="#555555" points="501.2,-36.98 508.98,-29.79 498.41,-30.56 501.2,-36.98"/>
</g>
<!-- Node009 -->
<g id="node11" class="node">
<title>Node009</title>
<ellipse fill="#ffffff" stroke="#000000" cx="315" cy="-18" rx="27" ry="18"/>
</g>
<!-- talk_p_proc&#45;&gt;Node009 -->
<g id="edge7" class="edge">
<title>talk_p_proc&#45;&gt;Node009</title>
<path fill="none" stroke="#555555" stroke-dasharray="1,5" d="M287.35,-72.76C291.62,-64.46 296.92,-54.15 301.73,-44.79"/>
<polygon fill="#555555" stroke="#555555" points="305.23,-46.64 306.7,-36.15 299.01,-43.44 305.23,-46.64"/>
</g>
<!-- Node010 -->
<g id="node12" class="node">
<title>Node010</title>
<ellipse fill="#ffffff" stroke="#000000" cx="387" cy="-18" rx="27" ry="18"/>
</g>
<!-- talk_p_proc&#45;&gt;Node010 -->
<g id="edge8" class="edge">
<title>talk_p_proc&#45;&gt;Node010</title>
<path fill="none" stroke="#555555" stroke-dasharray="1,5" d="M297.81,-76.81C314.67,-65.88 339.62,-49.71 358.85,-37.24"/>
<polygon fill="#555555" stroke="#555555" points="360.55,-39.66 367.04,-31.29 356.75,-33.79 360.55,-39.66"/>
</g>
<!-- destroy_p_proc -->
<g id="node13" class="node">
<title>destroy_p_proc</title>
<ellipse fill="#ffffff" stroke="#000000" cx="639" cy="-90" rx="27" ry="18"/>
</g>
<!-- look_at_p_proc -->
<g id="node14" class="node">
<title>look_at_p_proc</title>
<ellipse fill="#ffffff" stroke="#000000" cx="836" cy="-90" rx="152.22" ry="18"/>
<text text-anchor="middle" x="836" y="-85.33" font-family="Times,serif" font-size="14.00">Вы видите клиента казино.</text>
</g>
<!-- description_p_proc -->
<g id="node15" class="node">
<title>description_p_proc</title>
<ellipse fill="#ffffff" stroke="#000000" cx="1033" cy="-90" rx="27" ry="18"/>
</g>
<!-- use_skill_on_p_proc -->
<g id="node16" class="node">
<title>use_skill_on_p_proc</title>
<ellipse fill="#ffffff" stroke="#000000" cx="1105" cy="-90" rx="27" ry="18"/>
</g>
<!-- damage_p_proc -->
<g id="node17" class="node">
<title>damage_p_proc</title>
<ellipse fill="#ffffff" stroke="#000000" cx="1177" cy="-90" rx="27" ry="18"/>
</g>
<!-- map_enter_p_proc -->
<g id="node18" class="node">
<title>map_enter_p_proc</title>
<ellipse fill="#ffffff" stroke="#000000" cx="1249" cy="-90" rx="27" ry="18"/>
</g>
<!-- timed_event_p_proc -->
<g id="node19" class="node">
<title>timed_event_p_proc</title>
<ellipse fill="#ffffff" stroke="#000000" cx="567" cy="-90" rx="27" ry="18"/>
</g>
<!-- timed_event_p_proc&#45;&gt;Node006 -->
<g id="edge12" class="edge">
<title>timed_event_p_proc&#45;&gt;Node006</title>
<path fill="none" stroke="#555555" stroke-dasharray="1,5" d="M548.19,-76.81C531.33,-65.88 506.38,-49.71 487.15,-37.24"/>
<polygon fill="#555555" stroke="#555555" points="489.25,-33.79 478.96,-31.29 485.45,-39.66 489.25,-33.79"/>
</g>
<!-- timed_event_p_proc&#45;&gt;Node008 -->
<g id="edge14" class="edge">
<title>timed_event_p_proc&#45;&gt;Node008</title>
<path fill="none" stroke="#555555" stroke-dasharray="1,5" d="M558.65,-72.76C554.38,-64.46 549.08,-54.15 544.27,-44.79"/>
<polygon fill="#555555" stroke="#555555" points="546.99,-43.44 539.3,-36.15 540.77,-46.64 546.99,-43.44"/>
</g>
<!-- timed_event_p_proc&#45;&gt;Node009 -->
<g id="edge15" class="edge">
<title>timed_event_p_proc&#45;&gt;Node009</title>
<path fill="none" stroke="#555555" stroke-dasharray="1,5" d="M540.91,-84.36C499.8,-76.65 417.78,-59.69 351,-36 349.3,-35.4 347.57,-34.74 345.84,-34.04"/>
<polygon fill="#555555" stroke="#555555" points="347.59,-30.56 337.02,-29.79 344.8,-36.98 347.59,-30.56"/>
</g>
<!-- timed_event_p_proc&#45;&gt;Node010 -->
<g id="edge16" class="edge">
<title>timed_event_p_proc&#45;&gt;Node010</title>
<path fill="none" stroke="#555555" stroke-dasharray="1,5" d="M543.05,-80.91C514.27,-71.03 464.64,-53.46 423,-36 421.33,-35.3 419.63,-34.57 417.92,-33.82"/>
<polygon fill="#555555" stroke="#555555" points="419.73,-30.34 409.18,-29.38 416.83,-36.71 419.73,-30.34"/>
</g>
<!-- Node003 -->
<g id="node20" class="node">
<title>Node003</title>
<ellipse fill="#ffffff" stroke="#000000" cx="603" cy="-18" rx="27" ry="18"/>
</g>
<!-- timed_event_p_proc&#45;&gt;Node003 -->
<g id="edge9" class="edge">
<title>timed_event_p_proc&#45;&gt;Node003</title>
<path fill="none" stroke="#555555" stroke-dasharray="1,5" d="M575.35,-72.76C579.62,-64.46 584.92,-54.15 589.73,-44.79"/>
<polygon fill="#555555" stroke="#555555" points="593.23,-46.64 594.7,-36.15 587.01,-43.44 593.23,-46.64"/>
</g>
<!-- Node004 -->
<g id="node21" class="node">
<title>Node004</title>
<ellipse fill="#ffffff" stroke="#000000" cx="675" cy="-18" rx="27" ry="18"/>
</g>
<!-- timed_event_p_proc&#45;&gt;Node004 -->
<g id="edge10" class="edge">
<title>timed_event_p_proc&#45;&gt;Node004</title>
<path fill="none" stroke="#555555" stroke-dasharray="1,5" d="M585.81,-76.81C602.67,-65.88 627.62,-49.71 646.85,-37.24"/>
<polygon fill="#555555" stroke="#555555" points="648.55,-39.66 655.04,-31.29 644.75,-33.79 648.55,-39.66"/>
</g>
<!-- Node005 -->
<g id="node22" class="node">
<title>Node005</title>
<ellipse fill="#ffffff" stroke="#000000" cx="747" cy="-18" rx="27" ry="18"/>
</g>
<!-- timed_event_p_proc&#45;&gt;Node005 -->
<g id="edge11" class="edge">
<title>timed_event_p_proc&#45;&gt;Node005</title>
<path fill="none" stroke="#555555" stroke-dasharray="1,5" d="M588.13,-78.51C592.97,-76.25 598.12,-73.96 603,-72 649.96,-53.16 664.04,-54.84 711,-36 712.68,-35.33 714.38,-34.62 716.1,-33.88"/>
<polygon fill="#555555" stroke="#555555" points="717.18,-36.78 724.87,-29.49 714.31,-30.4 717.18,-36.78"/>
</g>
<!-- Node007 -->
<g id="node23" class="node">
<title>Node007</title>
<ellipse fill="#ffffff" stroke="#000000" cx="819" cy="-18" rx="27" ry="18"/>
</g>
<!-- timed_event_p_proc&#45;&gt;Node007 -->
<g id="edge13" class="edge">
<title>timed_event_p_proc&#45;&gt;Node007</title>
<path fill="none" stroke="#555555" stroke-dasharray="1,5" d="M587.97,-78.05C592.81,-75.82 598.01,-73.65 603,-72 680.46,-46.39 705.54,-61.61 783,-36 784.71,-35.43 786.45,-34.81 788.2,-34.13"/>
<polygon fill="#555555" stroke="#555555" points="789.2,-37.08 797.03,-29.95 786.46,-30.64 789.2,-37.08"/>
</g>
<!-- map_update_p_proc -->
<g id="node24" class="node">
<title>map_update_p_proc</title>
<ellipse fill="#ffffff" stroke="#000000" cx="1321" cy="-90" rx="27" ry="18"/>
</g>
<!-- push_p_proc -->
<g id="node25" class="node">
<title>push_p_proc</title>
<ellipse fill="#ffffff" stroke="#000000" cx="1393" cy="-90" rx="27" ry="18"/>
</g>
</g>
</svg>
