<?xml version="1.0" encoding="UTF-8" standalone="no"?>
<!DOCTYPE svg PUBLIC "-//W3C//DTD SVG 1.1//EN"
 "http://www.w3.org/Graphics/SVG/1.1/DTD/svg11.dtd">
<!-- Generated by graphviz version 8.0.5 (0)
 -->
<!-- Title: ncChpBoy Pages: 1 -->
<svg width="854pt" height="188pt"
 viewBox="0.00 0.00 854.00 188.00" xmlns="http://www.w3.org/2000/svg" xmlns:xlink="http://www.w3.org/1999/xlink">
<g id="graph0" class="graph" transform="scale(1 1) rotate(0) translate(4 184)">
<title>ncChpBoy</title>
<polygon fill="white" stroke="none" points="-4,4 -4,-184 850,-184 850,4 -4,4"/>
<!-- start -->
<g id="node1" class="node">
<title>start</title>
<ellipse fill="#ffffff" stroke="#000000" cx="99" cy="-162" rx="27" ry="18"/>
</g>
<!-- critter_p_proc -->
<g id="node2" class="node">
<title>critter_p_proc</title>
<ellipse fill="#ffffff" stroke="#000000" cx="171" cy="-162" rx="27" ry="18"/>
</g>
<!-- pickup_p_proc -->
<g id="node3" class="node">
<title>pickup_p_proc</title>
<ellipse fill="#ffffff" stroke="#000000" cx="99" cy="-90" rx="27" ry="18"/>
</g>
<!-- Node998 -->
<g id="node4" class="node">
<title>Node998</title>
<ellipse fill="#ffffff" stroke="#000000" cx="63" cy="-18" rx="27" ry="18"/>
</g>
<!-- pickup_p_proc&#45;&gt;Node998 -->
<g id="edge1" class="edge">
<title>pickup_p_proc&#45;&gt;Node998</title>
<path fill="none" stroke="#555555" stroke-dasharray="1,5" d="M90.65,-72.76C86.38,-64.46 81.08,-54.15 76.27,-44.79"/>
<polygon fill="#555555" stroke="#555555" points="78.99,-43.44 71.3,-36.15 72.77,-46.64 78.99,-43.44"/>
</g>
<!-- talk_p_proc -->
<g id="node5" class="node">
<title>talk_p_proc</title>
<ellipse fill="#ffffff" stroke="#000000" cx="315" cy="-162" rx="27" ry="18"/>
</g>
<!-- Node001 -->
<g id="node6" class="node">
<title>Node001</title>
<ellipse fill="#ffffff" stroke="#000000" cx="387" cy="-90" rx="27" ry="18"/>
</g>
<!-- talk_p_proc&#45;&gt;Node001 -->
<g id="edge2" class="edge">
<title>talk_p_proc&#45;&gt;Node001</title>
<path fill="none" stroke="#555555" stroke-dasharray="1,5" d="M329.92,-146.5C339.86,-136.83 353.12,-123.94 364.35,-113.02"/>
<polygon fill="#555555" stroke="#555555" points="366.37,-115.97 371.1,-106.49 361.49,-110.95 366.37,-115.97"/>
</g>
<!-- Node002 -->
<g id="node7" class="node">
<title>Node002</title>
<ellipse fill="#ffffff" stroke="#000000" cx="459" cy="-90" rx="27" ry="18"/>
</g>
<!-- talk_p_proc&#45;&gt;Node002 -->
<g id="edge3" class="edge">
<title>talk_p_proc&#45;&gt;Node002</title>
<path fill="none" stroke="#555555" stroke-dasharray="1,5" d="M336.56,-150.52C360.88,-138.7 400.62,-119.38 428.2,-105.97"/>
<polygon fill="#555555" stroke="#555555" points="429.3,-108.84 436.76,-101.32 426.24,-102.55 429.3,-108.84"/>
</g>
<!-- Node003 -->
<g id="node8" class="node">
<title>Node003</title>
<ellipse fill="#ffffff" stroke="#000000" cx="171" cy="-90" rx="27" ry="18"/>
</g>
<!-- talk_p_proc&#45;&gt;Node003 -->
<g id="edge4" class="edge">
<title>talk_p_proc&#45;&gt;Node003</title>
<path fill="none" stroke="#555555" stroke-dasharray="1,5" d="M293.44,-150.52C269.12,-138.7 229.38,-119.38 201.8,-105.97"/>
<polygon fill="#555555" stroke="#555555" points="203.76,-102.55 193.24,-101.32 200.7,-108.84 203.76,-102.55"/>
</g>
<!-- Node004 -->
<g id="node9" class="node">
<title>Node004</title>
<ellipse fill="#ffffff" stroke="#000000" cx="243" cy="-90" rx="27" ry="18"/>
</g>
<!-- talk_p_proc&#45;&gt;Node004 -->
<g id="edge5" class="edge">
<title>talk_p_proc&#45;&gt;Node004</title>
<path fill="none" stroke="#555555" stroke-dasharray="1,5" d="M300.08,-146.5C290.14,-136.83 276.88,-123.94 265.65,-113.02"/>
<polygon fill="#555555" stroke="#555555" points="268.51,-110.95 258.9,-106.49 263.63,-115.97 268.51,-110.95"/>
</g>
<!-- Node005 -->
<g id="node10" class="node">
<title>Node005</title>
<ellipse fill="#ffffff" stroke="#000000" cx="315" cy="-90" rx="27" ry="18"/>
</g>
<!-- talk_p_proc&#45;&gt;Node005 -->
<g id="edge6" class="edge">
<title>talk_p_proc&#45;&gt;Node005</title>
<path fill="none" stroke="#555555" stroke-dasharray="1,5" d="M315,-143.7C315,-136.24 315,-127.32 315,-118.97"/>
<polygon fill="#555555" stroke="#555555" points="318.5,-119.1 315,-109.1 311.5,-119.1 318.5,-119.1"/>
</g>
<!-- destroy_p_proc -->
<g id="node11" class="node">
<title>destroy_p_proc</title>
<ellipse fill="#ffffff" stroke="#000000" cx="387" cy="-162" rx="27" ry="18"/>
</g>
<!-- look_at_p_proc -->
<g id="node12" class="node">
<title>look_at_p_proc</title>
<ellipse fill="#ffffff" stroke="#000000" cx="459" cy="-162" rx="27" ry="18"/>
</g>
<!-- description_p_proc -->
<g id="node13" class="node">
<title>description_p_proc</title>
<ellipse fill="#ffffff" stroke="#000000" cx="531" cy="-162" rx="27" ry="18"/>
</g>
<!-- use_skill_on_p_proc -->
<g id="node14" class="node">
<title>use_skill_on_p_proc</title>
<ellipse fill="#ffffff" stroke="#000000" cx="603" cy="-162" rx="27" ry="18"/>
</g>
<!-- damage_p_proc -->
<g id="node15" class="node">
<title>damage_p_proc</title>
<ellipse fill="#ffffff" stroke="#000000" cx="675" cy="-162" rx="27" ry="18"/>
</g>
<!-- map_enter_p_proc -->
<g id="node16" class="node">
<title>map_enter_p_proc</title>
<ellipse fill="#ffffff" stroke="#000000" cx="747" cy="-162" rx="27" ry="18"/>
</g>
<!-- map_update_p_proc -->
<g id="node17" class="node">
<title>map_update_p_proc</title>
<ellipse fill="#ffffff" stroke="#000000" cx="819" cy="-162" rx="27" ry="18"/>
</g>
<!-- timed_event_p_proc -->
<g id="node18" class="node">
<title>timed_event_p_proc</title>
<ellipse fill="#ffffff" stroke="#000000" cx="243" cy="-162" rx="27" ry="18"/>
</g>
<!-- timed_event_p_proc&#45;&gt;Node001 -->
<g id="edge8" class="edge">
<title>timed_event_p_proc&#45;&gt;Node001</title>
<path fill="none" stroke="#555555" stroke-dasharray="1,5" d="M264.56,-150.52C288.88,-138.7 328.62,-119.38 356.2,-105.97"/>
<polygon fill="#555555" stroke="#555555" points="357.3,-108.84 364.76,-101.32 354.24,-102.55 357.3,-108.84"/>
</g>
<!-- timed_event_p_proc&#45;&gt;Node002 -->
<g id="edge9" class="edge">
<title>timed_event_p_proc&#45;&gt;Node002</title>
<path fill="none" stroke="#555555" stroke-dasharray="1,5" d="M264.03,-150.23C268.87,-147.98 274.05,-145.77 279,-144 341.13,-121.81 360.87,-130.19 423,-108 424.7,-107.39 426.43,-106.73 428.16,-106.04"/>
<polygon fill="#555555" stroke="#555555" points="429.19,-108.97 436.97,-101.77 426.41,-102.55 429.19,-108.97"/>
</g>
<!-- timed_event_p_proc&#45;&gt;Node003 -->
<g id="edge10" class="edge">
<title>timed_event_p_proc&#45;&gt;Node003</title>
<path fill="none" stroke="#555555" stroke-dasharray="1,5" d="M228.08,-146.5C218.14,-136.83 204.88,-123.94 193.65,-113.02"/>
<polygon fill="#555555" stroke="#555555" points="196.51,-110.95 186.9,-106.49 191.63,-115.97 196.51,-110.95"/>
</g>
<!-- timed_event_p_proc&#45;&gt;Node004 -->
<g id="edge11" class="edge">
<title>timed_event_p_proc&#45;&gt;Node004</title>
<path fill="none" stroke="#555555" stroke-dasharray="1,5" d="M243,-143.7C243,-136.24 243,-127.32 243,-118.97"/>
<polygon fill="#555555" stroke="#555555" points="246.5,-119.1 243,-109.1 239.5,-119.1 246.5,-119.1"/>
</g>
<!-- timed_event_p_proc&#45;&gt;Node005 -->
<g id="edge12" class="edge">
<title>timed_event_p_proc&#45;&gt;Node005</title>
<path fill="none" stroke="#555555" stroke-dasharray="1,5" d="M257.92,-146.5C267.86,-136.83 281.12,-123.94 292.35,-113.02"/>
<polygon fill="#555555" stroke="#555555" points="294.37,-115.97 299.1,-106.49 289.49,-110.95 294.37,-115.97"/>
</g>
<!-- Node006 -->
<g id="node19" class="node">
<title>Node006</title>
<ellipse fill="#ffffff" stroke="#000000" cx="27" cy="-90" rx="27" ry="18"/>
</g>
<!-- timed_event_p_proc&#45;&gt;Node006 -->
<g id="edge7" class="edge">
<title>timed_event_p_proc&#45;&gt;Node006</title>
<path fill="none" stroke="#555555" stroke-dasharray="1,5" d="M221.97,-150.23C217.13,-147.98 211.95,-145.77 207,-144 144.87,-121.81 125.13,-130.19 63,-108 61.3,-107.39 59.57,-106.73 57.84,-106.04"/>
<polygon fill="#555555" stroke="#555555" points="59.59,-102.55 49.03,-101.77 56.81,-108.97 59.59,-102.55"/>
</g>
<!-- Node006&#45;&gt;Node998 -->
<g id="edge13" class="edge">
<title>Node006&#45;&gt;Node998</title>
<path fill="none" stroke="#555555" stroke-dasharray="1,5" d="M35.35,-72.76C39.62,-64.46 44.92,-54.15 49.73,-44.79"/>
<polygon fill="#555555" stroke="#555555" points="53.23,-46.64 54.7,-36.15 47.01,-43.44 53.23,-46.64"/>
</g>
</g>
</svg>
