<?xml version="1.0" encoding="UTF-8" standalone="no"?>
<!DOCTYPE svg PUBLIC "-//W3C//DTD SVG 1.1//EN"
 "http://www.w3.org/Graphics/SVG/1.1/DTD/svg11.dtd">
<!-- Generated by graphviz version 8.0.5 (0)
 -->
<!-- Title: ncRico Pages: 1 -->
<svg width="1257pt" height="189pt"
 viewBox="0.00 0.00 1257.00 188.89" xmlns="http://www.w3.org/2000/svg" xmlns:xlink="http://www.w3.org/1999/xlink">
<g id="graph0" class="graph" transform="scale(1 1) rotate(0) translate(4 184.89)">
<title>ncRico</title>
<polygon fill="white" stroke="none" points="-4,4 -4,-184.89 1253,-184.89 1253,4 -4,4"/>
<!-- start -->
<g id="node1" class="node">
<title>start</title>
<ellipse fill="#ffffff" stroke="#000000" cx="27" cy="-126.45" rx="27" ry="18"/>
</g>
<!-- critter_p_proc -->
<g id="node2" class="node">
<title>critter_p_proc</title>
<ellipse fill="#ffffff" stroke="#000000" cx="99" cy="-126.45" rx="27" ry="18"/>
</g>
<!-- pickup_p_proc -->
<g id="node3" class="node">
<title>pickup_p_proc</title>
<ellipse fill="#ffffff" stroke="#000000" cx="171" cy="-126.45" rx="27" ry="18"/>
</g>
<!-- talk_p_proc -->
<g id="node4" class="node">
<title>talk_p_proc</title>
<ellipse fill="#ffffff" stroke="#000000" cx="243" cy="-126.45" rx="27" ry="18"/>
</g>
<!-- Node002 -->
<g id="node5" class="node">
<title>Node002</title>
<ellipse fill="#ffffff" stroke="#000000" cx="243" cy="-18" rx="92.77" ry="18"/>
<text text-anchor="middle" x="243" y="-13.32" font-family="Times,serif" font-size="14.00">Ээээ... Я Рико...</text>
</g>
<!-- talk_p_proc&#45;&gt;Node002 -->
<g id="edge1" class="edge">
<title>talk_p_proc&#45;&gt;Node002</title>
<path fill="none" stroke="#555555" stroke-dasharray="1,5" d="M243,-108.34C243,-91.91 243,-66.79 243,-47.36"/>
<polygon fill="#555555" stroke="#555555" points="246.5,-47.41 243,-37.41 239.5,-47.41 246.5,-47.41"/>
</g>
<!-- destroy_p_proc -->
<g id="node6" class="node">
<title>destroy_p_proc</title>
<ellipse fill="#ffffff" stroke="#000000" cx="315" cy="-126.45" rx="27" ry="18"/>
</g>
<!-- look_at_p_proc -->
<g id="node7" class="node">
<title>look_at_p_proc</title>
<ellipse fill="#ffffff" stroke="#000000" cx="499" cy="-126.45" rx="139.12" ry="30.05"/>
<text text-anchor="middle" x="499" y="-130.4" font-family="Times,serif" font-size="14.00">Вы видите здоровенного</text>
<text text-anchor="middle" x="499" y="-113.15" font-family="Times,serif" font-size="14.00">бандита.</text>
</g>
<!-- description_p_proc -->
<g id="node8" class="node">
<title>description_p_proc</title>
<ellipse fill="#ffffff" stroke="#000000" cx="809" cy="-126.45" rx="152.38" ry="54.45"/>
<text text-anchor="middle" x="809" y="-147.65" font-family="Times,serif" font-size="14.00">Вы видите громадного</text>
<text text-anchor="middle" x="809" y="-130.4" font-family="Times,serif" font-size="14.00">детину с каменным лицом.</text>
<text text-anchor="middle" x="809" y="-113.15" font-family="Times,serif" font-size="14.00">Похоже, что на завтрак он</text>
<text text-anchor="middle" x="809" y="-95.9" font-family="Times,serif" font-size="14.00">ест кирпичи.</text>
</g>
<!-- use_skill_on_p_proc -->
<g id="node9" class="node">
<title>use_skill_on_p_proc</title>
<ellipse fill="#ffffff" stroke="#000000" cx="1006" cy="-126.45" rx="27" ry="18"/>
</g>
<!-- damage_p_proc -->
<g id="node10" class="node">
<title>damage_p_proc</title>
<ellipse fill="#ffffff" stroke="#000000" cx="1078" cy="-126.45" rx="27" ry="18"/>
</g>
<!-- Node998 -->
<g id="node11" class="node">
<title>Node998</title>
<ellipse fill="#ffffff" stroke="#000000" cx="1078" cy="-18" rx="27" ry="18"/>
</g>
<!-- damage_p_proc&#45;&gt;Node998 -->
<g id="edge2" class="edge">
<title>damage_p_proc&#45;&gt;Node998</title>
<path fill="none" stroke="#555555" stroke-dasharray="1,5" d="M1078,-108.34C1078,-91.91 1078,-66.79 1078,-47.36"/>
<polygon fill="#555555" stroke="#555555" points="1081.5,-47.41 1078,-37.41 1074.5,-47.41 1081.5,-47.41"/>
</g>
<!-- map_enter_p_proc -->
<g id="node12" class="node">
<title>map_enter_p_proc</title>
<ellipse fill="#ffffff" stroke="#000000" cx="1150" cy="-126.45" rx="27" ry="18"/>
</g>
<!-- timed_event_p_proc -->
<g id="node13" class="node">
<title>timed_event_p_proc</title>
<ellipse fill="#ffffff" stroke="#000000" cx="1222" cy="-126.45" rx="27" ry="18"/>
</g>
<!-- Node001 -->
<g id="node14" class="node">
<title>Node001</title>
<ellipse fill="#ffffff" stroke="#000000" cx="1222" cy="-18" rx="27" ry="18"/>
</g>
<!-- timed_event_p_proc&#45;&gt;Node001 -->
<g id="edge3" class="edge">
<title>timed_event_p_proc&#45;&gt;Node001</title>
<path fill="none" stroke="#555555" stroke-dasharray="1,5" d="M1222,-108.34C1222,-91.91 1222,-66.79 1222,-47.36"/>
<polygon fill="#555555" stroke="#555555" points="1225.5,-47.41 1222,-37.41 1218.5,-47.41 1225.5,-47.41"/>
</g>
</g>
</svg>
