<?xml version="1.0" encoding="UTF-8" standalone="no"?>
<!DOCTYPE svg PUBLIC "-//W3C//DTD SVG 1.1//EN"
 "http://www.w3.org/Graphics/SVG/1.1/DTD/svg11.dtd">
<!-- Generated by graphviz version 8.0.5 (0)
 -->
<!-- Title: ncSheb Pages: 1 -->
<svg width="1210pt" height="238pt"
 viewBox="0.00 0.00 1210.00 237.68" xmlns="http://www.w3.org/2000/svg" xmlns:xlink="http://www.w3.org/1999/xlink">
<g id="graph0" class="graph" transform="scale(1 1) rotate(0) translate(4 233.68)">
<title>ncSheb</title>
<polygon fill="white" stroke="none" points="-4,4 -4,-233.68 1206,-233.68 1206,4 -4,4"/>
<!-- start -->
<g id="node1" class="node">
<title>start</title>
<ellipse fill="#ffffff" stroke="#000000" cx="27" cy="-150.84" rx="27" ry="18"/>
</g>
<!-- critter_p_proc -->
<g id="node2" class="node">
<title>critter_p_proc</title>
<ellipse fill="#ffffff" stroke="#000000" cx="99" cy="-150.84" rx="27" ry="18"/>
</g>
<!-- pickup_p_proc -->
<g id="node3" class="node">
<title>pickup_p_proc</title>
<ellipse fill="#ffffff" stroke="#000000" cx="171" cy="-150.84" rx="27" ry="18"/>
</g>
<!-- Node998 -->
<g id="node4" class="node">
<title>Node998</title>
<ellipse fill="#ffffff" stroke="#000000" cx="171" cy="-18" rx="27" ry="18"/>
</g>
<!-- pickup_p_proc&#45;&gt;Node998 -->
<g id="edge1" class="edge">
<title>pickup_p_proc&#45;&gt;Node998</title>
<path fill="none" stroke="#555555" stroke-dasharray="1,5" d="M171,-132.47C171,-110.77 171,-73.34 171,-47.44"/>
<polygon fill="#555555" stroke="#555555" points="174.5,-47.45 171,-37.45 167.5,-47.45 174.5,-47.45"/>
</g>
<!-- talk_p_proc -->
<g id="node5" class="node">
<title>talk_p_proc</title>
<ellipse fill="#ffffff" stroke="#000000" cx="261" cy="-150.84" rx="27" ry="18"/>
</g>
<!-- Node001 -->
<g id="node6" class="node">
<title>Node001</title>
<ellipse fill="#ffffff" stroke="#000000" cx="279" cy="-18" rx="27" ry="18"/>
</g>
<!-- talk_p_proc&#45;&gt;Node001 -->
<g id="edge2" class="edge">
<title>talk_p_proc&#45;&gt;Node001</title>
<path fill="none" stroke="#555555" stroke-dasharray="1,5" d="M263.39,-132.47C266.41,-110.55 271.63,-72.59 275.19,-46.66"/>
<polygon fill="#555555" stroke="#555555" points="278.76,-47.41 276.66,-37.03 271.83,-46.46 278.76,-47.41"/>
</g>
<!-- destroy_p_proc -->
<g id="node7" class="node">
<title>destroy_p_proc</title>
<ellipse fill="#ffffff" stroke="#000000" cx="405" cy="-150.84" rx="27" ry="18"/>
</g>
<!-- look_at_p_proc -->
<g id="node8" class="node">
<title>look_at_p_proc</title>
<ellipse fill="#ffffff" stroke="#000000" cx="561" cy="-150.84" rx="110.66" ry="18"/>
<text text-anchor="middle" x="561" y="-146.17" font-family="Times,serif" font-size="14.00">Перед вами... Шеб.</text>
</g>
<!-- description_p_proc -->
<g id="node9" class="node">
<title>description_p_proc</title>
<ellipse fill="#ffffff" stroke="#000000" cx="838" cy="-150.84" rx="148.14" ry="78.84"/>
<text text-anchor="middle" x="838" y="-189.29" font-family="Times,serif" font-size="14.00">Вы видите сухопарого</text>
<text text-anchor="middle" x="838" y="-172.04" font-family="Times,serif" font-size="14.00">мужчину в ярко&#45;синей</text>
<text text-anchor="middle" x="838" y="-154.79" font-family="Times,serif" font-size="14.00">одежде. Мало того, что</text>
<text text-anchor="middle" x="838" y="-137.54" font-family="Times,serif" font-size="14.00">одежда у него откровенно</text>
<text text-anchor="middle" x="838" y="-120.29" font-family="Times,serif" font-size="14.00">кричащая, он еще и сам</text>
<text text-anchor="middle" x="838" y="-103.04" font-family="Times,serif" font-size="14.00">орет во всю глотку.</text>
</g>
<!-- use_skill_on_p_proc -->
<g id="node10" class="node">
<title>use_skill_on_p_proc</title>
<ellipse fill="#ffffff" stroke="#000000" cx="1031" cy="-150.84" rx="27" ry="18"/>
</g>
<!-- damage_p_proc -->
<g id="node11" class="node">
<title>damage_p_proc</title>
<ellipse fill="#ffffff" stroke="#000000" cx="1103" cy="-150.84" rx="27" ry="18"/>
</g>
<!-- map_enter_p_proc -->
<g id="node12" class="node">
<title>map_enter_p_proc</title>
<ellipse fill="#ffffff" stroke="#000000" cx="1175" cy="-150.84" rx="27" ry="18"/>
</g>
<!-- timed_event_p_proc -->
<g id="node13" class="node">
<title>timed_event_p_proc</title>
<ellipse fill="#ffffff" stroke="#000000" cx="333" cy="-150.84" rx="27" ry="18"/>
</g>
<!-- timed_event_p_proc&#45;&gt;Node001 -->
<g id="edge3" class="edge">
<title>timed_event_p_proc&#45;&gt;Node001</title>
<path fill="none" stroke="#555555" stroke-dasharray="1,5" d="M326.05,-133C316.94,-110.92 300.84,-71.93 290.05,-45.77"/>
<polygon fill="#555555" stroke="#555555" points="292.97,-44.68 285.92,-36.77 286.5,-47.35 292.97,-44.68"/>
</g>
</g>
</svg>
