<?xml version="1.0" encoding="UTF-8" standalone="no"?>
<!DOCTYPE svg PUBLIC "-//W3C//DTD SVG 1.1//EN"
 "http://www.w3.org/Graphics/SVG/1.1/DTD/svg11.dtd">
<!-- Generated by graphviz version 8.0.5 (0)
 -->
<!-- Title: scatkslv Pages: 1 -->
<svg width="1624pt" height="442pt"
 viewBox="0.00 0.00 1624.00 442.47" xmlns="http://www.w3.org/2000/svg" xmlns:xlink="http://www.w3.org/1999/xlink">
<g id="graph0" class="graph" transform="scale(1 1) rotate(0) translate(4 438.47)">
<title>scatkslv</title>
<polygon fill="white" stroke="none" points="-4,4 -4,-438.47 1620,-438.47 1620,4 -4,4"/>
<!-- start -->
<g id="node1" class="node">
<title>start</title>
<ellipse fill="#ffffff" stroke="#000000" cx="27" cy="-319.04" rx="27" ry="18"/>
</g>
<!-- use_p_proc -->
<g id="node2" class="node">
<title>use_p_proc</title>
<ellipse fill="#ffffff" stroke="#000000" cx="99" cy="-319.04" rx="27" ry="18"/>
</g>
<!-- look_at_p_proc -->
<g id="node3" class="node">
<title>look_at_p_proc</title>
<ellipse fill="#ffffff" stroke="#000000" cx="285" cy="-319.04" rx="141.17" ry="18"/>
<text text-anchor="middle" x="285" y="-314.36" font-family="Times,serif" font-size="14.00">Вы видите работорговца.</text>
</g>
<!-- description_p_proc -->
<g id="node4" class="node">
<title>description_p_proc</title>
<ellipse fill="#ffffff" stroke="#000000" cx="576" cy="-319.04" rx="132.23" ry="91.04"/>
<text text-anchor="middle" x="576" y="-366.11" font-family="Times,serif" font-size="14.00">Этот работорговец</text>
<text text-anchor="middle" x="576" y="-348.86" font-family="Times,serif" font-size="14.00">выглядит как обычный</text>
<text text-anchor="middle" x="576" y="-331.61" font-family="Times,serif" font-size="14.00">мужик.</text>
<text text-anchor="middle" x="576" y="-314.36" font-family="Times,serif" font-size="14.00">&#45;&#45;&#45;</text>
<text text-anchor="middle" x="576" y="-297.11" font-family="Times,serif" font-size="14.00">Этот работорговец</text>
<text text-anchor="middle" x="576" y="-279.86" font-family="Times,serif" font-size="14.00">выглядит как обычная</text>
<text text-anchor="middle" x="576" y="-262.61" font-family="Times,serif" font-size="14.00">женщина.</text>
</g>
<!-- use_skill_on_p_proc -->
<g id="node5" class="node">
<title>use_skill_on_p_proc</title>
<ellipse fill="#ffffff" stroke="#000000" cx="753" cy="-319.04" rx="27" ry="18"/>
</g>
<!-- use_obj_on_p_proc -->
<g id="node6" class="node">
<title>use_obj_on_p_proc</title>
<ellipse fill="#ffffff" stroke="#000000" cx="825" cy="-319.04" rx="27" ry="18"/>
</g>
<!-- damage_p_proc -->
<g id="node7" class="node">
<title>damage_p_proc</title>
<ellipse fill="#ffffff" stroke="#000000" cx="897" cy="-319.04" rx="27" ry="18"/>
</g>
<!-- map_enter_p_proc -->
<g id="node8" class="node">
<title>map_enter_p_proc</title>
<ellipse fill="#ffffff" stroke="#000000" cx="969" cy="-319.04" rx="27" ry="18"/>
</g>
<!-- map_update_p_proc -->
<g id="node9" class="node">
<title>map_update_p_proc</title>
<ellipse fill="#ffffff" stroke="#000000" cx="1041" cy="-319.04" rx="27" ry="18"/>
</g>
<!-- talk_p_proc -->
<g id="node10" class="node">
<title>talk_p_proc</title>
<ellipse fill="#ffffff" stroke="#000000" cx="1243" cy="-319.04" rx="157.15" ry="115.44"/>
<text text-anchor="middle" x="1243" y="-383.36" font-family="Times,serif" font-size="14.00">Я до сих пор чую запах</text>
<text text-anchor="middle" x="1243" y="-366.11" font-family="Times,serif" font-size="14.00">проклятых Рейнджеров.</text>
<text text-anchor="middle" x="1243" y="-348.86" font-family="Times,serif" font-size="14.00">&#45;&#45;&#45;</text>
<text text-anchor="middle" x="1243" y="-331.61" font-family="Times,serif" font-size="14.00">Я до сих пор чую запах</text>
<text text-anchor="middle" x="1243" y="-314.36" font-family="Times,serif" font-size="14.00">проклятых Рейнджеров.</text>
<text text-anchor="middle" x="1243" y="-297.11" font-family="Times,serif" font-size="14.00">&#45;&#45;&#45;</text>
<text text-anchor="middle" x="1243" y="-279.86" font-family="Times,serif" font-size="14.00">Это была последняя</text>
<text text-anchor="middle" x="1243" y="-262.61" font-family="Times,serif" font-size="14.00">стоянка. Доложите Вортису</text>
<text text-anchor="middle" x="1243" y="-245.36" font-family="Times,serif" font-size="14.00">в НКР.</text>
</g>
<!-- Node001 -->
<g id="node11" class="node">
<title>Node001</title>
<ellipse fill="#ffffff" stroke="#000000" cx="1243" cy="-136.55" rx="135.94" ry="30.05"/>
<text text-anchor="middle" x="1243" y="-140.5" font-family="Times,serif" font-size="14.00">Отличная работа. Готов</text>
<text text-anchor="middle" x="1243" y="-123.25" font-family="Times,serif" font-size="14.00">продолжать?</text>
</g>
<!-- talk_p_proc&#45;&gt;Node001 -->
<g id="edge1" class="edge">
<title>talk_p_proc&#45;&gt;Node001</title>
<path fill="none" stroke="#555555" stroke-dasharray="1,5" d="M1236.48,-203.22C1236.65,-194.25 1236.91,-185.64 1237.27,-177.76"/>
<polygon fill="#555555" stroke="#555555" points="1240.82,-177.98 1237.87,-167.8 1233.83,-177.6 1240.82,-177.98"/>
</g>
<!-- talk_p_proc&#45;&gt;Node001 -->
<g id="edge2" class="edge">
<title>talk_p_proc&#45;&gt;Node001</title>
<path fill="none" stroke="#555555" stroke-dasharray="1,5" d="M1249.52,-203.22C1249.35,-194.25 1249.09,-185.64 1248.73,-177.76"/>
<polygon fill="#555555" stroke="#555555" points="1252.17,-177.6 1248.13,-167.8 1245.18,-177.98 1252.17,-177.6"/>
</g>
<!-- Node999 -->
<g id="node12" class="node">
<title>Node999</title>
<ellipse fill="#ffffff" stroke="#000000" cx="1168" cy="-18" rx="27" ry="18"/>
</g>
<!-- Node001&#45;&gt;Node999 -->
<g id="edge3" class="edge">
<title>Node001&#45;&gt;Node999</title>
<path fill="none" stroke="#004599" d="M1186.55,-108.82C1179.44,-103.1 1173.13,-96.37 1168.75,-88.5 1161.78,-75.98 1161.11,-60.12 1162.4,-46.72"/>
<polygon fill="#004599" stroke="#004599" points="1165.96,-47.54 1163.85,-37.16 1159.02,-46.59 1165.96,-47.54"/>
<text text-anchor="middle" x="1232.12" y="-75.2" font-family="Times,serif" font-size="14.00" fill="#004599">Дай мне минутку</text>
<text text-anchor="middle" x="1232.12" y="-57.95" font-family="Times,serif" font-size="14.00" fill="#004599">отдохнуть.</text>
</g>
<!-- Node002 -->
<g id="node13" class="node">
<title>Node002</title>
<ellipse fill="#ffffff" stroke="#000000" cx="1319" cy="-18" rx="27" ry="18"/>
</g>
<!-- Node001&#45;&gt;Node002 -->
<g id="edge4" class="edge">
<title>Node001&#45;&gt;Node002</title>
<path fill="none" stroke="#719900" d="M1280.92,-107.35C1286.91,-101.62 1292.57,-95.26 1297,-88.5 1305.24,-75.93 1310.57,-60.07 1313.92,-46.67"/>
<polygon fill="#719900" stroke="#719900" points="1317.51,-47.65 1316.28,-37.13 1310.68,-46.12 1317.51,-47.65"/>
<text text-anchor="middle" x="1377.75" y="-66.58" font-family="Times,serif" font-size="14.00" fill="#719900">Я готов. Поехали!</text>
</g>
<!-- timed_event_p_proc -->
<g id="node14" class="node">
<title>timed_event_p_proc</title>
<ellipse fill="#ffffff" stroke="#000000" cx="1445" cy="-319.04" rx="27" ry="18"/>
</g>
<!-- destroy_p_proc -->
<g id="node15" class="node">
<title>destroy_p_proc</title>
<ellipse fill="#ffffff" stroke="#000000" cx="1517" cy="-319.04" rx="27" ry="18"/>
</g>
<!-- map_exit_p_proc -->
<g id="node16" class="node">
<title>map_exit_p_proc</title>
<ellipse fill="#ffffff" stroke="#000000" cx="1589" cy="-319.04" rx="27" ry="18"/>
</g>
</g>
</svg>
