<?xml version="1.0" encoding="UTF-8" standalone="no"?>
<!DOCTYPE svg PUBLIC "-//W3C//DTD SVG 1.1//EN"
 "http://www.w3.org/Graphics/SVG/1.1/DTD/svg11.dtd">
<!-- Generated by graphviz version 8.0.5 (0)
 -->
<!-- Title: sfmboat Pages: 1 -->
<svg width="446pt" height="602pt"
 viewBox="0.00 0.00 446.15 602.14" xmlns="http://www.w3.org/2000/svg" xmlns:xlink="http://www.w3.org/1999/xlink">
<g id="graph0" class="graph" transform="scale(1 1) rotate(0) translate(4 598.14)">
<title>sfmboat</title>
<polygon fill="white" stroke="none" points="-4,4 -4,-598.14 442.15,-598.14 442.15,4 -4,4"/>
<!-- start -->
<g id="node1" class="node">
<title>start</title>
<ellipse fill="#ffffff" stroke="#000000" cx="27" cy="-478.7" rx="27" ry="18"/>
</g>
<!-- use_p_proc -->
<g id="node2" class="node">
<title>use_p_proc</title>
<ellipse fill="#ffffff" stroke="#000000" cx="209" cy="-478.7" rx="137" ry="115.44"/>
<text text-anchor="middle" x="209" y="-543.03" font-family="Times,serif" font-size="14.00">Я не знаю, в каком</text>
<text text-anchor="middle" x="209" y="-525.78" font-family="Times,serif" font-size="14.00">направлении двигаться.</text>
<text text-anchor="middle" x="209" y="-508.53" font-family="Times,serif" font-size="14.00">&#45;&#45;&#45;</text>
<text text-anchor="middle" x="209" y="-491.28" font-family="Times,serif" font-size="14.00">Слишком рискованно</text>
<text text-anchor="middle" x="209" y="-474.03" font-family="Times,serif" font-size="14.00">использовать это снова.</text>
<text text-anchor="middle" x="209" y="-456.78" font-family="Times,serif" font-size="14.00">&#45;&#45;&#45;</text>
<text text-anchor="middle" x="209" y="-439.53" font-family="Times,serif" font-size="14.00">Может быть, мне стоит</text>
<text text-anchor="middle" x="209" y="-422.28" font-family="Times,serif" font-size="14.00">обезоружить эту штуку,</text>
<text text-anchor="middle" x="209" y="-405.03" font-family="Times,serif" font-size="14.00">прежде чем сваливать.</text>
</g>
<!-- load_sub_location -->
<g id="node3" class="node">
<title>load_sub_location</title>
<ellipse fill="#ffffff" stroke="#000000" cx="209" cy="-309.27" rx="27" ry="18"/>
</g>
<!-- use_p_proc&#45;&gt;load_sub_location -->
<g id="edge1" class="edge">
<title>use_p_proc&#45;&gt;load_sub_location</title>
<path fill="none" stroke="#555555" stroke-dasharray="1,5" d="M202.67,-363.24C202.94,-354.04 203.32,-345.41 203.83,-337.9"/>
<polygon fill="#555555" stroke="#555555" points="207.39,-338.34 204.74,-328.09 200.42,-337.76 207.39,-338.34"/>
</g>
<!-- use_p_proc&#45;&gt;load_sub_location -->
<g id="edge3" class="edge">
<title>use_p_proc&#45;&gt;load_sub_location</title>
<path fill="none" stroke="#555555" stroke-dasharray="1,5" d="M215.33,-363.24C215.06,-354.04 214.68,-345.41 214.17,-337.9"/>
<polygon fill="#555555" stroke="#555555" points="217.58,-337.76 213.26,-328.09 210.61,-338.34 217.58,-337.76"/>
</g>
<!-- talk_p_proc -->
<g id="node4" class="node">
<title>talk_p_proc</title>
<ellipse fill="#ffffff" stroke="#000000" cx="281" cy="-309.27" rx="27" ry="18"/>
</g>
<!-- use_p_proc&#45;&gt;talk_p_proc -->
<g id="edge2" class="edge">
<title>use_p_proc&#45;&gt;talk_p_proc</title>
<path fill="none" stroke="#555555" stroke-dasharray="1,5" d="M255.41,-369.77C260.63,-357.63 265.53,-346.24 269.62,-336.73"/>
<polygon fill="#555555" stroke="#555555" points="273.13,-338.43 273.86,-327.86 266.7,-335.67 273.13,-338.43"/>
</g>
<!-- Node001 -->
<g id="node5" class="node">
<title>Node001</title>
<ellipse fill="#ffffff" stroke="#000000" cx="281" cy="-127.63" rx="157.15" ry="127.63"/>
<text text-anchor="middle" x="281" y="-200.58" font-family="Times,serif" font-size="14.00">Вы прокрадываетесь на</text>
<text text-anchor="middle" x="281" y="-183.33" font-family="Times,serif" font-size="14.00">моторную лодку, пока</text>
<text text-anchor="middle" x="281" y="-166.08" font-family="Times,serif" font-size="14.00">охранник смотрит в другую</text>
<text text-anchor="middle" x="281" y="-148.83" font-family="Times,serif" font-size="14.00">сторону, и прячетесь в</text>
<text text-anchor="middle" x="281" y="-131.58" font-family="Times,serif" font-size="14.00">ней. Около полуночи вы</text>
<text text-anchor="middle" x="281" y="-114.33" font-family="Times,serif" font-size="14.00">слышите рядом голоса и</text>
<text text-anchor="middle" x="281" y="-97.08" font-family="Times,serif" font-size="14.00">чувствуете, как моторная</text>
<text text-anchor="middle" x="281" y="-79.83" font-family="Times,serif" font-size="14.00">лодка начинает двигаться.</text>
<text text-anchor="middle" x="281" y="-62.58" font-family="Times,serif" font-size="14.00">&#45;&#45;&#45;</text>
<text text-anchor="middle" x="281" y="-45.33" font-family="Times,serif" font-size="14.00">Вы видите моторную лодку.</text>
</g>
<!-- talk_p_proc&#45;&gt;Node001 -->
<g id="edge4" class="edge">
<title>talk_p_proc&#45;&gt;Node001</title>
<path fill="none" stroke="#555555" stroke-dasharray="1,5" d="M281,-291.04C281,-284.28 281,-275.88 281,-266.48"/>
<polygon fill="#555555" stroke="#555555" points="284.5,-266.48 281,-256.48 277.5,-266.48 284.5,-266.48"/>
</g>
</g>
</svg>
