<?xml version="1.0" encoding="UTF-8" standalone="no"?>
<!DOCTYPE svg PUBLIC "-//W3C//DTD SVG 1.1//EN"
 "http://www.w3.org/Graphics/SVG/1.1/DTD/svg11.dtd">
<!-- Generated by graphviz version 8.0.5 (0)
 -->
<!-- Title: tribec5 Pages: 1 -->
<svg width="1795pt" height="1446pt"
 viewBox="0.00 0.00 1795.00 1445.63" xmlns="http://www.w3.org/2000/svg" xmlns:xlink="http://www.w3.org/1999/xlink">
<g id="graph0" class="graph" transform="scale(1 1) rotate(0) translate(4 1441.63)">
<title>tribec5</title>
<polygon fill="white" stroke="none" points="-4,4 -4,-1441.63 1791,-1441.63 1791,4 -4,4"/>
<!-- start -->
<g id="node1" class="node">
<title>start</title>
<ellipse fill="#ffffff" stroke="#000000" cx="27" cy="-1370.99" rx="27" ry="18"/>
</g>
<!-- critter_p_proc -->
<g id="node2" class="node">
<title>critter_p_proc</title>
<ellipse fill="#ffffff" stroke="#000000" cx="99" cy="-1370.99" rx="27" ry="18"/>
</g>
<!-- use_p_proc -->
<g id="node3" class="node">
<title>use_p_proc</title>
<ellipse fill="#ffffff" stroke="#000000" cx="171" cy="-1370.99" rx="27" ry="18"/>
</g>
<!-- look_at_p_proc -->
<g id="node4" class="node">
<title>look_at_p_proc</title>
<ellipse fill="#ffffff" stroke="#000000" cx="348" cy="-1370.99" rx="131.7" ry="66.64"/>
<text text-anchor="middle" x="348" y="-1400.81" font-family="Times,serif" font-size="14.00">Вы видите потерянную</text>
<text text-anchor="middle" x="348" y="-1383.56" font-family="Times,serif" font-size="14.00">душу.</text>
<text text-anchor="middle" x="348" y="-1366.31" font-family="Times,serif" font-size="14.00">&#45;&#45;&#45;</text>
<text text-anchor="middle" x="348" y="-1349.06" font-family="Times,serif" font-size="14.00">Вы видите Нессу,</text>
<text text-anchor="middle" x="348" y="-1331.81" font-family="Times,serif" font-size="14.00">потерянную душу.</text>
</g>
<!-- description_p_proc -->
<g id="node5" class="node">
<title>description_p_proc</title>
<ellipse fill="#ffffff" stroke="#000000" cx="644" cy="-1370.99" rx="146.55" ry="42.25"/>
<text text-anchor="middle" x="644" y="-1383.56" font-family="Times,serif" font-size="14.00">Вы видите душу красивой</text>
<text text-anchor="middle" x="644" y="-1366.31" font-family="Times,serif" font-size="14.00">девушки, освещенную</text>
<text text-anchor="middle" x="644" y="-1349.06" font-family="Times,serif" font-size="14.00">холодным сиянием луны.</text>
</g>
<!-- use_skill_on_p_proc -->
<g id="node6" class="node">
<title>use_skill_on_p_proc</title>
<ellipse fill="#ffffff" stroke="#000000" cx="836" cy="-1370.99" rx="27" ry="18"/>
</g>
<!-- use_obj_on_p_proc -->
<g id="node7" class="node">
<title>use_obj_on_p_proc</title>
<ellipse fill="#ffffff" stroke="#000000" cx="908" cy="-1370.99" rx="27" ry="18"/>
</g>
<!-- damage_p_proc -->
<g id="node8" class="node">
<title>damage_p_proc</title>
<ellipse fill="#ffffff" stroke="#000000" cx="980" cy="-1370.99" rx="27" ry="18"/>
</g>
<!-- map_enter_p_proc -->
<g id="node9" class="node">
<title>map_enter_p_proc</title>
<ellipse fill="#ffffff" stroke="#000000" cx="1052" cy="-1370.99" rx="27" ry="18"/>
</g>
<!-- map_update_p_proc -->
<g id="node10" class="node">
<title>map_update_p_proc</title>
<ellipse fill="#ffffff" stroke="#000000" cx="1124" cy="-1370.99" rx="27" ry="18"/>
</g>
<!-- talk_p_proc -->
<g id="node11" class="node">
<title>talk_p_proc</title>
<ellipse fill="#ffffff" stroke="#000000" cx="1196" cy="-1370.99" rx="27" ry="18"/>
</g>
<!-- Node003 -->
<g id="node12" class="node">
<title>Node003</title>
<ellipse fill="#ffffff" stroke="#000000" cx="986" cy="-762.46" rx="149.73" ry="54.45"/>
<text text-anchor="middle" x="986" y="-783.66" font-family="Times,serif" font-size="14.00">Он уходит. И оставляет</text>
<text text-anchor="middle" x="986" y="-766.41" font-family="Times,serif" font-size="14.00">меня совсем одну наедине</text>
<text text-anchor="middle" x="986" y="-749.16" font-family="Times,serif" font-size="14.00">с моими муками. Как так</text>
<text text-anchor="middle" x="986" y="-731.91" font-family="Times,serif" font-size="14.00">получилось?</text>
</g>
<!-- talk_p_proc&#45;&gt;Node003 -->
<g id="edge1" class="edge">
<title>talk_p_proc&#45;&gt;Node003</title>
<path fill="none" stroke="#555555" stroke-dasharray="1,5" d="M1190.85,-1352.99C1185.48,-1338.07 1175.62,-1316.86 1160,-1304.34 1113.78,-1267.32 1074.81,-1308.26 1032,-1267.34 912.77,-1153.4 943.68,-935.57 968.64,-827.51"/>
<polygon fill="#555555" stroke="#555555" points="972.21,-828.63 971.11,-818.09 965.4,-827.02 972.21,-828.63"/>
</g>
<!-- Node001 -->
<g id="node13" class="node">
<title>Node001</title>
<ellipse fill="#ffffff" stroke="#000000" cx="1196" cy="-1212.9" rx="154.5" ry="54.45"/>
<text text-anchor="middle" x="1196" y="-1234.1" font-family="Times,serif" font-size="14.00">Он говорил, что любит</text>
<text text-anchor="middle" x="1196" y="-1216.85" font-family="Times,serif" font-size="14.00">меня. Говорил, что мы</text>
<text text-anchor="middle" x="1196" y="-1199.6" font-family="Times,serif" font-size="14.00">можем начать все сначала.</text>
<text text-anchor="middle" x="1196" y="-1182.35" font-family="Times,serif" font-size="14.00">Как он мог так поступить?</text>
</g>
<!-- talk_p_proc&#45;&gt;Node001 -->
<g id="edge2" class="edge">
<title>talk_p_proc&#45;&gt;Node001</title>
<path fill="none" stroke="#555555" stroke-dasharray="1,5" d="M1196,-1352.69C1196,-1334.76 1196,-1305.63 1196,-1278.68"/>
<polygon fill="#555555" stroke="#555555" points="1199.5,-1278.7 1196,-1268.7 1192.5,-1278.7 1199.5,-1278.7"/>
</g>
<!-- Node006 -->
<g id="node14" class="node">
<title>Node006</title>
<ellipse fill="#ffffff" stroke="#000000" cx="1589" cy="-1098.2" rx="151.85" ry="42.25"/>
<text text-anchor="middle" x="1589" y="-1110.77" font-family="Times,serif" font-size="14.00">Кровь все не</text>
<text text-anchor="middle" x="1589" y="-1093.52" font-family="Times,serif" font-size="14.00">останавливается... Почему</text>
<text text-anchor="middle" x="1589" y="-1076.27" font-family="Times,serif" font-size="14.00">эта боль не кончается?</text>
</g>
<!-- talk_p_proc&#45;&gt;Node006 -->
<g id="edge3" class="edge">
<title>talk_p_proc&#45;&gt;Node006</title>
<path fill="none" stroke="#555555" stroke-dasharray="1,5" d="M1201.15,-1352.99C1206.52,-1338.07 1216.38,-1316.86 1232,-1304.34 1278.22,-1267.32 1306.87,-1293.49 1360,-1267.34 1425.89,-1234.91 1492.61,-1183.32 1536.9,-1145.83"/>
<polygon fill="#555555" stroke="#555555" points="1538.84,-1147.92 1544.17,-1138.77 1534.29,-1142.6 1538.84,-1147.92"/>
</g>
<!-- Node004 -->
<g id="node16" class="node">
<title>Node004</title>
<ellipse fill="#ffffff" stroke="#000000" cx="1073" cy="-445.93" rx="142.84" ry="139.83"/>
<text text-anchor="middle" x="1073" y="-527.51" font-family="Times,serif" font-size="14.00">Все не должно было так</text>
<text text-anchor="middle" x="1073" y="-510.26" font-family="Times,serif" font-size="14.00">печально закончится. Ты</text>
<text text-anchor="middle" x="1073" y="-493.01" font-family="Times,serif" font-size="14.00">сказал, что хочешь</text>
<text text-anchor="middle" x="1073" y="-475.76" font-family="Times,serif" font-size="14.00">создать со мной семью.</text>
<text text-anchor="middle" x="1073" y="-458.51" font-family="Times,serif" font-size="14.00">Ох, как же здесь</text>
<text text-anchor="middle" x="1073" y="-441.26" font-family="Times,serif" font-size="14.00">холодно... Я умираю...</text>
<text text-anchor="middle" x="1073" y="-424.01" font-family="Times,serif" font-size="14.00">Неет! Это не правда! Ты</text>
<text text-anchor="middle" x="1073" y="-406.76" font-family="Times,serif" font-size="14.00">бы никогда не причинил</text>
<text text-anchor="middle" x="1073" y="-389.51" font-family="Times,serif" font-size="14.00">мне боль, Торг! Я люблю</text>
<text text-anchor="middle" x="1073" y="-372.26" font-family="Times,serif" font-size="14.00">тебя! Несса всегда будет</text>
<text text-anchor="middle" x="1073" y="-355.01" font-family="Times,serif" font-size="14.00">тебя любить...</text>
</g>
<!-- Node003&#45;&gt;Node004 -->
<g id="edge9" class="edge">
<title>Node003&#45;&gt;Node004</title>
<path fill="none" stroke="#979900" d="M843.69,-745.23C811.42,-734.56 780.8,-717.41 760.75,-690.01 738.11,-659.08 740.63,-636.39 760.75,-603.76 796.87,-545.2 862.29,-507.74 923.95,-484.18"/>
<polygon fill="#979900" stroke="#979900" points="925.05,-487.14 933.21,-480.38 922.62,-480.58 925.05,-487.14"/>
<text text-anchor="middle" x="868.62" y="-676.71" font-family="Times,serif" font-size="14.00" fill="#979900">Слушай суда, свето</text>
<text text-anchor="middle" x="868.62" y="-659.46" font-family="Times,serif" font-size="14.00" fill="#979900">женщина. Здесь нема</text>
<text text-anchor="middle" x="868.62" y="-642.21" font-family="Times,serif" font-size="14.00" fill="#979900">ЧЕЛОВЕКА&#45;НОЖИКА! Он не</text>
<text text-anchor="middle" x="868.62" y="-624.96" font-family="Times,serif" font-size="14.00" fill="#979900">куда не ходить, здеся</text>
<text text-anchor="middle" x="868.62" y="-607.71" font-family="Times,serif" font-size="14.00" fill="#979900">только ты и моя!</text>
</g>
<!-- Node003&#45;&gt;Node004 -->
<g id="edge10" class="edge">
<title>Node003&#45;&gt;Node004</title>
<path fill="none" stroke="#6f0099" d="M985.93,-707.73C987.05,-676.85 990.43,-637.61 999.5,-603.76 1001.43,-596.56 1003.68,-589.28 1006.16,-582"/>
<polygon fill="#6f0099" stroke="#6f0099" points="1009.76,-583.32 1009.82,-572.73 1003.17,-580.97 1009.76,-583.32"/>
<text text-anchor="middle" x="1095.25" y="-659.46" font-family="Times,serif" font-size="14.00" fill="#6f0099">Пожалуйста, назови его</text>
<text text-anchor="middle" x="1095.25" y="-642.21" font-family="Times,serif" font-size="14.00" fill="#6f0099">имя. Хоть что&#45;нибудь, как</text>
<text text-anchor="middle" x="1095.25" y="-624.96" font-family="Times,serif" font-size="14.00" fill="#6f0099">мне его найти?</text>
</g>
<!-- Node002 -->
<g id="node15" class="node">
<title>Node002</title>
<ellipse fill="#ffffff" stroke="#000000" cx="1204" cy="-971.3" rx="148.14" ry="66.64"/>
<text text-anchor="middle" x="1204" y="-1001.13" font-family="Times,serif" font-size="14.00">Это все ложь. Он совсем</text>
<text text-anchor="middle" x="1204" y="-983.88" font-family="Times,serif" font-size="14.00">не любит меня. О, боже, у</text>
<text text-anchor="middle" x="1204" y="-966.63" font-family="Times,serif" font-size="14.00">него в руках нож! Это так</text>
<text text-anchor="middle" x="1204" y="-949.38" font-family="Times,serif" font-size="14.00">больно! Его взгляд такой</text>
<text text-anchor="middle" x="1204" y="-932.13" font-family="Times,serif" font-size="14.00">холодный, такой...</text>
</g>
<!-- Node001&#45;&gt;Node002 -->
<g id="edge4" class="edge">
<title>Node001&#45;&gt;Node002</title>
<path fill="none" stroke="#994900" d="M1063.38,-1184.68C1041.76,-1174.35 1022.04,-1160.1 1008.5,-1140.45 987.19,-1109.52 987.82,-1087.3 1008.5,-1055.95 1022.05,-1035.42 1041.79,-1019.9 1063.58,-1008.19"/>
<polygon fill="#994900" stroke="#994900" points="1065.04,-1010.87 1072.38,-1003.24 1061.88,-1004.63 1065.04,-1010.87"/>
<text text-anchor="middle" x="1111.75" y="-1102.15" font-family="Times,serif" font-size="14.00" fill="#994900">Аххх! Ты разговаривать с</text>
<text text-anchor="middle" x="1111.75" y="-1084.9" font-family="Times,serif" font-size="14.00" fill="#994900">моя, светящаяся женщина?</text>
</g>
<!-- Node001&#45;&gt;Node002 -->
<g id="edge5" class="edge">
<title>Node001&#45;&gt;Node002</title>
<path fill="none" stroke="#1c0099" d="M1211,-1158.33C1212.23,-1152.34 1213.28,-1146.29 1214,-1140.45 1217.7,-1110.6 1216.82,-1077.59 1214.43,-1048.78"/>
<polygon fill="#1c0099" stroke="#1c0099" points="1217.84,-1048.6 1213.45,-1038.96 1210.87,-1049.24 1217.84,-1048.6"/>
<text text-anchor="middle" x="1314.88" y="-1102.15" font-family="Times,serif" font-size="14.00" fill="#1c0099">Кто с вами это сделал? Вы</text>
<text text-anchor="middle" x="1314.88" y="-1084.9" font-family="Times,serif" font-size="14.00" fill="#1c0099">меня слышите?</text>
</g>
<!-- Node999 -->
<g id="node19" class="node">
<title>Node999</title>
<ellipse fill="#ffffff" stroke="#000000" cx="1402" cy="-18" rx="27" ry="18"/>
</g>
<!-- Node006&#45;&gt;Node999 -->
<g id="edge14" class="edge">
<title>Node006&#45;&gt;Node999</title>
<path fill="none" stroke="#449900" d="M1589,-1055.52C1589,-1008.47 1589,-929.63 1589,-861.78 1589,-861.78 1589,-861.78 1589,-118.3 1589,-51.24 1494.04,-29.33 1439.45,-22.27"/>
<polygon fill="#449900" stroke="#449900" points="1440.13,-18.71 1429.79,-21.02 1439.31,-25.66 1440.13,-18.71"/>
<text text-anchor="middle" x="1688" y="-659.46" font-family="Times,serif" font-size="14.00" fill="#449900">Не волнуйся, Несса. Я</text>
<text text-anchor="middle" x="1688" y="-642.21" font-family="Times,serif" font-size="14.00" fill="#449900">скоро помогу тебе обрести</text>
<text text-anchor="middle" x="1688" y="-624.96" font-family="Times,serif" font-size="14.00" fill="#449900">покой.</text>
</g>
<!-- Node002&#45;&gt;Node003 -->
<g id="edge7" class="edge">
<title>Node002&#45;&gt;Node003</title>
<path fill="none" stroke="#99003d" d="M1075.84,-937.32C1049.99,-925.24 1025.37,-908.84 1007.75,-886.66 994.7,-870.23 988.4,-848.64 985.61,-828.14"/>
<polygon fill="#99003d" stroke="#99003d" points="988.99,-827.8 984.44,-818.23 982.03,-828.55 988.99,-827.8"/>
<text text-anchor="middle" x="1099.12" y="-873.36" font-family="Times,serif" font-size="14.00" fill="#99003d">Если ты меня слышишь</text>
<text text-anchor="middle" x="1099.12" y="-856.11" font-family="Times,serif" font-size="14.00" fill="#99003d">скажи, кто тебя мучает?</text>
<text text-anchor="middle" x="1099.12" y="-838.86" font-family="Times,serif" font-size="14.00" fill="#99003d">Кто это сделал?</text>
</g>
<!-- Node002&#45;&gt;Node004 -->
<g id="edge6" class="edge">
<title>Node002&#45;&gt;Node004</title>
<path fill="none" stroke="#119900" d="M1206.14,-904.22C1208.27,-813.98 1208.9,-657.28 1190,-603.76 1184.99,-589.58 1178.21,-575.61 1170.43,-562.21"/>
<polygon fill="#119900" stroke="#119900" points="1173.05,-560.78 1164.89,-554.02 1167.06,-564.39 1173.05,-560.78"/>
<text text-anchor="middle" x="1305.5" y="-792.29" font-family="Times,serif" font-size="14.00" fill="#119900">Где есть, человек&#45;ножик?</text>
<text text-anchor="middle" x="1305.5" y="-775.04" font-family="Times,serif" font-size="14.00" fill="#119900">Я не вижу его. Ты о чема?</text>
<text text-anchor="middle" x="1305.5" y="-757.79" font-family="Times,serif" font-size="14.00" fill="#119900">Ты почему светится так?</text>
<text text-anchor="middle" x="1305.5" y="-740.54" font-family="Times,serif" font-size="14.00" fill="#119900">Слишком много</text>
<text text-anchor="middle" x="1305.5" y="-723.29" font-family="Times,serif" font-size="14.00" fill="#119900">Гамма&#45;глотока пить?</text>
</g>
<!-- Node991 -->
<g id="node17" class="node">
<title>Node991</title>
<ellipse fill="#ffffff" stroke="#000000" cx="1444" cy="-762.46" rx="27" ry="18"/>
</g>
<!-- Node002&#45;&gt;Node991 -->
<g id="edge8" class="edge">
<title>Node002&#45;&gt;Node991</title>
<path fill="none" stroke="#006a99" d="M1284.9,-915.35C1322.67,-887.89 1367.11,-852.89 1403,-816.91 1411.67,-808.22 1420.13,-797.66 1427.09,-788.24"/>
<polygon fill="#006a99" stroke="#006a99" points="1430.51,-790.47 1433.5,-780.3 1424.82,-786.39 1430.51,-790.47"/>
<text text-anchor="middle" x="1472.62" y="-864.73" font-family="Times,serif" font-size="14.00" fill="#006a99">Все. С меня довольно. Я</text>
<text text-anchor="middle" x="1472.62" y="-847.48" font-family="Times,serif" font-size="14.00" fill="#006a99">пошел отсюда.</text>
</g>
<!-- Node005 -->
<g id="node18" class="node">
<title>Node005</title>
<ellipse fill="#ffffff" stroke="#000000" cx="1290" cy="-119.3" rx="133.82" ry="30.05"/>
<text text-anchor="middle" x="1290" y="-123.25" font-family="Times,serif" font-size="14.00">Здесь так одиноко, в</text>
<text text-anchor="middle" x="1290" y="-106" font-family="Times,serif" font-size="14.00">темноте. Так одиноко...</text>
</g>
<!-- Node004&#45;&gt;Node005 -->
<g id="edge11" class="edge">
<title>Node004&#45;&gt;Node005</title>
<path fill="none" stroke="#009942" d="M1040.66,-309.47C1036.74,-259.93 1042.81,-206.49 1074.5,-167.35 1086.47,-152.57 1121.62,-142.17 1160.15,-134.98"/>
<polygon fill="#009942" stroke="#009942" points="1160.31,-138.33 1169.54,-133.13 1159.08,-131.44 1160.31,-138.33"/>
<text text-anchor="middle" x="1171.75" y="-274.8" font-family="Times,serif" font-size="14.00" fill="#009942">Моя думать ты красива,</text>
<text text-anchor="middle" x="1171.75" y="-257.55" font-family="Times,serif" font-size="14.00" fill="#009942">свето женщина, но очень</text>
<text text-anchor="middle" x="1171.75" y="-240.3" font-family="Times,serif" font-size="14.00" fill="#009942">тово для моя. Ты дажа не</text>
<text text-anchor="middle" x="1171.75" y="-223.05" font-family="Times,serif" font-size="14.00" fill="#009942">понимаешь, что говорить!</text>
<text text-anchor="middle" x="1171.75" y="-205.8" font-family="Times,serif" font-size="14.00" fill="#009942">Тебя нуда помощь, но моя</text>
<text text-anchor="middle" x="1171.75" y="-188.55" font-family="Times,serif" font-size="14.00" fill="#009942">не знать как. Моя пошла,</text>
<text text-anchor="middle" x="1171.75" y="-171.3" font-family="Times,serif" font-size="14.00" fill="#009942">кей? Пока&#45;пока!</text>
</g>
<!-- Node004&#45;&gt;Node005 -->
<g id="edge12" class="edge">
<title>Node004&#45;&gt;Node005</title>
<path fill="none" stroke="#991600" d="M1194.08,-371.18C1222.66,-348.07 1250.02,-320.11 1268,-288.1 1290.08,-248.81 1293.6,-196.36 1292.87,-160.62"/>
<polygon fill="#991600" stroke="#991600" points="1296.34,-160.52 1292.5,-150.65 1289.34,-160.76 1296.34,-160.52"/>
<text text-anchor="middle" x="1383.75" y="-231.68" font-family="Times,serif" font-size="14.00" fill="#991600">Спасибо, Несса. Это все,</text>
<text text-anchor="middle" x="1383.75" y="-214.43" font-family="Times,serif" font-size="14.00" fill="#991600">что я хотел услышать.</text>
</g>
<!-- Node005&#45;&gt;Node999 -->
<g id="edge13" class="edge">
<title>Node005&#45;&gt;Node999</title>
<path fill="none" stroke="#001799" d="M1322.09,-89.85C1340.04,-73.94 1362.02,-54.45 1378.38,-39.95"/>
<polygon fill="#001799" stroke="#001799" points="1380.21,-43.11 1385.37,-33.86 1375.56,-37.87 1380.21,-43.11"/>
<text text-anchor="middle" x="1389" y="-57.95" font-family="Times,serif" font-size="14.00" fill="#001799">[Готово]</text>
</g>
<!-- timed_event_p_proc -->
<g id="node20" class="node">
<title>timed_event_p_proc</title>
<ellipse fill="#ffffff" stroke="#000000" cx="1268" cy="-1370.99" rx="27" ry="18"/>
</g>
<!-- pickup_p_proc -->
<g id="node21" class="node">
<title>pickup_p_proc</title>
<ellipse fill="#ffffff" stroke="#000000" cx="1340" cy="-1370.99" rx="27" ry="18"/>
</g>
</g>
</svg>
