<?xml version="1.0" encoding="UTF-8" standalone="no"?>
<!DOCTYPE svg PUBLIC "-//W3C//DTD SVG 1.1//EN"
 "http://www.w3.org/Graphics/SVG/1.1/DTD/svg11.dtd">
<!-- Generated by graphviz version 8.0.5 (0)
 -->
<!-- Title: tribec8 Pages: 1 -->
<svg width="3378pt" height="1598pt"
 viewBox="0.00 0.00 3378.25 1598.19" xmlns="http://www.w3.org/2000/svg" xmlns:xlink="http://www.w3.org/1999/xlink">
<g id="graph0" class="graph" transform="scale(1 1) rotate(0) translate(4 1594.19)">
<title>tribec8</title>
<polygon fill="white" stroke="none" points="-4,4 -4,-1594.19 3374.25,-1594.19 3374.25,4 -4,4"/>
<!-- start -->
<g id="node1" class="node">
<title>start</title>
<ellipse fill="#ffffff" stroke="#000000" cx="27" cy="-1523.55" rx="27" ry="18"/>
</g>
<!-- combat_p_proc -->
<g id="node2" class="node">
<title>combat_p_proc</title>
<ellipse fill="#ffffff" stroke="#000000" cx="99" cy="-1523.55" rx="27" ry="18"/>
</g>
<!-- destroy_p_proc -->
<g id="node3" class="node">
<title>destroy_p_proc</title>
<ellipse fill="#ffffff" stroke="#000000" cx="171" cy="-1523.55" rx="27" ry="18"/>
</g>
<!-- critter_p_proc -->
<g id="node4" class="node">
<title>critter_p_proc</title>
<ellipse fill="#ffffff" stroke="#000000" cx="349" cy="-1523.55" rx="132.76" ry="18"/>
<text text-anchor="middle" x="349" y="-1518.87" font-family="Times,serif" font-size="14.00">Гнусный работорговец!</text>
</g>
<!-- use_p_proc -->
<g id="node5" class="node">
<title>use_p_proc</title>
<ellipse fill="#ffffff" stroke="#000000" cx="527" cy="-1523.55" rx="27" ry="18"/>
</g>
<!-- look_at_p_proc -->
<g id="node6" class="node">
<title>look_at_p_proc</title>
<ellipse fill="#ffffff" stroke="#000000" cx="688" cy="-1523.55" rx="116.32" ry="42.25"/>
<text text-anchor="middle" x="688" y="-1536.12" font-family="Times,serif" font-size="14.00">Вы видите рыбака.</text>
<text text-anchor="middle" x="688" y="-1518.87" font-family="Times,serif" font-size="14.00">&#45;&#45;&#45;</text>
<text text-anchor="middle" x="688" y="-1501.62" font-family="Times,serif" font-size="14.00">Вы видите рыбачку.</text>
</g>
<!-- description_p_proc -->
<g id="node7" class="node">
<title>description_p_proc</title>
<ellipse fill="#ffffff" stroke="#000000" cx="978" cy="-1523.55" rx="156.09" ry="66.64"/>
<text text-anchor="middle" x="978" y="-1553.37" font-family="Times,serif" font-size="14.00">Он несет заостренный шест</text>
<text text-anchor="middle" x="978" y="-1536.12" font-family="Times,serif" font-size="14.00">для рыбалки.</text>
<text text-anchor="middle" x="978" y="-1518.87" font-family="Times,serif" font-size="14.00">&#45;&#45;&#45;</text>
<text text-anchor="middle" x="978" y="-1501.62" font-family="Times,serif" font-size="14.00">Она похоже занята</text>
<text text-anchor="middle" x="978" y="-1484.37" font-family="Times,serif" font-size="14.00">приготовлением пищи.</text>
</g>
<!-- use_skill_on_p_proc -->
<g id="node8" class="node">
<title>use_skill_on_p_proc</title>
<ellipse fill="#ffffff" stroke="#000000" cx="1179" cy="-1523.55" rx="27" ry="18"/>
</g>
<!-- use_obj_on_p_proc -->
<g id="node9" class="node">
<title>use_obj_on_p_proc</title>
<ellipse fill="#ffffff" stroke="#000000" cx="1251" cy="-1523.55" rx="27" ry="18"/>
</g>
<!-- damage_p_proc -->
<g id="node10" class="node">
<title>damage_p_proc</title>
<ellipse fill="#ffffff" stroke="#000000" cx="1323" cy="-1523.55" rx="27" ry="18"/>
</g>
<!-- map_enter_p_proc -->
<g id="node11" class="node">
<title>map_enter_p_proc</title>
<ellipse fill="#ffffff" stroke="#000000" cx="1395" cy="-1523.55" rx="27" ry="18"/>
</g>
<!-- wield_spear_p_proc -->
<g id="node12" class="node">
<title>wield_spear_p_proc</title>
<ellipse fill="#ffffff" stroke="#000000" cx="1395" cy="-1341.06" rx="27" ry="18"/>
</g>
<!-- map_enter_p_proc&#45;&gt;wield_spear_p_proc -->
<g id="edge1" class="edge">
<title>map_enter_p_proc&#45;&gt;wield_spear_p_proc</title>
<path fill="none" stroke="#555555" stroke-dasharray="1,5" d="M1395,-1505.24C1395,-1473.98 1395,-1407.83 1395,-1370.05"/>
<polygon fill="#555555" stroke="#555555" points="1398.5,-1370.31 1395,-1360.31 1391.5,-1370.31 1398.5,-1370.31"/>
</g>
<!-- map_update_p_proc -->
<g id="node13" class="node">
<title>map_update_p_proc</title>
<ellipse fill="#ffffff" stroke="#000000" cx="1916" cy="-1523.55" rx="27" ry="18"/>
</g>
<!-- talk_p_proc -->
<g id="node14" class="node">
<title>talk_p_proc</title>
<ellipse fill="#ffffff" stroke="#000000" cx="2622" cy="-1523.55" rx="27" ry="18"/>
</g>
<!-- Node006 -->
<g id="node15" class="node">
<title>Node006</title>
<ellipse fill="#ffffff" stroke="#000000" cx="1590" cy="-1341.06" rx="149.59" ry="18"/>
<text text-anchor="middle" x="1590" y="-1336.38" font-family="Times,serif" font-size="14.00">Готовы ли вы мне помочь?</text>
</g>
<!-- talk_p_proc&#45;&gt;Node006 -->
<g id="edge2" class="edge">
<title>talk_p_proc&#45;&gt;Node006</title>
<path fill="none" stroke="#555555" stroke-dasharray="1,5" d="M2595.97,-1517.99C2468.5,-1495.7 1907.15,-1397.52 1682.96,-1358.32"/>
<polygon fill="#555555" stroke="#555555" points="1683.67,-1354.71 1673.22,-1356.44 1682.46,-1361.61 1683.67,-1354.71"/>
</g>
<!-- Node007 -->
<g id="node16" class="node">
<title>Node007</title>
<ellipse fill="#ffffff" stroke="#000000" cx="3053" cy="-1341.06" rx="116.85" ry="30.05"/>
<text text-anchor="middle" x="3053" y="-1345.01" font-family="Times,serif" font-size="14.00">Кхмм. Иди доставай</text>
<text text-anchor="middle" x="3053" y="-1327.76" font-family="Times,serif" font-size="14.00">кого&#45;нибудь еще.</text>
</g>
<!-- talk_p_proc&#45;&gt;Node007 -->
<g id="edge3" class="edge">
<title>talk_p_proc&#45;&gt;Node007</title>
<path fill="none" stroke="#555555" stroke-dasharray="1,5" d="M2626.37,-1505.32C2631.28,-1489.81 2640.91,-1467.82 2658,-1456.9 2707.55,-1425.24 2866.81,-1459.19 2922,-1438.9 2957.77,-1425.75 2992.19,-1399.61 3016.76,-1377.79"/>
<polygon fill="#555555" stroke="#555555" points="3018.65,-1380.9 3023.7,-1371.59 3013.94,-1375.72 3018.65,-1380.9"/>
</g>
<!-- Node008 -->
<g id="node17" class="node">
<title>Node008</title>
<ellipse fill="#ffffff" stroke="#000000" cx="2931" cy="-1005.19" rx="96.98" ry="18"/>
<text text-anchor="middle" x="2931" y="-1000.51" font-family="Times,serif" font-size="14.00">Ты принес дров?</text>
</g>
<!-- talk_p_proc&#45;&gt;Node008 -->
<g id="edge4" class="edge">
<title>talk_p_proc&#45;&gt;Node008</title>
<path fill="none" stroke="#555555" stroke-dasharray="1,5" d="M2629.35,-1505.72C2635.83,-1491.89 2646.06,-1472.15 2658,-1456.9 2744.02,-1347.01 2822.01,-1366.64 2889,-1244.22 2926.51,-1175.66 2931.67,-1080.89 2931.7,-1034.32"/>
<polygon fill="#555555" stroke="#555555" points="2935.19,-1034.54 2931.61,-1024.57 2928.19,-1034.59 2935.19,-1034.54"/>
</g>
<!-- Node001 -->
<g id="node18" class="node">
<title>Node001</title>
<ellipse fill="#ffffff" stroke="#000000" cx="2407" cy="-1341.06" rx="153.44" ry="78.84"/>
<text text-anchor="middle" x="2407" y="-1379.51" font-family="Times,serif" font-size="14.00">Извините, но не могли бы</text>
<text text-anchor="middle" x="2407" y="-1362.26" font-family="Times,serif" font-size="14.00">вы оказать мне небольшую</text>
<text text-anchor="middle" x="2407" y="-1345.01" font-family="Times,serif" font-size="14.00">услугу? Я немного занята,</text>
<text text-anchor="middle" x="2407" y="-1327.76" font-family="Times,serif" font-size="14.00">и я не знаю, смогу ли я</text>
<text text-anchor="middle" x="2407" y="-1310.51" font-family="Times,serif" font-size="14.00">оставить этот котел без</text>
<text text-anchor="middle" x="2407" y="-1293.26" font-family="Times,serif" font-size="14.00">присмотра.</text>
</g>
<!-- talk_p_proc&#45;&gt;Node001 -->
<g id="edge5" class="edge">
<title>talk_p_proc&#45;&gt;Node001</title>
<path fill="none" stroke="#555555" stroke-dasharray="1,5" d="M2605.84,-1508.98C2582.22,-1489.15 2536.54,-1450.8 2494.92,-1415.86"/>
<polygon fill="#555555" stroke="#555555" points="2497.56,-1412.67 2487.65,-1408.92 2493.06,-1418.03 2497.56,-1412.67"/>
</g>
<!-- Node997 -->
<g id="node21" class="node">
<title>Node997</title>
<ellipse fill="#ffffff" stroke="#000000" cx="1710" cy="-1005.19" rx="27" ry="18"/>
</g>
<!-- Node006&#45;&gt;Node997 -->
<g id="edge23" class="edge">
<title>Node006&#45;&gt;Node997</title>
<path fill="none" stroke="#400099" d="M1562.69,-1323.02C1538.71,-1306.29 1505.47,-1278.36 1491,-1244.22 1479.04,-1215.98 1477.48,-1202.74 1491,-1175.22 1530.14,-1095.57 1626.86,-1042.84 1677.66,-1019.67"/>
<polygon fill="#400099" stroke="#400099" points="1678.76,-1022.56 1686.47,-1015.3 1675.91,-1016.17 1678.76,-1022.56"/>
<text text-anchor="middle" x="1579.5" y="-1222.29" font-family="Times,serif" font-size="14.00" fill="#400099">Нет, и не буду. Сами</text>
<text text-anchor="middle" x="1579.5" y="-1205.04" font-family="Times,serif" font-size="14.00" fill="#400099">разбирайтесь со своими</text>
<text text-anchor="middle" x="1579.5" y="-1187.79" font-family="Times,serif" font-size="14.00" fill="#400099">проблемами. Пока.</text>
</g>
<!-- Node999 -->
<g id="node22" class="node">
<title>Node999</title>
<ellipse fill="#ffffff" stroke="#000000" cx="2764" cy="-18" rx="27" ry="18"/>
</g>
<!-- Node006&#45;&gt;Node999 -->
<g id="edge22" class="edge">
<title>Node006&#45;&gt;Node999</title>
<path fill="none" stroke="#996d00" d="M1559.16,-1323.07C1532.67,-1306.64 1495.98,-1279.14 1478,-1244.22 1429.38,-1149.8 1457,-1112.39 1457,-1006.19 1457,-1006.19 1457,-1006.19 1457,-243.24 1457,135.98 1913.96,-110.14 2289,-54 2450.48,-29.83 2645.46,-22.12 2726.18,-19.86"/>
<polygon fill="#996d00" stroke="#996d00" points="2725.89,-23.34 2735.8,-19.58 2725.71,-16.35 2725.89,-23.34"/>
<text text-anchor="middle" x="1551.5" y="-656.02" font-family="Times,serif" font-size="14.00" fill="#996d00">Нет, мне по&#45;прежнему не</text>
<text text-anchor="middle" x="1551.5" y="-638.77" font-family="Times,serif" font-size="14.00" fill="#996d00">хватает времени. Пока.</text>
</g>
<!-- Node002 -->
<g id="node23" class="node">
<title>Node002</title>
<ellipse fill="#ffffff" stroke="#000000" cx="2329" cy="-1005.19" rx="152.91" ry="152.03"/>
<text text-anchor="middle" x="2329" y="-1095.39" font-family="Times,serif" font-size="14.00">Мне не хватает древесины</text>
<text text-anchor="middle" x="2329" y="-1078.14" font-family="Times,serif" font-size="14.00">для этого костра. Если бы</text>
<text text-anchor="middle" x="2329" y="-1060.89" font-family="Times,serif" font-size="14.00">ты мог собрать для меня</text>
<text text-anchor="middle" x="2329" y="-1043.64" font-family="Times,serif" font-size="14.00">побольше дров, я была бы</text>
<text text-anchor="middle" x="2329" y="-1026.39" font-family="Times,serif" font-size="14.00">очень признательна. Я бы</text>
<text text-anchor="middle" x="2329" y="-1009.14" font-family="Times,serif" font-size="14.00">и сама это сделала, но</text>
<text text-anchor="middle" x="2329" y="-991.89" font-family="Times,serif" font-size="14.00">боюсь котел выкипит, если</text>
<text text-anchor="middle" x="2329" y="-974.64" font-family="Times,serif" font-size="14.00">я оставлю его без</text>
<text text-anchor="middle" x="2329" y="-957.39" font-family="Times,serif" font-size="14.00">присмотра. Я уверена, что</text>
<text text-anchor="middle" x="2329" y="-940.14" font-family="Times,serif" font-size="14.00">древесину можно найти в</text>
<text text-anchor="middle" x="2329" y="-922.89" font-family="Times,serif" font-size="14.00">близлежащем лесу. Три</text>
<text text-anchor="middle" x="2329" y="-905.64" font-family="Times,serif" font-size="14.00">полена будет достаточно.</text>
</g>
<!-- Node006&#45;&gt;Node002 -->
<g id="edge21" class="edge">
<title>Node006&#45;&gt;Node002</title>
<path fill="none" stroke="#009899" d="M1607.67,-1322.92C1625.33,-1304.87 1652.07,-1274.86 1668,-1244.22 1682.7,-1215.94 1662.46,-1194.92 1687.5,-1175.22 1728.79,-1142.73 2111.28,-1176.88 2160,-1157.22 2180.07,-1149.11 2199.31,-1137.52 2217.16,-1124.31"/>
<polygon fill="#009899" stroke="#009899" points="2218.99,-1126.56 2224.81,-1117.71 2214.74,-1121 2218.99,-1126.56"/>
<text text-anchor="middle" x="1784.75" y="-1205.04" font-family="Times,serif" font-size="14.00" fill="#009899">Конечно. Что тебе нужно?</text>
</g>
<!-- Node008&#45;&gt;Node999 -->
<g id="edge26" class="edge">
<title>Node008&#45;&gt;Node999</title>
<path fill="none" stroke="#004699" d="M2959.7,-987.63C3001.76,-961.49 3078.48,-906.23 3109,-835.16 3120.79,-807.71 3130.42,-141.26 3046,-54 3029.28,-36.72 2874.43,-25.46 2801.57,-21.07"/>
<polygon fill="#004699" stroke="#004699" points="2802.21,-17.54 2792.02,-20.45 2801.8,-24.53 2802.21,-17.54"/>
<text text-anchor="middle" x="3149.5" y="-455.68" font-family="Times,serif" font-size="14.00" fill="#004699">Я искать.</text>
</g>
<!-- Node008&#45;&gt;Node999 -->
<g id="edge27" class="edge">
<title>Node008&#45;&gt;Node999</title>
<path fill="none" stroke="#729900" d="M2960,-987.54C3003.31,-961.09 3084.27,-905.21 3126,-835.16 3233.77,-654.27 3223.87,-572.96 3188,-365.48 3162.89,-220.22 3190.88,-143.84 3074,-54 3032.24,-21.9 2874.97,-18.37 2801.83,-18.53"/>
<polygon fill="#729900" stroke="#729900" points="2802.24,-15.03 2792.26,-18.58 2802.28,-22.03 2802.24,-15.03"/>
<text text-anchor="middle" x="3291.12" y="-472.93" font-family="Times,serif" font-size="14.00" fill="#729900">Нет, пока. Я вернусь,</text>
<text text-anchor="middle" x="3291.12" y="-455.68" font-family="Times,serif" font-size="14.00" fill="#729900">когда я соберу три</text>
<text text-anchor="middle" x="3291.12" y="-438.43" font-family="Times,serif" font-size="14.00" fill="#729900">полена.</text>
</g>
<!-- Node004 -->
<g id="node24" class="node">
<title>Node004</title>
<ellipse fill="#ffffff" stroke="#000000" cx="2630" cy="-652.07" rx="155.56" ry="78.84"/>
<text text-anchor="middle" x="2630" y="-690.52" font-family="Times,serif" font-size="14.00">Ах, отлично. Это поможет</text>
<text text-anchor="middle" x="2630" y="-673.27" font-family="Times,serif" font-size="14.00">поддержать огонь.</text>
<text text-anchor="middle" x="2630" y="-656.02" font-family="Times,serif" font-size="14.00">Спасибо, что нашли время</text>
<text text-anchor="middle" x="2630" y="-638.77" font-family="Times,serif" font-size="14.00">помочь мне. Правда у меня</text>
<text text-anchor="middle" x="2630" y="-621.52" font-family="Times,serif" font-size="14.00">нет ничего, чтобы</text>
<text text-anchor="middle" x="2630" y="-604.27" font-family="Times,serif" font-size="14.00">отплатить вам за помощь.</text>
</g>
<!-- Node008&#45;&gt;Node004 -->
<g id="edge24" class="edge">
<title>Node008&#45;&gt;Node004</title>
<path fill="none" stroke="#009914" d="M2931.88,-986.73C2934.1,-935.33 2937.88,-785.9 2909,-748.91 2880.05,-711.83 2835.96,-689.03 2791.32,-675.02"/>
<polygon fill="#009914" stroke="#009914" points="2792.47,-671.41 2781.89,-671.9 2790.47,-678.12 2792.47,-671.41"/>
<text text-anchor="middle" x="3018.5" y="-795.98" font-family="Times,serif" font-size="14.00" fill="#009914">У меня дерево. Кхе&#45;хе...</text>
<text text-anchor="middle" x="3018.5" y="-778.73" font-family="Times,serif" font-size="14.00" fill="#009914">дерево.</text>
</g>
<!-- Node008&#45;&gt;Node004 -->
<g id="edge25" class="edge">
<title>Node008&#45;&gt;Node004</title>
<path fill="none" stroke="#990019" d="M2898.59,-987.8C2851.16,-962.06 2763.57,-907.53 2718.25,-835.16 2697.4,-801.87 2715.08,-784.74 2699,-748.91 2696.93,-744.3 2694.62,-739.69 2692.14,-735.12"/>
<polygon fill="#990019" stroke="#990019" points="2694.82,-733.76 2686.81,-726.82 2688.74,-737.24 2694.82,-733.76"/>
<text text-anchor="middle" x="2812.38" y="-787.36" font-family="Times,serif" font-size="14.00" fill="#990019">Да, вот они, прямо здесь.</text>
</g>
<!-- Node996 -->
<g id="node20" class="node">
<title>Node996</title>
<ellipse fill="#ffffff" stroke="#000000" cx="2124" cy="-1005.19" rx="27" ry="18"/>
</g>
<!-- Node001&#45;&gt;Node996 -->
<g id="edge9" class="edge">
<title>Node001&#45;&gt;Node996</title>
<path fill="none" stroke="#994d00" d="M2257.71,-1322.27C2209.48,-1308.74 2160.76,-1285.16 2130.75,-1244.22 2084.59,-1181.25 2102.86,-1081.64 2115.62,-1033.72"/>
<polygon fill="#994d00" stroke="#994d00" points="2119.23,-1034.82 2118.55,-1024.24 2112.49,-1032.93 2119.23,-1034.82"/>
<text text-anchor="middle" x="2225.12" y="-1213.67" font-family="Times,serif" font-size="14.00" fill="#994d00">Я слишком занят. Может</text>
<text text-anchor="middle" x="2225.12" y="-1196.42" font-family="Times,serif" font-size="14.00" fill="#994d00">быть, немного позже.</text>
</g>
<!-- Node001&#45;&gt;Node997 -->
<g id="edge10" class="edge">
<title>Node001&#45;&gt;Node997</title>
<path fill="none" stroke="#210099" d="M2255.32,-1328C2127.48,-1314.85 1957.48,-1289.38 1906.75,-1244.22 1882.73,-1222.84 1901.92,-1202.56 1885,-1175.22 1845.09,-1110.7 1775.04,-1053.51 1736.79,-1025.13"/>
<polygon fill="#210099" stroke="#210099" points="1739.37,-1021.95 1729.24,-1018.87 1735.24,-1027.6 1739.37,-1021.95"/>
<text text-anchor="middle" x="2004.12" y="-1230.92" font-family="Times,serif" font-size="14.00" fill="#210099">Эй, жизнь полна проблем,</text>
<text text-anchor="middle" x="2004.12" y="-1213.67" font-family="Times,serif" font-size="14.00" fill="#210099">и я здесь не для того,</text>
<text text-anchor="middle" x="2004.12" y="-1196.42" font-family="Times,serif" font-size="14.00" fill="#210099">чтобы решить их все.</text>
<text text-anchor="middle" x="2004.12" y="-1179.17" font-family="Times,serif" font-size="14.00" fill="#210099">Пока.</text>
</g>
<!-- Node001&#45;&gt;Node002 -->
<g id="edge6" class="edge">
<title>Node001&#45;&gt;Node002</title>
<path fill="none" stroke="#5f9900" d="M2557.08,-1323.76C2678.43,-1303.99 2820.14,-1261.87 2761,-1175.22 2700.94,-1087.22 2587.59,-1045.03 2492.07,-1024.81"/>
<polygon fill="#5f9900" stroke="#5f9900" points="2492.9,-1021.2 2482.4,-1022.62 2491.5,-1028.06 2492.9,-1021.2"/>
<text text-anchor="middle" x="2830.12" y="-1205.04" font-family="Times,serif" font-size="14.00" fill="#5f9900">Че вам нужно?</text>
</g>
<!-- Node001&#45;&gt;Node002 -->
<g id="edge7" class="edge">
<title>Node001&#45;&gt;Node002</title>
<path fill="none" stroke="#99008b" d="M2347.14,-1268.04C2342.81,-1260.33 2339.06,-1252.33 2336.25,-1244.22 2327.93,-1220.18 2323.19,-1193.95 2320.79,-1167.96"/>
<polygon fill="#99008b" stroke="#99008b" points="2324.22,-1167.93 2319.93,-1158.25 2317.24,-1168.49 2324.22,-1167.93"/>
<text text-anchor="middle" x="2440.88" y="-1213.67" font-family="Times,serif" font-size="14.00" fill="#99008b">Ooo! Сделай мине любимую</text>
<text text-anchor="middle" x="2440.88" y="-1196.42" font-family="Times,serif" font-size="14.00" fill="#99008b">еду!</text>
</g>
<!-- Node001&#45;&gt;Node002 -->
<g id="edge8" class="edge">
<title>Node001&#45;&gt;Node002</title>
<path fill="none" stroke="#00997a" d="M2512.13,-1283.54C2524.94,-1272.23 2536.22,-1259.15 2544,-1244.22 2558.17,-1217.02 2557.4,-1202.8 2544,-1175.22 2527.36,-1140.96 2500.04,-1111.58 2470.36,-1087.38"/>
<polygon fill="#00997a" stroke="#00997a" points="2472.95,-1084.17 2462.94,-1080.69 2468.6,-1089.65 2472.95,-1084.17"/>
<text text-anchor="middle" x="2651.75" y="-1205.04" font-family="Times,serif" font-size="14.00" fill="#00997a">Конечно. Что тебе нужно?</text>
</g>
<!-- Node995 -->
<g id="node19" class="node">
<title>Node995</title>
<ellipse fill="#ffffff" stroke="#000000" cx="2461" cy="-244.24" rx="116.32" ry="42.25"/>
<text text-anchor="middle" x="2461" y="-256.81" font-family="Times,serif" font-size="14.00">Вы видите рыбака.</text>
<text text-anchor="middle" x="2461" y="-239.56" font-family="Times,serif" font-size="14.00">&#45;&#45;&#45;</text>
<text text-anchor="middle" x="2461" y="-222.31" font-family="Times,serif" font-size="14.00">Вы видите рыбачку.</text>
</g>
<!-- Node002&#45;&gt;Node004 -->
<g id="edge11" class="edge">
<title>Node002&#45;&gt;Node004</title>
<path fill="none" stroke="#0c9900" d="M2439.11,-899.28C2455.94,-879.24 2471.75,-857.51 2484,-835.16 2503.07,-800.37 2485.1,-781.99 2507,-748.91 2513.11,-739.67 2520.42,-730.94 2528.37,-722.78"/>
<polygon fill="#0c9900" stroke="#0c9900" points="2530.48,-725.64 2535.18,-716.15 2525.59,-720.64 2530.48,-725.64"/>
<text text-anchor="middle" x="2603" y="-821.86" font-family="Times,serif" font-size="14.00" fill="#0c9900">Вообще&#45;то, по какой&#45;то</text>
<text text-anchor="middle" x="2603" y="-804.61" font-family="Times,serif" font-size="14.00" fill="#0c9900">сумасшедшей причине, у</text>
<text text-anchor="middle" x="2603" y="-787.36" font-family="Times,serif" font-size="14.00" fill="#0c9900">меня случайно есть три</text>
<text text-anchor="middle" x="2603" y="-770.11" font-family="Times,serif" font-size="14.00" fill="#0c9900">полена прямо сейчас. Вот</text>
<text text-anchor="middle" x="2603" y="-752.86" font-family="Times,serif" font-size="14.00" fill="#0c9900">они.</text>
</g>
<!-- Node002&#45;&gt;Node004 -->
<g id="edge12" class="edge">
<title>Node002&#45;&gt;Node004</title>
<path fill="none" stroke="#990039" d="M2296.72,-856.26C2290.28,-810.12 2289.16,-766.64 2303,-748.91 2323.3,-722.91 2343.22,-739.73 2375,-730.91 2411.79,-720.7 2451.36,-708.99 2488.08,-697.8"/>
<polygon fill="#990039" stroke="#990039" points="2488.81,-700.93 2497.36,-694.66 2486.77,-694.24 2488.81,-700.93"/>
<text text-anchor="middle" x="2391.5" y="-795.98" font-family="Times,serif" font-size="14.00" fill="#990039">У меня дерево. Кхе&#45;хе...</text>
<text text-anchor="middle" x="2391.5" y="-778.73" font-family="Times,serif" font-size="14.00" fill="#990039">дерево.</text>
</g>
<!-- Node003 -->
<g id="node25" class="node">
<title>Node003</title>
<ellipse fill="#ffffff" stroke="#000000" cx="2214" cy="-652.07" rx="152.38" ry="42.25"/>
<text text-anchor="middle" x="2214" y="-664.64" font-family="Times,serif" font-size="14.00">Вы сможете мне помочь?</text>
<text text-anchor="middle" x="2214" y="-647.39" font-family="Times,serif" font-size="14.00">Отлично! Дайте мне знать,</text>
<text text-anchor="middle" x="2214" y="-630.14" font-family="Times,serif" font-size="14.00">когда вы соберете их.</text>
</g>
<!-- Node002&#45;&gt;Node003 -->
<g id="edge13" class="edge">
<title>Node002&#45;&gt;Node003</title>
<path fill="none" stroke="#006599" d="M2223.61,-894.73C2203.79,-878.78 2182.25,-864.09 2160,-853.16 2120.64,-833.84 2091.03,-868.87 2063,-835.16 2038.49,-805.69 2044.53,-782.5 2063,-748.91 2075.82,-725.59 2096.97,-707.15 2119.45,-692.92"/>
<polygon fill="#006599" stroke="#006599" points="2121.04,-695.45 2127.8,-687.28 2117.43,-689.45 2121.04,-695.45"/>
<text text-anchor="middle" x="2127.5" y="-787.36" font-family="Times,serif" font-size="14.00" fill="#006599">С удовольствием.</text>
</g>
<!-- Node002&#45;&gt;Node003 -->
<g id="edge14" class="edge">
<title>Node002&#45;&gt;Node003</title>
<path fill="none" stroke="#929900" d="M2236.23,-884.35C2227.6,-868.49 2220.17,-851.9 2215,-835.16 2201.93,-792.82 2202.87,-742.26 2206.4,-705.17"/>
<polygon fill="#929900" stroke="#929900" points="2209.95,-705.91 2207.51,-695.6 2202.99,-705.18 2209.95,-705.91"/>
<text text-anchor="middle" x="2249.5" y="-787.36" font-family="Times,serif" font-size="14.00" fill="#929900">Я искать.</text>
</g>
<!-- Node004&#45;&gt;Node995 -->
<g id="edge16" class="edge">
<title>Node004&#45;&gt;Node995</title>
<path fill="none" stroke="#009947" d="M2627.13,-572.85C2623.75,-494.65 2617.39,-383.47 2608,-365.48 2591.06,-333.03 2561.17,-306.11 2532.75,-286.03"/>
<polygon fill="#009947" stroke="#009947" points="2535.21,-282.79 2524.99,-280.02 2531.25,-288.56 2535.21,-282.79"/>
<text text-anchor="middle" x="2696.38" y="-455.68" font-family="Times,serif" font-size="14.00" fill="#009947">Все карошо. Пока!</text>
</g>
<!-- Node004&#45;&gt;Node995 -->
<g id="edge17" class="edge">
<title>Node004&#45;&gt;Node995</title>
<path fill="none" stroke="#991a00" d="M2487.64,-619.87C2454.7,-605.69 2423.54,-585.1 2403.75,-555.23 2351.07,-475.7 2396.67,-360.76 2431.13,-295.5"/>
<polygon fill="#991a00" stroke="#991a00" points="2434.67,-297.32 2436.34,-286.86 2428.51,-293.99 2434.67,-297.32"/>
<text text-anchor="middle" x="2504.12" y="-464.3" font-family="Times,serif" font-size="14.00" fill="#991a00">Твоей благодарности будет</text>
<text text-anchor="middle" x="2504.12" y="-447.05" font-family="Times,serif" font-size="14.00" fill="#991a00">достаточно. Береги себя.</text>
</g>
<!-- Node005 -->
<g id="node26" class="node">
<title>Node005</title>
<ellipse fill="#ffffff" stroke="#000000" cx="2792" cy="-244.24" rx="150.26" ry="103.24"/>
<text text-anchor="middle" x="2792" y="-299.94" font-family="Times,serif" font-size="14.00">Ладно, вот, возьми эти</text>
<text text-anchor="middle" x="2792" y="-282.69" font-family="Times,serif" font-size="14.00">деньги. У меня нет нужды</text>
<text text-anchor="middle" x="2792" y="-265.44" font-family="Times,serif" font-size="14.00">их здесь держать. Еще раз</text>
<text text-anchor="middle" x="2792" y="-248.19" font-family="Times,serif" font-size="14.00">спасибо.</text>
<text text-anchor="middle" x="2792" y="-230.94" font-family="Times,serif" font-size="14.00">&#45;&#45;&#45;</text>
<text text-anchor="middle" x="2792" y="-213.69" font-family="Times,serif" font-size="14.00">Вы видите рыбака.</text>
<text text-anchor="middle" x="2792" y="-196.44" font-family="Times,serif" font-size="14.00">&#45;&#45;&#45;</text>
<text text-anchor="middle" x="2792" y="-179.19" font-family="Times,serif" font-size="14.00">Вы видите рыбачку.</text>
</g>
<!-- Node004&#45;&gt;Node005 -->
<g id="edge18" class="edge">
<title>Node004&#45;&gt;Node005</title>
<path fill="none" stroke="#001399" d="M2736.45,-594.35C2749.67,-583.07 2761.5,-570.05 2770,-555.23 2803.87,-496.16 2809.69,-420 2806.89,-357.95"/>
<polygon fill="#001399" stroke="#001399" points="2810.35,-358.12 2806.32,-348.33 2803.36,-358.5 2810.35,-358.12"/>
<text text-anchor="middle" x="2907.38" y="-541.93" font-family="Times,serif" font-size="14.00" fill="#001399">Нечем заплатить мне?</text>
<text text-anchor="middle" x="2907.38" y="-524.68" font-family="Times,serif" font-size="14.00" fill="#001399">Знаешь, дамочка, я мог</text>
<text text-anchor="middle" x="2907.38" y="-507.43" font-family="Times,serif" font-size="14.00" fill="#001399">умереть в этих лесах. Они</text>
<text text-anchor="middle" x="2907.38" y="-490.18" font-family="Times,serif" font-size="14.00" fill="#001399">заполнены всеми видами</text>
<text text-anchor="middle" x="2907.38" y="-472.93" font-family="Times,serif" font-size="14.00" fill="#001399">смертоносных существ. Я</text>
<text text-anchor="middle" x="2907.38" y="-455.68" font-family="Times,serif" font-size="14.00" fill="#001399">рисковал своей шеей из&#45;за</text>
<text text-anchor="middle" x="2907.38" y="-438.43" font-family="Times,serif" font-size="14.00" fill="#001399">этих долбаных дров. Не</text>
<text text-anchor="middle" x="2907.38" y="-421.18" font-family="Times,serif" font-size="14.00" fill="#001399">говоря уже о том, что</text>
<text text-anchor="middle" x="2907.38" y="-403.93" font-family="Times,serif" font-size="14.00" fill="#001399">одно из поленьев посадило</text>
<text text-anchor="middle" x="2907.38" y="-386.68" font-family="Times,serif" font-size="14.00" fill="#001399">мне занозу. Я *ненавижу*</text>
<text text-anchor="middle" x="2907.38" y="-369.43" font-family="Times,serif" font-size="14.00" fill="#001399">занозы.</text>
</g>
<!-- Node003&#45;&gt;Node999 -->
<g id="edge15" class="edge">
<title>Node003&#45;&gt;Node999</title>
<path fill="none" stroke="#730099" d="M2204.31,-609.57C2184.64,-513.95 2151.26,-275.95 2269.25,-141 2330.14,-71.36 2621.72,-34.08 2726.44,-22.77"/>
<polygon fill="#730099" stroke="#730099" points="2726.55,-26.17 2736.13,-21.63 2725.81,-19.21 2726.55,-26.17"/>
<text text-anchor="middle" x="2303.38" y="-239.56" font-family="Times,serif" font-size="14.00" fill="#730099">[КОНЕЦ]</text>
</g>
<!-- Node005&#45;&gt;Node999 -->
<g id="edge19" class="edge">
<title>Node005&#45;&gt;Node999</title>
<path fill="none" stroke="#3f9900" d="M2701.08,-161.92C2692.04,-149.8 2684.2,-136.73 2678.75,-123 2667.44,-94.5 2661.67,-79.47 2678.75,-54 2689.52,-37.93 2709.13,-29.24 2726.83,-24.53"/>
<polygon fill="#3f9900" stroke="#3f9900" points="2727.54,-27.73 2736.51,-22.09 2725.98,-20.91 2727.54,-27.73"/>
<text text-anchor="middle" x="2753.62" y="-83.83" font-family="Times,serif" font-size="14.00" fill="#3f9900">Так&#45;то лучше. Пока.</text>
</g>
<!-- Node005&#45;&gt;Node999 -->
<g id="edge20" class="edge">
<title>Node005&#45;&gt;Node999</title>
<path fill="none" stroke="#99006c" d="M2836.03,-145.27C2843.42,-114.43 2844.2,-81.33 2828,-54 2821.46,-42.96 2810.07,-35.18 2798.69,-29.8"/>
<polygon fill="#99006c" stroke="#99006c" points="2800.4,-26.31 2789.82,-25.68 2797.7,-32.76 2800.4,-26.31"/>
<text text-anchor="middle" x="2942.12" y="-109.7" font-family="Times,serif" font-size="14.00" fill="#99006c">Нет пользы? Тогда почему</text>
<text text-anchor="middle" x="2942.12" y="-92.45" font-family="Times,serif" font-size="14.00" fill="#99006c">ты не отдала мне их</text>
<text text-anchor="middle" x="2942.12" y="-75.2" font-family="Times,serif" font-size="14.00" fill="#99006c">сразу? [Бормочешь.] Тупая</text>
<text text-anchor="middle" x="2942.12" y="-57.95" font-family="Times,serif" font-size="14.00" fill="#99006c">сука.</text>
</g>
<!-- timed_event_p_proc -->
<g id="node27" class="node">
<title>timed_event_p_proc</title>
<ellipse fill="#ffffff" stroke="#000000" cx="2694" cy="-1523.55" rx="27" ry="18"/>
</g>
<!-- pickup_p_proc -->
<g id="node28" class="node">
<title>pickup_p_proc</title>
<ellipse fill="#ffffff" stroke="#000000" cx="2766" cy="-1523.55" rx="27" ry="18"/>
</g>
</g>
</svg>
