<?xml version="1.0" encoding="UTF-8" standalone="no"?>
<!DOCTYPE svg PUBLIC "-//W3C//DTD SVG 1.1//EN"
 "http://www.w3.org/Graphics/SVG/1.1/DTD/svg11.dtd">
<!-- Generated by graphviz version 8.0.5 (0)
 -->
<!-- Title: tribesp2 Pages: 1 -->
<svg width="551pt" height="589pt"
 viewBox="0.00 0.00 550.63 588.85" xmlns="http://www.w3.org/2000/svg" xmlns:xlink="http://www.w3.org/1999/xlink">
<g id="graph0" class="graph" transform="scale(1 1) rotate(0) translate(4 584.85)">
<title>tribesp2</title>
<polygon fill="white" stroke="none" points="-4,4 -4,-584.85 546.63,-584.85 546.63,4 -4,4"/>
<!-- start -->
<g id="node1" class="node">
<title>start</title>
<ellipse fill="#ffffff" stroke="#000000" cx="89.93" cy="-526.4" rx="27" ry="18"/>
</g>
<!-- spatial_p_proc -->
<g id="node2" class="node">
<title>spatial_p_proc</title>
<ellipse fill="#ffffff" stroke="#000000" cx="161.93" cy="-526.4" rx="27" ry="18"/>
</g>
<!-- Node004 -->
<g id="node3" class="node">
<title>Node004</title>
<ellipse fill="#ffffff" stroke="#000000" cx="161.93" cy="-270.73" rx="161.93" ry="164.23"/>
<text text-anchor="middle" x="161.93" y="-369.55" font-family="Times,serif" font-size="14.00">Как только ваши глаза</text>
<text text-anchor="middle" x="161.93" y="-352.3" font-family="Times,serif" font-size="14.00">привыкают к темноте</text>
<text text-anchor="middle" x="161.93" y="-335.05" font-family="Times,serif" font-size="14.00">пещеры, вы видите</text>
<text text-anchor="middle" x="161.93" y="-317.8" font-family="Times,serif" font-size="14.00">последствия обвала.</text>
<text text-anchor="middle" x="161.93" y="-300.55" font-family="Times,serif" font-size="14.00">Беззащитный воин лежит на</text>
<text text-anchor="middle" x="161.93" y="-283.3" font-family="Times,serif" font-size="14.00">земле, пытаясь освободить</text>
<text text-anchor="middle" x="161.93" y="-266.05" font-family="Times,serif" font-size="14.00">свою ногу из&#45;под большого</text>
<text text-anchor="middle" x="161.93" y="-248.8" font-family="Times,serif" font-size="14.00">камня, в то время как</text>
<text text-anchor="middle" x="161.93" y="-231.55" font-family="Times,serif" font-size="14.00">золотой гекко</text>
<text text-anchor="middle" x="161.93" y="-214.3" font-family="Times,serif" font-size="14.00">стремительно приближается</text>
<text text-anchor="middle" x="161.93" y="-197.05" font-family="Times,serif" font-size="14.00">к нему. Тело другого</text>
<text text-anchor="middle" x="161.93" y="-179.8" font-family="Times,serif" font-size="14.00">воина неподвижно лежит</text>
<text text-anchor="middle" x="161.93" y="-162.55" font-family="Times,serif" font-size="14.00">рядом.</text>
</g>
<!-- spatial_p_proc&#45;&gt;Node004 -->
<g id="edge1" class="edge">
<title>spatial_p_proc&#45;&gt;Node004</title>
<path fill="none" stroke="#555555" stroke-dasharray="1,5" d="M158.33,-508.36C157.01,-493.86 156.11,-471.38 155.61,-445.92"/>
<polygon fill="#555555" stroke="#555555" points="159.1,-446.18 155.43,-436.24 152.1,-446.3 159.1,-446.18"/>
</g>
<!-- spatial_p_proc&#45;&gt;Node004 -->
<g id="edge2" class="edge">
<title>spatial_p_proc&#45;&gt;Node004</title>
<path fill="none" stroke="#555555" stroke-dasharray="1,5" d="M165.52,-508.36C166.84,-493.86 167.75,-471.38 168.24,-445.92"/>
<polygon fill="#555555" stroke="#555555" points="171.75,-446.3 168.42,-436.24 164.75,-446.18 171.75,-446.3"/>
</g>
<!-- Node006 -->
<g id="node5" class="node">
<title>Node006</title>
<ellipse fill="#ffffff" stroke="#000000" cx="55.93" cy="-18" rx="27" ry="18"/>
</g>
<!-- Node004&#45;&gt;Node006 -->
<g id="edge3" class="edge">
<title>Node004&#45;&gt;Node006</title>
<path fill="none" stroke="#00997f" d="M73.51,-132.88C66.96,-118.32 61.31,-103.38 57.18,-88.5 53.49,-75.24 52.84,-59.99 53.26,-47.17"/>
<polygon fill="#00997f" stroke="#00997f" points="56.81,-47.38 53.88,-37.2 49.82,-46.98 56.81,-47.38"/>
<text text-anchor="middle" x="152.8" y="-75.2" font-family="Times,serif" font-size="14.00" fill="#00997f">Броситься в бой и</text>
<text text-anchor="middle" x="152.8" y="-57.95" font-family="Times,serif" font-size="14.00" fill="#00997f">попытаться спасти воина.</text>
</g>
<!-- Node005 -->
<g id="node6" class="node">
<title>Node005</title>
<ellipse fill="#ffffff" stroke="#000000" cx="268.93" cy="-18" rx="27" ry="18"/>
</g>
<!-- Node004&#45;&gt;Node005 -->
<g id="edge4" class="edge">
<title>Node004&#45;&gt;Node005</title>
<path fill="none" stroke="#995200" d="M232.91,-122.57C237.83,-111.12 242.56,-99.67 246.93,-88.5 252.24,-74.92 257.22,-59.48 261.1,-46.61"/>
<polygon fill="#995200" stroke="#995200" points="264.74,-47.65 264.21,-37.07 258.02,-45.67 264.74,-47.65"/>
<text text-anchor="middle" x="342.3" y="-75.2" font-family="Times,serif" font-size="14.00" fill="#995200">Стоять и смотреть, что</text>
<text text-anchor="middle" x="342.3" y="-57.95" font-family="Times,serif" font-size="14.00" fill="#995200">произойдет.</text>
</g>
<!-- map_update_p_proc -->
<g id="node4" class="node">
<title>map_update_p_proc</title>
<ellipse fill="#ffffff" stroke="#000000" cx="233.93" cy="-526.4" rx="27" ry="18"/>
</g>
<!-- timed_event_p_proc -->
<g id="node7" class="node">
<title>timed_event_p_proc</title>
<ellipse fill="#ffffff" stroke="#000000" cx="410.93" cy="-526.4" rx="131.7" ry="54.45"/>
<text text-anchor="middle" x="410.93" y="-547.6" font-family="Times,serif" font-size="14.00">Если я умру, то я умру</text>
<text text-anchor="middle" x="410.93" y="-530.35" font-family="Times,serif" font-size="14.00">как истинный воин.</text>
<text text-anchor="middle" x="410.93" y="-513.1" font-family="Times,serif" font-size="14.00">&#45;&#45;&#45;</text>
<text text-anchor="middle" x="410.93" y="-495.85" font-family="Times,serif" font-size="14.00">Ааай!</text>
</g>
</g>
</svg>
