<?xml version="1.0" encoding="UTF-8" standalone="no"?>
<!DOCTYPE svg PUBLIC "-//W3C//DTD SVG 1.1//EN"
 "http://www.w3.org/Graphics/SVG/1.1/DTD/svg11.dtd">
<!-- Generated by graphviz version 8.0.5 (0)
 -->
<!-- Title: ziGenGrv Pages: 1 -->
<svg width="2023pt" height="895pt"
 viewBox="0.00 0.00 2023.00 894.88" xmlns="http://www.w3.org/2000/svg" xmlns:xlink="http://www.w3.org/1999/xlink">
<g id="graph0" class="graph" transform="scale(1 1) rotate(0) translate(4 890.88)">
<title>ziGenGrv</title>
<polygon fill="white" stroke="none" points="-4,4 -4,-890.88 2019,-890.88 2019,4 -4,4"/>
<!-- start -->
<g id="node1" class="node">
<title>start</title>
<ellipse fill="#ffffff" stroke="#000000" cx="27" cy="-771.44" rx="27" ry="18"/>
</g>
<!-- look_at_p_proc -->
<g id="node2" class="node">
<title>look_at_p_proc</title>
<ellipse fill="#ffffff" stroke="#000000" cx="198" cy="-771.44" rx="126.4" ry="54.45"/>
<text text-anchor="middle" x="198" y="-792.64" font-family="Times,serif" font-size="14.00">Вы видите могилу.</text>
<text text-anchor="middle" x="198" y="-775.39" font-family="Times,serif" font-size="14.00">&#45;&#45;&#45;</text>
<text text-anchor="middle" x="198" y="-758.14" font-family="Times,serif" font-size="14.00">Вы видите могильный</text>
<text text-anchor="middle" x="198" y="-740.89" font-family="Times,serif" font-size="14.00">камень.</text>
</g>
<!-- description_p_proc -->
<g id="node3" class="node">
<title>description_p_proc</title>
<ellipse fill="#ffffff" stroke="#000000" cx="477" cy="-771.44" rx="134.35" ry="115.44"/>
<text text-anchor="middle" x="477" y="-835.77" font-family="Times,serif" font-size="14.00">Вы находите ловушку в</text>
<text text-anchor="middle" x="477" y="-818.52" font-family="Times,serif" font-size="14.00">могиле.</text>
<text text-anchor="middle" x="477" y="-801.27" font-family="Times,serif" font-size="14.00">&#45;&#45;&#45;</text>
<text text-anchor="middle" x="477" y="-784.02" font-family="Times,serif" font-size="14.00">находит ловушку в</text>
<text text-anchor="middle" x="477" y="-766.77" font-family="Times,serif" font-size="14.00">могиле.</text>
<text text-anchor="middle" x="477" y="-749.52" font-family="Times,serif" font-size="14.00">&#45;&#45;&#45;</text>
<text text-anchor="middle" x="477" y="-732.27" font-family="Times,serif" font-size="14.00">Это могила.</text>
<text text-anchor="middle" x="477" y="-715.02" font-family="Times,serif" font-size="14.00">&#45;&#45;&#45;</text>
<text text-anchor="middle" x="477" y="-697.77" font-family="Times,serif" font-size="14.00">На камне написано: </text>
</g>
<!-- map_enter_p_proc -->
<g id="node4" class="node">
<title>map_enter_p_proc</title>
<ellipse fill="#ffffff" stroke="#000000" cx="656" cy="-771.44" rx="27" ry="18"/>
</g>
<!-- give_headstone_name -->
<g id="node5" class="node">
<title>give_headstone_name</title>
<ellipse fill="#ffffff" stroke="#000000" cx="656" cy="-346" rx="27" ry="18"/>
</g>
<!-- map_enter_p_proc&#45;&gt;give_headstone_name -->
<g id="edge1" class="edge">
<title>map_enter_p_proc&#45;&gt;give_headstone_name</title>
<path fill="none" stroke="#555555" stroke-dasharray="1,5" d="M656,-753.05C656,-687.64 656,-455.97 656,-375.1"/>
<polygon fill="#555555" stroke="#555555" points="659.5,-375.3 656,-365.3 652.5,-375.3 659.5,-375.3"/>
</g>
<!-- use_p_proc -->
<g id="node6" class="node">
<title>use_p_proc</title>
<ellipse fill="#ffffff" stroke="#000000" cx="835" cy="-346" rx="134.35" ry="66.64"/>
<text text-anchor="middle" x="835" y="-375.83" font-family="Times,serif" font-size="14.00">Вы находите ловушку в</text>
<text text-anchor="middle" x="835" y="-358.58" font-family="Times,serif" font-size="14.00">могиле.</text>
<text text-anchor="middle" x="835" y="-341.33" font-family="Times,serif" font-size="14.00">&#45;&#45;&#45;</text>
<text text-anchor="middle" x="835" y="-324.08" font-family="Times,serif" font-size="14.00">находит ловушку в</text>
<text text-anchor="middle" x="835" y="-306.83" font-family="Times,serif" font-size="14.00">могиле.</text>
</g>
<!-- Explode_Grave -->
<g id="node7" class="node">
<title>Explode_Grave</title>
<ellipse fill="#ffffff" stroke="#000000" cx="1284" cy="-18" rx="27" ry="18"/>
</g>
<!-- use_p_proc&#45;&gt;Explode_Grave -->
<g id="edge2" class="edge">
<title>use_p_proc&#45;&gt;Explode_Grave</title>
<path fill="none" stroke="#555555" stroke-dasharray="1,5" d="M851.4,-279.6C870.87,-216.17 909.77,-122.35 979,-72 1021.09,-41.4 1174.01,-26.77 1246.02,-21.45"/>
<polygon fill="#555555" stroke="#555555" points="1246.12,-24.88 1255.85,-20.68 1245.62,-17.9 1246.12,-24.88"/>
</g>
<!-- pickup_p_proc -->
<g id="node8" class="node">
<title>pickup_p_proc</title>
<ellipse fill="#ffffff" stroke="#000000" cx="1122" cy="-346" rx="134.35" ry="66.64"/>
<text text-anchor="middle" x="1122" y="-375.83" font-family="Times,serif" font-size="14.00">Вы находите ловушку в</text>
<text text-anchor="middle" x="1122" y="-358.58" font-family="Times,serif" font-size="14.00">могиле.</text>
<text text-anchor="middle" x="1122" y="-341.33" font-family="Times,serif" font-size="14.00">&#45;&#45;&#45;</text>
<text text-anchor="middle" x="1122" y="-324.08" font-family="Times,serif" font-size="14.00">находит ловушку в</text>
<text text-anchor="middle" x="1122" y="-306.83" font-family="Times,serif" font-size="14.00">могиле.</text>
</g>
<!-- pickup_p_proc&#45;&gt;Explode_Grave -->
<g id="edge3" class="edge">
<title>pickup_p_proc&#45;&gt;Explode_Grave</title>
<path fill="none" stroke="#555555" stroke-dasharray="1,5" d="M1153.81,-280.98C1189.59,-208.99 1245.97,-95.54 1271.13,-44.9"/>
<polygon fill="#555555" stroke="#555555" points="1274.55,-46.87 1275.87,-36.36 1268.29,-43.76 1274.55,-46.87"/>
</g>
<!-- use_obj_on_p_proc -->
<g id="node9" class="node">
<title>use_obj_on_p_proc</title>
<ellipse fill="#ffffff" stroke="#000000" cx="1376" cy="-771.44" rx="140.18" ry="91.04"/>
<text text-anchor="middle" x="1376" y="-818.52" font-family="Times,serif" font-size="14.00">Вы находите ловушку в</text>
<text text-anchor="middle" x="1376" y="-801.27" font-family="Times,serif" font-size="14.00">могиле.</text>
<text text-anchor="middle" x="1376" y="-784.02" font-family="Times,serif" font-size="14.00">&#45;&#45;&#45;</text>
<text text-anchor="middle" x="1376" y="-766.77" font-family="Times,serif" font-size="14.00">находит ловушку в</text>
<text text-anchor="middle" x="1376" y="-749.52" font-family="Times,serif" font-size="14.00">могиле.</text>
<text text-anchor="middle" x="1376" y="-732.27" font-family="Times,serif" font-size="14.00">&#45;&#45;&#45;</text>
<text text-anchor="middle" x="1376" y="-715.02" font-family="Times,serif" font-size="14.00">Вы закапываете могилу.</text>
</g>
<!-- use_obj_on_p_proc&#45;&gt;Explode_Grave -->
<g id="edge4" class="edge">
<title>use_obj_on_p_proc&#45;&gt;Explode_Grave</title>
<path fill="none" stroke="#555555" stroke-dasharray="1,5" d="M1327.25,-685.68C1317.43,-664.84 1308.45,-642.13 1303,-620.01 1249.97,-404.88 1271.81,-133.35 1280.83,-46.82"/>
<polygon fill="#555555" stroke="#555555" points="1284.39,-47.4 1281.98,-37.08 1277.43,-46.65 1284.39,-47.4"/>
</g>
<!-- Set_Trap -->
<g id="node10" class="node">
<title>Set_Trap</title>
<ellipse fill="#ffffff" stroke="#000000" cx="1468" cy="-346" rx="156.09" ry="213.02"/>
<text text-anchor="middle" x="1468" y="-479.33" font-family="Times,serif" font-size="14.00">Вы искусно устанавливаете</text>
<text text-anchor="middle" x="1468" y="-462.08" font-family="Times,serif" font-size="14.00">ловушку в могиле.</text>
<text text-anchor="middle" x="1468" y="-444.83" font-family="Times,serif" font-size="14.00">&#45;&#45;&#45;</text>
<text text-anchor="middle" x="1468" y="-427.58" font-family="Times,serif" font-size="14.00">искусно устанавливает</text>
<text text-anchor="middle" x="1468" y="-410.33" font-family="Times,serif" font-size="14.00">ловушку в могиле.</text>
<text text-anchor="middle" x="1468" y="-393.08" font-family="Times,serif" font-size="14.00">&#45;&#45;&#45;</text>
<text text-anchor="middle" x="1468" y="-375.83" font-family="Times,serif" font-size="14.00">Вам не удается установить</text>
<text text-anchor="middle" x="1468" y="-358.58" font-family="Times,serif" font-size="14.00">ловушку в могиле.</text>
<text text-anchor="middle" x="1468" y="-341.33" font-family="Times,serif" font-size="14.00">&#45;&#45;&#45;</text>
<text text-anchor="middle" x="1468" y="-324.08" font-family="Times,serif" font-size="14.00">не может установить</text>
<text text-anchor="middle" x="1468" y="-306.83" font-family="Times,serif" font-size="14.00">ловушку в могиле.</text>
<text text-anchor="middle" x="1468" y="-289.58" font-family="Times,serif" font-size="14.00">&#45;&#45;&#45;</text>
<text text-anchor="middle" x="1468" y="-272.33" font-family="Times,serif" font-size="14.00">Вам не удается установить</text>
<text text-anchor="middle" x="1468" y="-255.08" font-family="Times,serif" font-size="14.00">ловушку в могиле.</text>
<text text-anchor="middle" x="1468" y="-237.83" font-family="Times,serif" font-size="14.00">&#45;&#45;&#45;</text>
<text text-anchor="middle" x="1468" y="-220.58" font-family="Times,serif" font-size="14.00">не может установить</text>
<text text-anchor="middle" x="1468" y="-203.33" font-family="Times,serif" font-size="14.00">ловушку в могиле.</text>
</g>
<!-- use_obj_on_p_proc&#45;&gt;Set_Trap -->
<g id="edge5" class="edge">
<title>use_obj_on_p_proc&#45;&gt;Set_Trap</title>
<path fill="none" stroke="#555555" stroke-dasharray="1,5" d="M1395.45,-680.9C1403.11,-645.66 1412.26,-603.56 1421.44,-561.31"/>
<polygon fill="#555555" stroke="#555555" points="1425.07,-562.09 1423.77,-551.58 1418.23,-560.6 1425.07,-562.09"/>
</g>
<!-- Set_Trap&#45;&gt;Explode_Grave -->
<g id="edge7" class="edge">
<title>Set_Trap&#45;&gt;Explode_Grave</title>
<path fill="none" stroke="#555555" stroke-dasharray="1,5" d="M1373.04,-176.75C1343.95,-125.22 1315.26,-74.39 1298.61,-44.89"/>
<polygon fill="#555555" stroke="#555555" points="1301.21,-43.37 1293.24,-36.38 1295.11,-46.81 1301.21,-43.37"/>
</g>
<!-- use_skill_on_p_proc -->
<g id="node11" class="node">
<title>use_skill_on_p_proc</title>
<ellipse fill="#ffffff" stroke="#000000" cx="1801" cy="-771.44" rx="142.31" ry="66.64"/>
<text text-anchor="middle" x="1801" y="-801.27" font-family="Times,serif" font-size="14.00">Вы не находите в могиле</text>
<text text-anchor="middle" x="1801" y="-784.02" font-family="Times,serif" font-size="14.00">никаких ловушек.</text>
<text text-anchor="middle" x="1801" y="-766.77" font-family="Times,serif" font-size="14.00">&#45;&#45;&#45;</text>
<text text-anchor="middle" x="1801" y="-749.52" font-family="Times,serif" font-size="14.00">не находит в могиле</text>
<text text-anchor="middle" x="1801" y="-732.27" font-family="Times,serif" font-size="14.00">никаких ловушек.</text>
</g>
<!-- Disarm_Traps -->
<g id="node12" class="node">
<title>Disarm_Traps</title>
<ellipse fill="#ffffff" stroke="#000000" cx="1801" cy="-346" rx="159.28" ry="274"/>
<text text-anchor="middle" x="1801" y="-522.45" font-family="Times,serif" font-size="14.00">Вы искусно обезвреживаете</text>
<text text-anchor="middle" x="1801" y="-505.2" font-family="Times,serif" font-size="14.00">ловушку.</text>
<text text-anchor="middle" x="1801" y="-487.95" font-family="Times,serif" font-size="14.00">&#45;&#45;&#45;</text>
<text text-anchor="middle" x="1801" y="-470.7" font-family="Times,serif" font-size="14.00">искусно обезвреживает</text>
<text text-anchor="middle" x="1801" y="-453.45" font-family="Times,serif" font-size="14.00">ловушку.</text>
<text text-anchor="middle" x="1801" y="-436.2" font-family="Times,serif" font-size="14.00">&#45;&#45;&#45;</text>
<text text-anchor="middle" x="1801" y="-418.95" font-family="Times,serif" font-size="14.00">Вы видите могилу.</text>
<text text-anchor="middle" x="1801" y="-401.7" font-family="Times,serif" font-size="14.00">&#45;&#45;&#45;</text>
<text text-anchor="middle" x="1801" y="-384.45" font-family="Times,serif" font-size="14.00">Вы видите разрытую</text>
<text text-anchor="middle" x="1801" y="-367.2" font-family="Times,serif" font-size="14.00">могилу.</text>
<text text-anchor="middle" x="1801" y="-349.95" font-family="Times,serif" font-size="14.00">&#45;&#45;&#45;</text>
<text text-anchor="middle" x="1801" y="-332.7" font-family="Times,serif" font-size="14.00">Вы не находите в могиле</text>
<text text-anchor="middle" x="1801" y="-315.45" font-family="Times,serif" font-size="14.00">никаких ловушек.</text>
<text text-anchor="middle" x="1801" y="-298.2" font-family="Times,serif" font-size="14.00">&#45;&#45;&#45;</text>
<text text-anchor="middle" x="1801" y="-280.95" font-family="Times,serif" font-size="14.00">не находит в могиле</text>
<text text-anchor="middle" x="1801" y="-263.7" font-family="Times,serif" font-size="14.00">никаких ловушек.</text>
<text text-anchor="middle" x="1801" y="-246.45" font-family="Times,serif" font-size="14.00">&#45;&#45;&#45;</text>
<text text-anchor="middle" x="1801" y="-229.2" font-family="Times,serif" font-size="14.00">Вам не удалось</text>
<text text-anchor="middle" x="1801" y="-211.95" font-family="Times,serif" font-size="14.00">обезвредить ловушку.</text>
<text text-anchor="middle" x="1801" y="-194.7" font-family="Times,serif" font-size="14.00">&#45;&#45;&#45;</text>
<text text-anchor="middle" x="1801" y="-177.45" font-family="Times,serif" font-size="14.00">не может обезвредить</text>
<text text-anchor="middle" x="1801" y="-160.2" font-family="Times,serif" font-size="14.00">ловушку.</text>
</g>
<!-- use_skill_on_p_proc&#45;&gt;Disarm_Traps -->
<g id="edge6" class="edge">
<title>use_skill_on_p_proc&#45;&gt;Disarm_Traps</title>
<path fill="none" stroke="#555555" stroke-dasharray="1,5" d="M1801,-704.75C1801,-683.42 1801,-658.24 1801,-631.27"/>
<polygon fill="#555555" stroke="#555555" points="1804.5,-631.44 1801,-621.44 1797.5,-631.44 1804.5,-631.44"/>
</g>
<!-- Disarm_Traps&#45;&gt;Explode_Grave -->
<g id="edge8" class="edge">
<title>Disarm_Traps&#45;&gt;Explode_Grave</title>
<path fill="none" stroke="#555555" stroke-dasharray="1,5" d="M1699.34,-134.64C1680.22,-110.53 1658.17,-88.67 1633,-72 1582.47,-38.54 1401.72,-25.15 1322.11,-20.79"/>
<polygon fill="#555555" stroke="#555555" points="1322.3,-17.24 1312.12,-20.21 1321.93,-24.23 1322.3,-17.24"/>
</g>
<!-- num_to_bit -->
<g id="node13" class="node">
<title>num_to_bit</title>
<ellipse fill="#ffffff" stroke="#000000" cx="1988" cy="-771.44" rx="27" ry="18"/>
</g>
</g>
</svg>
