<?xml version="1.0" encoding="UTF-8" standalone="no"?>
<!DOCTYPE svg PUBLIC "-//W3C//DTD SVG 1.1//EN"
 "http://www.w3.org/Graphics/SVG/1.1/DTD/svg11.dtd">
<!-- Generated by graphviz version 8.0.5 (0)
 -->
<!-- Title: CCTURRET Pages: 1 -->
<svg width="1292pt" height="189pt"
 viewBox="0.00 0.00 1292.00 188.89" xmlns="http://www.w3.org/2000/svg" xmlns:xlink="http://www.w3.org/1999/xlink">
<g id="graph0" class="graph" transform="scale(1 1) rotate(0) translate(4 184.89)">
<title>CCTURRET</title>
<polygon fill="white" stroke="none" points="-4,4 -4,-184.89 1288,-184.89 1288,4 -4,4"/>
<!-- checkPartyMembersNearDoor -->
<g id="node1" class="node">
<title>checkPartyMembersNearDoor</title>
<ellipse fill="#ffffff" stroke="#000000" cx="27" cy="-126.45" rx="27" ry="18"/>
</g>
<!-- start -->
<g id="node2" class="node">
<title>start</title>
<ellipse fill="#ffffff" stroke="#000000" cx="99" cy="-126.45" rx="27" ry="18"/>
</g>
<!-- critter_p_proc -->
<g id="node3" class="node">
<title>critter_p_proc</title>
<ellipse fill="#ffffff" stroke="#000000" cx="171" cy="-126.45" rx="27" ry="18"/>
</g>
<!-- pickup_p_proc -->
<g id="node4" class="node">
<title>pickup_p_proc</title>
<ellipse fill="#ffffff" stroke="#000000" cx="243" cy="-126.45" rx="27" ry="18"/>
</g>
<!-- talk_p_proc -->
<g id="node5" class="node">
<title>talk_p_proc</title>
<ellipse fill="#ffffff" stroke="#000000" cx="315" cy="-126.45" rx="27" ry="18"/>
</g>
<!-- destroy_p_proc -->
<g id="node6" class="node">
<title>destroy_p_proc</title>
<ellipse fill="#ffffff" stroke="#000000" cx="387" cy="-126.45" rx="27" ry="18"/>
</g>
<!-- look_at_p_proc -->
<g id="node7" class="node">
<title>look_at_p_proc</title>
<ellipse fill="#ffffff" stroke="#000000" cx="558" cy="-126.45" rx="126.4" ry="42.25"/>
<text text-anchor="middle" x="558" y="-139.02" font-family="Times,serif" font-size="14.00">A Plasma Turret.</text>
<text text-anchor="middle" x="558" y="-121.77" font-family="Times,serif" font-size="14.00">&#45;&#45;&#45;</text>
<text text-anchor="middle" x="558" y="-104.52" font-family="Times,serif" font-size="14.00">A Mk II Plasma Turret.</text>
</g>
<!-- description_p_proc -->
<g id="node8" class="node">
<title>description_p_proc</title>
<ellipse fill="#ffffff" stroke="#000000" cx="849" cy="-126.45" rx="147.08" ry="54.45"/>
<text text-anchor="middle" x="849" y="-147.65" font-family="Times,serif" font-size="14.00">A sign on the turret</text>
<text text-anchor="middle" x="849" y="-130.4" font-family="Times,serif" font-size="14.00">warns that tampering with</text>
<text text-anchor="middle" x="849" y="-113.15" font-family="Times,serif" font-size="14.00">it will most likely</text>
<text text-anchor="middle" x="849" y="-95.9" font-family="Times,serif" font-size="14.00">result in death.</text>
</g>
<!-- use_skill_on_p_proc -->
<g id="node9" class="node">
<title>use_skill_on_p_proc</title>
<ellipse fill="#ffffff" stroke="#000000" cx="1041" cy="-126.45" rx="27" ry="18"/>
</g>
<!-- Node998 -->
<g id="node10" class="node">
<title>Node998</title>
<ellipse fill="#ffffff" stroke="#000000" cx="1077" cy="-18" rx="27" ry="18"/>
</g>
<!-- use_skill_on_p_proc&#45;&gt;Node998 -->
<g id="edge1" class="edge">
<title>use_skill_on_p_proc&#45;&gt;Node998</title>
<path fill="none" stroke="#555555" stroke-dasharray="1,5" d="M1046.62,-108.81C1052.3,-92.04 1061.15,-65.87 1067.84,-46.09"/>
<polygon fill="#555555" stroke="#555555" points="1071.41,-47.46 1071.3,-36.87 1064.78,-45.22 1071.41,-47.46"/>
</g>
<!-- damage_p_proc -->
<g id="node11" class="node">
<title>damage_p_proc</title>
<ellipse fill="#ffffff" stroke="#000000" cx="1113" cy="-126.45" rx="27" ry="18"/>
</g>
<!-- damage_p_proc&#45;&gt;Node998 -->
<g id="edge2" class="edge">
<title>damage_p_proc&#45;&gt;Node998</title>
<path fill="none" stroke="#555555" stroke-dasharray="1,5" d="M1107.38,-108.81C1101.7,-92.04 1092.85,-65.87 1086.16,-46.09"/>
<polygon fill="#555555" stroke="#555555" points="1089.22,-45.22 1082.7,-36.87 1082.59,-47.46 1089.22,-45.22"/>
</g>
<!-- map_enter_p_proc -->
<g id="node12" class="node">
<title>map_enter_p_proc</title>
<ellipse fill="#ffffff" stroke="#000000" cx="1185" cy="-126.45" rx="27" ry="18"/>
</g>
<!-- Node999 -->
<g id="node13" class="node">
<title>Node999</title>
<ellipse fill="#ffffff" stroke="#000000" cx="1257" cy="-126.45" rx="27" ry="18"/>
</g>
</g>
</svg>
