<?xml version="1.0" encoding="UTF-8" standalone="no"?>
<!DOCTYPE svg PUBLIC "-//W3C//DTD SVG 1.1//EN"
 "http://www.w3.org/Graphics/SVG/1.1/DTD/svg11.dtd">
<!-- Generated by graphviz version 8.0.5 (0)
 -->
<!-- Title: dcChcGrd Pages: 1 -->
<svg width="2210pt" height="1337pt"
 viewBox="0.00 0.00 2209.50 1337.05" xmlns="http://www.w3.org/2000/svg" xmlns:xlink="http://www.w3.org/1999/xlink">
<g id="graph0" class="graph" transform="scale(1 1) rotate(0) translate(4 1333.05)">
<title>dcChcGrd</title>
<polygon fill="white" stroke="none" points="-4,4 -4,-1333.05 2205.5,-1333.05 2205.5,4 -4,4"/>
<!-- checkPartyMembersNearDoor -->
<g id="node1" class="node">
<title>checkPartyMembersNearDoor</title>
<ellipse fill="#ffffff" stroke="#000000" cx="552" cy="-1164.83" rx="27" ry="18"/>
</g>
<!-- start -->
<g id="node2" class="node">
<title>start</title>
<ellipse fill="#ffffff" stroke="#000000" cx="624" cy="-1164.83" rx="27" ry="18"/>
</g>
<!-- critter_p_proc -->
<g id="node3" class="node">
<title>critter_p_proc</title>
<ellipse fill="#ffffff" stroke="#000000" cx="239" cy="-160.95" rx="128.52" ry="54.45"/>
<text text-anchor="middle" x="239" y="-182.15" font-family="Times,serif" font-size="14.00">I&#39;ve had enough of you.</text>
<text text-anchor="middle" x="239" y="-164.9" font-family="Times,serif" font-size="14.00">&#45;&#45;&#45;</text>
<text text-anchor="middle" x="239" y="-147.65" font-family="Times,serif" font-size="14.00">Only one of you are</text>
<text text-anchor="middle" x="239" y="-130.4" font-family="Times,serif" font-size="14.00">allowed in at a time.</text>
</g>
<!-- Node998 -->
<g id="node4" class="node">
<title>Node998</title>
<ellipse fill="#ffffff" stroke="#000000" cx="588" cy="-18" rx="27" ry="18"/>
</g>
<!-- critter_p_proc&#45;&gt;Node998 -->
<g id="edge1" class="edge">
<title>critter_p_proc&#45;&gt;Node998</title>
<path fill="none" stroke="#555555" stroke-dasharray="1,5" d="M331.15,-122.73C405.06,-92.88 504.54,-52.71 555.27,-32.22"/>
<polygon fill="#555555" stroke="#555555" points="556.37,-35.14 564.33,-28.15 553.75,-28.65 556.37,-35.14"/>
</g>
<!-- pickup_p_proc -->
<g id="node5" class="node">
<title>pickup_p_proc</title>
<ellipse fill="#ffffff" stroke="#000000" cx="27" cy="-160.95" rx="27" ry="18"/>
</g>
<!-- pickup_p_proc&#45;&gt;Node998 -->
<g id="edge2" class="edge">
<title>pickup_p_proc&#45;&gt;Node998</title>
<path fill="none" stroke="#555555" stroke-dasharray="1,5" d="M28.18,-142.64C30.85,-118.39 39.56,-74.92 68,-54 106.53,-25.65 436.29,-20.25 549.8,-19.23"/>
<polygon fill="#555555" stroke="#555555" points="549.74,-22.73 559.71,-19.14 549.68,-15.73 549.74,-22.73"/>
</g>
<!-- talk_p_proc -->
<g id="node6" class="node">
<title>talk_p_proc</title>
<ellipse fill="#ffffff" stroke="#000000" cx="793" cy="-1164.83" rx="123.74" ry="164.23"/>
<text text-anchor="middle" x="793" y="-1263.65" font-family="Times,serif" font-size="14.00">Sorry; I can let you in,</text>
<text text-anchor="middle" x="793" y="-1246.4" font-family="Times,serif" font-size="14.00">but your friends are</text>
<text text-anchor="middle" x="793" y="-1229.15" font-family="Times,serif" font-size="14.00">gonna have to wait</text>
<text text-anchor="middle" x="793" y="-1211.9" font-family="Times,serif" font-size="14.00">outside.</text>
<text text-anchor="middle" x="793" y="-1194.65" font-family="Times,serif" font-size="14.00">&#45;&#45;&#45;</text>
<text text-anchor="middle" x="793" y="-1177.4" font-family="Times,serif" font-size="14.00">Just finish up your</text>
<text text-anchor="middle" x="793" y="-1160.15" font-family="Times,serif" font-size="14.00">business, thank you.</text>
<text text-anchor="middle" x="793" y="-1142.9" font-family="Times,serif" font-size="14.00">&#45;&#45;&#45;</text>
<text text-anchor="middle" x="793" y="-1125.65" font-family="Times,serif" font-size="14.00">Good evening.</text>
<text text-anchor="middle" x="793" y="-1108.4" font-family="Times,serif" font-size="14.00">&#45;&#45;&#45;</text>
<text text-anchor="middle" x="793" y="-1091.15" font-family="Times,serif" font-size="14.00">Good afternoon.</text>
<text text-anchor="middle" x="793" y="-1073.9" font-family="Times,serif" font-size="14.00">&#45;&#45;&#45;</text>
<text text-anchor="middle" x="793" y="-1056.65" font-family="Times,serif" font-size="14.00">Good morning.</text>
</g>
<!-- Node001 -->
<g id="node7" class="node">
<title>Node001</title>
<ellipse fill="#ffffff" stroke="#000000" cx="295" cy="-879.55" rx="136.47" ry="30.05"/>
<text text-anchor="middle" x="295" y="-883.5" font-family="Times,serif" font-size="14.00">How dare you show your</text>
<text text-anchor="middle" x="295" y="-866.25" font-family="Times,serif" font-size="14.00">face again!</text>
</g>
<!-- talk_p_proc&#45;&gt;Node001 -->
<g id="edge3" class="edge">
<title>talk_p_proc&#45;&gt;Node001</title>
<path fill="none" stroke="#555555" stroke-dasharray="1,5" d="M709.12,-1043.91C694.13,-1027.82 677.62,-1012.72 660,-1000.6 585.32,-949.25 487.11,-918.59 411.37,-901.12"/>
<polygon fill="#555555" stroke="#555555" points="412.36,-897.53 401.84,-898.74 410.82,-904.36 412.36,-897.53"/>
</g>
<!-- Node000 -->
<g id="node8" class="node">
<title>Node000</title>
<ellipse fill="#ffffff" stroke="#000000" cx="1023" cy="-945.6" rx="27" ry="18"/>
</g>
<!-- talk_p_proc&#45;&gt;Node000 -->
<g id="edge4" class="edge">
<title>talk_p_proc&#45;&gt;Node000</title>
<path fill="none" stroke="#555555" stroke-dasharray="1,5" d="M879.07,-1046.8C893.77,-1030.32 909.61,-1014.34 926,-1000.6 945.62,-984.15 971,-970.24 990.88,-960.65"/>
<polygon fill="#555555" stroke="#555555" points="992.14,-963.46 999.71,-956.04 989.17,-957.12 992.14,-963.46"/>
</g>
<!-- Node001&#45;&gt;Node998 -->
<g id="edge10" class="edge">
<title>Node001&#45;&gt;Node998</title>
<path fill="none" stroke="#555555" stroke-dasharray="1,5" d="M226.73,-853.15C164.42,-825.02 82,-773.15 82,-695.5 82,-695.5 82,-695.5 82,-159.95 82,-134.74 81.77,-122.81 101,-106.5 169.11,-48.72 447.92,-27.07 550.18,-20.98"/>
<polygon fill="#555555" stroke="#555555" points="550.13,-24.43 559.91,-20.36 549.72,-17.45 550.13,-24.43"/>
</g>
<!-- Node009 -->
<g id="node16" class="node">
<title>Node009</title>
<ellipse fill="#ffffff" stroke="#000000" cx="1809" cy="-694.5" rx="129.05" ry="30.05"/>
<text text-anchor="middle" x="1809" y="-698.45" font-family="Times,serif" font-size="14.00">Hello again. You can go</text>
<text text-anchor="middle" x="1809" y="-681.2" font-family="Times,serif" font-size="14.00">on in.</text>
</g>
<!-- Node000&#45;&gt;Node009 -->
<g id="edge6" class="edge">
<title>Node000&#45;&gt;Node009</title>
<path fill="none" stroke="#555555" stroke-dasharray="1,5" d="M1050.44,-944.52C1106.34,-943.72 1237.01,-938.61 1342,-909.6 1498.04,-866.49 1667.57,-776.88 1753.02,-728.38"/>
<polygon fill="#555555" stroke="#555555" points="1754.57,-730.96 1761.52,-722.96 1751.1,-724.88 1754.57,-730.96"/>
</g>
<!-- Node006 -->
<g id="node17" class="node">
<title>Node006</title>
<ellipse fill="#ffffff" stroke="#000000" cx="798" cy="-321.14" rx="143.28" ry="18"/>
<text text-anchor="middle" x="798" y="-316.47" font-family="Times,serif" font-size="14.00">What do you people want?</text>
</g>
<!-- Node000&#45;&gt;Node006 -->
<g id="edge7" class="edge">
<title>Node000&#45;&gt;Node006</title>
<path fill="none" stroke="#555555" stroke-dasharray="1,5" d="M998.05,-937.91C945.04,-922.02 826,-876.71 826,-790.25 826,-790.25 826,-790.25 826,-450.89 826,-415.27 815.64,-375.33 807.52,-349.52"/>
<polygon fill="#555555" stroke="#555555" points="810.64,-348.8 804.21,-340.38 803.98,-350.97 810.64,-348.8"/>
</g>
<!-- Node002 -->
<g id="node18" class="node">
<title>Node002</title>
<ellipse fill="#ffffff" stroke="#000000" cx="1023" cy="-789.25" rx="140.71" ry="42.25"/>
<text text-anchor="middle" x="1023" y="-801.82" font-family="Times,serif" font-size="14.00">Ho! No one enters the</text>
<text text-anchor="middle" x="1023" y="-784.57" font-family="Times,serif" font-size="14.00">Family Wright warehouse</text>
<text text-anchor="middle" x="1023" y="-767.32" font-family="Times,serif" font-size="14.00">at night!</text>
</g>
<!-- Node000&#45;&gt;Node002 -->
<g id="edge8" class="edge">
<title>Node000&#45;&gt;Node002</title>
<path fill="none" stroke="#555555" stroke-dasharray="1,5" d="M1023,-927.19C1023,-906.85 1023,-872.23 1023,-842.89"/>
<polygon fill="#555555" stroke="#555555" points="1026.5,-842.94 1023,-832.94 1019.5,-842.94 1026.5,-842.94"/>
</g>
<!-- Node008 -->
<g id="node19" class="node">
<title>Node008</title>
<ellipse fill="#ffffff" stroke="#000000" cx="1420" cy="-611.95" rx="122.68" ry="30.05"/>
<text text-anchor="middle" x="1420" y="-615.9" font-family="Times,serif" font-size="14.00">What is your business</text>
<text text-anchor="middle" x="1420" y="-598.65" font-family="Times,serif" font-size="14.00">here?</text>
</g>
<!-- Node000&#45;&gt;Node008 -->
<g id="edge9" class="edge">
<title>Node000&#45;&gt;Node008</title>
<path fill="none" stroke="#555555" stroke-dasharray="1,5" d="M1040.89,-931.81C1069.37,-911.29 1126.53,-869.48 1173,-831.5 1248.86,-769.5 1333.65,-692.74 1381.55,-648.66"/>
<polygon fill="#555555" stroke="#555555" points="1383.5,-651.69 1388.48,-642.34 1378.76,-646.55 1383.5,-651.69"/>
</g>
<!-- destroy_p_proc -->
<g id="node9" class="node">
<title>destroy_p_proc</title>
<ellipse fill="#ffffff" stroke="#000000" cx="962" cy="-1164.83" rx="27" ry="18"/>
</g>
<!-- look_at_p_proc -->
<g id="node10" class="node">
<title>look_at_p_proc</title>
<ellipse fill="#ffffff" stroke="#000000" cx="1101" cy="-1164.83" rx="93.82" ry="18"/>
<text text-anchor="middle" x="1101" y="-1160.15" font-family="Times,serif" font-size="14.00">You see a guard.</text>
</g>
<!-- description_p_proc -->
<g id="node11" class="node">
<title>description_p_proc</title>
<ellipse fill="#ffffff" stroke="#000000" cx="1356" cy="-1164.83" rx="142.84" ry="30.05"/>
<text text-anchor="middle" x="1356" y="-1168.78" font-family="Times,serif" font-size="14.00">The guard is guarding the</text>
<text text-anchor="middle" x="1356" y="-1151.53" font-family="Times,serif" font-size="14.00">old church.</text>
</g>
<!-- use_skill_on_p_proc -->
<g id="node12" class="node">
<title>use_skill_on_p_proc</title>
<ellipse fill="#ffffff" stroke="#000000" cx="1544" cy="-1164.83" rx="27" ry="18"/>
</g>
<!-- damage_p_proc -->
<g id="node13" class="node">
<title>damage_p_proc</title>
<ellipse fill="#ffffff" stroke="#000000" cx="682" cy="-160.95" rx="27" ry="18"/>
</g>
<!-- damage_p_proc&#45;&gt;Node998 -->
<g id="edge5" class="edge">
<title>damage_p_proc&#45;&gt;Node998</title>
<path fill="none" stroke="#555555" stroke-dasharray="1,5" d="M672.46,-143.85C659.86,-122.82 636.71,-85.03 615,-54 612.5,-50.42 609.77,-46.71 607.05,-43.09"/>
<polygon fill="#555555" stroke="#555555" points="609.28,-41.25 600.41,-35.45 603.73,-45.51 609.28,-41.25"/>
</g>
<!-- map_enter_p_proc -->
<g id="node14" class="node">
<title>map_enter_p_proc</title>
<ellipse fill="#ffffff" stroke="#000000" cx="1616" cy="-1164.83" rx="27" ry="18"/>
</g>
<!-- combat_p_proc -->
<g id="node15" class="node">
<title>combat_p_proc</title>
<ellipse fill="#ffffff" stroke="#000000" cx="1688" cy="-1164.83" rx="27" ry="18"/>
</g>
<!-- Node994 -->
<g id="node26" class="node">
<title>Node994</title>
<ellipse fill="#ffffff" stroke="#000000" cx="2053" cy="-18" rx="27" ry="18"/>
</g>
<!-- Node009&#45;&gt;Node994 -->
<g id="edge29" class="edge">
<title>Node009&#45;&gt;Node994</title>
<path fill="none" stroke="#99006c" d="M1933.05,-685.83C2029.14,-672.37 2146,-636.04 2146,-539.02 2146,-539.02 2146,-539.02 2146,-159.95 2146,-111.86 2153.44,-92.03 2124,-54 2115.04,-42.42 2101.24,-34.42 2088.19,-29.02"/>
<polygon fill="#99006c" stroke="#99006c" points="2089.57,-25.43 2078.98,-25.23 2087.14,-32 2089.57,-25.43"/>
<text text-anchor="middle" x="2173.75" y="-369.72" font-family="Times,serif" font-size="14.00" fill="#99006c">Thanks.</text>
</g>
<!-- Node004 -->
<g id="node22" class="node">
<title>Node004</title>
<ellipse fill="#ffffff" stroke="#000000" cx="1154" cy="-160.95" rx="140.71" ry="30.05"/>
<text text-anchor="middle" x="1154" y="-164.9" font-family="Times,serif" font-size="14.00">You cannot get in without</text>
<text text-anchor="middle" x="1154" y="-147.65" font-family="Times,serif" font-size="14.00">papers.</text>
</g>
<!-- Node006&#45;&gt;Node004 -->
<g id="edge21" class="edge">
<title>Node006&#45;&gt;Node004</title>
<path fill="none" stroke="#990039" d="M793.06,-302.9C788.6,-283.28 785.14,-251.62 802.75,-233.39 833.95,-201.1 960.14,-225.01 1004,-215.39 1029.76,-209.75 1057.14,-200.89 1081.37,-192"/>
<polygon fill="#990039" stroke="#990039" points="1082.4,-194.98 1090.54,-188.2 1079.95,-188.42 1082.4,-194.98"/>
<text text-anchor="middle" x="878.12" y="-254.59" font-family="Times,serif" font-size="14.00" fill="#990039">We need to go inside.</text>
</g>
<!-- Node007 -->
<g id="node27" class="node">
<title>Node007</title>
<ellipse fill="#ffffff" stroke="#000000" cx="861" cy="-160.95" rx="134.35" ry="42.25"/>
<text text-anchor="middle" x="861" y="-173.52" font-family="Times,serif" font-size="14.00">I would have heard if a</text>
<text text-anchor="middle" x="861" y="-156.27" font-family="Times,serif" font-size="14.00">group was sent here. Be</text>
<text text-anchor="middle" x="861" y="-139.02" font-family="Times,serif" font-size="14.00">off!</text>
</g>
<!-- Node006&#45;&gt;Node007 -->
<g id="edge22" class="edge">
<title>Node006&#45;&gt;Node007</title>
<path fill="none" stroke="#006699" d="M674.96,-311.58C640.18,-306.45 608.76,-298.25 597.75,-285.14 582.95,-267.54 582.74,-250.82 597.75,-233.39 615.39,-212.92 691.84,-222.16 718,-215.39 735.37,-210.9 753.56,-205.04 770.92,-198.86"/>
<polygon fill="#006699" stroke="#006699" points="771.82,-201.89 780.03,-195.19 769.43,-195.31 771.82,-201.89"/>
<text text-anchor="middle" x="688.12" y="-263.22" font-family="Times,serif" font-size="14.00" fill="#006699">We were sent here by the</text>
<text text-anchor="middle" x="688.12" y="-245.97" font-family="Times,serif" font-size="14.00" fill="#006699">boss.</text>
</g>
<!-- Node996 -->
<g id="node20" class="node">
<title>Node996</title>
<ellipse fill="#ffffff" stroke="#000000" cx="1136" cy="-611.95" rx="27" ry="18"/>
</g>
<!-- Node002&#45;&gt;Node996 -->
<g id="edge11" class="edge">
<title>Node002&#45;&gt;Node996</title>
<path fill="none" stroke="#540099" d="M1012.34,-746.71C1007.91,-719.78 1007.14,-685.15 1024,-660 1040.64,-635.16 1073.19,-623.41 1098.93,-617.86"/>
<polygon fill="#540099" stroke="#540099" points="1099.32,-621.16 1108.48,-615.84 1098,-614.28 1099.32,-621.16"/>
<text text-anchor="middle" x="1111" y="-715.7" font-family="Times,serif" font-size="14.00" fill="#540099">Well, Mr. Wright himself</text>
<text text-anchor="middle" x="1111" y="-698.45" font-family="Times,serif" font-size="14.00" fill="#540099">sent me on an errand. If</text>
<text text-anchor="middle" x="1111" y="-681.2" font-family="Times,serif" font-size="14.00" fill="#540099">you don’t know about it,</text>
<text text-anchor="middle" x="1111" y="-663.95" font-family="Times,serif" font-size="14.00" fill="#540099">too bad.</text>
</g>
<!-- Node999 -->
<g id="node21" class="node">
<title>Node999</title>
<ellipse fill="#ffffff" stroke="#000000" cx="1387" cy="-18" rx="27" ry="18"/>
</g>
<!-- Node002&#45;&gt;Node999 -->
<g id="edge12" class="edge">
<title>Node002&#45;&gt;Node999</title>
<path fill="none" stroke="#009927" d="M1122.93,-759.26C1159.06,-747.87 1192.43,-735.89 1198,-729 1302.68,-599.65 1194.58,-516.79 1241.5,-357.14 1278.98,-229.6 1330.3,-214.39 1373,-88.5 1377.56,-75.07 1380.85,-59.64 1383.09,-46.75"/>
<polygon fill="#009927" stroke="#009927" points="1386.66,-47.6 1384.79,-37.17 1379.75,-46.49 1386.66,-47.6"/>
<text text-anchor="middle" x="1328.75" y="-369.72" font-family="Times,serif" font-size="14.00" fill="#009927">I’ll come back tomorrow.</text>
</g>
<!-- Node002&#45;&gt;Node004 -->
<g id="edge13" class="edge">
<title>Node002&#45;&gt;Node004</title>
<path fill="none" stroke="#990006" d="M1006.13,-747.04C979.79,-677.45 934.14,-532.25 956.5,-409.64 971.52,-327.28 968.04,-296.55 1023,-233.39 1037.54,-216.68 1056.98,-203.17 1076.43,-192.57"/>
<polygon fill="#990006" stroke="#990006" points="1077.71,-195.33 1084.96,-187.6 1074.47,-189.13 1077.71,-195.33"/>
<text text-anchor="middle" x="1031.75" y="-455.84" font-family="Times,serif" font-size="14.00" fill="#990006">I need to get in there</text>
<text text-anchor="middle" x="1031.75" y="-438.59" font-family="Times,serif" font-size="14.00" fill="#990006">now.</text>
</g>
<!-- Node008&#45;&gt;Node998 -->
<g id="edge27" class="edge">
<title>Node008&#45;&gt;Node998</title>
<path fill="none" stroke="#001399" d="M1517.52,-593.39C1548.78,-585.76 1577.94,-575.82 1588,-563.89 1635.52,-507.58 1649.65,-298.43 1615,-233.39 1547.77,-107.23 1483.76,-98.81 1348,-54 1279.23,-31.3 770.52,-21.81 626.12,-19.55"/>
<polygon fill="#001399" stroke="#001399" points="626.26,-16.04 616.2,-19.38 626.15,-23.04 626.26,-16.04"/>
<text text-anchor="middle" x="1726.62" y="-325.09" font-family="Times,serif" font-size="14.00" fill="#001399">Removing your head from</text>
<text text-anchor="middle" x="1726.62" y="-307.84" font-family="Times,serif" font-size="14.00" fill="#001399">your shoulders.</text>
</g>
<!-- Node008&#45;&gt;Node999 -->
<g id="edge28" class="edge">
<title>Node008&#45;&gt;Node999</title>
<path fill="none" stroke="#3f9900" d="M1521.09,-594.54C1648.2,-571 1850,-522.64 1850,-452.89 1850,-452.89 1850,-452.89 1850,-159.95 1850,-71.29 1535.37,-33.02 1424.84,-22.31"/>
<polygon fill="#3f9900" stroke="#3f9900" points="1425.18,-18.73 1414.89,-21.28 1424.52,-25.7 1425.18,-18.73"/>
<text text-anchor="middle" x="1919" y="-316.47" font-family="Times,serif" font-size="14.00" fill="#3f9900">Sorry, wrong place.</text>
</g>
<!-- Node008&#45;&gt;Node004 -->
<g id="edge25" class="edge">
<title>Node008&#45;&gt;Node004</title>
<path fill="none" stroke="#009947" d="M1385.41,-583.03C1323.21,-533.32 1194.11,-432.52 1142,-409.64 1105.25,-393.51 1078.9,-422.73 1053.5,-391.64 1028.32,-360.83 1090.36,-256.88 1127.89,-199.97"/>
<polygon fill="#009947" stroke="#009947" points="1131.28,-202.19 1133.91,-191.92 1125.45,-198.31 1131.28,-202.19"/>
<text text-anchor="middle" x="1121.25" y="-369.72" font-family="Times,serif" font-size="14.00" fill="#009947">I need to go inside.</text>
</g>
<!-- Node003 -->
<g id="node23" class="node">
<title>Node003</title>
<ellipse fill="#ffffff" stroke="#000000" cx="1420" cy="-451.89" rx="132.76" ry="42.25"/>
<text text-anchor="middle" x="1420" y="-464.47" font-family="Times,serif" font-size="14.00">[Looking nervous]</text>
<text text-anchor="middle" x="1420" y="-447.22" font-family="Times,serif" font-size="14.00">Sorry...I didn’t know. Do</text>
<text text-anchor="middle" x="1420" y="-429.97" font-family="Times,serif" font-size="14.00">you have any papers?</text>
</g>
<!-- Node008&#45;&gt;Node003 -->
<g id="edge26" class="edge">
<title>Node008&#45;&gt;Node003</title>
<path fill="none" stroke="#991a00" d="M1420,-581.59C1420,-560.28 1420,-530.87 1420,-505.55"/>
<polygon fill="#991a00" stroke="#991a00" points="1423.5,-505.61 1420,-495.61 1416.5,-505.61 1423.5,-505.61"/>
<text text-anchor="middle" x="1502.12" y="-550.59" font-family="Times,serif" font-size="14.00" fill="#991a00">I’ve been sent on</text>
<text text-anchor="middle" x="1502.12" y="-533.34" font-family="Times,serif" font-size="14.00" fill="#991a00">official business by the</text>
<text text-anchor="middle" x="1502.12" y="-516.09" font-family="Times,serif" font-size="14.00" fill="#991a00">boss. Stand aside!</text>
</g>
<!-- Node996&#45;&gt;Node004 -->
<g id="edge31" class="edge">
<title>Node996&#45;&gt;Node004</title>
<path fill="none" stroke="#555555" stroke-dasharray="1,5" d="M1139.82,-593.77C1147.25,-555.4 1159.08,-461.97 1112,-409.64 1087.91,-382.88 1055.46,-419.79 1033,-391.64 1023.44,-379.66 1032.38,-372.47 1033,-357.14 1035.22,-302.01 1014.64,-280.73 1043,-233.39 1052.55,-217.45 1067.19,-204.44 1082.73,-194.11"/>
<polygon fill="#555555" stroke="#555555" points="1084.34,-196.6 1090.95,-188.33 1080.62,-190.67 1084.34,-196.6"/>
</g>
<!-- Node996&#45;&gt;Node003 -->
<g id="edge30" class="edge">
<title>Node996&#45;&gt;Node003</title>
<path fill="none" stroke="#555555" stroke-dasharray="1,5" d="M1156.42,-599.58C1195.38,-577.9 1282.05,-529.67 1345.4,-494.41"/>
<polygon fill="#555555" stroke="#555555" points="1346.93,-497.01 1353.97,-489.09 1343.53,-490.89 1346.93,-497.01"/>
</g>
<!-- Node004&#45;&gt;Node998 -->
<g id="edge17" class="edge">
<title>Node004&#45;&gt;Node998</title>
<path fill="none" stroke="#00997a" d="M1099.81,-132.74C1079.73,-120.95 1057.74,-105.86 1040.75,-88.5 1028.23,-75.71 1035.21,-63.43 1020,-54 986.94,-33.5 725.43,-23.28 626.1,-20.11"/>
<polygon fill="#00997a" stroke="#00997a" points="626.46,-16.59 616.36,-19.78 626.25,-23.59 626.46,-16.59"/>
<text text-anchor="middle" x="1129.62" y="-75.2" font-family="Times,serif" font-size="14.00" fill="#00997a">Here’s my authorization!</text>
<text text-anchor="middle" x="1129.62" y="-57.95" font-family="Times,serif" font-size="14.00" fill="#00997a">Attack!</text>
</g>
<!-- Node004&#45;&gt;Node999 -->
<g id="edge18" class="edge">
<title>Node004&#45;&gt;Node999</title>
<path fill="none" stroke="#994d00" d="M1178.52,-131.35C1200.37,-107.52 1234.37,-74.31 1270.25,-54 1295.21,-39.87 1326.46,-30.89 1350.35,-25.57"/>
<polygon fill="#994d00" stroke="#994d00" points="1351.03,-28.79 1360.09,-23.31 1349.59,-21.94 1351.03,-28.79"/>
<text text-anchor="middle" x="1321.38" y="-66.58" font-family="Times,serif" font-size="14.00" fill="#994d00">I’ll come back.</text>
</g>
<!-- Node003&#45;&gt;Node999 -->
<g id="edge16" class="edge">
<title>Node003&#45;&gt;Node999</title>
<path fill="none" stroke="#99008c" d="M1537.02,-431.5C1557.82,-422.7 1576.97,-409.99 1590,-391.64 1598.88,-379.14 1593.41,-372.09 1590,-357.14 1559.69,-224.31 1453.85,-93.67 1408.21,-42.08"/>
<polygon fill="#99008c" stroke="#99008c" points="1411.2,-40.05 1401.92,-34.93 1405.98,-44.72 1411.2,-40.05"/>
<text text-anchor="middle" x="1652.38" y="-271.84" font-family="Times,serif" font-size="14.00" fill="#99008c">I left them back with my</text>
<text text-anchor="middle" x="1652.38" y="-254.59" font-family="Times,serif" font-size="14.00" fill="#99008c">guard. I’ll go fetch</text>
<text text-anchor="middle" x="1652.38" y="-237.34" font-family="Times,serif" font-size="14.00" fill="#99008c">them.</text>
</g>
<!-- Node003&#45;&gt;Node004 -->
<g id="edge15" class="edge">
<title>Node003&#45;&gt;Node004</title>
<path fill="none" stroke="#5f9900" d="M1414.58,-409.25C1410.31,-391.23 1402.67,-371.11 1389,-357.14 1372.26,-340.04 1358.61,-351.72 1338.25,-339.14 1276.21,-300.82 1217.91,-238.69 1184.1,-199.11"/>
<polygon fill="#5f9900" stroke="#5f9900" points="1186.39,-197.4 1177.27,-192.02 1181.05,-201.92 1186.39,-197.4"/>
<text text-anchor="middle" x="1414.88" y="-325.09" font-family="Times,serif" font-size="14.00" fill="#5f9900">No, he didn’t give me</text>
<text text-anchor="middle" x="1414.88" y="-307.84" font-family="Times,serif" font-size="14.00" fill="#5f9900">any.</text>
</g>
<!-- Node995 -->
<g id="node24" class="node">
<title>Node995</title>
<ellipse fill="#ffffff" stroke="#000000" cx="1528" cy="-321.14" rx="27" ry="18"/>
</g>
<!-- Node003&#45;&gt;Node995 -->
<g id="edge14" class="edge">
<title>Node003&#45;&gt;Node995</title>
<path fill="none" stroke="#003299" d="M1418.68,-409.17C1420.2,-391.35 1424.93,-371.41 1437,-357.14 1452.26,-339.12 1464.97,-347.67 1487,-339.14 1489.74,-338.09 1492.56,-336.97 1495.4,-335.83"/>
<polygon fill="#003299" stroke="#003299" points="1496.59,-338.71 1504.52,-331.69 1493.94,-332.23 1496.59,-338.71"/>
<text text-anchor="middle" x="1513.5" y="-378.34" font-family="Times,serif" font-size="14.00" fill="#003299">Please! Can you even</text>
<text text-anchor="middle" x="1513.5" y="-361.09" font-family="Times,serif" font-size="14.00" fill="#003299">read?</text>
</g>
<!-- Node995&#45;&gt;Node004 -->
<g id="edge33" class="edge">
<title>Node995&#45;&gt;Node004</title>
<path fill="none" stroke="#555555" stroke-dasharray="1,5" d="M1506.09,-310.39C1499.97,-307.85 1493.29,-305.24 1487,-303.14 1456.53,-292.97 1446.19,-298.56 1417,-285.14 1380.54,-268.38 1378.49,-252.13 1343,-233.39 1311.09,-216.55 1274.31,-201.7 1241.73,-189.97"/>
<polygon fill="#555555" stroke="#555555" points="1243.36,-186.48 1232.76,-186.43 1241.01,-193.08 1243.36,-186.48"/>
</g>
<!-- Node005 -->
<g id="node25" class="node">
<title>Node005</title>
<ellipse fill="#ffffff" stroke="#000000" cx="1998" cy="-160.95" rx="120.03" ry="42.25"/>
<text text-anchor="middle" x="1998" y="-173.52" font-family="Times,serif" font-size="14.00">[Embarrassed]</text>
<text text-anchor="middle" x="1998" y="-156.27" font-family="Times,serif" font-size="14.00">No...um...alright, just</text>
<text text-anchor="middle" x="1998" y="-139.02" font-family="Times,serif" font-size="14.00">go on in...</text>
</g>
<!-- Node995&#45;&gt;Node005 -->
<g id="edge32" class="edge">
<title>Node995&#45;&gt;Node005</title>
<path fill="none" stroke="#555555" stroke-dasharray="1,5" d="M1551.95,-312.08C1615.53,-290.68 1791.27,-231.53 1902.23,-194.18"/>
<polygon fill="#555555" stroke="#555555" points="1903.07,-197.26 1911.43,-190.75 1900.83,-190.62 1903.07,-197.26"/>
</g>
<!-- Node005&#45;&gt;Node994 -->
<g id="edge19" class="edge">
<title>Node005&#45;&gt;Node994</title>
<path fill="none" stroke="#200099" d="M2017.92,-119.15C2022.47,-109.22 2027.1,-98.56 2031,-88.5 2036.27,-74.9 2041.25,-59.46 2045.14,-46.59"/>
<polygon fill="#200099" stroke="#200099" points="2048.78,-47.64 2048.25,-37.06 2042.06,-45.66 2048.78,-47.64"/>
<text text-anchor="middle" x="2081" y="-66.58" font-family="Times,serif" font-size="14.00" fill="#200099">Thank you.</text>
</g>
<!-- Node005&#45;&gt;Node994 -->
<g id="edge20" class="edge">
<title>Node005&#45;&gt;Node994</title>
<path fill="none" stroke="#0c9900" d="M1928.95,-126.19C1897.39,-106.21 1871.18,-79.83 1892,-54 1907.16,-35.19 1972.4,-25.97 2015.04,-21.87"/>
<polygon fill="#0c9900" stroke="#0c9900" points="2015.23,-25.27 2024.88,-20.89 2014.6,-18.3 2015.23,-25.27"/>
<text text-anchor="middle" x="1959.5" y="-66.58" font-family="Times,serif" font-size="14.00" fill="#0c9900">That’s more like it.</text>
</g>
<!-- Node007&#45;&gt;Node998 -->
<g id="edge23" class="edge">
<title>Node007&#45;&gt;Node998</title>
<path fill="none" stroke="#929900" d="M784.21,-125.87C759.48,-114.46 732.12,-101.36 707.5,-88.5 675.71,-71.9 640.32,-51 616.37,-36.48"/>
<polygon fill="#929900" stroke="#929900" points="618.51,-33.08 608.15,-30.87 614.87,-39.06 618.51,-33.08"/>
<text text-anchor="middle" x="776.75" y="-66.58" font-family="Times,serif" font-size="14.00" fill="#929900">Off with your head!</text>
</g>
<!-- Node007&#45;&gt;Node999 -->
<g id="edge24" class="edge">
<title>Node007&#45;&gt;Node999</title>
<path fill="none" stroke="#730099" d="M852.77,-118.35C850.97,-96.23 853.41,-70.31 870,-54 903.92,-20.66 1234.64,-18.52 1348.62,-18.78"/>
<polygon fill="#730099" stroke="#730099" points="1348.56,-22.29 1358.58,-18.82 1348.59,-15.29 1348.56,-22.29"/>
<text text-anchor="middle" x="945" y="-66.58" font-family="Times,serif" font-size="14.00" fill="#730099">OK, OK; we’re going.</text>
</g>
<!-- Node010 -->
<g id="node28" class="node">
<title>Node010</title>
<ellipse fill="#ffffff" stroke="#000000" cx="511" cy="-160.95" rx="125.87" ry="30.05"/>
<text text-anchor="middle" x="511" y="-164.9" font-family="Times,serif" font-size="14.00">You know, pal, I&#39;ve had</text>
<text text-anchor="middle" x="511" y="-147.65" font-family="Times,serif" font-size="14.00">enough of your shit!</text>
</g>
<!-- Node010&#45;&gt;Node998 -->
<g id="edge34" class="edge">
<title>Node010&#45;&gt;Node998</title>
<path fill="none" stroke="#009999" d="M526.95,-130.74C540.75,-105.48 560.52,-69.31 573.78,-45.02"/>
<polygon fill="#009999" stroke="#009999" points="577.31,-46.87 579.03,-36.41 571.17,-43.51 577.31,-46.87"/>
<text text-anchor="middle" x="589.12" y="-66.58" font-family="Times,serif" font-size="14.00" fill="#009999">[END]</text>
</g>
</g>
</svg>
