<?xml version="1.0" encoding="UTF-8" standalone="no"?>
<!DOCTYPE svg PUBLIC "-//W3C//DTD SVG 1.1//EN"
 "http://www.w3.org/Graphics/SVG/1.1/DTD/svg11.dtd">
<!-- Generated by graphviz version 8.0.5 (0)
 -->
<!-- Title: ecblkhro Pages: 1 -->
<svg width="1417pt" height="335pt"
 viewBox="0.00 0.00 1417.00 334.97" xmlns="http://www.w3.org/2000/svg" xmlns:xlink="http://www.w3.org/1999/xlink">
<g id="graph0" class="graph" transform="scale(1 1) rotate(0) translate(4 330.97)">
<title>ecblkhro</title>
<polygon fill="white" stroke="none" points="-4,4 -4,-330.97 1413,-330.97 1413,4 -4,4"/>
<!-- checkPartyMembersNearDoor -->
<g id="node1" class="node">
<title>checkPartyMembersNearDoor</title>
<ellipse fill="#ffffff" stroke="#000000" cx="27" cy="-223.74" rx="27" ry="18"/>
</g>
<!-- start -->
<g id="node2" class="node">
<title>start</title>
<ellipse fill="#ffffff" stroke="#000000" cx="99" cy="-223.74" rx="27" ry="18"/>
</g>
<!-- critter_p_proc -->
<g id="node3" class="node">
<title>critter_p_proc</title>
<ellipse fill="#ffffff" stroke="#000000" cx="171" cy="-223.74" rx="27" ry="18"/>
</g>
<!-- pickup_p_proc -->
<g id="node4" class="node">
<title>pickup_p_proc</title>
<ellipse fill="#ffffff" stroke="#000000" cx="243" cy="-223.74" rx="27" ry="18"/>
</g>
<!-- talk_p_proc -->
<g id="node5" class="node">
<title>talk_p_proc</title>
<ellipse fill="#ffffff" stroke="#000000" cx="315" cy="-223.74" rx="27" ry="18"/>
</g>
<!-- Node001 -->
<g id="node6" class="node">
<title>Node001</title>
<ellipse fill="#ffffff" stroke="#000000" cx="351" cy="-42.25" rx="122.68" ry="42.25"/>
<text text-anchor="middle" x="351" y="-54.82" font-family="Times,serif" font-size="14.00">I was originally one of</text>
<text text-anchor="middle" x="351" y="-37.57" font-family="Times,serif" font-size="14.00">the hero models for</text>
<text text-anchor="middle" x="351" y="-20.32" font-family="Times,serif" font-size="14.00">Fallout 1.</text>
</g>
<!-- talk_p_proc&#45;&gt;Node001 -->
<g id="edge1" class="edge">
<title>talk_p_proc&#45;&gt;Node001</title>
<path fill="none" stroke="#555555" stroke-dasharray="1,5" d="M318.45,-205.53C323.5,-180.37 333.1,-132.51 340.57,-95.25"/>
<polygon fill="#555555" stroke="#555555" points="344.18,-96.05 342.71,-85.56 337.32,-94.68 344.18,-96.05"/>
</g>
<!-- destroy_p_proc -->
<g id="node7" class="node">
<title>destroy_p_proc</title>
<ellipse fill="#ffffff" stroke="#000000" cx="459" cy="-223.74" rx="27" ry="18"/>
</g>
<!-- look_at_p_proc -->
<g id="node8" class="node">
<title>look_at_p_proc</title>
<ellipse fill="#ffffff" stroke="#000000" cx="625" cy="-223.74" rx="120.56" ry="30.05"/>
<text text-anchor="middle" x="625" y="-227.69" font-family="Times,serif" font-size="14.00">You see...a black hero</text>
<text text-anchor="middle" x="625" y="-210.44" font-family="Times,serif" font-size="14.00">model.</text>
</g>
<!-- description_p_proc -->
<g id="node9" class="node">
<title>description_p_proc</title>
<ellipse fill="#ffffff" stroke="#000000" cx="906" cy="-223.74" rx="142.84" ry="103.24"/>
<text text-anchor="middle" x="906" y="-279.44" font-family="Times,serif" font-size="14.00">You see a heavily muscled</text>
<text text-anchor="middle" x="906" y="-262.19" font-family="Times,serif" font-size="14.00">black man in a Vault 13</text>
<text text-anchor="middle" x="906" y="-244.94" font-family="Times,serif" font-size="14.00">jumpsuit. He is glaring</text>
<text text-anchor="middle" x="906" y="-227.69" font-family="Times,serif" font-size="14.00">at you resentfully.</text>
<text text-anchor="middle" x="906" y="-210.44" font-family="Times,serif" font-size="14.00">&#45;&#45;&#45;</text>
<text text-anchor="middle" x="906" y="-193.19" font-family="Times,serif" font-size="14.00">You see a black hero</text>
<text text-anchor="middle" x="906" y="-175.94" font-family="Times,serif" font-size="14.00">model. He is glaring at</text>
<text text-anchor="middle" x="906" y="-158.69" font-family="Times,serif" font-size="14.00">you resentfully.</text>
</g>
<!-- use_skill_on_p_proc -->
<g id="node10" class="node">
<title>use_skill_on_p_proc</title>
<ellipse fill="#ffffff" stroke="#000000" cx="1094" cy="-223.74" rx="27" ry="18"/>
</g>
<!-- damage_p_proc -->
<g id="node11" class="node">
<title>damage_p_proc</title>
<ellipse fill="#ffffff" stroke="#000000" cx="1166" cy="-223.74" rx="27" ry="18"/>
</g>
<!-- map_enter_p_proc -->
<g id="node12" class="node">
<title>map_enter_p_proc</title>
<ellipse fill="#ffffff" stroke="#000000" cx="1238" cy="-223.74" rx="27" ry="18"/>
</g>
<!-- timed_event_p_proc -->
<g id="node13" class="node">
<title>timed_event_p_proc</title>
<ellipse fill="#ffffff" stroke="#000000" cx="387" cy="-223.74" rx="27" ry="18"/>
</g>
<!-- timed_event_p_proc&#45;&gt;Node001 -->
<g id="edge2" class="edge">
<title>timed_event_p_proc&#45;&gt;Node001</title>
<path fill="none" stroke="#555555" stroke-dasharray="1,5" d="M383.55,-205.53C378.5,-180.37 368.9,-132.51 361.43,-95.25"/>
<polygon fill="#555555" stroke="#555555" points="364.68,-94.68 359.29,-85.56 357.82,-96.05 364.68,-94.68"/>
</g>
<!-- Node998 -->
<g id="node14" class="node">
<title>Node998</title>
<ellipse fill="#ffffff" stroke="#000000" cx="1310" cy="-223.74" rx="27" ry="18"/>
</g>
<!-- Node999 -->
<g id="node15" class="node">
<title>Node999</title>
<ellipse fill="#ffffff" stroke="#000000" cx="1382" cy="-223.74" rx="27" ry="18"/>
</g>
</g>
</svg>
