<?xml version="1.0" encoding="UTF-8" standalone="no"?>
<!DOCTYPE svg PUBLIC "-//W3C//DTD SVG 1.1//EN"
 "http://www.w3.org/Graphics/SVG/1.1/DTD/svg11.dtd">
<!-- Generated by graphviz version 8.0.5 (0)
 -->
<!-- Title: ecnomsha Pages: 1 -->
<svg width="1641pt" height="1460pt"
 viewBox="0.00 0.00 1641.08 1459.96" xmlns="http://www.w3.org/2000/svg" xmlns:xlink="http://www.w3.org/1999/xlink">
<g id="graph0" class="graph" transform="scale(1 1) rotate(0) translate(4 1455.96)">
<title>ecnomsha</title>
<polygon fill="white" stroke="none" points="-4,4 -4,-1455.96 1637.08,-1455.96 1637.08,4 -4,4"/>
<!-- start -->
<g id="node1" class="node">
<title>start</title>
<ellipse fill="#ffffff" stroke="#000000" cx="382.08" cy="-1409.71" rx="27" ry="18"/>
</g>
<!-- checkPartyMembersNearDoor -->
<g id="node2" class="node">
<title>checkPartyMembersNearDoor</title>
<ellipse fill="#ffffff" stroke="#000000" cx="454.08" cy="-1409.71" rx="27" ry="18"/>
</g>
<!-- critter_p_proc -->
<g id="node3" class="node">
<title>critter_p_proc</title>
<ellipse fill="#ffffff" stroke="#000000" cx="526.08" cy="-1409.71" rx="27" ry="18"/>
</g>
<!-- pickup_p_proc -->
<g id="node4" class="node">
<title>pickup_p_proc</title>
<ellipse fill="#ffffff" stroke="#000000" cx="598.08" cy="-1409.71" rx="27" ry="18"/>
</g>
<!-- talk_p_proc -->
<g id="node5" class="node">
<title>talk_p_proc</title>
<ellipse fill="#ffffff" stroke="#000000" cx="670.08" cy="-1409.71" rx="27" ry="18"/>
</g>
<!-- Node001 -->
<g id="node6" class="node">
<title>Node001</title>
<ellipse fill="#ffffff" stroke="#000000" cx="670.08" cy="-1251.62" rx="134.88" ry="78.84"/>
<text text-anchor="middle" x="670.08" y="-1290.07" font-family="Times,serif" font-size="14.00">Hello, stranger. I am the</text>
<text text-anchor="middle" x="670.08" y="-1272.82" font-family="Times,serif" font-size="14.00">tribe shaman. I am</text>
<text text-anchor="middle" x="670.08" y="-1255.57" font-family="Times,serif" font-size="14.00">skilled in the art of</text>
<text text-anchor="middle" x="670.08" y="-1238.32" font-family="Times,serif" font-size="14.00">healing.</text>
<text text-anchor="middle" x="670.08" y="-1221.07" font-family="Times,serif" font-size="14.00">&#45;&#45;&#45;</text>
<text text-anchor="middle" x="670.08" y="-1203.82" font-family="Times,serif" font-size="14.00">Hello again.</text>
</g>
<!-- talk_p_proc&#45;&gt;Node001 -->
<g id="edge1" class="edge">
<title>talk_p_proc&#45;&gt;Node001</title>
<path fill="none" stroke="#555555" stroke-dasharray="1,5" d="M670.08,-1391.41C670.08,-1378.81 670.08,-1360.69 670.08,-1341.67"/>
<polygon fill="#555555" stroke="#555555" points="673.58,-1341.73 670.08,-1331.73 666.58,-1341.73 673.58,-1341.73"/>
</g>
<!-- Node002 -->
<g id="node18" class="node">
<title>Node002</title>
<ellipse fill="#ffffff" stroke="#000000" cx="893.08" cy="-1089.48" rx="96.7" ry="30.05"/>
<text text-anchor="middle" x="893.08" y="-1093.43" font-family="Times,serif" font-size="14.00">Be still and I will</text>
<text text-anchor="middle" x="893.08" y="-1076.18" font-family="Times,serif" font-size="14.00">examine you.</text>
</g>
<!-- Node001&#45;&gt;Node002 -->
<g id="edge4" class="edge">
<title>Node001&#45;&gt;Node002</title>
<path fill="none" stroke="#996e00" d="M754.7,-1189.85C785.92,-1167.43 820.12,-1142.87 846.72,-1123.77"/>
<polygon fill="#996e00" stroke="#996e00" points="848.35,-1126.19 854.43,-1117.51 844.26,-1120.5 848.35,-1126.19"/>
<text text-anchor="middle" x="912.08" y="-1141.48" font-family="Times,serif" font-size="14.00" fill="#996e00">I am in need of healing.</text>
</g>
<!-- Node008 -->
<g id="node19" class="node">
<title>Node008</title>
<ellipse fill="#ffffff" stroke="#000000" cx="156.08" cy="-551.57" rx="129.05" ry="103.24"/>
<text text-anchor="middle" x="156.08" y="-607.27" font-family="Times,serif" font-size="14.00">Ahh...You are familiar</text>
<text text-anchor="middle" x="156.08" y="-590.02" font-family="Times,serif" font-size="14.00">with the healing</text>
<text text-anchor="middle" x="156.08" y="-572.77" font-family="Times,serif" font-size="14.00">properties of these two</text>
<text text-anchor="middle" x="156.08" y="-555.52" font-family="Times,serif" font-size="14.00">plants. It will only cost</text>
<text text-anchor="middle" x="156.08" y="-538.27" font-family="Times,serif" font-size="14.00"> you</text>
<text text-anchor="middle" x="156.08" y="-521.02" font-family="Times,serif" font-size="14.00">&#45;&#45;&#45;</text>
<text text-anchor="middle" x="156.08" y="-503.77" font-family="Times,serif" font-size="14.00">and I will combine the</text>
<text text-anchor="middle" x="156.08" y="-486.52" font-family="Times,serif" font-size="14.00">two for you.</text>
</g>
<!-- Node001&#45;&gt;Node008 -->
<g id="edge5" class="edge">
<title>Node001&#45;&gt;Node008</title>
<path fill="none" stroke="#410099" d="M545.61,-1221.1C449.77,-1191.76 321.8,-1136.97 249.33,-1041.42 167.04,-932.94 150.73,-772.77 150.34,-665.66"/>
<polygon fill="#410099" stroke="#410099" points="153.84,-665.82 150.36,-655.82 146.84,-665.81 153.84,-665.82"/>
<text text-anchor="middle" x="338.95" y="-1023.95" font-family="Times,serif" font-size="14.00" fill="#410099">Can you combine the</text>
<text text-anchor="middle" x="338.95" y="-1006.7" font-family="Times,serif" font-size="14.00" fill="#410099">xander root and the broc</text>
<text text-anchor="middle" x="338.95" y="-989.45" font-family="Times,serif" font-size="14.00" fill="#410099">flower?</text>
</g>
<!-- Node003 -->
<g id="node20" class="node">
<title>Node003</title>
<ellipse fill="#ffffff" stroke="#000000" cx="1054.08" cy="-835.69" rx="104.65" ry="127.63"/>
<text text-anchor="middle" x="1054.08" y="-908.64" font-family="Times,serif" font-size="14.00">I have found these</text>
<text text-anchor="middle" x="1054.08" y="-891.39" font-family="Times,serif" font-size="14.00">afflictions.</text>
<text text-anchor="middle" x="1054.08" y="-874.14" font-family="Times,serif" font-size="14.00">&#45;&#45;&#45;</text>
<text text-anchor="middle" x="1054.08" y="-856.89" font-family="Times,serif" font-size="14.00">[Crippled]</text>
<text text-anchor="middle" x="1054.08" y="-839.64" font-family="Times,serif" font-size="14.00">&#45;&#45;&#45;</text>
<text text-anchor="middle" x="1054.08" y="-822.39" font-family="Times,serif" font-size="14.00">[Injured]</text>
<text text-anchor="middle" x="1054.08" y="-805.14" font-family="Times,serif" font-size="14.00">&#45;&#45;&#45;</text>
<text text-anchor="middle" x="1054.08" y="-787.89" font-family="Times,serif" font-size="14.00">[Radiated]</text>
<text text-anchor="middle" x="1054.08" y="-770.64" font-family="Times,serif" font-size="14.00">&#45;&#45;&#45;</text>
<text text-anchor="middle" x="1054.08" y="-753.39" font-family="Times,serif" font-size="14.00">[Poisoned]</text>
</g>
<!-- Node001&#45;&gt;Node003 -->
<g id="edge6" class="edge">
<title>Node001&#45;&gt;Node003</title>
<path fill="none" stroke="#009915" d="M691.33,-1173.44C704.83,-1135.55 725.53,-1091.32 755.58,-1059.42 818.97,-992.13 866.98,-1019.94 940.08,-963.32 951.27,-954.65 962.27,-944.79 972.75,-934.49"/>
<polygon fill="#009915" stroke="#009915" points="974.71,-937.48 979.28,-927.93 969.75,-932.54 974.71,-937.48"/>
<text text-anchor="middle" x="771.83" y="-1084.8" font-family="Times,serif" font-size="14.00" fill="#009915">Bye.</text>
</g>
<!-- Node011 -->
<g id="node21" class="node">
<title>Node011</title>
<ellipse fill="#ffffff" stroke="#000000" cx="561.08" cy="-1011.37" rx="125.33" ry="30.05"/>
<text text-anchor="middle" x="561.08" y="-1015.32" font-family="Times,serif" font-size="14.00">I do not have time for</text>
<text text-anchor="middle" x="561.08" y="-998.07" font-family="Times,serif" font-size="14.00">such nonsense. Leave!</text>
</g>
<!-- Node001&#45;&gt;Node011 -->
<g id="edge7" class="edge">
<title>Node001&#45;&gt;Node011</title>
<path fill="none" stroke="#990018" d="M635.59,-1175.24C616.77,-1134.1 594.25,-1084.87 578.93,-1051.39"/>
<polygon fill="#990018" stroke="#990018" points="581.76,-1050.16 574.41,-1042.53 575.39,-1053.08 581.76,-1050.16"/>
<text text-anchor="middle" x="645.7" y="-1141.48" font-family="Times,serif" font-size="14.00" fill="#990018">Ooga.</text>
</g>
<!-- destroy_p_proc -->
<g id="node7" class="node">
<title>destroy_p_proc</title>
<ellipse fill="#ffffff" stroke="#000000" cx="742.08" cy="-1409.71" rx="27" ry="18"/>
</g>
<!-- look_at_p_proc -->
<g id="node8" class="node">
<title>look_at_p_proc</title>
<ellipse fill="#ffffff" stroke="#000000" cx="880.08" cy="-1409.71" rx="92.98" ry="42.25"/>
<text text-anchor="middle" x="880.08" y="-1422.29" font-family="Times,serif" font-size="14.00">A nomad.</text>
<text text-anchor="middle" x="880.08" y="-1405.04" font-family="Times,serif" font-size="14.00">&#45;&#45;&#45;</text>
<text text-anchor="middle" x="880.08" y="-1387.79" font-family="Times,serif" font-size="14.00">Nomad shaman.</text>
</g>
<!-- description_p_proc -->
<g id="node9" class="node">
<title>description_p_proc</title>
<ellipse fill="#ffffff" stroke="#000000" cx="1132.08" cy="-1409.71" rx="140.71" ry="42.25"/>
<text text-anchor="middle" x="1132.08" y="-1422.29" font-family="Times,serif" font-size="14.00">The strong smell of herbs</text>
<text text-anchor="middle" x="1132.08" y="-1405.04" font-family="Times,serif" font-size="14.00">cling to this one&#39;s</text>
<text text-anchor="middle" x="1132.08" y="-1387.79" font-family="Times,serif" font-size="14.00">clothing.</text>
</g>
<!-- use_skill_on_p_proc -->
<g id="node10" class="node">
<title>use_skill_on_p_proc</title>
<ellipse fill="#ffffff" stroke="#000000" cx="1318.08" cy="-1409.71" rx="27" ry="18"/>
</g>
<!-- damage_p_proc -->
<g id="node11" class="node">
<title>damage_p_proc</title>
<ellipse fill="#ffffff" stroke="#000000" cx="1390.08" cy="-1409.71" rx="27" ry="18"/>
</g>
<!-- map_enter_p_proc -->
<g id="node12" class="node">
<title>map_enter_p_proc</title>
<ellipse fill="#ffffff" stroke="#000000" cx="1462.08" cy="-1409.71" rx="27" ry="18"/>
</g>
<!-- combat_p_proc -->
<g id="node13" class="node">
<title>combat_p_proc</title>
<ellipse fill="#ffffff" stroke="#000000" cx="1534.08" cy="-1409.71" rx="27" ry="18"/>
</g>
<!-- NodeFleeing -->
<g id="node14" class="node">
<title>NodeFleeing</title>
<ellipse fill="#ffffff" stroke="#000000" cx="1498.08" cy="-1251.62" rx="27" ry="18"/>
</g>
<!-- combat_p_proc&#45;&gt;NodeFleeing -->
<g id="edge2" class="edge">
<title>combat_p_proc&#45;&gt;NodeFleeing</title>
<path fill="none" stroke="#555555" stroke-dasharray="1,5" d="M1530.09,-1391.41C1523.86,-1364.43 1511.79,-1312.1 1504.38,-1279.97"/>
<polygon fill="#555555" stroke="#555555" points="1507.63,-1279.48 1501.98,-1270.53 1500.81,-1281.06 1507.63,-1279.48"/>
</g>
<!-- NodeFighting -->
<g id="node15" class="node">
<title>NodeFighting</title>
<ellipse fill="#ffffff" stroke="#000000" cx="1570.08" cy="-1251.62" rx="27" ry="18"/>
</g>
<!-- combat_p_proc&#45;&gt;NodeFighting -->
<g id="edge3" class="edge">
<title>combat_p_proc&#45;&gt;NodeFighting</title>
<path fill="none" stroke="#555555" stroke-dasharray="1,5" d="M1538.07,-1391.41C1544.29,-1364.43 1556.36,-1312.1 1563.77,-1279.97"/>
<polygon fill="#555555" stroke="#555555" points="1567.34,-1281.06 1566.18,-1270.53 1560.52,-1279.48 1567.34,-1281.06"/>
</g>
<!-- Node998 -->
<g id="node16" class="node">
<title>Node998</title>
<ellipse fill="#ffffff" stroke="#000000" cx="1606.08" cy="-1409.71" rx="27" ry="18"/>
</g>
<!-- Node999 -->
<g id="node17" class="node">
<title>Node999</title>
<ellipse fill="#ffffff" stroke="#000000" cx="378.08" cy="-18" rx="27" ry="18"/>
</g>
<!-- Node002&#45;&gt;Node003 -->
<g id="edge8" class="edge">
<title>Node002&#45;&gt;Node003</title>
<path fill="none" stroke="#004599" d="M911.55,-1059.59C929.4,-1031.67 957.58,-987.6 984.18,-945.99"/>
<polygon fill="#004599" stroke="#004599" points="987.57,-948.19 990.01,-937.88 981.68,-944.42 987.57,-948.19"/>
<text text-anchor="middle" x="997.58" y="-1006.7" font-family="Times,serif" font-size="14.00" fill="#004599">[Continue]</text>
</g>
<!-- Node008&#45;&gt;Node999 -->
<g id="edge19" class="edge">
<title>Node008&#45;&gt;Node999</title>
<path fill="none" stroke="#009934" d="M91.02,-462.02C28.7,-365.44 -44.85,-210.74 36.08,-106.5 73.5,-58.3 259.64,-32.14 340.49,-22.9"/>
<polygon fill="#009934" stroke="#009934" points="340.62,-26.29 350.17,-21.71 339.84,-19.34 340.62,-26.29"/>
<text text-anchor="middle" x="82.95" y="-310.53" font-family="Times,serif" font-size="14.00" fill="#009934">Maybe later, bye.</text>
</g>
<!-- NodeCombine -->
<g id="node29" class="node">
<title>NodeCombine</title>
<ellipse fill="#ffffff" stroke="#000000" cx="163.08" cy="-359.83" rx="27" ry="18"/>
</g>
<!-- Node008&#45;&gt;NodeCombine -->
<g id="edge18" class="edge">
<title>Node008&#45;&gt;NodeCombine</title>
<path fill="none" stroke="#610099" d="M154.96,-448.09C155.38,-430.63 156.18,-412.7 157.58,-395.83 157.77,-393.44 158.04,-390.96 158.35,-388.49"/>
<polygon fill="#610099" stroke="#610099" points="161.92,-389.26 159.89,-378.86 154.99,-388.25 161.92,-389.26"/>
<text text-anchor="middle" x="242.83" y="-417.03" font-family="Times,serif" font-size="14.00" fill="#610099">Please combine the two</text>
<text text-anchor="middle" x="242.83" y="-399.78" font-family="Times,serif" font-size="14.00" fill="#610099">plants for me.</text>
</g>
<!-- Node004 -->
<g id="node22" class="node">
<title>Node004</title>
<ellipse fill="#ffffff" stroke="#000000" cx="643.08" cy="-551.57" rx="115.79" ry="103.24"/>
<text text-anchor="middle" x="643.08" y="-607.27" font-family="Times,serif" font-size="14.00">I can perform the</text>
<text text-anchor="middle" x="643.08" y="-590.02" font-family="Times,serif" font-size="14.00">following for a price:</text>
<text text-anchor="middle" x="643.08" y="-572.77" font-family="Times,serif" font-size="14.00">&#45;&#45;&#45;</text>
<text text-anchor="middle" x="643.08" y="-555.52" font-family="Times,serif" font-size="14.00">Fix crippled limbs,</text>
<text text-anchor="middle" x="643.08" y="-538.27" font-family="Times,serif" font-size="14.00">&#45;&#45;&#45;</text>
<text text-anchor="middle" x="643.08" y="-521.02" font-family="Times,serif" font-size="14.00">Healing $</text>
<text text-anchor="middle" x="643.08" y="-503.77" font-family="Times,serif" font-size="14.00">&#45;&#45;&#45;</text>
<text text-anchor="middle" x="643.08" y="-486.52" font-family="Times,serif" font-size="14.00">Cure poison,</text>
</g>
<!-- Node003&#45;&gt;Node004 -->
<g id="edge9" class="edge">
<title>Node003&#45;&gt;Node004</title>
<path fill="none" stroke="#719900" d="M980.26,-744.47C967.58,-731.46 953.98,-718.85 940.08,-708.06 884.55,-664.96 815.32,-627.92 757.67,-600.82"/>
<polygon fill="#719900" stroke="#719900" points="759.33,-597.26 748.79,-596.21 756.38,-603.61 759.33,-597.26"/>
<text text-anchor="middle" x="974.45" y="-676.76" font-family="Times,serif" font-size="14.00" fill="#719900">Can you help me?</text>
</g>
<!-- Node011&#45;&gt;Node999 -->
<g id="edge22" class="edge">
<title>Node011&#45;&gt;Node999</title>
<path fill="none" stroke="#529900" d="M472.07,-989.87C422.34,-978.22 369.93,-965.52 368.08,-963.32 287.51,-867.59 349.08,-807.56 349.08,-682.43 349.08,-682.43 349.08,-682.43 349.08,-196.54 349.08,-142.71 362.22,-80.89 370.81,-46.24"/>
<polygon fill="#529900" stroke="#529900" points="374.35,-47.54 373.42,-36.99 367.56,-45.82 374.35,-47.54"/>
<text text-anchor="middle" x="371.2" y="-408.4" font-family="Times,serif" font-size="14.00" fill="#529900">[END]</text>
</g>
<!-- Node004&#45;&gt;Node999 -->
<g id="edge13" class="edge">
<title>Node004&#45;&gt;Node999</title>
<path fill="none" stroke="#0e0099" d="M553.27,-485.98C533.6,-469.26 513.95,-450.3 498.08,-430.33 403.17,-310.89 383.31,-118.84 379.17,-47.17"/>
<polygon fill="#0e0099" stroke="#0e0099" points="382.62,-47.16 378.61,-37.35 375.63,-47.52 382.62,-47.16"/>
<text text-anchor="middle" x="452.83" y="-310.53" font-family="Times,serif" font-size="14.00" fill="#0e0099">Bye.</text>
</g>
<!-- NodeCurePoison -->
<g id="node23" class="node">
<title>NodeCurePoison</title>
<ellipse fill="#ffffff" stroke="#000000" cx="696.08" cy="-359.83" rx="27" ry="18"/>
</g>
<!-- Node004&#45;&gt;NodeCurePoison -->
<g id="edge10" class="edge">
<title>Node004&#45;&gt;NodeCurePoison</title>
<path fill="none" stroke="#940099" d="M558.13,-481.24C534.15,-453.53 519.96,-422.05 542.33,-395.83 558.79,-376.53 630.66,-384.74 655.08,-377.83 658.07,-376.98 661.13,-375.98 664.17,-374.9"/>
<polygon fill="#940099" stroke="#940099" points="665.23,-377.85 673.28,-370.98 662.7,-371.33 665.23,-377.85"/>
<text text-anchor="middle" x="633.45" y="-417.03" font-family="Times,serif" font-size="14.00" fill="#940099">Please extract the poison</text>
<text text-anchor="middle" x="633.45" y="-399.78" font-family="Times,serif" font-size="14.00" fill="#940099">from my body.</text>
</g>
<!-- NodeCureHits -->
<g id="node24" class="node">
<title>NodeCureHits</title>
<ellipse fill="#ffffff" stroke="#000000" cx="841.08" cy="-359.83" rx="27" ry="18"/>
</g>
<!-- Node004&#45;&gt;NodeCureHits -->
<g id="edge11" class="edge">
<title>Node004&#45;&gt;NodeCureHits</title>
<path fill="none" stroke="#009967" d="M757.05,-531.25C815.75,-514.9 882.35,-484.95 918.08,-430.33 926.47,-417.5 926.38,-408.72 918.08,-395.83 909.03,-381.79 892.82,-373.31 877.6,-368.23"/>
<polygon fill="#009967" stroke="#009967" points="878.9,-364.67 868.32,-365.23 876.94,-371.39 878.9,-364.67"/>
<text text-anchor="middle" x="980.95" y="-408.4" font-family="Times,serif" font-size="14.00" fill="#009967">Please heal me.</text>
</g>
<!-- NodeCureCripple -->
<g id="node25" class="node">
<title>NodeCureCripple</title>
<ellipse fill="#ffffff" stroke="#000000" cx="768.08" cy="-359.83" rx="27" ry="18"/>
</g>
<!-- Node004&#45;&gt;NodeCureCripple -->
<g id="edge12" class="edge">
<title>Node004&#45;&gt;NodeCureCripple</title>
<path fill="none" stroke="#993b00" d="M701.97,-462.33C709.1,-451.56 716.27,-440.71 723.08,-430.33 732.72,-415.63 743.43,-399.11 751.97,-385.87"/>
<polygon fill="#993b00" stroke="#993b00" points="755.29,-388.18 757.77,-377.88 749.41,-384.39 755.29,-388.18"/>
<text text-anchor="middle" x="831.95" y="-417.03" font-family="Times,serif" font-size="14.00" fill="#993b00">See what you can do for</text>
<text text-anchor="middle" x="831.95" y="-399.78" font-family="Times,serif" font-size="14.00" fill="#993b00">my broken limb.</text>
</g>
<!-- Node005 -->
<g id="node26" class="node">
<title>Node005</title>
<ellipse fill="#ffffff" stroke="#000000" cx="563.08" cy="-197.54" rx="127.49" ry="18"/>
<text text-anchor="middle" x="563.08" y="-192.86" font-family="Times,serif" font-size="14.00">Your have been healed.</text>
</g>
<!-- NodeCurePoison&#45;&gt;Node005 -->
<g id="edge23" class="edge">
<title>NodeCurePoison&#45;&gt;Node005</title>
<path fill="none" stroke="#555555" stroke-dasharray="1,5" d="M683.32,-343.46C660.41,-315.84 612.05,-257.56 584.14,-223.93"/>
<polygon fill="#555555" stroke="#555555" points="586.26,-222 577.18,-216.54 580.88,-226.47 586.26,-222"/>
</g>
<!-- Node010 -->
<g id="node31" class="node">
<title>Node010</title>
<ellipse fill="#ffffff" stroke="#000000" cx="841.08" cy="-197.54" rx="132.76" ry="42.25"/>
<text text-anchor="middle" x="841.08" y="-210.11" font-family="Times,serif" font-size="14.00">You seem to be short on</text>
<text text-anchor="middle" x="841.08" y="-192.86" font-family="Times,serif" font-size="14.00">cash. Return later when</text>
<text text-anchor="middle" x="841.08" y="-175.61" font-family="Times,serif" font-size="14.00">your purse is fatter.</text>
</g>
<!-- NodeCurePoison&#45;&gt;Node010 -->
<g id="edge24" class="edge">
<title>NodeCurePoison&#45;&gt;Node010</title>
<path fill="none" stroke="#555555" stroke-dasharray="1,5" d="M709.46,-344.04C729.38,-322.01 767.75,-279.6 797.93,-246.23"/>
<polygon fill="#555555" stroke="#555555" points="799.91,-249.16 804.02,-239.39 794.72,-244.46 799.91,-249.16"/>
</g>
<!-- NodeCureHits&#45;&gt;Node005 -->
<g id="edge25" class="edge">
<title>NodeCureHits&#45;&gt;Node005</title>
<path fill="none" stroke="#555555" stroke-dasharray="1,5" d="M819.46,-348.54C785.47,-332.3 721.13,-301.27 699.08,-288.58 662.47,-267.52 622.36,-240.44 595.25,-221.5"/>
<polygon fill="#555555" stroke="#555555" points="597.77,-218.29 587.58,-215.41 593.75,-224.02 597.77,-218.29"/>
</g>
<!-- NodeCureHits&#45;&gt;Node010 -->
<g id="edge26" class="edge">
<title>NodeCureHits&#45;&gt;Node010</title>
<path fill="none" stroke="#555555" stroke-dasharray="1,5" d="M841.08,-341.37C841.08,-319.81 841.08,-282.17 841.08,-250.94"/>
<polygon fill="#555555" stroke="#555555" points="844.58,-251.2 841.08,-241.2 837.58,-251.2 844.58,-251.2"/>
</g>
<!-- NodeCureCripple&#45;&gt;Node005 -->
<g id="edge27" class="edge">
<title>NodeCureCripple&#45;&gt;Node005</title>
<path fill="none" stroke="#555555" stroke-dasharray="1,5" d="M750.95,-345.44C716.2,-318.27 637.01,-256.35 593.35,-222.21"/>
<polygon fill="#555555" stroke="#555555" points="595.9,-218.98 585.86,-215.57 591.58,-224.49 595.9,-218.98"/>
</g>
<!-- NodeCureCripple&#45;&gt;Node010 -->
<g id="edge28" class="edge">
<title>NodeCureCripple&#45;&gt;Node010</title>
<path fill="none" stroke="#555555" stroke-dasharray="1,5" d="M775.61,-342.28C785.52,-320.53 803.36,-281.35 817.92,-249.38"/>
<polygon fill="#555555" stroke="#555555" points="821.36,-251.27 822.32,-240.72 814.99,-248.37 821.36,-251.27"/>
</g>
<!-- Node005&#45;&gt;Node999 -->
<g id="edge15" class="edge">
<title>Node005&#45;&gt;Node999</title>
<path fill="none" stroke="#99004b" d="M547.2,-179.21C521.73,-151.7 469.74,-96.78 422.08,-54 416.41,-48.92 410.12,-43.69 404.11,-38.87"/>
<polygon fill="#99004b" stroke="#99004b" points="406.62,-35.61 396.6,-32.17 402.29,-41.11 406.62,-35.61"/>
<text text-anchor="middle" x="540.08" y="-75.2" font-family="Times,serif" font-size="14.00" fill="#99004b">Thank you; I feel much</text>
<text text-anchor="middle" x="540.08" y="-57.95" font-family="Times,serif" font-size="14.00" fill="#99004b">better. Bye.</text>
</g>
<!-- Node005&#45;&gt;Node004 -->
<g id="edge14" class="edge">
<title>Node005&#45;&gt;Node004</title>
<path fill="none" stroke="#1e9900" d="M548.56,-215.53C523.48,-247 476.38,-316.74 494.33,-377.83 504.68,-413.08 527.09,-445.48 551.44,-472.46"/>
<polygon fill="#1e9900" stroke="#1e9900" points="548.34,-474.34 557.7,-479.29 553.47,-469.58 548.34,-474.34"/>
<text text-anchor="middle" x="577.95" y="-363.78" font-family="Times,serif" font-size="14.00" fill="#1e9900">I am in need of more of</text>
<text text-anchor="middle" x="577.95" y="-346.53" font-family="Times,serif" font-size="14.00" fill="#1e9900">your skills.</text>
</g>
<!-- Node006 -->
<g id="node27" class="node">
<title>Node006</title>
<ellipse fill="#ffffff" stroke="#000000" cx="518.08" cy="-835.69" rx="141.24" ry="42.25"/>
<text text-anchor="middle" x="518.08" y="-848.26" font-family="Times,serif" font-size="14.00">My skills are limited,</text>
<text text-anchor="middle" x="518.08" y="-831.01" font-family="Times,serif" font-size="14.00">and I cannot help you any</text>
<text text-anchor="middle" x="518.08" y="-813.76" font-family="Times,serif" font-size="14.00">further in this area.</text>
</g>
<!-- Node006&#45;&gt;Node004 -->
<g id="edge16" class="edge">
<title>Node006&#45;&gt;Node004</title>
<path fill="none" stroke="#007899" d="M536.39,-793.36C552.12,-757.86 575.5,-705.09 596.37,-657.99"/>
<polygon fill="#007899" stroke="#007899" points="599.93,-659.59 600.78,-649.03 593.53,-656.76 599.93,-659.59"/>
<text text-anchor="middle" x="625.58" y="-676.76" font-family="Times,serif" font-size="14.00" fill="#007899">[Continue]</text>
</g>
<!-- Node007 -->
<g id="node28" class="node">
<title>Node007</title>
<ellipse fill="#ffffff" stroke="#000000" cx="804.08" cy="-835.69" rx="126.93" ry="30.05"/>
<text text-anchor="middle" x="804.08" y="-839.64" font-family="Times,serif" font-size="14.00">You do not require this</text>
<text text-anchor="middle" x="804.08" y="-822.39" font-family="Times,serif" font-size="14.00">type of healing.</text>
</g>
<!-- Node007&#45;&gt;Node004 -->
<g id="edge17" class="edge">
<title>Node007&#45;&gt;Node004</title>
<path fill="none" stroke="#998e00" d="M787.45,-805.56C767.06,-769.83 731.41,-707.35 700.63,-653.42"/>
<polygon fill="#998e00" stroke="#998e00" points="703.34,-652.11 695.34,-645.16 697.26,-655.58 703.34,-652.11"/>
<text text-anchor="middle" x="756.58" y="-676.76" font-family="Times,serif" font-size="14.00" fill="#998e00">[Continue]</text>
</g>
<!-- Node009 -->
<g id="node30" class="node">
<title>Node009</title>
<ellipse fill="#ffffff" stroke="#000000" cx="183.08" cy="-197.54" rx="138.06" ry="91.04"/>
<text text-anchor="middle" x="183.08" y="-244.61" font-family="Times,serif" font-size="14.00">[You watch as he</text>
<text text-anchor="middle" x="183.08" y="-227.36" font-family="Times,serif" font-size="14.00">carefully crushes and</text>
<text text-anchor="middle" x="183.08" y="-210.11" font-family="Times,serif" font-size="14.00">combines the two plants,</text>
<text text-anchor="middle" x="183.08" y="-192.86" font-family="Times,serif" font-size="14.00">and then hands you</text>
<text text-anchor="middle" x="183.08" y="-175.61" font-family="Times,serif" font-size="14.00">precisely</text>
<text text-anchor="middle" x="183.08" y="-158.36" font-family="Times,serif" font-size="14.00">measured doses of the</text>
<text text-anchor="middle" x="183.08" y="-141.11" font-family="Times,serif" font-size="14.00">powder.]</text>
</g>
<!-- NodeCombine&#45;&gt;Node009 -->
<g id="edge29" class="edge">
<title>NodeCombine&#45;&gt;Node009</title>
<path fill="none" stroke="#555555" stroke-dasharray="1,5" d="M165.22,-341.68C166.57,-330.81 168.45,-315.77 170.48,-299.51"/>
<polygon fill="#555555" stroke="#555555" points="174.07,-300.03 171.83,-289.67 167.12,-299.16 174.07,-300.03"/>
</g>
<!-- Node009&#45;&gt;Node999 -->
<g id="edge20" class="edge">
<title>Node009&#45;&gt;Node999</title>
<path fill="none" stroke="#990800" d="M241.72,-115C259.88,-93.36 281.07,-71.25 303.58,-54 315.87,-44.58 331.1,-36.86 344.59,-31.09"/>
<polygon fill="#990800" stroke="#990800" points="345.54,-34.08 353.48,-27.07 342.9,-27.59 345.54,-34.08"/>
<text text-anchor="middle" x="319.83" y="-66.58" font-family="Times,serif" font-size="14.00" fill="#990800">Bye.</text>
</g>
<!-- Node010&#45;&gt;Node999 -->
<g id="edge21" class="edge">
<title>Node010&#45;&gt;Node999</title>
<path fill="none" stroke="#002599" d="M795.53,-157.71C753.96,-124.51 689.36,-78.35 625.08,-54 554.62,-27.32 465.87,-20.74 416.22,-19.26"/>
<polygon fill="#002599" stroke="#002599" points="416.44,-15.74 406.35,-19 416.27,-22.74 416.44,-15.74"/>
<text text-anchor="middle" x="717.2" y="-66.58" font-family="Times,serif" font-size="14.00" fill="#002599">[END]</text>
</g>
</g>
</svg>
