<?xml version="1.0" encoding="UTF-8" standalone="no"?>
<!DOCTYPE svg PUBLIC "-//W3C//DTD SVG 1.1//EN"
 "http://www.w3.org/Graphics/SVG/1.1/DTD/svg11.dtd">
<!-- Generated by graphviz version 8.0.5 (0)
 -->
<!-- Title: ecunipat Pages: 1 -->
<svg width="998pt" height="140pt"
 viewBox="0.00 0.00 998.00 140.10" xmlns="http://www.w3.org/2000/svg" xmlns:xlink="http://www.w3.org/1999/xlink">
<g id="graph0" class="graph" transform="scale(1 1) rotate(0) translate(4 136.1)">
<title>ecunipat</title>
<polygon fill="white" stroke="none" points="-4,4 -4,-136.1 994,-136.1 994,4 -4,4"/>
<!-- checkPartyMembersNearDoor -->
<g id="node1" class="node">
<title>checkPartyMembersNearDoor</title>
<ellipse fill="#ffffff" stroke="#000000" cx="27" cy="-114.1" rx="27" ry="18"/>
</g>
<!-- start -->
<g id="node2" class="node">
<title>start</title>
<ellipse fill="#ffffff" stroke="#000000" cx="99" cy="-114.1" rx="27" ry="18"/>
</g>
<!-- critter_p_proc -->
<g id="node3" class="node">
<title>critter_p_proc</title>
<ellipse fill="#ffffff" stroke="#000000" cx="171" cy="-114.1" rx="27" ry="18"/>
</g>
<!-- pickup_p_proc -->
<g id="node4" class="node">
<title>pickup_p_proc</title>
<ellipse fill="#ffffff" stroke="#000000" cx="243" cy="-114.1" rx="27" ry="18"/>
</g>
<!-- talk_p_proc -->
<g id="node5" class="node">
<title>talk_p_proc</title>
<ellipse fill="#ffffff" stroke="#000000" cx="315" cy="-114.1" rx="27" ry="18"/>
</g>
<!-- Node001 -->
<g id="node6" class="node">
<title>Node001</title>
<ellipse fill="#ffffff" stroke="#000000" cx="315" cy="-30.05" rx="120.56" ry="30.05"/>
<text text-anchor="middle" x="315" y="-34" font-family="Times,serif" font-size="14.00">Treat our people with</text>
<text text-anchor="middle" x="315" y="-16.75" font-family="Times,serif" font-size="14.00">respect.</text>
</g>
<!-- talk_p_proc&#45;&gt;Node001 -->
<g id="edge1" class="edge">
<title>talk_p_proc&#45;&gt;Node001</title>
<path fill="none" stroke="#555555" stroke-dasharray="1,5" d="M315,-95.7C315,-88.49 315,-79.8 315,-71.17"/>
<polygon fill="#555555" stroke="#555555" points="318.5,-71.38 315,-61.38 311.5,-71.38 318.5,-71.38"/>
</g>
<!-- destroy_p_proc -->
<g id="node7" class="node">
<title>destroy_p_proc</title>
<ellipse fill="#ffffff" stroke="#000000" cx="387" cy="-114.1" rx="27" ry="18"/>
</g>
<!-- look_at_p_proc -->
<g id="node8" class="node">
<title>look_at_p_proc</title>
<ellipse fill="#ffffff" stroke="#000000" cx="459" cy="-114.1" rx="27" ry="18"/>
</g>
<!-- description_p_proc -->
<g id="node9" class="node">
<title>description_p_proc</title>
<ellipse fill="#ffffff" stroke="#000000" cx="531" cy="-114.1" rx="27" ry="18"/>
</g>
<!-- use_skill_on_p_proc -->
<g id="node10" class="node">
<title>use_skill_on_p_proc</title>
<ellipse fill="#ffffff" stroke="#000000" cx="603" cy="-114.1" rx="27" ry="18"/>
</g>
<!-- damage_p_proc -->
<g id="node11" class="node">
<title>damage_p_proc</title>
<ellipse fill="#ffffff" stroke="#000000" cx="675" cy="-114.1" rx="27" ry="18"/>
</g>
<!-- map_enter_p_proc -->
<g id="node12" class="node">
<title>map_enter_p_proc</title>
<ellipse fill="#ffffff" stroke="#000000" cx="747" cy="-114.1" rx="27" ry="18"/>
</g>
<!-- combat_p_proc -->
<g id="node13" class="node">
<title>combat_p_proc</title>
<ellipse fill="#ffffff" stroke="#000000" cx="819" cy="-114.1" rx="27" ry="18"/>
</g>
<!-- NodeFleeing -->
<g id="node14" class="node">
<title>NodeFleeing</title>
<ellipse fill="#ffffff" stroke="#000000" cx="726" cy="-30.05" rx="104.35" ry="18"/>
<text text-anchor="middle" x="726" y="-25.38" font-family="Times,serif" font-size="14.00">Look out! Raiders!</text>
</g>
<!-- combat_p_proc&#45;&gt;NodeFleeing -->
<g id="edge2" class="edge">
<title>combat_p_proc&#45;&gt;NodeFleeing</title>
<path fill="none" stroke="#555555" stroke-dasharray="1,5" d="M803.22,-99.19C789.63,-87.19 769.7,-69.61 753.49,-55.31"/>
<polygon fill="#555555" stroke="#555555" points="756.22,-53.17 746.41,-49.17 751.59,-58.42 756.22,-53.17"/>
</g>
<!-- NodeFighting -->
<g id="node15" class="node">
<title>NodeFighting</title>
<ellipse fill="#ffffff" stroke="#000000" cx="912" cy="-30.05" rx="63.31" ry="18"/>
<text text-anchor="middle" x="912" y="-25.38" font-family="Times,serif" font-size="14.00">For Unity!</text>
</g>
<!-- combat_p_proc&#45;&gt;NodeFighting -->
<g id="edge3" class="edge">
<title>combat_p_proc&#45;&gt;NodeFighting</title>
<path fill="none" stroke="#555555" stroke-dasharray="1,5" d="M834.78,-99.19C848.54,-87.04 868.82,-69.15 885.14,-54.75"/>
<polygon fill="#555555" stroke="#555555" points="887.07,-57.83 892.26,-48.59 882.44,-52.58 887.07,-57.83"/>
</g>
<!-- Node998 -->
<g id="node16" class="node">
<title>Node998</title>
<ellipse fill="#ffffff" stroke="#000000" cx="891" cy="-114.1" rx="27" ry="18"/>
</g>
<!-- Node999 -->
<g id="node17" class="node">
<title>Node999</title>
<ellipse fill="#ffffff" stroke="#000000" cx="963" cy="-114.1" rx="27" ry="18"/>
</g>
</g>
</svg>
