<?xml version="1.0" encoding="UTF-8" standalone="no"?>
<!DOCTYPE svg PUBLIC "-//W3C//DTD SVG 1.1//EN"
 "http://www.w3.org/Graphics/SVG/1.1/DTD/svg11.dtd">
<!-- Generated by graphviz version 8.0.5 (0)
 -->
<!-- Title: mcPerson Pages: 1 -->
<svg width="1657pt" height="116pt"
 viewBox="0.00 0.00 1657.00 116.00" xmlns="http://www.w3.org/2000/svg" xmlns:xlink="http://www.w3.org/1999/xlink">
<g id="graph0" class="graph" transform="scale(1 1) rotate(0) translate(4 112)">
<title>mcPerson</title>
<polygon fill="white" stroke="none" points="-4,4 -4,-112 1653,-112 1653,4 -4,4"/>
<!-- checkPartyMembersNearDoor -->
<g id="node1" class="node">
<title>checkPartyMembersNearDoor</title>
<ellipse fill="#ffffff" stroke="#000000" cx="27" cy="-90" rx="27" ry="18"/>
</g>
<!-- start -->
<g id="node2" class="node">
<title>start</title>
<ellipse fill="#ffffff" stroke="#000000" cx="99" cy="-90" rx="27" ry="18"/>
</g>
<!-- critter_p_proc -->
<g id="node3" class="node">
<title>critter_p_proc</title>
<ellipse fill="#ffffff" stroke="#000000" cx="171" cy="-90" rx="27" ry="18"/>
</g>
<!-- pickup_p_proc -->
<g id="node4" class="node">
<title>pickup_p_proc</title>
<ellipse fill="#ffffff" stroke="#000000" cx="243" cy="-90" rx="27" ry="18"/>
</g>
<!-- Node998 -->
<g id="node5" class="node">
<title>Node998</title>
<ellipse fill="#ffffff" stroke="#000000" cx="279" cy="-18" rx="27" ry="18"/>
</g>
<!-- pickup_p_proc&#45;&gt;Node998 -->
<g id="edge1" class="edge">
<title>pickup_p_proc&#45;&gt;Node998</title>
<path fill="none" stroke="#555555" stroke-dasharray="1,5" d="M251.35,-72.76C255.62,-64.46 260.92,-54.15 265.73,-44.79"/>
<polygon fill="#555555" stroke="#555555" points="269.23,-46.64 270.7,-36.15 263.01,-43.44 269.23,-46.64"/>
</g>
<!-- talk_p_proc -->
<g id="node6" class="node">
<title>talk_p_proc</title>
<ellipse fill="#ffffff" stroke="#000000" cx="567" cy="-90" rx="27" ry="18"/>
</g>
<!-- Node005 -->
<g id="node7" class="node">
<title>Node005</title>
<ellipse fill="#ffffff" stroke="#000000" cx="351" cy="-18" rx="27" ry="18"/>
</g>
<!-- talk_p_proc&#45;&gt;Node005 -->
<g id="edge2" class="edge">
<title>talk_p_proc&#45;&gt;Node005</title>
<path fill="none" stroke="#555555" stroke-dasharray="1,5" d="M541.85,-82.91C506.68,-74.1 441.04,-56.57 387,-36 385.31,-35.36 383.59,-34.67 381.87,-33.95"/>
<polygon fill="#555555" stroke="#555555" points="383.65,-30.47 373.08,-29.62 380.81,-36.87 383.65,-30.47"/>
</g>
<!-- Node006 -->
<g id="node8" class="node">
<title>Node006</title>
<ellipse fill="#ffffff" stroke="#000000" cx="423" cy="-18" rx="27" ry="18"/>
</g>
<!-- talk_p_proc&#45;&gt;Node006 -->
<g id="edge3" class="edge">
<title>talk_p_proc&#45;&gt;Node006</title>
<path fill="none" stroke="#555555" stroke-dasharray="1,5" d="M545.44,-78.52C521.12,-66.7 481.38,-47.38 453.8,-33.97"/>
<polygon fill="#555555" stroke="#555555" points="455.76,-30.55 445.24,-29.32 452.7,-36.84 455.76,-30.55"/>
</g>
<!-- Node007 -->
<g id="node9" class="node">
<title>Node007</title>
<ellipse fill="#ffffff" stroke="#000000" cx="495" cy="-18" rx="27" ry="18"/>
</g>
<!-- talk_p_proc&#45;&gt;Node007 -->
<g id="edge4" class="edge">
<title>talk_p_proc&#45;&gt;Node007</title>
<path fill="none" stroke="#555555" stroke-dasharray="1,5" d="M552.08,-74.5C542.14,-64.83 528.88,-51.94 517.65,-41.02"/>
<polygon fill="#555555" stroke="#555555" points="520.51,-38.95 510.9,-34.49 515.63,-43.97 520.51,-38.95"/>
</g>
<!-- Node004 -->
<g id="node10" class="node">
<title>Node004</title>
<ellipse fill="#ffffff" stroke="#000000" cx="567" cy="-18" rx="27" ry="18"/>
</g>
<!-- talk_p_proc&#45;&gt;Node004 -->
<g id="edge5" class="edge">
<title>talk_p_proc&#45;&gt;Node004</title>
<path fill="none" stroke="#555555" stroke-dasharray="1,5" d="M567,-71.7C567,-64.24 567,-55.32 567,-46.97"/>
<polygon fill="#555555" stroke="#555555" points="570.5,-47.1 567,-37.1 563.5,-47.1 570.5,-47.1"/>
</g>
<!-- Node003 -->
<g id="node11" class="node">
<title>Node003</title>
<ellipse fill="#ffffff" stroke="#000000" cx="639" cy="-18" rx="27" ry="18"/>
</g>
<!-- talk_p_proc&#45;&gt;Node003 -->
<g id="edge6" class="edge">
<title>talk_p_proc&#45;&gt;Node003</title>
<path fill="none" stroke="#555555" stroke-dasharray="1,5" d="M581.92,-74.5C591.86,-64.83 605.12,-51.94 616.35,-41.02"/>
<polygon fill="#555555" stroke="#555555" points="618.37,-43.97 623.1,-34.49 613.49,-38.95 618.37,-43.97"/>
</g>
<!-- Node002 -->
<g id="node12" class="node">
<title>Node002</title>
<ellipse fill="#ffffff" stroke="#000000" cx="711" cy="-18" rx="27" ry="18"/>
</g>
<!-- talk_p_proc&#45;&gt;Node002 -->
<g id="edge7" class="edge">
<title>talk_p_proc&#45;&gt;Node002</title>
<path fill="none" stroke="#555555" stroke-dasharray="1,5" d="M588.56,-78.52C612.88,-66.7 652.62,-47.38 680.2,-33.97"/>
<polygon fill="#555555" stroke="#555555" points="681.3,-36.84 688.76,-29.32 678.24,-30.55 681.3,-36.84"/>
</g>
<!-- Node001 -->
<g id="node13" class="node">
<title>Node001</title>
<ellipse fill="#ffffff" stroke="#000000" cx="783" cy="-18" rx="27" ry="18"/>
</g>
<!-- talk_p_proc&#45;&gt;Node001 -->
<g id="edge8" class="edge">
<title>talk_p_proc&#45;&gt;Node001</title>
<path fill="none" stroke="#555555" stroke-dasharray="1,5" d="M588.03,-78.23C592.87,-75.98 598.05,-73.77 603,-72 665.13,-49.81 684.87,-58.19 747,-36 748.7,-35.39 750.43,-34.73 752.16,-34.04"/>
<polygon fill="#555555" stroke="#555555" points="753.19,-36.97 760.97,-29.77 750.41,-30.55 753.19,-36.97"/>
</g>
<!-- destroy_p_proc -->
<g id="node14" class="node">
<title>destroy_p_proc</title>
<ellipse fill="#ffffff" stroke="#000000" cx="639" cy="-90" rx="27" ry="18"/>
</g>
<!-- look_at_p_proc -->
<g id="node15" class="node">
<title>look_at_p_proc</title>
<ellipse fill="#ffffff" stroke="#000000" cx="813" cy="-90" rx="128.55" ry="18"/>
<text text-anchor="middle" x="813" y="-85.33" font-family="Times,serif" font-size="14.00">You see a townsperson.</text>
</g>
<!-- description_p_proc -->
<g id="node16" class="node">
<title>description_p_proc</title>
<ellipse fill="#ffffff" stroke="#000000" cx="1088" cy="-90" rx="128.55" ry="18"/>
<text text-anchor="middle" x="1088" y="-85.33" font-family="Times,serif" font-size="14.00">You see a townsperson.</text>
</g>
<!-- use_skill_on_p_proc -->
<g id="node17" class="node">
<title>use_skill_on_p_proc</title>
<ellipse fill="#ffffff" stroke="#000000" cx="1262" cy="-90" rx="27" ry="18"/>
</g>
<!-- damage_p_proc -->
<g id="node18" class="node">
<title>damage_p_proc</title>
<ellipse fill="#ffffff" stroke="#000000" cx="315" cy="-90" rx="27" ry="18"/>
</g>
<!-- damage_p_proc&#45;&gt;Node998 -->
<g id="edge9" class="edge">
<title>damage_p_proc&#45;&gt;Node998</title>
<path fill="none" stroke="#555555" stroke-dasharray="1,5" d="M306.65,-72.76C302.38,-64.46 297.08,-54.15 292.27,-44.79"/>
<polygon fill="#555555" stroke="#555555" points="294.99,-43.44 287.3,-36.15 288.77,-46.64 294.99,-43.44"/>
</g>
<!-- map_enter_p_proc -->
<g id="node19" class="node">
<title>map_enter_p_proc</title>
<ellipse fill="#ffffff" stroke="#000000" cx="1334" cy="-90" rx="27" ry="18"/>
</g>
<!-- combat_p_proc -->
<g id="node20" class="node">
<title>combat_p_proc</title>
<ellipse fill="#ffffff" stroke="#000000" cx="1406" cy="-90" rx="27" ry="18"/>
</g>
<!-- push_p_proc -->
<g id="node21" class="node">
<title>push_p_proc</title>
<ellipse fill="#ffffff" stroke="#000000" cx="1478" cy="-90" rx="27" ry="18"/>
</g>
<!-- Node999 -->
<g id="node22" class="node">
<title>Node999</title>
<ellipse fill="#ffffff" stroke="#000000" cx="1550" cy="-90" rx="27" ry="18"/>
</g>
<!-- timed_event_p_proc -->
<g id="node23" class="node">
<title>timed_event_p_proc</title>
<ellipse fill="#ffffff" stroke="#000000" cx="1622" cy="-90" rx="27" ry="18"/>
</g>
</g>
</svg>
