<?xml version="1.0" encoding="UTF-8" standalone="no"?>
<!DOCTYPE svg PUBLIC "-//W3C//DTD SVG 1.1//EN"
 "http://www.w3.org/Graphics/SVG/1.1/DTD/svg11.dtd">
<!-- Generated by graphviz version 8.0.5 (0)
 -->
<!-- Title: ncBoxFan Pages: 1 -->
<svg width="2394pt" height="286pt"
 viewBox="0.00 0.00 2394.33 286.18" xmlns="http://www.w3.org/2000/svg" xmlns:xlink="http://www.w3.org/1999/xlink">
<g id="graph0" class="graph" transform="scale(1 1) rotate(0) translate(4 282.18)">
<title>ncBoxFan</title>
<polygon fill="white" stroke="none" points="-4,4 -4,-282.18 2390.33,-282.18 2390.33,4 -4,4"/>
<!-- checkPartyMembersNearDoor -->
<g id="node1" class="node">
<title>checkPartyMembersNearDoor</title>
<ellipse fill="#ffffff" stroke="#000000" cx="27" cy="-248.13" rx="27" ry="18"/>
</g>
<!-- ChooseFromList -->
<g id="node2" class="node">
<title>ChooseFromList</title>
<ellipse fill="#ffffff" stroke="#000000" cx="148" cy="-91.04" rx="143.37" ry="91.04"/>
<text text-anchor="middle" x="148" y="-138.11" font-family="Times,serif" font-size="14.00">You see a wild&#45;looking</text>
<text text-anchor="middle" x="148" y="-120.86" font-family="Times,serif" font-size="14.00">man. He is yelling his</text>
<text text-anchor="middle" x="148" y="-103.61" font-family="Times,serif" font-size="14.00">head off about something.</text>
<text text-anchor="middle" x="148" y="-86.36" font-family="Times,serif" font-size="14.00">&#45;&#45;&#45;</text>
<text text-anchor="middle" x="148" y="-69.11" font-family="Times,serif" font-size="14.00">You see a rabid boxing</text>
<text text-anchor="middle" x="148" y="-51.86" font-family="Times,serif" font-size="14.00">fan. He is screaming for</text>
<text text-anchor="middle" x="148" y="-34.61" font-family="Times,serif" font-size="14.00">blood.</text>
</g>
<!-- CLICK_PREV -->
<g id="node3" class="node">
<title>CLICK_PREV</title>
<ellipse fill="#ffffff" stroke="#000000" cx="99" cy="-248.13" rx="27" ry="18"/>
</g>
<!-- CLICK_PREV&#45;&gt;ChooseFromList -->
<g id="edge1" class="edge">
<title>CLICK_PREV&#45;&gt;ChooseFromList</title>
<path fill="none" stroke="#555555" stroke-dasharray="1,5" d="M104.34,-230.24C107.57,-220 111.99,-206.01 116.78,-190.84"/>
<polygon fill="#555555" stroke="#555555" points="120.3,-192.32 119.98,-181.73 113.63,-190.21 120.3,-192.32"/>
</g>
<!-- CLICK_0 -->
<g id="node4" class="node">
<title>CLICK_0</title>
<ellipse fill="#ffffff" stroke="#000000" cx="265" cy="-248.13" rx="27" ry="18"/>
</g>
<!-- stored_node -->
<g id="node5" class="node">
<title>stored_node</title>
<ellipse fill="none" stroke="black" cx="409" cy="-91.04" rx="72.25" ry="18"/>
<text text-anchor="middle" x="409" y="-86.36" font-family="Times,serif" font-size="14.00">stored_node</text>
</g>
<!-- CLICK_0&#45;&gt;stored_node -->
<g id="edge2" class="edge">
<title>CLICK_0&#45;&gt;stored_node</title>
<path fill="none" stroke="#555555" stroke-dasharray="1,5" d="M278.81,-232.26C303.6,-205.56 355.88,-149.26 386.1,-116.7"/>
<polygon fill="#555555" stroke="#555555" points="388.04,-119.68 392.28,-109.97 382.91,-114.91 388.04,-119.68"/>
</g>
<!-- CLICK_1 -->
<g id="node6" class="node">
<title>CLICK_1</title>
<ellipse fill="#ffffff" stroke="#000000" cx="337" cy="-248.13" rx="27" ry="18"/>
</g>
<!-- CLICK_1&#45;&gt;stored_node -->
<g id="edge3" class="edge">
<title>CLICK_1&#45;&gt;stored_node</title>
<path fill="none" stroke="#555555" stroke-dasharray="1,5" d="M344.71,-230.53C357.14,-203.74 381.76,-150.72 396.66,-118.62"/>
<polygon fill="#555555" stroke="#555555" points="400.1,-120.53 401.13,-109.99 393.75,-117.58 400.1,-120.53"/>
</g>
<!-- CLICK_2 -->
<g id="node7" class="node">
<title>CLICK_2</title>
<ellipse fill="#ffffff" stroke="#000000" cx="409" cy="-248.13" rx="27" ry="18"/>
</g>
<!-- CLICK_2&#45;&gt;stored_node -->
<g id="edge4" class="edge">
<title>CLICK_2&#45;&gt;stored_node</title>
<path fill="none" stroke="#555555" stroke-dasharray="1,5" d="M409,-229.64C409,-202.97 409,-151.88 409,-120.02"/>
<polygon fill="#555555" stroke="#555555" points="412.5,-120.23 409,-110.23 405.5,-120.23 412.5,-120.23"/>
</g>
<!-- CLICK_3 -->
<g id="node8" class="node">
<title>CLICK_3</title>
<ellipse fill="#ffffff" stroke="#000000" cx="481" cy="-248.13" rx="27" ry="18"/>
</g>
<!-- CLICK_3&#45;&gt;stored_node -->
<g id="edge5" class="edge">
<title>CLICK_3&#45;&gt;stored_node</title>
<path fill="none" stroke="#555555" stroke-dasharray="1,5" d="M473.29,-230.53C460.86,-203.74 436.24,-150.72 421.34,-118.62"/>
<polygon fill="#555555" stroke="#555555" points="424.25,-117.58 416.87,-109.99 417.9,-120.53 424.25,-117.58"/>
</g>
<!-- CLICK_4 -->
<g id="node9" class="node">
<title>CLICK_4</title>
<ellipse fill="#ffffff" stroke="#000000" cx="553" cy="-248.13" rx="27" ry="18"/>
</g>
<!-- CLICK_4&#45;&gt;stored_node -->
<g id="edge6" class="edge">
<title>CLICK_4&#45;&gt;stored_node</title>
<path fill="none" stroke="#555555" stroke-dasharray="1,5" d="M538.87,-232.5C526.24,-219.37 507.27,-199.55 491,-182.08 470.63,-160.21 447.75,-135.04 431.35,-116.88"/>
<polygon fill="#555555" stroke="#555555" points="434.6,-115.15 425.3,-110.07 429.4,-119.84 434.6,-115.15"/>
</g>
<!-- CLICK_MORE -->
<g id="node10" class="node">
<title>CLICK_MORE</title>
<ellipse fill="#ffffff" stroke="#000000" cx="171" cy="-248.13" rx="27" ry="18"/>
</g>
<!-- CLICK_MORE&#45;&gt;ChooseFromList -->
<g id="edge7" class="edge">
<title>CLICK_MORE&#45;&gt;ChooseFromList</title>
<path fill="none" stroke="#555555" stroke-dasharray="1,5" d="M168.45,-229.94C166.99,-220.11 165.03,-206.88 162.9,-192.49"/>
<polygon fill="#555555" stroke="#555555" points="166.25,-192.23 161.32,-182.85 159.32,-193.25 166.25,-192.23"/>
</g>
<!-- start -->
<g id="node11" class="node">
<title>start</title>
<ellipse fill="#ffffff" stroke="#000000" cx="632" cy="-248.13" rx="27" ry="18"/>
</g>
<!-- critter_p_proc -->
<g id="node12" class="node">
<title>critter_p_proc</title>
<ellipse fill="#ffffff" stroke="#000000" cx="730" cy="-248.13" rx="27" ry="18"/>
</g>
<!-- pickup_p_proc -->
<g id="node13" class="node">
<title>pickup_p_proc</title>
<ellipse fill="#ffffff" stroke="#000000" cx="815" cy="-248.13" rx="27" ry="18"/>
</g>
<!-- talk_p_proc -->
<g id="node14" class="node">
<title>talk_p_proc</title>
<ellipse fill="#ffffff" stroke="#000000" cx="894" cy="-248.13" rx="27" ry="18"/>
</g>
<!-- Node006 -->
<g id="node15" class="node">
<title>Node006</title>
<ellipse fill="#ffffff" stroke="#000000" cx="625" cy="-91.04" rx="125.33" ry="78.84"/>
<text text-anchor="middle" x="625" y="-129.49" font-family="Times,serif" font-size="14.00">You see a rabid boxing</text>
<text text-anchor="middle" x="625" y="-112.24" font-family="Times,serif" font-size="14.00">fan.</text>
<text text-anchor="middle" x="625" y="-94.99" font-family="Times,serif" font-size="14.00">&#45;&#45;&#45;</text>
<text text-anchor="middle" x="625" y="-77.74" font-family="Times,serif" font-size="14.00">[]</text>
<text text-anchor="middle" x="625" y="-60.49" font-family="Times,serif" font-size="14.00">&#45;&#45;&#45;</text>
<text text-anchor="middle" x="625" y="-43.24" font-family="Times,serif" font-size="14.00">[]</text>
</g>
<!-- talk_p_proc&#45;&gt;Node006 -->
<g id="edge8" class="edge">
<title>talk_p_proc&#45;&gt;Node006</title>
<path fill="none" stroke="#555555" stroke-dasharray="1,5" d="M876.55,-234.07C868.94,-228.72 859.77,-222.7 851,-218.08 812.53,-197.79 798.53,-202.26 760,-182.08 745.43,-174.45 730.48,-165.62 716.09,-156.52"/>
<polygon fill="#555555" stroke="#555555" points="718.52,-153.28 708.21,-150.84 714.75,-159.18 718.52,-153.28"/>
</g>
<!-- Node005 -->
<g id="node16" class="node">
<title>Node005</title>
<ellipse fill="#ffffff" stroke="#000000" cx="894" cy="-91.04" rx="125.33" ry="78.84"/>
<text text-anchor="middle" x="894" y="-129.49" font-family="Times,serif" font-size="14.00">You see a rabid boxing</text>
<text text-anchor="middle" x="894" y="-112.24" font-family="Times,serif" font-size="14.00">fan.</text>
<text text-anchor="middle" x="894" y="-94.99" font-family="Times,serif" font-size="14.00">&#45;&#45;&#45;</text>
<text text-anchor="middle" x="894" y="-77.74" font-family="Times,serif" font-size="14.00">[]</text>
<text text-anchor="middle" x="894" y="-60.49" font-family="Times,serif" font-size="14.00">&#45;&#45;&#45;</text>
<text text-anchor="middle" x="894" y="-43.24" font-family="Times,serif" font-size="14.00">[]</text>
</g>
<!-- talk_p_proc&#45;&gt;Node005 -->
<g id="edge9" class="edge">
<title>talk_p_proc&#45;&gt;Node005</title>
<path fill="none" stroke="#555555" stroke-dasharray="1,5" d="M894,-229.64C894,-217.26 894,-199.61 894,-181.07"/>
<polygon fill="#555555" stroke="#555555" points="897.5,-181.08 894,-171.08 890.5,-181.08 897.5,-181.08"/>
</g>
<!-- Node004 -->
<g id="node17" class="node">
<title>Node004</title>
<ellipse fill="#ffffff" stroke="#000000" cx="1174" cy="-91.04" rx="136.47" ry="66.64"/>
<text text-anchor="middle" x="1174" y="-120.86" font-family="Times,serif" font-size="14.00">You see a rabid boxing</text>
<text text-anchor="middle" x="1174" y="-103.61" font-family="Times,serif" font-size="14.00">fan.</text>
<text text-anchor="middle" x="1174" y="-86.36" font-family="Times,serif" font-size="14.00">&#45;&#45;&#45;</text>
<text text-anchor="middle" x="1174" y="-69.11" font-family="Times,serif" font-size="14.00">is the best boxing</text>
<text text-anchor="middle" x="1174" y="-51.86" font-family="Times,serif" font-size="14.00">champion I&#39;ve ever seen.</text>
</g>
<!-- talk_p_proc&#45;&gt;Node004 -->
<g id="edge10" class="edge">
<title>talk_p_proc&#45;&gt;Node004</title>
<path fill="none" stroke="#555555" stroke-dasharray="1,5" d="M916.16,-237.21C943.02,-224.99 989.47,-203.24 1028,-182.08 1045.89,-172.25 1064.67,-161.23 1082.58,-150.36"/>
<polygon fill="#555555" stroke="#555555" points="1084.14,-152.9 1090.86,-144.7 1080.5,-146.92 1084.14,-152.9"/>
</g>
<!-- destroy_p_proc -->
<g id="node18" class="node">
<title>destroy_p_proc</title>
<ellipse fill="#ffffff" stroke="#000000" cx="1103" cy="-248.13" rx="27" ry="18"/>
</g>
<!-- look_at_p_proc -->
<g id="node19" class="node">
<title>look_at_p_proc</title>
<ellipse fill="#ffffff" stroke="#000000" cx="1337" cy="-248.13" rx="125.33" ry="30.05"/>
<text text-anchor="middle" x="1337" y="-252.08" font-family="Times,serif" font-size="14.00">You see a rabid boxing</text>
<text text-anchor="middle" x="1337" y="-234.83" font-family="Times,serif" font-size="14.00">fan.</text>
</g>
<!-- description_p_proc -->
<g id="node20" class="node">
<title>description_p_proc</title>
<ellipse fill="#ffffff" stroke="#000000" cx="1539" cy="-248.13" rx="27" ry="18"/>
</g>
<!-- use_skill_on_p_proc -->
<g id="node21" class="node">
<title>use_skill_on_p_proc</title>
<ellipse fill="#ffffff" stroke="#000000" cx="1627" cy="-248.13" rx="27" ry="18"/>
</g>
<!-- damage_p_proc -->
<g id="node22" class="node">
<title>damage_p_proc</title>
<ellipse fill="#ffffff" stroke="#000000" cx="1707" cy="-248.13" rx="27" ry="18"/>
</g>
<!-- map_enter_p_proc -->
<g id="node23" class="node">
<title>map_enter_p_proc</title>
<ellipse fill="#ffffff" stroke="#000000" cx="1783" cy="-248.13" rx="27" ry="18"/>
</g>
<!-- timed_event_p_proc -->
<g id="node24" class="node">
<title>timed_event_p_proc</title>
<ellipse fill="#ffffff" stroke="#000000" cx="1857" cy="-248.13" rx="27" ry="18"/>
</g>
<!-- Node007 -->
<g id="node25" class="node">
<title>Node007</title>
<ellipse fill="#ffffff" stroke="#000000" cx="1454" cy="-91.04" rx="125.33" ry="78.84"/>
<text text-anchor="middle" x="1454" y="-129.49" font-family="Times,serif" font-size="14.00">You see a rabid boxing</text>
<text text-anchor="middle" x="1454" y="-112.24" font-family="Times,serif" font-size="14.00">fan.</text>
<text text-anchor="middle" x="1454" y="-94.99" font-family="Times,serif" font-size="14.00">&#45;&#45;&#45;</text>
<text text-anchor="middle" x="1454" y="-77.74" font-family="Times,serif" font-size="14.00">[]</text>
<text text-anchor="middle" x="1454" y="-60.49" font-family="Times,serif" font-size="14.00">&#45;&#45;&#45;</text>
<text text-anchor="middle" x="1454" y="-43.24" font-family="Times,serif" font-size="14.00">[]</text>
</g>
<!-- timed_event_p_proc&#45;&gt;Node007 -->
<g id="edge11" class="edge">
<title>timed_event_p_proc&#45;&gt;Node007</title>
<path fill="none" stroke="#555555" stroke-dasharray="1,5" d="M1841.85,-232.76C1835.3,-227.33 1827.25,-221.61 1819,-218.08 1723.86,-177.41 1685.4,-219.66 1589,-182.08 1573.02,-175.85 1557.01,-167.49 1541.89,-158.37"/>
<polygon fill="#555555" stroke="#555555" points="1543.93,-154.9 1533.59,-152.61 1540.24,-160.85 1543.93,-154.9"/>
</g>
<!-- Node003 -->
<g id="node26" class="node">
<title>Node003</title>
<ellipse fill="#ffffff" stroke="#000000" cx="1723" cy="-91.04" rx="125.33" ry="54.45"/>
<text text-anchor="middle" x="1723" y="-112.24" font-family="Times,serif" font-size="14.00">You see a rabid boxing</text>
<text text-anchor="middle" x="1723" y="-94.99" font-family="Times,serif" font-size="14.00">fan.</text>
<text text-anchor="middle" x="1723" y="-77.74" font-family="Times,serif" font-size="14.00">&#45;&#45;&#45;</text>
<text text-anchor="middle" x="1723" y="-60.49" font-family="Times,serif" font-size="14.00">[]</text>
</g>
<!-- timed_event_p_proc&#45;&gt;Node003 -->
<g id="edge12" class="edge">
<title>timed_event_p_proc&#45;&gt;Node003</title>
<path fill="none" stroke="#555555" stroke-dasharray="1,5" d="M1843.91,-231.98C1827.65,-213.17 1798.98,-179.98 1773.63,-150.64"/>
<polygon fill="#555555" stroke="#555555" points="1775.77,-148.76 1766.58,-143.48 1770.47,-153.34 1775.77,-148.76"/>
</g>
<!-- Node002 -->
<g id="node27" class="node">
<title>Node002</title>
<ellipse fill="#ffffff" stroke="#000000" cx="1992" cy="-91.04" rx="125.33" ry="78.84"/>
<text text-anchor="middle" x="1992" y="-129.49" font-family="Times,serif" font-size="14.00">You see a rabid boxing</text>
<text text-anchor="middle" x="1992" y="-112.24" font-family="Times,serif" font-size="14.00">fan.</text>
<text text-anchor="middle" x="1992" y="-94.99" font-family="Times,serif" font-size="14.00">&#45;&#45;&#45;</text>
<text text-anchor="middle" x="1992" y="-77.74" font-family="Times,serif" font-size="14.00">[]</text>
<text text-anchor="middle" x="1992" y="-60.49" font-family="Times,serif" font-size="14.00">&#45;&#45;&#45;</text>
<text text-anchor="middle" x="1992" y="-43.24" font-family="Times,serif" font-size="14.00">[]</text>
</g>
<!-- timed_event_p_proc&#45;&gt;Node002 -->
<g id="edge13" class="edge">
<title>timed_event_p_proc&#45;&gt;Node002</title>
<path fill="none" stroke="#555555" stroke-dasharray="1,5" d="M1870.19,-231.98C1883.24,-216.98 1904.25,-192.84 1925.18,-168.81"/>
<polygon fill="#555555" stroke="#555555" points="1928.33,-171.51 1932.26,-161.67 1923.05,-166.92 1928.33,-171.51"/>
</g>
<!-- Node001 -->
<g id="node28" class="node">
<title>Node001</title>
<ellipse fill="#ffffff" stroke="#000000" cx="2261" cy="-91.04" rx="125.33" ry="30.05"/>
<text text-anchor="middle" x="2261" y="-94.99" font-family="Times,serif" font-size="14.00">You see a rabid boxing</text>
<text text-anchor="middle" x="2261" y="-77.74" font-family="Times,serif" font-size="14.00">fan.</text>
</g>
<!-- timed_event_p_proc&#45;&gt;Node001 -->
<g id="edge14" class="edge">
<title>timed_event_p_proc&#45;&gt;Node001</title>
<path fill="none" stroke="#555555" stroke-dasharray="1,5" d="M1871.23,-232.74C1877.42,-227.3 1885.07,-221.59 1893,-218.08 1988.84,-175.72 2028.34,-220.04 2126,-182.08 2159.71,-168.98 2193.55,-146.38 2218.92,-127.1"/>
<polygon fill="#555555" stroke="#555555" points="2220.76,-129.32 2226.53,-120.44 2216.48,-123.79 2220.76,-129.32"/>
</g>
<!-- map_exit_p_proc -->
<g id="node29" class="node">
<title>map_exit_p_proc</title>
<ellipse fill="#ffffff" stroke="#000000" cx="1929" cy="-248.13" rx="27" ry="18"/>
</g>
<!-- Node998 -->
<g id="node30" class="node">
<title>Node998</title>
<ellipse fill="#ffffff" stroke="#000000" cx="2001" cy="-248.13" rx="27" ry="18"/>
</g>
<!-- Node999 -->
<g id="node31" class="node">
<title>Node999</title>
<ellipse fill="#ffffff" stroke="#000000" cx="2073" cy="-248.13" rx="27" ry="18"/>
</g>
</g>
</svg>
