<?xml version="1.0" encoding="UTF-8" standalone="no"?>
<!DOCTYPE svg PUBLIC "-//W3C//DTD SVG 1.1//EN"
 "http://www.w3.org/Graphics/SVG/1.1/DTD/svg11.dtd">
<!-- Generated by graphviz version 8.0.5 (0)
 -->
<!-- Title: ncPrzFtr Pages: 1 -->
<svg width="1554pt" height="262pt"
 viewBox="0.00 0.00 1554.00 261.79" xmlns="http://www.w3.org/2000/svg" xmlns:xlink="http://www.w3.org/1999/xlink">
<g id="graph0" class="graph" transform="scale(1 1) rotate(0) translate(4 257.79)">
<title>ncPrzFtr</title>
<polygon fill="white" stroke="none" points="-4,4 -4,-257.79 1550,-257.79 1550,4 -4,4"/>
<!-- checkPartyMembersNearDoor -->
<g id="node1" class="node">
<title>checkPartyMembersNearDoor</title>
<ellipse fill="#ffffff" stroke="#000000" cx="27" cy="-211.54" rx="27" ry="18"/>
</g>
<!-- ChooseFromList -->
<g id="node2" class="node">
<title>ChooseFromList</title>
<ellipse fill="#ffffff" stroke="#000000" cx="135" cy="-66.64" rx="112.61" ry="66.64"/>
<text text-anchor="middle" x="135" y="-96.47" font-family="Times,serif" font-size="14.00">He looks pretty</text>
<text text-anchor="middle" x="135" y="-79.22" font-family="Times,serif" font-size="14.00">run&#45;of&#45;the&#45;mill.</text>
<text text-anchor="middle" x="135" y="-61.97" font-family="Times,serif" font-size="14.00">&#45;&#45;&#45;</text>
<text text-anchor="middle" x="135" y="-44.72" font-family="Times,serif" font-size="14.00">Doesn&#39;t look all that</text>
<text text-anchor="middle" x="135" y="-27.47" font-family="Times,serif" font-size="14.00">tough.</text>
</g>
<!-- CLICK_PREV -->
<g id="node3" class="node">
<title>CLICK_PREV</title>
<ellipse fill="#ffffff" stroke="#000000" cx="99" cy="-211.54" rx="27" ry="18"/>
</g>
<!-- CLICK_PREV&#45;&gt;ChooseFromList -->
<g id="edge1" class="edge">
<title>CLICK_PREV&#45;&gt;ChooseFromList</title>
<path fill="none" stroke="#555555" stroke-dasharray="1,5" d="M103.34,-193.3C106.56,-180.53 111.19,-162.14 115.93,-143.36"/>
<polygon fill="#555555" stroke="#555555" points="119.51,-144.47 118.56,-133.91 112.72,-142.76 119.51,-144.47"/>
</g>
<!-- CLICK_0 -->
<g id="node4" class="node">
<title>CLICK_0</title>
<ellipse fill="#ffffff" stroke="#000000" cx="243" cy="-211.54" rx="27" ry="18"/>
</g>
<!-- stored_node -->
<g id="node5" class="node">
<title>stored_node</title>
<ellipse fill="none" stroke="black" cx="387" cy="-66.64" rx="72.25" ry="18"/>
<text text-anchor="middle" x="387" y="-61.97" font-family="Times,serif" font-size="14.00">stored_node</text>
</g>
<!-- CLICK_0&#45;&gt;stored_node -->
<g id="edge2" class="edge">
<title>CLICK_0&#45;&gt;stored_node</title>
<path fill="none" stroke="#555555" stroke-dasharray="1,5" d="M255.65,-195.33C262.4,-187.4 270.96,-177.64 279,-169.29 305.61,-141.66 337.82,-111.77 360.1,-91.6"/>
<polygon fill="#555555" stroke="#555555" points="362.04,-94.67 367.13,-85.38 357.35,-89.47 362.04,-94.67"/>
</g>
<!-- CLICK_1 -->
<g id="node6" class="node">
<title>CLICK_1</title>
<ellipse fill="#ffffff" stroke="#000000" cx="315" cy="-211.54" rx="27" ry="18"/>
</g>
<!-- CLICK_1&#45;&gt;stored_node -->
<g id="edge3" class="edge">
<title>CLICK_1&#45;&gt;stored_node</title>
<path fill="none" stroke="#555555" stroke-dasharray="1,5" d="M323.26,-194.15C335.55,-169.75 358.79,-123.63 373.55,-94.33"/>
<polygon fill="#555555" stroke="#555555" points="377.02,-96.24 378.39,-85.73 370.77,-93.09 377.02,-96.24"/>
</g>
<!-- CLICK_2 -->
<g id="node7" class="node">
<title>CLICK_2</title>
<ellipse fill="#ffffff" stroke="#000000" cx="387" cy="-211.54" rx="27" ry="18"/>
</g>
<!-- CLICK_2&#45;&gt;stored_node -->
<g id="edge4" class="edge">
<title>CLICK_2&#45;&gt;stored_node</title>
<path fill="none" stroke="#555555" stroke-dasharray="1,5" d="M387,-193.3C387,-169.06 387,-124.6 387,-95.59"/>
<polygon fill="#555555" stroke="#555555" points="390.5,-95.94 387,-85.94 383.5,-95.94 390.5,-95.94"/>
</g>
<!-- CLICK_3 -->
<g id="node8" class="node">
<title>CLICK_3</title>
<ellipse fill="#ffffff" stroke="#000000" cx="459" cy="-211.54" rx="27" ry="18"/>
</g>
<!-- CLICK_3&#45;&gt;stored_node -->
<g id="edge5" class="edge">
<title>CLICK_3&#45;&gt;stored_node</title>
<path fill="none" stroke="#555555" stroke-dasharray="1,5" d="M450.74,-194.15C438.45,-169.75 415.21,-123.63 400.45,-94.33"/>
<polygon fill="#555555" stroke="#555555" points="403.23,-93.09 395.61,-85.73 396.98,-96.24 403.23,-93.09"/>
</g>
<!-- CLICK_4 -->
<g id="node9" class="node">
<title>CLICK_4</title>
<ellipse fill="#ffffff" stroke="#000000" cx="531" cy="-211.54" rx="27" ry="18"/>
</g>
<!-- CLICK_4&#45;&gt;stored_node -->
<g id="edge6" class="edge">
<title>CLICK_4&#45;&gt;stored_node</title>
<path fill="none" stroke="#555555" stroke-dasharray="1,5" d="M518.35,-195.33C511.6,-187.4 503.04,-177.64 495,-169.29 468.39,-141.66 436.18,-111.77 413.9,-91.6"/>
<polygon fill="#555555" stroke="#555555" points="416.65,-89.47 406.87,-85.38 411.96,-94.67 416.65,-89.47"/>
</g>
<!-- CLICK_MORE -->
<g id="node10" class="node">
<title>CLICK_MORE</title>
<ellipse fill="#ffffff" stroke="#000000" cx="171" cy="-211.54" rx="27" ry="18"/>
</g>
<!-- CLICK_MORE&#45;&gt;ChooseFromList -->
<g id="edge7" class="edge">
<title>CLICK_MORE&#45;&gt;ChooseFromList</title>
<path fill="none" stroke="#555555" stroke-dasharray="1,5" d="M166.66,-193.3C163.44,-180.53 158.81,-162.14 154.07,-143.36"/>
<polygon fill="#555555" stroke="#555555" points="157.28,-142.76 151.44,-133.91 150.49,-144.47 157.28,-142.76"/>
</g>
<!-- start -->
<g id="node11" class="node">
<title>start</title>
<ellipse fill="#ffffff" stroke="#000000" cx="603" cy="-211.54" rx="27" ry="18"/>
</g>
<!-- critter_p_proc -->
<g id="node12" class="node">
<title>critter_p_proc</title>
<ellipse fill="#ffffff" stroke="#000000" cx="963" cy="-211.54" rx="27" ry="18"/>
</g>
<!-- fight over: start&quot;) -->
<g id="node13" class="node">
<title>fight over: start&quot;)</title>
<ellipse fill="none" stroke="black" cx="753" cy="-66.64" rx="99.08" ry="18"/>
<text text-anchor="middle" x="753" y="-61.97" font-family="Times,serif" font-size="14.00">fight over: start&quot;)</text>
</g>
<!-- critter_p_proc&#45;&gt;fight over: start&quot;) -->
<g id="edge8" class="edge">
<title>critter_p_proc&#45;&gt;fight over: start&quot;)</title>
<path fill="none" stroke="#555555" stroke-dasharray="1,5" d="M941.76,-200.48C931.12,-191.52 920.42,-178.45 909,-169.29 882.94,-148.38 871.95,-149.97 843,-133.29 819.36,-119.67 793.21,-103.8 774.63,-91.07"/>
<polygon fill="#555555" stroke="#555555" points="776.84,-87.64 766.65,-84.73 772.8,-93.36 776.84,-87.64"/>
</g>
<!-- critter_p_proc&#45;&gt;fight over: start&quot;) -->
<g id="edge10" class="edge">
<title>critter_p_proc&#45;&gt;fight over: start&quot;)</title>
<path fill="none" stroke="#555555" stroke-dasharray="1,5" d="M951.49,-194.83C944.93,-186.58 936.19,-176.67 927,-169.29 900.94,-148.38 889.95,-149.97 861,-133.29 836.76,-119.32 809.89,-102.99 789.01,-90.11"/>
<polygon fill="#555555" stroke="#555555" points="791.21,-86.74 780.87,-84.45 787.53,-92.69 791.21,-86.74"/>
</g>
<!-- critter_p_proc&#45;&gt;fight over: start&quot;) -->
<g id="edge12" class="edge">
<title>critter_p_proc&#45;&gt;fight over: start&quot;)</title>
<path fill="none" stroke="#555555" stroke-dasharray="1,5" d="M966.52,-193.21C961.8,-185.31 953.6,-176.19 945,-169.29 918.94,-148.38 907.95,-149.97 879,-133.29 853.85,-118.8 825.86,-101.76 802.19,-88.67"/>
<polygon fill="#555555" stroke="#555555" points="804.13,-85.2 793.67,-83.5 800.79,-91.35 804.13,-85.2"/>
</g>
<!-- fight over: end&quot;) -->
<g id="node14" class="node">
<title>fight over: end&quot;)</title>
<ellipse fill="none" stroke="black" cx="963" cy="-66.64" rx="93.3" ry="18"/>
<text text-anchor="middle" x="963" y="-61.97" font-family="Times,serif" font-size="14.00">fight over: end&quot;)</text>
</g>
<!-- critter_p_proc&#45;&gt;fight over: end&quot;) -->
<g id="edge9" class="edge">
<title>critter_p_proc&#45;&gt;fight over: end&quot;)</title>
<path fill="none" stroke="#555555" stroke-dasharray="1,5" d="M954.01,-194.15C948.75,-170.07 948.09,-124.84 952.04,-95.49"/>
<polygon fill="#555555" stroke="#555555" points="955.65,-96.17 953.86,-85.73 948.75,-95.01 955.65,-96.17"/>
</g>
<!-- critter_p_proc&#45;&gt;fight over: end&quot;) -->
<g id="edge11" class="edge">
<title>critter_p_proc&#45;&gt;fight over: end&quot;)</title>
<path fill="none" stroke="#555555" stroke-dasharray="1,5" d="M963,-193.3C963,-169.06 963,-124.6 963,-95.59"/>
<polygon fill="#555555" stroke="#555555" points="966.5,-95.94 963,-85.94 959.5,-95.94 966.5,-95.94"/>
</g>
<!-- critter_p_proc&#45;&gt;fight over: end&quot;) -->
<g id="edge13" class="edge">
<title>critter_p_proc&#45;&gt;fight over: end&quot;)</title>
<path fill="none" stroke="#555555" stroke-dasharray="1,5" d="M971.99,-194.15C977.25,-170.07 977.91,-124.84 973.96,-95.49"/>
<polygon fill="#555555" stroke="#555555" points="977.25,-95.01 972.14,-85.73 970.35,-96.17 977.25,-95.01"/>
</g>
<!-- destroy_p_proc -->
<g id="node15" class="node">
<title>destroy_p_proc</title>
<ellipse fill="#ffffff" stroke="#000000" cx="675" cy="-211.54" rx="27" ry="18"/>
</g>
<!-- destroy_p_proc&#45;&gt;fight over: start&quot;) -->
<g id="edge14" class="edge">
<title>destroy_p_proc&#45;&gt;fight over: start&quot;)</title>
<path fill="none" stroke="#555555" stroke-dasharray="1,5" d="M683.95,-194.15C697.26,-169.75 722.44,-123.63 738.43,-94.33"/>
<polygon fill="#555555" stroke="#555555" points="741.95,-96.18 743.67,-85.73 735.81,-92.83 741.95,-96.18"/>
</g>
<!-- destroy_p_proc&#45;&gt;fight over: end&quot;) -->
<g id="edge15" class="edge">
<title>destroy_p_proc&#45;&gt;fight over: end&quot;)</title>
<path fill="none" stroke="#555555" stroke-dasharray="1,5" d="M685.19,-194.64C691.59,-185.9 700.59,-175.59 711,-169.29 769.65,-133.78 797.95,-160.22 861,-133.29 886.75,-122.29 913.26,-105.01 932.8,-90.94"/>
<polygon fill="#555555" stroke="#555555" points="934.54,-93.28 940.53,-84.54 930.4,-87.63 934.54,-93.28"/>
</g>
<!-- look_at_p_proc -->
<g id="node16" class="node">
<title>look_at_p_proc</title>
<ellipse fill="#ffffff" stroke="#000000" cx="1061" cy="-211.54" rx="52.68" ry="42.25"/>
<text text-anchor="middle" x="1061" y="-224.11" font-family="Times,serif" font-size="14.00">You see </text>
<text text-anchor="middle" x="1061" y="-206.86" font-family="Times,serif" font-size="14.00">&#45;&#45;&#45;</text>
<text text-anchor="middle" x="1061" y="-189.61" font-family="Times,serif" font-size="14.00">.</text>
</g>
<!-- description_p_proc -->
<g id="node17" class="node">
<title>description_p_proc</title>
<ellipse fill="#ffffff" stroke="#000000" cx="1159" cy="-211.54" rx="27" ry="18"/>
</g>
<!-- damage_p_proc -->
<g id="node18" class="node">
<title>damage_p_proc</title>
<ellipse fill="#ffffff" stroke="#000000" cx="747" cy="-211.54" rx="27" ry="18"/>
</g>
<!-- damage_p_proc&#45;&gt;fight over: start&quot;) -->
<g id="edge16" class="edge">
<title>damage_p_proc&#45;&gt;fight over: start&quot;)</title>
<path fill="none" stroke="#555555" stroke-dasharray="1,5" d="M747.72,-193.3C748.74,-169.06 750.61,-124.6 751.83,-95.59"/>
<polygon fill="#555555" stroke="#555555" points="755.35,-96.08 752.27,-85.94 748.36,-95.79 755.35,-96.08"/>
</g>
<!-- damage_p_proc&#45;&gt;fight over: end&quot;) -->
<g id="edge17" class="edge">
<title>damage_p_proc&#45;&gt;fight over: end&quot;)</title>
<path fill="none" stroke="#555555" stroke-dasharray="1,5" d="M758.01,-194.99C764.54,-186.57 773.41,-176.47 783,-169.29 813.56,-146.4 827.53,-151.67 861,-133.29 884.9,-120.17 910.72,-103.52 930.4,-90.28"/>
<polygon fill="#555555" stroke="#555555" points="931.95,-92.78 938.26,-84.27 928.02,-86.99 931.95,-92.78"/>
</g>
<!-- map_enter_p_proc -->
<g id="node19" class="node">
<title>map_enter_p_proc</title>
<ellipse fill="#ffffff" stroke="#000000" cx="1231" cy="-211.54" rx="27" ry="18"/>
</g>
<!-- map_update_p_proc -->
<g id="node20" class="node">
<title>map_update_p_proc</title>
<ellipse fill="#ffffff" stroke="#000000" cx="1303" cy="-211.54" rx="27" ry="18"/>
</g>
<!-- combat_p_proc -->
<g id="node21" class="node">
<title>combat_p_proc</title>
<ellipse fill="#ffffff" stroke="#000000" cx="819" cy="-211.54" rx="27" ry="18"/>
</g>
<!-- combat_p_proc&#45;&gt;fight over: start&quot;) -->
<g id="edge18" class="edge">
<title>combat_p_proc&#45;&gt;fight over: start&quot;)</title>
<path fill="none" stroke="#555555" stroke-dasharray="1,5" d="M798.45,-199.33C775.35,-177.18 750.09,-127.22 743.97,-95.61"/>
<polygon fill="#555555" stroke="#555555" points="747.34,-95.36 742.62,-85.87 740.4,-96.23 747.34,-95.36"/>
</g>
<!-- combat_p_proc&#45;&gt;fight over: start&quot;) -->
<g id="edge20" class="edge">
<title>combat_p_proc&#45;&gt;fight over: start&quot;)</title>
<path fill="none" stroke="#555555" stroke-dasharray="1,5" d="M803.94,-196.32C787.34,-172.8 764.65,-125.42 754.81,-95.18"/>
<polygon fill="#555555" stroke="#555555" points="757.96,-94.51 751.8,-85.89 751.24,-96.48 757.96,-94.51"/>
</g>
<!-- combat_p_proc&#45;&gt;fight over: start&quot;) -->
<g id="edge22" class="edge">
<title>combat_p_proc&#45;&gt;fight over: start&quot;)</title>
<path fill="none" stroke="#555555" stroke-dasharray="1,5" d="M811.3,-193.87C800.03,-169.48 778.94,-123.8 765.45,-94.6"/>
<polygon fill="#555555" stroke="#555555" points="768.23,-93.26 760.86,-85.65 761.87,-96.2 768.23,-93.26"/>
</g>
<!-- combat_p_proc&#45;&gt;fight over: start&quot;) -->
<g id="edge24" class="edge">
<title>combat_p_proc&#45;&gt;fight over: start&quot;)</title>
<path fill="none" stroke="#555555" stroke-dasharray="1,5" d="M820.21,-193.3C813.96,-168.49 793.24,-122.53 775.68,-93.6"/>
<polygon fill="#555555" stroke="#555555" points="778.2,-92.05 769.87,-85.5 772.3,-95.81 778.2,-92.05"/>
</g>
<!-- combat_p_proc&#45;&gt;fight over: start&quot;) -->
<g id="edge26" class="edge">
<title>combat_p_proc&#45;&gt;fight over: start&quot;)</title>
<path fill="none" stroke="#555555" stroke-dasharray="1,5" d="M829.41,-194.43C828.96,-169.69 808.1,-122.14 785.79,-92.83"/>
<polygon fill="#555555" stroke="#555555" points="787.89,-90.87 778.84,-85.36 782.48,-95.31 787.89,-90.87"/>
</g>
<!-- combat_p_proc&#45;&gt;fight over: end&quot;) -->
<g id="edge19" class="edge">
<title>combat_p_proc&#45;&gt;fight over: end&quot;)</title>
<path fill="none" stroke="#555555" stroke-dasharray="1,5" d="M798.6,-199.42C799.3,-190.97 809.5,-179.15 819,-169.29 846.96,-140.26 881.11,-108.72 911.66,-88.6"/>
<polygon fill="#555555" stroke="#555555" points="912.98,-91.27 919.59,-82.99 909.26,-85.35 912.98,-91.27"/>
</g>
<!-- combat_p_proc&#45;&gt;fight over: end&quot;) -->
<g id="edge21" class="edge">
<title>combat_p_proc&#45;&gt;fight over: end&quot;)</title>
<path fill="none" stroke="#555555" stroke-dasharray="1,5" d="M816.85,-193.35C821.8,-185.81 829.61,-176.96 837,-169.29 864.12,-141.13 897.06,-110.62 923.14,-90.45"/>
<polygon fill="#555555" stroke="#555555" points="924.8,-92.83 930.7,-84.02 920.6,-87.23 924.8,-92.83"/>
</g>
<!-- combat_p_proc&#45;&gt;fight over: end&quot;) -->
<g id="edge23" class="edge">
<title>combat_p_proc&#45;&gt;fight over: end&quot;)</title>
<path fill="none" stroke="#555555" stroke-dasharray="1,5" d="M831.65,-195.33C838.4,-187.4 846.96,-177.64 855,-169.29 881.45,-141.83 913.44,-112.13 935.71,-91.96"/>
<polygon fill="#555555" stroke="#555555" points="937.65,-95.02 942.73,-85.73 932.96,-89.82 937.65,-95.02"/>
</g>
<!-- combat_p_proc&#45;&gt;fight over: end&quot;) -->
<g id="edge25" class="edge">
<title>combat_p_proc&#45;&gt;fight over: end&quot;)</title>
<path fill="none" stroke="#555555" stroke-dasharray="1,5" d="M841.27,-200.8C852.17,-192.29 862.98,-179.7 873,-169.29 898.94,-142.35 930.22,-113.26 949.13,-93.13"/>
<polygon fill="#555555" stroke="#555555" points="951.3,-95.84 955.43,-86.09 946.12,-91.14 951.3,-95.84"/>
</g>
<!-- combat_p_proc&#45;&gt;fight over: end&quot;) -->
<g id="edge27" class="edge">
<title>combat_p_proc&#45;&gt;fight over: end&quot;)</title>
<path fill="none" stroke="#555555" stroke-dasharray="1,5" d="M845.04,-205.83C865.29,-198.03 878.74,-182.02 891,-169.29 916.6,-142.71 947.38,-114.04 963.21,-93.94"/>
<polygon fill="#555555" stroke="#555555" points="966.57,-96.26 969.52,-86.09 960.87,-92.2 966.57,-96.26"/>
</g>
<!-- pickup_p_proc -->
<g id="node22" class="node">
<title>pickup_p_proc</title>
<ellipse fill="#ffffff" stroke="#000000" cx="1375" cy="-211.54" rx="27" ry="18"/>
</g>
<!-- timed_event_p_proc -->
<g id="node23" class="node">
<title>timed_event_p_proc</title>
<ellipse fill="#ffffff" stroke="#000000" cx="891" cy="-211.54" rx="27" ry="18"/>
</g>
<!-- timed_event_p_proc&#45;&gt;fight over: start&quot;) -->
<g id="edge28" class="edge">
<title>timed_event_p_proc&#45;&gt;fight over: start&quot;)</title>
<path fill="none" stroke="#555555" stroke-dasharray="1,5" d="M866.19,-203.7C851.29,-195.41 839.04,-181.09 828,-169.29 803.26,-142.86 773.87,-113.8 757.89,-93.55"/>
<polygon fill="#555555" stroke="#555555" points="760.3,-91.91 751.56,-85.91 754.65,-96.04 760.3,-91.91"/>
</g>
<!-- timed_event_p_proc&#45;&gt;fight over: start&quot;) -->
<g id="edge30" class="edge">
<title>timed_event_p_proc&#45;&gt;fight over: start&quot;)</title>
<path fill="none" stroke="#555555" stroke-dasharray="1,5" d="M872.86,-198.07C864.44,-189.78 854.83,-178.73 846,-169.29 820.93,-142.5 791.07,-113.02 771.86,-92.73"/>
<polygon fill="#555555" stroke="#555555" points="774.94,-90.84 765.57,-85.91 769.82,-95.61 774.94,-90.84"/>
</g>
<!-- timed_event_p_proc&#45;&gt;fight over: start&quot;) -->
<g id="edge32" class="edge">
<title>timed_event_p_proc&#45;&gt;fight over: start&quot;)</title>
<path fill="none" stroke="#555555" stroke-dasharray="1,5" d="M885.1,-193.85C879.35,-186.25 871.4,-177.2 864,-169.29 838.44,-141.98 807.91,-111.87 785.16,-91.56"/>
<polygon fill="#555555" stroke="#555555" points="787.98,-88.51 778.15,-84.55 783.37,-93.77 787.98,-88.51"/>
</g>
<!-- timed_event_p_proc&#45;&gt;fight over: start&quot;) -->
<g id="edge34" class="edge">
<title>timed_event_p_proc&#45;&gt;fight over: start&quot;)</title>
<path fill="none" stroke="#555555" stroke-dasharray="1,5" d="M901.93,-194.64C897.91,-186.88 889.66,-177.48 882,-169.29 855.91,-141.41 824.64,-110.62 797.93,-90.31"/>
<polygon fill="#555555" stroke="#555555" points="800.2,-86.91 790.06,-83.85 796.08,-92.56 800.2,-86.91"/>
</g>
<!-- timed_event_p_proc&#45;&gt;fight over: end&quot;) -->
<g id="edge29" class="edge">
<title>timed_event_p_proc&#45;&gt;fight over: end&quot;)</title>
<path fill="none" stroke="#555555" stroke-dasharray="1,5" d="M885.88,-193.59C890.48,-168.66 913.26,-121.96 934.35,-92.96"/>
<polygon fill="#555555" stroke="#555555" points="937.48,-95.63 940.81,-85.58 931.93,-91.36 937.48,-95.63"/>
</g>
<!-- timed_event_p_proc&#45;&gt;fight over: end&quot;) -->
<g id="edge31" class="edge">
<title>timed_event_p_proc&#45;&gt;fight over: end&quot;)</title>
<path fill="none" stroke="#555555" stroke-dasharray="1,5" d="M895.1,-193.3C904.94,-168.63 927.65,-123.02 944.31,-94.07"/>
<polygon fill="#555555" stroke="#555555" points="947.62,-96.33 949.69,-85.94 941.6,-92.77 947.62,-96.33"/>
</g>
<!-- timed_event_p_proc&#45;&gt;fight over: end&quot;) -->
<g id="edge33" class="edge">
<title>timed_event_p_proc&#45;&gt;fight over: end&quot;)</title>
<path fill="none" stroke="#555555" stroke-dasharray="1,5" d="M903.24,-194.98C918.05,-171.01 941.71,-124.74 954.63,-95.07"/>
<polygon fill="#555555" stroke="#555555" points="958.23,-96.54 958.87,-85.96 951.77,-93.83 958.23,-96.54"/>
</g>
<!-- timed_event_p_proc&#45;&gt;fight over: end&quot;) -->
<g id="edge35" class="edge">
<title>timed_event_p_proc&#45;&gt;fight over: end&quot;)</title>
<path fill="none" stroke="#555555" stroke-dasharray="1,5" d="M909.08,-198.36C929.75,-175.75 955.92,-126.8 965.36,-95.64"/>
<polygon fill="#555555" stroke="#555555" points="968.98,-96.59 968.04,-86.04 962.19,-94.88 968.98,-96.59"/>
</g>
<!-- Node998 -->
<g id="node24" class="node">
<title>Node998</title>
<ellipse fill="#ffffff" stroke="#000000" cx="1447" cy="-211.54" rx="27" ry="18"/>
</g>
<!-- Node999 -->
<g id="node25" class="node">
<title>Node999</title>
<ellipse fill="#ffffff" stroke="#000000" cx="1519" cy="-211.54" rx="27" ry="18"/>
</g>
</g>
</svg>
