<?xml version="1.0" encoding="UTF-8" standalone="no"?>
<!DOCTYPE svg PUBLIC "-//W3C//DTD SVG 1.1//EN"
 "http://www.w3.org/Graphics/SVG/1.1/DTD/svg11.dtd">
<!-- Generated by graphviz version 8.0.5 (0)
 -->
<!-- Title: niCatPw5 Pages: 1 -->
<svg width="914pt" height="164pt"
 viewBox="0.00 0.00 913.52 164.50" xmlns="http://www.w3.org/2000/svg" xmlns:xlink="http://www.w3.org/1999/xlink">
<g id="graph0" class="graph" transform="scale(1 1) rotate(0) translate(4 160.5)">
<title>niCatPw5</title>
<polygon fill="white" stroke="none" points="-4,4 -4,-160.5 909.52,-160.5 909.52,4 -4,4"/>
<!-- checkPartyMembersNearDoor -->
<g id="node1" class="node">
<title>checkPartyMembersNearDoor</title>
<ellipse fill="#ffffff" stroke="#000000" cx="27" cy="-114.25" rx="27" ry="18"/>
</g>
<!-- ChooseFromList -->
<g id="node2" class="node">
<title>ChooseFromList</title>
<ellipse fill="#ffffff" stroke="#000000" cx="135" cy="-18" rx="27" ry="18"/>
</g>
<!-- CLICK_PREV -->
<g id="node3" class="node">
<title>CLICK_PREV</title>
<ellipse fill="#ffffff" stroke="#000000" cx="99" cy="-114.25" rx="27" ry="18"/>
</g>
<!-- CLICK_PREV&#45;&gt;ChooseFromList -->
<g id="edge1" class="edge">
<title>CLICK_PREV&#45;&gt;ChooseFromList</title>
<path fill="none" stroke="#555555" stroke-dasharray="1,5" d="M105.44,-96.4C110.81,-82.33 118.57,-62.01 124.79,-45.72"/>
<polygon fill="#555555" stroke="#555555" points="128.32,-47.29 128.62,-36.7 121.78,-44.8 128.32,-47.29"/>
</g>
<!-- CLICK_0 -->
<g id="node4" class="node">
<title>CLICK_0</title>
<ellipse fill="#ffffff" stroke="#000000" cx="243" cy="-114.25" rx="27" ry="18"/>
</g>
<!-- stored_node -->
<g id="node5" class="node">
<title>stored_node</title>
<ellipse fill="none" stroke="black" cx="387" cy="-18" rx="72.25" ry="18"/>
<text text-anchor="middle" x="387" y="-13.32" font-family="Times,serif" font-size="14.00">stored_node</text>
</g>
<!-- CLICK_0&#45;&gt;stored_node -->
<g id="edge2" class="edge">
<title>CLICK_0&#45;&gt;stored_node</title>
<path fill="none" stroke="#555555" stroke-dasharray="1,5" d="M254.07,-97.78C260.63,-89.4 269.5,-79.29 279,-72 296.85,-58.3 318.8,-46.74 338.24,-37.96"/>
<polygon fill="#555555" stroke="#555555" points="339.39,-40.84 347.14,-33.61 336.58,-34.42 339.39,-40.84"/>
</g>
<!-- CLICK_1 -->
<g id="node6" class="node">
<title>CLICK_1</title>
<ellipse fill="#ffffff" stroke="#000000" cx="315" cy="-114.25" rx="27" ry="18"/>
</g>
<!-- CLICK_1&#45;&gt;stored_node -->
<g id="edge3" class="edge">
<title>CLICK_1&#45;&gt;stored_node</title>
<path fill="none" stroke="#555555" stroke-dasharray="1,5" d="M326.89,-97.69C337.91,-83.26 354.51,-61.53 367.47,-44.56"/>
<polygon fill="#555555" stroke="#555555" points="370.58,-47.26 373.87,-37.18 365.02,-43.01 370.58,-47.26"/>
</g>
<!-- CLICK_2 -->
<g id="node7" class="node">
<title>CLICK_2</title>
<ellipse fill="#ffffff" stroke="#000000" cx="387" cy="-114.25" rx="27" ry="18"/>
</g>
<!-- CLICK_2&#45;&gt;stored_node -->
<g id="edge4" class="edge">
<title>CLICK_2&#45;&gt;stored_node</title>
<path fill="none" stroke="#555555" stroke-dasharray="1,5" d="M387,-95.96C387,-82.36 387,-63.13 387,-47.3"/>
<polygon fill="#555555" stroke="#555555" points="390.5,-47.5 387,-37.5 383.5,-47.5 390.5,-47.5"/>
</g>
<!-- CLICK_3 -->
<g id="node8" class="node">
<title>CLICK_3</title>
<ellipse fill="#ffffff" stroke="#000000" cx="459" cy="-114.25" rx="27" ry="18"/>
</g>
<!-- CLICK_3&#45;&gt;stored_node -->
<g id="edge5" class="edge">
<title>CLICK_3&#45;&gt;stored_node</title>
<path fill="none" stroke="#555555" stroke-dasharray="1,5" d="M447.11,-97.69C436.09,-83.26 419.49,-61.53 406.53,-44.56"/>
<polygon fill="#555555" stroke="#555555" points="408.98,-43.01 400.13,-37.18 403.42,-47.26 408.98,-43.01"/>
</g>
<!-- CLICK_4 -->
<g id="node9" class="node">
<title>CLICK_4</title>
<ellipse fill="#ffffff" stroke="#000000" cx="531" cy="-114.25" rx="27" ry="18"/>
</g>
<!-- CLICK_4&#45;&gt;stored_node -->
<g id="edge6" class="edge">
<title>CLICK_4&#45;&gt;stored_node</title>
<path fill="none" stroke="#555555" stroke-dasharray="1,5" d="M519.93,-97.78C513.37,-89.4 504.5,-79.29 495,-72 477.15,-58.3 455.2,-46.74 435.76,-37.96"/>
<polygon fill="#555555" stroke="#555555" points="437.42,-34.42 426.86,-33.61 434.61,-40.84 437.42,-34.42"/>
</g>
<!-- CLICK_MORE -->
<g id="node10" class="node">
<title>CLICK_MORE</title>
<ellipse fill="#ffffff" stroke="#000000" cx="171" cy="-114.25" rx="27" ry="18"/>
</g>
<!-- CLICK_MORE&#45;&gt;ChooseFromList -->
<g id="edge7" class="edge">
<title>CLICK_MORE&#45;&gt;ChooseFromList</title>
<path fill="none" stroke="#555555" stroke-dasharray="1,5" d="M164.56,-96.4C159.19,-82.33 151.43,-62.01 145.21,-45.72"/>
<polygon fill="#555555" stroke="#555555" points="148.22,-44.8 141.38,-36.7 141.68,-47.29 148.22,-44.8"/>
</g>
<!-- start -->
<g id="node11" class="node">
<title>start</title>
<ellipse fill="#ffffff" stroke="#000000" cx="603" cy="-114.25" rx="27" ry="18"/>
</g>
<!-- use_p_proc -->
<g id="node12" class="node">
<title>use_p_proc</title>
<ellipse fill="#ffffff" stroke="#000000" cx="777" cy="-114.25" rx="128.52" ry="42.25"/>
<text text-anchor="middle" x="777" y="-126.82" font-family="Times,serif" font-size="14.00">You have learned some</text>
<text text-anchor="middle" x="777" y="-109.57" font-family="Times,serif" font-size="14.00">valuable tips on how to</text>
<text text-anchor="middle" x="777" y="-92.32" font-family="Times,serif" font-size="14.00">use energy weapons.</text>
</g>
</g>
</svg>
