<?xml version="1.0" encoding="UTF-8" standalone="no"?>
<!DOCTYPE svg PUBLIC "-//W3C//DTD SVG 1.1//EN"
 "http://www.w3.org/Graphics/SVG/1.1/DTD/svg11.dtd">
<!-- Generated by graphviz version 8.0.5 (0)
 -->
<!-- Title: niDermal Pages: 1 -->
<svg width="946pt" height="433pt"
 viewBox="0.00 0.00 945.96 432.85" xmlns="http://www.w3.org/2000/svg" xmlns:xlink="http://www.w3.org/1999/xlink">
<g id="graph0" class="graph" transform="scale(1 1) rotate(0) translate(4 428.85)">
<title>niDermal</title>
<polygon fill="white" stroke="none" points="-4,4 -4,-428.85 941.96,-428.85 941.96,4 -4,4"/>
<!-- checkPartyMembersNearDoor -->
<g id="node1" class="node">
<title>checkPartyMembersNearDoor</title>
<ellipse fill="#ffffff" stroke="#000000" cx="27" cy="-248.42" rx="27" ry="18"/>
</g>
<!-- ChooseFromList -->
<g id="node2" class="node">
<title>ChooseFromList</title>
<ellipse fill="#ffffff" stroke="#000000" cx="135" cy="-18" rx="27" ry="18"/>
</g>
<!-- CLICK_PREV -->
<g id="node3" class="node">
<title>CLICK_PREV</title>
<ellipse fill="#ffffff" stroke="#000000" cx="99" cy="-248.42" rx="27" ry="18"/>
</g>
<!-- CLICK_PREV&#45;&gt;ChooseFromList -->
<g id="edge1" class="edge">
<title>CLICK_PREV&#45;&gt;ChooseFromList</title>
<path fill="none" stroke="#555555" stroke-dasharray="1,5" d="M101.71,-230.25C107.87,-191.15 123,-95.13 130.56,-47.19"/>
<polygon fill="#555555" stroke="#555555" points="134.16,-47.79 132.26,-37.37 127.25,-46.7 134.16,-47.79"/>
</g>
<!-- CLICK_0 -->
<g id="node4" class="node">
<title>CLICK_0</title>
<ellipse fill="#ffffff" stroke="#000000" cx="243" cy="-248.42" rx="27" ry="18"/>
</g>
<!-- stored_node -->
<g id="node5" class="node">
<title>stored_node</title>
<ellipse fill="none" stroke="black" cx="387" cy="-18" rx="72.25" ry="18"/>
<text text-anchor="middle" x="387" y="-13.32" font-family="Times,serif" font-size="14.00">stored_node</text>
</g>
<!-- CLICK_0&#45;&gt;stored_node -->
<g id="edge2" class="edge">
<title>CLICK_0&#45;&gt;stored_node</title>
<path fill="none" stroke="#555555" stroke-dasharray="1,5" d="M241.83,-230.2C240.44,-196.24 242,-119.83 279,-72 291.68,-55.62 310.74,-43.97 329.34,-35.86"/>
<polygon fill="#555555" stroke="#555555" points="330.34,-38.82 338.28,-31.81 327.7,-32.34 330.34,-38.82"/>
</g>
<!-- CLICK_1 -->
<g id="node6" class="node">
<title>CLICK_1</title>
<ellipse fill="#ffffff" stroke="#000000" cx="315" cy="-248.42" rx="27" ry="18"/>
</g>
<!-- CLICK_1&#45;&gt;stored_node -->
<g id="edge3" class="edge">
<title>CLICK_1&#45;&gt;stored_node</title>
<path fill="none" stroke="#555555" stroke-dasharray="1,5" d="M316.29,-230.07C319.19,-197.8 327.84,-126.85 351,-72 354.96,-62.62 360.69,-53.17 366.42,-44.9"/>
<polygon fill="#555555" stroke="#555555" points="369.75,-47.28 372.8,-37.13 364.09,-43.16 369.75,-47.28"/>
</g>
<!-- CLICK_2 -->
<g id="node7" class="node">
<title>CLICK_2</title>
<ellipse fill="#ffffff" stroke="#000000" cx="387" cy="-248.42" rx="27" ry="18"/>
</g>
<!-- CLICK_2&#45;&gt;stored_node -->
<g id="edge4" class="edge">
<title>CLICK_2&#45;&gt;stored_node</title>
<path fill="none" stroke="#555555" stroke-dasharray="1,5" d="M387,-230.25C387,-191.15 387,-95.13 387,-47.19"/>
<polygon fill="#555555" stroke="#555555" points="390.5,-47.37 387,-37.37 383.5,-47.37 390.5,-47.37"/>
</g>
<!-- CLICK_3 -->
<g id="node8" class="node">
<title>CLICK_3</title>
<ellipse fill="#ffffff" stroke="#000000" cx="459" cy="-248.42" rx="27" ry="18"/>
</g>
<!-- CLICK_3&#45;&gt;stored_node -->
<g id="edge5" class="edge">
<title>CLICK_3&#45;&gt;stored_node</title>
<path fill="none" stroke="#555555" stroke-dasharray="1,5" d="M457.71,-230.07C454.81,-197.8 446.16,-126.85 423,-72 419.04,-62.62 413.31,-53.17 407.58,-44.9"/>
<polygon fill="#555555" stroke="#555555" points="409.91,-43.16 401.2,-37.13 404.25,-47.28 409.91,-43.16"/>
</g>
<!-- CLICK_4 -->
<g id="node9" class="node">
<title>CLICK_4</title>
<ellipse fill="#ffffff" stroke="#000000" cx="531" cy="-248.42" rx="27" ry="18"/>
</g>
<!-- CLICK_4&#45;&gt;stored_node -->
<g id="edge6" class="edge">
<title>CLICK_4&#45;&gt;stored_node</title>
<path fill="none" stroke="#555555" stroke-dasharray="1,5" d="M532.17,-230.2C533.56,-196.24 532,-119.83 495,-72 482.32,-55.62 463.26,-43.97 444.66,-35.86"/>
<polygon fill="#555555" stroke="#555555" points="446.3,-32.34 435.72,-31.81 443.66,-38.82 446.3,-32.34"/>
</g>
<!-- CLICK_MORE -->
<g id="node10" class="node">
<title>CLICK_MORE</title>
<ellipse fill="#ffffff" stroke="#000000" cx="171" cy="-248.42" rx="27" ry="18"/>
</g>
<!-- CLICK_MORE&#45;&gt;ChooseFromList -->
<g id="edge7" class="edge">
<title>CLICK_MORE&#45;&gt;ChooseFromList</title>
<path fill="none" stroke="#555555" stroke-dasharray="1,5" d="M168.29,-230.25C162.13,-191.15 147,-95.13 139.44,-47.19"/>
<polygon fill="#555555" stroke="#555555" points="142.75,-46.7 137.74,-37.37 135.84,-47.79 142.75,-46.7"/>
</g>
<!-- start -->
<g id="node11" class="node">
<title>start</title>
<ellipse fill="#ffffff" stroke="#000000" cx="603" cy="-248.42" rx="27" ry="18"/>
</g>
<!-- use_p_proc -->
<g id="node12" class="node">
<title>use_p_proc</title>
<ellipse fill="#ffffff" stroke="#000000" cx="793" cy="-248.42" rx="144.96" ry="176.42"/>
<text text-anchor="middle" x="793" y="-355.87" font-family="Times,serif" font-size="14.00">You have used the Pip Boy</text>
<text text-anchor="middle" x="793" y="-338.62" font-family="Times,serif" font-size="14.00">Lingual Enhancer. A</text>
<text text-anchor="middle" x="793" y="-321.37" font-family="Times,serif" font-size="14.00">linguistic avalanche</text>
<text text-anchor="middle" x="793" y="-304.12" font-family="Times,serif" font-size="14.00">tumbles into your brain.</text>
<text text-anchor="middle" x="793" y="-286.87" font-family="Times,serif" font-size="14.00">&#45;&#45;&#45;</text>
<text text-anchor="middle" x="793" y="-269.62" font-family="Times,serif" font-size="14.00">You have used the Pip Boy</text>
<text text-anchor="middle" x="793" y="-252.37" font-family="Times,serif" font-size="14.00">Lingual Enhancer. A</text>
<text text-anchor="middle" x="793" y="-235.12" font-family="Times,serif" font-size="14.00">linguistic avalanche</text>
<text text-anchor="middle" x="793" y="-217.87" font-family="Times,serif" font-size="14.00">tumbles into your brain.</text>
<text text-anchor="middle" x="793" y="-200.62" font-family="Times,serif" font-size="14.00">&#45;&#45;&#45;</text>
<text text-anchor="middle" x="793" y="-183.37" font-family="Times,serif" font-size="14.00">My word. A veritable</text>
<text text-anchor="middle" x="793" y="-166.12" font-family="Times,serif" font-size="14.00">cornucopia of linguistic</text>
<text text-anchor="middle" x="793" y="-148.87" font-family="Times,serif" font-size="14.00">knowledge has permeated</text>
<text text-anchor="middle" x="793" y="-131.62" font-family="Times,serif" font-size="14.00">my cranium.</text>
</g>
</g>
</svg>
