<?xml version="1.0" encoding="UTF-8" standalone="no"?>
<!DOCTYPE svg PUBLIC "-//W3C//DTD SVG 1.1//EN"
 "http://www.w3.org/Graphics/SVG/1.1/DTD/svg11.dtd">
<!-- Generated by graphviz version 8.0.5 (0)
 -->
<!-- Title: ocjul Pages: 1 -->
<svg width="2132pt" height="2034pt"
 viewBox="0.00 0.00 2131.65 2033.93" xmlns="http://www.w3.org/2000/svg" xmlns:xlink="http://www.w3.org/1999/xlink">
<g id="graph0" class="graph" transform="scale(1 1) rotate(0) translate(4 2029.93)">
<title>ocjul</title>
<polygon fill="white" stroke="none" points="-4,4 -4,-2029.93 2127.65,-2029.93 2127.65,4 -4,4"/>
<!-- checkPartyMembersNearDoor -->
<g id="node1" class="node">
<title>checkPartyMembersNearDoor</title>
<ellipse fill="#ffffff" stroke="#000000" cx="300.15" cy="-1934.89" rx="27" ry="18"/>
</g>
<!-- old_pickup_p_proc -->
<g id="node2" class="node">
<title>old_pickup_p_proc</title>
<ellipse fill="#ffffff" stroke="#000000" cx="372.15" cy="-1776.8" rx="27" ry="18"/>
</g>
<!-- pickup_p_proc -->
<g id="node3" class="node">
<title>pickup_p_proc</title>
<ellipse fill="#ffffff" stroke="#000000" cx="372.15" cy="-1934.89" rx="27" ry="18"/>
</g>
<!-- pickup_p_proc&#45;&gt;old_pickup_p_proc -->
<g id="edge1" class="edge">
<title>pickup_p_proc&#45;&gt;old_pickup_p_proc</title>
<path fill="none" stroke="#555555" stroke-dasharray="1,5" d="M372.15,-1916.59C372.15,-1889.87 372.15,-1838.28 372.15,-1806.08"/>
<polygon fill="#555555" stroke="#555555" points="375.65,-1806.18 372.15,-1796.18 368.65,-1806.18 375.65,-1806.18"/>
</g>
<!-- getTimeBit -->
<g id="node4" class="node">
<title>getTimeBit</title>
<ellipse fill="#ffffff" stroke="#000000" cx="444.15" cy="-1934.89" rx="27" ry="18"/>
</g>
<!-- start -->
<g id="node5" class="node">
<title>start</title>
<ellipse fill="#ffffff" stroke="#000000" cx="516.15" cy="-1934.89" rx="27" ry="18"/>
</g>
<!-- critter_p_proc -->
<g id="node6" class="node">
<title>critter_p_proc</title>
<ellipse fill="#ffffff" stroke="#000000" cx="588.15" cy="-1934.89" rx="27" ry="18"/>
</g>
<!-- talk_p_proc -->
<g id="node7" class="node">
<title>talk_p_proc</title>
<ellipse fill="#ffffff" stroke="#000000" cx="660.15" cy="-1934.89" rx="27" ry="18"/>
</g>
<!-- Node009 -->
<g id="node8" class="node">
<title>Node009</title>
<ellipse fill="#ffffff" stroke="#000000" cx="122.15" cy="-1686.5" rx="122.15" ry="42.25"/>
<text text-anchor="middle" x="122.15" y="-1699.07" font-family="Times,serif" font-size="14.00">You already dead. You</text>
<text text-anchor="middle" x="122.15" y="-1681.82" font-family="Times,serif" font-size="14.00">just too dumb to fall</text>
<text text-anchor="middle" x="122.15" y="-1664.57" font-family="Times,serif" font-size="14.00">over.</text>
</g>
<!-- talk_p_proc&#45;&gt;Node009 -->
<g id="edge2" class="edge">
<title>talk_p_proc&#45;&gt;Node009</title>
<path fill="none" stroke="#555555" stroke-dasharray="1,5" d="M657.52,-1916.69C653.6,-1896.68 644.4,-1863.84 624.15,-1843.85 591.62,-1811.72 569.98,-1825.33 528.15,-1806.85 473.59,-1782.74 465.21,-1764.13 408.15,-1746.75 347.72,-1728.34 329.04,-1741.43 267.15,-1728.75 252.57,-1725.76 237.31,-1722.06 222.39,-1718.12"/>
<polygon fill="#555555" stroke="#555555" points="223.7,-1714.58 213.13,-1715.36 221.88,-1721.34 223.7,-1714.58"/>
</g>
<!-- Node001 -->
<g id="node9" class="node">
<title>Node001</title>
<ellipse fill="#ffffff" stroke="#000000" cx="660.15" cy="-1776.8" rx="123.21" ry="30.05"/>
<text text-anchor="middle" x="660.15" y="-1780.75" font-family="Times,serif" font-size="14.00">Stop. You not go here.</text>
<text text-anchor="middle" x="660.15" y="-1763.5" font-family="Times,serif" font-size="14.00">This place off limits.</text>
</g>
<!-- talk_p_proc&#45;&gt;Node001 -->
<g id="edge3" class="edge">
<title>talk_p_proc&#45;&gt;Node001</title>
<path fill="none" stroke="#555555" stroke-dasharray="1,5" d="M660.15,-1916.59C660.15,-1892.95 660.15,-1849.83 660.15,-1817.91"/>
<polygon fill="#555555" stroke="#555555" points="663.65,-1818.14 660.15,-1808.14 656.65,-1818.14 663.65,-1818.14"/>
</g>
<!-- Node008 -->
<g id="node10" class="node">
<title>Node008</title>
<ellipse fill="#ffffff" stroke="#000000" cx="1274.15" cy="-1776.8" rx="125.33" ry="30.05"/>
<text text-anchor="middle" x="1274.15" y="-1780.75" font-family="Times,serif" font-size="14.00">It you again. What you</text>
<text text-anchor="middle" x="1274.15" y="-1763.5" font-family="Times,serif" font-size="14.00">want?</text>
</g>
<!-- talk_p_proc&#45;&gt;Node008 -->
<g id="edge4" class="edge">
<title>talk_p_proc&#45;&gt;Node008</title>
<path fill="none" stroke="#555555" stroke-dasharray="1,5" d="M661.86,-1916.48C664.9,-1895.63 673.27,-1861.32 696.15,-1843.85 763.28,-1792.6 989.37,-1780.12 1138.08,-1777.63"/>
<polygon fill="#555555" stroke="#555555" points="1137.71,-1781.12 1147.65,-1777.47 1137.6,-1774.12 1137.71,-1781.12"/>
</g>
<!-- Node998 -->
<g id="node19" class="node">
<title>Node998</title>
<ellipse fill="#ffffff" stroke="#000000" cx="118.15" cy="-1087.47" rx="27" ry="18"/>
</g>
<!-- Node009&#45;&gt;Node998 -->
<g id="edge36" class="edge">
<title>Node009&#45;&gt;Node998</title>
<path fill="none" stroke="#555555" stroke-dasharray="1,5" d="M121.87,-1643.99C121.11,-1529.88 118.99,-1213.54 118.34,-1116.88"/>
<polygon fill="#555555" stroke="#555555" points="121.84,-1116.94 118.27,-1106.97 114.84,-1116.99 121.84,-1116.94"/>
</g>
<!-- Node999 -->
<g id="node20" class="node">
<title>Node999</title>
<ellipse fill="#ffffff" stroke="#000000" cx="999.15" cy="-18" rx="27" ry="18"/>
</g>
<!-- Node001&#45;&gt;Node999 -->
<g id="edge5" class="edge">
<title>Node001&#45;&gt;Node999</title>
<path fill="none" stroke="#009299" d="M650.59,-1746.37C648.94,-1740.57 647.36,-1734.5 646.15,-1728.75 622.77,-1617.61 614.15,-1588.79 614.15,-1475.22 614.15,-1475.22 614.15,-1475.22 614.15,-90 614.15,-54.94 864.25,-30.27 961.3,-22.02"/>
<polygon fill="#009299" stroke="#009299" points="961.41,-25.44 971.08,-21.12 960.82,-18.47 961.41,-25.44"/>
<text text-anchor="middle" x="659.9" y="-652.17" font-family="Times,serif" font-size="14.00" fill="#009299">Okay. Me go.</text>
</g>
<!-- Node001&#45;&gt;Node999 -->
<g id="edge8" class="edge">
<title>Node001&#45;&gt;Node999</title>
<path fill="none" stroke="#00991a" d="M625.39,-1747.88C568.83,-1699.07 463.15,-1592.21 463.15,-1475.22 463.15,-1475.22 463.15,-1475.22 463.15,-90 463.15,-39.71 838.79,-23.86 961.14,-20.03"/>
<polygon fill="#00991a" stroke="#00991a" points="960.95,-23.51 970.84,-19.71 960.73,-16.51 960.95,-23.51"/>
<text text-anchor="middle" x="526.9" y="-652.17" font-family="Times,serif" font-size="14.00" fill="#00991a">All right, I&#39;ll leave</text>
</g>
<!-- Node002 -->
<g id="node21" class="node">
<title>Node002</title>
<ellipse fill="#ffffff" stroke="#000000" cx="1358.15" cy="-1474.22" rx="116.85" ry="54.45"/>
<text text-anchor="middle" x="1358.15" y="-1495.42" font-family="Times,serif" font-size="14.00">This hatchery. Pack</text>
<text text-anchor="middle" x="1358.15" y="-1478.17" font-family="Times,serif" font-size="14.00">mother inside. Eggs</text>
<text text-anchor="middle" x="1358.15" y="-1460.92" font-family="Times,serif" font-size="14.00">inside. I guard. All of</text>
<text text-anchor="middle" x="1358.15" y="-1443.67" font-family="Times,serif" font-size="14.00">pack guard.</text>
</g>
<!-- Node001&#45;&gt;Node002 -->
<g id="edge6" class="edge">
<title>Node001&#45;&gt;Node002</title>
<path fill="none" stroke="#997300" d="M721.44,-1750.29C738.21,-1743.31 756.38,-1735.74 773.15,-1728.75 863.17,-1691.23 880.78,-1666.8 975.65,-1644.25 1030.17,-1631.29 1177.04,-1651.32 1227.15,-1626.25 1266.73,-1606.45 1299.39,-1568.9 1322.19,-1536.2"/>
<polygon fill="#997300" stroke="#997300" points="1325.63,-1538.36 1328.36,-1528.13 1319.84,-1534.43 1325.63,-1538.36"/>
<text text-anchor="middle" x="1034.4" y="-1681.82" font-family="Times,serif" font-size="14.00" fill="#997300">What this place?</text>
</g>
<!-- Node001&#45;&gt;Node002 -->
<g id="edge10" class="edge">
<title>Node001&#45;&gt;Node002</title>
<path fill="none" stroke="#004099" d="M783.76,-1776.02C894.44,-1773.82 1046.44,-1764.13 1094.15,-1728.75 1126.94,-1704.43 1098.3,-1669.78 1130.15,-1644.25 1164.36,-1616.82 1189.1,-1648.03 1227.15,-1626.25 1265.01,-1604.58 1297.27,-1567.78 1320.31,-1535.94"/>
<polygon fill="#004099" stroke="#004099" points="1323.64,-1538.29 1326.56,-1528.1 1317.92,-1534.24 1323.64,-1538.29"/>
<text text-anchor="middle" x="1197.65" y="-1681.82" font-family="Times,serif" font-size="14.00" fill="#004099">What is this place?</text>
</g>
<!-- Node003 -->
<g id="node22" class="node">
<title>Node003</title>
<ellipse fill="#ffffff" stroke="#000000" cx="900.15" cy="-1087.47" rx="130.11" ry="164.23"/>
<text text-anchor="middle" x="900.15" y="-1186.29" font-family="Times,serif" font-size="14.00">I Jul. Pack warrior. I</text>
<text text-anchor="middle" x="900.15" y="-1169.04" font-family="Times,serif" font-size="14.00">guard hatchery. I guard</text>
<text text-anchor="middle" x="900.15" y="-1151.79" font-family="Times,serif" font-size="14.00">mother.</text>
<text text-anchor="middle" x="900.15" y="-1134.54" font-family="Times,serif" font-size="14.00">&#45;&#45;&#45;</text>
<text text-anchor="middle" x="900.15" y="-1117.29" font-family="Times,serif" font-size="14.00">Me</text>
<text text-anchor="middle" x="900.15" y="-1100.04" font-family="Times,serif" font-size="14.00">&#45;&#45;&#45;</text>
<text text-anchor="middle" x="900.15" y="-1082.79" font-family="Times,serif" font-size="14.00">. Me want talk mother.</text>
<text text-anchor="middle" x="900.15" y="-1065.54" font-family="Times,serif" font-size="14.00">&#45;&#45;&#45;</text>
<text text-anchor="middle" x="900.15" y="-1048.29" font-family="Times,serif" font-size="14.00">I&#39;m</text>
<text text-anchor="middle" x="900.15" y="-1031.04" font-family="Times,serif" font-size="14.00">&#45;&#45;&#45;</text>
<text text-anchor="middle" x="900.15" y="-1013.79" font-family="Times,serif" font-size="14.00">, Jul, and I&#39;d like to</text>
<text text-anchor="middle" x="900.15" y="-996.54" font-family="Times,serif" font-size="14.00">talk to the mother,</text>
<text text-anchor="middle" x="900.15" y="-979.29" font-family="Times,serif" font-size="14.00">please.</text>
</g>
<!-- Node001&#45;&gt;Node003 -->
<g id="edge7" class="edge">
<title>Node001&#45;&gt;Node003</title>
<path fill="none" stroke="#460099" d="M685.31,-1747.1C708.9,-1718.52 743.16,-1672.36 761.15,-1626.25 810.84,-1498.93 771.43,-1454.12 807.15,-1322.19 814.31,-1295.75 823.55,-1268.23 833.41,-1241.75"/>
<polygon fill="#460099" stroke="#460099" points="836.97,-1243.24 837.22,-1232.65 830.42,-1240.77 836.97,-1243.24"/>
<text text-anchor="middle" x="841.65" y="-1469.54" font-family="Times,serif" font-size="14.00" fill="#460099">Who you?</text>
</g>
<!-- Node001&#45;&gt;Node003 -->
<g id="edge11" class="edge">
<title>Node001&#45;&gt;Node003</title>
<path fill="none" stroke="#6c9900" d="M657.24,-1746.4C648.98,-1658.48 628.02,-1398.92 660.4,-1322.19 684.98,-1263.96 731.92,-1213.04 777.8,-1173.72"/>
<polygon fill="#6c9900" stroke="#6c9900" points="779.66,-1175.88 785.05,-1166.76 775.15,-1170.53 779.66,-1175.88"/>
<text text-anchor="middle" x="709.53" y="-1469.54" font-family="Times,serif" font-size="14.00" fill="#6c9900">Who are you?</text>
</g>
<!-- Node007 -->
<g id="node23" class="node">
<title>Node007</title>
<ellipse fill="#ffffff" stroke="#000000" cx="288.15" cy="-1474.22" rx="146.55" ry="152.03"/>
<text text-anchor="middle" x="288.15" y="-1564.42" font-family="Times,serif" font-size="14.00">Lizard breath... Oh, I</text>
<text text-anchor="middle" x="288.15" y="-1547.17" font-family="Times,serif" font-size="14.00">get it. Ha ha! Now you</text>
<text text-anchor="middle" x="288.15" y="-1529.92" font-family="Times,serif" font-size="14.00">get this. I guard here</text>
<text text-anchor="middle" x="288.15" y="-1512.67" font-family="Times,serif" font-size="14.00">because I meanest,</text>
<text text-anchor="middle" x="288.15" y="-1495.42" font-family="Times,serif" font-size="14.00">toughest, ruthless son</text>
<text text-anchor="middle" x="288.15" y="-1478.17" font-family="Times,serif" font-size="14.00">of bitch in whole damn</text>
<text text-anchor="middle" x="288.15" y="-1460.92" font-family="Times,serif" font-size="14.00">vault. Screw with me, you</text>
<text text-anchor="middle" x="288.15" y="-1443.67" font-family="Times,serif" font-size="14.00">screw with best.</text>
<text text-anchor="middle" x="288.15" y="-1426.42" font-family="Times,serif" font-size="14.00">You leave here or I rip</text>
<text text-anchor="middle" x="288.15" y="-1409.17" font-family="Times,serif" font-size="14.00">you head off and make you</text>
<text text-anchor="middle" x="288.15" y="-1391.92" font-family="Times,serif" font-size="14.00">watch me crap down</text>
<text text-anchor="middle" x="288.15" y="-1374.67" font-family="Times,serif" font-size="14.00">throat.</text>
</g>
<!-- Node001&#45;&gt;Node007 -->
<g id="edge9" class="edge">
<title>Node001&#45;&gt;Node007</title>
<path fill="none" stroke="#990013" d="M560.98,-1758.56C535.35,-1754.4 507.76,-1750.16 482.15,-1746.75 443.79,-1741.63 335.97,-1756.41 308.9,-1728.75 284.62,-1703.93 273.3,-1670.45 269.26,-1635.96"/>
<polygon fill="#990013" stroke="#990013" points="272.67,-1635.85 268.24,-1626.23 265.7,-1636.52 272.67,-1635.85"/>
<text text-anchor="middle" x="379.28" y="-1690.45" font-family="Times,serif" font-size="14.00" fill="#990013">I go where I please,</text>
<text text-anchor="middle" x="379.28" y="-1673.2" font-family="Times,serif" font-size="14.00" fill="#990013">lizard breath!</text>
</g>
<!-- Node008&#45;&gt;Node999 -->
<g id="edge30" class="edge">
<title>Node008&#45;&gt;Node999</title>
<path fill="none" stroke="#990026" d="M1397.73,-1771.17C1448.39,-1765.26 1506.26,-1753.11 1554.15,-1728.75 1697.72,-1655.71 1813.15,-1636.3 1813.15,-1475.22 1813.15,-1475.22 1813.15,-1475.22 1813.15,-90 1813.15,-50.52 1197.39,-26.01 1036.98,-20.29"/>
<polygon fill="#990026" stroke="#990026" points="1037.35,-16.77 1027.24,-19.91 1037.11,-23.76 1037.35,-16.77"/>
<text text-anchor="middle" x="1876.53" y="-652.17" font-family="Times,serif" font-size="14.00" fill="#990026">Me say hi. Me go.</text>
</g>
<!-- Node008&#45;&gt;Node999 -->
<g id="edge33" class="edge">
<title>Node008&#45;&gt;Node999</title>
<path fill="none" stroke="#860099" d="M1399.72,-1775.15C1598.46,-1766.77 1963.15,-1718.29 1963.15,-1475.22 1963.15,-1475.22 1963.15,-1475.22 1963.15,-90 1963.15,-42.74 1216.48,-23.67 1037.41,-19.78"/>
<polygon fill="#860099" stroke="#860099" points="1037.52,-16.26 1027.45,-19.54 1037.37,-23.26 1037.52,-16.26"/>
<text text-anchor="middle" x="2043.4" y="-660.8" font-family="Times,serif" font-size="14.00" fill="#860099">Just dropped by to say</text>
<text text-anchor="middle" x="2043.4" y="-643.55" font-family="Times,serif" font-size="14.00" fill="#860099">hello.</text>
</g>
<!-- Node008&#45;&gt;Node002 -->
<g id="edge32" class="edge">
<title>Node008&#45;&gt;Node002</title>
<path fill="none" stroke="#809900" d="M1270.83,-1746.35C1268.65,-1719.39 1267.51,-1678.58 1275.65,-1644.25 1284.63,-1606.38 1303.13,-1567.14 1320.33,-1536.01"/>
<polygon fill="#809900" stroke="#809900" points="1323.76,-1538.05 1325.62,-1527.62 1317.67,-1534.62 1323.76,-1538.05"/>
<text text-anchor="middle" x="1334.4" y="-1681.82" font-family="Times,serif" font-size="14.00" fill="#809900">What this place?</text>
</g>
<!-- Node008&#45;&gt;Node002 -->
<g id="edge34" class="edge">
<title>Node008&#45;&gt;Node002</title>
<path fill="none" stroke="#009959" d="M1363.28,-1755.28C1375.44,-1748.74 1386.4,-1740.12 1394.15,-1728.75 1432.59,-1672.39 1412.01,-1592.5 1389.36,-1537.54"/>
<polygon fill="#009959" stroke="#009959" points="1392.26,-1536.41 1385.12,-1528.58 1385.82,-1539.16 1392.26,-1536.41"/>
<text text-anchor="middle" x="1482.65" y="-1681.82" font-family="Times,serif" font-size="14.00" fill="#009959">What is this place?</text>
</g>
<!-- Node008&#45;&gt;Node003 -->
<g id="edge31" class="edge">
<title>Node008&#45;&gt;Node003</title>
<path fill="none" stroke="#005399" d="M1158.61,-1764.94C1071.98,-1749.75 960.34,-1713.36 911.9,-1626.25 878.26,-1565.75 879.64,-1395 886.76,-1261.97"/>
<polygon fill="#005399" stroke="#005399" points="890.3,-1262.42 887.35,-1252.24 883.31,-1262.04 890.3,-1262.42"/>
<text text-anchor="middle" x="985.78" y="-1469.54" font-family="Times,serif" font-size="14.00" fill="#005399">Who you say you be?</text>
</g>
<!-- Node008&#45;&gt;Node003 -->
<g id="edge35" class="edge">
<title>Node008&#45;&gt;Node003</title>
<path fill="none" stroke="#992c00" d="M1172.31,-1759.11C1139.01,-1751.53 1107.8,-1741.4 1097.15,-1728.75 1038.75,-1659.36 1091.89,-1407.52 1061.15,-1322.19 1046.99,-1282.88 1024.54,-1243.96 1000.85,-1209.49"/>
<polygon fill="#992c00" stroke="#992c00" points="1003.4,-1208.02 994.8,-1201.82 997.65,-1212.03 1003.4,-1208.02"/>
<text text-anchor="middle" x="1141.28" y="-1469.54" font-family="Times,serif" font-size="14.00" fill="#992c00">Who are you again?</text>
</g>
<!-- destroy_p_proc -->
<g id="node11" class="node">
<title>destroy_p_proc</title>
<ellipse fill="#ffffff" stroke="#000000" cx="732.15" cy="-1934.89" rx="27" ry="18"/>
</g>
<!-- look_at_p_proc -->
<g id="node12" class="node">
<title>look_at_p_proc</title>
<ellipse fill="#ffffff" stroke="#000000" cx="903.15" cy="-1934.89" rx="126.4" ry="91.04"/>
<text text-anchor="middle" x="903.15" y="-1981.97" font-family="Times,serif" font-size="14.00">You see a deathclaw. It</text>
<text text-anchor="middle" x="903.15" y="-1964.72" font-family="Times,serif" font-size="14.00">watches you with</text>
<text text-anchor="middle" x="903.15" y="-1947.47" font-family="Times,serif" font-size="14.00">strangely intelligent</text>
<text text-anchor="middle" x="903.15" y="-1930.22" font-family="Times,serif" font-size="14.00">eyes.</text>
<text text-anchor="middle" x="903.15" y="-1912.97" font-family="Times,serif" font-size="14.00">&#45;&#45;&#45;</text>
<text text-anchor="middle" x="903.15" y="-1895.72" font-family="Times,serif" font-size="14.00">You see Jul, the</text>
<text text-anchor="middle" x="903.15" y="-1878.47" font-family="Times,serif" font-size="14.00">deathclaw.</text>
</g>
<!-- description_p_proc -->
<g id="node13" class="node">
<title>description_p_proc</title>
<ellipse fill="#ffffff" stroke="#000000" cx="1181.15" cy="-1934.89" rx="133.29" ry="78.84"/>
<text text-anchor="middle" x="1181.15" y="-1973.34" font-family="Times,serif" font-size="14.00">You see a typical</text>
<text text-anchor="middle" x="1181.15" y="-1956.09" font-family="Times,serif" font-size="14.00">deathclaw. The creature</text>
<text text-anchor="middle" x="1181.15" y="-1938.84" font-family="Times,serif" font-size="14.00">is huge, with a powerful</text>
<text text-anchor="middle" x="1181.15" y="-1921.59" font-family="Times,serif" font-size="14.00">body, sharp teeth, and</text>
<text text-anchor="middle" x="1181.15" y="-1904.34" font-family="Times,serif" font-size="14.00">long</text>
<text text-anchor="middle" x="1181.15" y="-1887.09" font-family="Times,serif" font-size="14.00"> claws.</text>
</g>
<!-- use_skill_on_p_proc -->
<g id="node14" class="node">
<title>use_skill_on_p_proc</title>
<ellipse fill="#ffffff" stroke="#000000" cx="1359.15" cy="-1934.89" rx="27" ry="18"/>
</g>
<!-- damage_p_proc -->
<g id="node15" class="node">
<title>damage_p_proc</title>
<ellipse fill="#ffffff" stroke="#000000" cx="1431.15" cy="-1934.89" rx="27" ry="18"/>
</g>
<!-- map_enter_p_proc -->
<g id="node16" class="node">
<title>map_enter_p_proc</title>
<ellipse fill="#ffffff" stroke="#000000" cx="1503.15" cy="-1934.89" rx="27" ry="18"/>
</g>
<!-- push_p_proc -->
<g id="node17" class="node">
<title>push_p_proc</title>
<ellipse fill="#ffffff" stroke="#000000" cx="1575.15" cy="-1934.89" rx="27" ry="18"/>
</g>
<!-- timed_event_p_proc -->
<g id="node18" class="node">
<title>timed_event_p_proc</title>
<ellipse fill="#ffffff" stroke="#000000" cx="1647.15" cy="-1934.89" rx="27" ry="18"/>
</g>
<!-- Node002&#45;&gt;Node999 -->
<g id="edge14" class="edge">
<title>Node002&#45;&gt;Node999</title>
<path fill="none" stroke="#994000" d="M1351.27,-1419.51C1345.55,-1374.66 1337.22,-1309.02 1330.15,-1251.69 1314.78,-1126.99 1340.41,-778.47 1249.15,-692.1 1214.77,-659.55 1174.67,-710.29 1144.15,-674.1 1134.27,-662.37 1137.73,-653.52 1144.15,-639.6 1179.89,-562.17 1254.42,-592.53 1290.15,-515.1 1323.01,-443.9 1329.55,-230.04 1290.15,-162.25 1236.39,-69.74 1102.13,-35.64 1036.48,-24.21"/>
<polygon fill="#994000" stroke="#994000" points="1037.24,-20.62 1026.8,-22.44 1036.1,-27.53 1037.24,-20.62"/>
<text text-anchor="middle" x="1237.65" y="-598.92" font-family="Times,serif" font-size="14.00" fill="#994000">Me go now.</text>
</g>
<!-- Node002&#45;&gt;Node999 -->
<g id="edge15" class="edge">
<title>Node002&#45;&gt;Node999</title>
<path fill="none" stroke="#130099" d="M1388.13,-1421.42C1414,-1376.6 1452.28,-1310.01 1485.15,-1251.69 1571.6,-1098.34 1633.08,-1075.68 1677.15,-905.24 1686.75,-868.13 1679.22,-857.27 1677.15,-818.99 1670.7,-699.52 1648.15,-671 1648.15,-551.35 1648.15,-551.35 1648.15,-551.35 1648.15,-90 1648.15,-28.12 1175.96,-20.15 1037.12,-19.14"/>
<polygon fill="#130099" stroke="#130099" points="1037.24,-15.63 1027.21,-19.07 1037.19,-22.63 1037.24,-15.63"/>
<text text-anchor="middle" x="1719.78" y="-598.92" font-family="Times,serif" font-size="14.00" fill="#130099">I&#39;ll be leaving then.</text>
</g>
<!-- Node002&#45;&gt;Node003 -->
<g id="edge13" class="edge">
<title>Node002&#45;&gt;Node003</title>
<path fill="none" stroke="#00996c" d="M1327,-1421.36C1303.82,-1387.52 1269.02,-1345.45 1227.15,-1322.19 1182.7,-1297.49 1156.96,-1331.65 1114.15,-1304.19 1098.64,-1294.24 1103.02,-1283.79 1091.15,-1269.69 1067.97,-1242.16 1040.99,-1214.43 1014.73,-1189.21"/>
<polygon fill="#00996c" stroke="#00996c" points="1017.63,-1187.19 1007.98,-1182.82 1012.8,-1192.26 1017.63,-1187.19"/>
<text text-anchor="middle" x="1148.65" y="-1282.27" font-family="Times,serif" font-size="14.00" fill="#00996c">Who you?</text>
</g>
<!-- Node002&#45;&gt;Node003 -->
<g id="edge16" class="edge">
<title>Node002&#45;&gt;Node003</title>
<path fill="none" stroke="#199900" d="M1317.66,-1423.01C1292.6,-1392.84 1259.18,-1354.22 1227.15,-1322.19 1218.52,-1313.56 1214.5,-1313.33 1206.4,-1304.19 1194.15,-1290.35 1196.38,-1282.61 1183.15,-1269.69 1138.17,-1225.75 1080.9,-1186.69 1029.67,-1156.18"/>
<polygon fill="#199900" stroke="#199900" points="1031.9,-1152.85 1021.51,-1150.78 1028.34,-1158.88 1031.9,-1152.85"/>
<text text-anchor="middle" x="1254.53" y="-1282.27" font-family="Times,serif" font-size="14.00" fill="#199900">Who are you?</text>
</g>
<!-- Node004 -->
<g id="node24" class="node">
<title>Node004</title>
<ellipse fill="#ffffff" stroke="#000000" cx="1481.15" cy="-603.6" rx="125.39" ry="18"/>
<text text-anchor="middle" x="1481.15" y="-598.92" font-family="Times,serif" font-size="14.00">You wait. I ask mother.</text>
</g>
<!-- Node002&#45;&gt;Node004 -->
<g id="edge12" class="edge">
<title>Node002&#45;&gt;Node004</title>
<path fill="none" stroke="#990099" d="M1353.23,-1419.55C1341.53,-1283.36 1316.12,-927.47 1359.15,-818.99 1391.72,-736.89 1462.65,-756.22 1495.15,-674.1 1500.43,-660.77 1498.01,-645.2 1493.8,-632.17"/>
<polygon fill="#990099" stroke="#990099" points="1496.76,-631.08 1489.98,-622.93 1490.2,-633.53 1496.76,-631.08"/>
<text text-anchor="middle" x="1435.65" y="-857.44" font-family="Times,serif" font-size="14.00" fill="#990099">Me want talk mother.</text>
</g>
<!-- Node002&#45;&gt;Node004 -->
<g id="edge17" class="edge">
<title>Node002&#45;&gt;Node004</title>
<path fill="none" stroke="#990046" d="M1377.64,-1420.16C1412.96,-1320.79 1486.33,-1099.18 1512.15,-905.24 1517.21,-867.24 1512.37,-857.32 1512.15,-818.99 1511.71,-739.26 1537.61,-714.46 1510.15,-639.6 1508.99,-636.44 1507.42,-633.36 1505.59,-630.43"/>
<polygon fill="#990046" stroke="#990046" points="1507.87,-628.61 1499.14,-622.61 1502.22,-632.75 1507.87,-628.61"/>
<text text-anchor="middle" x="1593.65" y="-866.07" font-family="Times,serif" font-size="14.00" fill="#990046">I&#39;d like to speak to the</text>
<text text-anchor="middle" x="1593.65" y="-848.82" font-family="Times,serif" font-size="14.00" fill="#990046">mother.</text>
</g>
<!-- Node003&#45;&gt;Node999 -->
<g id="edge18" class="edge">
<title>Node003&#45;&gt;Node999</title>
<path fill="none" stroke="#007399" d="M866.42,-928.57C856.93,-871.78 849.15,-807.05 849.15,-747.54 849.15,-747.54 849.15,-747.54 849.15,-90 849.15,-40.46 916.81,-25.44 961.25,-20.92"/>
<polygon fill="#007399" stroke="#007399" points="961.33,-24.33 970.99,-19.98 960.72,-17.36 961.33,-24.33"/>
<text text-anchor="middle" x="889.65" y="-545.67" font-family="Times,serif" font-size="14.00" fill="#007399">Me go now.</text>
</g>
<!-- Node003&#45;&gt;Node999 -->
<g id="edge21" class="edge">
<title>Node003&#45;&gt;Node999</title>
<path fill="none" stroke="#009939" d="M838.18,-942.5C800.41,-854.89 751.12,-740.74 707.15,-639.6 687.47,-594.33 667.46,-581.77 675.65,-533.1 711.6,-319.68 708.12,-248.22 835.15,-73 863.74,-33.57 922.09,-22.44 960.92,-19.57"/>
<polygon fill="#009939" stroke="#009939" points="961.02,-23.01 970.8,-18.94 960.61,-16.02 961.02,-23.01"/>
<text text-anchor="middle" x="751.9" y="-554.3" font-family="Times,serif" font-size="14.00" fill="#009939">I guess I&#39;ll be leaving</text>
<text text-anchor="middle" x="751.9" y="-537.05" font-family="Times,serif" font-size="14.00" fill="#009939">now.</text>
</g>
<!-- Node006 -->
<g id="node25" class="node">
<title>Node006</title>
<ellipse fill="#ffffff" stroke="#000000" cx="1103.15" cy="-746.54" rx="137" ry="54.45"/>
<text text-anchor="middle" x="1103.15" y="-767.74" font-family="Times,serif" font-size="14.00">You think so? I not look</text>
<text text-anchor="middle" x="1103.15" y="-750.49" font-family="Times,serif" font-size="14.00">at it that way. That make</text>
<text text-anchor="middle" x="1103.15" y="-733.24" font-family="Times,serif" font-size="14.00">me feel good. I like.</text>
<text text-anchor="middle" x="1103.15" y="-715.99" font-family="Times,serif" font-size="14.00">Thank you.</text>
</g>
<!-- Node003&#45;&gt;Node006 -->
<g id="edge19" class="edge">
<title>Node003&#45;&gt;Node006</title>
<path fill="none" stroke="#999300" d="M1007.62,-995.13C1032.97,-968.57 1057.45,-937.85 1074.15,-905.24 1088.85,-876.56 1096.18,-841.56 1099.81,-811.83"/>
<polygon fill="#999300" stroke="#999300" points="1103.37,-812.46 1100.98,-802.14 1096.41,-811.7 1103.37,-812.46"/>
<text text-anchor="middle" x="1186.28" y="-866.07" font-family="Times,serif" font-size="14.00" fill="#999300">Guard mother important</text>
<text text-anchor="middle" x="1186.28" y="-848.82" font-family="Times,serif" font-size="14.00" fill="#999300">job. You important.</text>
</g>
<!-- Node003&#45;&gt;Node006 -->
<g id="edge20" class="edge">
<title>Node003&#45;&gt;Node006</title>
<path fill="none" stroke="#660099" d="M869.45,-927.5C869.91,-889.14 877.76,-850.25 899.9,-818.99 915.91,-796.39 939.66,-780.89 965.34,-770.27"/>
<polygon fill="#660099" stroke="#660099" points="966.19,-773.3 974.26,-766.43 963.67,-766.77 966.19,-773.3"/>
<text text-anchor="middle" x="984.28" y="-891.94" font-family="Times,serif" font-size="14.00" fill="#660099">Guarding mother is a</text>
<text text-anchor="middle" x="984.28" y="-874.69" font-family="Times,serif" font-size="14.00" fill="#660099">position of great</text>
<text text-anchor="middle" x="984.28" y="-857.44" font-family="Times,serif" font-size="14.00" fill="#660099">responsibility. You must</text>
<text text-anchor="middle" x="984.28" y="-840.19" font-family="Times,serif" font-size="14.00" fill="#660099">be an important pack</text>
<text text-anchor="middle" x="984.28" y="-822.94" font-family="Times,serif" font-size="14.00" fill="#660099">member.</text>
</g>
<!-- Node007&#45;&gt;Node998 -->
<g id="edge29" class="edge">
<title>Node007&#45;&gt;Node998</title>
<path fill="none" stroke="#009906" d="M178.66,-1373.15C161.37,-1352.07 145.73,-1328.73 135.15,-1304.19 108.16,-1241.6 110.89,-1159.37 114.77,-1116.78"/>
<polygon fill="#009906" stroke="#009906" points="118.35,-1117.16 115.87,-1106.86 111.38,-1116.46 118.35,-1117.16"/>
<text text-anchor="middle" x="217.65" y="-1290.89" font-family="Times,serif" font-size="14.00" fill="#009906">Oh yeah? Let&#39;s see just</text>
<text text-anchor="middle" x="217.65" y="-1273.64" font-family="Times,serif" font-size="14.00" fill="#009906">how tough you are!</text>
</g>
<!-- Node007&#45;&gt;Node999 -->
<g id="edge28" class="edge">
<title>Node007&#45;&gt;Node999</title>
<path fill="none" stroke="#330099" d="M303.05,-1322.63C308.86,-1251.66 314.15,-1165.79 314.15,-1088.47 314.15,-1088.47 314.15,-1088.47 314.15,-90 314.15,-24.45 816.88,-19.1 960.98,-18.92"/>
<polygon fill="#330099" stroke="#330099" points="960.88,-22.42 970.88,-18.91 960.88,-15.42 960.88,-22.42"/>
<text text-anchor="middle" x="374.53" y="-598.92" font-family="Times,serif" font-size="14.00" fill="#330099">I&#39;ll be going now.</text>
</g>
<!-- Node005 -->
<g id="node26" class="node">
<title>Node005</title>
<ellipse fill="#ffffff" stroke="#000000" cx="1481.15" cy="-338.67" rx="138.59" ry="176.42"/>
<text text-anchor="middle" x="1481.15" y="-446.12" font-family="Times,serif" font-size="14.00">Mother say she talk to</text>
<text text-anchor="middle" x="1481.15" y="-428.87" font-family="Times,serif" font-size="14.00">you. You go in. You not</text>
<text text-anchor="middle" x="1481.15" y="-411.62" font-family="Times,serif" font-size="14.00">cause trouble. I not want</text>
<text text-anchor="middle" x="1481.15" y="-394.37" font-family="Times,serif" font-size="14.00">hurt you, but I hurt</text>
<text text-anchor="middle" x="1481.15" y="-377.12" font-family="Times,serif" font-size="14.00">you bad if you cause</text>
<text text-anchor="middle" x="1481.15" y="-359.87" font-family="Times,serif" font-size="14.00">trouble.</text>
<text text-anchor="middle" x="1481.15" y="-342.62" font-family="Times,serif" font-size="14.00">&#45;&#45;&#45;</text>
<text text-anchor="middle" x="1481.15" y="-325.37" font-family="Times,serif" font-size="14.00">Mother say she talk to</text>
<text text-anchor="middle" x="1481.15" y="-308.12" font-family="Times,serif" font-size="14.00">you. You go in but you go</text>
<text text-anchor="middle" x="1481.15" y="-290.87" font-family="Times,serif" font-size="14.00">alone; friends stay here.</text>
<text text-anchor="middle" x="1481.15" y="-273.62" font-family="Times,serif" font-size="14.00">You not cause</text>
<text text-anchor="middle" x="1481.15" y="-256.37" font-family="Times,serif" font-size="14.00">trouble. I not want hurt</text>
<text text-anchor="middle" x="1481.15" y="-239.12" font-family="Times,serif" font-size="14.00">you, but I hurt you bad</text>
<text text-anchor="middle" x="1481.15" y="-221.87" font-family="Times,serif" font-size="14.00">if you cause trouble.</text>
</g>
<!-- Node004&#45;&gt;Node005 -->
<g id="edge22" class="edge">
<title>Node004&#45;&gt;Node005</title>
<path fill="none" stroke="#990d00" d="M1481.15,-585.35C1481.15,-571.51 1481.15,-550.48 1481.15,-526.43"/>
<polygon fill="#990d00" stroke="#990d00" points="1484.65,-526.57 1481.15,-516.57 1477.65,-526.57 1484.65,-526.57"/>
<text text-anchor="middle" x="1500.28" y="-545.67" font-family="Times,serif" font-size="14.00" fill="#990d00">Okay.</text>
</g>
<!-- Node006&#45;&gt;Node999 -->
<g id="edge24" class="edge">
<title>Node006&#45;&gt;Node999</title>
<path fill="none" stroke="#4d9900" d="M1103.71,-691.67C1103.94,-665.4 1104.15,-633.35 1104.15,-604.6 1104.15,-604.6 1104.15,-604.6 1104.15,-90 1104.15,-55.85 1065.56,-37.01 1035.17,-27.47"/>
<polygon fill="#4d9900" stroke="#4d9900" points="1036.42,-23.9 1025.84,-24.47 1034.47,-30.62 1036.42,-23.9"/>
<text text-anchor="middle" x="1195.28" y="-334" font-family="Times,serif" font-size="14.00" fill="#4d9900">You welcome. Me go now.</text>
</g>
<!-- Node006&#45;&gt;Node999 -->
<g id="edge26" class="edge">
<title>Node006&#45;&gt;Node999</title>
<path fill="none" stroke="#00998c" d="M1065.99,-693.65C1032.9,-649 982,-583.92 931.15,-533.1 922.16,-524.1 914.38,-526.58 908.9,-515.1 841.36,-373.57 865.4,-312.92 908.9,-162.25 922.46,-115.31 956.45,-68.94 978.64,-42.18"/>
<polygon fill="#00998c" stroke="#00998c" points="981.87,-44.78 985.66,-34.89 976.53,-40.26 981.87,-44.78"/>
<text text-anchor="middle" x="994.78" y="-342.62" font-family="Times,serif" font-size="14.00" fill="#00998c">You&#39;re welcome. I&#39;ve got</text>
<text text-anchor="middle" x="994.78" y="-325.37" font-family="Times,serif" font-size="14.00" fill="#00998c">to go now.</text>
</g>
<!-- Node006&#45;&gt;Node004 -->
<g id="edge25" class="edge">
<title>Node006&#45;&gt;Node004</title>
<path fill="none" stroke="#990079" d="M1121.78,-692.28C1131.37,-672.57 1145.15,-652.03 1164.15,-639.6 1172.79,-633.95 1278.8,-623.02 1365.89,-614.86"/>
<polygon fill="#990079" stroke="#990079" points="1366.05,-618.27 1375.68,-613.86 1365.4,-611.3 1366.05,-618.27"/>
<text text-anchor="middle" x="1240.65" y="-652.17" font-family="Times,serif" font-size="14.00" fill="#990079">Me want talk mother.</text>
</g>
<!-- Node006&#45;&gt;Node004 -->
<g id="edge27" class="edge">
<title>Node006&#45;&gt;Node004</title>
<path fill="none" stroke="#995f00" d="M1223.71,-720.3C1256.17,-709.66 1289.82,-694.77 1317.15,-674.1 1331.95,-662.91 1325.43,-650.2 1340.65,-639.6 1352.97,-631.02 1367.19,-624.53 1381.75,-619.64"/>
<polygon fill="#995f00" stroke="#995f00" points="1382.35,-622.8 1390.86,-616.5 1380.27,-616.12 1382.35,-622.8"/>
<text text-anchor="middle" x="1417.4" y="-652.17" font-family="Times,serif" font-size="14.00" fill="#995f00">May I talk to mother?</text>
</g>
<!-- nodeTrans -->
<g id="node27" class="node">
<title>nodeTrans</title>
<ellipse fill="#ffffff" stroke="#000000" cx="1404.15" cy="-91" rx="27" ry="18"/>
</g>
<!-- Node005&#45;&gt;nodeTrans -->
<g id="edge23" class="edge">
<title>Node005&#45;&gt;nodeTrans</title>
<path fill="none" stroke="#002099" d="M1430.01,-174.49C1423.37,-153.3 1417.29,-133.92 1412.7,-119.27"/>
<polygon fill="#002099" stroke="#002099" points="1415.82,-118.54 1409.49,-110.04 1409.14,-120.63 1415.82,-118.54"/>
<text text-anchor="middle" x="1437.28" y="-130.95" font-family="Times,serif" font-size="14.00" fill="#002099">Okay.</text>
</g>
<!-- nodeTrans&#45;&gt;Node999 -->
<g id="edge37" class="edge">
<title>nodeTrans&#45;&gt;Node999</title>
<path fill="none" stroke="#555555" stroke-dasharray="1,5" d="M1384.24,-78.28C1369.31,-70.08 1348.11,-59.61 1328.15,-54 1225.86,-25.23 1099.62,-19.76 1037.44,-18.94"/>
<polygon fill="#555555" stroke="#555555" points="1037.63,-15.44 1027.6,-18.84 1037.57,-22.44 1037.63,-15.44"/>
</g>
</g>
</svg>
