<?xml version="1.0" encoding="UTF-8" standalone="no"?>
<!DOCTYPE svg PUBLIC "-//W3C//DTD SVG 1.1//EN"
 "http://www.w3.org/Graphics/SVG/1.1/DTD/svg11.dtd">
<!-- Generated by graphviz version 8.0.5 (0)
 -->
<!-- Title: ocsandy Pages: 1 -->
<svg width="2189pt" height="1707pt"
 viewBox="0.00 0.00 2189.25 1706.96" xmlns="http://www.w3.org/2000/svg" xmlns:xlink="http://www.w3.org/1999/xlink">
<g id="graph0" class="graph" transform="scale(1 1) rotate(0) translate(4 1702.96)">
<title>ocsandy</title>
<polygon fill="white" stroke="none" points="-4,4 -4,-1702.96 2185.25,-1702.96 2185.25,4 -4,4"/>
<!-- checkPartyMembersNearDoor -->
<g id="node1" class="node">
<title>checkPartyMembersNearDoor</title>
<ellipse fill="#ffffff" stroke="#000000" cx="27" cy="-1595.72" rx="27" ry="18"/>
</g>
<!-- old_pickup_p_proc -->
<g id="node2" class="node">
<title>old_pickup_p_proc</title>
<ellipse fill="#ffffff" stroke="#000000" cx="99" cy="-1401.03" rx="27" ry="18"/>
</g>
<!-- pickup_p_proc -->
<g id="node3" class="node">
<title>pickup_p_proc</title>
<ellipse fill="#ffffff" stroke="#000000" cx="99" cy="-1595.72" rx="27" ry="18"/>
</g>
<!-- pickup_p_proc&#45;&gt;old_pickup_p_proc -->
<g id="edge1" class="edge">
<title>pickup_p_proc&#45;&gt;old_pickup_p_proc</title>
<path fill="none" stroke="#555555" stroke-dasharray="1,5" d="M99,-1577.28C99,-1543.89 99,-1470.67 99,-1430.24"/>
<polygon fill="#555555" stroke="#555555" points="102.5,-1430.3 99,-1420.3 95.5,-1430.3 102.5,-1430.3"/>
</g>
<!-- getTimeBit -->
<g id="node4" class="node">
<title>getTimeBit</title>
<ellipse fill="#ffffff" stroke="#000000" cx="188" cy="-1595.72" rx="27" ry="18"/>
</g>
<!-- start -->
<g id="node5" class="node">
<title>start</title>
<ellipse fill="#ffffff" stroke="#000000" cx="325" cy="-1595.72" rx="27" ry="18"/>
</g>
<!-- critter_p_proc -->
<g id="node6" class="node">
<title>critter_p_proc</title>
<ellipse fill="#ffffff" stroke="#000000" cx="430" cy="-1595.72" rx="27" ry="18"/>
</g>
<!-- talk_p_proc -->
<g id="node7" class="node">
<title>talk_p_proc</title>
<ellipse fill="#ffffff" stroke="#000000" cx="518" cy="-1595.72" rx="27" ry="18"/>
</g>
<!-- Node008 -->
<g id="node8" class="node">
<title>Node008</title>
<ellipse fill="#ffffff" stroke="#000000" cx="259" cy="-1401.03" rx="115.26" ry="30.05"/>
<text text-anchor="middle" x="259" y="-1404.98" font-family="Times,serif" font-size="14.00">Go away! I don&#39;t like</text>
<text text-anchor="middle" x="259" y="-1387.73" font-family="Times,serif" font-size="14.00">you!</text>
</g>
<!-- talk_p_proc&#45;&gt;Node008 -->
<g id="edge2" class="edge">
<title>talk_p_proc&#45;&gt;Node008</title>
<path fill="none" stroke="#555555" stroke-dasharray="1,5" d="M513.29,-1577.67C506.34,-1555.39 491.35,-1516.39 466,-1492.48 464.6,-1491.16 387.05,-1457.44 327.29,-1431.55"/>
<polygon fill="#555555" stroke="#555555" points="329.06,-1428.07 318.49,-1427.31 326.28,-1434.5 329.06,-1428.07"/>
</g>
<!-- Node001 -->
<g id="node9" class="node">
<title>Node001</title>
<ellipse fill="#ffffff" stroke="#000000" cx="518" cy="-1401.03" rx="125.87" ry="54.45"/>
<text text-anchor="middle" x="518" y="-1422.23" font-family="Times,serif" font-size="14.00">Meow... meow... I am a</text>
<text text-anchor="middle" x="518" y="-1404.98" font-family="Times,serif" font-size="14.00">cat. And I have special</text>
<text text-anchor="middle" x="518" y="-1387.73" font-family="Times,serif" font-size="14.00">powers that only cats</text>
<text text-anchor="middle" x="518" y="-1370.48" font-family="Times,serif" font-size="14.00">have. What are you?</text>
</g>
<!-- talk_p_proc&#45;&gt;Node001 -->
<g id="edge3" class="edge">
<title>talk_p_proc&#45;&gt;Node001</title>
<path fill="none" stroke="#555555" stroke-dasharray="1,5" d="M518,-1577.28C518,-1552.47 518,-1505.66 518,-1466.66"/>
<polygon fill="#555555" stroke="#555555" points="521.5,-1466.89 518,-1456.89 514.5,-1466.89 521.5,-1466.89"/>
</g>
<!-- Node007 -->
<g id="node10" class="node">
<title>Node007</title>
<ellipse fill="#ffffff" stroke="#000000" cx="689" cy="-1401.03" rx="27" ry="18"/>
<text text-anchor="middle" x="689" y="-1396.36" font-family="Times,serif" font-size="14.00">Hi.</text>
</g>
<!-- talk_p_proc&#45;&gt;Node007 -->
<g id="edge4" class="edge">
<title>talk_p_proc&#45;&gt;Node007</title>
<path fill="none" stroke="#555555" stroke-dasharray="1,5" d="M519.6,-1577.55C522.58,-1555.13 530.94,-1515.99 554,-1492.48 586.9,-1458.95 616.12,-1484.57 653,-1455.48 662.35,-1448.1 670.16,-1437.61 676.08,-1427.88"/>
<polygon fill="#555555" stroke="#555555" points="679.48,-1429.97 681.36,-1419.54 673.39,-1426.52 679.48,-1429.97"/>
</g>
<!-- Node999 -->
<g id="node21" class="node">
<title>Node999</title>
<ellipse fill="#ffffff" stroke="#000000" cx="1080" cy="-18" rx="27" ry="18"/>
</g>
<!-- Node001&#45;&gt;Node999 -->
<g id="edge7" class="edge">
<title>Node001&#45;&gt;Node999</title>
<path fill="none" stroke="#990075" d="M430.46,-1361.6C409.06,-1351.46 386.45,-1340.12 366,-1328.59 281.34,-1280.84 184,-1304.53 184,-1207.34 184,-1207.34 184,-1207.34 184,-330.71 184,-183.51 238.18,-127.01 366,-54 424.76,-20.43 901.72,-18.66 1041.58,-18.87"/>
<polygon fill="#990075" stroke="#990075" points="1041.56,-22.37 1051.56,-18.89 1041.57,-15.37 1041.56,-22.37"/>
<text text-anchor="middle" x="263.88" y="-742.05" font-family="Times,serif" font-size="14.00" fill="#990075">You strange. Me gone.</text>
</g>
<!-- Node001&#45;&gt;Node999 -->
<g id="edge10" class="edge">
<title>Node001&#45;&gt;Node999</title>
<path fill="none" stroke="#370099" d="M428.43,-1362.39C415.04,-1353.16 402.8,-1341.98 394,-1328.59 364.2,-1283.26 380,-1261.58 380,-1207.34 380,-1207.34 380,-1207.34 380,-330.71 380,-191.24 395.34,-97.03 528,-54 623.83,-22.92 933.4,-19.27 1041.95,-18.97"/>
<polygon fill="#370099" stroke="#370099" points="1041.71,-22.47 1051.71,-18.95 1041.7,-15.47 1041.71,-22.47"/>
<text text-anchor="middle" x="424.25" y="-742.05" font-family="Times,serif" font-size="14.00" fill="#370099">Never mind.</text>
</g>
<!-- Node002a -->
<g id="node22" class="node">
<title>Node002a</title>
<ellipse fill="#ffffff" stroke="#000000" cx="853" cy="-1206.34" rx="27" ry="18"/>
</g>
<!-- Node001&#45;&gt;Node002a -->
<g id="edge5" class="edge">
<title>Node001&#45;&gt;Node002a</title>
<path fill="none" stroke="#001b99" d="M581.17,-1353.92C589,-1346.15 596.25,-1337.64 602,-1328.59 623.31,-1295.05 595.86,-1268.79 625.5,-1242.34 652.82,-1217.95 757.63,-1210.54 814.97,-1208.3"/>
<polygon fill="#001b99" stroke="#001b99" points="814.9,-1211.77 824.77,-1207.92 814.65,-1204.78 814.9,-1211.77"/>
<text text-anchor="middle" x="728.75" y="-1289.41" font-family="Times,serif" font-size="14.00" fill="#001b99">Me doggy! Woof! Woof! Who</text>
<text text-anchor="middle" x="728.75" y="-1272.16" font-family="Times,serif" font-size="14.00" fill="#001b99">you?</text>
</g>
<!-- Node001&#45;&gt;Node002a -->
<g id="edge9" class="edge">
<title>Node001&#45;&gt;Node002a</title>
<path fill="none" stroke="#996400" d="M605.46,-1361.38C621.05,-1355.65 637.33,-1350.4 653,-1346.59 691.63,-1337.18 801.8,-1355.57 831,-1328.59 844.29,-1316.3 849.63,-1267.28 851.71,-1235.45"/>
<polygon fill="#996400" stroke="#996400" points="855.26,-1235.79 852.34,-1225.61 848.27,-1235.39 855.26,-1235.79"/>
<text text-anchor="middle" x="941.25" y="-1315.29" font-family="Times,serif" font-size="14.00" fill="#996400">I&#39;m just a normal person</text>
<text text-anchor="middle" x="941.25" y="-1298.04" font-family="Times,serif" font-size="14.00" fill="#996400">who is quite impressed</text>
<text text-anchor="middle" x="941.25" y="-1280.79" font-family="Times,serif" font-size="14.00" fill="#996400">with your special nature.</text>
<text text-anchor="middle" x="941.25" y="-1263.54" font-family="Times,serif" font-size="14.00" fill="#996400">Can you tell me your</text>
<text text-anchor="middle" x="941.25" y="-1246.29" font-family="Times,serif" font-size="14.00" fill="#996400"> name?</text>
</g>
<!-- Node002b -->
<g id="node23" class="node">
<title>Node002b</title>
<ellipse fill="#ffffff" stroke="#000000" cx="1053" cy="-1206.34" rx="27" ry="18"/>
</g>
<!-- Node001&#45;&gt;Node002b -->
<g id="edge6" class="edge">
<title>Node001&#45;&gt;Node002b</title>
<path fill="none" stroke="#489900" d="M604.2,-1361.07C620.14,-1355.26 636.86,-1350.06 653,-1346.59 694.32,-1337.69 1001.43,-1356.69 1033,-1328.59 1058.77,-1305.65 1059.96,-1263.3 1057.35,-1235.23"/>
<polygon fill="#489900" stroke="#489900" points="1060.73,-1235.05 1056.1,-1225.52 1053.78,-1235.86 1060.73,-1235.05"/>
<text text-anchor="middle" x="1144.5" y="-1289.41" font-family="Times,serif" font-size="14.00" fill="#489900">Urrrh? (confused puppy</text>
<text text-anchor="middle" x="1144.5" y="-1272.16" font-family="Times,serif" font-size="14.00" fill="#489900">look)</text>
</g>
<!-- Node002c -->
<g id="node24" class="node">
<title>Node002c</title>
<ellipse fill="#ffffff" stroke="#000000" cx="608" cy="-1206.34" rx="27" ry="18"/>
</g>
<!-- Node001&#45;&gt;Node002c -->
<g id="edge8" class="edge">
<title>Node001&#45;&gt;Node002c</title>
<path fill="none" stroke="#009991" d="M438.53,-1358.57C428.58,-1350.01 419.79,-1340.04 413.75,-1328.59 395.88,-1294.67 389.16,-1271.75 413.75,-1242.34 433.26,-1218.99 519.17,-1211.19 569.97,-1208.61"/>
<polygon fill="#009991" stroke="#009991" points="570.02,-1212.06 579.85,-1208.1 569.7,-1205.07 570.02,-1212.06"/>
<text text-anchor="middle" x="508.12" y="-1315.29" font-family="Times,serif" font-size="14.00" fill="#009991">I&#39;m the person that&#39;s</text>
<text text-anchor="middle" x="508.12" y="-1298.04" font-family="Times,serif" font-size="14.00" fill="#009991">gonna kick your ass if</text>
<text text-anchor="middle" x="508.12" y="-1280.79" font-family="Times,serif" font-size="14.00" fill="#009991">you don&#39;t stop this cat</text>
<text text-anchor="middle" x="508.12" y="-1263.54" font-family="Times,serif" font-size="14.00" fill="#009991">nonsense and tell me your</text>
<text text-anchor="middle" x="508.12" y="-1246.29" font-family="Times,serif" font-size="14.00" fill="#009991"> name.</text>
</g>
<!-- destroy_p_proc -->
<g id="node11" class="node">
<title>destroy_p_proc</title>
<ellipse fill="#ffffff" stroke="#000000" cx="590" cy="-1595.72" rx="27" ry="18"/>
</g>
<!-- look_at_p_proc -->
<g id="node12" class="node">
<title>look_at_p_proc</title>
<ellipse fill="#ffffff" stroke="#000000" cx="771" cy="-1595.72" rx="135.94" ry="54.45"/>
<text text-anchor="middle" x="771" y="-1616.92" font-family="Times,serif" font-size="14.00">You see a small girl</text>
<text text-anchor="middle" x="771" y="-1599.67" font-family="Times,serif" font-size="14.00">wearing a yellow dress.</text>
<text text-anchor="middle" x="771" y="-1582.42" font-family="Times,serif" font-size="14.00">&#45;&#45;&#45;</text>
<text text-anchor="middle" x="771" y="-1565.17" font-family="Times,serif" font-size="14.00">You see Sandy, the child.</text>
</g>
<!-- description_p_proc -->
<g id="node13" class="node">
<title>description_p_proc</title>
<ellipse fill="#ffffff" stroke="#000000" cx="1054" cy="-1595.72" rx="129.05" ry="103.24"/>
<text text-anchor="middle" x="1054" y="-1651.42" font-family="Times,serif" font-size="14.00">You see a small girl</text>
<text text-anchor="middle" x="1054" y="-1634.17" font-family="Times,serif" font-size="14.00">wearing a yellow dress</text>
<text text-anchor="middle" x="1054" y="-1616.92" font-family="Times,serif" font-size="14.00">with flowers on it. &#160;She</text>
<text text-anchor="middle" x="1054" y="-1599.67" font-family="Times,serif" font-size="14.00">appears to be meowing</text>
<text text-anchor="middle" x="1054" y="-1582.42" font-family="Times,serif" font-size="14.00">like</text>
<text text-anchor="middle" x="1054" y="-1565.17" font-family="Times,serif" font-size="14.00">a cat. &#160;She has on a</text>
<text text-anchor="middle" x="1054" y="-1547.92" font-family="Times,serif" font-size="14.00">name tag that says</text>
<text text-anchor="middle" x="1054" y="-1530.67" font-family="Times,serif" font-size="14.00">&quot;Sandy&quot;.</text>
</g>
<!-- use_skill_on_p_proc -->
<g id="node14" class="node">
<title>use_skill_on_p_proc</title>
<ellipse fill="#ffffff" stroke="#000000" cx="1228" cy="-1595.72" rx="27" ry="18"/>
</g>
<!-- damage_p_proc -->
<g id="node15" class="node">
<title>damage_p_proc</title>
<ellipse fill="#ffffff" stroke="#000000" cx="1300" cy="-1595.72" rx="27" ry="18"/>
</g>
<!-- map_enter_p_proc -->
<g id="node16" class="node">
<title>map_enter_p_proc</title>
<ellipse fill="#ffffff" stroke="#000000" cx="1372" cy="-1595.72" rx="27" ry="18"/>
</g>
<!-- push_p_proc -->
<g id="node17" class="node">
<title>push_p_proc</title>
<ellipse fill="#ffffff" stroke="#000000" cx="1444" cy="-1595.72" rx="27" ry="18"/>
</g>
<!-- timed_event_p_proc -->
<g id="node18" class="node">
<title>timed_event_p_proc</title>
<ellipse fill="#ffffff" stroke="#000000" cx="1516" cy="-1595.72" rx="27" ry="18"/>
</g>
<!-- combat_p_proc -->
<g id="node19" class="node">
<title>combat_p_proc</title>
<ellipse fill="#ffffff" stroke="#000000" cx="1588" cy="-1595.72" rx="27" ry="18"/>
</g>
<!-- Node998 -->
<g id="node20" class="node">
<title>Node998</title>
<ellipse fill="#ffffff" stroke="#000000" cx="1660" cy="-1595.72" rx="27" ry="18"/>
</g>
<!-- Node002 -->
<g id="node25" class="node">
<title>Node002</title>
<ellipse fill="#ffffff" stroke="#000000" cx="1048" cy="-999.31" rx="158.75" ry="152.03"/>
<text text-anchor="middle" x="1048" y="-1089.51" font-family="Times,serif" font-size="14.00">(Giggles) You look funny!</text>
<text text-anchor="middle" x="1048" y="-1072.26" font-family="Times,serif" font-size="14.00">Meow... I&#39;m Sandy. I&#39;m</text>
<text text-anchor="middle" x="1048" y="-1055.01" font-family="Times,serif" font-size="14.00">not really a cat. I just</text>
<text text-anchor="middle" x="1048" y="-1037.76" font-family="Times,serif" font-size="14.00">like to play like I</text>
<text text-anchor="middle" x="1048" y="-1020.51" font-family="Times,serif" font-size="14.00"> am.</text>
<text text-anchor="middle" x="1048" y="-1003.26" font-family="Times,serif" font-size="14.00">&#45;&#45;&#45;</text>
<text text-anchor="middle" x="1048" y="-986.01" font-family="Times,serif" font-size="14.00">I&#39;m Sandy. I&#39;m not really</text>
<text text-anchor="middle" x="1048" y="-968.76" font-family="Times,serif" font-size="14.00">a cat, I just like to</text>
<text text-anchor="middle" x="1048" y="-951.51" font-family="Times,serif" font-size="14.00">play.</text>
<text text-anchor="middle" x="1048" y="-934.26" font-family="Times,serif" font-size="14.00">&#45;&#45;&#45;</text>
<text text-anchor="middle" x="1048" y="-917.01" font-family="Times,serif" font-size="14.00">(Screams) Mommy! Mommy!</text>
<text text-anchor="middle" x="1048" y="-899.76" font-family="Times,serif" font-size="14.00">Mommy!</text>
</g>
<!-- Node002a&#45;&gt;Node002 -->
<g id="edge37" class="edge">
<title>Node002a&#45;&gt;Node002</title>
<path fill="none" stroke="#555555" stroke-dasharray="1,5" d="M867.02,-1190.59C881.97,-1174.87 907.16,-1148.39 934.07,-1120.1"/>
<polygon fill="#555555" stroke="#555555" points="935.96,-1123.14 940.32,-1113.48 930.89,-1118.31 935.96,-1123.14"/>
</g>
<!-- Node002b&#45;&gt;Node002 -->
<g id="edge38" class="edge">
<title>Node002b&#45;&gt;Node002</title>
<path fill="none" stroke="#555555" stroke-dasharray="1,5" d="M1052.57,-1187.86C1052.41,-1180.96 1052.2,-1172.35 1051.96,-1162.64"/>
<polygon fill="#555555" stroke="#555555" points="1055.43,-1162.61 1051.69,-1152.7 1048.44,-1162.78 1055.43,-1162.61"/>
</g>
<!-- Node002c&#45;&gt;Node002 -->
<g id="edge39" class="edge">
<title>Node002c&#45;&gt;Node002</title>
<path fill="none" stroke="#555555" stroke-dasharray="1,5" d="M629.82,-1195.17C677.94,-1172.75 796.75,-1117.39 895.48,-1071.38"/>
<polygon fill="#555555" stroke="#555555" points="896.69,-1074.21 904.27,-1066.82 893.73,-1067.87 896.69,-1074.21"/>
</g>
<!-- Node002&#45;&gt;Node999 -->
<g id="edge12" class="edge">
<title>Node002&#45;&gt;Node999</title>
<path fill="none" stroke="#990022" d="M1206.53,-985.45C1458.45,-960.6 1922,-894.87 1922,-747.73 1922,-747.73 1922,-747.73 1922,-330.71 1922,-134.5 1768.94,-99.21 1578,-54 1490.7,-33.33 1218.92,-23.2 1118.12,-20.08"/>
<polygon fill="#990022" stroke="#990022" points="1118.35,-16.56 1108.25,-19.75 1118.14,-23.56 1118.35,-16.56"/>
<text text-anchor="middle" x="1972.62" y="-623.5" font-family="Times,serif" font-size="14.00" fill="#990022">Me leave now.</text>
</g>
<!-- Node002&#45;&gt;Node999 -->
<g id="edge14" class="edge">
<title>Node002&#45;&gt;Node999</title>
<path fill="none" stroke="#7b9900" d="M1206.8,-991.66C1491.42,-975.37 2059,-921.16 2059,-747.73 2059,-747.73 2059,-747.73 2059,-330.71 2059,-217.05 2028.03,-173.2 1936,-106.5 1833.48,-32.19 1781.66,-69.54 1656,-54 1454.37,-29.07 1210.74,-21.67 1118.17,-19.68"/>
<polygon fill="#7b9900" stroke="#7b9900" points="1118.46,-16.16 1108.39,-19.45 1118.32,-23.16 1118.46,-16.16"/>
<text text-anchor="middle" x="2120.12" y="-623.5" font-family="Times,serif" font-size="14.00" fill="#7b9900">Okay, I&#39;m history.</text>
</g>
<!-- Node002&#45;&gt;Node999 -->
<g id="edge16" class="edge">
<title>Node002&#45;&gt;Node999</title>
<path fill="none" stroke="#00995e" d="M890.56,-977.32C783.12,-955.9 643.36,-913.27 547,-829.28 478.46,-769.54 476.58,-734.68 455.75,-646.18 452.08,-630.6 454.2,-626.1 455.75,-610.18 480.14,-359.45 376,-220.55 565,-54 600.55,-22.67 928.84,-19.22 1041.93,-18.97"/>
<polygon fill="#00995e" stroke="#00995e" points="1041.8,-22.46 1051.8,-18.95 1041.79,-15.46 1041.8,-22.46"/>
<text text-anchor="middle" x="506.62" y="-623.5" font-family="Times,serif" font-size="14.00" fill="#00995e">Me leave now.</text>
</g>
<!-- Node002&#45;&gt;Node999 -->
<g id="edge18" class="edge">
<title>Node002&#45;&gt;Node999</title>
<path fill="none" stroke="#040099" d="M898.61,-946.67C789.81,-900.28 650.33,-820.47 584,-698.68 575.25,-682.61 458.87,-345.9 598,-106.5 620.69,-67.45 642.07,-68.02 685,-54 750.68,-32.55 956.23,-23.22 1041.91,-20.19"/>
<polygon fill="#040099" stroke="#040099" points="1041.83,-23.66 1051.7,-19.82 1041.59,-16.66 1041.83,-23.66"/>
<text text-anchor="middle" x="628.12" y="-623.5" font-family="Times,serif" font-size="14.00" fill="#040099">Okay, I&#39;m history.</text>
</g>
<!-- Node003 -->
<g id="node26" class="node">
<title>Node003</title>
<ellipse fill="#ffffff" stroke="#000000" cx="1252" cy="-746.73" rx="135.94" ry="30.05"/>
<text text-anchor="middle" x="1252" y="-750.68" font-family="Times,serif" font-size="14.00">What do you want to ask</text>
<text text-anchor="middle" x="1252" y="-733.43" font-family="Times,serif" font-size="14.00">me?</text>
</g>
<!-- Node002&#45;&gt;Node003 -->
<g id="edge11" class="edge">
<title>Node002&#45;&gt;Node003</title>
<path fill="none" stroke="#00990b" d="M1170.52,-902.61C1192.84,-880.52 1214.07,-855.68 1230,-829.28 1237.53,-816.8 1242.53,-801.71 1245.83,-787.92"/>
<polygon fill="#00990b" stroke="#00990b" points="1249.45,-788.73 1248.13,-778.22 1242.61,-787.26 1249.45,-788.73"/>
<text text-anchor="middle" x="1330" y="-815.98" font-family="Times,serif" font-size="14.00" fill="#00990b">Me play too. Me ask you</text>
<text text-anchor="middle" x="1330" y="-798.73" font-family="Times,serif" font-size="14.00" fill="#00990b">questions?</text>
</g>
<!-- Node002&#45;&gt;Node003 -->
<g id="edge13" class="edge">
<title>Node002&#45;&gt;Node003</title>
<path fill="none" stroke="#004f99" d="M1203.7,-969.36C1283.15,-945.85 1372.94,-903.82 1421,-829.28 1440.49,-799.05 1411.74,-779.73 1372.74,-767.53"/>
<polygon fill="#004f99" stroke="#004f99" points="1374.2,-764.02 1363.62,-764.58 1372.24,-770.74 1374.2,-764.02"/>
<text text-anchor="middle" x="1517.38" y="-815.98" font-family="Times,serif" font-size="14.00" fill="#004f99">I see. Can I ask you some</text>
<text text-anchor="middle" x="1517.38" y="-798.73" font-family="Times,serif" font-size="14.00" fill="#004f99">questions?</text>
</g>
<!-- Node002&#45;&gt;Node003 -->
<g id="edge15" class="edge">
<title>Node002&#45;&gt;Node003</title>
<path fill="none" stroke="#8a0099" d="M909.06,-925.21C854.19,-887.03 812.56,-839.14 852,-794.78 869.3,-775.33 1001.82,-762.59 1109.67,-755.33"/>
<polygon fill="#8a0099" stroke="#8a0099" points="1109.61,-758.77 1119.35,-754.62 1109.14,-751.79 1109.61,-758.77"/>
<text text-anchor="middle" x="939" y="-815.98" font-family="Times,serif" font-size="14.00" fill="#8a0099">Me play too. Me ask you</text>
<text text-anchor="middle" x="939" y="-798.73" font-family="Times,serif" font-size="14.00" fill="#8a0099">questions?</text>
</g>
<!-- Node002&#45;&gt;Node003 -->
<g id="edge17" class="edge">
<title>Node002&#45;&gt;Node003</title>
<path fill="none" stroke="#993100" d="M1022.86,-848.84C1025.91,-829.18 1032.74,-810.46 1045.25,-794.78 1056.2,-781.06 1087.66,-771.04 1122.85,-763.86"/>
<polygon fill="#993100" stroke="#993100" points="1123.21,-767.16 1132.36,-761.81 1121.88,-760.29 1123.21,-767.16"/>
<text text-anchor="middle" x="1136.38" y="-815.98" font-family="Times,serif" font-size="14.00" fill="#993100">I see. Can I ask you some</text>
<text text-anchor="middle" x="1136.38" y="-798.73" font-family="Times,serif" font-size="14.00" fill="#993100">questions?</text>
</g>
<!-- Node003&#45;&gt;Node999 -->
<g id="edge25" class="edge">
<title>Node003&#45;&gt;Node999</title>
<path fill="none" stroke="#990002" d="M1388.18,-745.27C1541.4,-739.84 1758.89,-714.38 1677,-610.18 1656.08,-583.56 1625.43,-617.52 1603,-592.18 1441.54,-409.75 1717.08,-162.58 1499,-54 1432.73,-21 1208.46,-18.32 1118.15,-18.63"/>
<polygon fill="#990002" stroke="#990002" points="1118.3,-15.14 1108.32,-18.69 1118.33,-22.14 1118.3,-15.14"/>
<text text-anchor="middle" x="1684" y="-578.88" font-family="Times,serif" font-size="14.00" fill="#990002">Never mind. Me leave.</text>
</g>
<!-- Node003&#45;&gt;Node999 -->
<g id="edge26" class="edge">
<title>Node003&#45;&gt;Node999</title>
<path fill="none" stroke="#002f99" d="M1387.5,-743.26C1496.8,-739.08 1640.24,-727.97 1690,-698.68 1745.42,-666.05 1776.91,-638.13 1765,-574.93 1718.21,-326.57 1762.4,-168.3 1537,-54 1500.06,-35.27 1220.95,-23.86 1117.99,-20.25"/>
<polygon fill="#002f99" stroke="#002f99" points="1118.29,-16.72 1108.18,-19.87 1118.05,-23.72 1118.29,-16.72"/>
<text text-anchor="middle" x="1827" y="-578.88" font-family="Times,serif" font-size="14.00" fill="#002f99">Never mind. Bye</text>
</g>
<!-- Node004a -->
<g id="node27" class="node">
<title>Node004a</title>
<ellipse fill="#ffffff" stroke="#000000" cx="1079" cy="-628.18" rx="27" ry="18"/>
</g>
<!-- Node003&#45;&gt;Node004a -->
<g id="edge19" class="edge">
<title>Node003&#45;&gt;Node004a</title>
<path fill="none" stroke="#289900" d="M1148.56,-726.84C1119.61,-719.43 1093.5,-709.97 1084.25,-698.68 1074.87,-687.23 1073.26,-670.86 1074.13,-656.88"/>
<polygon fill="#289900" stroke="#289900" points="1077.67,-657.64 1075.26,-647.32 1070.71,-656.89 1077.67,-657.64"/>
<text text-anchor="middle" x="1161.88" y="-676.75" font-family="Times,serif" font-size="14.00" fill="#289900">You forced stay here?</text>
</g>
<!-- Node003&#45;&gt;Node004a -->
<g id="edge20" class="edge">
<title>Node003&#45;&gt;Node004a</title>
<path fill="none" stroke="#990055" d="M1116.12,-744.54C1033.58,-740.6 939.12,-729.25 912.5,-698.68 902.43,-687.11 902.84,-676.08 912.5,-664.18 928.38,-644.61 997.07,-635.58 1041.11,-631.73"/>
<polygon fill="#990055" stroke="#990055" points="1041.32,-635.14 1051,-630.84 1040.75,-628.17 1041.32,-635.14"/>
<text text-anchor="middle" x="991.75" y="-685.38" font-family="Times,serif" font-size="14.00" fill="#990055">Are you forced to stay</text>
<text text-anchor="middle" x="991.75" y="-668.13" font-family="Times,serif" font-size="14.00" fill="#990055">here?</text>
</g>
<!-- Node005a -->
<g id="node28" class="node">
<title>Node005a</title>
<ellipse fill="#ffffff" stroke="#000000" cx="1331" cy="-628.18" rx="27" ry="18"/>
</g>
<!-- Node003&#45;&gt;Node005a -->
<g id="edge21" class="edge">
<title>Node003&#45;&gt;Node005a</title>
<path fill="none" stroke="#008299" d="M1260.42,-716.29C1266.07,-699.88 1274.65,-679.69 1286.5,-664.18 1291.15,-658.09 1297.09,-652.46 1303.11,-647.58"/>
<polygon fill="#008299" stroke="#008299" points="1304.96,-649.82 1310.84,-641 1300.75,-644.23 1304.96,-649.82"/>
<text text-anchor="middle" x="1346.75" y="-676.75" font-family="Times,serif" font-size="14.00" fill="#008299">You like be here?</text>
</g>
<!-- Node003&#45;&gt;Node005a -->
<g id="edge22" class="edge">
<title>Node003&#45;&gt;Node005a</title>
<path fill="none" stroke="#998400" d="M1366.19,-730.22C1382.53,-723.1 1397.37,-712.98 1408,-698.68 1417.14,-686.37 1416.3,-677.07 1408,-664.18 1406.61,-662.03 1383.89,-651.83 1363.49,-643"/>
<polygon fill="#998400" stroke="#998400" points="1365.03,-639.42 1354.46,-638.68 1362.26,-645.85 1365.03,-639.42"/>
<text text-anchor="middle" x="1483.38" y="-676.75" font-family="Times,serif" font-size="14.00" fill="#998400">Do you like it here?</text>
</g>
<!-- Node006a -->
<g id="node29" class="node">
<title>Node006a</title>
<ellipse fill="#ffffff" stroke="#000000" cx="746" cy="-628.18" rx="27" ry="18"/>
</g>
<!-- Node003&#45;&gt;Node006a -->
<g id="edge23" class="edge">
<title>Node003&#45;&gt;Node006a</title>
<path fill="none" stroke="#570099" d="M1115.95,-745.65C934,-744.11 630.15,-735.9 595.5,-698.68 585.05,-687.45 585.58,-675.87 595.5,-664.18 611.46,-645.38 681.29,-652.94 705,-646.18 707.99,-645.32 711.05,-644.32 714.09,-643.23"/>
<polygon fill="#570099" stroke="#570099" points="715.15,-646.19 723.2,-639.3 712.61,-639.66 715.15,-646.19"/>
<text text-anchor="middle" x="647.75" y="-676.75" font-family="Times,serif" font-size="14.00" fill="#570099">You safe here?</text>
</g>
<!-- Node003&#45;&gt;Node006a -->
<g id="edge24" class="edge">
<title>Node003&#45;&gt;Node006a</title>
<path fill="none" stroke="#00992a" d="M1116.85,-743.02C968.72,-738.63 748.45,-727.31 722.25,-698.68 710.81,-686.18 717.65,-667.93 726.87,-653.26"/>
<polygon fill="#00992a" stroke="#00992a" points="730.3,-655.46 733.1,-645.24 724.54,-651.48 730.3,-655.46"/>
<text text-anchor="middle" x="789.38" y="-676.75" font-family="Times,serif" font-size="14.00" fill="#00992a">Are you safe here?</text>
</g>
<!-- Node004 -->
<g id="node30" class="node">
<title>Node004</title>
<ellipse fill="#ffffff" stroke="#000000" cx="1079" cy="-331.71" rx="148.14" ry="164.23"/>
<text text-anchor="middle" x="1079" y="-430.54" font-family="Times,serif" font-size="14.00">Yeah. My mom always tells</text>
<text text-anchor="middle" x="1079" y="-413.29" font-family="Times,serif" font-size="14.00">me where I can and can&#39;t</text>
<text text-anchor="middle" x="1079" y="-396.04" font-family="Times,serif" font-size="14.00">go. She tells me where I</text>
<text text-anchor="middle" x="1079" y="-378.79" font-family="Times,serif" font-size="14.00">can play and when</text>
<text text-anchor="middle" x="1079" y="-361.54" font-family="Times,serif" font-size="14.00">to eat and when to go to</text>
<text text-anchor="middle" x="1079" y="-344.29" font-family="Times,serif" font-size="14.00">bed and when to go potty</text>
<text text-anchor="middle" x="1079" y="-327.04" font-family="Times,serif" font-size="14.00">and when to go to school</text>
<text text-anchor="middle" x="1079" y="-309.79" font-family="Times,serif" font-size="14.00">and everything. I don&#39;t</text>
<text text-anchor="middle" x="1079" y="-292.54" font-family="Times,serif" font-size="14.00">think</text>
<text text-anchor="middle" x="1079" y="-275.29" font-family="Times,serif" font-size="14.00">it&#39;s fair that she can</text>
<text text-anchor="middle" x="1079" y="-258.04" font-family="Times,serif" font-size="14.00">do anything she wants but</text>
<text text-anchor="middle" x="1079" y="-240.79" font-family="Times,serif" font-size="14.00">I&#39;ve gotta do what she</text>
<text text-anchor="middle" x="1079" y="-223.54" font-family="Times,serif" font-size="14.00">says all the time.</text>
</g>
<!-- Node004a&#45;&gt;Node004 -->
<g id="edge40" class="edge">
<title>Node004a&#45;&gt;Node004</title>
<path fill="none" stroke="#555555" stroke-dasharray="1,5" d="M1079,-610.07C1079,-588.57 1079,-549.32 1079,-506.98"/>
<polygon fill="#555555" stroke="#555555" points="1082.5,-507.16 1079,-497.16 1075.5,-507.16 1082.5,-507.16"/>
</g>
<!-- Node005 -->
<g id="node31" class="node">
<title>Node005</title>
<ellipse fill="#ffffff" stroke="#000000" cx="1394" cy="-331.71" rx="143.37" ry="225.21"/>
<text text-anchor="middle" x="1394" y="-473.66" font-family="Times,serif" font-size="14.00">I guess. I miss not</text>
<text text-anchor="middle" x="1394" y="-456.41" font-family="Times,serif" font-size="14.00">having other kids to play</text>
<text text-anchor="middle" x="1394" y="-439.16" font-family="Times,serif" font-size="14.00">with but Mom says that</text>
<text text-anchor="middle" x="1394" y="-421.91" font-family="Times,serif" font-size="14.00">will change some day. She</text>
<text text-anchor="middle" x="1394" y="-404.66" font-family="Times,serif" font-size="14.00">thinks other kids will</text>
<text text-anchor="middle" x="1394" y="-387.41" font-family="Times,serif" font-size="14.00">come to live here. Until</text>
<text text-anchor="middle" x="1394" y="-370.16" font-family="Times,serif" font-size="14.00">they do I like to play</text>
<text text-anchor="middle" x="1394" y="-352.91" font-family="Times,serif" font-size="14.00">with Valdis. He&#39;s funny</text>
<text text-anchor="middle" x="1394" y="-335.66" font-family="Times,serif" font-size="14.00">and he</text>
<text text-anchor="middle" x="1394" y="-318.41" font-family="Times,serif" font-size="14.00">gives me piggy back</text>
<text text-anchor="middle" x="1394" y="-301.16" font-family="Times,serif" font-size="14.00">rides. Mom says I should</text>
<text text-anchor="middle" x="1394" y="-283.91" font-family="Times,serif" font-size="14.00">leave Valdis alone. He&#39;s</text>
<text text-anchor="middle" x="1394" y="-266.66" font-family="Times,serif" font-size="14.00">busy and doesn&#39;t have</text>
<text text-anchor="middle" x="1394" y="-249.41" font-family="Times,serif" font-size="14.00">time to</text>
<text text-anchor="middle" x="1394" y="-232.16" font-family="Times,serif" font-size="14.00">play but he always plays</text>
<text text-anchor="middle" x="1394" y="-214.91" font-family="Times,serif" font-size="14.00">with me when I ask him. I</text>
<text text-anchor="middle" x="1394" y="-197.66" font-family="Times,serif" font-size="14.00">just don&#39;t tell Mom about</text>
<text text-anchor="middle" x="1394" y="-180.41" font-family="Times,serif" font-size="14.00">it anymore.</text>
</g>
<!-- Node005a&#45;&gt;Node005 -->
<g id="edge41" class="edge">
<title>Node005a&#45;&gt;Node005</title>
<path fill="none" stroke="#555555" stroke-dasharray="1,5" d="M1334.66,-610.07C1337.38,-597.36 1341.43,-578.43 1346.16,-556.33"/>
<polygon fill="#555555" stroke="#555555" points="1349.78,-557.12 1348.45,-546.6 1342.94,-555.65 1349.78,-557.12"/>
</g>
<!-- Node006 -->
<g id="node32" class="node">
<title>Node006</title>
<ellipse fill="#ffffff" stroke="#000000" cx="757" cy="-331.71" rx="150.26" ry="54.45"/>
<text text-anchor="middle" x="757" y="-352.91" font-family="Times,serif" font-size="14.00">Yeah. Mommy takes care of</text>
<text text-anchor="middle" x="757" y="-335.66" font-family="Times,serif" font-size="14.00">me and Valdis wouldn&#39;t</text>
<text text-anchor="middle" x="757" y="-318.41" font-family="Times,serif" font-size="14.00">let anyone hurt me. I&#39;m</text>
<text text-anchor="middle" x="757" y="-301.16" font-family="Times,serif" font-size="14.00">safe here.</text>
</g>
<!-- Node006a&#45;&gt;Node006 -->
<g id="edge42" class="edge">
<title>Node006a&#45;&gt;Node006</title>
<path fill="none" stroke="#555555" stroke-dasharray="1,5" d="M746.64,-610.07C748.16,-569.47 752.04,-465.55 754.6,-397.08"/>
<polygon fill="#555555" stroke="#555555" points="758.12,-397.54 754.99,-387.41 751.12,-397.28 758.12,-397.54"/>
</g>
<!-- Node004&#45;&gt;Node999 -->
<g id="edge28" class="edge">
<title>Node004&#45;&gt;Node999</title>
<path fill="none" stroke="#990088" d="M999.68,-192.64C983.6,-146.06 978.62,-95.42 1005,-54 1013.63,-40.44 1029.04,-32.05 1043.65,-26.9"/>
<polygon fill="#990088" stroke="#990088" points="1044.52,-29.99 1053.05,-23.69 1042.46,-23.3 1044.52,-29.99"/>
<text text-anchor="middle" x="1069.5" y="-66.58" font-family="Times,serif" font-size="14.00" fill="#990088">Me got leave now.</text>
</g>
<!-- Node004&#45;&gt;Node999 -->
<g id="edge30" class="edge">
<title>Node004&#45;&gt;Node999</title>
<path fill="none" stroke="#995100" d="M1120.02,-173.61C1125.83,-145.45 1130.89,-116.25 1134,-88.5 1135.71,-73.26 1141.32,-67.47 1134,-54 1129.23,-45.23 1121.21,-38.32 1112.79,-33.03"/>
<polygon fill="#995100" stroke="#995100" points="1114.71,-29.54 1104.27,-27.75 1111.31,-35.66 1114.71,-29.54"/>
<text text-anchor="middle" x="1226.62" y="-75.2" font-family="Times,serif" font-size="14.00" fill="#995100">I think I&#39;ve heard enough</text>
<text text-anchor="middle" x="1226.62" y="-57.95" font-family="Times,serif" font-size="14.00" fill="#995100">for now. Bye.</text>
</g>
<!-- Node004&#45;&gt;Node003 -->
<g id="edge27" class="edge">
<title>Node004&#45;&gt;Node003</title>
<path fill="none" stroke="#5c9900" d="M1156.4,-471.93C1185.78,-529.89 1217.16,-598.81 1238,-664.18 1242.19,-677.33 1245.21,-692.1 1247.35,-705.42"/>
<polygon fill="#5c9900" stroke="#5c9900" points="1244.01,-705.81 1248.94,-715.2 1250.94,-704.79 1244.01,-705.81"/>
<text text-anchor="middle" x="1243" y="-623.5" font-family="Times,serif" font-size="14.00" fill="#5c9900">Ok.</text>
</g>
<!-- Node004&#45;&gt;Node003 -->
<g id="edge29" class="edge">
<title>Node004&#45;&gt;Node003</title>
<path fill="none" stroke="#00997d" d="M987.18,-460.54C928.32,-550.18 868.66,-660.56 902,-698.68 916.27,-714.99 1021.56,-727.64 1112.96,-735.69"/>
<polygon fill="#00997d" stroke="#00997d" points="1112.48,-739.25 1122.75,-736.63 1113.09,-732.28 1112.48,-739.25"/>
<text text-anchor="middle" x="925.12" y="-623.5" font-family="Times,serif" font-size="14.00" fill="#00997d">I see.</text>
</g>
<!-- Node005&#45;&gt;Node999 -->
<g id="edge32" class="edge">
<title>Node005&#45;&gt;Node999</title>
<path fill="none" stroke="#099900" d="M1362.47,-111.63C1351.87,-89.92 1338.02,-70.03 1320,-54 1290.82,-28.03 1177.86,-21.32 1117.9,-19.59"/>
<polygon fill="#099900" stroke="#099900" points="1118.09,-16.07 1108,-19.32 1117.91,-23.07 1118.09,-16.07"/>
<text text-anchor="middle" x="1369.38" y="-66.58" font-family="Times,serif" font-size="14.00" fill="#099900">Me go.</text>
</g>
<!-- Node005&#45;&gt;Node999 -->
<g id="edge34" class="edge">
<title>Node005&#45;&gt;Node999</title>
<path fill="none" stroke="#006299" d="M1427.86,-112.53C1422.57,-91 1413.15,-70.91 1398,-54 1379.59,-33.46 1198.26,-23.72 1117.95,-20.39"/>
<polygon fill="#006299" stroke="#006299" points="1118.45,-16.87 1108.31,-19.96 1118.17,-23.86 1118.45,-16.87"/>
<text text-anchor="middle" x="1456" y="-66.58" font-family="Times,serif" font-size="14.00" fill="#006299">Ok, see ya.</text>
</g>
<!-- Node005&#45;&gt;Node003 -->
<g id="edge31" class="edge">
<title>Node005&#45;&gt;Node003</title>
<path fill="none" stroke="#240099" d="M1365.61,-552.85C1371.27,-587.48 1384.02,-620.31 1408,-646.18 1453.35,-695.09 1512.75,-614.26 1557,-664.18 1567.17,-675.65 1566.98,-687.04 1557,-698.68 1535.69,-723.53 1465.21,-735.38 1397.37,-740.97"/>
<polygon fill="#240099" stroke="#240099" points="1397.22,-737.55 1387.52,-741.82 1397.76,-744.53 1397.22,-737.55"/>
<text text-anchor="middle" x="1495" y="-632.13" font-family="Times,serif" font-size="14.00" fill="#240099">Piggy... (confused puppy</text>
<text text-anchor="middle" x="1495" y="-614.88" font-family="Times,serif" font-size="14.00" fill="#240099">look)</text>
</g>
<!-- Node005&#45;&gt;Node003 -->
<g id="edge33" class="edge">
<title>Node005&#45;&gt;Node003</title>
<path fill="none" stroke="#990035" d="M1508.76,-467.55C1538.53,-510.41 1566.55,-559.83 1582,-610.18 1593.59,-647.93 1602.01,-670.84 1574,-698.68 1548.75,-723.78 1470.29,-735.57 1397.15,-741.07"/>
<polygon fill="#990035" stroke="#990035" points="1397.13,-737.63 1387.41,-741.84 1397.63,-744.62 1397.13,-737.63"/>
<text text-anchor="middle" x="1631.88" y="-623.5" font-family="Times,serif" font-size="14.00" fill="#990035">That&#39;s nice.</text>
</g>
<!-- Node006&#45;&gt;Node999 -->
<g id="edge35" class="edge">
<title>Node006&#45;&gt;Node999</title>
<path fill="none" stroke="#8f9900" d="M724.79,-278.24C691.57,-216.64 651.81,-115.17 707.5,-54 729.73,-29.59 951.58,-21.88 1041.97,-19.74"/>
<polygon fill="#8f9900" stroke="#8f9900" points="1041.91,-23.22 1051.82,-19.49 1041.75,-16.22 1041.91,-23.22"/>
<text text-anchor="middle" x="762.75" y="-66.58" font-family="Times,serif" font-size="14.00" fill="#8f9900">Ok. Me go now.</text>
</g>
<!-- Node006&#45;&gt;Node999 -->
<g id="edge36" class="edge">
<title>Node006&#45;&gt;Node999</title>
<path fill="none" stroke="#770099" d="M767.13,-277.1C781.84,-205.16 811.12,-83.04 845.25,-54 874.22,-29.35 983.47,-22.05 1042.17,-19.9"/>
<polygon fill="#770099" stroke="#770099" points="1041.97,-23.37 1051.85,-19.54 1041.74,-16.38 1041.97,-23.37"/>
<text text-anchor="middle" x="916.88" y="-75.2" font-family="Times,serif" font-size="14.00" fill="#770099">Good; I&#39;ll be leaving</text>
<text text-anchor="middle" x="916.88" y="-57.95" font-family="Times,serif" font-size="14.00" fill="#770099">then.</text>
</g>
</g>
</svg>
