<?xml version="1.0" encoding="UTF-8" standalone="no"?>
<!DOCTYPE svg PUBLIC "-//W3C//DTD SVG 1.1//EN"
 "http://www.w3.org/Graphics/SVG/1.1/DTD/svg11.dtd">
<!-- Generated by graphviz version 8.0.5 (0)
 -->
<!-- Title: scfelix Pages: 1 -->
<svg width="3266pt" height="1260pt"
 viewBox="0.00 0.00 3265.66 1259.61" xmlns="http://www.w3.org/2000/svg" xmlns:xlink="http://www.w3.org/1999/xlink">
<g id="graph0" class="graph" transform="scale(1 1) rotate(0) translate(4 1255.61)">
<title>scfelix</title>
<polygon fill="white" stroke="none" points="-4,4 -4,-1255.61 3261.66,-1255.61 3261.66,4 -4,4"/>
<!-- checkPartyMembersNearDoor -->
<g id="node1" class="node">
<title>checkPartyMembersNearDoor</title>
<ellipse fill="#ffffff" stroke="#000000" cx="712.41" cy="-1172.77" rx="27" ry="18"/>
</g>
<!-- getTimeBit -->
<g id="node2" class="node">
<title>getTimeBit</title>
<ellipse fill="#ffffff" stroke="#000000" cx="784.41" cy="-1172.77" rx="27" ry="18"/>
</g>
<!-- start -->
<g id="node3" class="node">
<title>start</title>
<ellipse fill="#ffffff" stroke="#000000" cx="856.41" cy="-1172.77" rx="27" ry="18"/>
</g>
<!-- critter_p_proc -->
<g id="node4" class="node">
<title>critter_p_proc</title>
<ellipse fill="#ffffff" stroke="#000000" cx="928.41" cy="-1172.77" rx="27" ry="18"/>
</g>
<!-- pickup_p_proc -->
<g id="node5" class="node">
<title>pickup_p_proc</title>
<ellipse fill="#ffffff" stroke="#000000" cx="1000.41" cy="-1172.77" rx="27" ry="18"/>
</g>
<!-- talk_p_proc -->
<g id="node6" class="node">
<title>talk_p_proc</title>
<ellipse fill="#ffffff" stroke="#000000" cx="1072.41" cy="-1172.77" rx="27" ry="18"/>
</g>
<!-- Node010 -->
<g id="node7" class="node">
<title>Node010</title>
<ellipse fill="#ffffff" stroke="#000000" cx="426.41" cy="-986.23" rx="137.49" ry="18"/>
<text text-anchor="middle" x="426.41" y="-981.55" font-family="Times,serif" font-size="14.00">Done with your meeting?</text>
</g>
<!-- talk_p_proc&#45;&gt;Node010 -->
<g id="edge1" class="edge">
<title>talk_p_proc&#45;&gt;Node010</title>
<path fill="none" stroke="#555555" stroke-dasharray="1,5" d="M1069.31,-1154.6C1065.1,-1136.57 1055.77,-1108.81 1036.41,-1093.92 963.24,-1037.68 713.87,-1008.89 557.54,-996.02"/>
<polygon fill="#555555" stroke="#555555" points="558.16,-992.48 547.91,-995.16 557.59,-999.46 558.16,-992.48"/>
</g>
<!-- Node012 -->
<g id="node8" class="node">
<title>Node012</title>
<ellipse fill="#ffffff" stroke="#000000" cx="2240.41" cy="-655.41" rx="134.88" ry="30.05"/>
<text text-anchor="middle" x="2240.41" y="-659.36" font-family="Times,serif" font-size="14.00">Back again, are you? Job</text>
<text text-anchor="middle" x="2240.41" y="-642.11" font-family="Times,serif" font-size="14.00">done?</text>
</g>
<!-- talk_p_proc&#45;&gt;Node012 -->
<g id="edge2" class="edge">
<title>talk_p_proc&#45;&gt;Node012</title>
<path fill="none" stroke="#555555" stroke-dasharray="1,5" d="M1099.23,-1169.67C1184.51,-1162.53 1456.58,-1136.21 1673.41,-1075.92 1858.63,-1024.43 1926.28,-1036.31 2074.41,-913.78 2147.89,-853 2199.88,-751.07 2224.43,-695.48"/>
<polygon fill="#555555" stroke="#555555" points="2227.93,-697.22 2228.7,-686.65 2221.51,-694.43 2227.93,-697.22"/>
</g>
<!-- Node015 -->
<g id="node9" class="node">
<title>Node015</title>
<ellipse fill="#ffffff" stroke="#000000" cx="135.41" cy="-986.23" rx="135.41" ry="30.05"/>
<text text-anchor="middle" x="135.41" y="-990.18" font-family="Times,serif" font-size="14.00">Mr. Westin is waiting for</text>
<text text-anchor="middle" x="135.41" y="-972.93" font-family="Times,serif" font-size="14.00">you.</text>
</g>
<!-- talk_p_proc&#45;&gt;Node015 -->
<g id="edge3" class="edge">
<title>talk_p_proc&#45;&gt;Node015</title>
<path fill="none" stroke="#555555" stroke-dasharray="1,5" d="M1069.66,-1154.54C1065.74,-1136.18 1056.63,-1107.88 1036.41,-1093.92 1001.76,-1070.01 321.57,-1049.52 280.41,-1040.67 255.39,-1035.3 228.89,-1026.51 205.48,-1017.59"/>
<polygon fill="#555555" stroke="#555555" points="206.89,-1014 196.3,-1013.64 204.35,-1020.52 206.89,-1014"/>
</g>
<!-- Node001 -->
<g id="node10" class="node">
<title>Node001</title>
<ellipse fill="#ffffff" stroke="#000000" cx="1355.41" cy="-986.23" rx="122.68" ry="54.45"/>
<text text-anchor="middle" x="1355.41" y="-1007.43" font-family="Times,serif" font-size="14.00">What can I do for you,</text>
<text text-anchor="middle" x="1355.41" y="-990.18" font-family="Times,serif" font-size="14.00">stranger?</text>
<text text-anchor="middle" x="1355.41" y="-972.93" font-family="Times,serif" font-size="14.00">&#45;&#45;&#45;</text>
<text text-anchor="middle" x="1355.41" y="-955.68" font-family="Times,serif" font-size="14.00">You again?</text>
</g>
<!-- talk_p_proc&#45;&gt;Node001 -->
<g id="edge4" class="edge">
<title>talk_p_proc&#45;&gt;Node001</title>
<path fill="none" stroke="#555555" stroke-dasharray="1,5" d="M1090.98,-1159.66C1128.33,-1135.31 1214.41,-1079.17 1278.27,-1037.53"/>
<polygon fill="#555555" stroke="#555555" points="1279.67,-1040.15 1286.13,-1031.75 1275.84,-1034.28 1279.67,-1040.15"/>
</g>
<!-- Node999 -->
<g id="node18" class="node">
<title>Node999</title>
<ellipse fill="#ffffff" stroke="#000000" cx="331.41" cy="-18" rx="27" ry="18"/>
</g>
<!-- Node010&#45;&gt;Node999 -->
<g id="edge21" class="edge">
<title>Node010&#45;&gt;Node999</title>
<path fill="none" stroke="#00996d" d="M387.48,-968.57C358.24,-956.67 316.95,-941.18 279.41,-931.78 251.97,-924.91 174.64,-932.47 153.41,-913.78 64.34,-835.38 82.41,-775.07 82.41,-656.41 82.41,-656.41 82.41,-656.41 82.41,-142.7 82.41,-49.65 223.6,-26.59 293.34,-20.88"/>
<polygon fill="#00996d" stroke="#00996d" points="293.57,-24.3 303.29,-20.08 293.06,-17.32 293.57,-24.3"/>
<text text-anchor="middle" x="106.79" y="-319.92" font-family="Times,serif" font-size="14.00" fill="#00996d">Me go.</text>
</g>
<!-- Node010&#45;&gt;Node999 -->
<g id="edge23" class="edge">
<title>Node010&#45;&gt;Node999</title>
<path fill="none" stroke="#140099" d="M394.68,-968.31C354.04,-945.19 283.8,-900.11 241.41,-844.03 187.36,-772.52 167.41,-746.05 167.41,-656.41 167.41,-656.41 167.41,-656.41 167.41,-142.7 167.41,-78.71 247.98,-43.65 296.17,-28.4"/>
<polygon fill="#140099" stroke="#140099" points="296.94,-31.53 305.5,-25.28 294.92,-24.83 296.94,-31.53"/>
<text text-anchor="middle" x="238.66" y="-319.92" font-family="Times,serif" font-size="14.00" fill="#140099">Yes. I&#39;m out of here.</text>
</g>
<!-- Node011 -->
<g id="node29" class="node">
<title>Node011</title>
<ellipse fill="#ffffff" stroke="#000000" cx="399.41" cy="-655.41" rx="148.67" ry="188.62"/>
<text text-anchor="middle" x="399.41" y="-771.48" font-family="Times,serif" font-size="14.00">Fine, he wants you to</text>
<text text-anchor="middle" x="399.41" y="-754.23" font-family="Times,serif" font-size="14.00">have a job; I got a job</text>
<text text-anchor="middle" x="399.41" y="-736.98" font-family="Times,serif" font-size="14.00">for you. Someone, or</text>
<text text-anchor="middle" x="399.41" y="-719.73" font-family="Times,serif" font-size="14.00">something, kill moo&#45;moos.</text>
<text text-anchor="middle" x="399.41" y="-702.48" font-family="Times,serif" font-size="14.00">You come me. You guard.</text>
<text text-anchor="middle" x="399.41" y="-685.23" font-family="Times,serif" font-size="14.00">Keep moo&#45;moos safe. Make</text>
<text text-anchor="middle" x="399.41" y="-667.98" font-family="Times,serif" font-size="14.00">boss happy. Okay?</text>
<text text-anchor="middle" x="399.41" y="-650.73" font-family="Times,serif" font-size="14.00">&#45;&#45;&#45;</text>
<text text-anchor="middle" x="399.41" y="-633.48" font-family="Times,serif" font-size="14.00">Right. Someone, or</text>
<text text-anchor="middle" x="399.41" y="-616.23" font-family="Times,serif" font-size="14.00">something, has been</text>
<text text-anchor="middle" x="399.41" y="-598.98" font-family="Times,serif" font-size="14.00">killing brahmin on the</text>
<text text-anchor="middle" x="399.41" y="-581.73" font-family="Times,serif" font-size="14.00">west pasture. I&#39;ll take</text>
<text text-anchor="middle" x="399.41" y="-564.48" font-family="Times,serif" font-size="14.00">you out there and you</text>
<text text-anchor="middle" x="399.41" y="-547.23" font-family="Times,serif" font-size="14.00">take care of it. Let&#39;s</text>
<text text-anchor="middle" x="399.41" y="-529.98" font-family="Times,serif" font-size="14.00">go.</text>
</g>
<!-- Node010&#45;&gt;Node011 -->
<g id="edge20" class="edge">
<title>Node010&#45;&gt;Node011</title>
<path fill="none" stroke="#990098" d="M403.34,-968.07C387.96,-955.1 369.02,-935.8 360.41,-913.78 351.73,-891.6 348.28,-867.64 348.27,-843.59"/>
<polygon fill="#990098" stroke="#990098" points="351.79,-843.97 348.49,-833.9 344.79,-843.83 351.79,-843.97"/>
<text text-anchor="middle" x="415.91" y="-883.23" font-family="Times,serif" font-size="14.00" fill="#990098">Westin. Job. Me</text>
</g>
<!-- Node010&#45;&gt;Node011 -->
<g id="edge22" class="edge">
<title>Node010&#45;&gt;Node011</title>
<path fill="none" stroke="#994000" d="M441.13,-968.1C451.86,-954.41 465.52,-934.2 471.41,-913.78 477.79,-891.68 475.27,-884.7 471.41,-862.03 469.97,-853.55 468.21,-844.95 466.21,-836.32"/>
<polygon fill="#994000" stroke="#994000" points="469.42,-835.68 463.66,-826.79 462.62,-837.33 469.42,-835.68"/>
<text text-anchor="middle" x="565.54" y="-900.48" font-family="Times,serif" font-size="14.00" fill="#994000">Yeah. He said to see you</text>
<text text-anchor="middle" x="565.54" y="-883.23" font-family="Times,serif" font-size="14.00" fill="#994000">about some problem with</text>
<text text-anchor="middle" x="565.54" y="-865.98" font-family="Times,serif" font-size="14.00" fill="#994000">the brahmin.</text>
</g>
<!-- Node004 -->
<g id="node24" class="node">
<title>Node004</title>
<ellipse fill="#ffffff" stroke="#000000" cx="1194.41" cy="-143.7" rx="129.05" ry="30.05"/>
<text text-anchor="middle" x="1194.41" y="-147.65" font-family="Times,serif" font-size="14.00">Well then, get on out of</text>
<text text-anchor="middle" x="1194.41" y="-130.4" font-family="Times,serif" font-size="14.00">here.</text>
</g>
<!-- Node012&#45;&gt;Node004 -->
<g id="edge28" class="edge">
<title>Node012&#45;&gt;Node004</title>
<path fill="none" stroke="#670099" d="M2228.87,-625.14C2196.88,-548.72 2098.83,-343.96 1940.41,-270.14 1743.5,-178.4 1489.62,-152.84 1334.58,-146.24"/>
<polygon fill="#670099" stroke="#670099" points="1334.73,-142.7 1324.6,-145.8 1334.45,-149.7 1334.73,-142.7"/>
<text text-anchor="middle" x="2089.79" y="-319.92" font-family="Times,serif" font-size="14.00" fill="#670099">No.</text>
</g>
<!-- Node003 -->
<g id="node25" class="node">
<title>Node003</title>
<ellipse fill="#ffffff" stroke="#000000" cx="1807.41" cy="-324.59" rx="123.74" ry="54.45"/>
<text text-anchor="middle" x="1807.41" y="-345.79" font-family="Times,serif" font-size="14.00">Fine. Go on in.</text>
<text text-anchor="middle" x="1807.41" y="-328.54" font-family="Times,serif" font-size="14.00">&#45;&#45;&#45;</text>
<text text-anchor="middle" x="1807.41" y="-311.29" font-family="Times,serif" font-size="14.00">It&#39;s late. Come back in</text>
<text text-anchor="middle" x="1807.41" y="-294.04" font-family="Times,serif" font-size="14.00">the morning.</text>
</g>
<!-- Node012&#45;&gt;Node003 -->
<g id="edge27" class="edge">
<title>Node012&#45;&gt;Node003</title>
<path fill="none" stroke="#999300" d="M2224.01,-625.32C2200.24,-585.28 2152.84,-512.92 2096.41,-466.79 2094.26,-465.03 1983.36,-411.02 1899.59,-370.32"/>
<polygon fill="#999300" stroke="#999300" points="1901.3,-366.78 1890.77,-365.55 1898.24,-373.07 1901.3,-366.78"/>
<text text-anchor="middle" x="2072.66" y="-418.24" font-family="Times,serif" font-size="14.00" fill="#999300">Yes.</text>
</g>
<!-- Node002 -->
<g id="node19" class="node">
<title>Node002</title>
<ellipse fill="#ffffff" stroke="#000000" cx="1355.41" cy="-655.41" rx="135.41" ry="42.25"/>
<text text-anchor="middle" x="1355.41" y="-667.98" font-family="Times,serif" font-size="14.00">Great, another idiot. I</text>
<text text-anchor="middle" x="1355.41" y="-650.73" font-family="Times,serif" font-size="14.00">suppose you want to see</text>
<text text-anchor="middle" x="1355.41" y="-633.48" font-family="Times,serif" font-size="14.00">the boss?</text>
</g>
<!-- Node001&#45;&gt;Node002 -->
<g id="edge5" class="edge">
<title>Node001&#45;&gt;Node002</title>
<path fill="none" stroke="#005f99" d="M1355.41,-931.3C1355.41,-869.72 1355.41,-769.66 1355.41,-708.76"/>
<polygon fill="#005f99" stroke="#005f99" points="1358.91,-708.86 1355.41,-698.86 1351.91,-708.86 1358.91,-708.86"/>
<text text-anchor="middle" x="1376.41" y="-883.23" font-family="Times,serif" font-size="14.00" fill="#005f99">Nyeh.</text>
</g>
<!-- Node005 -->
<g id="node20" class="node">
<title>Node005</title>
<ellipse fill="#ffffff" stroke="#000000" cx="1651.41" cy="-655.41" rx="142.31" ry="115.44"/>
<text text-anchor="middle" x="1651.41" y="-719.73" font-family="Times,serif" font-size="14.00">Well, we were having a</text>
<text text-anchor="middle" x="1651.41" y="-702.48" font-family="Times,serif" font-size="14.00">problem with varmints,</text>
<text text-anchor="middle" x="1651.41" y="-685.23" font-family="Times,serif" font-size="14.00">but they stopped hassling</text>
<text text-anchor="middle" x="1651.41" y="-667.98" font-family="Times,serif" font-size="14.00">us. You can see Westin if</text>
<text text-anchor="middle" x="1651.41" y="-650.73" font-family="Times,serif" font-size="14.00">you want.</text>
<text text-anchor="middle" x="1651.41" y="-633.48" font-family="Times,serif" font-size="14.00">&#45;&#45;&#45;</text>
<text text-anchor="middle" x="1651.41" y="-616.23" font-family="Times,serif" font-size="14.00">Dumont, eh? Well, that&#39;s</text>
<text text-anchor="middle" x="1651.41" y="-598.98" font-family="Times,serif" font-size="14.00">good enough for me. Mr.</text>
<text text-anchor="middle" x="1651.41" y="-581.73" font-family="Times,serif" font-size="14.00">Westin&#39;s inside.</text>
</g>
<!-- Node001&#45;&gt;Node005 -->
<g id="edge6" class="edge">
<title>Node001&#45;&gt;Node005</title>
<path fill="none" stroke="#8b9900" d="M1407.82,-936.62C1435.78,-910 1470.32,-876.02 1499.41,-844.03 1522.93,-818.17 1547.25,-789.26 1569.36,-762.02"/>
<polygon fill="#8b9900" stroke="#8b9900" points="1572.58,-764.6 1576.14,-754.63 1567.14,-760.2 1572.58,-764.6"/>
<text text-anchor="middle" x="1571.91" y="-900.48" font-family="Times,serif" font-size="14.00" fill="#8b9900">The sheriff told me to</text>
<text text-anchor="middle" x="1571.91" y="-883.23" font-family="Times,serif" font-size="14.00" fill="#8b9900">come by &#45; said Mr. Westin</text>
<text text-anchor="middle" x="1571.91" y="-865.98" font-family="Times,serif" font-size="14.00" fill="#8b9900">might have a job for me.</text>
</g>
<!-- Node013 -->
<g id="node21" class="node">
<title>Node013</title>
<ellipse fill="#ffffff" stroke="#000000" cx="1949.41" cy="-655.41" rx="138.06" ry="30.05"/>
<text text-anchor="middle" x="1949.41" y="-659.36" font-family="Times,serif" font-size="14.00">Yeah, he left orders.</text>
<text text-anchor="middle" x="1949.41" y="-642.11" font-family="Times,serif" font-size="14.00">He&#39;s been expecting you.</text>
</g>
<!-- Node001&#45;&gt;Node013 -->
<g id="edge7" class="edge">
<title>Node001&#45;&gt;Node013</title>
<path fill="none" stroke="#7a0099" d="M1472.23,-969.37C1547.47,-957.12 1636.6,-938.15 1666.41,-913.78 1685.97,-897.8 1669.83,-877.35 1689.91,-862.03 1730.17,-831.32 1758.78,-869.73 1802.41,-844.03 1862.4,-808.68 1907.04,-738.74 1930.59,-694.95"/>
<polygon fill="#7a0099" stroke="#7a0099" points="1934.01,-696.97 1935.57,-686.49 1927.81,-693.71 1934.01,-696.97"/>
<text text-anchor="middle" x="1777.16" y="-883.23" font-family="Times,serif" font-size="14.00" fill="#7a0099">I&#39;m here to see the boss.</text>
</g>
<!-- Node001&#45;&gt;Node013 -->
<g id="edge10" class="edge">
<title>Node001&#45;&gt;Node013</title>
<path fill="none" stroke="#000c99" d="M1478.21,-982.65C1610.08,-977.4 1808.39,-961.54 1865.41,-913.78 1874.02,-906.57 1916.62,-766.58 1937.64,-696.16"/>
<polygon fill="#000c99" stroke="#000c99" points="1941.2,-697.48 1940.7,-686.89 1934.49,-695.48 1941.2,-697.48"/>
<text text-anchor="middle" x="1977.41" y="-891.86" font-family="Times,serif" font-size="14.00" fill="#000c99">I&#39;m here on business from</text>
<text text-anchor="middle" x="1977.41" y="-874.61" font-family="Times,serif" font-size="14.00" fill="#000c99">Vault City.</text>
</g>
<!-- Node006 -->
<g id="node22" class="node">
<title>Node006</title>
<ellipse fill="#ffffff" stroke="#000000" cx="1038.41" cy="-655.41" rx="126.4" ry="42.25"/>
<text text-anchor="middle" x="1038.41" y="-667.98" font-family="Times,serif" font-size="14.00">That&#39;s nice. Mr. Westin</text>
<text text-anchor="middle" x="1038.41" y="-650.73" font-family="Times,serif" font-size="14.00">don&#39;t just see anybody.</text>
<text text-anchor="middle" x="1038.41" y="-633.48" font-family="Times,serif" font-size="14.00">You got any cause?</text>
</g>
<!-- Node001&#45;&gt;Node006 -->
<g id="edge8" class="edge">
<title>Node001&#45;&gt;Node006</title>
<path fill="none" stroke="#00994e" d="M1235.28,-974.4C1153.79,-964.28 1056.39,-945.78 1030.66,-913.78 984.12,-855.89 1001.26,-764.72 1019.02,-707.87"/>
<polygon fill="#00994e" stroke="#00994e" points="1022.57,-709.26 1022.33,-698.66 1015.92,-707.1 1022.57,-709.26"/>
<text text-anchor="middle" x="1104.29" y="-883.23" font-family="Times,serif" font-size="14.00" fill="#00994e">I&#39;m looking for work.</text>
</g>
<!-- Node007 -->
<g id="node23" class="node">
<title>Node007</title>
<ellipse fill="#ffffff" stroke="#000000" cx="864.41" cy="-324.59" rx="129.58" ry="54.45"/>
<text text-anchor="middle" x="864.41" y="-345.79" font-family="Times,serif" font-size="14.00">Hah! Another crackpot.</text>
<text text-anchor="middle" x="864.41" y="-328.54" font-family="Times,serif" font-size="14.00">You ought to go talk to</text>
<text text-anchor="middle" x="864.41" y="-311.29" font-family="Times,serif" font-size="14.00">Saltbeef. You and he&#39;d</text>
<text text-anchor="middle" x="864.41" y="-294.04" font-family="Times,serif" font-size="14.00">get along fine.</text>
</g>
<!-- Node001&#45;&gt;Node007 -->
<g id="edge9" class="edge">
<title>Node001&#45;&gt;Node007</title>
<path fill="none" stroke="#992100" d="M1234.53,-975.71C1070.89,-959.99 792.28,-922.24 731.66,-844.03 628.95,-711.51 626.14,-597.08 731.66,-466.79 755.9,-436.87 787.07,-473.72 816.41,-448.79 834.15,-433.72 845.37,-411.26 852.45,-389.62"/>
<polygon fill="#992100" stroke="#992100" points="856.08,-390.69 855.6,-380.11 849.37,-388.68 856.08,-390.69"/>
<text text-anchor="middle" x="817.29" y="-650.73" font-family="Times,serif" font-size="14.00" fill="#992100">I&#39;m looking for Vault 13.</text>
</g>
<!-- Node001&#45;&gt;Node004 -->
<g id="edge11" class="edge">
<title>Node001&#45;&gt;Node004</title>
<path fill="none" stroke="#389900" d="M1290.53,-939.84C1260.84,-915.2 1228.52,-882.02 1211.41,-844.03 1157.92,-725.27 1182.13,-314.56 1191.39,-184.51"/>
<polygon fill="#389900" stroke="#389900" points="1194.93,-185.1 1192.16,-174.87 1187.95,-184.59 1194.93,-185.1"/>
<text text-anchor="middle" x="1251.04" y="-418.24" font-family="Times,serif" font-size="14.00" fill="#389900">Just looking around.</text>
</g>
<!-- destroy_p_proc -->
<g id="node11" class="node">
<title>destroy_p_proc</title>
<ellipse fill="#ffffff" stroke="#000000" cx="2129.41" cy="-1172.77" rx="27" ry="18"/>
</g>
<!-- look_at_p_proc -->
<g id="node12" class="node">
<title>look_at_p_proc</title>
<ellipse fill="#ffffff" stroke="#000000" cx="2301.41" cy="-1172.77" rx="127.46" ry="78.84"/>
<text text-anchor="middle" x="2301.41" y="-1211.22" font-family="Times,serif" font-size="14.00">You see a man wearing</text>
<text text-anchor="middle" x="2301.41" y="-1193.97" font-family="Times,serif" font-size="14.00">leathers and packing</text>
<text text-anchor="middle" x="2301.41" y="-1176.72" font-family="Times,serif" font-size="14.00">heat.</text>
<text text-anchor="middle" x="2301.41" y="-1159.47" font-family="Times,serif" font-size="14.00">&#45;&#45;&#45;</text>
<text text-anchor="middle" x="2301.41" y="-1142.22" font-family="Times,serif" font-size="14.00">It&#39;s Felix, the ranch</text>
<text text-anchor="middle" x="2301.41" y="-1124.97" font-family="Times,serif" font-size="14.00">foreman.</text>
</g>
<!-- description_p_proc -->
<g id="node13" class="node">
<title>description_p_proc</title>
<ellipse fill="#ffffff" stroke="#000000" cx="2594.41" cy="-1172.77" rx="147.08" ry="54.45"/>
<text text-anchor="middle" x="2594.41" y="-1193.97" font-family="Times,serif" font-size="14.00">He looks like a cooler,</text>
<text text-anchor="middle" x="2594.41" y="-1176.72" font-family="Times,serif" font-size="14.00">tougher customer than the</text>
<text text-anchor="middle" x="2594.41" y="-1159.47" font-family="Times,serif" font-size="14.00">rest of the lot hanging</text>
<text text-anchor="middle" x="2594.41" y="-1142.22" font-family="Times,serif" font-size="14.00">around here.</text>
</g>
<!-- use_skill_on_p_proc -->
<g id="node14" class="node">
<title>use_skill_on_p_proc</title>
<ellipse fill="#ffffff" stroke="#000000" cx="2786.41" cy="-1172.77" rx="27" ry="18"/>
</g>
<!-- damage_p_proc -->
<g id="node15" class="node">
<title>damage_p_proc</title>
<ellipse fill="#ffffff" stroke="#000000" cx="2858.41" cy="-1172.77" rx="27" ry="18"/>
</g>
<!-- map_enter_p_proc -->
<g id="node16" class="node">
<title>map_enter_p_proc</title>
<ellipse fill="#ffffff" stroke="#000000" cx="2930.41" cy="-1172.77" rx="27" ry="18"/>
</g>
<!-- Node998 -->
<g id="node17" class="node">
<title>Node998</title>
<ellipse fill="#ffffff" stroke="#000000" cx="2143.41" cy="-986.23" rx="27" ry="18"/>
</g>
<!-- Node002&#45;&gt;Node004 -->
<g id="edge13" class="edge">
<title>Node002&#45;&gt;Node004</title>
<path fill="none" stroke="#009299" d="M1358.31,-612.84C1360.65,-561.09 1360.54,-470.58 1338.41,-397.04 1313.56,-314.45 1257.67,-229.62 1223.29,-182.38"/>
<polygon fill="#009299" stroke="#009299" points="1225.67,-180.71 1216.92,-174.73 1220.03,-184.86 1225.67,-180.71"/>
<text text-anchor="middle" x="1352.04" y="-319.92" font-family="Times,serif" font-size="14.00" fill="#009299">Nooo.</text>
</g>
<!-- Node002&#45;&gt;Node003 -->
<g id="edge12" class="edge">
<title>Node002&#45;&gt;Node003</title>
<path fill="none" stroke="#990065" d="M1378.83,-613.51C1404.29,-572.01 1448.38,-508.18 1500.41,-466.79 1559.12,-420.09 1635.79,-384.81 1697.81,-361.2"/>
<polygon fill="#990065" stroke="#990065" points="1698.9,-364.15 1707.03,-357.36 1696.44,-357.6 1698.9,-364.15"/>
<text text-anchor="middle" x="1637.91" y="-418.24" font-family="Times,serif" font-size="14.00" fill="#990065">Uh&#45;huh.</text>
</g>
<!-- Node006&#45;&gt;Node007 -->
<g id="edge14" class="edge">
<title>Node006&#45;&gt;Node007</title>
<path fill="none" stroke="#997400" d="M1012.61,-613.89C987.06,-573 947.53,-507.67 917.66,-448.79 907.92,-429.59 898.27,-408.2 889.92,-388.7"/>
<polygon fill="#997400" stroke="#997400" points="892.81,-387.54 885.68,-379.7 886.36,-390.28 892.81,-387.54"/>
<text text-anchor="middle" x="1003.29" y="-418.24" font-family="Times,serif" font-size="14.00" fill="#997400">I&#39;m looking for Vault 13.</text>
</g>
<!-- Node006&#45;&gt;Node004 -->
<g id="edge16" class="edge">
<title>Node006&#45;&gt;Node004</title>
<path fill="none" stroke="#00991a" d="M1049.12,-613.17C1059.77,-571.73 1076.36,-505.98 1089.41,-448.79 1107.45,-369.72 1098.82,-346.32 1126.66,-270.14 1137.91,-239.36 1155.65,-206.86 1170.16,-182.65"/>
<polygon fill="#00991a" stroke="#00991a" points="1173.53,-184.84 1175.74,-174.47 1167.55,-181.2 1173.53,-184.84"/>
<text text-anchor="middle" x="1152.29" y="-319.92" font-family="Times,serif" font-size="14.00" fill="#00991a">Uh, no.</text>
</g>
<!-- Node009a -->
<g id="node26" class="node">
<title>Node009a</title>
<ellipse fill="#ffffff" stroke="#000000" cx="583.41" cy="-324.59" rx="27" ry="18"/>
</g>
<!-- Node006&#45;&gt;Node009a -->
<g id="edge15" class="edge">
<title>Node006&#45;&gt;Node009a</title>
<path fill="none" stroke="#470099" d="M1020.47,-613.41C998.62,-568.94 957.21,-499.87 898.41,-466.79 825.16,-425.57 786.44,-484.07 710.16,-448.79 662.66,-426.82 622.2,-379.44 600.47,-350.27"/>
<polygon fill="#470099" stroke="#470099" points="602.81,-348.52 594.1,-342.49 597.14,-352.63 602.81,-348.52"/>
<text text-anchor="middle" x="799.04" y="-435.49" font-family="Times,serif" font-size="14.00" fill="#470099">What if I said Bishop in</text>
<text text-anchor="middle" x="799.04" y="-418.24" font-family="Times,serif" font-size="14.00" fill="#470099">New Reno sent me to kill</text>
<text text-anchor="middle" x="799.04" y="-400.99" font-family="Times,serif" font-size="14.00" fill="#470099">him?</text>
</g>
<!-- Node007&#45;&gt;Node999 -->
<g id="edge18" class="edge">
<title>Node007&#45;&gt;Node999</title>
<path fill="none" stroke="#003f99" d="M896.93,-271.43C924.95,-219.13 954.51,-139.36 910.41,-89.25 874.53,-48.48 492.1,-26.7 369.21,-20.72"/>
<polygon fill="#003f99" stroke="#003f99" points="369.63,-17.19 359.48,-20.21 369.3,-24.18 369.63,-17.19"/>
<text text-anchor="middle" x="987.16" y="-139.02" font-family="Times,serif" font-size="14.00" fill="#003f99">I&#39;m out of here.</text>
</g>
<!-- Node008 -->
<g id="node27" class="node">
<title>Node008</title>
<ellipse fill="#ffffff" stroke="#000000" cx="765.41" cy="-143.7" rx="135.94" ry="54.45"/>
<text text-anchor="middle" x="765.41" y="-164.9" font-family="Times,serif" font-size="14.00">Saltbeef Bob &#45; over in</text>
<text text-anchor="middle" x="765.41" y="-147.65" font-family="Times,serif" font-size="14.00">the stables. Mr. Westin</text>
<text text-anchor="middle" x="765.41" y="-130.4" font-family="Times,serif" font-size="14.00">lets him stay there. Now</text>
<text text-anchor="middle" x="765.41" y="-113.15" font-family="Times,serif" font-size="14.00">stop wasting my time.</text>
</g>
<!-- Node007&#45;&gt;Node008 -->
<g id="edge17" class="edge">
<title>Node007&#45;&gt;Node008</title>
<path fill="none" stroke="#990012" d="M835.51,-271.37C824.32,-251.15 811.43,-227.86 799.78,-206.8"/>
<polygon fill="#990012" stroke="#990012" points="802.42,-205.35 794.52,-198.3 796.3,-208.74 802.42,-205.35"/>
<text text-anchor="middle" x="842.91" y="-229.47" font-family="Times,serif" font-size="14.00" fill="#990012">Who?</text>
</g>
<!-- Node009 -->
<g id="node28" class="node">
<title>Node009</title>
<ellipse fill="#ffffff" stroke="#000000" cx="485.41" cy="-143.7" rx="125.87" ry="30.05"/>
<text text-anchor="middle" x="485.41" y="-147.65" font-family="Times,serif" font-size="14.00">Then I guess we got to</text>
<text text-anchor="middle" x="485.41" y="-130.4" font-family="Times,serif" font-size="14.00">kill you.</text>
</g>
<!-- Node009a&#45;&gt;Node009 -->
<g id="edge31" class="edge">
<title>Node009a&#45;&gt;Node009</title>
<path fill="none" stroke="#555555" stroke-dasharray="1,5" d="M574.54,-307.4C559.3,-279.57 527.72,-221.93 506.55,-183.28"/>
<polygon fill="#555555" stroke="#555555" points="509.28,-181.98 501.4,-174.89 503.14,-185.34 509.28,-181.98"/>
</g>
<!-- Node008&#45;&gt;Node999 -->
<g id="edge19" class="edge">
<title>Node008&#45;&gt;Node999</title>
<path fill="none" stroke="#6c9900" d="M668.44,-105.21C652.49,-99.55 636.07,-94.02 620.41,-89.25 530.77,-61.93 422.97,-38.04 367.82,-26.45"/>
<polygon fill="#6c9900" stroke="#6c9900" points="368.7,-22.84 358.19,-24.23 367.27,-29.7 368.7,-22.84"/>
<text text-anchor="middle" x="590.29" y="-57.95" font-family="Times,serif" font-size="14.00" fill="#6c9900">Oh, thanks.</text>
</g>
<!-- NodeTele -->
<g id="node30" class="node">
<title>NodeTele</title>
<ellipse fill="#ffffff" stroke="#000000" cx="335.41" cy="-234.14" rx="27" ry="18"/>
</g>
<!-- Node011&#45;&gt;NodeTele -->
<g id="edge24" class="edge">
<title>Node011&#45;&gt;NodeTele</title>
<path fill="none" stroke="#199900" d="M343.03,-480.48C340.74,-469.83 338.75,-459.21 337.16,-448.79 327.13,-382.9 330.32,-304.25 333.11,-263.22"/>
<polygon fill="#199900" stroke="#199900" points="336.66,-263.67 333.89,-253.45 329.68,-263.17 336.66,-263.67"/>
<text text-anchor="middle" x="355.54" y="-418.24" font-family="Times,serif" font-size="14.00" fill="#199900">Okay.</text>
</g>
<!-- Node004a -->
<g id="node31" class="node">
<title>Node004a</title>
<ellipse fill="#ffffff" stroke="#000000" cx="492.41" cy="-324.59" rx="27" ry="18"/>
</g>
<!-- Node011&#45;&gt;Node004a -->
<g id="edge25" class="edge">
<title>Node011&#45;&gt;Node004a</title>
<path fill="none" stroke="#990045" d="M486.87,-502.22C494.01,-484.64 500.12,-466.62 504.41,-448.79 512.17,-416.54 506.21,-378.39 500.25,-353.18"/>
<polygon fill="#990045" stroke="#990045" points="503.41,-352.41 497.57,-343.58 496.63,-354.13 503.41,-352.41"/>
<text text-anchor="middle" x="550.91" y="-418.24" font-family="Times,serif" font-size="14.00" fill="#990045">Forget that!</text>
</g>
<!-- Node011&#45;&gt;Node004a -->
<g id="edge26" class="edge">
<title>Node011&#45;&gt;Node004a</title>
<path fill="none" stroke="#007299" d="M376.04,-468.85C378.85,-443.84 385.01,-419.19 396.16,-397.04 409.46,-370.6 437.69,-351.49 460.15,-339.72"/>
<polygon fill="#007299" stroke="#007299" points="461.6,-342.41 469,-334.83 458.48,-336.14 461.6,-342.41"/>
<text text-anchor="middle" x="447.54" y="-418.24" font-family="Times,serif" font-size="14.00" fill="#007299">No. Me no kill.</text>
</g>
<!-- NodeTele&#45;&gt;Node999 -->
<g id="edge32" class="edge">
<title>NodeTele&#45;&gt;Node999</title>
<path fill="none" stroke="#555555" stroke-dasharray="1,5" d="M335.09,-215.98C334.4,-179.1 332.77,-91.97 331.93,-46.98"/>
<polygon fill="#555555" stroke="#555555" points="335.42,-47.18 331.73,-37.24 328.42,-47.31 335.42,-47.18"/>
</g>
<!-- Node004a&#45;&gt;Node004 -->
<g id="edge33" class="edge">
<title>Node004a&#45;&gt;Node004</title>
<path fill="none" stroke="#555555" stroke-dasharray="1,5" d="M504.24,-308.03C514.36,-295.84 530.03,-279.42 547.41,-270.14 747.03,-163.6 830.34,-246.37 1051.41,-198.14 1076.34,-192.71 1102.73,-183.8 1125.97,-174.81"/>
<polygon fill="#555555" stroke="#555555" points="1127.05,-177.75 1135.07,-170.82 1124.48,-171.24 1127.05,-177.75"/>
</g>
<!-- Node014 -->
<g id="node32" class="node">
<title>Node014</title>
<ellipse fill="#ffffff" stroke="#000000" cx="1943.41" cy="-1172.77" rx="141.24" ry="30.05"/>
<text text-anchor="middle" x="1943.41" y="-1176.72" font-family="Times,serif" font-size="14.00">HEY YOU! Get away from</text>
<text text-anchor="middle" x="1943.41" y="-1159.47" font-family="Times,serif" font-size="14.00">there!</text>
</g>
<!-- Node014&#45;&gt;Node001 -->
<g id="edge29" class="edge">
<title>Node014&#45;&gt;Node001</title>
<path fill="none" stroke="#00993a" d="M1865.63,-1147.36C1763.07,-1115.17 1582.01,-1058.34 1465.45,-1021.76"/>
<polygon fill="#00993a" stroke="#00993a" points="1466.66,-1018.16 1456.07,-1018.51 1464.57,-1024.84 1466.66,-1018.16"/>
<text text-anchor="middle" x="1650.54" y="-1062.62" font-family="Times,serif" font-size="14.00" fill="#00993a">Okay.</text>
</g>
<!-- Node014&#45;&gt;Node998 -->
<g id="edge30" class="edge">
<title>Node014&#45;&gt;Node998</title>
<path fill="none" stroke="#990d00" d="M2005.36,-1145.34C2037.6,-1129.11 2075.74,-1105.69 2102.41,-1075.92 2118.22,-1058.29 2128.98,-1033.51 2135.49,-1014.62"/>
<polygon fill="#990d00" stroke="#990d00" points="2139.09,-1015.88 2138.85,-1005.28 2132.43,-1013.72 2139.09,-1015.88"/>
<text text-anchor="middle" x="2149.66" y="-1062.62" font-family="Times,serif" font-size="14.00" fill="#990d00">Fuck you!</text>
</g>
<!-- timed_event_p_proc -->
<g id="node33" class="node">
<title>timed_event_p_proc</title>
<ellipse fill="#ffffff" stroke="#000000" cx="3116.41" cy="-1172.77" rx="141.24" ry="42.25"/>
<text text-anchor="middle" x="3116.41" y="-1185.34" font-family="Times,serif" font-size="14.00">You touch that door again</text>
<text text-anchor="middle" x="3116.41" y="-1168.09" font-family="Times,serif" font-size="14.00">and there&#39;ll be hell to</text>
<text text-anchor="middle" x="3116.41" y="-1150.84" font-family="Times,serif" font-size="14.00">pay. Got that, buddy?</text>
</g>
</g>
</svg>
