<?xml version="1.0" encoding="UTF-8" standalone="no"?>
<!DOCTYPE svg PUBLIC "-//W3C//DTD SVG 1.1//EN"
 "http://www.w3.org/Graphics/SVG/1.1/DTD/svg11.dtd">
<!-- Generated by graphviz version 8.0.5 (0)
 -->
<!-- Title: scgond Pages: 1 -->
<svg width="1404pt" height="213pt"
 viewBox="0.00 0.00 1404.00 213.00" xmlns="http://www.w3.org/2000/svg" xmlns:xlink="http://www.w3.org/1999/xlink">
<g id="graph0" class="graph" transform="scale(1 1) rotate(0) translate(4 209)">
<title>scgond</title>
<polygon fill="white" stroke="none" points="-4,4 -4,-209 1400,-209 1400,4 -4,4"/>
<!-- checkPartyMembersNearDoor -->
<g id="node1" class="node">
<title>checkPartyMembersNearDoor</title>
<ellipse fill="#ffffff" stroke="#000000" cx="27" cy="-150.55" rx="27" ry="18"/>
</g>
<!-- start -->
<g id="node2" class="node">
<title>start</title>
<ellipse fill="#ffffff" stroke="#000000" cx="99" cy="-150.55" rx="27" ry="18"/>
</g>
<!-- critter_p_proc -->
<g id="node3" class="node">
<title>critter_p_proc</title>
<ellipse fill="#ffffff" stroke="#000000" cx="171" cy="-150.55" rx="27" ry="18"/>
</g>
<!-- pickup_p_proc -->
<g id="node4" class="node">
<title>pickup_p_proc</title>
<ellipse fill="#ffffff" stroke="#000000" cx="243" cy="-150.55" rx="27" ry="18"/>
</g>
<!-- talk_p_proc -->
<g id="node5" class="node">
<title>talk_p_proc</title>
<ellipse fill="#ffffff" stroke="#000000" cx="315" cy="-150.55" rx="27" ry="18"/>
</g>
<!-- Node002 -->
<g id="node6" class="node">
<title>Node002</title>
<ellipse fill="#ffffff" stroke="#000000" cx="199" cy="-30.05" rx="91.92" ry="30.05"/>
<text text-anchor="middle" x="199" y="-34" font-family="Times,serif" font-size="14.00">Greetings</text>
<text text-anchor="middle" x="199" y="-16.75" font-family="Times,serif" font-size="14.00">(brother/sister).</text>
</g>
<!-- talk_p_proc&#45;&gt;Node002 -->
<g id="edge1" class="edge">
<title>talk_p_proc&#45;&gt;Node002</title>
<path fill="none" stroke="#555555" stroke-dasharray="1,5" d="M305.74,-133.22C299.06,-122.14 289.42,-107.5 279,-96.1 268.8,-84.94 256.61,-74.06 244.87,-64.49"/>
<polygon fill="#555555" stroke="#555555" points="247.43,-61.26 237.43,-57.77 243.07,-66.74 247.43,-61.26"/>
</g>
<!-- Node001 -->
<g id="node7" class="node">
<title>Node001</title>
<ellipse fill="#ffffff" stroke="#000000" cx="431" cy="-30.05" rx="121.62" ry="30.05"/>
<text text-anchor="middle" x="431" y="-34" font-family="Times,serif" font-size="14.00">Hey, did Elise say you</text>
<text text-anchor="middle" x="431" y="-16.75" font-family="Times,serif" font-size="14.00">could be here?</text>
</g>
<!-- talk_p_proc&#45;&gt;Node001 -->
<g id="edge2" class="edge">
<title>talk_p_proc&#45;&gt;Node001</title>
<path fill="none" stroke="#555555" stroke-dasharray="1,5" d="M324.26,-133.22C330.94,-122.14 340.58,-107.5 351,-96.1 360.82,-85.36 372.46,-74.89 383.79,-65.59"/>
<polygon fill="#555555" stroke="#555555" points="385.74,-67.71 391.35,-58.72 381.36,-62.24 385.74,-67.71"/>
</g>
<!-- destroy_p_proc -->
<g id="node8" class="node">
<title>destroy_p_proc</title>
<ellipse fill="#ffffff" stroke="#000000" cx="387" cy="-150.55" rx="27" ry="18"/>
</g>
<!-- look_at_p_proc -->
<g id="node9" class="node">
<title>look_at_p_proc</title>
<ellipse fill="#ffffff" stroke="#000000" cx="562" cy="-150.55" rx="130.11" ry="54.45"/>
<text text-anchor="middle" x="562" y="-171.75" font-family="Times,serif" font-size="14.00">It&#39;s a big super&#45;mutant.</text>
<text text-anchor="middle" x="562" y="-154.5" font-family="Times,serif" font-size="14.00">&#45;&#45;&#45;</text>
<text text-anchor="middle" x="562" y="-137.25" font-family="Times,serif" font-size="14.00">It&#39;s Gond, the</text>
<text text-anchor="middle" x="562" y="-120" font-family="Times,serif" font-size="14.00">super&#45;mutant.</text>
</g>
<!-- description_p_proc -->
<g id="node10" class="node">
<title>description_p_proc</title>
<ellipse fill="#ffffff" stroke="#000000" cx="837" cy="-150.55" rx="126.93" ry="54.45"/>
<text text-anchor="middle" x="837" y="-171.75" font-family="Times,serif" font-size="14.00">It&#39;s big, it&#39;s green, and</text>
<text text-anchor="middle" x="837" y="-154.5" font-family="Times,serif" font-size="14.00">it&#39;s no brighter looking</text>
<text text-anchor="middle" x="837" y="-137.25" font-family="Times,serif" font-size="14.00">than the rest of its</text>
<text text-anchor="middle" x="837" y="-120" font-family="Times,serif" font-size="14.00">kind.</text>
</g>
<!-- use_skill_on_p_proc -->
<g id="node11" class="node">
<title>use_skill_on_p_proc</title>
<ellipse fill="#ffffff" stroke="#000000" cx="1009" cy="-150.55" rx="27" ry="18"/>
</g>
<!-- damage_p_proc -->
<g id="node12" class="node">
<title>damage_p_proc</title>
<ellipse fill="#ffffff" stroke="#000000" cx="1081" cy="-150.55" rx="27" ry="18"/>
</g>
<!-- map_enter_p_proc -->
<g id="node13" class="node">
<title>map_enter_p_proc</title>
<ellipse fill="#ffffff" stroke="#000000" cx="1153" cy="-150.55" rx="27" ry="18"/>
</g>
<!-- use_obj_on_p_proc -->
<g id="node14" class="node">
<title>use_obj_on_p_proc</title>
<ellipse fill="#ffffff" stroke="#000000" cx="1225" cy="-150.55" rx="27" ry="18"/>
</g>
<!-- Node998 -->
<g id="node15" class="node">
<title>Node998</title>
<ellipse fill="#ffffff" stroke="#000000" cx="1297" cy="-150.55" rx="27" ry="18"/>
</g>
<!-- Node999 -->
<g id="node16" class="node">
<title>Node999</title>
<ellipse fill="#ffffff" stroke="#000000" cx="1369" cy="-150.55" rx="27" ry="18"/>
</g>
</g>
</svg>
