<?xml version="1.0" encoding="UTF-8" standalone="no"?>
<!DOCTYPE svg PUBLIC "-//W3C//DTD SVG 1.1//EN"
 "http://www.w3.org/Graphics/SVG/1.1/DTD/svg11.dtd">
<!-- Generated by graphviz version 8.0.5 (0)
 -->
<!-- Title: scratch Pages: 1 -->
<svg width="2043pt" height="1960pt"
 viewBox="0.00 0.00 2043.00 1959.91" xmlns="http://www.w3.org/2000/svg" xmlns:xlink="http://www.w3.org/1999/xlink">
<g id="graph0" class="graph" transform="scale(1 1) rotate(0) translate(4 1955.91)">
<title>scratch</title>
<polygon fill="white" stroke="none" points="-4,4 -4,-1955.91 2039,-1955.91 2039,4 -4,4"/>
<!-- checkPartyMembersNearDoor -->
<g id="node1" class="node">
<title>checkPartyMembersNearDoor</title>
<ellipse fill="#ffffff" stroke="#000000" cx="27" cy="-1824.27" rx="27" ry="18"/>
</g>
<!-- start -->
<g id="node2" class="node">
<title>start</title>
<ellipse fill="#ffffff" stroke="#000000" cx="99" cy="-1824.27" rx="27" ry="18"/>
</g>
<!-- critter_p_proc -->
<g id="node3" class="node">
<title>critter_p_proc</title>
<ellipse fill="#ffffff" stroke="#000000" cx="171" cy="-1824.27" rx="27" ry="18"/>
</g>
<!-- pickup_p_proc -->
<g id="node4" class="node">
<title>pickup_p_proc</title>
<ellipse fill="#ffffff" stroke="#000000" cx="243" cy="-1824.27" rx="27" ry="18"/>
</g>
<!-- talk_p_proc -->
<g id="node5" class="node">
<title>talk_p_proc</title>
<ellipse fill="#ffffff" stroke="#000000" cx="1629" cy="-1554.44" rx="27" ry="18"/>
</g>
<!-- Node001 -->
<g id="node6" class="node">
<title>Node001</title>
<ellipse fill="#ffffff" stroke="#000000" cx="1261" cy="-1345.6" rx="130.11" ry="66.64"/>
<text text-anchor="middle" x="1261" y="-1375.43" font-family="Times,serif" font-size="14.00">Junk for sale, junk for</text>
<text text-anchor="middle" x="1261" y="-1358.18" font-family="Times,serif" font-size="14.00">sale. Look it over, make</text>
<text text-anchor="middle" x="1261" y="-1340.93" font-family="Times,serif" font-size="14.00">me an offer.</text>
<text text-anchor="middle" x="1261" y="-1323.68" font-family="Times,serif" font-size="14.00">&#45;&#45;&#45;</text>
<text text-anchor="middle" x="1261" y="-1306.43" font-family="Times,serif" font-size="14.00">Sure, whatever.</text>
</g>
<!-- talk_p_proc&#45;&gt;Node001 -->
<g id="edge1" class="edge">
<title>talk_p_proc&#45;&gt;Node001</title>
<path fill="none" stroke="#555555" stroke-dasharray="1,5" d="M1608.69,-1542.03C1561.71,-1515.62 1443,-1448.9 1357.35,-1400.76"/>
<polygon fill="#555555" stroke="#555555" points="1359.29,-1397.27 1348.86,-1395.42 1355.86,-1403.38 1359.29,-1397.27"/>
</g>
<!-- Node009 -->
<g id="node7" class="node">
<title>Node009</title>
<ellipse fill="#ffffff" stroke="#000000" cx="1551" cy="-1345.6" rx="141.77" ry="42.25"/>
<text text-anchor="middle" x="1551" y="-1358.18" font-family="Times,serif" font-size="14.00">Gimme a little more time.</text>
<text text-anchor="middle" x="1551" y="-1340.93" font-family="Times,serif" font-size="14.00">I&#39;m still working on the</text>
<text text-anchor="middle" x="1551" y="-1323.68" font-family="Times,serif" font-size="14.00">cussed thing.</text>
</g>
<!-- talk_p_proc&#45;&gt;Node009 -->
<g id="edge2" class="edge">
<title>talk_p_proc&#45;&gt;Node009</title>
<path fill="none" stroke="#555555" stroke-dasharray="1,5" d="M1622.62,-1536.52C1611.34,-1506.62 1587.48,-1443.35 1570.4,-1398.05"/>
<polygon fill="#555555" stroke="#555555" points="1573.35,-1396.94 1566.54,-1388.82 1566.8,-1399.41 1573.35,-1396.94"/>
</g>
<!-- Node008 -->
<g id="node8" class="node">
<title>Node008</title>
<ellipse fill="#ffffff" stroke="#000000" cx="1837" cy="-1345.6" rx="126.4" ry="30.05"/>
<text text-anchor="middle" x="1837" y="-1349.55" font-family="Times,serif" font-size="14.00">There she is! Claudia&#39;s</text>
<text text-anchor="middle" x="1837" y="-1332.3" font-family="Times,serif" font-size="14.00">all installed.</text>
</g>
<!-- talk_p_proc&#45;&gt;Node008 -->
<g id="edge3" class="edge">
<title>talk_p_proc&#45;&gt;Node008</title>
<path fill="none" stroke="#555555" stroke-dasharray="1,5" d="M1643.63,-1538.9C1675.88,-1506.82 1753.94,-1429.2 1800.42,-1382.98"/>
<polygon fill="#555555" stroke="#555555" points="1802.54,-1385.82 1807.16,-1376.28 1797.6,-1380.85 1802.54,-1385.82"/>
</g>
<!-- startRepair -->
<g id="node9" class="node">
<title>startRepair</title>
<ellipse fill="#ffffff" stroke="#000000" cx="2008" cy="-1345.6" rx="27" ry="18"/>
</g>
<!-- talk_p_proc&#45;&gt;startRepair -->
<g id="edge4" class="edge">
<title>talk_p_proc&#45;&gt;startRepair</title>
<path fill="none" stroke="#555555" stroke-dasharray="1,5" d="M1654.95,-1548.91C1716.76,-1536.94 1874.81,-1499.19 1972,-1412.25 1983.69,-1401.79 1992.37,-1386.59 1998.26,-1373.46"/>
<polygon fill="#555555" stroke="#555555" points="2001.8,-1375.07 2002.4,-1364.49 1995.33,-1372.38 2001.8,-1375.07"/>
</g>
<!-- Node999 -->
<g id="node17" class="node">
<title>Node999</title>
<ellipse fill="#ffffff" stroke="#000000" cx="1005" cy="-18" rx="27" ry="18"/>
</g>
<!-- Node001&#45;&gt;Node999 -->
<g id="edge9" class="edge">
<title>Node001&#45;&gt;Node999</title>
<path fill="none" stroke="#001999" d="M1268.29,-1278.66C1273.65,-1224.5 1280,-1145.76 1280,-1076.77 1280,-1076.77 1280,-1076.77 1280,-147.75 1280,-44.46 1118.9,-23.86 1043.31,-19.88"/>
<polygon fill="#001999" stroke="#001999" points="1043.52,-16.34 1033.37,-19.39 1043.21,-23.33 1043.52,-16.34"/>
<text text-anchor="middle" x="1313.38" y="-562.37" font-family="Times,serif" font-size="14.00" fill="#001999">Goodbye.</text>
</g>
<!-- Node010 -->
<g id="node18" class="node">
<title>Node010</title>
<ellipse fill="#ffffff" stroke="#000000" cx="1084" cy="-1075.77" rx="129.58" ry="42.25"/>
<text text-anchor="middle" x="1084" y="-1088.35" font-family="Times,serif" font-size="14.00">Whoa! I don&#39;t think I&#39;ve</text>
<text text-anchor="middle" x="1084" y="-1071.1" font-family="Times,serif" font-size="14.00">got a spare brain for</text>
<text text-anchor="middle" x="1084" y="-1053.85" font-family="Times,serif" font-size="14.00">you.</text>
</g>
<!-- Node001&#45;&gt;Node010 -->
<g id="edge5" class="edge">
<title>Node001&#45;&gt;Node010</title>
<path fill="none" stroke="#989900" d="M1188.08,-1290.03C1178.57,-1280.99 1169.54,-1271.19 1162,-1260.96 1132.22,-1220.54 1111.2,-1167.02 1098.54,-1128.1"/>
<polygon fill="#989900" stroke="#989900" points="1101.71,-1127.51 1095.35,-1119.04 1095.04,-1129.63 1101.71,-1127.51"/>
<text text-anchor="middle" x="1195" y="-1230.41" font-family="Times,serif" font-size="14.00" fill="#989900">Uh...huh.</text>
</g>
<!-- NodeBarter -->
<g id="node19" class="node">
<title>NodeBarter</title>
<ellipse fill="#ffffff" stroke="#000000" cx="921" cy="-148.75" rx="27" ry="18"/>
</g>
<!-- Node001&#45;&gt;NodeBarter -->
<g id="edge6" class="edge">
<title>Node001&#45;&gt;NodeBarter</title>
<path fill="none" stroke="#6d0099" d="M1141.02,-1319.17C1071.16,-1297.6 988.5,-1258.94 945,-1191.21 888.86,-1103.81 914.16,-334.45 919.93,-177.6"/>
<polygon fill="#6d0099" stroke="#6d0099" points="923.45,-178.12 920.33,-167.99 916.46,-177.85 923.45,-178.12"/>
<text text-anchor="middle" x="980.12" y="-920.41" font-family="Times,serif" font-size="14.00" fill="#6d0099">So what&#39;s for sale?</text>
</g>
<!-- Node004 -->
<g id="node20" class="node">
<title>Node004</title>
<ellipse fill="#ffffff" stroke="#000000" cx="1526" cy="-1075.77" rx="144.96" ry="115.44"/>
<text text-anchor="middle" x="1526" y="-1140.1" font-family="Times,serif" font-size="14.00">I can fix up all sorts of</text>
<text text-anchor="middle" x="1526" y="-1122.85" font-family="Times,serif" font-size="14.00">stuff. Got me blower,</text>
<text text-anchor="middle" x="1526" y="-1105.6" font-family="Times,serif" font-size="14.00">named it Claudia, fit</text>
<text text-anchor="middle" x="1526" y="-1088.35" font-family="Times,serif" font-size="14.00">most any car &#45; give it a</text>
<text text-anchor="middle" x="1526" y="-1071.1" font-family="Times,serif" font-size="14.00">lot more power. Only</text>
<text text-anchor="middle" x="1526" y="-1053.85" font-family="Times,serif" font-size="14.00">$1000. You interested?</text>
<text text-anchor="middle" x="1526" y="-1036.6" font-family="Times,serif" font-size="14.00">&#45;&#45;&#45;</text>
<text text-anchor="middle" x="1526" y="-1019.35" font-family="Times,serif" font-size="14.00">Dummy, we already talked</text>
<text text-anchor="middle" x="1526" y="-1002.1" font-family="Times,serif" font-size="14.00">about that.</text>
</g>
<!-- Node001&#45;&gt;Node004 -->
<g id="edge7" class="edge">
<title>Node001&#45;&gt;Node004</title>
<path fill="none" stroke="#009940" d="M1303.57,-1282.25C1307.94,-1275.17 1312.17,-1267.97 1316,-1260.96 1328.07,-1238.87 1323.05,-1228.68 1339,-1209.21 1356.55,-1187.79 1378.38,-1168.23 1400.87,-1151.09"/>
<polygon fill="#009940" stroke="#009940" points="1402.59,-1153.43 1408.51,-1144.65 1398.4,-1147.82 1402.59,-1153.43"/>
<text text-anchor="middle" x="1427.5" y="-1247.66" font-family="Times,serif" font-size="14.00" fill="#009940">You look like you&#39;re good</text>
<text text-anchor="middle" x="1427.5" y="-1230.41" font-family="Times,serif" font-size="14.00" fill="#009940">with your hands. You do</text>
<text text-anchor="middle" x="1427.5" y="-1213.16" font-family="Times,serif" font-size="14.00" fill="#009940">have hands, don&#39;t you?</text>
</g>
<!-- Node005a -->
<g id="node21" class="node">
<title>Node005a</title>
<ellipse fill="#ffffff" stroke="#000000" cx="748" cy="-1075.77" rx="27" ry="18"/>
</g>
<!-- Node001&#45;&gt;Node005a -->
<g id="edge8" class="edge">
<title>Node001&#45;&gt;Node005a</title>
<path fill="none" stroke="#991400" d="M1131.03,-1339.03C1004.21,-1330.74 823.53,-1310.39 775.25,-1260.96 754.12,-1239.32 749.32,-1150.89 748.27,-1104.89"/>
<polygon fill="#991400" stroke="#991400" points="751.75,-1105.1 748.07,-1095.17 744.75,-1105.23 751.75,-1105.1"/>
<text text-anchor="middle" x="849.88" y="-1239.03" font-family="Times,serif" font-size="14.00" fill="#991400">I got $5. You got any</text>
<text text-anchor="middle" x="849.88" y="-1221.78" font-family="Times,serif" font-size="14.00" fill="#991400">good gossip?</text>
</g>
<!-- figureWalkTile -->
<g id="node28" class="node">
<title>figureWalkTile</title>
<ellipse fill="#ffffff" stroke="#000000" cx="1837" cy="-1075.77" rx="27" ry="18"/>
</g>
<!-- Node008&#45;&gt;figureWalkTile -->
<g id="edge25" class="edge">
<title>Node008&#45;&gt;figureWalkTile</title>
<path fill="none" stroke="#555555" stroke-dasharray="1,5" d="M1837,-1315.17C1837,-1263.23 1837,-1155.98 1837,-1104.95"/>
<polygon fill="#555555" stroke="#555555" points="1840.5,-1105.1 1837,-1095.1 1833.5,-1105.1 1840.5,-1105.1"/>
</g>
<!-- destroy_p_proc -->
<g id="node10" class="node">
<title>destroy_p_proc</title>
<ellipse fill="#ffffff" stroke="#000000" cx="615" cy="-1824.27" rx="27" ry="18"/>
</g>
<!-- look_at_p_proc -->
<g id="node11" class="node">
<title>look_at_p_proc</title>
<ellipse fill="#ffffff" stroke="#000000" cx="808" cy="-1824.27" rx="147.61" ry="78.84"/>
<text text-anchor="middle" x="808" y="-1862.72" font-family="Times,serif" font-size="14.00">It&#39;s a heap of rags that</text>
<text text-anchor="middle" x="808" y="-1845.47" font-family="Times,serif" font-size="14.00">might have a person under</text>
<text text-anchor="middle" x="808" y="-1828.22" font-family="Times,serif" font-size="14.00">it.</text>
<text text-anchor="middle" x="808" y="-1810.97" font-family="Times,serif" font-size="14.00">&#45;&#45;&#45;</text>
<text text-anchor="middle" x="808" y="-1793.72" font-family="Times,serif" font-size="14.00">You see Ratch, probably</text>
<text text-anchor="middle" x="808" y="-1776.47" font-family="Times,serif" font-size="14.00">picking at some lice.</text>
</g>
<!-- description_p_proc -->
<g id="node12" class="node">
<title>description_p_proc</title>
<ellipse fill="#ffffff" stroke="#000000" cx="1099" cy="-1824.27" rx="125.87" ry="66.64"/>
<text text-anchor="middle" x="1099" y="-1854.1" font-family="Times,serif" font-size="14.00">It could be a human. It</text>
<text text-anchor="middle" x="1099" y="-1836.85" font-family="Times,serif" font-size="14.00">might be a mutant. All</text>
<text text-anchor="middle" x="1099" y="-1819.6" font-family="Times,serif" font-size="14.00">you can tell for sure is</text>
<text text-anchor="middle" x="1099" y="-1802.35" font-family="Times,serif" font-size="14.00">that it smells really,</text>
<text text-anchor="middle" x="1099" y="-1785.1" font-family="Times,serif" font-size="14.00">really bad.</text>
</g>
<!-- use_skill_on_p_proc -->
<g id="node13" class="node">
<title>use_skill_on_p_proc</title>
<ellipse fill="#ffffff" stroke="#000000" cx="1270" cy="-1824.27" rx="27" ry="18"/>
</g>
<!-- damage_p_proc -->
<g id="node14" class="node">
<title>damage_p_proc</title>
<ellipse fill="#ffffff" stroke="#000000" cx="1342" cy="-1824.27" rx="27" ry="18"/>
</g>
<!-- map_enter_p_proc -->
<g id="node15" class="node">
<title>map_enter_p_proc</title>
<ellipse fill="#ffffff" stroke="#000000" cx="1414" cy="-1824.27" rx="27" ry="18"/>
</g>
<!-- Node998 -->
<g id="node16" class="node">
<title>Node998</title>
<ellipse fill="#ffffff" stroke="#000000" cx="1486" cy="-1824.27" rx="27" ry="18"/>
</g>
<!-- NodeBarter&#45;&gt;Node001 -->
<g id="edge26" class="edge">
<title>NodeBarter&#45;&gt;Node001</title>
<path fill="none" stroke="#555555" stroke-dasharray="1,5" d="M929.05,-166.36C968.9,-249.43 1146.25,-628.96 1223,-960.34 1247.27,-1065.13 1256.05,-1189.51 1259.21,-1267.77"/>
<polygon fill="#555555" stroke="#555555" points="1255.74,-1267.64 1259.63,-1277.5 1262.74,-1267.37 1255.74,-1267.64"/>
</g>
<!-- Node004&#45;&gt;Node001 -->
<g id="edge17" class="edge">
<title>Node004&#45;&gt;Node001</title>
<path fill="none" stroke="#004c99" d="M1531.19,-1191.29C1530.13,-1222 1526.1,-1249.8 1516,-1260.96 1498.5,-1280.3 1424.94,-1271.31 1400,-1278.96 1387.19,-1282.89 1374.06,-1287.8 1361.23,-1293.16"/>
<polygon fill="#004c99" stroke="#004c99" points="1360.29,-1290.18 1352.48,-1297.33 1363.05,-1296.61 1360.29,-1290.18"/>
<text text-anchor="middle" x="1612.5" y="-1230.41" font-family="Times,serif" font-size="14.00" fill="#004c99">Maybe something else.</text>
</g>
<!-- Node0607a -->
<g id="node24" class="node">
<title>Node0607a</title>
<ellipse fill="#ffffff" stroke="#000000" cx="1526" cy="-567.04" rx="27" ry="18"/>
</g>
<!-- Node004&#45;&gt;Node0607a -->
<g id="edge16" class="edge">
<title>Node004&#45;&gt;Node0607a</title>
<path fill="none" stroke="#99001f" d="M1526,-960.1C1526,-841.43 1526,-664.07 1526,-596.01"/>
<polygon fill="#99001f" stroke="#99001f" points="1529.5,-596.33 1526,-586.33 1522.5,-596.33 1529.5,-596.33"/>
<text text-anchor="middle" x="1602.88" y="-929.04" font-family="Times,serif" font-size="14.00" fill="#99001f">You bet, Claudia&#39;s my</text>
<text text-anchor="middle" x="1602.88" y="-911.79" font-family="Times,serif" font-size="14.00" fill="#99001f">kind of &#45; whatever.</text>
</g>
<!-- Node005 -->
<g id="node25" class="node">
<title>Node005</title>
<ellipse fill="#ffffff" stroke="#000000" cx="749" cy="-567.04" rx="149.2" ry="322.79"/>
<text text-anchor="middle" x="749" y="-777.99" font-family="Times,serif" font-size="14.00">Heard tell there&#39;s a doc</text>
<text text-anchor="middle" x="749" y="-760.74" font-family="Times,serif" font-size="14.00">here in town, says he&#39;s</text>
<text text-anchor="middle" x="749" y="-743.49" font-family="Times,serif" font-size="14.00">got some miracle cure. I</text>
<text text-anchor="middle" x="749" y="-726.24" font-family="Times,serif" font-size="14.00">ain&#39;t taking it though...</text>
<text text-anchor="middle" x="749" y="-708.99" font-family="Times,serif" font-size="14.00">&#45;&#45;&#45;</text>
<text text-anchor="middle" x="749" y="-691.74" font-family="Times,serif" font-size="14.00">Then there&#39;s Saltbeef.</text>
<text text-anchor="middle" x="749" y="-674.49" font-family="Times,serif" font-size="14.00">Old coot says he&#39;s found</text>
<text text-anchor="middle" x="749" y="-657.24" font-family="Times,serif" font-size="14.00">a gold mine...</text>
<text text-anchor="middle" x="749" y="-639.99" font-family="Times,serif" font-size="14.00">&#45;&#45;&#45;</text>
<text text-anchor="middle" x="749" y="-622.74" font-family="Times,serif" font-size="14.00">Miss Dorothy and Toto was</text>
<text text-anchor="middle" x="749" y="-605.49" font-family="Times,serif" font-size="14.00">out here last week,</text>
<text text-anchor="middle" x="749" y="-588.24" font-family="Times,serif" font-size="14.00">looking for some parts to</text>
<text text-anchor="middle" x="749" y="-570.99" font-family="Times,serif" font-size="14.00">fix the powerplant. I</text>
<text text-anchor="middle" x="749" y="-553.74" font-family="Times,serif" font-size="14.00">couldn&#39;t help them,</text>
<text text-anchor="middle" x="749" y="-536.49" font-family="Times,serif" font-size="14.00">though...</text>
<text text-anchor="middle" x="749" y="-519.24" font-family="Times,serif" font-size="14.00">&#45;&#45;&#45;</text>
<text text-anchor="middle" x="749" y="-501.99" font-family="Times,serif" font-size="14.00">There&#39;s talk in town that</text>
<text text-anchor="middle" x="749" y="-484.74" font-family="Times,serif" font-size="14.00">what happened to Westin</text>
<text text-anchor="middle" x="749" y="-467.49" font-family="Times,serif" font-size="14.00">wasn&#39;t no accident. Some</text>
<text text-anchor="middle" x="749" y="-450.24" font-family="Times,serif" font-size="14.00">folks thinking there&#39;s</text>
<text text-anchor="middle" x="749" y="-432.99" font-family="Times,serif" font-size="14.00">too many suspicious</text>
<text text-anchor="middle" x="749" y="-415.74" font-family="Times,serif" font-size="14.00">strangers around...</text>
<text text-anchor="middle" x="749" y="-398.49" font-family="Times,serif" font-size="14.00">&#45;&#45;&#45;</text>
<text text-anchor="middle" x="749" y="-381.24" font-family="Times,serif" font-size="14.00">Thanks for the money, but</text>
<text text-anchor="middle" x="749" y="-363.99" font-family="Times,serif" font-size="14.00">I don&#39;t know anything</text>
<text text-anchor="middle" x="749" y="-346.74" font-family="Times,serif" font-size="14.00">more.</text>
</g>
<!-- Node005a&#45;&gt;Node005 -->
<g id="edge27" class="edge">
<title>Node005a&#45;&gt;Node005</title>
<path fill="none" stroke="#555555" stroke-dasharray="1,5" d="M747.49,-1057.63C746.76,-1032.39 745.47,-983.73 745,-942.34 744.85,-928.75 744.74,-914.87 744.69,-900.86"/>
<polygon fill="#555555" stroke="#555555" points="748.18,-901.11 744.65,-891.12 741.18,-901.13 748.18,-901.11"/>
</g>
<!-- Node002 -->
<g id="node22" class="node">
<title>Node002</title>
<ellipse fill="#ffffff" stroke="#000000" cx="429" cy="-1824.27" rx="141.24" ry="127.63"/>
<text text-anchor="middle" x="429" y="-1897.22" font-family="Times,serif" font-size="14.00">See that one there?</text>
<text text-anchor="middle" x="429" y="-1879.97" font-family="Times,serif" font-size="14.00">That&#39;s my favorite &#45; that</text>
<text text-anchor="middle" x="429" y="-1862.72" font-family="Times,serif" font-size="14.00">one&#39;s Edna. I name all my</text>
<text text-anchor="middle" x="429" y="-1845.47" font-family="Times,serif" font-size="14.00">stuff, see &#45; they&#39;re like</text>
<text text-anchor="middle" x="429" y="-1828.22" font-family="Times,serif" font-size="14.00">chidlren to me. I hate</text>
<text text-anchor="middle" x="429" y="-1810.97" font-family="Times,serif" font-size="14.00">having to sell &#39;em, but I</text>
<text text-anchor="middle" x="429" y="-1793.72" font-family="Times,serif" font-size="14.00">got to eat.</text>
<text text-anchor="middle" x="429" y="-1776.47" font-family="Times,serif" font-size="14.00">&#45;&#45;&#45;</text>
<text text-anchor="middle" x="429" y="-1759.22" font-family="Times,serif" font-size="14.00">You&#39;re messing with all</text>
<text text-anchor="middle" x="429" y="-1741.97" font-family="Times,serif" font-size="14.00">my children!</text>
</g>
<!-- Node002&#45;&gt;Node999 -->
<g id="edge13" class="edge">
<title>Node002&#45;&gt;Node999</title>
<path fill="none" stroke="#996600" d="M367.35,-1708.9C347.72,-1662.61 331,-1607.81 331,-1555.44 331,-1555.44 331,-1555.44 331,-147.75 331,-8.06 494.04,-81.49 631,-54 752.44,-29.62 899.54,-22.15 967.39,-19.92"/>
<polygon fill="#996600" stroke="#996600" points="967.08,-23.4 976.96,-19.59 966.86,-16.4 967.08,-23.4"/>
<text text-anchor="middle" x="418.38" y="-1079.72" font-family="Times,serif" font-size="14.00" fill="#996600">I think me and Edna will</text>
<text text-anchor="middle" x="418.38" y="-1062.47" font-family="Times,serif" font-size="14.00" fill="#996600">be going now.</text>
</g>
<!-- Node002&#45;&gt;NodeBarter -->
<g id="edge12" class="edge">
<title>Node002&#45;&gt;NodeBarter</title>
<path fill="none" stroke="#009993" d="M398.32,-1699.26C362.53,-1541.15 315.62,-1279.76 377.25,-1209.21 416.42,-1164.37 468.95,-1234.34 510,-1191.21 582.8,-1114.71 521.5,-323.76 591,-244.25 638.35,-190.08 678.13,-221.43 749,-209 810.79,-198.16 834.54,-222.14 889,-191 895.77,-187.13 901.6,-181.21 906.36,-175.04"/>
<polygon fill="#009993" stroke="#009993" points="909.76,-177.28 912.55,-167.06 904,-173.3 909.76,-177.28"/>
<text text-anchor="middle" x="468.38" y="-1239.03" font-family="Times,serif" font-size="14.00" fill="#009993">Let me look at your stock</text>
<text text-anchor="middle" x="468.38" y="-1221.78" font-family="Times,serif" font-size="14.00" fill="#009993">again.</text>
</g>
<!-- Node002&#45;&gt;Node005a -->
<g id="edge10" class="edge">
<title>Node002&#45;&gt;Node005a</title>
<path fill="none" stroke="#469900" d="M524.05,-1729.87C541.27,-1716.95 559.87,-1705.2 579,-1696.64 631.45,-1673.19 667.19,-1720.06 707,-1678.64 747.13,-1636.89 748.52,-1218.03 748.16,-1104.84"/>
<polygon fill="#469900" stroke="#469900" points="751.65,-1104.99 748.11,-1095 744.65,-1105.02 751.65,-1104.99"/>
<text text-anchor="middle" x="831.5" y="-1468.7" font-family="Times,serif" font-size="14.00" fill="#469900">Yeah, right. Here&#39;s a</text>
<text text-anchor="middle" x="831.5" y="-1451.45" font-family="Times,serif" font-size="14.00" fill="#469900">fiver. You know any good</text>
<text text-anchor="middle" x="831.5" y="-1434.2" font-family="Times,serif" font-size="14.00" fill="#469900">gossip?</text>
</g>
<!-- Node003 -->
<g id="node23" class="node">
<title>Node003</title>
<ellipse fill="#ffffff" stroke="#000000" cx="572" cy="-1554.44" rx="133.29" ry="54.45"/>
<text text-anchor="middle" x="572" y="-1575.64" font-family="Times,serif" font-size="14.00">Well, thank god that</text>
<text text-anchor="middle" x="572" y="-1558.39" font-family="Times,serif" font-size="14.00">stranger didn&#39;t take you</text>
<text text-anchor="middle" x="572" y="-1541.14" font-family="Times,serif" font-size="14.00">child...My stuff is like</text>
<text text-anchor="middle" x="572" y="-1523.89" font-family="Times,serif" font-size="14.00">my children, see.</text>
</g>
<!-- Node002&#45;&gt;Node003 -->
<g id="edge11" class="edge">
<title>Node002&#45;&gt;Node003</title>
<path fill="none" stroke="#990072" d="M490.06,-1708.91C506.83,-1677.5 524.39,-1644.62 538.93,-1617.39"/>
<polygon fill="#990072" stroke="#990072" points="542.32,-1619.47 543.94,-1609 536.14,-1616.17 542.32,-1619.47"/>
<text text-anchor="middle" x="618.75" y="-1665.34" font-family="Times,serif" font-size="14.00" fill="#990072">O&#45;kay &#45; aren&#39;t you just</text>
<text text-anchor="middle" x="618.75" y="-1648.09" font-family="Times,serif" font-size="14.00" fill="#990072">special! Maybe I should</text>
<text text-anchor="middle" x="618.75" y="-1630.84" font-family="Times,serif" font-size="14.00" fill="#990072">shop someplace else.</text>
</g>
<!-- Node003&#45;&gt;Node001 -->
<g id="edge14" class="edge">
<title>Node003&#45;&gt;Node001</title>
<path fill="none" stroke="#3a0099" d="M580.64,-1499.83C586.4,-1471.08 594.91,-1439.66 605.75,-1430.25 680.24,-1365.55 950.59,-1350.04 1119.88,-1346.82"/>
<polygon fill="#3a0099" stroke="#3a0099" points="1119.69,-1350.3 1129.63,-1346.63 1119.57,-1343.3 1119.69,-1350.3"/>
<text text-anchor="middle" x="662.62" y="-1451.45" font-family="Times,serif" font-size="14.00" fill="#3a0099">Uhh &#45; of course.</text>
</g>
<!-- Node003&#45;&gt;Node999 -->
<g id="edge15" class="edge">
<title>Node003&#45;&gt;Node999</title>
<path fill="none" stroke="#00990d" d="M572,-1499.87C572,-1458.12 572,-1398.67 572,-1346.6 572,-1346.6 572,-1346.6 572,-147.75 572,-65.65 861.63,-31.72 967.14,-22.09"/>
<polygon fill="#00990d" stroke="#00990d" points="967.26,-25.5 976.91,-21.13 966.64,-18.53 967.26,-25.5"/>
<text text-anchor="middle" x="636.88" y="-929.04" font-family="Times,serif" font-size="14.00" fill="#00990d">Well, I think I&#39;ll be</text>
<text text-anchor="middle" x="636.88" y="-911.79" font-family="Times,serif" font-size="14.00" fill="#00990d">going now.</text>
</g>
<!-- Node006 -->
<g id="node26" class="node">
<title>Node006</title>
<ellipse fill="#ffffff" stroke="#000000" cx="1697" cy="-148.75" rx="132.76" ry="42.25"/>
<text text-anchor="middle" x="1697" y="-161.32" font-family="Times,serif" font-size="14.00">Well, gimme six hours. I</text>
<text text-anchor="middle" x="1697" y="-144.07" font-family="Times,serif" font-size="14.00">should have it fixed up</text>
<text text-anchor="middle" x="1697" y="-126.82" font-family="Times,serif" font-size="14.00">by then.</text>
</g>
<!-- Node0607a&#45;&gt;Node006 -->
<g id="edge28" class="edge">
<title>Node0607a&#45;&gt;Node006</title>
<path fill="none" stroke="#555555" stroke-dasharray="1,5" d="M1532.92,-549.21C1556.92,-490.78 1637.25,-295.2 1675.89,-201.14"/>
<polygon fill="#555555" stroke="#555555" points="1679.49,-202.58 1680.06,-192 1673.02,-199.92 1679.49,-202.58"/>
</g>
<!-- Node007 -->
<g id="node27" class="node">
<title>Node007</title>
<ellipse fill="#ffffff" stroke="#000000" cx="1427" cy="-148.75" rx="118.97" ry="42.25"/>
<text text-anchor="middle" x="1427" y="-161.32" font-family="Times,serif" font-size="14.00">Look, if you get the</text>
<text text-anchor="middle" x="1427" y="-144.07" font-family="Times,serif" font-size="14.00">cash, come back. I&#39;ll</text>
<text text-anchor="middle" x="1427" y="-126.82" font-family="Times,serif" font-size="14.00">probably still have it.</text>
</g>
<!-- Node0607a&#45;&gt;Node007 -->
<g id="edge29" class="edge">
<title>Node0607a&#45;&gt;Node007</title>
<path fill="none" stroke="#555555" stroke-dasharray="1,5" d="M1521.93,-548.95C1507.99,-490.31 1461.73,-295.8 1439.35,-201.67"/>
<polygon fill="#555555" stroke="#555555" points="1442.59,-201.17 1436.87,-192.25 1435.78,-202.79 1442.59,-201.17"/>
</g>
<!-- Node005&#45;&gt;Node999 -->
<g id="edge20" class="edge">
<title>Node005&#45;&gt;Node999</title>
<path fill="none" stroke="#009960" d="M694.32,-266.22C697.81,-209.14 712.23,-152.84 745.5,-106.5 796.57,-35.39 908.42,-21.31 967.2,-19"/>
<polygon fill="#009960" stroke="#009960" points="966.98,-22.48 976.88,-18.69 966.78,-15.49 966.98,-22.48"/>
<text text-anchor="middle" x="815.75" y="-152.7" font-family="Times,serif" font-size="14.00" fill="#009960">Well, thanks for the</text>
<text text-anchor="middle" x="815.75" y="-135.45" font-family="Times,serif" font-size="14.00" fill="#009960">info.</text>
</g>
<!-- Node005&#45;&gt;NodeBarter -->
<g id="edge19" class="edge">
<title>Node005&#45;&gt;NodeBarter</title>
<path fill="none" stroke="#8d0099" d="M739.97,-244.48C746.56,-231.84 754.58,-219.92 764.25,-209 796.73,-172.32 828.61,-211.73 873,-191 882.8,-186.42 892.15,-179.27 899.96,-172.2"/>
<polygon fill="#8d0099" stroke="#8d0099" points="902,-175.14 906.78,-165.68 897.14,-170.09 902,-175.14"/>
<text text-anchor="middle" x="838.88" y="-212.95" font-family="Times,serif" font-size="14.00" fill="#8d0099">Can I see your stuff?</text>
</g>
<!-- Node005&#45;&gt;Node005a -->
<g id="edge18" class="edge">
<title>Node005&#45;&gt;Node005a</title>
<path fill="none" stroke="#799900" d="M748.36,-890.13C748.24,-954.96 748.12,-1013.3 748.06,-1046.34"/>
<polygon fill="#799900" stroke="#799900" points="744.55,-1046.32 748.03,-1056.33 751.55,-1046.34 744.55,-1046.32"/>
<text text-anchor="middle" x="822.5" y="-920.41" font-family="Times,serif" font-size="14.00" fill="#799900">Here&#39;s another fiver.</text>
</g>
<!-- Node006&#45;&gt;Node001 -->
<g id="edge21" class="edge">
<title>Node006&#45;&gt;Node001</title>
<path fill="none" stroke="#993300" d="M1704.23,-191.34C1735,-374.13 1846.79,-1104 1699,-1260.96 1676.18,-1285.19 1432.24,-1270.7 1400,-1278.96 1386.71,-1282.36 1373.16,-1287.04 1359.98,-1292.35"/>
<polygon fill="#993300" stroke="#993300" points="1358.86,-1289.44 1350.98,-1296.53 1361.56,-1295.9 1358.86,-1289.44"/>
<text text-anchor="middle" x="1851.25" y="-929.04" font-family="Times,serif" font-size="14.00" fill="#993300">Before you do, a little</text>
<text text-anchor="middle" x="1851.25" y="-911.79" font-family="Times,serif" font-size="14.00" fill="#993300">more of your time.</text>
</g>
<!-- Node006&#45;&gt;Node999 -->
<g id="edge22" class="edge">
<title>Node006&#45;&gt;Node999</title>
<path fill="none" stroke="#070099" d="M1618.17,-114.35C1565.34,-93.44 1493.68,-67.93 1428,-54 1288.3,-24.38 1117.69,-19.55 1043.04,-18.95"/>
<polygon fill="#070099" stroke="#070099" points="1043.33,-15.44 1033.32,-18.89 1043.29,-22.44 1043.33,-15.44"/>
<text text-anchor="middle" x="1637.62" y="-75.2" font-family="Times,serif" font-size="14.00" fill="#070099">Good enough. I&#39;ll see you</text>
<text text-anchor="middle" x="1637.62" y="-57.95" font-family="Times,serif" font-size="14.00" fill="#070099">later.</text>
</g>
<!-- Node007&#45;&gt;Node001 -->
<g id="edge23" class="edge">
<title>Node007&#45;&gt;Node001</title>
<path fill="none" stroke="#269900" d="M1425.81,-191.34C1420.74,-339.28 1396.17,-853.03 1291,-1260.96 1290.28,-1263.73 1289.51,-1266.55 1288.7,-1269.38"/>
<polygon fill="#269900" stroke="#269900" points="1285.14,-1268.08 1285.6,-1278.67 1291.84,-1270.11 1285.14,-1268.08"/>
<text text-anchor="middle" x="1405.62" y="-920.41" font-family="Times,serif" font-size="14.00" fill="#269900">Fair enough.</text>
</g>
<!-- Node007&#45;&gt;Node999 -->
<g id="edge24" class="edge">
<title>Node007&#45;&gt;Node999</title>
<path fill="none" stroke="#990053" d="M1383.76,-108.95C1359.18,-89.15 1326.83,-66.63 1294,-54 1248.87,-36.64 1109.75,-25.68 1042.35,-21.25"/>
<polygon fill="#990053" stroke="#990053" points="1043,-17.72 1032.79,-20.57 1042.55,-24.7 1043,-17.72"/>
<text text-anchor="middle" x="1390.38" y="-66.58" font-family="Times,serif" font-size="14.00" fill="#990053">Goodbye.</text>
</g>
<!-- figureLoadPosistion -->
<g id="node29" class="node">
<title>figureLoadPosistion</title>
<ellipse fill="#ffffff" stroke="#000000" cx="1558" cy="-1824.27" rx="27" ry="18"/>
</g>
<!-- timed_event_p_proc -->
<g id="node30" class="node">
<title>timed_event_p_proc</title>
<ellipse fill="#ffffff" stroke="#000000" cx="1630" cy="-1824.27" rx="27" ry="18"/>
</g>
</g>
</svg>
