<?xml version="1.0" encoding="UTF-8" standalone="no"?>
<!DOCTYPE svg PUBLIC "-//W3C//DTD SVG 1.1//EN"
 "http://www.w3.org/Graphics/SVG/1.1/DTD/svg11.dtd">
<!-- Generated by graphviz version 8.0.5 (0)
 -->
<!-- Title: bccrissy Pages: 1 -->
<svg width="2127pt" height="2673pt"
 viewBox="0.00 0.00 2127.43 2672.55" xmlns="http://www.w3.org/2000/svg" xmlns:xlink="http://www.w3.org/1999/xlink">
<g id="graph0" class="graph" transform="scale(1 1) rotate(0) translate(4 2668.55)">
<title>bccrissy</title>
<polygon fill="white" stroke="none" points="-4,4 -4,-2668.55 2123.43,-2668.55 2123.43,4 -4,4"/>
<!-- checkPartyMembersNearDoor -->
<g id="node1" class="node">
<title>checkPartyMembersNearDoor</title>
<ellipse fill="#ffffff" stroke="#000000" cx="236.43" cy="-2597.91" rx="27" ry="18"/>
</g>
<!-- old_pickup_p_proc -->
<g id="node2" class="node">
<title>old_pickup_p_proc</title>
<ellipse fill="#ffffff" stroke="#000000" cx="308.43" cy="-2330.04" rx="27" ry="18"/>
</g>
<!-- pickup_p_proc -->
<g id="node3" class="node">
<title>pickup_p_proc</title>
<ellipse fill="#ffffff" stroke="#000000" cx="308.43" cy="-2597.91" rx="27" ry="18"/>
</g>
<!-- pickup_p_proc&#45;&gt;old_pickup_p_proc -->
<g id="edge1" class="edge">
<title>pickup_p_proc&#45;&gt;old_pickup_p_proc</title>
<path fill="none" stroke="#555555" stroke-dasharray="1,5" d="M308.43,-2579.46C308.43,-2534.48 308.43,-2414.21 308.43,-2359.2"/>
<polygon fill="#555555" stroke="#555555" points="311.93,-2359.2 308.43,-2349.2 304.93,-2359.2 311.93,-2359.2"/>
</g>
<!-- getTimeBit -->
<g id="node4" class="node">
<title>getTimeBit</title>
<ellipse fill="#ffffff" stroke="#000000" cx="517.43" cy="-2597.91" rx="27" ry="18"/>
</g>
<!-- start -->
<g id="node5" class="node">
<title>start</title>
<ellipse fill="#ffffff" stroke="#000000" cx="758.43" cy="-2597.91" rx="27" ry="18"/>
</g>
<!-- critter_p_proc -->
<g id="node6" class="node">
<title>critter_p_proc</title>
<ellipse fill="#ffffff" stroke="#000000" cx="914.43" cy="-2597.91" rx="27" ry="18"/>
</g>
<!-- talk_p_proc -->
<g id="node7" class="node">
<title>talk_p_proc</title>
<ellipse fill="#ffffff" stroke="#000000" cx="1028.43" cy="-2597.91" rx="27" ry="18"/>
</g>
<!-- Node001 -->
<g id="node8" class="node">
<title>Node001</title>
<ellipse fill="#ffffff" stroke="#000000" cx="488.43" cy="-2330.04" rx="134.88" ry="164.23"/>
<text text-anchor="middle" x="488.43" y="-2428.86" font-family="Times,serif" font-size="14.00">If you&#39;re here to try and</text>
<text text-anchor="middle" x="488.43" y="-2411.61" font-family="Times,serif" font-size="14.00">rape me, you&#39;re going to</text>
<text text-anchor="middle" x="488.43" y="-2394.36" font-family="Times,serif" font-size="14.00">be wearing your balls as</text>
<text text-anchor="middle" x="488.43" y="-2377.11" font-family="Times,serif" font-size="14.00">a bow tie. Get it?</text>
<text text-anchor="middle" x="488.43" y="-2359.86" font-family="Times,serif" font-size="14.00">&#45;&#45;&#45;</text>
<text text-anchor="middle" x="488.43" y="-2342.61" font-family="Times,serif" font-size="14.00">Let me guess. The guys</text>
<text text-anchor="middle" x="488.43" y="-2325.36" font-family="Times,serif" font-size="14.00">are tired of me kicking</text>
<text text-anchor="middle" x="488.43" y="-2308.11" font-family="Times,serif" font-size="14.00">them where it hurts, so</text>
<text text-anchor="middle" x="488.43" y="-2290.86" font-family="Times,serif" font-size="14.00">they sent you in here to</text>
<text text-anchor="middle" x="488.43" y="-2273.61" font-family="Times,serif" font-size="14.00">do something obscene.</text>
<text text-anchor="middle" x="488.43" y="-2256.36" font-family="Times,serif" font-size="14.00">Well, I can hurt you just</text>
<text text-anchor="middle" x="488.43" y="-2239.11" font-family="Times,serif" font-size="14.00">as bad; I just need to</text>
<text text-anchor="middle" x="488.43" y="-2221.86" font-family="Times,serif" font-size="14.00">kick higher. Get it?</text>
</g>
<!-- talk_p_proc&#45;&gt;Node001 -->
<g id="edge2" class="edge">
<title>talk_p_proc&#45;&gt;Node001</title>
<path fill="none" stroke="#555555" stroke-dasharray="1,5" d="M1013.91,-2582.43C998.96,-2568.09 974.51,-2546.17 950.43,-2531.26 848.41,-2468.12 722.99,-2415.13 628.58,-2379.56"/>
<polygon fill="#555555" stroke="#555555" points="629.98,-2375.97 619.39,-2375.74 627.52,-2382.52 629.98,-2375.97"/>
</g>
<!-- Node008 -->
<g id="node9" class="node">
<title>Node008</title>
<ellipse fill="#ffffff" stroke="#000000" cx="1028.43" cy="-932.97" rx="138.06" ry="103.24"/>
<text text-anchor="middle" x="1028.43" y="-988.67" font-family="Times,serif" font-size="14.00">My knight in shining</text>
<text text-anchor="middle" x="1028.43" y="-971.42" font-family="Times,serif" font-size="14.00">armor returns. Well, it</text>
<text text-anchor="middle" x="1028.43" y="-954.17" font-family="Times,serif" font-size="14.00">would shine if you&#39;d</text>
<text text-anchor="middle" x="1028.43" y="-936.92" font-family="Times,serif" font-size="14.00">clean it every once in a</text>
<text text-anchor="middle" x="1028.43" y="-919.67" font-family="Times,serif" font-size="14.00">while. Oh, and you might</text>
<text text-anchor="middle" x="1028.43" y="-902.42" font-family="Times,serif" font-size="14.00">want to consider bathing</text>
<text text-anchor="middle" x="1028.43" y="-885.17" font-family="Times,serif" font-size="14.00">yourself as well. So,</text>
<text text-anchor="middle" x="1028.43" y="-867.92" font-family="Times,serif" font-size="14.00">what can I do for you?</text>
</g>
<!-- talk_p_proc&#45;&gt;Node008 -->
<g id="edge3" class="edge">
<title>talk_p_proc&#45;&gt;Node008</title>
<path fill="none" stroke="#555555" stroke-dasharray="1,5" d="M1028.43,-2579.49C1028.43,-2537.02 1028.43,-2424.74 1028.43,-2331.04 1028.43,-2331.04 1028.43,-2331.04 1028.43,-1701.9 1028.43,-1469.18 1028.43,-1196.78 1028.43,-1047.02"/>
<polygon fill="#555555" stroke="#555555" points="1031.93,-1047.45 1028.43,-1037.45 1024.93,-1047.45 1031.93,-1047.45"/>
</g>
<!-- Node007 -->
<g id="node10" class="node">
<title>Node007</title>
<ellipse fill="#ffffff" stroke="#000000" cx="1176.43" cy="-2330.04" rx="119.5" ry="30.05"/>
<text text-anchor="middle" x="1176.43" y="-2333.99" font-family="Times,serif" font-size="14.00">Please take me to my</text>
<text text-anchor="middle" x="1176.43" y="-2316.74" font-family="Times,serif" font-size="14.00">mother, Rebecca.</text>
</g>
<!-- talk_p_proc&#45;&gt;Node007 -->
<g id="edge4" class="edge">
<title>talk_p_proc&#45;&gt;Node007</title>
<path fill="none" stroke="#555555" stroke-dasharray="1,5" d="M1037.41,-2580.43C1044.67,-2567.14 1055.17,-2547.98 1064.43,-2531.26 1095.63,-2474.93 1132.09,-2409.9 1154.72,-2369.62"/>
<polygon fill="#555555" stroke="#555555" points="1158.18,-2371.61 1160.03,-2361.18 1152.08,-2368.18 1158.18,-2371.61"/>
</g>
<!-- Node002 -->
<g id="node21" class="node">
<title>Node002</title>
<ellipse fill="#ffffff" stroke="#000000" cx="394.43" cy="-1984.93" rx="134.88" ry="127.63"/>
<text text-anchor="middle" x="394.43" y="-2057.88" font-family="Times,serif" font-size="14.00">Yeah. A fancy piece of</text>
<text text-anchor="middle" x="394.43" y="-2040.63" font-family="Times,serif" font-size="14.00">cloth worn around the</text>
<text text-anchor="middle" x="394.43" y="-2023.38" font-family="Times,serif" font-size="14.00">neck for decoration. It&#39;s</text>
<text text-anchor="middle" x="394.43" y="-2006.13" font-family="Times,serif" font-size="14.00">like a scarf, but for</text>
<text text-anchor="middle" x="394.43" y="-1988.88" font-family="Times,serif" font-size="14.00">men. Now, just imagine</text>
<text text-anchor="middle" x="394.43" y="-1971.63" font-family="Times,serif" font-size="14.00">me kicking you SO hard</text>
<text text-anchor="middle" x="394.43" y="-1954.38" font-family="Times,serif" font-size="14.00">that you end up wearing</text>
<text text-anchor="middle" x="394.43" y="-1937.13" font-family="Times,serif" font-size="14.00">your dangly about your</text>
<text text-anchor="middle" x="394.43" y="-1919.88" font-family="Times,serif" font-size="14.00">neck. Get</text>
<text text-anchor="middle" x="394.43" y="-1902.63" font-family="Times,serif" font-size="14.00"> it?</text>
</g>
<!-- Node001&#45;&gt;Node002 -->
<g id="edge5" class="edge">
<title>Node001&#45;&gt;Node002</title>
<path fill="none" stroke="#8c9900" d="M445.9,-2173.8C440.92,-2155.63 435.87,-2137.21 430.99,-2119.37"/>
<polygon fill="#8c9900" stroke="#8c9900" points="434.15,-2118.66 428.13,-2109.94 427.39,-2120.51 434.15,-2118.66"/>
<text text-anchor="middle" x="470.18" y="-2134.51" font-family="Times,serif" font-size="14.00" fill="#8c9900">Bow tie?</text>
</g>
<!-- Node005 -->
<g id="node22" class="node">
<title>Node005</title>
<ellipse fill="#ffffff" stroke="#000000" cx="560.43" cy="-932.97" rx="149.2" ry="615.54"/>
<text text-anchor="middle" x="560.43" y="-1350.92" font-family="Times,serif" font-size="14.00">In a nutshell, my name is</text>
<text text-anchor="middle" x="560.43" y="-1333.67" font-family="Times,serif" font-size="14.00">Chrissy and I&#39;m from the</text>
<text text-anchor="middle" x="560.43" y="-1316.42" font-family="Times,serif" font-size="14.00">Squat. I was out</text>
<text text-anchor="middle" x="560.43" y="-1299.17" font-family="Times,serif" font-size="14.00">exploring last week when</text>
<text text-anchor="middle" x="560.43" y="-1281.92" font-family="Times,serif" font-size="14.00">I</text>
<text text-anchor="middle" x="560.43" y="-1264.67" font-family="Times,serif" font-size="14.00">found that entrance out</text>
<text text-anchor="middle" x="560.43" y="-1247.42" font-family="Times,serif" font-size="14.00">there. I thought it might</text>
<text text-anchor="middle" x="560.43" y="-1230.17" font-family="Times,serif" font-size="14.00">be an abandoned mine or</text>
<text text-anchor="middle" x="560.43" y="-1212.92" font-family="Times,serif" font-size="14.00">something, so I decided</text>
<text text-anchor="middle" x="560.43" y="-1195.67" font-family="Times,serif" font-size="14.00">to</text>
<text text-anchor="middle" x="560.43" y="-1178.42" font-family="Times,serif" font-size="14.00">check it out. Well, it&#39;s</text>
<text text-anchor="middle" x="560.43" y="-1161.17" font-family="Times,serif" font-size="14.00">not a mine; it&#39;s a secret</text>
<text text-anchor="middle" x="560.43" y="-1143.92" font-family="Times,serif" font-size="14.00">entrance into Vault 15.</text>
<text text-anchor="middle" x="560.43" y="-1126.67" font-family="Times,serif" font-size="14.00">The vault is being</text>
<text text-anchor="middle" x="560.43" y="-1109.42" font-family="Times,serif" font-size="14.00">used as a base for a</text>
<text text-anchor="middle" x="560.43" y="-1092.17" font-family="Times,serif" font-size="14.00">band of raiders called</text>
<text text-anchor="middle" x="560.43" y="-1074.92" font-family="Times,serif" font-size="14.00">the Khans. They caught me</text>
<text text-anchor="middle" x="560.43" y="-1057.67" font-family="Times,serif" font-size="14.00">snooping around and their</text>
<text text-anchor="middle" x="560.43" y="-1040.42" font-family="Times,serif" font-size="14.00">leader, Darion, had me</text>
<text text-anchor="middle" x="560.43" y="-1023.17" font-family="Times,serif" font-size="14.00">locked up in here.</text>
<text text-anchor="middle" x="560.43" y="-1005.92" font-family="Times,serif" font-size="14.00">&#45;&#45;&#45;</text>
<text text-anchor="middle" x="560.43" y="-988.67" font-family="Times,serif" font-size="14.00">The people of the Squat</text>
<text text-anchor="middle" x="560.43" y="-971.42" font-family="Times,serif" font-size="14.00">are protecting these guys</text>
<text text-anchor="middle" x="560.43" y="-954.17" font-family="Times,serif" font-size="14.00">by helping them keep the</text>
<text text-anchor="middle" x="560.43" y="-936.92" font-family="Times,serif" font-size="14.00">vault a secret, but they</text>
<text text-anchor="middle" x="560.43" y="-919.67" font-family="Times,serif" font-size="14.00">don&#39;t know what&#39;s really</text>
<text text-anchor="middle" x="560.43" y="-902.42" font-family="Times,serif" font-size="14.00">going on here. Darion</text>
<text text-anchor="middle" x="560.43" y="-885.17" font-family="Times,serif" font-size="14.00">told us that the vault</text>
<text text-anchor="middle" x="560.43" y="-867.92" font-family="Times,serif" font-size="14.00">was being repaired so we</text>
<text text-anchor="middle" x="560.43" y="-850.67" font-family="Times,serif" font-size="14.00">could have</text>
<text text-anchor="middle" x="560.43" y="-833.42" font-family="Times,serif" font-size="14.00">a safe place to live</text>
<text text-anchor="middle" x="560.43" y="-816.17" font-family="Times,serif" font-size="14.00">with lots of food and</text>
<text text-anchor="middle" x="560.43" y="-798.92" font-family="Times,serif" font-size="14.00">water, but it&#39;s all a</text>
<text text-anchor="middle" x="560.43" y="-781.67" font-family="Times,serif" font-size="14.00">lie. I&#39;ve been in there</text>
<text text-anchor="middle" x="560.43" y="-764.42" font-family="Times,serif" font-size="14.00">and looked</text>
<text text-anchor="middle" x="560.43" y="-747.17" font-family="Times,serif" font-size="14.00">around. The vault is</text>
<text text-anchor="middle" x="560.43" y="-729.92" font-family="Times,serif" font-size="14.00">dead, and the food and</text>
<text text-anchor="middle" x="560.43" y="-712.67" font-family="Times,serif" font-size="14.00">water machines don&#39;t</text>
<text text-anchor="middle" x="560.43" y="-695.42" font-family="Times,serif" font-size="14.00">work. Our food and</text>
<text text-anchor="middle" x="560.43" y="-678.17" font-family="Times,serif" font-size="14.00">water&#39;s been coming</text>
<text text-anchor="middle" x="560.43" y="-660.92" font-family="Times,serif" font-size="14.00"> from the spoils</text>
<text text-anchor="middle" x="560.43" y="-643.67" font-family="Times,serif" font-size="14.00">of raids against</text>
<text text-anchor="middle" x="560.43" y="-626.42" font-family="Times,serif" font-size="14.00">caravans.</text>
<text text-anchor="middle" x="560.43" y="-609.17" font-family="Times,serif" font-size="14.00">&#45;&#45;&#45;</text>
<text text-anchor="middle" x="560.43" y="-591.92" font-family="Times,serif" font-size="14.00">Look, I&#39;ve got to go home</text>
<text text-anchor="middle" x="560.43" y="-574.67" font-family="Times,serif" font-size="14.00">and warn everyone about</text>
<text text-anchor="middle" x="560.43" y="-557.42" font-family="Times,serif" font-size="14.00">what&#39;s really going on</text>
<text text-anchor="middle" x="560.43" y="-540.17" font-family="Times,serif" font-size="14.00">here. We can&#39;t help these</text>
<text text-anchor="middle" x="560.43" y="-522.92" font-family="Times,serif" font-size="14.00">monsters. Will you take</text>
<text text-anchor="middle" x="560.43" y="-505.67" font-family="Times,serif" font-size="14.00">me home?</text>
</g>
<!-- Node001&#45;&gt;Node005 -->
<g id="edge6" class="edge">
<title>Node001&#45;&gt;Node005</title>
<path fill="none" stroke="#7a0099" d="M527.55,-2172.63C531.7,-2152.5 535.47,-2132.11 538.43,-2112.56 565.64,-1932.51 576.6,-1735.25 579.31,-1554.48"/>
<polygon fill="#7a0099" stroke="#7a0099" points="582.82,-1554.74 579.46,-1544.69 575.82,-1554.64 582.82,-1554.74"/>
<text text-anchor="middle" x="670.8" y="-1808.75" font-family="Times,serif" font-size="14.00" fill="#7a0099">What go on here? Who you?</text>
</g>
<!-- Node001&#45;&gt;Node005 -->
<g id="edge7" class="edge">
<title>Node001&#45;&gt;Node005</title>
<path fill="none" stroke="#00994d" d="M394.2,-2212.36C378.43,-2195.83 361.59,-2179.74 344.43,-2165.81 307.14,-2135.56 287.69,-2142.85 250.43,-2112.56 111.03,-1999.26 -40.55,-1959.87 10.18,-1787.55 87.79,-1523.92 274.87,-1264.88 409.35,-1102.58"/>
<polygon fill="#00994d" stroke="#00994d" points="412.42,-1105.37 416.12,-1095.44 407.04,-1100.9 412.42,-1105.37"/>
<text text-anchor="middle" x="98.55" y="-1826" font-family="Times,serif" font-size="14.00" fill="#00994d">I&#39;d like to know who you</text>
<text text-anchor="middle" x="98.55" y="-1808.75" font-family="Times,serif" font-size="14.00" fill="#00994d">are and what is going on</text>
<text text-anchor="middle" x="98.55" y="-1791.5" font-family="Times,serif" font-size="14.00" fill="#00994d">here.</text>
</g>
<!-- Node009 -->
<g id="node26" class="node">
<title>Node009</title>
<ellipse fill="#ffffff" stroke="#000000" cx="983.43" cy="-168.09" rx="140.71" ry="78.84"/>
<text text-anchor="middle" x="983.43" y="-206.54" font-family="Times,serif" font-size="14.00">Hey, I know I have a</text>
<text text-anchor="middle" x="983.43" y="-189.29" font-family="Times,serif" font-size="14.00">smart mouth, but I want</text>
<text text-anchor="middle" x="983.43" y="-172.04" font-family="Times,serif" font-size="14.00">you to know that I&#39;m very</text>
<text text-anchor="middle" x="983.43" y="-154.79" font-family="Times,serif" font-size="14.00">grateful for you saving</text>
<text text-anchor="middle" x="983.43" y="-137.54" font-family="Times,serif" font-size="14.00">my butt. Thanks very</text>
<text text-anchor="middle" x="983.43" y="-120.29" font-family="Times,serif" font-size="14.00">much!</text>
</g>
<!-- Node008&#45;&gt;Node009 -->
<g id="edge17" class="edge">
<title>Node008&#45;&gt;Node009</title>
<path fill="none" stroke="#004099" d="M1017.9,-829.68C1005.61,-704.73 986.04,-486.83 978.68,-299.43 978.16,-286.13 978.12,-272.07 978.38,-258.29"/>
<polygon fill="#004099" stroke="#004099" points="981.91,-258.41 978.65,-248.32 974.91,-258.24 981.91,-258.41"/>
<text text-anchor="middle" x="1056.3" y="-286.13" font-family="Times,serif" font-size="14.00" fill="#004099">Me just say hi. Me go</text>
<text text-anchor="middle" x="1056.3" y="-268.88" font-family="Times,serif" font-size="14.00" fill="#004099">now.</text>
</g>
<!-- Node008&#45;&gt;Node009 -->
<g id="edge18" class="edge">
<title>Node008&#45;&gt;Node009</title>
<path fill="none" stroke="#6c9900" d="M1078.67,-836.36C1142.42,-700.77 1232.72,-448.7 1132.43,-264.93 1124.25,-249.96 1112.62,-236.97 1099.42,-225.81"/>
<polygon fill="#6c9900" stroke="#6c9900" points="1102.01,-222.6 1092.01,-219.1 1097.64,-228.07 1102.01,-222.6"/>
<text text-anchor="middle" x="1230.55" y="-286.13" font-family="Times,serif" font-size="14.00" fill="#6c9900">Just thought I&#39;d say</text>
<text text-anchor="middle" x="1230.55" y="-268.88" font-family="Times,serif" font-size="14.00" fill="#6c9900">hello. I&#39;ll be going now.</text>
</g>
<!-- destroy_p_proc -->
<g id="node11" class="node">
<title>destroy_p_proc</title>
<ellipse fill="#ffffff" stroke="#000000" cx="1100.43" cy="-2597.91" rx="27" ry="18"/>
</g>
<!-- look_at_p_proc -->
<g id="node12" class="node">
<title>look_at_p_proc</title>
<ellipse fill="#ffffff" stroke="#000000" cx="1280.43" cy="-2597.91" rx="134.88" ry="54.45"/>
<text text-anchor="middle" x="1280.43" y="-2619.11" font-family="Times,serif" font-size="14.00">You see a young woman.</text>
<text text-anchor="middle" x="1280.43" y="-2601.86" font-family="Times,serif" font-size="14.00">&#45;&#45;&#45;</text>
<text text-anchor="middle" x="1280.43" y="-2584.61" font-family="Times,serif" font-size="14.00">You see Chrissy,</text>
<text text-anchor="middle" x="1280.43" y="-2567.36" font-family="Times,serif" font-size="14.00">Rebecca&#39;s daughter.</text>
</g>
<!-- description_p_proc -->
<g id="node13" class="node">
<title>description_p_proc</title>
<ellipse fill="#ffffff" stroke="#000000" cx="1560.43" cy="-2597.91" rx="126.93" ry="66.64"/>
<text text-anchor="middle" x="1560.43" y="-2627.73" font-family="Times,serif" font-size="14.00">You see a pretty young</text>
<text text-anchor="middle" x="1560.43" y="-2610.48" font-family="Times,serif" font-size="14.00">woman. She looks</text>
<text text-anchor="middle" x="1560.43" y="-2593.23" font-family="Times,serif" font-size="14.00">confident and able to</text>
<text text-anchor="middle" x="1560.43" y="-2575.98" font-family="Times,serif" font-size="14.00">handle herself in a</text>
<text text-anchor="middle" x="1560.43" y="-2558.73" font-family="Times,serif" font-size="14.00">fight.</text>
</g>
<!-- use_skill_on_p_proc -->
<g id="node14" class="node">
<title>use_skill_on_p_proc</title>
<ellipse fill="#ffffff" stroke="#000000" cx="1732.43" cy="-2597.91" rx="27" ry="18"/>
</g>
<!-- damage_p_proc -->
<g id="node15" class="node">
<title>damage_p_proc</title>
<ellipse fill="#ffffff" stroke="#000000" cx="1804.43" cy="-2597.91" rx="27" ry="18"/>
</g>
<!-- map_enter_p_proc -->
<g id="node16" class="node">
<title>map_enter_p_proc</title>
<ellipse fill="#ffffff" stroke="#000000" cx="1876.43" cy="-2597.91" rx="27" ry="18"/>
</g>
<!-- timed_event_p_proc -->
<g id="node17" class="node">
<title>timed_event_p_proc</title>
<ellipse fill="#ffffff" stroke="#000000" cx="1948.43" cy="-2597.91" rx="27" ry="18"/>
</g>
<!-- combat_p_proc -->
<g id="node18" class="node">
<title>combat_p_proc</title>
<ellipse fill="#ffffff" stroke="#000000" cx="2020.43" cy="-2597.91" rx="27" ry="18"/>
</g>
<!-- Node998 -->
<g id="node19" class="node">
<title>Node998</title>
<ellipse fill="#ffffff" stroke="#000000" cx="2092.43" cy="-2597.91" rx="27" ry="18"/>
</g>
<!-- Node999 -->
<g id="node20" class="node">
<title>Node999</title>
<ellipse fill="#ffffff" stroke="#000000" cx="844.43" cy="-18" rx="27" ry="18"/>
</g>
<!-- Node003 -->
<g id="node23" class="node">
<title>Node003</title>
<ellipse fill="#ffffff" stroke="#000000" cx="289.43" cy="-1702.9" rx="117.38" ry="30.05"/>
<text text-anchor="middle" x="289.43" y="-1706.85" font-family="Times,serif" font-size="14.00">Okay, so why are you</text>
<text text-anchor="middle" x="289.43" y="-1689.6" font-family="Times,serif" font-size="14.00">here?</text>
</g>
<!-- Node002&#45;&gt;Node003 -->
<g id="edge8" class="edge">
<title>Node002&#45;&gt;Node003</title>
<path fill="none" stroke="#992000" d="M392.73,-1856.83C388.96,-1833.01 382.65,-1808.9 372.43,-1787.55 363.63,-1769.18 349.12,-1752.44 334.68,-1738.85"/>
<polygon fill="#992000" stroke="#992000" points="337.46,-1736.75 327.69,-1732.64 332.76,-1741.94 337.46,-1736.75"/>
<text text-anchor="middle" x="471.93" y="-1817.37" font-family="Times,serif" font-size="14.00" fill="#992000">Me understand. You no</text>
<text text-anchor="middle" x="471.93" y="-1800.12" font-family="Times,serif" font-size="14.00" fill="#992000">hurt me.</text>
</g>
<!-- Node002&#45;&gt;Node003 -->
<g id="edge9" class="edge">
<title>Node002&#45;&gt;Node003</title>
<path fill="none" stroke="#000c99" d="M275.63,-1923.7C244.48,-1901.67 214.77,-1873.55 197.43,-1839.3 187.04,-1818.78 188.12,-1808.58 197.43,-1787.55 206.05,-1768.05 221.72,-1751.14 237.71,-1737.73"/>
<polygon fill="#000c99" stroke="#000c99" points="239.45,-1740.02 245.07,-1731.04 235.07,-1734.56 239.45,-1740.02"/>
<text text-anchor="middle" x="282.93" y="-1817.37" font-family="Times,serif" font-size="14.00" fill="#000c99">I got the picture; please</text>
<text text-anchor="middle" x="282.93" y="-1800.12" font-family="Times,serif" font-size="14.00" fill="#000c99">don&#39;t hurt me.</text>
</g>
<!-- Node004 -->
<g id="node24" class="node">
<title>Node004</title>
<ellipse fill="#ffffff" stroke="#000000" cx="694.43" cy="-168.09" rx="130.64" ry="30.05"/>
<text text-anchor="middle" x="694.43" y="-172.04" font-family="Times,serif" font-size="14.00">Really? Awesome! Let&#39;s</text>
<text text-anchor="middle" x="694.43" y="-154.79" font-family="Times,serif" font-size="14.00">go.</text>
</g>
<!-- Node005&#45;&gt;Node004 -->
<g id="edge13" class="edge">
<title>Node005&#45;&gt;Node004</title>
<path fill="none" stroke="#997300" d="M519.14,-340.99C527.48,-314.69 537.96,-289.19 550.93,-264.93 566.09,-236.57 593.77,-215.15 620.8,-199.82"/>
<polygon fill="#997300" stroke="#997300" points="622.19,-202.51 629.31,-194.66 618.85,-196.35 622.19,-202.51"/>
<text text-anchor="middle" x="640.68" y="-277.51" font-family="Times,serif" font-size="14.00" fill="#997300">Okay. Me take you home.</text>
</g>
<!-- Node005&#45;&gt;Node004 -->
<g id="edge14" class="edge">
<title>Node005&#45;&gt;Node004</title>
<path fill="none" stroke="#460099" d="M678.41,-554.74C699.61,-471.46 718.44,-383.11 729.43,-299.43 731.42,-284.23 732.1,-280.03 729.43,-264.93 726.03,-245.72 719.08,-225.3 712.26,-208.27"/>
<polygon fill="#460099" stroke="#460099" points="715.12,-207.04 708.06,-199.14 708.66,-209.72 715.12,-207.04"/>
<text text-anchor="middle" x="806.8" y="-286.13" font-family="Times,serif" font-size="14.00" fill="#460099">All right, I&#39;ll take you</text>
<text text-anchor="middle" x="806.8" y="-268.88" font-family="Times,serif" font-size="14.00" fill="#460099">home.</text>
</g>
<!-- Node003&#45;&gt;Node005 -->
<g id="edge10" class="edge">
<title>Node003&#45;&gt;Node005</title>
<path fill="none" stroke="#399900" d="M317.4,-1673.36C331.09,-1658.07 346.86,-1638.29 357.43,-1618.26 383.41,-1569.02 416.16,-1470.05 447.72,-1362.32"/>
<polygon fill="#399900" stroke="#399900" points="451.33,-1363.45 450.77,-1352.87 444.61,-1361.49 451.33,-1363.45"/>
<text text-anchor="middle" x="470.18" y="-1596.33" font-family="Times,serif" font-size="14.00" fill="#399900">Me want know what go on</text>
<text text-anchor="middle" x="470.18" y="-1579.08" font-family="Times,serif" font-size="14.00" fill="#399900">here? Who you?</text>
</g>
<!-- Node003&#45;&gt;Node005 -->
<g id="edge11" class="edge">
<title>Node003&#45;&gt;Node005</title>
<path fill="none" stroke="#990066" d="M235.31,-1675.92C213.02,-1662.15 189.55,-1642.91 177.18,-1618.26 166.86,-1597.7 170.99,-1588.66 177.18,-1566.51 222.97,-1402.57 324.11,-1238.79 410.99,-1118.98"/>
<polygon fill="#990066" stroke="#990066" points="414.16,-1121.57 417.22,-1111.43 408.51,-1117.45 414.16,-1121.57"/>
<text text-anchor="middle" x="265.55" y="-1604.96" font-family="Times,serif" font-size="14.00" fill="#990066">I&#39;d like to know who you</text>
<text text-anchor="middle" x="265.55" y="-1587.71" font-family="Times,serif" font-size="14.00" fill="#990066">are and what is going on</text>
<text text-anchor="middle" x="265.55" y="-1570.46" font-family="Times,serif" font-size="14.00" fill="#990066">here.</text>
</g>
<!-- Node004&#45;&gt;Node999 -->
<g id="edge12" class="edge">
<title>Node004&#45;&gt;Node999</title>
<path fill="none" stroke="#009299" d="M717.57,-138.13C737.26,-114.32 766.93,-80.33 796.18,-54 802.67,-48.16 810.12,-42.37 817.2,-37.22"/>
<polygon fill="#009299" stroke="#009299" points="818.71,-39.73 824.86,-31.1 814.67,-34.02 818.71,-39.73"/>
<text text-anchor="middle" x="815.55" y="-57.95" font-family="Times,serif" font-size="14.00" fill="#009299">Okay.</text>
</g>
<!-- Node006 -->
<g id="node25" class="node">
<title>Node006</title>
<ellipse fill="#ffffff" stroke="#000000" cx="782.43" cy="-1702.9" rx="139.65" ry="66.64"/>
<text text-anchor="middle" x="782.43" y="-1732.73" font-family="Times,serif" font-size="14.00">Well, I&#39;ll be damned.</text>
<text text-anchor="middle" x="782.43" y="-1715.48" font-family="Times,serif" font-size="14.00">Today must be my lucky</text>
<text text-anchor="middle" x="782.43" y="-1698.23" font-family="Times,serif" font-size="14.00">day. To what do I owe the</text>
<text text-anchor="middle" x="782.43" y="-1680.98" font-family="Times,serif" font-size="14.00">pleasure of seeing you</text>
<text text-anchor="middle" x="782.43" y="-1663.73" font-family="Times,serif" font-size="14.00"> again?</text>
</g>
<!-- Node006&#45;&gt;Node005 -->
<g id="edge15" class="edge">
<title>Node006&#45;&gt;Node005</title>
<path fill="none" stroke="#00991a" d="M793.84,-1636.14C795.96,-1613.91 796.43,-1589.02 792.43,-1566.51 772.78,-1455.89 735.22,-1339.23 695.95,-1236.64"/>
<polygon fill="#00991a" stroke="#00991a" points="698.88,-1235.51 692.02,-1227.44 692.35,-1238.03 698.88,-1235.51"/>
<text text-anchor="middle" x="895.8" y="-1587.71" font-family="Times,serif" font-size="14.00" fill="#00991a">What go on here? Who you?</text>
</g>
<!-- Node006&#45;&gt;Node005 -->
<g id="edge16" class="edge">
<title>Node006&#45;&gt;Node005</title>
<path fill="none" stroke="#990013" d="M666.46,-1665.31C645.28,-1653.53 625.65,-1638.17 612.18,-1618.26 605.05,-1607.72 598.85,-1581.63 593.48,-1545.47"/>
<polygon fill="#990013" stroke="#990013" points="596.87,-1545.42 591.99,-1536.02 589.94,-1546.41 596.87,-1545.42"/>
<text text-anchor="middle" x="700.55" y="-1604.96" font-family="Times,serif" font-size="14.00" fill="#990013">I&#39;d like to know who you</text>
<text text-anchor="middle" x="700.55" y="-1587.71" font-family="Times,serif" font-size="14.00" fill="#990013">are and what is going on</text>
<text text-anchor="middle" x="700.55" y="-1570.46" font-family="Times,serif" font-size="14.00" fill="#990013">here.</text>
</g>
<!-- Node009&#45;&gt;Node999 -->
<g id="edge19" class="edge">
<title>Node009&#45;&gt;Node999</title>
<path fill="none" stroke="#990099" d="M979.71,-88.84C976.05,-76.04 970.29,-63.78 961.43,-54 941.5,-32 908.37,-23.6 882.45,-20.5"/>
<polygon fill="#990099" stroke="#990099" points="883.13,-16.95 872.84,-19.47 882.45,-23.92 883.13,-16.95"/>
<text text-anchor="middle" x="1020.8" y="-57.95" font-family="Times,serif" font-size="14.00" fill="#990099">You welcome.</text>
</g>
<!-- Node009&#45;&gt;Node999 -->
<g id="edge20" class="edge">
<title>Node009&#45;&gt;Node999</title>
<path fill="none" stroke="#00996d" d="M879.4,-114.82C864.33,-102.63 850.9,-88.16 841.93,-71.25 838.01,-63.86 837.23,-55.02 837.85,-46.73"/>
<polygon fill="#00996d" stroke="#00996d" points="841.44,-47.36 839.38,-36.96 834.5,-46.37 841.44,-47.36"/>
<text text-anchor="middle" x="900.18" y="-57.95" font-family="Times,serif" font-size="14.00" fill="#00996d">You&#39;re welcome.</text>
</g>
</g>
</svg>
