<?xml version="1.0" encoding="UTF-8" standalone="no"?>
<!DOCTYPE svg PUBLIC "-//W3C//DTD SVG 1.1//EN"
 "http://www.w3.org/Graphics/SVG/1.1/DTD/svg11.dtd">
<!-- Generated by graphviz version 8.0.5 (0)
 -->
<!-- Title: bcgengrd Pages: 1 -->
<svg width="1562pt" height="606pt"
 viewBox="0.00 0.00 1562.00 605.80" xmlns="http://www.w3.org/2000/svg" xmlns:xlink="http://www.w3.org/1999/xlink">
<g id="graph0" class="graph" transform="scale(1 1) rotate(0) translate(4 601.8)">
<title>bcgengrd</title>
<polygon fill="white" stroke="none" points="-4,4 -4,-601.8 1558,-601.8 1558,4 -4,4"/>
<!-- checkPartyMembersNearDoor -->
<g id="node1" class="node">
<title>checkPartyMembersNearDoor</title>
<ellipse fill="#ffffff" stroke="#000000" cx="27" cy="-531.16" rx="27" ry="18"/>
</g>
<!-- old_pickup_p_proc -->
<g id="node2" class="node">
<title>old_pickup_p_proc</title>
<ellipse fill="#ffffff" stroke="#000000" cx="99" cy="-348.67" rx="27" ry="18"/>
</g>
<!-- pickup_p_proc -->
<g id="node3" class="node">
<title>pickup_p_proc</title>
<ellipse fill="#ffffff" stroke="#000000" cx="99" cy="-531.16" rx="27" ry="18"/>
</g>
<!-- pickup_p_proc&#45;&gt;old_pickup_p_proc -->
<g id="edge1" class="edge">
<title>pickup_p_proc&#45;&gt;old_pickup_p_proc</title>
<path fill="none" stroke="#555555" stroke-dasharray="1,5" d="M99,-512.85C99,-481.59 99,-415.44 99,-377.67"/>
<polygon fill="#555555" stroke="#555555" points="102.5,-377.93 99,-367.93 95.5,-377.93 102.5,-377.93"/>
</g>
<!-- getTimeBit -->
<g id="node4" class="node">
<title>getTimeBit</title>
<ellipse fill="#ffffff" stroke="#000000" cx="181" cy="-531.16" rx="27" ry="18"/>
</g>
<!-- start -->
<g id="node5" class="node">
<title>start</title>
<ellipse fill="#ffffff" stroke="#000000" cx="258" cy="-531.16" rx="27" ry="18"/>
</g>
<!-- critter_p_proc -->
<g id="node6" class="node">
<title>critter_p_proc</title>
<ellipse fill="#ffffff" stroke="#000000" cx="333" cy="-531.16" rx="27" ry="18"/>
</g>
<!-- talk_p_proc -->
<g id="node7" class="node">
<title>talk_p_proc</title>
<ellipse fill="#ffffff" stroke="#000000" cx="406" cy="-531.16" rx="27" ry="18"/>
</g>
<!-- Node001 -->
<g id="node8" class="node">
<title>Node001</title>
<ellipse fill="#ffffff" stroke="#000000" cx="427" cy="-348.67" rx="135.94" ry="42.25"/>
<text text-anchor="middle" x="427" y="-361.25" font-family="Times,serif" font-size="14.00">What the... I don&#39;t think</text>
<text text-anchor="middle" x="427" y="-344" font-family="Times,serif" font-size="14.00">I know you. Who the hell</text>
<text text-anchor="middle" x="427" y="-326.75" font-family="Times,serif" font-size="14.00">are you?</text>
</g>
<!-- talk_p_proc&#45;&gt;Node001 -->
<g id="edge2" class="edge">
<title>talk_p_proc&#45;&gt;Node001</title>
<path fill="none" stroke="#555555" stroke-dasharray="1,5" d="M408.01,-512.85C410.96,-487.56 416.56,-439.43 420.92,-401.96"/>
<polygon fill="#555555" stroke="#555555" points="424.49,-402.55 422.17,-392.21 417.53,-401.74 424.49,-402.55"/>
</g>
<!-- Node002 -->
<g id="node9" class="node">
<title>Node002</title>
<ellipse fill="#ffffff" stroke="#000000" cx="143" cy="-91.04" rx="131.17" ry="30.05"/>
<text text-anchor="middle" x="143" y="-94.99" font-family="Times,serif" font-size="14.00">All right, wise&#45;ass. Take</text>
<text text-anchor="middle" x="143" y="-77.74" font-family="Times,serif" font-size="14.00">your best shot.</text>
</g>
<!-- talk_p_proc&#45;&gt;Node002 -->
<g id="edge3" class="edge">
<title>talk_p_proc&#45;&gt;Node002</title>
<path fill="none" stroke="#555555" stroke-dasharray="1,5" d="M400.1,-513.31C394.22,-498.7 383.92,-477.86 369,-464.51 337.68,-436.5 311.57,-457.36 282,-427.51 198.19,-342.92 162.38,-200.51 149.37,-131.67"/>
<polygon fill="#555555" stroke="#555555" points="152.71,-131.48 147.47,-122.27 145.82,-132.74 152.71,-131.48"/>
</g>
<!-- Node001&#45;&gt;Node002 -->
<g id="edge5" class="edge">
<title>Node001&#45;&gt;Node002</title>
<path fill="none" stroke="#006799" d="M352.54,-313.03C322.33,-296.92 288.27,-275.96 261.25,-251.83 221.37,-216.21 186.45,-165.18 165.09,-130.44"/>
<polygon fill="#006799" stroke="#006799" points="167.61,-128.84 159.43,-122.1 161.62,-132.46 167.61,-128.84"/>
<text text-anchor="middle" x="343.38" y="-229.9" font-family="Times,serif" font-size="14.00" fill="#006799">I got my ID right here!</text>
<text text-anchor="middle" x="343.38" y="-212.65" font-family="Times,serif" font-size="14.00" fill="#006799">Let me show ya.</text>
</g>
<!-- Node998 -->
<g id="node19" class="node">
<title>Node998</title>
<ellipse fill="#ffffff" stroke="#000000" cx="707" cy="-91.04" rx="27" ry="18"/>
</g>
<!-- Node001&#45;&gt;Node998 -->
<g id="edge7" class="edge">
<title>Node001&#45;&gt;Node998</title>
<path fill="none" stroke="#720099" d="M515.89,-316.53C548.77,-301.32 584.07,-280.07 609,-251.83 625.27,-233.4 616.84,-221.72 628.5,-200.08 645.25,-169.01 669.84,-136.68 687.02,-115.58"/>
<polygon fill="#720099" stroke="#720099" points="690.22,-118.2 693.89,-108.26 684.82,-113.75 690.22,-118.2"/>
<text text-anchor="middle" x="727.25" y="-238.53" font-family="Times,serif" font-size="14.00" fill="#720099">Man, Darion doesn&#39;t pay</text>
<text text-anchor="middle" x="727.25" y="-221.28" font-family="Times,serif" font-size="14.00" fill="#720099">me enough to stand around</text>
<text text-anchor="middle" x="727.25" y="-204.03" font-family="Times,serif" font-size="14.00" fill="#720099">here and do nothing.</text>
</g>
<!-- Node003 -->
<g id="node21" class="node">
<title>Node003</title>
<ellipse fill="#ffffff" stroke="#000000" cx="428" cy="-91.04" rx="135.41" ry="91.04"/>
<text text-anchor="middle" x="428" y="-138.11" font-family="Times,serif" font-size="14.00">Oh yeah. Sorry. Didn&#39;t</text>
<text text-anchor="middle" x="428" y="-120.86" font-family="Times,serif" font-size="14.00">recognize you at first.</text>
<text text-anchor="middle" x="428" y="-103.61" font-family="Times,serif" font-size="14.00">Go on about your</text>
<text text-anchor="middle" x="428" y="-86.36" font-family="Times,serif" font-size="14.00">business.</text>
<text text-anchor="middle" x="428" y="-69.11" font-family="Times,serif" font-size="14.00">&#45;&#45;&#45;</text>
<text text-anchor="middle" x="428" y="-51.86" font-family="Times,serif" font-size="14.00">Hey, I&#39;m not as stupid as</text>
<text text-anchor="middle" x="428" y="-34.61" font-family="Times,serif" font-size="14.00">you look.</text>
</g>
<!-- Node001&#45;&gt;Node003 -->
<g id="edge6" class="edge">
<title>Node001&#45;&gt;Node003</title>
<path fill="none" stroke="#939900" d="M427.16,-306.03C427.28,-275.51 427.45,-232.72 427.6,-193.42"/>
<polygon fill="#939900" stroke="#939900" points="431.11,-193.46 427.65,-183.44 424.11,-193.43 431.11,-193.46"/>
<text text-anchor="middle" x="518.38" y="-229.9" font-family="Times,serif" font-size="14.00" fill="#939900">The name&#39;s... umm... Pat,</text>
<text text-anchor="middle" x="518.38" y="-212.65" font-family="Times,serif" font-size="14.00" fill="#939900">and I&#39;m new here.</text>
</g>
<!-- destroy_p_proc -->
<g id="node10" class="node">
<title>destroy_p_proc</title>
<ellipse fill="#ffffff" stroke="#000000" cx="478" cy="-531.16" rx="27" ry="18"/>
</g>
<!-- look_at_p_proc -->
<g id="node11" class="node">
<title>look_at_p_proc</title>
<ellipse fill="#ffffff" stroke="#000000" cx="647" cy="-531.16" rx="123.74" ry="42.25"/>
<text text-anchor="middle" x="647" y="-543.73" font-family="Times,serif" font-size="14.00">You see a Khan raider.</text>
<text text-anchor="middle" x="647" y="-526.48" font-family="Times,serif" font-size="14.00">&#45;&#45;&#45;</text>
<text text-anchor="middle" x="647" y="-509.23" font-family="Times,serif" font-size="14.00">You see a Khan raider.</text>
</g>
<!-- description_p_proc -->
<g id="node12" class="node">
<title>description_p_proc</title>
<ellipse fill="#ffffff" stroke="#000000" cx="919" cy="-531.16" rx="130.64" ry="66.64"/>
<text text-anchor="middle" x="919" y="-560.98" font-family="Times,serif" font-size="14.00">You see a tough looking</text>
<text text-anchor="middle" x="919" y="-543.73" font-family="Times,serif" font-size="14.00">person with armor,</text>
<text text-anchor="middle" x="919" y="-526.48" font-family="Times,serif" font-size="14.00">weapons, and a bad</text>
<text text-anchor="middle" x="919" y="-509.23" font-family="Times,serif" font-size="14.00">attitude. It must be a</text>
<text text-anchor="middle" x="919" y="-491.98" font-family="Times,serif" font-size="14.00">Khan.</text>
</g>
<!-- use_skill_on_p_proc -->
<g id="node13" class="node">
<title>use_skill_on_p_proc</title>
<ellipse fill="#ffffff" stroke="#000000" cx="1095" cy="-531.16" rx="27" ry="18"/>
</g>
<!-- damage_p_proc -->
<g id="node14" class="node">
<title>damage_p_proc</title>
<ellipse fill="#ffffff" stroke="#000000" cx="1167" cy="-531.16" rx="27" ry="18"/>
</g>
<!-- map_enter_p_proc -->
<g id="node15" class="node">
<title>map_enter_p_proc</title>
<ellipse fill="#ffffff" stroke="#000000" cx="1239" cy="-531.16" rx="27" ry="18"/>
</g>
<!-- timed_event_p_proc -->
<g id="node16" class="node">
<title>timed_event_p_proc</title>
<ellipse fill="#ffffff" stroke="#000000" cx="1311" cy="-531.16" rx="27" ry="18"/>
</g>
<!-- NodeIdleTalk -->
<g id="node17" class="node">
<title>NodeIdleTalk</title>
<ellipse fill="#ffffff" stroke="#000000" cx="1311" cy="-348.67" rx="150.26" ry="78.84"/>
<text text-anchor="middle" x="1311" y="-387.12" font-family="Times,serif" font-size="14.00">Hey, look &#45;&#45; the lights</text>
<text text-anchor="middle" x="1311" y="-369.87" font-family="Times,serif" font-size="14.00">came on. What the...</text>
<text text-anchor="middle" x="1311" y="-352.62" font-family="Times,serif" font-size="14.00">&#45;&#45;&#45;</text>
<text text-anchor="middle" x="1311" y="-335.37" font-family="Times,serif" font-size="14.00">Man, Darion doesn&#39;t pay</text>
<text text-anchor="middle" x="1311" y="-318.12" font-family="Times,serif" font-size="14.00">me enough to stand around</text>
<text text-anchor="middle" x="1311" y="-300.87" font-family="Times,serif" font-size="14.00">here and do nothing.</text>
</g>
<!-- timed_event_p_proc&#45;&gt;NodeIdleTalk -->
<g id="edge4" class="edge">
<title>timed_event_p_proc&#45;&gt;NodeIdleTalk</title>
<path fill="none" stroke="#555555" stroke-dasharray="1,5" d="M1311,-512.85C1311,-495.33 1311,-466.84 1311,-438.54"/>
<polygon fill="#555555" stroke="#555555" points="1314.5,-438.72 1311,-428.72 1307.5,-438.72 1314.5,-438.72"/>
</g>
<!-- combat_p_proc -->
<g id="node18" class="node">
<title>combat_p_proc</title>
<ellipse fill="#ffffff" stroke="#000000" cx="1383" cy="-531.16" rx="27" ry="18"/>
</g>
<!-- Node999 -->
<g id="node20" class="node">
<title>Node999</title>
<ellipse fill="#ffffff" stroke="#000000" cx="1455" cy="-531.16" rx="27" ry="18"/>
</g>
<!-- Node004 -->
<g id="node22" class="node">
<title>Node004</title>
<ellipse fill="#ffffff" stroke="#000000" cx="843" cy="-348.67" rx="114.2" ry="30.05"/>
<text text-anchor="middle" x="843" y="-352.62" font-family="Times,serif" font-size="14.00">You&#39;re not dead yet?</text>
<text text-anchor="middle" x="843" y="-335.37" font-family="Times,serif" font-size="14.00">Shit.</text>
</g>
<!-- Node004&#45;&gt;Node998 -->
<g id="edge8" class="edge">
<title>Node004&#45;&gt;Node998</title>
<path fill="none" stroke="#555555" stroke-dasharray="1,5" d="M846.33,-318.2C848.49,-287.09 848.01,-237.48 829,-200.08 808.38,-159.52 765.52,-127.28 736.5,-108.92"/>
<polygon fill="#555555" stroke="#555555" points="738.6,-105.48 728.24,-103.23 734.93,-111.45 738.6,-105.48"/>
</g>
<!-- canISee -->
<g id="node23" class="node">
<title>canISee</title>
<ellipse fill="#ffffff" stroke="#000000" cx="1527" cy="-531.16" rx="27" ry="18"/>
</g>
</g>
</svg>
