<?xml version="1.0" encoding="UTF-8" standalone="no"?>
<!DOCTYPE svg PUBLIC "-//W3C//DTD SVG 1.1//EN"
 "http://www.w3.org/Graphics/SVG/1.1/DTD/svg11.dtd">
<!-- Generated by graphviz version 8.0.5 (0)
 -->
<!-- Title: bscomp1 Pages: 1 -->
<svg width="1420pt" height="384pt"
 viewBox="0.00 0.00 1420.18 383.76" xmlns="http://www.w3.org/2000/svg" xmlns:xlink="http://www.w3.org/1999/xlink">
<g id="graph0" class="graph" transform="scale(1 1) rotate(0) translate(4 379.76)">
<title>bscomp1</title>
<polygon fill="white" stroke="none" points="-4,4 -4,-379.76 1416.18,-379.76 1416.18,4 -4,4"/>
<!-- checkPartyMembersNearDoor -->
<g id="node1" class="node">
<title>checkPartyMembersNearDoor</title>
<ellipse fill="#ffffff" stroke="#000000" cx="27" cy="-321.32" rx="27" ry="18"/>
</g>
<!-- getTimeBit -->
<g id="node2" class="node">
<title>getTimeBit</title>
<ellipse fill="#ffffff" stroke="#000000" cx="99" cy="-321.32" rx="27" ry="18"/>
</g>
<!-- start -->
<g id="node3" class="node">
<title>start</title>
<ellipse fill="#ffffff" stroke="#000000" cx="171" cy="-321.32" rx="27" ry="18"/>
</g>
<!-- use_p_proc -->
<g id="node4" class="node">
<title>use_p_proc</title>
<ellipse fill="#ffffff" stroke="#000000" cx="243" cy="-115.44" rx="27" ry="18"/>
</g>
<!-- look_at_p_proc -->
<g id="node5" class="node">
<title>look_at_p_proc</title>
<ellipse fill="#ffffff" stroke="#000000" cx="397" cy="-321.32" rx="108.89" ry="30.05"/>
<text text-anchor="middle" x="397" y="-325.27" font-family="Times,serif" font-size="14.00">You see the library</text>
<text text-anchor="middle" x="397" y="-308.02" font-family="Times,serif" font-size="14.00">computer terminal.</text>
</g>
<!-- description_p_proc -->
<g id="node6" class="node">
<title>description_p_proc</title>
<ellipse fill="#ffffff" stroke="#000000" cx="658" cy="-321.32" rx="133.82" ry="54.45"/>
<text text-anchor="middle" x="658" y="-342.52" font-family="Times,serif" font-size="14.00">You see a standard</text>
<text text-anchor="middle" x="658" y="-325.27" font-family="Times,serif" font-size="14.00">computer terminal. It</text>
<text text-anchor="middle" x="658" y="-308.02" font-family="Times,serif" font-size="14.00">appears to be functional</text>
<text text-anchor="middle" x="658" y="-290.77" font-family="Times,serif" font-size="14.00">and ready for input.</text>
</g>
<!-- use_skill_on_p_proc -->
<g id="node7" class="node">
<title>use_skill_on_p_proc</title>
<ellipse fill="#ffffff" stroke="#000000" cx="243" cy="-321.32" rx="27" ry="18"/>
</g>
<!-- use_skill_on_p_proc&#45;&gt;use_p_proc -->
<g id="edge1" class="edge">
<title>use_skill_on_p_proc&#45;&gt;use_p_proc</title>
<path fill="none" stroke="#555555" stroke-dasharray="1,5" d="M243,-302.93C243,-267.65 243,-187.35 243,-144.54"/>
<polygon fill="#555555" stroke="#555555" points="246.5,-144.77 243,-134.77 239.5,-144.77 246.5,-144.77"/>
</g>
<!-- use_obj_on_p_proc -->
<g id="node8" class="node">
<title>use_obj_on_p_proc</title>
<ellipse fill="#ffffff" stroke="#000000" cx="837" cy="-321.32" rx="27" ry="18"/>
</g>
<!-- damage_p_proc -->
<g id="node9" class="node">
<title>damage_p_proc</title>
<ellipse fill="#ffffff" stroke="#000000" cx="909" cy="-321.32" rx="27" ry="18"/>
</g>
<!-- map_enter_p_proc -->
<g id="node10" class="node">
<title>map_enter_p_proc</title>
<ellipse fill="#ffffff" stroke="#000000" cx="981" cy="-321.32" rx="27" ry="18"/>
</g>
<!-- map_update_p_proc -->
<g id="node11" class="node">
<title>map_update_p_proc</title>
<ellipse fill="#ffffff" stroke="#000000" cx="1053" cy="-321.32" rx="27" ry="18"/>
</g>
<!-- talk_p_proc -->
<g id="node12" class="node">
<title>talk_p_proc</title>
<ellipse fill="#ffffff" stroke="#000000" cx="1125" cy="-321.32" rx="27" ry="18"/>
</g>
<!-- Node001 -->
<g id="node13" class="node">
<title>Node001</title>
<ellipse fill="#ffffff" stroke="#000000" cx="977" cy="-115.44" rx="136.47" ry="115.44"/>
<text text-anchor="middle" x="977" y="-179.76" font-family="Times,serif" font-size="14.00">You access the computer</text>
<text text-anchor="middle" x="977" y="-162.51" font-family="Times,serif" font-size="14.00">and quickly scan all</text>
<text text-anchor="middle" x="977" y="-145.26" font-family="Times,serif" font-size="14.00">available files. You find</text>
<text text-anchor="middle" x="977" y="-128.01" font-family="Times,serif" font-size="14.00">the location of Vault 13</text>
<text text-anchor="middle" x="977" y="-110.76" font-family="Times,serif" font-size="14.00">and copy it to your</text>
<text text-anchor="middle" x="977" y="-93.51" font-family="Times,serif" font-size="14.00">PIP&#45;Boy.</text>
<text text-anchor="middle" x="977" y="-76.26" font-family="Times,serif" font-size="14.00">&#45;&#45;&#45;</text>
<text text-anchor="middle" x="977" y="-59.01" font-family="Times,serif" font-size="14.00">You are having difficulty</text>
<text text-anchor="middle" x="977" y="-41.76" font-family="Times,serif" font-size="14.00">accessing the files.</text>
</g>
<!-- talk_p_proc&#45;&gt;Node001 -->
<g id="edge2" class="edge">
<title>talk_p_proc&#45;&gt;Node001</title>
<path fill="none" stroke="#555555" stroke-dasharray="1,5" d="M1114.48,-304.28C1107.41,-293.59 1097.8,-279.29 1089,-266.87 1078.62,-252.21 1067.5,-236.88 1056.46,-221.86"/>
<polygon fill="#555555" stroke="#555555" points="1058.73,-220.03 1049.98,-214.05 1053.09,-224.18 1058.73,-220.03"/>
</g>
<!-- Node002 -->
<g id="node14" class="node">
<title>Node002</title>
<ellipse fill="#ffffff" stroke="#000000" cx="1272" cy="-115.44" rx="140.18" ry="54.45"/>
<text text-anchor="middle" x="1272" y="-136.64" font-family="Times,serif" font-size="14.00">Other than the location</text>
<text text-anchor="middle" x="1272" y="-119.39" font-family="Times,serif" font-size="14.00">of Vault 13, the computer</text>
<text text-anchor="middle" x="1272" y="-102.14" font-family="Times,serif" font-size="14.00">contains no useful</text>
<text text-anchor="middle" x="1272" y="-84.89" font-family="Times,serif" font-size="14.00">information.</text>
</g>
<!-- talk_p_proc&#45;&gt;Node002 -->
<g id="edge3" class="edge">
<title>talk_p_proc&#45;&gt;Node002</title>
<path fill="none" stroke="#555555" stroke-dasharray="1,5" d="M1135.53,-304.29C1142.62,-293.61 1152.23,-279.3 1161,-266.87 1182.18,-236.83 1206.35,-203.93 1226.71,-176.58"/>
<polygon fill="#555555" stroke="#555555" points="1230,-179.01 1233.18,-168.9 1224.39,-174.83 1230,-179.01"/>
</g>
<!-- Node999 -->
<g id="node15" class="node">
<title>Node999</title>
<ellipse fill="#ffffff" stroke="#000000" cx="1197" cy="-321.32" rx="27" ry="18"/>
</g>
<!-- timed_event_p_proc -->
<g id="node16" class="node">
<title>timed_event_p_proc</title>
<ellipse fill="#ffffff" stroke="#000000" cx="1269" cy="-321.32" rx="27" ry="18"/>
</g>
</g>
</svg>
