<?xml version="1.0" encoding="UTF-8" standalone="no"?>
<!DOCTYPE svg PUBLIC "-//W3C//DTD SVG 1.1//EN"
 "http://www.w3.org/Graphics/SVG/1.1/DTD/svg11.dtd">
<!-- Generated by graphviz version 8.0.5 (0)
 -->
<!-- Title: CCMANDR Pages: 1 -->
<svg width="2134pt" height="824pt"
 viewBox="0.00 0.00 2134.39 824.18" xmlns="http://www.w3.org/2000/svg" xmlns:xlink="http://www.w3.org/1999/xlink">
<g id="graph0" class="graph" transform="scale(1 1) rotate(0) translate(4 820.18)">
<title>CCMANDR</title>
<polygon fill="white" stroke="none" points="-4,4 -4,-820.18 2130.39,-820.18 2130.39,4 -4,4"/>
<!-- checkPartyMembersNearDoor -->
<g id="node1" class="node">
<title>checkPartyMembersNearDoor</title>
<ellipse fill="#ffffff" stroke="#000000" cx="377.39" cy="-737.33" rx="27" ry="18"/>
</g>
<!-- start -->
<g id="node2" class="node">
<title>start</title>
<ellipse fill="#ffffff" stroke="#000000" cx="449.39" cy="-737.33" rx="27" ry="18"/>
</g>
<!-- critter_p_proc -->
<g id="node3" class="node">
<title>critter_p_proc</title>
<ellipse fill="#ffffff" stroke="#000000" cx="521.39" cy="-737.33" rx="27" ry="18"/>
</g>
<!-- pickup_p_proc -->
<g id="node4" class="node">
<title>pickup_p_proc</title>
<ellipse fill="#ffffff" stroke="#000000" cx="637.39" cy="-737.33" rx="70.67" ry="18"/>
<text text-anchor="middle" x="637.39" y="-732.66" font-family="Times,serif" font-size="14.00">Time to die.</text>
</g>
<!-- talk_p_proc -->
<g id="node5" class="node">
<title>talk_p_proc</title>
<ellipse fill="#ffffff" stroke="#000000" cx="753.39" cy="-737.33" rx="27" ry="18"/>
</g>
<!-- Node006 -->
<g id="node6" class="node">
<title>Node006</title>
<ellipse fill="#ffffff" stroke="#000000" cx="182.39" cy="-457.27" rx="134.88" ry="54.45"/>
<text text-anchor="middle" x="182.39" y="-478.47" font-family="Times,serif" font-size="14.00">This base is on alert and</text>
<text text-anchor="middle" x="182.39" y="-461.22" font-family="Times,serif" font-size="14.00">I don’t recognize you.</text>
<text text-anchor="middle" x="182.39" y="-443.97" font-family="Times,serif" font-size="14.00">Show me your papers,</text>
<text text-anchor="middle" x="182.39" y="-426.72" font-family="Times,serif" font-size="14.00">soldier.</text>
</g>
<!-- talk_p_proc&#45;&gt;Node006 -->
<g id="edge1" class="edge">
<title>talk_p_proc&#45;&gt;Node006</title>
<path fill="none" stroke="#555555" stroke-dasharray="1,5" d="M750.58,-719.2C746.6,-700.92 737.44,-672.69 717.39,-658.49 646.15,-608.07 404.16,-661.1 326.39,-621.49 281.69,-598.72 244.62,-555.68 219.3,-519.5"/>
<polygon fill="#555555" stroke="#555555" points="221.65,-517.75 213.11,-511.47 215.88,-521.7 221.65,-517.75"/>
</g>
<!-- Node004 -->
<g id="node7" class="node">
<title>Node004</title>
<ellipse fill="#ffffff" stroke="#000000" cx="753.39" cy="-457.27" rx="126.4" ry="42.25"/>
<text text-anchor="middle" x="753.39" y="-469.84" font-family="Times,serif" font-size="14.00">Make it quick soldier, I</text>
<text text-anchor="middle" x="753.39" y="-452.59" font-family="Times,serif" font-size="14.00">don’t have all day to</text>
<text text-anchor="middle" x="753.39" y="-435.34" font-family="Times,serif" font-size="14.00">stand around.</text>
</g>
<!-- talk_p_proc&#45;&gt;Node004 -->
<g id="edge2" class="edge">
<title>talk_p_proc&#45;&gt;Node004</title>
<path fill="none" stroke="#555555" stroke-dasharray="1,5" d="M753.39,-718.94C753.39,-677.97 753.39,-574.08 753.39,-510.52"/>
<polygon fill="#555555" stroke="#555555" points="756.89,-510.91 753.39,-500.91 749.89,-510.91 756.89,-510.91"/>
</g>
<!-- Node003 -->
<g id="node8" class="node">
<title>Node003</title>
<ellipse fill="#ffffff" stroke="#000000" cx="1039.39" cy="-457.27" rx="141.77" ry="54.45"/>
<text text-anchor="middle" x="1039.39" y="-478.47" font-family="Times,serif" font-size="14.00">The Fob is in the locker</text>
<text text-anchor="middle" x="1039.39" y="-461.22" font-family="Times,serif" font-size="14.00">over there. Have the duty</text>
<text text-anchor="middle" x="1039.39" y="-443.97" font-family="Times,serif" font-size="14.00">officer contact me once</text>
<text text-anchor="middle" x="1039.39" y="-426.72" font-family="Times,serif" font-size="14.00">it’s secured. Dismissed!</text>
</g>
<!-- talk_p_proc&#45;&gt;Node003 -->
<g id="edge3" class="edge">
<title>talk_p_proc&#45;&gt;Node003</title>
<path fill="none" stroke="#555555" stroke-dasharray="1,5" d="M757.23,-719.19C761.98,-701.71 771.7,-674.89 789.39,-658.49 823.83,-626.55 849.38,-647.66 888.39,-621.49 929.76,-593.73 967.8,-552.47 995.34,-518.39"/>
<polygon fill="#555555" stroke="#555555" points="998.62,-520.89 1002.12,-510.89 993.15,-516.53 998.62,-520.89"/>
</g>
<!-- Node001 -->
<g id="node9" class="node">
<title>Node001</title>
<ellipse fill="#ffffff" stroke="#000000" cx="472.39" cy="-457.27" rx="137" ry="91.04"/>
<text text-anchor="middle" x="472.39" y="-504.34" font-family="Times,serif" font-size="14.00">Who the hell are you</text>
<text text-anchor="middle" x="472.39" y="-487.09" font-family="Times,serif" font-size="14.00">guys... Alert! Intruders</text>
<text text-anchor="middle" x="472.39" y="-469.84" font-family="Times,serif" font-size="14.00">on the base!</text>
<text text-anchor="middle" x="472.39" y="-452.59" font-family="Times,serif" font-size="14.00">&#45;&#45;&#45;</text>
<text text-anchor="middle" x="472.39" y="-435.34" font-family="Times,serif" font-size="14.00">I don’t have time to</text>
<text text-anchor="middle" x="472.39" y="-418.09" font-family="Times,serif" font-size="14.00">chitchat with the grunts.</text>
<text text-anchor="middle" x="472.39" y="-400.84" font-family="Times,serif" font-size="14.00">You’re dismissed.</text>
</g>
<!-- talk_p_proc&#45;&gt;Node001 -->
<g id="edge4" class="edge">
<title>talk_p_proc&#45;&gt;Node001</title>
<path fill="none" stroke="#555555" stroke-dasharray="1,5" d="M749.54,-719.19C744.79,-701.71 735.07,-674.89 717.39,-658.49 682.94,-626.55 657.17,-647.99 618.39,-621.49 588.94,-601.37 561.47,-574.09 538.49,-547.58"/>
<polygon fill="#555555" stroke="#555555" points="540.65,-545.73 531.5,-540.39 535.33,-550.27 540.65,-545.73"/>
</g>
<!-- Node002 -->
<g id="node10" class="node">
<title>Node002</title>
<ellipse fill="#ffffff" stroke="#000000" cx="1339.39" cy="-457.27" rx="140.18" ry="164.23"/>
<text text-anchor="middle" x="1339.39" y="-556.09" font-family="Times,serif" font-size="14.00">I told you I don’t have</text>
<text text-anchor="middle" x="1339.39" y="-538.84" font-family="Times,serif" font-size="14.00">time for you. Leave this</text>
<text text-anchor="middle" x="1339.39" y="-521.59" font-family="Times,serif" font-size="14.00">office and do not come</text>
<text text-anchor="middle" x="1339.39" y="-504.34" font-family="Times,serif" font-size="14.00">back here unless I send</text>
<text text-anchor="middle" x="1339.39" y="-487.09" font-family="Times,serif" font-size="14.00">for you. Dismissed!</text>
<text text-anchor="middle" x="1339.39" y="-469.84" font-family="Times,serif" font-size="14.00">&#45;&#45;&#45;</text>
<text text-anchor="middle" x="1339.39" y="-452.59" font-family="Times,serif" font-size="14.00">Disobeying a direct order</text>
<text text-anchor="middle" x="1339.39" y="-435.34" font-family="Times,serif" font-size="14.00">of a superior officer is</text>
<text text-anchor="middle" x="1339.39" y="-418.09" font-family="Times,serif" font-size="14.00">treason. I don’t have</text>
<text text-anchor="middle" x="1339.39" y="-400.84" font-family="Times,serif" font-size="14.00">time to court martial you</text>
<text text-anchor="middle" x="1339.39" y="-383.59" font-family="Times,serif" font-size="14.00">so I’ll handle this</text>
<text text-anchor="middle" x="1339.39" y="-366.34" font-family="Times,serif" font-size="14.00">myself. Guards! Kill this</text>
<text text-anchor="middle" x="1339.39" y="-349.09" font-family="Times,serif" font-size="14.00">idiot!</text>
</g>
<!-- talk_p_proc&#45;&gt;Node002 -->
<g id="edge5" class="edge">
<title>talk_p_proc&#45;&gt;Node002</title>
<path fill="none" stroke="#555555" stroke-dasharray="1,5" d="M756.19,-719.19C760.16,-700.9 769.32,-672.66 789.39,-658.49 862.49,-606.87 1110.26,-661.34 1190.39,-621.49 1207.63,-612.91 1223.85,-601.42 1238.77,-588.49"/>
<polygon fill="#555555" stroke="#555555" points="1240.82,-591.46 1245.92,-582.17 1236.14,-586.25 1240.82,-591.46"/>
</g>
<!-- Node998 -->
<g id="node16" class="node">
<title>Node998</title>
<ellipse fill="#ffffff" stroke="#000000" cx="567.39" cy="-18" rx="27" ry="18"/>
</g>
<!-- Node006&#45;&gt;Node998 -->
<g id="edge14" class="edge">
<title>Node006&#45;&gt;Node998</title>
<path fill="none" stroke="#059900" d="M130.81,-406.5C60.5,-332.51 -48.77,-191.3 24.39,-89.25 52.82,-49.59 80.59,-63.85 128.39,-54 274.53,-23.89 452.97,-19.35 529.54,-18.89"/>
<polygon fill="#059900" stroke="#059900" points="529.1,-22.39 539.08,-18.85 529.07,-15.39 529.1,-22.39"/>
<text text-anchor="middle" x="72.39" y="-151.22" font-family="Times,serif" font-size="14.00" fill="#059900">You blow me!</text>
</g>
<!-- Node006&#45;&gt;Node998 -->
<g id="edge16" class="edge">
<title>Node006&#45;&gt;Node998</title>
<path fill="none" stroke="#005f99" d="M169.03,-402.77C147.91,-312.51 112.99,-135.28 151.89,-89.25 200.11,-32.19 435.84,-21.46 529.2,-19.46"/>
<polygon fill="#005f99" stroke="#005f99" points="529.19,-22.94 539.12,-19.25 529.05,-15.94 529.19,-22.94"/>
<text text-anchor="middle" x="228.14" y="-159.84" font-family="Times,serif" font-size="14.00" fill="#005f99">Papers? I’ve got your</text>
<text text-anchor="middle" x="228.14" y="-142.59" font-family="Times,serif" font-size="14.00" fill="#005f99">papers right here!</text>
</g>
<!-- Node007 -->
<g id="node22" class="node">
<title>Node007</title>
<ellipse fill="#ffffff" stroke="#000000" cx="443.39" cy="-155.89" rx="131.17" ry="66.64"/>
<text text-anchor="middle" x="443.39" y="-185.72" font-family="Times,serif" font-size="14.00">Wrong answer, maggot.</text>
<text text-anchor="middle" x="443.39" y="-168.47" font-family="Times,serif" font-size="14.00">You’re to carry your</text>
<text text-anchor="middle" x="443.39" y="-151.22" font-family="Times,serif" font-size="14.00">papers with you at all</text>
<text text-anchor="middle" x="443.39" y="-133.97" font-family="Times,serif" font-size="14.00">times. You should know</text>
<text text-anchor="middle" x="443.39" y="-116.72" font-family="Times,serif" font-size="14.00">that!</text>
</g>
<!-- Node006&#45;&gt;Node007 -->
<g id="edge13" class="edge">
<title>Node006&#45;&gt;Node007</title>
<path fill="none" stroke="#270099" d="M189.71,-402.76C198.78,-354.99 218.47,-285.78 260.14,-240.54 260.97,-239.64 296.44,-223.38 335.96,-205.44"/>
<polygon fill="#270099" stroke="#270099" points="337.14,-208.29 344.8,-200.97 334.25,-201.92 337.14,-208.29"/>
<text text-anchor="middle" x="308.51" y="-253.11" font-family="Times,serif" font-size="14.00" fill="#270099">What papers?</text>
</g>
<!-- Node006&#45;&gt;Node007 -->
<g id="edge15" class="edge">
<title>Node006&#45;&gt;Node007</title>
<path fill="none" stroke="#990032" d="M220.42,-404.73C247.44,-370.38 285.99,-325.72 326.39,-293.04 339.07,-282.78 346.22,-285.92 358.39,-275.04 373.46,-261.55 387.42,-244.95 399.49,-228.5"/>
<polygon fill="#990032" stroke="#990032" points="402.65,-231.1 405.62,-220.93 396.95,-227.02 402.65,-231.1"/>
<text text-anchor="middle" x="480.76" y="-261.74" font-family="Times,serif" font-size="14.00" fill="#990032">I don’t seem to have them</text>
<text text-anchor="middle" x="480.76" y="-244.49" font-family="Times,serif" font-size="14.00" fill="#990032">with me...</text>
</g>
<!-- Node999 -->
<g id="node20" class="node">
<title>Node999</title>
<ellipse fill="#ffffff" stroke="#000000" cx="835.39" cy="-155.89" rx="27" ry="18"/>
</g>
<!-- Node004&#45;&gt;Node999 -->
<g id="edge12" class="edge">
<title>Node004&#45;&gt;Node999</title>
<path fill="none" stroke="#995400" d="M753.31,-414.83C754.45,-370.42 759.87,-298.5 781.14,-240.54 789.16,-218.67 803.74,-196.68 815.77,-180.73"/>
<polygon fill="#995400" stroke="#995400" points="819.11,-183.14 822.48,-173.09 813.58,-178.84 819.11,-183.14"/>
<text text-anchor="middle" x="807.01" y="-253.11" font-family="Times,serif" font-size="14.00" fill="#995400">Yes sir!</text>
</g>
<!-- Node003&#45;&gt;Node999 -->
<g id="edge11" class="edge">
<title>Node003&#45;&gt;Node999</title>
<path fill="none" stroke="#009980" d="M1003.85,-404.12C959.44,-338.94 885.25,-230.06 852.18,-181.54"/>
<polygon fill="#009980" stroke="#009980" points="854.66,-179.96 846.13,-173.67 848.87,-183.9 854.66,-179.96"/>
<text text-anchor="middle" x="939.01" y="-253.11" font-family="Times,serif" font-size="14.00" fill="#009980">Yes sir!</text>
</g>
<!-- Node001&#45;&gt;Node998 -->
<g id="edge7" class="edge">
<title>Node001&#45;&gt;Node998</title>
<path fill="none" stroke="#990100" d="M530.31,-374.59C548.76,-344.62 567.25,-309.55 578.39,-275.04 582.79,-261.39 590.78,-201.88 596.39,-71.25 596.72,-63.59 598.99,-61.21 596.39,-54 594.82,-49.66 592.46,-45.47 589.74,-41.6"/>
<polygon fill="#990100" stroke="#990100" points="591.97,-39.79 582.97,-34.2 586.52,-44.18 591.97,-39.79"/>
<text text-anchor="middle" x="637.76" y="-151.22" font-family="Times,serif" font-size="14.00" fill="#990100">Time to die.</text>
</g>
<!-- Node001&#45;&gt;Node999 -->
<g id="edge8" class="edge">
<title>Node001&#45;&gt;Node999</title>
<path fill="none" stroke="#002c99" d="M533.65,-375.39C557.89,-346.95 587.37,-316.31 618.39,-293.04 661.64,-260.59 678.37,-261.68 728.14,-240.54 749.2,-231.59 757.47,-235.42 776.39,-222.54 792.7,-211.43 807.53,-194.89 818.24,-181.18"/>
<polygon fill="#002c99" stroke="#002c99" points="821.43,-183.77 824.66,-173.68 815.84,-179.55 821.43,-183.77"/>
<text text-anchor="middle" x="746.51" y="-253.11" font-family="Times,serif" font-size="14.00" fill="#002c99">Okay.</text>
</g>
<!-- Node002&#45;&gt;Node998 -->
<g id="edge10" class="edge">
<title>Node002&#45;&gt;Node998</title>
<path fill="none" stroke="#990085" d="M1264.81,-317.89C1245.44,-289.92 1222.77,-262.43 1197.39,-240.54 1013.97,-82.39 710.42,-34.83 604.91,-22.68"/>
<polygon fill="#990085" stroke="#990085" points="605.5,-19.11 595.18,-21.49 604.73,-26.07 605.5,-19.11"/>
<text text-anchor="middle" x="1213.51" y="-151.22" font-family="Times,serif" font-size="14.00" fill="#990085">Screw you!</text>
</g>
<!-- Node002&#45;&gt;Node999 -->
<g id="edge9" class="edge">
<title>Node002&#45;&gt;Node999</title>
<path fill="none" stroke="#589900" d="M1243.28,-337.3C1226.78,-321.08 1208.93,-305.69 1190.39,-293.04 1085.78,-221.69 938.62,-180.83 871.41,-164.82"/>
<polygon fill="#589900" stroke="#589900" points="872.48,-161.25 861.95,-162.38 870.89,-168.06 872.48,-161.25"/>
<text text-anchor="middle" x="1174.51" y="-253.11" font-family="Times,serif" font-size="14.00" fill="#589900">Okay.</text>
</g>
<!-- destroy_p_proc -->
<g id="node11" class="node">
<title>destroy_p_proc</title>
<ellipse fill="#ffffff" stroke="#000000" cx="825.39" cy="-737.33" rx="27" ry="18"/>
</g>
<!-- look_at_p_proc -->
<g id="node12" class="node">
<title>look_at_p_proc</title>
<ellipse fill="#ffffff" stroke="#000000" cx="1014.39" cy="-737.33" rx="144.43" ry="66.64"/>
<text text-anchor="middle" x="1014.39" y="-767.16" font-family="Times,serif" font-size="14.00">You see someone in power</text>
<text text-anchor="middle" x="1014.39" y="-749.91" font-family="Times,serif" font-size="14.00">armor.</text>
<text text-anchor="middle" x="1014.39" y="-732.66" font-family="Times,serif" font-size="14.00">&#45;&#45;&#45;</text>
<text text-anchor="middle" x="1014.39" y="-715.41" font-family="Times,serif" font-size="14.00">You see the Navarro base</text>
<text text-anchor="middle" x="1014.39" y="-698.16" font-family="Times,serif" font-size="14.00">Commander.</text>
</g>
<!-- description_p_proc -->
<g id="node13" class="node">
<title>description_p_proc</title>
<ellipse fill="#ffffff" stroke="#000000" cx="1324.39" cy="-737.33" rx="147.61" ry="78.84"/>
<text text-anchor="middle" x="1324.39" y="-775.78" font-family="Times,serif" font-size="14.00">You see someone wearing</text>
<text text-anchor="middle" x="1324.39" y="-758.53" font-family="Times,serif" font-size="14.00">power armor of an unusual</text>
<text text-anchor="middle" x="1324.39" y="-741.28" font-family="Times,serif" font-size="14.00">design. There is an</text>
<text text-anchor="middle" x="1324.39" y="-724.03" font-family="Times,serif" font-size="14.00">insignia on the</text>
<text text-anchor="middle" x="1324.39" y="-706.78" font-family="Times,serif" font-size="14.00">breastplate that you are</text>
<text text-anchor="middle" x="1324.39" y="-689.53" font-family="Times,serif" font-size="14.00">unfamiliar with.</text>
</g>
<!-- use_skill_on_p_proc -->
<g id="node14" class="node">
<title>use_skill_on_p_proc</title>
<ellipse fill="#ffffff" stroke="#000000" cx="1517.39" cy="-737.33" rx="27" ry="18"/>
</g>
<!-- damage_p_proc -->
<g id="node15" class="node">
<title>damage_p_proc</title>
<ellipse fill="#ffffff" stroke="#000000" cx="740.39" cy="-155.89" rx="27" ry="18"/>
</g>
<!-- damage_p_proc&#45;&gt;Node998 -->
<g id="edge6" class="edge">
<title>damage_p_proc&#45;&gt;Node998</title>
<path fill="none" stroke="#555555" stroke-dasharray="1,5" d="M732.98,-138.09C725.97,-123.71 714.32,-103.18 699.39,-89.25 670.65,-62.44 629.73,-42.77 601.09,-31.17"/>
<polygon fill="#555555" stroke="#555555" points="602.73,-27.66 592.14,-27.26 600.17,-34.18 602.73,-27.66"/>
</g>
<!-- map_enter_p_proc -->
<g id="node17" class="node">
<title>map_enter_p_proc</title>
<ellipse fill="#ffffff" stroke="#000000" cx="1589.39" cy="-737.33" rx="27" ry="18"/>
</g>
<!-- map_update_p_proc -->
<g id="node18" class="node">
<title>map_update_p_proc</title>
<ellipse fill="#ffffff" stroke="#000000" cx="1661.39" cy="-737.33" rx="27" ry="18"/>
</g>
<!-- timed_event_p_proc -->
<g id="node19" class="node">
<title>timed_event_p_proc</title>
<ellipse fill="#ffffff" stroke="#000000" cx="1844.39" cy="-737.33" rx="137.53" ry="66.64"/>
<text text-anchor="middle" x="1844.39" y="-767.16" font-family="Times,serif" font-size="14.00">Leave my locker alone or</text>
<text text-anchor="middle" x="1844.39" y="-749.91" font-family="Times,serif" font-size="14.00">I will dish out some</text>
<text text-anchor="middle" x="1844.39" y="-732.66" font-family="Times,serif" font-size="14.00">serious pain.</text>
<text text-anchor="middle" x="1844.39" y="-715.41" font-family="Times,serif" font-size="14.00">&#45;&#45;&#45;</text>
<text text-anchor="middle" x="1844.39" y="-698.16" font-family="Times,serif" font-size="14.00">Time to die.</text>
</g>
<!-- Node005 -->
<g id="node21" class="node">
<title>Node005</title>
<ellipse fill="#ffffff" stroke="#000000" cx="2027.39" cy="-737.33" rx="27" ry="18"/>
</g>
<!-- Node007&#45;&gt;Node998 -->
<g id="edge17" class="edge">
<title>Node007&#45;&gt;Node998</title>
<path fill="none" stroke="#8b9900" d="M491.85,-93.52C503.13,-80.14 515.37,-66.32 527.39,-54 532.21,-49.06 537.63,-44.02 542.88,-39.35"/>
<polygon fill="#8b9900" stroke="#8b9900" points="544.63,-41.6 549.9,-32.41 540.05,-36.31 544.63,-41.6"/>
<text text-anchor="middle" x="561.89" y="-57.95" font-family="Times,serif" font-size="14.00" fill="#8b9900">Fuck you.</text>
</g>
<!-- Node008 -->
<g id="node23" class="node">
<title>Node008</title>
<ellipse fill="#ffffff" stroke="#000000" cx="2099.39" cy="-737.33" rx="27" ry="18"/>
</g>
</g>
</svg>
