<?xml version="1.0" encoding="UTF-8" standalone="no"?>
<!DOCTYPE svg PUBLIC "-//W3C//DTD SVG 1.1//EN"
 "http://www.w3.org/Graphics/SVG/1.1/DTD/svg11.dtd">
<!-- Generated by graphviz version 8.0.5 (0)
 -->
<!-- Title: cowbomb Pages: 1 -->
<svg width="644pt" height="238pt"
 viewBox="0.00 0.00 644.00 237.68" xmlns="http://www.w3.org/2000/svg" xmlns:xlink="http://www.w3.org/1999/xlink">
<g id="graph0" class="graph" transform="scale(1 1) rotate(0) translate(4 233.68)">
<title>cowbomb</title>
<polygon fill="white" stroke="none" points="-4,4 -4,-233.68 640,-233.68 640,4 -4,4"/>
<!-- start -->
<g id="node1" class="node">
<title>start</title>
<ellipse fill="#ffffff" stroke="#000000" cx="27" cy="-150.84" rx="27" ry="18"/>
</g>
<!-- map_enter_p_proc -->
<g id="node2" class="node">
<title>map_enter_p_proc</title>
<ellipse fill="#ffffff" stroke="#000000" cx="210" cy="-150.84" rx="137.53" ry="78.84"/>
<text text-anchor="middle" x="210" y="-189.29" font-family="Times,serif" font-size="14.00">You have a funny feeling</text>
<text text-anchor="middle" x="210" y="-172.04" font-family="Times,serif" font-size="14.00">about this place. &#160;The</text>
<text text-anchor="middle" x="210" y="-154.79" font-family="Times,serif" font-size="14.00">enchanting smell of cow</text>
<text text-anchor="middle" x="210" y="-137.54" font-family="Times,serif" font-size="14.00">dung and rotting flesh</text>
<text text-anchor="middle" x="210" y="-120.29" font-family="Times,serif" font-size="14.00">eminates a few feet from</text>
<text text-anchor="middle" x="210" y="-103.04" font-family="Times,serif" font-size="14.00">here.</text>
</g>
<!-- loadParts(40, 20301) -->
<g id="node3" class="node">
<title>loadParts(40, 20301)</title>
<ellipse fill="none" stroke="black" cx="210" cy="-18" rx="116.45" ry="18"/>
<text text-anchor="middle" x="210" y="-13.32" font-family="Times,serif" font-size="14.00">loadParts(40, 20301)</text>
</g>
<!-- map_enter_p_proc&#45;&gt;loadParts(40, 20301) -->
<g id="edge1" class="edge">
<title>map_enter_p_proc&#45;&gt;loadParts(40, 20301)</title>
<path fill="none" stroke="#555555" stroke-dasharray="1,5" d="M210,-71.84C210,-63.08 210,-54.63 210,-47.15"/>
<polygon fill="#555555" stroke="#555555" points="213.5,-47.3 210,-37.3 206.5,-47.3 213.5,-47.3"/>
</g>
<!-- map_update_p_proc -->
<g id="node4" class="node">
<title>map_update_p_proc</title>
<ellipse fill="#ffffff" stroke="#000000" cx="393" cy="-150.84" rx="27" ry="18"/>
</g>
<!-- LoadCritters -->
<g id="node5" class="node">
<title>LoadCritters</title>
<ellipse fill="#ffffff" stroke="#000000" cx="393" cy="-18" rx="27" ry="18"/>
</g>
<!-- map_update_p_proc&#45;&gt;LoadCritters -->
<g id="edge2" class="edge">
<title>map_update_p_proc&#45;&gt;LoadCritters</title>
<path fill="none" stroke="#555555" stroke-dasharray="1,5" d="M393,-132.47C393,-110.77 393,-73.34 393,-47.44"/>
<polygon fill="#555555" stroke="#555555" points="396.5,-47.45 393,-37.45 389.5,-47.45 396.5,-47.45"/>
</g>
<!-- Initial_Inven -->
<g id="node6" class="node">
<title>Initial_Inven</title>
<ellipse fill="#ffffff" stroke="#000000" cx="465" cy="-150.84" rx="27" ry="18"/>
</g>
<!-- loadParts -->
<g id="node7" class="node">
<title>loadParts</title>
<ellipse fill="#ffffff" stroke="#000000" cx="537" cy="-150.84" rx="27" ry="18"/>
</g>
<!-- loadBlood -->
<g id="node8" class="node">
<title>loadBlood</title>
<ellipse fill="#ffffff" stroke="#000000" cx="609" cy="-150.84" rx="27" ry="18"/>
</g>
</g>
</svg>
