<?xml version="1.0" encoding="UTF-8" standalone="no"?>
<!DOCTYPE svg PUBLIC "-//W3C//DTD SVG 1.1//EN"
 "http://www.w3.org/Graphics/SVG/1.1/DTD/svg11.dtd">
<!-- Generated by graphviz version 8.0.5 (0)
 -->
<!-- Title: dcAtkSlv Pages: 1 -->
<svg width="1478pt" height="213pt"
 viewBox="0.00 0.00 1478.00 213.29" xmlns="http://www.w3.org/2000/svg" xmlns:xlink="http://www.w3.org/1999/xlink">
<g id="graph0" class="graph" transform="scale(1 1) rotate(0) translate(4 209.29)">
<title>dcAtkSlv</title>
<polygon fill="white" stroke="none" points="-4,4 -4,-209.29 1474,-209.29 1474,4 -4,4"/>
<!-- checkPartyMembersNearDoor -->
<g id="node1" class="node">
<title>checkPartyMembersNearDoor</title>
<ellipse fill="#ffffff" stroke="#000000" cx="27" cy="-138.64" rx="27" ry="18"/>
</g>
<!-- start -->
<g id="node2" class="node">
<title>start</title>
<ellipse fill="#ffffff" stroke="#000000" cx="99" cy="-138.64" rx="27" ry="18"/>
</g>
<!-- critter_p_proc -->
<g id="node3" class="node">
<title>critter_p_proc</title>
<ellipse fill="#ffffff" stroke="#000000" cx="171" cy="-138.64" rx="27" ry="18"/>
</g>
<!-- pickup_p_proc -->
<g id="node4" class="node">
<title>pickup_p_proc</title>
<ellipse fill="#ffffff" stroke="#000000" cx="243" cy="-138.64" rx="27" ry="18"/>
</g>
<!-- Node998 -->
<g id="node5" class="node">
<title>Node998</title>
<ellipse fill="#ffffff" stroke="#000000" cx="243" cy="-18" rx="27" ry="18"/>
</g>
<!-- pickup_p_proc&#45;&gt;Node998 -->
<g id="edge1" class="edge">
<title>pickup_p_proc&#45;&gt;Node998</title>
<path fill="none" stroke="#555555" stroke-dasharray="1,5" d="M243,-120.39C243,-101.15 243,-69.74 243,-46.97"/>
<polygon fill="#555555" stroke="#555555" points="246.5,-47.27 243,-37.27 239.5,-47.27 246.5,-47.27"/>
</g>
<!-- talk_p_proc -->
<g id="node6" class="node">
<title>talk_p_proc</title>
<ellipse fill="#ffffff" stroke="#000000" cx="315" cy="-138.64" rx="27" ry="18"/>
</g>
<!-- Node001 -->
<g id="node7" class="node">
<title>Node001</title>
<ellipse fill="#ffffff" stroke="#000000" cx="315" cy="-18" rx="27" ry="18"/>
</g>
<!-- talk_p_proc&#45;&gt;Node001 -->
<g id="edge2" class="edge">
<title>talk_p_proc&#45;&gt;Node001</title>
<path fill="none" stroke="#555555" stroke-dasharray="1,5" d="M315,-120.39C315,-101.15 315,-69.74 315,-46.97"/>
<polygon fill="#555555" stroke="#555555" points="318.5,-47.27 315,-37.27 311.5,-47.27 318.5,-47.27"/>
</g>
<!-- destroy_p_proc -->
<g id="node8" class="node">
<title>destroy_p_proc</title>
<ellipse fill="#ffffff" stroke="#000000" cx="387" cy="-138.64" rx="27" ry="18"/>
</g>
<!-- look_at_p_proc -->
<g id="node9" class="node">
<title>look_at_p_proc</title>
<ellipse fill="#ffffff" stroke="#000000" cx="561" cy="-138.64" rx="129.05" ry="66.64"/>
<text text-anchor="middle" x="561" y="-168.47" font-family="Times,serif" font-size="14.00">This man looks fairly</text>
<text text-anchor="middle" x="561" y="-151.22" font-family="Times,serif" font-size="14.00">strong and alert.</text>
<text text-anchor="middle" x="561" y="-133.97" font-family="Times,serif" font-size="14.00">&#45;&#45;&#45;</text>
<text text-anchor="middle" x="561" y="-116.72" font-family="Times,serif" font-size="14.00">He seems to be awfully</text>
<text text-anchor="middle" x="561" y="-99.47" font-family="Times,serif" font-size="14.00">thin but angry.</text>
</g>
<!-- description_p_proc -->
<g id="node10" class="node">
<title>description_p_proc</title>
<ellipse fill="#ffffff" stroke="#000000" cx="837" cy="-138.64" rx="129.05" ry="66.64"/>
<text text-anchor="middle" x="837" y="-168.47" font-family="Times,serif" font-size="14.00">This man looks fairly</text>
<text text-anchor="middle" x="837" y="-151.22" font-family="Times,serif" font-size="14.00">strong and alert.</text>
<text text-anchor="middle" x="837" y="-133.97" font-family="Times,serif" font-size="14.00">&#45;&#45;&#45;</text>
<text text-anchor="middle" x="837" y="-116.72" font-family="Times,serif" font-size="14.00">He seems to be awfully</text>
<text text-anchor="middle" x="837" y="-99.47" font-family="Times,serif" font-size="14.00">thin but angry.</text>
</g>
<!-- use_skill_on_p_proc -->
<g id="node11" class="node">
<title>use_skill_on_p_proc</title>
<ellipse fill="#ffffff" stroke="#000000" cx="1011" cy="-138.64" rx="27" ry="18"/>
</g>
<!-- damage_p_proc -->
<g id="node12" class="node">
<title>damage_p_proc</title>
<ellipse fill="#ffffff" stroke="#000000" cx="1083" cy="-138.64" rx="27" ry="18"/>
</g>
<!-- map_enter_p_proc -->
<g id="node13" class="node">
<title>map_enter_p_proc</title>
<ellipse fill="#ffffff" stroke="#000000" cx="1155" cy="-138.64" rx="27" ry="18"/>
</g>
<!-- map_exit_p_proc -->
<g id="node14" class="node">
<title>map_exit_p_proc</title>
<ellipse fill="#ffffff" stroke="#000000" cx="1227" cy="-138.64" rx="27" ry="18"/>
</g>
<!-- timed_event_p_proc -->
<g id="node15" class="node">
<title>timed_event_p_proc</title>
<ellipse fill="#ffffff" stroke="#000000" cx="1299" cy="-138.64" rx="27" ry="18"/>
</g>
<!-- Node999 -->
<g id="node16" class="node">
<title>Node999</title>
<ellipse fill="#ffffff" stroke="#000000" cx="1371" cy="-138.64" rx="27" ry="18"/>
</g>
<!-- map_update_p_proc -->
<g id="node17" class="node">
<title>map_update_p_proc</title>
<ellipse fill="#ffffff" stroke="#000000" cx="1443" cy="-138.64" rx="27" ry="18"/>
</g>
</g>
</svg>
