<?xml version="1.0" encoding="UTF-8" standalone="no"?>
<!DOCTYPE svg PUBLIC "-//W3C//DTD SVG 1.1//EN"
 "http://www.w3.org/Graphics/SVG/1.1/DTD/svg11.dtd">
<!-- Generated by graphviz version 8.0.5 (0)
 -->
<!-- Title: dcMetRom Pages: 1 -->
<svg width="1380pt" height="140pt"
 viewBox="0.00 0.00 1380.00 140.10" xmlns="http://www.w3.org/2000/svg" xmlns:xlink="http://www.w3.org/1999/xlink">
<g id="graph0" class="graph" transform="scale(1 1) rotate(0) translate(4 136.1)">
<title>dcMetRom</title>
<polygon fill="white" stroke="none" points="-4,4 -4,-136.1 1376,-136.1 1376,4 -4,4"/>
<!-- checkPartyMembersNearDoor -->
<g id="node1" class="node">
<title>checkPartyMembersNearDoor</title>
<ellipse fill="#ffffff" stroke="#000000" cx="27" cy="-102.05" rx="27" ry="18"/>
</g>
<!-- start -->
<g id="node2" class="node">
<title>start</title>
<ellipse fill="#ffffff" stroke="#000000" cx="99" cy="-102.05" rx="27" ry="18"/>
</g>
<!-- critter_p_proc -->
<g id="node3" class="node">
<title>critter_p_proc</title>
<ellipse fill="#ffffff" stroke="#000000" cx="171" cy="-102.05" rx="27" ry="18"/>
</g>
<!-- pickup_p_proc -->
<g id="node4" class="node">
<title>pickup_p_proc</title>
<ellipse fill="#ffffff" stroke="#000000" cx="315" cy="-102.05" rx="27" ry="18"/>
</g>
<!-- Node998 -->
<g id="node5" class="node">
<title>Node998</title>
<ellipse fill="#ffffff" stroke="#000000" cx="315" cy="-18" rx="27" ry="18"/>
</g>
<!-- pickup_p_proc&#45;&gt;Node998 -->
<g id="edge1" class="edge">
<title>pickup_p_proc&#45;&gt;Node998</title>
<path fill="none" stroke="#555555" stroke-dasharray="1,5" d="M315,-83.65C315,-73.1 315,-59.38 315,-47.3"/>
<polygon fill="#555555" stroke="#555555" points="318.5,-47.38 315,-37.38 311.5,-47.38 318.5,-47.38"/>
</g>
<!-- talk_p_proc -->
<g id="node6" class="node">
<title>talk_p_proc</title>
<ellipse fill="#ffffff" stroke="#000000" cx="243" cy="-102.05" rx="27" ry="18"/>
</g>
<!-- talk_p_proc&#45;&gt;Node998 -->
<g id="edge2" class="edge">
<title>talk_p_proc&#45;&gt;Node998</title>
<path fill="none" stroke="#555555" stroke-dasharray="1,5" d="M256.21,-86C266.96,-73.74 282.34,-56.22 294.66,-42.18"/>
<polygon fill="#555555" stroke="#555555" points="297.91,-44.78 301.88,-34.95 292.65,-40.16 297.91,-44.78"/>
</g>
<!-- Node002 -->
<g id="node7" class="node">
<title>Node002</title>
<ellipse fill="#ffffff" stroke="#000000" cx="243" cy="-18" rx="27" ry="18"/>
</g>
<!-- talk_p_proc&#45;&gt;Node002 -->
<g id="edge3" class="edge">
<title>talk_p_proc&#45;&gt;Node002</title>
<path fill="none" stroke="#555555" stroke-dasharray="1,5" d="M243,-83.65C243,-73.1 243,-59.38 243,-47.3"/>
<polygon fill="#555555" stroke="#555555" points="246.5,-47.38 243,-37.38 239.5,-47.38 246.5,-47.38"/>
</g>
<!-- destroy_p_proc -->
<g id="node8" class="node">
<title>destroy_p_proc</title>
<ellipse fill="#ffffff" stroke="#000000" cx="459" cy="-102.05" rx="27" ry="18"/>
</g>
<!-- look_at_p_proc -->
<g id="node9" class="node">
<title>look_at_p_proc</title>
<ellipse fill="#ffffff" stroke="#000000" cx="613" cy="-102.05" rx="109.42" ry="30.05"/>
<text text-anchor="middle" x="613" y="-106" font-family="Times,serif" font-size="14.00">You see a tough</text>
<text text-anchor="middle" x="613" y="-88.75" font-family="Times,serif" font-size="14.00">middle&#45;aged slaver.</text>
</g>
<!-- description_p_proc -->
<g id="node10" class="node">
<title>description_p_proc</title>
<ellipse fill="#ffffff" stroke="#000000" cx="876" cy="-102.05" rx="135.94" ry="30.05"/>
<text text-anchor="middle" x="876" y="-106" font-family="Times,serif" font-size="14.00">There&#39;s a slaver who</text>
<text text-anchor="middle" x="876" y="-88.75" font-family="Times,serif" font-size="14.00">seems to enjoy his work.</text>
</g>
<!-- use_skill_on_p_proc -->
<g id="node11" class="node">
<title>use_skill_on_p_proc</title>
<ellipse fill="#ffffff" stroke="#000000" cx="1057" cy="-102.05" rx="27" ry="18"/>
</g>
<!-- damage_p_proc -->
<g id="node12" class="node">
<title>damage_p_proc</title>
<ellipse fill="#ffffff" stroke="#000000" cx="1129" cy="-102.05" rx="27" ry="18"/>
</g>
<!-- map_enter_p_proc -->
<g id="node13" class="node">
<title>map_enter_p_proc</title>
<ellipse fill="#ffffff" stroke="#000000" cx="1201" cy="-102.05" rx="27" ry="18"/>
</g>
<!-- map_exit_p_proc -->
<g id="node14" class="node">
<title>map_exit_p_proc</title>
<ellipse fill="#ffffff" stroke="#000000" cx="1273" cy="-102.05" rx="27" ry="18"/>
</g>
<!-- timed_event_p_proc -->
<g id="node15" class="node">
<title>timed_event_p_proc</title>
<ellipse fill="#ffffff" stroke="#000000" cx="387" cy="-102.05" rx="27" ry="18"/>
</g>
<!-- timed_event_p_proc&#45;&gt;Node998 -->
<g id="edge4" class="edge">
<title>timed_event_p_proc&#45;&gt;Node998</title>
<path fill="none" stroke="#555555" stroke-dasharray="1,5" d="M373.79,-86C363.04,-73.74 347.66,-56.22 335.34,-42.18"/>
<polygon fill="#555555" stroke="#555555" points="337.35,-40.16 328.12,-34.95 332.09,-44.78 337.35,-40.16"/>
</g>
<!-- Node001 -->
<g id="node16" class="node">
<title>Node001</title>
<ellipse fill="#ffffff" stroke="#000000" cx="387" cy="-18" rx="27" ry="18"/>
</g>
<!-- timed_event_p_proc&#45;&gt;Node001 -->
<g id="edge5" class="edge">
<title>timed_event_p_proc&#45;&gt;Node001</title>
<path fill="none" stroke="#555555" stroke-dasharray="1,5" d="M387,-83.65C387,-73.1 387,-59.38 387,-47.3"/>
<polygon fill="#555555" stroke="#555555" points="390.5,-47.38 387,-37.38 383.5,-47.38 390.5,-47.38"/>
</g>
<!-- Node999 -->
<g id="node17" class="node">
<title>Node999</title>
<ellipse fill="#ffffff" stroke="#000000" cx="1345" cy="-102.05" rx="27" ry="18"/>
</g>
</g>
</svg>
