<?xml version="1.0" encoding="UTF-8" standalone="no"?>
<!DOCTYPE svg PUBLIC "-//W3C//DTD SVG 1.1//EN"
 "http://www.w3.org/Graphics/SVG/1.1/DTD/svg11.dtd">
<!-- Generated by graphviz version 8.0.5 (0)
 -->
<!-- Title: eckaga2 Pages: 1 -->
<svg width="1515pt" height="213pt"
 viewBox="0.00 0.00 1515.00 213.29" xmlns="http://www.w3.org/2000/svg" xmlns:xlink="http://www.w3.org/1999/xlink">
<g id="graph0" class="graph" transform="scale(1 1) rotate(0) translate(4 209.29)">
<title>eckaga2</title>
<polygon fill="white" stroke="none" points="-4,4 -4,-209.29 1511,-209.29 1511,4 -4,4"/>
<!-- checkPartyMembersNearDoor -->
<g id="node1" class="node">
<title>checkPartyMembersNearDoor</title>
<ellipse fill="#ffffff" stroke="#000000" cx="27" cy="-138.64" rx="27" ry="18"/>
</g>
<!-- start -->
<g id="node2" class="node">
<title>start</title>
<ellipse fill="#ffffff" stroke="#000000" cx="99" cy="-138.64" rx="27" ry="18"/>
</g>
<!-- critter_p_proc -->
<g id="node3" class="node">
<title>critter_p_proc</title>
<ellipse fill="#ffffff" stroke="#000000" cx="171" cy="-138.64" rx="27" ry="18"/>
</g>
<!-- pickup_p_proc -->
<g id="node4" class="node">
<title>pickup_p_proc</title>
<ellipse fill="#ffffff" stroke="#000000" cx="243" cy="-138.64" rx="27" ry="18"/>
</g>
<!-- talk_p_proc -->
<g id="node5" class="node">
<title>talk_p_proc</title>
<ellipse fill="#ffffff" stroke="#000000" cx="315" cy="-138.64" rx="27" ry="18"/>
</g>
<!-- destroy_p_proc -->
<g id="node6" class="node">
<title>destroy_p_proc</title>
<ellipse fill="#ffffff" stroke="#000000" cx="387" cy="-138.64" rx="27" ry="18"/>
</g>
<!-- look_at_p_proc -->
<g id="node7" class="node">
<title>look_at_p_proc</title>
<ellipse fill="#ffffff" stroke="#000000" cx="559" cy="-138.64" rx="127.46" ry="54.45"/>
<text text-anchor="middle" x="559" y="-159.84" font-family="Times,serif" font-size="14.00">You see a man wearing</text>
<text text-anchor="middle" x="559" y="-142.59" font-family="Times,serif" font-size="14.00">leather armor.</text>
<text text-anchor="middle" x="559" y="-125.34" font-family="Times,serif" font-size="14.00">&#45;&#45;&#45;</text>
<text text-anchor="middle" x="559" y="-108.09" font-family="Times,serif" font-size="14.00">You see Kaga.</text>
</g>
<!-- description_p_proc -->
<g id="node8" class="node">
<title>description_p_proc</title>
<ellipse fill="#ffffff" stroke="#000000" cx="854" cy="-138.64" rx="149.2" ry="66.64"/>
<text text-anchor="middle" x="854" y="-168.47" font-family="Times,serif" font-size="14.00">He is wearing leather</text>
<text text-anchor="middle" x="854" y="-151.22" font-family="Times,serif" font-size="14.00">armor and has an annoying</text>
<text text-anchor="middle" x="854" y="-133.97" font-family="Times,serif" font-size="14.00">habit of talking about</text>
<text text-anchor="middle" x="854" y="-116.72" font-family="Times,serif" font-size="14.00">himself in the third</text>
<text text-anchor="middle" x="854" y="-99.47" font-family="Times,serif" font-size="14.00">person.</text>
</g>
<!-- use_skill_on_p_proc -->
<g id="node9" class="node">
<title>use_skill_on_p_proc</title>
<ellipse fill="#ffffff" stroke="#000000" cx="1048" cy="-138.64" rx="27" ry="18"/>
</g>
<!-- damage_p_proc -->
<g id="node10" class="node">
<title>damage_p_proc</title>
<ellipse fill="#ffffff" stroke="#000000" cx="1120" cy="-138.64" rx="27" ry="18"/>
</g>
<!-- map_enter_p_proc -->
<g id="node11" class="node">
<title>map_enter_p_proc</title>
<ellipse fill="#ffffff" stroke="#000000" cx="1192" cy="-138.64" rx="27" ry="18"/>
</g>
<!-- combat_p_proc -->
<g id="node12" class="node">
<title>combat_p_proc</title>
<ellipse fill="#ffffff" stroke="#000000" cx="1264" cy="-138.64" rx="27" ry="18"/>
</g>
<!-- NodeFleeing -->
<g id="node13" class="node">
<title>NodeFleeing</title>
<ellipse fill="#ffffff" stroke="#000000" cx="1228" cy="-18" rx="27" ry="18"/>
</g>
<!-- combat_p_proc&#45;&gt;NodeFleeing -->
<g id="edge1" class="edge">
<title>combat_p_proc&#45;&gt;NodeFleeing</title>
<path fill="none" stroke="#555555" stroke-dasharray="1,5" d="M1258.84,-120.65C1252.96,-101.26 1243.26,-69.3 1236.31,-46.39"/>
<polygon fill="#555555" stroke="#555555" points="1239.4,-45.52 1233.15,-36.97 1232.7,-47.55 1239.4,-45.52"/>
</g>
<!-- NodeFighting -->
<g id="node14" class="node">
<title>NodeFighting</title>
<ellipse fill="#ffffff" stroke="#000000" cx="1300" cy="-18" rx="27" ry="18"/>
</g>
<!-- combat_p_proc&#45;&gt;NodeFighting -->
<g id="edge2" class="edge">
<title>combat_p_proc&#45;&gt;NodeFighting</title>
<path fill="none" stroke="#555555" stroke-dasharray="1,5" d="M1269.16,-120.65C1275.04,-101.26 1284.74,-69.3 1291.69,-46.39"/>
<polygon fill="#555555" stroke="#555555" points="1295.3,-47.55 1294.85,-36.97 1288.6,-45.52 1295.3,-47.55"/>
</g>
<!-- Node998 -->
<g id="node15" class="node">
<title>Node998</title>
<ellipse fill="#ffffff" stroke="#000000" cx="1336" cy="-138.64" rx="27" ry="18"/>
</g>
<!-- Node999 -->
<g id="node16" class="node">
<title>Node999</title>
<ellipse fill="#ffffff" stroke="#000000" cx="1408" cy="-138.64" rx="27" ry="18"/>
</g>
<!-- Node001 -->
<g id="node17" class="node">
<title>Node001</title>
<ellipse fill="#ffffff" stroke="#000000" cx="1480" cy="-138.64" rx="27" ry="18"/>
</g>
</g>
</svg>
