<?xml version="1.0" encoding="UTF-8" standalone="no"?>
<!DOCTYPE svg PUBLIC "-//W3C//DTD SVG 1.1//EN"
 "http://www.w3.org/Graphics/SVG/1.1/DTD/svg11.dtd">
<!-- Generated by graphviz version 8.0.5 (0)
 -->
<!-- Title: fcgudpea Pages: 1 -->
<svg width="2019pt" height="383pt"
 viewBox="0.00 0.00 2019.08 382.58" xmlns="http://www.w3.org/2000/svg" xmlns:xlink="http://www.w3.org/1999/xlink">
<g id="graph0" class="graph" transform="scale(1 1) rotate(0) translate(4 378.58)">
<title>fcgudpea</title>
<polygon fill="white" stroke="none" points="-4,4 -4,-378.58 2015.08,-378.58 2015.08,4 -4,4"/>
<!-- checkPartyMembersNearDoor -->
<g id="node1" class="node">
<title>checkPartyMembersNearDoor</title>
<ellipse fill="#ffffff" stroke="#000000" cx="602.08" cy="-271.34" rx="27" ry="18"/>
</g>
<!-- start -->
<g id="node2" class="node">
<title>start</title>
<ellipse fill="#ffffff" stroke="#000000" cx="674.08" cy="-271.34" rx="27" ry="18"/>
</g>
<!-- critter_p_proc -->
<g id="node3" class="node">
<title>critter_p_proc</title>
<ellipse fill="#ffffff" stroke="#000000" cx="746.08" cy="-271.34" rx="27" ry="18"/>
</g>
<!-- pickup_p_proc -->
<g id="node4" class="node">
<title>pickup_p_proc</title>
<ellipse fill="#ffffff" stroke="#000000" cx="818.08" cy="-271.34" rx="27" ry="18"/>
</g>
<!-- talk_p_proc -->
<g id="node5" class="node">
<title>talk_p_proc</title>
<ellipse fill="#ffffff" stroke="#000000" cx="890.08" cy="-114.1" rx="27" ry="18"/>
</g>
<!-- Node008 -->
<g id="node6" class="node">
<title>Node008</title>
<ellipse fill="#ffffff" stroke="#000000" cx="99.08" cy="-30.05" rx="99.08" ry="18"/>
<text text-anchor="middle" x="99.08" y="-25.38" font-family="Times,serif" font-size="14.00">Son of a pig! Die!</text>
</g>
<!-- talk_p_proc&#45;&gt;Node008 -->
<g id="edge1" class="edge">
<title>talk_p_proc&#45;&gt;Node008</title>
<path fill="none" stroke="#555555" stroke-dasharray="1,5" d="M862.85,-112.8C770.28,-111.37 459.39,-103.44 207.08,-60.1 190.92,-57.33 173.65,-53.22 157.78,-48.96"/>
<polygon fill="#555555" stroke="#555555" points="159.15,-45.43 148.58,-46.15 157.29,-52.18 159.15,-45.43"/>
</g>
<!-- Node004 -->
<g id="node7" class="node">
<title>Node004</title>
<ellipse fill="#ffffff" stroke="#000000" cx="344.08" cy="-30.05" rx="128.02" ry="18"/>
<text text-anchor="middle" x="344.08" y="-25.38" font-family="Times,serif" font-size="14.00">Long live the Emperor!</text>
</g>
<!-- talk_p_proc&#45;&gt;Node004 -->
<g id="edge2" class="edge">
<title>talk_p_proc&#45;&gt;Node004</title>
<path fill="none" stroke="#555555" stroke-dasharray="1,5" d="M863.18,-110.37C797.59,-103.55 624.36,-84.54 481.08,-60.1 461.07,-56.69 439.54,-52.41 419.61,-48.2"/>
<polygon fill="#555555" stroke="#555555" points="420.55,-44.61 410.04,-45.94 419.08,-51.45 420.55,-44.61"/>
</g>
<!-- Node003 -->
<g id="node8" class="node">
<title>Node003</title>
<ellipse fill="#ffffff" stroke="#000000" cx="619.08" cy="-30.05" rx="128.52" ry="30.05"/>
<text text-anchor="middle" x="619.08" y="-34" font-family="Times,serif" font-size="14.00">Ha ha! That bastard Lo</text>
<text text-anchor="middle" x="619.08" y="-16.75" font-family="Times,serif" font-size="14.00">Pan is dead!</text>
</g>
<!-- talk_p_proc&#45;&gt;Node003 -->
<g id="edge3" class="edge">
<title>talk_p_proc&#45;&gt;Node003</title>
<path fill="none" stroke="#555555" stroke-dasharray="1,5" d="M866.03,-105.82C830.55,-95.08 762.34,-74.43 706.58,-57.54"/>
<polygon fill="#555555" stroke="#555555" points="707.91,-53.99 697.33,-54.44 705.88,-60.69 707.91,-53.99"/>
</g>
<!-- Node002 -->
<g id="node9" class="node">
<title>Node002</title>
<ellipse fill="#ffffff" stroke="#000000" cx="890.08" cy="-30.05" rx="124.34" ry="18"/>
<text text-anchor="middle" x="890.08" y="-25.38" font-family="Times,serif" font-size="14.00">I don&#39;t think I like you.</text>
</g>
<!-- talk_p_proc&#45;&gt;Node002 -->
<g id="edge4" class="edge">
<title>talk_p_proc&#45;&gt;Node002</title>
<path fill="none" stroke="#555555" stroke-dasharray="1,5" d="M890.08,-95.7C890.08,-85.15 890.08,-71.44 890.08,-59.35"/>
<polygon fill="#555555" stroke="#555555" points="893.58,-59.43 890.08,-49.43 886.58,-59.43 893.58,-59.43"/>
</g>
<!-- Node007 -->
<g id="node10" class="node">
<title>Node007</title>
<ellipse fill="#ffffff" stroke="#000000" cx="1162.08" cy="-30.05" rx="130.11" ry="30.05"/>
<text text-anchor="middle" x="1162.08" y="-34" font-family="Times,serif" font-size="14.00">You killed AHS&#45;9? Good</text>
<text text-anchor="middle" x="1162.08" y="-16.75" font-family="Times,serif" font-size="14.00">job!</text>
</g>
<!-- talk_p_proc&#45;&gt;Node007 -->
<g id="edge5" class="edge">
<title>talk_p_proc&#45;&gt;Node007</title>
<path fill="none" stroke="#555555" stroke-dasharray="1,5" d="M914.22,-105.82C949.78,-95.1 1018.07,-74.5 1073.98,-57.63"/>
<polygon fill="#555555" stroke="#555555" points="1074.7,-60.77 1083.26,-54.53 1072.68,-54.07 1074.7,-60.77"/>
</g>
<!-- Node005 -->
<g id="node11" class="node">
<title>Node005</title>
<ellipse fill="#ffffff" stroke="#000000" cx="1448.08" cy="-30.05" rx="138.06" ry="30.05"/>
<text text-anchor="middle" x="1448.08" y="-34" font-family="Times,serif" font-size="14.00">Let us teach our children</text>
<text text-anchor="middle" x="1448.08" y="-16.75" font-family="Times,serif" font-size="14.00">to be like the Dragon.</text>
</g>
<!-- talk_p_proc&#45;&gt;Node005 -->
<g id="edge6" class="edge">
<title>talk_p_proc&#45;&gt;Node005</title>
<path fill="none" stroke="#555555" stroke-dasharray="1,5" d="M916.62,-110.3C982.11,-103.26 1156.59,-83.67 1301.08,-60.1 1313.32,-58.11 1326.09,-55.85 1338.78,-53.49"/>
<polygon fill="#555555" stroke="#555555" points="1339.23,-56.78 1348.41,-51.5 1337.93,-49.9 1339.23,-56.78"/>
</g>
<!-- Node001 -->
<g id="node12" class="node">
<title>Node001</title>
<ellipse fill="#ffffff" stroke="#000000" cx="1717.08" cy="-30.05" rx="113.14" ry="30.05"/>
<text text-anchor="middle" x="1717.08" y="-34" font-family="Times,serif" font-size="14.00">You&#39;re not a spy, are</text>
<text text-anchor="middle" x="1717.08" y="-16.75" font-family="Times,serif" font-size="14.00">you?</text>
</g>
<!-- talk_p_proc&#45;&gt;Node001 -->
<g id="edge7" class="edge">
<title>talk_p_proc&#45;&gt;Node001</title>
<path fill="none" stroke="#555555" stroke-dasharray="1,5" d="M917.48,-112.61C1012.06,-110.55 1333.42,-100.83 1595.08,-60.1 1605.49,-58.48 1616.32,-56.44 1627.04,-54.19"/>
<polygon fill="#555555" stroke="#555555" points="1627.68,-57.41 1636.71,-51.87 1626.2,-50.57 1627.68,-57.41"/>
</g>
<!-- destroy_p_proc -->
<g id="node13" class="node">
<title>destroy_p_proc</title>
<ellipse fill="#ffffff" stroke="#000000" cx="962.08" cy="-271.34" rx="27" ry="18"/>
</g>
<!-- look_at_p_proc -->
<g id="node14" class="node">
<title>look_at_p_proc</title>
<ellipse fill="#ffffff" stroke="#000000" cx="1148.08" cy="-271.34" rx="140.71" ry="30.05"/>
<text text-anchor="middle" x="1148.08" y="-275.29" font-family="Times,serif" font-size="14.00">You see a person in funny</text>
<text text-anchor="middle" x="1148.08" y="-258.04" font-family="Times,serif" font-size="14.00">pajamas.</text>
</g>
<!-- description_p_proc -->
<g id="node15" class="node">
<title>description_p_proc</title>
<ellipse fill="#ffffff" stroke="#000000" cx="1443.08" cy="-271.34" rx="136.47" ry="103.24"/>
<text text-anchor="middle" x="1443.08" y="-327.04" font-family="Times,serif" font-size="14.00">You see a Shi</text>
<text text-anchor="middle" x="1443.08" y="-309.79" font-family="Times,serif" font-size="14.00">townsperson.</text>
<text text-anchor="middle" x="1443.08" y="-292.54" font-family="Times,serif" font-size="14.00">&#45;&#45;&#45;</text>
<text text-anchor="middle" x="1443.08" y="-275.29" font-family="Times,serif" font-size="14.00">This person looks</text>
<text text-anchor="middle" x="1443.08" y="-258.04" font-family="Times,serif" font-size="14.00">different from anyone</text>
<text text-anchor="middle" x="1443.08" y="-240.79" font-family="Times,serif" font-size="14.00">you&#39;ve seen before. They</text>
<text text-anchor="middle" x="1443.08" y="-223.54" font-family="Times,serif" font-size="14.00">don&#39;t seem to care much</text>
<text text-anchor="middle" x="1443.08" y="-206.29" font-family="Times,serif" font-size="14.00">about you.</text>
</g>
<!-- use_skill_on_p_proc -->
<g id="node16" class="node">
<title>use_skill_on_p_proc</title>
<ellipse fill="#ffffff" stroke="#000000" cx="1624.08" cy="-271.34" rx="27" ry="18"/>
</g>
<!-- damage_p_proc -->
<g id="node17" class="node">
<title>damage_p_proc</title>
<ellipse fill="#ffffff" stroke="#000000" cx="1696.08" cy="-271.34" rx="27" ry="18"/>
</g>
<!-- map_enter_p_proc -->
<g id="node18" class="node">
<title>map_enter_p_proc</title>
<ellipse fill="#ffffff" stroke="#000000" cx="1768.08" cy="-271.34" rx="27" ry="18"/>
</g>
<!-- timed_event_p_proc -->
<g id="node19" class="node">
<title>timed_event_p_proc</title>
<ellipse fill="#ffffff" stroke="#000000" cx="890.08" cy="-271.34" rx="27" ry="18"/>
</g>
<!-- timed_event_p_proc&#45;&gt;talk_p_proc -->
<g id="edge8" class="edge">
<title>timed_event_p_proc&#45;&gt;talk_p_proc</title>
<path fill="none" stroke="#555555" stroke-dasharray="1,5" d="M890.08,-253.14C890.08,-226.56 890.08,-175.25 890.08,-143.23"/>
<polygon fill="#555555" stroke="#555555" points="893.58,-143.39 890.08,-133.39 886.58,-143.39 893.58,-143.39"/>
</g>
<!-- push_p_proc -->
<g id="node20" class="node">
<title>push_p_proc</title>
<ellipse fill="#ffffff" stroke="#000000" cx="1840.08" cy="-271.34" rx="27" ry="18"/>
</g>
<!-- Node998 -->
<g id="node21" class="node">
<title>Node998</title>
<ellipse fill="#ffffff" stroke="#000000" cx="1912.08" cy="-271.34" rx="27" ry="18"/>
</g>
<!-- Node999 -->
<g id="node22" class="node">
<title>Node999</title>
<ellipse fill="#ffffff" stroke="#000000" cx="1984.08" cy="-271.34" rx="27" ry="18"/>
</g>
</g>
</svg>
