<?xml version="1.0" encoding="UTF-8" standalone="no"?>
<!DOCTYPE svg PUBLIC "-//W3C//DTD SVG 1.1//EN"
 "http://www.w3.org/Graphics/SVG/1.1/DTD/svg11.dtd">
<!-- Generated by graphviz version 8.0.5 (0)
 -->
<!-- Title: fcmercha Pages: 1 -->
<svg width="1683pt" height="286pt"
 viewBox="0.00 0.00 1683.26 286.18" xmlns="http://www.w3.org/2000/svg" xmlns:xlink="http://www.w3.org/1999/xlink">
<g id="graph0" class="graph" transform="scale(1 1) rotate(0) translate(4 282.18)">
<title>fcmercha</title>
<polygon fill="white" stroke="none" points="-4,4 -4,-282.18 1679.26,-282.18 1679.26,4 -4,4"/>
<!-- checkPartyMembersNearDoor -->
<g id="node1" class="node">
<title>checkPartyMembersNearDoor</title>
<ellipse fill="#ffffff" stroke="#000000" cx="326.26" cy="-199.34" rx="27" ry="18"/>
</g>
<!-- start -->
<g id="node2" class="node">
<title>start</title>
<ellipse fill="#ffffff" stroke="#000000" cx="398.26" cy="-199.34" rx="27" ry="18"/>
</g>
<!-- critter_p_proc -->
<g id="node3" class="node">
<title>critter_p_proc</title>
<ellipse fill="#ffffff" stroke="#000000" cx="470.26" cy="-199.34" rx="27" ry="18"/>
</g>
<!-- pickup_p_proc -->
<g id="node4" class="node">
<title>pickup_p_proc</title>
<ellipse fill="#ffffff" stroke="#000000" cx="542.26" cy="-199.34" rx="27" ry="18"/>
</g>
<!-- talk_p_proc -->
<g id="node5" class="node">
<title>talk_p_proc</title>
<ellipse fill="#ffffff" stroke="#000000" cx="614.26" cy="-199.34" rx="27" ry="18"/>
</g>
<!-- Node002 -->
<g id="node6" class="node">
<title>Node002</title>
<ellipse fill="#ffffff" stroke="#000000" cx="150.26" cy="-42.25" rx="150.26" ry="30.05"/>
<text text-anchor="middle" x="150.26" y="-46.2" font-family="Times,serif" font-size="14.00">You go home! You go home,</text>
<text text-anchor="middle" x="150.26" y="-28.95" font-family="Times,serif" font-size="14.00">lao wai!</text>
</g>
<!-- talk_p_proc&#45;&gt;Node002 -->
<g id="edge1" class="edge">
<title>talk_p_proc&#45;&gt;Node002</title>
<path fill="none" stroke="#555555" stroke-dasharray="1,5" d="M611.27,-181.02C607.16,-162.86 597.91,-134.99 578.26,-120.5 529.72,-84.71 368.45,-96.09 309.26,-84.5 288.67,-80.47 266.78,-75.34 246.05,-70.09"/>
<polygon fill="#555555" stroke="#555555" points="247.2,-66.52 236.64,-67.42 245.46,-73.3 247.2,-66.52"/>
</g>
<!-- Node004 -->
<g id="node7" class="node">
<title>Node004</title>
<ellipse fill="#ffffff" stroke="#000000" cx="458.26" cy="-42.25" rx="140.12" ry="18"/>
<text text-anchor="middle" x="458.26" y="-37.57" font-family="Times,serif" font-size="14.00">We got dead advisor sale!</text>
</g>
<!-- talk_p_proc&#45;&gt;Node004 -->
<g id="edge2" class="edge">
<title>talk_p_proc&#45;&gt;Node004</title>
<path fill="none" stroke="#555555" stroke-dasharray="1,5" d="M609.47,-181.29C604.05,-164.39 593.9,-138.47 578.26,-120.5 558.02,-97.23 529.09,-78.33 504.71,-65.04"/>
<polygon fill="#555555" stroke="#555555" points="506.75,-61.63 496.27,-60.05 503.47,-67.82 506.75,-61.63"/>
</g>
<!-- Node003 -->
<g id="node8" class="node">
<title>Node003</title>
<ellipse fill="#ffffff" stroke="#000000" cx="770.26" cy="-42.25" rx="153.97" ry="42.25"/>
<text text-anchor="middle" x="770.26" y="-54.82" font-family="Times,serif" font-size="14.00">You not like to fight?</text>
<text text-anchor="middle" x="770.26" y="-37.57" font-family="Times,serif" font-size="14.00">Mai Da Chiang has weapons</text>
<text text-anchor="middle" x="770.26" y="-20.32" font-family="Times,serif" font-size="14.00">for you!</text>
</g>
<!-- talk_p_proc&#45;&gt;Node003 -->
<g id="edge3" class="edge">
<title>talk_p_proc&#45;&gt;Node003</title>
<path fill="none" stroke="#555555" stroke-dasharray="1,5" d="M619.05,-181.29C624.47,-164.39 634.62,-138.47 650.26,-120.5 661.51,-107.57 675.43,-95.99 689.77,-85.98"/>
<polygon fill="#555555" stroke="#555555" points="691.39,-88.43 697.73,-79.94 687.48,-82.63 691.39,-88.43"/>
</g>
<!-- Node001 -->
<g id="node9" class="node">
<title>Node001</title>
<ellipse fill="#ffffff" stroke="#000000" cx="1076.26" cy="-42.25" rx="134.35" ry="30.05"/>
<text text-anchor="middle" x="1076.26" y="-46.2" font-family="Times,serif" font-size="14.00">Come buy octopus! Very</text>
<text text-anchor="middle" x="1076.26" y="-28.95" font-family="Times,serif" font-size="14.00">tasty!</text>
</g>
<!-- talk_p_proc&#45;&gt;Node001 -->
<g id="edge4" class="edge">
<title>talk_p_proc&#45;&gt;Node001</title>
<path fill="none" stroke="#555555" stroke-dasharray="1,5" d="M617.23,-181C621.33,-162.82 630.56,-134.93 650.26,-120.5 701.41,-83.04 871.17,-97.32 933.26,-84.5 951.75,-80.68 971.33,-75.68 989.88,-70.49"/>
<polygon fill="#555555" stroke="#555555" points="990.71,-73.61 999.36,-67.5 988.79,-66.87 990.71,-73.61"/>
</g>
<!-- destroy_p_proc -->
<g id="node10" class="node">
<title>destroy_p_proc</title>
<ellipse fill="#ffffff" stroke="#000000" cx="686.26" cy="-199.34" rx="27" ry="18"/>
</g>
<!-- look_at_p_proc -->
<g id="node11" class="node">
<title>look_at_p_proc</title>
<ellipse fill="#ffffff" stroke="#000000" cx="843.26" cy="-199.34" rx="112.24" ry="18"/>
<text text-anchor="middle" x="843.26" y="-194.67" font-family="Times,serif" font-size="14.00">You see a merchant.</text>
</g>
<!-- description_p_proc -->
<g id="node12" class="node">
<title>description_p_proc</title>
<ellipse fill="#ffffff" stroke="#000000" cx="1108.26" cy="-199.34" rx="134.88" ry="78.84"/>
<text text-anchor="middle" x="1108.26" y="-237.79" font-family="Times,serif" font-size="14.00">You see a merchant.</text>
<text text-anchor="middle" x="1108.26" y="-220.54" font-family="Times,serif" font-size="14.00">&#45;&#45;&#45;</text>
<text text-anchor="middle" x="1108.26" y="-203.29" font-family="Times,serif" font-size="14.00">You see an animated Shi</text>
<text text-anchor="middle" x="1108.26" y="-186.04" font-family="Times,serif" font-size="14.00">merchant. Like all the</text>
<text text-anchor="middle" x="1108.26" y="-168.79" font-family="Times,serif" font-size="14.00">others, he seems to be</text>
<text text-anchor="middle" x="1108.26" y="-151.54" font-family="Times,serif" font-size="14.00">full of wind.</text>
</g>
<!-- use_skill_on_p_proc -->
<g id="node13" class="node">
<title>use_skill_on_p_proc</title>
<ellipse fill="#ffffff" stroke="#000000" cx="1288.26" cy="-199.34" rx="27" ry="18"/>
</g>
<!-- damage_p_proc -->
<g id="node14" class="node">
<title>damage_p_proc</title>
<ellipse fill="#ffffff" stroke="#000000" cx="1360.26" cy="-199.34" rx="27" ry="18"/>
</g>
<!-- map_enter_p_proc -->
<g id="node15" class="node">
<title>map_enter_p_proc</title>
<ellipse fill="#ffffff" stroke="#000000" cx="1432.26" cy="-199.34" rx="27" ry="18"/>
</g>
<!-- timed_event_p_proc -->
<g id="node16" class="node">
<title>timed_event_p_proc</title>
<ellipse fill="#ffffff" stroke="#000000" cx="1504.26" cy="-199.34" rx="27" ry="18"/>
</g>
<!-- Node998 -->
<g id="node17" class="node">
<title>Node998</title>
<ellipse fill="#ffffff" stroke="#000000" cx="1576.26" cy="-199.34" rx="27" ry="18"/>
</g>
<!-- Node999 -->
<g id="node18" class="node">
<title>Node999</title>
<ellipse fill="#ffffff" stroke="#000000" cx="1648.26" cy="-199.34" rx="27" ry="18"/>
</g>
</g>
</svg>
