<?xml version="1.0" encoding="UTF-8" standalone="no"?>
<!DOCTYPE svg PUBLIC "-//W3C//DTD SVG 1.1//EN"
 "http://www.w3.org/Graphics/SVG/1.1/DTD/svg11.dtd">
<!-- Generated by graphviz version 8.0.5 (0)
 -->
<!-- Title: fsfobdor Pages: 1 -->
<svg width="1124pt" height="189pt"
 viewBox="0.00 0.00 1124.00 188.89" xmlns="http://www.w3.org/2000/svg" xmlns:xlink="http://www.w3.org/1999/xlink">
<g id="graph0" class="graph" transform="scale(1 1) rotate(0) translate(4 184.89)">
<title>fsfobdor</title>
<polygon fill="white" stroke="none" points="-4,4 -4,-184.89 1120,-184.89 1120,4 -4,4"/>
<!-- checkPartyMembersNearDoor -->
<g id="node1" class="node">
<title>checkPartyMembersNearDoor</title>
<ellipse fill="#ffffff" stroke="#000000" cx="27" cy="-126.45" rx="27" ry="18"/>
</g>
<!-- start -->
<g id="node2" class="node">
<title>start</title>
<ellipse fill="#ffffff" stroke="#000000" cx="99" cy="-126.45" rx="27" ry="18"/>
</g>
<!-- use_p_proc -->
<g id="node3" class="node">
<title>use_p_proc</title>
<ellipse fill="#ffffff" stroke="#000000" cx="243" cy="-18" rx="122.76" ry="18"/>
<text text-anchor="middle" x="243" y="-13.32" font-family="Times,serif" font-size="14.00">You produce no effect.</text>
</g>
<!-- look_at_p_proc -->
<g id="node4" class="node">
<title>look_at_p_proc</title>
<ellipse fill="#ffffff" stroke="#000000" cx="446" cy="-126.45" rx="85.93" ry="18"/>
<text text-anchor="middle" x="446" y="-121.77" font-family="Times,serif" font-size="14.00">You see a door.</text>
</g>
<!-- description_p_proc -->
<g id="node5" class="node">
<title>description_p_proc</title>
<ellipse fill="#ffffff" stroke="#000000" cx="689" cy="-126.45" rx="138.59" ry="54.45"/>
<text text-anchor="middle" x="689" y="-147.65" font-family="Times,serif" font-size="14.00">You see a door. There</text>
<text text-anchor="middle" x="689" y="-130.4" font-family="Times,serif" font-size="14.00">doesn&#39;t seem to be a lock</text>
<text text-anchor="middle" x="689" y="-113.15" font-family="Times,serif" font-size="14.00">on it like a normal</text>
<text text-anchor="middle" x="689" y="-95.9" font-family="Times,serif" font-size="14.00">doors.</text>
</g>
<!-- use_skill_on_p_proc -->
<g id="node6" class="node">
<title>use_skill_on_p_proc</title>
<ellipse fill="#ffffff" stroke="#000000" cx="171" cy="-126.45" rx="27" ry="18"/>
</g>
<!-- use_skill_on_p_proc&#45;&gt;use_p_proc -->
<g id="edge1" class="edge">
<title>use_skill_on_p_proc&#45;&gt;use_p_proc</title>
<path fill="none" stroke="#555555" stroke-dasharray="1,5" d="M181.7,-109.53C188.85,-98.9 198.48,-84.6 207,-72 212.95,-63.2 219.47,-53.6 225.3,-45.01"/>
<polygon fill="#555555" stroke="#555555" points="228.58,-47.41 231.31,-37.17 222.79,-43.48 228.58,-47.41"/>
</g>
<!-- use_obj_on_p_proc -->
<g id="node7" class="node">
<title>use_obj_on_p_proc</title>
<ellipse fill="#ffffff" stroke="#000000" cx="243" cy="-126.45" rx="27" ry="18"/>
</g>
<!-- use_obj_on_p_proc&#45;&gt;use_p_proc -->
<g id="edge2" class="edge">
<title>use_obj_on_p_proc&#45;&gt;use_p_proc</title>
<path fill="none" stroke="#555555" stroke-dasharray="1,5" d="M243,-108.34C243,-91.91 243,-66.79 243,-47.36"/>
<polygon fill="#555555" stroke="#555555" points="246.5,-47.41 243,-37.41 239.5,-47.41 246.5,-47.41"/>
</g>
<!-- damage_p_proc -->
<g id="node8" class="node">
<title>damage_p_proc</title>
<ellipse fill="#ffffff" stroke="#000000" cx="315" cy="-126.45" rx="27" ry="18"/>
</g>
<!-- damage_p_proc&#45;&gt;use_p_proc -->
<g id="edge3" class="edge">
<title>damage_p_proc&#45;&gt;use_p_proc</title>
<path fill="none" stroke="#555555" stroke-dasharray="1,5" d="M304.3,-109.53C297.15,-98.9 287.52,-84.6 279,-72 273.05,-63.2 266.53,-53.6 260.7,-45.01"/>
<polygon fill="#555555" stroke="#555555" points="263.21,-43.48 254.69,-37.17 257.42,-47.41 263.21,-43.48"/>
</g>
<!-- map_enter_p_proc -->
<g id="node9" class="node">
<title>map_enter_p_proc</title>
<ellipse fill="#ffffff" stroke="#000000" cx="873" cy="-126.45" rx="27" ry="18"/>
</g>
<!-- map_update_p_proc -->
<g id="node10" class="node">
<title>map_update_p_proc</title>
<ellipse fill="#ffffff" stroke="#000000" cx="945" cy="-126.45" rx="27" ry="18"/>
</g>
<!-- talk_p_proc -->
<g id="node11" class="node">
<title>talk_p_proc</title>
<ellipse fill="#ffffff" stroke="#000000" cx="1017" cy="-126.45" rx="27" ry="18"/>
</g>
<!-- timed_event_p_proc -->
<g id="node12" class="node">
<title>timed_event_p_proc</title>
<ellipse fill="#ffffff" stroke="#000000" cx="1089" cy="-126.45" rx="27" ry="18"/>
</g>
</g>
</svg>
