<?xml version="1.0" encoding="UTF-8" standalone="no"?>
<!DOCTYPE svg PUBLIC "-//W3C//DTD SVG 1.1//EN"
 "http://www.w3.org/Graphics/SVG/1.1/DTD/svg11.dtd">
<!-- Generated by graphviz version 8.0.5 (0)
 -->
<!-- Title: fsphysta Pages: 1 -->
<svg width="1389pt" height="1947pt"
 viewBox="0.00 0.00 1389.00 1947.23" xmlns="http://www.w3.org/2000/svg" xmlns:xlink="http://www.w3.org/1999/xlink">
<g id="graph0" class="graph" transform="scale(1 1) rotate(0) translate(4 1943.23)">
<title>fsphysta</title>
<polygon fill="white" stroke="none" points="-4,4 -4,-1943.23 1385,-1943.23 1385,4 -4,4"/>
<!-- checkPartyMembersNearDoor -->
<g id="node1" class="node">
<title>checkPartyMembersNearDoor</title>
<ellipse fill="#ffffff" stroke="#000000" cx="27" cy="-1872.58" rx="27" ry="18"/>
</g>
<!-- start -->
<g id="node2" class="node">
<title>start</title>
<ellipse fill="#ffffff" stroke="#000000" cx="99" cy="-1872.58" rx="27" ry="18"/>
</g>
<!-- talk_p_proc -->
<g id="node3" class="node">
<title>talk_p_proc</title>
<ellipse fill="#ffffff" stroke="#000000" cx="171" cy="-1872.58" rx="27" ry="18"/>
</g>
<!-- Node003 -->
<g id="node4" class="node">
<title>Node003</title>
<ellipse fill="#ffffff" stroke="#000000" cx="171" cy="-1511.89" rx="122.15" ry="54.45"/>
<text text-anchor="middle" x="171" y="-1533.09" font-family="Times,serif" font-size="14.00">Incorrect password.</text>
<text text-anchor="middle" x="171" y="-1515.84" font-family="Times,serif" font-size="14.00">Please speak to the</text>
<text text-anchor="middle" x="171" y="-1498.59" font-family="Times,serif" font-size="14.00">system administrator.</text>
<text text-anchor="middle" x="171" y="-1481.34" font-family="Times,serif" font-size="14.00">Goodbye.</text>
</g>
<!-- talk_p_proc&#45;&gt;Node003 -->
<g id="edge1" class="edge">
<title>talk_p_proc&#45;&gt;Node003</title>
<path fill="none" stroke="#555555" stroke-dasharray="1,5" d="M171,-1854.28C171,-1805.01 171,-1662.08 171,-1577.59"/>
<polygon fill="#555555" stroke="#555555" points="174.5,-1577.83 171,-1567.83 167.5,-1577.83 174.5,-1577.83"/>
</g>
<!-- Node008 -->
<g id="node5" class="node">
<title>Node008</title>
<ellipse fill="#ffffff" stroke="#000000" cx="193" cy="-858.12" rx="112.24" ry="18"/>
<text text-anchor="middle" x="193" y="-853.45" font-family="Times,serif" font-size="14.00">Station deactivated.</text>
</g>
<!-- talk_p_proc&#45;&gt;Node008 -->
<g id="edge2" class="edge">
<title>talk_p_proc&#45;&gt;Node008</title>
<path fill="none" stroke="#555555" stroke-dasharray="1,5" d="M164.91,-1854.81C159.03,-1840.44 148.96,-1819.92 135,-1805.94 91.99,-1762.86 15,-1800.77 15,-1739.89 15,-1739.89 15,-1739.89 15,-1184.1 15,-1058.31 118.85,-935.08 167.9,-883.89"/>
<polygon fill="#555555" stroke="#555555" points="169.82,-886.92 174.28,-877.31 164.8,-882.03 169.82,-886.92"/>
</g>
<!-- Node001 -->
<g id="node6" class="node">
<title>Node001</title>
<ellipse fill="#ffffff" stroke="#000000" cx="576" cy="-1738.89" rx="142.31" ry="30.05"/>
<text text-anchor="middle" x="576" y="-1742.84" font-family="Times,serif" font-size="14.00">Greetings. Please confirm</text>
<text text-anchor="middle" x="576" y="-1725.59" font-family="Times,serif" font-size="14.00">your identity.</text>
</g>
<!-- talk_p_proc&#45;&gt;Node001 -->
<g id="edge3" class="edge">
<title>talk_p_proc&#45;&gt;Node001</title>
<path fill="none" stroke="#555555" stroke-dasharray="1,5" d="M184.38,-1856.57C198.8,-1841.37 223.17,-1818.4 249,-1805.94 306.58,-1778.16 375.29,-1762.06 434.83,-1752.73"/>
<polygon fill="#555555" stroke="#555555" points="435.09,-1756.08 444.46,-1751.12 434.04,-1749.16 435.09,-1756.08"/>
</g>
<!-- Node999 -->
<g id="node16" class="node">
<title>Node999</title>
<ellipse fill="#ffffff" stroke="#000000" cx="868" cy="-18" rx="27" ry="18"/>
</g>
<!-- Node003&#45;&gt;Node999 -->
<g id="edge14" class="edge">
<title>Node003&#45;&gt;Node999</title>
<path fill="none" stroke="#992d00" d="M93.32,-1469.58C82.97,-1460.94 73.65,-1450.9 67,-1439.44 29.32,-1374.53 53,-1346.2 53,-1271.15 53,-1271.15 53,-1271.15 53,-142.7 53,-63.03 669.52,-28.37 830.12,-20.69"/>
<polygon fill="#992d00" stroke="#992d00" points="830.06,-24.15 839.88,-20.19 829.73,-17.16 830.06,-24.15"/>
<text text-anchor="middle" x="80.75" y="-650.4" font-family="Times,serif" font-size="14.00" fill="#992d00">::leave::</text>
</g>
<!-- NodeHack -->
<g id="node19" class="node">
<title>NodeHack</title>
<ellipse fill="#ffffff" stroke="#000000" cx="612" cy="-1270.15" rx="27" ry="18"/>
</g>
<!-- Node003&#45;&gt;NodeHack -->
<g id="edge13" class="edge">
<title>Node003&#45;&gt;NodeHack</title>
<path fill="none" stroke="#00995a" d="M269.67,-1479.55C300.55,-1468.38 334.3,-1454.73 364,-1439.44 450.6,-1394.86 543.15,-1325.5 586.65,-1291.43"/>
<polygon fill="#00995a" stroke="#00995a" points="588.48,-1293.66 594.16,-1284.72 584.14,-1288.16 588.48,-1293.66"/>
<text text-anchor="middle" x="642" y="-1368.12" font-family="Times,serif" font-size="14.00" fill="#00995a">::hack into computer::</text>
</g>
<!-- Node008&#45;&gt;Node999 -->
<g id="edge20" class="edge">
<title>Node008&#45;&gt;Node999</title>
<path fill="none" stroke="#530099" d="M194.41,-839.73C198.66,-785.91 211,-617.33 211,-477.42 211,-477.42 211,-477.42 211,-142.7 211,-79.2 691.04,-33.88 830.46,-22.05"/>
<polygon fill="#530099" stroke="#530099" points="830.35,-25.49 840.02,-21.16 829.76,-18.51 830.35,-25.49"/>
<text text-anchor="middle" x="234.25" y="-248.47" font-family="Times,serif" font-size="14.00" fill="#530099">&#45;leave&#45;</text>
</g>
<!-- Node001&#45;&gt;Node999 -->
<g id="edge5" class="edge">
<title>Node001&#45;&gt;Node999</title>
<path fill="none" stroke="#00998d" d="M678.12,-1717.59C697.92,-1714.22 718.56,-1711.09 738,-1708.83 828.95,-1698.28 1144,-1730.15 1144,-1638.58 1144,-1638.58 1144,-1638.58 1144,-142.7 1144,-39.69 981.92,-21.91 906.17,-19.23"/>
<polygon fill="#00998d" stroke="#00998d" points="906.31,-15.71 896.22,-18.93 906.12,-22.7 906.31,-15.71"/>
<text text-anchor="middle" x="1210.38" y="-1098.75" font-family="Times,serif" font-size="14.00" fill="#00998d">[Oooh! Look at the</text>
<text text-anchor="middle" x="1210.38" y="-1081.5" font-family="Times,serif" font-size="14.00" fill="#00998d">flashing lights!]</text>
</g>
<!-- Node001&#45;&gt;Node999 -->
<g id="edge9" class="edge">
<title>Node001&#45;&gt;Node999</title>
<path fill="none" stroke="#990026" d="M682.59,-1718.61C824.83,-1692.52 1059,-1648.12 1059,-1638.58 1059,-1638.58 1059,-1638.58 1059,-142.7 1059,-69.92 960.09,-37.83 904.63,-25.56"/>
<polygon fill="#990026" stroke="#990026" points="905.66,-21.99 895.16,-23.36 904.23,-28.84 905.66,-21.99"/>
<text text-anchor="middle" x="1089.75" y="-1090.12" font-family="Times,serif" font-size="14.00" fill="#990026">Log Out.</text>
</g>
<!-- NodeGuess -->
<g id="node17" class="node">
<title>NodeGuess</title>
<ellipse fill="#ffffff" stroke="#000000" cx="321" cy="-1637.58" rx="27" ry="18"/>
</g>
<!-- Node001&#45;&gt;NodeGuess -->
<g id="edge6" class="edge">
<title>Node001&#45;&gt;NodeGuess</title>
<path fill="none" stroke="#996000" d="M482.96,-1715.71C459.1,-1708.85 433.75,-1700.51 411,-1690.83 388.97,-1681.47 365.64,-1667.81 348.26,-1656.8"/>
<polygon fill="#996000" stroke="#996000" points="350.56,-1653.48 340.26,-1651 346.77,-1659.36 350.56,-1653.48"/>
<text text-anchor="middle" x="477" y="-1677.53" font-family="Times,serif" font-size="14.00" fill="#996000">::guess password::</text>
</g>
<!-- Node002 -->
<g id="node18" class="node">
<title>Node002</title>
<ellipse fill="#ffffff" stroke="#000000" cx="557" cy="-1185.1" rx="121.09" ry="30.05"/>
<text text-anchor="middle" x="557" y="-1189.05" font-family="Times,serif" font-size="14.00">Physics database:</text>
<text text-anchor="middle" x="557" y="-1171.8" font-family="Times,serif" font-size="14.00">&#45;Exploration&#45; &#45;Theory&#45;</text>
</g>
<!-- Node001&#45;&gt;Node002 -->
<g id="edge7" class="edge">
<title>Node001&#45;&gt;Node002</title>
<path fill="none" stroke="#330099" d="M567.39,-1708.62C562.36,-1688.99 557,-1662.46 557,-1638.58 557,-1638.58 557,-1638.58 557,-1269.15 557,-1255.18 557,-1239.89 557,-1226.28"/>
<polygon fill="#330099" stroke="#330099" points="560.5,-1226.31 557,-1216.31 553.5,-1226.31 560.5,-1226.31"/>
<text text-anchor="middle" x="638" y="-1507.21" font-family="Times,serif" font-size="14.00" fill="#330099">KSLJKJ:Ken&#45;Lee&#45;97313</text>
</g>
<!-- Node001&#45;&gt;NodeHack -->
<g id="edge8" class="edge">
<title>Node001&#45;&gt;NodeHack</title>
<path fill="none" stroke="#009907" d="M611.99,-1709.59C647.95,-1678.8 700.96,-1625.93 723,-1566.33 760.53,-1464.85 673.96,-1344.13 632.53,-1294.36"/>
<polygon fill="#009907" stroke="#009907" points="634.73,-1292.54 625.59,-1287.18 629.39,-1297.07 634.73,-1292.54"/>
<text text-anchor="middle" x="793" y="-1588.28" font-family="Times,serif" font-size="14.00" fill="#009907">::hack into computer::</text>
</g>
<!-- destroy_p_proc -->
<g id="node7" class="node">
<title>destroy_p_proc</title>
<ellipse fill="#ffffff" stroke="#000000" cx="285" cy="-1872.58" rx="27" ry="18"/>
</g>
<!-- look_at_p_proc -->
<g id="node8" class="node">
<title>look_at_p_proc</title>
<ellipse fill="#ffffff" stroke="#000000" cx="461" cy="-1872.58" rx="109.96" ry="66.64"/>
<text text-anchor="middle" x="461" y="-1902.41" font-family="Times,serif" font-size="14.00">You see a computer</text>
<text text-anchor="middle" x="461" y="-1885.16" font-family="Times,serif" font-size="14.00">terminal.</text>
<text text-anchor="middle" x="461" y="-1867.91" font-family="Times,serif" font-size="14.00">&#45;&#45;&#45;</text>
<text text-anchor="middle" x="461" y="-1850.66" font-family="Times,serif" font-size="14.00">You see the physics</text>
<text text-anchor="middle" x="461" y="-1833.41" font-family="Times,serif" font-size="14.00">station.</text>
</g>
<!-- description_p_proc -->
<g id="node9" class="node">
<title>description_p_proc</title>
<ellipse fill="#ffffff" stroke="#000000" cx="712" cy="-1872.58" rx="112.08" ry="30.05"/>
<text text-anchor="middle" x="712" y="-1876.53" font-family="Times,serif" font-size="14.00">You see a functional</text>
<text text-anchor="middle" x="712" y="-1859.28" font-family="Times,serif" font-size="14.00">computer terminal.</text>
</g>
<!-- use_skill_on_p_proc -->
<g id="node10" class="node">
<title>use_skill_on_p_proc</title>
<ellipse fill="#ffffff" stroke="#000000" cx="874" cy="-1872.58" rx="27" ry="18"/>
</g>
<!-- use_p_proc -->
<g id="node11" class="node">
<title>use_p_proc</title>
<ellipse fill="#ffffff" stroke="#000000" cx="874" cy="-1738.89" rx="127.46" ry="30.05"/>
<text text-anchor="middle" x="874" y="-1742.84" font-family="Times,serif" font-size="14.00">The computer does not</text>
<text text-anchor="middle" x="874" y="-1725.59" font-family="Times,serif" font-size="14.00">respond to any input.</text>
</g>
<!-- use_skill_on_p_proc&#45;&gt;use_p_proc -->
<g id="edge4" class="edge">
<title>use_skill_on_p_proc&#45;&gt;use_p_proc</title>
<path fill="none" stroke="#555555" stroke-dasharray="1,5" d="M874,-1854.09C874,-1835.35 874,-1804.94 874,-1780.21"/>
<polygon fill="#555555" stroke="#555555" points="877.5,-1780.31 874,-1770.31 870.5,-1780.31 877.5,-1780.31"/>
</g>
<!-- use_obj_on_p_proc -->
<g id="node12" class="node">
<title>use_obj_on_p_proc</title>
<ellipse fill="#ffffff" stroke="#000000" cx="1042" cy="-1872.58" rx="122.68" ry="30.05"/>
<text text-anchor="middle" x="1042" y="-1876.53" font-family="Times,serif" font-size="14.00">You can&#39;t seem to find</text>
<text text-anchor="middle" x="1042" y="-1859.28" font-family="Times,serif" font-size="14.00">anywhere to put that.</text>
</g>
<!-- damage_p_proc -->
<g id="node13" class="node">
<title>damage_p_proc</title>
<ellipse fill="#ffffff" stroke="#000000" cx="1210" cy="-1872.58" rx="27" ry="18"/>
</g>
<!-- map_enter_p_proc -->
<g id="node14" class="node">
<title>map_enter_p_proc</title>
<ellipse fill="#ffffff" stroke="#000000" cx="1282" cy="-1872.58" rx="27" ry="18"/>
</g>
<!-- timed_event_p_proc -->
<g id="node15" class="node">
<title>timed_event_p_proc</title>
<ellipse fill="#ffffff" stroke="#000000" cx="1354" cy="-1872.58" rx="27" ry="18"/>
</g>
<!-- NodeGuess&#45;&gt;Node003 -->
<g id="edge27" class="edge">
<title>NodeGuess&#45;&gt;Node003</title>
<path fill="none" stroke="#555555" stroke-dasharray="1,5" d="M304.37,-1622.87C287.93,-1609.31 261.68,-1587.66 236.8,-1567.15"/>
<polygon fill="#555555" stroke="#555555" points="239.37,-1563.91 229.43,-1560.25 234.92,-1569.31 239.37,-1563.91"/>
</g>
<!-- Node009 -->
<g id="node26" class="node">
<title>Node009</title>
<ellipse fill="#ffffff" stroke="#000000" cx="218" cy="-1372.79" rx="144.96" ry="66.64"/>
<text text-anchor="middle" x="218" y="-1402.62" font-family="Times,serif" font-size="14.00">Somehow, you randomly</text>
<text text-anchor="middle" x="218" y="-1385.37" font-family="Times,serif" font-size="14.00">type in a sequence of</text>
<text text-anchor="middle" x="218" y="-1368.12" font-family="Times,serif" font-size="14.00">letters and wind up</text>
<text text-anchor="middle" x="218" y="-1350.87" font-family="Times,serif" font-size="14.00">gaining access! How lucky</text>
<text text-anchor="middle" x="218" y="-1333.62" font-family="Times,serif" font-size="14.00">can you get?</text>
</g>
<!-- NodeGuess&#45;&gt;Node009 -->
<g id="edge26" class="edge">
<title>NodeGuess&#45;&gt;Node009</title>
<path fill="none" stroke="#555555" stroke-dasharray="1,5" d="M322.85,-1619.27C325.63,-1586.06 328.07,-1511.88 302,-1457.44 299.27,-1451.73 295.98,-1446.19 292.31,-1440.85"/>
<polygon fill="#555555" stroke="#555555" points="294.57,-1439.02 285.8,-1433.07 288.94,-1443.19 294.57,-1439.02"/>
</g>
<!-- Node002&#45;&gt;Node008 -->
<g id="edge12" class="edge">
<title>Node002&#45;&gt;Node008</title>
<path fill="none" stroke="#860099" d="M440.25,-1176.78C339.06,-1169.22 206.31,-1155.87 189.75,-1137.05 127.44,-1066.24 162.18,-941.53 182.09,-886.51"/>
<polygon fill="#860099" stroke="#860099" points="185.62,-888.07 185.84,-877.48 179.06,-885.62 185.62,-888.07"/>
<text text-anchor="middle" x="258.62" y="-1090.12" font-family="Times,serif" font-size="14.00" fill="#860099">Deactivate Station.</text>
</g>
<!-- Node56 -->
<g id="node20" class="node">
<title>Node56</title>
<ellipse fill="#ffffff" stroke="#000000" cx="737" cy="-858.12" rx="27" ry="18"/>
</g>
<!-- Node002&#45;&gt;Node56 -->
<g id="edge10" class="edge">
<title>Node002&#45;&gt;Node56</title>
<path fill="none" stroke="#005399" d="M600.82,-1156.75C607.66,-1150.93 614.08,-1144.32 619,-1137.05 640.83,-1104.79 615.11,-1080.48 642.25,-1052.55 661.28,-1032.96 682.63,-1054.75 701,-1034.55 738.06,-993.79 741.07,-925.43 739.4,-887.19"/>
<polygon fill="#005399" stroke="#005399" points="742.85,-887.13 738.77,-877.35 735.86,-887.54 742.85,-887.13"/>
<text text-anchor="middle" x="691.38" y="-1090.12" font-family="Times,serif" font-size="14.00" fill="#005399">Exploration...</text>
</g>
<!-- Node007 -->
<g id="node21" class="node">
<title>Node007</title>
<ellipse fill="#ffffff" stroke="#000000" cx="545" cy="-858.12" rx="146.55" ry="176.42"/>
<text text-anchor="middle" x="545" y="-965.57" font-family="Times,serif" font-size="14.00">(After wading through the</text>
<text text-anchor="middle" x="545" y="-948.32" font-family="Times,serif" font-size="14.00">introduction and the</text>
<text text-anchor="middle" x="545" y="-931.07" font-family="Times,serif" font-size="14.00">mathematics, you discover</text>
<text text-anchor="middle" x="545" y="-913.82" font-family="Times,serif" font-size="14.00">that the Shi are learning</text>
<text text-anchor="middle" x="545" y="-896.57" font-family="Times,serif" font-size="14.00">to develop nuclear power</text>
<text text-anchor="middle" x="545" y="-879.32" font-family="Times,serif" font-size="14.00">again, rebuilding the</text>
<text text-anchor="middle" x="545" y="-862.07" font-family="Times,serif" font-size="14.00">space travel theories of</text>
<text text-anchor="middle" x="545" y="-844.82" font-family="Times,serif" font-size="14.00">the ancients &#45; and they</text>
<text text-anchor="middle" x="545" y="-827.57" font-family="Times,serif" font-size="14.00">mock the Hubologists</text>
<text text-anchor="middle" x="545" y="-810.32" font-family="Times,serif" font-size="14.00">while doing so &#45; and</text>
<text text-anchor="middle" x="545" y="-793.07" font-family="Times,serif" font-size="14.00">harnessing the energy of</text>
<text text-anchor="middle" x="545" y="-775.82" font-family="Times,serif" font-size="14.00">the sun, wind, and sea. </text>
<text text-anchor="middle" x="545" y="-758.57" font-family="Times,serif" font-size="14.00">At least, that&#39;s what the</text>
<text text-anchor="middle" x="545" y="-741.32" font-family="Times,serif" font-size="14.00">notes read like.)</text>
</g>
<!-- Node002&#45;&gt;Node007 -->
<g id="edge11" class="edge">
<title>Node002&#45;&gt;Node007</title>
<path fill="none" stroke="#7f9900" d="M555.91,-1154.69C554.95,-1128.62 553.46,-1088.15 551.88,-1045.43"/>
<polygon fill="#7f9900" stroke="#7f9900" points="555.34,-1045.4 551.48,-1035.53 548.35,-1045.65 555.34,-1045.4"/>
<text text-anchor="middle" x="586.38" y="-1090.12" font-family="Times,serif" font-size="14.00" fill="#7f9900">Theory...</text>
</g>
<!-- NodeHack&#45;&gt;Node002 -->
<g id="edge23" class="edge">
<title>NodeHack&#45;&gt;Node002</title>
<path fill="none" stroke="#555555" stroke-dasharray="1,5" d="M597.15,-1254.68C590.42,-1246.19 582.53,-1235.01 575.48,-1224.16"/>
<polygon fill="#555555" stroke="#555555" points="578.1,-1222.76 569.79,-1216.18 572.18,-1226.5 578.1,-1222.76"/>
</g>
<!-- NodeHack&#45;&gt;Node002 -->
<g id="edge24" class="edge">
<title>NodeHack&#45;&gt;Node002</title>
<path fill="none" stroke="#555555" stroke-dasharray="1,5" d="M606.42,-1252.34C601.81,-1243.98 595.28,-1233.53 588.42,-1223.4"/>
<polygon fill="#555555" stroke="#555555" points="590.94,-1221.88 582.36,-1215.66 585.18,-1225.87 590.94,-1221.88"/>
</g>
<!-- Node004 -->
<g id="node22" class="node">
<title>Node004</title>
<ellipse fill="#ffffff" stroke="#000000" cx="902" cy="-1094.8" rx="133.82" ry="42.25"/>
<text text-anchor="middle" x="902" y="-1107.37" font-family="Times,serif" font-size="14.00">Intruder alert activated.</text>
<text text-anchor="middle" x="902" y="-1090.12" font-family="Times,serif" font-size="14.00">Shutting down. Have a</text>
<text text-anchor="middle" x="902" y="-1072.87" font-family="Times,serif" font-size="14.00">nice day.</text>
</g>
<!-- NodeHack&#45;&gt;Node004 -->
<g id="edge25" class="edge">
<title>NodeHack&#45;&gt;Node004</title>
<path fill="none" stroke="#555555" stroke-dasharray="1,5" d="M631.48,-1257.51C671.63,-1233.51 765.33,-1177.49 831.15,-1138.15"/>
<polygon fill="#555555" stroke="#555555" points="832.45,-1140.85 839.24,-1132.72 828.86,-1134.84 832.45,-1140.85"/>
</g>
<!-- Node005 -->
<g id="node23" class="node">
<title>Node005</title>
<ellipse fill="#ffffff" stroke="#000000" cx="737" cy="-476.42" rx="141.77" ry="152.03"/>
<text text-anchor="middle" x="737" y="-566.62" font-family="Times,serif" font-size="14.00">&quot;With recent acquisition</text>
<text text-anchor="middle" x="737" y="-549.37" font-family="Times,serif" font-size="14.00">of vertibird plans, the</text>
<text text-anchor="middle" x="737" y="-532.12" font-family="Times,serif" font-size="14.00">possibility of creating a</text>
<text text-anchor="middle" x="737" y="-514.87" font-family="Times,serif" font-size="14.00">practical flying machine</text>
<text text-anchor="middle" x="737" y="-497.62" font-family="Times,serif" font-size="14.00">has taken a quantum leap</text>
<text text-anchor="middle" x="737" y="-480.37" font-family="Times,serif" font-size="14.00">forward. We expect to</text>
<text text-anchor="middle" x="737" y="-463.12" font-family="Times,serif" font-size="14.00">have a working prototype</text>
<text text-anchor="middle" x="737" y="-445.87" font-family="Times,serif" font-size="14.00">by the end of the year,</text>
<text text-anchor="middle" x="737" y="-428.62" font-family="Times,serif" font-size="14.00">and the ability to</text>
<text text-anchor="middle" x="737" y="-411.37" font-family="Times,serif" font-size="14.00">mass&#45;produce such</text>
<text text-anchor="middle" x="737" y="-394.12" font-family="Times,serif" font-size="14.00">vehicles within two</text>
<text text-anchor="middle" x="737" y="-376.87" font-family="Times,serif" font-size="14.00">years.&quot; &#45;Dr. Wong</text>
</g>
<!-- Node56&#45;&gt;Node005 -->
<g id="edge28" class="edge">
<title>Node56&#45;&gt;Node005</title>
<path fill="none" stroke="#555555" stroke-dasharray="1,5" d="M737,-839.82C737,-804 737,-718.45 737,-639.46"/>
<polygon fill="#555555" stroke="#555555" points="740.5,-639.86 737,-629.86 733.5,-639.86 740.5,-639.86"/>
</g>
<!-- Node006 -->
<g id="node25" class="node">
<title>Node006</title>
<ellipse fill="#ffffff" stroke="#000000" cx="417" cy="-476.42" rx="143.37" ry="115.44"/>
<text text-anchor="middle" x="417" y="-540.75" font-family="Times,serif" font-size="14.00">&quot;We are still preparing a</text>
<text text-anchor="middle" x="417" y="-523.5" font-family="Times,serif" font-size="14.00">working model of an</text>
<text text-anchor="middle" x="417" y="-506.25" font-family="Times,serif" font-size="14.00">aerial vehicle. None of</text>
<text text-anchor="middle" x="417" y="-489" font-family="Times,serif" font-size="14.00">the designs we have</text>
<text text-anchor="middle" x="417" y="-471.75" font-family="Times,serif" font-size="14.00">created have proven to be</text>
<text text-anchor="middle" x="417" y="-454.5" font-family="Times,serif" font-size="14.00">safe or aerodynamic.</text>
<text text-anchor="middle" x="417" y="-437.25" font-family="Times,serif" font-size="14.00">Perhaps if we had access</text>
<text text-anchor="middle" x="417" y="-420" font-family="Times,serif" font-size="14.00">to the plans of the</text>
<text text-anchor="middle" x="417" y="-402.75" font-family="Times,serif" font-size="14.00">ancients...&quot;&#45;Dr. Wong</text>
</g>
<!-- Node56&#45;&gt;Node006 -->
<g id="edge29" class="edge">
<title>Node56&#45;&gt;Node006</title>
<path fill="none" stroke="#555555" stroke-dasharray="1,5" d="M738.26,-839.82C739.82,-805.74 738.54,-729.11 701,-681.7 666.03,-637.54 633.07,-659.39 586,-628.45 561.69,-612.47 537.33,-593.13 514.98,-573.7"/>
<polygon fill="#555555" stroke="#555555" points="517.65,-570.51 507.83,-566.54 513.03,-575.77 517.65,-570.51"/>
</g>
<!-- Node007&#45;&gt;Node002 -->
<g id="edge19" class="edge">
<title>Node007&#45;&gt;Node002</title>
<path fill="none" stroke="#998000" d="M496.69,-1024.9C493.09,-1062.76 495.54,-1102.11 510,-1137.05 511.46,-1140.57 513.32,-1143.96 515.46,-1147.2"/>
<polygon fill="#998000" stroke="#998000" points="513.26,-1149.1 522.11,-1154.92 518.83,-1144.85 513.26,-1149.1"/>
<text text-anchor="middle" x="529.5" y="-1090.12" font-family="Times,serif" font-size="14.00" fill="#998000">Back.</text>
</g>
<!-- Node004&#45;&gt;Node999 -->
<g id="edge15" class="edge">
<title>Node004&#45;&gt;Node999</title>
<path fill="none" stroke="#000099" d="M902.79,-1052.15C904.2,-974.35 907,-801.61 907,-656.08 907,-656.08 907,-656.08 907,-142.7 907,-107.63 892.56,-69.44 881.26,-44.92"/>
<polygon fill="#000099" stroke="#000099" points="884.13,-43.8 876.66,-36.29 877.81,-46.82 884.13,-43.8"/>
<text text-anchor="middle" x="928.75" y="-293.09" font-family="Times,serif" font-size="14.00" fill="#000099">&#45;done&#45;</text>
</g>
<!-- Node005&#45;&gt;Node002 -->
<g id="edge17" class="edge">
<title>Node005&#45;&gt;Node002</title>
<path fill="none" stroke="#990059" d="M766.25,-625.69C769.03,-644.48 771.41,-663.49 773,-681.7 786.66,-837.92 798.12,-879.75 773,-1034.55 771.65,-1042.87 769.66,-1044.54 767,-1052.55 754.52,-1090.09 767.9,-1110.02 739,-1137.05 732.27,-1143.34 696.07,-1153.23 657.71,-1162.33"/>
<polygon fill="#990059" stroke="#990059" points="657.33,-1159.06 648.39,-1164.74 658.93,-1165.87 657.33,-1159.06"/>
<text text-anchor="middle" x="807.5" y="-853.45" font-family="Times,serif" font-size="14.00" fill="#990059">Back.</text>
</g>
<!-- NodePlans -->
<g id="node24" class="node">
<title>NodePlans</title>
<ellipse fill="#ffffff" stroke="#000000" cx="747" cy="-253.14" rx="27" ry="18"/>
</g>
<!-- Node005&#45;&gt;NodePlans -->
<g id="edge16" class="edge">
<title>Node005&#45;&gt;NodePlans</title>
<path fill="none" stroke="#2c9900" d="M743.84,-324.16C744.55,-308.32 745.21,-293.77 745.74,-282.09"/>
<polygon fill="#2c9900" stroke="#2c9900" points="749.26,-282.56 746.22,-272.42 742.27,-282.25 749.26,-282.56"/>
<text text-anchor="middle" x="814.62" y="-293.09" font-family="Times,serif" font-size="14.00" fill="#2c9900">::copy plans:: Back.</text>
</g>
<!-- Node010 -->
<g id="node27" class="node">
<title>Node010</title>
<ellipse fill="#ffffff" stroke="#000000" cx="750" cy="-143.7" rx="127.46" ry="54.45"/>
<text text-anchor="middle" x="750" y="-164.9" font-family="Times,serif" font-size="14.00">Copying plans..... Copy</text>
<text text-anchor="middle" x="750" y="-147.65" font-family="Times,serif" font-size="14.00">complete... Returning</text>
<text text-anchor="middle" x="750" y="-130.4" font-family="Times,serif" font-size="14.00">to... I/O error... GPF...</text>
<text text-anchor="middle" x="750" y="-113.15" font-family="Times,serif" font-size="14.00">Terminal Deactivating.</text>
</g>
<!-- NodePlans&#45;&gt;Node010 -->
<g id="edge30" class="edge">
<title>NodePlans&#45;&gt;Node010</title>
<path fill="none" stroke="#555555" stroke-dasharray="1,5" d="M747.48,-234.88C747.68,-227.64 747.93,-218.73 748.19,-209.35"/>
<polygon fill="#555555" stroke="#555555" points="751.71,-209.72 748.49,-199.63 744.72,-209.53 751.71,-209.72"/>
</g>
<!-- Node006&#45;&gt;Node002 -->
<g id="edge18" class="edge">
<title>Node006&#45;&gt;Node002</title>
<path fill="none" stroke="#008699" d="M374.04,-586.89C364.13,-617.13 355.02,-650.28 350,-681.7 337.63,-759.13 314.31,-964.73 350,-1034.55 378.32,-1089.94 437.79,-1129.55 485.76,-1154.02"/>
<polygon fill="#008699" stroke="#008699" points="483.98,-1157.55 494.49,-1158.87 487.1,-1151.28 483.98,-1157.55"/>
<text text-anchor="middle" x="369.5" y="-853.45" font-family="Times,serif" font-size="14.00" fill="#008699">Back.</text>
</g>
<!-- Node009&#45;&gt;Node002 -->
<g id="edge21" class="edge">
<title>Node009&#45;&gt;Node002</title>
<path fill="none" stroke="#009926" d="M310.63,-1321.05C370.61,-1288.2 446.88,-1246.42 498.56,-1218.11"/>
<polygon fill="#009926" stroke="#009926" points="499.82,-1220.86 506.91,-1212.99 496.46,-1214.72 499.82,-1220.86"/>
<text text-anchor="middle" x="458.88" y="-1265.47" font-family="Times,serif" font-size="14.00" fill="#009926">&#45;more&#45;</text>
</g>
<!-- Node010&#45;&gt;Node999 -->
<g id="edge22" class="edge">
<title>Node010&#45;&gt;Node999</title>
<path fill="none" stroke="#990006" d="M797.65,-92.74C814.55,-75.03 832.74,-55.96 846.39,-41.66"/>
<polygon fill="#990006" stroke="#990006" points="848.48,-44.48 852.85,-34.83 843.42,-39.65 848.48,-44.48"/>
<text text-anchor="middle" x="855.75" y="-57.95" font-family="Times,serif" font-size="14.00" fill="#990006">&#45;done&#45;</text>
</g>
</g>
</svg>
