<?xml version="1.0" encoding="UTF-8" standalone="no"?>
<!DOCTYPE svg PUBLIC "-//W3C//DTD SVG 1.1//EN"
 "http://www.w3.org/Graphics/SVG/1.1/DTD/svg11.dtd">
<!-- Generated by graphviz version 8.0.5 (0)
 -->
<!-- Title: fstnkcmp Pages: 1 -->
<svg width="1586pt" height="1258pt"
 viewBox="0.00 0.00 1586.29 1258.38" xmlns="http://www.w3.org/2000/svg" xmlns:xlink="http://www.w3.org/1999/xlink">
<g id="graph0" class="graph" transform="scale(1 1) rotate(0) translate(4 1254.38)">
<title>fstnkcmp</title>
<polygon fill="white" stroke="none" points="-4,4 -4,-1254.38 1582.29,-1254.38 1582.29,4 -4,4"/>
<!-- checkPartyMembersNearDoor -->
<g id="node1" class="node">
<title>checkPartyMembersNearDoor</title>
<ellipse fill="#ffffff" stroke="#000000" cx="249.29" cy="-1147.14" rx="27" ry="18"/>
</g>
<!-- start -->
<g id="node2" class="node">
<title>start</title>
<ellipse fill="#ffffff" stroke="#000000" cx="321.29" cy="-1147.14" rx="27" ry="18"/>
</g>
<!-- talk_p_proc -->
<g id="node3" class="node">
<title>talk_p_proc</title>
<ellipse fill="#ffffff" stroke="#000000" cx="393.29" cy="-1147.14" rx="27" ry="18"/>
</g>
<!-- Node001 -->
<g id="node4" class="node">
<title>Node001</title>
<ellipse fill="#ffffff" stroke="#000000" cx="133.29" cy="-801.16" rx="133.29" ry="54.45"/>
<text text-anchor="middle" x="133.29" y="-822.36" font-family="Times,serif" font-size="14.00">::beep:: Terminal</text>
<text text-anchor="middle" x="133.29" y="-805.11" font-family="Times,serif" font-size="14.00">malfunctioning. Require</text>
<text text-anchor="middle" x="133.29" y="-787.86" font-family="Times,serif" font-size="14.00">NavComp installation.</text>
<text text-anchor="middle" x="133.29" y="-770.61" font-family="Times,serif" font-size="14.00">::beep::</text>
</g>
<!-- talk_p_proc&#45;&gt;Node001 -->
<g id="edge1" class="edge">
<title>talk_p_proc&#45;&gt;Node001</title>
<path fill="none" stroke="#555555" stroke-dasharray="1,5" d="M392.15,-1128.92C389.68,-1106.09 381.88,-1066.08 357.29,-1043.9 331.83,-1020.94 310.4,-1045.52 282.29,-1025.9 224.89,-985.83 183.6,-915.9 159.25,-864.87"/>
<polygon fill="#555555" stroke="#555555" points="162.01,-863.5 154.6,-855.92 155.67,-866.47 162.01,-863.5"/>
</g>
<!-- Node004 -->
<g id="node5" class="node">
<title>Node004</title>
<ellipse fill="#ffffff" stroke="#000000" cx="251.29" cy="-157.05" rx="129.58" ry="30.05"/>
<text text-anchor="middle" x="251.29" y="-161" font-family="Times,serif" font-size="14.00">Navagational computer</text>
<text text-anchor="middle" x="251.29" y="-143.75" font-family="Times,serif" font-size="14.00">on&#45;line.</text>
</g>
<!-- talk_p_proc&#45;&gt;Node004 -->
<g id="edge2" class="edge">
<title>talk_p_proc&#45;&gt;Node004</title>
<path fill="none" stroke="#555555" stroke-dasharray="1,5" d="M387.14,-1129.24C377.93,-1103.29 360.65,-1051.89 351.29,-1006.9 287.32,-699.43 260.77,-320.18 253.49,-197.98"/>
<polygon fill="#555555" stroke="#555555" points="256.95,-198.08 252.87,-188.3 249.96,-198.49 256.95,-198.08"/>
</g>
<!-- Node002 -->
<g id="node6" class="node">
<title>Node002</title>
<ellipse fill="#ffffff" stroke="#000000" cx="512.29" cy="-940.26" rx="152.38" ry="66.64"/>
<text text-anchor="middle" x="512.29" y="-970.08" font-family="Times,serif" font-size="14.00">Welcome to PoseidoNet.</text>
<text text-anchor="middle" x="512.29" y="-952.83" font-family="Times,serif" font-size="14.00">This terminal is limited</text>
<text text-anchor="middle" x="512.29" y="-935.58" font-family="Times,serif" font-size="14.00">to transmission between</text>
<text text-anchor="middle" x="512.29" y="-918.33" font-family="Times,serif" font-size="14.00">one tanker &#45; PMV Valdez &#45;</text>
<text text-anchor="middle" x="512.29" y="-901.08" font-family="Times,serif" font-size="14.00">and docking rig. Command?</text>
</g>
<!-- talk_p_proc&#45;&gt;Node002 -->
<g id="edge3" class="edge">
<title>talk_p_proc&#45;&gt;Node002</title>
<path fill="none" stroke="#555555" stroke-dasharray="1,5" d="M397.37,-1129.1C402.81,-1108.17 413.6,-1072 429.29,-1043.9 435.44,-1032.88 442.79,-1021.85 450.53,-1011.33"/>
<polygon fill="#555555" stroke="#555555" points="453.88,-1013.7 457.11,-1003.61 448.29,-1009.48 453.88,-1013.7"/>
</g>
<!-- LoadEnclave -->
<g id="node7" class="node">
<title>LoadEnclave</title>
<ellipse fill="#ffffff" stroke="#000000" cx="801.29" cy="-940.26" rx="118.97" ry="66.64"/>
<text text-anchor="middle" x="801.29" y="-970.08" font-family="Times,serif" font-size="14.00">You see a PoseidoNet</text>
<text text-anchor="middle" x="801.29" y="-952.83" font-family="Times,serif" font-size="14.00">Computer.</text>
<text text-anchor="middle" x="801.29" y="-935.58" font-family="Times,serif" font-size="14.00">&#45;&#45;&#45;</text>
<text text-anchor="middle" x="801.29" y="-918.33" font-family="Times,serif" font-size="14.00">You see a PoseidoNet</text>
<text text-anchor="middle" x="801.29" y="-901.08" font-family="Times,serif" font-size="14.00">Computer.</text>
</g>
<!-- talk_p_proc&#45;&gt;LoadEnclave -->
<g id="edge4" class="edge">
<title>talk_p_proc&#45;&gt;LoadEnclave</title>
<path fill="none" stroke="#555555" stroke-dasharray="1,5" d="M394.13,-1129.01C396.24,-1105.88 403.63,-1065.14 429.29,-1043.9 513.79,-973.97 568.91,-1040.59 673.29,-1006.9 685.08,-1003.1 697.11,-998.3 708.84,-993.04"/>
<polygon fill="#555555" stroke="#555555" points="710,-995.9 717.61,-988.53 707.06,-989.54 710,-995.9"/>
</g>
<!-- Node999 -->
<g id="node17" class="node">
<title>Node999</title>
<ellipse fill="#ffffff" stroke="#000000" cx="404.29" cy="-18" rx="27" ry="18"/>
</g>
<!-- Node001&#45;&gt;Node999 -->
<g id="edge7" class="edge">
<title>Node001&#45;&gt;Node999</title>
<path fill="none" stroke="#003399" d="M106.82,-747.62C49.43,-625.46 -70.52,-318.2 68.79,-127 138.4,-31.47 293.98,-18.62 366.16,-18.06"/>
<polygon fill="#003399" stroke="#003399" points="366,-21.56 376,-18.07 366,-14.56 366,-21.56"/>
<text text-anchor="middle" x="91.04" y="-152.38" font-family="Times,serif" font-size="14.00" fill="#003399">&#45;done&#45;</text>
</g>
<!-- Node004&#45;&gt;Node999 -->
<g id="edge13" class="edge">
<title>Node004&#45;&gt;Node999</title>
<path fill="none" stroke="#0d9900" d="M279.95,-127.37C296.53,-111.08 317.97,-90.5 337.79,-73 350.88,-61.43 365.97,-49.11 378.45,-39.16"/>
<polygon fill="#0d9900" stroke="#0d9900" points="380.35,-41.33 386.02,-32.38 376.01,-35.84 380.35,-41.33"/>
<text text-anchor="middle" x="364.54" y="-86.33" font-family="Times,serif" font-size="14.00" fill="#0d9900">Log Off</text>
</g>
<!-- Node002&#45;&gt;Node999 -->
<g id="edge10" class="edge">
<title>Node002&#45;&gt;Node999</title>
<path fill="none" stroke="#009979" d="M472.69,-875.61C449.89,-835.18 423.42,-780.84 411.29,-728.72 351.12,-470.07 387.3,-143.93 400.24,-47.23"/>
<polygon fill="#009979" stroke="#009979" points="403.84,-47.74 401.73,-37.35 396.91,-46.79 403.84,-47.74"/>
<text text-anchor="middle" x="417.54" y="-152.38" font-family="Times,serif" font-size="14.00" fill="#009979">Log Off</text>
</g>
<!-- Node005 -->
<g id="node18" class="node">
<title>Node005</title>
<ellipse fill="#ffffff" stroke="#000000" cx="568.29" cy="-466.91" rx="148.14" ry="54.45"/>
<text text-anchor="middle" x="568.29" y="-488.11" font-family="Times,serif" font-size="14.00">ERROR: Fuel Tanks Empty.</text>
<text text-anchor="middle" x="568.29" y="-470.86" font-family="Times,serif" font-size="14.00">&#45;&#45;&#45;</text>
<text text-anchor="middle" x="568.29" y="-453.61" font-family="Times,serif" font-size="14.00">ERROR: Navagational</text>
<text text-anchor="middle" x="568.29" y="-436.36" font-family="Times,serif" font-size="14.00">Computer non Functional.</text>
</g>
<!-- Node002&#45;&gt;Node005 -->
<g id="edge8" class="edge">
<title>Node002&#45;&gt;Node005</title>
<path fill="none" stroke="#609900" d="M493.38,-873.82C492.13,-867.71 491.06,-861.57 490.29,-855.61 475.35,-740.11 514.46,-607.44 542.55,-531.08"/>
<polygon fill="#609900" stroke="#609900" points="546.04,-532.73 546.26,-522.14 539.48,-530.28 546.04,-532.73"/>
<text text-anchor="middle" x="502.29" y="-796.49" font-family="Times,serif" font-size="14.00" fill="#609900">Go.</text>
</g>
<!-- Node003 -->
<g id="node19" class="node">
<title>Node003</title>
<ellipse fill="#ffffff" stroke="#000000" cx="884.29" cy="-466.91" rx="150.26" ry="261.81"/>
<text text-anchor="middle" x="884.29" y="-634.74" font-family="Times,serif" font-size="14.00">&#45;Fuel Tanks: Empty&#45;</text>
<text text-anchor="middle" x="884.29" y="-617.49" font-family="Times,serif" font-size="14.00">&#45;Cargo Hold: Empty&#45;</text>
<text text-anchor="middle" x="884.29" y="-600.24" font-family="Times,serif" font-size="14.00">&#45;Navigation Computer: Non</text>
<text text-anchor="middle" x="884.29" y="-582.99" font-family="Times,serif" font-size="14.00">Functional&#45; &#45;Mooring</text>
<text text-anchor="middle" x="884.29" y="-565.74" font-family="Times,serif" font-size="14.00">Lines: Attached&#45;</text>
<text text-anchor="middle" x="884.29" y="-548.49" font-family="Times,serif" font-size="14.00">&#45;&#45;&#45;</text>
<text text-anchor="middle" x="884.29" y="-531.24" font-family="Times,serif" font-size="14.00">&#45;Fuel Tanks: Full&#45; &#45;Cargo</text>
<text text-anchor="middle" x="884.29" y="-513.99" font-family="Times,serif" font-size="14.00">Hold: Empty&#45; &#45;Navigation</text>
<text text-anchor="middle" x="884.29" y="-496.74" font-family="Times,serif" font-size="14.00">Computer: Non Functional&#45;</text>
<text text-anchor="middle" x="884.29" y="-479.49" font-family="Times,serif" font-size="14.00">&#45;Mooring Lines: Attached&#45;</text>
<text text-anchor="middle" x="884.29" y="-462.24" font-family="Times,serif" font-size="14.00">&#45;&#45;&#45;</text>
<text text-anchor="middle" x="884.29" y="-444.99" font-family="Times,serif" font-size="14.00">&#45;Fuel Tanks: Empty&#45;</text>
<text text-anchor="middle" x="884.29" y="-427.74" font-family="Times,serif" font-size="14.00">&#45;Cargo Hold: Empty&#45;</text>
<text text-anchor="middle" x="884.29" y="-410.49" font-family="Times,serif" font-size="14.00">&#45;Navigation Computer:</text>
<text text-anchor="middle" x="884.29" y="-393.24" font-family="Times,serif" font-size="14.00">Functional&#45; &#45;Mooring</text>
<text text-anchor="middle" x="884.29" y="-375.99" font-family="Times,serif" font-size="14.00">Lines: Attached&#45;</text>
<text text-anchor="middle" x="884.29" y="-358.74" font-family="Times,serif" font-size="14.00">&#45;&#45;&#45;</text>
<text text-anchor="middle" x="884.29" y="-341.49" font-family="Times,serif" font-size="14.00">&#45;Fuel Tanks: Full&#45; &#45;Cargo</text>
<text text-anchor="middle" x="884.29" y="-324.24" font-family="Times,serif" font-size="14.00">Hold: Empty&#45; &#45;Navigation</text>
<text text-anchor="middle" x="884.29" y="-306.99" font-family="Times,serif" font-size="14.00">Computer: Functional&#45;</text>
<text text-anchor="middle" x="884.29" y="-289.74" font-family="Times,serif" font-size="14.00">&#45;Mooring Lines: Attached&#45;</text>
</g>
<!-- Node002&#45;&gt;Node003 -->
<g id="edge9" class="edge">
<title>Node002&#45;&gt;Node003</title>
<path fill="none" stroke="#99008c" d="M607.21,-887.71C621.12,-878.03 634.66,-867.25 646.29,-855.61 655.13,-846.76 713.48,-751.77 770.18,-658.04"/>
<polygon fill="#99008c" stroke="#99008c" points="773.66,-660.05 775.84,-649.68 767.67,-656.43 773.66,-660.05"/>
<text text-anchor="middle" x="760.66" y="-796.49" font-family="Times,serif" font-size="14.00" fill="#99008c">Check status.</text>
</g>
<!-- destroy_p_proc -->
<g id="node8" class="node">
<title>destroy_p_proc</title>
<ellipse fill="#ffffff" stroke="#000000" cx="465.29" cy="-1147.14" rx="27" ry="18"/>
</g>
<!-- look_at_p_proc -->
<g id="node9" class="node">
<title>look_at_p_proc</title>
<ellipse fill="#ffffff" stroke="#000000" cx="644.29" cy="-1147.14" rx="133.82" ry="103.24"/>
<text text-anchor="middle" x="644.29" y="-1202.84" font-family="Times,serif" font-size="14.00">You see a PoseidoNet</text>
<text text-anchor="middle" x="644.29" y="-1185.59" font-family="Times,serif" font-size="14.00">Navagational Computer.</text>
<text text-anchor="middle" x="644.29" y="-1168.34" font-family="Times,serif" font-size="14.00">&#45;&#45;&#45;</text>
<text text-anchor="middle" x="644.29" y="-1151.09" font-family="Times,serif" font-size="14.00">You see a PoseidoNet</text>
<text text-anchor="middle" x="644.29" y="-1133.84" font-family="Times,serif" font-size="14.00">Computer.</text>
<text text-anchor="middle" x="644.29" y="-1116.59" font-family="Times,serif" font-size="14.00">&#45;&#45;&#45;</text>
<text text-anchor="middle" x="644.29" y="-1099.34" font-family="Times,serif" font-size="14.00">You see a PoseidoNet</text>
<text text-anchor="middle" x="644.29" y="-1082.09" font-family="Times,serif" font-size="14.00">Computer.</text>
</g>
<!-- description_p_proc -->
<g id="node10" class="node">
<title>description_p_proc</title>
<ellipse fill="#ffffff" stroke="#000000" cx="915.29" cy="-1147.14" rx="118.97" ry="30.05"/>
<text text-anchor="middle" x="915.29" y="-1151.09" font-family="Times,serif" font-size="14.00">You see a PoseidoNet</text>
<text text-anchor="middle" x="915.29" y="-1133.84" font-family="Times,serif" font-size="14.00">Computer.</text>
</g>
<!-- use_skill_on_p_proc -->
<g id="node11" class="node">
<title>use_skill_on_p_proc</title>
<ellipse fill="#ffffff" stroke="#000000" cx="1079.29" cy="-1147.14" rx="27" ry="18"/>
</g>
<!-- use_p_proc -->
<g id="node12" class="node">
<title>use_p_proc</title>
<ellipse fill="#ffffff" stroke="#000000" cx="1161.29" cy="-940.26" rx="27" ry="18"/>
</g>
<!-- use_skill_on_p_proc&#45;&gt;use_p_proc -->
<g id="edge5" class="edge">
<title>use_skill_on_p_proc&#45;&gt;use_p_proc</title>
<path fill="none" stroke="#555555" stroke-dasharray="1,5" d="M1084.73,-1129.33C1091.44,-1108.95 1103.43,-1073.61 1115.29,-1043.9 1125.77,-1017.65 1139.11,-988.26 1148.72,-967.68"/>
<polygon fill="#555555" stroke="#555555" points="1152.29,-969.33 1153.37,-958.79 1145.95,-966.35 1152.29,-969.33"/>
</g>
<!-- use_obj_on_p_proc -->
<g id="node13" class="node">
<title>use_obj_on_p_proc</title>
<ellipse fill="#ffffff" stroke="#000000" cx="1243.29" cy="-1147.14" rx="118.97" ry="66.64"/>
<text text-anchor="middle" x="1243.29" y="-1176.96" font-family="Times,serif" font-size="14.00">You see a PoseidoNet</text>
<text text-anchor="middle" x="1243.29" y="-1159.71" font-family="Times,serif" font-size="14.00">Computer.</text>
<text text-anchor="middle" x="1243.29" y="-1142.46" font-family="Times,serif" font-size="14.00">&#45;&#45;&#45;</text>
<text text-anchor="middle" x="1243.29" y="-1125.21" font-family="Times,serif" font-size="14.00">You see a PoseidoNet</text>
<text text-anchor="middle" x="1243.29" y="-1107.96" font-family="Times,serif" font-size="14.00">Computer.</text>
</g>
<!-- use_obj_on_p_proc&#45;&gt;use_p_proc -->
<g id="edge6" class="edge">
<title>use_obj_on_p_proc&#45;&gt;use_p_proc</title>
<path fill="none" stroke="#555555" stroke-dasharray="1,5" d="M1217.46,-1081.59C1202.14,-1043.32 1183.53,-996.83 1172.05,-968.14"/>
<polygon fill="#555555" stroke="#555555" points="1174.98,-967.05 1168.02,-959.07 1168.49,-969.66 1174.98,-967.05"/>
</g>
<!-- damage_p_proc -->
<g id="node14" class="node">
<title>damage_p_proc</title>
<ellipse fill="#ffffff" stroke="#000000" cx="1407.29" cy="-1147.14" rx="27" ry="18"/>
</g>
<!-- map_enter_p_proc -->
<g id="node15" class="node">
<title>map_enter_p_proc</title>
<ellipse fill="#ffffff" stroke="#000000" cx="1479.29" cy="-1147.14" rx="27" ry="18"/>
</g>
<!-- timed_event_p_proc -->
<g id="node16" class="node">
<title>timed_event_p_proc</title>
<ellipse fill="#ffffff" stroke="#000000" cx="1551.29" cy="-1147.14" rx="27" ry="18"/>
</g>
<!-- Node005&#45;&gt;Node002 -->
<g id="edge15" class="edge">
<title>Node005&#45;&gt;Node002</title>
<path fill="none" stroke="#990039" d="M561.93,-521.46C552.01,-604.96 532.81,-766.53 521.42,-862.43"/>
<polygon fill="#990039" stroke="#990039" points="517.84,-861.88 520.14,-872.22 524.79,-862.7 517.84,-861.88"/>
<text text-anchor="middle" x="555.29" y="-796.49" font-family="Times,serif" font-size="14.00" fill="#990039">&#45;back&#45;</text>
</g>
<!-- Node005&#45;&gt;Node002 -->
<g id="edge16" class="edge">
<title>Node005&#45;&gt;Node002</title>
<path fill="none" stroke="#006699" d="M581.58,-521.49C597.99,-598.05 619.17,-742.04 579.29,-855.61 577.72,-860.08 575.8,-864.48 573.62,-868.79"/>
<polygon fill="#006699" stroke="#006699" points="570.26,-866.63 568.45,-877.07 576.38,-870.03 570.26,-866.63"/>
<text text-anchor="middle" x="621.29" y="-796.49" font-family="Times,serif" font-size="14.00" fill="#006699">&#45;back&#45;</text>
</g>
<!-- NodeMovie -->
<g id="node20" class="node">
<title>NodeMovie</title>
<ellipse fill="#ffffff" stroke="#000000" cx="506.29" cy="-91" rx="27" ry="18"/>
</g>
<!-- Node005&#45;&gt;NodeMovie -->
<g id="edge14" class="edge">
<title>Node005&#45;&gt;NodeMovie</title>
<path fill="none" stroke="#555555" stroke-dasharray="1,5" d="M559.41,-412.34C546.01,-331.55 521.11,-181.41 510.87,-119.64"/>
<polygon fill="#555555" stroke="#555555" points="514.23,-119.46 509.14,-110.17 507.32,-120.61 514.23,-119.46"/>
</g>
<!-- Node003&#45;&gt;Node002 -->
<g id="edge11" class="edge">
<title>Node003&#45;&gt;Node002</title>
<path fill="none" stroke="#994c00" d="M882.26,-728.82C870.15,-776.53 848.92,-821.83 813.29,-855.61 790.53,-877.19 703.62,-865.62 673.29,-873.61 658.2,-877.58 642.65,-882.63 627.43,-888.15"/>
<polygon fill="#994c00" stroke="#994c00" points="626.64,-885.08 618.48,-891.84 629.07,-891.64 626.64,-885.08"/>
<text text-anchor="middle" x="898.29" y="-796.49" font-family="Times,serif" font-size="14.00" fill="#994c00">&#45;back&#45;</text>
</g>
<!-- Node003&#45;&gt;Node999 -->
<g id="edge12" class="edge">
<title>Node003&#45;&gt;Node999</title>
<path fill="none" stroke="#200099" d="M781.02,-275.98C763.9,-250.98 745.19,-226.61 725.29,-205.1 657.17,-131.47 630.36,-121.01 542.29,-73 508.64,-54.66 467.42,-39.38 438.84,-29.8"/>
<polygon fill="#200099" stroke="#200099" points="440.14,-26.22 429.55,-26.42 437.95,-32.87 440.14,-26.22"/>
<text text-anchor="middle" x="636.79" y="-86.33" font-family="Times,serif" font-size="14.00" fill="#200099">Log Off.</text>
</g>
<!-- NodeMovie&#45;&gt;Node999 -->
<g id="edge17" class="edge">
<title>NodeMovie&#45;&gt;Node999</title>
<path fill="none" stroke="#555555" stroke-dasharray="1,5" d="M488.05,-77.31C472.24,-66.3 449.15,-50.23 431.21,-37.74"/>
<polygon fill="#555555" stroke="#555555" points="433.57,-34.42 423.37,-31.58 429.58,-40.17 433.57,-34.42"/>
</g>
</g>
</svg>
