<?xml version="1.0" encoding="UTF-8" standalone="no"?>
<!DOCTYPE svg PUBLIC "-//W3C//DTD SVG 1.1//EN"
 "http://www.w3.org/Graphics/SVG/1.1/DTD/svg11.dtd">
<!-- Generated by graphviz version 8.0.5 (0)
 -->
<!-- Title: mcSblBoy Pages: 1 -->
<svg width="1420pt" height="164pt"
 viewBox="0.00 0.00 1420.00 164.50" xmlns="http://www.w3.org/2000/svg" xmlns:xlink="http://www.w3.org/1999/xlink">
<g id="graph0" class="graph" transform="scale(1 1) rotate(0) translate(4 160.5)">
<title>mcSblBoy</title>
<polygon fill="white" stroke="none" points="-4,4 -4,-160.5 1416,-160.5 1416,4 -4,4"/>
<!-- checkPartyMembersNearDoor -->
<g id="node1" class="node">
<title>checkPartyMembersNearDoor</title>
<ellipse fill="#ffffff" stroke="#000000" cx="27" cy="-114.25" rx="27" ry="18"/>
</g>
<!-- start -->
<g id="node2" class="node">
<title>start</title>
<ellipse fill="#ffffff" stroke="#000000" cx="99" cy="-114.25" rx="27" ry="18"/>
</g>
<!-- critter_p_proc -->
<g id="node3" class="node">
<title>critter_p_proc</title>
<ellipse fill="#ffffff" stroke="#000000" cx="171" cy="-114.25" rx="27" ry="18"/>
</g>
<!-- pickup_p_proc -->
<g id="node4" class="node">
<title>pickup_p_proc</title>
<ellipse fill="#ffffff" stroke="#000000" cx="243" cy="-114.25" rx="27" ry="18"/>
</g>
<!-- Node998 -->
<g id="node5" class="node">
<title>Node998</title>
<ellipse fill="#ffffff" stroke="#000000" cx="279" cy="-18" rx="27" ry="18"/>
</g>
<!-- pickup_p_proc&#45;&gt;Node998 -->
<g id="edge1" class="edge">
<title>pickup_p_proc&#45;&gt;Node998</title>
<path fill="none" stroke="#555555" stroke-dasharray="1,5" d="M249.44,-96.4C254.81,-82.33 262.57,-62.01 268.79,-45.72"/>
<polygon fill="#555555" stroke="#555555" points="272.32,-47.29 272.62,-36.7 265.78,-44.8 272.32,-47.29"/>
</g>
<!-- talk_p_proc -->
<g id="node6" class="node">
<title>talk_p_proc</title>
<ellipse fill="#ffffff" stroke="#000000" cx="423" cy="-114.25" rx="27" ry="18"/>
</g>
<!-- Node004 -->
<g id="node7" class="node">
<title>Node004</title>
<ellipse fill="#ffffff" stroke="#000000" cx="351" cy="-18" rx="27" ry="18"/>
</g>
<!-- talk_p_proc&#45;&gt;Node004 -->
<g id="edge2" class="edge">
<title>talk_p_proc&#45;&gt;Node004</title>
<path fill="none" stroke="#555555" stroke-dasharray="1,5" d="M411.11,-97.69C399.75,-82.82 382.46,-60.18 369.34,-43"/>
<polygon fill="#555555" stroke="#555555" points="371.76,-41.41 362.91,-35.59 366.2,-45.66 371.76,-41.41"/>
</g>
<!-- Node002 -->
<g id="node8" class="node">
<title>Node002</title>
<ellipse fill="#ffffff" stroke="#000000" cx="423" cy="-18" rx="27" ry="18"/>
</g>
<!-- talk_p_proc&#45;&gt;Node002 -->
<g id="edge3" class="edge">
<title>talk_p_proc&#45;&gt;Node002</title>
<path fill="none" stroke="#555555" stroke-dasharray="1,5" d="M423,-95.96C423,-82.36 423,-63.13 423,-47.3"/>
<polygon fill="#555555" stroke="#555555" points="426.5,-47.5 423,-37.5 419.5,-47.5 426.5,-47.5"/>
</g>
<!-- Node001 -->
<g id="node9" class="node">
<title>Node001</title>
<ellipse fill="#ffffff" stroke="#000000" cx="495" cy="-18" rx="27" ry="18"/>
</g>
<!-- talk_p_proc&#45;&gt;Node001 -->
<g id="edge4" class="edge">
<title>talk_p_proc&#45;&gt;Node001</title>
<path fill="none" stroke="#555555" stroke-dasharray="1,5" d="M434.89,-97.69C446.25,-82.82 463.54,-60.18 476.66,-43"/>
<polygon fill="#555555" stroke="#555555" points="479.8,-45.66 483.09,-35.59 474.24,-41.41 479.8,-45.66"/>
</g>
<!-- destroy_p_proc -->
<g id="node10" class="node">
<title>destroy_p_proc</title>
<ellipse fill="#ffffff" stroke="#000000" cx="495" cy="-114.25" rx="27" ry="18"/>
</g>
<!-- look_at_p_proc -->
<g id="node11" class="node">
<title>look_at_p_proc</title>
<ellipse fill="#ffffff" stroke="#000000" cx="670" cy="-114.25" rx="129.58" ry="42.25"/>
<text text-anchor="middle" x="670" y="-126.82" font-family="Times,serif" font-size="14.00">You see a scruffy little</text>
<text text-anchor="middle" x="670" y="-109.57" font-family="Times,serif" font-size="14.00">lad hard at work caring</text>
<text text-anchor="middle" x="670" y="-92.32" font-family="Times,serif" font-size="14.00">for the brahmin.</text>
</g>
<!-- description_p_proc -->
<g id="node12" class="node">
<title>description_p_proc</title>
<ellipse fill="#ffffff" stroke="#000000" cx="935" cy="-114.25" rx="116.97" ry="18"/>
<text text-anchor="middle" x="935" y="-109.57" font-family="Times,serif" font-size="14.00">He seems to be busy.</text>
</g>
<!-- use_skill_on_p_proc -->
<g id="node13" class="node">
<title>use_skill_on_p_proc</title>
<ellipse fill="#ffffff" stroke="#000000" cx="1097" cy="-114.25" rx="27" ry="18"/>
</g>
<!-- damage_p_proc -->
<g id="node14" class="node">
<title>damage_p_proc</title>
<ellipse fill="#ffffff" stroke="#000000" cx="315" cy="-114.25" rx="27" ry="18"/>
</g>
<!-- damage_p_proc&#45;&gt;Node998 -->
<g id="edge5" class="edge">
<title>damage_p_proc&#45;&gt;Node998</title>
<path fill="none" stroke="#555555" stroke-dasharray="1,5" d="M308.56,-96.4C303.19,-82.33 295.43,-62.01 289.21,-45.72"/>
<polygon fill="#555555" stroke="#555555" points="292.22,-44.8 285.38,-36.7 285.68,-47.29 292.22,-44.8"/>
</g>
<!-- map_enter_p_proc -->
<g id="node15" class="node">
<title>map_enter_p_proc</title>
<ellipse fill="#ffffff" stroke="#000000" cx="1169" cy="-114.25" rx="27" ry="18"/>
</g>
<!-- combat_p_proc -->
<g id="node16" class="node">
<title>combat_p_proc</title>
<ellipse fill="#ffffff" stroke="#000000" cx="1241" cy="-114.25" rx="27" ry="18"/>
</g>
<!-- Node003 -->
<g id="node17" class="node">
<title>Node003</title>
<ellipse fill="#ffffff" stroke="#000000" cx="1313" cy="-18" rx="27" ry="18"/>
</g>
<!-- Node999 -->
<g id="node18" class="node">
<title>Node999</title>
<ellipse fill="#ffffff" stroke="#000000" cx="1385" cy="-114.25" rx="27" ry="18"/>
</g>
<!-- timed_event_p_proc -->
<g id="node19" class="node">
<title>timed_event_p_proc</title>
<ellipse fill="#ffffff" stroke="#000000" cx="1313" cy="-114.25" rx="27" ry="18"/>
</g>
<!-- timed_event_p_proc&#45;&gt;Node003 -->
<g id="edge6" class="edge">
<title>timed_event_p_proc&#45;&gt;Node003</title>
<path fill="none" stroke="#555555" stroke-dasharray="1,5" d="M1313,-95.96C1313,-82.36 1313,-63.13 1313,-47.3"/>
<polygon fill="#555555" stroke="#555555" points="1316.5,-47.5 1313,-37.5 1309.5,-47.5 1316.5,-47.5"/>
</g>
</g>
</svg>
