<?xml version="1.0" encoding="UTF-8" standalone="no"?>
<!DOCTYPE svg PUBLIC "-//W3C//DTD SVG 1.1//EN"
 "http://www.w3.org/Graphics/SVG/1.1/DTD/svg11.dtd">
<!-- Generated by graphviz version 8.0.5 (0)
 -->
<!-- Title: ncAngBra Pages: 1 -->
<svg width="2297pt" height="677pt"
 viewBox="0.00 0.00 2297.00 676.51" xmlns="http://www.w3.org/2000/svg" xmlns:xlink="http://www.w3.org/1999/xlink">
<g id="graph0" class="graph" transform="scale(1 1) rotate(0) translate(4 672.51)">
<title>ncAngBra</title>
<polygon fill="white" stroke="none" points="-4,4 -4,-672.51 2293,-672.51 2293,4 -4,4"/>
<!-- checkPartyMembersNearDoor -->
<g id="node1" class="node">
<title>checkPartyMembersNearDoor</title>
<ellipse fill="#ffffff" stroke="#000000" cx="27" cy="-516.48" rx="27" ry="18"/>
</g>
<!-- ChooseFromList -->
<g id="node2" class="node">
<title>ChooseFromList</title>
<ellipse fill="#ffffff" stroke="#000000" cx="150" cy="-164.23" rx="139.12" ry="164.23"/>
<text text-anchor="middle" x="150" y="-263.05" font-family="Times,serif" font-size="14.00">You see a huge,</text>
<text text-anchor="middle" x="150" y="-245.8" font-family="Times,serif" font-size="14.00">ill&#45;tempered brahmin. Its</text>
<text text-anchor="middle" x="150" y="-228.55" font-family="Times,serif" font-size="14.00">stomach looks distended,</text>
<text text-anchor="middle" x="150" y="-211.3" font-family="Times,serif" font-size="14.00">and its eyes are</text>
<text text-anchor="middle" x="150" y="-194.05" font-family="Times,serif" font-size="14.00">bloodshot.</text>
<text text-anchor="middle" x="150" y="-176.8" font-family="Times,serif" font-size="14.00">&#45;&#45;&#45;</text>
<text text-anchor="middle" x="150" y="-159.55" font-family="Times,serif" font-size="14.00">You see a huge,</text>
<text text-anchor="middle" x="150" y="-142.3" font-family="Times,serif" font-size="14.00">ill&#45;tempered brahmin. Its</text>
<text text-anchor="middle" x="150" y="-125.05" font-family="Times,serif" font-size="14.00">stomach looks distended,</text>
<text text-anchor="middle" x="150" y="-107.8" font-family="Times,serif" font-size="14.00">and its eyes are</text>
<text text-anchor="middle" x="150" y="-90.55" font-family="Times,serif" font-size="14.00">bloodshot. It looks very</text>
<text text-anchor="middle" x="150" y="-73.3" font-family="Times,serif" font-size="14.00">sick. Maybe there&#39;s some</text>
<text text-anchor="middle" x="150" y="-56.05" font-family="Times,serif" font-size="14.00">way to help him out.</text>
</g>
<!-- CLICK_PREV -->
<g id="node3" class="node">
<title>CLICK_PREV</title>
<ellipse fill="#ffffff" stroke="#000000" cx="99" cy="-516.48" rx="27" ry="18"/>
</g>
<!-- CLICK_PREV&#45;&gt;ChooseFromList -->
<g id="edge1" class="edge">
<title>CLICK_PREV&#45;&gt;ChooseFromList</title>
<path fill="none" stroke="#555555" stroke-dasharray="1,5" d="M101.53,-498.11C105.95,-467.77 115.5,-402.15 124.97,-337.12"/>
<polygon fill="#555555" stroke="#555555" points="128.57,-337.67 126.55,-327.27 121.65,-336.66 128.57,-337.67"/>
</g>
<!-- CLICK_0 -->
<g id="node4" class="node">
<title>CLICK_0</title>
<ellipse fill="#ffffff" stroke="#000000" cx="264" cy="-516.48" rx="27" ry="18"/>
</g>
<!-- stored_node -->
<g id="node5" class="node">
<title>stored_node</title>
<ellipse fill="none" stroke="black" cx="408" cy="-164.23" rx="72.25" ry="18"/>
<text text-anchor="middle" x="408" y="-159.55" font-family="Times,serif" font-size="14.00">stored_node</text>
</g>
<!-- CLICK_0&#45;&gt;stored_node -->
<g id="edge2" class="edge">
<title>CLICK_0&#45;&gt;stored_node</title>
<path fill="none" stroke="#555555" stroke-dasharray="1,5" d="M266.58,-498.28C271.2,-469.79 282.09,-411.28 300,-364.45 324.97,-299.18 367.28,-228.57 390.85,-191.46"/>
<polygon fill="#555555" stroke="#555555" points="394.25,-193.65 396.7,-183.34 388.35,-189.87 394.25,-193.65"/>
</g>
<!-- CLICK_1 -->
<g id="node6" class="node">
<title>CLICK_1</title>
<ellipse fill="#ffffff" stroke="#000000" cx="336" cy="-516.48" rx="27" ry="18"/>
</g>
<!-- CLICK_1&#45;&gt;stored_node -->
<g id="edge3" class="edge">
<title>CLICK_1&#45;&gt;stored_node</title>
<path fill="none" stroke="#555555" stroke-dasharray="1,5" d="M339.47,-498.59C350.99,-442.54 388.03,-262.35 402.31,-192.89"/>
<polygon fill="#555555" stroke="#555555" points="405.89,-193.86 404.48,-183.36 399.04,-192.45 405.89,-193.86"/>
</g>
<!-- CLICK_2 -->
<g id="node7" class="node">
<title>CLICK_2</title>
<ellipse fill="#ffffff" stroke="#000000" cx="408" cy="-516.48" rx="27" ry="18"/>
</g>
<!-- CLICK_2&#45;&gt;stored_node -->
<g id="edge4" class="edge">
<title>CLICK_2&#45;&gt;stored_node</title>
<path fill="none" stroke="#555555" stroke-dasharray="1,5" d="M408,-498.11C408,-441.74 408,-263.52 408,-193.69"/>
<polygon fill="#555555" stroke="#555555" points="411.5,-193.7 408,-183.7 404.5,-193.7 411.5,-193.7"/>
</g>
<!-- CLICK_3 -->
<g id="node8" class="node">
<title>CLICK_3</title>
<ellipse fill="#ffffff" stroke="#000000" cx="480" cy="-516.48" rx="27" ry="18"/>
</g>
<!-- CLICK_3&#45;&gt;stored_node -->
<g id="edge5" class="edge">
<title>CLICK_3&#45;&gt;stored_node</title>
<path fill="none" stroke="#555555" stroke-dasharray="1,5" d="M476.53,-498.59C465.01,-442.54 427.97,-262.35 413.69,-192.89"/>
<polygon fill="#555555" stroke="#555555" points="416.96,-192.45 411.52,-183.36 410.11,-193.86 416.96,-192.45"/>
</g>
<!-- CLICK_4 -->
<g id="node9" class="node">
<title>CLICK_4</title>
<ellipse fill="#ffffff" stroke="#000000" cx="552" cy="-516.48" rx="27" ry="18"/>
</g>
<!-- CLICK_4&#45;&gt;stored_node -->
<g id="edge6" class="edge">
<title>CLICK_4&#45;&gt;stored_node</title>
<path fill="none" stroke="#555555" stroke-dasharray="1,5" d="M549.42,-498.28C544.8,-469.79 533.91,-411.28 516,-364.45 491.03,-299.18 448.72,-228.57 425.15,-191.46"/>
<polygon fill="#555555" stroke="#555555" points="427.65,-189.87 419.3,-183.34 421.75,-193.65 427.65,-189.87"/>
</g>
<!-- CLICK_MORE -->
<g id="node10" class="node">
<title>CLICK_MORE</title>
<ellipse fill="#ffffff" stroke="#000000" cx="171" cy="-516.48" rx="27" ry="18"/>
</g>
<!-- CLICK_MORE&#45;&gt;ChooseFromList -->
<g id="edge7" class="edge">
<title>CLICK_MORE&#45;&gt;ChooseFromList</title>
<path fill="none" stroke="#555555" stroke-dasharray="1,5" d="M169.96,-498.11C168.16,-468.1 164.29,-403.56 160.43,-339.22"/>
<polygon fill="#555555" stroke="#555555" points="163.88,-339.26 159.79,-329.49 156.89,-339.68 163.88,-339.26"/>
</g>
<!-- start -->
<g id="node11" class="node">
<title>start</title>
<ellipse fill="#ffffff" stroke="#000000" cx="624" cy="-516.48" rx="27" ry="18"/>
</g>
<!-- critter_p_proc -->
<g id="node12" class="node">
<title>critter_p_proc</title>
<ellipse fill="#ffffff" stroke="#000000" cx="696" cy="-516.48" rx="27" ry="18"/>
</g>
<!-- pickup_p_proc -->
<g id="node13" class="node">
<title>pickup_p_proc</title>
<ellipse fill="#ffffff" stroke="#000000" cx="768" cy="-516.48" rx="27" ry="18"/>
</g>
<!-- talk_p_proc -->
<g id="node14" class="node">
<title>talk_p_proc</title>
<ellipse fill="#ffffff" stroke="#000000" cx="840" cy="-516.48" rx="27" ry="18"/>
</g>
<!-- Node001 -->
<g id="node15" class="node">
<title>Node001</title>
<ellipse fill="#ffffff" stroke="#000000" cx="840" cy="-164.23" rx="27" ry="18"/>
</g>
<!-- talk_p_proc&#45;&gt;Node001 -->
<g id="edge8" class="edge">
<title>talk_p_proc&#45;&gt;Node001</title>
<path fill="none" stroke="#555555" stroke-dasharray="1,5" d="M840,-498.11C840,-441.74 840,-263.52 840,-193.69"/>
<polygon fill="#555555" stroke="#555555" points="843.5,-193.7 840,-183.7 836.5,-193.7 843.5,-193.7"/>
</g>
<!-- destroy_p_proc -->
<g id="node16" class="node">
<title>destroy_p_proc</title>
<ellipse fill="#ffffff" stroke="#000000" cx="912" cy="-516.48" rx="27" ry="18"/>
</g>
<!-- look_at_p_proc -->
<g id="node17" class="node">
<title>look_at_p_proc</title>
<ellipse fill="#ffffff" stroke="#000000" cx="1087" cy="-516.48" rx="129.58" ry="30.05"/>
<text text-anchor="middle" x="1087" y="-520.43" font-family="Times,serif" font-size="14.00">You see an ill&#45;tempered</text>
<text text-anchor="middle" x="1087" y="-503.18" font-family="Times,serif" font-size="14.00">brahmin.</text>
</g>
<!-- description_p_proc -->
<g id="node18" class="node">
<title>description_p_proc</title>
<ellipse fill="#ffffff" stroke="#000000" cx="1374" cy="-516.48" rx="139.12" ry="66.64"/>
<text text-anchor="middle" x="1374" y="-546.3" font-family="Times,serif" font-size="14.00">You see a huge,</text>
<text text-anchor="middle" x="1374" y="-529.05" font-family="Times,serif" font-size="14.00">ill&#45;tempered brahmin. Its</text>
<text text-anchor="middle" x="1374" y="-511.8" font-family="Times,serif" font-size="14.00">stomach looks distended,</text>
<text text-anchor="middle" x="1374" y="-494.55" font-family="Times,serif" font-size="14.00">and its eyes are</text>
<text text-anchor="middle" x="1374" y="-477.3" font-family="Times,serif" font-size="14.00">bloodshot.</text>
</g>
<!-- use_skill_on_p_proc -->
<g id="node19" class="node">
<title>use_skill_on_p_proc</title>
<ellipse fill="#ffffff" stroke="#000000" cx="1673" cy="-516.48" rx="141.77" ry="152.03"/>
<text text-anchor="middle" x="1673" y="-606.68" font-family="Times,serif" font-size="14.00">You pulled out something</text>
<text text-anchor="middle" x="1673" y="-589.43" font-family="Times,serif" font-size="14.00">that was lodged in the</text>
<text text-anchor="middle" x="1673" y="-572.18" font-family="Times,serif" font-size="14.00">brahmin&#39;s intestines.</text>
<text text-anchor="middle" x="1673" y="-554.93" font-family="Times,serif" font-size="14.00">&#45;&#45;&#45;</text>
<text text-anchor="middle" x="1673" y="-537.68" font-family="Times,serif" font-size="14.00">You see an ill&#45;tempered</text>
<text text-anchor="middle" x="1673" y="-520.43" font-family="Times,serif" font-size="14.00">brahmin.</text>
<text text-anchor="middle" x="1673" y="-503.18" font-family="Times,serif" font-size="14.00">&#45;&#45;&#45;</text>
<text text-anchor="middle" x="1673" y="-485.93" font-family="Times,serif" font-size="14.00">There&#39;s something lodged</text>
<text text-anchor="middle" x="1673" y="-468.68" font-family="Times,serif" font-size="14.00">in the brahmin&#39;s</text>
<text text-anchor="middle" x="1673" y="-451.43" font-family="Times,serif" font-size="14.00">intestines, but you</text>
<text text-anchor="middle" x="1673" y="-434.18" font-family="Times,serif" font-size="14.00">failed to get a hold of</text>
<text text-anchor="middle" x="1673" y="-416.93" font-family="Times,serif" font-size="14.00">it.</text>
</g>
<!-- damage_p_proc -->
<g id="node20" class="node">
<title>damage_p_proc</title>
<ellipse fill="#ffffff" stroke="#000000" cx="1860" cy="-516.48" rx="27" ry="18"/>
</g>
<!-- map_enter_p_proc -->
<g id="node21" class="node">
<title>map_enter_p_proc</title>
<ellipse fill="#ffffff" stroke="#000000" cx="1932" cy="-516.48" rx="27" ry="18"/>
</g>
<!-- timed_event_p_proc -->
<g id="node22" class="node">
<title>timed_event_p_proc</title>
<ellipse fill="#ffffff" stroke="#000000" cx="2061" cy="-516.48" rx="84.35" ry="18"/>
<text text-anchor="middle" x="2061" y="-511.8" font-family="Times,serif" font-size="14.00">::Hrrnnnnr!!!::</text>
</g>
<!-- push_p_proc -->
<g id="node23" class="node">
<title>push_p_proc</title>
<ellipse fill="#ffffff" stroke="#000000" cx="2190" cy="-516.48" rx="27" ry="18"/>
</g>
<!-- use_obj_on_p_proc -->
<g id="node24" class="node">
<title>use_obj_on_p_proc</title>
<ellipse fill="#ffffff" stroke="#000000" cx="2262" cy="-516.48" rx="27" ry="18"/>
</g>
</g>
</svg>
