<?xml version="1.0" encoding="UTF-8" standalone="no"?>
<!DOCTYPE svg PUBLIC "-//W3C//DTD SVG 1.1//EN"
 "http://www.w3.org/Graphics/SVG/1.1/DTD/svg11.dtd">
<!-- Generated by graphviz version 8.0.5 (0)
 -->
<!-- Title: ncAnounc Pages: 1 -->
<svg width="1312pt" height="921pt"
 viewBox="0.00 0.00 1312.00 920.75" xmlns="http://www.w3.org/2000/svg" xmlns:xlink="http://www.w3.org/1999/xlink">
<g id="graph0" class="graph" transform="scale(1 1) rotate(0) translate(4 916.75)">
<title>ncAnounc</title>
<polygon fill="white" stroke="none" points="-4,4 -4,-916.75 1308,-916.75 1308,4 -4,4"/>
<!-- checkPartyMembersNearDoor -->
<g id="node1" class="node">
<title>checkPartyMembersNearDoor</title>
<ellipse fill="#ffffff" stroke="#000000" cx="27" cy="-492.37" rx="27" ry="18"/>
</g>
<!-- ChooseFromList -->
<g id="node2" class="node">
<title>ChooseFromList</title>
<ellipse fill="#ffffff" stroke="#000000" cx="135" cy="-18" rx="27" ry="18"/>
</g>
<!-- CLICK_PREV -->
<g id="node3" class="node">
<title>CLICK_PREV</title>
<ellipse fill="#ffffff" stroke="#000000" cx="99" cy="-492.37" rx="27" ry="18"/>
</g>
<!-- CLICK_PREV&#45;&gt;ChooseFromList -->
<g id="edge1" class="edge">
<title>CLICK_PREV&#45;&gt;ChooseFromList</title>
<path fill="none" stroke="#555555" stroke-dasharray="1,5" d="M100.32,-474C105.73,-403.03 126.18,-134.69 132.87,-46.95"/>
<polygon fill="#555555" stroke="#555555" points="136.43,-47.27 133.7,-37.03 129.45,-46.74 136.43,-47.27"/>
</g>
<!-- CLICK_0 -->
<g id="node4" class="node">
<title>CLICK_0</title>
<ellipse fill="#ffffff" stroke="#000000" cx="243" cy="-492.37" rx="27" ry="18"/>
</g>
<!-- stored_node -->
<g id="node5" class="node">
<title>stored_node</title>
<ellipse fill="none" stroke="black" cx="387" cy="-18" rx="72.25" ry="18"/>
<text text-anchor="middle" x="387" y="-13.32" font-family="Times,serif" font-size="14.00">stored_node</text>
</g>
<!-- CLICK_0&#45;&gt;stored_node -->
<g id="edge2" class="edge">
<title>CLICK_0&#45;&gt;stored_node</title>
<path fill="none" stroke="#555555" stroke-dasharray="1,5" d="M239.02,-474.25C225.85,-413.2 189.45,-202.87 279,-72 290.49,-55.2 308.89,-43.51 327.26,-35.48"/>
<polygon fill="#555555" stroke="#555555" points="328.46,-38.37 336.43,-31.38 325.84,-31.87 328.46,-38.37"/>
</g>
<!-- CLICK_1 -->
<g id="node6" class="node">
<title>CLICK_1</title>
<ellipse fill="#ffffff" stroke="#000000" cx="315" cy="-492.37" rx="27" ry="18"/>
</g>
<!-- CLICK_1&#45;&gt;stored_node -->
<g id="edge3" class="edge">
<title>CLICK_1&#45;&gt;stored_node</title>
<path fill="none" stroke="#555555" stroke-dasharray="1,5" d="M313.43,-473.94C308.77,-415.23 298.44,-220.06 351,-72 354.41,-62.4 359.98,-52.89 365.74,-44.63"/>
<polygon fill="#555555" stroke="#555555" points="369.06,-47.02 372.21,-36.9 363.44,-42.85 369.06,-47.02"/>
</g>
<!-- CLICK_2 -->
<g id="node7" class="node">
<title>CLICK_2</title>
<ellipse fill="#ffffff" stroke="#000000" cx="387" cy="-492.37" rx="27" ry="18"/>
</g>
<!-- CLICK_2&#45;&gt;stored_node -->
<g id="edge4" class="edge">
<title>CLICK_2&#45;&gt;stored_node</title>
<path fill="none" stroke="#555555" stroke-dasharray="1,5" d="M387,-474C387,-403.03 387,-134.69 387,-46.95"/>
<polygon fill="#555555" stroke="#555555" points="390.5,-47.03 387,-37.03 383.5,-47.03 390.5,-47.03"/>
</g>
<!-- CLICK_3 -->
<g id="node8" class="node">
<title>CLICK_3</title>
<ellipse fill="#ffffff" stroke="#000000" cx="459" cy="-492.37" rx="27" ry="18"/>
</g>
<!-- CLICK_3&#45;&gt;stored_node -->
<g id="edge5" class="edge">
<title>CLICK_3&#45;&gt;stored_node</title>
<path fill="none" stroke="#555555" stroke-dasharray="1,5" d="M460.57,-473.94C465.23,-415.23 475.56,-220.06 423,-72 419.59,-62.4 414.02,-52.89 408.26,-44.63"/>
<polygon fill="#555555" stroke="#555555" points="410.56,-42.85 401.79,-36.9 404.94,-47.02 410.56,-42.85"/>
</g>
<!-- CLICK_4 -->
<g id="node9" class="node">
<title>CLICK_4</title>
<ellipse fill="#ffffff" stroke="#000000" cx="531" cy="-492.37" rx="27" ry="18"/>
</g>
<!-- CLICK_4&#45;&gt;stored_node -->
<g id="edge6" class="edge">
<title>CLICK_4&#45;&gt;stored_node</title>
<path fill="none" stroke="#555555" stroke-dasharray="1,5" d="M534.98,-474.25C548.15,-413.2 584.55,-202.87 495,-72 483.51,-55.2 465.11,-43.51 446.74,-35.48"/>
<polygon fill="#555555" stroke="#555555" points="448.16,-31.87 437.57,-31.38 445.54,-38.37 448.16,-31.87"/>
</g>
<!-- CLICK_MORE -->
<g id="node10" class="node">
<title>CLICK_MORE</title>
<ellipse fill="#ffffff" stroke="#000000" cx="171" cy="-492.37" rx="27" ry="18"/>
</g>
<!-- CLICK_MORE&#45;&gt;ChooseFromList -->
<g id="edge7" class="edge">
<title>CLICK_MORE&#45;&gt;ChooseFromList</title>
<path fill="none" stroke="#555555" stroke-dasharray="1,5" d="M169.68,-474C164.27,-403.03 143.82,-134.69 137.13,-46.95"/>
<polygon fill="#555555" stroke="#555555" points="140.55,-46.74 136.3,-37.03 133.57,-47.27 140.55,-46.74"/>
</g>
<!-- start -->
<g id="node11" class="node">
<title>start</title>
<ellipse fill="#ffffff" stroke="#000000" cx="603" cy="-492.37" rx="27" ry="18"/>
</g>
<!-- critter_p_proc -->
<g id="node12" class="node">
<title>critter_p_proc</title>
<ellipse fill="#ffffff" stroke="#000000" cx="675" cy="-492.37" rx="27" ry="18"/>
</g>
<!-- destroy_p_proc -->
<g id="node13" class="node">
<title>destroy_p_proc</title>
<ellipse fill="#ffffff" stroke="#000000" cx="747" cy="-492.37" rx="27" ry="18"/>
</g>
<!-- map_enter_p_proc -->
<g id="node14" class="node">
<title>map_enter_p_proc</title>
<ellipse fill="#ffffff" stroke="#000000" cx="819" cy="-492.37" rx="27" ry="18"/>
</g>
<!-- timed_event_p_proc -->
<g id="node15" class="node">
<title>timed_event_p_proc</title>
<ellipse fill="#ffffff" stroke="#000000" cx="1012" cy="-492.37" rx="147.61" ry="420.37"/>
<text text-anchor="middle" x="1012" y="-772.32" font-family="Times,serif" font-size="14.00">Ladies and Gentlemen!</text>
<text text-anchor="middle" x="1012" y="-755.07" font-family="Times,serif" font-size="14.00">&#45;&#45;&#45;</text>
<text text-anchor="middle" x="1012" y="-737.82" font-family="Times,serif" font-size="14.00">Boys and Girls!</text>
<text text-anchor="middle" x="1012" y="-720.57" font-family="Times,serif" font-size="14.00">&#45;&#45;&#45;</text>
<text text-anchor="middle" x="1012" y="-703.32" font-family="Times,serif" font-size="14.00">In this corner, the</text>
<text text-anchor="middle" x="1012" y="-686.07" font-family="Times,serif" font-size="14.00">challenger, weighing in</text>
<text text-anchor="middle" x="1012" y="-668.82" font-family="Times,serif" font-size="14.00">at</text>
<text text-anchor="middle" x="1012" y="-651.57" font-family="Times,serif" font-size="14.00">&#45;&#45;&#45;</text>
<text text-anchor="middle" x="1012" y="-634.32" font-family="Times,serif" font-size="14.00">pounds, fresh from the</text>
<text text-anchor="middle" x="1012" y="-617.07" font-family="Times,serif" font-size="14.00">wasteland and new to New</text>
<text text-anchor="middle" x="1012" y="-599.82" font-family="Times,serif" font-size="14.00">Reno,</text>
<text text-anchor="middle" x="1012" y="-582.57" font-family="Times,serif" font-size="14.00">&#45;&#45;&#45;</text>
<text text-anchor="middle" x="1012" y="-565.32" font-family="Times,serif" font-size="14.00">!</text>
<text text-anchor="middle" x="1012" y="-548.07" font-family="Times,serif" font-size="14.00">&#45;&#45;&#45;</text>
<text text-anchor="middle" x="1012" y="-530.82" font-family="Times,serif" font-size="14.00">And in this</text>
<text text-anchor="middle" x="1012" y="-513.57" font-family="Times,serif" font-size="14.00">corner...weighing in at</text>
<text text-anchor="middle" x="1012" y="-496.32" font-family="Times,serif" font-size="14.00">&#45;&#45;&#45;</text>
<text text-anchor="middle" x="1012" y="-479.07" font-family="Times,serif" font-size="14.00">pounds, you KNOW him,</text>
<text text-anchor="middle" x="1012" y="-461.82" font-family="Times,serif" font-size="14.00">you LOVE him...</text>
<text text-anchor="middle" x="1012" y="-444.57" font-family="Times,serif" font-size="14.00">&#45;&#45;&#45;</text>
<text text-anchor="middle" x="1012" y="-427.32" font-family="Times,serif" font-size="14.00">!</text>
<text text-anchor="middle" x="1012" y="-410.07" font-family="Times,serif" font-size="14.00">&#45;&#45;&#45;</text>
<text text-anchor="middle" x="1012" y="-392.82" font-family="Times,serif" font-size="14.00">And the wiiiiinnnner</text>
<text text-anchor="middle" x="1012" y="-375.57" font-family="Times,serif" font-size="14.00">is...</text>
<text text-anchor="middle" x="1012" y="-358.32" font-family="Times,serif" font-size="14.00">&#45;&#45;&#45;</text>
<text text-anchor="middle" x="1012" y="-341.07" font-family="Times,serif" font-size="14.00">...with a score of </text>
<text text-anchor="middle" x="1012" y="-323.82" font-family="Times,serif" font-size="14.00">&#45;&#45;&#45;</text>
<text text-anchor="middle" x="1012" y="-306.57" font-family="Times,serif" font-size="14.00"> to </text>
<text text-anchor="middle" x="1012" y="-289.32" font-family="Times,serif" font-size="14.00">&#45;&#45;&#45;</text>
<text text-anchor="middle" x="1012" y="-272.07" font-family="Times,serif" font-size="14.00">...</text>
<text text-anchor="middle" x="1012" y="-254.82" font-family="Times,serif" font-size="14.00">&#45;&#45;&#45;</text>
<text text-anchor="middle" x="1012" y="-237.57" font-family="Times,serif" font-size="14.00">!!!</text>
<text text-anchor="middle" x="1012" y="-220.32" font-family="Times,serif" font-size="14.00">&#45;&#45;&#45;</text>
<text text-anchor="middle" x="1012" y="-203.07" font-family="Times,serif" font-size="14.00">!!!</text>
</g>
<!-- map_update_p_proc -->
<g id="node16" class="node">
<title>map_update_p_proc</title>
<ellipse fill="#ffffff" stroke="#000000" cx="1205" cy="-492.37" rx="27" ry="18"/>
</g>
<!-- combat_p_proc -->
<g id="node17" class="node">
<title>combat_p_proc</title>
<ellipse fill="#ffffff" stroke="#000000" cx="1277" cy="-492.37" rx="27" ry="18"/>
</g>
</g>
</svg>
