<?xml version="1.0" encoding="UTF-8" standalone="no"?>
<!DOCTYPE svg PUBLIC "-//W3C//DTD SVG 1.1//EN"
 "http://www.w3.org/Graphics/SVG/1.1/DTD/svg11.dtd">
<!-- Generated by graphviz version 8.0.5 (0)
 -->
<!-- Title: ncComedi Pages: 1 -->
<svg width="2447pt" height="481pt"
 viewBox="0.00 0.00 2447.00 481.35" xmlns="http://www.w3.org/2000/svg" xmlns:xlink="http://www.w3.org/1999/xlink">
<g id="graph0" class="graph" transform="scale(1 1) rotate(0) translate(4 477.35)">
<title>ncComedi</title>
<polygon fill="white" stroke="none" points="-4,4 -4,-477.35 2443,-477.35 2443,4 -4,4"/>
<!-- checkPartyMembersNearDoor -->
<g id="node1" class="node">
<title>checkPartyMembersNearDoor</title>
<ellipse fill="#ffffff" stroke="#000000" cx="27" cy="-296.92" rx="27" ry="18"/>
</g>
<!-- ChooseFromList -->
<g id="node2" class="node">
<title>ChooseFromList</title>
<ellipse fill="#ffffff" stroke="#000000" cx="148" cy="-42.25" rx="143.37" ry="42.25"/>
<text text-anchor="middle" x="148" y="-54.82" font-family="Times,serif" font-size="14.00">You see a crappy stand&#45;up</text>
<text text-anchor="middle" x="148" y="-37.57" font-family="Times,serif" font-size="14.00">comic. He&#39;s nervous, and</text>
<text text-anchor="middle" x="148" y="-20.32" font-family="Times,serif" font-size="14.00">it shows.</text>
</g>
<!-- CLICK_PREV -->
<g id="node3" class="node">
<title>CLICK_PREV</title>
<ellipse fill="#ffffff" stroke="#000000" cx="99" cy="-296.92" rx="27" ry="18"/>
</g>
<!-- CLICK_PREV&#45;&gt;ChooseFromList -->
<g id="edge1" class="edge">
<title>CLICK_PREV&#45;&gt;ChooseFromList</title>
<path fill="none" stroke="#555555" stroke-dasharray="1,5" d="M102.29,-278.95C109.47,-241.95 126.77,-152.71 137.91,-95.28"/>
<polygon fill="#555555" stroke="#555555" points="141.52,-96.07 139.98,-85.59 134.64,-94.74 141.52,-96.07"/>
</g>
<!-- CLICK_0 -->
<g id="node4" class="node">
<title>CLICK_0</title>
<ellipse fill="#ffffff" stroke="#000000" cx="265" cy="-296.92" rx="27" ry="18"/>
</g>
<!-- stored_node -->
<g id="node5" class="node">
<title>stored_node</title>
<ellipse fill="none" stroke="black" cx="409" cy="-42.25" rx="72.25" ry="18"/>
<text text-anchor="middle" x="409" y="-37.57" font-family="Times,serif" font-size="14.00">stored_node</text>
</g>
<!-- CLICK_0&#45;&gt;stored_node -->
<g id="edge2" class="edge">
<title>CLICK_0&#45;&gt;stored_node</title>
<path fill="none" stroke="#555555" stroke-dasharray="1,5" d="M264.53,-278.68C264.43,-245.36 268.23,-170.95 301,-120.5 316.88,-96.06 343.42,-76.92 366.21,-63.8"/>
<polygon fill="#555555" stroke="#555555" points="367.65,-66.45 374.71,-58.55 364.27,-60.32 367.65,-66.45"/>
</g>
<!-- CLICK_1 -->
<g id="node6" class="node">
<title>CLICK_1</title>
<ellipse fill="#ffffff" stroke="#000000" cx="337" cy="-296.92" rx="27" ry="18"/>
</g>
<!-- CLICK_1&#45;&gt;stored_node -->
<g id="edge3" class="edge">
<title>CLICK_1&#45;&gt;stored_node</title>
<path fill="none" stroke="#555555" stroke-dasharray="1,5" d="M339.18,-278.64C343.5,-246.78 354.36,-176.88 373,-120.5 378.74,-103.15 387.32,-84.56 394.66,-69.97"/>
<polygon fill="#555555" stroke="#555555" points="398.03,-72.06 399.5,-61.57 391.81,-68.86 398.03,-72.06"/>
</g>
<!-- CLICK_2 -->
<g id="node7" class="node">
<title>CLICK_2</title>
<ellipse fill="#ffffff" stroke="#000000" cx="409" cy="-296.92" rx="27" ry="18"/>
</g>
<!-- CLICK_2&#45;&gt;stored_node -->
<g id="edge4" class="edge">
<title>CLICK_2&#45;&gt;stored_node</title>
<path fill="none" stroke="#555555" stroke-dasharray="1,5" d="M409,-278.56C409,-235.64 409,-124.27 409,-71.62"/>
<polygon fill="#555555" stroke="#555555" points="412.5,-71.74 409,-61.74 405.5,-71.74 412.5,-71.74"/>
</g>
<!-- CLICK_3 -->
<g id="node8" class="node">
<title>CLICK_3</title>
<ellipse fill="#ffffff" stroke="#000000" cx="481" cy="-296.92" rx="27" ry="18"/>
</g>
<!-- CLICK_3&#45;&gt;stored_node -->
<g id="edge5" class="edge">
<title>CLICK_3&#45;&gt;stored_node</title>
<path fill="none" stroke="#555555" stroke-dasharray="1,5" d="M478.82,-278.64C474.5,-246.78 463.64,-176.88 445,-120.5 439.26,-103.15 430.68,-84.56 423.34,-69.97"/>
<polygon fill="#555555" stroke="#555555" points="426.19,-68.86 418.5,-61.57 419.97,-72.06 426.19,-68.86"/>
</g>
<!-- CLICK_4 -->
<g id="node9" class="node">
<title>CLICK_4</title>
<ellipse fill="#ffffff" stroke="#000000" cx="553" cy="-296.92" rx="27" ry="18"/>
</g>
<!-- CLICK_4&#45;&gt;stored_node -->
<g id="edge6" class="edge">
<title>CLICK_4&#45;&gt;stored_node</title>
<path fill="none" stroke="#555555" stroke-dasharray="1,5" d="M553.47,-278.68C553.57,-245.36 549.77,-170.95 517,-120.5 501.12,-96.06 474.58,-76.92 451.79,-63.8"/>
<polygon fill="#555555" stroke="#555555" points="453.73,-60.32 443.29,-58.55 450.35,-66.45 453.73,-60.32"/>
</g>
<!-- CLICK_MORE -->
<g id="node10" class="node">
<title>CLICK_MORE</title>
<ellipse fill="#ffffff" stroke="#000000" cx="171" cy="-296.92" rx="27" ry="18"/>
</g>
<!-- CLICK_MORE&#45;&gt;ChooseFromList -->
<g id="edge7" class="edge">
<title>CLICK_MORE&#45;&gt;ChooseFromList</title>
<path fill="none" stroke="#555555" stroke-dasharray="1,5" d="M169.42,-278.56C166.03,-241.37 157.97,-152.79 152.76,-95.55"/>
<polygon fill="#555555" stroke="#555555" points="156.18,-95.53 151.79,-85.89 149.21,-96.17 156.18,-95.53"/>
</g>
<!-- start -->
<g id="node11" class="node">
<title>start</title>
<ellipse fill="#ffffff" stroke="#000000" cx="625" cy="-296.92" rx="27" ry="18"/>
</g>
<!-- critter_p_proc -->
<g id="node12" class="node">
<title>critter_p_proc</title>
<ellipse fill="#ffffff" stroke="#000000" cx="697" cy="-296.92" rx="27" ry="18"/>
</g>
<!-- pickup_p_proc -->
<g id="node13" class="node">
<title>pickup_p_proc</title>
<ellipse fill="#ffffff" stroke="#000000" cx="769" cy="-296.92" rx="27" ry="18"/>
</g>
<!-- talk_p_proc -->
<g id="node14" class="node">
<title>talk_p_proc</title>
<ellipse fill="#ffffff" stroke="#000000" cx="926" cy="-296.92" rx="111.55" ry="42.25"/>
<text text-anchor="middle" x="926" y="-309.5" font-family="Times,serif" font-size="14.00">He&#39;s too busy in his</text>
<text text-anchor="middle" x="926" y="-292.25" font-family="Times,serif" font-size="14.00">routine to talk right</text>
<text text-anchor="middle" x="926" y="-275" font-family="Times,serif" font-size="14.00">now.</text>
</g>
<!-- destroy_p_proc -->
<g id="node15" class="node">
<title>destroy_p_proc</title>
<ellipse fill="#ffffff" stroke="#000000" cx="1083" cy="-296.92" rx="27" ry="18"/>
</g>
<!-- look_at_p_proc -->
<g id="node16" class="node">
<title>look_at_p_proc</title>
<ellipse fill="#ffffff" stroke="#000000" cx="1240" cy="-296.92" rx="112.24" ry="18"/>
<text text-anchor="middle" x="1240" y="-292.25" font-family="Times,serif" font-size="14.00">You see a comedian.</text>
</g>
<!-- description_p_proc -->
<g id="node17" class="node">
<title>description_p_proc</title>
<ellipse fill="#ffffff" stroke="#000000" cx="1514" cy="-296.92" rx="143.37" ry="42.25"/>
<text text-anchor="middle" x="1514" y="-309.5" font-family="Times,serif" font-size="14.00">You see a crappy stand&#45;up</text>
<text text-anchor="middle" x="1514" y="-292.25" font-family="Times,serif" font-size="14.00">comic. He&#39;s nervous, and</text>
<text text-anchor="middle" x="1514" y="-275" font-family="Times,serif" font-size="14.00">it shows.</text>
</g>
<!-- use_skill_on_p_proc -->
<g id="node18" class="node">
<title>use_skill_on_p_proc</title>
<ellipse fill="#ffffff" stroke="#000000" cx="1702" cy="-296.92" rx="27" ry="18"/>
</g>
<!-- damage_p_proc -->
<g id="node19" class="node">
<title>damage_p_proc</title>
<ellipse fill="#ffffff" stroke="#000000" cx="1774" cy="-296.92" rx="27" ry="18"/>
</g>
<!-- Node998 -->
<g id="node20" class="node">
<title>Node998</title>
<ellipse fill="#ffffff" stroke="#000000" cx="1774" cy="-42.25" rx="27" ry="18"/>
</g>
<!-- damage_p_proc&#45;&gt;Node998 -->
<g id="edge8" class="edge">
<title>damage_p_proc&#45;&gt;Node998</title>
<path fill="none" stroke="#555555" stroke-dasharray="1,5" d="M1774,-278.56C1774,-235.64 1774,-124.27 1774,-71.62"/>
<polygon fill="#555555" stroke="#555555" points="1777.5,-71.74 1774,-61.74 1770.5,-71.74 1777.5,-71.74"/>
</g>
<!-- map_enter_p_proc -->
<g id="node21" class="node">
<title>map_enter_p_proc</title>
<ellipse fill="#ffffff" stroke="#000000" cx="1846" cy="-296.92" rx="27" ry="18"/>
</g>
<!-- map_exit_p_proc -->
<g id="node22" class="node">
<title>map_exit_p_proc</title>
<ellipse fill="#ffffff" stroke="#000000" cx="1918" cy="-296.92" rx="27" ry="18"/>
</g>
<!-- timed_event_p_proc -->
<g id="node23" class="node">
<title>timed_event_p_proc</title>
<ellipse fill="#ffffff" stroke="#000000" cx="2093" cy="-296.92" rx="130.11" ry="176.42"/>
<text text-anchor="middle" x="2093" y="-404.37" font-family="Times,serif" font-size="14.00">Well, Myron, you ARE a</text>
<text text-anchor="middle" x="2093" y="-387.12" font-family="Times,serif" font-size="14.00">dork.</text>
<text text-anchor="middle" x="2093" y="-369.87" font-family="Times,serif" font-size="14.00">&#45;&#45;&#45;</text>
<text text-anchor="middle" x="2093" y="-352.62" font-family="Times,serif" font-size="14.00">You suck!</text>
<text text-anchor="middle" x="2093" y="-335.37" font-family="Times,serif" font-size="14.00">&#45;&#45;&#45;</text>
<text text-anchor="middle" x="2093" y="-318.12" font-family="Times,serif" font-size="14.00">You suck!</text>
<text text-anchor="middle" x="2093" y="-300.87" font-family="Times,serif" font-size="14.00">&#45;&#45;&#45;</text>
<text text-anchor="middle" x="2093" y="-283.62" font-family="Times,serif" font-size="14.00">You suck!</text>
<text text-anchor="middle" x="2093" y="-266.37" font-family="Times,serif" font-size="14.00">&#45;&#45;&#45;</text>
<text text-anchor="middle" x="2093" y="-249.12" font-family="Times,serif" font-size="14.00">Booo!</text>
<text text-anchor="middle" x="2093" y="-231.87" font-family="Times,serif" font-size="14.00">&#45;&#45;&#45;</text>
<text text-anchor="middle" x="2093" y="-214.62" font-family="Times,serif" font-size="14.00">Booo!</text>
<text text-anchor="middle" x="2093" y="-197.37" font-family="Times,serif" font-size="14.00">&#45;&#45;&#45;</text>
<text text-anchor="middle" x="2093" y="-180.12" font-family="Times,serif" font-size="14.00">Booo!</text>
</g>
<!-- combat_p_proc -->
<g id="node24" class="node">
<title>combat_p_proc</title>
<ellipse fill="#ffffff" stroke="#000000" cx="2268" cy="-296.92" rx="27" ry="18"/>
</g>
<!-- map_update_p_proc -->
<g id="node25" class="node">
<title>map_update_p_proc</title>
<ellipse fill="#ffffff" stroke="#000000" cx="2340" cy="-296.92" rx="27" ry="18"/>
</g>
<!-- Node999 -->
<g id="node26" class="node">
<title>Node999</title>
<ellipse fill="#ffffff" stroke="#000000" cx="2412" cy="-296.92" rx="27" ry="18"/>
</g>
</g>
</svg>
