<?xml version="1.0" encoding="UTF-8" standalone="no"?>
<!DOCTYPE svg PUBLIC "-//W3C//DTD SVG 1.1//EN"
 "http://www.w3.org/Graphics/SVG/1.1/DTD/svg11.dtd">
<!-- Generated by graphviz version 8.0.5 (0)
 -->
<!-- Title: ncHollyf Pages: 1 -->
<svg width="1888pt" height="408pt"
 viewBox="0.00 0.00 1888.00 408.16" xmlns="http://www.w3.org/2000/svg" xmlns:xlink="http://www.w3.org/1999/xlink">
<g id="graph0" class="graph" transform="scale(1 1) rotate(0) translate(4 404.16)">
<title>ncHollyf</title>
<polygon fill="white" stroke="none" points="-4,4 -4,-404.16 1884,-404.16 1884,4 -4,4"/>
<!-- checkPartyMembersNearDoor -->
<g id="node1" class="node">
<title>checkPartyMembersNearDoor</title>
<ellipse fill="#ffffff" stroke="#000000" cx="27" cy="-333.52" rx="27" ry="18"/>
</g>
<!-- ChooseFromList -->
<g id="node2" class="node">
<title>ChooseFromList</title>
<ellipse fill="#ffffff" stroke="#000000" cx="148" cy="-115.44" rx="144.43" ry="115.44"/>
<text text-anchor="middle" x="148" y="-179.76" font-family="Times,serif" font-size="14.00">You see a squat black man</text>
<text text-anchor="middle" x="148" y="-162.51" font-family="Times,serif" font-size="14.00">with a thick square jaw.</text>
<text text-anchor="middle" x="148" y="-145.26" font-family="Times,serif" font-size="14.00">His ears look like they</text>
<text text-anchor="middle" x="148" y="-128.01" font-family="Times,serif" font-size="14.00">have been horribly</text>
<text text-anchor="middle" x="148" y="-110.76" font-family="Times,serif" font-size="14.00">savaged.</text>
<text text-anchor="middle" x="148" y="-93.51" font-family="Times,serif" font-size="14.00">&#45;&#45;&#45;</text>
<text text-anchor="middle" x="148" y="-76.26" font-family="Times,serif" font-size="14.00">His ears look like they</text>
<text text-anchor="middle" x="148" y="-59.01" font-family="Times,serif" font-size="14.00">have been horribly</text>
<text text-anchor="middle" x="148" y="-41.76" font-family="Times,serif" font-size="14.00">savaged.</text>
</g>
<!-- CLICK_PREV -->
<g id="node3" class="node">
<title>CLICK_PREV</title>
<ellipse fill="#ffffff" stroke="#000000" cx="99" cy="-333.52" rx="27" ry="18"/>
</g>
<!-- CLICK_PREV&#45;&gt;ChooseFromList -->
<g id="edge1" class="edge">
<title>CLICK_PREV&#45;&gt;ChooseFromList</title>
<path fill="none" stroke="#555555" stroke-dasharray="1,5" d="M102.84,-315.56C106.75,-298.34 113.18,-270 119.97,-240.04"/>
<polygon fill="#555555" stroke="#555555" points="123.59,-240.91 122.39,-230.38 116.76,-239.36 123.59,-240.91"/>
</g>
<!-- CLICK_0 -->
<g id="node4" class="node">
<title>CLICK_0</title>
<ellipse fill="#ffffff" stroke="#000000" cx="265" cy="-333.52" rx="27" ry="18"/>
</g>
<!-- stored_node -->
<g id="node5" class="node">
<title>stored_node</title>
<ellipse fill="none" stroke="black" cx="409" cy="-115.44" rx="72.25" ry="18"/>
<text text-anchor="middle" x="409" y="-110.76" font-family="Times,serif" font-size="14.00">stored_node</text>
</g>
<!-- CLICK_0&#45;&gt;stored_node -->
<g id="edge2" class="edge">
<title>CLICK_0&#45;&gt;stored_node</title>
<path fill="none" stroke="#555555" stroke-dasharray="1,5" d="M273.34,-316.01C280.32,-302.54 290.75,-283.15 301,-266.87 329.57,-221.51 366.75,-171.41 389.19,-142"/>
<polygon fill="#555555" stroke="#555555" points="392.35,-144.63 395.66,-134.56 386.8,-140.37 392.35,-144.63"/>
</g>
<!-- CLICK_1 -->
<g id="node6" class="node">
<title>CLICK_1</title>
<ellipse fill="#ffffff" stroke="#000000" cx="337" cy="-333.52" rx="27" ry="18"/>
</g>
<!-- CLICK_1&#45;&gt;stored_node -->
<g id="edge3" class="edge">
<title>CLICK_1&#45;&gt;stored_node</title>
<path fill="none" stroke="#555555" stroke-dasharray="1,5" d="M342.65,-315.56C355.05,-278.34 384.76,-189.18 399.86,-143.87"/>
<polygon fill="#555555" stroke="#555555" points="403.44,-145.2 403.28,-134.61 396.8,-142.99 403.44,-145.2"/>
</g>
<!-- CLICK_2 -->
<g id="node7" class="node">
<title>CLICK_2</title>
<ellipse fill="#ffffff" stroke="#000000" cx="409" cy="-333.52" rx="27" ry="18"/>
</g>
<!-- CLICK_2&#45;&gt;stored_node -->
<g id="edge4" class="edge">
<title>CLICK_2&#45;&gt;stored_node</title>
<path fill="none" stroke="#555555" stroke-dasharray="1,5" d="M409,-315.2C409,-277.98 409,-190.07 409,-144.66"/>
<polygon fill="#555555" stroke="#555555" points="412.5,-144.84 409,-134.84 405.5,-144.84 412.5,-144.84"/>
</g>
<!-- CLICK_3 -->
<g id="node8" class="node">
<title>CLICK_3</title>
<ellipse fill="#ffffff" stroke="#000000" cx="481" cy="-333.52" rx="27" ry="18"/>
</g>
<!-- CLICK_3&#45;&gt;stored_node -->
<g id="edge5" class="edge">
<title>CLICK_3&#45;&gt;stored_node</title>
<path fill="none" stroke="#555555" stroke-dasharray="1,5" d="M475.35,-315.56C462.95,-278.34 433.24,-189.18 418.14,-143.87"/>
<polygon fill="#555555" stroke="#555555" points="421.2,-142.99 414.72,-134.61 414.56,-145.2 421.2,-142.99"/>
</g>
<!-- CLICK_4 -->
<g id="node9" class="node">
<title>CLICK_4</title>
<ellipse fill="#ffffff" stroke="#000000" cx="553" cy="-333.52" rx="27" ry="18"/>
</g>
<!-- CLICK_4&#45;&gt;stored_node -->
<g id="edge6" class="edge">
<title>CLICK_4&#45;&gt;stored_node</title>
<path fill="none" stroke="#555555" stroke-dasharray="1,5" d="M544.66,-316.01C537.68,-302.54 527.25,-283.15 517,-266.87 488.43,-221.51 451.25,-171.41 428.81,-142"/>
<polygon fill="#555555" stroke="#555555" points="431.2,-140.37 422.34,-134.56 425.65,-144.63 431.2,-140.37"/>
</g>
<!-- CLICK_MORE -->
<g id="node10" class="node">
<title>CLICK_MORE</title>
<ellipse fill="#ffffff" stroke="#000000" cx="171" cy="-333.52" rx="27" ry="18"/>
</g>
<!-- CLICK_MORE&#45;&gt;ChooseFromList -->
<g id="edge7" class="edge">
<title>CLICK_MORE&#45;&gt;ChooseFromList</title>
<path fill="none" stroke="#555555" stroke-dasharray="1,5" d="M169.16,-315.2C167.35,-298.25 164.43,-270.79 161.33,-241.63"/>
<polygon fill="#555555" stroke="#555555" points="164.71,-241.39 160.18,-231.82 157.75,-242.13 164.71,-241.39"/>
</g>
<!-- start -->
<g id="node11" class="node">
<title>start</title>
<ellipse fill="#ffffff" stroke="#000000" cx="625" cy="-333.52" rx="27" ry="18"/>
</g>
<!-- critter_p_proc -->
<g id="node12" class="node">
<title>critter_p_proc</title>
<ellipse fill="#ffffff" stroke="#000000" cx="697" cy="-333.52" rx="27" ry="18"/>
</g>
<!-- pickup_p_proc -->
<g id="node13" class="node">
<title>pickup_p_proc</title>
<ellipse fill="#ffffff" stroke="#000000" cx="769" cy="-333.52" rx="27" ry="18"/>
</g>
<!-- talk_p_proc -->
<g id="node14" class="node">
<title>talk_p_proc</title>
<ellipse fill="#ffffff" stroke="#000000" cx="841" cy="-333.52" rx="27" ry="18"/>
</g>
<!-- Node001 -->
<g id="node15" class="node">
<title>Node001</title>
<ellipse fill="#ffffff" stroke="#000000" cx="841" cy="-115.44" rx="27" ry="18"/>
</g>
<!-- talk_p_proc&#45;&gt;Node001 -->
<g id="edge8" class="edge">
<title>talk_p_proc&#45;&gt;Node001</title>
<path fill="none" stroke="#555555" stroke-dasharray="1,5" d="M841,-315.2C841,-277.98 841,-190.07 841,-144.66"/>
<polygon fill="#555555" stroke="#555555" points="844.5,-144.84 841,-134.84 837.5,-144.84 844.5,-144.84"/>
</g>
<!-- destroy_p_proc -->
<g id="node16" class="node">
<title>destroy_p_proc</title>
<ellipse fill="#ffffff" stroke="#000000" cx="913" cy="-333.52" rx="27" ry="18"/>
</g>
<!-- look_at_p_proc -->
<g id="node17" class="node">
<title>look_at_p_proc</title>
<ellipse fill="#ffffff" stroke="#000000" cx="1050" cy="-333.52" rx="91.72" ry="18"/>
<text text-anchor="middle" x="1050" y="-328.84" font-family="Times,serif" font-size="14.00">You see a boxer.</text>
</g>
<!-- description_p_proc -->
<g id="node18" class="node">
<title>description_p_proc</title>
<ellipse fill="#ffffff" stroke="#000000" cx="1304" cy="-333.52" rx="144.43" ry="66.64"/>
<text text-anchor="middle" x="1304" y="-363.34" font-family="Times,serif" font-size="14.00">You see a squat black man</text>
<text text-anchor="middle" x="1304" y="-346.09" font-family="Times,serif" font-size="14.00">with a thick square jaw.</text>
<text text-anchor="middle" x="1304" y="-328.84" font-family="Times,serif" font-size="14.00">His ears look like they</text>
<text text-anchor="middle" x="1304" y="-311.59" font-family="Times,serif" font-size="14.00">have been horribly</text>
<text text-anchor="middle" x="1304" y="-294.34" font-family="Times,serif" font-size="14.00">savaged.</text>
</g>
<!-- use_skill_on_p_proc -->
<g id="node19" class="node">
<title>use_skill_on_p_proc</title>
<ellipse fill="#ffffff" stroke="#000000" cx="1493" cy="-333.52" rx="27" ry="18"/>
</g>
<!-- damage_p_proc -->
<g id="node20" class="node">
<title>damage_p_proc</title>
<ellipse fill="#ffffff" stroke="#000000" cx="1565" cy="-333.52" rx="27" ry="18"/>
</g>
<!-- map_enter_p_proc -->
<g id="node21" class="node">
<title>map_enter_p_proc</title>
<ellipse fill="#ffffff" stroke="#000000" cx="1637" cy="-333.52" rx="27" ry="18"/>
</g>
<!-- timed_event_p_proc -->
<g id="node22" class="node">
<title>timed_event_p_proc</title>
<ellipse fill="#ffffff" stroke="#000000" cx="1709" cy="-333.52" rx="27" ry="18"/>
</g>
<!-- Node998 -->
<g id="node23" class="node">
<title>Node998</title>
<ellipse fill="#ffffff" stroke="#000000" cx="1781" cy="-333.52" rx="27" ry="18"/>
</g>
<!-- Node999 -->
<g id="node24" class="node">
<title>Node999</title>
<ellipse fill="#ffffff" stroke="#000000" cx="1853" cy="-333.52" rx="27" ry="18"/>
</g>
</g>
</svg>
