<?xml version="1.0" encoding="UTF-8" standalone="no"?>
<!DOCTYPE svg PUBLIC "-//W3C//DTD SVG 1.1//EN"
 "http://www.w3.org/Graphics/SVG/1.1/DTD/svg11.dtd">
<!-- Generated by graphviz version 8.0.5 (0)
 -->
<!-- Title: ncWillie Pages: 1 -->
<svg width="1946pt" height="213pt"
 viewBox="0.00 0.00 1946.00 213.00" xmlns="http://www.w3.org/2000/svg" xmlns:xlink="http://www.w3.org/1999/xlink">
<g id="graph0" class="graph" transform="scale(1 1) rotate(0) translate(4 209)">
<title>ncWillie</title>
<polygon fill="white" stroke="none" points="-4,4 -4,-209 1942,-209 1942,4 -4,4"/>
<!-- checkPartyMembersNearDoor -->
<g id="node1" class="node">
<title>checkPartyMembersNearDoor</title>
<ellipse fill="#ffffff" stroke="#000000" cx="27" cy="-162.75" rx="27" ry="18"/>
</g>
<!-- ChooseFromList -->
<g id="node2" class="node">
<title>ChooseFromList</title>
<ellipse fill="#ffffff" stroke="#000000" cx="135" cy="-42.25" rx="123.21" ry="42.25"/>
<text text-anchor="middle" x="135" y="-54.82" font-family="Times,serif" font-size="14.00">You see an old, stinky,</text>
<text text-anchor="middle" x="135" y="-37.57" font-family="Times,serif" font-size="14.00">crusty ghoul. And boy,</text>
<text text-anchor="middle" x="135" y="-20.32" font-family="Times,serif" font-size="14.00">does he SMELL.</text>
</g>
<!-- CLICK_PREV -->
<g id="node3" class="node">
<title>CLICK_PREV</title>
<ellipse fill="#ffffff" stroke="#000000" cx="99" cy="-162.75" rx="27" ry="18"/>
</g>
<!-- CLICK_PREV&#45;&gt;ChooseFromList -->
<g id="edge1" class="edge">
<title>CLICK_PREV&#45;&gt;ChooseFromList</title>
<path fill="none" stroke="#555555" stroke-dasharray="1,5" d="M104.16,-144.77C108.12,-131.72 113.82,-112.95 119.25,-95.1"/>
<polygon fill="#555555" stroke="#555555" points="122.84,-96.33 122.39,-85.74 116.14,-94.29 122.84,-96.33"/>
</g>
<!-- CLICK_0 -->
<g id="node4" class="node">
<title>CLICK_0</title>
<ellipse fill="#ffffff" stroke="#000000" cx="243" cy="-162.75" rx="27" ry="18"/>
</g>
<!-- stored_node -->
<g id="node5" class="node">
<title>stored_node</title>
<ellipse fill="none" stroke="black" cx="387" cy="-42.25" rx="72.25" ry="18"/>
<text text-anchor="middle" x="387" y="-37.57" font-family="Times,serif" font-size="14.00">stored_node</text>
</g>
<!-- CLICK_0&#45;&gt;stored_node -->
<g id="edge2" class="edge">
<title>CLICK_0&#45;&gt;stored_node</title>
<path fill="none" stroke="#555555" stroke-dasharray="1,5" d="M254.88,-146.48C261.55,-138.35 270.27,-128.42 279,-120.5 301.7,-99.89 329.97,-79.85 351.88,-65.34"/>
<polygon fill="#555555" stroke="#555555" points="353.4,-67.88 359.86,-59.48 349.57,-62.02 353.4,-67.88"/>
</g>
<!-- CLICK_1 -->
<g id="node6" class="node">
<title>CLICK_1</title>
<ellipse fill="#ffffff" stroke="#000000" cx="315" cy="-162.75" rx="27" ry="18"/>
</g>
<!-- CLICK_1&#45;&gt;stored_node -->
<g id="edge3" class="edge">
<title>CLICK_1&#45;&gt;stored_node</title>
<path fill="none" stroke="#555555" stroke-dasharray="1,5" d="M324.71,-145.77C336.53,-126.31 356.67,-93.16 370.84,-69.84"/>
<polygon fill="#555555" stroke="#555555" points="374.31,-71.88 376.51,-61.51 368.33,-68.24 374.31,-71.88"/>
</g>
<!-- CLICK_2 -->
<g id="node7" class="node">
<title>CLICK_2</title>
<ellipse fill="#ffffff" stroke="#000000" cx="387" cy="-162.75" rx="27" ry="18"/>
</g>
<!-- CLICK_2&#45;&gt;stored_node -->
<g id="edge4" class="edge">
<title>CLICK_2&#45;&gt;stored_node</title>
<path fill="none" stroke="#555555" stroke-dasharray="1,5" d="M387,-144.26C387,-125.08 387,-94 387,-71.37"/>
<polygon fill="#555555" stroke="#555555" points="390.5,-71.42 387,-61.42 383.5,-71.42 390.5,-71.42"/>
</g>
<!-- CLICK_3 -->
<g id="node8" class="node">
<title>CLICK_3</title>
<ellipse fill="#ffffff" stroke="#000000" cx="459" cy="-162.75" rx="27" ry="18"/>
</g>
<!-- CLICK_3&#45;&gt;stored_node -->
<g id="edge5" class="edge">
<title>CLICK_3&#45;&gt;stored_node</title>
<path fill="none" stroke="#555555" stroke-dasharray="1,5" d="M449.29,-145.77C437.47,-126.31 417.33,-93.16 403.16,-69.84"/>
<polygon fill="#555555" stroke="#555555" points="405.67,-68.24 397.49,-61.51 399.69,-71.88 405.67,-68.24"/>
</g>
<!-- CLICK_4 -->
<g id="node9" class="node">
<title>CLICK_4</title>
<ellipse fill="#ffffff" stroke="#000000" cx="531" cy="-162.75" rx="27" ry="18"/>
</g>
<!-- CLICK_4&#45;&gt;stored_node -->
<g id="edge6" class="edge">
<title>CLICK_4&#45;&gt;stored_node</title>
<path fill="none" stroke="#555555" stroke-dasharray="1,5" d="M519.12,-146.48C512.45,-138.35 503.73,-128.42 495,-120.5 472.3,-99.89 444.03,-79.85 422.12,-65.34"/>
<polygon fill="#555555" stroke="#555555" points="424.43,-62.02 414.14,-59.48 420.6,-67.88 424.43,-62.02"/>
</g>
<!-- CLICK_MORE -->
<g id="node10" class="node">
<title>CLICK_MORE</title>
<ellipse fill="#ffffff" stroke="#000000" cx="171" cy="-162.75" rx="27" ry="18"/>
</g>
<!-- CLICK_MORE&#45;&gt;ChooseFromList -->
<g id="edge7" class="edge">
<title>CLICK_MORE&#45;&gt;ChooseFromList</title>
<path fill="none" stroke="#555555" stroke-dasharray="1,5" d="M165.84,-144.77C161.88,-131.72 156.18,-112.95 150.75,-95.1"/>
<polygon fill="#555555" stroke="#555555" points="153.86,-94.29 147.61,-85.74 147.16,-96.33 153.86,-94.29"/>
</g>
<!-- start -->
<g id="node11" class="node">
<title>start</title>
<ellipse fill="#ffffff" stroke="#000000" cx="603" cy="-162.75" rx="27" ry="18"/>
</g>
<!-- critter_p_proc -->
<g id="node12" class="node">
<title>critter_p_proc</title>
<ellipse fill="#ffffff" stroke="#000000" cx="675" cy="-162.75" rx="27" ry="18"/>
</g>
<!-- pickup_p_proc -->
<g id="node13" class="node">
<title>pickup_p_proc</title>
<ellipse fill="#ffffff" stroke="#000000" cx="747" cy="-162.75" rx="27" ry="18"/>
</g>
<!-- talk_p_proc -->
<g id="node14" class="node">
<title>talk_p_proc</title>
<ellipse fill="#ffffff" stroke="#000000" cx="819" cy="-162.75" rx="27" ry="18"/>
</g>
<!-- Node002 -->
<g id="node15" class="node">
<title>Node002</title>
<ellipse fill="#ffffff" stroke="#000000" cx="855" cy="-42.25" rx="27" ry="18"/>
</g>
<!-- talk_p_proc&#45;&gt;Node002 -->
<g id="edge8" class="edge">
<title>talk_p_proc&#45;&gt;Node002</title>
<path fill="none" stroke="#555555" stroke-dasharray="1,5" d="M824.16,-144.77C830.04,-125.41 839.74,-93.49 846.69,-70.61"/>
<polygon fill="#555555" stroke="#555555" points="850.29,-71.78 849.85,-61.2 843.6,-69.75 850.29,-71.78"/>
</g>
<!-- destroy_p_proc -->
<g id="node16" class="node">
<title>destroy_p_proc</title>
<ellipse fill="#ffffff" stroke="#000000" cx="963" cy="-162.75" rx="27" ry="18"/>
</g>
<!-- look_at_p_proc -->
<g id="node17" class="node">
<title>look_at_p_proc</title>
<ellipse fill="#ffffff" stroke="#000000" cx="1125" cy="-162.75" rx="116.97" ry="18"/>
<text text-anchor="middle" x="1125" y="-158.07" font-family="Times,serif" font-size="14.00">You see Coffin Willie.</text>
</g>
<!-- description_p_proc -->
<g id="node18" class="node">
<title>description_p_proc</title>
<ellipse fill="#ffffff" stroke="#000000" cx="1383" cy="-162.75" rx="123.21" ry="42.25"/>
<text text-anchor="middle" x="1383" y="-175.32" font-family="Times,serif" font-size="14.00">You see an old, stinky,</text>
<text text-anchor="middle" x="1383" y="-158.07" font-family="Times,serif" font-size="14.00">crusty ghoul. And boy,</text>
<text text-anchor="middle" x="1383" y="-140.82" font-family="Times,serif" font-size="14.00">does he SMELL.</text>
</g>
<!-- use_skill_on_p_proc -->
<g id="node19" class="node">
<title>use_skill_on_p_proc</title>
<ellipse fill="#ffffff" stroke="#000000" cx="1551" cy="-162.75" rx="27" ry="18"/>
</g>
<!-- damage_p_proc -->
<g id="node20" class="node">
<title>damage_p_proc</title>
<ellipse fill="#ffffff" stroke="#000000" cx="1623" cy="-162.75" rx="27" ry="18"/>
</g>
<!-- Node998 -->
<g id="node21" class="node">
<title>Node998</title>
<ellipse fill="#ffffff" stroke="#000000" cx="1623" cy="-42.25" rx="27" ry="18"/>
</g>
<!-- damage_p_proc&#45;&gt;Node998 -->
<g id="edge9" class="edge">
<title>damage_p_proc&#45;&gt;Node998</title>
<path fill="none" stroke="#555555" stroke-dasharray="1,5" d="M1623,-144.26C1623,-125.08 1623,-94 1623,-71.37"/>
<polygon fill="#555555" stroke="#555555" points="1626.5,-71.42 1623,-61.42 1619.5,-71.42 1626.5,-71.42"/>
</g>
<!-- map_enter_p_proc -->
<g id="node22" class="node">
<title>map_enter_p_proc</title>
<ellipse fill="#ffffff" stroke="#000000" cx="1695" cy="-162.75" rx="27" ry="18"/>
</g>
<!-- map_exit_p_proc -->
<g id="node23" class="node">
<title>map_exit_p_proc</title>
<ellipse fill="#ffffff" stroke="#000000" cx="1767" cy="-162.75" rx="27" ry="18"/>
</g>
<!-- timed_event_p_proc -->
<g id="node24" class="node">
<title>timed_event_p_proc</title>
<ellipse fill="#ffffff" stroke="#000000" cx="891" cy="-162.75" rx="27" ry="18"/>
</g>
<!-- timed_event_p_proc&#45;&gt;Node002 -->
<g id="edge10" class="edge">
<title>timed_event_p_proc&#45;&gt;Node002</title>
<path fill="none" stroke="#555555" stroke-dasharray="1,5" d="M885.84,-144.77C879.96,-125.41 870.26,-93.49 863.31,-70.61"/>
<polygon fill="#555555" stroke="#555555" points="866.4,-69.75 860.15,-61.2 859.71,-71.78 866.4,-69.75"/>
</g>
<!-- combat_p_proc -->
<g id="node25" class="node">
<title>combat_p_proc</title>
<ellipse fill="#ffffff" stroke="#000000" cx="1839" cy="-162.75" rx="27" ry="18"/>
</g>
<!-- Node999 -->
<g id="node26" class="node">
<title>Node999</title>
<ellipse fill="#ffffff" stroke="#000000" cx="1911" cy="-162.75" rx="27" ry="18"/>
</g>
</g>
</svg>
