<?xml version="1.0" encoding="UTF-8" standalone="no"?>
<!DOCTYPE svg PUBLIC "-//W3C//DTD SVG 1.1//EN"
 "http://www.w3.org/Graphics/SVG/1.1/DTD/svg11.dtd">
<!-- Generated by graphviz version 8.0.5 (0)
 -->
<!-- Title: ntLydRom Pages: 1 -->
<svg width="944pt" height="311pt"
 viewBox="0.00 0.00 943.90 310.87" xmlns="http://www.w3.org/2000/svg" xmlns:xlink="http://www.w3.org/1999/xlink">
<g id="graph0" class="graph" transform="scale(1 1) rotate(0) translate(4 306.87)">
<title>ntLydRom</title>
<polygon fill="white" stroke="none" points="-4,4 -4,-306.87 939.9,-306.87 939.9,4 -4,4"/>
<!-- checkPartyMembersNearDoor -->
<g id="node1" class="node">
<title>checkPartyMembersNearDoor</title>
<ellipse fill="#ffffff" stroke="#000000" cx="27" cy="-187.44" rx="27" ry="18"/>
</g>
<!-- ChooseFromList -->
<g id="node2" class="node">
<title>ChooseFromList</title>
<ellipse fill="#ffffff" stroke="#000000" cx="135" cy="-18" rx="27" ry="18"/>
</g>
<!-- CLICK_PREV -->
<g id="node3" class="node">
<title>CLICK_PREV</title>
<ellipse fill="#ffffff" stroke="#000000" cx="99" cy="-187.44" rx="27" ry="18"/>
</g>
<!-- CLICK_PREV&#45;&gt;ChooseFromList -->
<g id="edge1" class="edge">
<title>CLICK_PREV&#45;&gt;ChooseFromList</title>
<path fill="none" stroke="#555555" stroke-dasharray="1,5" d="M102.72,-169.15C108.97,-140.05 121.66,-81.05 129.13,-46.31"/>
<polygon fill="#555555" stroke="#555555" points="132.68,-47.46 131.36,-36.94 125.83,-45.99 132.68,-47.46"/>
</g>
<!-- CLICK_0 -->
<g id="node4" class="node">
<title>CLICK_0</title>
<ellipse fill="#ffffff" stroke="#000000" cx="243" cy="-187.44" rx="27" ry="18"/>
</g>
<!-- stored_node -->
<g id="node5" class="node">
<title>stored_node</title>
<ellipse fill="none" stroke="black" cx="387" cy="-18" rx="72.25" ry="18"/>
<text text-anchor="middle" x="387" y="-13.32" font-family="Times,serif" font-size="14.00">stored_node</text>
</g>
<!-- CLICK_0&#45;&gt;stored_node -->
<g id="edge2" class="edge">
<title>CLICK_0&#45;&gt;stored_node</title>
<path fill="none" stroke="#555555" stroke-dasharray="1,5" d="M244.22,-169.28C246.79,-144.96 254.71,-100.28 279,-72 292.67,-56.09 312.24,-44.5 330.98,-36.3"/>
<polygon fill="#555555" stroke="#555555" points="332.04,-39.23 339.96,-32.2 329.38,-32.76 332.04,-39.23"/>
</g>
<!-- CLICK_1 -->
<g id="node6" class="node">
<title>CLICK_1</title>
<ellipse fill="#ffffff" stroke="#000000" cx="315" cy="-187.44" rx="27" ry="18"/>
</g>
<!-- CLICK_1&#45;&gt;stored_node -->
<g id="edge3" class="edge">
<title>CLICK_1&#45;&gt;stored_node</title>
<path fill="none" stroke="#555555" stroke-dasharray="1,5" d="M318.76,-169.17C324.13,-146.24 335.12,-104.81 351,-72 355.51,-62.69 361.49,-53.15 367.28,-44.77"/>
<polygon fill="#555555" stroke="#555555" points="370.67,-47.05 373.65,-36.89 364.98,-42.98 370.67,-47.05"/>
</g>
<!-- CLICK_2 -->
<g id="node7" class="node">
<title>CLICK_2</title>
<ellipse fill="#ffffff" stroke="#000000" cx="387" cy="-187.44" rx="27" ry="18"/>
</g>
<!-- CLICK_2&#45;&gt;stored_node -->
<g id="edge4" class="edge">
<title>CLICK_2&#45;&gt;stored_node</title>
<path fill="none" stroke="#555555" stroke-dasharray="1,5" d="M387,-169.15C387,-140.32 387,-82.17 387,-47.3"/>
<polygon fill="#555555" stroke="#555555" points="390.5,-47.44 387,-37.44 383.5,-47.44 390.5,-47.44"/>
</g>
<!-- CLICK_3 -->
<g id="node8" class="node">
<title>CLICK_3</title>
<ellipse fill="#ffffff" stroke="#000000" cx="459" cy="-187.44" rx="27" ry="18"/>
</g>
<!-- CLICK_3&#45;&gt;stored_node -->
<g id="edge5" class="edge">
<title>CLICK_3&#45;&gt;stored_node</title>
<path fill="none" stroke="#555555" stroke-dasharray="1,5" d="M455.24,-169.17C449.87,-146.24 438.88,-104.81 423,-72 418.49,-62.69 412.51,-53.15 406.72,-44.77"/>
<polygon fill="#555555" stroke="#555555" points="409.02,-42.98 400.35,-36.89 403.33,-47.05 409.02,-42.98"/>
</g>
<!-- CLICK_4 -->
<g id="node9" class="node">
<title>CLICK_4</title>
<ellipse fill="#ffffff" stroke="#000000" cx="531" cy="-187.44" rx="27" ry="18"/>
</g>
<!-- CLICK_4&#45;&gt;stored_node -->
<g id="edge6" class="edge">
<title>CLICK_4&#45;&gt;stored_node</title>
<path fill="none" stroke="#555555" stroke-dasharray="1,5" d="M529.78,-169.28C527.21,-144.96 519.29,-100.28 495,-72 481.33,-56.09 461.76,-44.5 443.02,-36.3"/>
<polygon fill="#555555" stroke="#555555" points="444.62,-32.76 434.04,-32.2 441.96,-39.23 444.62,-32.76"/>
</g>
<!-- CLICK_MORE -->
<g id="node10" class="node">
<title>CLICK_MORE</title>
<ellipse fill="#ffffff" stroke="#000000" cx="171" cy="-187.44" rx="27" ry="18"/>
</g>
<!-- CLICK_MORE&#45;&gt;ChooseFromList -->
<g id="edge7" class="edge">
<title>CLICK_MORE&#45;&gt;ChooseFromList</title>
<path fill="none" stroke="#555555" stroke-dasharray="1,5" d="M167.28,-169.15C161.03,-140.05 148.34,-81.05 140.87,-46.31"/>
<polygon fill="#555555" stroke="#555555" points="144.17,-45.99 138.64,-36.94 137.32,-47.46 144.17,-45.99"/>
</g>
<!-- start -->
<g id="node11" class="node">
<title>start</title>
<ellipse fill="#ffffff" stroke="#000000" cx="603" cy="-187.44" rx="27" ry="18"/>
</g>
<!-- spatial_p_proc -->
<g id="node12" class="node">
<title>spatial_p_proc</title>
<ellipse fill="#ffffff" stroke="#000000" cx="792" cy="-187.44" rx="143.9" ry="115.44"/>
<text text-anchor="middle" x="792" y="-251.76" font-family="Times,serif" font-size="14.00">This is Lloyd&#39;s old room.</text>
<text text-anchor="middle" x="792" y="-234.51" font-family="Times,serif" font-size="14.00">Someone has tracked soot</text>
<text text-anchor="middle" x="792" y="-217.26" font-family="Times,serif" font-size="14.00">on the carpet... the soot</text>
<text text-anchor="middle" x="792" y="-200.01" font-family="Times,serif" font-size="14.00">looks like</text>
<text text-anchor="middle" x="792" y="-182.76" font-family="Times,serif" font-size="14.00">it came from the broiler</text>
<text text-anchor="middle" x="792" y="-165.51" font-family="Times,serif" font-size="14.00">room.</text>
<text text-anchor="middle" x="792" y="-148.26" font-family="Times,serif" font-size="14.00">&#45;&#45;&#45;</text>
<text text-anchor="middle" x="792" y="-131.01" font-family="Times,serif" font-size="14.00">204: This is the room</text>
<text text-anchor="middle" x="792" y="-113.76" font-family="Times,serif" font-size="14.00">where Lloyd was staying.</text>
</g>
</g>
</svg>
