<?xml version="1.0" encoding="UTF-8" standalone="no"?>
<!DOCTYPE svg PUBLIC "-//W3C//DTD SVG 1.1//EN"
 "http://www.w3.org/Graphics/SVG/1.1/DTD/svg11.dtd">
<!-- Generated by graphviz version 8.0.5 (0)
 -->
<!-- Title: ocdave Pages: 1 -->
<svg width="2003pt" height="4345pt"
 viewBox="0.00 0.00 2003.00 4344.76" xmlns="http://www.w3.org/2000/svg" xmlns:xlink="http://www.w3.org/1999/xlink">
<g id="graph0" class="graph" transform="scale(1 1) rotate(0) translate(4 4340.76)">
<title>ocdave</title>
<polygon fill="white" stroke="none" points="-4,4 -4,-4340.76 1999,-4340.76 1999,4 -4,4"/>
<!-- checkPartyMembersNearDoor -->
<g id="node1" class="node">
<title>checkPartyMembersNearDoor</title>
<ellipse fill="#ffffff" stroke="#000000" cx="87" cy="-4257.92" rx="27" ry="18"/>
</g>
<!-- old_pickup_p_proc -->
<g id="node2" class="node">
<title>old_pickup_p_proc</title>
<ellipse fill="#ffffff" stroke="#000000" cx="159" cy="-4099.83" rx="27" ry="18"/>
</g>
<!-- pickup_p_proc -->
<g id="node3" class="node">
<title>pickup_p_proc</title>
<ellipse fill="#ffffff" stroke="#000000" cx="159" cy="-4257.92" rx="27" ry="18"/>
</g>
<!-- pickup_p_proc&#45;&gt;old_pickup_p_proc -->
<g id="edge1" class="edge">
<title>pickup_p_proc&#45;&gt;old_pickup_p_proc</title>
<path fill="none" stroke="#555555" stroke-dasharray="1,5" d="M159,-4239.62C159,-4212.9 159,-4161.31 159,-4129.11"/>
<polygon fill="#555555" stroke="#555555" points="162.5,-4129.21 159,-4119.21 155.5,-4129.21 162.5,-4129.21"/>
</g>
<!-- getTimeBit -->
<g id="node4" class="node">
<title>getTimeBit</title>
<ellipse fill="#ffffff" stroke="#000000" cx="249" cy="-4257.92" rx="27" ry="18"/>
</g>
<!-- start -->
<g id="node5" class="node">
<title>start</title>
<ellipse fill="#ffffff" stroke="#000000" cx="390" cy="-4257.92" rx="27" ry="18"/>
</g>
<!-- critter_p_proc -->
<g id="node6" class="node">
<title>critter_p_proc</title>
<ellipse fill="#ffffff" stroke="#000000" cx="497" cy="-4257.92" rx="27" ry="18"/>
</g>
<!-- talk_p_proc -->
<g id="node7" class="node">
<title>talk_p_proc</title>
<ellipse fill="#ffffff" stroke="#000000" cx="586" cy="-4257.92" rx="27" ry="18"/>
</g>
<!-- Node008 -->
<g id="node8" class="node">
<title>Node008</title>
<ellipse fill="#ffffff" stroke="#000000" cx="331" cy="-4099.83" rx="127.46" ry="42.25"/>
<text text-anchor="middle" x="331" y="-4112.41" font-family="Times,serif" font-size="14.00">At last, my time has</text>
<text text-anchor="middle" x="331" y="-4095.16" font-family="Times,serif" font-size="14.00">come. Are you going to</text>
<text text-anchor="middle" x="331" y="-4077.91" font-family="Times,serif" font-size="14.00">kill me now?</text>
</g>
<!-- talk_p_proc&#45;&gt;Node008 -->
<g id="edge2" class="edge">
<title>talk_p_proc&#45;&gt;Node008</title>
<path fill="none" stroke="#555555" stroke-dasharray="1,5" d="M578.52,-4240.45C569.84,-4223.01 553.99,-4195.76 533,-4179.08 516.03,-4165.6 473.4,-4148.4 431.65,-4133.56"/>
<polygon fill="#555555" stroke="#555555" points="432.96,-4129.95 422.36,-4129.94 430.63,-4136.56 432.96,-4129.95"/>
</g>
<!-- Node001 -->
<g id="node9" class="node">
<title>Node001</title>
<ellipse fill="#ffffff" stroke="#000000" cx="586" cy="-4099.83" rx="109.42" ry="30.05"/>
<text text-anchor="middle" x="586" y="-4103.78" font-family="Times,serif" font-size="14.00">Oh. I didn&#39;t see you</text>
<text text-anchor="middle" x="586" y="-4086.53" font-family="Times,serif" font-size="14.00">standing there.</text>
</g>
<!-- talk_p_proc&#45;&gt;Node001 -->
<g id="edge3" class="edge">
<title>talk_p_proc&#45;&gt;Node001</title>
<path fill="none" stroke="#555555" stroke-dasharray="1,5" d="M586,-4239.62C586,-4215.98 586,-4172.87 586,-4140.94"/>
<polygon fill="#555555" stroke="#555555" points="589.5,-4141.17 586,-4131.17 582.5,-4141.17 589.5,-4141.17"/>
</g>
<!-- Node007 -->
<g id="node10" class="node">
<title>Node007</title>
<ellipse fill="#ffffff" stroke="#000000" cx="1360" cy="-3927.58" rx="137" ry="30.05"/>
<text text-anchor="middle" x="1360" y="-3931.53" font-family="Times,serif" font-size="14.00">Oh. Hi. What can I do for</text>
<text text-anchor="middle" x="1360" y="-3914.28" font-family="Times,serif" font-size="14.00">you?</text>
</g>
<!-- talk_p_proc&#45;&gt;Node007 -->
<g id="edge4" class="edge">
<title>talk_p_proc&#45;&gt;Node007</title>
<path fill="none" stroke="#555555" stroke-dasharray="1,5" d="M589.74,-4239.67C594.41,-4222.1 604.06,-4195.21 622,-4179.08 647.14,-4156.47 1083.21,-4016.37 1272.96,-3956.1"/>
<polygon fill="#555555" stroke="#555555" points="1273.71,-3959.22 1282.18,-3952.85 1271.59,-3952.54 1273.71,-3959.22"/>
</g>
<!-- Node999 -->
<g id="node20" class="node">
<title>Node999</title>
<ellipse fill="#ffffff" stroke="#000000" cx="825" cy="-18" rx="27" ry="18"/>
</g>
<!-- Node001&#45;&gt;Node999 -->
<g id="edge7" class="edge">
<title>Node001&#45;&gt;Node999</title>
<path fill="none" stroke="#009981" d="M525.75,-4074.28C507.21,-4067.73 486.53,-4061.41 467,-4057.58 393.62,-4043.19 200.49,-4067.19 131,-4039.58 60.08,-4011.4 0,-4004.89 0,-3928.58 0,-3928.58 0,-3928.58 0,-159.95 0,-85.07 61.06,-80.74 131,-54 192.31,-30.56 650.94,-21.68 787.04,-19.54"/>
<polygon fill="#009981" stroke="#009981" points="786.79,-23.03 796.73,-19.38 786.68,-16.03 786.79,-23.03"/>
<text text-anchor="middle" x="54.38" y="-2277.44" font-family="Times,serif" font-size="14.00" fill="#009981">Me go bye bye.</text>
</g>
<!-- Node001&#45;&gt;Node999 -->
<g id="edge11" class="edge">
<title>Node001&#45;&gt;Node999</title>
<path fill="none" stroke="#990032" d="M524.38,-4074.57C506.14,-4068.19 485.98,-4061.89 467,-4057.58 316.66,-4023.46 145,-4082.75 145,-3928.58 145,-3928.58 145,-3928.58 145,-159.95 145,-27.74 644.06,-18.61 787.1,-18.71"/>
<polygon fill="#990032" stroke="#990032" points="786.92,-22.21 796.92,-18.73 786.93,-15.21 786.92,-22.21"/>
<text text-anchor="middle" x="232.75" y="-2294.69" font-family="Times,serif" font-size="14.00" fill="#990032">Whatever. I just</text>
<text text-anchor="middle" x="232.75" y="-2277.44" font-family="Times,serif" font-size="14.00" fill="#990032">remembered some place</text>
<text text-anchor="middle" x="232.75" y="-2260.19" font-family="Times,serif" font-size="14.00" fill="#990032">I&#39;ve got to be.</text>
</g>
<!-- Node002 -->
<g id="node21" class="node">
<title>Node002</title>
<ellipse fill="#ffffff" stroke="#000000" cx="403" cy="-3927.58" rx="134.88" ry="42.25"/>
<text text-anchor="middle" x="403" y="-3940.16" font-family="Times,serif" font-size="14.00">Hey, shit happens &#45;&#45; and</text>
<text text-anchor="middle" x="403" y="-3922.91" font-family="Times,serif" font-size="14.00">when it does, it happens</text>
<text text-anchor="middle" x="403" y="-3905.66" font-family="Times,serif" font-size="14.00">to me.</text>
</g>
<!-- Node001&#45;&gt;Node002 -->
<g id="edge5" class="edge">
<title>Node001&#45;&gt;Node002</title>
<path fill="none" stroke="#589900" d="M524.35,-4074.7C506.11,-4068.31 485.96,-4061.99 467,-4057.58 435.27,-4050.2 343.08,-4063.99 321.5,-4039.58 306.27,-4022.35 311.06,-4008.33 321.5,-3987.83 324.23,-3982.47 327.69,-3977.48 331.65,-3972.86"/>
<polygon fill="#589900" stroke="#589900" points="333.85,-3975.59 338.25,-3965.95 328.8,-3970.74 333.85,-3975.59"/>
<text text-anchor="middle" x="399.25" y="-4009.03" font-family="Times,serif" font-size="14.00" fill="#589900">How not see? Me big.</text>
</g>
<!-- Node001&#45;&gt;Node002 -->
<g id="edge10" class="edge">
<title>Node001&#45;&gt;Node002</title>
<path fill="none" stroke="#059900" d="M537.44,-4072.63C523.73,-4063.52 509.66,-4052.35 499,-4039.58 482.87,-4020.26 491.3,-4007.81 476,-3987.83 472.31,-3983.02 468.16,-3978.35 463.75,-3973.89"/>
<polygon fill="#059900" stroke="#059900" points="466.77,-3971.98 457.13,-3967.6 461.93,-3977.04 466.77,-3971.98"/>
<text text-anchor="middle" x="580" y="-4026.28" font-family="Times,serif" font-size="14.00" fill="#059900">Should I hit you with a</text>
<text text-anchor="middle" x="580" y="-4009.03" font-family="Times,serif" font-size="14.00" fill="#059900">board to get your</text>
<text text-anchor="middle" x="580" y="-3991.78" font-family="Times,serif" font-size="14.00" fill="#059900">attention next time?</text>
</g>
<!-- Node003 -->
<g id="node22" class="node">
<title>Node003</title>
<ellipse fill="#ffffff" stroke="#000000" cx="856" cy="-3096.66" rx="144.96" ry="700.92"/>
<text text-anchor="middle" x="856" y="-3574.99" font-family="Times,serif" font-size="14.00">I was born two months</text>
<text text-anchor="middle" x="856" y="-3557.74" font-family="Times,serif" font-size="14.00">premature. &#160;When I was</text>
<text text-anchor="middle" x="856" y="-3540.49" font-family="Times,serif" font-size="14.00">one, I was dropped on the</text>
<text text-anchor="middle" x="856" y="-3523.24" font-family="Times,serif" font-size="14.00">porch. When I was two, I</text>
<text text-anchor="middle" x="856" y="-3505.99" font-family="Times,serif" font-size="14.00">had pneumonia. When I</text>
<text text-anchor="middle" x="856" y="-3488.74" font-family="Times,serif" font-size="14.00">was three, I got the</text>
<text text-anchor="middle" x="856" y="-3471.49" font-family="Times,serif" font-size="14.00">chicken pox. When I was</text>
<text text-anchor="middle" x="856" y="-3454.24" font-family="Times,serif" font-size="14.00">four, I fell down the</text>
<text text-anchor="middle" x="856" y="-3436.99" font-family="Times,serif" font-size="14.00">stairs and broke</text>
<text text-anchor="middle" x="856" y="-3419.74" font-family="Times,serif" font-size="14.00">six ribs. When I was</text>
<text text-anchor="middle" x="856" y="-3402.49" font-family="Times,serif" font-size="14.00">five, my uncle was</text>
<text text-anchor="middle" x="856" y="-3385.24" font-family="Times,serif" font-size="14.00">decapitated by a</text>
<text text-anchor="middle" x="856" y="-3367.99" font-family="Times,serif" font-size="14.00">watermelon. &#160;When I was</text>
<text text-anchor="middle" x="856" y="-3350.74" font-family="Times,serif" font-size="14.00">six, my parents hit me</text>
<text text-anchor="middle" x="856" y="-3333.49" font-family="Times,serif" font-size="14.00">in the head with a</text>
<text text-anchor="middle" x="856" y="-3316.24" font-family="Times,serif" font-size="14.00">shovel. When I was seven,</text>
<text text-anchor="middle" x="856" y="-3298.99" font-family="Times,serif" font-size="14.00">I lost my right index</text>
<text text-anchor="middle" x="856" y="-3281.74" font-family="Times,serif" font-size="14.00">finger to my pet rat.</text>
<text text-anchor="middle" x="856" y="-3264.49" font-family="Times,serif" font-size="14.00">&#45;&#45;&#45;</text>
<text text-anchor="middle" x="856" y="-3247.24" font-family="Times,serif" font-size="14.00">When I was eight, my dog</text>
<text text-anchor="middle" x="856" y="-3229.99" font-family="Times,serif" font-size="14.00">Spike got hit by a</text>
<text text-anchor="middle" x="856" y="-3212.74" font-family="Times,serif" font-size="14.00">tractor. When I was nine,</text>
<text text-anchor="middle" x="856" y="-3195.49" font-family="Times,serif" font-size="14.00">my mother lost her arm to</text>
<text text-anchor="middle" x="856" y="-3178.24" font-family="Times,serif" font-size="14.00">a</text>
<text text-anchor="middle" x="856" y="-3160.99" font-family="Times,serif" font-size="14.00">rabid brahmin. When I</text>
<text text-anchor="middle" x="856" y="-3143.74" font-family="Times,serif" font-size="14.00">was ten, my sister was</text>
<text text-anchor="middle" x="856" y="-3126.49" font-family="Times,serif" font-size="14.00">torn to bits by a pack of</text>
<text text-anchor="middle" x="856" y="-3109.24" font-family="Times,serif" font-size="14.00">dogs. When I was eleven,</text>
<text text-anchor="middle" x="856" y="-3091.99" font-family="Times,serif" font-size="14.00">my</text>
<text text-anchor="middle" x="856" y="-3074.74" font-family="Times,serif" font-size="14.00">grandfather killed</text>
<text text-anchor="middle" x="856" y="-3057.49" font-family="Times,serif" font-size="14.00">himself because I was</text>
<text text-anchor="middle" x="856" y="-3040.24" font-family="Times,serif" font-size="14.00">ugly. When I was twelve,</text>
<text text-anchor="middle" x="856" y="-3022.99" font-family="Times,serif" font-size="14.00">my grandmother killed</text>
<text text-anchor="middle" x="856" y="-3005.74" font-family="Times,serif" font-size="14.00">herself because</text>
<text text-anchor="middle" x="856" y="-2988.49" font-family="Times,serif" font-size="14.00">I was ugly. When I was</text>
<text text-anchor="middle" x="856" y="-2971.24" font-family="Times,serif" font-size="14.00">thirteen, my father poked</text>
<text text-anchor="middle" x="856" y="-2953.99" font-family="Times,serif" font-size="14.00">out his eyes with a</text>
<text text-anchor="middle" x="856" y="-2936.74" font-family="Times,serif" font-size="14.00">pitchfork in a drunken</text>
<text text-anchor="middle" x="856" y="-2919.49" font-family="Times,serif" font-size="14.00">stupor.</text>
<text text-anchor="middle" x="856" y="-2902.24" font-family="Times,serif" font-size="14.00">&#45;&#45;&#45;</text>
<text text-anchor="middle" x="856" y="-2884.99" font-family="Times,serif" font-size="14.00">When I was fourteen, my</text>
<text text-anchor="middle" x="856" y="-2867.74" font-family="Times,serif" font-size="14.00">brother lost his hand to</text>
<text text-anchor="middle" x="856" y="-2850.49" font-family="Times,serif" font-size="14.00">a wallaby. When I was</text>
<text text-anchor="middle" x="856" y="-2833.24" font-family="Times,serif" font-size="14.00">fifteen, my aunt choked</text>
<text text-anchor="middle" x="856" y="-2815.99" font-family="Times,serif" font-size="14.00">to</text>
<text text-anchor="middle" x="856" y="-2798.74" font-family="Times,serif" font-size="14.00">death on a chicken bone.</text>
<text text-anchor="middle" x="856" y="-2781.49" font-family="Times,serif" font-size="14.00">When I was sixteen, I</text>
<text text-anchor="middle" x="856" y="-2764.24" font-family="Times,serif" font-size="14.00">lost my cousin to a</text>
<text text-anchor="middle" x="856" y="-2746.99" font-family="Times,serif" font-size="14.00">badger. When I was</text>
<text text-anchor="middle" x="856" y="-2729.74" font-family="Times,serif" font-size="14.00">seventeen, I cut</text>
<text text-anchor="middle" x="856" y="-2712.49" font-family="Times,serif" font-size="14.00">off my left big toe with</text>
<text text-anchor="middle" x="856" y="-2695.24" font-family="Times,serif" font-size="14.00">a hoe. When I was</text>
<text text-anchor="middle" x="856" y="-2677.99" font-family="Times,serif" font-size="14.00">eighteen, my father lost</text>
<text text-anchor="middle" x="856" y="-2660.74" font-family="Times,serif" font-size="14.00">his right leg to the same</text>
<text text-anchor="middle" x="856" y="-2643.49" font-family="Times,serif" font-size="14.00">tractor</text>
<text text-anchor="middle" x="856" y="-2626.24" font-family="Times,serif" font-size="14.00">that killed my dog. When</text>
<text text-anchor="middle" x="856" y="-2608.99" font-family="Times,serif" font-size="14.00">I was nineteen...</text>
</g>
<!-- Node001&#45;&gt;Node003 -->
<g id="edge6" class="edge">
<title>Node001&#45;&gt;Node003</title>
<path fill="none" stroke="#990085" d="M630.79,-4071.94C642.27,-4063.01 653.48,-4052.1 661,-4039.58 696.88,-3979.85 675.55,-3953.7 689,-3885.33 707.66,-3790.46 728.43,-3689.36 748.81,-3592.31"/>
<polygon fill="#990085" stroke="#990085" points="752.4,-3593.23 751.03,-3582.72 745.55,-3591.79 752.4,-3593.23"/>
<text text-anchor="middle" x="744.5" y="-3922.91" font-family="Times,serif" font-size="14.00" fill="#990085">Look sad. Why?</text>
</g>
<!-- Node001&#45;&gt;Node003 -->
<g id="edge8" class="edge">
<title>Node001&#45;&gt;Node003</title>
<path fill="none" stroke="#995400" d="M656.32,-4076.35C705.59,-4056.61 768.12,-4022.67 800,-3969.83 820.85,-3935.27 835.46,-3877.4 845.51,-3807.41"/>
<polygon fill="#995400" stroke="#995400" points="849.11,-3807.92 847.02,-3797.53 842.18,-3806.95 849.11,-3807.92"/>
<text text-anchor="middle" x="916.5" y="-3948.78" font-family="Times,serif" font-size="14.00" fill="#995400">That&#39;s ok, we all space</text>
<text text-anchor="middle" x="916.5" y="-3931.53" font-family="Times,serif" font-size="14.00" fill="#995400">out at times. Say, you</text>
<text text-anchor="middle" x="916.5" y="-3914.28" font-family="Times,serif" font-size="14.00" fill="#995400">look rather down. May I</text>
<text text-anchor="middle" x="916.5" y="-3897.03" font-family="Times,serif" font-size="14.00" fill="#995400">ask why?</text>
</g>
<!-- Node001&#45;&gt;Node003 -->
<g id="edge9" class="edge">
<title>Node001&#45;&gt;Node003</title>
<path fill="none" stroke="#270099" d="M678.42,-4083.5C789.8,-4062.92 966.9,-4022.74 1006,-3969.83 1062.49,-3893.39 1029.34,-3687.12 980,-3494.37"/>
<polygon fill="#270099" stroke="#270099" points="983.15,-3493.55 977.26,-3484.74 976.37,-3495.3 983.15,-3493.55"/>
<text text-anchor="middle" x="1121.12" y="-3931.53" font-family="Times,serif" font-size="14.00" fill="#270099">Yeah, whatever. Why are</text>
<text text-anchor="middle" x="1121.12" y="-3914.28" font-family="Times,serif" font-size="14.00" fill="#270099">you so down?</text>
</g>
<!-- Node007&#45;&gt;Node999 -->
<g id="edge34" class="edge">
<title>Node007&#45;&gt;Node999</title>
<path fill="none" stroke="#999300" d="M1461.88,-3907.24C1485.04,-3898.48 1507.61,-3885.78 1524,-3867.33 1757.24,-3604.76 1703,-3448.87 1703,-3097.66 1703,-3097.66 1703,-3097.66 1703,-159.95 1703,-101.21 1676.67,-80 1624,-54 1555.44,-20.16 1013.37,-18.64 863.36,-18.88"/>
<polygon fill="#999300" stroke="#999300" points="863.44,-15.38 853.45,-18.9 863.45,-22.38 863.44,-15.38"/>
<text text-anchor="middle" x="1750.25" y="-2199.07" font-family="Times,serif" font-size="14.00" fill="#999300">Sorry, me go.</text>
</g>
<!-- Node007&#45;&gt;Node999 -->
<g id="edge36" class="edge">
<title>Node007&#45;&gt;Node999</title>
<path fill="none" stroke="#00993a" d="M1470.55,-3909.62C1537.74,-3893.07 1618.67,-3860.68 1662,-3797.58 1842.57,-3534.61 1821,-3416.66 1821,-3097.66 1821,-3097.66 1821,-3097.66 1821,-159.95 1821,-76.14 1744.58,-80.29 1665,-54 1588.35,-28.68 1016.94,-20.98 863.07,-19.36"/>
<polygon fill="#00993a" stroke="#00993a" points="863.35,-15.85 853.32,-19.25 863.28,-22.85 863.35,-15.85"/>
<text text-anchor="middle" x="1908" y="-2207.69" font-family="Times,serif" font-size="14.00" fill="#00993a">Wait a minute, I thought</text>
<text text-anchor="middle" x="1908" y="-2190.44" font-family="Times,serif" font-size="14.00" fill="#00993a">you were someone else.</text>
</g>
<!-- Node007&#45;&gt;Node003 -->
<g id="edge33" class="edge">
<title>Node007&#45;&gt;Node003</title>
<path fill="none" stroke="#007299" d="M1277.5,-3903.3C1255.31,-3897.24 1231.29,-3890.86 1209,-3885.33 1173.42,-3876.5 1155.93,-3891.65 1128.5,-3867.33 1053.33,-3800.7 998.89,-3711.97 959.47,-3618.5"/>
<polygon fill="#007299" stroke="#007299" points="962.41,-3617.45 955.34,-3609.56 955.95,-3620.13 962.41,-3617.45"/>
<text text-anchor="middle" x="1222.75" y="-3836.78" font-family="Times,serif" font-size="14.00" fill="#007299">Uh, what you story again?</text>
</g>
<!-- Node007&#45;&gt;Node003 -->
<g id="edge35" class="edge">
<title>Node007&#45;&gt;Node003</title>
<path fill="none" stroke="#670099" d="M1350.09,-3897.16C1342,-3874.39 1329.71,-3842.33 1316,-3815.58 1223.41,-3634.93 1098.03,-3441.82 1001.55,-3301.44"/>
<polygon fill="#670099" stroke="#670099" points="1004.08,-3299.94 995.53,-3293.69 998.31,-3303.91 1004.08,-3299.94"/>
<text text-anchor="middle" x="1429.38" y="-3854.03" font-family="Times,serif" font-size="14.00" fill="#670099">I was wondering if I</text>
<text text-anchor="middle" x="1429.38" y="-3836.78" font-family="Times,serif" font-size="14.00" fill="#670099">could hear your tale once</text>
<text text-anchor="middle" x="1429.38" y="-3819.53" font-family="Times,serif" font-size="14.00" fill="#670099">again?</text>
</g>
<!-- destroy_p_proc -->
<g id="node11" class="node">
<title>destroy_p_proc</title>
<ellipse fill="#ffffff" stroke="#000000" cx="658" cy="-4257.92" rx="27" ry="18"/>
</g>
<!-- look_at_p_proc -->
<g id="node12" class="node">
<title>look_at_p_proc</title>
<ellipse fill="#ffffff" stroke="#000000" cx="843" cy="-4257.92" rx="139.65" ry="54.45"/>
<text text-anchor="middle" x="843" y="-4279.12" font-family="Times,serif" font-size="14.00">You see a sad, older man.</text>
<text text-anchor="middle" x="843" y="-4261.87" font-family="Times,serif" font-size="14.00">&#45;&#45;&#45;</text>
<text text-anchor="middle" x="843" y="-4244.62" font-family="Times,serif" font-size="14.00">You see Dave, &quot;Mr.</text>
<text text-anchor="middle" x="843" y="-4227.37" font-family="Times,serif" font-size="14.00">Depression.&quot;</text>
</g>
<!-- description_p_proc -->
<g id="node13" class="node">
<title>description_p_proc</title>
<ellipse fill="#ffffff" stroke="#000000" cx="1137" cy="-4257.92" rx="135.94" ry="78.84"/>
<text text-anchor="middle" x="1137" y="-4296.37" font-family="Times,serif" font-size="14.00">You see a grumpy, older</text>
<text text-anchor="middle" x="1137" y="-4279.12" font-family="Times,serif" font-size="14.00">man in his early sixties.</text>
<text text-anchor="middle" x="1137" y="-4261.87" font-family="Times,serif" font-size="14.00">He has a weathered face</text>
<text text-anchor="middle" x="1137" y="-4244.62" font-family="Times,serif" font-size="14.00">and looks as if he</text>
<text text-anchor="middle" x="1137" y="-4227.37" font-family="Times,serif" font-size="14.00">has had his fair share</text>
<text text-anchor="middle" x="1137" y="-4210.12" font-family="Times,serif" font-size="14.00">of abuse.</text>
</g>
<!-- use_skill_on_p_proc -->
<g id="node14" class="node">
<title>use_skill_on_p_proc</title>
<ellipse fill="#ffffff" stroke="#000000" cx="1318" cy="-4257.92" rx="27" ry="18"/>
</g>
<!-- damage_p_proc -->
<g id="node15" class="node">
<title>damage_p_proc</title>
<ellipse fill="#ffffff" stroke="#000000" cx="1390" cy="-4257.92" rx="27" ry="18"/>
</g>
<!-- map_enter_p_proc -->
<g id="node16" class="node">
<title>map_enter_p_proc</title>
<ellipse fill="#ffffff" stroke="#000000" cx="1462" cy="-4257.92" rx="27" ry="18"/>
</g>
<!-- push_p_proc -->
<g id="node17" class="node">
<title>push_p_proc</title>
<ellipse fill="#ffffff" stroke="#000000" cx="1534" cy="-4257.92" rx="27" ry="18"/>
</g>
<!-- timed_event_p_proc -->
<g id="node18" class="node">
<title>timed_event_p_proc</title>
<ellipse fill="#ffffff" stroke="#000000" cx="1606" cy="-4257.92" rx="27" ry="18"/>
</g>
<!-- Node998 -->
<g id="node19" class="node">
<title>Node998</title>
<ellipse fill="#ffffff" stroke="#000000" cx="1678" cy="-4257.92" rx="27" ry="18"/>
</g>
<!-- Node002&#45;&gt;Node999 -->
<g id="edge12" class="edge">
<title>Node002&#45;&gt;Node999</title>
<path fill="none" stroke="#005f99" d="M379.45,-3885.73C376.84,-3879.72 374.57,-3873.48 373,-3867.33 350.66,-3779.63 384.62,-2306.2 324,-2238.99 283.6,-2194.21 229.22,-2266.38 189.5,-2220.99 109.94,-2130.07 287.2,-139.07 373,-54 402.09,-25.16 682.82,-20.08 786.65,-19.19"/>
<polygon fill="#005f99" stroke="#005f99" points="786.58,-22.68 796.55,-19.1 786.53,-15.68 786.58,-22.68"/>
<text text-anchor="middle" x="277.75" y="-2199.07" font-family="Times,serif" font-size="14.00" fill="#005f99">Uh... me be leaving now.</text>
</g>
<!-- Node002&#45;&gt;Node999 -->
<g id="edge15" class="edge">
<title>Node002&#45;&gt;Node999</title>
<path fill="none" stroke="#00994e" d="M401.64,-3885.19C397.77,-3764.08 387,-3399.93 387,-3097.66 387,-3097.66 387,-3097.66 387,-159.95 387,-112.66 437.18,-128.58 479,-106.5 526.9,-81.21 537.19,-69.82 589,-54 656.89,-33.28 739.64,-24.61 786.94,-21.15"/>
<polygon fill="#00994e" stroke="#00994e" points="787.15,-24.58 796.88,-20.4 786.67,-17.59 787.15,-24.58"/>
<text text-anchor="middle" x="463.12" y="-2207.69" font-family="Times,serif" font-size="14.00" fill="#00994e">I can tell I want to be</text>
<text text-anchor="middle" x="463.12" y="-2190.44" font-family="Times,serif" font-size="14.00" fill="#00994e">elsewhere.</text>
</g>
<!-- Node002&#45;&gt;Node003 -->
<g id="edge13" class="edge">
<title>Node002&#45;&gt;Node003</title>
<path fill="none" stroke="#8b9900" d="M405.81,-3885.03C408.2,-3863.76 412.61,-3837.75 420.75,-3815.58 490.48,-3625.6 612.6,-3430.52 709.78,-3291.75"/>
<polygon fill="#8b9900" stroke="#8b9900" points="712.96,-3294.31 715.85,-3284.11 707.23,-3290.28 712.96,-3294.31"/>
<text text-anchor="middle" x="459.62" y="-3836.78" font-family="Times,serif" font-size="14.00" fill="#8b9900">Like what?</text>
</g>
<!-- Node002&#45;&gt;Node003 -->
<g id="edge14" class="edge">
<title>Node002&#45;&gt;Node003</title>
<path fill="none" stroke="#7a0099" d="M471.37,-3891.07C481.09,-3884.09 490.37,-3876.15 498,-3867.33 514.45,-3848.34 510.38,-3838.47 520.75,-3815.58 584.67,-3674.56 657.19,-3518.75 718.39,-3388.43"/>
<polygon fill="#7a0099" stroke="#7a0099" points="721.88,-3390.24 722.96,-3379.7 715.54,-3387.26 721.88,-3390.24"/>
<text text-anchor="middle" x="591.12" y="-3845.41" font-family="Times,serif" font-size="14.00" fill="#7a0099">Nice attitude. What</text>
<text text-anchor="middle" x="591.12" y="-3828.16" font-family="Times,serif" font-size="14.00" fill="#7a0099">caused it?</text>
</g>
<!-- Node003&#45;&gt;Node999 -->
<g id="edge16" class="edge">
<title>Node003&#45;&gt;Node999</title>
<path fill="none" stroke="#992100" d="M736.83,-2694.49C666.04,-2468 582.09,-2222.96 540,-2186.49 508.26,-2158.99 473.96,-2200.89 447.25,-2168.49 381.32,-2088.54 413.14,-401 447.25,-303.14 493.79,-169.65 524.18,-127.41 645,-54 688.71,-27.45 748.44,-20.44 786.87,-18.9"/>
<polygon fill="#992100" stroke="#992100" points="786.7,-22.38 796.6,-18.59 786.5,-15.38 786.7,-22.38"/>
<text text-anchor="middle" x="542.88" y="-1239.77" font-family="Times,serif" font-size="14.00" fill="#992100">Uh, me hear someone call.</text>
<text text-anchor="middle" x="542.88" y="-1222.52" font-family="Times,serif" font-size="14.00" fill="#992100">Bye!</text>
</g>
<!-- Node003&#45;&gt;Node999 -->
<g id="edge22" class="edge">
<title>Node003&#45;&gt;Node999</title>
<path fill="none" stroke="#470099" d="M730.89,-2738.89C691.94,-2598.63 659,-2435.07 659,-2283.12 659,-2283.12 659,-2283.12 659,-159.95 659,-91.44 742.17,-49.3 790.77,-30.52"/>
<polygon fill="#470099" stroke="#470099" points="791.71,-33.53 799.86,-26.76 789.27,-26.97 791.71,-33.53"/>
<text text-anchor="middle" x="752.38" y="-1248.39" font-family="Times,serif" font-size="14.00" fill="#470099">Wait a minute. I forgot I</text>
<text text-anchor="middle" x="752.38" y="-1231.14" font-family="Times,serif" font-size="14.00" fill="#470099">have something else to do</text>
<text text-anchor="middle" x="752.38" y="-1213.89" font-family="Times,serif" font-size="14.00" fill="#470099">right now.</text>
</g>
<!-- Node004 -->
<g id="node23" class="node">
<title>Node004</title>
<ellipse fill="#ffffff" stroke="#000000" cx="901" cy="-2282.12" rx="133.29" ry="42.25"/>
<text text-anchor="middle" x="901" y="-2294.69" font-family="Times,serif" font-size="14.00">Yeah, well, shit happens</text>
<text text-anchor="middle" x="901" y="-2277.44" font-family="Times,serif" font-size="14.00">&#45;&#45; and when it does, it</text>
<text text-anchor="middle" x="901" y="-2260.19" font-family="Times,serif" font-size="14.00">happens to me.</text>
</g>
<!-- Node003&#45;&gt;Node004 -->
<g id="edge17" class="edge">
<title>Node003&#45;&gt;Node004</title>
<path fill="none" stroke="#000c99" d="M725.54,-2786.9C685.51,-2641.57 671.67,-2472.26 757.5,-2343.24 765.31,-2331.5 775.9,-2322.05 787.81,-2314.44"/>
<polygon fill="#000c99" stroke="#000c99" points="789.29,-2317.05 796.15,-2308.98 785.76,-2311.01 789.29,-2317.05"/>
<text text-anchor="middle" x="820.25" y="-2355.82" font-family="Times,serif" font-size="14.00" fill="#000c99">Sorry things bad.</text>
</g>
<!-- Node003&#45;&gt;Node004 -->
<g id="edge19" class="edge">
<title>Node003&#45;&gt;Node004</title>
<path fill="none" stroke="#990065" d="M893.47,-2419.12C895.29,-2386.3 896.86,-2357.78 898.1,-2335.46"/>
<polygon fill="#990065" stroke="#990065" points="901.64,-2335.86 898.7,-2325.68 894.65,-2335.47 901.64,-2335.86"/>
<text text-anchor="middle" x="984.25" y="-2364.44" font-family="Times,serif" font-size="14.00" fill="#990065">Wow! I&#39;m sure glad that</text>
<text text-anchor="middle" x="984.25" y="-2347.19" font-family="Times,serif" font-size="14.00" fill="#990065">I&#39;m not you!</text>
</g>
<!-- Node005 -->
<g id="node24" class="node">
<title>Node005</title>
<ellipse fill="#ffffff" stroke="#000000" cx="1294" cy="-1235.82" rx="144.96" ry="932.67"/>
<text text-anchor="middle" x="1294" y="-1878.02" font-family="Times,serif" font-size="14.00">Well, there I was,</text>
<text text-anchor="middle" x="1294" y="-1860.77" font-family="Times,serif" font-size="14.00">traveling through the</text>
<text text-anchor="middle" x="1294" y="-1843.52" font-family="Times,serif" font-size="14.00">desert, when suddenly my</text>
<text text-anchor="middle" x="1294" y="-1826.27" font-family="Times,serif" font-size="14.00">brahmin falls over dead.</text>
<text text-anchor="middle" x="1294" y="-1809.02" font-family="Times,serif" font-size="14.00">About</text>
<text text-anchor="middle" x="1294" y="-1791.77" font-family="Times,serif" font-size="14.00">then I realized I was</text>
<text text-anchor="middle" x="1294" y="-1774.52" font-family="Times,serif" font-size="14.00">low on water and hadn&#39;t</text>
<text text-anchor="middle" x="1294" y="-1757.27" font-family="Times,serif" font-size="14.00">had a drink in quite a</text>
<text text-anchor="middle" x="1294" y="-1740.02" font-family="Times,serif" font-size="14.00">while. Later, my bones</text>
<text text-anchor="middle" x="1294" y="-1722.77" font-family="Times,serif" font-size="14.00">began to</text>
<text text-anchor="middle" x="1294" y="-1705.52" font-family="Times,serif" font-size="14.00">ache, my head started to</text>
<text text-anchor="middle" x="1294" y="-1688.27" font-family="Times,serif" font-size="14.00">hurt, my bowels became</text>
<text text-anchor="middle" x="1294" y="-1671.02" font-family="Times,serif" font-size="14.00">loose, and I got this</text>
<text text-anchor="middle" x="1294" y="-1653.77" font-family="Times,serif" font-size="14.00">rash that just wouldn&#39;t</text>
<text text-anchor="middle" x="1294" y="-1636.52" font-family="Times,serif" font-size="14.00">go away.</text>
<text text-anchor="middle" x="1294" y="-1619.27" font-family="Times,serif" font-size="14.00">It was time to sit down</text>
<text text-anchor="middle" x="1294" y="-1602.02" font-family="Times,serif" font-size="14.00">and die.</text>
<text text-anchor="middle" x="1294" y="-1584.77" font-family="Times,serif" font-size="14.00">&#45;&#45;&#45;</text>
<text text-anchor="middle" x="1294" y="-1567.52" font-family="Times,serif" font-size="14.00">Well, there I was sitting</text>
<text text-anchor="middle" x="1294" y="-1550.27" font-family="Times,serif" font-size="14.00">in the desert, waiting</text>
<text text-anchor="middle" x="1294" y="-1533.02" font-family="Times,serif" font-size="14.00">for the world to swallow</text>
<text text-anchor="middle" x="1294" y="-1515.77" font-family="Times,serif" font-size="14.00">my miserable existence,</text>
<text text-anchor="middle" x="1294" y="-1498.52" font-family="Times,serif" font-size="14.00">when a pack of</text>
<text text-anchor="middle" x="1294" y="-1481.27" font-family="Times,serif" font-size="14.00">deathclaws shows up.</text>
<text text-anchor="middle" x="1294" y="-1464.02" font-family="Times,serif" font-size="14.00">Well, I&#39;m thinking to</text>
<text text-anchor="middle" x="1294" y="-1446.77" font-family="Times,serif" font-size="14.00">myself, this is it. Now I</text>
<text text-anchor="middle" x="1294" y="-1429.52" font-family="Times,serif" font-size="14.00">can die. I can wind up</text>
<text text-anchor="middle" x="1294" y="-1412.27" font-family="Times,serif" font-size="14.00">as a pile of deathclaw</text>
<text text-anchor="middle" x="1294" y="-1395.02" font-family="Times,serif" font-size="14.00">shit in the middle of the</text>
<text text-anchor="middle" x="1294" y="-1377.77" font-family="Times,serif" font-size="14.00">desert. But no... fate</text>
<text text-anchor="middle" x="1294" y="-1360.52" font-family="Times,serif" font-size="14.00">had yet another cruel</text>
<text text-anchor="middle" x="1294" y="-1343.27" font-family="Times,serif" font-size="14.00"> card to play against me.</text>
<text text-anchor="middle" x="1294" y="-1326.02" font-family="Times,serif" font-size="14.00">&#45;&#45;&#45;</text>
<text text-anchor="middle" x="1294" y="-1308.77" font-family="Times,serif" font-size="14.00">You see, the deathclaws</text>
<text text-anchor="middle" x="1294" y="-1291.52" font-family="Times,serif" font-size="14.00">didn&#39;t kill me. Instead</text>
<text text-anchor="middle" x="1294" y="-1274.27" font-family="Times,serif" font-size="14.00">they gave me water,</text>
<text text-anchor="middle" x="1294" y="-1257.02" font-family="Times,serif" font-size="14.00">brought me here, gave me</text>
<text text-anchor="middle" x="1294" y="-1239.77" font-family="Times,serif" font-size="14.00">this room, gave me food,</text>
<text text-anchor="middle" x="1294" y="-1222.52" font-family="Times,serif" font-size="14.00">cleaned me up, and now</text>
<text text-anchor="middle" x="1294" y="-1205.27" font-family="Times,serif" font-size="14.00">they won&#39;t let me leave.</text>
<text text-anchor="middle" x="1294" y="-1188.02" font-family="Times,serif" font-size="14.00">I know they&#39;re fattening</text>
<text text-anchor="middle" x="1294" y="-1170.77" font-family="Times,serif" font-size="14.00">me up</text>
<text text-anchor="middle" x="1294" y="-1153.52" font-family="Times,serif" font-size="14.00">for some unknown,</text>
<text text-anchor="middle" x="1294" y="-1136.27" font-family="Times,serif" font-size="14.00">horrible fate. I keep</text>
<text text-anchor="middle" x="1294" y="-1119.02" font-family="Times,serif" font-size="14.00">telling them that I would</text>
<text text-anchor="middle" x="1294" y="-1101.77" font-family="Times,serif" font-size="14.00">probably taste better if</text>
<text text-anchor="middle" x="1294" y="-1084.52" font-family="Times,serif" font-size="14.00">I was</text>
<text text-anchor="middle" x="1294" y="-1067.27" font-family="Times,serif" font-size="14.00">leaner, but it does no</text>
<text text-anchor="middle" x="1294" y="-1050.02" font-family="Times,serif" font-size="14.00">good. They just smile &#45;&#45;</text>
<text text-anchor="middle" x="1294" y="-1032.77" font-family="Times,serif" font-size="14.00">if you can call it that</text>
<text text-anchor="middle" x="1294" y="-1015.52" font-family="Times,serif" font-size="14.00">&#45;&#45; and pat me on the head</text>
<text text-anchor="middle" x="1294" y="-998.27" font-family="Times,serif" font-size="14.00">and</text>
<text text-anchor="middle" x="1294" y="-981.02" font-family="Times,serif" font-size="14.00">say &#39;Don&#39;t worry, human,</text>
<text text-anchor="middle" x="1294" y="-963.77" font-family="Times,serif" font-size="14.00">things will get better.&#39;</text>
<text text-anchor="middle" x="1294" y="-946.52" font-family="Times,serif" font-size="14.00">Ha! We both know what</text>
<text text-anchor="middle" x="1294" y="-929.27" font-family="Times,serif" font-size="14.00">that means.</text>
<text text-anchor="middle" x="1294" y="-912.02" font-family="Times,serif" font-size="14.00">&#45;&#45;&#45;</text>
<text text-anchor="middle" x="1294" y="-894.77" font-family="Times,serif" font-size="14.00">Anyway, to make matters</text>
<text text-anchor="middle" x="1294" y="-877.52" font-family="Times,serif" font-size="14.00">worse, then they started</text>
<text text-anchor="middle" x="1294" y="-860.27" font-family="Times,serif" font-size="14.00">giving me some sort of</text>
<text text-anchor="middle" x="1294" y="-843.02" font-family="Times,serif" font-size="14.00">medication. It was</text>
<text text-anchor="middle" x="1294" y="-825.77" font-family="Times,serif" font-size="14.00">making me gassy, so I</text>
<text text-anchor="middle" x="1294" y="-808.52" font-family="Times,serif" font-size="14.00">stopped taking it &#45;&#45; and</text>
<text text-anchor="middle" x="1294" y="-791.27" font-family="Times,serif" font-size="14.00">it&#39;s a good thing I did.</text>
<text text-anchor="middle" x="1294" y="-774.02" font-family="Times,serif" font-size="14.00">I think it was some sort</text>
<text text-anchor="middle" x="1294" y="-756.77" font-family="Times,serif" font-size="14.00">of</text>
<text text-anchor="middle" x="1294" y="-739.52" font-family="Times,serif" font-size="14.00">&#39;mind control&#39; pill,</text>
<text text-anchor="middle" x="1294" y="-722.27" font-family="Times,serif" font-size="14.00">because I started to feel</text>
<text text-anchor="middle" x="1294" y="-705.02" font-family="Times,serif" font-size="14.00">like things weren&#39;t</text>
<text text-anchor="middle" x="1294" y="-687.77" font-family="Times,serif" font-size="14.00">actually as bad as I</text>
<text text-anchor="middle" x="1294" y="-670.52" font-family="Times,serif" font-size="14.00">thought!</text>
<text text-anchor="middle" x="1294" y="-653.27" font-family="Times,serif" font-size="14.00">Anyway, that&#39;s about it.</text>
<text text-anchor="middle" x="1294" y="-636.02" font-family="Times,serif" font-size="14.00">I&#39;m just waiting for the</text>
<text text-anchor="middle" x="1294" y="-618.77" font-family="Times,serif" font-size="14.00">dinner bell to chime, so</text>
<text text-anchor="middle" x="1294" y="-601.52" font-family="Times,serif" font-size="14.00">that they can feast on my</text>
<text text-anchor="middle" x="1294" y="-584.27" font-family="Times,serif" font-size="14.00"> bloated body.</text>
</g>
<!-- Node003&#45;&gt;Node005 -->
<g id="edge18" class="edge">
<title>Node003&#45;&gt;Node005</title>
<path fill="none" stroke="#389900" d="M975.97,-2701.21C1007.88,-2596.11 1042.29,-2482.63 1074,-2377.74 1092.63,-2316.1 1066.31,-2280.26 1115.75,-2238.99 1143.09,-2216.17 1251.02,-2247.32 1275,-2220.99 1377.9,-2108.02 1411.23,-1953.9 1411.05,-1801.16"/>
<polygon fill="#389900" stroke="#389900" points="1414.54,-1801.14 1410.98,-1791.16 1407.54,-1801.19 1414.54,-1801.14"/>
<text text-anchor="middle" x="1204.12" y="-2286.07" font-family="Times,serif" font-size="14.00" fill="#389900">Past bad, no talk. Things</text>
<text text-anchor="middle" x="1204.12" y="-2268.82" font-family="Times,serif" font-size="14.00" fill="#389900">good now?</text>
</g>
<!-- Node003&#45;&gt;Node005 -->
<g id="edge20" class="edge">
<title>Node003&#45;&gt;Node005</title>
<path fill="none" stroke="#009299" d="M995.61,-2901.76C1095.86,-2751.91 1224.71,-2535.27 1292,-2325.24 1311.42,-2264.62 1325.77,-2201.11 1336.04,-2136.51"/>
<polygon fill="#009299" stroke="#009299" points="1339.64,-2137.13 1337.71,-2126.71 1332.72,-2136.06 1339.64,-2137.13"/>
<text text-anchor="middle" x="1388.62" y="-2294.69" font-family="Times,serif" font-size="14.00" fill="#009299">Ok, I get the picture.</text>
<text text-anchor="middle" x="1388.62" y="-2277.44" font-family="Times,serif" font-size="14.00" fill="#009299">What&#39;s currently</text>
<text text-anchor="middle" x="1388.62" y="-2260.19" font-family="Times,serif" font-size="14.00" fill="#009299">bothering you?</text>
</g>
<!-- Node003&#45;&gt;Node005 -->
<g id="edge21" class="edge">
<title>Node003&#45;&gt;Node005</title>
<path fill="none" stroke="#997400" d="M998.96,-2972.39C1148.67,-2832.92 1374.61,-2590.43 1467,-2325.24 1550.93,-2084.35 1500.52,-1799.17 1432.93,-1581.16"/>
<polygon fill="#997400" stroke="#997400" points="1436.02,-1580.33 1429.7,-1571.83 1429.34,-1582.42 1436.02,-1580.33"/>
<text text-anchor="middle" x="1577.75" y="-2311.94" font-family="Times,serif" font-size="14.00" fill="#997400">I&#39;m truly sorry that</text>
<text text-anchor="middle" x="1577.75" y="-2294.69" font-family="Times,serif" font-size="14.00" fill="#997400">you&#39;ve had so much pain</text>
<text text-anchor="middle" x="1577.75" y="-2277.44" font-family="Times,serif" font-size="14.00" fill="#997400">in your life. Hopefully</text>
<text text-anchor="middle" x="1577.75" y="-2260.19" font-family="Times,serif" font-size="14.00" fill="#997400">things have gotten</text>
<text text-anchor="middle" x="1577.75" y="-2242.94" font-family="Times,serif" font-size="14.00" fill="#997400">better?</text>
</g>
<!-- Node004&#45;&gt;Node999 -->
<g id="edge24" class="edge">
<title>Node004&#45;&gt;Node999</title>
<path fill="none" stroke="#990012" d="M890.93,-2239.57C889.74,-2233.37 888.71,-2227.04 888,-2220.99 875.63,-2115.14 919.8,-383.67 850,-303.14 817.55,-265.71 772.08,-322.9 740,-285.14 677.63,-211.74 763.17,-92.08 804.67,-42.09"/>
<polygon fill="#990012" stroke="#990012" points="807.85,-44.75 811.63,-34.86 802.5,-40.23 807.85,-44.75"/>
<text text-anchor="middle" x="815" y="-254.59" font-family="Times,serif" font-size="14.00" fill="#990012">Me hear before. Bye.</text>
</g>
<!-- Node004&#45;&gt;Node999 -->
<g id="edge26" class="edge">
<title>Node004&#45;&gt;Node999</title>
<path fill="none" stroke="#6c9900" d="M905.18,-2239.66C925.76,-2026.43 1010.63,-1032.24 890,-233.39 879.52,-163.99 851.52,-85.9 835.9,-45.86"/>
<polygon fill="#6c9900" stroke="#6c9900" points="838.87,-44.86 831.94,-36.84 832.36,-47.43 838.87,-44.86"/>
<text text-anchor="middle" x="971.62" y="-271.84" font-family="Times,serif" font-size="14.00" fill="#6c9900">I really don&#39;t want to</text>
<text text-anchor="middle" x="971.62" y="-254.59" font-family="Times,serif" font-size="14.00" fill="#6c9900">hear this. I think I&#39;ll</text>
<text text-anchor="middle" x="971.62" y="-237.34" font-family="Times,serif" font-size="14.00" fill="#6c9900">be leaving.</text>
</g>
<!-- Node004&#45;&gt;Node005 -->
<g id="edge23" class="edge">
<title>Node004&#45;&gt;Node005</title>
<path fill="none" stroke="#00991a" d="M914.66,-2240.02C920.29,-2223.36 926.96,-2203.96 933.25,-2186.49 1004.2,-1989.54 1086.9,-1771.07 1155.22,-1593.38"/>
<polygon fill="#00991a" stroke="#00991a" points="1158.75,-1594.93 1159.07,-1584.34 1152.22,-1592.42 1158.75,-1594.93"/>
<text text-anchor="middle" x="1001.88" y="-2199.07" font-family="Times,serif" font-size="14.00" fill="#00991a">What happen now?</text>
</g>
<!-- Node004&#45;&gt;Node005 -->
<g id="edge25" class="edge">
<title>Node004&#45;&gt;Node005</title>
<path fill="none" stroke="#003f99" d="M1012.8,-2258.8C1033.88,-2250.06 1053.99,-2237.9 1069,-2220.99 1098.62,-2187.62 1140.28,-2025.06 1179.71,-1841.38"/>
<polygon fill="#003f99" stroke="#003f99" points="1183.34,-1842.17 1182.01,-1831.66 1176.49,-1840.7 1183.34,-1842.17"/>
<text text-anchor="middle" x="1177.75" y="-2207.69" font-family="Times,serif" font-size="14.00" fill="#003f99">So what&#39;s going on now to</text>
<text text-anchor="middle" x="1177.75" y="-2190.44" font-family="Times,serif" font-size="14.00" fill="#003f99">upset you so much?</text>
</g>
<!-- Node005&#45;&gt;Node999 -->
<g id="edge28" class="edge">
<title>Node005&#45;&gt;Node999</title>
<path fill="none" stroke="#00996d" d="M1212.83,-461.46C1176.92,-376.33 1128.06,-297.45 1062,-233.39 1032.64,-204.92 1001.8,-243.15 971.75,-215.39 916.98,-164.81 977.19,-108.21 926,-54 909.51,-36.53 883.87,-27.78 862.56,-23.4"/>
<polygon fill="#00996d" stroke="#00996d" points="863.34,-19.8 852.88,-21.48 862.1,-26.69 863.34,-19.8"/>
<text text-anchor="middle" x="1058.62" y="-164.9" font-family="Times,serif" font-size="14.00" fill="#00996d">You no talk no more. Me</text>
<text text-anchor="middle" x="1058.62" y="-147.65" font-family="Times,serif" font-size="14.00" fill="#00996d">go.</text>
</g>
<!-- Node005&#45;&gt;Node999 -->
<g id="edge29" class="edge">
<title>Node005&#45;&gt;Node999</title>
<path fill="none" stroke="#994000" d="M1209.44,-476.77C1184.8,-283.28 1160.39,-124.13 1145,-106.5 1107.68,-63.75 938.21,-34.97 862.14,-23.98"/>
<polygon fill="#994000" stroke="#994000" points="863.02,-20.43 852.63,-22.49 862.04,-27.36 863.02,-20.43"/>
<text text-anchor="middle" x="1265.12" y="-182.15" font-family="Times,serif" font-size="14.00" fill="#994000">I don&#39;t want to hear</text>
<text text-anchor="middle" x="1265.12" y="-164.9" font-family="Times,serif" font-size="14.00" fill="#994000">anymore. I&#39;ve got to get</text>
<text text-anchor="middle" x="1265.12" y="-147.65" font-family="Times,serif" font-size="14.00" fill="#994000">out of here and away from</text>
<text text-anchor="middle" x="1265.12" y="-130.4" font-family="Times,serif" font-size="14.00" fill="#994000">you. Bye.</text>
</g>
<!-- Node006 -->
<g id="node25" class="node">
<title>Node006</title>
<ellipse fill="#ffffff" stroke="#000000" cx="1516" cy="-160.95" rx="142.84" ry="54.45"/>
<text text-anchor="middle" x="1516" y="-182.15" font-family="Times,serif" font-size="14.00">Nope. &#160;When I turned</text>
<text text-anchor="middle" x="1516" y="-164.9" font-family="Times,serif" font-size="14.00">twenty&#45;two this strange</text>
<text text-anchor="middle" x="1516" y="-147.65" font-family="Times,serif" font-size="14.00">fungus started to grow on</text>
<text text-anchor="middle" x="1516" y="-130.4" font-family="Times,serif" font-size="14.00">my test...</text>
</g>
<!-- Node005&#45;&gt;Node006 -->
<g id="edge27" class="edge">
<title>Node005&#45;&gt;Node006</title>
<path fill="none" stroke="#990098" d="M1202.89,-508.38C1219.03,-409.54 1252.15,-314.4 1310.75,-233.39 1311.55,-232.28 1354.1,-217.4 1400.25,-201.5"/>
<polygon fill="#990098" stroke="#990098" points="1401.13,-204.55 1409.45,-197.99 1398.85,-197.93 1401.13,-204.55"/>
<text text-anchor="middle" x="1394.62" y="-263.22" font-family="Times,serif" font-size="14.00" fill="#990098">Me... uh... you... You no</text>
<text text-anchor="middle" x="1394.62" y="-245.97" font-family="Times,serif" font-size="14.00" fill="#990098">have wife or child?</text>
</g>
<!-- Node005&#45;&gt;Node006 -->
<g id="edge30" class="edge">
<title>Node005&#45;&gt;Node006</title>
<path fill="none" stroke="#140099" d="M1410.04,-674.03C1447.28,-494.06 1483.76,-317.76 1502.67,-226.36"/>
<polygon fill="#140099" stroke="#140099" points="1506.29,-227.15 1504.89,-216.64 1499.44,-225.73 1506.29,-227.15"/>
<text text-anchor="middle" x="1586.88" y="-263.22" font-family="Times,serif" font-size="14.00" fill="#140099">Please tell me that you</text>
<text text-anchor="middle" x="1586.88" y="-245.97" font-family="Times,serif" font-size="14.00" fill="#140099">don&#39;t have any children.</text>
</g>
<!-- Node006&#45;&gt;Node999 -->
<g id="edge31" class="edge">
<title>Node006&#45;&gt;Node999</title>
<path fill="none" stroke="#199900" d="M1413.61,-122.75C1395.55,-116.87 1376.82,-111.18 1359,-106.5 1317.12,-95.49 1304.72,-100.94 1263.25,-88.5 1225.28,-77.11 1219.43,-63.71 1181,-54 1067.73,-25.37 928.7,-19.92 862.93,-19.04"/>
<polygon fill="#199900" stroke="#199900" points="863.3,-15.53 853.27,-18.93 863.23,-22.53 863.3,-15.53"/>
<text text-anchor="middle" x="1348.38" y="-75.2" font-family="Times,serif" font-size="14.00" fill="#199900">Arrg! You talk no more!</text>
<text text-anchor="middle" x="1348.38" y="-57.95" font-family="Times,serif" font-size="14.00" fill="#199900">Me go!</text>
</g>
<!-- Node006&#45;&gt;Node999 -->
<g id="edge32" class="edge">
<title>Node006&#45;&gt;Node999</title>
<path fill="none" stroke="#990045" d="M1487.37,-107.21C1473.48,-86.94 1454.81,-65.85 1432,-54 1381.7,-27.87 988.48,-20.95 863.21,-19.4"/>
<polygon fill="#990045" stroke="#990045" points="863.32,-15.89 853.27,-19.27 863.23,-22.89 863.32,-15.89"/>
<text text-anchor="middle" x="1545.88" y="-75.2" font-family="Times,serif" font-size="14.00" fill="#990045">Stop! I don&#39;t want to</text>
<text text-anchor="middle" x="1545.88" y="-57.95" font-family="Times,serif" font-size="14.00" fill="#990045">know!</text>
</g>
</g>
</svg>
