<?xml version="1.0" encoding="UTF-8" standalone="no"?>
<!DOCTYPE svg PUBLIC "-//W3C//DTD SVG 1.1//EN"
 "http://www.w3.org/Graphics/SVG/1.1/DTD/svg11.dtd">
<!-- Generated by graphviz version 8.0.5 (0)
 -->
<!-- Title: ocdalia Pages: 1 -->
<svg width="3349pt" height="2277pt"
 viewBox="0.00 0.00 3349.00 2277.15" xmlns="http://www.w3.org/2000/svg" xmlns:xlink="http://www.w3.org/1999/xlink">
<g id="graph0" class="graph" transform="scale(1 1) rotate(0) translate(4 2273.15)">
<title>ocdalia</title>
<polygon fill="white" stroke="none" points="-4,4 -4,-2273.15 3345,-2273.15 3345,4 -4,4"/>
<!-- checkPartyMembersNearDoor -->
<g id="node1" class="node">
<title>checkPartyMembersNearDoor</title>
<ellipse fill="#ffffff" stroke="#000000" cx="27" cy="-2202.51" rx="27" ry="18"/>
</g>
<!-- old_pickup_p_proc -->
<g id="node2" class="node">
<title>old_pickup_p_proc</title>
<ellipse fill="#ffffff" stroke="#000000" cx="99" cy="-2020.02" rx="27" ry="18"/>
</g>
<!-- pickup_p_proc -->
<g id="node3" class="node">
<title>pickup_p_proc</title>
<ellipse fill="#ffffff" stroke="#000000" cx="99" cy="-2202.51" rx="27" ry="18"/>
</g>
<!-- pickup_p_proc&#45;&gt;old_pickup_p_proc -->
<g id="edge1" class="edge">
<title>pickup_p_proc&#45;&gt;old_pickup_p_proc</title>
<path fill="none" stroke="#555555" stroke-dasharray="1,5" d="M99,-2184.2C99,-2152.94 99,-2086.79 99,-2049.01"/>
<polygon fill="#555555" stroke="#555555" points="102.5,-2049.27 99,-2039.27 95.5,-2049.27 102.5,-2049.27"/>
</g>
<!-- getTimeBit -->
<g id="node4" class="node">
<title>getTimeBit</title>
<ellipse fill="#ffffff" stroke="#000000" cx="251" cy="-2202.51" rx="27" ry="18"/>
</g>
<!-- start -->
<g id="node5" class="node">
<title>start</title>
<ellipse fill="#ffffff" stroke="#000000" cx="363" cy="-2202.51" rx="27" ry="18"/>
</g>
<!-- critter_p_proc -->
<g id="node6" class="node">
<title>critter_p_proc</title>
<ellipse fill="#ffffff" stroke="#000000" cx="455" cy="-2202.51" rx="27" ry="18"/>
</g>
<!-- talk_p_proc -->
<g id="node7" class="node">
<title>talk_p_proc</title>
<ellipse fill="#ffffff" stroke="#000000" cx="696" cy="-2202.51" rx="27" ry="18"/>
</g>
<!-- Node012 -->
<g id="node8" class="node">
<title>Node012</title>
<ellipse fill="#ffffff" stroke="#000000" cx="267" cy="-2020.02" rx="123.21" ry="30.05"/>
<text text-anchor="middle" x="267" y="-2023.97" font-family="Times,serif" font-size="14.00">I have no quarrel with</text>
<text text-anchor="middle" x="267" y="-2006.72" font-family="Times,serif" font-size="14.00">you.</text>
</g>
<!-- talk_p_proc&#45;&gt;Node012 -->
<g id="edge2" class="edge">
<title>talk_p_proc&#45;&gt;Node012</title>
<path fill="none" stroke="#555555" stroke-dasharray="1,5" d="M671.83,-2193.84C610.46,-2174.28 449.89,-2122.37 399,-2098.86 371.39,-2086.1 342.11,-2069.22 318.17,-2054.43"/>
<polygon fill="#555555" stroke="#555555" points="320.27,-2050.99 309.93,-2048.67 316.56,-2056.93 320.27,-2050.99"/>
</g>
<!-- Node001 -->
<g id="node9" class="node">
<title>Node001</title>
<ellipse fill="#ffffff" stroke="#000000" cx="548" cy="-2020.02" rx="139.65" ry="78.84"/>
<text text-anchor="middle" x="548" y="-2058.47" font-family="Times,serif" font-size="14.00">Well, I&#39;ll be. How are</text>
<text text-anchor="middle" x="548" y="-2041.22" font-family="Times,serif" font-size="14.00">you doing,</text>
<text text-anchor="middle" x="548" y="-2023.97" font-family="Times,serif" font-size="14.00">&#45;&#45;&#45;</text>
<text text-anchor="middle" x="548" y="-2006.72" font-family="Times,serif" font-size="14.00">. I hope everything</text>
<text text-anchor="middle" x="548" y="-1989.47" font-family="Times,serif" font-size="14.00">worked out for you at the</text>
<text text-anchor="middle" x="548" y="-1972.22" font-family="Times,serif" font-size="14.00">Squat.</text>
</g>
<!-- talk_p_proc&#45;&gt;Node001 -->
<g id="edge3" class="edge">
<title>talk_p_proc&#45;&gt;Node001</title>
<path fill="none" stroke="#555555" stroke-dasharray="1,5" d="M683.38,-2186.12C667.59,-2166.86 639.39,-2132.47 612.8,-2100.04"/>
<polygon fill="#555555" stroke="#555555" points="615.13,-2098.36 606.08,-2092.85 609.71,-2102.8 615.13,-2098.36"/>
</g>
<!-- Node010 -->
<g id="node10" class="node">
<title>Node010</title>
<ellipse fill="#ffffff" stroke="#000000" cx="746" cy="-2020.02" rx="40.69" ry="18"/>
<text text-anchor="middle" x="746" y="-2015.34" font-family="Times,serif" font-size="14.00">Hello.</text>
</g>
<!-- talk_p_proc&#45;&gt;Node010 -->
<g id="edge4" class="edge">
<title>talk_p_proc&#45;&gt;Node010</title>
<path fill="none" stroke="#555555" stroke-dasharray="1,5" d="M700.7,-2184.53C709.36,-2153.3 727.86,-2086.49 738.35,-2048.65"/>
<polygon fill="#555555" stroke="#555555" points="741.9,-2049.92 741.2,-2039.35 735.16,-2048.05 741.9,-2049.92"/>
</g>
<!-- Node011 -->
<g id="node11" class="node">
<title>Node011</title>
<ellipse fill="#ffffff" stroke="#000000" cx="921" cy="-2020.02" rx="116.32" ry="30.05"/>
<text text-anchor="middle" x="921" y="-2023.97" font-family="Times,serif" font-size="14.00">Hello again. How&#39;s it</text>
<text text-anchor="middle" x="921" y="-2006.72" font-family="Times,serif" font-size="14.00">going?</text>
</g>
<!-- talk_p_proc&#45;&gt;Node011 -->
<g id="edge5" class="edge">
<title>talk_p_proc&#45;&gt;Node011</title>
<path fill="none" stroke="#555555" stroke-dasharray="1,5" d="M702.28,-2184.52C708.22,-2170.21 718.28,-2149.9 732,-2135.86 754.97,-2112.37 767.83,-2115.77 796,-2098.86 819.98,-2084.47 846.28,-2068.17 868.55,-2054.21"/>
<polygon fill="#555555" stroke="#555555" points="870.22,-2056.67 876.83,-2048.39 866.5,-2050.74 870.22,-2056.67"/>
</g>
<!-- Node999 -->
<g id="node22" class="node">
<title>Node999</title>
<ellipse fill="#ffffff" stroke="#000000" cx="2344" cy="-18" rx="27" ry="18"/>
</g>
<!-- Node001&#45;&gt;Node999 -->
<g id="edge8" class="edge">
<title>Node001&#45;&gt;Node999</title>
<path fill="none" stroke="#007799" d="M450.35,-1963.14C433.57,-1954.96 416.04,-1947.26 399,-1941.18 361.81,-1927.91 348.5,-1938.23 312,-1923.18 223.19,-1886.55 131,-1901.1 131,-1805.03 131,-1805.03 131,-1805.03 131,-142.7 131,-53.11 224.91,-74.98 312,-54 412.6,-29.76 2035.71,-20.55 2305.99,-19.18"/>
<polygon fill="#007799" stroke="#007799" points="2305.81,-22.68 2315.79,-19.13 2305.77,-15.68 2305.81,-22.68"/>
<text text-anchor="middle" x="210.5" y="-1520.46" font-family="Times,serif" font-size="14.00" fill="#007799">Things ok. Me go now.</text>
</g>
<!-- Node001&#45;&gt;Node999 -->
<g id="edge10" class="edge">
<title>Node001&#45;&gt;Node999</title>
<path fill="none" stroke="#620099" d="M443.18,-1967.39C385.7,-1931 326,-1876.09 326,-1805.03 326,-1805.03 326,-1805.03 326,-142.7 326,57.66 568.85,-76.02 768,-54 1079.68,-19.54 2096.2,-18.73 2305.94,-18.94"/>
<polygon fill="#620099" stroke="#620099" points="2305.68,-22.44 2315.68,-18.95 2305.69,-15.44 2305.68,-22.44"/>
<text text-anchor="middle" x="411.12" y="-1529.09" font-family="Times,serif" font-size="14.00" fill="#620099">Things are fine, but I&#39;ve</text>
<text text-anchor="middle" x="411.12" y="-1511.84" font-family="Times,serif" font-size="14.00" fill="#620099">got to go.</text>
</g>
<!-- Node002 -->
<g id="node23" class="node">
<title>Node002</title>
<ellipse fill="#ffffff" stroke="#000000" cx="1543" cy="-1804.03" rx="134.35" ry="66.64"/>
<text text-anchor="middle" x="1543" y="-1833.86" font-family="Times,serif" font-size="14.00">Hey, I&#39;m glad to hear</text>
<text text-anchor="middle" x="1543" y="-1816.61" font-family="Times,serif" font-size="14.00">that. It was my pleasure</text>
<text text-anchor="middle" x="1543" y="-1799.36" font-family="Times,serif" font-size="14.00">to do what I could for</text>
<text text-anchor="middle" x="1543" y="-1782.11" font-family="Times,serif" font-size="14.00">you. So, what can I help</text>
<text text-anchor="middle" x="1543" y="-1764.86" font-family="Times,serif" font-size="14.00"> you with?</text>
</g>
<!-- Node001&#45;&gt;Node002 -->
<g id="edge7" class="edge">
<title>Node001&#45;&gt;Node002</title>
<path fill="none" stroke="#99004a" d="M644.87,-1962.85C661.55,-1954.71 679,-1947.09 696,-1941.18 933.73,-1858.48 1226.71,-1825.63 1398.39,-1812.86"/>
<polygon fill="#99004a" stroke="#99004a" points="1398.55,-1816.29 1408.27,-1812.07 1398.04,-1809.31 1398.55,-1816.29"/>
<text text-anchor="middle" x="965.5" y="-1909.88" font-family="Times,serif" font-size="14.00" fill="#99004a">You Dalia. Me remember</text>
<text text-anchor="middle" x="965.5" y="-1892.63" font-family="Times,serif" font-size="14.00" fill="#99004a">you help.</text>
</g>
<!-- Node001&#45;&gt;Node002 -->
<g id="edge9" class="edge">
<title>Node001&#45;&gt;Node002</title>
<path fill="none" stroke="#998f00" d="M642.63,-1961.61C659.87,-1953.39 678.08,-1946.08 696,-1941.18 773.69,-1919.93 978.29,-1934.76 1058,-1923.18 1182.12,-1905.14 1320.91,-1869.74 1418.11,-1842.37"/>
<polygon fill="#998f00" stroke="#998f00" points="1418.9,-1845.5 1427.57,-1839.41 1417,-1838.76 1418.9,-1845.5"/>
<text text-anchor="middle" x="1322.5" y="-1909.88" font-family="Times,serif" font-size="14.00" fill="#998f00">Dalia! Thanks to you,</text>
<text text-anchor="middle" x="1322.5" y="-1892.63" font-family="Times,serif" font-size="14.00" fill="#998f00">things worked out great.</text>
</g>
<!-- destroy_p_proc -->
<g id="node12" class="node">
<title>destroy_p_proc</title>
<ellipse fill="#ffffff" stroke="#000000" cx="768" cy="-2202.51" rx="27" ry="18"/>
</g>
<!-- look_at_p_proc -->
<g id="node13" class="node">
<title>look_at_p_proc</title>
<ellipse fill="#ffffff" stroke="#000000" cx="957" cy="-2202.51" rx="144.43" ry="54.45"/>
<text text-anchor="middle" x="957" y="-2223.71" font-family="Times,serif" font-size="14.00">You see a young woman in</text>
<text text-anchor="middle" x="957" y="-2206.46" font-family="Times,serif" font-size="14.00">metal armor.</text>
<text text-anchor="middle" x="957" y="-2189.21" font-family="Times,serif" font-size="14.00">&#45;&#45;&#45;</text>
<text text-anchor="middle" x="957" y="-2171.96" font-family="Times,serif" font-size="14.00">You see Dalia.</text>
</g>
<!-- description_p_proc -->
<g id="node14" class="node">
<title>description_p_proc</title>
<ellipse fill="#ffffff" stroke="#000000" cx="1254" cy="-2202.51" rx="134.88" ry="66.64"/>
<text text-anchor="middle" x="1254" y="-2232.33" font-family="Times,serif" font-size="14.00">You see a pretty young</text>
<text text-anchor="middle" x="1254" y="-2215.08" font-family="Times,serif" font-size="14.00">woman dressed in metal</text>
<text text-anchor="middle" x="1254" y="-2197.83" font-family="Times,serif" font-size="14.00">armor. She watches her</text>
<text text-anchor="middle" x="1254" y="-2180.58" font-family="Times,serif" font-size="14.00">surroundings very</text>
<text text-anchor="middle" x="1254" y="-2163.33" font-family="Times,serif" font-size="14.00"> carefully.</text>
</g>
<!-- use_skill_on_p_proc -->
<g id="node15" class="node">
<title>use_skill_on_p_proc</title>
<ellipse fill="#ffffff" stroke="#000000" cx="1434" cy="-2202.51" rx="27" ry="18"/>
</g>
<!-- damage_p_proc -->
<g id="node16" class="node">
<title>damage_p_proc</title>
<ellipse fill="#ffffff" stroke="#000000" cx="1506" cy="-2202.51" rx="27" ry="18"/>
</g>
<!-- map_enter_p_proc -->
<g id="node17" class="node">
<title>map_enter_p_proc</title>
<ellipse fill="#ffffff" stroke="#000000" cx="1578" cy="-2202.51" rx="27" ry="18"/>
</g>
<!-- check_dalia_state -->
<g id="node18" class="node">
<title>check_dalia_state</title>
<ellipse fill="#ffffff" stroke="#000000" cx="1578" cy="-2020.02" rx="27" ry="18"/>
</g>
<!-- map_enter_p_proc&#45;&gt;check_dalia_state -->
<g id="edge6" class="edge">
<title>map_enter_p_proc&#45;&gt;check_dalia_state</title>
<path fill="none" stroke="#555555" stroke-dasharray="1,5" d="M1578,-2184.2C1578,-2152.94 1578,-2086.79 1578,-2049.01"/>
<polygon fill="#555555" stroke="#555555" points="1581.5,-2049.27 1578,-2039.27 1574.5,-2049.27 1581.5,-2049.27"/>
</g>
<!-- push_p_proc -->
<g id="node19" class="node">
<title>push_p_proc</title>
<ellipse fill="#ffffff" stroke="#000000" cx="1650" cy="-2202.51" rx="27" ry="18"/>
</g>
<!-- timed_event_p_proc -->
<g id="node20" class="node">
<title>timed_event_p_proc</title>
<ellipse fill="#ffffff" stroke="#000000" cx="1722" cy="-2202.51" rx="27" ry="18"/>
</g>
<!-- Node998 -->
<g id="node21" class="node">
<title>Node998</title>
<ellipse fill="#ffffff" stroke="#000000" cx="1794" cy="-2202.51" rx="27" ry="18"/>
</g>
<!-- Node002&#45;&gt;Node999 -->
<g id="edge12" class="edge">
<title>Node002&#45;&gt;Node999</title>
<path fill="none" stroke="#990900" d="M1677.78,-1802.92C2039.95,-1800.83 3007,-1782.81 3007,-1649.89 3007,-1649.89 3007,-1649.89 3007,-142.7 3007,-62.65 2911.84,-111.68 2835,-89.25 2777.95,-72.6 2764.46,-64.73 2706,-54 2588.88,-32.5 2447.86,-23.68 2381.72,-20.53"/>
<polygon fill="#990900" stroke="#990900" points="2382.16,-17 2372.01,-20.04 2381.84,-23.99 2382.16,-17"/>
<text text-anchor="middle" x="3077.12" y="-1467.21" font-family="Times,serif" font-size="14.00" fill="#990900">Nothing. Me say hi.</text>
</g>
<!-- Node002&#45;&gt;Node999 -->
<g id="edge14" class="edge">
<title>Node002&#45;&gt;Node999</title>
<path fill="none" stroke="#519900" d="M1677.42,-1799.47C1981.43,-1790.7 2714.25,-1765.38 2957,-1719.39 3054.84,-1700.85 3170,-1749.47 3170,-1649.89 3170,-1649.89 3170,-1649.89 3170,-142.7 3170,-61.89 2543.79,-28.02 2381.85,-20.62"/>
<polygon fill="#519900" stroke="#519900" points="2382.16,-17.08 2372.01,-20.13 2381.85,-24.07 2382.16,-17.08"/>
<text text-anchor="middle" x="3255.5" y="-1475.84" font-family="Times,serif" font-size="14.00" fill="#519900">Nothing. But it&#39;s nice to</text>
<text text-anchor="middle" x="3255.5" y="-1458.59" font-family="Times,serif" font-size="14.00" fill="#519900">see you again. Bye.</text>
</g>
<!-- Node003 -->
<g id="node24" class="node">
<title>Node003</title>
<ellipse fill="#ffffff" stroke="#000000" cx="1544" cy="-1648.89" rx="149.59" ry="18"/>
<text text-anchor="middle" x="1544" y="-1644.21" font-family="Times,serif" font-size="14.00">What do you want to know?</text>
</g>
<!-- Node002&#45;&gt;Node003 -->
<g id="edge11" class="edge">
<title>Node002&#45;&gt;Node003</title>
<path fill="none" stroke="#009935" d="M1477.81,-1745.55C1463.64,-1726.24 1456.18,-1704.6 1468.75,-1684.89 1471.9,-1679.95 1475.94,-1675.7 1480.52,-1672.04"/>
<polygon fill="#009935" stroke="#009935" points="1481.97,-1674.61 1488.25,-1666.08 1478.02,-1668.83 1481.97,-1674.61"/>
<text text-anchor="middle" x="1533.12" y="-1697.46" font-family="Times,serif" font-size="14.00" fill="#009935">Me got questions.</text>
</g>
<!-- Node002&#45;&gt;Node003 -->
<g id="edge13" class="edge">
<title>Node002&#45;&gt;Node003</title>
<path fill="none" stroke="#002499" d="M1588.34,-1740.96C1591.84,-1733.94 1594.85,-1726.68 1597,-1719.39 1601.34,-1704.68 1604.26,-1698.39 1597,-1684.89 1594.8,-1680.79 1591.88,-1677.09 1588.54,-1673.78"/>
<polygon fill="#002499" stroke="#002499" points="1591.05,-1670.47 1581.14,-1666.71 1586.54,-1675.83 1591.05,-1670.47"/>
<text text-anchor="middle" x="1692.88" y="-1706.09" font-family="Times,serif" font-size="14.00" fill="#002499">I have some questions for</text>
<text text-anchor="middle" x="1692.88" y="-1688.84" font-family="Times,serif" font-size="14.00" fill="#002499">you.</text>
</g>
<!-- Node003&#45;&gt;Node999 -->
<g id="edge25" class="edge">
<title>Node003&#45;&gt;Node999</title>
<path fill="none" stroke="#992800" d="M1692.57,-1646.31C2013.97,-1642.53 2746.56,-1631.87 2765,-1612.89 2793.54,-1583.51 2759.35,-1477.45 2739,-1454.64 2723.63,-1437.4 2703.86,-1455.3 2690.25,-1436.64 2610.21,-1326.92 2692.56,-333.38 2624,-216.14 2566.53,-117.86 2438.36,-56.3 2377.42,-31.52"/>
<polygon fill="#992800" stroke="#992800" points="2378.79,-27.9 2368.2,-27.46 2376.2,-34.4 2378.79,-27.9"/>
<text text-anchor="middle" x="2744.38" y="-865.22" font-family="Times,serif" font-size="14.00" fill="#992800">Thanks. Me go.</text>
</g>
<!-- Node003&#45;&gt;Node999 -->
<g id="edge26" class="edge">
<title>Node003&#45;&gt;Node999</title>
<path fill="none" stroke="#000499" d="M1693.86,-1647.94C2014.09,-1647.47 2739.7,-1643.06 2784,-1612.89 2818.64,-1589.29 2821,-1568.05 2821,-1526.14 2821,-1526.14 2821,-1526.14 2821,-142.7 2821,-52.13 2494.71,-26.76 2381.86,-20.69"/>
<polygon fill="#000499" stroke="#000499" points="2382.18,-17.15 2372.01,-20.13 2381.82,-24.14 2382.18,-17.15"/>
<text text-anchor="middle" x="2900.12" y="-873.84" font-family="Times,serif" font-size="14.00" fill="#000499">Thanks. I&#39;ll talk at you</text>
<text text-anchor="middle" x="2900.12" y="-856.59" font-family="Times,serif" font-size="14.00" fill="#000499">later.</text>
</g>
<!-- Node004a -->
<g id="node25" class="node">
<title>Node004a</title>
<ellipse fill="#ffffff" stroke="#000000" cx="714" cy="-1525.14" rx="27" ry="18"/>
</g>
<!-- Node003&#45;&gt;Node004a -->
<g id="edge15" class="edge">
<title>Node003&#45;&gt;Node004a</title>
<path fill="none" stroke="#99007d" d="M1394.39,-1647.76C1133.06,-1646.8 618.37,-1641.28 591,-1612.89 575.04,-1596.33 576.59,-1579.06 591,-1561.14 614.38,-1532.06 637.41,-1554.33 673,-1543.14 675.96,-1542.21 679.01,-1541.15 682.04,-1540.02"/>
<polygon fill="#99007d" stroke="#99007d" points="683.12,-1542.96 691.14,-1536.04 680.55,-1536.45 683.12,-1542.96"/>
<text text-anchor="middle" x="637.5" y="-1582.34" font-family="Times,serif" font-size="14.00" fill="#99007d">You prisoner.</text>
</g>
<!-- Node003&#45;&gt;Node004a -->
<g id="edge16" class="edge">
<title>Node003&#45;&gt;Node004a</title>
<path fill="none" stroke="#009988" d="M1395.21,-1646.94C1160.95,-1644.7 730.15,-1637.28 706.75,-1612.89 691.81,-1597.31 695.79,-1572.13 702.23,-1552.9"/>
<polygon fill="#009988" stroke="#009988" points="705.84,-1554.24 706.07,-1543.65 699.29,-1551.79 705.84,-1554.24"/>
<text text-anchor="middle" x="795.12" y="-1582.34" font-family="Times,serif" font-size="14.00" fill="#009988">Are you a prisoner here?</text>
</g>
<!-- Node005a -->
<g id="node26" class="node">
<title>Node005a</title>
<ellipse fill="#ffffff" stroke="#000000" cx="1044" cy="-1525.14" rx="27" ry="18"/>
</g>
<!-- Node003&#45;&gt;Node005a -->
<g id="edge17" class="edge">
<title>Node003&#45;&gt;Node005a</title>
<path fill="none" stroke="#995c00" d="M1399.14,-1644.17C1230.08,-1639.12 971.52,-1628.83 956.5,-1612.89 940.73,-1596.15 943.5,-1580.11 956.5,-1561.14 969.03,-1542.86 982.43,-1551.38 1003,-1543.14 1005.72,-1542.05 1008.54,-1540.9 1011.37,-1539.75"/>
<polygon fill="#995c00" stroke="#995c00" points="1012.57,-1542.63 1020.48,-1535.59 1009.9,-1536.16 1012.57,-1542.63"/>
<text text-anchor="middle" x="1035.75" y="-1582.34" font-family="Times,serif" font-size="14.00" fill="#995c00">You leave when want?</text>
</g>
<!-- Node003&#45;&gt;Node005a -->
<g id="edge18" class="edge">
<title>Node003&#45;&gt;Node005a</title>
<path fill="none" stroke="#2f0099" d="M1402.5,-1642.74C1293.76,-1637.62 1158.59,-1628.27 1137,-1612.89 1116.5,-1598.28 1131.39,-1579.33 1114,-1561.14 1108.22,-1555.09 1091.83,-1546.77 1076.36,-1539.76"/>
<polygon fill="#2f0099" stroke="#2f0099" points="1078.01,-1536.22 1067.44,-1535.38 1075.18,-1542.62 1078.01,-1536.22"/>
<text text-anchor="middle" x="1233" y="-1590.96" font-family="Times,serif" font-size="14.00" fill="#2f0099">Can you leave anytime you</text>
<text text-anchor="middle" x="1233" y="-1573.71" font-family="Times,serif" font-size="14.00" fill="#2f0099">want?</text>
</g>
<!-- Node006a -->
<g id="node27" class="node">
<title>Node006a</title>
<ellipse fill="#ffffff" stroke="#000000" cx="1917" cy="-1525.14" rx="27" ry="18"/>
</g>
<!-- Node003&#45;&gt;Node006a -->
<g id="edge19" class="edge">
<title>Node003&#45;&gt;Node006a</title>
<path fill="none" stroke="#009902" d="M1556.87,-1630.49C1560.68,-1625 1564.71,-1618.81 1568,-1612.89 1580.21,-1590.93 1570.15,-1575.53 1590.75,-1561.14 1642.82,-1524.76 1814.13,-1557.5 1876,-1543.14 1879.2,-1542.39 1882.47,-1541.43 1885.7,-1540.33"/>
<polygon fill="#009902" stroke="#009902" points="1886.64,-1543.34 1894.74,-1536.51 1884.15,-1536.8 1886.64,-1543.34"/>
<text text-anchor="middle" x="1685.62" y="-1582.34" font-family="Times,serif" font-size="14.00" fill="#009902">What know about D&#39;claws?</text>
</g>
<!-- Node003&#45;&gt;Node006a -->
<g id="edge20" class="edge">
<title>Node003&#45;&gt;Node006a</title>
<path fill="none" stroke="#99002a" d="M1674.2,-1639.74C1719.85,-1634.6 1764.19,-1626.29 1782,-1612.89 1802.18,-1597.69 1786.14,-1577.36 1805.5,-1561.14 1830.29,-1540.37 1845.32,-1553.36 1876,-1543.14 1878.95,-1542.15 1881.98,-1541.06 1885.01,-1539.91"/>
<polygon fill="#99002a" stroke="#99002a" points="1886.09,-1542.85 1894.09,-1535.9 1883.5,-1536.35 1886.09,-1542.85"/>
<text text-anchor="middle" x="1885.25" y="-1590.96" font-family="Times,serif" font-size="14.00" fill="#99002a">What can you tell me</text>
<text text-anchor="middle" x="1885.25" y="-1573.71" font-family="Times,serif" font-size="14.00" fill="#99002a">about the deathclaws?</text>
</g>
<!-- Node007a -->
<g id="node28" class="node">
<title>Node007a</title>
<ellipse fill="#ffffff" stroke="#000000" cx="2230" cy="-1525.14" rx="27" ry="18"/>
</g>
<!-- Node003&#45;&gt;Node007a -->
<g id="edge21" class="edge">
<title>Node003&#45;&gt;Node007a</title>
<path fill="none" stroke="#005799" d="M1689.66,-1644.57C1818.38,-1640.43 1989.68,-1631.49 2016,-1612.89 2036.52,-1598.38 2018.57,-1576.1 2038.75,-1561.14 2065.76,-1541.11 2156.47,-1551.66 2189,-1543.14 2192.01,-1542.35 2195.08,-1541.39 2198.13,-1540.33"/>
<polygon fill="#005799" stroke="#005799" points="2199.17,-1543.3 2207.25,-1536.45 2196.66,-1536.76 2199.17,-1543.3"/>
<text text-anchor="middle" x="2102.12" y="-1582.34" font-family="Times,serif" font-size="14.00" fill="#005799">How you be here?</text>
</g>
<!-- Node003&#45;&gt;Node007a -->
<g id="edge22" class="edge">
<title>Node003&#45;&gt;Node007a</title>
<path fill="none" stroke="#849900" d="M1693.33,-1647.54C1865.24,-1645.89 2128.95,-1639.05 2167,-1612.89 2187.78,-1598.6 2175.28,-1581.43 2190.25,-1561.14 2194.17,-1555.83 2199.01,-1550.74 2203.95,-1546.18"/>
<polygon fill="#849900" stroke="#849900" points="2205.94,-1548.22 2211.22,-1539.03 2201.37,-1542.92 2205.94,-1548.22"/>
<text text-anchor="middle" x="2275.88" y="-1590.96" font-family="Times,serif" font-size="14.00" fill="#849900">How did you come to be</text>
<text text-anchor="middle" x="2275.88" y="-1573.71" font-family="Times,serif" font-size="14.00" fill="#849900">here?</text>
</g>
<!-- Node008a -->
<g id="node29" class="node">
<title>Node008a</title>
<ellipse fill="#ffffff" stroke="#000000" cx="2419" cy="-1525.14" rx="27" ry="18"/>
</g>
<!-- Node003&#45;&gt;Node008a -->
<g id="edge23" class="edge">
<title>Node003&#45;&gt;Node008a</title>
<path fill="none" stroke="#820099" d="M1691.6,-1645.58C1919.76,-1641.46 2334.86,-1631.44 2362,-1612.89 2382.74,-1598.71 2370.68,-1581.95 2384.75,-1561.14 2387.88,-1556.5 2391.67,-1551.94 2395.56,-1547.71"/>
<polygon fill="#820099" stroke="#820099" points="2397.55,-1550.67 2402.05,-1541.08 2392.55,-1545.77 2397.55,-1550.67"/>
<text text-anchor="middle" x="2458.62" y="-1582.34" font-family="Times,serif" font-size="14.00" fill="#820099">Why you worry safe?</text>
</g>
<!-- Node003&#45;&gt;Node008a -->
<g id="edge24" class="edge">
<title>Node003&#45;&gt;Node008a</title>
<path fill="none" stroke="#009955" d="M1693.84,-1647.99C1963.5,-1647.42 2505.35,-1642.56 2534,-1612.89 2549.97,-1596.34 2547.69,-1579.62 2534,-1561.14 2516.44,-1537.44 2483.23,-1529.24 2456.99,-1526.65"/>
<polygon fill="#009955" stroke="#009955" points="2457.47,-1523.1 2447.24,-1525.85 2456.95,-1530.08 2457.47,-1523.1"/>
<text text-anchor="middle" x="2642.12" y="-1599.59" font-family="Times,serif" font-size="14.00" fill="#009955">Why are you worried about</text>
<text text-anchor="middle" x="2642.12" y="-1582.34" font-family="Times,serif" font-size="14.00" fill="#009955">needing a place of</text>
<text text-anchor="middle" x="2642.12" y="-1565.09" font-family="Times,serif" font-size="14.00" fill="#009955">safety?</text>
</g>
<!-- Node004 -->
<g id="node30" class="node">
<title>Node004</title>
<ellipse fill="#ffffff" stroke="#000000" cx="714" cy="-869.89" rx="128.52" ry="66.64"/>
<text text-anchor="middle" x="714" y="-899.72" font-family="Times,serif" font-size="14.00">No, I&#39;m not. I&#39;m here of</text>
<text text-anchor="middle" x="714" y="-882.47" font-family="Times,serif" font-size="14.00">my own free will and I</text>
<text text-anchor="middle" x="714" y="-865.22" font-family="Times,serif" font-size="14.00">like it. I think this</text>
<text text-anchor="middle" x="714" y="-847.97" font-family="Times,serif" font-size="14.00">will be a safe place for</text>
<text text-anchor="middle" x="714" y="-830.72" font-family="Times,serif" font-size="14.00"> me to stay for a while.</text>
</g>
<!-- Node004a&#45;&gt;Node004 -->
<g id="edge45" class="edge">
<title>Node004a&#45;&gt;Node004</title>
<path fill="none" stroke="#555555" stroke-dasharray="1,5" d="M714,-1506.66C714,-1427.36 714,-1098.61 714,-947.49"/>
<polygon fill="#555555" stroke="#555555" points="717.5,-947.92 714,-937.92 710.5,-947.92 717.5,-947.92"/>
</g>
<!-- Node005 -->
<g id="node31" class="node">
<title>Node005</title>
<ellipse fill="#ffffff" stroke="#000000" cx="1044" cy="-869.89" rx="129.05" ry="42.25"/>
<text text-anchor="middle" x="1044" y="-882.47" font-family="Times,serif" font-size="14.00">Yeah, I&#39;ve been told I&#39;m</text>
<text text-anchor="middle" x="1044" y="-865.22" font-family="Times,serif" font-size="14.00">free to go or stay. I&#39;m</text>
<text text-anchor="middle" x="1044" y="-847.97" font-family="Times,serif" font-size="14.00">staying for now.</text>
</g>
<!-- Node005a&#45;&gt;Node005 -->
<g id="edge46" class="edge">
<title>Node005a&#45;&gt;Node005</title>
<path fill="none" stroke="#555555" stroke-dasharray="1,5" d="M1044,-1506.66C1044,-1422.79 1044,-1059.91 1044,-923.23"/>
<polygon fill="#555555" stroke="#555555" points="1047.5,-923.25 1044,-913.25 1040.5,-923.25 1047.5,-923.25"/>
</g>
<!-- Node006 -->
<g id="node32" class="node">
<title>Node006</title>
<ellipse fill="#ffffff" stroke="#000000" cx="1537" cy="-869.89" rx="141.77" ry="115.44"/>
<text text-anchor="middle" x="1537" y="-934.22" font-family="Times,serif" font-size="14.00">I don&#39;t know any more</text>
<text text-anchor="middle" x="1537" y="-916.97" font-family="Times,serif" font-size="14.00">about them than you do, I</text>
<text text-anchor="middle" x="1537" y="-899.72" font-family="Times,serif" font-size="14.00">guess. I&#39;m still trying</text>
<text text-anchor="middle" x="1537" y="-882.47" font-family="Times,serif" font-size="14.00">to get used to</text>
<text text-anchor="middle" x="1537" y="-865.22" font-family="Times,serif" font-size="14.00">them talking to me</text>
<text text-anchor="middle" x="1537" y="-847.97" font-family="Times,serif" font-size="14.00">instead of tearing my</text>
<text text-anchor="middle" x="1537" y="-830.72" font-family="Times,serif" font-size="14.00">head off and using it for</text>
<text text-anchor="middle" x="1537" y="-813.47" font-family="Times,serif" font-size="14.00">a golf ball. It&#39;s scary,</text>
<text text-anchor="middle" x="1537" y="-796.22" font-family="Times,serif" font-size="14.00">you know?</text>
</g>
<!-- Node006a&#45;&gt;Node006 -->
<g id="edge47" class="edge">
<title>Node006a&#45;&gt;Node006</title>
<path fill="none" stroke="#555555" stroke-dasharray="1,5" d="M1907.61,-1507.99C1866.16,-1436.74 1697.5,-1146.8 1602.63,-983.71"/>
<polygon fill="#555555" stroke="#555555" points="1605.38,-982.49 1597.33,-975.6 1599.33,-986.01 1605.38,-982.49"/>
</g>
<!-- Node007 -->
<g id="node33" class="node">
<title>Node007</title>
<ellipse fill="#ffffff" stroke="#000000" cx="2054" cy="-869.89" rx="142.84" ry="566.75"/>
<text text-anchor="middle" x="2054" y="-1253.34" font-family="Times,serif" font-size="14.00">After I left the Squat I</text>
<text text-anchor="middle" x="2054" y="-1236.09" font-family="Times,serif" font-size="14.00">didn&#39;t know what to do</text>
<text text-anchor="middle" x="2054" y="-1218.84" font-family="Times,serif" font-size="14.00">with myself. I figured</text>
<text text-anchor="middle" x="2054" y="-1201.59" font-family="Times,serif" font-size="14.00">I&#39;d just drift into</text>
<text text-anchor="middle" x="2054" y="-1184.34" font-family="Times,serif" font-size="14.00">another town and another</text>
<text text-anchor="middle" x="2054" y="-1167.09" font-family="Times,serif" font-size="14.00">hired gun job... so I was</text>
<text text-anchor="middle" x="2054" y="-1149.84" font-family="Times,serif" font-size="14.00">wandering the desert</text>
<text text-anchor="middle" x="2054" y="-1132.59" font-family="Times,serif" font-size="14.00">trying to decide exactly</text>
<text text-anchor="middle" x="2054" y="-1115.34" font-family="Times,serif" font-size="14.00">where</text>
<text text-anchor="middle" x="2054" y="-1098.09" font-family="Times,serif" font-size="14.00">I should go. Well, one</text>
<text text-anchor="middle" x="2054" y="-1080.84" font-family="Times,serif" font-size="14.00">day I was looking for a</text>
<text text-anchor="middle" x="2054" y="-1063.59" font-family="Times,serif" font-size="14.00">good place to camp. It</text>
<text text-anchor="middle" x="2054" y="-1046.34" font-family="Times,serif" font-size="14.00">was getting late, and I</text>
<text text-anchor="middle" x="2054" y="-1029.09" font-family="Times,serif" font-size="14.00">didn&#39;t</text>
<text text-anchor="middle" x="2054" y="-1011.84" font-family="Times,serif" font-size="14.00">want to be out in the</text>
<text text-anchor="middle" x="2054" y="-994.59" font-family="Times,serif" font-size="14.00">open after dark. Off in</text>
<text text-anchor="middle" x="2054" y="-977.34" font-family="Times,serif" font-size="14.00">the distance a ways, I</text>
<text text-anchor="middle" x="2054" y="-960.09" font-family="Times,serif" font-size="14.00">thought I saw a campfire</text>
<text text-anchor="middle" x="2054" y="-942.84" font-family="Times,serif" font-size="14.00">&#45;&#45; so I</text>
<text text-anchor="middle" x="2054" y="-925.59" font-family="Times,serif" font-size="14.00">decided to see who was</text>
<text text-anchor="middle" x="2054" y="-908.34" font-family="Times,serif" font-size="14.00">there.</text>
<text text-anchor="middle" x="2054" y="-891.09" font-family="Times,serif" font-size="14.00">&#45;&#45;&#45;</text>
<text text-anchor="middle" x="2054" y="-873.84" font-family="Times,serif" font-size="14.00">So, I sneak up on this</text>
<text text-anchor="middle" x="2054" y="-856.59" font-family="Times,serif" font-size="14.00">camp site and there are</text>
<text text-anchor="middle" x="2054" y="-839.34" font-family="Times,serif" font-size="14.00">these two deathclaws</text>
<text text-anchor="middle" x="2054" y="-822.09" font-family="Times,serif" font-size="14.00">sitting around the fire</text>
<text text-anchor="middle" x="2054" y="-804.84" font-family="Times,serif" font-size="14.00">just</text>
<text text-anchor="middle" x="2054" y="-787.59" font-family="Times,serif" font-size="14.00">chatting away. Idiot</text>
<text text-anchor="middle" x="2054" y="-770.34" font-family="Times,serif" font-size="14.00">that I am, I let out a</text>
<text text-anchor="middle" x="2054" y="-753.09" font-family="Times,serif" font-size="14.00">little cry of surprise,</text>
<text text-anchor="middle" x="2054" y="-735.84" font-family="Times,serif" font-size="14.00">jumped up, and turned to</text>
<text text-anchor="middle" x="2054" y="-718.59" font-family="Times,serif" font-size="14.00">run &#45;&#45; right</text>
<text text-anchor="middle" x="2054" y="-701.34" font-family="Times,serif" font-size="14.00">into the arms of another</text>
<text text-anchor="middle" x="2054" y="-684.09" font-family="Times,serif" font-size="14.00">deathclaw standing right</text>
<text text-anchor="middle" x="2054" y="-666.84" font-family="Times,serif" font-size="14.00">behind me. Anyway, to</text>
<text text-anchor="middle" x="2054" y="-649.59" font-family="Times,serif" font-size="14.00">make a long story short,</text>
<text text-anchor="middle" x="2054" y="-632.34" font-family="Times,serif" font-size="14.00">it</text>
<text text-anchor="middle" x="2054" y="-615.09" font-family="Times,serif" font-size="14.00">took awhile for me to</text>
<text text-anchor="middle" x="2054" y="-597.84" font-family="Times,serif" font-size="14.00">realize that I wasn&#39;t</text>
<text text-anchor="middle" x="2054" y="-580.59" font-family="Times,serif" font-size="14.00">about to be put on a spit</text>
<text text-anchor="middle" x="2054" y="-563.34" font-family="Times,serif" font-size="14.00">and barbecued. Instead, I</text>
<text text-anchor="middle" x="2054" y="-546.09" font-family="Times,serif" font-size="14.00">was</text>
<text text-anchor="middle" x="2054" y="-528.84" font-family="Times,serif" font-size="14.00">brought here and</text>
<text text-anchor="middle" x="2054" y="-511.59" font-family="Times,serif" font-size="14.00">&#39;interviewed&#39; by Gruthar.</text>
<text text-anchor="middle" x="2054" y="-494.34" font-family="Times,serif" font-size="14.00">Now I can live here if I</text>
<text text-anchor="middle" x="2054" y="-477.09" font-family="Times,serif" font-size="14.00">want.</text>
</g>
<!-- Node007a&#45;&gt;Node007 -->
<g id="edge48" class="edge">
<title>Node007a&#45;&gt;Node007</title>
<path fill="none" stroke="#555555" stroke-dasharray="1,5" d="M2225.38,-1507C2215.24,-1469.35 2189.64,-1374.33 2161.23,-1268.88"/>
<polygon fill="#555555" stroke="#555555" points="2164.36,-1268.06 2158.38,-1259.31 2157.6,-1269.88 2164.36,-1268.06"/>
</g>
<!-- Node008 -->
<g id="node34" class="node">
<title>Node008</title>
<ellipse fill="#ffffff" stroke="#000000" cx="2419" cy="-869.89" rx="147.61" ry="188.62"/>
<text text-anchor="middle" x="2419" y="-985.97" font-family="Times,serif" font-size="14.00">When I let you by me in</text>
<text text-anchor="middle" x="2419" y="-968.72" font-family="Times,serif" font-size="14.00">the Squat, I broke my</text>
<text text-anchor="middle" x="2419" y="-951.47" font-family="Times,serif" font-size="14.00">contract with my</text>
<text text-anchor="middle" x="2419" y="-934.22" font-family="Times,serif" font-size="14.00">employer. I was sure that</text>
<text text-anchor="middle" x="2419" y="-916.97" font-family="Times,serif" font-size="14.00">I&#39;d be</text>
<text text-anchor="middle" x="2419" y="-899.72" font-family="Times,serif" font-size="14.00">hunted down and killed</text>
<text text-anchor="middle" x="2419" y="-882.47" font-family="Times,serif" font-size="14.00">because of it. Seeing you</text>
<text text-anchor="middle" x="2419" y="-865.22" font-family="Times,serif" font-size="14.00">here convinces me that I</text>
<text text-anchor="middle" x="2419" y="-847.97" font-family="Times,serif" font-size="14.00">don&#39;t have to worry about</text>
<text text-anchor="middle" x="2419" y="-830.72" font-family="Times,serif" font-size="14.00">that. I can only assume</text>
<text text-anchor="middle" x="2419" y="-813.47" font-family="Times,serif" font-size="14.00">that my previous employer</text>
<text text-anchor="middle" x="2419" y="-796.22" font-family="Times,serif" font-size="14.00">is no longer in any</text>
<text text-anchor="middle" x="2419" y="-778.97" font-family="Times,serif" font-size="14.00">condition to be concerned</text>
<text text-anchor="middle" x="2419" y="-761.72" font-family="Times,serif" font-size="14.00">with me</text>
<text text-anchor="middle" x="2419" y="-744.47" font-family="Times,serif" font-size="14.00"> or my whereabouts.</text>
</g>
<!-- Node008a&#45;&gt;Node008 -->
<g id="edge49" class="edge">
<title>Node008a&#45;&gt;Node008</title>
<path fill="none" stroke="#555555" stroke-dasharray="1,5" d="M2419,-1506.66C2419,-1444.92 2419,-1231.97 2419,-1069.37"/>
<polygon fill="#555555" stroke="#555555" points="2422.5,-1069.73 2419,-1059.73 2415.5,-1069.73 2422.5,-1069.73"/>
</g>
<!-- Node004&#45;&gt;Node999 -->
<g id="edge28" class="edge">
<title>Node004&#45;&gt;Node999</title>
<path fill="none" stroke="#99005e" d="M692.79,-803.89C640.44,-630.42 528.29,-162.34 803,-54 874.99,-25.61 2075.33,-19.95 2305.87,-19.12"/>
<polygon fill="#99005e" stroke="#99005e" points="2305.72,-22.62 2315.71,-19.08 2305.7,-15.62 2305.72,-22.62"/>
<text text-anchor="middle" x="750.75" y="-139.02" font-family="Times,serif" font-size="14.00" fill="#99005e">Bye.</text>
</g>
<!-- Node004&#45;&gt;Node999 -->
<g id="edge30" class="edge">
<title>Node004&#45;&gt;Node999</title>
<path fill="none" stroke="#997b00" d="M706.82,-802.93C696.4,-669.99 694.03,-369.53 862,-216.14 972.45,-115.29 2085.47,-36.23 2306.11,-21.48"/>
<polygon fill="#997b00" stroke="#997b00" points="2306.34,-24.9 2316.08,-20.75 2305.87,-17.92 2306.34,-24.9"/>
<text text-anchor="middle" x="1567.75" y="-147.65" font-family="Times,serif" font-size="14.00" fill="#997b00">I see. Well, I&#39;ll be</text>
<text text-anchor="middle" x="1567.75" y="-130.4" font-family="Times,serif" font-size="14.00" fill="#997b00">going then.</text>
</g>
<!-- Node004&#45;&gt;Node003 -->
<g id="edge27" class="edge">
<title>Node004&#45;&gt;Node003</title>
<path fill="none" stroke="#319900" d="M685.69,-935.33C616.59,-1097.33 451.67,-1515.54 546,-1612.89 574.6,-1642.4 1108.56,-1647.39 1383.41,-1648"/>
<polygon fill="#319900" stroke="#319900" points="1383.28,-1651.5 1393.29,-1648.02 1383.29,-1644.5 1383.28,-1651.5"/>
<text text-anchor="middle" x="538.12" y="-1520.46" font-family="Times,serif" font-size="14.00" fill="#319900">Okay.</text>
</g>
<!-- Node004&#45;&gt;Node003 -->
<g id="edge29" class="edge">
<title>Node004&#45;&gt;Node003</title>
<path fill="none" stroke="#008a99" d="M695.77,-936.05C648.5,-1107.97 528.87,-1564.02 576,-1612.89 603.52,-1641.42 1115.91,-1646.91 1383.78,-1647.82"/>
<polygon fill="#008a99" stroke="#008a99" points="1383.37,-1651.32 1393.38,-1647.85 1383.4,-1644.32 1383.37,-1651.32"/>
<text text-anchor="middle" x="599.5" y="-1520.46" font-family="Times,serif" font-size="14.00" fill="#008a99">All right.</text>
</g>
<!-- Node005&#45;&gt;Node003 -->
<g id="edge31" class="edge">
<title>Node005&#45;&gt;Node003</title>
<path fill="none" stroke="#4e0099" d="M1034.63,-912.49C1010.65,-1030.98 960.87,-1372.61 1139.5,-1543.14 1170.1,-1572.35 1293.73,-1537.79 1329,-1561.14 1350.81,-1575.57 1335.87,-1597.48 1357,-1612.89 1369.18,-1621.76 1396.43,-1628.76 1426.46,-1634.09"/>
<polygon fill="#4e0099" stroke="#4e0099" points="1425.74,-1637.68 1436.18,-1635.9 1426.91,-1630.78 1425.74,-1637.68"/>
<text text-anchor="middle" x="1167.75" y="-1520.46" font-family="Times,serif" font-size="14.00" fill="#4e0099">Me see.</text>
</g>
<!-- Node005&#45;&gt;Node003 -->
<g id="edge32" class="edge">
<title>Node005&#45;&gt;Node003</title>
<path fill="none" stroke="#009922" d="M1054.91,-912.39C1080.78,-1021.02 1133.67,-1317.23 993,-1489.14 974.76,-1511.43 948.06,-1484.12 930.75,-1507.14 902.35,-1544.92 906.92,-1581.21 942,-1612.89 974.12,-1641.89 1215.95,-1648.03 1383.15,-1648.74"/>
<polygon fill="#009922" stroke="#009922" points="1383.04,-1652.24 1393.05,-1648.78 1383.06,-1645.24 1383.04,-1652.24"/>
<text text-anchor="middle" x="969.62" y="-1520.46" font-family="Times,serif" font-size="14.00" fill="#009922">Okay then.</text>
</g>
<!-- Node006&#45;&gt;Node003 -->
<g id="edge33" class="edge">
<title>Node006&#45;&gt;Node003</title>
<path fill="none" stroke="#99000b" d="M1463.29,-968.97C1344.7,-1132.46 1132.58,-1451.79 1213,-1543.14 1233.87,-1566.84 1327.95,-1543.28 1354,-1561.14 1375.57,-1575.92 1361.08,-1597.19 1382,-1612.89 1393.67,-1621.64 1407.07,-1628.3 1421.05,-1633.35"/>
<polygon fill="#99000b" stroke="#99000b" points="1419.73,-1636.94 1430.33,-1636.76 1421.93,-1630.29 1419.73,-1636.94"/>
<text text-anchor="middle" x="1282" y="-1520.46" font-family="Times,serif" font-size="14.00" fill="#99000b">Yeah, me bothered.</text>
</g>
<!-- Node006&#45;&gt;Node003 -->
<g id="edge34" class="edge">
<title>Node006&#45;&gt;Node003</title>
<path fill="none" stroke="#003799" d="M1472.79,-973.3C1395.75,-1110.44 1288.59,-1357.91 1387.5,-1543.14 1408.69,-1582.81 1452.29,-1610.09 1488.11,-1626.85"/>
<polygon fill="#003799" stroke="#003799" points="1486.42,-1630.38 1496.98,-1631.29 1489.3,-1623.99 1486.42,-1630.38"/>
<text text-anchor="middle" x="1451.75" y="-1520.46" font-family="Times,serif" font-size="14.00" fill="#003799">Na, me used to it.</text>
</g>
<!-- Node006&#45;&gt;Node003 -->
<g id="edge35" class="edge">
<title>Node006&#45;&gt;Node003</title>
<path fill="none" stroke="#649900" d="M1538.04,-985.78C1539.69,-1169.37 1542.83,-1518.52 1543.75,-1619.74"/>
<polygon fill="#649900" stroke="#649900" points="1540.25,-1619.6 1543.84,-1629.57 1547.25,-1619.54 1540.25,-1619.6"/>
<text text-anchor="middle" x="1610" y="-1529.09" font-family="Times,serif" font-size="14.00" fill="#649900">Yes it is, in a lot of</text>
<text text-anchor="middle" x="1610" y="-1511.84" font-family="Times,serif" font-size="14.00" fill="#649900">ways.</text>
</g>
<!-- Node006&#45;&gt;Node003 -->
<g id="edge36" class="edge">
<title>Node006&#45;&gt;Node003</title>
<path fill="none" stroke="#990091" d="M1569.99,-982.54C1605.38,-1108.6 1659.28,-1320.49 1680,-1507.14 1681.77,-1523.04 1690.35,-1530.94 1680,-1543.14 1648.23,-1580.58 1608.03,-1528.9 1571,-1561.14 1554.27,-1575.7 1547.77,-1600.44 1545.32,-1619.78"/>
<polygon fill="#990091" stroke="#990091" points="1541.74,-1619.42 1544.27,-1629.7 1548.71,-1620.08 1541.74,-1619.42"/>
<text text-anchor="middle" x="1768.25" y="-1529.09" font-family="Times,serif" font-size="14.00" fill="#990091">No, I&#39;ve come to accept</text>
<text text-anchor="middle" x="1768.25" y="-1511.84" font-family="Times,serif" font-size="14.00" fill="#990091">it.</text>
</g>
<!-- Node007&#45;&gt;Node003 -->
<g id="edge37" class="edge">
<title>Node007&#45;&gt;Node003</title>
<path fill="none" stroke="#009975" d="M2003.02,-1399.77C1989.68,-1513.49 1976.19,-1603.05 1966,-1612.89 1946.74,-1631.48 1812.75,-1640.25 1700.84,-1644.35"/>
<polygon fill="#009975" stroke="#009975" points="1700.95,-1640.88 1691.08,-1644.73 1701.2,-1647.87 1700.95,-1640.88"/>
<text text-anchor="middle" x="2007.75" y="-1520.46" font-family="Times,serif" font-size="14.00" fill="#009975">Wow.</text>
</g>
<!-- Node007&#45;&gt;Node003 -->
<g id="edge38" class="edge">
<title>Node007&#45;&gt;Node003</title>
<path fill="none" stroke="#994800" d="M2057.45,-1436.97C2050.68,-1473.28 2041.99,-1508.95 2031,-1543.14 2028.06,-1552.29 2024.2,-1553.05 2019,-1561.14 2004.39,-1583.89 2010.08,-1598.8 1987,-1612.89 1962.37,-1627.91 1815.28,-1637.33 1697.25,-1642.56"/>
<polygon fill="#994800" stroke="#994800" points="1697.12,-1639.11 1687.28,-1643.04 1697.43,-1646.1 1697.12,-1639.11"/>
<text text-anchor="middle" x="2104.62" y="-1520.46" font-family="Times,serif" font-size="14.00" fill="#994800">That&#39;s interesting.</text>
</g>
<!-- Node009 -->
<g id="node35" class="node">
<title>Node009</title>
<ellipse fill="#ffffff" stroke="#000000" cx="2345" cy="-143.7" rx="120.56" ry="54.45"/>
<text text-anchor="middle" x="2345" y="-164.9" font-family="Times,serif" font-size="14.00">Thanks,</text>
<text text-anchor="middle" x="2345" y="-147.65" font-family="Times,serif" font-size="14.00">&#45;&#45;&#45;</text>
<text text-anchor="middle" x="2345" y="-130.4" font-family="Times,serif" font-size="14.00">. That takes a load off</text>
<text text-anchor="middle" x="2345" y="-113.15" font-family="Times,serif" font-size="14.00">my mind.</text>
</g>
<!-- Node008&#45;&gt;Node009 -->
<g id="edge39" class="edge">
<title>Node008&#45;&gt;Node009</title>
<path fill="none" stroke="#1b0099" d="M2453.56,-686.15C2470.76,-551.13 2476.55,-365.6 2415,-216.14 2412.81,-210.83 2410.01,-205.69 2406.81,-200.77"/>
<polygon fill="#1b0099" stroke="#1b0099" points="2409.31,-199.25 2400.63,-193.17 2403.62,-203.34 2409.31,-199.25"/>
<text text-anchor="middle" x="2516.5" y="-254.59" font-family="Times,serif" font-size="14.00" fill="#1b0099">You safe now. Dalia no</text>
<text text-anchor="middle" x="2516.5" y="-237.34" font-family="Times,serif" font-size="14.00" fill="#1b0099">worry.</text>
</g>
<!-- Node008&#45;&gt;Node009 -->
<g id="edge40" class="edge">
<title>Node008&#45;&gt;Node009</title>
<path fill="none" stroke="#119900" d="M2356.2,-698.93C2317.15,-583.92 2270.65,-427.58 2250.5,-285.14 2246.21,-254.78 2236.84,-243.6 2250.5,-216.14 2254.24,-208.64 2259.18,-201.7 2264.85,-195.36"/>
<polygon fill="#119900" stroke="#119900" points="2266.91,-198.24 2271.39,-188.64 2261.9,-193.35 2266.91,-198.24"/>
<text text-anchor="middle" x="2330.25" y="-271.84" font-family="Times,serif" font-size="14.00" fill="#119900">You&#39;re safe now, Dalia.</text>
<text text-anchor="middle" x="2330.25" y="-254.59" font-family="Times,serif" font-size="14.00" fill="#119900">You&#39;ll have no need to</text>
<text text-anchor="middle" x="2330.25" y="-237.34" font-family="Times,serif" font-size="14.00" fill="#119900">worry about any</text>
<text text-anchor="middle" x="2330.25" y="-220.09" font-family="Times,serif" font-size="14.00" fill="#119900">retribution.</text>
</g>
<!-- Node009&#45;&gt;Node999 -->
<g id="edge42" class="edge">
<title>Node009&#45;&gt;Node999</title>
<path fill="none" stroke="#006b99" d="M2370.25,-90.4C2373.15,-78.38 2373.87,-65.7 2370,-54 2368.71,-50.11 2366.8,-46.29 2364.6,-42.7"/>
<polygon fill="#006b99" stroke="#006b99" points="2366.92,-40.93 2358.27,-34.8 2361.21,-44.98 2366.92,-40.93"/>
<text text-anchor="middle" x="2387.75" y="-57.95" font-family="Times,serif" font-size="14.00" fill="#006b99">Bye.</text>
</g>
<!-- Node009&#45;&gt;Node999 -->
<g id="edge44" class="edge">
<title>Node009&#45;&gt;Node999</title>
<path fill="none" stroke="#6e0099" d="M2303.59,-92.46C2299.69,-85.65 2296.32,-78.51 2294,-71.25 2291.66,-63.95 2290.46,-60.8 2294,-54 2298.22,-45.89 2305.27,-39.28 2312.77,-34.07"/>
<polygon fill="#6e0099" stroke="#6e0099" points="2313.96,-36.82 2320.63,-28.59 2310.28,-30.87 2313.96,-36.82"/>
<text text-anchor="middle" x="2330" y="-57.95" font-family="Times,serif" font-size="14.00" fill="#6e0099">I&#39;ll see ya.</text>
</g>
<!-- Node009&#45;&gt;Node003 -->
<g id="edge41" class="edge">
<title>Node009&#45;&gt;Node003</title>
<path fill="none" stroke="#99003e" d="M2458.18,-162.92C2517.59,-175 2581.76,-192.91 2600,-216.14 2687.37,-327.48 2575.43,-1364.38 2642.25,-1489.14 2652.56,-1508.38 2811.27,-1542.6 2743,-1612.89 2725.14,-1631.28 2025.1,-1642.09 1703.1,-1646.09"/>
<polygon fill="#99003e" stroke="#99003e" points="1703.23,-1642.6 1693.27,-1646.23 1703.32,-1649.6 1703.23,-1642.6"/>
<text text-anchor="middle" x="2690.38" y="-1467.21" font-family="Times,serif" font-size="14.00" fill="#99003e">You welcome.</text>
</g>
<!-- Node009&#45;&gt;Node003 -->
<g id="edge43" class="edge">
<title>Node009&#45;&gt;Node003</title>
<path fill="none" stroke="#979900" d="M2226.04,-153.55C1889.27,-179.18 950.69,-254.66 906,-303.14 819.25,-397.26 875.31,-1326.65 873.5,-1454.64 873.28,-1469.97 871.25,-1473.97 873.5,-1489.14 877.71,-1517.56 888.4,-1595.14 911,-1612.89 947.29,-1641.4 1207.79,-1647.57 1383.1,-1648.44"/>
<polygon fill="#979900" stroke="#979900" points="1382.98,-1651.95 1392.99,-1648.49 1383.01,-1644.95 1382.98,-1651.95"/>
<text text-anchor="middle" x="931.75" y="-1467.21" font-family="Times,serif" font-size="14.00" fill="#979900">You&#39;re welcome.</text>
</g>
</g>
</svg>
