<?xml version="1.0" encoding="UTF-8" standalone="no"?>
<!DOCTYPE svg PUBLIC "-//W3C//DTD SVG 1.1//EN"
 "http://www.w3.org/Graphics/SVG/1.1/DTD/svg11.dtd">
<!-- Generated by graphviz version 8.0.5 (0)
 -->
<!-- Title: RCSAVINE Pages: 1 -->
<svg width="3220pt" height="2627pt"
 viewBox="0.00 0.00 3220.00 2627.33" xmlns="http://www.w3.org/2000/svg" xmlns:xlink="http://www.w3.org/1999/xlink">
<g id="graph0" class="graph" transform="scale(1 1) rotate(0) translate(4 2623.33)">
<title>RCSAVINE</title>
<polygon fill="white" stroke="none" points="-4,4 -4,-2623.33 3216,-2623.33 3216,4 -4,4"/>
<!-- checkPartyMembersNearDoor -->
<g id="node1" class="node">
<title>checkPartyMembersNearDoor</title>
<ellipse fill="#ffffff" stroke="#000000" cx="1094" cy="-2528.29" rx="27" ry="18"/>
</g>
<!-- start -->
<g id="node2" class="node">
<title>start</title>
<ellipse fill="#ffffff" stroke="#000000" cx="1166" cy="-2528.29" rx="27" ry="18"/>
</g>
<!-- critter_p_proc -->
<g id="node3" class="node">
<title>critter_p_proc</title>
<ellipse fill="#ffffff" stroke="#000000" cx="1238" cy="-2528.29" rx="27" ry="18"/>
</g>
<!-- pickup_p_proc -->
<g id="node4" class="node">
<title>pickup_p_proc</title>
<ellipse fill="#ffffff" stroke="#000000" cx="1310" cy="-2528.29" rx="27" ry="18"/>
</g>
<!-- talk_p_proc -->
<g id="node5" class="node">
<title>talk_p_proc</title>
<ellipse fill="#ffffff" stroke="#000000" cx="1382" cy="-2528.29" rx="27" ry="18"/>
</g>
<!-- Node004 -->
<g id="node6" class="node">
<title>Node004</title>
<ellipse fill="#ffffff" stroke="#000000" cx="939" cy="-2138.45" rx="27" ry="18"/>
</g>
<!-- talk_p_proc&#45;&gt;Node004 -->
<g id="edge1" class="edge">
<title>talk_p_proc&#45;&gt;Node004</title>
<path fill="none" stroke="#555555" stroke-dasharray="1,5" d="M1380.34,-2509.83C1377.34,-2488.92 1369.01,-2454.56 1346,-2437.25 1279.79,-2387.45 1034.68,-2457.72 975,-2400.25 911.2,-2338.82 923.36,-2220.95 933.04,-2167.29"/>
<polygon fill="#555555" stroke="#555555" points="936.65,-2168.04 935.1,-2157.56 929.78,-2166.72 936.65,-2168.04"/>
</g>
<!-- Node005 -->
<g id="node7" class="node">
<title>Node005</title>
<ellipse fill="#ffffff" stroke="#000000" cx="1131" cy="-2138.45" rx="147.08" ry="91.04"/>
<text text-anchor="middle" x="1131" y="-2185.52" font-family="Times,serif" font-size="14.00">You abandon my caravan,</text>
<text text-anchor="middle" x="1131" y="-2168.27" font-family="Times,serif" font-size="14.00">and then come back to beg</text>
<text text-anchor="middle" x="1131" y="-2151.02" font-family="Times,serif" font-size="14.00">for work? Get out of</text>
<text text-anchor="middle" x="1131" y="-2133.77" font-family="Times,serif" font-size="14.00">here.</text>
<text text-anchor="middle" x="1131" y="-2116.52" font-family="Times,serif" font-size="14.00">&#45;&#45;&#45;</text>
<text text-anchor="middle" x="1131" y="-2099.27" font-family="Times,serif" font-size="14.00">I said get out. Are you</text>
<text text-anchor="middle" x="1131" y="-2082.02" font-family="Times,serif" font-size="14.00">deaf as well as yellow?</text>
</g>
<!-- talk_p_proc&#45;&gt;Node005 -->
<g id="edge2" class="edge">
<title>talk_p_proc&#45;&gt;Node005</title>
<path fill="none" stroke="#555555" stroke-dasharray="1,5" d="M1379.52,-2509.93C1375.76,-2489.76 1366.7,-2456.77 1346,-2437.25 1327.6,-2419.9 1311.59,-2435.26 1292,-2419.25 1234.04,-2371.88 1192.73,-2297.78 1166.48,-2237.73"/>
<polygon fill="#555555" stroke="#555555" points="1169.4,-2236.65 1162.24,-2228.84 1162.96,-2239.41 1169.4,-2236.65"/>
</g>
<!-- Node006 -->
<g id="node8" class="node">
<title>Node006</title>
<ellipse fill="#ffffff" stroke="#000000" cx="240" cy="-411.73" rx="131.7" ry="66.64"/>
<text text-anchor="middle" x="240" y="-441.55" font-family="Times,serif" font-size="14.00">I respect thieves...but</text>
<text text-anchor="middle" x="240" y="-424.3" font-family="Times,serif" font-size="14.00">only good ones. You&#39;re</text>
<text text-anchor="middle" x="240" y="-407.05" font-family="Times,serif" font-size="14.00">nothing but a punk. Get</text>
<text text-anchor="middle" x="240" y="-389.8" font-family="Times,serif" font-size="14.00">out of here before I</text>
<text text-anchor="middle" x="240" y="-372.55" font-family="Times,serif" font-size="14.00"> have to hurt you.</text>
</g>
<!-- talk_p_proc&#45;&gt;Node006 -->
<g id="edge3" class="edge">
<title>talk_p_proc&#45;&gt;Node006</title>
<path fill="none" stroke="#555555" stroke-dasharray="1,5" d="M1375.4,-2510.73C1366.1,-2486.75 1349.26,-2440.79 1340,-2400.25 1313.98,-2286.29 1306,-2256.34 1306,-2139.45 1306,-2139.45 1306,-2139.45 1306,-646.2 1306,-563.5 644.48,-598.8 565,-575.95 481.57,-551.96 394.01,-506.66 330.83,-469.86"/>
<polygon fill="#555555" stroke="#555555" points="333.08,-466.53 322.68,-464.49 329.54,-472.57 333.08,-466.53"/>
</g>
<!-- Node007 -->
<g id="node9" class="node">
<title>Node007</title>
<ellipse fill="#ffffff" stroke="#000000" cx="716" cy="-411.73" rx="142.31" ry="78.84"/>
<text text-anchor="middle" x="716" y="-450.18" font-family="Times,serif" font-size="14.00">That was one of the worst</text>
<text text-anchor="middle" x="716" y="-432.93" font-family="Times,serif" font-size="14.00">caravans I&#39;ve had in</text>
<text text-anchor="middle" x="716" y="-415.68" font-family="Times,serif" font-size="14.00">years. I&#39;m not making</text>
<text text-anchor="middle" x="716" y="-398.43" font-family="Times,serif" font-size="14.00">money on it, so guess</text>
<text text-anchor="middle" x="716" y="-381.18" font-family="Times,serif" font-size="14.00">what? Neither are you.</text>
<text text-anchor="middle" x="716" y="-363.93" font-family="Times,serif" font-size="14.00">Get out of my sight.</text>
</g>
<!-- talk_p_proc&#45;&gt;Node007 -->
<g id="edge4" class="edge">
<title>talk_p_proc&#45;&gt;Node007</title>
<path fill="none" stroke="#555555" stroke-dasharray="1,5" d="M1379.08,-2509.96C1370.18,-2455.55 1344,-2283.22 1344,-2139.45 1344,-2139.45 1344,-2139.45 1344,-646.2 1344,-620.65 1341.15,-608.3 1320,-593.95 1288.33,-572.46 1012.49,-587.5 976,-575.95 913.93,-556.31 851.9,-518.25 804,-483.83"/>
<polygon fill="#555555" stroke="#555555" points="806.38,-480.49 796.23,-477.44 802.26,-486.16 806.38,-480.49"/>
</g>
<!-- Node008 -->
<g id="node10" class="node">
<title>Node008</title>
<ellipse fill="#ffffff" stroke="#000000" cx="1119" cy="-411.73" rx="133.82" ry="91.04"/>
<text text-anchor="middle" x="1119" y="-458.8" font-family="Times,serif" font-size="14.00">Fuck. My ass is really in</text>
<text text-anchor="middle" x="1119" y="-441.55" font-family="Times,serif" font-size="14.00">a sling here. We lost so</text>
<text text-anchor="middle" x="1119" y="-424.3" font-family="Times,serif" font-size="14.00">much stuff this run. I</text>
<text text-anchor="middle" x="1119" y="-407.05" font-family="Times,serif" font-size="14.00">knew I shoulda&#39;</text>
<text text-anchor="middle" x="1119" y="-389.8" font-family="Times,serif" font-size="14.00">hired pros. Here&#39;s $500</text>
<text text-anchor="middle" x="1119" y="-372.55" font-family="Times,serif" font-size="14.00">for your time, you</text>
<text text-anchor="middle" x="1119" y="-355.3" font-family="Times,serif" font-size="14.00">worthless sack of shit.</text>
</g>
<!-- talk_p_proc&#45;&gt;Node008 -->
<g id="edge5" class="edge">
<title>talk_p_proc&#45;&gt;Node008</title>
<path fill="none" stroke="#555555" stroke-dasharray="1,5" d="M1382,-2509.9C1382,-2455.31 1382,-2282.53 1382,-2139.45 1382,-2139.45 1382,-2139.45 1382,-646.2 1382,-620.65 1377.88,-610.01 1358,-593.95 1329.31,-570.78 1309.18,-593.96 1277,-575.95 1243.48,-557.2 1212.6,-529.09 1187.2,-501.46"/>
<polygon fill="#555555" stroke="#555555" points="1190.14,-499.38 1180.84,-494.3 1184.94,-504.07 1190.14,-499.38"/>
</g>
<!-- Node009 -->
<g id="node11" class="node">
<title>Node009</title>
<ellipse fill="#ffffff" stroke="#000000" cx="1420" cy="-411.73" rx="133.82" ry="54.45"/>
<text text-anchor="middle" x="1420" y="-432.93" font-family="Times,serif" font-size="14.00">That&#39;s the ticket. That</text>
<text text-anchor="middle" x="1420" y="-415.68" font-family="Times,serif" font-size="14.00">run went smooth as shit</text>
<text text-anchor="middle" x="1420" y="-398.43" font-family="Times,serif" font-size="14.00">through a goose. Here&#39;s</text>
<text text-anchor="middle" x="1420" y="-381.18" font-family="Times,serif" font-size="14.00">your $1500, pal.</text>
</g>
<!-- talk_p_proc&#45;&gt;Node009 -->
<g id="edge6" class="edge">
<title>talk_p_proc&#45;&gt;Node009</title>
<path fill="none" stroke="#555555" stroke-dasharray="1,5" d="M1384.92,-2509.96C1393.82,-2455.55 1420,-2283.22 1420,-2139.45 1420,-2139.45 1420,-2139.45 1420,-646.2 1420,-589.16 1420,-524.29 1420,-477.42"/>
<polygon fill="#555555" stroke="#555555" points="1423.5,-477.51 1420,-467.51 1416.5,-477.51 1423.5,-477.51"/>
</g>
<!-- Node010 -->
<g id="node12" class="node">
<title>Node010</title>
<ellipse fill="#ffffff" stroke="#000000" cx="1730" cy="-411.73" rx="143.9" ry="91.04"/>
<text text-anchor="middle" x="1730" y="-458.8" font-family="Times,serif" font-size="14.00">That&#39;s the way a caravan</text>
<text text-anchor="middle" x="1730" y="-441.55" font-family="Times,serif" font-size="14.00">run should go. Smooth as</text>
<text text-anchor="middle" x="1730" y="-424.3" font-family="Times,serif" font-size="14.00">a baby&#39;s silky bottom.</text>
<text text-anchor="middle" x="1730" y="-407.05" font-family="Times,serif" font-size="14.00">Here&#39;s your $1500, and</text>
<text text-anchor="middle" x="1730" y="-389.8" font-family="Times,serif" font-size="14.00">I&#39;ll even throw in an</text>
<text text-anchor="middle" x="1730" y="-372.55" font-family="Times,serif" font-size="14.00">extra $200 for the smooth</text>
<text text-anchor="middle" x="1730" y="-355.3" font-family="Times,serif" font-size="14.00">service.</text>
</g>
<!-- talk_p_proc&#45;&gt;Node010 -->
<g id="edge7" class="edge">
<title>talk_p_proc&#45;&gt;Node010</title>
<path fill="none" stroke="#555555" stroke-dasharray="1,5" d="M1387.89,-2510.37C1394.47,-2492.01 1405.82,-2462.03 1418,-2437.25 1485.85,-2299.29 1594,-2293.19 1594,-2139.45 1594,-2139.45 1594,-2139.45 1594,-646.2 1594,-592.77 1620.92,-540.67 1650.81,-499.29"/>
<polygon fill="#555555" stroke="#555555" points="1654.09,-501.74 1657.22,-491.63 1648.46,-497.58 1654.09,-501.74"/>
</g>
<!-- Node001 -->
<g id="node13" class="node">
<title>Node001</title>
<ellipse fill="#ffffff" stroke="#000000" cx="2452" cy="-2138.45" rx="141.24" ry="91.04"/>
<text text-anchor="middle" x="2452" y="-2185.52" font-family="Times,serif" font-size="14.00">If you come by here</text>
<text text-anchor="middle" x="2452" y="-2168.27" font-family="Times,serif" font-size="14.00">again, it&#39;s just possible</text>
<text text-anchor="middle" x="2452" y="-2151.02" font-family="Times,serif" font-size="14.00">that you&#39;ll have an</text>
<text text-anchor="middle" x="2452" y="-2133.77" font-family="Times,serif" font-size="14.00">accident.</text>
<text text-anchor="middle" x="2452" y="-2116.52" font-family="Times,serif" font-size="14.00">&#45;&#45;&#45;</text>
<text text-anchor="middle" x="2452" y="-2099.27" font-family="Times,serif" font-size="14.00">You&#39;ve been warned. Now</text>
<text text-anchor="middle" x="2452" y="-2082.02" font-family="Times,serif" font-size="14.00">get the hell out of here.</text>
</g>
<!-- talk_p_proc&#45;&gt;Node001 -->
<g id="edge8" class="edge">
<title>talk_p_proc&#45;&gt;Node001</title>
<path fill="none" stroke="#555555" stroke-dasharray="1,5" d="M1383.45,-2509.98C1386.24,-2488.88 1394.37,-2453.99 1418,-2437.25 1458.12,-2408.85 2259.98,-2425.75 2302,-2400.25 2361.1,-2364.4 2399.18,-2295.91 2422.18,-2238.12"/>
<polygon fill="#555555" stroke="#555555" points="2425.68,-2239.79 2426.03,-2229.2 2419.15,-2237.26 2425.68,-2239.79"/>
</g>
<!-- Node003 -->
<g id="node14" class="node">
<title>Node003</title>
<ellipse fill="#ffffff" stroke="#000000" cx="2141" cy="-2138.45" rx="151.85" ry="261.81"/>
<text text-anchor="middle" x="2141" y="-2306.27" font-family="Times,serif" font-size="14.00">Hello. I&#39;m Enrico</text>
<text text-anchor="middle" x="2141" y="-2289.02" font-family="Times,serif" font-size="14.00">Savinelli. I run the</text>
<text text-anchor="middle" x="2141" y="-2271.77" font-family="Times,serif" font-size="14.00">caravan between New Reno</text>
<text text-anchor="middle" x="2141" y="-2254.52" font-family="Times,serif" font-size="14.00">and Redding. We can use</text>
<text text-anchor="middle" x="2141" y="-2237.27" font-family="Times,serif" font-size="14.00">an</text>
<text text-anchor="middle" x="2141" y="-2220.02" font-family="Times,serif" font-size="14.00">extra guard, if you&#39;re</text>
<text text-anchor="middle" x="2141" y="-2202.77" font-family="Times,serif" font-size="14.00">willing to leave right</text>
<text text-anchor="middle" x="2141" y="-2185.52" font-family="Times,serif" font-size="14.00">now.</text>
<text text-anchor="middle" x="2141" y="-2168.27" font-family="Times,serif" font-size="14.00">&#45;&#45;&#45;</text>
<text text-anchor="middle" x="2141" y="-2151.02" font-family="Times,serif" font-size="14.00">Hello. I&#39;m Savinelli. I</text>
<text text-anchor="middle" x="2141" y="-2133.77" font-family="Times,serif" font-size="14.00">run the caravan between</text>
<text text-anchor="middle" x="2141" y="-2116.52" font-family="Times,serif" font-size="14.00">New Reno and Redding.</text>
<text text-anchor="middle" x="2141" y="-2099.27" font-family="Times,serif" font-size="14.00">Always looking for a</text>
<text text-anchor="middle" x="2141" y="-2082.02" font-family="Times,serif" font-size="14.00">reliable guard or two.</text>
<text text-anchor="middle" x="2141" y="-2064.77" font-family="Times,serif" font-size="14.00">We leave town on the 21st</text>
<text text-anchor="middle" x="2141" y="-2047.52" font-family="Times,serif" font-size="14.00">of every month. If you</text>
<text text-anchor="middle" x="2141" y="-2030.27" font-family="Times,serif" font-size="14.00">want to go with us, make</text>
<text text-anchor="middle" x="2141" y="-2013.02" font-family="Times,serif" font-size="14.00">sure</text>
<text text-anchor="middle" x="2141" y="-1995.77" font-family="Times,serif" font-size="14.00"> you&#39;re here on the 21st.</text>
<text text-anchor="middle" x="2141" y="-1978.52" font-family="Times,serif" font-size="14.00">&#45;&#45;&#45;</text>
<text text-anchor="middle" x="2141" y="-1961.27" font-family="Times,serif" font-size="14.00">What d&#39;ya want?</text>
</g>
<!-- talk_p_proc&#45;&gt;Node003 -->
<g id="edge9" class="edge">
<title>talk_p_proc&#45;&gt;Node003</title>
<path fill="none" stroke="#555555" stroke-dasharray="1,5" d="M1383.6,-2510.18C1386.53,-2489.29 1394.82,-2454.6 1418,-2437.25 1451.96,-2411.84 1567.35,-2431.34 1608,-2419.25 1744.51,-2378.68 1886.7,-2302.02 1989.86,-2239.19"/>
<polygon fill="#555555" stroke="#555555" points="1991.39,-2241.75 1998.09,-2233.54 1987.73,-2235.78 1991.39,-2241.75"/>
</g>
<!-- Node998 -->
<g id="node22" class="node">
<title>Node998</title>
<ellipse fill="#ffffff" stroke="#000000" cx="27" cy="-124.5" rx="27" ry="18"/>
</g>
<!-- Node006&#45;&gt;Node998 -->
<g id="edge20" class="edge">
<title>Node006&#45;&gt;Node998</title>
<path fill="none" stroke="#5d0099" d="M152.87,-361.41C106.82,-330.14 54.57,-285.1 28.5,-229.5 17.32,-205.66 18.39,-175.24 21.38,-153.47"/>
<polygon fill="#5d0099" stroke="#5d0099" points="24.99,-154.09 23.12,-143.66 18.08,-152.98 24.99,-154.09"/>
<text text-anchor="middle" x="70.25" y="-190.32" font-family="Times,serif" font-size="14.00" fill="#5d0099">Bring it on!</text>
</g>
<!-- Node999 -->
<g id="node23" class="node">
<title>Node999</title>
<ellipse fill="#ffffff" stroke="#000000" cx="1834" cy="-124.5" rx="27" ry="18"/>
</g>
<!-- Node006&#45;&gt;Node999 -->
<g id="edge18" class="edge">
<title>Node006&#45;&gt;Node999</title>
<path fill="none" stroke="#007c99" d="M181.81,-351.68C133.94,-296.08 81.73,-213.6 133.75,-160.5 163.83,-129.8 1546.76,-125.99 1795.79,-125.55"/>
<polygon fill="#007c99" stroke="#007c99" points="1795.79,-129.05 1805.78,-125.54 1795.78,-122.05 1795.79,-129.05"/>
<text text-anchor="middle" x="229.62" y="-207.57" font-family="Times,serif" font-size="14.00" fill="#007c99">A thief? I resemble that</text>
<text text-anchor="middle" x="229.62" y="-190.32" font-family="Times,serif" font-size="14.00" fill="#007c99">remark, you damn ingrate.</text>
<text text-anchor="middle" x="229.62" y="-173.07" font-family="Times,serif" font-size="14.00" fill="#007c99">I&#39;m leaving. Goodbye.</text>
</g>
<!-- Node006&#45;&gt;Node999 -->
<g id="edge19" class="edge">
<title>Node006&#45;&gt;Node999</title>
<path fill="none" stroke="#998900" d="M272.41,-347.05C289.24,-312.71 309.46,-269.32 325,-229.5 336.69,-199.54 321.05,-179.82 346.75,-160.5 376.6,-138.06 1567.07,-127.6 1796.1,-125.79"/>
<polygon fill="#998900" stroke="#998900" points="1795.9,-129.28 1805.87,-125.7 1795.84,-122.28 1795.9,-129.28"/>
<text text-anchor="middle" x="423.12" y="-198.95" font-family="Times,serif" font-size="14.00" fill="#998900">You&#39;ll regret crossing</text>
<text text-anchor="middle" x="423.12" y="-181.7" font-family="Times,serif" font-size="14.00" fill="#998900">me. Goodbye.</text>
</g>
<!-- Node007&#45;&gt;Node999 -->
<g id="edge21" class="edge">
<title>Node007&#45;&gt;Node999</title>
<path fill="none" stroke="#009930" d="M621.15,-352.55C546.41,-299.8 463.87,-221.23 523,-160.5 545.8,-137.09 1582.7,-127.51 1795.91,-125.79"/>
<polygon fill="#009930" stroke="#009930" points="1795.86,-129.28 1805.84,-125.7 1795.81,-122.28 1795.86,-129.28"/>
<text text-anchor="middle" x="608.5" y="-207.57" font-family="Times,serif" font-size="14.00" fill="#009930">Yeah? I&#39;d like to see you</text>
<text text-anchor="middle" x="608.5" y="-190.32" font-family="Times,serif" font-size="14.00" fill="#009930">try that, you cheap</text>
<text text-anchor="middle" x="608.5" y="-173.07" font-family="Times,serif" font-size="14.00" fill="#009930">bastard. Goodbye.</text>
</g>
<!-- Node007&#45;&gt;Node999 -->
<g id="edge22" class="edge">
<title>Node007&#45;&gt;Node999</title>
<path fill="none" stroke="#990400" d="M704.78,-332.75C697.51,-268.52 693.19,-184.27 716.25,-160.5 754.61,-120.96 1603.7,-124.02 1795.66,-125.22"/>
<polygon fill="#990400" stroke="#990400" points="1795.57,-128.73 1805.59,-125.29 1795.62,-121.73 1795.57,-128.73"/>
<text text-anchor="middle" x="805.88" y="-216.2" font-family="Times,serif" font-size="14.00" fill="#990400">Well, sometimes you just</text>
<text text-anchor="middle" x="805.88" y="-198.95" font-family="Times,serif" font-size="14.00" fill="#990400">get luckier than others.</text>
<text text-anchor="middle" x="805.88" y="-181.7" font-family="Times,serif" font-size="14.00" fill="#990400">This was one of the</text>
<text text-anchor="middle" x="805.88" y="-164.45" font-family="Times,serif" font-size="14.00" fill="#990400">unlucky times. Goodbye.</text>
</g>
<!-- Node008&#45;&gt;Node999 -->
<g id="edge23" class="edge">
<title>Node008&#45;&gt;Node999</title>
<path fill="none" stroke="#002999" d="M1018.38,-351.39C941.76,-299.08 858.7,-221.85 917.75,-160.5 948.64,-128.41 1626.11,-125.68 1795.75,-125.5"/>
<polygon fill="#002999" stroke="#002999" points="1795.63,-129 1805.63,-125.49 1795.63,-122 1795.63,-129"/>
<text text-anchor="middle" x="1007.62" y="-207.57" font-family="Times,serif" font-size="14.00" fill="#002999">Well, something is better</text>
<text text-anchor="middle" x="1007.62" y="-190.32" font-family="Times,serif" font-size="14.00" fill="#002999">than nothing, I guess.</text>
<text text-anchor="middle" x="1007.62" y="-173.07" font-family="Times,serif" font-size="14.00" fill="#002999">Goodbye.</text>
</g>
<!-- Node008&#45;&gt;Node999 -->
<g id="edge24" class="edge">
<title>Node008&#45;&gt;Node999</title>
<path fill="none" stroke="#569900" d="M1106.07,-320.65C1099.4,-258.43 1096.58,-182.99 1118,-160.5 1141.55,-135.77 1651.35,-127.71 1796.03,-125.92"/>
<polygon fill="#569900" stroke="#569900" points="1796.01,-129.41 1805.96,-125.79 1795.92,-122.41 1796.01,-129.41"/>
<text text-anchor="middle" x="1214" y="-207.57" font-family="Times,serif" font-size="14.00" fill="#569900">You lousy bastard! Nobody</text>
<text text-anchor="middle" x="1214" y="-190.32" font-family="Times,serif" font-size="14.00" fill="#569900">could have done a better</text>
<text text-anchor="middle" x="1214" y="-173.07" font-family="Times,serif" font-size="14.00" fill="#569900">job. Goodbye.</text>
</g>
<!-- Node009&#45;&gt;Node999 -->
<g id="edge25" class="edge">
<title>Node009&#45;&gt;Node999</title>
<path fill="none" stroke="#990082" d="M1376.23,-359.84C1333.92,-304.35 1283.22,-216.04 1335,-160.5 1366.24,-126.99 1684.98,-124.94 1796.07,-125.26"/>
<polygon fill="#990082" stroke="#990082" points="1795.74,-128.76 1805.76,-125.3 1795.77,-121.76 1795.74,-128.76"/>
<text text-anchor="middle" x="1431" y="-216.2" font-family="Times,serif" font-size="14.00" fill="#990082">I don&#39;t think I ever want</text>
<text text-anchor="middle" x="1431" y="-198.95" font-family="Times,serif" font-size="14.00" fill="#990082">to spend so much time</text>
<text text-anchor="middle" x="1431" y="-181.7" font-family="Times,serif" font-size="14.00" fill="#990082">looking at the ass&#45;end of</text>
<text text-anchor="middle" x="1431" y="-164.45" font-family="Times,serif" font-size="14.00" fill="#990082">a brahmin again. Goodbye.</text>
</g>
<!-- Node009&#45;&gt;Node999 -->
<g id="edge26" class="edge">
<title>Node009&#45;&gt;Node999</title>
<path fill="none" stroke="#009983" d="M1453.21,-358.6C1475.33,-322.92 1504.39,-274.16 1527,-229.5 1542.07,-199.74 1529.87,-180.58 1556.5,-160.5 1593.43,-132.65 1729.03,-126.87 1796.03,-125.73"/>
<polygon fill="#009983" stroke="#009983" points="1795.99,-129.22 1805.94,-125.58 1795.89,-122.22 1795.99,-129.22"/>
<text text-anchor="middle" x="1635.75" y="-198.95" font-family="Times,serif" font-size="14.00" fill="#009983">Thanks. See you later.</text>
<text text-anchor="middle" x="1635.75" y="-181.7" font-family="Times,serif" font-size="14.00" fill="#009983">Goodbye.</text>
</g>
<!-- Node010&#45;&gt;Node999 -->
<g id="edge27" class="edge">
<title>Node010&#45;&gt;Node999</title>
<path fill="none" stroke="#995600" d="M1719.88,-320.63C1714.99,-259.52 1713.51,-185.49 1731.5,-160.5 1746.13,-140.17 1773.29,-131.52 1795.97,-127.9"/>
<polygon fill="#995600" stroke="#995600" points="1796.22,-131.27 1805.68,-126.5 1795.31,-124.33 1796.22,-131.27"/>
<text text-anchor="middle" x="1824.25" y="-216.2" font-family="Times,serif" font-size="14.00" fill="#995600">Nice to find someone who</text>
<text text-anchor="middle" x="1824.25" y="-198.95" font-family="Times,serif" font-size="14.00" fill="#995600">appreciates quality when</text>
<text text-anchor="middle" x="1824.25" y="-181.7" font-family="Times,serif" font-size="14.00" fill="#995600">he sees it. See you</text>
<text text-anchor="middle" x="1824.25" y="-164.45" font-family="Times,serif" font-size="14.00" fill="#995600">around, maybe. Goodbye.</text>
</g>
<!-- Node010&#45;&gt;Node999 -->
<g id="edge28" class="edge">
<title>Node010&#45;&gt;Node999</title>
<path fill="none" stroke="#2a0099" d="M1826.13,-343.61C1861.35,-313.26 1897.16,-274.16 1916,-229.5 1927.92,-201.24 1932.9,-186.09 1916,-160.5 1905.83,-145.1 1887.34,-136.45 1870.49,-131.61"/>
<polygon fill="#2a0099" stroke="#2a0099" points="1871.85,-128.09 1861.3,-129.06 1870.15,-134.88 1871.85,-128.09"/>
<text text-anchor="middle" x="1999.75" y="-207.57" font-family="Times,serif" font-size="14.00" fill="#2a0099">Thanks for the extra</text>
<text text-anchor="middle" x="1999.75" y="-190.32" font-family="Times,serif" font-size="14.00" fill="#2a0099">change, Savinelli.</text>
<text text-anchor="middle" x="1999.75" y="-173.07" font-family="Times,serif" font-size="14.00" fill="#2a0099">Goodbye.</text>
</g>
<!-- Node003&#45;&gt;Node999 -->
<g id="edge15" class="edge">
<title>Node003&#45;&gt;Node999</title>
<path fill="none" stroke="#99004f" d="M2013.18,-1995.73C1963.56,-1931.43 1912.58,-1851.48 1887,-1769.39 1852.94,-1660.06 1606.18,-3063.08 1901.25,-904.24 1912.75,-820.13 2131.56,-224.68 2076,-160.5 2050.1,-130.59 1933.62,-125.68 1872.2,-125.22"/>
<polygon fill="#99004f" stroke="#99004f" points="1872.41,-121.72 1862.4,-125.18 1872.39,-128.72 1872.41,-121.72"/>
<text text-anchor="middle" x="1980.38" y="-925.44" font-family="Times,serif" font-size="14.00" fill="#99004f">I don&#39;t think that&#39;s for</text>
<text text-anchor="middle" x="1980.38" y="-908.19" font-family="Times,serif" font-size="14.00" fill="#99004f">me. Goodbye.</text>
</g>
<!-- Node013 -->
<g id="node26" class="node">
<title>Node013</title>
<ellipse fill="#ffffff" stroke="#000000" cx="2031" cy="-1727.14" rx="142.84" ry="42.25"/>
<text text-anchor="middle" x="2031" y="-1739.72" font-family="Times,serif" font-size="14.00">Hey, pal, you&#39;ve gotta</text>
<text text-anchor="middle" x="2031" y="-1722.47" font-family="Times,serif" font-size="14.00">know when to say no. And</text>
<text text-anchor="middle" x="2031" y="-1705.22" font-family="Times,serif" font-size="14.00">*I* do. So NO!</text>
</g>
<!-- Node003&#45;&gt;Node013 -->
<g id="edge11" class="edge">
<title>Node003&#45;&gt;Node013</title>
<path fill="none" stroke="#009963" d="M2077.25,-1900.24C2065.06,-1854.87 2053.46,-1811.7 2044.92,-1779.94"/>
<polygon fill="#009963" stroke="#009963" points="2048.12,-1779.37 2042.15,-1770.62 2041.36,-1781.19 2048.12,-1779.37"/>
<text text-anchor="middle" x="2106.12" y="-1845.34" font-family="Times,serif" font-size="14.00" fill="#009963">Moo&#45;moos?</text>
</g>
<!-- Node003a -->
<g id="node27" class="node">
<title>Node003a</title>
<ellipse fill="#ffffff" stroke="#000000" cx="2669" cy="-1805.39" rx="27" ry="18"/>
</g>
<!-- Node003&#45;&gt;Node003a -->
<g id="edge12" class="edge">
<title>Node003&#45;&gt;Node003a</title>
<path fill="none" stroke="#993700" d="M2237.5,-1935.63C2255.99,-1912.65 2277.41,-1892.01 2302,-1876.64 2336.28,-1855.23 2443.28,-1866.14 2483,-1858.64 2537,-1848.45 2598.06,-1829.91 2635.03,-1817.87"/>
<polygon fill="#993700" stroke="#993700" points="2635.83,-1820.96 2644.24,-1814.51 2633.65,-1814.31 2635.83,-1820.96"/>
<text text-anchor="middle" x="2639.62" y="-1845.34" font-family="Times,serif" font-size="14.00" fill="#993700">You need a guard, huh?</text>
</g>
<!-- Node014 -->
<g id="node28" class="node">
<title>Node014</title>
<ellipse fill="#ffffff" stroke="#000000" cx="2277" cy="-819.6" rx="131.7" ry="66.64"/>
<text text-anchor="middle" x="2277" y="-849.42" font-family="Times,serif" font-size="14.00">Well, we pick up mostly,</text>
<text text-anchor="middle" x="2277" y="-832.17" font-family="Times,serif" font-size="14.00">uh, medical supplies &#45;</text>
<text text-anchor="middle" x="2277" y="-814.92" font-family="Times,serif" font-size="14.00">yeah, that&#39;s it &#45; in New</text>
<text text-anchor="middle" x="2277" y="-797.67" font-family="Times,serif" font-size="14.00">Reno, and trade it to</text>
<text text-anchor="middle" x="2277" y="-780.42" font-family="Times,serif" font-size="14.00"> Redding for gold ore.</text>
</g>
<!-- Node003&#45;&gt;Node014 -->
<g id="edge13" class="edge">
<title>Node003&#45;&gt;Node014</title>
<path fill="none" stroke="#0a0099" d="M2167.8,-1880.25C2170.79,-1843.09 2173.35,-1805.29 2175,-1769.39 2176.73,-1731.88 2198.59,-1714.11 2175,-1684.89 2151.15,-1655.36 2115.35,-1696.43 2091.5,-1666.89 2040.66,-1603.93 2081.46,-1565.11 2091.5,-1484.81 2124.53,-1220.64 2150.82,-1155.44 2239,-904.24 2240.14,-901.01 2241.35,-897.72 2242.62,-894.42"/>
<polygon fill="#0a0099" stroke="#0a0099" points="2246.12,-896.1 2246.57,-885.51 2239.62,-893.5 2246.12,-896.1"/>
<text text-anchor="middle" x="2161.75" y="-1571.18" font-family="Times,serif" font-size="14.00" fill="#0a0099">What do you trade?</text>
</g>
<!-- Node011 -->
<g id="node29" class="node">
<title>Node011</title>
<ellipse fill="#ffffff" stroke="#000000" cx="2424" cy="-1194.15" rx="143.37" ry="237.41"/>
<text text-anchor="middle" x="2424" y="-1344.73" font-family="Times,serif" font-size="14.00">I&#39;m not sure how long</text>
<text text-anchor="middle" x="2424" y="-1327.48" font-family="Times,serif" font-size="14.00">it&#39;s going to take these</text>
<text text-anchor="middle" x="2424" y="-1310.23" font-family="Times,serif" font-size="14.00">damn dirt&#45;grubbers to get</text>
<text text-anchor="middle" x="2424" y="-1292.98" font-family="Times,serif" font-size="14.00">my gold shipment</text>
<text text-anchor="middle" x="2424" y="-1275.73" font-family="Times,serif" font-size="14.00">together. We&#39;ll be ready</text>
<text text-anchor="middle" x="2424" y="-1258.48" font-family="Times,serif" font-size="14.00">to go on the 21st, no</text>
<text text-anchor="middle" x="2424" y="-1241.23" font-family="Times,serif" font-size="14.00">matter what. Check back</text>
<text text-anchor="middle" x="2424" y="-1223.98" font-family="Times,serif" font-size="14.00">with me if you still want</text>
<text text-anchor="middle" x="2424" y="-1206.73" font-family="Times,serif" font-size="14.00">a job.</text>
<text text-anchor="middle" x="2424" y="-1189.48" font-family="Times,serif" font-size="14.00">&#45;&#45;&#45;</text>
<text text-anchor="middle" x="2424" y="-1172.23" font-family="Times,serif" font-size="14.00">Hey, I&#39;m putting together</text>
<text text-anchor="middle" x="2424" y="-1154.98" font-family="Times,serif" font-size="14.00">a shipment of some</text>
<text text-anchor="middle" x="2424" y="-1137.73" font-family="Times,serif" font-size="14.00">delicate stuff. Stuff</text>
<text text-anchor="middle" x="2424" y="-1120.48" font-family="Times,serif" font-size="14.00">that takes time. Can&#39;t</text>
<text text-anchor="middle" x="2424" y="-1103.23" font-family="Times,serif" font-size="14.00">rush</text>
<text text-anchor="middle" x="2424" y="-1085.98" font-family="Times,serif" font-size="14.00">quality, ya&#39; know.</text>
<text text-anchor="middle" x="2424" y="-1068.73" font-family="Times,serif" font-size="14.00">Should be ready to go on</text>
<text text-anchor="middle" x="2424" y="-1051.48" font-family="Times,serif" font-size="14.00">the 21st. Come back then</text>
<text text-anchor="middle" x="2424" y="-1034.23" font-family="Times,serif" font-size="14.00">if you still want a job.</text>
</g>
<!-- Node003&#45;&gt;Node011 -->
<g id="edge14" class="edge">
<title>Node003&#45;&gt;Node011</title>
<path fill="none" stroke="#239900" d="M2250.87,-1957.25C2267.81,-1930.12 2285.24,-1902.56 2302,-1876.64 2363.14,-1782.11 2410.99,-1774.52 2444,-1666.89 2457.18,-1623.92 2455.4,-1531.21 2449.05,-1439.25"/>
<polygon fill="#239900" stroke="#239900" points="2452.48,-1439.06 2448.28,-1429.33 2445.5,-1439.55 2452.48,-1439.06"/>
<text text-anchor="middle" x="2530.25" y="-1731.09" font-family="Times,serif" font-size="14.00" fill="#239900">Why are you waiting until</text>
<text text-anchor="middle" x="2530.25" y="-1713.84" font-family="Times,serif" font-size="14.00" fill="#239900">the 21st?</text>
</g>
<!-- destroy_p_proc -->
<g id="node15" class="node">
<title>destroy_p_proc</title>
<ellipse fill="#ffffff" stroke="#000000" cx="1454" cy="-2528.29" rx="27" ry="18"/>
</g>
<!-- look_at_p_proc -->
<g id="node16" class="node">
<title>look_at_p_proc</title>
<ellipse fill="#ffffff" stroke="#000000" cx="1648" cy="-2528.29" rx="148.67" ry="91.04"/>
<text text-anchor="middle" x="1648" y="-2575.37" font-family="Times,serif" font-size="14.00">You see a man with greasy</text>
<text text-anchor="middle" x="1648" y="-2558.12" font-family="Times,serif" font-size="14.00">hair. He&#39;s covered in</text>
<text text-anchor="middle" x="1648" y="-2540.87" font-family="Times,serif" font-size="14.00">dust.</text>
<text text-anchor="middle" x="1648" y="-2523.62" font-family="Times,serif" font-size="14.00">&#45;&#45;&#45;</text>
<text text-anchor="middle" x="1648" y="-2506.37" font-family="Times,serif" font-size="14.00">You see Savinelli, the</text>
<text text-anchor="middle" x="1648" y="-2489.12" font-family="Times,serif" font-size="14.00">guy in charge of the New</text>
<text text-anchor="middle" x="1648" y="-2471.87" font-family="Times,serif" font-size="14.00">Reno&#45;to&#45;Redding Caravans.</text>
</g>
<!-- description_p_proc -->
<g id="node17" class="node">
<title>description_p_proc</title>
<ellipse fill="#ffffff" stroke="#000000" cx="1950" cy="-2528.29" rx="134.88" ry="42.25"/>
<text text-anchor="middle" x="1950" y="-2540.87" font-family="Times,serif" font-size="14.00">You see a short, nervous</text>
<text text-anchor="middle" x="1950" y="-2523.62" font-family="Times,serif" font-size="14.00">looking guy with</text>
<text text-anchor="middle" x="1950" y="-2506.37" font-family="Times,serif" font-size="14.00">slicked&#45;back hair.</text>
</g>
<!-- use_skill_on_p_proc -->
<g id="node18" class="node">
<title>use_skill_on_p_proc</title>
<ellipse fill="#ffffff" stroke="#000000" cx="2130" cy="-2528.29" rx="27" ry="18"/>
</g>
<!-- damage_p_proc -->
<g id="node19" class="node">
<title>damage_p_proc</title>
<ellipse fill="#ffffff" stroke="#000000" cx="2202" cy="-2528.29" rx="27" ry="18"/>
</g>
<!-- map_enter_p_proc -->
<g id="node20" class="node">
<title>map_enter_p_proc</title>
<ellipse fill="#ffffff" stroke="#000000" cx="2274" cy="-2528.29" rx="27" ry="18"/>
</g>
<!-- map_update_p_proc -->
<g id="node21" class="node">
<title>map_update_p_proc</title>
<ellipse fill="#ffffff" stroke="#000000" cx="2346" cy="-2528.29" rx="27" ry="18"/>
</g>
<!-- Node002 -->
<g id="node24" class="node">
<title>Node002</title>
<ellipse fill="#ffffff" stroke="#000000" cx="3036" cy="-124.5" rx="144.33" ry="18"/>
<text text-anchor="middle" x="3036" y="-119.83" font-family="Times,serif" font-size="14.00">Get them doggies moving!</text>
</g>
<!-- Node002a -->
<g id="node25" class="node">
<title>Node002a</title>
<ellipse fill="#ffffff" stroke="#000000" cx="3036" cy="-18" rx="27" ry="18"/>
</g>
<!-- Node002&#45;&gt;Node002a -->
<g id="edge10" class="edge">
<title>Node002&#45;&gt;Node002a</title>
<path fill="none" stroke="#900099" d="M3036,-106.24C3036,-90.21 3036,-66.04 3036,-47.2"/>
<polygon fill="#900099" stroke="#900099" points="3039.5,-47.28 3036,-37.28 3032.5,-47.28 3039.5,-47.28"/>
<text text-anchor="middle" x="3103.88" y="-75.2" font-family="Times,serif" font-size="14.00" fill="#900099">Uh, doggies? Okay,</text>
<text text-anchor="middle" x="3103.88" y="-57.95" font-family="Times,serif" font-size="14.00" fill="#900099">whatever. Let&#39;s go.</text>
</g>
<!-- Node013&#45;&gt;Node999 -->
<g id="edge35" class="edge">
<title>Node013&#45;&gt;Node999</title>
<path fill="none" stroke="#992300" d="M2032.25,-1684.86C2036.41,-1550.53 2050.73,-1113.81 2071.5,-752.95 2079.08,-621.24 2197.23,-259.49 2110,-160.5 2094.5,-142.91 1943.82,-131.87 1871.87,-127.56"/>
<polygon fill="#992300" stroke="#992300" points="1872.22,-124.02 1862.03,-126.93 1871.81,-131.01 1872.22,-124.02"/>
<text text-anchor="middle" x="2104.25" y="-814.92" font-family="Times,serif" font-size="14.00" fill="#992300">Oh, okay.</text>
</g>
<!-- Node015 -->
<g id="node30" class="node">
<title>Node015</title>
<ellipse fill="#ffffff" stroke="#000000" cx="2521" cy="-411.73" rx="146.55" ry="164.23"/>
<text text-anchor="middle" x="2521" y="-510.55" font-family="Times,serif" font-size="14.00">You came along at a good</text>
<text text-anchor="middle" x="2521" y="-493.3" font-family="Times,serif" font-size="14.00">time. We&#39;re ready to go</text>
<text text-anchor="middle" x="2521" y="-476.05" font-family="Times,serif" font-size="14.00">right now. The job pays</text>
<text text-anchor="middle" x="2521" y="-458.8" font-family="Times,serif" font-size="14.00">$1500, but I&#39;m only</text>
<text text-anchor="middle" x="2521" y="-441.55" font-family="Times,serif" font-size="14.00">paying</text>
<text text-anchor="middle" x="2521" y="-424.3" font-family="Times,serif" font-size="14.00">you for the job since I</text>
<text text-anchor="middle" x="2521" y="-407.05" font-family="Times,serif" font-size="14.00">only need one more guard.</text>
<text text-anchor="middle" x="2521" y="-389.8" font-family="Times,serif" font-size="14.00">Ready to join us?</text>
<text text-anchor="middle" x="2521" y="-372.55" font-family="Times,serif" font-size="14.00">&#45;&#45;&#45;</text>
<text text-anchor="middle" x="2521" y="-355.3" font-family="Times,serif" font-size="14.00">You came along at a good</text>
<text text-anchor="middle" x="2521" y="-338.05" font-family="Times,serif" font-size="14.00">time. We&#39;re ready to go</text>
<text text-anchor="middle" x="2521" y="-320.8" font-family="Times,serif" font-size="14.00">right now. The job pays</text>
<text text-anchor="middle" x="2521" y="-303.55" font-family="Times,serif" font-size="14.00">$1500. Ready to join us?</text>
</g>
<!-- Node003a&#45;&gt;Node015 -->
<g id="edge16" class="edge">
<title>Node003a&#45;&gt;Node015</title>
<path fill="none" stroke="#555555" stroke-dasharray="1,5" d="M2685.24,-1790.8C2710.86,-1768.19 2759.71,-1720.06 2779,-1666.89 2816.75,-1562.84 2837.65,-1067.68 2784,-956.74 2714.88,-813.82 2573.12,-877.87 2504,-734.95 2481.34,-688.1 2477.37,-632.83 2481.5,-581.41"/>
<polygon fill="#555555" stroke="#555555" points="2485.07,-581.78 2482.5,-571.5 2478.1,-581.14 2485.07,-581.78"/>
</g>
<!-- Node012 -->
<g id="node31" class="node">
<title>Node012</title>
<ellipse fill="#ffffff" stroke="#000000" cx="2634" cy="-1575.85" rx="135.94" ry="91.04"/>
<text text-anchor="middle" x="2634" y="-1622.93" font-family="Times,serif" font-size="14.00">We&#39;re usually looking for</text>
<text text-anchor="middle" x="2634" y="-1605.68" font-family="Times,serif" font-size="14.00">caravan guards, but I</text>
<text text-anchor="middle" x="2634" y="-1588.43" font-family="Times,serif" font-size="14.00">ain&#39;t ready to go just</text>
<text text-anchor="middle" x="2634" y="-1571.18" font-family="Times,serif" font-size="14.00">yet. I&#39;ll be ready to</text>
<text text-anchor="middle" x="2634" y="-1553.93" font-family="Times,serif" font-size="14.00">head out on the 21st.</text>
<text text-anchor="middle" x="2634" y="-1536.68" font-family="Times,serif" font-size="14.00">Come back then if you</text>
<text text-anchor="middle" x="2634" y="-1519.43" font-family="Times,serif" font-size="14.00">want a job.</text>
</g>
<!-- Node003a&#45;&gt;Node012 -->
<g id="edge17" class="edge">
<title>Node003a&#45;&gt;Node012</title>
<path fill="none" stroke="#555555" stroke-dasharray="1,5" d="M2667.41,-1787.32C2665.15,-1764.08 2660.65,-1721.22 2655,-1684.89 2654.6,-1682.34 2654.19,-1679.76 2653.76,-1677.16"/>
<polygon fill="#555555" stroke="#555555" points="2657.06,-1676.65 2651.94,-1667.37 2650.16,-1677.82 2657.06,-1676.65"/>
</g>
<!-- Node014&#45;&gt;Node003 -->
<g id="edge37" class="edge">
<title>Node014&#45;&gt;Node003</title>
<path fill="none" stroke="#369900" d="M2270.19,-886.47C2263.09,-960.85 2253,-1085.56 2253,-1193.15 2253,-1806.39 2253,-1806.39 2253,-1806.39 2253,-1843.97 2246.45,-1882.74 2236.51,-1919.92"/>
<polygon fill="#369900" stroke="#369900" points="2232.91,-1918.79 2233.62,-1929.37 2239.66,-1920.66 2232.91,-1918.79"/>
<text text-anchor="middle" x="2346.75" y="-1579.8" font-family="Times,serif" font-size="14.00" fill="#369900">Let me ask you something</text>
<text text-anchor="middle" x="2346.75" y="-1562.55" font-family="Times,serif" font-size="14.00" fill="#369900">else.</text>
</g>
<!-- Node014&#45;&gt;Node999 -->
<g id="edge38" class="edge">
<title>Node014&#45;&gt;Node999</title>
<path fill="none" stroke="#990063" d="M2235,-756.18C2210.61,-716.46 2181.89,-662.94 2167.25,-611.2 2112.59,-418.05 2276.36,-305.93 2138,-160.5 2119.94,-141.52 1949.15,-131 1871.78,-127.18"/>
<polygon fill="#990063" stroke="#990063" points="1872.22,-123.65 1862.07,-126.67 1871.89,-130.64 1872.22,-123.65"/>
<text text-anchor="middle" x="2235.88" y="-597.9" font-family="Times,serif" font-size="14.00" fill="#990063">Oh, okay. Goodbye.</text>
</g>
<!-- Node014a -->
<g id="node32" class="node">
<title>Node014a</title>
<ellipse fill="#ffffff" stroke="#000000" cx="2729" cy="-647.2" rx="27" ry="18"/>
</g>
<!-- Node014&#45;&gt;Node014a -->
<g id="edge36" class="edge">
<title>Node014&#45;&gt;Node014a</title>
<path fill="none" stroke="#000a99" d="M2407.13,-808.5C2517.48,-797.28 2664.44,-775.18 2707,-734.95 2722.78,-720.03 2727.89,-695.54 2729.27,-676.38"/>
<polygon fill="#000a99" stroke="#000a99" points="2732.8,-676.68 2729.71,-666.55 2725.81,-676.4 2732.8,-676.68"/>
<text text-anchor="middle" x="2808.62" y="-721.65" font-family="Times,serif" font-size="14.00" fill="#000a99">That&#39;s interesting. You</text>
<text text-anchor="middle" x="2808.62" y="-704.4" font-family="Times,serif" font-size="14.00" fill="#000a99">said you&#39;re looking for</text>
<text text-anchor="middle" x="2808.62" y="-687.15" font-family="Times,serif" font-size="14.00" fill="#000a99">guards?</text>
</g>
<!-- Node011&#45;&gt;Node999 -->
<g id="edge31" class="edge">
<title>Node011&#45;&gt;Node999</title>
<path fill="none" stroke="#005c99" d="M2438.79,-957.79C2438.64,-939.66 2438.09,-921.65 2437,-904.24 2432.77,-836.6 2447.66,-813.88 2418,-752.95 2393.96,-703.57 2359.26,-712.29 2331,-665.2 2270.6,-564.54 2265.79,-234.92 2175,-160.5 2151.95,-141.61 1956.23,-130.85 1872.14,-127.07"/>
<polygon fill="#005c99" stroke="#005c99" points="1872.42,-123.53 1862.28,-126.59 1872.12,-130.53 1872.42,-123.53"/>
<text text-anchor="middle" x="2400" y="-651.15" font-family="Times,serif" font-size="14.00" fill="#005c99">Thanks, I&#39;ll do that.</text>
<text text-anchor="middle" x="2400" y="-633.9" font-family="Times,serif" font-size="14.00" fill="#005c99">Goodbye.</text>
</g>
<!-- Node011&#45;&gt;Node014 -->
<g id="edge29" class="edge">
<title>Node011&#45;&gt;Node014</title>
<path fill="none" stroke="#039900" d="M2322.23,-1026.56C2308.44,-998.09 2296.03,-968.17 2287.25,-938.74 2283.31,-925.53 2280.73,-911.16 2279.07,-897.12"/>
<polygon fill="#039900" stroke="#039900" points="2282.48,-897.07 2277.97,-887.48 2275.52,-897.79 2282.48,-897.07"/>
<text text-anchor="middle" x="2360.38" y="-925.44" font-family="Times,serif" font-size="14.00" fill="#039900">What do you usually</text>
<text text-anchor="middle" x="2360.38" y="-908.19" font-family="Times,serif" font-size="14.00" fill="#039900">transport?</text>
</g>
<!-- Node011&#45;&gt;Node015 -->
<g id="edge30" class="edge">
<title>Node011&#45;&gt;Node015</title>
<path fill="none" stroke="#990030" d="M2478.91,-974.35C2481.16,-962.34 2483.21,-950.41 2485,-938.74 2502.83,-822.18 2511.84,-689.74 2516.38,-586.91"/>
<polygon fill="#990030" stroke="#990030" points="2519.91,-587.25 2516.84,-577.11 2512.92,-586.95 2519.91,-587.25"/>
<text text-anchor="middle" x="2605.75" y="-713.03" font-family="Times,serif" font-size="14.00" fill="#990030">Let me ask you something</text>
<text text-anchor="middle" x="2605.75" y="-695.78" font-family="Times,serif" font-size="14.00" fill="#990030">else.</text>
</g>
<!-- Node015&#45;&gt;Node999 -->
<g id="edge42" class="edge">
<title>Node015&#45;&gt;Node999</title>
<path fill="none" stroke="#997600" d="M2446.02,-270.18C2416.09,-227.69 2377.54,-185.67 2331,-160.5 2291,-138.86 1981.3,-129.16 1872.02,-126.38"/>
<polygon fill="#997600" stroke="#997600" points="1872.28,-122.86 1862.2,-126.11 1872.11,-129.86 1872.28,-122.86"/>
<text text-anchor="middle" x="2502.25" y="-207.57" font-family="Times,serif" font-size="14.00" fill="#997600">I don&#39;t think I want to</text>
<text text-anchor="middle" x="2502.25" y="-190.32" font-family="Times,serif" font-size="14.00" fill="#997600">be a caravan guard. I&#39;ll</text>
<text text-anchor="middle" x="2502.25" y="-173.07" font-family="Times,serif" font-size="14.00" fill="#997600">see you around. Goodbye.</text>
</g>
<!-- Node015&#45;&gt;Node002 -->
<g id="edge41" class="edge">
<title>Node015&#45;&gt;Node002</title>
<path fill="none" stroke="#008f99" d="M2638.04,-312.37C2674.6,-286.81 2716.54,-262.32 2759,-247.5 2812.63,-228.78 2971.16,-266.8 3014,-229.5 3035.17,-211.07 3038.95,-177.82 3038.53,-153.87"/>
<polygon fill="#008f99" stroke="#008f99" points="3041.99,-153.81 3038.05,-143.97 3034.99,-154.12 3041.99,-153.81"/>
<text text-anchor="middle" x="3125" y="-198.95" font-family="Times,serif" font-size="14.00" fill="#008f99">Sounds great. I&#39;m ready.</text>
<text text-anchor="middle" x="3125" y="-181.7" font-family="Times,serif" font-size="14.00" fill="#008f99">Let&#39;s go.</text>
</g>
<!-- Node012&#45;&gt;Node999 -->
<g id="edge34" class="edge">
<title>Node012&#45;&gt;Node999</title>
<path fill="none" stroke="#009950" d="M2747.6,-1525.5C2786.81,-1502.67 2826.89,-1471.59 2851,-1431.56 2964.55,-1243.05 2883.47,-1158.26 2899,-938.74 2907.02,-825.38 2959.82,-784.34 2908,-683.2 2870.8,-610.58 2804.79,-643.49 2759,-575.95 2674.57,-451.41 2747.94,-380.19 2677,-247.5 2652.38,-201.44 2645.26,-182.73 2598,-160.5 2532.05,-129.48 2017.27,-125.92 1872.04,-125.54"/>
<polygon fill="#009950" stroke="#009950" points="1872.07,-122.04 1862.07,-125.52 1872.06,-129.04 1872.07,-122.04"/>
<text text-anchor="middle" x="3004.25" y="-704.4" font-family="Times,serif" font-size="14.00" fill="#009950">OK, thanks. Goodbye.</text>
</g>
<!-- Node012&#45;&gt;Node014 -->
<g id="edge33" class="edge">
<title>Node012&#45;&gt;Node014</title>
<path fill="none" stroke="#7c0099" d="M2622.67,-1484.71C2620.59,-1467.1 2618.52,-1448.76 2616.75,-1431.56 2611.32,-1378.89 2611.45,-996.07 2576,-956.74 2547.52,-925.15 2521.24,-955.17 2482,-938.74 2457.1,-928.31 2455.03,-918.34 2432,-904.24 2414.79,-893.7 2396.15,-883.04 2377.97,-873.01"/>
<polygon fill="#7c0099" stroke="#7c0099" points="2379.96,-869.57 2369.51,-867.84 2376.6,-875.71 2379.96,-869.57"/>
<text text-anchor="middle" x="2700.62" y="-1198.1" font-family="Times,serif" font-size="14.00" fill="#7c0099">What does this caravan</text>
<text text-anchor="middle" x="2700.62" y="-1180.85" font-family="Times,serif" font-size="14.00" fill="#7c0099">transport?</text>
</g>
<!-- Node012&#45;&gt;Node011 -->
<g id="edge32" class="edge">
<title>Node012&#45;&gt;Node011</title>
<path fill="none" stroke="#899900" d="M2525.89,-1520.36C2505.41,-1505.55 2486.16,-1487.71 2472.5,-1466.81 2466.39,-1457.47 2460.99,-1447.57 2456.23,-1437.31"/>
<polygon fill="#899900" stroke="#899900" points="2459.08,-1436.1 2451.85,-1428.36 2452.67,-1438.92 2459.08,-1436.1"/>
<text text-anchor="middle" x="2539.75" y="-1453.51" font-family="Times,serif" font-size="14.00" fill="#899900">When on the 21st?</text>
</g>
<!-- Node014a&#45;&gt;Node015 -->
<g id="edge39" class="edge">
<title>Node014a&#45;&gt;Node015</title>
<path fill="none" stroke="#555555" stroke-dasharray="1,5" d="M2715.67,-631.24C2698.05,-611.46 2665.28,-574.67 2631.58,-536.85"/>
<polygon fill="#555555" stroke="#555555" points="2634.64,-534.9 2625.38,-529.77 2629.42,-539.56 2634.64,-534.9"/>
</g>
<!-- Node014a&#45;&gt;Node012 -->
<g id="edge40" class="edge">
<title>Node014a&#45;&gt;Node012</title>
<path fill="none" stroke="#555555" stroke-dasharray="1,5" d="M2755.42,-652.07C2799.12,-658.73 2882.51,-672.68 2891,-683.2 2905.44,-701.1 2892.69,-712.01 2891,-734.95 2868.05,-1047.08 2933.66,-1154.55 2788,-1431.56 2774.53,-1457.18 2754.63,-1480.68 2733.59,-1500.9"/>
<polygon fill="#555555" stroke="#555555" points="2731.7,-1497.81 2726.79,-1507.2 2736.48,-1502.92 2731.7,-1497.81"/>
</g>
<!-- Node016 -->
<g id="node33" class="node">
<title>Node016</title>
<ellipse fill="#ffffff" stroke="#000000" cx="2907" cy="-411.73" rx="138.59" ry="54.45"/>
<text text-anchor="middle" x="2907" y="-432.93" font-family="Times,serif" font-size="14.00">You were an entertaining</text>
<text text-anchor="middle" x="2907" y="-415.68" font-family="Times,serif" font-size="14.00">little monkey, but now</text>
<text text-anchor="middle" x="2907" y="-398.43" font-family="Times,serif" font-size="14.00">I&#39;m tired of you. Get out</text>
<text text-anchor="middle" x="2907" y="-381.18" font-family="Times,serif" font-size="14.00">of here, you dumb&#45;ass.</text>
</g>
<!-- Node016&#45;&gt;Node999 -->
<g id="edge43" class="edge">
<title>Node016&#45;&gt;Node999</title>
<path fill="none" stroke="#490099" d="M2854.11,-361.04C2820.23,-326.78 2777.47,-278.71 2749.25,-229.5 2733.15,-201.43 2751.91,-179.89 2726,-160.5 2691.36,-134.57 2038.08,-127.24 1872.1,-125.8"/>
<polygon fill="#490099" stroke="#490099" points="1872.47,-122.29 1862.44,-125.71 1872.41,-129.29 1872.47,-122.29"/>
<text text-anchor="middle" x="2821.38" y="-190.32" font-family="Times,serif" font-size="14.00" fill="#490099">Numb&#45;ass? Bye bye.</text>
</g>
<!-- Node016&#45;&gt;Node999 -->
<g id="edge44" class="edge">
<title>Node016&#45;&gt;Node999</title>
<path fill="none" stroke="#00991d" d="M2907.98,-356.91C2908.69,-287.47 2907.68,-173.92 2894,-160.5 2856.83,-124.03 2057.32,-124.69 1872.08,-125.33"/>
<polygon fill="#00991d" stroke="#00991d" points="1872.25,-121.83 1862.27,-125.37 1872.28,-128.83 1872.25,-121.83"/>
<text text-anchor="middle" x="2953.38" y="-190.32" font-family="Times,serif" font-size="14.00" fill="#00991d">Grrr! Me kill!</text>
</g>
</g>
</svg>
