<?xml version="1.0" encoding="UTF-8" standalone="no"?>
<!DOCTYPE svg PUBLIC "-//W3C//DTD SVG 1.1//EN"
 "http://www.w3.org/Graphics/SVG/1.1/DTD/svg11.dtd">
<!-- Generated by graphviz version 8.0.5 (0)
 -->
<!-- Title: rndbess Pages: 1 -->
<svg width="616pt" height="164pt"
 viewBox="0.00 0.00 616.00 164.50" xmlns="http://www.w3.org/2000/svg" xmlns:xlink="http://www.w3.org/1999/xlink">
<g id="graph0" class="graph" transform="scale(1 1) rotate(0) translate(4 160.5)">
<title>rndbess</title>
<polygon fill="white" stroke="none" points="-4,4 -4,-160.5 612,-160.5 612,4 -4,4"/>
<!-- checkPartyMembersNearDoor -->
<g id="node1" class="node">
<title>checkPartyMembersNearDoor</title>
<ellipse fill="#ffffff" stroke="#000000" cx="27" cy="-114.25" rx="27" ry="18"/>
</g>
<!-- start -->
<g id="node2" class="node">
<title>start</title>
<ellipse fill="#ffffff" stroke="#000000" cx="99" cy="-114.25" rx="27" ry="18"/>
</g>
<!-- map_enter_p_proc -->
<g id="node3" class="node">
<title>map_enter_p_proc</title>
<ellipse fill="#ffffff" stroke="#000000" cx="268" cy="-114.25" rx="123.74" ry="42.25"/>
<text text-anchor="middle" x="268" y="-126.82" font-family="Times,serif" font-size="14.00">You startle a flock of</text>
<text text-anchor="middle" x="268" y="-109.57" font-family="Times,serif" font-size="14.00">vultures feeding off a</text>
<text text-anchor="middle" x="268" y="-92.32" font-family="Times,serif" font-size="14.00">dead herd of brahmin.</text>
</g>
<!-- LoadBrahmn -->
<g id="node4" class="node">
<title>LoadBrahmn</title>
<ellipse fill="#ffffff" stroke="#000000" cx="268" cy="-18" rx="27" ry="18"/>
</g>
<!-- map_enter_p_proc&#45;&gt;LoadBrahmn -->
<g id="edge1" class="edge">
<title>map_enter_p_proc&#45;&gt;LoadBrahmn</title>
<path fill="none" stroke="#555555" stroke-dasharray="1,5" d="M268,-71.64C268,-63.38 268,-54.9 268,-47.22"/>
<polygon fill="#555555" stroke="#555555" points="271.5,-47.32 268,-37.32 264.5,-47.32 271.5,-47.32"/>
</g>
<!-- map_update_p_proc -->
<g id="node5" class="node">
<title>map_update_p_proc</title>
<ellipse fill="#ffffff" stroke="#000000" cx="437" cy="-114.25" rx="27" ry="18"/>
</g>
<!-- map_exit_p_proc -->
<g id="node6" class="node">
<title>map_exit_p_proc</title>
<ellipse fill="#ffffff" stroke="#000000" cx="509" cy="-114.25" rx="27" ry="18"/>
</g>
<!-- Initial_Inven -->
<g id="node7" class="node">
<title>Initial_Inven</title>
<ellipse fill="#ffffff" stroke="#000000" cx="581" cy="-114.25" rx="27" ry="18"/>
</g>
</g>
</svg>
