<?xml version="1.0" encoding="UTF-8" standalone="no"?>
<!DOCTYPE svg PUBLIC "-//W3C//DTD SVG 1.1//EN"
 "http://www.w3.org/Graphics/SVG/1.1/DTD/svg11.dtd">
<!-- Generated by graphviz version 8.0.5 (0)
 -->
<!-- Title: scbgrd Pages: 1 -->
<svg width="1380pt" height="189pt"
 viewBox="0.00 0.00 1380.00 188.89" xmlns="http://www.w3.org/2000/svg" xmlns:xlink="http://www.w3.org/1999/xlink">
<g id="graph0" class="graph" transform="scale(1 1) rotate(0) translate(4 184.89)">
<title>scbgrd</title>
<polygon fill="white" stroke="none" points="-4,4 -4,-184.89 1376,-184.89 1376,4 -4,4"/>
<!-- checkPartyMembersNearDoor -->
<g id="node1" class="node">
<title>checkPartyMembersNearDoor</title>
<ellipse fill="#ffffff" stroke="#000000" cx="27" cy="-126.45" rx="27" ry="18"/>
</g>
<!-- old_pickup_p_proc -->
<g id="node2" class="node">
<title>old_pickup_p_proc</title>
<ellipse fill="#ffffff" stroke="#000000" cx="99" cy="-18" rx="27" ry="18"/>
</g>
<!-- pickup_p_proc -->
<g id="node3" class="node">
<title>pickup_p_proc</title>
<ellipse fill="#ffffff" stroke="#000000" cx="99" cy="-126.45" rx="27" ry="18"/>
</g>
<!-- pickup_p_proc&#45;&gt;old_pickup_p_proc -->
<g id="edge1" class="edge">
<title>pickup_p_proc&#45;&gt;old_pickup_p_proc</title>
<path fill="none" stroke="#555555" stroke-dasharray="1,5" d="M99,-108.34C99,-91.91 99,-66.79 99,-47.36"/>
<polygon fill="#555555" stroke="#555555" points="102.5,-47.41 99,-37.41 95.5,-47.41 102.5,-47.41"/>
</g>
<!-- start -->
<g id="node4" class="node">
<title>start</title>
<ellipse fill="#ffffff" stroke="#000000" cx="171" cy="-126.45" rx="27" ry="18"/>
</g>
<!-- critter_p_proc -->
<g id="node5" class="node">
<title>critter_p_proc</title>
<ellipse fill="#ffffff" stroke="#000000" cx="243" cy="-126.45" rx="27" ry="18"/>
</g>
<!-- talk_p_proc -->
<g id="node6" class="node">
<title>talk_p_proc</title>
<ellipse fill="#ffffff" stroke="#000000" cx="315" cy="-126.45" rx="27" ry="18"/>
</g>
<!-- Node001 -->
<g id="node7" class="node">
<title>Node001</title>
<ellipse fill="#ffffff" stroke="#000000" cx="315" cy="-18" rx="27" ry="18"/>
</g>
<!-- talk_p_proc&#45;&gt;Node001 -->
<g id="edge2" class="edge">
<title>talk_p_proc&#45;&gt;Node001</title>
<path fill="none" stroke="#555555" stroke-dasharray="1,5" d="M315,-108.34C315,-91.91 315,-66.79 315,-47.36"/>
<polygon fill="#555555" stroke="#555555" points="318.5,-47.41 315,-37.41 311.5,-47.41 318.5,-47.41"/>
</g>
<!-- destroy_p_proc -->
<g id="node8" class="node">
<title>destroy_p_proc</title>
<ellipse fill="#ffffff" stroke="#000000" cx="387" cy="-126.45" rx="27" ry="18"/>
</g>
<!-- look_at_p_proc -->
<g id="node9" class="node">
<title>look_at_p_proc</title>
<ellipse fill="#ffffff" stroke="#000000" cx="582" cy="-126.45" rx="150.26" ry="54.45"/>
<text text-anchor="middle" x="582" y="-147.65" font-family="Times,serif" font-size="14.00">You see a someone wearing</text>
<text text-anchor="middle" x="582" y="-130.4" font-family="Times,serif" font-size="14.00">combat armor.</text>
<text text-anchor="middle" x="582" y="-113.15" font-family="Times,serif" font-size="14.00">&#45;&#45;&#45;</text>
<text text-anchor="middle" x="582" y="-95.9" font-family="Times,serif" font-size="14.00">You see a guard.</text>
</g>
<!-- description_p_proc -->
<g id="node10" class="node">
<title>description_p_proc</title>
<ellipse fill="#ffffff" stroke="#000000" cx="881" cy="-126.45" rx="130.64" ry="42.25"/>
<text text-anchor="middle" x="881" y="-139.02" font-family="Times,serif" font-size="14.00">He looks to be standing</text>
<text text-anchor="middle" x="881" y="-121.77" font-family="Times,serif" font-size="14.00">here waiting for</text>
<text text-anchor="middle" x="881" y="-104.52" font-family="Times,serif" font-size="14.00">something to happen.</text>
</g>
<!-- use_skill_on_p_proc -->
<g id="node11" class="node">
<title>use_skill_on_p_proc</title>
<ellipse fill="#ffffff" stroke="#000000" cx="1057" cy="-126.45" rx="27" ry="18"/>
</g>
<!-- damage_p_proc -->
<g id="node12" class="node">
<title>damage_p_proc</title>
<ellipse fill="#ffffff" stroke="#000000" cx="1129" cy="-126.45" rx="27" ry="18"/>
</g>
<!-- map_enter_p_proc -->
<g id="node13" class="node">
<title>map_enter_p_proc</title>
<ellipse fill="#ffffff" stroke="#000000" cx="1201" cy="-126.45" rx="27" ry="18"/>
</g>
<!-- Node998 -->
<g id="node14" class="node">
<title>Node998</title>
<ellipse fill="#ffffff" stroke="#000000" cx="1273" cy="-126.45" rx="27" ry="18"/>
</g>
<!-- Node999 -->
<g id="node15" class="node">
<title>Node999</title>
<ellipse fill="#ffffff" stroke="#000000" cx="1345" cy="-126.45" rx="27" ry="18"/>
</g>
</g>
</svg>
