<?xml version="1.0" encoding="UTF-8" standalone="no"?>
<!DOCTYPE svg PUBLIC "-//W3C//DTD SVG 1.1//EN"
 "http://www.w3.org/Graphics/SVG/1.1/DTD/svg11.dtd">
<!-- Generated by graphviz version 8.0.5 (0)
 -->
<!-- Title: sccargrd Pages: 1 -->
<svg width="1414pt" height="358pt"
 viewBox="0.00 0.00 1414.00 358.18" xmlns="http://www.w3.org/2000/svg" xmlns:xlink="http://www.w3.org/1999/xlink">
<g id="graph0" class="graph" transform="scale(1 1) rotate(0) translate(4 354.18)">
<title>sccargrd</title>
<polygon fill="white" stroke="none" points="-4,4 -4,-354.18 1410,-354.18 1410,4 -4,4"/>
<!-- checkPartyMembersNearDoor -->
<g id="node1" class="node">
<title>checkPartyMembersNearDoor</title>
<ellipse fill="#ffffff" stroke="#000000" cx="27" cy="-259.14" rx="27" ry="18"/>
</g>
<!-- old_pickup_p_proc -->
<g id="node2" class="node">
<title>old_pickup_p_proc</title>
<ellipse fill="#ffffff" stroke="#000000" cx="99" cy="-114.1" rx="27" ry="18"/>
</g>
<!-- pickup_p_proc -->
<g id="node3" class="node">
<title>pickup_p_proc</title>
<ellipse fill="#ffffff" stroke="#000000" cx="99" cy="-259.14" rx="27" ry="18"/>
</g>
<!-- pickup_p_proc&#45;&gt;old_pickup_p_proc -->
<g id="edge1" class="edge">
<title>pickup_p_proc&#45;&gt;old_pickup_p_proc</title>
<path fill="none" stroke="#555555" stroke-dasharray="1,5" d="M99,-240.89C99,-216.62 99,-172.12 99,-143.08"/>
<polygon fill="#555555" stroke="#555555" points="102.5,-143.42 99,-133.42 95.5,-143.42 102.5,-143.42"/>
</g>
<!-- start -->
<g id="node4" class="node">
<title>start</title>
<ellipse fill="#ffffff" stroke="#000000" cx="171" cy="-259.14" rx="27" ry="18"/>
</g>
<!-- critter_p_proc -->
<g id="node5" class="node">
<title>critter_p_proc</title>
<ellipse fill="#ffffff" stroke="#000000" cx="243" cy="-259.14" rx="27" ry="18"/>
</g>
<!-- talk_p_proc -->
<g id="node6" class="node">
<title>talk_p_proc</title>
<ellipse fill="#ffffff" stroke="#000000" cx="279" cy="-114.1" rx="27" ry="18"/>
</g>
<!-- critter_p_proc&#45;&gt;talk_p_proc -->
<g id="edge2" class="edge">
<title>critter_p_proc&#45;&gt;talk_p_proc</title>
<path fill="none" stroke="#555555" stroke-dasharray="1,5" d="M247.34,-240.89C253.48,-216.49 264.77,-171.64 272.08,-142.61"/>
<polygon fill="#555555" stroke="#555555" points="275.71,-143.53 274.75,-132.98 268.92,-141.82 275.71,-143.53"/>
</g>
<!-- Node002 -->
<g id="node7" class="node">
<title>Node002</title>
<ellipse fill="#ffffff" stroke="#000000" cx="141" cy="-30.05" rx="125.33" ry="30.05"/>
<text text-anchor="middle" x="141" y="-34" font-family="Times,serif" font-size="14.00">So you&#39;re the new guy,</text>
<text text-anchor="middle" x="141" y="-16.75" font-family="Times,serif" font-size="14.00">eh?</text>
</g>
<!-- talk_p_proc&#45;&gt;Node002 -->
<g id="edge3" class="edge">
<title>talk_p_proc&#45;&gt;Node002</title>
<path fill="none" stroke="#555555" stroke-dasharray="1,5" d="M259.23,-101.35C242.79,-91.58 218.59,-77.18 196.35,-63.96"/>
<polygon fill="#555555" stroke="#555555" points="198.35,-60.49 187.97,-58.38 194.78,-66.5 198.35,-60.49"/>
</g>
<!-- Node001 -->
<g id="node8" class="node">
<title>Node001</title>
<ellipse fill="#ffffff" stroke="#000000" cx="417" cy="-30.05" rx="132.76" ry="30.05"/>
<text text-anchor="middle" x="417" y="-34" font-family="Times,serif" font-size="14.00">You&#39;re not authorized to</text>
<text text-anchor="middle" x="417" y="-16.75" font-family="Times,serif" font-size="14.00">be here.</text>
</g>
<!-- talk_p_proc&#45;&gt;Node001 -->
<g id="edge4" class="edge">
<title>talk_p_proc&#45;&gt;Node001</title>
<path fill="none" stroke="#555555" stroke-dasharray="1,5" d="M298.77,-101.35C315.14,-91.62 339.22,-77.3 361.38,-64.12"/>
<polygon fill="#555555" stroke="#555555" points="362.93,-66.68 369.74,-58.56 359.35,-60.66 362.93,-66.68"/>
</g>
<!-- destroy_p_proc -->
<g id="node9" class="node">
<title>destroy_p_proc</title>
<ellipse fill="#ffffff" stroke="#000000" cx="387" cy="-259.14" rx="27" ry="18"/>
</g>
<!-- look_at_p_proc -->
<g id="node10" class="node">
<title>look_at_p_proc</title>
<ellipse fill="#ffffff" stroke="#000000" cx="589" cy="-259.14" rx="157.15" ry="91.04"/>
<text text-anchor="middle" x="589" y="-306.22" font-family="Times,serif" font-size="14.00">Yet another guard.</text>
<text text-anchor="middle" x="589" y="-288.97" font-family="Times,serif" font-size="14.00">Somebody must breed them,</text>
<text text-anchor="middle" x="589" y="-271.72" font-family="Times,serif" font-size="14.00">since they all look</text>
<text text-anchor="middle" x="589" y="-254.47" font-family="Times,serif" font-size="14.00">alike.</text>
<text text-anchor="middle" x="589" y="-237.22" font-family="Times,serif" font-size="14.00">&#45;&#45;&#45;</text>
<text text-anchor="middle" x="589" y="-219.97" font-family="Times,serif" font-size="14.00">Still a guard. Probably</text>
<text text-anchor="middle" x="589" y="-202.72" font-family="Times,serif" font-size="14.00">doesn&#39;t like you.</text>
</g>
<!-- description_p_proc -->
<g id="node11" class="node">
<title>description_p_proc</title>
<ellipse fill="#ffffff" stroke="#000000" cx="905" cy="-259.14" rx="141.24" ry="42.25"/>
<text text-anchor="middle" x="905" y="-271.72" font-family="Times,serif" font-size="14.00">You look at him closely</text>
<text text-anchor="middle" x="905" y="-254.47" font-family="Times,serif" font-size="14.00">and you&#39;re convinced he&#39;s</text>
<text text-anchor="middle" x="905" y="-237.22" font-family="Times,serif" font-size="14.00">a guard.</text>
</g>
<!-- use_skill_on_p_proc -->
<g id="node12" class="node">
<title>use_skill_on_p_proc</title>
<ellipse fill="#ffffff" stroke="#000000" cx="1091" cy="-259.14" rx="27" ry="18"/>
</g>
<!-- damage_p_proc -->
<g id="node13" class="node">
<title>damage_p_proc</title>
<ellipse fill="#ffffff" stroke="#000000" cx="1163" cy="-259.14" rx="27" ry="18"/>
</g>
<!-- map_enter_p_proc -->
<g id="node14" class="node">
<title>map_enter_p_proc</title>
<ellipse fill="#ffffff" stroke="#000000" cx="1235" cy="-259.14" rx="27" ry="18"/>
</g>
<!-- use_obj_on_p_proc -->
<g id="node15" class="node">
<title>use_obj_on_p_proc</title>
<ellipse fill="#ffffff" stroke="#000000" cx="315" cy="-259.14" rx="27" ry="18"/>
</g>
<!-- use_obj_on_p_proc&#45;&gt;talk_p_proc -->
<g id="edge5" class="edge">
<title>use_obj_on_p_proc&#45;&gt;talk_p_proc</title>
<path fill="none" stroke="#555555" stroke-dasharray="1,5" d="M310.66,-240.89C304.52,-216.49 293.23,-171.64 285.92,-142.61"/>
<polygon fill="#555555" stroke="#555555" points="289.08,-141.82 283.25,-132.98 282.29,-143.53 289.08,-141.82"/>
</g>
<!-- Node998 -->
<g id="node16" class="node">
<title>Node998</title>
<ellipse fill="#ffffff" stroke="#000000" cx="1307" cy="-259.14" rx="27" ry="18"/>
</g>
<!-- Node999 -->
<g id="node17" class="node">
<title>Node999</title>
<ellipse fill="#ffffff" stroke="#000000" cx="1379" cy="-259.14" rx="27" ry="18"/>
</g>
</g>
</svg>
