<?xml version="1.0" encoding="UTF-8" standalone="no"?>
<!DOCTYPE svg PUBLIC "-//W3C//DTD SVG 1.1//EN"
 "http://www.w3.org/Graphics/SVG/1.1/DTD/svg11.dtd">
<!-- Generated by graphviz version 8.0.5 (0)
 -->
<!-- Title: sccgtgrd Pages: 1 -->
<svg width="1609pt" height="431pt"
 viewBox="0.00 0.00 1609.00 431.37" xmlns="http://www.w3.org/2000/svg" xmlns:xlink="http://www.w3.org/1999/xlink">
<g id="graph0" class="graph" transform="scale(1 1) rotate(0) translate(4 427.37)">
<title>sccgtgrd</title>
<polygon fill="white" stroke="none" points="-4,4 -4,-427.37 1605,-427.37 1605,4 -4,4"/>
<!-- checkPartyMembersNearDoor -->
<g id="node1" class="node">
<title>checkPartyMembersNearDoor</title>
<ellipse fill="#ffffff" stroke="#000000" cx="27" cy="-332.33" rx="27" ry="18"/>
</g>
<!-- old_pickup_p_proc -->
<g id="node2" class="node">
<title>old_pickup_p_proc</title>
<ellipse fill="#ffffff" stroke="#000000" cx="99" cy="-187.29" rx="27" ry="18"/>
</g>
<!-- pickup_p_proc -->
<g id="node3" class="node">
<title>pickup_p_proc</title>
<ellipse fill="#ffffff" stroke="#000000" cx="99" cy="-332.33" rx="27" ry="18"/>
</g>
<!-- pickup_p_proc&#45;&gt;old_pickup_p_proc -->
<g id="edge1" class="edge">
<title>pickup_p_proc&#45;&gt;old_pickup_p_proc</title>
<path fill="none" stroke="#555555" stroke-dasharray="1,5" d="M99,-314.08C99,-289.8 99,-245.31 99,-216.27"/>
<polygon fill="#555555" stroke="#555555" points="102.5,-216.6 99,-206.6 95.5,-216.6 102.5,-216.6"/>
</g>
<!-- start -->
<g id="node4" class="node">
<title>start</title>
<ellipse fill="#ffffff" stroke="#000000" cx="171" cy="-332.33" rx="27" ry="18"/>
</g>
<!-- critter_p_proc -->
<g id="node5" class="node">
<title>critter_p_proc</title>
<ellipse fill="#ffffff" stroke="#000000" cx="243" cy="-332.33" rx="27" ry="18"/>
</g>
<!-- checkGateAttack -->
<g id="node6" class="node">
<title>checkGateAttack</title>
<ellipse fill="#ffffff" stroke="#000000" cx="243" cy="-187.29" rx="27" ry="18"/>
</g>
<!-- critter_p_proc&#45;&gt;checkGateAttack -->
<g id="edge2" class="edge">
<title>critter_p_proc&#45;&gt;checkGateAttack</title>
<path fill="none" stroke="#555555" stroke-dasharray="1,5" d="M243,-314.08C243,-289.8 243,-245.31 243,-216.27"/>
<polygon fill="#555555" stroke="#555555" points="246.5,-216.6 243,-206.6 239.5,-216.6 246.5,-216.6"/>
</g>
<!-- LowerGate -->
<g id="node9" class="node">
<title>LowerGate</title>
<ellipse fill="#ffffff" stroke="#000000" cx="243" cy="-66.64" rx="27" ry="18"/>
</g>
<!-- checkGateAttack&#45;&gt;LowerGate -->
<g id="edge10" class="edge">
<title>checkGateAttack&#45;&gt;LowerGate</title>
<path fill="none" stroke="#555555" stroke-dasharray="1,5" d="M243,-169.04C243,-149.79 243,-118.38 243,-95.62"/>
<polygon fill="#555555" stroke="#555555" points="246.5,-95.92 243,-85.92 239.5,-95.92 246.5,-95.92"/>
</g>
<!-- talk_p_proc -->
<g id="node7" class="node">
<title>talk_p_proc</title>
<ellipse fill="#ffffff" stroke="#000000" cx="510" cy="-187.29" rx="27" ry="18"/>
</g>
<!-- Node003 -->
<g id="node8" class="node">
<title>Node003</title>
<ellipse fill="#ffffff" stroke="#000000" cx="421" cy="-66.64" rx="132.76" ry="66.64"/>
<text text-anchor="middle" x="421" y="-96.47" font-family="Times,serif" font-size="14.00">Okay, you&#39;re clear. Open</text>
<text text-anchor="middle" x="421" y="-79.22" font-family="Times,serif" font-size="14.00">the gate, boys.</text>
<text text-anchor="middle" x="421" y="-61.97" font-family="Times,serif" font-size="14.00">&#45;&#45;&#45;</text>
<text text-anchor="middle" x="421" y="-44.72" font-family="Times,serif" font-size="14.00">This checks out. Stand</text>
<text text-anchor="middle" x="421" y="-27.47" font-family="Times,serif" font-size="14.00">aside, boys.</text>
</g>
<!-- talk_p_proc&#45;&gt;Node003 -->
<g id="edge3" class="edge">
<title>talk_p_proc&#45;&gt;Node003</title>
<path fill="none" stroke="#555555" stroke-dasharray="1,5" d="M498.36,-170.78C491.78,-162 483.03,-150.33 473.78,-138"/>
<polygon fill="#555555" stroke="#555555" points="476.12,-136.29 467.32,-130.39 470.52,-140.49 476.12,-136.29"/>
</g>
<!-- talk_p_proc&#45;&gt;LowerGate -->
<g id="edge4" class="edge">
<title>talk_p_proc&#45;&gt;LowerGate</title>
<path fill="none" stroke="#555555" stroke-dasharray="1,5" d="M482.78,-186.94C434.53,-187.1 334,-181.68 270,-133.29 257.4,-123.76 248.65,-108.49 243.9,-95.07"/>
<polygon fill="#555555" stroke="#555555" points="247.08,-94.49 240.95,-85.85 240.36,-96.43 247.08,-94.49"/>
</g>
<!-- talk_p_proc&#45;&gt;LowerGate -->
<g id="edge6" class="edge">
<title>talk_p_proc&#45;&gt;LowerGate</title>
<path fill="none" stroke="#555555" stroke-dasharray="1,5" d="M482.88,-186.87C437.78,-186.06 347.24,-178.08 288,-133.29 274.73,-123.26 265.74,-106.86 258.93,-92.96"/>
<polygon fill="#555555" stroke="#555555" points="261.82,-91.9 254.33,-84.41 255.52,-94.94 261.82,-91.9"/>
</g>
<!-- Node002 -->
<g id="node10" class="node">
<title>Node002</title>
<ellipse fill="#ffffff" stroke="#000000" cx="599" cy="-66.64" rx="27" ry="18"/>
</g>
<!-- talk_p_proc&#45;&gt;Node002 -->
<g id="edge5" class="edge">
<title>talk_p_proc&#45;&gt;Node002</title>
<path fill="none" stroke="#555555" stroke-dasharray="1,5" d="M526.05,-172.48C537.24,-162.35 552.07,-147.86 563,-133.29 572.08,-121.19 580.34,-106.52 586.66,-94.12"/>
<polygon fill="#555555" stroke="#555555" points="590.2,-95.86 591.48,-85.34 583.92,-92.76 590.2,-95.86"/>
</g>
<!-- Node001 -->
<g id="node11" class="node">
<title>Node001</title>
<ellipse fill="#ffffff" stroke="#000000" cx="777" cy="-66.64" rx="132.76" ry="30.05"/>
<text text-anchor="middle" x="777" y="-70.59" font-family="Times,serif" font-size="14.00">You&#39;re not authorized to</text>
<text text-anchor="middle" x="777" y="-53.34" font-family="Times,serif" font-size="14.00">be here.</text>
</g>
<!-- talk_p_proc&#45;&gt;Node001 -->
<g id="edge7" class="edge">
<title>talk_p_proc&#45;&gt;Node001</title>
<path fill="none" stroke="#555555" stroke-dasharray="1,5" d="M532.68,-176.93C557.79,-166.51 599.44,-149.04 635,-133.29 659.77,-122.32 686.8,-109.93 710.56,-98.89"/>
<polygon fill="#555555" stroke="#555555" points="711.94,-101.65 719.53,-94.26 708.98,-95.3 711.94,-101.65"/>
</g>
<!-- Node004 -->
<g id="node12" class="node">
<title>Node004</title>
<ellipse fill="#ffffff" stroke="#000000" cx="955" cy="-66.64" rx="27" ry="18"/>
</g>
<!-- talk_p_proc&#45;&gt;Node004 -->
<g id="edge8" class="edge">
<title>talk_p_proc&#45;&gt;Node004</title>
<path fill="none" stroke="#555555" stroke-dasharray="1,5" d="M537.4,-185.91C618.66,-184.29 856.54,-175.93 919,-133.29 932.34,-124.18 941.22,-108.44 946.82,-94.65"/>
<polygon fill="#555555" stroke="#555555" points="950.33,-96.23 950.48,-85.64 943.76,-93.83 950.33,-96.23"/>
</g>
<!-- destroy_p_proc -->
<g id="node13" class="node">
<title>destroy_p_proc</title>
<ellipse fill="#ffffff" stroke="#000000" cx="582" cy="-332.33" rx="27" ry="18"/>
</g>
<!-- look_at_p_proc -->
<g id="node14" class="node">
<title>look_at_p_proc</title>
<ellipse fill="#ffffff" stroke="#000000" cx="784" cy="-332.33" rx="157.15" ry="91.04"/>
<text text-anchor="middle" x="784" y="-379.4" font-family="Times,serif" font-size="14.00">Yet another guard.</text>
<text text-anchor="middle" x="784" y="-362.15" font-family="Times,serif" font-size="14.00">Somebody must breed them,</text>
<text text-anchor="middle" x="784" y="-344.9" font-family="Times,serif" font-size="14.00">since they all look</text>
<text text-anchor="middle" x="784" y="-327.65" font-family="Times,serif" font-size="14.00">alike.</text>
<text text-anchor="middle" x="784" y="-310.4" font-family="Times,serif" font-size="14.00">&#45;&#45;&#45;</text>
<text text-anchor="middle" x="784" y="-293.15" font-family="Times,serif" font-size="14.00">Still a guard. Probably</text>
<text text-anchor="middle" x="784" y="-275.9" font-family="Times,serif" font-size="14.00">doesn&#39;t like you.</text>
</g>
<!-- description_p_proc -->
<g id="node15" class="node">
<title>description_p_proc</title>
<ellipse fill="#ffffff" stroke="#000000" cx="1100" cy="-332.33" rx="141.24" ry="42.25"/>
<text text-anchor="middle" x="1100" y="-344.9" font-family="Times,serif" font-size="14.00">You look at him closely</text>
<text text-anchor="middle" x="1100" y="-327.65" font-family="Times,serif" font-size="14.00">and you&#39;re convinced he&#39;s</text>
<text text-anchor="middle" x="1100" y="-310.4" font-family="Times,serif" font-size="14.00">a guard.</text>
</g>
<!-- use_skill_on_p_proc -->
<g id="node16" class="node">
<title>use_skill_on_p_proc</title>
<ellipse fill="#ffffff" stroke="#000000" cx="1286" cy="-332.33" rx="27" ry="18"/>
</g>
<!-- damage_p_proc -->
<g id="node17" class="node">
<title>damage_p_proc</title>
<ellipse fill="#ffffff" stroke="#000000" cx="1358" cy="-332.33" rx="27" ry="18"/>
</g>
<!-- map_enter_p_proc -->
<g id="node18" class="node">
<title>map_enter_p_proc</title>
<ellipse fill="#ffffff" stroke="#000000" cx="1430" cy="-332.33" rx="27" ry="18"/>
</g>
<!-- use_obj_on_p_proc -->
<g id="node19" class="node">
<title>use_obj_on_p_proc</title>
<ellipse fill="#ffffff" stroke="#000000" cx="510" cy="-332.33" rx="27" ry="18"/>
</g>
<!-- use_obj_on_p_proc&#45;&gt;talk_p_proc -->
<g id="edge9" class="edge">
<title>use_obj_on_p_proc&#45;&gt;talk_p_proc</title>
<path fill="none" stroke="#555555" stroke-dasharray="1,5" d="M510,-314.08C510,-289.8 510,-245.31 510,-216.27"/>
<polygon fill="#555555" stroke="#555555" points="513.5,-216.6 510,-206.6 506.5,-216.6 513.5,-216.6"/>
</g>
<!-- Node998 -->
<g id="node20" class="node">
<title>Node998</title>
<ellipse fill="#ffffff" stroke="#000000" cx="1502" cy="-332.33" rx="27" ry="18"/>
</g>
<!-- Node999 -->
<g id="node21" class="node">
<title>Node999</title>
<ellipse fill="#ffffff" stroke="#000000" cx="1574" cy="-332.33" rx="27" ry="18"/>
</g>
</g>
</svg>
