<?xml version="1.0" encoding="UTF-8" standalone="no"?>
<!DOCTYPE svg PUBLIC "-//W3C//DTD SVG 1.1//EN"
 "http://www.w3.org/Graphics/SVG/1.1/DTD/svg11.dtd">
<!-- Generated by graphviz version 8.0.5 (0)
 -->
<!-- Title: scrawpat Pages: 1 -->
<svg width="1832pt" height="286pt"
 viewBox="0.00 0.00 1832.00 286.18" xmlns="http://www.w3.org/2000/svg" xmlns:xlink="http://www.w3.org/1999/xlink">
<g id="graph0" class="graph" transform="scale(1 1) rotate(0) translate(4 282.18)">
<title>scrawpat</title>
<polygon fill="white" stroke="none" points="-4,4 -4,-282.18 1828,-282.18 1828,4 -4,4"/>
<!-- checkPartyMembersNearDoor -->
<g id="node1" class="node">
<title>checkPartyMembersNearDoor</title>
<ellipse fill="#ffffff" stroke="#000000" cx="27" cy="-211.54" rx="27" ry="18"/>
</g>
<!-- start -->
<g id="node2" class="node">
<title>start</title>
<ellipse fill="#ffffff" stroke="#000000" cx="99" cy="-211.54" rx="27" ry="18"/>
</g>
<!-- critter_p_proc -->
<g id="node3" class="node">
<title>critter_p_proc</title>
<ellipse fill="#ffffff" stroke="#000000" cx="171" cy="-211.54" rx="27" ry="18"/>
</g>
<!-- Node004 -->
<g id="node4" class="node">
<title>Node004</title>
<ellipse fill="#ffffff" stroke="#000000" cx="171" cy="-54.45" rx="27" ry="18"/>
</g>
<!-- critter_p_proc&#45;&gt;Node004 -->
<g id="edge1" class="edge">
<title>critter_p_proc&#45;&gt;Node004</title>
<path fill="none" stroke="#555555" stroke-dasharray="1,5" d="M171,-193.05C171,-166.38 171,-115.29 171,-83.43"/>
<polygon fill="#555555" stroke="#555555" points="174.5,-83.64 171,-73.64 167.5,-83.64 174.5,-83.64"/>
</g>
<!-- pickup_p_proc -->
<g id="node5" class="node">
<title>pickup_p_proc</title>
<ellipse fill="#ffffff" stroke="#000000" cx="392" cy="-211.54" rx="27" ry="18"/>
</g>
<!-- talk_p_proc -->
<g id="node6" class="node">
<title>talk_p_proc</title>
<ellipse fill="#ffffff" stroke="#000000" cx="613" cy="-211.54" rx="27" ry="18"/>
</g>
<!-- Node001 -->
<g id="node7" class="node">
<title>Node001</title>
<ellipse fill="#ffffff" stroke="#000000" cx="345" cy="-54.45" rx="128.52" ry="30.05"/>
<text text-anchor="middle" x="345" y="-58.4" font-family="Times,serif" font-size="14.00">Look, I&#39;m just drinking.</text>
<text text-anchor="middle" x="345" y="-41.15" font-family="Times,serif" font-size="14.00">Leave me alone.</text>
</g>
<!-- talk_p_proc&#45;&gt;Node001 -->
<g id="edge2" class="edge">
<title>talk_p_proc&#45;&gt;Node001</title>
<path fill="none" stroke="#555555" stroke-dasharray="1,5" d="M593.29,-199.13C553.36,-176.03 461.61,-122.93 401.52,-88.15"/>
<polygon fill="#555555" stroke="#555555" points="403.57,-84.72 393.16,-82.74 400.06,-90.78 403.57,-84.72"/>
</g>
<!-- Node003 -->
<g id="node8" class="node">
<title>Node003</title>
<ellipse fill="#ffffff" stroke="#000000" cx="613" cy="-54.45" rx="121.62" ry="54.45"/>
<text text-anchor="middle" x="613" y="-75.65" font-family="Times,serif" font-size="14.00">Drinking and talking &#45;</text>
<text text-anchor="middle" x="613" y="-58.4" font-family="Times,serif" font-size="14.00">hell, nothing exciting</text>
<text text-anchor="middle" x="613" y="-41.15" font-family="Times,serif" font-size="14.00">ever happens in this</text>
<text text-anchor="middle" x="613" y="-23.9" font-family="Times,serif" font-size="14.00">town.</text>
</g>
<!-- talk_p_proc&#45;&gt;Node003 -->
<g id="edge3" class="edge">
<title>talk_p_proc&#45;&gt;Node003</title>
<path fill="none" stroke="#555555" stroke-dasharray="1,5" d="M613,-193.05C613,-175.29 613,-146.72 613,-120.19"/>
<polygon fill="#555555" stroke="#555555" points="616.5,-120.38 613,-110.38 609.5,-120.38 616.5,-120.38"/>
</g>
<!-- Node002 -->
<g id="node9" class="node">
<title>Node002</title>
<ellipse fill="#ffffff" stroke="#000000" cx="873" cy="-54.45" rx="120.56" ry="54.45"/>
<text text-anchor="middle" x="873" y="-75.65" font-family="Times,serif" font-size="14.00">Shit! I didn&#39;t mean to</text>
<text text-anchor="middle" x="873" y="-58.4" font-family="Times,serif" font-size="14.00">spill my drink on you.</text>
<text text-anchor="middle" x="873" y="-41.15" font-family="Times,serif" font-size="14.00">Let me clean that up.</text>
<text text-anchor="middle" x="873" y="-23.9" font-family="Times,serif" font-size="14.00">Sorry, sorry.</text>
</g>
<!-- talk_p_proc&#45;&gt;Node002 -->
<g id="edge4" class="edge">
<title>talk_p_proc&#45;&gt;Node002</title>
<path fill="none" stroke="#555555" stroke-dasharray="1,5" d="M618.51,-193.55C624.06,-178.84 633.99,-157.94 649,-144.89 683.07,-115.27 702.03,-125.54 744,-108.89 754.16,-104.87 764.74,-100.6 775.29,-96.3"/>
<polygon fill="#555555" stroke="#555555" points="776.44,-99.2 784.37,-92.18 773.79,-92.72 776.44,-99.2"/>
</g>
<!-- destroy_p_proc -->
<g id="node10" class="node">
<title>destroy_p_proc</title>
<ellipse fill="#ffffff" stroke="#000000" cx="685" cy="-211.54" rx="27" ry="18"/>
</g>
<!-- look_at_p_proc -->
<g id="node11" class="node">
<title>look_at_p_proc</title>
<ellipse fill="#ffffff" stroke="#000000" cx="868" cy="-211.54" rx="138.06" ry="66.64"/>
<text text-anchor="middle" x="868" y="-241.36" font-family="Times,serif" font-size="14.00">Looks like yet another</text>
<text text-anchor="middle" x="868" y="-224.11" font-family="Times,serif" font-size="14.00">barfly.</text>
<text text-anchor="middle" x="868" y="-206.86" font-family="Times,serif" font-size="14.00">&#45;&#45;&#45;</text>
<text text-anchor="middle" x="868" y="-189.61" font-family="Times,serif" font-size="14.00">Same drunk you saw last</text>
<text text-anchor="middle" x="868" y="-172.36" font-family="Times,serif" font-size="14.00">time.</text>
</g>
<!-- description_p_proc -->
<g id="node12" class="node">
<title>description_p_proc</title>
<ellipse fill="#ffffff" stroke="#000000" cx="1172" cy="-211.54" rx="147.61" ry="54.45"/>
<text text-anchor="middle" x="1172" y="-232.74" font-family="Times,serif" font-size="14.00">Doesn&#39;t look like the</text>
<text text-anchor="middle" x="1172" y="-215.49" font-family="Times,serif" font-size="14.00">nicest of people, but</text>
<text text-anchor="middle" x="1172" y="-198.24" font-family="Times,serif" font-size="14.00">with that much booze, who</text>
<text text-anchor="middle" x="1172" y="-180.99" font-family="Times,serif" font-size="14.00">does?</text>
</g>
<!-- use_skill_on_p_proc -->
<g id="node13" class="node">
<title>use_skill_on_p_proc</title>
<ellipse fill="#ffffff" stroke="#000000" cx="1365" cy="-211.54" rx="27" ry="18"/>
</g>
<!-- damage_p_proc -->
<g id="node14" class="node">
<title>damage_p_proc</title>
<ellipse fill="#ffffff" stroke="#000000" cx="1437" cy="-211.54" rx="27" ry="18"/>
</g>
<!-- map_enter_p_proc -->
<g id="node15" class="node">
<title>map_enter_p_proc</title>
<ellipse fill="#ffffff" stroke="#000000" cx="1509" cy="-211.54" rx="27" ry="18"/>
</g>
<!-- Node998 -->
<g id="node16" class="node">
<title>Node998</title>
<ellipse fill="#ffffff" stroke="#000000" cx="1581" cy="-211.54" rx="27" ry="18"/>
</g>
<!-- Node999 -->
<g id="node17" class="node">
<title>Node999</title>
<ellipse fill="#ffffff" stroke="#000000" cx="1653" cy="-211.54" rx="27" ry="18"/>
</g>
<!-- random_move_time -->
<g id="node18" class="node">
<title>random_move_time</title>
<ellipse fill="#ffffff" stroke="#000000" cx="1725" cy="-211.54" rx="27" ry="18"/>
</g>
<!-- timed_event_p_proc -->
<g id="node19" class="node">
<title>timed_event_p_proc</title>
<ellipse fill="#ffffff" stroke="#000000" cx="1797" cy="-211.54" rx="27" ry="18"/>
</g>
</g>
</svg>
