<?xml version="1.0" encoding="UTF-8" standalone="no"?>
<!DOCTYPE svg PUBLIC "-//W3C//DTD SVG 1.1//EN"
 "http://www.w3.org/Graphics/SVG/1.1/DTD/svg11.dtd">
<!-- Generated by graphviz version 8.0.5 (0)
 -->
<!-- Title: VCChet Pages: 1 -->
<svg width="1804pt" height="476pt"
 viewBox="0.00 0.00 1804.00 475.79" xmlns="http://www.w3.org/2000/svg" xmlns:xlink="http://www.w3.org/1999/xlink">
<g id="graph0" class="graph" transform="scale(1 1) rotate(0) translate(4 471.79)">
<title>VCChet</title>
<polygon fill="white" stroke="none" points="-4,4 -4,-471.79 1800,-471.79 1800,4 -4,4"/>
<!-- checkPartyMembersNearDoor -->
<g id="node1" class="node">
<title>checkPartyMembersNearDoor</title>
<ellipse fill="#ffffff" stroke="#000000" cx="563" cy="-425.54" rx="27" ry="18"/>
</g>
<!-- start -->
<g id="node2" class="node">
<title>start</title>
<ellipse fill="#ffffff" stroke="#000000" cx="635" cy="-425.54" rx="27" ry="18"/>
</g>
<!-- critter_p_proc -->
<g id="node3" class="node">
<title>critter_p_proc</title>
<ellipse fill="#ffffff" stroke="#000000" cx="707" cy="-425.54" rx="27" ry="18"/>
</g>
<!-- pickup_p_proc -->
<g id="node4" class="node">
<title>pickup_p_proc</title>
<ellipse fill="#ffffff" stroke="#000000" cx="779" cy="-425.54" rx="27" ry="18"/>
</g>
<!-- talk_p_proc -->
<g id="node5" class="node">
<title>talk_p_proc</title>
<ellipse fill="#ffffff" stroke="#000000" cx="851" cy="-425.54" rx="27" ry="18"/>
</g>
<!-- Node001 -->
<g id="node6" class="node">
<title>Node001</title>
<ellipse fill="#ffffff" stroke="#000000" cx="851" cy="-279.64" rx="130.11" ry="66.64"/>
<text text-anchor="middle" x="851" y="-309.47" font-family="Times,serif" font-size="14.00">Hey, there. I&#39;m the</text>
<text text-anchor="middle" x="851" y="-292.22" font-family="Times,serif" font-size="14.00">Illicit Allocations</text>
<text text-anchor="middle" x="851" y="-274.97" font-family="Times,serif" font-size="14.00">Chief... but you can call</text>
<text text-anchor="middle" x="851" y="-257.72" font-family="Times,serif" font-size="14.00">me Chet. You need</text>
<text text-anchor="middle" x="851" y="-240.47" font-family="Times,serif" font-size="14.00">something?</text>
</g>
<!-- talk_p_proc&#45;&gt;Node001 -->
<g id="edge1" class="edge">
<title>talk_p_proc&#45;&gt;Node001</title>
<path fill="none" stroke="#555555" stroke-dasharray="1,5" d="M851,-407.18C851,-394.5 851,-376.32 851,-357.69"/>
<polygon fill="#555555" stroke="#555555" points="854.5,-357.7 851,-347.7 847.5,-357.7 854.5,-357.7"/>
</g>
<!-- Node999 -->
<g id="node14" class="node">
<title>Node999</title>
<ellipse fill="#ffffff" stroke="#000000" cx="1313" cy="-18" rx="27" ry="18"/>
</g>
<!-- Node001&#45;&gt;Node999 -->
<g id="edge9" class="edge">
<title>Node001&#45;&gt;Node999</title>
<path fill="none" stroke="#99008a" d="M980.36,-270.99C1095.63,-261.3 1252.37,-240.06 1294,-195 1331.2,-154.73 1325.78,-85.12 1319.08,-46.62"/>
<polygon fill="#99008a" stroke="#99008a" points="1322.4,-46.35 1317.09,-37.18 1315.52,-47.66 1322.4,-46.35"/>
<text text-anchor="middle" x="1375.88" y="-119.83" font-family="Times,serif" font-size="14.00" fill="#99008a">Nope, nothing.</text>
</g>
<!-- Node001a -->
<g id="node15" class="node">
<title>Node001a</title>
<ellipse fill="#ffffff" stroke="#000000" cx="381" cy="-124.5" rx="27" ry="18"/>
</g>
<!-- Node001&#45;&gt;Node001a -->
<g id="edge2" class="edge">
<title>Node001&#45;&gt;Node001a</title>
<path fill="none" stroke="#008399" d="M722.08,-269.52C606.35,-258.74 447.77,-236.74 401.5,-195 389.93,-184.56 384.76,-167.95 382.5,-153.59"/>
<polygon fill="#008399" stroke="#008399" points="385.87,-153.24 381.25,-143.71 378.91,-154.04 385.87,-153.24"/>
<text text-anchor="middle" x="480.75" y="-181.7" font-family="Times,serif" font-size="14.00" fill="#008399">Set the endgame flag,</text>
<text text-anchor="middle" x="480.75" y="-164.45" font-family="Times,serif" font-size="14.00" fill="#008399">Chet. I&#39;m all done.</text>
</g>
<!-- Node001b -->
<g id="node16" class="node">
<title>Node001b</title>
<ellipse fill="#ffffff" stroke="#000000" cx="562" cy="-124.5" rx="27" ry="18"/>
</g>
<!-- Node001&#45;&gt;Node001b -->
<g id="edge3" class="edge">
<title>Node001&#45;&gt;Node001b</title>
<path fill="none" stroke="#998200" d="M722.83,-267.65C670.85,-256.76 614.37,-235.64 577,-195 566.78,-183.89 562.9,-167.53 561.64,-153.48"/>
<polygon fill="#998200" stroke="#998200" points="565.1,-153.66 561.11,-143.84 558.11,-154 565.1,-153.66"/>
<text text-anchor="middle" x="662.5" y="-181.7" font-family="Times,serif" font-size="14.00" fill="#998200">Make me Captain of the</text>
<text text-anchor="middle" x="662.5" y="-164.45" font-family="Times,serif" font-size="14.00" fill="#998200">Guard. Now.</text>
</g>
<!-- Node001c -->
<g id="node17" class="node">
<title>Node001c</title>
<ellipse fill="#ffffff" stroke="#000000" cx="756" cy="-124.5" rx="27" ry="18"/>
</g>
<!-- Node001&#45;&gt;Node001c -->
<g id="edge4" class="edge">
<title>Node001&#45;&gt;Node001c</title>
<path fill="none" stroke="#550099" d="M777.41,-224.55C769.42,-215.58 762.42,-205.68 757.5,-195 751.61,-182.2 750.78,-166.61 751.62,-153.44"/>
<polygon fill="#550099" stroke="#550099" points="755.19,-153.93 752.71,-143.63 748.23,-153.23 755.19,-153.93"/>
<text text-anchor="middle" x="841.25" y="-181.7" font-family="Times,serif" font-size="14.00" fill="#550099">Make me a real citizen,</text>
<text text-anchor="middle" x="841.25" y="-164.45" font-family="Times,serif" font-size="14.00" fill="#550099">if you please.</text>
</g>
<!-- Node001d -->
<g id="node18" class="node">
<title>Node001d</title>
<ellipse fill="#ffffff" stroke="#000000" cx="946" cy="-124.5" rx="27" ry="18"/>
</g>
<!-- Node001&#45;&gt;Node001d -->
<g id="edge5" class="edge">
<title>Node001&#45;&gt;Node001d</title>
<path fill="none" stroke="#009929" d="M907.56,-219.65C913.62,-211.71 919.28,-203.4 924,-195 931.32,-181.98 936.56,-166.21 940.09,-152.98"/>
<polygon fill="#009929" stroke="#009929" points="943.66,-154.12 942.66,-143.58 936.86,-152.45 943.66,-154.12"/>
<text text-anchor="middle" x="1024.25" y="-181.7" font-family="Times,serif" font-size="14.00" fill="#009929">Make me a fake citizen</text>
<text text-anchor="middle" x="1024.25" y="-164.45" font-family="Times,serif" font-size="14.00" fill="#009929">and give me the papers.</text>
</g>
<!-- Node001e -->
<g id="node19" class="node">
<title>Node001e</title>
<ellipse fill="#ffffff" stroke="#000000" cx="1142" cy="-124.5" rx="27" ry="18"/>
</g>
<!-- Node001&#45;&gt;Node001e -->
<g id="edge6" class="edge">
<title>Node001&#45;&gt;Node001e</title>
<path fill="none" stroke="#990004" d="M977.07,-262.4C1025.21,-250.59 1077.48,-230.2 1115,-195 1126.74,-183.99 1133.44,-167.28 1137.23,-153.01"/>
<polygon fill="#990004" stroke="#990004" points="1140.77,-154.23 1139.6,-143.7 1133.95,-152.67 1140.77,-154.23"/>
<text text-anchor="middle" x="1212" y="-181.7" font-family="Times,serif" font-size="14.00" fill="#990004">Make me a kicked out</text>
<text text-anchor="middle" x="1212" y="-164.45" font-family="Times,serif" font-size="14.00" fill="#990004">citizen.</text>
</g>
<!-- Node002 -->
<g id="node20" class="node">
<title>Node002</title>
<ellipse fill="#ffffff" stroke="#000000" cx="207" cy="-124.5" rx="56.47" ry="18"/>
<text text-anchor="middle" x="207" y="-119.83" font-family="Times,serif" font-size="14.00">To what?</text>
</g>
<!-- Node001&#45;&gt;Node002 -->
<g id="edge7" class="edge">
<title>Node001&#45;&gt;Node002</title>
<path fill="none" stroke="#003199" d="M720.91,-274.93C499.03,-267.25 66.75,-245.87 20.75,-195 -17.87,-152.3 72.94,-135.73 140.89,-129.38"/>
<polygon fill="#003199" stroke="#003199" points="140.92,-132.8 150.57,-128.44 140.31,-125.83 140.92,-132.8"/>
<text text-anchor="middle" x="103.12" y="-173.07" font-family="Times,serif" font-size="14.00" fill="#003199">Change my reputation.</text>
</g>
<!-- Node003 -->
<g id="node21" class="node">
<title>Node003</title>
<ellipse fill="#ffffff" stroke="#000000" cx="1535" cy="-124.5" rx="38.58" ry="18"/>
<text text-anchor="middle" x="1535" y="-119.83" font-family="Times,serif" font-size="14.00">Who?</text>
</g>
<!-- Node001&#45;&gt;Node003 -->
<g id="edge8" class="edge">
<title>Node001&#45;&gt;Node003</title>
<path fill="none" stroke="#5d9900" d="M979.32,-267.28C1099.41,-254.65 1268.42,-231.13 1324,-195 1339.5,-184.92 1331.79,-170.65 1347.25,-160.5 1358.89,-152.85 1436.15,-140.16 1487.87,-132.35"/>
<polygon fill="#5d9900" stroke="#5d9900" points="1488.11,-135.7 1497.48,-130.76 1487.07,-128.78 1488.11,-135.7"/>
<text text-anchor="middle" x="1429.88" y="-181.7" font-family="Times,serif" font-size="14.00" fill="#5d9900">(Doesn&#39;t work) I need a</text>
<text text-anchor="middle" x="1429.88" y="-164.45" font-family="Times,serif" font-size="14.00" fill="#5d9900">character in my party.</text>
</g>
<!-- destroy_p_proc -->
<g id="node7" class="node">
<title>destroy_p_proc</title>
<ellipse fill="#ffffff" stroke="#000000" cx="923" cy="-425.54" rx="27" ry="18"/>
</g>
<!-- look_at_p_proc -->
<g id="node8" class="node">
<title>look_at_p_proc</title>
<ellipse fill="#ffffff" stroke="#000000" cx="1098" cy="-425.54" rx="129.58" ry="30.05"/>
<text text-anchor="middle" x="1098" y="-429.49" font-family="Times,serif" font-size="14.00">You see the Illicit</text>
<text text-anchor="middle" x="1098" y="-412.24" font-family="Times,serif" font-size="14.00">Allocations Chief, Chet.</text>
</g>
<!-- description_p_proc -->
<g id="node9" class="node">
<title>description_p_proc</title>
<ellipse fill="#ffffff" stroke="#000000" cx="1377" cy="-425.54" rx="131.17" ry="42.25"/>
<text text-anchor="middle" x="1377" y="-438.11" font-family="Times,serif" font-size="14.00">You see a shifty&#45;looking</text>
<text text-anchor="middle" x="1377" y="-420.86" font-family="Times,serif" font-size="14.00">man wearing a Vault 13</text>
<text text-anchor="middle" x="1377" y="-403.61" font-family="Times,serif" font-size="14.00">jumpsuit.</text>
</g>
<!-- use_skill_on_p_proc -->
<g id="node10" class="node">
<title>use_skill_on_p_proc</title>
<ellipse fill="#ffffff" stroke="#000000" cx="1553" cy="-425.54" rx="27" ry="18"/>
</g>
<!-- damage_p_proc -->
<g id="node11" class="node">
<title>damage_p_proc</title>
<ellipse fill="#ffffff" stroke="#000000" cx="1625" cy="-425.54" rx="27" ry="18"/>
</g>
<!-- map_enter_p_proc -->
<g id="node12" class="node">
<title>map_enter_p_proc</title>
<ellipse fill="#ffffff" stroke="#000000" cx="1697" cy="-425.54" rx="27" ry="18"/>
</g>
<!-- Node998 -->
<g id="node13" class="node">
<title>Node998</title>
<ellipse fill="#ffffff" stroke="#000000" cx="1769" cy="-425.54" rx="27" ry="18"/>
</g>
<!-- Node002&#45;&gt;Node001 -->
<g id="edge13" class="edge">
<title>Node002&#45;&gt;Node001</title>
<path fill="none" stroke="#0a9900" d="M207.57,-142.91C209.09,-158.98 214,-182.23 229.25,-195 299.95,-254.23 549.22,-271.7 709.85,-276.74"/>
<polygon fill="#0a9900" stroke="#0a9900" points="709.68,-280.27 719.78,-277.07 709.89,-273.27 709.68,-280.27"/>
<text text-anchor="middle" x="305.38" y="-181.7" font-family="Times,serif" font-size="14.00" fill="#0a9900">Nevermind. I wanted</text>
<text text-anchor="middle" x="305.38" y="-164.45" font-family="Times,serif" font-size="14.00" fill="#0a9900">something else...</text>
</g>
<!-- Node002&#45;&gt;Node999 -->
<g id="edge14" class="edge">
<title>Node002&#45;&gt;Node999</title>
<path fill="none" stroke="#990037" d="M258.4,-116.77C284.34,-113.47 316.32,-109.56 345,-106.5 530.99,-86.64 1120.83,-35.55 1275.55,-22.22"/>
<polygon fill="#990037" stroke="#990037" points="1275.67,-25.64 1285.33,-21.29 1275.07,-18.66 1275.67,-25.64"/>
<text text-anchor="middle" x="962.88" y="-66.58" font-family="Times,serif" font-size="14.00" fill="#990037">Nope, nothing.</text>
</g>
<!-- Node002a -->
<g id="node22" class="node">
<title>Node002a</title>
<ellipse fill="#ffffff" stroke="#000000" cx="399" cy="-18" rx="27" ry="18"/>
</g>
<!-- Node002&#45;&gt;Node002a -->
<g id="edge10" class="edge">
<title>Node002&#45;&gt;Node002a</title>
<path fill="none" stroke="#00997b" d="M260.38,-118.41C303.62,-113.24 360.05,-103.78 377,-88.5 388.57,-78.07 394.1,-61.6 396.72,-47.31"/>
<polygon fill="#00997b" stroke="#00997b" points="400.32,-47.87 398.26,-37.48 393.39,-46.89 400.32,-47.87"/>
<text text-anchor="middle" x="460.5" y="-66.58" font-family="Times,serif" font-size="14.00" fill="#00997b">Make me a slaver.</text>
</g>
<!-- Node002b -->
<g id="node23" class="node">
<title>Node002b</title>
<ellipse fill="#ffffff" stroke="#000000" cx="27" cy="-18" rx="27" ry="18"/>
</g>
<!-- Node002&#45;&gt;Node002b -->
<g id="edge11" class="edge">
<title>Node002&#45;&gt;Node002b</title>
<path fill="none" stroke="#994f00" d="M153.92,-117.88C113.28,-112.51 61.66,-103.07 46.25,-88.5 35.05,-77.91 30.17,-61.44 28.12,-47.18"/>
<polygon fill="#994f00" stroke="#994f00" points="31.52,-46.98 27.02,-37.39 24.56,-47.69 31.52,-46.98"/>
<text text-anchor="middle" x="125.38" y="-66.58" font-family="Times,serif" font-size="14.00" fill="#994f00">Make me a childkiller.</text>
</g>
<!-- Node002c -->
<g id="node24" class="node">
<title>Node002c</title>
<ellipse fill="#ffffff" stroke="#000000" cx="207" cy="-18" rx="27" ry="18"/>
</g>
<!-- Node002&#45;&gt;Node002c -->
<g id="edge12" class="edge">
<title>Node002&#45;&gt;Node002c</title>
<path fill="none" stroke="#220099" d="M207,-106.24C207,-90.21 207,-66.04 207,-47.2"/>
<polygon fill="#220099" stroke="#220099" points="210.5,-47.28 207,-37.28 203.5,-47.28 210.5,-47.28"/>
<text text-anchor="middle" x="291.38" y="-75.2" font-family="Times,serif" font-size="14.00" fill="#220099">Nothing...just lower my</text>
<text text-anchor="middle" x="291.38" y="-57.95" font-family="Times,serif" font-size="14.00" fill="#220099">karma by a 100.</text>
</g>
<!-- Node003&#45;&gt;Node001 -->
<g id="edge19" class="edge">
<title>Node003&#45;&gt;Node001</title>
<path fill="none" stroke="#991c00" d="M1534.52,-142.93C1533.08,-159.02 1528.26,-182.28 1513,-195 1436.29,-258.95 1162.59,-274.7 992.07,-278.17"/>
<polygon fill="#991c00" stroke="#991c00" points="992.17,-274.69 982.24,-278.38 992.3,-281.68 992.17,-274.69"/>
<text text-anchor="middle" x="1604.12" y="-181.7" font-family="Times,serif" font-size="14.00" fill="#991c00">Nobody. I have more</text>
<text text-anchor="middle" x="1604.12" y="-164.45" font-family="Times,serif" font-size="14.00" fill="#991c00">needs.</text>
</g>
<!-- Node003&#45;&gt;Node999 -->
<g id="edge20" class="edge">
<title>Node003&#45;&gt;Node999</title>
<path fill="none" stroke="#001199" d="M1498.5,-117.96C1449.6,-110.3 1367.59,-96.51 1356,-88.5 1340.92,-78.08 1330.11,-60.47 1323.1,-45.59"/>
<polygon fill="#001199" stroke="#001199" points="1326.06,-44.61 1318.85,-36.85 1319.64,-47.41 1326.06,-44.61"/>
<text text-anchor="middle" x="1416" y="-66.58" font-family="Times,serif" font-size="14.00" fill="#001199">Nevermind. Bye.</text>
</g>
<!-- Node003a -->
<g id="node25" class="node">
<title>Node003a</title>
<ellipse fill="#ffffff" stroke="#000000" cx="1489" cy="-18" rx="27" ry="18"/>
</g>
<!-- Node003&#45;&gt;Node003a -->
<g id="edge15" class="edge">
<title>Node003&#45;&gt;Node003a</title>
<path fill="none" stroke="#006499" d="M1508.57,-111.01C1499.83,-105.43 1491.1,-97.96 1486.25,-88.5 1479.7,-75.74 1479.82,-59.87 1481.83,-46.51"/>
<polygon fill="#006499" stroke="#006499" points="1485.4,-47.49 1483.86,-37.01 1478.53,-46.16 1485.4,-47.49"/>
<text text-anchor="middle" x="1514.88" y="-66.58" font-family="Times,serif" font-size="14.00" fill="#006499">Marcus.</text>
</g>
<!-- Node003b -->
<g id="node26" class="node">
<title>Node003b</title>
<ellipse fill="#ffffff" stroke="#000000" cx="1568" cy="-18" rx="27" ry="18"/>
</g>
<!-- Node003&#45;&gt;Node003b -->
<g id="edge16" class="edge">
<title>Node003&#45;&gt;Node003b</title>
<path fill="none" stroke="#909900" d="M1541.61,-106.5C1543.74,-100.81 1546.05,-94.41 1548,-88.5 1552.52,-74.76 1557.03,-59.3 1560.61,-46.46"/>
<polygon fill="#909900" stroke="#909900" points="1564.22,-47.53 1563.5,-36.96 1557.47,-45.67 1564.22,-47.53"/>
<text text-anchor="middle" x="1580.88" y="-66.58" font-family="Times,serif" font-size="14.00" fill="#909900">Lenny.</text>
</g>
<!-- Node003c -->
<g id="node27" class="node">
<title>Node003c</title>
<ellipse fill="#ffffff" stroke="#000000" cx="1640" cy="-18" rx="27" ry="18"/>
</g>
<!-- Node003&#45;&gt;Node003c -->
<g id="edge17" class="edge">
<title>Node003&#45;&gt;Node003c</title>
<path fill="none" stroke="#750099" d="M1566.72,-113.83C1580.78,-108.25 1596.66,-100.02 1608,-88.5 1619.51,-76.81 1627.36,-60.22 1632.41,-46.18"/>
<polygon fill="#750099" stroke="#750099" points="1635.94,-47.66 1635.73,-37.07 1629.29,-45.47 1635.94,-47.66"/>
<text text-anchor="middle" x="1641.12" y="-66.58" font-family="Times,serif" font-size="14.00" fill="#750099">Vic.</text>
</g>
<!-- Node003d -->
<g id="node28" class="node">
<title>Node003d</title>
<ellipse fill="#ffffff" stroke="#000000" cx="1712" cy="-18" rx="27" ry="18"/>
</g>
<!-- Node003&#45;&gt;Node003d -->
<g id="edge18" class="edge">
<title>Node003&#45;&gt;Node003d</title>
<path fill="none" stroke="#009948" d="M1572.29,-119.12C1598.11,-114.66 1632.33,-105.83 1658,-88.5 1674.52,-77.35 1688.22,-59.52 1697.69,-44.71"/>
<polygon fill="#009948" stroke="#009948" points="1701.08,-46.88 1703.29,-36.52 1695.1,-43.24 1701.08,-46.88"/>
<text text-anchor="middle" x="1716.5" y="-66.58" font-family="Times,serif" font-size="14.00" fill="#009948">Myron.</text>
</g>
</g>
</svg>
