<?xml version="1.0" encoding="UTF-8" standalone="no"?>
<!DOCTYPE svg PUBLIC "-//W3C//DTD SVG 1.1//EN"
 "http://www.w3.org/Graphics/SVG/1.1/DTD/svg11.dtd">
<!-- Generated by graphviz version 8.0.5 (0)
 -->
<!-- Title: dcAnna Pages: 1 -->
<svg width="2139pt" height="941pt"
 viewBox="0.00 0.00 2138.72 940.79" xmlns="http://www.w3.org/2000/svg" xmlns:xlink="http://www.w3.org/1999/xlink">
<g id="graph0" class="graph" transform="scale(1 1) rotate(0) translate(4 936.79)">
<title>dcAnna</title>
<polygon fill="white" stroke="none" points="-4,4 -4,-936.79 2134.72,-936.79 2134.72,4 -4,4"/>
<!-- checkPartyMembersNearDoor -->
<g id="node1" class="node">
<title>checkPartyMembersNearDoor</title>
<ellipse fill="#ffffff" stroke="#000000" cx="722.27" cy="-914.79" rx="27" ry="18"/>
</g>
<!-- start -->
<g id="node2" class="node">
<title>start</title>
<ellipse fill="#ffffff" stroke="#000000" cx="794.27" cy="-914.79" rx="27" ry="18"/>
</g>
<!-- critter_p_proc -->
<g id="node3" class="node">
<title>critter_p_proc</title>
<ellipse fill="#ffffff" stroke="#000000" cx="866.27" cy="-914.79" rx="27" ry="18"/>
</g>
<!-- pickup_p_proc -->
<g id="node4" class="node">
<title>pickup_p_proc</title>
<ellipse fill="#ffffff" stroke="#000000" cx="938.27" cy="-914.79" rx="27" ry="18"/>
</g>
<!-- talk_p_proc -->
<g id="node5" class="node">
<title>talk_p_proc</title>
<ellipse fill="#ffffff" stroke="#000000" cx="1010.27" cy="-914.79" rx="27" ry="18"/>
</g>
<!-- Node008 -->
<g id="node6" class="node">
<title>Node008</title>
<ellipse fill="#ffffff" stroke="#000000" cx="1176.27" cy="-829.73" rx="27" ry="18"/>
</g>
<!-- talk_p_proc&#45;&gt;Node008 -->
<g id="edge1" class="edge">
<title>talk_p_proc&#45;&gt;Node008</title>
<path fill="none" stroke="#555555" stroke-dasharray="1,5" d="M1034.24,-906.14C1061.09,-897.07 1105.39,-880.52 1140.27,-859.79 1144.31,-857.39 1148.38,-854.57 1152.26,-851.64"/>
<polygon fill="#555555" stroke="#555555" points="1154.22,-853.76 1159.86,-844.78 1149.86,-848.28 1154.22,-853.76"/>
</g>
<!-- Node006 -->
<g id="node7" class="node">
<title>Node006</title>
<ellipse fill="#ffffff" stroke="#000000" cx="340.27" cy="-389.13" rx="114.73" ry="30.05"/>
<text text-anchor="middle" x="340.27" y="-393.08" font-family="Times,serif" font-size="14.00">My locket! Give it to</text>
<text text-anchor="middle" x="340.27" y="-375.83" font-family="Times,serif" font-size="14.00">me!!! Oh!!!!</text>
</g>
<!-- talk_p_proc&#45;&gt;Node006 -->
<g id="edge2" class="edge">
<title>talk_p_proc&#45;&gt;Node006</title>
<path fill="none" stroke="#555555" stroke-dasharray="1,5" d="M989.78,-902.71C984.82,-900.42 979.45,-898.27 974.27,-896.79 912.85,-879.25 403.27,-894.6 403.27,-830.73 403.27,-830.73 403.27,-830.73 403.27,-548.18 403.27,-504.82 382.55,-459.21 364.87,-428.19"/>
<polygon fill="#555555" stroke="#555555" points="367.59,-426.91 359.51,-420.06 361.55,-430.45 367.59,-426.91"/>
</g>
<!-- Node001 -->
<g id="node8" class="node">
<title>Node001</title>
<ellipse fill="#ffffff" stroke="#000000" cx="1010.27" cy="-829.73" rx="121.09" ry="30.05"/>
<text text-anchor="middle" x="1010.27" y="-833.68" font-family="Times,serif" font-size="14.00">Oh, the pain! It burns</text>
<text text-anchor="middle" x="1010.27" y="-816.43" font-family="Times,serif" font-size="14.00">so!</text>
</g>
<!-- talk_p_proc&#45;&gt;Node001 -->
<g id="edge3" class="edge">
<title>talk_p_proc&#45;&gt;Node001</title>
<path fill="none" stroke="#555555" stroke-dasharray="1,5" d="M1010.27,-896.58C1010.27,-889.08 1010.27,-879.95 1010.27,-870.9"/>
<polygon fill="#555555" stroke="#555555" points="1013.77,-871.02 1010.27,-861.02 1006.77,-871.02 1013.77,-871.02"/>
</g>
<!-- Node999 -->
<g id="node20" class="node">
<title>Node999</title>
<ellipse fill="#ffffff" stroke="#000000" cx="465.27" cy="-18" rx="27" ry="18"/>
</g>
<!-- Node006&#45;&gt;Node999 -->
<g id="edge19" class="edge">
<title>Node006&#45;&gt;Node999</title>
<path fill="none" stroke="#230099" d="M424.82,-368.54C462.46,-359 499.63,-348.11 505.27,-341.08 545.25,-291.25 551.01,-110 520.27,-54 515.31,-44.97 506.92,-37.93 498.16,-32.61"/>
<polygon fill="#230099" stroke="#230099" points="500.13,-29.16 489.67,-27.51 496.82,-35.33 500.13,-29.16"/>
<text text-anchor="middle" x="613.77" y="-210.11" font-family="Times,serif" font-size="14.00" fill="#230099">No way! Go to hell. I</text>
<text text-anchor="middle" x="613.77" y="-192.86" font-family="Times,serif" font-size="14.00" fill="#230099">found this fair and</text>
<text text-anchor="middle" x="613.77" y="-175.61" font-family="Times,serif" font-size="14.00" fill="#230099">square.</text>
</g>
<!-- Node006&#45;&gt;Node999 -->
<g id="edge23" class="edge">
<title>Node006&#45;&gt;Node999</title>
<path fill="none" stroke="#8f9900" d="M231.74,-379.1C165.41,-371.84 88.12,-359.72 60.27,-341.08 -27.22,-282.53 -1.46,-207.7 27.52,-106.5 35.09,-80.06 36.82,-68.37 60.27,-54 91.13,-35.09 332.64,-24.01 427.34,-20.36"/>
<polygon fill="#8f9900" stroke="#8f9900" points="427.28,-23.82 437.14,-19.95 427.02,-16.83 427.28,-23.82"/>
<text text-anchor="middle" x="40.64" y="-192.86" font-family="Times,serif" font-size="14.00" fill="#8f9900">No.</text>
</g>
<!-- Node006&#45;&gt;Node999 -->
<g id="edge24" class="edge">
<title>Node006&#45;&gt;Node999</title>
<path fill="none" stroke="#760099" d="M232.1,-378.83C175.22,-367.41 111.55,-342.5 83.27,-288.58 45.67,-216.92 54.37,-182.09 83.27,-106.5 94.45,-77.25 102.38,-68.25 130.27,-54 181.39,-27.88 351.15,-21.24 427.5,-19.56"/>
<polygon fill="#760099" stroke="#760099" points="427.13,-23.05 437.06,-19.35 426.99,-16.05 427.13,-23.05"/>
<text text-anchor="middle" x="146.27" y="-192.86" font-family="Times,serif" font-size="14.00" fill="#760099">GHOST BUSTER!</text>
</g>
<!-- Node007 -->
<g id="node22" class="node">
<title>Node007</title>
<ellipse fill="#ffffff" stroke="#000000" cx="358.27" cy="-197.54" rx="139.65" ry="91.04"/>
<text text-anchor="middle" x="358.27" y="-244.61" font-family="Times,serif" font-size="14.00">My locket, my locket! I’m</text>
<text text-anchor="middle" x="358.27" y="-227.36" font-family="Times,serif" font-size="14.00">coming, Daddy! I’m</text>
<text text-anchor="middle" x="358.27" y="-210.11" font-family="Times,serif" font-size="14.00">coming!</text>
<text text-anchor="middle" x="358.27" y="-192.86" font-family="Times,serif" font-size="14.00">&#45;&#45;&#45;</text>
<text text-anchor="middle" x="358.27" y="-175.61" font-family="Times,serif" font-size="14.00">You see a ghost!</text>
<text text-anchor="middle" x="358.27" y="-158.36" font-family="Times,serif" font-size="14.00">&#45;&#45;&#45;</text>
<text text-anchor="middle" x="358.27" y="-141.11" font-family="Times,serif" font-size="14.00">You see Anna the ghost.</text>
</g>
<!-- Node006&#45;&gt;Node007 -->
<g id="edge20" class="edge">
<title>Node006&#45;&gt;Node007</title>
<path fill="none" stroke="#099900" d="M364.38,-359.49C368.03,-353.72 371.25,-347.45 373.27,-341.08 377.51,-327.65 379.14,-313.2 379.11,-298.83"/>
<polygon fill="#099900" stroke="#099900" points="382.58,-298.76 378.78,-288.87 375.58,-298.98 382.58,-298.76"/>
<text text-anchor="middle" x="440.39" y="-319.15" font-family="Times,serif" font-size="14.00" fill="#099900">OK. Here you go.</text>
</g>
<!-- Node006&#45;&gt;Node007 -->
<g id="edge21" class="edge">
<title>Node006&#45;&gt;Node007</title>
<path fill="none" stroke="#990036" d="M239.01,-374.67C189.87,-363.35 145.81,-342.91 168.27,-306.58 177.67,-291.36 188.54,-297.1 204.27,-288.58 218.01,-281.14 232.31,-273.13 246.42,-265.08"/>
<polygon fill="#990036" stroke="#990036" points="247.73,-267.79 254.66,-259.78 244.25,-261.72 247.73,-267.79"/>
<text text-anchor="middle" x="246.27" y="-327.78" font-family="Times,serif" font-size="14.00" fill="#990036">Here. May you rest in</text>
<text text-anchor="middle" x="246.27" y="-310.53" font-family="Times,serif" font-size="14.00" fill="#990036">peace.</text>
</g>
<!-- Node006&#45;&gt;Node007 -->
<g id="edge22" class="edge">
<title>Node006&#45;&gt;Node007</title>
<path fill="none" stroke="#006399" d="M340.5,-358.64C340.82,-343.13 341.52,-323.8 343.02,-306.58 343.22,-304.2 343.45,-301.8 343.69,-299.38"/>
<polygon fill="#006399" stroke="#006399" points="347.25,-299.97 344.82,-289.65 340.29,-299.23 347.25,-299.97"/>
<text text-anchor="middle" x="356.39" y="-319.15" font-family="Times,serif" font-size="14.00" fill="#006399">OK.</text>
</g>
<!-- Node003 -->
<g id="node17" class="node">
<title>Node003</title>
<ellipse fill="#ffffff" stroke="#000000" cx="657.27" cy="-549.18" rx="115.79" ry="42.25"/>
<text text-anchor="middle" x="657.27" y="-561.76" font-family="Times,serif" font-size="14.00">Where is it? I cannot</text>
<text text-anchor="middle" x="657.27" y="-544.51" font-family="Times,serif" font-size="14.00">find it! I am lost!</text>
<text text-anchor="middle" x="657.27" y="-527.26" font-family="Times,serif" font-size="14.00">Oh....</text>
</g>
<!-- Node001&#45;&gt;Node003 -->
<g id="edge5" class="edge">
<title>Node001&#45;&gt;Node003</title>
<path fill="none" stroke="#993000" d="M894.51,-820.56C790.56,-810.53 649.11,-789.26 614.27,-746.43 580.6,-705.05 602.51,-643.08 625.6,-599.88"/>
<polygon fill="#993000" stroke="#993000" points="629.06,-601.86 630.84,-591.42 622.93,-598.47 629.06,-601.86"/>
<text text-anchor="middle" x="683.27" y="-699.51" font-family="Times,serif" font-size="14.00" fill="#993000">What’s the matter?</text>
</g>
<!-- Node002 -->
<g id="node18" class="node">
<title>Node002</title>
<ellipse fill="#ffffff" stroke="#000000" cx="900.27" cy="-704.18" rx="138.59" ry="42.25"/>
<text text-anchor="middle" x="900.27" y="-716.76" font-family="Times,serif" font-size="14.00">I stop and knock at every</text>
<text text-anchor="middle" x="900.27" y="-699.51" font-family="Times,serif" font-size="14.00">door, but no one comes,</text>
<text text-anchor="middle" x="900.27" y="-682.26" font-family="Times,serif" font-size="14.00">no one hears.</text>
</g>
<!-- Node001&#45;&gt;Node002 -->
<g id="edge6" class="edge">
<title>Node001&#45;&gt;Node002</title>
<path fill="none" stroke="#040099" d="M975.96,-800.69C969.26,-794.68 962.47,-788.17 956.52,-781.68 948.83,-773.31 941.2,-763.9 934.16,-754.61"/>
<polygon fill="#040099" stroke="#040099" points="936.37,-752.73 927.6,-746.79 930.75,-756.9 936.37,-752.73"/>
<text text-anchor="middle" x="1005.64" y="-768.38" font-family="Times,serif" font-size="14.00" fill="#040099">Who are you?</text>
</g>
<!-- Node005 -->
<g id="node19" class="node">
<title>Node005</title>
<ellipse fill="#ffffff" stroke="#000000" cx="785.27" cy="-197.54" rx="82.77" ry="18"/>
<text text-anchor="middle" x="785.27" y="-192.86" font-family="Times,serif" font-size="14.00">Oh, cruel fate.</text>
</g>
<!-- Node001&#45;&gt;Node005 -->
<g id="edge7" class="edge">
<title>Node001&#45;&gt;Node005</title>
<path fill="none" stroke="#299900" d="M1041.84,-800.37C1046.46,-794.66 1050.56,-788.35 1053.27,-781.68 1082.07,-710.72 1084.83,-510.37 1062.27,-437.18 1041.57,-370.06 1024.8,-354.31 973.27,-306.58 931.38,-267.79 873.15,-237.04 832.64,-218.42"/>
<polygon fill="#299900" stroke="#299900" points="834.29,-214.88 823.74,-213.95 831.41,-221.26 834.29,-214.88"/>
<text text-anchor="middle" x="1147.27" y="-544.51" font-family="Times,serif" font-size="14.00" fill="#299900">Begone, foul spirit!</text>
</g>
<!-- Node001&#45;&gt;Node999 -->
<g id="edge8" class="edge">
<title>Node001&#45;&gt;Node999</title>
<path fill="none" stroke="#990056" d="M1080.21,-804.81C1145.61,-780.25 1233.27,-740.7 1233.27,-705.18 1233.27,-705.18 1233.27,-705.18 1233.27,-196.54 1233.27,-85.2 1132.46,-90.47 1027.27,-54 930.14,-20.33 613.31,-18.36 503.31,-18.73"/>
<polygon fill="#990056" stroke="#990056" points="503.41,-15.23 493.42,-18.78 503.44,-22.23 503.41,-15.23"/>
<text text-anchor="middle" x="1296.27" y="-458.38" font-family="Times,serif" font-size="14.00" fill="#990056">GHOST BUSTER!</text>
</g>
<!-- Node001&#45;&gt;Node999 -->
<g id="edge9" class="edge">
<title>Node001&#45;&gt;Node999</title>
<path fill="none" stroke="#008299" d="M1097.48,-808.62C1207.44,-782.03 1382.27,-735.04 1382.27,-705.18 1382.27,-705.18 1382.27,-705.18 1382.27,-196.54 1382.27,-124.42 1311.71,-138.88 1247.27,-106.5 1185.28,-75.35 1168.27,-67.72 1100.27,-54 984.93,-30.74 621.52,-21.95 503.03,-19.66"/>
<polygon fill="#008299" stroke="#008299" points="503.41,-16.15 493.34,-19.46 503.28,-23.15 503.41,-16.15"/>
<text text-anchor="middle" x="1395.02" y="-458.38" font-family="Times,serif" font-size="14.00" fill="#008299">Ug.</text>
</g>
<!-- destroy_p_proc -->
<g id="node9" class="node">
<title>destroy_p_proc</title>
<ellipse fill="#ffffff" stroke="#000000" cx="1248.27" cy="-914.79" rx="27" ry="18"/>
</g>
<!-- look_at_p_proc -->
<g id="node10" class="node">
<title>look_at_p_proc</title>
<ellipse fill="#ffffff" stroke="#000000" cx="1386.27" cy="-914.79" rx="93.3" ry="18"/>
<text text-anchor="middle" x="1386.27" y="-910.11" font-family="Times,serif" font-size="14.00">You see a ghost!</text>
</g>
<!-- description_p_proc -->
<g id="node11" class="node">
<title>description_p_proc</title>
<ellipse fill="#ffffff" stroke="#000000" cx="1591.27" cy="-914.79" rx="93.3" ry="18"/>
<text text-anchor="middle" x="1591.27" y="-910.11" font-family="Times,serif" font-size="14.00">You see a ghost!</text>
</g>
<!-- use_skill_on_p_proc -->
<g id="node12" class="node">
<title>use_skill_on_p_proc</title>
<ellipse fill="#ffffff" stroke="#000000" cx="1729.27" cy="-914.79" rx="27" ry="18"/>
</g>
<!-- damage_p_proc -->
<g id="node13" class="node">
<title>damage_p_proc</title>
<ellipse fill="#ffffff" stroke="#000000" cx="1801.27" cy="-914.79" rx="27" ry="18"/>
</g>
<!-- Node998 -->
<g id="node14" class="node">
<title>Node998</title>
<ellipse fill="#ffffff" stroke="#000000" cx="1801.27" cy="-829.73" rx="27" ry="18"/>
</g>
<!-- damage_p_proc&#45;&gt;Node998 -->
<g id="edge4" class="edge">
<title>damage_p_proc&#45;&gt;Node998</title>
<path fill="none" stroke="#555555" stroke-dasharray="1,5" d="M1801.27,-896.58C1801.27,-885.74 1801.27,-871.48 1801.27,-859.01"/>
<polygon fill="#555555" stroke="#555555" points="1804.77,-859.21 1801.27,-849.21 1797.77,-859.21 1804.77,-859.21"/>
</g>
<!-- map_enter_p_proc -->
<g id="node15" class="node">
<title>map_enter_p_proc</title>
<ellipse fill="#ffffff" stroke="#000000" cx="1873.27" cy="-914.79" rx="27" ry="18"/>
</g>
<!-- map_update_p_proc -->
<g id="node16" class="node">
<title>map_update_p_proc</title>
<ellipse fill="#ffffff" stroke="#000000" cx="2024.27" cy="-914.79" rx="106.45" ry="18"/>
<text text-anchor="middle" x="2024.27" y="-910.11" font-family="Times,serif" font-size="14.00">This house is clear.</text>
</g>
<!-- Node003&#45;&gt;Node005 -->
<g id="edge13" class="edge">
<title>Node003&#45;&gt;Node005</title>
<path fill="none" stroke="#990003" d="M593.69,-513.42C535.88,-477.05 464.72,-417.25 501.02,-359.08 508.04,-347.82 595.73,-310.93 608.27,-306.58 643.92,-294.19 657.94,-306.3 691.27,-288.58 721.12,-272.71 748.19,-244.63 765.53,-224.04"/>
<polygon fill="#990003" stroke="#990003" points="768.71,-226.68 772.34,-216.73 763.3,-222.24 768.71,-226.68"/>
<text text-anchor="middle" x="596.89" y="-401.71" font-family="Times,serif" font-size="14.00" fill="#990003">You really need to stop</text>
<text text-anchor="middle" x="596.89" y="-384.46" font-family="Times,serif" font-size="14.00" fill="#990003">moaning and groaning and</text>
<text text-anchor="middle" x="596.89" y="-367.21" font-family="Times,serif" font-size="14.00" fill="#990003">start making sense.</text>
</g>
<!-- Node004 -->
<g id="node21" class="node">
<title>Node004</title>
<ellipse fill="#ffffff" stroke="#000000" cx="819.27" cy="-389.13" rx="118.44" ry="30.05"/>
<text text-anchor="middle" x="819.27" y="-393.08" font-family="Times,serif" font-size="14.00">My locket! It is gone.</text>
<text text-anchor="middle" x="819.27" y="-375.83" font-family="Times,serif" font-size="14.00">Thief! Thief!</text>
</g>
<!-- Node003&#45;&gt;Node004 -->
<g id="edge12" class="edge">
<title>Node003&#45;&gt;Node004</title>
<path fill="none" stroke="#00992a" d="M658.54,-506.5C661.33,-483.5 668.41,-455.89 685.52,-437.18 694.63,-427.22 705.97,-419.37 718.18,-413.18"/>
<polygon fill="#00992a" stroke="#00992a" points="719.53,-415.95 727.12,-408.56 716.58,-409.6 719.53,-415.95"/>
<text text-anchor="middle" x="778.14" y="-467.01" font-family="Times,serif" font-size="14.00" fill="#00992a">What are you looking for?</text>
<text text-anchor="middle" x="778.14" y="-449.76" font-family="Times,serif" font-size="14.00" fill="#00992a">Maybe I can help.</text>
</g>
<!-- Node002&#45;&gt;Node003 -->
<g id="edge10" class="edge">
<title>Node002&#45;&gt;Node003</title>
<path fill="none" stroke="#998300" d="M796.06,-675.93C762.74,-665.83 730.99,-654.32 717.52,-643.93 702.66,-632.48 690.41,-616.25 680.93,-600.51"/>
<polygon fill="#998300" stroke="#998300" points="683.68,-599.27 675.67,-592.34 677.61,-602.76 683.68,-599.27"/>
<text text-anchor="middle" x="798.14" y="-630.63" font-family="Times,serif" font-size="14.00" fill="#998300">I can hear you. What’s</text>
<text text-anchor="middle" x="798.14" y="-613.38" font-family="Times,serif" font-size="14.00" fill="#998300">the matter?</text>
</g>
<!-- Node002&#45;&gt;Node005 -->
<g id="edge11" class="edge">
<title>Node002&#45;&gt;Node005</title>
<path fill="none" stroke="#560099" d="M893.18,-661.69C882.93,-596.01 867.76,-471.98 892.77,-437.18 907.41,-416.81 930.98,-439.08 946.27,-419.18 976.79,-379.46 975.15,-350.62 951.27,-306.58 927.64,-263.02 878.01,-234.26 839.13,-217.45"/>
<polygon fill="#560099" stroke="#560099" points="840.57,-213.84 830,-213.22 837.88,-220.3 840.57,-213.84"/>
<text text-anchor="middle" x="978.02" y="-475.63" font-family="Times,serif" font-size="14.00" fill="#560099">I think you need to turn</text>
<text text-anchor="middle" x="978.02" y="-458.38" font-family="Times,serif" font-size="14.00" fill="#560099">off your Stealth Boy,</text>
<text text-anchor="middle" x="978.02" y="-441.13" font-family="Times,serif" font-size="14.00" fill="#560099">ma&#39;am.</text>
</g>
<!-- Node005&#45;&gt;Node999 -->
<g id="edge16" class="edge">
<title>Node005&#45;&gt;Node999</title>
<path fill="none" stroke="#990089" d="M771.76,-179.38C754.23,-158.45 721.57,-123.72 685.27,-106.5 637.73,-83.96 612.63,-116.79 568.27,-88.5 552.73,-78.59 559.39,-65.84 545.27,-54 532.15,-43 515.03,-34.9 500,-29.27"/>
<polygon fill="#990089" stroke="#990089" points="501.6,-25.77 491,-25.77 499.28,-32.38 501.6,-25.77"/>
<text text-anchor="middle" x="649.27" y="-75.2" font-family="Times,serif" font-size="14.00" fill="#990089">You can’t hear me, can</text>
<text text-anchor="middle" x="649.27" y="-57.95" font-family="Times,serif" font-size="14.00" fill="#990089">you?</text>
</g>
<!-- Node005&#45;&gt;Node999 -->
<g id="edge17" class="edge">
<title>Node005&#45;&gt;Node999</title>
<path fill="none" stroke="#00997d" d="M780.92,-179.11C771.97,-144.71 750.64,-70.04 730.27,-54 695.87,-26.92 568.23,-20.75 503.48,-19.37"/>
<polygon fill="#00997d" stroke="#00997d" points="503.59,-15.85 493.53,-19.17 503.46,-22.85 503.59,-15.85"/>
<text text-anchor="middle" x="810.89" y="-66.58" font-family="Times,serif" font-size="14.00" fill="#00997d">Later, ghost girl.</text>
</g>
<!-- Node005&#45;&gt;Node999 -->
<g id="edge18" class="edge">
<title>Node005&#45;&gt;Node999</title>
<path fill="none" stroke="#995000" d="M808.52,-179.99C845.27,-151.9 909.02,-94.05 872.27,-54 847.62,-27.14 599.95,-20.85 503.46,-19.41"/>
<polygon fill="#995000" stroke="#995000" points="503.51,-15.9 493.47,-19.26 503.42,-22.9 503.51,-15.9"/>
<text text-anchor="middle" x="953.64" y="-66.58" font-family="Times,serif" font-size="14.00" fill="#995000">Bye. I’ll try to help.</text>
</g>
<!-- Node004&#45;&gt;Node005 -->
<g id="edge14" class="edge">
<title>Node004&#45;&gt;Node005</title>
<path fill="none" stroke="#003099" d="M795.76,-359.41C792.18,-353.64 789.02,-347.41 787.02,-341.08 774.88,-302.75 777.44,-255.68 780.94,-226.38"/>
<polygon fill="#003099" stroke="#003099" points="784.5,-227.09 782.34,-216.72 777.56,-226.18 784.5,-227.09"/>
<text text-anchor="middle" x="869.39" y="-327.78" font-family="Times,serif" font-size="14.00" fill="#003099">Whoa, I just got here. I</text>
<text text-anchor="middle" x="869.39" y="-310.53" font-family="Times,serif" font-size="14.00" fill="#003099">didn’t do it.</text>
</g>
<!-- Node004&#45;&gt;Node005 -->
<g id="edge15" class="edge">
<title>Node004&#45;&gt;Node005</title>
<path fill="none" stroke="#5c9900" d="M731.09,-368.7C678.17,-356.83 620.67,-343.48 618.77,-341.08 609.24,-329.06 609.45,-318.76 618.77,-306.58 637.38,-282.26 658.38,-303.22 685.27,-288.58 716.1,-271.79 745.2,-243.68 763.97,-223.33"/>
<polygon fill="#5c9900" stroke="#5c9900" points="766.02,-226.18 770.12,-216.41 760.82,-221.49 766.02,-226.18"/>
<text text-anchor="middle" x="698.02" y="-319.15" font-family="Times,serif" font-size="14.00" fill="#5c9900">Can I help you find it?</text>
</g>
<!-- Node007&#45;&gt;Node999 -->
<g id="edge25" class="edge">
<title>Node007&#45;&gt;Node999</title>
<path fill="none" stroke="#009949" d="M254.52,-136.25C214.47,-112.73 177.82,-90.79 176.52,-88.5 168.94,-75.17 166.35,-65.48 176.52,-54 192.88,-35.53 352.6,-24.86 427.21,-20.85"/>
<polygon fill="#009949" stroke="#009949" points="427.2,-24.3 437,-20.28 426.83,-17.31 427.2,-24.3"/>
<text text-anchor="middle" x="210.64" y="-66.58" font-family="Times,serif" font-size="14.00" fill="#009949">Goodbye.</text>
</g>
<!-- Node007&#45;&gt;Node999 -->
<g id="edge26" class="edge">
<title>Node007&#45;&gt;Node999</title>
<path fill="none" stroke="#991d00" d="M274.26,-124.46C256.72,-101.1 248.35,-75.64 266.52,-54 286.61,-30.06 375.23,-22.49 427.1,-20.1"/>
<polygon fill="#991d00" stroke="#991d00" points="427.04,-23.56 436.88,-19.65 426.75,-16.57 427.04,-23.56"/>
<text text-anchor="middle" x="321.64" y="-66.58" font-family="Times,serif" font-size="14.00" fill="#991d00">Wait! Don’t go!</text>
</g>
<!-- Node007&#45;&gt;Node999 -->
<g id="edge27" class="edge">
<title>Node007&#45;&gt;Node999</title>
<path fill="none" stroke="#001099" d="M371.91,-106.75C377.88,-87.91 386.45,-69.18 398.77,-54 407.1,-43.73 419.25,-36.11 430.89,-30.65"/>
<polygon fill="#001099" stroke="#001099" points="432.06,-33.53 439.89,-26.39 429.32,-27.09 432.06,-33.53"/>
<text text-anchor="middle" x="460.02" y="-66.58" font-family="Times,serif" font-size="14.00" fill="#001099">Go into the light.</text>
</g>
<!-- Node007&#45;&gt;Node999 -->
<g id="edge28" class="edge">
<title>Node007&#45;&gt;Node999</title>
<path fill="none" stroke="#3d9900" d="M258.68,-133.44C240.95,-123.63 222.36,-114.21 204.27,-106.5 177.28,-95.01 158.46,-111.9 140.77,-88.5 131.52,-76.27 130.52,-65.41 140.77,-54 159.61,-33.01 345.49,-23.5 427.13,-20.31"/>
<polygon fill="#3d9900" stroke="#3d9900" points="427.08,-23.77 436.94,-19.9 426.81,-16.78 427.08,-23.77"/>
<text text-anchor="middle" x="154.02" y="-66.58" font-family="Times,serif" font-size="14.00" fill="#3d9900">Ug.</text>
</g>
<!-- timed_event_p_proc -->
<g id="node23" class="node">
<title>timed_event_p_proc</title>
<ellipse fill="#ffffff" stroke="#000000" cx="1176.27" cy="-914.79" rx="27" ry="18"/>
</g>
<!-- timed_event_p_proc&#45;&gt;Node008 -->
<g id="edge29" class="edge">
<title>timed_event_p_proc&#45;&gt;Node008</title>
<path fill="none" stroke="#555555" stroke-dasharray="1,5" d="M1176.27,-896.58C1176.27,-885.74 1176.27,-871.48 1176.27,-859.01"/>
<polygon fill="#555555" stroke="#555555" points="1179.77,-859.21 1176.27,-849.21 1172.77,-859.21 1179.77,-859.21"/>
</g>
</g>
</svg>
