<?xml version="1.0" encoding="UTF-8" standalone="no"?>
<!DOCTYPE svg PUBLIC "-//W3C//DTD SVG 1.1//EN"
 "http://www.w3.org/Graphics/SVG/1.1/DTD/svg11.dtd">
<!-- Generated by graphviz version 8.0.5 (0)
 -->
<!-- Title: dcSlave Pages: 1 -->
<svg width="1884pt" height="1143pt"
 viewBox="0.00 0.00 1884.00 1142.80" xmlns="http://www.w3.org/2000/svg" xmlns:xlink="http://www.w3.org/1999/xlink">
<g id="graph0" class="graph" transform="scale(1 1) rotate(0) translate(4 1138.8)">
<title>dcSlave</title>
<polygon fill="white" stroke="none" points="-4,4 -4,-1138.8 1880,-1138.8 1880,4 -4,4"/>
<!-- checkPartyMembersNearDoor -->
<g id="node1" class="node">
<title>checkPartyMembersNearDoor</title>
<ellipse fill="#ffffff" stroke="#000000" cx="27" cy="-1068.15" rx="27" ry="18"/>
</g>
<!-- start -->
<g id="node2" class="node">
<title>start</title>
<ellipse fill="#ffffff" stroke="#000000" cx="99" cy="-1068.15" rx="27" ry="18"/>
</g>
<!-- critter_p_proc -->
<g id="node3" class="node">
<title>critter_p_proc</title>
<ellipse fill="#ffffff" stroke="#000000" cx="171" cy="-1068.15" rx="27" ry="18"/>
</g>
<!-- pickup_p_proc -->
<g id="node4" class="node">
<title>pickup_p_proc</title>
<ellipse fill="#ffffff" stroke="#000000" cx="243" cy="-1068.15" rx="27" ry="18"/>
</g>
<!-- Node998 -->
<g id="node5" class="node">
<title>Node998</title>
<ellipse fill="#ffffff" stroke="#000000" cx="243" cy="-849.07" rx="27" ry="18"/>
</g>
<!-- pickup_p_proc&#45;&gt;Node998 -->
<g id="edge1" class="edge">
<title>pickup_p_proc&#45;&gt;Node998</title>
<path fill="none" stroke="#555555" stroke-dasharray="1,5" d="M243,-1049.75C243,-1012.36 243,-924.04 243,-878.43"/>
<polygon fill="#555555" stroke="#555555" points="246.5,-878.55 243,-868.55 239.5,-878.55 246.5,-878.55"/>
</g>
<!-- talk_p_proc -->
<g id="node6" class="node">
<title>talk_p_proc</title>
<ellipse fill="#ffffff" stroke="#000000" cx="769" cy="-1068.15" rx="27" ry="18"/>
</g>
<!-- Node013 -->
<g id="node7" class="node">
<title>Node013</title>
<ellipse fill="#ffffff" stroke="#000000" cx="315" cy="-849.07" rx="27" ry="18"/>
</g>
<!-- talk_p_proc&#45;&gt;Node013 -->
<g id="edge2" class="edge">
<title>talk_p_proc&#45;&gt;Node013</title>
<path fill="none" stroke="#555555" stroke-dasharray="1,5" d="M742.2,-1064.01C659.28,-1053.77 408.98,-1018.89 351,-964.51 327.18,-942.17 319.04,-904.26 316.3,-878.24"/>
<polygon fill="#555555" stroke="#555555" points="319.73,-878.23 315.41,-868.56 312.75,-878.82 319.73,-878.23"/>
</g>
<!-- Node002 -->
<g id="node8" class="node">
<title>Node002</title>
<ellipse fill="#ffffff" stroke="#000000" cx="387" cy="-849.07" rx="27" ry="18"/>
</g>
<!-- talk_p_proc&#45;&gt;Node002 -->
<g id="edge3" class="edge">
<title>talk_p_proc&#45;&gt;Node002</title>
<path fill="none" stroke="#555555" stroke-dasharray="1,5" d="M741.83,-1067.23C677.3,-1065.92 513.45,-1053.49 423,-964.51 399.82,-941.71 391.53,-904.17 388.58,-878.34"/>
<polygon fill="#555555" stroke="#555555" points="391.97,-878.02 387.57,-868.39 385,-878.67 391.97,-878.02"/>
</g>
<!-- Node008 -->
<g id="node9" class="node">
<title>Node008</title>
<ellipse fill="#ffffff" stroke="#000000" cx="582" cy="-849.07" rx="149.73" ry="115.44"/>
<text text-anchor="middle" x="582" y="-913.4" font-family="Times,serif" font-size="14.00">What loud gun noise? What</text>
<text text-anchor="middle" x="582" y="-896.15" font-family="Times,serif" font-size="14.00">you want?</text>
<text text-anchor="middle" x="582" y="-878.9" font-family="Times,serif" font-size="14.00">&#45;&#45;&#45;</text>
<text text-anchor="middle" x="582" y="-861.65" font-family="Times,serif" font-size="14.00">Hey! What was all that</text>
<text text-anchor="middle" x="582" y="-844.4" font-family="Times,serif" font-size="14.00">gunfire? Are the slavers</text>
<text text-anchor="middle" x="582" y="-827.15" font-family="Times,serif" font-size="14.00">dead?</text>
<text text-anchor="middle" x="582" y="-809.9" font-family="Times,serif" font-size="14.00">&#45;&#45;&#45;</text>
<text text-anchor="middle" x="582" y="-792.65" font-family="Times,serif" font-size="14.00">friend. He kill Mezgur.</text>
<text text-anchor="middle" x="582" y="-775.4" font-family="Times,serif" font-size="14.00">You go now.</text>
</g>
<!-- talk_p_proc&#45;&gt;Node008 -->
<g id="edge4" class="edge">
<title>talk_p_proc&#45;&gt;Node008</title>
<path fill="none" stroke="#555555" stroke-dasharray="1,5" d="M756.15,-1052.23C738.35,-1031.57 704.65,-992.45 671.6,-954.08"/>
<polygon fill="#555555" stroke="#555555" points="673.74,-952.21 664.56,-946.91 668.44,-956.78 673.74,-952.21"/>
</g>
<!-- Node010 -->
<g id="node10" class="node">
<title>Node010</title>
<ellipse fill="#ffffff" stroke="#000000" cx="864" cy="-608.69" rx="124.8" ry="54.45"/>
<text text-anchor="middle" x="864" y="-629.89" font-family="Times,serif" font-size="14.00">What you want?</text>
<text text-anchor="middle" x="864" y="-612.64" font-family="Times,serif" font-size="14.00">&#45;&#45;&#45;</text>
<text text-anchor="middle" x="864" y="-595.39" font-family="Times,serif" font-size="14.00">friend. He kill Mezgur.</text>
<text text-anchor="middle" x="864" y="-578.14" font-family="Times,serif" font-size="14.00">You go now.</text>
</g>
<!-- talk_p_proc&#45;&gt;Node010 -->
<g id="edge5" class="edge">
<title>talk_p_proc&#45;&gt;Node010</title>
<path fill="none" stroke="#555555" stroke-dasharray="1,5" d="M763.98,-1050.04C756.63,-1000.09 753.15,-850.57 788,-733.64 794.51,-711.78 805.17,-689.4 816.52,-669.78"/>
<polygon fill="#555555" stroke="#555555" points="820.01,-671.76 822.14,-661.38 814.01,-668.17 820.01,-671.76"/>
</g>
<!-- talk_p_proc&#45;&gt;Node010 -->
<g id="edge6" class="edge">
<title>talk_p_proc&#45;&gt;Node010</title>
<path fill="none" stroke="#555555" stroke-dasharray="1,5" d="M772.04,-1050.04C774.63,-1000.09 771.15,-850.57 806,-733.64 812.31,-712.48 822.49,-690.83 832.65,-671.68"/>
<polygon fill="#555555" stroke="#555555" points="836.1,-673.65 837.77,-663.19 829.94,-670.33 836.1,-673.65"/>
</g>
<!-- Node003 -->
<g id="node11" class="node">
<title>Node003</title>
<ellipse fill="#ffffff" stroke="#000000" cx="833" cy="-849.07" rx="27" ry="18"/>
</g>
<!-- talk_p_proc&#45;&gt;Node003 -->
<g id="edge7" class="edge">
<title>talk_p_proc&#45;&gt;Node003</title>
<path fill="none" stroke="#555555" stroke-dasharray="1,5" d="M774.02,-1050.12C785.07,-1012.63 811.58,-922.71 824.97,-877.3"/>
<polygon fill="#555555" stroke="#555555" points="828.53,-878.61 828,-868.03 821.82,-876.63 828.53,-878.61"/>
</g>
<!-- Node004 -->
<g id="node12" class="node">
<title>Node004</title>
<ellipse fill="#ffffff" stroke="#000000" cx="905" cy="-849.07" rx="27" ry="18"/>
</g>
<!-- talk_p_proc&#45;&gt;Node004 -->
<g id="edge8" class="edge">
<title>talk_p_proc&#45;&gt;Node004</title>
<path fill="none" stroke="#555555" stroke-dasharray="1,5" d="M775.28,-1050.16C781.22,-1035.86 791.28,-1015.54 805,-1001.51 827.97,-978.01 848.45,-990.14 869,-964.51 889.11,-939.42 898.05,-902.98 901.99,-878"/>
<polygon fill="#555555" stroke="#555555" points="905.55,-878.8 903.47,-868.41 898.62,-877.83 905.55,-878.8"/>
</g>
<!-- Node999 -->
<g id="node25" class="node">
<title>Node999</title>
<ellipse fill="#ffffff" stroke="#000000" cx="607" cy="-18" rx="27" ry="18"/>
</g>
<!-- Node008&#45;&gt;Node999 -->
<g id="edge13" class="edge">
<title>Node008&#45;&gt;Node999</title>
<path fill="none" stroke="#009919" d="M480.02,-764.43C461.85,-752.59 442.48,-741.71 423,-733.64 377.24,-714.66 358.75,-734.63 313,-715.64 178.34,-659.73 45.07,-646.28 64.25,-501.74 91.98,-292.73 31.16,-145.73 221,-54 281.68,-24.68 483.69,-19.82 568.74,-19.09"/>
<polygon fill="#009919" stroke="#009919" points="568.73,-22.58 578.7,-19.01 568.68,-15.58 568.73,-22.58"/>
<text text-anchor="middle" x="153.88" y="-522.94" font-family="Times,serif" font-size="14.00" fill="#009919">Oh, nothing. Just</text>
<text text-anchor="middle" x="153.88" y="-505.69" font-family="Times,serif" font-size="14.00" fill="#009919">checking up on you. Bye.</text>
</g>
<!-- Node011 -->
<g id="node26" class="node">
<title>Node011</title>
<ellipse fill="#ffffff" stroke="#000000" cx="306" cy="-608.69" rx="37.53" ry="18"/>
<text text-anchor="middle" x="306" y="-604.01" font-family="Times,serif" font-size="14.00">Huh?</text>
</g>
<!-- Node008&#45;&gt;Node011 -->
<g id="edge12" class="edge">
<title>Node008&#45;&gt;Node011</title>
<path fill="none" stroke="#450099" d="M479.27,-764.87C461.26,-753.05 442.14,-742.07 423,-733.64 387.16,-717.85 365.48,-742.24 336.75,-715.64 315.37,-695.84 308.54,-662.17 306.52,-638.09"/>
<polygon fill="#450099" stroke="#450099" points="309.96,-637.92 305.87,-628.15 302.97,-638.34 309.96,-637.92"/>
<text text-anchor="middle" x="407.12" y="-702.34" font-family="Times,serif" font-size="14.00" fill="#450099">That was Metzger&#39;s</text>
<text text-anchor="middle" x="407.12" y="-685.09" font-family="Times,serif" font-size="14.00" fill="#450099">nightcap.</text>
</g>
<!-- Node009 -->
<g id="node27" class="node">
<title>Node009</title>
<ellipse fill="#ffffff" stroke="#000000" cx="491" cy="-295.12" rx="152.91" ry="115.44"/>
<text text-anchor="middle" x="491" y="-359.45" font-family="Times,serif" font-size="14.00">He dead? Me thank you! We</text>
<text text-anchor="middle" x="491" y="-342.2" font-family="Times,serif" font-size="14.00">leave fast. Bye. You</text>
<text text-anchor="middle" x="491" y="-324.95" font-family="Times,serif" font-size="14.00">friend.</text>
<text text-anchor="middle" x="491" y="-307.7" font-family="Times,serif" font-size="14.00">&#45;&#45;&#45;</text>
<text text-anchor="middle" x="491" y="-290.45" font-family="Times,serif" font-size="14.00">You free the slaves from</text>
<text text-anchor="middle" x="491" y="-273.2" font-family="Times,serif" font-size="14.00">their pens.</text>
<text text-anchor="middle" x="491" y="-255.95" font-family="Times,serif" font-size="14.00">&#45;&#45;&#45;</text>
<text text-anchor="middle" x="491" y="-238.7" font-family="Times,serif" font-size="14.00">You see a big,</text>
<text text-anchor="middle" x="491" y="-221.45" font-family="Times,serif" font-size="14.00">primitive&#45;looking man.</text>
</g>
<!-- Node008&#45;&gt;Node009 -->
<g id="edge14" class="edge">
<title>Node008&#45;&gt;Node009</title>
<path fill="none" stroke="#990014" d="M529.56,-740.66C519.55,-715.75 510.43,-688.96 504.75,-663.14 487.35,-584.06 483.83,-493.13 484.7,-421.56"/>
<polygon fill="#990014" stroke="#990014" points="488.21,-421.75 484.87,-411.7 481.21,-421.64 488.21,-421.75"/>
<text text-anchor="middle" x="570.62" y="-612.64" font-family="Times,serif" font-size="14.00" fill="#990014">You are free to go.</text>
<text text-anchor="middle" x="570.62" y="-595.39" font-family="Times,serif" font-size="14.00" fill="#990014">Metzger&#39;s dead.</text>
</g>
<!-- Node012 -->
<g id="node28" class="node">
<title>Node012</title>
<ellipse fill="#ffffff" stroke="#000000" cx="864" cy="-295.12" rx="151.32" ry="188.62"/>
<text text-anchor="middle" x="864" y="-411.2" font-family="Times,serif" font-size="14.00">Wha? Free? Bad men gone?</text>
<text text-anchor="middle" x="864" y="-393.95" font-family="Times,serif" font-size="14.00">We go now! Thank you. You</text>
<text text-anchor="middle" x="864" y="-376.7" font-family="Times,serif" font-size="14.00">friend! Bye!</text>
<text text-anchor="middle" x="864" y="-359.45" font-family="Times,serif" font-size="14.00">&#45;&#45;&#45;</text>
<text text-anchor="middle" x="864" y="-342.2" font-family="Times,serif" font-size="14.00">You free the slaves from</text>
<text text-anchor="middle" x="864" y="-324.95" font-family="Times,serif" font-size="14.00">their pens.</text>
<text text-anchor="middle" x="864" y="-307.7" font-family="Times,serif" font-size="14.00">&#45;&#45;&#45;</text>
<text text-anchor="middle" x="864" y="-290.45" font-family="Times,serif" font-size="14.00">You see a big,</text>
<text text-anchor="middle" x="864" y="-273.2" font-family="Times,serif" font-size="14.00">primitive&#45;looking man.</text>
<text text-anchor="middle" x="864" y="-255.95" font-family="Times,serif" font-size="14.00">&#45;&#45;&#45;</text>
<text text-anchor="middle" x="864" y="-238.7" font-family="Times,serif" font-size="14.00">You free the slaves from</text>
<text text-anchor="middle" x="864" y="-221.45" font-family="Times,serif" font-size="14.00">their pens.</text>
<text text-anchor="middle" x="864" y="-204.2" font-family="Times,serif" font-size="14.00">&#45;&#45;&#45;</text>
<text text-anchor="middle" x="864" y="-186.95" font-family="Times,serif" font-size="14.00">You see a big,</text>
<text text-anchor="middle" x="864" y="-169.7" font-family="Times,serif" font-size="14.00">primitive&#45;looking man.</text>
</g>
<!-- Node008&#45;&gt;Node012 -->
<g id="edge15" class="edge">
<title>Node008&#45;&gt;Node012</title>
<path fill="none" stroke="#004199" d="M614.82,-736.13C621.84,-712.06 629.19,-686.76 636,-663.14 649.94,-614.79 653.2,-602.63 667,-554.24 673.66,-530.9 670.34,-523.02 682,-501.74 697.46,-473.54 717.4,-445.93 738.4,-420.55"/>
<polygon fill="#004199" stroke="#004199" points="741.5,-423.3 745.25,-413.39 736.14,-418.8 741.5,-423.3"/>
<text text-anchor="middle" x="698.5" y="-604.01" font-family="Times,serif" font-size="14.00" fill="#004199">You free.</text>
</g>
<!-- Node010&#45;&gt;Node999 -->
<g id="edge20" class="edge">
<title>Node010&#45;&gt;Node999</title>
<path fill="none" stroke="#120099" d="M939.54,-565.02C970.03,-544.21 1002.91,-516.55 1024,-483.74 1129.68,-319.37 1250.37,-196.83 1117,-54 1084.98,-19.7 757.8,-18.19 644.99,-18.7"/>
<polygon fill="#120099" stroke="#120099" points="645.13,-15.2 635.15,-18.75 645.17,-22.2 645.13,-15.2"/>
<text text-anchor="middle" x="1220.25" y="-290.45" font-family="Times,serif" font-size="14.00" fill="#120099">Oh, nothing.</text>
</g>
<!-- Node010&#45;&gt;Node009 -->
<g id="edge19" class="edge">
<title>Node010&#45;&gt;Node009</title>
<path fill="none" stroke="#993f00" d="M779.7,-568.26C762.25,-558.71 744.43,-547.87 728.75,-536.24 675.63,-496.84 623.19,-445.58 581.14,-400.54"/>
<polygon fill="#993f00" stroke="#993f00" points="584.04,-398.45 574.67,-393.5 578.91,-403.21 584.04,-398.45"/>
<text text-anchor="middle" x="794.62" y="-522.94" font-family="Times,serif" font-size="14.00" fill="#993f00">You are free to go.</text>
<text text-anchor="middle" x="794.62" y="-505.69" font-family="Times,serif" font-size="14.00" fill="#993f00">Metzger&#39;s dead.</text>
</g>
<!-- Node010&#45;&gt;Node012 -->
<g id="edge21" class="edge">
<title>Node010&#45;&gt;Node012</title>
<path fill="none" stroke="#1a9900" d="M864,-553.77C864,-536.56 864,-516.4 864,-495.07"/>
<polygon fill="#1a9900" stroke="#1a9900" points="867.5,-495.16 864,-485.16 860.5,-495.16 867.5,-495.16"/>
<text text-anchor="middle" x="895.5" y="-514.32" font-family="Times,serif" font-size="14.00" fill="#1a9900">You free.</text>
</g>
<!-- destroy_p_proc -->
<g id="node13" class="node">
<title>destroy_p_proc</title>
<ellipse fill="#ffffff" stroke="#000000" cx="841" cy="-1068.15" rx="27" ry="18"/>
</g>
<!-- look_at_p_proc -->
<g id="node14" class="node">
<title>look_at_p_proc</title>
<ellipse fill="#ffffff" stroke="#000000" cx="1023" cy="-1068.15" rx="137" ry="66.64"/>
<text text-anchor="middle" x="1023" y="-1097.98" font-family="Times,serif" font-size="14.00">You see a big,</text>
<text text-anchor="middle" x="1023" y="-1080.73" font-family="Times,serif" font-size="14.00">primitive&#45;looking man.</text>
<text text-anchor="middle" x="1023" y="-1063.48" font-family="Times,serif" font-size="14.00">&#45;&#45;&#45;</text>
<text text-anchor="middle" x="1023" y="-1046.23" font-family="Times,serif" font-size="14.00">You see a ragged&#45;looking</text>
<text text-anchor="middle" x="1023" y="-1028.98" font-family="Times,serif" font-size="14.00">man.</text>
</g>
<!-- description_p_proc -->
<g id="node15" class="node">
<title>description_p_proc</title>
<ellipse fill="#ffffff" stroke="#000000" cx="1311" cy="-1068.15" rx="132.76" ry="66.64"/>
<text text-anchor="middle" x="1311" y="-1097.98" font-family="Times,serif" font-size="14.00">He has cuts and bruises</text>
<text text-anchor="middle" x="1311" y="-1080.73" font-family="Times,serif" font-size="14.00">all over his body.</text>
<text text-anchor="middle" x="1311" y="-1063.48" font-family="Times,serif" font-size="14.00">&#45;&#45;&#45;</text>
<text text-anchor="middle" x="1311" y="-1046.23" font-family="Times,serif" font-size="14.00">He doesn&#39;t look very</text>
<text text-anchor="middle" x="1311" y="-1028.98" font-family="Times,serif" font-size="14.00">healthy.</text>
</g>
<!-- use_skill_on_p_proc -->
<g id="node16" class="node">
<title>use_skill_on_p_proc</title>
<ellipse fill="#ffffff" stroke="#000000" cx="1489" cy="-1068.15" rx="27" ry="18"/>
</g>
<!-- damage_p_proc -->
<g id="node17" class="node">
<title>damage_p_proc</title>
<ellipse fill="#ffffff" stroke="#000000" cx="1561" cy="-1068.15" rx="27" ry="18"/>
</g>
<!-- map_enter_p_proc -->
<g id="node18" class="node">
<title>map_enter_p_proc</title>
<ellipse fill="#ffffff" stroke="#000000" cx="1633" cy="-1068.15" rx="27" ry="18"/>
</g>
<!-- map_exit_p_proc -->
<g id="node19" class="node">
<title>map_exit_p_proc</title>
<ellipse fill="#ffffff" stroke="#000000" cx="1705" cy="-1068.15" rx="27" ry="18"/>
</g>
<!-- timed_event_p_proc -->
<g id="node20" class="node">
<title>timed_event_p_proc</title>
<ellipse fill="#ffffff" stroke="#000000" cx="1777" cy="-1068.15" rx="27" ry="18"/>
</g>
<!-- Node005 -->
<g id="node21" class="node">
<title>Node005</title>
<ellipse fill="#ffffff" stroke="#000000" cx="1705" cy="-849.07" rx="27" ry="18"/>
</g>
<!-- timed_event_p_proc&#45;&gt;Node005 -->
<g id="edge9" class="edge">
<title>timed_event_p_proc&#45;&gt;Node005</title>
<path fill="none" stroke="#555555" stroke-dasharray="1,5" d="M1770.84,-1050.14C1763.53,-1029.82 1751.07,-994.79 1741,-964.51 1731.17,-934.95 1720.54,-900.88 1713.4,-877.65"/>
<polygon fill="#555555" stroke="#555555" points="1716.47,-876.72 1710.19,-868.19 1709.78,-878.77 1716.47,-876.72"/>
</g>
<!-- Node006 -->
<g id="node22" class="node">
<title>Node006</title>
<ellipse fill="#ffffff" stroke="#000000" cx="1777" cy="-849.07" rx="27" ry="18"/>
</g>
<!-- timed_event_p_proc&#45;&gt;Node006 -->
<g id="edge10" class="edge">
<title>timed_event_p_proc&#45;&gt;Node006</title>
<path fill="none" stroke="#555555" stroke-dasharray="1,5" d="M1777,-1049.75C1777,-1012.36 1777,-924.04 1777,-878.43"/>
<polygon fill="#555555" stroke="#555555" points="1780.5,-878.55 1777,-868.55 1773.5,-878.55 1780.5,-878.55"/>
</g>
<!-- Node007 -->
<g id="node23" class="node">
<title>Node007</title>
<ellipse fill="#ffffff" stroke="#000000" cx="1849" cy="-849.07" rx="27" ry="18"/>
</g>
<!-- timed_event_p_proc&#45;&gt;Node007 -->
<g id="edge11" class="edge">
<title>timed_event_p_proc&#45;&gt;Node007</title>
<path fill="none" stroke="#555555" stroke-dasharray="1,5" d="M1783.16,-1050.14C1790.47,-1029.82 1802.93,-994.79 1813,-964.51 1822.83,-934.95 1833.46,-900.88 1840.6,-877.65"/>
<polygon fill="#555555" stroke="#555555" points="1844.22,-878.77 1843.81,-868.19 1837.53,-876.72 1844.22,-878.77"/>
</g>
<!-- push_p_proc -->
<g id="node24" class="node">
<title>push_p_proc</title>
<ellipse fill="#ffffff" stroke="#000000" cx="1849" cy="-1068.15" rx="27" ry="18"/>
</g>
<!-- Node011&#45;&gt;Node999 -->
<g id="edge23" class="edge">
<title>Node011&#45;&gt;Node999</title>
<path fill="none" stroke="#007499" d="M294.1,-591.51C278.21,-568.8 250.87,-525.55 240.5,-483.74 194.49,-298.19 108.69,-172.13 259,-54 282.99,-35.15 483.79,-24.32 569.01,-20.54"/>
<polygon fill="#007499" stroke="#007499" points="568.92,-24.01 578.76,-20.08 568.62,-17.01 568.92,-24.01"/>
<text text-anchor="middle" x="285.25" y="-290.45" font-family="Times,serif" font-size="14.00" fill="#007499">Oh, nothing.</text>
</g>
<!-- Node011&#45;&gt;Node009 -->
<g id="edge22" class="edge">
<title>Node011&#45;&gt;Node009</title>
<path fill="none" stroke="#990047" d="M302.35,-590.42C298.6,-568.81 294.85,-531.06 306.75,-501.74 310.92,-491.47 316.48,-491.88 324,-483.74 348.91,-456.77 375.5,-427.25 399.96,-399.77"/>
<polygon fill="#990047" stroke="#990047" points="402.11,-402.5 406.14,-392.7 396.88,-397.84 402.11,-402.5"/>
<text text-anchor="middle" x="392.12" y="-522.94" font-family="Times,serif" font-size="14.00" fill="#990047">Never mind. You&#39;re free</text>
<text text-anchor="middle" x="392.12" y="-505.69" font-family="Times,serif" font-size="14.00" fill="#990047">to go. Metzger&#39;s dead.</text>
</g>
<!-- Node009&#45;&gt;Node999 -->
<g id="edge16" class="edge">
<title>Node009&#45;&gt;Node999</title>
<path fill="none" stroke="#6d9900" d="M413.81,-195.17C387.06,-148.35 371.28,-94.06 405,-54 425.55,-29.58 516.44,-22.2 569.04,-19.97"/>
<polygon fill="#6d9900" stroke="#6d9900" points="569.09,-23.43 578.95,-19.55 568.83,-16.43 569.09,-23.43"/>
<text text-anchor="middle" x="495" y="-75.2" font-family="Times,serif" font-size="14.00" fill="#6d9900">You&#39;re welcome. Now get</text>
<text text-anchor="middle" x="495" y="-57.95" font-family="Times,serif" font-size="14.00" fill="#6d9900">out of here.</text>
</g>
<!-- Node009&#45;&gt;Node999 -->
<g id="edge17" class="edge">
<title>Node009&#45;&gt;Node999</title>
<path fill="none" stroke="#980099" d="M543.27,-186.33C557.6,-155.1 572.58,-120.73 585,-88.5 590.24,-74.89 595.22,-59.45 599.12,-46.58"/>
<polygon fill="#980099" stroke="#980099" points="602.75,-47.63 602.24,-37.05 596.04,-45.65 602.75,-47.63"/>
<text text-anchor="middle" x="633.38" y="-66.58" font-family="Times,serif" font-size="14.00" fill="#980099">Take care.</text>
</g>
<!-- Node009&#45;&gt;Node999 -->
<g id="edge18" class="edge">
<title>Node009&#45;&gt;Node999</title>
<path fill="none" stroke="#00996b" d="M418.26,-193.29C391.56,-161.95 359.17,-129.61 324,-106.5 302.68,-92.49 284.44,-109.17 269.5,-88.5 260.52,-76.07 259.23,-65.39 269.5,-54 289.25,-32.09 484.7,-23.04 568.82,-20.14"/>
<polygon fill="#00996b" stroke="#00996b" points="568.81,-23.61 578.68,-19.78 568.57,-16.61 568.81,-23.61"/>
<text text-anchor="middle" x="327.75" y="-66.58" font-family="Times,serif" font-size="14.00" fill="#00996b">You&#39;re welcome.</text>
</g>
<!-- Node012&#45;&gt;Node999 -->
<g id="edge24" class="edge">
<title>Node012&#45;&gt;Node999</title>
<path fill="none" stroke="#999200" d="M758.86,-158.9C718.15,-106.98 679.84,-58.83 674,-54 663.76,-45.52 651.13,-38.27 639.6,-32.61"/>
<polygon fill="#999200" stroke="#999200" points="641.39,-29.11 630.85,-28.04 638.43,-35.45 641.39,-29.11"/>
<text text-anchor="middle" x="793" y="-75.2" font-family="Times,serif" font-size="14.00" fill="#999200">You&#39;re welcome. Now get</text>
<text text-anchor="middle" x="793" y="-57.95" font-family="Times,serif" font-size="14.00" fill="#999200">out of here.</text>
</g>
<!-- Node012&#45;&gt;Node999 -->
<g id="edge25" class="edge">
<title>Node012&#45;&gt;Node999</title>
<path fill="none" stroke="#650099" d="M909.84,-115.01C907.11,-92.57 899.35,-71.42 884,-54 868.44,-36.35 717.21,-25.35 645.01,-21.05"/>
<polygon fill="#650099" stroke="#650099" points="645.32,-17.51 635.13,-20.42 644.91,-24.5 645.32,-17.51"/>
<text text-anchor="middle" x="939.38" y="-66.58" font-family="Times,serif" font-size="14.00" fill="#650099">Take care.</text>
</g>
<!-- Node012&#45;&gt;Node999 -->
<g id="edge26" class="edge">
<title>Node012&#45;&gt;Node999</title>
<path fill="none" stroke="#009938" d="M977.65,-169.72C1000.9,-129.72 1010.24,-87.21 980,-54 957.74,-29.56 735.59,-21.86 645.08,-19.73"/>
<polygon fill="#009938" stroke="#009938" points="645.29,-16.21 635.21,-19.49 645.13,-23.21 645.29,-16.21"/>
<text text-anchor="middle" x="1055.75" y="-66.58" font-family="Times,serif" font-size="14.00" fill="#009938">You&#39;re welcome.</text>
</g>
</g>
</svg>
