<?xml version="1.0" encoding="UTF-8" standalone="no"?>
<!DOCTYPE svg PUBLIC "-//W3C//DTD SVG 1.1//EN"
 "http://www.w3.org/Graphics/SVG/1.1/DTD/svg11.dtd">
<!-- Generated by graphviz version 8.0.5 (0)
 -->
<!-- Title: eiSanMap Pages: 1 -->
<svg width="926pt" height="189pt"
 viewBox="0.00 0.00 925.88 188.89" xmlns="http://www.w3.org/2000/svg" xmlns:xlink="http://www.w3.org/1999/xlink">
<g id="graph0" class="graph" transform="scale(1 1) rotate(0) translate(4 184.89)">
<title>eiSanMap</title>
<polygon fill="white" stroke="none" points="-4,4 -4,-184.89 921.88,-184.89 921.88,4 -4,4"/>
<!-- checkPartyMembersNearDoor -->
<g id="node1" class="node">
<title>checkPartyMembersNearDoor</title>
<ellipse fill="#ffffff" stroke="#000000" cx="27" cy="-126.45" rx="27" ry="18"/>
</g>
<!-- ChooseFromList -->
<g id="node2" class="node">
<title>ChooseFromList</title>
<ellipse fill="#ffffff" stroke="#000000" cx="135" cy="-18" rx="27" ry="18"/>
</g>
<!-- CLICK_PREV -->
<g id="node3" class="node">
<title>CLICK_PREV</title>
<ellipse fill="#ffffff" stroke="#000000" cx="99" cy="-126.45" rx="27" ry="18"/>
</g>
<!-- CLICK_PREV&#45;&gt;ChooseFromList -->
<g id="edge1" class="edge">
<title>CLICK_PREV&#45;&gt;ChooseFromList</title>
<path fill="none" stroke="#555555" stroke-dasharray="1,5" d="M104.62,-108.81C110.3,-92.04 119.15,-65.87 125.84,-46.09"/>
<polygon fill="#555555" stroke="#555555" points="129.41,-47.46 129.3,-36.87 122.78,-45.22 129.41,-47.46"/>
</g>
<!-- CLICK_0 -->
<g id="node4" class="node">
<title>CLICK_0</title>
<ellipse fill="#ffffff" stroke="#000000" cx="243" cy="-126.45" rx="27" ry="18"/>
</g>
<!-- stored_node -->
<g id="node5" class="node">
<title>stored_node</title>
<ellipse fill="none" stroke="black" cx="387" cy="-18" rx="72.25" ry="18"/>
<text text-anchor="middle" x="387" y="-13.32" font-family="Times,serif" font-size="14.00">stored_node</text>
</g>
<!-- CLICK_0&#45;&gt;stored_node -->
<g id="edge2" class="edge">
<title>CLICK_0&#45;&gt;stored_node</title>
<path fill="none" stroke="#555555" stroke-dasharray="1,5" d="M251.2,-108.81C257.54,-97.31 267.2,-82.29 279,-72 295.62,-57.51 316.91,-45.95 336.18,-37.38"/>
<polygon fill="#555555" stroke="#555555" points="337.22,-40.31 345.04,-33.17 334.47,-33.88 337.22,-40.31"/>
</g>
<!-- CLICK_1 -->
<g id="node6" class="node">
<title>CLICK_1</title>
<ellipse fill="#ffffff" stroke="#000000" cx="315" cy="-126.45" rx="27" ry="18"/>
</g>
<!-- CLICK_1&#45;&gt;stored_node -->
<g id="edge3" class="edge">
<title>CLICK_1&#45;&gt;stored_node</title>
<path fill="none" stroke="#555555" stroke-dasharray="1,5" d="M325.7,-109.53C332.85,-98.9 342.48,-84.6 351,-72 356.95,-63.2 363.47,-53.6 369.3,-45.01"/>
<polygon fill="#555555" stroke="#555555" points="372.58,-47.41 375.31,-37.17 366.79,-43.48 372.58,-47.41"/>
</g>
<!-- CLICK_2 -->
<g id="node7" class="node">
<title>CLICK_2</title>
<ellipse fill="#ffffff" stroke="#000000" cx="387" cy="-126.45" rx="27" ry="18"/>
</g>
<!-- CLICK_2&#45;&gt;stored_node -->
<g id="edge4" class="edge">
<title>CLICK_2&#45;&gt;stored_node</title>
<path fill="none" stroke="#555555" stroke-dasharray="1,5" d="M387,-108.34C387,-91.91 387,-66.79 387,-47.36"/>
<polygon fill="#555555" stroke="#555555" points="390.5,-47.41 387,-37.41 383.5,-47.41 390.5,-47.41"/>
</g>
<!-- CLICK_3 -->
<g id="node8" class="node">
<title>CLICK_3</title>
<ellipse fill="#ffffff" stroke="#000000" cx="459" cy="-126.45" rx="27" ry="18"/>
</g>
<!-- CLICK_3&#45;&gt;stored_node -->
<g id="edge5" class="edge">
<title>CLICK_3&#45;&gt;stored_node</title>
<path fill="none" stroke="#555555" stroke-dasharray="1,5" d="M448.3,-109.53C441.15,-98.9 431.52,-84.6 423,-72 417.05,-63.2 410.53,-53.6 404.7,-45.01"/>
<polygon fill="#555555" stroke="#555555" points="407.21,-43.48 398.69,-37.17 401.42,-47.41 407.21,-43.48"/>
</g>
<!-- CLICK_4 -->
<g id="node9" class="node">
<title>CLICK_4</title>
<ellipse fill="#ffffff" stroke="#000000" cx="531" cy="-126.45" rx="27" ry="18"/>
</g>
<!-- CLICK_4&#45;&gt;stored_node -->
<g id="edge6" class="edge">
<title>CLICK_4&#45;&gt;stored_node</title>
<path fill="none" stroke="#555555" stroke-dasharray="1,5" d="M522.8,-108.81C516.46,-97.31 506.8,-82.29 495,-72 478.38,-57.51 457.09,-45.95 437.82,-37.38"/>
<polygon fill="#555555" stroke="#555555" points="439.53,-33.88 428.96,-33.17 436.78,-40.31 439.53,-33.88"/>
</g>
<!-- CLICK_MORE -->
<g id="node10" class="node">
<title>CLICK_MORE</title>
<ellipse fill="#ffffff" stroke="#000000" cx="171" cy="-126.45" rx="27" ry="18"/>
</g>
<!-- CLICK_MORE&#45;&gt;ChooseFromList -->
<g id="edge7" class="edge">
<title>CLICK_MORE&#45;&gt;ChooseFromList</title>
<path fill="none" stroke="#555555" stroke-dasharray="1,5" d="M165.38,-108.81C159.7,-92.04 150.85,-65.87 144.16,-46.09"/>
<polygon fill="#555555" stroke="#555555" points="147.22,-45.22 140.7,-36.87 140.59,-47.46 147.22,-45.22"/>
</g>
<!-- start -->
<g id="node11" class="node">
<title>start</title>
<ellipse fill="#ffffff" stroke="#000000" cx="603" cy="-126.45" rx="27" ry="18"/>
</g>
<!-- use_p_proc -->
<g id="node12" class="node">
<title>use_p_proc</title>
<ellipse fill="#ffffff" stroke="#000000" cx="783" cy="-126.45" rx="134.88" ry="54.45"/>
<text text-anchor="middle" x="783" y="-147.65" font-family="Times,serif" font-size="14.00">There seems to be a city</text>
<text text-anchor="middle" x="783" y="-130.4" font-family="Times,serif" font-size="14.00">just west of the Military</text>
<text text-anchor="middle" x="783" y="-113.15" font-family="Times,serif" font-size="14.00">Base. You log it on your</text>
<text text-anchor="middle" x="783" y="-95.9" font-family="Times,serif" font-size="14.00">pip boy.</text>
</g>
</g>
</svg>
