<?xml version="1.0" encoding="UTF-8" standalone="no"?>
<!DOCTYPE svg PUBLIC "-//W3C//DTD SVG 1.1//EN"
 "http://www.w3.org/Graphics/SVG/1.1/DTD/svg11.dtd">
<!-- Generated by graphviz version 8.0.5 (0)
 -->
<!-- Title: fcbadpea Pages: 1 -->
<svg width="2022pt" height="407pt"
 viewBox="0.00 0.00 2022.08 406.97" xmlns="http://www.w3.org/2000/svg" xmlns:xlink="http://www.w3.org/1999/xlink">
<g id="graph0" class="graph" transform="scale(1 1) rotate(0) translate(4 402.97)">
<title>fcbadpea</title>
<polygon fill="white" stroke="none" points="-4,4 -4,-402.97 2018.08,-402.97 2018.08,4 -4,4"/>
<!-- checkPartyMembersNearDoor -->
<g id="node1" class="node">
<title>checkPartyMembersNearDoor</title>
<ellipse fill="#ffffff" stroke="#000000" cx="605.08" cy="-295.74" rx="27" ry="18"/>
</g>
<!-- start -->
<g id="node2" class="node">
<title>start</title>
<ellipse fill="#ffffff" stroke="#000000" cx="677.08" cy="-295.74" rx="27" ry="18"/>
</g>
<!-- critter_p_proc -->
<g id="node3" class="node">
<title>critter_p_proc</title>
<ellipse fill="#ffffff" stroke="#000000" cx="749.08" cy="-295.74" rx="27" ry="18"/>
</g>
<!-- pickup_p_proc -->
<g id="node4" class="node">
<title>pickup_p_proc</title>
<ellipse fill="#ffffff" stroke="#000000" cx="821.08" cy="-295.74" rx="27" ry="18"/>
</g>
<!-- talk_p_proc -->
<g id="node5" class="node">
<title>talk_p_proc</title>
<ellipse fill="#ffffff" stroke="#000000" cx="893.08" cy="-138.5" rx="27" ry="18"/>
</g>
<!-- Node008 -->
<g id="node6" class="node">
<title>Node008</title>
<ellipse fill="#ffffff" stroke="#000000" cx="99.08" cy="-42.25" rx="99.08" ry="18"/>
<text text-anchor="middle" x="99.08" y="-37.57" font-family="Times,serif" font-size="14.00">Son of a pig! Die!</text>
</g>
<!-- talk_p_proc&#45;&gt;Node008 -->
<g id="edge1" class="edge">
<title>talk_p_proc&#45;&gt;Node008</title>
<path fill="none" stroke="#555555" stroke-dasharray="1,5" d="M866.1,-136.45C755.43,-131.99 336.16,-113.5 207.08,-84.5 185.67,-79.69 162.85,-71.46 143.72,-63.61"/>
<polygon fill="#555555" stroke="#555555" points="145.37,-60.09 134.8,-59.44 142.66,-66.55 145.37,-60.09"/>
</g>
<!-- Node003 -->
<g id="node7" class="node">
<title>Node003</title>
<ellipse fill="#ffffff" stroke="#000000" cx="335.08" cy="-42.25" rx="118.55" ry="18"/>
<text text-anchor="middle" x="335.08" y="-37.57" font-family="Times,serif" font-size="14.00">Our leader! Stricken!</text>
</g>
<!-- talk_p_proc&#45;&gt;Node003 -->
<g id="edge2" class="edge">
<title>talk_p_proc&#45;&gt;Node003</title>
<path fill="none" stroke="#555555" stroke-dasharray="1,5" d="M866.12,-135.95C797.91,-131.66 613.29,-117.65 463.08,-84.5 438.17,-79 411.21,-70.68 388.48,-62.95"/>
<polygon fill="#555555" stroke="#555555" points="389.95,-59.41 379.36,-59.45 387.67,-66.03 389.95,-59.41"/>
</g>
<!-- Node004 -->
<g id="node8" class="node">
<title>Node004</title>
<ellipse fill="#ffffff" stroke="#000000" cx="601.08" cy="-42.25" rx="129.05" ry="30.05"/>
<text text-anchor="middle" x="601.08" y="-46.2" font-family="Times,serif" font-size="14.00">The Dragon is dead! Lo</text>
<text text-anchor="middle" x="601.08" y="-28.95" font-family="Times,serif" font-size="14.00">Pan is victorious!</text>
</g>
<!-- talk_p_proc&#45;&gt;Node004 -->
<g id="edge3" class="edge">
<title>talk_p_proc&#45;&gt;Node004</title>
<path fill="none" stroke="#555555" stroke-dasharray="1,5" d="M869.19,-129.79C829.51,-116.98 748.21,-90.74 685.48,-70.49"/>
<polygon fill="#555555" stroke="#555555" points="686.78,-66.91 676.19,-67.17 684.63,-73.57 686.78,-66.91"/>
</g>
<!-- Node002 -->
<g id="node9" class="node">
<title>Node002</title>
<ellipse fill="#ffffff" stroke="#000000" cx="893.08" cy="-42.25" rx="145.38" ry="18"/>
<text text-anchor="middle" x="893.08" y="-37.57" font-family="Times,serif" font-size="14.00">Welcome to San Francisco.</text>
</g>
<!-- talk_p_proc&#45;&gt;Node002 -->
<g id="edge4" class="edge">
<title>talk_p_proc&#45;&gt;Node002</title>
<path fill="none" stroke="#555555" stroke-dasharray="1,5" d="M893.08,-120.21C893.08,-106.61 893.08,-87.38 893.08,-71.55"/>
<polygon fill="#555555" stroke="#555555" points="896.58,-71.75 893.08,-61.75 889.58,-71.75 896.58,-71.75"/>
</g>
<!-- Node005 -->
<g id="node10" class="node">
<title>Node005</title>
<ellipse fill="#ffffff" stroke="#000000" cx="1208.08" cy="-42.25" rx="151.85" ry="42.25"/>
<text text-anchor="middle" x="1208.08" y="-54.82" font-family="Times,serif" font-size="14.00">The Emperor&#39;s mouthpiece!</text>
<text text-anchor="middle" x="1208.08" y="-37.57" font-family="Times,serif" font-size="14.00">Dead! The city will fall</text>
<text text-anchor="middle" x="1208.08" y="-20.32" font-family="Times,serif" font-size="14.00">apart!</text>
</g>
<!-- talk_p_proc&#45;&gt;Node005 -->
<g id="edge5" class="edge">
<title>talk_p_proc&#45;&gt;Node005</title>
<path fill="none" stroke="#555555" stroke-dasharray="1,5" d="M917.54,-130.18C955.55,-118.81 1031.14,-96.19 1095.69,-76.88"/>
<polygon fill="#555555" stroke="#555555" points="1096.38,-80.03 1104.95,-73.81 1094.37,-73.32 1096.38,-80.03"/>
</g>
<!-- Node007 -->
<g id="node11" class="node">
<title>Node007</title>
<ellipse fill="#ffffff" stroke="#000000" cx="1509.08" cy="-42.25" rx="131.18" ry="18"/>
<text text-anchor="middle" x="1509.08" y="-37.57" font-family="Times,serif" font-size="14.00">You killed AHS&#45;9? Yeah!</text>
</g>
<!-- talk_p_proc&#45;&gt;Node007 -->
<g id="edge6" class="edge">
<title>talk_p_proc&#45;&gt;Node007</title>
<path fill="none" stroke="#555555" stroke-dasharray="1,5" d="M920.18,-136.15C993.27,-132.16 1200.35,-118.48 1369.08,-84.5 1396.47,-78.98 1426.23,-70.57 1451.25,-62.77"/>
<polygon fill="#555555" stroke="#555555" points="1452.18,-65.83 1460.66,-59.48 1450.07,-59.16 1452.18,-65.83"/>
</g>
<!-- Node001 -->
<g id="node12" class="node">
<title>Node001</title>
<ellipse fill="#ffffff" stroke="#000000" cx="1771.08" cy="-42.25" rx="113.14" ry="30.05"/>
<text text-anchor="middle" x="1771.08" y="-46.2" font-family="Times,serif" font-size="14.00">You&#39;re not a spy, are</text>
<text text-anchor="middle" x="1771.08" y="-28.95" font-family="Times,serif" font-size="14.00">you?</text>
</g>
<!-- talk_p_proc&#45;&gt;Node001 -->
<g id="edge7" class="edge">
<title>talk_p_proc&#45;&gt;Node001</title>
<path fill="none" stroke="#555555" stroke-dasharray="1,5" d="M920.36,-136.52C1038.35,-132.16 1505.25,-113.36 1649.08,-84.5 1665.36,-81.23 1682.45,-76.39 1698.52,-71.17"/>
<polygon fill="#555555" stroke="#555555" points="1699.55,-74.18 1707.92,-67.69 1697.33,-67.54 1699.55,-74.18"/>
</g>
<!-- destroy_p_proc -->
<g id="node13" class="node">
<title>destroy_p_proc</title>
<ellipse fill="#ffffff" stroke="#000000" cx="965.08" cy="-295.74" rx="27" ry="18"/>
</g>
<!-- look_at_p_proc -->
<g id="node14" class="node">
<title>look_at_p_proc</title>
<ellipse fill="#ffffff" stroke="#000000" cx="1151.08" cy="-295.74" rx="140.71" ry="30.05"/>
<text text-anchor="middle" x="1151.08" y="-299.69" font-family="Times,serif" font-size="14.00">You see a person in funny</text>
<text text-anchor="middle" x="1151.08" y="-282.44" font-family="Times,serif" font-size="14.00">pajamas.</text>
</g>
<!-- description_p_proc -->
<g id="node15" class="node">
<title>description_p_proc</title>
<ellipse fill="#ffffff" stroke="#000000" cx="1446.08" cy="-295.74" rx="136.47" ry="103.24"/>
<text text-anchor="middle" x="1446.08" y="-351.44" font-family="Times,serif" font-size="14.00">You see a Shi</text>
<text text-anchor="middle" x="1446.08" y="-334.19" font-family="Times,serif" font-size="14.00">townsperson.</text>
<text text-anchor="middle" x="1446.08" y="-316.94" font-family="Times,serif" font-size="14.00">&#45;&#45;&#45;</text>
<text text-anchor="middle" x="1446.08" y="-299.69" font-family="Times,serif" font-size="14.00">This person looks</text>
<text text-anchor="middle" x="1446.08" y="-282.44" font-family="Times,serif" font-size="14.00">different from anyone</text>
<text text-anchor="middle" x="1446.08" y="-265.19" font-family="Times,serif" font-size="14.00">you&#39;ve seen before. They</text>
<text text-anchor="middle" x="1446.08" y="-247.94" font-family="Times,serif" font-size="14.00">don&#39;t seem to care much</text>
<text text-anchor="middle" x="1446.08" y="-230.69" font-family="Times,serif" font-size="14.00">about you.</text>
</g>
<!-- use_skill_on_p_proc -->
<g id="node16" class="node">
<title>use_skill_on_p_proc</title>
<ellipse fill="#ffffff" stroke="#000000" cx="1627.08" cy="-295.74" rx="27" ry="18"/>
</g>
<!-- damage_p_proc -->
<g id="node17" class="node">
<title>damage_p_proc</title>
<ellipse fill="#ffffff" stroke="#000000" cx="1699.08" cy="-295.74" rx="27" ry="18"/>
</g>
<!-- map_enter_p_proc -->
<g id="node18" class="node">
<title>map_enter_p_proc</title>
<ellipse fill="#ffffff" stroke="#000000" cx="1771.08" cy="-295.74" rx="27" ry="18"/>
</g>
<!-- timed_event_p_proc -->
<g id="node19" class="node">
<title>timed_event_p_proc</title>
<ellipse fill="#ffffff" stroke="#000000" cx="893.08" cy="-295.74" rx="27" ry="18"/>
</g>
<!-- timed_event_p_proc&#45;&gt;talk_p_proc -->
<g id="edge8" class="edge">
<title>timed_event_p_proc&#45;&gt;talk_p_proc</title>
<path fill="none" stroke="#555555" stroke-dasharray="1,5" d="M893.08,-277.53C893.08,-250.95 893.08,-199.65 893.08,-167.63"/>
<polygon fill="#555555" stroke="#555555" points="896.58,-167.78 893.08,-157.78 889.58,-167.78 896.58,-167.78"/>
</g>
<!-- push_p_proc -->
<g id="node20" class="node">
<title>push_p_proc</title>
<ellipse fill="#ffffff" stroke="#000000" cx="1843.08" cy="-295.74" rx="27" ry="18"/>
</g>
<!-- Node998 -->
<g id="node21" class="node">
<title>Node998</title>
<ellipse fill="#ffffff" stroke="#000000" cx="1915.08" cy="-295.74" rx="27" ry="18"/>
</g>
<!-- Node999 -->
<g id="node22" class="node">
<title>Node999</title>
<ellipse fill="#ffffff" stroke="#000000" cx="1987.08" cy="-295.74" rx="27" ry="18"/>
</g>
</g>
</svg>
