<?xml version="1.0" encoding="UTF-8" standalone="no"?>
<!DOCTYPE svg PUBLIC "-//W3C//DTD SVG 1.1//EN"
 "http://www.w3.org/Graphics/SVG/1.1/DTD/svg11.dtd">
<!-- Generated by graphviz version 8.0.5 (0)
 -->
<!-- Title: fcdockid Pages: 1 -->
<svg width="1335pt" height="164pt"
 viewBox="0.00 0.00 1335.00 164.50" xmlns="http://www.w3.org/2000/svg" xmlns:xlink="http://www.w3.org/1999/xlink">
<g id="graph0" class="graph" transform="scale(1 1) rotate(0) translate(4 160.5)">
<title>fcdockid</title>
<polygon fill="white" stroke="none" points="-4,4 -4,-160.5 1331,-160.5 1331,4 -4,4"/>
<!-- checkPartyMembersNearDoor -->
<g id="node1" class="node">
<title>checkPartyMembersNearDoor</title>
<ellipse fill="#ffffff" stroke="#000000" cx="27" cy="-114.25" rx="27" ry="18"/>
</g>
<!-- old_pickup_p_proc -->
<g id="node2" class="node">
<title>old_pickup_p_proc</title>
<ellipse fill="#ffffff" stroke="#000000" cx="99" cy="-18" rx="27" ry="18"/>
</g>
<!-- pickup_p_proc -->
<g id="node3" class="node">
<title>pickup_p_proc</title>
<ellipse fill="#ffffff" stroke="#000000" cx="99" cy="-114.25" rx="27" ry="18"/>
</g>
<!-- pickup_p_proc&#45;&gt;old_pickup_p_proc -->
<g id="edge1" class="edge">
<title>pickup_p_proc&#45;&gt;old_pickup_p_proc</title>
<path fill="none" stroke="#555555" stroke-dasharray="1,5" d="M99,-95.96C99,-82.36 99,-63.13 99,-47.3"/>
<polygon fill="#555555" stroke="#555555" points="102.5,-47.5 99,-37.5 95.5,-47.5 102.5,-47.5"/>
</g>
<!-- start -->
<g id="node4" class="node">
<title>start</title>
<ellipse fill="#ffffff" stroke="#000000" cx="171" cy="-114.25" rx="27" ry="18"/>
</g>
<!-- critter_p_proc -->
<g id="node5" class="node">
<title>critter_p_proc</title>
<ellipse fill="#ffffff" stroke="#000000" cx="243" cy="-114.25" rx="27" ry="18"/>
</g>
<!-- talk_p_proc -->
<g id="node6" class="node">
<title>talk_p_proc</title>
<ellipse fill="#ffffff" stroke="#000000" cx="315" cy="-114.25" rx="27" ry="18"/>
</g>
<!-- Node002 -->
<g id="node7" class="node">
<title>Node002</title>
<ellipse fill="#ffffff" stroke="#000000" cx="279" cy="-18" rx="27" ry="18"/>
</g>
<!-- talk_p_proc&#45;&gt;Node002 -->
<g id="edge2" class="edge">
<title>talk_p_proc&#45;&gt;Node002</title>
<path fill="none" stroke="#555555" stroke-dasharray="1,5" d="M308.56,-96.4C303.19,-82.33 295.43,-62.01 289.21,-45.72"/>
<polygon fill="#555555" stroke="#555555" points="292.22,-44.8 285.38,-36.7 285.68,-47.29 292.22,-44.8"/>
</g>
<!-- Node001 -->
<g id="node8" class="node">
<title>Node001</title>
<ellipse fill="#ffffff" stroke="#000000" cx="351" cy="-18" rx="27" ry="18"/>
</g>
<!-- talk_p_proc&#45;&gt;Node001 -->
<g id="edge3" class="edge">
<title>talk_p_proc&#45;&gt;Node001</title>
<path fill="none" stroke="#555555" stroke-dasharray="1,5" d="M321.44,-96.4C326.81,-82.33 334.57,-62.01 340.79,-45.72"/>
<polygon fill="#555555" stroke="#555555" points="344.32,-47.29 344.62,-36.7 337.78,-44.8 344.32,-47.29"/>
</g>
<!-- destroy_p_proc -->
<g id="node9" class="node">
<title>destroy_p_proc</title>
<ellipse fill="#ffffff" stroke="#000000" cx="387" cy="-114.25" rx="27" ry="18"/>
</g>
<!-- look_at_p_proc -->
<g id="node10" class="node">
<title>look_at_p_proc</title>
<ellipse fill="#ffffff" stroke="#000000" cx="539" cy="-114.25" rx="106.77" ry="42.25"/>
<text text-anchor="middle" x="539" y="-126.82" font-family="Times,serif" font-size="14.00">You see a kid.</text>
<text text-anchor="middle" x="539" y="-109.57" font-family="Times,serif" font-size="14.00">&#45;&#45;&#45;</text>
<text text-anchor="middle" x="539" y="-92.32" font-family="Times,serif" font-size="14.00">You see a dock kid.</text>
</g>
<!-- description_p_proc -->
<g id="node11" class="node">
<title>description_p_proc</title>
<ellipse fill="#ffffff" stroke="#000000" cx="743" cy="-114.25" rx="79.62" ry="18"/>
<text text-anchor="middle" x="743" y="-109.57" font-family="Times,serif" font-size="14.00">You see a kid.</text>
</g>
<!-- use_skill_on_p_proc -->
<g id="node12" class="node">
<title>use_skill_on_p_proc</title>
<ellipse fill="#ffffff" stroke="#000000" cx="868" cy="-114.25" rx="27" ry="18"/>
</g>
<!-- damage_p_proc -->
<g id="node13" class="node">
<title>damage_p_proc</title>
<ellipse fill="#ffffff" stroke="#000000" cx="940" cy="-114.25" rx="27" ry="18"/>
</g>
<!-- map_enter_p_proc -->
<g id="node14" class="node">
<title>map_enter_p_proc</title>
<ellipse fill="#ffffff" stroke="#000000" cx="1012" cy="-114.25" rx="27" ry="18"/>
</g>
<!-- push_p_proc -->
<g id="node15" class="node">
<title>push_p_proc</title>
<ellipse fill="#ffffff" stroke="#000000" cx="1084" cy="-114.25" rx="27" ry="18"/>
</g>
<!-- Node998 -->
<g id="node16" class="node">
<title>Node998</title>
<ellipse fill="#ffffff" stroke="#000000" cx="1156" cy="-114.25" rx="27" ry="18"/>
</g>
<!-- Node999 -->
<g id="node17" class="node">
<title>Node999</title>
<ellipse fill="#ffffff" stroke="#000000" cx="1228" cy="-114.25" rx="27" ry="18"/>
</g>
<!-- timed_event_p_proc -->
<g id="node18" class="node">
<title>timed_event_p_proc</title>
<ellipse fill="#ffffff" stroke="#000000" cx="1300" cy="-114.25" rx="27" ry="18"/>
</g>
</g>
</svg>
