<?xml version="1.0" encoding="UTF-8" standalone="no"?>
<!DOCTYPE svg PUBLIC "-//W3C//DTD SVG 1.1//EN"
 "http://www.w3.org/Graphics/SVG/1.1/DTD/svg11.dtd">
<!-- Generated by graphviz version 8.0.5 (0)
 -->
<!-- Title: fcelgrd Pages: 1 -->
<svg width="1402pt" height="262pt"
 viewBox="0.00 0.00 1402.00 261.79" xmlns="http://www.w3.org/2000/svg" xmlns:xlink="http://www.w3.org/1999/xlink">
<g id="graph0" class="graph" transform="scale(1 1) rotate(0) translate(4 257.79)">
<title>fcelgrd</title>
<polygon fill="white" stroke="none" points="-4,4 -4,-257.79 1398,-257.79 1398,4 -4,4"/>
<!-- checkPartyMembersNearDoor -->
<g id="node1" class="node">
<title>checkPartyMembersNearDoor</title>
<ellipse fill="#ffffff" stroke="#000000" cx="27" cy="-187.14" rx="27" ry="18"/>
</g>
<!-- start -->
<g id="node2" class="node">
<title>start</title>
<ellipse fill="#ffffff" stroke="#000000" cx="99" cy="-187.14" rx="27" ry="18"/>
</g>
<!-- critter_p_proc -->
<g id="node3" class="node">
<title>critter_p_proc</title>
<ellipse fill="#ffffff" stroke="#000000" cx="171" cy="-187.14" rx="27" ry="18"/>
</g>
<!-- pickup_p_proc -->
<g id="node4" class="node">
<title>pickup_p_proc</title>
<ellipse fill="#ffffff" stroke="#000000" cx="243" cy="-187.14" rx="27" ry="18"/>
</g>
<!-- talk_p_proc -->
<g id="node5" class="node">
<title>talk_p_proc</title>
<ellipse fill="#ffffff" stroke="#000000" cx="315" cy="-187.14" rx="27" ry="18"/>
</g>
<!-- Node001 -->
<g id="node6" class="node">
<title>Node001</title>
<ellipse fill="#ffffff" stroke="#000000" cx="188" cy="-42.25" rx="27" ry="18"/>
</g>
<!-- talk_p_proc&#45;&gt;Node001 -->
<g id="edge1" class="edge">
<title>talk_p_proc&#45;&gt;Node001</title>
<path fill="none" stroke="#555555" stroke-dasharray="1,5" d="M308.53,-169.34C302.46,-155.16 292.33,-134.91 279,-120.5 259.16,-99.05 246.03,-103.68 224,-84.5 217.89,-79.18 211.86,-72.83 206.53,-66.72"/>
<polygon fill="#555555" stroke="#555555" points="208.87,-65.07 199.75,-59.67 203.51,-69.57 208.87,-65.07"/>
</g>
<!-- Node002 -->
<g id="node7" class="node">
<title>Node002</title>
<ellipse fill="#ffffff" stroke="#000000" cx="260" cy="-42.25" rx="27" ry="18"/>
</g>
<!-- talk_p_proc&#45;&gt;Node002 -->
<g id="edge2" class="edge">
<title>talk_p_proc&#45;&gt;Node002</title>
<path fill="none" stroke="#555555" stroke-dasharray="1,5" d="M308.47,-169.19C299.05,-144.7 281.52,-99.17 270.33,-70.08"/>
<polygon fill="#555555" stroke="#555555" points="273.38,-69.26 266.52,-61.18 266.84,-71.77 273.38,-69.26"/>
</g>
<!-- Node003 -->
<g id="node8" class="node">
<title>Node003</title>
<ellipse fill="#ffffff" stroke="#000000" cx="369" cy="-42.25" rx="64.35" ry="42.25"/>
<text text-anchor="middle" x="369" y="-54.82" font-family="Times,serif" font-size="14.00">Greetings,</text>
<text text-anchor="middle" x="369" y="-37.57" font-family="Times,serif" font-size="14.00">&#45;&#45;&#45;</text>
<text text-anchor="middle" x="369" y="-20.32" font-family="Times,serif" font-size="14.00">.</text>
</g>
<!-- talk_p_proc&#45;&gt;Node003 -->
<g id="edge3" class="edge">
<title>talk_p_proc&#45;&gt;Node003</title>
<path fill="none" stroke="#555555" stroke-dasharray="1,5" d="M321.41,-169.19C328.39,-150.72 339.89,-120.29 349.83,-93.97"/>
<polygon fill="#555555" stroke="#555555" points="353.44,-95.33 353.7,-84.74 346.89,-92.86 353.44,-95.33"/>
</g>
<!-- DoCallGuards -->
<g id="node9" class="node">
<title>DoCallGuards</title>
<ellipse fill="#ffffff" stroke="#000000" cx="478" cy="-42.25" rx="27" ry="18"/>
</g>
<!-- talk_p_proc&#45;&gt;DoCallGuards -->
<g id="edge4" class="edge">
<title>talk_p_proc&#45;&gt;DoCallGuards</title>
<path fill="none" stroke="#555555" stroke-dasharray="1,5" d="M320.55,-169.2C326.14,-154.53 336.09,-133.66 351,-120.5 383.61,-91.72 406.47,-109.59 442,-84.5 448.73,-79.75 455.02,-73.49 460.41,-67.29"/>
<polygon fill="#555555" stroke="#555555" points="463.55,-69.98 467.15,-60.01 458.12,-65.56 463.55,-69.98"/>
</g>
<!-- destroy_p_proc -->
<g id="node10" class="node">
<title>destroy_p_proc</title>
<ellipse fill="#ffffff" stroke="#000000" cx="387" cy="-187.14" rx="27" ry="18"/>
</g>
<!-- look_at_p_proc -->
<g id="node11" class="node">
<title>look_at_p_proc</title>
<ellipse fill="#ffffff" stroke="#000000" cx="555" cy="-187.14" rx="123.21" ry="66.64"/>
<text text-anchor="middle" x="555" y="-216.97" font-family="Times,serif" font-size="14.00">You see a well&#45;armed</text>
<text text-anchor="middle" x="555" y="-199.72" font-family="Times,serif" font-size="14.00">guard.</text>
<text text-anchor="middle" x="555" y="-182.47" font-family="Times,serif" font-size="14.00">&#45;&#45;&#45;</text>
<text text-anchor="middle" x="555" y="-165.22" font-family="Times,serif" font-size="14.00">You see an Hubologist</text>
<text text-anchor="middle" x="555" y="-147.97" font-family="Times,serif" font-size="14.00">guard.</text>
</g>
<!-- description_p_proc -->
<g id="node12" class="node">
<title>description_p_proc</title>
<ellipse fill="#ffffff" stroke="#000000" cx="829" cy="-187.14" rx="132.76" ry="42.25"/>
<text text-anchor="middle" x="829" y="-199.72" font-family="Times,serif" font-size="14.00">You see a well&#45;armed</text>
<text text-anchor="middle" x="829" y="-182.47" font-family="Times,serif" font-size="14.00">person with a cruel look</text>
<text text-anchor="middle" x="829" y="-165.22" font-family="Times,serif" font-size="14.00">to the eyes.</text>
</g>
<!-- use_skill_on_p_proc -->
<g id="node13" class="node">
<title>use_skill_on_p_proc</title>
<ellipse fill="#ffffff" stroke="#000000" cx="1007" cy="-187.14" rx="27" ry="18"/>
</g>
<!-- damage_p_proc -->
<g id="node14" class="node">
<title>damage_p_proc</title>
<ellipse fill="#ffffff" stroke="#000000" cx="1079" cy="-187.14" rx="27" ry="18"/>
</g>
<!-- map_enter_p_proc -->
<g id="node15" class="node">
<title>map_enter_p_proc</title>
<ellipse fill="#ffffff" stroke="#000000" cx="1151" cy="-187.14" rx="27" ry="18"/>
</g>
<!-- timed_event_p_proc -->
<g id="node16" class="node">
<title>timed_event_p_proc</title>
<ellipse fill="#ffffff" stroke="#000000" cx="1223" cy="-187.14" rx="27" ry="18"/>
</g>
<!-- Node998 -->
<g id="node17" class="node">
<title>Node998</title>
<ellipse fill="#ffffff" stroke="#000000" cx="1295" cy="-187.14" rx="27" ry="18"/>
</g>
<!-- Node999 -->
<g id="node18" class="node">
<title>Node999</title>
<ellipse fill="#ffffff" stroke="#000000" cx="1367" cy="-187.14" rx="27" ry="18"/>
</g>
</g>
</svg>
