<?xml version="1.0" encoding="UTF-8" standalone="no"?>
<!DOCTYPE svg PUBLIC "-//W3C//DTD SVG 1.1//EN"
 "http://www.w3.org/Graphics/SVG/1.1/DTD/svg11.dtd">
<!-- Generated by graphviz version 8.0.5 (0)
 -->
<!-- Title: icMrcCpt Pages: 1 -->
<svg width="1320pt" height="212pt"
 viewBox="0.00 0.00 1320.00 212.10" xmlns="http://www.w3.org/2000/svg" xmlns:xlink="http://www.w3.org/1999/xlink">
<g id="graph0" class="graph" transform="scale(1 1) rotate(0) translate(4 208.1)">
<title>icMrcCpt</title>
<polygon fill="white" stroke="none" points="-4,4 -4,-208.1 1316,-208.1 1316,4 -4,4"/>
<!-- checkPartyMembersNearDoor -->
<g id="node1" class="node">
<title>checkPartyMembersNearDoor</title>
<ellipse fill="#ffffff" stroke="#000000" cx="27" cy="-174.05" rx="27" ry="18"/>
</g>
<!-- start -->
<g id="node2" class="node">
<title>start</title>
<ellipse fill="#ffffff" stroke="#000000" cx="99" cy="-174.05" rx="27" ry="18"/>
</g>
<!-- critter_p_proc -->
<g id="node3" class="node">
<title>critter_p_proc</title>
<ellipse fill="#ffffff" stroke="#000000" cx="171" cy="-174.05" rx="27" ry="18"/>
</g>
<!-- Node998 -->
<g id="node4" class="node">
<title>Node998</title>
<ellipse fill="#ffffff" stroke="#000000" cx="279" cy="-90" rx="27" ry="18"/>
</g>
<!-- critter_p_proc&#45;&gt;Node998 -->
<g id="edge1" class="edge">
<title>critter_p_proc&#45;&gt;Node998</title>
<path fill="none" stroke="#555555" stroke-dasharray="1,5" d="M187.37,-159.59C193.48,-154.63 200.51,-149 207,-144 221.78,-132.6 238.56,-120.22 252.2,-110.29"/>
<polygon fill="#555555" stroke="#555555" points="254.04,-112.56 260.08,-103.85 249.93,-106.89 254.04,-112.56"/>
</g>
<!-- Node001 -->
<g id="node18" class="node">
<title>Node001</title>
<ellipse fill="#ffffff" stroke="#000000" cx="279" cy="-18" rx="27" ry="18"/>
</g>
<!-- Node998&#45;&gt;Node001 -->
<g id="edge6" class="edge">
<title>Node998&#45;&gt;Node001</title>
<path fill="none" stroke="#555555" stroke-dasharray="1,5" d="M279,-71.7C279,-64.24 279,-55.32 279,-46.97"/>
<polygon fill="#555555" stroke="#555555" points="282.5,-47.1 279,-37.1 275.5,-47.1 282.5,-47.1"/>
</g>
<!-- pickup_p_proc -->
<g id="node5" class="node">
<title>pickup_p_proc</title>
<ellipse fill="#ffffff" stroke="#000000" cx="243" cy="-174.05" rx="27" ry="18"/>
</g>
<!-- pickup_p_proc&#45;&gt;Node998 -->
<g id="edge2" class="edge">
<title>pickup_p_proc&#45;&gt;Node998</title>
<path fill="none" stroke="#555555" stroke-dasharray="1,5" d="M250.29,-156.45C255.21,-145.21 261.83,-130.14 267.46,-117.29"/>
<polygon fill="#555555" stroke="#555555" points="270.91,-119.14 271.73,-108.58 264.5,-116.33 270.91,-119.14"/>
</g>
<!-- talk_p_proc -->
<g id="node6" class="node">
<title>talk_p_proc</title>
<ellipse fill="#ffffff" stroke="#000000" cx="459" cy="-174.05" rx="27" ry="18"/>
</g>
<!-- destroy_p_proc -->
<g id="node7" class="node">
<title>destroy_p_proc</title>
<ellipse fill="#ffffff" stroke="#000000" cx="531" cy="-174.05" rx="27" ry="18"/>
</g>
<!-- look_at_p_proc -->
<g id="node8" class="node">
<title>look_at_p_proc</title>
<ellipse fill="#ffffff" stroke="#000000" cx="692" cy="-174.05" rx="115.79" ry="30.05"/>
<text text-anchor="middle" x="692" y="-178" font-family="Times,serif" font-size="14.00">You see a mercenary</text>
<text text-anchor="middle" x="692" y="-160.75" font-family="Times,serif" font-size="14.00">captain.</text>
</g>
<!-- description_p_proc -->
<g id="node9" class="node">
<title>description_p_proc</title>
<ellipse fill="#ffffff" stroke="#000000" cx="853" cy="-174.05" rx="27" ry="18"/>
</g>
<!-- use_skill_on_p_proc -->
<g id="node10" class="node">
<title>use_skill_on_p_proc</title>
<ellipse fill="#ffffff" stroke="#000000" cx="925" cy="-174.05" rx="27" ry="18"/>
</g>
<!-- damage_p_proc -->
<g id="node11" class="node">
<title>damage_p_proc</title>
<ellipse fill="#ffffff" stroke="#000000" cx="997" cy="-174.05" rx="27" ry="18"/>
</g>
<!-- map_enter_p_proc -->
<g id="node12" class="node">
<title>map_enter_p_proc</title>
<ellipse fill="#ffffff" stroke="#000000" cx="1069" cy="-174.05" rx="27" ry="18"/>
</g>
<!-- timed_event_p_proc -->
<g id="node13" class="node">
<title>timed_event_p_proc</title>
<ellipse fill="#ffffff" stroke="#000000" cx="387" cy="-174.05" rx="27" ry="18"/>
</g>
<!-- timed_event_p_proc&#45;&gt;Node998 -->
<g id="edge4" class="edge">
<title>timed_event_p_proc&#45;&gt;Node998</title>
<path fill="none" stroke="#555555" stroke-dasharray="1,5" d="M370.63,-159.59C364.52,-154.63 357.49,-149 351,-144 336.22,-132.6 319.44,-120.22 305.8,-110.29"/>
<polygon fill="#555555" stroke="#555555" points="308.07,-106.89 297.92,-103.85 303.96,-112.56 308.07,-106.89"/>
</g>
<!-- Node002 -->
<g id="node14" class="node">
<title>Node002</title>
<ellipse fill="#ffffff" stroke="#000000" cx="387" cy="-90" rx="27" ry="18"/>
</g>
<!-- timed_event_p_proc&#45;&gt;Node002 -->
<g id="edge3" class="edge">
<title>timed_event_p_proc&#45;&gt;Node002</title>
<path fill="none" stroke="#555555" stroke-dasharray="1,5" d="M387,-155.65C387,-145.1 387,-131.38 387,-119.3"/>
<polygon fill="#555555" stroke="#555555" points="390.5,-119.38 387,-109.38 383.5,-119.38 390.5,-119.38"/>
</g>
<!-- map_update_p_proc -->
<g id="node15" class="node">
<title>map_update_p_proc</title>
<ellipse fill="#ffffff" stroke="#000000" cx="1141" cy="-174.05" rx="27" ry="18"/>
</g>
<!-- combat_p_proc -->
<g id="node16" class="node">
<title>combat_p_proc</title>
<ellipse fill="#ffffff" stroke="#000000" cx="1213" cy="-174.05" rx="27" ry="18"/>
</g>
<!-- push_p_proc -->
<g id="node17" class="node">
<title>push_p_proc</title>
<ellipse fill="#ffffff" stroke="#000000" cx="315" cy="-174.05" rx="27" ry="18"/>
</g>
<!-- push_p_proc&#45;&gt;Node998 -->
<g id="edge5" class="edge">
<title>push_p_proc&#45;&gt;Node998</title>
<path fill="none" stroke="#555555" stroke-dasharray="1,5" d="M307.71,-156.45C302.79,-145.21 296.17,-130.14 290.54,-117.29"/>
<polygon fill="#555555" stroke="#555555" points="293.5,-116.33 286.27,-108.58 287.09,-119.14 293.5,-116.33"/>
</g>
<!-- Node999 -->
<g id="node19" class="node">
<title>Node999</title>
<ellipse fill="#ffffff" stroke="#000000" cx="1285" cy="-174.05" rx="27" ry="18"/>
</g>
</g>
</svg>
