<?xml version="1.0" encoding="UTF-8" standalone="no"?>
<!DOCTYPE svg PUBLIC "-//W3C//DTD SVG 1.1//EN"
 "http://www.w3.org/Graphics/SVG/1.1/DTD/svg11.dtd">
<!-- Generated by graphviz version 8.0.5 (0)
 -->
<!-- Title: ncSheb Pages: 1 -->
<svg width="1801pt" height="359pt"
 viewBox="0.00 0.00 1801.00 359.37" xmlns="http://www.w3.org/2000/svg" xmlns:xlink="http://www.w3.org/1999/xlink">
<g id="graph0" class="graph" transform="scale(1 1) rotate(0) translate(4 355.37)">
<title>ncSheb</title>
<polygon fill="white" stroke="none" points="-4,4 -4,-355.37 1797,-355.37 1797,4 -4,4"/>
<!-- checkPartyMembersNearDoor -->
<g id="node1" class="node">
<title>checkPartyMembersNearDoor</title>
<ellipse fill="#ffffff" stroke="#000000" cx="27" cy="-272.53" rx="27" ry="18"/>
</g>
<!-- ChooseFromList -->
<g id="node2" class="node">
<title>ChooseFromList</title>
<ellipse fill="#ffffff" stroke="#000000" cx="149" cy="-78.84" rx="141.24" ry="78.84"/>
<text text-anchor="middle" x="149" y="-117.29" font-family="Times,serif" font-size="14.00">You see a scrawny man in</text>
<text text-anchor="middle" x="149" y="-100.04" font-family="Times,serif" font-size="14.00">bright blue clothes. As</text>
<text text-anchor="middle" x="149" y="-82.79" font-family="Times,serif" font-size="14.00">if his clothes weren&#39;t</text>
<text text-anchor="middle" x="149" y="-65.54" font-family="Times,serif" font-size="14.00">loud enough, he is also</text>
<text text-anchor="middle" x="149" y="-48.29" font-family="Times,serif" font-size="14.00">bellowing at the top of</text>
<text text-anchor="middle" x="149" y="-31.04" font-family="Times,serif" font-size="14.00">his lungs.</text>
</g>
<!-- CLICK_PREV -->
<g id="node3" class="node">
<title>CLICK_PREV</title>
<ellipse fill="#ffffff" stroke="#000000" cx="99" cy="-272.53" rx="27" ry="18"/>
</g>
<!-- CLICK_PREV&#45;&gt;ChooseFromList -->
<g id="edge1" class="edge">
<title>CLICK_PREV&#45;&gt;ChooseFromList</title>
<path fill="none" stroke="#555555" stroke-dasharray="1,5" d="M103.44,-254.52C108.59,-234.76 117.49,-200.65 126.06,-167.79"/>
<polygon fill="#555555" stroke="#555555" points="129.69,-168.75 128.82,-158.19 122.91,-166.98 129.69,-168.75"/>
</g>
<!-- CLICK_0 -->
<g id="node4" class="node">
<title>CLICK_0</title>
<ellipse fill="#ffffff" stroke="#000000" cx="264" cy="-272.53" rx="27" ry="18"/>
</g>
<!-- stored_node -->
<g id="node5" class="node">
<title>stored_node</title>
<ellipse fill="none" stroke="black" cx="408" cy="-78.84" rx="72.25" ry="18"/>
<text text-anchor="middle" x="408" y="-74.17" font-family="Times,serif" font-size="14.00">stored_node</text>
</g>
<!-- CLICK_0&#45;&gt;stored_node -->
<g id="edge2" class="edge">
<title>CLICK_0&#45;&gt;stored_node</title>
<path fill="none" stroke="#555555" stroke-dasharray="1,5" d="M269.98,-254.6C276.17,-238.24 286.79,-213.15 300,-193.68 323.4,-159.2 357.39,-125.28 380.97,-103.56"/>
<polygon fill="#555555" stroke="#555555" points="382.79,-106.73 387.84,-97.41 378.08,-101.55 382.79,-106.73"/>
</g>
<!-- CLICK_1 -->
<g id="node6" class="node">
<title>CLICK_1</title>
<ellipse fill="#ffffff" stroke="#000000" cx="336" cy="-272.53" rx="27" ry="18"/>
</g>
<!-- CLICK_1&#45;&gt;stored_node -->
<g id="edge3" class="edge">
<title>CLICK_1&#45;&gt;stored_node</title>
<path fill="none" stroke="#555555" stroke-dasharray="1,5" d="M342.26,-254.85C354.67,-221.81 382.5,-147.74 397.66,-107.37"/>
<polygon fill="#555555" stroke="#555555" points="401.25,-108.76 401.49,-98.17 394.7,-106.3 401.25,-108.76"/>
</g>
<!-- CLICK_2 -->
<g id="node7" class="node">
<title>CLICK_2</title>
<ellipse fill="#ffffff" stroke="#000000" cx="408" cy="-272.53" rx="27" ry="18"/>
</g>
<!-- CLICK_2&#45;&gt;stored_node -->
<g id="edge4" class="edge">
<title>CLICK_2&#45;&gt;stored_node</title>
<path fill="none" stroke="#555555" stroke-dasharray="1,5" d="M408,-254.18C408,-221.05 408,-148.49 408,-108.21"/>
<polygon fill="#555555" stroke="#555555" points="411.5,-108.29 408,-98.29 404.5,-108.29 411.5,-108.29"/>
</g>
<!-- CLICK_3 -->
<g id="node8" class="node">
<title>CLICK_3</title>
<ellipse fill="#ffffff" stroke="#000000" cx="480" cy="-272.53" rx="27" ry="18"/>
</g>
<!-- CLICK_3&#45;&gt;stored_node -->
<g id="edge5" class="edge">
<title>CLICK_3&#45;&gt;stored_node</title>
<path fill="none" stroke="#555555" stroke-dasharray="1,5" d="M473.74,-254.85C461.33,-221.81 433.5,-147.74 418.34,-107.37"/>
<polygon fill="#555555" stroke="#555555" points="421.3,-106.3 414.51,-98.17 414.75,-108.76 421.3,-106.3"/>
</g>
<!-- CLICK_4 -->
<g id="node9" class="node">
<title>CLICK_4</title>
<ellipse fill="#ffffff" stroke="#000000" cx="552" cy="-272.53" rx="27" ry="18"/>
</g>
<!-- CLICK_4&#45;&gt;stored_node -->
<g id="edge6" class="edge">
<title>CLICK_4&#45;&gt;stored_node</title>
<path fill="none" stroke="#555555" stroke-dasharray="1,5" d="M546.02,-254.6C539.83,-238.24 529.21,-213.15 516,-193.68 492.6,-159.2 458.61,-125.28 435.03,-103.56"/>
<polygon fill="#555555" stroke="#555555" points="437.92,-101.55 428.16,-97.41 433.21,-106.73 437.92,-101.55"/>
</g>
<!-- CLICK_MORE -->
<g id="node10" class="node">
<title>CLICK_MORE</title>
<ellipse fill="#ffffff" stroke="#000000" cx="171" cy="-272.53" rx="27" ry="18"/>
</g>
<!-- CLICK_MORE&#45;&gt;ChooseFromList -->
<g id="edge7" class="edge">
<title>CLICK_MORE&#45;&gt;ChooseFromList</title>
<path fill="none" stroke="#555555" stroke-dasharray="1,5" d="M169.01,-254.18C166.76,-234.56 162.92,-201.1 159.2,-168.71"/>
<polygon fill="#555555" stroke="#555555" points="162.56,-168.33 157.95,-158.79 155.61,-169.13 162.56,-168.33"/>
</g>
<!-- start -->
<g id="node11" class="node">
<title>start</title>
<ellipse fill="#ffffff" stroke="#000000" cx="624" cy="-272.53" rx="27" ry="18"/>
</g>
<!-- critter_p_proc -->
<g id="node12" class="node">
<title>critter_p_proc</title>
<ellipse fill="#ffffff" stroke="#000000" cx="696" cy="-272.53" rx="27" ry="18"/>
</g>
<!-- pickup_p_proc -->
<g id="node13" class="node">
<title>pickup_p_proc</title>
<ellipse fill="#ffffff" stroke="#000000" cx="768" cy="-272.53" rx="27" ry="18"/>
</g>
<!-- Node998 -->
<g id="node14" class="node">
<title>Node998</title>
<ellipse fill="#ffffff" stroke="#000000" cx="768" cy="-78.84" rx="27" ry="18"/>
</g>
<!-- pickup_p_proc&#45;&gt;Node998 -->
<g id="edge8" class="edge">
<title>pickup_p_proc&#45;&gt;Node998</title>
<path fill="none" stroke="#555555" stroke-dasharray="1,5" d="M768,-254.18C768,-221.05 768,-148.49 768,-108.21"/>
<polygon fill="#555555" stroke="#555555" points="771.5,-108.29 768,-98.29 764.5,-108.29 771.5,-108.29"/>
</g>
<!-- talk_p_proc -->
<g id="node15" class="node">
<title>talk_p_proc</title>
<ellipse fill="#ffffff" stroke="#000000" cx="840" cy="-272.53" rx="27" ry="18"/>
</g>
<!-- Node001 -->
<g id="node16" class="node">
<title>Node001</title>
<ellipse fill="#ffffff" stroke="#000000" cx="876" cy="-78.84" rx="27" ry="18"/>
</g>
<!-- talk_p_proc&#45;&gt;Node001 -->
<g id="edge9" class="edge">
<title>talk_p_proc&#45;&gt;Node001</title>
<path fill="none" stroke="#555555" stroke-dasharray="1,5" d="M843.26,-254.18C849.51,-220.89 863.24,-147.81 870.78,-107.64"/>
<polygon fill="#555555" stroke="#555555" points="874.37,-108.49 872.78,-98.01 867.49,-107.2 874.37,-108.49"/>
</g>
<!-- destroy_p_proc -->
<g id="node17" class="node">
<title>destroy_p_proc</title>
<ellipse fill="#ffffff" stroke="#000000" cx="984" cy="-272.53" rx="27" ry="18"/>
</g>
<!-- look_at_p_proc -->
<g id="node18" class="node">
<title>look_at_p_proc</title>
<ellipse fill="#ffffff" stroke="#000000" cx="1117" cy="-272.53" rx="87.51" ry="18"/>
<text text-anchor="middle" x="1117" y="-267.85" font-family="Times,serif" font-size="14.00">You see…Sheb.</text>
</g>
<!-- description_p_proc -->
<g id="node19" class="node">
<title>description_p_proc</title>
<ellipse fill="#ffffff" stroke="#000000" cx="1364" cy="-272.53" rx="141.24" ry="78.84"/>
<text text-anchor="middle" x="1364" y="-310.98" font-family="Times,serif" font-size="14.00">You see a scrawny man in</text>
<text text-anchor="middle" x="1364" y="-293.73" font-family="Times,serif" font-size="14.00">bright blue clothes. As</text>
<text text-anchor="middle" x="1364" y="-276.48" font-family="Times,serif" font-size="14.00">if his clothes weren&#39;t</text>
<text text-anchor="middle" x="1364" y="-259.23" font-family="Times,serif" font-size="14.00">loud enough, he is also</text>
<text text-anchor="middle" x="1364" y="-241.98" font-family="Times,serif" font-size="14.00">bellowing at the top of</text>
<text text-anchor="middle" x="1364" y="-224.73" font-family="Times,serif" font-size="14.00">his lungs.</text>
</g>
<!-- use_skill_on_p_proc -->
<g id="node20" class="node">
<title>use_skill_on_p_proc</title>
<ellipse fill="#ffffff" stroke="#000000" cx="1550" cy="-272.53" rx="27" ry="18"/>
</g>
<!-- damage_p_proc -->
<g id="node21" class="node">
<title>damage_p_proc</title>
<ellipse fill="#ffffff" stroke="#000000" cx="1622" cy="-272.53" rx="27" ry="18"/>
</g>
<!-- map_enter_p_proc -->
<g id="node22" class="node">
<title>map_enter_p_proc</title>
<ellipse fill="#ffffff" stroke="#000000" cx="1694" cy="-272.53" rx="27" ry="18"/>
</g>
<!-- timed_event_p_proc -->
<g id="node23" class="node">
<title>timed_event_p_proc</title>
<ellipse fill="#ffffff" stroke="#000000" cx="912" cy="-272.53" rx="27" ry="18"/>
</g>
<!-- timed_event_p_proc&#45;&gt;Node001 -->
<g id="edge10" class="edge">
<title>timed_event_p_proc&#45;&gt;Node001</title>
<path fill="none" stroke="#555555" stroke-dasharray="1,5" d="M908.74,-254.18C902.49,-220.89 888.76,-147.81 881.22,-107.64"/>
<polygon fill="#555555" stroke="#555555" points="884.51,-107.2 879.22,-98.01 877.63,-108.49 884.51,-107.2"/>
</g>
<!-- Node999 -->
<g id="node24" class="node">
<title>Node999</title>
<ellipse fill="#ffffff" stroke="#000000" cx="1766" cy="-272.53" rx="27" ry="18"/>
</g>
</g>
</svg>
