<?xml version="1.0" encoding="UTF-8" standalone="no"?>
<!DOCTYPE svg PUBLIC "-//W3C//DTD SVG 1.1//EN"
 "http://www.w3.org/Graphics/SVG/1.1/DTD/svg11.dtd">
<!-- Generated by graphviz version 8.0.5 (0)
 -->
<!-- Title: ncSlave Pages: 1 -->
<svg width="3844pt" height="433pt"
 viewBox="0.00 0.00 3843.71 432.56" xmlns="http://www.w3.org/2000/svg" xmlns:xlink="http://www.w3.org/1999/xlink">
<g id="graph0" class="graph" transform="scale(1 1) rotate(0) translate(4 428.56)">
<title>ncSlave</title>
<polygon fill="white" stroke="none" points="-4,4 -4,-428.56 3839.71,-428.56 3839.71,4 -4,4"/>
<!-- checkPartyMembersNearDoor -->
<g id="node1" class="node">
<title>checkPartyMembersNearDoor</title>
<ellipse fill="#ffffff" stroke="#000000" cx="27" cy="-357.91" rx="27" ry="18"/>
</g>
<!-- ChooseFromList -->
<g id="node2" class="node">
<title>ChooseFromList</title>
<ellipse fill="#ffffff" stroke="#000000" cx="148" cy="-127.63" rx="145.49" ry="127.63"/>
<text text-anchor="middle" x="148" y="-200.58" font-family="Times,serif" font-size="14.00">You see a broken looking</text>
<text text-anchor="middle" x="148" y="-183.33" font-family="Times,serif" font-size="14.00">man. His eyes dart around</text>
<text text-anchor="middle" x="148" y="-166.08" font-family="Times,serif" font-size="14.00">the area, as if following</text>
<text text-anchor="middle" x="148" y="-148.83" font-family="Times,serif" font-size="14.00">some invisible insect.</text>
<text text-anchor="middle" x="148" y="-131.58" font-family="Times,serif" font-size="14.00">&#45;&#45;&#45;</text>
<text text-anchor="middle" x="148" y="-114.33" font-family="Times,serif" font-size="14.00">You see a sickly slave.</text>
<text text-anchor="middle" x="148" y="-97.08" font-family="Times,serif" font-size="14.00">He looks terribly</text>
<text text-anchor="middle" x="148" y="-79.83" font-family="Times,serif" font-size="14.00">frightened, and his eyes</text>
<text text-anchor="middle" x="148" y="-62.58" font-family="Times,serif" font-size="14.00">seem unable to focus on</text>
<text text-anchor="middle" x="148" y="-45.33" font-family="Times,serif" font-size="14.00">you.</text>
</g>
<!-- CLICK_PREV -->
<g id="node3" class="node">
<title>CLICK_PREV</title>
<ellipse fill="#ffffff" stroke="#000000" cx="99" cy="-357.91" rx="27" ry="18"/>
</g>
<!-- CLICK_PREV&#45;&gt;ChooseFromList -->
<g id="edge1" class="edge">
<title>CLICK_PREV&#45;&gt;ChooseFromList</title>
<path fill="none" stroke="#555555" stroke-dasharray="1,5" d="M102.68,-339.75C106.38,-322.52 112.46,-294.22 118.97,-263.87"/>
<polygon fill="#555555" stroke="#555555" points="122.52,-265.02 121.2,-254.51 115.67,-263.55 122.52,-265.02"/>
</g>
<!-- CLICK_0 -->
<g id="node4" class="node">
<title>CLICK_0</title>
<ellipse fill="#ffffff" stroke="#000000" cx="266" cy="-357.91" rx="27" ry="18"/>
</g>
<!-- stored_node -->
<g id="node5" class="node">
<title>stored_node</title>
<ellipse fill="none" stroke="black" cx="410" cy="-127.63" rx="72.25" ry="18"/>
<text text-anchor="middle" x="410" y="-122.96" font-family="Times,serif" font-size="14.00">stored_node</text>
</g>
<!-- CLICK_0&#45;&gt;stored_node -->
<g id="edge2" class="edge">
<title>CLICK_0&#45;&gt;stored_node</title>
<path fill="none" stroke="#555555" stroke-dasharray="1,5" d="M274.5,-340.51C281.57,-327.09 292.05,-307.73 302,-291.27 332.01,-241.64 370.15,-185.7 392.15,-154.05"/>
<polygon fill="#555555" stroke="#555555" points="395.32,-156.62 398.17,-146.42 389.58,-152.62 395.32,-156.62"/>
</g>
<!-- CLICK_1 -->
<g id="node6" class="node">
<title>CLICK_1</title>
<ellipse fill="#ffffff" stroke="#000000" cx="338" cy="-357.91" rx="27" ry="18"/>
</g>
<!-- CLICK_1&#45;&gt;stored_node -->
<g id="edge3" class="edge">
<title>CLICK_1&#45;&gt;stored_node</title>
<path fill="none" stroke="#555555" stroke-dasharray="1,5" d="M343.29,-340.12C355.59,-301.15 386.16,-204.21 401.27,-156.32"/>
<polygon fill="#555555" stroke="#555555" points="404.83,-157.66 404.5,-147.07 398.16,-155.55 404.83,-157.66"/>
</g>
<!-- CLICK_2 -->
<g id="node7" class="node">
<title>CLICK_2</title>
<ellipse fill="#ffffff" stroke="#000000" cx="410" cy="-357.91" rx="27" ry="18"/>
</g>
<!-- CLICK_2&#45;&gt;stored_node -->
<g id="edge4" class="edge">
<title>CLICK_2&#45;&gt;stored_node</title>
<path fill="none" stroke="#555555" stroke-dasharray="1,5" d="M410,-339.75C410,-300.67 410,-204.71 410,-156.8"/>
<polygon fill="#555555" stroke="#555555" points="413.5,-156.99 410,-146.99 406.5,-156.99 413.5,-156.99"/>
</g>
<!-- CLICK_3 -->
<g id="node8" class="node">
<title>CLICK_3</title>
<ellipse fill="#ffffff" stroke="#000000" cx="482" cy="-357.91" rx="27" ry="18"/>
</g>
<!-- CLICK_3&#45;&gt;stored_node -->
<g id="edge5" class="edge">
<title>CLICK_3&#45;&gt;stored_node</title>
<path fill="none" stroke="#555555" stroke-dasharray="1,5" d="M476.71,-340.12C464.41,-301.15 433.84,-204.21 418.73,-156.32"/>
<polygon fill="#555555" stroke="#555555" points="421.84,-155.55 415.5,-147.07 415.17,-157.66 421.84,-155.55"/>
</g>
<!-- CLICK_4 -->
<g id="node9" class="node">
<title>CLICK_4</title>
<ellipse fill="#ffffff" stroke="#000000" cx="554" cy="-357.91" rx="27" ry="18"/>
</g>
<!-- CLICK_4&#45;&gt;stored_node -->
<g id="edge6" class="edge">
<title>CLICK_4&#45;&gt;stored_node</title>
<path fill="none" stroke="#555555" stroke-dasharray="1,5" d="M545.75,-340.35C538.83,-326.85 528.42,-307.43 518,-291.27 507.16,-274.46 502.4,-271.7 491,-255.27 467.4,-221.23 441.92,-180.72 425.97,-154.85"/>
<polygon fill="#555555" stroke="#555555" points="428.57,-153.38 420.35,-146.69 422.6,-157.04 428.57,-153.38"/>
</g>
<!-- CLICK_MORE -->
<g id="node10" class="node">
<title>CLICK_MORE</title>
<ellipse fill="#ffffff" stroke="#000000" cx="171" cy="-357.91" rx="27" ry="18"/>
</g>
<!-- CLICK_MORE&#45;&gt;ChooseFromList -->
<g id="edge7" class="edge">
<title>CLICK_MORE&#45;&gt;ChooseFromList</title>
<path fill="none" stroke="#555555" stroke-dasharray="1,5" d="M169.27,-339.75C167.57,-322.87 164.8,-295.38 161.81,-265.73"/>
<polygon fill="#555555" stroke="#555555" points="165.23,-265.77 160.75,-256.17 158.27,-266.47 165.23,-265.77"/>
</g>
<!-- start -->
<g id="node11" class="node">
<title>start</title>
<ellipse fill="#ffffff" stroke="#000000" cx="648" cy="-357.91" rx="27" ry="18"/>
</g>
<!-- critter_p_proc -->
<g id="node12" class="node">
<title>critter_p_proc</title>
<ellipse fill="#ffffff" stroke="#000000" cx="806" cy="-357.91" rx="27" ry="18"/>
</g>
<!-- pickup_p_proc -->
<g id="node13" class="node">
<title>pickup_p_proc</title>
<ellipse fill="#ffffff" stroke="#000000" cx="921" cy="-357.91" rx="27" ry="18"/>
</g>
<!-- talk_p_proc -->
<g id="node14" class="node">
<title>talk_p_proc</title>
<ellipse fill="#ffffff" stroke="#000000" cx="1014" cy="-357.91" rx="27" ry="18"/>
</g>
<!-- Node009 -->
<g id="node15" class="node">
<title>Node009</title>
<ellipse fill="#ffffff" stroke="#000000" cx="622" cy="-127.63" rx="121.71" ry="18"/>
<text text-anchor="middle" x="622" y="-122.96" font-family="Times,serif" font-size="14.00">You see a sickly slave.</text>
</g>
<!-- talk_p_proc&#45;&gt;Node009 -->
<g id="edge8" class="edge">
<title>talk_p_proc&#45;&gt;Node009</title>
<path fill="none" stroke="#555555" stroke-dasharray="1,5" d="M1004.46,-340.58C994.6,-325.26 977.76,-303.01 957,-291.27 876.48,-245.72 834.35,-297.41 752,-255.27 704.72,-231.07 663.34,-183.83 640.59,-154.39"/>
<polygon fill="#555555" stroke="#555555" points="642.97,-152.73 634.14,-146.87 637.39,-156.96 642.97,-152.73"/>
</g>
<!-- Node010 -->
<g id="node16" class="node">
<title>Node010</title>
<ellipse fill="#ffffff" stroke="#000000" cx="883" cy="-127.63" rx="121.71" ry="18"/>
<text text-anchor="middle" x="883" y="-122.96" font-family="Times,serif" font-size="14.00">You see a sickly slave.</text>
</g>
<!-- talk_p_proc&#45;&gt;Node010 -->
<g id="edge9" class="edge">
<title>talk_p_proc&#45;&gt;Node010</title>
<path fill="none" stroke="#555555" stroke-dasharray="1,5" d="M1004.79,-340.86C982.55,-302.11 925.74,-203.12 898.3,-155.29"/>
<polygon fill="#555555" stroke="#555555" points="900.92,-153.84 892.91,-146.9 894.85,-157.32 900.92,-153.84"/>
</g>
<!-- Node011 -->
<g id="node17" class="node">
<title>Node011</title>
<ellipse fill="#ffffff" stroke="#000000" cx="1144" cy="-127.63" rx="121.71" ry="18"/>
<text text-anchor="middle" x="1144" y="-122.96" font-family="Times,serif" font-size="14.00">You see a sickly slave.</text>
</g>
<!-- talk_p_proc&#45;&gt;Node011 -->
<g id="edge10" class="edge">
<title>talk_p_proc&#45;&gt;Node011</title>
<path fill="none" stroke="#555555" stroke-dasharray="1,5" d="M1023.14,-340.86C1045.21,-302.11 1101.58,-203.12 1128.82,-155.29"/>
<polygon fill="#555555" stroke="#555555" points="1132.26,-157.33 1134.16,-146.9 1126.17,-153.86 1132.26,-157.33"/>
</g>
<!-- Node012 -->
<g id="node18" class="node">
<title>Node012</title>
<ellipse fill="#ffffff" stroke="#000000" cx="1405" cy="-127.63" rx="121.71" ry="18"/>
<text text-anchor="middle" x="1405" y="-122.96" font-family="Times,serif" font-size="14.00">You see a sickly slave.</text>
</g>
<!-- talk_p_proc&#45;&gt;Node012 -->
<g id="edge11" class="edge">
<title>talk_p_proc&#45;&gt;Node012</title>
<path fill="none" stroke="#555555" stroke-dasharray="1,5" d="M1039.3,-350.7C1087.81,-338.04 1196.08,-306.05 1275,-255.27 1319.18,-226.83 1360.96,-181.71 1384.72,-153.71"/>
<polygon fill="#555555" stroke="#555555" points="1387.77,-156.52 1391.5,-146.6 1382.4,-152.03 1387.77,-156.52"/>
</g>
<!-- destroy_p_proc -->
<g id="node19" class="node">
<title>destroy_p_proc</title>
<ellipse fill="#ffffff" stroke="#000000" cx="1346" cy="-357.91" rx="27" ry="18"/>
</g>
<!-- look_at_p_proc -->
<g id="node20" class="node">
<title>look_at_p_proc</title>
<ellipse fill="#ffffff" stroke="#000000" cx="1944" cy="-357.91" rx="142.84" ry="66.64"/>
<text text-anchor="middle" x="1944" y="-387.74" font-family="Times,serif" font-size="14.00">You see a sickly slave.</text>
<text text-anchor="middle" x="1944" y="-370.49" font-family="Times,serif" font-size="14.00">&#45;&#45;&#45;</text>
<text text-anchor="middle" x="1944" y="-353.24" font-family="Times,serif" font-size="14.00">You see a chemmed slave.</text>
<text text-anchor="middle" x="1944" y="-335.99" font-family="Times,serif" font-size="14.00">&#45;&#45;&#45;</text>
<text text-anchor="middle" x="1944" y="-318.74" font-family="Times,serif" font-size="14.00">You see a slave.</text>
</g>
<!-- description_p_proc -->
<g id="node21" class="node">
<title>description_p_proc</title>
<ellipse fill="#ffffff" stroke="#000000" cx="2337" cy="-357.91" rx="27" ry="18"/>
</g>
<!-- Node002 -->
<g id="node22" class="node">
<title>Node002</title>
<ellipse fill="#ffffff" stroke="#000000" cx="1682" cy="-127.63" rx="137" ry="54.45"/>
<text text-anchor="middle" x="1682" y="-148.83" font-family="Times,serif" font-size="14.00">You see a broken looking</text>
<text text-anchor="middle" x="1682" y="-131.58" font-family="Times,serif" font-size="14.00">woman. She is staring at</text>
<text text-anchor="middle" x="1682" y="-114.33" font-family="Times,serif" font-size="14.00">the ground intently, as</text>
<text text-anchor="middle" x="1682" y="-97.08" font-family="Times,serif" font-size="14.00">if afraid to look up.</text>
</g>
<!-- description_p_proc&#45;&gt;Node002 -->
<g id="edge12" class="edge">
<title>description_p_proc&#45;&gt;Node002</title>
<path fill="none" stroke="#555555" stroke-dasharray="1,5" d="M2312.97,-349.22C2269.9,-335.71 2176.54,-307.57 2096,-291.27 1978.21,-267.42 1937.54,-304.71 1828,-255.27 1792.8,-239.38 1759.74,-212.18 1734.01,-187.05"/>
<polygon fill="#555555" stroke="#555555" points="1736.82,-184.92 1727.27,-180.34 1731.88,-189.87 1736.82,-184.92"/>
</g>
<!-- Node001 -->
<g id="node23" class="node">
<title>Node001</title>
<ellipse fill="#ffffff" stroke="#000000" cx="1982" cy="-127.63" rx="145.49" ry="54.45"/>
<text text-anchor="middle" x="1982" y="-148.83" font-family="Times,serif" font-size="14.00">You see a broken looking</text>
<text text-anchor="middle" x="1982" y="-131.58" font-family="Times,serif" font-size="14.00">man. His eyes dart around</text>
<text text-anchor="middle" x="1982" y="-114.33" font-family="Times,serif" font-size="14.00">the area, as if following</text>
<text text-anchor="middle" x="1982" y="-97.08" font-family="Times,serif" font-size="14.00">some invisible insect.</text>
</g>
<!-- description_p_proc&#45;&gt;Node001 -->
<g id="edge13" class="edge">
<title>description_p_proc&#45;&gt;Node001</title>
<path fill="none" stroke="#555555" stroke-dasharray="1,5" d="M2314.41,-347.45C2276.26,-331.04 2197.24,-295.23 2136,-255.27 2104.34,-234.61 2071.67,-208.53 2044.61,-185.42"/>
<polygon fill="#555555" stroke="#555555" points="2047.26,-182.22 2037.4,-178.35 2042.7,-187.53 2047.26,-182.22"/>
</g>
<!-- Node004 -->
<g id="node24" class="node">
<title>Node004</title>
<ellipse fill="#ffffff" stroke="#000000" cx="2282" cy="-127.63" rx="137" ry="66.64"/>
<text text-anchor="middle" x="2282" y="-157.46" font-family="Times,serif" font-size="14.00">You see a shivering</text>
<text text-anchor="middle" x="2282" y="-140.21" font-family="Times,serif" font-size="14.00">woman. She is staring at</text>
<text text-anchor="middle" x="2282" y="-122.96" font-family="Times,serif" font-size="14.00">the ground, as if afraid</text>
<text text-anchor="middle" x="2282" y="-105.71" font-family="Times,serif" font-size="14.00">it will go away if she</text>
<text text-anchor="middle" x="2282" y="-88.46" font-family="Times,serif" font-size="14.00">stops looking at it.</text>
</g>
<!-- description_p_proc&#45;&gt;Node004 -->
<g id="edge14" class="edge">
<title>description_p_proc&#45;&gt;Node004</title>
<path fill="none" stroke="#555555" stroke-dasharray="1,5" d="M2332.87,-339.75C2326.02,-311.35 2311.94,-252.92 2300.33,-204.71"/>
<polygon fill="#555555" stroke="#555555" points="2303.56,-204.18 2297.82,-195.28 2296.76,-205.82 2303.56,-204.18"/>
</g>
<!-- Node003 -->
<g id="node25" class="node">
<title>Node003</title>
<ellipse fill="#ffffff" stroke="#000000" cx="2577" cy="-127.63" rx="140.18" ry="54.45"/>
<text text-anchor="middle" x="2577" y="-148.83" font-family="Times,serif" font-size="14.00">You see a sluggish</text>
<text text-anchor="middle" x="2577" y="-131.58" font-family="Times,serif" font-size="14.00">looking man. He is</text>
<text text-anchor="middle" x="2577" y="-114.33" font-family="Times,serif" font-size="14.00">staring straight ahead</text>
<text text-anchor="middle" x="2577" y="-97.08" font-family="Times,serif" font-size="14.00">with a vacant expression.</text>
</g>
<!-- description_p_proc&#45;&gt;Node003 -->
<g id="edge15" class="edge">
<title>description_p_proc&#45;&gt;Node003</title>
<path fill="none" stroke="#555555" stroke-dasharray="1,5" d="M2352.01,-342.63C2384.24,-311.98 2461.58,-238.41 2516.57,-186.11"/>
<polygon fill="#555555" stroke="#555555" points="2518.68,-188.99 2523.51,-179.56 2513.85,-183.91 2518.68,-188.99"/>
</g>
<!-- Node006 -->
<g id="node26" class="node">
<title>Node006</title>
<ellipse fill="#ffffff" stroke="#000000" cx="2873" cy="-127.63" rx="138.06" ry="66.64"/>
<text text-anchor="middle" x="2873" y="-157.46" font-family="Times,serif" font-size="14.00">You see a shivering</text>
<text text-anchor="middle" x="2873" y="-140.21" font-family="Times,serif" font-size="14.00">woman. Her body is</text>
<text text-anchor="middle" x="2873" y="-122.96" font-family="Times,serif" font-size="14.00">covered with lash marks,</text>
<text text-anchor="middle" x="2873" y="-105.71" font-family="Times,serif" font-size="14.00">and her clothes are in</text>
<text text-anchor="middle" x="2873" y="-88.46" font-family="Times,serif" font-size="14.00">tatters.</text>
</g>
<!-- description_p_proc&#45;&gt;Node006 -->
<g id="edge16" class="edge">
<title>description_p_proc&#45;&gt;Node006</title>
<path fill="none" stroke="#555555" stroke-dasharray="1,5" d="M2361.14,-349.12C2401.74,-336.17 2486.37,-309.8 2559,-291.27 2632.57,-272.49 2658.02,-289.09 2726,-255.27 2755.94,-240.37 2784.77,-217.98 2808.84,-196.15"/>
<polygon fill="#555555" stroke="#555555" points="2810.84,-199.14 2815.81,-189.78 2806.09,-194 2810.84,-199.14"/>
</g>
<!-- Node005 -->
<g id="node27" class="node">
<title>Node005</title>
<ellipse fill="#ffffff" stroke="#000000" cx="3171" cy="-127.63" rx="142.31" ry="66.64"/>
<text text-anchor="middle" x="3171" y="-157.46" font-family="Times,serif" font-size="14.00">You see a thin man. Lash</text>
<text text-anchor="middle" x="3171" y="-140.21" font-family="Times,serif" font-size="14.00">marks cover his body, and</text>
<text text-anchor="middle" x="3171" y="-122.96" font-family="Times,serif" font-size="14.00">he stares meekly at the</text>
<text text-anchor="middle" x="3171" y="-105.71" font-family="Times,serif" font-size="14.00">ground, as if waiting for</text>
<text text-anchor="middle" x="3171" y="-88.46" font-family="Times,serif" font-size="14.00">orders.</text>
</g>
<!-- description_p_proc&#45;&gt;Node005 -->
<g id="edge17" class="edge">
<title>description_p_proc&#45;&gt;Node005</title>
<path fill="none" stroke="#555555" stroke-dasharray="1,5" d="M2360.26,-348.27C2400.25,-333.81 2484.9,-304.96 2559,-291.27 2761.09,-253.92 2829.76,-333 3020,-255.27 3052.29,-242.07 3082.82,-219.3 3107.86,-196.67"/>
<polygon fill="#555555" stroke="#555555" points="3109.82,-199.7 3114.79,-190.34 3105.07,-194.56 3109.82,-199.7"/>
</g>
<!-- use_skill_on_p_proc -->
<g id="node28" class="node">
<title>use_skill_on_p_proc</title>
<ellipse fill="#ffffff" stroke="#000000" cx="2595" cy="-357.91" rx="27" ry="18"/>
</g>
<!-- damage_p_proc -->
<g id="node29" class="node">
<title>damage_p_proc</title>
<ellipse fill="#ffffff" stroke="#000000" cx="3108" cy="-357.91" rx="27" ry="18"/>
</g>
<!-- map_enter_p_proc -->
<g id="node30" class="node">
<title>map_enter_p_proc</title>
<ellipse fill="#ffffff" stroke="#000000" cx="3401" cy="-357.91" rx="27" ry="18"/>
</g>
<!-- timed_event_p_proc -->
<g id="node31" class="node">
<title>timed_event_p_proc</title>
<ellipse fill="#ffffff" stroke="#000000" cx="3583" cy="-357.91" rx="27" ry="18"/>
</g>
<!-- Node007 -->
<g id="node32" class="node">
<title>Node007</title>
<ellipse fill="#ffffff" stroke="#000000" cx="3453" cy="-127.63" rx="121.71" ry="18"/>
<text text-anchor="middle" x="3453" y="-122.96" font-family="Times,serif" font-size="14.00">You see a sickly slave.</text>
</g>
<!-- timed_event_p_proc&#45;&gt;Node007 -->
<g id="edge18" class="edge">
<title>timed_event_p_proc&#45;&gt;Node007</title>
<path fill="none" stroke="#555555" stroke-dasharray="1,5" d="M3573.86,-340.86C3551.79,-302.11 3495.42,-203.12 3468.18,-155.29"/>
<polygon fill="#555555" stroke="#555555" points="3470.83,-153.86 3462.84,-146.9 3464.74,-157.33 3470.83,-153.86"/>
</g>
<!-- Node008 -->
<g id="node33" class="node">
<title>Node008</title>
<ellipse fill="#ffffff" stroke="#000000" cx="3714" cy="-127.63" rx="121.71" ry="18"/>
<text text-anchor="middle" x="3714" y="-122.96" font-family="Times,serif" font-size="14.00">You see a sickly slave.</text>
</g>
<!-- timed_event_p_proc&#45;&gt;Node008 -->
<g id="edge19" class="edge">
<title>timed_event_p_proc&#45;&gt;Node008</title>
<path fill="none" stroke="#555555" stroke-dasharray="1,5" d="M3591.76,-340.66C3598.97,-327.33 3609.52,-308.01 3619,-291.27 3646.45,-242.78 3679.44,-186.8 3698.44,-154.77"/>
<polygon fill="#555555" stroke="#555555" points="3701.77,-157.02 3703.86,-146.64 3695.75,-153.45 3701.77,-157.02"/>
</g>
<!-- Node998 -->
<g id="node34" class="node">
<title>Node998</title>
<ellipse fill="#ffffff" stroke="#000000" cx="3655" cy="-357.91" rx="27" ry="18"/>
</g>
<!-- Node999 -->
<g id="node35" class="node">
<title>Node999</title>
<ellipse fill="#ffffff" stroke="#000000" cx="3727" cy="-357.91" rx="27" ry="18"/>
</g>
<!-- push_p_proc -->
<g id="node36" class="node">
<title>push_p_proc</title>
<ellipse fill="#ffffff" stroke="#000000" cx="3799" cy="-357.91" rx="27" ry="18"/>
</g>
</g>
</svg>
