<?xml version="1.0" encoding="UTF-8" standalone="no"?>
<!DOCTYPE svg PUBLIC "-//W3C//DTD SVG 1.1//EN"
 "http://www.w3.org/Graphics/SVG/1.1/DTD/svg11.dtd">
<!-- Generated by graphviz version 8.0.5 (0)
 -->
<!-- Title: niMedica Pages: 1 -->
<svg width="946pt" height="408pt"
 viewBox="0.00 0.00 945.96 408.45" xmlns="http://www.w3.org/2000/svg" xmlns:xlink="http://www.w3.org/1999/xlink">
<g id="graph0" class="graph" transform="scale(1 1) rotate(0) translate(4 404.45)">
<title>niMedica</title>
<polygon fill="white" stroke="none" points="-4,4 -4,-404.45 941.96,-404.45 941.96,4 -4,4"/>
<!-- checkPartyMembersNearDoor -->
<g id="node1" class="node">
<title>checkPartyMembersNearDoor</title>
<ellipse fill="#ffffff" stroke="#000000" cx="27" cy="-236.23" rx="27" ry="18"/>
</g>
<!-- ChooseFromList -->
<g id="node2" class="node">
<title>ChooseFromList</title>
<ellipse fill="#ffffff" stroke="#000000" cx="135" cy="-18" rx="27" ry="18"/>
</g>
<!-- CLICK_PREV -->
<g id="node3" class="node">
<title>CLICK_PREV</title>
<ellipse fill="#ffffff" stroke="#000000" cx="99" cy="-236.23" rx="27" ry="18"/>
</g>
<!-- CLICK_PREV&#45;&gt;ChooseFromList -->
<g id="edge1" class="edge">
<title>CLICK_PREV&#45;&gt;ChooseFromList</title>
<path fill="none" stroke="#555555" stroke-dasharray="1,5" d="M101.89,-217.9C108.1,-180.56 122.81,-92.24 130.35,-46.91"/>
<polygon fill="#555555" stroke="#555555" points="133.96,-47.55 132.15,-37.11 127.06,-46.4 133.96,-47.55"/>
</g>
<!-- CLICK_0 -->
<g id="node4" class="node">
<title>CLICK_0</title>
<ellipse fill="#ffffff" stroke="#000000" cx="243" cy="-236.23" rx="27" ry="18"/>
</g>
<!-- stored_node -->
<g id="node5" class="node">
<title>stored_node</title>
<ellipse fill="none" stroke="black" cx="387" cy="-18" rx="72.25" ry="18"/>
<text text-anchor="middle" x="387" y="-13.32" font-family="Times,serif" font-size="14.00">stored_node</text>
</g>
<!-- CLICK_0&#45;&gt;stored_node -->
<g id="edge2" class="edge">
<title>CLICK_0&#45;&gt;stored_node</title>
<path fill="none" stroke="#555555" stroke-dasharray="1,5" d="M242.17,-217.94C241.54,-185.72 244.58,-115.82 279,-72 291.8,-55.71 310.89,-44.09 329.47,-35.96"/>
<polygon fill="#555555" stroke="#555555" points="330.47,-38.93 338.41,-31.91 327.83,-32.45 330.47,-38.93"/>
</g>
<!-- CLICK_1 -->
<g id="node6" class="node">
<title>CLICK_1</title>
<ellipse fill="#ffffff" stroke="#000000" cx="315" cy="-236.23" rx="27" ry="18"/>
</g>
<!-- CLICK_1&#45;&gt;stored_node -->
<g id="edge3" class="edge">
<title>CLICK_1&#45;&gt;stored_node</title>
<path fill="none" stroke="#555555" stroke-dasharray="1,5" d="M316.65,-217.89C320.02,-187.33 329.3,-122.37 351,-72 355.09,-62.5 360.96,-52.91 366.78,-44.54"/>
<polygon fill="#555555" stroke="#555555" points="370.17,-46.84 373.23,-36.69 364.51,-42.72 370.17,-46.84"/>
</g>
<!-- CLICK_2 -->
<g id="node7" class="node">
<title>CLICK_2</title>
<ellipse fill="#ffffff" stroke="#000000" cx="387" cy="-236.23" rx="27" ry="18"/>
</g>
<!-- CLICK_2&#45;&gt;stored_node -->
<g id="edge4" class="edge">
<title>CLICK_2&#45;&gt;stored_node</title>
<path fill="none" stroke="#555555" stroke-dasharray="1,5" d="M387,-217.9C387,-180.65 387,-92.68 387,-47.25"/>
<polygon fill="#555555" stroke="#555555" points="390.5,-47.41 387,-37.41 383.5,-47.41 390.5,-47.41"/>
</g>
<!-- CLICK_3 -->
<g id="node8" class="node">
<title>CLICK_3</title>
<ellipse fill="#ffffff" stroke="#000000" cx="459" cy="-236.23" rx="27" ry="18"/>
</g>
<!-- CLICK_3&#45;&gt;stored_node -->
<g id="edge5" class="edge">
<title>CLICK_3&#45;&gt;stored_node</title>
<path fill="none" stroke="#555555" stroke-dasharray="1,5" d="M457.35,-217.89C453.98,-187.33 444.7,-122.37 423,-72 418.91,-62.5 413.04,-52.91 407.22,-44.54"/>
<polygon fill="#555555" stroke="#555555" points="409.49,-42.72 400.77,-36.69 403.83,-46.84 409.49,-42.72"/>
</g>
<!-- CLICK_4 -->
<g id="node9" class="node">
<title>CLICK_4</title>
<ellipse fill="#ffffff" stroke="#000000" cx="531" cy="-236.23" rx="27" ry="18"/>
</g>
<!-- CLICK_4&#45;&gt;stored_node -->
<g id="edge6" class="edge">
<title>CLICK_4&#45;&gt;stored_node</title>
<path fill="none" stroke="#555555" stroke-dasharray="1,5" d="M531.83,-217.94C532.46,-185.72 529.42,-115.82 495,-72 482.2,-55.71 463.11,-44.09 444.53,-35.96"/>
<polygon fill="#555555" stroke="#555555" points="446.17,-32.45 435.59,-31.91 443.53,-38.93 446.17,-32.45"/>
</g>
<!-- CLICK_MORE -->
<g id="node10" class="node">
<title>CLICK_MORE</title>
<ellipse fill="#ffffff" stroke="#000000" cx="171" cy="-236.23" rx="27" ry="18"/>
</g>
<!-- CLICK_MORE&#45;&gt;ChooseFromList -->
<g id="edge7" class="edge">
<title>CLICK_MORE&#45;&gt;ChooseFromList</title>
<path fill="none" stroke="#555555" stroke-dasharray="1,5" d="M168.11,-217.9C161.9,-180.56 147.19,-92.24 139.65,-46.91"/>
<polygon fill="#555555" stroke="#555555" points="142.94,-46.4 137.85,-37.11 136.04,-47.55 142.94,-46.4"/>
</g>
<!-- start -->
<g id="node11" class="node">
<title>start</title>
<ellipse fill="#ffffff" stroke="#000000" cx="603" cy="-236.23" rx="27" ry="18"/>
</g>
<!-- use_p_proc -->
<g id="node12" class="node">
<title>use_p_proc</title>
<ellipse fill="#ffffff" stroke="#000000" cx="793" cy="-236.23" rx="144.96" ry="164.23"/>
<text text-anchor="middle" x="793" y="-335.05" font-family="Times,serif" font-size="14.00">You have used the Pip Boy</text>
<text text-anchor="middle" x="793" y="-317.8" font-family="Times,serif" font-size="14.00">Medical Enhancer. A vast</text>
<text text-anchor="middle" x="793" y="-300.55" font-family="Times,serif" font-size="14.00">amount of medical</text>
<text text-anchor="middle" x="793" y="-283.3" font-family="Times,serif" font-size="14.00">knowledge floods your</text>
<text text-anchor="middle" x="793" y="-266.05" font-family="Times,serif" font-size="14.00">brain.</text>
<text text-anchor="middle" x="793" y="-248.8" font-family="Times,serif" font-size="14.00">&#45;&#45;&#45;</text>
<text text-anchor="middle" x="793" y="-231.55" font-family="Times,serif" font-size="14.00">You have used the Pip Boy</text>
<text text-anchor="middle" x="793" y="-214.3" font-family="Times,serif" font-size="14.00">Medical Enhancer. A vast</text>
<text text-anchor="middle" x="793" y="-197.05" font-family="Times,serif" font-size="14.00">amount of medical</text>
<text text-anchor="middle" x="793" y="-179.8" font-family="Times,serif" font-size="14.00">knowledge floods your</text>
<text text-anchor="middle" x="793" y="-162.55" font-family="Times,serif" font-size="14.00">brain.</text>
<text text-anchor="middle" x="793" y="-145.3" font-family="Times,serif" font-size="14.00">&#45;&#45;&#45;</text>
<text text-anchor="middle" x="793" y="-128.05" font-family="Times,serif" font-size="14.00">Whoa. The doctor is IN.</text>
</g>
</g>
</svg>
