<?xml version="1.0" encoding="UTF-8" standalone="no"?>
<!DOCTYPE svg PUBLIC "-//W3C//DTD SVG 1.1//EN"
 "http://www.w3.org/Graphics/SVG/1.1/DTD/svg11.dtd">
<!-- Generated by graphviz version 8.0.5 (0)
 -->
<!-- Title: oscomptr Pages: 1 -->
<svg width="2278pt" height="2345pt"
 viewBox="0.00 0.00 2278.00 2344.54" xmlns="http://www.w3.org/2000/svg" xmlns:xlink="http://www.w3.org/1999/xlink">
<g id="graph0" class="graph" transform="scale(1 1) rotate(0) translate(4 2340.54)">
<title>oscomptr</title>
<polygon fill="white" stroke="none" points="-4,4 -4,-2340.54 2274,-2340.54 2274,4 -4,4"/>
<!-- checkPartyMembersNearDoor -->
<g id="node1" class="node">
<title>checkPartyMembersNearDoor</title>
<ellipse fill="#ffffff" stroke="#000000" cx="827" cy="-2269.9" rx="27" ry="18"/>
</g>
<!-- getTimeBit -->
<g id="node2" class="node">
<title>getTimeBit</title>
<ellipse fill="#ffffff" stroke="#000000" cx="899" cy="-2269.9" rx="27" ry="18"/>
</g>
<!-- start -->
<g id="node3" class="node">
<title>start</title>
<ellipse fill="#ffffff" stroke="#000000" cx="971" cy="-2269.9" rx="27" ry="18"/>
</g>
<!-- use_p_proc -->
<g id="node4" class="node">
<title>use_p_proc</title>
<ellipse fill="#ffffff" stroke="#000000" cx="1043" cy="-2269.9" rx="27" ry="18"/>
</g>
<!-- use_skill_on_p_proc -->
<g id="node5" class="node">
<title>use_skill_on_p_proc</title>
<ellipse fill="#ffffff" stroke="#000000" cx="1043" cy="-2148.25" rx="27" ry="18"/>
</g>
<!-- use_p_proc&#45;&gt;use_skill_on_p_proc -->
<g id="edge1" class="edge">
<title>use_p_proc&#45;&gt;use_skill_on_p_proc</title>
<path fill="none" stroke="#555555" stroke-dasharray="1,5" d="M1043,-2251.5C1043,-2232.1 1043,-2200.42 1043,-2177.46"/>
<polygon fill="#555555" stroke="#555555" points="1046.5,-2177.67 1043,-2167.67 1039.5,-2177.67 1046.5,-2177.67"/>
</g>
<!-- Node007 -->
<g id="node8" class="node">
<title>Node007</title>
<ellipse fill="#ffffff" stroke="#000000" cx="701" cy="-1782.66" rx="124.8" ry="30.05"/>
<text text-anchor="middle" x="701" y="-1786.61" font-family="Times,serif" font-size="14.00">The system is working</text>
<text text-anchor="middle" x="701" y="-1769.36" font-family="Times,serif" font-size="14.00">fine now.</text>
</g>
<!-- use_skill_on_p_proc&#45;&gt;Node007 -->
<g id="edge2" class="edge">
<title>use_skill_on_p_proc&#45;&gt;Node007</title>
<path fill="none" stroke="#555555" stroke-dasharray="1,5" d="M1015.62,-2147.45C972.24,-2146.31 887.28,-2138.03 835,-2093.25 751.95,-2022.13 718.76,-1890.08 706.88,-1823.8"/>
<polygon fill="#555555" stroke="#555555" points="710.17,-1823.25 705.03,-1813.98 703.27,-1824.43 710.17,-1823.25"/>
</g>
<!-- Node008 -->
<g id="node9" class="node">
<title>Node008</title>
<ellipse fill="#ffffff" stroke="#000000" cx="972" cy="-1782.66" rx="127.99" ry="42.25"/>
<text text-anchor="middle" x="972" y="-1795.23" font-family="Times,serif" font-size="14.00">Accessing security</text>
<text text-anchor="middle" x="972" y="-1777.98" font-family="Times,serif" font-size="14.00">footage, loading</text>
<text text-anchor="middle" x="972" y="-1760.73" font-family="Times,serif" font-size="14.00">holographic playback...</text>
</g>
<!-- use_skill_on_p_proc&#45;&gt;Node008 -->
<g id="edge3" class="edge">
<title>use_skill_on_p_proc&#45;&gt;Node008</title>
<path fill="none" stroke="#555555" stroke-dasharray="1,5" d="M1039.67,-2130.2C1029.49,-2078.07 998.48,-1919.28 982.21,-1835.96"/>
<polygon fill="#555555" stroke="#555555" points="985.46,-1835.35 980.11,-1826.21 978.59,-1836.69 985.46,-1835.35"/>
</g>
<!-- Node006 -->
<g id="node10" class="node">
<title>Node006</title>
<ellipse fill="#ffffff" stroke="#000000" cx="1256" cy="-1782.66" rx="138.06" ry="103.24"/>
<text text-anchor="middle" x="1256" y="-1838.36" font-family="Times,serif" font-size="14.00">You install the module in</text>
<text text-anchor="middle" x="1256" y="-1821.11" font-family="Times,serif" font-size="14.00">the terminal. The system</text>
<text text-anchor="middle" x="1256" y="-1803.86" font-family="Times,serif" font-size="14.00">is repaired.</text>
<text text-anchor="middle" x="1256" y="-1786.61" font-family="Times,serif" font-size="14.00">&#45;&#45;&#45;</text>
<text text-anchor="middle" x="1256" y="-1769.36" font-family="Times,serif" font-size="14.00">The terminal needs a</text>
<text text-anchor="middle" x="1256" y="-1752.11" font-family="Times,serif" font-size="14.00">voice recognition module</text>
<text text-anchor="middle" x="1256" y="-1734.86" font-family="Times,serif" font-size="14.00">installed before it can</text>
<text text-anchor="middle" x="1256" y="-1717.61" font-family="Times,serif" font-size="14.00">become operational.</text>
</g>
<!-- use_skill_on_p_proc&#45;&gt;Node006 -->
<g id="edge4" class="edge">
<title>use_skill_on_p_proc&#45;&gt;Node006</title>
<path fill="none" stroke="#555555" stroke-dasharray="1,5" d="M1062,-2135.14C1076.35,-2125.24 1095.77,-2110.16 1109,-2093.25 1156.09,-2033.1 1192.92,-1955.42 1217.93,-1892.92"/>
<polygon fill="#555555" stroke="#555555" points="1221.42,-1894.61 1221.85,-1884.02 1214.91,-1892.04 1221.42,-1894.61"/>
</g>
<!-- Node001 -->
<g id="node11" class="node">
<title>Node001</title>
<ellipse fill="#ffffff" stroke="#000000" cx="412" cy="-1782.66" rx="146.02" ry="66.64"/>
<text text-anchor="middle" x="412" y="-1812.48" font-family="Times,serif" font-size="14.00">You examine the computer</text>
<text text-anchor="middle" x="412" y="-1795.23" font-family="Times,serif" font-size="14.00">terminal, but cannot find</text>
<text text-anchor="middle" x="412" y="-1777.98" font-family="Times,serif" font-size="14.00">anything obviously wrong</text>
<text text-anchor="middle" x="412" y="-1760.73" font-family="Times,serif" font-size="14.00">with it. What do</text>
<text text-anchor="middle" x="412" y="-1743.48" font-family="Times,serif" font-size="14.00"> you do?</text>
</g>
<!-- use_skill_on_p_proc&#45;&gt;Node001 -->
<g id="edge5" class="edge">
<title>use_skill_on_p_proc&#45;&gt;Node001</title>
<path fill="none" stroke="#555555" stroke-dasharray="1,5" d="M1015.61,-2147.48C925.55,-2147.74 640.21,-2144.4 567,-2093.25 488.68,-2038.54 447.87,-1932.43 428.18,-1859.84"/>
<polygon fill="#555555" stroke="#555555" points="431.35,-1859.16 425.42,-1850.38 424.58,-1860.94 431.35,-1859.16"/>
</g>
<!-- sequence -->
<g id="node12" class="node">
<title>sequence</title>
<ellipse fill="#ffffff" stroke="#000000" cx="1555" cy="-1782.66" rx="143.37" ry="310.6"/>
<text text-anchor="middle" x="1555" y="-1984.98" font-family="Times,serif" font-size="14.00">You are the last,</text>
<text text-anchor="middle" x="1555" y="-1967.73" font-family="Times,serif" font-size="14.00">Gruthar. The stain of</text>
<text text-anchor="middle" x="1555" y="-1950.48" font-family="Times,serif" font-size="14.00">your kind will soon be</text>
<text text-anchor="middle" x="1555" y="-1933.23" font-family="Times,serif" font-size="14.00">wiped clean.</text>
<text text-anchor="middle" x="1555" y="-1915.98" font-family="Times,serif" font-size="14.00">&#45;&#45;&#45;</text>
<text text-anchor="middle" x="1555" y="-1898.73" font-family="Times,serif" font-size="14.00">You tell your so&#45;called</text>
<text text-anchor="middle" x="1555" y="-1881.48" font-family="Times,serif" font-size="14.00">President that he will</text>
<text text-anchor="middle" x="1555" y="-1864.23" font-family="Times,serif" font-size="14.00">burn for this.</text>
<text text-anchor="middle" x="1555" y="-1846.98" font-family="Times,serif" font-size="14.00">&#45;&#45;&#45;</text>
<text text-anchor="middle" x="1555" y="-1829.73" font-family="Times,serif" font-size="14.00">Whatever. You were never</text>
<text text-anchor="middle" x="1555" y="-1812.48" font-family="Times,serif" font-size="14.00">anything more than a</text>
<text text-anchor="middle" x="1555" y="-1795.23" font-family="Times,serif" font-size="14.00">talking animal.</text>
<text text-anchor="middle" x="1555" y="-1777.98" font-family="Times,serif" font-size="14.00">&#45;&#45;&#45;</text>
<text text-anchor="middle" x="1555" y="-1760.73" font-family="Times,serif" font-size="14.00">That may be, but we were</text>
<text text-anchor="middle" x="1555" y="-1743.48" font-family="Times,serif" font-size="14.00">created through your</text>
<text text-anchor="middle" x="1555" y="-1726.23" font-family="Times,serif" font-size="14.00">experimentation. Your</text>
<text text-anchor="middle" x="1555" y="-1708.98" font-family="Times,serif" font-size="14.00">gave us life!</text>
<text text-anchor="middle" x="1555" y="-1691.73" font-family="Times,serif" font-size="14.00">&#45;&#45;&#45;</text>
<text text-anchor="middle" x="1555" y="-1674.48" font-family="Times,serif" font-size="14.00">And now I give you death.</text>
<text text-anchor="middle" x="1555" y="-1657.23" font-family="Times,serif" font-size="14.00">&#45;&#45;&#45;</text>
<text text-anchor="middle" x="1555" y="-1639.98" font-family="Times,serif" font-size="14.00">Take his body. The doctor</text>
<text text-anchor="middle" x="1555" y="-1622.73" font-family="Times,serif" font-size="14.00">wanted a specimen.</text>
<text text-anchor="middle" x="1555" y="-1605.48" font-family="Times,serif" font-size="14.00">&#45;&#45;&#45;</text>
<text text-anchor="middle" x="1555" y="-1588.23" font-family="Times,serif" font-size="14.00">Their blood will run like</text>
<text text-anchor="middle" x="1555" y="-1570.98" font-family="Times,serif" font-size="14.00">the Nile!</text>
</g>
<!-- use_skill_on_p_proc&#45;&gt;sequence -->
<g id="edge6" class="edge">
<title>use_skill_on_p_proc&#45;&gt;sequence</title>
<path fill="none" stroke="#555555" stroke-dasharray="1,5" d="M1070.09,-2146.38C1144.47,-2143.51 1349.83,-2132.16 1403,-2093.25 1424.76,-2077.34 1443.56,-2057.44 1459.78,-2035.46"/>
<polygon fill="#555555" stroke="#555555" points="1463.15,-2037.77 1466.11,-2027.6 1457.45,-2033.71 1463.15,-2037.77"/>
</g>
<!-- look_at_p_proc -->
<g id="node6" class="node">
<title>look_at_p_proc</title>
<ellipse fill="#ffffff" stroke="#000000" cx="1564" cy="-2269.9" rx="109.96" ry="66.64"/>
<text text-anchor="middle" x="1564" y="-2299.72" font-family="Times,serif" font-size="14.00">You see a computer</text>
<text text-anchor="middle" x="1564" y="-2282.47" font-family="Times,serif" font-size="14.00">terminal.</text>
<text text-anchor="middle" x="1564" y="-2265.22" font-family="Times,serif" font-size="14.00">&#45;&#45;&#45;</text>
<text text-anchor="middle" x="1564" y="-2247.97" font-family="Times,serif" font-size="14.00">You see the voice</text>
<text text-anchor="middle" x="1564" y="-2230.72" font-family="Times,serif" font-size="14.00">interface terminal.</text>
</g>
<!-- description_p_proc -->
<g id="node7" class="node">
<title>description_p_proc</title>
<ellipse fill="#ffffff" stroke="#000000" cx="1801" cy="-2269.9" rx="108.89" ry="54.45"/>
<text text-anchor="middle" x="1801" y="-2291.1" font-family="Times,serif" font-size="14.00">You see a standard</text>
<text text-anchor="middle" x="1801" y="-2273.85" font-family="Times,serif" font-size="14.00">computer terminal,</text>
<text text-anchor="middle" x="1801" y="-2256.6" font-family="Times,serif" font-size="14.00">modified for voice</text>
<text text-anchor="middle" x="1801" y="-2239.35" font-family="Times,serif" font-size="14.00">commands.</text>
</g>
<!-- Node002 -->
<g id="node18" class="node">
<title>Node002</title>
<ellipse fill="#ffffff" stroke="#000000" cx="412" cy="-1238.22" rx="135.94" ry="163.34"/>
<text text-anchor="middle" x="412" y="-1336.42" font-family="Times,serif" font-size="14.00">You gaze at the console</text>
<text text-anchor="middle" x="412" y="-1319.17" font-family="Times,serif" font-size="14.00">for a while and decide</text>
<text text-anchor="middle" x="412" y="-1301.92" font-family="Times,serif" font-size="14.00">upon the best spot to</text>
<text text-anchor="middle" x="412" y="-1284.67" font-family="Times,serif" font-size="14.00">place a punch. After</text>
<text text-anchor="middle" x="412" y="-1267.42" font-family="Times,serif" font-size="14.00">giving</text>
<text text-anchor="middle" x="412" y="-1250.17" font-family="Times,serif" font-size="14.00">it your best &#39;this&#39;ll</text>
<text text-anchor="middle" x="412" y="-1232.92" font-family="Times,serif" font-size="14.00">fix it&#39; hit, the monitor</text>
<text text-anchor="middle" x="412" y="-1215.67" font-family="Times,serif" font-size="14.00">flashes a couple of times</text>
<text text-anchor="middle" x="412" y="-1198.42" font-family="Times,serif" font-size="14.00">and then stabilizes.</text>
<text text-anchor="middle" x="412" y="-1181.17" font-family="Times,serif" font-size="14.00">There is</text>
<text text-anchor="middle" x="412" y="-1163.92" font-family="Times,serif" font-size="14.00"> no other effect.</text>
<text text-anchor="middle" x="412" y="-1130.67" font-family="Times,serif" font-size="14.00">What do you do?</text>
</g>
<!-- Node001&#45;&gt;Node002 -->
<g id="edge9" class="edge">
<title>Node001&#45;&gt;Node002</title>
<path fill="none" stroke="#300099" d="M412,-1715.69C412,-1640.9 412,-1515.97 412,-1412.8"/>
<polygon fill="#300099" stroke="#300099" points="415.5,-1412.93 412,-1402.93 408.5,-1412.93 415.5,-1412.93"/>
<text text-anchor="middle" x="487.38" y="-1440.76" font-family="Times,serif" font-size="14.00" fill="#300099">Hit it in that &#39;special&#39;</text>
<text text-anchor="middle" x="487.38" y="-1423.51" font-family="Times,serif" font-size="14.00" fill="#300099">way.</text>
</g>
<!-- Node003 -->
<g id="node19" class="node">
<title>Node003</title>
<ellipse fill="#ffffff" stroke="#000000" cx="647" cy="-852.35" rx="139.12" ry="152.03"/>
<text text-anchor="middle" x="647" y="-942.55" font-family="Times,serif" font-size="14.00">This well&#45;known repair</text>
<text text-anchor="middle" x="647" y="-925.3" font-family="Times,serif" font-size="14.00">method produces two</text>
<text text-anchor="middle" x="647" y="-908.05" font-family="Times,serif" font-size="14.00">results. First, the</text>
<text text-anchor="middle" x="647" y="-890.8" font-family="Times,serif" font-size="14.00">monitor seems to go</text>
<text text-anchor="middle" x="647" y="-873.55" font-family="Times,serif" font-size="14.00">haywire for</text>
<text text-anchor="middle" x="647" y="-856.3" font-family="Times,serif" font-size="14.00">several seconds and then</text>
<text text-anchor="middle" x="647" y="-839.05" font-family="Times,serif" font-size="14.00">stabilizes. Second, you</text>
<text text-anchor="middle" x="647" y="-821.8" font-family="Times,serif" font-size="14.00">hear a breaking metal</text>
<text text-anchor="middle" x="647" y="-804.55" font-family="Times,serif" font-size="14.00">type of sound and the</text>
<text text-anchor="middle" x="647" y="-787.3" font-family="Times,serif" font-size="14.00">panel you</text>
<text text-anchor="middle" x="647" y="-770.05" font-family="Times,serif" font-size="14.00">kicked falls to the</text>
<text text-anchor="middle" x="647" y="-752.8" font-family="Times,serif" font-size="14.00">floor. What do you do?</text>
</g>
<!-- Node001&#45;&gt;Node003 -->
<g id="edge10" class="edge">
<title>Node001&#45;&gt;Node003</title>
<path fill="none" stroke="#009903" d="M445.19,-1717.4C478.27,-1652.07 529.42,-1547.46 567,-1454.06 636.49,-1281.36 670.05,-1240.61 700,-1056.88 702.81,-1039.63 702.72,-1021.72 700.71,-1003.99"/>
<polygon fill="#009903" stroke="#009903" points="704.11,-1004.03 699.31,-994.59 697.17,-1004.96 704.11,-1004.03"/>
<text text-anchor="middle" x="775.5" y="-1242.17" font-family="Times,serif" font-size="14.00" fill="#009903">Kick it in that &#39;special&#39;</text>
<text text-anchor="middle" x="775.5" y="-1224.92" font-family="Times,serif" font-size="14.00" fill="#009903">spot.</text>
</g>
<!-- Node004 -->
<g id="node20" class="node">
<title>Node004</title>
<ellipse fill="#ffffff" stroke="#000000" cx="365" cy="-514.39" rx="138.59" ry="115.44"/>
<text text-anchor="middle" x="365" y="-578.71" font-family="Times,serif" font-size="14.00">You are certain that the</text>
<text text-anchor="middle" x="365" y="-561.46" font-family="Times,serif" font-size="14.00">system should have a set</text>
<text text-anchor="middle" x="365" y="-544.21" font-family="Times,serif" font-size="14.00">of diagnostic routines</text>
<text text-anchor="middle" x="365" y="-526.96" font-family="Times,serif" font-size="14.00">available. However, the</text>
<text text-anchor="middle" x="365" y="-509.71" font-family="Times,serif" font-size="14.00">keyboard input seems to</text>
<text text-anchor="middle" x="365" y="-492.46" font-family="Times,serif" font-size="14.00">have been disabled. The</text>
<text text-anchor="middle" x="365" y="-475.21" font-family="Times,serif" font-size="14.00">unit accepts voice</text>
<text text-anchor="middle" x="365" y="-457.96" font-family="Times,serif" font-size="14.00">commands only. What do</text>
<text text-anchor="middle" x="365" y="-440.71" font-family="Times,serif" font-size="14.00">you do?</text>
</g>
<!-- Node001&#45;&gt;Node004 -->
<g id="edge11" class="edge">
<title>Node001&#45;&gt;Node004</title>
<path fill="none" stroke="#990029" d="M381.27,-1717.19C324.14,-1592.96 204.16,-1310.25 168.75,-1056.88 164.09,-1023.53 135.93,-734.22 182,-647.82 195.56,-622.39 216.41,-600.65 239.25,-582.58"/>
<polygon fill="#990029" stroke="#990029" points="240.92,-584.94 246.74,-576.08 236.67,-579.38 240.92,-584.94"/>
<text text-anchor="middle" x="236.12" y="-1043.58" font-family="Times,serif" font-size="14.00" fill="#990029">Run the diagnostic</text>
<text text-anchor="middle" x="236.12" y="-1026.33" font-family="Times,serif" font-size="14.00" fill="#990029">program.</text>
</g>
<!-- Node005 -->
<g id="node21" class="node">
<title>Node005</title>
<ellipse fill="#ffffff" stroke="#000000" cx="215" cy="-164.23" rx="147.61" ry="164.23"/>
<text text-anchor="middle" x="215" y="-263.05" font-family="Times,serif" font-size="14.00">Peering into the mass of</text>
<text text-anchor="middle" x="215" y="-245.8" font-family="Times,serif" font-size="14.00">cables and circuit</text>
<text text-anchor="middle" x="215" y="-228.55" font-family="Times,serif" font-size="14.00">boards, you find that the</text>
<text text-anchor="middle" x="215" y="-211.3" font-family="Times,serif" font-size="14.00">system has been</text>
<text text-anchor="middle" x="215" y="-194.05" font-family="Times,serif" font-size="14.00">deliberately sabotaged.</text>
<text text-anchor="middle" x="215" y="-176.8" font-family="Times,serif" font-size="14.00">One of the circuit</text>
<text text-anchor="middle" x="215" y="-159.55" font-family="Times,serif" font-size="14.00">boards, the voice</text>
<text text-anchor="middle" x="215" y="-142.3" font-family="Times,serif" font-size="14.00">recognition module, is</text>
<text text-anchor="middle" x="215" y="-125.05" font-family="Times,serif" font-size="14.00">beyond repair and must be</text>
<text text-anchor="middle" x="215" y="-107.8" font-family="Times,serif" font-size="14.00">replaced.</text>
<text text-anchor="middle" x="215" y="-90.55" font-family="Times,serif" font-size="14.00">Now all you need to do</text>
<text text-anchor="middle" x="215" y="-73.3" font-family="Times,serif" font-size="14.00">is find a replacement</text>
<text text-anchor="middle" x="215" y="-56.05" font-family="Times,serif" font-size="14.00">module.</text>
</g>
<!-- Node001&#45;&gt;Node005 -->
<g id="edge12" class="edge">
<title>Node001&#45;&gt;Node005</title>
<path fill="none" stroke="#005699" d="M330.6,-1727.28C210.53,-1639.83 0,-1455.63 0,-1239.22 0,-1239.22 0,-1239.22 0,-513.39 0,-427.72 47.7,-345.51 98.17,-282.51"/>
<polygon fill="#005699" stroke="#005699" points="101.38,-285.1 104.98,-275.14 95.95,-280.68 101.38,-285.1"/>
<text text-anchor="middle" x="69.75" y="-856.3" font-family="Times,serif" font-size="14.00" fill="#005699">Open it up and look</text>
<text text-anchor="middle" x="69.75" y="-839.05" font-family="Times,serif" font-size="14.00" fill="#005699">inside.</text>
</g>
<!-- Node999 -->
<g id="node22" class="node">
<title>Node999</title>
<ellipse fill="#ffffff" stroke="#000000" cx="894" cy="-164.23" rx="27" ry="18"/>
</g>
<!-- Node001&#45;&gt;Node999 -->
<g id="edge13" class="edge">
<title>Node001&#45;&gt;Node999</title>
<path fill="none" stroke="#839900" d="M427.22,-1716.15C447.17,-1645.23 489.13,-1533.97 567,-1472.06 671.5,-1388.97 756.03,-1486.54 859,-1401.56 920.16,-1351.09 933,-1318.51 933,-1239.22 933,-1239.22 933,-1239.22 933,-513.39 933,-393.64 909.93,-252.16 899.28,-193.2"/>
<polygon fill="#839900" stroke="#839900" points="902.57,-192.74 897.33,-183.54 895.69,-194 902.57,-192.74"/>
<text text-anchor="middle" x="985.12" y="-847.67" font-family="Times,serif" font-size="14.00" fill="#839900">Leave it alone.</text>
</g>
<!-- use_obj_on_p_proc -->
<g id="node13" class="node">
<title>use_obj_on_p_proc</title>
<ellipse fill="#ffffff" stroke="#000000" cx="1955" cy="-2269.9" rx="27" ry="18"/>
</g>
<!-- damage_p_proc -->
<g id="node14" class="node">
<title>damage_p_proc</title>
<ellipse fill="#ffffff" stroke="#000000" cx="2027" cy="-2269.9" rx="27" ry="18"/>
</g>
<!-- map_enter_p_proc -->
<g id="node15" class="node">
<title>map_enter_p_proc</title>
<ellipse fill="#ffffff" stroke="#000000" cx="2099" cy="-2269.9" rx="27" ry="18"/>
</g>
<!-- map_update_p_proc -->
<g id="node16" class="node">
<title>map_update_p_proc</title>
<ellipse fill="#ffffff" stroke="#000000" cx="2171" cy="-2269.9" rx="27" ry="18"/>
</g>
<!-- timed_event_p_proc -->
<g id="node17" class="node">
<title>timed_event_p_proc</title>
<ellipse fill="#ffffff" stroke="#000000" cx="1409" cy="-2269.9" rx="27" ry="18"/>
</g>
<!-- timed_event_p_proc&#45;&gt;use_skill_on_p_proc -->
<g id="edge8" class="edge">
<title>timed_event_p_proc&#45;&gt;use_skill_on_p_proc</title>
<path fill="none" stroke="#555555" stroke-dasharray="1,5" d="M1384.99,-2261.05C1321.78,-2240.39 1150.62,-2184.44 1077.2,-2160.43"/>
<polygon fill="#555555" stroke="#555555" points="1078.7,-2156.91 1068.1,-2157.13 1076.52,-2163.57 1078.7,-2156.91"/>
</g>
<!-- timed_event_p_proc&#45;&gt;sequence -->
<g id="edge7" class="edge">
<title>timed_event_p_proc&#45;&gt;sequence</title>
<path fill="none" stroke="#555555" stroke-dasharray="1,5" d="M1414.11,-2251.91C1424.3,-2218.06 1448.34,-2138.16 1473.73,-2053.76"/>
<polygon fill="#555555" stroke="#555555" points="1477.31,-2055.03 1476.84,-2044.44 1470.6,-2053.01 1477.31,-2055.03"/>
</g>
<!-- Node002&#45;&gt;Node003 -->
<g id="edge14" class="edge">
<title>Node002&#45;&gt;Node003</title>
<path fill="none" stroke="#830099" d="M492.38,-1105.92C515.58,-1068.03 540.92,-1026.63 564.26,-988.51"/>
<polygon fill="#830099" stroke="#830099" points="567.59,-990.76 569.83,-980.41 561.62,-987.11 567.59,-990.76"/>
<text text-anchor="middle" x="616.5" y="-1043.58" font-family="Times,serif" font-size="14.00" fill="#830099">Kick it in that &#39;special&#39;</text>
<text text-anchor="middle" x="616.5" y="-1026.33" font-family="Times,serif" font-size="14.00" fill="#830099">spot.</text>
</g>
<!-- Node002&#45;&gt;Node004 -->
<g id="edge15" class="edge">
<title>Node002&#45;&gt;Node004</title>
<path fill="none" stroke="#009956" d="M375.73,-1080.37C371.17,-1055.09 367.23,-1029.1 364.75,-1004.38 351.24,-869.92 364.66,-835.46 364.75,-700.32 364.76,-681.22 364.78,-661.01 364.81,-641.24"/>
<polygon fill="#009956" stroke="#009956" points="368.31,-641.32 364.82,-631.32 361.31,-641.31 368.31,-641.32"/>
<text text-anchor="middle" x="432.12" y="-856.3" font-family="Times,serif" font-size="14.00" fill="#009956">Run the diagnostic</text>
<text text-anchor="middle" x="432.12" y="-839.05" font-family="Times,serif" font-size="14.00" fill="#009956">program.</text>
</g>
<!-- Node002&#45;&gt;Node005 -->
<g id="edge16" class="edge">
<title>Node002&#45;&gt;Node005</title>
<path fill="none" stroke="#992900" d="M343.36,-1096.71C290.23,-976.09 224.46,-795.92 217,-629.82 212.69,-533.9 211.96,-426.74 212.4,-339.52"/>
<polygon fill="#992900" stroke="#992900" points="215.91,-339.73 212.47,-329.71 208.91,-339.69 215.91,-339.73"/>
<text text-anchor="middle" x="290.75" y="-669.02" font-family="Times,serif" font-size="14.00" fill="#992900">Open it up and look</text>
<text text-anchor="middle" x="290.75" y="-651.77" font-family="Times,serif" font-size="14.00" fill="#992900">inside.</text>
</g>
<!-- Node002&#45;&gt;Node999 -->
<g id="edge17" class="edge">
<title>Node002&#45;&gt;Node999</title>
<path fill="none" stroke="#000399" d="M510.82,-1125.94C533.36,-1106.17 558.54,-1087.8 585,-1074.88 631.48,-1052.17 651.06,-1073.64 700,-1056.88 745.64,-1041.24 769.35,-1045.23 795,-1004.38 837.2,-937.17 764.95,-709.6 814.75,-647.82 833.63,-624.4 861.42,-653.48 880,-629.82 933.31,-561.96 907.32,-283.21 897.32,-193.31"/>
<polygon fill="#000399" stroke="#000399" points="900.71,-193.15 896.1,-183.61 893.75,-193.94 900.71,-193.15"/>
<text text-anchor="middle" x="867.12" y="-660.4" font-family="Times,serif" font-size="14.00" fill="#000399">Leave it alone.</text>
</g>
<!-- Node003&#45;&gt;Node004 -->
<g id="edge18" class="edge">
<title>Node003&#45;&gt;Node004</title>
<path fill="none" stroke="#309900" d="M552,-740.9C534.14,-725.27 514.56,-710.94 494,-700.32 453,-679.15 424.13,-715.2 391.75,-682.32 380.26,-670.66 372.51,-656.15 367.41,-640.59"/>
<polygon fill="#309900" stroke="#309900" points="370.56,-639.88 364.43,-631.23 363.83,-641.81 370.56,-639.88"/>
<text text-anchor="middle" x="459.12" y="-669.02" font-family="Times,serif" font-size="14.00" fill="#309900">Run the diagnostic</text>
<text text-anchor="middle" x="459.12" y="-651.77" font-family="Times,serif" font-size="14.00" fill="#309900">program.</text>
</g>
<!-- Node003&#45;&gt;Node005 -->
<g id="edge19" class="edge">
<title>Node003&#45;&gt;Node005</title>
<path fill="none" stroke="#99005d" d="M574.18,-722.57C560.46,-692.94 547.94,-660.97 540,-629.82 532.21,-599.27 542.38,-373.39 526,-346.45 489.87,-287.02 426.37,-245.01 366.13,-216.51"/>
<polygon fill="#99005d" stroke="#99005d" points="368.04,-213.08 357.5,-212.05 365.1,-219.43 368.04,-213.08"/>
<text text-anchor="middle" x="633" y="-518.34" font-family="Times,serif" font-size="14.00" fill="#99005d">Damn thing&#39;s open. Might</text>
<text text-anchor="middle" x="633" y="-501.09" font-family="Times,serif" font-size="14.00" fill="#99005d">as well look inside.</text>
</g>
<!-- Node003&#45;&gt;Node999 -->
<g id="edge20" class="edge">
<title>Node003&#45;&gt;Node999</title>
<path fill="none" stroke="#008999" d="M702.86,-712.76C712.72,-685.53 722.28,-656.98 730,-629.82 758.61,-529.21 741.66,-497.84 775.75,-398.95 803.26,-319.15 853.05,-232.2 878.34,-190.41"/>
<polygon fill="#008999" stroke="#008999" points="881.7,-192.62 883.93,-182.26 875.73,-188.98 881.7,-192.62"/>
<text text-anchor="middle" x="828.12" y="-509.71" font-family="Times,serif" font-size="14.00" fill="#008999">Leave it alone.</text>
</g>
<!-- Node004&#45;&gt;Node005 -->
<g id="edge21" class="edge">
<title>Node004&#45;&gt;Node005</title>
<path fill="none" stroke="#997c00" d="M266.96,-432.4C253.3,-416.73 241.03,-399.4 232.5,-380.95 226.44,-367.85 221.8,-353.82 218.3,-339.43"/>
<polygon fill="#997c00" stroke="#997c00" points="221.54,-338.9 215.95,-329.91 214.71,-340.43 221.54,-338.9"/>
<text text-anchor="middle" x="316.25" y="-367.65" font-family="Times,serif" font-size="14.00" fill="#997c00">The only thing left is to</text>
<text text-anchor="middle" x="316.25" y="-350.4" font-family="Times,serif" font-size="14.00" fill="#997c00">look inside.</text>
</g>
<!-- Node004&#45;&gt;Node999 -->
<g id="edge22" class="edge">
<title>Node004&#45;&gt;Node999</title>
<path fill="none" stroke="#500099" d="M466.58,-435.51C483.57,-423.04 501.15,-410.46 518,-398.95 643.92,-312.96 800.48,-219.88 864.57,-182.34"/>
<polygon fill="#500099" stroke="#500099" points="866.18,-184.87 873.05,-176.81 862.65,-178.83 866.18,-184.87"/>
<text text-anchor="middle" x="641.12" y="-359.03" font-family="Times,serif" font-size="14.00" fill="#500099">Leave it alone.</text>
</g>
<!-- NodeDoSeq -->
<g id="node23" class="node">
<title>NodeDoSeq</title>
<ellipse fill="#ffffff" stroke="#000000" cx="988" cy="-514.39" rx="27" ry="18"/>
</g>
<!-- NodeDoSeq&#45;&gt;Node999 -->
<g id="edge23" class="edge">
<title>NodeDoSeq&#45;&gt;Node999</title>
<path fill="none" stroke="#555555" stroke-dasharray="1,5" d="M984.05,-496.26C977.01,-465.95 961.65,-400.92 947,-346.45 932.25,-291.61 913.19,-227.99 902.41,-192.6"/>
<polygon fill="#555555" stroke="#555555" points="905.49,-191.69 899.22,-183.15 898.79,-193.73 905.49,-191.69"/>
</g>
<!-- loadPid -->
<g id="node24" class="node">
<title>loadPid</title>
<ellipse fill="#ffffff" stroke="#000000" cx="2243" cy="-2269.9" rx="27" ry="18"/>
</g>
</g>
</svg>
