<?xml version="1.0" encoding="UTF-8" standalone="no"?>
<!DOCTYPE svg PUBLIC "-//W3C//DTD SVG 1.1//EN"
 "http://www.w3.org/Graphics/SVG/1.1/DTD/svg11.dtd">
<!-- Generated by graphviz version 8.0.5 (0)
 -->
<!-- Title: scdusty Pages: 1 -->
<svg width="1290pt" height="1442pt"
 viewBox="0.00 0.00 1290.00 1441.50" xmlns="http://www.w3.org/2000/svg" xmlns:xlink="http://www.w3.org/1999/xlink">
<g id="graph0" class="graph" transform="scale(1 1) rotate(0) translate(4 1437.5)">
<title>scdusty</title>
<polygon fill="white" stroke="none" points="-4,4 -4,-1437.5 1286,-1437.5 1286,4 -4,4"/>
<!-- checkPartyMembersNearDoor -->
<g id="node1" class="node">
<title>checkPartyMembersNearDoor</title>
<ellipse fill="#ffffff" stroke="#000000" cx="27" cy="-1366.86" rx="27" ry="18"/>
</g>
<!-- start -->
<g id="node2" class="node">
<title>start</title>
<ellipse fill="#ffffff" stroke="#000000" cx="99" cy="-1366.86" rx="27" ry="18"/>
</g>
<!-- critter_p_proc -->
<g id="node3" class="node">
<title>critter_p_proc</title>
<ellipse fill="#ffffff" stroke="#000000" cx="171" cy="-1366.86" rx="27" ry="18"/>
</g>
<!-- pickup_p_proc -->
<g id="node4" class="node">
<title>pickup_p_proc</title>
<ellipse fill="#ffffff" stroke="#000000" cx="243" cy="-1366.86" rx="27" ry="18"/>
</g>
<!-- talk_p_proc -->
<g id="node5" class="node">
<title>talk_p_proc</title>
<ellipse fill="#ffffff" stroke="#000000" cx="315" cy="-1366.86" rx="27" ry="18"/>
</g>
<!-- Node007 -->
<g id="node6" class="node">
<title>Node007</title>
<ellipse fill="#ffffff" stroke="#000000" cx="180" cy="-1208.77" rx="132.23" ry="54.45"/>
<text text-anchor="middle" x="180" y="-1229.97" font-family="Times,serif" font-size="14.00">Let me buy you a drink!</text>
<text text-anchor="middle" x="180" y="-1212.72" font-family="Times,serif" font-size="14.00">I&#39;ve been wanting to</text>
<text text-anchor="middle" x="180" y="-1195.47" font-family="Times,serif" font-size="14.00">smack him around for</text>
<text text-anchor="middle" x="180" y="-1178.22" font-family="Times,serif" font-size="14.00">years!</text>
</g>
<!-- talk_p_proc&#45;&gt;Node007 -->
<g id="edge1" class="edge">
<title>talk_p_proc&#45;&gt;Node007</title>
<path fill="none" stroke="#555555" stroke-dasharray="1,5" d="M307.79,-1349.3C301.34,-1335.45 291.05,-1315.54 279,-1300.21 269.47,-1288.09 258.25,-1276.19 246.85,-1265.21"/>
<polygon fill="#555555" stroke="#555555" points="249.62,-1263.07 239.95,-1258.76 244.82,-1268.16 249.62,-1263.07"/>
</g>
<!-- Node001 -->
<g id="node7" class="node">
<title>Node001</title>
<ellipse fill="#ffffff" stroke="#000000" cx="368" cy="-985.63" rx="136.47" ry="115.44"/>
<text text-anchor="middle" x="368" y="-1049.96" font-family="Times,serif" font-size="14.00">Say, you&#39;re the one who</text>
<text text-anchor="middle" x="368" y="-1032.71" font-family="Times,serif" font-size="14.00">got Jack to give up,</text>
<text text-anchor="middle" x="368" y="-1015.46" font-family="Times,serif" font-size="14.00">ain&#39;t you? That was good</text>
<text text-anchor="middle" x="368" y="-998.21" font-family="Times,serif" font-size="14.00">work. So what do you</text>
<text text-anchor="middle" x="368" y="-980.96" font-family="Times,serif" font-size="14.00">want?</text>
<text text-anchor="middle" x="368" y="-963.71" font-family="Times,serif" font-size="14.00">&#45;&#45;&#45;</text>
<text text-anchor="middle" x="368" y="-946.46" font-family="Times,serif" font-size="14.00">Sure.</text>
<text text-anchor="middle" x="368" y="-929.21" font-family="Times,serif" font-size="14.00">&#45;&#45;&#45;</text>
<text text-anchor="middle" x="368" y="-911.96" font-family="Times,serif" font-size="14.00">What can I get you?</text>
</g>
<!-- talk_p_proc&#45;&gt;Node001 -->
<g id="edge2" class="edge">
<title>talk_p_proc&#45;&gt;Node001</title>
<path fill="none" stroke="#555555" stroke-dasharray="1,5" d="M318.38,-1348.65C325.76,-1310.54 343.51,-1216.07 354,-1136.32 355.04,-1128.4 356.03,-1120.24 356.97,-1112"/>
<polygon fill="#555555" stroke="#555555" points="360.55,-1112.47 358.18,-1102.15 353.6,-1111.7 360.55,-1112.47"/>
</g>
<!-- Node007&#45;&gt;Node001 -->
<g id="edge19" class="edge">
<title>Node007&#45;&gt;Node001</title>
<path fill="none" stroke="#990023" d="M172.51,-1154.19C172.94,-1142.11 175.18,-1129.71 180.75,-1119.07 194.86,-1092.08 217.26,-1069.4 241.72,-1050.86"/>
<polygon fill="#990023" stroke="#990023" points="243.45,-1053.2 249.45,-1044.47 239.32,-1047.55 243.45,-1053.2"/>
<text text-anchor="middle" x="267.62" y="-1123.02" font-family="Times,serif" font-size="14.00" fill="#990023">I&#39;ve got some questions.</text>
</g>
<!-- Node999 -->
<g id="node15" class="node">
<title>Node999</title>
<ellipse fill="#ffffff" stroke="#000000" cx="194" cy="-18" rx="27" ry="18"/>
</g>
<!-- Node007&#45;&gt;Node999 -->
<g id="edge20" class="edge">
<title>Node007&#45;&gt;Node999</title>
<path fill="none" stroke="#005099" d="M144.58,-1156.25C118.29,-1112.99 87,-1048.48 87,-986.63 87,-986.63 87,-986.63 87,-106.25 87,-68.13 128.29,-43.7 159.57,-30.67"/>
<polygon fill="#005099" stroke="#005099" points="160.69,-33.59 168.72,-26.68 158.13,-27.08 160.69,-33.59"/>
<text text-anchor="middle" x="126.38" y="-419.86" font-family="Times,serif" font-size="14.00" fill="#005099">Good! Bye.</text>
</g>
<!-- Node001&#45;&gt;Node999 -->
<g id="edge6" class="edge">
<title>Node001&#45;&gt;Node999</title>
<path fill="none" stroke="#990043" d="M278.56,-897.92C253.57,-868.97 228.92,-835.03 213,-799.7 189.63,-747.81 194,-729.98 194,-673.07 194,-673.07 194,-673.07 194,-106.25 194,-86.56 194,-64.37 194,-47.29"/>
<polygon fill="#990043" stroke="#990043" points="197.5,-47.38 194,-37.38 190.5,-47.38 197.5,-47.38"/>
<text text-anchor="middle" x="227.38" y="-317.97" font-family="Times,serif" font-size="14.00" fill="#990043">Goodbye.</text>
</g>
<!-- NodeBarter -->
<g id="node16" class="node">
<title>NodeBarter</title>
<ellipse fill="#ffffff" stroke="#000000" cx="912" cy="-18" rx="27" ry="18"/>
</g>
<!-- Node001&#45;&gt;NodeBarter -->
<g id="edge3" class="edge">
<title>Node001&#45;&gt;NodeBarter</title>
<path fill="none" stroke="#994300" d="M504.17,-975.07C685.87,-954.05 985,-886.97 985,-673.07 985,-673.07 985,-673.07 985,-106.25 985,-77.17 960.86,-52.69 940.34,-37.12"/>
<polygon fill="#994300" stroke="#994300" points="942.73,-33.81 932.56,-30.82 938.64,-39.49 942.73,-33.81"/>
<text text-anchor="middle" x="1007.12" y="-317.97" font-family="Times,serif" font-size="14.00" fill="#994300">Drink.</text>
</g>
<!-- Node002 -->
<g id="node17" class="node">
<title>Node002</title>
<ellipse fill="#ffffff" stroke="#000000" cx="368" cy="-672.07" rx="146.02" ry="127.63"/>
<text text-anchor="middle" x="368" y="-745.02" font-family="Times,serif" font-size="14.00">That&#39;s Hoss, President</text>
<text text-anchor="middle" x="368" y="-727.77" font-family="Times,serif" font-size="14.00">Tandi&#39;s boy. Born trouble</text>
<text text-anchor="middle" x="368" y="-710.52" font-family="Times,serif" font-size="14.00">when he&#39;s drinking, so</text>
<text text-anchor="middle" x="368" y="-693.27" font-family="Times,serif" font-size="14.00">I&#39;d stay clear of him if</text>
<text text-anchor="middle" x="368" y="-676.02" font-family="Times,serif" font-size="14.00">I were you.</text>
<text text-anchor="middle" x="368" y="-658.77" font-family="Times,serif" font-size="14.00">&#45;&#45;&#45;</text>
<text text-anchor="middle" x="368" y="-641.52" font-family="Times,serif" font-size="14.00">That was Hoss,</text>
<text text-anchor="middle" x="368" y="-624.27" font-family="Times,serif" font-size="14.00">President&#39;s Tandi&#39;s son.</text>
<text text-anchor="middle" x="368" y="-607.02" font-family="Times,serif" font-size="14.00">Boy, you sure whupped his</text>
<text text-anchor="middle" x="368" y="-589.77" font-family="Times,serif" font-size="14.00">ass good!</text>
</g>
<!-- Node001&#45;&gt;Node002 -->
<g id="edge4" class="edge">
<title>Node001&#45;&gt;Node002</title>
<path fill="none" stroke="#170099" d="M368,-869.95C368,-850.77 368,-830.69 368,-811.01"/>
<polygon fill="#170099" stroke="#170099" points="371.5,-811.12 368,-801.12 364.5,-811.12 371.5,-811.12"/>
<text text-anchor="middle" x="450.12" y="-838.9" font-family="Times,serif" font-size="14.00" fill="#170099">Who&#39;s the big guy over</text>
<text text-anchor="middle" x="450.12" y="-821.65" font-family="Times,serif" font-size="14.00" fill="#170099">there?</text>
</g>
<!-- Node003 -->
<g id="node18" class="node">
<title>Node003</title>
<ellipse fill="#ffffff" stroke="#000000" cx="740" cy="-672.07" rx="143.37" ry="127.63"/>
<text text-anchor="middle" x="740" y="-745.02" font-family="Times,serif" font-size="14.00">Not much. If you&#39;re</text>
<text text-anchor="middle" x="740" y="-727.77" font-family="Times,serif" font-size="14.00">looking for trouble, go</text>
<text text-anchor="middle" x="740" y="-710.52" font-family="Times,serif" font-size="14.00">drink someplace else,</text>
<text text-anchor="middle" x="740" y="-693.27" font-family="Times,serif" font-size="14.00">like the Rawhide. If</text>
<text text-anchor="middle" x="740" y="-676.02" font-family="Times,serif" font-size="14.00">you&#39;re looking for work,</text>
<text text-anchor="middle" x="740" y="-658.77" font-family="Times,serif" font-size="14.00">there&#39;s the Westin place</text>
<text text-anchor="middle" x="740" y="-641.52" font-family="Times,serif" font-size="14.00">west of town. Heard some</text>
<text text-anchor="middle" x="740" y="-624.27" font-family="Times,serif" font-size="14.00">things about President</text>
<text text-anchor="middle" x="740" y="-607.02" font-family="Times,serif" font-size="14.00">Tandi looking for a</text>
<text text-anchor="middle" x="740" y="-589.77" font-family="Times,serif" font-size="14.00">specialist, too.</text>
</g>
<!-- Node001&#45;&gt;Node003 -->
<g id="edge5" class="edge">
<title>Node001&#45;&gt;Node003</title>
<path fill="none" stroke="#169900" d="M468.19,-907.06C490.68,-889.26 514.3,-870.26 536,-852.2 567.26,-826.18 600.63,-797.35 631.12,-770.56"/>
<polygon fill="#169900" stroke="#169900" points="633.03,-772.67 638.23,-763.43 628.41,-767.41 633.03,-772.67"/>
<text text-anchor="middle" x="644.38" y="-838.9" font-family="Times,serif" font-size="14.00" fill="#169900">What&#39;s to do in this</text>
<text text-anchor="middle" x="644.38" y="-821.65" font-family="Times,serif" font-size="14.00" fill="#169900">town?</text>
</g>
<!-- destroy_p_proc -->
<g id="node8" class="node">
<title>destroy_p_proc</title>
<ellipse fill="#ffffff" stroke="#000000" cx="387" cy="-1366.86" rx="27" ry="18"/>
</g>
<!-- look_at_p_proc -->
<g id="node9" class="node">
<title>look_at_p_proc</title>
<ellipse fill="#ffffff" stroke="#000000" cx="568" cy="-1366.86" rx="135.94" ry="66.64"/>
<text text-anchor="middle" x="568" y="-1396.68" font-family="Times,serif" font-size="14.00">You see a dumpy&#45;looking</text>
<text text-anchor="middle" x="568" y="-1379.43" font-family="Times,serif" font-size="14.00">bald guy, polishing a</text>
<text text-anchor="middle" x="568" y="-1362.18" font-family="Times,serif" font-size="14.00">glass.</text>
<text text-anchor="middle" x="568" y="-1344.93" font-family="Times,serif" font-size="14.00">&#45;&#45;&#45;</text>
<text text-anchor="middle" x="568" y="-1327.68" font-family="Times,serif" font-size="14.00">It&#39;s the bartender.</text>
</g>
<!-- description_p_proc -->
<g id="node10" class="node">
<title>description_p_proc</title>
<ellipse fill="#ffffff" stroke="#000000" cx="858" cy="-1366.86" rx="136.47" ry="66.64"/>
<text text-anchor="middle" x="858" y="-1396.68" font-family="Times,serif" font-size="14.00">He&#39;s a gruff&#45;looking guy</text>
<text text-anchor="middle" x="858" y="-1379.43" font-family="Times,serif" font-size="14.00">with a crooked nose and</text>
<text text-anchor="middle" x="858" y="-1362.18" font-family="Times,serif" font-size="14.00">pinched up ears like he</text>
<text text-anchor="middle" x="858" y="-1344.93" font-family="Times,serif" font-size="14.00">might have been a boxer</text>
<text text-anchor="middle" x="858" y="-1327.68" font-family="Times,serif" font-size="14.00">years ago.</text>
</g>
<!-- use_skill_on_p_proc -->
<g id="node11" class="node">
<title>use_skill_on_p_proc</title>
<ellipse fill="#ffffff" stroke="#000000" cx="1039" cy="-1366.86" rx="27" ry="18"/>
</g>
<!-- damage_p_proc -->
<g id="node12" class="node">
<title>damage_p_proc</title>
<ellipse fill="#ffffff" stroke="#000000" cx="1111" cy="-1366.86" rx="27" ry="18"/>
</g>
<!-- map_enter_p_proc -->
<g id="node13" class="node">
<title>map_enter_p_proc</title>
<ellipse fill="#ffffff" stroke="#000000" cx="1183" cy="-1366.86" rx="27" ry="18"/>
</g>
<!-- Node998 -->
<g id="node14" class="node">
<title>Node998</title>
<ellipse fill="#ffffff" stroke="#000000" cx="1255" cy="-1366.86" rx="27" ry="18"/>
</g>
<!-- Node004 -->
<g id="node19" class="node">
<title>Node004</title>
<ellipse fill="#ffffff" stroke="#000000" cx="625" cy="-424.54" rx="139.65" ry="66.64"/>
<text text-anchor="middle" x="625" y="-454.36" font-family="Times,serif" font-size="14.00">Daughter of President</text>
<text text-anchor="middle" x="625" y="-437.11" font-family="Times,serif" font-size="14.00">Aradesh, the guy who</text>
<text text-anchor="middle" x="625" y="-419.86" font-family="Times,serif" font-size="14.00">founded NCR. She&#39;s been</text>
<text text-anchor="middle" x="625" y="-402.61" font-family="Times,serif" font-size="14.00">president for years. Does</text>
<text text-anchor="middle" x="625" y="-385.36" font-family="Times,serif" font-size="14.00">a good job too.</text>
</g>
<!-- Node002&#45;&gt;Node004 -->
<g id="edge7" class="edge">
<title>Node002&#45;&gt;Node004</title>
<path fill="none" stroke="#006f99" d="M348.76,-545.34C351.7,-532.13 357.11,-519.71 366,-509.18 381.42,-490.93 449.08,-497.94 472,-491.18 486.53,-486.9 501.52,-481.62 516.18,-475.93"/>
<polygon fill="#006f99" stroke="#006f99" points="517.26,-478.87 525.26,-471.93 514.68,-472.36 517.26,-478.87"/>
<text text-anchor="middle" x="426" y="-513.13" font-family="Times,serif" font-size="14.00" fill="#006f99">President Tandi?</text>
</g>
<!-- Node006 -->
<g id="node20" class="node">
<title>Node006</title>
<ellipse fill="#ffffff" stroke="#000000" cx="682" cy="-107.25" rx="128.55" ry="18"/>
<text text-anchor="middle" x="682" y="-102.58" font-family="Times,serif" font-size="14.00">Would you like a drink?</text>
</g>
<!-- Node002&#45;&gt;Node006 -->
<g id="edge8" class="edge">
<title>Node002&#45;&gt;Node006</title>
<path fill="none" stroke="#999600" d="M305.71,-556.39C274.31,-482.97 249.09,-386.58 281.5,-305.39 310.33,-233.16 334.84,-217.72 402,-178.5 453.93,-148.17 518.7,-130.84 572.86,-120.99"/>
<polygon fill="#999600" stroke="#999600" points="573.3,-124.29 582.55,-119.11 572.09,-117.39 573.3,-124.29"/>
<text text-anchor="middle" x="365.25" y="-317.97" font-family="Times,serif" font-size="14.00" fill="#999600">Tough guy, eh? Thanks.</text>
</g>
<!-- Node003&#45;&gt;Node004 -->
<g id="edge10" class="edge">
<title>Node003&#45;&gt;Node004</title>
<path fill="none" stroke="#00993d" d="M681.63,-555.31C676.94,-545.58 672.35,-535.86 668,-526.43 664.12,-518.02 660.15,-509.15 656.28,-500.32"/>
<polygon fill="#00993d" stroke="#00993d" points="659.16,-499.15 651.96,-491.38 652.74,-501.94 659.16,-499.15"/>
<text text-anchor="middle" x="728" y="-513.13" font-family="Times,serif" font-size="14.00" fill="#00993d">President Tandi?</text>
</g>
<!-- Node003&#45;&gt;Node006 -->
<g id="edge11" class="edge">
<title>Node003&#45;&gt;Node006</title>
<path fill="none" stroke="#991000" d="M831.38,-573.58C849.66,-548.5 866.23,-520.32 876,-491.18 894.84,-435.02 889.9,-415.48 876,-357.89 854.97,-270.79 843.14,-245.82 784,-178.5 767.09,-159.25 743.83,-142.71 723.79,-130.52"/>
<polygon fill="#991000" stroke="#991000" points="725.94,-127.13 715.55,-125.06 722.38,-133.16 725.94,-127.13"/>
<text text-anchor="middle" x="898.75" y="-317.97" font-family="Times,serif" font-size="14.00" fill="#991000">Thanks.</text>
</g>
<!-- Node005 -->
<g id="node21" class="node">
<title>Node005</title>
<ellipse fill="#ffffff" stroke="#000000" cx="550" cy="-232.95" rx="138.59" ry="54.45"/>
<text text-anchor="middle" x="550" y="-254.15" font-family="Times,serif" font-size="14.00">Don&#39;t know. Gunther, her</text>
<text text-anchor="middle" x="550" y="-236.9" font-family="Times,serif" font-size="14.00">aide, probably does. He&#39;s</text>
<text text-anchor="middle" x="550" y="-219.65" font-family="Times,serif" font-size="14.00">down at the Hall of</text>
<text text-anchor="middle" x="550" y="-202.4" font-family="Times,serif" font-size="14.00">Congress.</text>
</g>
<!-- Node003&#45;&gt;Node005 -->
<g id="edge9" class="edge">
<title>Node003&#45;&gt;Node005</title>
<path fill="none" stroke="#690099" d="M783.35,-549.9C797.69,-489.37 803.41,-416.71 774,-357.89 758.45,-326.8 745.25,-324.19 716,-305.39 698.69,-294.27 679.36,-284.16 660.18,-275.27"/>
<polygon fill="#690099" stroke="#690099" points="661.72,-271.68 651.17,-270.74 658.83,-278.05 661.72,-271.68"/>
<text text-anchor="middle" x="833.62" y="-419.86" font-family="Times,serif" font-size="14.00" fill="#690099">Specialist?</text>
</g>
<!-- Node004&#45;&gt;Node002 -->
<g id="edge13" class="edge">
<title>Node004&#45;&gt;Node002</title>
<path fill="none" stroke="#499900" d="M552.03,-481.6C541.16,-490.58 530.26,-499.95 520.25,-509.18 501.89,-526.12 483.07,-544.84 465.21,-563.37"/>
<polygon fill="#499900" stroke="#499900" points="463.01,-560.65 458.62,-570.29 468.06,-565.49 463.01,-560.65"/>
<text text-anchor="middle" x="587.88" y="-513.13" font-family="Times,serif" font-size="14.00" fill="#499900">Who&#39;s the big guy?</text>
</g>
<!-- Node004&#45;&gt;Node006 -->
<g id="edge14" class="edge">
<title>Node004&#45;&gt;Node006</title>
<path fill="none" stroke="#990076" d="M695.57,-366.69C702.19,-358.42 707.94,-349.44 712,-339.89 741.43,-270.78 712.56,-180.41 694.36,-135.73"/>
<polygon fill="#990076" stroke="#990076" points="697.22,-134.5 690.11,-126.64 690.77,-137.22 697.22,-134.5"/>
<text text-anchor="middle" x="751.75" y="-228.27" font-family="Times,serif" font-size="14.00" fill="#990076">Thanks.</text>
</g>
<!-- Node004&#45;&gt;Node005 -->
<g id="edge12" class="edge">
<title>Node004&#45;&gt;Node005</title>
<path fill="none" stroke="#001c99" d="M563.21,-364.44C557.88,-356.69 553.28,-348.46 550,-339.89 545.02,-326.89 542.99,-312.31 542.59,-298.23"/>
<polygon fill="#001c99" stroke="#001c99" points="546.09,-298.59 542.59,-288.59 539.09,-298.59 546.09,-298.59"/>
<text text-anchor="middle" x="631" y="-326.59" font-family="Times,serif" font-size="14.00" fill="#001c99">And she&#39;s looking for a</text>
<text text-anchor="middle" x="631" y="-309.34" font-family="Times,serif" font-size="14.00" fill="#001c99">specialist? What kind?</text>
</g>
<!-- Node006&#45;&gt;Node999 -->
<g id="edge18" class="edge">
<title>Node006&#45;&gt;Node999</title>
<path fill="none" stroke="#00990a" d="M604.94,-92.47C498.23,-73.39 309.68,-39.68 230.56,-25.54"/>
<polygon fill="#00990a" stroke="#00990a" points="231.6,-21.99 221.14,-23.67 230.37,-28.88 231.6,-21.99"/>
<text text-anchor="middle" x="494.38" y="-57.95" font-family="Times,serif" font-size="14.00" fill="#00990a">No.</text>
</g>
<!-- Node006&#45;&gt;NodeBarter -->
<g id="edge17" class="edge">
<title>Node006&#45;&gt;NodeBarter</title>
<path fill="none" stroke="#360099" d="M725.26,-89.84C769.82,-72.94 838.29,-46.96 878.77,-31.61"/>
<polygon fill="#360099" stroke="#360099" points="879.81,-34.58 887.92,-27.76 877.32,-28.03 879.81,-34.58"/>
<text text-anchor="middle" x="836.12" y="-57.95" font-family="Times,serif" font-size="14.00" fill="#360099">Sure.</text>
</g>
<!-- Node005&#45;&gt;Node002 -->
<g id="edge15" class="edge">
<title>Node005&#45;&gt;Node002</title>
<path fill="none" stroke="#009990" d="M513.98,-285.87C497.41,-305.87 476.07,-326.99 452,-339.89 407.66,-363.66 372.87,-319.6 340.25,-357.89 298,-407.49 301.18,-478.91 316.61,-541.03"/>
<polygon fill="#009990" stroke="#009990" points="313.39,-541.52 319.3,-550.31 320.16,-539.75 313.39,-541.52"/>
<text text-anchor="middle" x="408.88" y="-419.86" font-family="Times,serif" font-size="14.00" fill="#009990">Who&#39;s the big guy?</text>
</g>
<!-- Node005&#45;&gt;Node006 -->
<g id="edge16" class="edge">
<title>Node005&#45;&gt;Node006</title>
<path fill="none" stroke="#996300" d="M602.93,-182.35C621.08,-165.33 640.61,-147.03 655.72,-132.87"/>
<polygon fill="#996300" stroke="#996300" points="657.72,-135.86 662.62,-126.47 652.93,-130.75 657.72,-135.86"/>
<text text-anchor="middle" x="667.5" y="-147.2" font-family="Times,serif" font-size="14.00" fill="#996300">Thanks</text>
</g>
</g>
</svg>
