<?xml version="1.0" encoding="UTF-8" standalone="no"?>
<!DOCTYPE svg PUBLIC "-//W3C//DTD SVG 1.1//EN"
 "http://www.w3.org/Graphics/SVG/1.1/DTD/svg11.dtd">
<!-- Generated by graphviz version 8.0.5 (0)
 -->
<!-- Title: scrobo Pages: 1 -->
<svg width="5119pt" height="840pt"
 viewBox="0.00 0.00 5119.35 840.22" xmlns="http://www.w3.org/2000/svg" xmlns:xlink="http://www.w3.org/1999/xlink">
<g id="graph0" class="graph" transform="scale(1 1) rotate(0) translate(4 836.22)">
<title>scrobo</title>
<polygon fill="white" stroke="none" points="-4,4 -4,-836.22 5115.35,-836.22 5115.35,4 -4,4"/>
<!-- checkPartyMembersNearDoor -->
<g id="node1" class="node">
<title>checkPartyMembersNearDoor</title>
<ellipse fill="#ffffff" stroke="#000000" cx="27" cy="-716.78" rx="27" ry="18"/>
</g>
<!-- start -->
<g id="node2" class="node">
<title>start</title>
<ellipse fill="#ffffff" stroke="#000000" cx="99" cy="-716.78" rx="27" ry="18"/>
</g>
<!-- critter_p_proc -->
<g id="node3" class="node">
<title>critter_p_proc</title>
<ellipse fill="#ffffff" stroke="#000000" cx="171" cy="-716.78" rx="27" ry="18"/>
</g>
<!-- pickup_p_proc -->
<g id="node4" class="node">
<title>pickup_p_proc</title>
<ellipse fill="#ffffff" stroke="#000000" cx="243" cy="-716.78" rx="27" ry="18"/>
</g>
<!-- talk_p_proc -->
<g id="node5" class="node">
<title>talk_p_proc</title>
<ellipse fill="#ffffff" stroke="#000000" cx="315" cy="-716.78" rx="27" ry="18"/>
</g>
<!-- Node1000 -->
<g id="node6" class="node">
<title>Node1000</title>
<ellipse fill="#ffffff" stroke="#000000" cx="186" cy="-354.42" rx="134.35" ry="30.05"/>
<text text-anchor="middle" x="186" y="-358.37" font-family="Times,serif" font-size="14.00">Woof!</text>
<text text-anchor="middle" x="186" y="-341.12" font-family="Times,serif" font-size="14.00">Wo&#45;wo&#45;wo&#45;&lt;click&gt;woof?</text>
</g>
<!-- talk_p_proc&#45;&gt;Node1000 -->
<g id="edge1" class="edge">
<title>talk_p_proc&#45;&gt;Node1000</title>
<path fill="none" stroke="#555555" stroke-dasharray="1,5" d="M309.93,-698.62C303.22,-676.15 290.85,-635.59 279,-601.35 253.55,-527.8 220.75,-443.14 201.68,-394.79"/>
<polygon fill="#555555" stroke="#555555" points="204.64,-393.77 197.71,-385.75 198.13,-396.34 204.64,-393.77"/>
</g>
<!-- Node001 -->
<g id="node7" class="node">
<title>Node001</title>
<ellipse fill="#ffffff" stroke="#000000" cx="444" cy="-354.42" rx="105.92" ry="18"/>
<text text-anchor="middle" x="444" y="-349.75" font-family="Times,serif" font-size="14.00">Arf! &lt;click&gt; Woof!</text>
</g>
<!-- talk_p_proc&#45;&gt;Node001 -->
<g id="edge2" class="edge">
<title>talk_p_proc&#45;&gt;Node001</title>
<path fill="none" stroke="#555555" stroke-dasharray="1,5" d="M320.07,-698.62C326.78,-676.15 339.15,-635.59 351,-601.35 378.72,-521.25 415.16,-427.96 433.08,-382.76"/>
<polygon fill="#555555" stroke="#555555" points="436.68,-384.18 437.12,-373.59 430.18,-381.59 436.68,-384.18"/>
</g>
<!-- destroy_p_proc -->
<g id="node8" class="node">
<title>destroy_p_proc</title>
<ellipse fill="#ffffff" stroke="#000000" cx="387" cy="-716.78" rx="27" ry="18"/>
</g>
<!-- look_at_p_proc -->
<g id="node9" class="node">
<title>look_at_p_proc</title>
<ellipse fill="#ffffff" stroke="#000000" cx="576" cy="-716.78" rx="143.9" ry="91.04"/>
<text text-anchor="middle" x="576" y="-763.86" font-family="Times,serif" font-size="14.00">You see a strange</text>
<text text-anchor="middle" x="576" y="-746.61" font-family="Times,serif" font-size="14.00">half&#45;dog, half&#45;metal</text>
<text text-anchor="middle" x="576" y="-729.36" font-family="Times,serif" font-size="14.00">thing. It appears to be</text>
<text text-anchor="middle" x="576" y="-712.11" font-family="Times,serif" font-size="14.00">activated.</text>
<text text-anchor="middle" x="576" y="-694.86" font-family="Times,serif" font-size="14.00">&#45;&#45;&#45;</text>
<text text-anchor="middle" x="576" y="-677.61" font-family="Times,serif" font-size="14.00">It&#39;s Robodog! Everybody&#39;s</text>
<text text-anchor="middle" x="576" y="-660.36" font-family="Times,serif" font-size="14.00">favorite pet!</text>
</g>
<!-- description_p_proc -->
<g id="node10" class="node">
<title>description_p_proc</title>
<ellipse fill="#ffffff" stroke="#000000" cx="874" cy="-716.78" rx="136.47" ry="91.04"/>
<text text-anchor="middle" x="874" y="-763.86" font-family="Times,serif" font-size="14.00">Either this thing is some</text>
<text text-anchor="middle" x="874" y="-746.61" font-family="Times,serif" font-size="14.00">horrible stitched</text>
<text text-anchor="middle" x="874" y="-729.36" font-family="Times,serif" font-size="14.00">together combination of</text>
<text text-anchor="middle" x="874" y="-712.11" font-family="Times,serif" font-size="14.00">dog and machine or it&#39;s</text>
<text text-anchor="middle" x="874" y="-694.86" font-family="Times,serif" font-size="14.00">all machine, cunningly</text>
<text text-anchor="middle" x="874" y="-677.61" font-family="Times,serif" font-size="14.00">done to look like a dog.</text>
<text text-anchor="middle" x="874" y="-660.36" font-family="Times,serif" font-size="14.00">It&#39;s hard to tell.</text>
</g>
<!-- use_skill_on_p_proc -->
<g id="node11" class="node">
<title>use_skill_on_p_proc</title>
<ellipse fill="#ffffff" stroke="#000000" cx="1055" cy="-716.78" rx="27" ry="18"/>
</g>
<!-- Heal_Robo(0) -->
<g id="node12" class="node">
<title>Heal_Robo(0)</title>
<ellipse fill="none" stroke="black" cx="1055" cy="-354.42" rx="78.04" ry="18"/>
<text text-anchor="middle" x="1055" y="-349.75" font-family="Times,serif" font-size="14.00">Heal_Robo(0)</text>
</g>
<!-- use_skill_on_p_proc&#45;&gt;Heal_Robo(0) -->
<g id="edge3" class="edge">
<title>use_skill_on_p_proc&#45;&gt;Heal_Robo(0)</title>
<path fill="none" stroke="#555555" stroke-dasharray="1,5" d="M1055,-698.4C1055,-640.6 1055,-454.49 1055,-383.39"/>
<polygon fill="#555555" stroke="#555555" points="1058.5,-383.63 1055,-373.63 1051.5,-383.63 1058.5,-383.63"/>
</g>
<!-- damage_p_proc -->
<g id="node13" class="node">
<title>damage_p_proc</title>
<ellipse fill="#ffffff" stroke="#000000" cx="1127" cy="-716.78" rx="27" ry="18"/>
</g>
<!-- map_enter_p_proc -->
<g id="node14" class="node">
<title>map_enter_p_proc</title>
<ellipse fill="#ffffff" stroke="#000000" cx="1199" cy="-716.78" rx="27" ry="18"/>
</g>
<!-- push_p_proc -->
<g id="node15" class="node">
<title>push_p_proc</title>
<ellipse fill="#ffffff" stroke="#000000" cx="1271" cy="-716.78" rx="27" ry="18"/>
</g>
<!-- Node1001 -->
<g id="node16" class="node">
<title>Node1001</title>
<ellipse fill="#ffffff" stroke="#000000" cx="1458" cy="-716.78" rx="142.31" ry="103.24"/>
<text text-anchor="middle" x="1458" y="-772.48" font-family="Times,serif" font-size="14.00">Arf! &lt;click&gt; Woof!</text>
<text text-anchor="middle" x="1458" y="-755.23" font-family="Times,serif" font-size="14.00">&#45;&#45;&#45;</text>
<text text-anchor="middle" x="1458" y="-737.98" font-family="Times,serif" font-size="14.00">Rowf? &lt;boing&gt; Raggy?</text>
<text text-anchor="middle" x="1458" y="-720.73" font-family="Times,serif" font-size="14.00">&#45;&#45;&#45;</text>
<text text-anchor="middle" x="1458" y="-703.48" font-family="Times,serif" font-size="14.00">&lt;click&gt; whimper.</text>
<text text-anchor="middle" x="1458" y="-686.23" font-family="Times,serif" font-size="14.00">&#45;&#45;&#45;</text>
<text text-anchor="middle" x="1458" y="-668.98" font-family="Times,serif" font-size="14.00">How&#45;woooo! &lt;click&#45;click&gt;</text>
<text text-anchor="middle" x="1458" y="-651.73" font-family="Times,serif" font-size="14.00">How&#45;wooo!</text>
</g>
<!-- Node1002 -->
<g id="node17" class="node">
<title>Node1002</title>
<ellipse fill="#ffffff" stroke="#000000" cx="1788" cy="-716.78" rx="169.58" ry="18"/>
<text text-anchor="middle" x="1788" y="-712.11" font-family="Times,serif" font-size="14.00">Ee&#45;bee&#45;dee&#45;bee&#45;ee&#45;bee&#45;dee&#45;bee!</text>
</g>
<!-- Node1003 -->
<g id="node18" class="node">
<title>Node1003</title>
<ellipse fill="#ffffff" stroke="#000000" cx="2003" cy="-716.78" rx="27" ry="18"/>
</g>
<!-- Node1007 -->
<g id="node19" class="node">
<title>Node1007</title>
<ellipse fill="#ffffff" stroke="#000000" cx="2111" cy="-354.42" rx="127.99" ry="176.42"/>
<text text-anchor="middle" x="2111" y="-461.87" font-family="Times,serif" font-size="14.00">Arf&#45;arf proximity set to</text>
<text text-anchor="middle" x="2111" y="-444.62" font-family="Times,serif" font-size="14.00">close.</text>
<text text-anchor="middle" x="2111" y="-427.37" font-family="Times,serif" font-size="14.00">&#45;&#45;&#45;</text>
<text text-anchor="middle" x="2111" y="-410.12" font-family="Times,serif" font-size="14.00">Arf&#45;arf proximity set to</text>
<text text-anchor="middle" x="2111" y="-392.87" font-family="Times,serif" font-size="14.00">medium.</text>
<text text-anchor="middle" x="2111" y="-375.62" font-family="Times,serif" font-size="14.00">&#45;&#45;&#45;</text>
<text text-anchor="middle" x="2111" y="-358.37" font-family="Times,serif" font-size="14.00">Arf&#45;arf proximity set to</text>
<text text-anchor="middle" x="2111" y="-341.12" font-family="Times,serif" font-size="14.00">far.</text>
<text text-anchor="middle" x="2111" y="-323.87" font-family="Times,serif" font-size="14.00">&#45;&#45;&#45;</text>
<text text-anchor="middle" x="2111" y="-306.62" font-family="Times,serif" font-size="14.00">Ok your at a good</text>
<text text-anchor="middle" x="2111" y="-289.37" font-family="Times,serif" font-size="14.00">distance for now.</text>
<text text-anchor="middle" x="2111" y="-272.12" font-family="Times,serif" font-size="14.00">&#45;&#45;&#45;</text>
<text text-anchor="middle" x="2111" y="-254.87" font-family="Times,serif" font-size="14.00">Ok your at a good</text>
<text text-anchor="middle" x="2111" y="-237.62" font-family="Times,serif" font-size="14.00">distance for now.</text>
</g>
<!-- Node1003&#45;&gt;Node1007 -->
<g id="edge4" class="edge">
<title>Node1003&#45;&gt;Node1007</title>
<path fill="none" stroke="#555555" stroke-dasharray="1,5" d="M2008.06,-698.88C2017.48,-667.45 2038.63,-596.9 2059.32,-527.87"/>
<polygon fill="#555555" stroke="#555555" points="2062.85,-529.28 2062.37,-518.7 2056.14,-527.27 2062.85,-529.28"/>
</g>
<!-- Node1004 -->
<g id="node20" class="node">
<title>Node1004</title>
<ellipse fill="#ffffff" stroke="#000000" cx="2075" cy="-716.78" rx="27" ry="18"/>
</g>
<!-- Node1004&#45;&gt;Node1007 -->
<g id="edge5" class="edge">
<title>Node1004&#45;&gt;Node1007</title>
<path fill="none" stroke="#555555" stroke-dasharray="1,5" d="M2076.74,-698.4C2079.71,-668.64 2086.08,-604.84 2092.54,-540.25"/>
<polygon fill="#555555" stroke="#555555" points="2096.1,-540.76 2093.61,-530.46 2089.14,-540.07 2096.1,-540.76"/>
</g>
<!-- Node1005 -->
<g id="node21" class="node">
<title>Node1005</title>
<ellipse fill="#ffffff" stroke="#000000" cx="2147" cy="-716.78" rx="27" ry="18"/>
</g>
<!-- Node1005&#45;&gt;Node1007 -->
<g id="edge6" class="edge">
<title>Node1005&#45;&gt;Node1007</title>
<path fill="none" stroke="#555555" stroke-dasharray="1,5" d="M2145.26,-698.4C2142.29,-668.64 2135.92,-604.84 2129.46,-540.25"/>
<polygon fill="#555555" stroke="#555555" points="2132.86,-540.07 2128.39,-530.46 2125.9,-540.76 2132.86,-540.07"/>
</g>
<!-- Node1006 -->
<g id="node22" class="node">
<title>Node1006</title>
<ellipse fill="#ffffff" stroke="#000000" cx="2219" cy="-716.78" rx="27" ry="18"/>
</g>
<!-- Node1006&#45;&gt;Node1007 -->
<g id="edge7" class="edge">
<title>Node1006&#45;&gt;Node1007</title>
<path fill="none" stroke="#555555" stroke-dasharray="1,5" d="M2213.94,-698.88C2204.52,-667.45 2183.37,-596.9 2162.68,-527.87"/>
<polygon fill="#555555" stroke="#555555" points="2165.86,-527.27 2159.63,-518.7 2159.15,-529.28 2165.86,-527.27"/>
</g>
<!-- Node1008 -->
<g id="node23" class="node">
<title>Node1008</title>
<ellipse fill="#ffffff" stroke="#000000" cx="2291" cy="-716.78" rx="27" ry="18"/>
</g>
<!-- Node1009 -->
<g id="node24" class="node">
<title>Node1009</title>
<ellipse fill="#ffffff" stroke="#000000" cx="2363" cy="-716.78" rx="27" ry="18"/>
</g>
<!-- Node1010 -->
<g id="node25" class="node">
<title>Node1010</title>
<ellipse fill="#ffffff" stroke="#000000" cx="2435" cy="-716.78" rx="27" ry="18"/>
</g>
<!-- Node1100 -->
<g id="node26" class="node">
<title>Node1100</title>
<ellipse fill="#ffffff" stroke="#000000" cx="2614" cy="-716.78" rx="134.35" ry="66.64"/>
<text text-anchor="middle" x="2614" y="-746.61" font-family="Times,serif" font-size="14.00">.whirrrrr...I am not a</text>
<text text-anchor="middle" x="2614" y="-729.36" font-family="Times,serif" font-size="14.00">Daggit.</text>
<text text-anchor="middle" x="2614" y="-712.11" font-family="Times,serif" font-size="14.00">&#45;&#45;&#45;</text>
<text text-anchor="middle" x="2614" y="-694.86" font-family="Times,serif" font-size="14.00">Woof!</text>
<text text-anchor="middle" x="2614" y="-677.61" font-family="Times,serif" font-size="14.00">Wo&#45;wo&#45;wo&#45;&lt;click&gt;woof?</text>
</g>
<!-- Node998 -->
<g id="node27" class="node">
<title>Node998</title>
<ellipse fill="#ffffff" stroke="#000000" cx="2793" cy="-716.78" rx="27" ry="18"/>
</g>
<!-- Node999 -->
<g id="node28" class="node">
<title>Node999</title>
<ellipse fill="#ffffff" stroke="#000000" cx="2808" cy="-18" rx="27" ry="18"/>
</g>
<!-- Node002 -->
<g id="node29" class="node">
<title>Node002</title>
<ellipse fill="#ffffff" stroke="#000000" cx="3290" cy="-716.78" rx="174.84" ry="18"/>
<text text-anchor="middle" x="3290" y="-712.11" font-family="Times,serif" font-size="14.00">Barkbarkbarkbarkbarkbarkbark!</text>
</g>
<!-- Node003 -->
<g id="node30" class="node">
<title>Node003</title>
<ellipse fill="#ffffff" stroke="#000000" cx="3625" cy="-716.78" rx="142.31" ry="54.45"/>
<text text-anchor="middle" x="3625" y="-737.98" font-family="Times,serif" font-size="14.00">Grrr...</text>
<text text-anchor="middle" x="3625" y="-720.73" font-family="Times,serif" font-size="14.00">&#45;&#45;&#45;</text>
<text text-anchor="middle" x="3625" y="-703.48" font-family="Times,serif" font-size="14.00">How&#45;woooo! &lt;click&#45;click&gt;</text>
<text text-anchor="middle" x="3625" y="-686.23" font-family="Times,serif" font-size="14.00">How&#45;wooo!</text>
</g>
<!-- Node004 -->
<g id="node31" class="node">
<title>Node004</title>
<ellipse fill="#ffffff" stroke="#000000" cx="3880" cy="-716.78" rx="94.88" ry="18"/>
<text text-anchor="middle" x="3880" y="-712.11" font-family="Times,serif" font-size="14.00">Yipe! Yipe! Yipe!</text>
</g>
<!-- Node005 -->
<g id="node32" class="node">
<title>Node005</title>
<ellipse fill="#ffffff" stroke="#000000" cx="4116" cy="-716.78" rx="123.21" ry="30.05"/>
<text text-anchor="middle" x="4116" y="-720.73" font-family="Times,serif" font-size="14.00">Rowf! &lt;tick&#45;tick&#45;tick&gt;</text>
<text text-anchor="middle" x="4116" y="-703.48" font-family="Times,serif" font-size="14.00">Rowf!</text>
</g>
<!-- Node006 -->
<g id="node33" class="node">
<title>Node006</title>
<ellipse fill="#ffffff" stroke="#000000" cx="4427" cy="-716.78" rx="169.58" ry="18"/>
<text text-anchor="middle" x="4427" y="-712.11" font-family="Times,serif" font-size="14.00">Ee&#45;bee&#45;dee&#45;bee&#45;ee&#45;bee&#45;dee&#45;bee!</text>
</g>
<!-- Node007 -->
<g id="node34" class="node">
<title>Node007</title>
<ellipse fill="#ffffff" stroke="#000000" cx="2598" cy="-354.42" rx="134.86" ry="18"/>
<text text-anchor="middle" x="2598" y="-349.75" font-family="Times,serif" font-size="14.00">Arf&#45;arf&#45;arf&#45;arf&#45;arf&#45;arf&#45;arf!</text>
</g>
<!-- Node007&#45;&gt;Node999 -->
<g id="edge9" class="edge">
<title>Node007&#45;&gt;Node999</title>
<path fill="none" stroke="#998600" d="M2589.45,-336.28C2567.01,-288.6 2512.42,-152.74 2575.75,-73 2599.63,-42.93 2710.9,-28.08 2770.33,-22.19"/>
<polygon fill="#998600" stroke="#998600" points="2770.52,-25.59 2780.14,-21.16 2769.85,-18.62 2770.52,-25.59"/>
<text text-anchor="middle" x="2653.62" y="-111.45" font-family="Times,serif" font-size="14.00" fill="#998600">I don&#39;t think I want to</text>
<text text-anchor="middle" x="2653.62" y="-94.2" font-family="Times,serif" font-size="14.00" fill="#998600">rejoin you just yet.</text>
<text text-anchor="middle" x="2653.62" y="-76.95" font-family="Times,serif" font-size="14.00" fill="#998600">Goodbye.</text>
</g>
<!-- NodeRejoin -->
<g id="node35" class="node">
<title>NodeRejoin</title>
<ellipse fill="#ffffff" stroke="#000000" cx="2767" cy="-98.88" rx="27" ry="18"/>
</g>
<!-- Node007&#45;&gt;NodeRejoin -->
<g id="edge8" class="edge">
<title>Node007&#45;&gt;NodeRejoin</title>
<path fill="none" stroke="#007f99" d="M2609.62,-336C2638.97,-291.96 2716.21,-176.07 2750.36,-124.84"/>
<polygon fill="#007f99" stroke="#007f99" points="2753.77,-127.04 2756.4,-116.78 2747.94,-123.16 2753.77,-127.04"/>
<text text-anchor="middle" x="2745.88" y="-146.7" font-family="Times,serif" font-size="14.00" fill="#007f99">OK</text>
</g>
<!-- NodeRejoin&#45;&gt;Node999 -->
<g id="edge17" class="edge">
<title>NodeRejoin&#45;&gt;Node999</title>
<path fill="none" stroke="#555555" stroke-dasharray="1,5" d="M2775.5,-81.53C2780.99,-70.96 2788.27,-56.96 2794.54,-44.89"/>
<polygon fill="#555555" stroke="#555555" points="2798.01,-46.81 2799.52,-36.32 2791.8,-43.58 2798.01,-46.81"/>
</g>
<!-- Node008 -->
<g id="node36" class="node">
<title>Node008</title>
<ellipse fill="#ffffff" stroke="#000000" cx="2968" cy="-716.78" rx="129.6" ry="18"/>
<text text-anchor="middle" x="2968" y="-712.11" font-family="Times,serif" font-size="14.00">Rowf? &lt;boing&gt; Raggy?</text>
</g>
<!-- Node008&#45;&gt;Node999 -->
<g id="edge12" class="edge">
<title>Node008&#45;&gt;Node999</title>
<path fill="none" stroke="#990000" d="M2944.45,-698.73C2915.28,-676.08 2866.75,-633.08 2845,-583.35 2802.24,-485.56 2805.42,-146.89 2807.35,-46.96"/>
<polygon fill="#990000" stroke="#990000" points="2810.87,-47.32 2807.57,-37.25 2803.87,-47.17 2810.87,-47.32"/>
<text text-anchor="middle" x="2867" y="-146.7" font-family="Times,serif" font-size="14.00" fill="#990000">That&#39;s it for now.</text>
</g>
<!-- NodeStat -->
<g id="node37" class="node">
<title>NodeStat</title>
<ellipse fill="#ffffff" stroke="#000000" cx="2879" cy="-354.42" rx="29.11" ry="18"/>
<text text-anchor="middle" x="2879" y="-349.75" font-family="Times,serif" font-size="14.00">HP:</text>
</g>
<!-- Node008&#45;&gt;NodeStat -->
<g id="edge10" class="edge">
<title>Node008&#45;&gt;NodeStat</title>
<path fill="none" stroke="#590099" d="M2946.53,-698.84C2919.49,-676 2874.43,-632.47 2856.5,-583.35 2831.36,-514.45 2854.13,-426.52 2868.82,-382.74"/>
<polygon fill="#590099" stroke="#590099" points="2872.45,-383.95 2872.43,-373.36 2865.84,-381.65 2872.45,-383.95"/>
<text text-anchor="middle" x="2905.75" y="-561.42" font-family="Times,serif" font-size="14.00" fill="#590099">How are you?</text>
</g>
<!-- Node009 -->
<g id="node38" class="node">
<title>Node009</title>
<ellipse fill="#ffffff" stroke="#000000" cx="3024" cy="-354.42" rx="98.03" ry="18"/>
<text text-anchor="middle" x="3024" y="-349.75" font-family="Times,serif" font-size="14.00">&lt;click&gt; whimper</text>
</g>
<!-- Node008&#45;&gt;Node009 -->
<g id="edge11" class="edge">
<title>Node008&#45;&gt;Node009</title>
<path fill="none" stroke="#00992d" d="M2970.7,-698.4C2979.68,-640.6 3008.6,-454.49 3019.65,-383.39"/>
<polygon fill="#00992d" stroke="#00992d" points="3023.25,-384.05 3021.33,-373.63 3016.33,-382.97 3023.25,-384.05"/>
<text text-anchor="middle" x="3075.5" y="-570.05" font-family="Times,serif" font-size="14.00" fill="#00992d">I need you to wait here</text>
<text text-anchor="middle" x="3075.5" y="-552.8" font-family="Times,serif" font-size="14.00" fill="#00992d">until I come back.</text>
</g>
<!-- NodeStat&#45;&gt;Node008 -->
<g id="edge18" class="edge">
<title>NodeStat&#45;&gt;Node008</title>
<path fill="none" stroke="#555555" stroke-dasharray="1,5" d="M2878.04,-372.68C2877.08,-406.68 2879.57,-483.18 2917,-530.85 2928.29,-545.23 2943.66,-533.76 2954,-548.85 2982.49,-590.41 2978.83,-652.17 2973.49,-687.76"/>
<polygon fill="#555555" stroke="#555555" points="2969.92,-686.9 2971.73,-697.33 2976.82,-688.04 2969.92,-686.9"/>
</g>
<!-- Node009&#45;&gt;Node008 -->
<g id="edge13" class="edge">
<title>Node009&#45;&gt;Node008</title>
<path fill="none" stroke="#002c99" d="M3048.35,-372.35C3101.04,-411.04 3216.63,-508.4 3162,-583.35 3146.6,-604.47 3128.92,-588.77 3106,-601.35 3061.48,-625.76 3017.67,-665.53 2991.73,-691.17"/>
<polygon fill="#002c99" stroke="#002c99" points="2989.86,-688.09 2985.28,-697.64 2994.82,-693.03 2989.86,-688.09"/>
<text text-anchor="middle" x="3220.25" y="-561.42" font-family="Times,serif" font-size="14.00" fill="#002c99">Never mind.</text>
</g>
<!-- NodeLeave -->
<g id="node39" class="node">
<title>NodeLeave</title>
<ellipse fill="#ffffff" stroke="#000000" cx="2957" cy="-98.88" rx="27" ry="18"/>
</g>
<!-- Node009&#45;&gt;NodeLeave -->
<g id="edge14" class="edge">
<title>Node009&#45;&gt;NodeLeave</title>
<path fill="none" stroke="#599900" d="M3019.39,-336C3007.96,-292.74 2978.22,-180.17 2964.33,-127.63"/>
<polygon fill="#599900" stroke="#599900" points="2967.49,-126.86 2961.55,-118.09 2960.72,-128.65 2967.49,-126.86"/>
<text text-anchor="middle" x="2982.88" y="-146.7" font-family="Times,serif" font-size="14.00" fill="#599900">OK</text>
</g>
<!-- NodeLeave&#45;&gt;Node999 -->
<g id="edge19" class="edge">
<title>NodeLeave&#45;&gt;Node999</title>
<path fill="none" stroke="#555555" stroke-dasharray="1,5" d="M2936.28,-86.91C2910.82,-73.43 2867.4,-50.45 2838.22,-35"/>
<polygon fill="#555555" stroke="#555555" points="2840.02,-31.46 2829.54,-29.87 2836.74,-37.65 2840.02,-31.46"/>
</g>
<!-- Heal_Robo -->
<g id="node40" class="node">
<title>Heal_Robo</title>
<ellipse fill="#ffffff" stroke="#000000" cx="4752" cy="-716.78" rx="137" ry="115.44"/>
<text text-anchor="middle" x="4752" y="-781.11" font-family="Times,serif" font-size="14.00">Cyberdog has been</text>
<text text-anchor="middle" x="4752" y="-763.86" font-family="Times,serif" font-size="14.00">repaired some.</text>
<text text-anchor="middle" x="4752" y="-746.61" font-family="Times,serif" font-size="14.00">&#45;&#45;&#45;</text>
<text text-anchor="middle" x="4752" y="-729.36" font-family="Times,serif" font-size="14.00">Cyberdog is all fixed</text>
<text text-anchor="middle" x="4752" y="-712.11" font-family="Times,serif" font-size="14.00">now.</text>
<text text-anchor="middle" x="4752" y="-694.86" font-family="Times,serif" font-size="14.00">&#45;&#45;&#45;</text>
<text text-anchor="middle" x="4752" y="-677.61" font-family="Times,serif" font-size="14.00">Cyberdog can&#39;t be</text>
<text text-anchor="middle" x="4752" y="-660.36" font-family="Times,serif" font-size="14.00">repaired anymore at this</text>
<text text-anchor="middle" x="4752" y="-643.11" font-family="Times,serif" font-size="14.00">time.</text>
</g>
<!-- use_obj_on_p_proc -->
<g id="node41" class="node">
<title>use_obj_on_p_proc</title>
<ellipse fill="#ffffff" stroke="#000000" cx="4934" cy="-716.78" rx="27" ry="18"/>
</g>
<!-- Heal_Robo(10) -->
<g id="node42" class="node">
<title>Heal_Robo(10)</title>
<ellipse fill="none" stroke="black" cx="4840" cy="-354.42" rx="84.35" ry="18"/>
<text text-anchor="middle" x="4840" y="-349.75" font-family="Times,serif" font-size="14.00">Heal_Robo(10)</text>
</g>
<!-- use_obj_on_p_proc&#45;&gt;Heal_Robo(10) -->
<g id="edge15" class="edge">
<title>use_obj_on_p_proc&#45;&gt;Heal_Robo(10)</title>
<path fill="none" stroke="#555555" stroke-dasharray="1,5" d="M4929.59,-698.88C4914.64,-641.56 4865.75,-454.13 4847.21,-383.07"/>
<polygon fill="#555555" stroke="#555555" points="4850.42,-382.5 4844.51,-373.7 4843.65,-384.26 4850.42,-382.5"/>
</g>
<!-- Heal_Robo(30) -->
<g id="node43" class="node">
<title>Heal_Robo(30)</title>
<ellipse fill="none" stroke="black" cx="5027" cy="-354.42" rx="84.35" ry="18"/>
<text text-anchor="middle" x="5027" y="-349.75" font-family="Times,serif" font-size="14.00">Heal_Robo(30)</text>
</g>
<!-- use_obj_on_p_proc&#45;&gt;Heal_Robo(30) -->
<g id="edge16" class="edge">
<title>use_obj_on_p_proc&#45;&gt;Heal_Robo(30)</title>
<path fill="none" stroke="#555555" stroke-dasharray="1,5" d="M4938.36,-698.88C4953.15,-641.56 5001.53,-454.13 5019.86,-383.07"/>
<polygon fill="#555555" stroke="#555555" points="5023.43,-384.26 5022.54,-373.7 5016.65,-382.51 5023.43,-384.26"/>
</g>
<!-- timed_event_p_proc -->
<g id="node44" class="node">
<title>timed_event_p_proc</title>
<ellipse fill="#ffffff" stroke="#000000" cx="5006" cy="-716.78" rx="27" ry="18"/>
</g>
</g>
</svg>
