<?xml version="1.0" encoding="UTF-8" standalone="no"?>
<!DOCTYPE svg PUBLIC "-//W3C//DTD SVG 1.1//EN"
 "http://www.w3.org/Graphics/SVG/1.1/DTD/svg11.dtd">
<!-- Generated by graphviz version 8.0.5 (0)
 -->
<!-- Title: scslvgrd Pages: 1 -->
<svg width="1804pt" height="429pt"
 viewBox="0.00 0.00 1804.00 429.00" xmlns="http://www.w3.org/2000/svg" xmlns:xlink="http://www.w3.org/1999/xlink">
<g id="graph0" class="graph" transform="scale(1 1) rotate(0) translate(4 425)">
<title>scslvgrd</title>
<polygon fill="white" stroke="none" points="-4,4 -4,-425 1800,-425 1800,4 -4,4"/>
<!-- checkPartyMembersNearDoor -->
<g id="node1" class="node">
<title>checkPartyMembersNearDoor</title>
<ellipse fill="#ffffff" stroke="#000000" cx="168" cy="-366.55" rx="27" ry="18"/>
</g>
<!-- start -->
<g id="node2" class="node">
<title>start</title>
<ellipse fill="#ffffff" stroke="#000000" cx="240" cy="-366.55" rx="27" ry="18"/>
</g>
<!-- critter_p_proc -->
<g id="node3" class="node">
<title>critter_p_proc</title>
<ellipse fill="#ffffff" stroke="#000000" cx="34" cy="-162" rx="27" ry="18"/>
</g>
<!-- anim_end_call -->
<g id="node4" class="node">
<title>anim_end_call</title>
<ellipse fill="#ffffff" stroke="#000000" cx="34" cy="-90" rx="27" ry="18"/>
</g>
<!-- critter_p_proc&#45;&gt;anim_end_call -->
<g id="edge1" class="edge">
<title>critter_p_proc&#45;&gt;anim_end_call</title>
<path fill="none" stroke="#555555" stroke-dasharray="1,5" d="M34,-143.7C34,-136.24 34,-127.32 34,-118.97"/>
<polygon fill="#555555" stroke="#555555" points="37.5,-119.1 34,-109.1 30.5,-119.1 37.5,-119.1"/>
</g>
<!-- chooseNewTarget -->
<g id="node25" class="node">
<title>chooseNewTarget</title>
<ellipse fill="#ffffff" stroke="#000000" cx="27" cy="-18" rx="27" ry="18"/>
</g>
<!-- anim_end_call&#45;&gt;chooseNewTarget -->
<g id="edge10" class="edge">
<title>anim_end_call&#45;&gt;chooseNewTarget</title>
<path fill="none" stroke="#555555" stroke-dasharray="1,5" d="M32.27,-71.7C31.52,-64.24 30.63,-55.32 29.8,-46.97"/>
<polygon fill="#555555" stroke="#555555" points="33.19,-46.71 28.71,-37.1 26.22,-47.4 33.19,-46.71"/>
</g>
<!-- go_tile(patrolTarget) -->
<g id="node26" class="node">
<title>go_tile(patrolTarget)</title>
<ellipse fill="none" stroke="black" cx="186" cy="-18" rx="114.34" ry="18"/>
<text text-anchor="middle" x="186" y="-13.32" font-family="Times,serif" font-size="14.00">go_tile(patrolTarget)</text>
</g>
<!-- anim_end_call&#45;&gt;go_tile(patrolTarget) -->
<g id="edge11" class="edge">
<title>anim_end_call&#45;&gt;go_tile(patrolTarget)</title>
<path fill="none" stroke="#555555" stroke-dasharray="1,5" d="M55.78,-78.97C77.71,-68.87 112.22,-52.98 140.2,-40.09"/>
<polygon fill="#555555" stroke="#555555" points="141.56,-42.86 149.18,-35.5 138.63,-36.5 141.56,-42.86"/>
</g>
<!-- pickup_p_proc -->
<g id="node5" class="node">
<title>pickup_p_proc</title>
<ellipse fill="#ffffff" stroke="#000000" cx="431" cy="-366.55" rx="27" ry="18"/>
</g>
<!-- talk_p_proc -->
<g id="node6" class="node">
<title>talk_p_proc</title>
<ellipse fill="#ffffff" stroke="#000000" cx="597" cy="-366.55" rx="27" ry="18"/>
</g>
<!-- Node001 -->
<g id="node7" class="node">
<title>Node001</title>
<ellipse fill="#ffffff" stroke="#000000" cx="478" cy="-246.05" rx="121.09" ry="30.05"/>
<text text-anchor="middle" x="478" y="-250" font-family="Times,serif" font-size="14.00">Talk to Mr. Vortis, not</text>
<text text-anchor="middle" x="478" y="-232.75" font-family="Times,serif" font-size="14.00">me.</text>
</g>
<!-- talk_p_proc&#45;&gt;Node001 -->
<g id="edge2" class="edge">
<title>talk_p_proc&#45;&gt;Node001</title>
<path fill="none" stroke="#555555" stroke-dasharray="1,5" d="M582.41,-351.02C565.46,-334.14 536.88,-305.68 513.9,-282.81"/>
<polygon fill="#555555" stroke="#555555" points="516.91,-280.86 507.35,-276.29 511.97,-285.82 516.91,-280.86"/>
</g>
<!-- Node002 -->
<g id="node8" class="node">
<title>Node002</title>
<ellipse fill="#ffffff" stroke="#000000" cx="644" cy="-246.05" rx="27" ry="18"/>
</g>
<!-- talk_p_proc&#45;&gt;Node002 -->
<g id="edge3" class="edge">
<title>talk_p_proc&#45;&gt;Node002</title>
<path fill="none" stroke="#555555" stroke-dasharray="1,5" d="M603.63,-348.82C611.37,-329.33 624.25,-296.85 633.38,-273.83"/>
<polygon fill="#555555" stroke="#555555" points="636.97,-275.28 637.4,-264.69 630.46,-272.7 636.97,-275.28"/>
</g>
<!-- destroy_p_proc -->
<g id="node9" class="node">
<title>destroy_p_proc</title>
<ellipse fill="#ffffff" stroke="#000000" cx="669" cy="-366.55" rx="27" ry="18"/>
</g>
<!-- look_at_p_proc -->
<g id="node10" class="node">
<title>look_at_p_proc</title>
<ellipse fill="#ffffff" stroke="#000000" cx="849" cy="-366.55" rx="134.88" ry="54.45"/>
<text text-anchor="middle" x="849" y="-387.75" font-family="Times,serif" font-size="14.00">Big guy &#45; gun &#160;&#45;&#45;</text>
<text text-anchor="middle" x="849" y="-370.5" font-family="Times,serif" font-size="14.00">standing around. Guard.</text>
<text text-anchor="middle" x="849" y="-353.25" font-family="Times,serif" font-size="14.00">&#45;&#45;&#45;</text>
<text text-anchor="middle" x="849" y="-336" font-family="Times,serif" font-size="14.00">Still a guard.</text>
</g>
<!-- description_p_proc -->
<g id="node11" class="node">
<title>description_p_proc</title>
<ellipse fill="#ffffff" stroke="#000000" cx="1147" cy="-366.55" rx="145.49" ry="54.45"/>
<text text-anchor="middle" x="1147" y="-387.75" font-family="Times,serif" font-size="14.00">He&#39;s got a slaver tattoo</text>
<text text-anchor="middle" x="1147" y="-370.5" font-family="Times,serif" font-size="14.00">on his forehead, which</text>
<text text-anchor="middle" x="1147" y="-353.25" font-family="Times,serif" font-size="14.00">doesn&#39;t make him look any</text>
<text text-anchor="middle" x="1147" y="-336" font-family="Times,serif" font-size="14.00">brighter.</text>
</g>
<!-- use_skill_on_p_proc -->
<g id="node12" class="node">
<title>use_skill_on_p_proc</title>
<ellipse fill="#ffffff" stroke="#000000" cx="1337" cy="-366.55" rx="27" ry="18"/>
</g>
<!-- damage_p_proc -->
<g id="node13" class="node">
<title>damage_p_proc</title>
<ellipse fill="#ffffff" stroke="#000000" cx="1409" cy="-366.55" rx="27" ry="18"/>
</g>
<!-- map_enter_p_proc -->
<g id="node14" class="node">
<title>map_enter_p_proc</title>
<ellipse fill="#ffffff" stroke="#000000" cx="312" cy="-162" rx="27" ry="18"/>
</g>
<!-- startPatrol -->
<g id="node15" class="node">
<title>startPatrol</title>
<ellipse fill="#ffffff" stroke="#000000" cx="222" cy="-90" rx="27" ry="18"/>
</g>
<!-- map_enter_p_proc&#45;&gt;startPatrol -->
<g id="edge4" class="edge">
<title>map_enter_p_proc&#45;&gt;startPatrol</title>
<path fill="none" stroke="#555555" stroke-dasharray="1,5" d="M295.07,-147.83C281.71,-137.44 262.84,-122.76 247.63,-110.93"/>
<polygon fill="#555555" stroke="#555555" points="250.2,-107.72 240.16,-104.35 245.9,-113.25 250.2,-107.72"/>
</g>
<!-- checkOfficePos -->
<g id="node16" class="node">
<title>checkOfficePos</title>
<ellipse fill="#ffffff" stroke="#000000" cx="393" cy="-90" rx="27" ry="18"/>
</g>
<!-- map_enter_p_proc&#45;&gt;checkOfficePos -->
<g id="edge5" class="edge">
<title>map_enter_p_proc&#45;&gt;checkOfficePos</title>
<path fill="none" stroke="#555555" stroke-dasharray="1,5" d="M328,-147.17C339.65,-137.1 355.63,-123.29 368.83,-111.89"/>
<polygon fill="#555555" stroke="#555555" points="370.75,-113.99 376.03,-104.8 366.18,-108.69 370.75,-113.99"/>
</g>
<!-- startPatrol&#45;&gt;go_tile(patrolTarget) -->
<g id="edge12" class="edge">
<title>startPatrol&#45;&gt;go_tile(patrolTarget)</title>
<path fill="none" stroke="#555555" stroke-dasharray="1,5" d="M213.65,-72.76C209.55,-64.78 204.49,-54.95 199.83,-45.89"/>
<polygon fill="#555555" stroke="#555555" points="202.49,-44.42 194.81,-37.12 196.27,-47.62 202.49,-44.42"/>
</g>
<!-- go_tile(11918) -->
<g id="node29" class="node">
<title>go_tile(11918)</title>
<ellipse fill="none" stroke="black" cx="402" cy="-18" rx="83.3" ry="18"/>
<text text-anchor="middle" x="402" y="-13.32" font-family="Times,serif" font-size="14.00">go_tile(11918)</text>
</g>
<!-- checkOfficePos&#45;&gt;go_tile(11918) -->
<g id="edge13" class="edge">
<title>checkOfficePos&#45;&gt;go_tile(11918)</title>
<path fill="none" stroke="#555555" stroke-dasharray="1,5" d="M395.22,-71.7C396.18,-64.24 397.33,-55.32 398.4,-46.97"/>
<polygon fill="#555555" stroke="#555555" points="402,-47.47 399.8,-37.1 395.05,-46.58 402,-47.47"/>
</g>
<!-- Node998 -->
<g id="node17" class="node">
<title>Node998</title>
<ellipse fill="#ffffff" stroke="#000000" cx="1481" cy="-366.55" rx="27" ry="18"/>
</g>
<!-- Node999 -->
<g id="node18" class="node">
<title>Node999</title>
<ellipse fill="#ffffff" stroke="#000000" cx="1553" cy="-366.55" rx="27" ry="18"/>
</g>
<!-- getTimeBit -->
<g id="node19" class="node">
<title>getTimeBit</title>
<ellipse fill="#ffffff" stroke="#000000" cx="1625" cy="-366.55" rx="27" ry="18"/>
</g>
<!-- timer_proc -->
<g id="node20" class="node">
<title>timer_proc</title>
<ellipse fill="#ffffff" stroke="#000000" cx="312" cy="-246.05" rx="27" ry="18"/>
</g>
<!-- check8to11pos -->
<g id="node21" class="node">
<title>check8to11pos</title>
<ellipse fill="#ffffff" stroke="#000000" cx="384" cy="-162" rx="27" ry="18"/>
</g>
<!-- timer_proc&#45;&gt;check8to11pos -->
<g id="edge6" class="edge">
<title>timer_proc&#45;&gt;check8to11pos</title>
<path fill="none" stroke="#555555" stroke-dasharray="1,5" d="M325.21,-230C335.96,-217.74 351.34,-200.22 363.66,-186.18"/>
<polygon fill="#555555" stroke="#555555" points="366.91,-188.78 370.88,-178.95 361.65,-184.16 366.91,-188.78"/>
</g>
<!-- check12to3pos -->
<g id="node22" class="node">
<title>check12to3pos</title>
<ellipse fill="#ffffff" stroke="#000000" cx="456" cy="-162" rx="27" ry="18"/>
</g>
<!-- timer_proc&#45;&gt;check12to3pos -->
<g id="edge7" class="edge">
<title>timer_proc&#45;&gt;check12to3pos</title>
<path fill="none" stroke="#555555" stroke-dasharray="1,5" d="M327.55,-231.24C333.7,-226.13 340.96,-220.49 348,-216 355.05,-211.51 395.53,-191.9 424.87,-177.84"/>
<polygon fill="#555555" stroke="#555555" points="426.19,-180.61 433.7,-173.14 423.17,-174.29 426.19,-180.61"/>
</g>
<!-- check4to11pos -->
<g id="node23" class="node">
<title>check4to11pos</title>
<ellipse fill="#ffffff" stroke="#000000" cx="168" cy="-162" rx="27" ry="18"/>
</g>
<!-- timer_proc&#45;&gt;check4to11pos -->
<g id="edge8" class="edge">
<title>timer_proc&#45;&gt;check4to11pos</title>
<path fill="none" stroke="#555555" stroke-dasharray="1,5" d="M291.98,-233.64C267.37,-219.62 225.41,-195.71 197.2,-179.64"/>
<polygon fill="#555555" stroke="#555555" points="199.27,-176.22 188.85,-174.31 195.81,-182.3 199.27,-176.22"/>
</g>
<!-- check12to7pos -->
<g id="node24" class="node">
<title>check12to7pos</title>
<ellipse fill="#ffffff" stroke="#000000" cx="240" cy="-162" rx="27" ry="18"/>
</g>
<!-- timer_proc&#45;&gt;check12to7pos -->
<g id="edge9" class="edge">
<title>timer_proc&#45;&gt;check12to7pos</title>
<path fill="none" stroke="#555555" stroke-dasharray="1,5" d="M298.79,-230C288.04,-217.74 272.66,-200.22 260.34,-186.18"/>
<polygon fill="#555555" stroke="#555555" points="262.35,-184.16 253.12,-178.95 257.09,-188.78 262.35,-184.16"/>
</g>
<!-- check8to11pos&#45;&gt;checkOfficePos -->
<g id="edge15" class="edge">
<title>check8to11pos&#45;&gt;checkOfficePos</title>
<path fill="none" stroke="#555555" stroke-dasharray="1,5" d="M386.22,-143.7C387.18,-136.24 388.33,-127.32 389.4,-118.97"/>
<polygon fill="#555555" stroke="#555555" points="393,-119.47 390.8,-109.1 386.05,-118.58 393,-119.47"/>
</g>
<!-- check12to3pos&#45;&gt;checkOfficePos -->
<g id="edge16" class="edge">
<title>check12to3pos&#45;&gt;checkOfficePos</title>
<path fill="none" stroke="#555555" stroke-dasharray="1,5" d="M442.64,-146.15C434.2,-136.78 423.13,-124.48 413.59,-113.88"/>
<polygon fill="#555555" stroke="#555555" points="416.63,-111.92 407.34,-106.82 411.43,-116.6 416.63,-111.92"/>
</g>
<!-- check4to11pos&#45;&gt;startPatrol -->
<g id="edge17" class="edge">
<title>check4to11pos&#45;&gt;startPatrol</title>
<path fill="none" stroke="#555555" stroke-dasharray="1,5" d="M179.98,-145.46C186.91,-136.49 195.76,-125.02 203.55,-114.92"/>
<polygon fill="#555555" stroke="#555555" points="206.71,-117.55 210.05,-107.49 201.17,-113.27 206.71,-117.55"/>
</g>
<!-- check12to7pos&#45;&gt;startPatrol -->
<g id="edge18" class="edge">
<title>check12to7pos&#45;&gt;startPatrol</title>
<path fill="none" stroke="#555555" stroke-dasharray="1,5" d="M235.64,-144.05C233.65,-136.32 231.25,-126.96 229.01,-118.27"/>
<polygon fill="#555555" stroke="#555555" points="232.2,-117.6 226.32,-108.79 225.42,-119.35 232.2,-117.6"/>
</g>
<!-- canSeePlayer -->
<g id="node27" class="node">
<title>canSeePlayer</title>
<ellipse fill="#ffffff" stroke="#000000" cx="1697" cy="-366.55" rx="27" ry="18"/>
</g>
<!-- go_tile -->
<g id="node28" class="node">
<title>go_tile</title>
<ellipse fill="#ffffff" stroke="#000000" cx="1769" cy="-366.55" rx="27" ry="18"/>
</g>
<!-- timed_event_p_proc -->
<g id="node30" class="node">
<title>timed_event_p_proc</title>
<ellipse fill="#ffffff" stroke="#000000" cx="312" cy="-366.55" rx="27" ry="18"/>
</g>
<!-- timed_event_p_proc&#45;&gt;timer_proc -->
<g id="edge14" class="edge">
<title>timed_event_p_proc&#45;&gt;timer_proc</title>
<path fill="none" stroke="#555555" stroke-dasharray="1,5" d="M312,-348.07C312,-328.88 312,-297.8 312,-275.18"/>
<polygon fill="#555555" stroke="#555555" points="315.5,-275.22 312,-265.22 308.5,-275.22 315.5,-275.22"/>
</g>
</g>
</svg>
